<?xml version="1.0" standalone="no"?>
<!DOCTYPE svg PUBLIC "-//W3C//DTD SVG 20010904//EN"
 "http://www.w3.org/TR/2001/REC-SVG-20010904/DTD/svg10.dtd">
<svg version="1.0" xmlns="http://www.w3.org/2000/svg"
 width="1696.227312pt" height="1261.359136pt" viewBox="0 0 1696.227312 1261.359136"
 preserveAspectRatio="xMidYMid meet">
<metadata>
Created by potrace 1.16, written by Peter Selinger 2001-2019
</metadata>
<g transform="translate(-194.306702,1430.382641) scale(0.100000,-0.100000)"
fill="#fff" stroke="none">
<path d="M5775 14300 c-60 -4 -126 -12 -145 -20 -19 -7 -66 -16 -105 -20 -38
-5 -92 -13 -120 -19 -27 -6 -90 -15 -140 -21 -49 -5 -126 -15 -170 -21 -58 -8
-103 -8 -165 0 -61 8 -128 9 -235 1 -83 -5 -275 -7 -430 -4 -252 6 -286 8
-340 28 -58 20 -76 21 -465 21 -223 0 -441 -1 -485 -2 -44 -1 -161 -1 -260 -1
-99 0 -209 -4 -245 -10 -36 -6 -89 -15 -118 -20 -29 -5 -58 -14 -64 -20 -7 -7
-29 -12 -51 -12 -54 0 -70 -11 -174 -117 l-93 -93 0 -58 c0 -42 7 -68 24 -99
l24 -42 -19 -183 c-11 -101 -22 -273 -25 -383 -2 -110 -8 -236 -13 -280 -5
-44 -12 -204 -15 -355 -5 -225 -4 -284 8 -325 18 -60 18 -88 11 -495 -9 -491
-9 -498 2 -631 7 -80 17 -138 28 -159 13 -25 15 -48 11 -104 -14 -168 -17
-429 -7 -551 6 -71 12 -195 12 -275 1 -80 8 -212 16 -295 8 -82 12 -186 9
-230 -3 -44 -1 -123 5 -175 22 -207 29 -293 44 -500 8 -118 20 -249 26 -290 7
-41 11 -112 10 -157 -9 -450 -3 -1036 10 -1070 12 -30 25 -244 37 -578 5 -133
12 -218 20 -232 7 -12 12 -58 12 -105 0 -65 4 -90 20 -116 19 -30 19 -39 9
-120 -33 -248 -44 -427 -34 -510 6 -52 10 -58 100 -148 68 -68 106 -98 137
-108 33 -12 102 -15 298 -16 408 -1 527 -9 650 -40 25 -6 70 -15 100 -19 30
-4 68 -13 83 -19 16 -7 41 -12 57 -12 36 0 50 -23 50 -83 0 -31 8 -56 25 -82
26 -37 26 -39 26 -244 1 -178 4 -212 20 -249 17 -40 19 -70 17 -310 -1 -215 2
-288 16 -377 14 -83 18 -162 18 -317 -1 -211 6 -266 42 -308 8 -9 16 -54 20
-114 4 -54 11 -107 16 -117 6 -10 10 -53 10 -96 0 -43 5 -94 10 -113 6 -19 12
-108 15 -197 2 -90 7 -168 12 -175 4 -7 11 -38 15 -68 4 -30 12 -84 18 -120 8
-49 8 -78 -1 -117 -14 -62 -7 -239 15 -353 12 -63 20 -79 48 -103 18 -15 47
-35 65 -43 55 -24 195 -16 281 17 28 11 61 81 62 130 0 23 7 42 21 55 11 10
32 43 46 73 15 30 43 73 63 96 21 22 43 52 51 67 77 149 139 277 139 290 0 9
11 40 25 70 14 29 25 60 25 68 1 8 11 33 23 55 12 22 46 89 76 148 29 60 71
129 92 153 21 25 39 54 39 64 0 10 15 40 33 65 53 77 86 128 104 165 10 19 29
51 43 70 38 52 100 156 100 169 0 6 20 33 45 61 25 28 45 58 45 68 0 21 74
166 105 208 27 36 75 139 75 161 0 8 9 26 20 40 11 14 20 39 20 54 0 16 8 36
19 45 72 62 81 73 81 108 0 20 12 60 27 88 34 68 39 77 63 113 11 17 20 40 20
51 0 27 44 108 83 153 16 18 34 45 40 60 7 14 26 45 43 68 18 23 35 61 39 83
7 44 11 50 106 195 32 50 59 95 59 102 0 7 11 29 25 49 14 20 25 43 25 51 0 8
11 31 25 51 14 20 25 41 25 47 0 6 24 34 53 62 l52 52 145 22 c80 11 181 21
225 20 198 -3 257 -2 360 3 62 4 183 1 275 -6 l165 -13 5 -52 c3 -29 11 -58
18 -65 6 -6 12 -21 12 -33 0 -11 8 -32 17 -45 13 -19 17 -40 15 -85 -3 -54 -1
-64 26 -97 16 -21 35 -52 42 -70 6 -18 16 -43 21 -55 4 -12 26 -31 47 -42 26
-13 44 -32 57 -60 11 -25 39 -57 73 -83 30 -23 66 -60 79 -81 41 -65 229 -260
298 -310 21 -15 46 -27 57 -27 17 0 85 -54 173 -138 22 -21 52 -46 67 -55 15
-9 44 -34 65 -56 48 -49 72 -61 121 -61 32 0 48 -8 96 -50 31 -28 62 -50 67
-50 5 0 31 -20 57 -44 59 -54 81 -66 127 -66 22 0 49 -9 67 -21 16 -12 48 -26
71 -31 23 -5 69 -22 103 -39 34 -16 74 -29 89 -29 15 0 38 -9 52 -20 15 -12
41 -20 62 -20 21 0 41 -4 46 -9 24 -23 138 -51 205 -51 39 0 80 -5 91 -10 20
-11 102 -25 237 -40 45 -5 88 -13 95 -17 6 -4 37 -11 67 -15 111 -15 135 -21
160 -40 20 -16 38 -19 95 -17 106 4 277 -12 300 -27 13 -9 48 -14 100 -14 l80
0 85 -90 c78 -83 88 -90 123 -90 32 0 44 -6 70 -36 18 -19 48 -45 67 -57 19
-11 50 -38 68 -58 18 -21 63 -58 100 -83 37 -25 103 -80 147 -123 44 -43 98
-89 120 -103 22 -13 55 -36 73 -52 18 -15 39 -28 48 -28 8 0 27 -8 42 -19 76
-52 127 -81 144 -81 32 0 77 -29 93 -60 17 -33 43 -50 74 -50 12 0 49 -19 82
-43 84 -58 192 -126 202 -127 5 0 27 -15 50 -34 23 -18 71 -48 107 -66 36 -18
86 -52 112 -76 26 -24 53 -44 60 -44 7 0 31 -14 52 -30 22 -17 45 -30 53 -30
7 0 30 -16 52 -35 21 -19 63 -46 92 -60 78 -37 125 -74 157 -125 16 -25 37
-52 47 -60 40 -33 287 -45 343 -16 18 9 49 43 72 78 32 49 40 72 40 107 0 26
7 55 15 65 19 26 19 115 0 142 -12 18 -14 69 -11 312 3 162 9 298 14 309 9 16
17 338 17 693 l0 125 45 5 c25 3 52 10 60 15 8 5 65 13 125 17 149 9 251 26
303 49 23 10 86 24 139 30 54 6 100 12 104 15 3 2 98 6 210 9 340 9 434 14
480 24 24 6 92 11 151 11 99 0 109 2 136 25 17 14 38 25 48 25 11 1 30 7 44
15 14 8 43 14 66 15 22 0 76 9 119 20 43 11 91 20 107 20 16 0 43 7 59 16 17
8 70 19 119 24 48 5 114 16 146 25 32 8 73 15 91 15 18 0 76 16 130 36 53 20
126 40 162 44 36 4 86 15 111 25 25 9 65 22 90 29 50 15 135 68 144 91 3 8 13
15 22 15 9 0 46 17 82 38 35 20 76 43 91 51 14 7 35 21 46 31 11 10 34 25 50
33 28 14 87 63 205 166 101 89 126 109 158 125 18 9 41 29 50 45 19 31 99 130
188 235 54 63 114 169 114 200 0 6 18 36 40 66 22 30 48 71 58 90 9 19 27 49
38 65 12 17 30 51 41 76 11 25 37 69 58 99 21 30 46 77 56 105 20 57 86 192
105 215 6 8 26 51 44 95 17 44 43 100 57 125 22 41 49 105 83 200 7 19 18 46
25 60 7 14 16 52 20 84 4 33 13 70 21 82 14 20 26 69 41 164 3 19 10 41 16 49
6 7 14 36 18 65 4 28 15 87 24 131 9 44 20 127 24 185 5 58 14 123 21 145 7
22 16 103 21 180 5 77 13 167 19 200 20 110 54 631 43 655 -4 8 -10 71 -14
140 -4 69 -14 159 -23 200 -10 41 -21 100 -25 130 -5 30 -16 75 -26 100 -18
49 -55 237 -55 285 0 17 -7 50 -16 75 -9 25 -22 92 -30 150 -7 58 -18 121 -24
140 -6 19 -20 71 -31 115 -11 44 -26 89 -33 100 -18 28 -46 119 -46 148 0 13
-10 37 -22 53 -14 17 -25 49 -29 84 -4 30 -17 84 -29 120 -46 135 -73 207 -96
257 -13 28 -24 55 -24 59 0 17 -54 121 -75 144 -12 14 -25 36 -28 50 -6 23
-49 72 -147 165 -85 81 -219 225 -245 263 -16 24 -41 50 -56 57 -15 8 -45 37
-67 65 -48 61 -167 170 -185 170 -7 0 -26 14 -43 31 -16 17 -45 42 -64 54 -19
13 -64 52 -100 87 -46 45 -88 75 -137 98 -40 18 -80 42 -90 52 -23 26 -86 58
-113 58 -13 0 -48 28 -89 70 -44 45 -77 70 -91 70 -12 0 -35 15 -53 35 -17 20
-60 52 -97 72 -107 60 -212 113 -225 113 -7 0 -20 9 -30 20 -28 31 -116 76
-160 82 -22 3 -58 17 -79 32 -27 18 -52 26 -82 26 -29 0 -55 8 -80 25 -20 14
-42 25 -49 25 -7 0 -34 12 -61 27 -28 16 -73 30 -104 34 -30 4 -100 24 -155
47 -144 58 -288 88 -530 113 -49 5 -128 14 -175 20 -47 5 -125 12 -175 14 -49
3 -128 10 -175 17 l-85 13 -18 55 c-16 47 -19 88 -18 280 0 124 -4 313 -8 420
-24 565 -24 570 -1 595 27 29 39 81 40 166 0 42 -5 72 -15 85 -8 10 -15 29
-15 42 0 13 -11 34 -25 47 -23 24 -29 25 -159 25 -127 0 -136 -1 -163 -24 -22
-19 -45 -25 -109 -31 -117 -10 -329 -8 -569 5 -115 7 -286 14 -380 15 -93 2
-260 6 -370 10 -110 4 -227 8 -260 7 -33 0 -123 0 -200 1 -380 4 -1592 0
-1750 -6 -99 -4 -194 -12 -212 -18 -21 -7 -136 -10 -325 -8 -217 2 -344 -2
-488 -15 -301 -27 -441 -35 -620 -37 -183 -2 -500 14 -628 31 -73 9 -240 14
-337 10 -16 -1 -154 6 -305 15 -151 9 -342 18 -425 20 -82 2 -212 12 -287 21
-76 9 -149 14 -163 12 -14 -3 -80 -1 -148 3 -163 12 -665 17 -802 9z m578
-405 c49 -4 103 -13 120 -20 19 -8 72 -13 132 -13 55 -1 120 -6 145 -12 95
-25 225 -30 495 -18 206 9 314 9 455 0 102 -7 229 -12 283 -12 54 0 107 -4
117 -10 10 -5 85 -15 167 -20 87 -7 167 -18 193 -27 25 -9 88 -20 140 -24 52
-4 120 -11 152 -14 41 -5 68 -3 100 9 59 21 169 34 249 28 43 -3 75 0 90 9 15
8 88 16 194 20 94 4 233 13 310 19 77 6 151 11 165 10 65 -5 251 1 273 9 14 6
41 5 69 -1 34 -8 91 -7 224 6 200 18 518 21 779 6 94 -5 206 -6 250 -2 45 4
161 2 265 -5 233 -16 1816 -26 1843 -11 12 6 35 6 65 -1 26 -6 132 -13 237
-16 136 -3 193 -8 202 -18 10 -10 14 -81 16 -307 1 -162 6 -301 10 -307 5 -7
10 -115 13 -240 6 -315 33 -718 53 -808 7 -27 11 -113 10 -190 -2 -258 3 -440
13 -459 5 -10 14 -98 18 -195 5 -97 15 -234 24 -306 22 -181 25 -433 7 -510
-18 -74 -19 -388 -2 -585 6 -74 14 -389 17 -700 3 -311 6 -623 7 -695 2 -160
-11 -526 -24 -700 -13 -170 -19 -596 -8 -616 6 -13 24 -710 20 -849 0 -25 4
-107 10 -183 7 -99 7 -142 0 -151 -19 -23 -87 -28 -511 -36 -228 -5 -422 -9
-430 -9 -8 -1 -222 0 -475 2 -460 3 -1013 -13 -1150 -33 -38 -6 -146 -10 -240
-10 -93 0 -204 0 -245 0 -41 0 -298 0 -570 1 -272 0 -607 -2 -743 -6 -209 -6
-256 -4 -295 8 -29 10 -83 16 -142 15 -52 0 -144 5 -203 12 -59 7 -120 9 -135
5 -28 -7 -175 -12 -364 -13 -58 0 -115 -5 -127 -11 -14 -8 -42 -8 -98 0 -68
10 -225 17 -458 20 -38 1 -99 -4 -135 -10 -126 -22 -151 -23 -422 -4 -314 21
-611 23 -678 4 -25 -7 -116 -15 -205 -16 -233 -5 -374 -18 -415 -38 -67 -34
-115 -67 -173 -119 -46 -42 -60 -62 -68 -96 -14 -65 -84 -206 -155 -313 -37
-55 -64 -107 -64 -121 0 -14 -7 -31 -16 -39 -8 -7 -25 -30 -36 -52 -11 -22
-32 -57 -48 -79 -16 -21 -31 -56 -35 -77 -4 -24 -22 -58 -48 -90 -58 -69 -106
-148 -129 -212 -11 -30 -25 -68 -32 -84 -6 -17 -21 -43 -33 -59 -13 -16 -23
-35 -23 -43 0 -8 -11 -28 -25 -45 -14 -16 -25 -41 -25 -55 0 -14 -13 -41 -30
-60 -16 -18 -30 -41 -30 -49 0 -9 -11 -29 -25 -46 -14 -16 -25 -41 -25 -55 0
-14 -11 -38 -24 -53 -16 -19 -26 -48 -31 -86 -6 -52 -13 -64 -65 -123 -33 -36
-70 -82 -84 -101 -35 -49 -86 -146 -86 -165 0 -14 -28 -56 -100 -150 -66 -86
-102 -138 -113 -163 -6 -15 -22 -40 -34 -55 -13 -16 -23 -33 -23 -39 0 -6 -6
-19 -14 -27 -30 -34 -176 -314 -176 -337 0 -22 -41 -94 -85 -148 -30 -38 -32
-29 -55 234 -5 63 -14 140 -20 170 -6 30 -15 96 -19 145 -5 50 -14 110 -20
135 -6 25 -16 158 -21 295 -5 138 -14 268 -20 290 -6 25 -7 164 -3 371 5 253
3 343 -6 377 -18 62 -19 243 -2 428 8 86 11 168 7 182 -4 17 -25 38 -59 60
l-53 34 4 78 c4 64 1 86 -17 124 -40 85 -46 94 -74 115 -34 25 -117 30 -517
28 -52 0 -102 4 -112 9 -9 5 -84 9 -165 9 -81 0 -166 1 -188 1 -22 1 -107 2
-190 3 l-150 1 -7 150 c-8 146 -20 316 -39 540 -5 61 -11 151 -13 200 -5 133
-22 304 -35 350 -23 87 -31 720 -16 1290 7 271 2 327 -43 495 -24 90 -32 144
-50 336 -4 45 -12 87 -19 95 -8 10 -10 78 -7 239 2 126 -1 260 -7 305 -6 44
-15 158 -21 253 -9 140 -8 180 2 213 11 33 12 59 2 137 -6 53 -14 209 -17 345
-3 153 -9 257 -16 270 -13 23 -33 285 -31 387 1 36 4 184 6 330 3 146 10 351
17 455 9 144 9 207 0 260 -16 95 -16 244 -2 400 8 80 10 193 7 295 -7 180 2
290 30 360 9 25 22 78 28 119 7 47 17 77 26 81 8 4 35 17 60 28 25 12 56 22
70 22 14 0 34 6 45 14 18 12 87 27 125 26 8 0 105 -5 215 -10 151 -8 215 -7
260 2 33 6 98 11 145 11 398 -7 456 -9 479 -22 17 -9 39 -11 75 -6 28 4 69 7
91 7 94 -1 810 1 1035 2 241 1 480 22 539 47 13 5 60 13 105 16 45 3 92 12
106 20 44 24 330 34 533 18z m8500 -1785 c78 -6 129 -15 150 -26 18 -10 68
-21 112 -24 103 -9 198 -27 243 -45 19 -8 62 -15 96 -15 38 -1 68 -6 80 -15
11 -8 29 -15 40 -15 26 0 89 -22 107 -37 30 -24 134 -63 170 -63 21 0 41 -5
44 -10 9 -14 111 -63 165 -79 25 -7 57 -19 72 -27 14 -8 34 -14 43 -14 9 0 28
-9 42 -20 14 -11 38 -20 53 -20 16 0 36 -10 51 -26 13 -15 44 -36 69 -48 25
-12 59 -35 76 -51 45 -43 115 -92 155 -109 19 -8 48 -29 64 -46 17 -18 55 -43
85 -56 30 -14 78 -47 105 -73 54 -52 184 -141 206 -141 8 0 61 -43 119 -96
163 -148 180 -165 196 -196 9 -17 31 -36 51 -44 38 -16 168 -133 194 -174 9
-14 45 -55 81 -91 35 -37 75 -81 89 -100 13 -19 47 -60 76 -91 29 -31 55 -70
58 -85 22 -104 50 -181 76 -209 12 -13 19 -35 19 -60 0 -22 7 -49 15 -61 18
-26 65 -154 65 -178 0 -31 22 -95 68 -198 12 -26 22 -60 22 -75 0 -15 6 -36
14 -47 19 -28 57 -177 65 -260 4 -38 15 -84 23 -100 9 -17 21 -66 27 -109 6
-43 14 -82 17 -87 3 -5 9 -71 14 -147 5 -75 16 -168 25 -207 8 -38 22 -99 30
-135 8 -36 15 -94 15 -128 0 -42 6 -74 17 -92 15 -26 15 -38 4 -112 -7 -46
-17 -119 -22 -163 -4 -44 -15 -132 -24 -195 -9 -63 -17 -207 -19 -321 -1 -113
-7 -212 -12 -220 -5 -8 -12 -48 -16 -89 -9 -103 -21 -153 -46 -185 -17 -21
-22 -41 -22 -86 0 -32 -9 -82 -19 -111 -11 -29 -25 -84 -31 -123 -7 -38 -30
-106 -50 -150 -69 -146 -112 -250 -122 -289 -5 -21 -20 -52 -33 -68 -14 -16
-25 -36 -25 -43 0 -8 -13 -29 -28 -47 -15 -18 -59 -94 -96 -168 -37 -74 -72
-139 -76 -145 -5 -5 -16 -30 -26 -55 -10 -25 -30 -60 -46 -78 -15 -18 -28 -41
-28 -51 0 -9 -12 -28 -26 -42 -14 -13 -49 -71 -77 -129 -41 -85 -64 -119 -121
-176 -39 -40 -96 -99 -126 -133 -105 -116 -161 -165 -204 -175 -16 -4 -46 -24
-65 -45 -20 -21 -51 -44 -70 -51 -19 -8 -54 -31 -78 -52 -24 -21 -54 -38 -65
-38 -12 0 -39 -19 -62 -43 -55 -57 -105 -85 -168 -92 -29 -4 -69 -12 -88 -19
-76 -28 -108 -36 -154 -36 -27 0 -63 -8 -86 -20 -22 -11 -57 -20 -78 -20 -24
0 -49 -8 -65 -20 -18 -14 -40 -20 -79 -20 -29 0 -71 -7 -93 -15 -23 -8 -78
-14 -131 -15 -76 0 -96 -3 -117 -20 -14 -11 -40 -20 -61 -20 -19 0 -50 -6 -68
-14 -91 -38 -135 -47 -283 -62 -38 -4 -86 -15 -105 -26 -25 -13 -56 -18 -110
-18 -41 0 -138 -7 -215 -15 -77 -8 -192 -15 -255 -15 -105 -1 -210 -15 -440
-60 -25 -5 -107 -14 -182 -20 -120 -9 -141 -9 -175 6 -32 13 -60 15 -178 9
-175 -8 -226 -23 -266 -78 l-30 -41 4 -265 c3 -147 10 -331 16 -411 9 -113 9
-158 0 -203 -7 -35 -10 -95 -6 -154 5 -88 4 -100 -20 -152 -28 -60 -31 -101
-23 -308 2 -56 1 -105 -3 -110 -5 -4 -16 -2 -25 5 -9 7 -30 19 -47 27 -16 8
-55 31 -85 50 -30 19 -76 46 -102 60 -26 13 -49 29 -53 35 -8 12 -138 98 -162
107 -10 3 -32 20 -49 37 -17 17 -46 41 -65 53 -42 27 -212 113 -223 113 -5 0
-24 14 -43 30 -18 17 -45 30 -58 30 -13 0 -27 5 -30 10 -4 6 -36 33 -72 60
-47 36 -75 50 -98 50 -21 0 -39 9 -56 26 -13 15 -37 33 -54 41 -75 37 -104 57
-184 133 -97 91 -159 140 -175 140 -6 0 -29 18 -51 40 -22 22 -68 66 -102 97
-102 96 -203 198 -203 205 0 4 -45 53 -99 109 l-99 101 -53 -5 c-30 -3 -79
-10 -109 -16 -115 -24 -428 1 -570 44 -25 7 -85 16 -134 19 -53 4 -96 12 -109
21 -13 9 -45 15 -77 15 -30 1 -66 7 -80 15 -14 8 -50 14 -81 15 -31 0 -73 7
-92 15 -20 8 -59 15 -87 15 -30 0 -61 7 -75 16 -14 9 -55 19 -93 21 -37 3 -79
12 -94 19 -15 8 -36 14 -48 14 -11 0 -43 11 -70 25 -27 14 -56 25 -65 25 -9 0
-38 11 -65 25 -27 14 -54 25 -59 25 -5 0 -34 23 -63 51 -58 56 -163 129 -186
129 -8 0 -29 12 -47 28 -17 15 -45 35 -61 45 -52 31 -119 81 -146 109 -15 16
-36 28 -48 28 -11 0 -23 7 -27 16 -7 19 -122 104 -140 104 -7 0 -24 18 -38 40
-14 22 -29 40 -34 40 -12 0 -308 329 -332 369 -10 16 -30 37 -44 47 -14 9 -28
28 -31 43 -4 14 -13 37 -20 51 -15 30 -36 159 -27 173 6 10 65 7 323 -14 121
-10 198 -10 345 -2 403 24 566 23 880 -7 55 -5 194 -12 309 -15 165 -4 217 -2
250 9 73 25 202 28 466 13 315 -19 1060 -11 1360 14 63 6 180 14 260 18 80 5
167 13 193 19 36 9 59 9 90 0 23 -6 83 -12 132 -13 50 -1 169 -7 265 -15 137
-10 219 -10 377 -1 249 14 438 14 462 1 10 -5 152 -11 315 -14 l295 -4 46 30
c25 17 52 40 60 52 13 18 23 21 75 18 l60 -4 50 54 c28 29 53 62 56 74 8 31
-14 454 -30 579 -10 75 -13 179 -11 325 1 118 -1 274 -6 345 -21 302 -18 444
21 875 7 71 6 132 -1 186 -8 59 -8 133 0 263 7 100 9 186 6 192 -4 5 -12 125
-18 267 -11 225 -12 336 -6 605 0 34 0 80 0 102 -1 22 -1 137 -1 255 -1 126
-5 232 -12 255 -11 41 -11 238 -1 788 l5 278 -25 37 -25 37 -7 340 c-3 187 -6
372 -5 411 1 43 -5 91 -15 122 -25 76 -18 101 35 129 35 18 55 22 90 18 25 -3
98 -10 163 -15z"/>
<path d="M10073 11523 c-28 -14 -38 -15 -71 -4 -25 9 -56 11 -83 6 -24 -4 -69
-6 -99 -4 -77 3 -129 3 -535 -5 -198 -4 -461 -7 -585 -7 -124 0 -281 -5 -350
-10 -69 -6 -192 -13 -275 -15 -82 -2 -197 -6 -255 -8 -204 -11 -656 -6 -677 7
-17 11 -298 21 -519 20 -122 -1 -293 -8 -380 -17 -181 -17 -674 -28 -1190 -26
l-352 1 -38 -33 c-56 -49 -74 -97 -74 -201 l0 -88 47 -50 c26 -28 60 -58 76
-66 47 -24 236 -29 322 -8 89 21 125 20 167 -5 31 -18 50 -19 273 -17 252 3
562 18 880 42 286 22 473 25 697 13 313 -17 809 -14 843 6 11 6 61 11 110 12
50 1 122 7 160 14 49 9 139 12 300 9 127 -2 289 -4 360 -3 242 1 400 3 475 5
89 2 376 2 475 0 39 -1 86 -2 105 -2 19 0 91 -2 159 -5 110 -5 129 -3 176 16
51 21 112 74 134 117 6 12 11 47 11 77 0 82 -35 154 -100 205 -46 36 -58 41
-103 40 -29 0 -67 -8 -84 -16z"/>
<path d="M11677 9234 c-4 -4 -69 -8 -145 -10 -75 -1 -189 -7 -252 -13 -63 -6
-164 -11 -225 -11 -73 0 -132 -5 -173 -17 -52 -13 -70 -14 -96 -5 -43 16 -102
15 -151 -3 -23 -8 -78 -14 -130 -15 -49 0 -117 -5 -150 -11 -33 -5 -133 -10
-223 -10 -90 0 -187 -5 -215 -10 -29 -5 -108 -11 -177 -14 -69 -2 -174 -9
-235 -14 -268 -26 -614 -42 -1130 -55 -99 -3 -243 -7 -320 -10 -77 -4 -251 -8
-386 -10 -136 -2 -251 -6 -256 -9 -6 -4 -102 -6 -214 -5 -112 0 -265 0 -339
-1 -74 -1 -166 3 -205 10 -70 12 -145 16 -370 23 -538 16 -593 17 -639 6 -35
-8 -95 -8 -221 1 -122 8 -178 8 -192 1 -24 -13 -130 -2 -216 22 -69 19 -110
20 -140 4 -12 -6 -55 -17 -96 -25 -40 -7 -85 -20 -98 -28 -35 -23 -64 -98 -70
-180 -5 -67 -3 -72 27 -113 19 -25 43 -44 58 -48 15 -3 34 -10 42 -15 24 -16
97 -49 168 -77 80 -32 201 -36 297 -10 39 11 65 13 77 7 22 -12 158 -12 227 1
68 12 327 29 511 33 94 2 141 -1 155 -10 36 -22 779 -36 1260 -24 231 6 454
10 495 8 107 -3 214 0 380 12 80 6 168 11 195 11 28 -1 102 6 165 13 65 8 221
15 360 16 240 2 387 9 603 30 59 6 163 12 230 14 68 2 133 9 144 16 19 10 116
13 318 11 89 -1 358 16 376 24 9 4 76 8 150 10 74 2 208 9 299 16 331 24 812
30 849 10 10 -5 127 -11 261 -14 l242 -6 27 29 c48 52 91 150 91 209 0 63 -36
143 -77 169 -48 32 -173 46 -384 43 -114 -1 -204 2 -215 8 -23 12 -257 26
-267 16z"/>
</g>
</svg>
