<?xml version="1.0" standalone="no"?>
<!DOCTYPE svg PUBLIC "-//W3C//DTD SVG 20010904//EN"
 "http://www.w3.org/TR/2001/REC-SVG-20010904/DTD/svg10.dtd">
<svg version="1.0" xmlns="http://www.w3.org/2000/svg"
 width="2554.853701pt" height="2669.679765pt" viewBox="0 0 2554.853701 2669.679765"
 preserveAspectRatio="xMidYMid meet">
<metadata>
Created by potrace 1.16, written by Peter Selinger 2001-2019
</metadata>
<g transform="translate(-214.146299,2834.968844) scale(0.100000,-0.100000)"
fill="#FFFFFF" stroke="none">
<path d="M18486 28327 c-26 -14 -51 -42 -72 -77 -28 -48 -32 -64 -32 -126 0
-46 -6 -82 -16 -102 -9 -17 -16 -39 -16 -48 0 -10 -8 -43 -19 -73 -10 -31 -24
-76 -31 -101 -8 -25 -26 -58 -41 -75 -15 -16 -39 -55 -52 -86 -14 -31 -30 -60
-37 -64 -6 -4 -21 -28 -31 -53 -21 -47 -68 -108 -164 -207 -30 -32 -55 -64
-55 -71 0 -7 -15 -21 -32 -30 -18 -9 -56 -40 -84 -70 -29 -30 -59 -54 -68 -54
-9 0 -38 -21 -64 -46 -26 -25 -71 -69 -100 -97 -56 -55 -92 -119 -92 -167 0
-39 32 -109 66 -146 37 -39 117 -53 163 -29 17 8 38 15 47 15 10 0 38 21 63
48 25 26 55 54 67 62 12 8 46 31 75 51 30 20 79 62 109 93 30 31 67 64 82 72
15 8 31 27 34 42 4 15 27 44 50 65 24 21 46 48 50 60 3 12 14 29 24 37 40 34
170 192 171 208 0 9 15 46 34 82 81 153 127 249 140 295 7 28 21 70 30 95 10
25 25 77 35 115 9 39 27 86 39 105 15 26 21 51 21 99 0 85 -22 119 -106 165
-78 43 -130 47 -188 13z"/>
<path d="M20064 28182 c-32 -34 -134 -191 -134 -206 0 -3 -11 -22 -25 -42 -14
-20 -25 -46 -25 -56 0 -20 -23 -55 -72 -109 -16 -16 -28 -35 -28 -41 0 -14
-62 -90 -116 -144 -23 -23 -49 -54 -58 -70 -8 -16 -30 -41 -48 -56 -18 -15
-51 -42 -73 -61 -22 -18 -51 -40 -65 -49 -14 -9 -63 -50 -109 -92 -48 -43 -97
-78 -114 -82 -17 -3 -47 -25 -70 -50 -41 -45 -105 -91 -184 -131 -23 -13 -43
-27 -43 -33 0 -13 -75 -60 -95 -60 -9 0 -38 7 -66 16 -126 41 -226 -26 -245
-163 -6 -48 -4 -53 29 -89 19 -22 37 -49 41 -62 9 -29 32 -40 103 -52 104 -17
167 -32 218 -51 28 -10 56 -19 62 -19 7 0 27 -13 45 -28 52 -44 191 -105 333
-146 22 -6 58 -21 79 -34 55 -33 105 -52 133 -52 34 0 152 -30 185 -46 14 -8
36 -14 48 -14 12 0 33 -9 47 -20 14 -11 31 -20 38 -20 6 0 22 -11 34 -24 13
-14 37 -30 54 -37 18 -7 65 -39 105 -71 40 -32 79 -58 87 -58 22 0 131 -55
165 -83 17 -15 37 -27 44 -27 8 0 51 -28 97 -62 47 -35 115 -83 152 -107 37
-25 67 -48 67 -53 0 -4 39 -45 86 -91 100 -94 117 -112 182 -186 26 -29 64
-64 84 -77 21 -13 49 -41 63 -62 14 -20 43 -62 65 -92 23 -30 49 -74 60 -98
10 -23 35 -62 55 -86 19 -24 35 -48 35 -54 0 -6 11 -23 24 -39 13 -15 39 -57
57 -92 19 -35 40 -75 48 -90 8 -14 34 -56 58 -93 23 -37 43 -74 43 -82 0 -8
11 -28 25 -44 14 -17 25 -35 25 -40 0 -6 11 -23 24 -39 21 -25 36 -55 103
-203 31 -69 53 -135 53 -161 0 -14 9 -37 19 -51 11 -13 23 -38 27 -54 4 -16
16 -47 27 -69 22 -44 25 -54 60 -226 13 -64 31 -129 41 -143 9 -15 21 -62 26
-106 5 -44 16 -103 25 -132 8 -28 15 -72 15 -96 l0 -45 -77 7 c-42 4 -89 14
-105 22 -15 8 -61 19 -100 24 -40 5 -109 18 -153 30 -44 11 -107 24 -140 29
-33 5 -87 17 -120 25 -33 9 -114 18 -180 22 -66 3 -133 10 -150 15 -16 6 -111
12 -210 15 -99 2 -247 6 -328 8 -146 3 -149 3 -178 -22 -49 -41 -79 -111 -79
-185 0 -35 5 -70 13 -79 6 -9 41 -37 77 -63 70 -51 79 -52 205 -26 107 21 633
5 745 -24 52 -13 213 -40 290 -49 19 -2 60 -13 90 -24 30 -11 100 -30 155 -42
55 -12 120 -28 145 -35 25 -8 97 -16 160 -20 117 -7 289 -27 370 -43 25 -5
106 -15 180 -21 74 -7 149 -16 165 -22 17 -5 89 -14 160 -19 255 -19 445 -45
445 -60 0 -4 -21 -11 -47 -15 -27 -3 -65 -17 -85 -31 -21 -13 -46 -24 -57 -24
-34 0 -268 -80 -282 -96 -15 -19 -44 -31 -114 -49 -76 -20 -135 -44 -163 -65
-14 -11 -37 -20 -52 -20 -15 0 -44 -11 -64 -25 -20 -14 -43 -25 -50 -25 -7 0
-24 -9 -38 -19 -13 -11 -37 -23 -53 -27 -15 -4 -53 -20 -84 -35 -31 -16 -69
-29 -84 -29 -15 0 -45 -9 -67 -20 -22 -11 -55 -20 -74 -20 -19 0 -55 -9 -80
-19 -25 -11 -73 -25 -108 -31 -34 -7 -74 -18 -90 -26 -15 -8 -37 -14 -50 -14
-13 0 -33 -7 -46 -15 -12 -9 -43 -22 -68 -30 -26 -8 -73 -30 -104 -49 -32 -20
-64 -36 -72 -36 -8 0 -23 -7 -34 -15 -10 -8 -27 -15 -37 -15 -10 0 -52 -18
-93 -40 -59 -31 -87 -40 -125 -40 -27 0 -77 -9 -111 -21 -33 -11 -95 -24 -137
-29 -142 -17 -245 -46 -348 -99 -23 -11 -51 -21 -61 -21 -10 0 -39 -13 -64
-29 -25 -16 -60 -32 -79 -36 -19 -4 -45 -13 -59 -20 -44 -24 -179 -65 -211
-65 -16 0 -42 -6 -57 -13 -15 -8 -63 -19 -107 -26 -44 -7 -96 -20 -115 -29
-19 -8 -57 -21 -85 -27 -27 -7 -77 -20 -110 -30 -33 -9 -100 -28 -150 -41 -49
-13 -105 -28 -124 -33 -63 -17 -82 -54 -97 -186 -3 -30 3 -54 23 -95 26 -51
32 -56 86 -74 49 -17 64 -18 105 -8 26 6 92 21 147 33 74 17 129 37 214 81 62
32 122 58 133 58 10 0 29 5 40 11 12 7 47 15 77 20 102 14 143 25 329 84 62
19 131 47 152 60 37 23 84 43 154 65 16 5 36 16 45 24 10 9 46 22 81 30 128
30 196 47 261 66 36 11 76 20 90 20 13 0 39 9 57 20 19 12 50 20 75 20 28 0
54 8 77 24 20 13 69 31 110 40 41 10 86 24 100 31 29 17 156 78 215 104 22 10
67 24 100 30 33 7 74 19 90 26 17 8 48 17 70 21 22 4 60 17 85 29 25 12 69 25
99 28 29 4 72 15 95 27 23 11 64 23 91 26 62 9 124 35 149 63 11 11 27 21 37
21 10 0 31 11 47 25 17 14 35 25 41 25 7 0 29 9 51 20 21 11 89 40 152 66 62
25 120 52 129 60 8 8 24 14 35 14 11 0 44 9 74 20 30 11 68 20 85 20 17 0 49
9 70 20 22 11 67 25 100 29 33 5 85 22 115 38 97 51 205 93 240 93 14 0 40 9
58 20 18 11 41 20 52 20 11 0 37 6 57 14 21 8 65 20 97 27 33 7 72 24 88 37
37 31 88 132 88 174 0 45 -32 103 -93 171 -63 70 -84 76 -247 77 -63 0 -151 6
-195 15 -44 8 -131 19 -194 25 -62 6 -146 20 -185 30 -48 13 -98 19 -151 18
-44 -1 -138 6 -210 15 -71 9 -175 21 -230 27 -93 10 -189 24 -260 36 -30 6
-30 6 -31 77 -1 78 -26 191 -54 247 -9 19 -21 58 -25 85 -3 28 -14 68 -24 90
-10 22 -23 69 -30 105 -7 36 -19 82 -27 103 -8 20 -14 49 -14 64 0 32 -26 127
-46 166 -8 16 -14 36 -14 46 0 9 -7 26 -15 37 -8 10 -15 27 -15 36 0 9 -26 70
-59 135 -32 65 -71 150 -85 188 -15 39 -33 81 -41 95 -8 14 -25 45 -39 70 -13
25 -49 74 -80 110 -31 36 -56 69 -56 75 0 20 -83 181 -106 205 -12 14 -30 42
-38 62 -9 20 -29 57 -46 81 -16 25 -30 52 -30 60 0 9 -11 28 -24 44 -13 15
-30 42 -39 59 -9 17 -23 34 -32 37 -8 4 -15 16 -15 28 0 13 -40 60 -114 132
-187 183 -193 189 -265 265 -39 41 -73 83 -76 93 -4 11 -20 27 -38 35 -17 9
-59 44 -93 78 -34 33 -79 72 -99 86 -20 14 -45 33 -55 44 -10 10 -24 25 -31
33 -31 31 -125 93 -142 93 -10 0 -30 9 -44 20 -14 11 -35 20 -47 20 -31 0
-106 28 -134 50 -14 11 -30 20 -36 20 -6 0 -27 13 -46 28 -19 16 -56 38 -81
50 -25 12 -63 37 -85 55 -53 45 -156 93 -229 106 -33 5 -89 15 -124 21 -35 6
-82 20 -105 30 -89 40 -145 60 -187 66 -24 4 -55 12 -69 19 -14 7 -41 15 -61
19 -20 3 -44 15 -54 26 -18 20 -13 40 10 40 7 0 30 16 52 35 34 32 185 153
324 260 28 22 113 100 188 173 74 72 139 132 143 132 4 0 14 13 22 28 8 16 42
61 75 101 34 40 61 79 61 86 0 7 13 29 30 50 16 20 42 63 57 94 15 31 38 71
50 90 13 19 26 46 30 60 3 13 17 40 30 59 38 57 26 143 -33 232 -28 42 -54 54
-146 66 -38 5 -49 3 -64 -14z"/>
<path d="M17407 28158 c-68 -64 -105 -212 -76 -297 9 -26 6 -46 -20 -129 -17
-55 -31 -112 -31 -129 0 -17 -9 -42 -20 -56 -11 -14 -27 -45 -36 -69 -8 -23
-23 -57 -34 -76 -11 -18 -34 -67 -51 -110 -18 -42 -44 -90 -58 -107 -15 -16
-40 -50 -55 -75 -16 -25 -47 -64 -70 -87 -22 -23 -62 -64 -88 -90 -65 -68
-234 -150 -353 -172 -22 -4 -54 -15 -72 -24 -18 -9 -42 -17 -55 -17 -13 0 -50
-10 -83 -21 -33 -12 -89 -27 -125 -35 -117 -23 -180 -42 -216 -63 -19 -12 -45
-21 -57 -21 -13 0 -33 -7 -46 -16 -29 -21 -196 -60 -336 -80 -242 -33 -334
-44 -427 -54 -54 -5 -112 -17 -130 -26 -18 -9 -64 -25 -103 -34 -38 -10 -86
-27 -105 -38 -19 -11 -55 -23 -80 -27 -76 -11 -114 -24 -240 -83 -36 -16 -82
-35 -103 -42 -20 -6 -42 -20 -47 -31 -6 -10 -16 -19 -22 -19 -17 0 -106 -58
-164 -107 -28 -24 -56 -43 -62 -43 -6 0 -55 -36 -108 -80 -54 -45 -125 -100
-158 -123 -33 -23 -98 -79 -144 -124 -45 -46 -87 -83 -92 -83 -5 0 -18 -17
-29 -37 -10 -21 -31 -49 -46 -63 -15 -14 -55 -56 -88 -95 -33 -38 -73 -78 -88
-87 -15 -9 -30 -27 -34 -40 -4 -13 -38 -61 -75 -108 -37 -47 -73 -96 -80 -110
-7 -14 -26 -37 -42 -52 -15 -14 -28 -35 -28 -46 0 -11 -7 -25 -16 -33 -21 -17
-44 -63 -44 -88 0 -36 -53 -149 -92 -199 -16 -19 -28 -47 -28 -61 0 -38 -36
-135 -76 -207 -19 -33 -34 -70 -34 -80 0 -11 -16 -69 -36 -130 -34 -102 -63
-208 -85 -314 -14 -68 -30 -406 -36 -760 -5 -325 5 -506 32 -610 8 -30 15 -80
15 -110 0 -36 7 -66 19 -85 10 -17 21 -53 26 -80 4 -28 11 -58 16 -67 9 -18
59 -259 59 -288 0 -8 16 -48 35 -89 20 -42 35 -88 35 -109 0 -20 6 -54 14 -77
8 -22 22 -69 32 -105 10 -36 26 -85 37 -110 10 -25 25 -67 32 -95 8 -27 21
-74 29 -104 8 -29 21 -60 29 -70 15 -16 22 -53 35 -176 7 -68 31 -125 52 -125
6 0 16 -12 22 -26 27 -59 202 -90 248 -44 11 11 20 27 20 36 0 8 10 44 22 79
19 55 21 68 10 98 -6 18 -12 56 -12 83 0 29 -6 59 -15 70 -8 10 -15 28 -15 39
0 11 -15 51 -34 90 -19 38 -44 108 -56 155 -12 47 -29 108 -39 135 -10 28 -26
93 -35 145 -10 52 -24 115 -33 140 -30 89 -75 256 -82 305 -3 28 -14 61 -24
75 -9 13 -17 39 -17 56 0 17 -8 42 -19 55 -19 26 -34 114 -31 192 0 28 -5 58
-13 71 -8 12 -17 44 -20 71 -3 28 -10 82 -15 120 -6 39 -13 149 -16 245 -3 97
-11 191 -16 210 -6 19 -8 58 -5 85 3 28 12 149 20 270 12 191 17 229 39 288
14 37 26 83 26 102 0 30 18 81 51 148 5 9 16 39 25 65 15 46 39 103 56 132 21
37 48 103 48 118 0 9 9 31 20 47 11 17 20 38 20 47 0 9 7 29 15 45 8 15 29 57
45 93 17 36 37 76 45 90 7 14 19 37 26 52 7 16 32 49 56 74 40 41 83 118 83
146 0 6 57 68 128 138 70 69 150 151 179 181 84 89 165 162 227 204 33 22 80
60 105 84 25 23 65 55 88 71 23 15 55 40 71 56 46 46 113 91 168 113 28 11 83
36 121 55 39 20 77 36 84 36 8 0 30 11 49 24 19 13 49 26 65 29 65 12 112 25
150 39 81 31 124 41 380 83 44 7 130 22 190 33 61 12 157 28 215 36 178 26
282 50 380 89 36 14 91 32 122 41 31 9 60 21 63 26 3 6 29 10 56 10 28 0 59 5
70 10 10 6 47 15 82 19 34 5 87 18 117 30 30 11 67 21 81 21 14 0 37 8 50 19
35 27 105 61 127 61 11 0 31 9 45 20 14 11 30 20 36 20 28 0 90 43 136 95 28
30 99 105 159 166 80 81 119 130 143 177 18 36 33 70 33 75 0 5 8 20 19 33 10
13 22 44 25 69 4 24 11 47 17 50 12 8 99 190 99 208 0 7 4 17 9 23 17 17 52
127 67 209 15 88 18 187 5 251 -4 23 -4 72 1 109 11 81 -2 108 -80 172 -67 55
-105 57 -155 11z"/>
<path d="M19965 25037 c-11 -7 -39 -19 -63 -26 -55 -16 -160 -113 -202 -188
-25 -45 -30 -62 -25 -92 3 -20 2 -49 -4 -64 -6 -15 -8 -68 -4 -129 l6 -103 65
-67 c59 -61 71 -69 146 -92 94 -30 132 -32 183 -11 19 8 56 15 81 15 42 0 79
8 139 31 36 13 111 118 134 187 18 53 21 82 18 175 -4 100 -7 118 -34 171 -31
60 -98 128 -170 170 -51 30 -237 46 -270 23z"/>
<path d="M16726 24516 c-61 -18 -87 -43 -138 -130 l-41 -69 5 -118 c5 -108 7
-121 34 -164 16 -26 35 -59 43 -74 7 -14 21 -35 30 -46 10 -11 23 -33 29 -48
7 -17 26 -34 50 -44 20 -8 58 -35 84 -59 40 -37 54 -44 88 -44 23 0 51 -5 62
-11 13 -7 44 -9 87 -4 63 7 69 10 119 60 28 28 52 61 52 72 0 20 69 162 105
218 17 24 20 47 20 135 0 97 -2 110 -25 143 -36 53 -213 147 -277 147 -13 0
-36 9 -51 20 -36 27 -204 36 -276 16z"/>
<path d="M2400 21783 c-15 -11 -44 -18 -75 -19 -64 0 -155 -27 -171 -49 -9
-11 -13 -53 -13 -119 1 -95 3 -104 32 -151 17 -27 40 -61 52 -75 25 -28 68
-117 85 -172 6 -21 16 -40 21 -43 5 -4 9 -22 9 -41 0 -19 9 -52 19 -72 10 -20
22 -64 26 -97 4 -33 14 -75 21 -94 8 -18 14 -64 14 -101 0 -57 4 -73 24 -97
22 -27 32 -61 40 -148 2 -22 8 -56 14 -75 28 -95 41 -152 50 -226 6 -44 21
-102 33 -130 12 -27 27 -71 35 -98 7 -26 19 -55 27 -65 9 -9 23 -39 32 -68 9
-29 23 -57 31 -64 8 -6 14 -19 14 -28 0 -9 13 -39 29 -68 16 -28 31 -63 35
-77 3 -13 16 -37 29 -53 13 -15 31 -54 41 -85 10 -32 29 -74 42 -93 13 -20 24
-42 24 -49 0 -6 11 -27 25 -46 14 -19 25 -43 25 -54 0 -12 15 -43 32 -71 18
-27 40 -70 48 -95 9 -25 35 -75 58 -112 22 -37 44 -78 48 -90 3 -13 24 -52 45
-88 21 -36 51 -87 66 -113 15 -27 38 -65 51 -84 13 -20 50 -88 83 -151 32 -63
70 -130 84 -148 14 -18 46 -75 71 -126 25 -51 58 -118 74 -148 16 -30 45 -89
65 -130 20 -41 47 -86 60 -100 13 -14 36 -47 50 -75 15 -27 44 -70 64 -95 21
-25 57 -81 80 -125 23 -44 53 -91 65 -105 13 -14 47 -65 76 -115 29 -49 67
-112 85 -140 17 -27 37 -67 44 -87 7 -21 17 -40 22 -44 5 -3 16 -20 25 -37 29
-63 48 -93 88 -144 23 -29 64 -82 91 -118 28 -37 68 -88 90 -113 71 -82 120
-146 155 -197 18 -27 52 -72 75 -100 48 -57 97 -126 172 -240 73 -111 92 -139
138 -198 22 -29 47 -64 55 -78 38 -66 59 -96 109 -163 30 -39 74 -93 99 -121
25 -27 75 -83 111 -124 54 -61 218 -228 312 -318 46 -43 98 -111 112 -145 8
-20 24 -39 35 -42 12 -4 37 -31 57 -62 20 -30 54 -75 76 -100 21 -25 46 -58
53 -72 8 -15 29 -40 46 -57 18 -16 39 -47 47 -68 9 -21 25 -43 37 -50 25 -13
146 -142 146 -154 0 -5 34 -35 75 -67 41 -32 88 -80 105 -107 17 -26 35 -49
39 -51 5 -2 36 -37 69 -78 89 -110 165 -183 232 -220 24 -14 55 -41 68 -60 12
-19 36 -41 53 -48 16 -7 32 -19 35 -27 3 -8 37 -40 75 -71 50 -41 75 -70 94
-110 18 -37 35 -58 53 -66 15 -6 43 -19 63 -29 26 -13 58 -19 107 -19 l70 0
62 60 62 60 -7 73 c-5 52 -15 86 -37 125 -31 54 -52 72 -87 72 -24 0 -103 51
-128 83 -32 41 -163 156 -218 193 -30 19 -76 57 -102 82 -79 77 -234 245 -252
272 -31 50 -103 127 -151 164 -27 21 -52 46 -55 57 -4 11 -18 26 -33 33 -15 8
-43 40 -62 72 -19 31 -50 71 -67 89 -18 17 -33 37 -33 43 0 6 -19 33 -42 60
-24 28 -92 107 -153 177 -60 70 -114 134 -120 144 -5 9 -41 46 -79 81 -38 36
-81 78 -95 94 -14 16 -51 54 -81 85 -71 72 -157 173 -200 234 -18 26 -37 47
-42 47 -5 0 -22 21 -38 48 -29 48 -58 86 -96 125 -12 12 -31 41 -42 64 -12 23
-26 44 -32 48 -10 6 -82 114 -190 283 -30 45 -57 82 -61 82 -4 0 -21 23 -38
50 -17 28 -35 50 -39 50 -8 0 -31 32 -107 150 -16 26 -58 73 -91 106 -34 32
-69 73 -78 91 -9 18 -25 37 -36 43 -11 6 -32 32 -47 58 -15 26 -44 68 -65 93
-21 25 -38 49 -38 54 0 4 -13 29 -29 54 -16 25 -39 70 -51 100 -11 30 -30 65
-40 79 -11 14 -20 32 -20 41 0 10 -19 44 -42 77 -43 59 -64 96 -99 164 -10 19
-26 40 -37 47 -10 6 -32 37 -48 68 -16 32 -37 63 -47 69 -10 6 -32 41 -49 78
-17 37 -41 74 -53 82 -12 8 -26 27 -30 43 -3 15 -20 48 -36 72 -16 25 -29 51
-29 59 0 7 -16 41 -35 75 -49 86 -50 88 -69 127 -10 19 -29 56 -44 81 -15 26
-42 75 -61 110 -18 35 -47 81 -63 101 -16 20 -49 79 -73 131 -25 52 -52 100
-60 107 -8 7 -15 21 -15 30 0 10 -11 32 -25 48 -14 17 -32 47 -41 69 -9 21
-36 71 -60 110 -24 40 -44 77 -44 83 0 6 -18 42 -40 81 -22 39 -40 77 -40 83
0 7 -10 28 -23 47 -45 68 -77 128 -77 147 0 11 -8 30 -19 43 -25 33 -87 165
-100 215 -6 22 -26 70 -45 105 -18 35 -41 91 -51 124 -25 88 -45 138 -61 156
-8 9 -18 57 -24 113 -5 53 -14 106 -20 116 -5 10 -10 38 -10 62 0 25 -11 64
-25 93 -14 28 -25 62 -25 77 0 15 -13 58 -29 95 -38 92 -48 126 -61 208 -5 39
-14 90 -20 115 -18 91 -21 120 -10 120 5 0 28 -17 51 -37 37 -34 205 -131 318
-183 24 -11 58 -32 75 -46 80 -65 159 -124 168 -124 13 0 133 -88 175 -127 18
-18 43 -33 54 -33 22 0 75 -25 101 -47 9 -8 31 -18 50 -23 63 -15 171 -59 207
-85 21 -14 43 -25 49 -25 7 0 35 -18 63 -40 28 -22 54 -40 59 -40 4 0 24 -13
45 -30 21 -16 46 -30 55 -30 10 0 44 -20 76 -45 31 -25 64 -45 71 -45 15 0
151 -67 298 -145 46 -25 90 -45 99 -45 9 0 33 -15 53 -33 44 -38 185 -127 202
-127 7 0 29 -9 49 -19 68 -36 117 -57 162 -70 25 -7 72 -25 105 -41 74 -36
264 -110 281 -110 16 0 135 -73 197 -122 27 -21 57 -38 67 -38 20 0 76 -21
140 -54 43 -22 94 -39 151 -50 15 -3 49 -21 75 -39 77 -51 160 -96 222 -119
31 -12 70 -30 87 -40 16 -10 38 -18 48 -18 25 0 118 -31 142 -47 11 -7 29 -13
40 -13 11 0 40 -14 64 -30 24 -17 51 -30 59 -30 8 0 27 -11 42 -24 16 -13 46
-26 68 -30 27 -4 45 -14 56 -31 9 -13 42 -37 74 -52 31 -15 78 -47 104 -70 26
-24 54 -43 62 -43 8 0 41 -16 73 -35 32 -19 63 -35 69 -35 5 0 23 -14 40 -31
30 -32 137 -86 214 -109 25 -8 54 -19 65 -25 20 -12 60 -24 150 -45 30 -6 62
-23 80 -40 17 -15 59 -45 95 -66 36 -20 76 -46 89 -56 13 -10 37 -18 53 -18
16 0 45 -8 66 -19 20 -10 56 -21 79 -25 49 -7 153 -50 203 -83 19 -13 41 -23
50 -23 34 -1 90 -29 136 -67 76 -63 194 -116 299 -133 28 -5 70 -14 95 -20 62
-15 104 -24 255 -55 72 -15 146 -31 165 -36 19 -4 82 -18 140 -29 130 -27 175
-38 220 -56 19 -7 53 -16 75 -19 22 -3 78 -15 125 -26 47 -10 121 -26 165 -34
101 -18 183 -38 215 -52 51 -22 98 -33 179 -44 110 -15 151 0 215 78 44 53 46
58 46 119 0 68 0 67 -66 119 -44 34 -67 42 -164 50 -46 4 -94 13 -105 20 -11
8 -63 18 -115 23 -52 5 -115 17 -140 27 -60 22 -117 34 -225 44 -51 5 -111 18
-138 30 -27 12 -72 25 -100 30 -29 5 -74 17 -102 26 -27 10 -70 24 -95 32 -25
9 -72 19 -105 24 -55 7 -83 13 -185 39 -117 30 -171 43 -215 49 -27 4 -67 15
-89 24 -21 9 -45 17 -53 17 -8 0 -37 11 -65 25 -27 14 -54 25 -60 25 -6 0 -27
13 -47 29 -20 15 -49 35 -66 44 -54 29 -137 67 -146 67 -4 0 -32 14 -61 31
-29 18 -66 36 -83 40 -67 18 -135 43 -135 50 0 8 106 122 239 258 52 53 101
108 110 122 21 34 144 172 204 229 26 25 101 96 165 159 64 62 135 125 157
140 23 14 58 45 80 69 21 24 52 50 69 59 17 9 56 42 88 74 32 33 64 59 72 59
15 0 346 287 346 300 0 4 25 23 55 41 31 19 81 53 112 77 30 23 59 42 63 42 4
0 38 20 74 45 37 25 73 45 80 45 7 0 27 11 46 25 19 14 39 25 46 25 6 0 47 18
90 39 44 22 99 49 124 60 25 12 97 49 160 82 208 110 305 159 318 159 7 0 34
11 60 23 26 13 74 31 107 41 33 10 70 22 83 27 13 5 44 9 70 9 26 0 81 12 122
25 41 14 81 25 89 25 7 0 47 20 89 45 41 25 80 45 86 45 7 0 27 11 46 25 18
13 49 30 69 36 20 6 47 17 61 24 45 22 198 75 218 75 12 0 83 31 237 105 109
52 169 75 196 75 28 0 117 47 127 67 15 29 22 125 12 163 -5 19 -12 47 -15 62
-3 17 -23 41 -52 63 -44 34 -49 35 -129 35 -69 0 -91 -4 -136 -27 -29 -14 -66
-37 -81 -50 -16 -12 -37 -23 -47 -23 -10 0 -42 -16 -70 -35 -29 -20 -85 -46
-124 -60 -39 -13 -104 -38 -145 -55 -40 -16 -82 -30 -92 -30 -25 0 -135 -55
-172 -86 -16 -13 -41 -24 -55 -24 -15 0 -40 -9 -57 -21 -77 -52 -191 -93 -297
-107 -43 -6 -97 -20 -121 -31 -24 -12 -52 -21 -63 -21 -11 0 -36 -8 -57 -19
-20 -10 -53 -22 -73 -25 -40 -8 -109 -41 -139 -67 -11 -9 -34 -20 -52 -24 -18
-3 -51 -21 -75 -39 -57 -44 -107 -68 -203 -101 -44 -14 -87 -32 -95 -39 -28
-23 -197 -116 -211 -116 -8 0 -31 -11 -52 -25 -20 -14 -56 -35 -79 -46 -44
-20 -94 -52 -138 -89 -14 -11 -45 -36 -70 -55 -25 -19 -58 -45 -75 -58 -16
-13 -41 -27 -55 -30 -14 -4 -47 -34 -75 -68 -27 -35 -68 -74 -91 -89 -23 -15
-55 -41 -70 -59 -15 -18 -51 -47 -81 -64 -110 -65 -121 -73 -166 -114 -26 -24
-51 -43 -57 -43 -6 0 -52 -41 -103 -91 -51 -50 -119 -114 -152 -141 -33 -28
-96 -86 -140 -130 -113 -112 -116 -114 -160 -156 -22 -20 -53 -55 -68 -77 -34
-50 -113 -133 -243 -255 -82 -76 -108 -108 -133 -160 -21 -44 -51 -84 -94
-126 l-64 -61 -189 92 c-104 51 -204 96 -222 100 -19 4 -56 27 -83 51 -27 24
-64 51 -82 60 -17 9 -68 41 -113 70 -44 30 -90 54 -101 54 -11 0 -27 7 -34 17
-8 9 -28 22 -46 29 -17 8 -49 25 -69 39 -44 30 -259 135 -277 135 -6 0 -20 7
-30 15 -11 7 -37 17 -60 20 -58 10 -269 115 -348 174 -24 17 -49 31 -56 31 -7
0 -27 9 -45 20 -18 11 -41 20 -52 20 -10 0 -39 11 -65 24 -25 13 -71 34 -101
46 -54 21 -169 77 -260 125 -90 48 -238 115 -253 115 -9 0 -19 4 -22 10 -3 5
-27 16 -53 24 -26 8 -72 24 -102 36 -30 12 -68 26 -85 32 -16 6 -34 14 -40 19
-5 4 -36 16 -68 28 -32 11 -94 40 -137 65 -44 25 -83 46 -88 46 -8 0 -38 16
-170 92 -26 15 -63 35 -82 45 -30 15 -65 37 -210 132 -14 9 -61 34 -105 55
-44 21 -87 42 -95 47 -8 5 -26 15 -40 22 -34 16 -81 47 -105 68 -30 26 -166
96 -202 103 -40 9 -281 131 -344 174 -26 18 -49 39 -53 47 -3 8 -18 21 -33 27
-15 7 -40 23 -55 37 -49 48 -116 90 -208 130 -14 6 -45 25 -70 41 -25 17 -56
36 -70 42 -45 23 -84 51 -142 102 -32 28 -78 69 -103 90 -26 22 -52 54 -60 72
-8 21 -30 42 -62 60 -26 15 -61 38 -76 51 -16 13 -38 23 -49 23 -11 0 -31 9
-45 20 -33 26 -118 27 -153 3z"/>
<path d="M21954 21560 c-72 -32 -96 -78 -109 -215 -4 -38 -15 -86 -25 -105
-10 -19 -23 -62 -31 -95 -7 -33 -24 -76 -38 -95 -28 -38 -125 -229 -136 -270
-4 -14 -13 -32 -20 -40 -25 -29 -55 -116 -64 -185 -16 -123 -34 -172 -84 -223
-25 -26 -58 -65 -74 -88 -15 -23 -53 -72 -84 -110 -31 -38 -64 -85 -73 -106
-22 -47 -178 -209 -234 -243 -23 -14 -50 -38 -60 -53 -31 -50 -304 -332 -322
-332 -5 0 -16 -13 -25 -30 -12 -22 -23 -30 -43 -30 -16 0 -46 -12 -69 -27 -22
-16 -60 -41 -84 -57 -24 -16 -56 -37 -71 -48 -15 -10 -34 -18 -42 -18 -7 0
-49 -29 -92 -65 -43 -36 -86 -65 -95 -65 -9 0 -27 -8 -40 -18 -13 -10 -58 -35
-99 -55 -41 -21 -103 -58 -138 -82 -35 -25 -71 -45 -80 -45 -9 0 -30 -9 -47
-20 -16 -11 -40 -20 -52 -20 -40 0 -108 -37 -146 -79 -36 -40 -37 -43 -37
-116 0 -125 55 -202 135 -192 26 4 47 1 59 -9 32 -23 83 -18 113 12 24 24 30
26 58 15 17 -6 42 -11 56 -12 13 0 47 -18 74 -40 28 -21 73 -57 100 -78 58
-44 154 -146 205 -215 47 -63 167 -197 208 -231 49 -41 147 -165 160 -203 6
-19 26 -50 43 -69 17 -20 39 -54 49 -77 10 -23 43 -79 74 -125 31 -47 56 -92
56 -102 0 -26 37 -108 63 -139 24 -28 35 -52 58 -129 7 -24 25 -60 39 -80 15
-20 37 -63 49 -96 12 -33 30 -68 39 -79 9 -10 22 -39 29 -65 29 -114 38 -140
67 -201 50 -105 71 -199 126 -550 5 -30 16 -84 25 -120 9 -36 20 -88 24 -117
5 -28 12 -57 16 -63 4 -7 11 -62 16 -123 5 -62 13 -157 19 -212 5 -55 15 -147
21 -205 6 -58 10 -122 10 -144 0 -21 6 -82 14 -135 8 -53 12 -113 8 -133 -3
-20 0 -52 7 -70 7 -21 13 -127 16 -293 3 -143 9 -294 14 -335 5 -42 5 -81 0
-90 -5 -9 -11 -131 -14 -271 -2 -140 -9 -276 -15 -303 -15 -67 -4 -122 36
-183 30 -46 32 -55 22 -75 -13 -23 -23 -68 -37 -168 -5 -30 -13 -64 -19 -75
-6 -11 -14 -67 -18 -125 -7 -99 -27 -180 -60 -240 -7 -14 -17 -59 -20 -100 -4
-41 -16 -92 -27 -112 -10 -21 -21 -59 -25 -85 -3 -27 -14 -64 -23 -83 -17 -35
-29 -83 -49 -194 -6 -32 -24 -86 -40 -120 -16 -33 -37 -95 -47 -136 -10 -41
-23 -82 -30 -90 -18 -23 -114 -243 -114 -262 0 -10 -6 -32 -14 -50 -33 -76
-76 -188 -97 -253 -12 -38 -28 -77 -35 -85 -6 -8 -19 -31 -28 -50 -9 -19 -23
-46 -31 -60 -23 -40 -71 -171 -78 -213 -5 -30 -137 -319 -178 -387 -5 -8 -23
-44 -41 -80 -18 -36 -48 -85 -68 -110 -20 -25 -52 -70 -72 -100 -20 -30 -57
-82 -82 -114 -25 -33 -46 -63 -46 -68 0 -4 -46 -63 -102 -129 -57 -67 -118
-143 -135 -170 -18 -27 -37 -49 -43 -49 -5 0 -17 -15 -26 -32 -19 -37 -89
-129 -127 -168 -13 -14 -34 -45 -47 -70 -13 -25 -48 -71 -79 -103 -268 -276
-328 -326 -518 -438 -24 -14 -63 -44 -86 -66 -23 -22 -71 -52 -107 -68 -36
-15 -102 -53 -148 -84 -46 -31 -107 -69 -136 -86 -29 -16 -73 -46 -98 -66 -51
-43 -247 -165 -298 -186 -19 -8 -65 -35 -101 -59 -37 -24 -72 -44 -79 -44 -14
0 -98 -47 -125 -71 -11 -9 -37 -22 -57 -27 -21 -6 -50 -20 -64 -31 -15 -12
-35 -21 -45 -21 -10 0 -38 -18 -63 -40 -39 -33 -96 -60 -130 -60 -5 0 -39 -20
-75 -43 -36 -24 -83 -49 -103 -56 -20 -7 -42 -19 -49 -27 -7 -8 -26 -22 -43
-29 -17 -8 -38 -19 -46 -24 -8 -5 -26 -14 -40 -20 -14 -6 -32 -15 -40 -19 -47
-26 -84 -42 -98 -42 -10 0 -33 -10 -52 -23 -19 -13 -69 -38 -110 -56 -164 -73
-196 -90 -230 -123 -22 -21 -56 -40 -90 -50 -30 -9 -80 -26 -110 -38 -30 -12
-84 -33 -119 -46 -35 -12 -80 -34 -100 -48 -20 -14 -49 -26 -63 -26 -15 0 -49
-11 -76 -25 -51 -26 -107 -41 -197 -54 -27 -3 -55 -10 -62 -14 -18 -12 -133
-29 -213 -33 -106 -4 -106 -4 -200 2 -79 5 -88 4 -121 -19 -28 -19 -52 -25
-121 -29 l-87 -6 -28 37 c-16 20 -44 62 -63 94 -19 32 -69 93 -111 136 -43 43
-86 96 -97 118 -11 21 -28 45 -37 53 -9 7 -23 26 -31 42 -8 15 -34 47 -57 70
-23 24 -62 78 -85 120 -23 43 -51 82 -62 88 -28 15 -154 3 -206 -20 -30 -13
-50 -31 -70 -65 -26 -44 -27 -50 -15 -89 7 -22 16 -57 20 -76 12 -52 31 -88
56 -104 12 -8 39 -40 59 -70 20 -31 48 -62 61 -69 14 -7 38 -33 55 -57 16 -25
41 -62 55 -82 13 -21 38 -47 55 -59 16 -13 30 -28 30 -34 0 -6 16 -34 35 -64
40 -61 42 -68 17 -75 -35 -11 -281 -16 -308 -6 -17 7 -56 7 -117 -1 -51 -6
-128 -12 -172 -14 -44 -1 -109 -9 -145 -18 -44 -10 -130 -17 -255 -20 -132 -2
-198 -8 -215 -17 -30 -16 -124 -29 -250 -35 -181 -8 -496 -16 -680 -16 -102 0
-259 -4 -350 -9 -111 -7 -191 -7 -245 0 -86 12 -252 28 -350 35 -33 3 -159 7
-280 9 -338 7 -486 16 -535 31 -26 8 -110 16 -197 19 -84 3 -160 9 -170 14
-10 5 -65 15 -123 22 -58 7 -120 19 -139 26 -18 8 -48 14 -65 14 -17 0 -49 9
-72 19 -23 10 -61 22 -85 26 -24 4 -60 16 -79 27 -40 23 -165 67 -225 79 -22
4 -62 15 -90 24 -27 9 -86 27 -130 40 -123 37 -225 71 -285 95 -30 12 -66 24
-80 27 -14 3 -34 12 -45 19 -11 8 -28 14 -38 14 -11 0 -39 13 -63 30 -24 16
-79 41 -122 56 -99 34 -152 61 -152 77 0 7 16 40 36 73 36 60 51 95 84 196 10
31 27 69 38 85 28 39 52 100 52 132 0 30 24 102 44 134 7 12 26 56 42 97 15
41 37 89 49 105 46 65 75 125 75 155 0 45 -42 120 -92 167 -37 34 -54 41 -101
47 -35 5 -64 3 -77 -4 -36 -19 -97 -106 -109 -157 -11 -45 -50 -146 -91 -238
-10 -22 -24 -60 -30 -85 -7 -25 -20 -65 -31 -90 -10 -25 -30 -76 -44 -115 -43
-112 -161 -359 -181 -376 -11 -9 -164 49 -193 75 -9 7 -50 28 -91 45 -41 17
-88 39 -105 48 -103 56 -203 103 -221 103 -12 0 -33 9 -47 20 -14 11 -42 27
-61 35 -20 9 -36 20 -36 26 0 5 -16 17 -35 25 -19 8 -42 25 -51 39 -9 13 -25
27 -36 31 -11 3 -48 30 -82 59 -34 29 -73 58 -86 65 -83 44 -581 524 -616 593
-9 17 -29 46 -44 62 -33 35 -93 138 -109 188 -6 19 -23 45 -36 57 -14 13 -25
29 -25 35 0 7 -12 28 -27 48 -16 20 -46 61 -68 92 -22 30 -53 72 -68 93 -16
20 -35 51 -43 67 -8 17 -32 57 -54 90 -22 33 -45 71 -51 85 -57 124 -90 188
-104 200 -19 16 -55 83 -55 103 0 8 -14 33 -30 55 -17 23 -30 48 -30 56 0 7
-9 25 -20 39 -11 14 -20 32 -20 40 0 9 -14 52 -30 97 -17 45 -30 89 -30 99 0
10 -9 30 -20 44 -11 14 -20 34 -20 45 0 10 -9 31 -21 46 -12 16 -34 81 -54
161 -18 73 -42 154 -54 178 -11 24 -21 60 -21 81 0 20 -9 54 -19 74 -34 66
-58 126 -66 162 -4 19 -13 45 -21 56 -8 15 -15 69 -18 158 -3 75 -9 142 -12
148 -23 37 -47 898 -27 931 4 7 8 97 10 202 1 104 8 222 14 260 6 39 12 165
14 280 4 293 10 422 23 480 28 132 41 221 47 340 3 72 13 175 22 230 8 55 17
154 19 220 5 155 17 217 59 309 19 41 35 82 35 91 0 9 9 28 20 42 29 37 33 80
16 164 -34 169 -40 179 -110 179 -23 0 -57 3 -76 6 -31 5 -43 1 -87 -34 -44
-35 -54 -50 -73 -109 -13 -37 -29 -75 -36 -83 -27 -31 -67 -137 -76 -200 -5
-36 -12 -128 -16 -205 -4 -77 -12 -149 -18 -160 -10 -17 -15 -71 -30 -320 -15
-238 -29 -340 -60 -435 -13 -43 -17 -84 -16 -185 6 -492 3 -615 -17 -653 -13
-25 -42 -394 -44 -557 0 -74 17 -252 26 -270 7 -12 11 -112 12 -250 1 -147 5
-237 12 -250 6 -12 15 -81 19 -155 3 -74 13 -155 21 -179 10 -30 13 -61 8
-102 -6 -54 -5 -63 24 -109 17 -28 31 -59 31 -69 0 -10 9 -30 20 -44 12 -15
20 -40 20 -64 0 -21 7 -49 17 -62 9 -13 20 -40 24 -60 11 -54 43 -158 74 -236
15 -38 30 -86 34 -105 12 -54 31 -109 62 -176 16 -34 29 -67 29 -73 0 -6 14
-41 31 -78 16 -38 37 -84 45 -103 9 -19 24 -51 33 -70 10 -19 21 -47 25 -62 3
-14 17 -39 30 -55 24 -28 57 -87 151 -269 29 -56 66 -121 82 -145 17 -24 40
-64 53 -88 12 -24 50 -71 83 -105 34 -33 73 -81 87 -105 14 -24 36 -57 49 -73
12 -16 31 -59 41 -96 25 -96 37 -121 76 -166 19 -23 52 -62 73 -88 22 -26 73
-78 115 -115 42 -38 95 -91 117 -119 22 -27 51 -54 65 -59 13 -6 45 -35 70
-65 25 -30 56 -59 69 -65 12 -5 34 -24 49 -42 15 -18 37 -35 49 -39 12 -4 52
-33 88 -65 36 -32 78 -63 92 -68 17 -7 36 -29 51 -60 16 -30 35 -52 48 -57 13
-3 44 -25 70 -48 81 -71 108 -89 161 -102 148 -38 223 -71 403 -180 68 -41
129 -74 135 -74 7 0 20 -7 29 -15 20 -18 111 -55 153 -62 40 -7 44 -27 15 -71
-14 -20 -31 -53 -37 -72 -13 -37 -57 -132 -99 -215 -14 -27 -34 -79 -45 -115
-10 -36 -24 -83 -30 -105 -7 -22 -22 -53 -34 -69 -13 -16 -23 -37 -23 -48 0
-11 -5 -28 -11 -39 -5 -11 -14 -45 -19 -76 -5 -31 -21 -72 -35 -93 -14 -20
-25 -42 -25 -49 0 -7 -9 -24 -20 -38 -11 -14 -20 -39 -20 -56 0 -17 -15 -63
-34 -101 -19 -39 -40 -91 -47 -116 -7 -25 -27 -72 -45 -105 -17 -33 -34 -80
-38 -105 -8 -51 -51 -167 -71 -190 -8 -8 -21 -36 -30 -63 -9 -26 -36 -90 -60
-141 -25 -52 -45 -102 -45 -110 0 -9 -13 -44 -29 -79 -39 -82 -78 -183 -86
-227 -4 -19 -18 -54 -31 -77 -13 -23 -24 -50 -24 -61 0 -11 -7 -36 -15 -55 -8
-20 -15 -49 -15 -65 0 -16 -9 -37 -19 -46 -11 -10 -36 -52 -57 -94 -20 -43
-51 -102 -69 -132 -18 -30 -38 -72 -45 -93 -6 -21 -23 -51 -37 -68 -14 -17
-29 -50 -34 -74 -4 -24 -20 -67 -34 -97 -15 -29 -42 -100 -62 -158 -42 -125
-127 -345 -148 -380 -8 -14 -23 -44 -34 -66 -11 -23 -24 -45 -31 -49 -16 -10
-203 21 -340 56 -41 10 -104 24 -140 30 -36 6 -85 15 -110 20 -184 40 -429 44
-525 9 -27 -10 -69 -23 -92 -29 -58 -16 -107 -73 -99 -115 4 -17 10 -51 14
-77 12 -72 44 -114 105 -137 77 -31 134 -36 187 -18 25 9 55 16 68 16 13 0 31
4 41 10 21 11 165 -2 226 -20 22 -7 81 -17 130 -24 50 -6 100 -17 112 -24 12
-6 35 -12 50 -12 16 0 33 -4 39 -10 12 -12 157 -50 190 -50 14 0 42 -18 69
-44 25 -25 56 -48 68 -52 12 -4 38 -24 57 -45 123 -132 176 -193 194 -223 53
-87 101 -148 127 -161 15 -8 36 -28 45 -44 10 -17 37 -46 61 -66 24 -20 43
-45 43 -56 0 -11 46 -67 106 -132 59 -61 115 -126 125 -142 10 -17 32 -41 48
-52 15 -12 59 -60 96 -107 54 -68 76 -88 105 -96 103 -28 123 -24 175 38 64
77 95 127 95 157 -1 50 -15 68 -166 216 -56 55 -105 111 -108 124 -4 14 -23
36 -44 49 -20 13 -55 47 -77 76 -22 29 -53 67 -70 84 -16 17 -48 57 -69 89
-22 31 -43 57 -47 57 -5 0 -15 13 -24 30 -14 28 -14 30 1 30 31 0 198 -63 229
-86 17 -12 41 -28 55 -34 14 -6 43 -22 65 -35 81 -48 137 -75 159 -75 49 0
215 -70 302 -127 28 -18 56 -33 62 -33 7 0 34 -14 60 -30 27 -17 55 -30 62
-30 7 0 43 -23 80 -50 85 -63 187 -110 239 -110 32 0 49 9 95 47 38 32 59 59
66 83 13 47 13 97 -2 123 -22 42 -71 97 -92 103 -30 9 -106 57 -106 68 0 14
131 -4 209 -30 48 -16 106 -27 160 -29 48 -3 124 -10 171 -17 47 -6 105 -11
130 -11 25 0 103 1 173 2 92 1 136 5 157 16 16 8 38 15 50 15 22 0 61 36 91
85 14 21 19 49 19 97 0 61 -3 69 -36 110 -20 23 -43 47 -51 51 -8 5 -130 7
-271 4 -258 -4 -392 6 -530 42 -23 6 -81 18 -130 25 -48 8 -103 19 -122 24
-109 32 -152 42 -220 52 -41 7 -86 16 -100 21 -14 5 -80 10 -146 13 -67 2
-126 6 -132 10 -6 3 -77 13 -159 22 -248 25 -485 77 -577 126 -21 11 -139 56
-171 65 -32 10 -76 44 -69 55 6 9 17 56 44 174 5 23 21 59 35 80 14 20 28 49
31 63 15 77 72 230 95 256 30 35 59 88 59 108 0 15 27 80 66 161 13 28 24 55
24 62 0 6 11 31 25 56 13 24 35 73 49 108 13 36 31 79 40 95 8 17 30 71 47
120 17 50 40 113 51 140 11 28 27 70 36 95 37 109 55 149 72 165 18 16 33 53
65 154 9 30 27 70 41 90 13 20 24 48 24 62 0 24 31 106 65 169 7 14 16 41 20
60 4 19 14 49 23 65 18 34 79 203 92 253 4 18 16 44 25 58 19 29 54 120 92
239 13 44 38 107 53 140 16 33 38 87 50 120 11 33 32 81 45 108 14 26 25 53
25 60 0 6 11 35 25 62 13 28 25 58 25 67 0 9 4 19 9 22 12 8 131 254 131 271
0 7 8 23 19 36 l19 23 50 -27 c27 -15 55 -27 62 -27 21 0 103 -43 138 -72 18
-16 40 -28 50 -28 9 0 40 -11 67 -25 28 -13 59 -25 70 -25 10 0 37 -6 60 -14
22 -8 60 -20 85 -27 25 -7 80 -28 123 -46 43 -18 90 -33 103 -33 14 0 37 -9
52 -20 15 -11 52 -24 82 -29 30 -5 77 -19 103 -30 27 -12 61 -21 76 -21 15 0
44 -9 66 -20 22 -11 52 -20 67 -20 40 0 206 -48 296 -86 18 -8 58 -14 89 -14
40 0 62 -5 76 -17 14 -13 45 -20 111 -25 50 -4 114 -12 141 -18 28 -6 111 -13
185 -15 74 -3 169 -9 210 -15 41 -6 151 -10 245 -9 106 0 181 -4 200 -11 16
-6 43 -9 60 -6 17 3 46 1 65 -5 19 -6 96 -13 170 -14 74 -2 171 -8 214 -14 79
-11 930 -6 949 6 5 3 153 9 330 14 302 8 370 13 507 38 30 5 92 10 137 10 108
1 281 19 313 33 15 6 136 12 294 14 148 3 287 9 310 14 22 5 86 12 141 16 115
8 105 13 156 -86 18 -36 45 -81 61 -100 15 -19 37 -57 49 -85 11 -27 42 -71
68 -97 66 -66 104 -114 145 -185 20 -34 53 -83 72 -109 38 -49 84 -134 84
-153 0 -5 12 -24 28 -40 15 -16 38 -46 52 -66 14 -20 38 -53 54 -73 15 -20 42
-64 58 -97 17 -33 39 -70 50 -81 20 -23 45 -64 73 -124 10 -19 35 -55 57 -79
21 -25 55 -79 75 -121 20 -41 51 -96 69 -122 18 -26 40 -62 47 -80 8 -18 34
-56 58 -85 24 -28 59 -78 78 -110 19 -32 49 -80 67 -108 17 -27 60 -95 93
-150 97 -158 182 -278 259 -368 30 -34 58 -72 63 -85 5 -13 23 -43 39 -67 17
-24 30 -48 30 -54 0 -6 16 -28 35 -49 19 -21 48 -68 65 -103 39 -81 90 -171
111 -195 9 -11 40 -59 69 -109 30 -49 64 -101 77 -116 13 -14 23 -38 23 -55 0
-16 7 -39 15 -51 21 -30 -2 -47 -52 -39 -99 17 -208 28 -313 31 -255 9 -412
15 -545 21 -119 6 -145 4 -172 -9 -43 -23 -73 -75 -73 -127 0 -37 6 -48 39
-80 31 -30 38 -42 34 -63 -15 -77 38 -116 153 -113 39 1 77 6 85 13 14 11 200
9 304 -3 22 -3 90 -7 150 -9 99 -4 166 -12 275 -31 124 -22 319 -10 404 24 38
15 40 15 50 -4 23 -40 252 -252 328 -303 26 -18 51 -39 56 -47 5 -8 31 -29 59
-47 128 -80 209 -134 242 -163 20 -17 61 -47 91 -67 153 -100 187 -129 236
-203 57 -86 172 -118 233 -66 25 21 89 177 97 234 4 31 0 56 -14 88 -22 51
-92 120 -122 120 -10 0 -33 13 -50 30 -19 18 -41 30 -58 30 -15 0 -39 8 -53
18 -93 61 -117 78 -139 98 -14 12 -46 34 -72 47 -26 14 -59 35 -74 46 -15 12
-32 21 -38 21 -6 0 -24 13 -41 30 -74 73 -92 88 -123 104 -17 9 -32 21 -32 26
0 16 33 12 60 -7 13 -9 45 -20 70 -25 25 -4 77 -16 115 -27 125 -35 229 -63
268 -71 21 -4 46 -15 57 -25 18 -17 58 -30 135 -44 22 -4 58 -17 80 -28 22
-11 69 -26 105 -32 36 -7 76 -20 89 -28 14 -9 39 -19 55 -24 17 -4 69 -21 116
-38 47 -17 93 -31 104 -31 10 0 39 -10 65 -23 25 -13 66 -29 91 -36 25 -8 63
-19 85 -26 22 -7 60 -18 85 -25 25 -7 58 -16 74 -21 41 -13 173 -11 199 2 12
6 46 37 76 68 53 55 70 92 71 153 0 59 -109 138 -192 138 -45 0 -139 23 -245
59 -34 12 -74 21 -87 21 -14 0 -40 9 -58 20 -18 11 -46 20 -62 20 -16 0 -38 7
-47 16 -10 9 -35 20 -56 25 -21 4 -58 14 -83 23 -61 20 -169 52 -202 60 -83
19 37 43 155 31 62 -6 207 -14 312 -17 81 -2 375 11 490 22 121 12 187 15 390
23 95 3 134 20 171 76 32 50 57 143 48 185 -10 51 -41 92 -84 111 -39 18 -114
18 -280 0 -117 -13 -319 -19 -353 -11 -27 6 -46 5 -65 -4 -21 -11 -122 -14
-437 -16 -384 -3 -461 -7 -625 -34 -36 -6 -83 -12 -105 -14 -40 -3 -126 -15
-265 -37 -113 -17 -344 -5 -407 22 -119 51 -208 63 -278 38 -31 -12 -34 -10
-86 44 -78 81 -81 84 -115 115 -18 15 -43 56 -58 94 -15 36 -44 85 -64 109
-39 45 -65 87 -132 214 -23 44 -48 87 -55 95 -37 43 -152 224 -187 294 -22 45
-59 102 -82 128 -57 64 -82 99 -90 125 -4 12 -22 30 -40 41 -18 11 -41 37 -51
58 -10 21 -36 62 -57 90 -21 28 -38 60 -38 71 0 17 -107 165 -199 274 -17 20
-38 54 -47 75 -9 22 -31 58 -50 81 -19 23 -34 47 -34 55 -1 7 -16 40 -35 73
-19 33 -44 78 -56 99 -11 22 -43 66 -70 98 -27 33 -49 66 -49 74 0 23 -38 92
-81 146 -21 28 -39 53 -39 57 0 5 -27 45 -60 91 -33 46 -60 89 -60 96 0 7 -10
25 -23 41 -12 15 -29 41 -36 57 -7 17 -25 46 -40 65 -15 20 -39 60 -54 89 -30
60 -69 110 -148 192 -31 32 -68 84 -83 117 -15 32 -39 70 -53 85 -22 23 -24
30 -13 43 7 8 22 15 33 15 12 0 39 7 62 15 44 15 267 36 309 28 14 -3 36 1 48
9 23 15 47 21 140 36 25 5 52 13 60 19 7 6 41 13 76 16 34 4 75 13 90 21 15 8
57 20 92 26 36 7 88 23 115 36 28 13 64 24 81 24 17 0 43 9 57 20 14 11 35 20
47 20 11 0 31 10 43 23 12 13 68 40 127 60 58 21 119 45 135 54 17 9 81 43
144 75 63 32 119 62 125 67 6 5 45 17 86 26 41 10 86 25 100 35 15 10 51 30
80 45 56 28 128 75 165 107 11 9 40 24 63 32 24 9 56 25 72 36 15 11 39 20 53
20 13 0 44 16 68 35 24 19 49 35 56 35 7 0 28 14 46 30 19 17 40 30 47 30 7 0
27 9 44 19 17 11 57 29 88 41 31 11 73 32 93 45 20 14 41 25 48 25 7 0 29 11
49 25 20 14 45 25 55 25 10 0 45 20 78 45 33 25 92 62 130 81 39 19 97 55 130
79 33 25 79 53 101 64 23 11 45 24 49 30 3 6 21 18 40 25 18 8 39 24 45 36 6
12 36 33 66 46 30 13 54 28 54 34 0 6 19 20 43 30 56 27 133 70 178 100 53 36
145 97 209 138 30 20 78 54 105 77 28 22 61 48 75 57 55 35 232 223 314 333
24 33 67 81 95 107 28 26 58 60 68 75 10 15 37 48 60 72 24 24 45 53 49 64 8
25 58 99 111 165 24 29 43 57 43 62 0 5 30 40 67 77 61 61 173 215 173 237 0
4 11 21 25 38 14 16 25 35 25 41 0 7 16 32 35 56 19 24 35 52 35 61 0 10 16
37 35 60 19 23 35 49 35 58 0 8 13 36 29 61 16 25 34 64 41 86 7 22 32 66 54
98 66 94 88 138 103 212 8 43 36 116 73 190 33 66 60 127 60 134 0 7 15 43 34
80 82 160 106 215 106 245 0 17 18 67 39 111 22 44 49 114 61 155 12 41 30 98
40 125 11 28 22 70 26 95 4 25 19 71 35 103 16 32 29 68 29 81 0 23 36 115 65
168 8 14 15 39 15 56 0 16 11 54 24 83 13 30 26 72 30 94 4 22 15 69 25 105
11 36 31 117 46 180 15 63 36 142 47 175 11 33 21 92 22 130 6 134 35 276 73
350 13 27 13 40 3 100 -7 39 -12 105 -11 147 2 60 -2 88 -19 125 -29 66 -42
171 -33 278 l8 90 49 -3 c65 -4 144 35 253 125 45 37 108 88 138 113 31 25 91
78 133 118 42 41 96 82 119 92 25 11 48 31 57 48 17 32 76 72 106 72 11 0 37
18 59 40 22 22 44 40 49 40 6 0 45 29 88 65 43 35 96 73 119 84 23 11 47 26
54 35 8 9 19 16 26 16 7 0 34 17 61 38 27 21 67 49 89 61 22 13 60 43 85 67
66 64 146 131 191 160 22 14 42 31 45 39 4 8 22 24 42 36 21 12 57 41 82 64
25 24 54 46 65 49 11 3 45 36 75 73 30 37 89 102 131 145 42 42 89 97 105 120
16 24 38 53 49 65 11 12 31 36 45 52 14 17 71 78 128 137 56 58 109 119 117
135 9 16 20 29 24 29 11 0 316 304 479 476 227 240 293 316 337 382 72 107
128 187 160 227 101 125 165 208 165 214 0 4 23 24 50 45 28 21 53 49 56 63 4
14 19 33 35 42 30 18 58 53 105 131 15 25 53 73 85 107 33 34 59 68 59 76 0 9
21 39 46 69 25 29 51 64 57 78 6 14 20 35 31 48 26 29 89 134 115 189 11 23
36 66 55 95 20 29 36 56 36 61 0 4 16 33 36 64 19 31 39 66 44 77 7 20 53 87
149 216 18 25 46 72 62 106 16 33 38 69 50 80 12 10 28 32 36 49 9 16 26 43
39 58 13 16 24 35 24 43 0 8 16 37 35 66 19 28 38 62 42 77 6 24 48 98 92 161
10 14 30 54 46 90 15 36 40 92 56 125 41 88 69 156 69 170 0 6 11 22 24 34 13
12 31 41 41 64 9 23 21 49 26 57 23 40 67 139 78 175 18 58 174 381 207 430 8
11 14 28 14 38 0 10 20 56 44 101 25 44 48 101 52 126 9 62 30 144 43 169 6
11 11 37 11 57 0 50 17 144 41 222 12 38 19 92 19 139 l0 76 -43 41 c-24 23
-64 52 -89 65 -44 23 -49 24 -89 11 -58 -19 -148 -94 -155 -129 -4 -18 -36
-56 -91 -107 -69 -65 -167 -161 -245 -242 -74 -77 -227 -212 -240 -212 -9 0
-36 -18 -60 -41 -47 -45 -130 -106 -211 -156 -55 -34 -132 -88 -200 -140 -23
-18 -60 -46 -82 -62 -22 -17 -51 -39 -65 -51 -58 -49 -208 -159 -240 -175 -18
-9 -48 -31 -66 -49 -67 -65 -92 -85 -155 -117 -35 -18 -99 -57 -143 -86 -43
-29 -89 -56 -103 -59 -46 -12 -226 -105 -282 -147 -31 -23 -85 -56 -121 -74
-36 -17 -75 -42 -85 -54 -11 -12 -30 -25 -42 -30 -12 -4 -61 -34 -110 -65 -48
-32 -110 -68 -137 -81 -26 -13 -72 -45 -100 -71 -29 -26 -63 -52 -77 -58 -79
-35 -150 -71 -194 -99 -144 -92 -184 -114 -222 -124 -23 -7 -61 -26 -85 -44
-24 -18 -86 -54 -138 -81 -52 -26 -104 -57 -116 -67 -11 -10 -26 -19 -33 -19
-6 0 -56 -23 -109 -52 -131 -69 -236 -121 -302 -148 -30 -12 -62 -28 -70 -34
-8 -7 -44 -27 -80 -45 -36 -17 -72 -36 -80 -40 -48 -28 -128 -61 -146 -61 -12
0 -41 -11 -65 -24 -25 -12 -65 -26 -90 -30 -26 -4 -55 -13 -65 -21 -11 -8 -31
-15 -45 -15 -15 0 -60 -13 -100 -30 -41 -16 -79 -30 -85 -30 -6 0 -23 -9 -37
-20 -14 -11 -33 -20 -44 -20 -25 0 -218 -85 -250 -110 -14 -11 -31 -20 -38
-20 -7 0 -39 -13 -71 -30 -32 -16 -74 -33 -93 -36 -37 -7 -407 -189 -416 -205
-4 -5 -19 -9 -34 -9 -16 0 -46 -7 -67 -16 -96 -40 -182 -84 -211 -108 -60 -51
-113 -54 -113 -6 0 10 -15 36 -32 58 -18 21 -44 58 -58 81 -83 139 -180 273
-227 312 -26 21 -65 65 -88 98 -71 103 -122 166 -159 197 -20 16 -76 64 -124
108 -48 43 -103 89 -122 101 -19 12 -44 32 -55 44 -23 26 -14 48 31 71 80 41
185 109 239 155 33 28 103 77 155 108 227 138 285 182 397 304 139 150 192
198 226 207 17 4 33 17 40 34 7 15 48 61 91 101 44 41 93 92 108 115 16 22 44
61 63 86 19 25 55 79 79 120 41 71 61 98 155 211 20 25 43 61 50 80 7 19 19
49 27 67 8 18 14 51 14 73 0 22 5 50 12 62 6 12 15 35 19 52 20 82 55 156 106
225 18 25 37 54 42 65 38 86 70 166 76 195 4 19 16 46 26 59 11 13 19 39 19
58 0 19 15 67 33 107 43 91 56 203 29 248 -20 35 -169 118 -209 117 -16 0 -46
-9 -69 -19z m5221 -942 c-4 -13 -26 -57 -49 -98 -23 -41 -59 -113 -80 -160
-21 -47 -61 -131 -87 -187 -27 -56 -49 -108 -49 -117 0 -9 -13 -38 -30 -64
-16 -27 -30 -55 -30 -63 0 -8 -18 -47 -40 -87 -22 -40 -40 -79 -40 -86 0 -7
-9 -21 -20 -31 -10 -9 -25 -34 -31 -54 -14 -43 -94 -196 -121 -230 -10 -13
-18 -32 -18 -41 0 -25 -45 -123 -63 -138 -9 -7 -24 -36 -33 -63 -10 -28 -26
-55 -36 -60 -17 -9 -88 -119 -88 -136 0 -25 -153 -265 -221 -347 -14 -17 -37
-56 -51 -87 -14 -31 -47 -82 -72 -113 -25 -31 -46 -65 -46 -75 0 -10 -9 -26
-20 -36 -26 -24 -70 -99 -70 -121 0 -21 -57 -107 -101 -154 -65 -67 -105 -126
-148 -217 -11 -22 -29 -44 -40 -48 -13 -4 -38 -40 -67 -96 -26 -50 -57 -98
-71 -107 -56 -39 -203 -191 -203 -209 0 -11 -19 -38 -42 -60 -24 -22 -56 -60
-73 -83 -68 -95 -102 -139 -134 -171 -18 -18 -41 -51 -51 -74 -9 -22 -28 -54
-42 -70 -13 -17 -32 -42 -41 -57 -9 -15 -31 -35 -47 -43 -16 -8 -37 -29 -45
-46 -18 -33 -164 -183 -208 -212 -15 -10 -30 -31 -34 -47 -3 -19 -24 -43 -58
-71 -30 -24 -60 -54 -67 -67 -7 -14 -25 -32 -39 -41 -14 -9 -46 -41 -72 -71
-26 -30 -54 -62 -63 -70 -166 -153 -298 -287 -326 -328 -42 -63 -70 -100 -108
-142 -131 -148 -179 -198 -211 -222 -21 -15 -54 -44 -75 -66 -22 -22 -47 -43
-56 -48 -9 -5 -69 -57 -132 -116 -64 -59 -132 -114 -151 -122 -19 -8 -35 -19
-35 -25 0 -5 -25 -24 -55 -41 -30 -17 -65 -44 -77 -59 -13 -16 -43 -39 -67
-51 -24 -12 -71 -41 -105 -64 -33 -24 -80 -53 -103 -65 -24 -12 -43 -26 -43
-31 0 -11 -101 -79 -152 -102 -21 -9 -38 -21 -38 -27 0 -5 -23 -23 -51 -41
-29 -17 -79 -59 -113 -93 -34 -34 -85 -83 -114 -109 -28 -26 -52 -52 -52 -57
0 -6 -21 -22 -47 -37 -27 -15 -61 -40 -78 -55 -40 -36 -143 -90 -151 -78 -3 5
-9 44 -13 87 -5 43 -13 87 -18 97 -6 11 -13 85 -16 165 -4 80 -11 161 -17 180
-5 19 -10 78 -10 130 0 52 -5 111 -11 130 -6 19 -15 85 -20 145 -5 61 -13 164
-18 230 -5 66 -16 149 -25 185 -9 36 -16 89 -16 118 0 29 -4 61 -10 71 -5 10
-16 60 -24 112 -9 52 -22 129 -30 173 -9 43 -18 113 -22 155 -3 44 -16 103
-31 141 -14 36 -31 92 -38 125 -8 33 -21 80 -29 105 -8 25 -22 70 -32 100 -9
30 -24 66 -33 80 -8 14 -30 66 -47 115 -52 148 -72 193 -118 263 -24 37 -51
83 -59 102 -14 34 -37 86 -46 104 -2 5 20 6 52 2 48 -5 67 -2 129 23 40 16 87
32 105 35 18 4 43 16 56 26 26 21 147 82 237 120 30 13 75 32 100 42 93 40
156 70 190 93 19 13 51 26 70 30 37 8 105 39 130 60 8 7 32 15 54 18 21 4 55
17 75 31 39 27 114 56 146 56 11 0 45 12 75 27 75 36 121 53 147 53 13 0 52
11 89 25 36 14 79 25 95 25 17 0 42 12 62 30 19 17 39 30 45 30 6 0 24 11 40
25 43 36 125 75 159 75 15 0 45 11 65 25 20 14 83 47 140 74 57 26 117 60 135
75 17 14 38 26 47 26 40 0 209 87 306 157 25 18 72 46 105 63 33 16 83 43 110
59 65 39 85 48 116 55 14 3 43 20 65 37 21 17 71 47 109 66 39 20 82 44 97 54
14 11 33 19 41 19 8 0 34 15 58 33 24 18 60 40 79 50 19 9 60 37 90 62 30 25
93 68 140 96 47 29 96 62 110 74 45 39 130 95 144 95 8 0 38 16 67 36 89 60
149 94 168 94 10 0 33 11 52 25 19 14 57 36 84 50 28 13 75 42 105 64 30 23
69 48 85 56 17 8 50 28 75 45 25 16 62 39 82 50 21 11 52 33 70 49 18 15 47
36 63 45 65 37 124 84 263 214 31 28 63 52 72 52 15 0 120 70 185 122 17 14
53 38 80 53 28 16 73 47 100 69 28 23 82 63 121 89 39 26 115 90 170 142 54
52 103 94 107 95 5 0 5 -10 2 -22z"/>
</g>
</svg>
