<?xml version="1.0" standalone="no"?>
<!DOCTYPE svg PUBLIC "-//W3C//DTD SVG 20010904//EN"
 "http://www.w3.org/TR/2001/REC-SVG-20010904/DTD/svg10.dtd">
<svg version="1.0" xmlns="http://www.w3.org/2000/svg"
 width="2067.479989pt" height="2753.698457pt" viewBox="0 0 2067.479989 2753.698457"
 preserveAspectRatio="xMidYMid meet">
<metadata>
Created by potrace 1.16, written by Peter Selinger 2001-2019
</metadata>
<g transform="translate(-155.093093,2919.908885) scale(0.100000,-0.100000)"
fill="#343434" stroke="none">
<path d="M9765 29186 c-40 -17 -56 -38 -67 -89 -21 -94 -20 -110 7 -165 14
-28 30 -52 35 -52 5 0 18 -19 29 -42 33 -69 206 -308 223 -308 4 0 19 -20 33
-45 15 -24 35 -47 46 -50 10 -4 49 -41 85 -83 37 -42 81 -84 98 -92 17 -8 43
-34 58 -57 16 -23 51 -58 78 -78 28 -20 50 -41 50 -46 0 -5 17 -17 37 -26 25
-12 44 -31 55 -54 11 -24 28 -40 48 -47 17 -6 50 -27 73 -45 23 -19 62 -47 87
-62 25 -16 89 -73 143 -127 54 -54 125 -118 159 -141 33 -23 77 -54 97 -69 20
-15 64 -41 99 -59 35 -18 67 -40 73 -50 5 -10 26 -23 47 -29 39 -10 191 -97
227 -130 59 -53 130 -74 175 -50 12 6 28 6 49 -1 72 -25 131 34 131 132 0 49
-5 63 -41 118 -32 46 -54 68 -91 86 -27 14 -53 25 -58 25 -5 0 -39 21 -76 46
-37 25 -81 51 -98 57 -17 5 -40 18 -51 27 -11 10 -48 32 -82 49 -35 17 -63 36
-63 42 0 5 -16 17 -36 25 -20 8 -46 25 -57 38 -12 13 -51 45 -87 72 -84 63
-147 114 -231 189 -90 79 -133 113 -183 145 -22 15 -71 55 -109 88 -37 34 -72
62 -78 62 -11 0 -43 28 -143 127 -106 104 -166 169 -166 181 0 6 -30 44 -66
84 -36 40 -73 84 -82 98 -9 14 -29 40 -44 58 -37 43 -74 103 -110 175 -22 45
-38 62 -63 73 -42 17 -120 18 -160 0z"/>
<path d="M11581 28756 c-19 -14 -45 -44 -59 -67 -21 -36 -23 -48 -17 -102 5
-45 16 -77 40 -117 19 -30 46 -75 61 -100 15 -25 35 -57 44 -71 10 -14 31 -50
46 -80 15 -30 42 -75 60 -100 17 -25 35 -55 38 -67 4 -12 16 -27 26 -32 10 -5
38 -49 63 -97 131 -261 144 -282 219 -356 41 -40 100 -90 132 -112 31 -22 82
-59 113 -82 31 -24 64 -43 73 -43 9 0 35 -18 59 -40 24 -22 53 -40 65 -40 14
0 43 -20 72 -48 50 -48 51 -49 132 -56 151 -12 194 17 207 140 6 55 4 68 -15
100 -13 20 -37 43 -54 50 -17 8 -42 23 -56 33 -65 48 -231 156 -305 197 -65
36 -141 97 -160 127 -11 18 -37 49 -57 69 -40 42 -68 85 -128 203 -66 130
-103 190 -137 224 -18 18 -33 38 -33 44 0 7 -16 36 -35 66 -19 29 -35 57 -35
62 0 5 -24 51 -53 102 -29 50 -57 105 -62 122 -15 44 -79 82 -150 90 -54 6
-63 4 -94 -19z"/>
<path d="M13093 28611 c-23 -17 -47 -40 -53 -51 -13 -24 -4 -102 17 -143 8
-16 20 -102 29 -218 9 -122 20 -201 29 -219 8 -16 15 -50 15 -75 0 -25 7 -59
15 -75 17 -32 65 -176 65 -194 0 -20 94 -164 150 -230 20 -22 44 -54 55 -70
10 -17 44 -62 75 -100 31 -39 66 -87 78 -108 12 -20 29 -39 37 -42 8 -3 21
-20 28 -38 20 -47 123 -130 216 -173 18 -9 51 -27 72 -41 22 -13 70 -41 107
-60 37 -20 76 -44 87 -53 31 -27 116 -77 155 -91 19 -7 42 -19 50 -26 8 -7 38
-23 65 -36 60 -29 195 -116 288 -187 38 -28 83 -58 100 -66 18 -8 50 -28 72
-45 22 -16 65 -44 95 -61 30 -17 69 -44 85 -61 26 -26 159 -127 263 -200 18
-13 49 -35 69 -50 20 -16 41 -28 48 -28 7 0 41 -26 76 -58 35 -31 95 -84 133
-117 39 -33 115 -103 170 -155 55 -52 115 -108 134 -125 145 -130 226 -226
265 -315 8 -19 40 -64 71 -99 31 -36 56 -72 56 -81 0 -10 9 -29 21 -43 11 -15
23 -44 26 -64 3 -21 17 -63 30 -93 14 -30 29 -80 34 -110 12 -82 66 -285 95
-360 17 -43 33 -116 45 -195 4 -33 13 -85 19 -115 5 -30 13 -84 16 -120 4 -36
11 -74 17 -85 39 -71 38 -311 0 -405 -15 -36 -30 -89 -38 -130 -3 -19 -12 -48
-20 -65 -18 -43 -35 -119 -35 -163 0 -36 -22 -117 -43 -157 -10 -20 -21 -61
-36 -141 -4 -22 -21 -68 -38 -100 -17 -33 -41 -92 -53 -132 -12 -40 -32 -85
-44 -100 -20 -23 -45 -70 -102 -182 -6 -14 -19 -38 -27 -55 -8 -16 -24 -47
-34 -68 -10 -21 -51 -79 -91 -130 -40 -51 -87 -111 -105 -134 -32 -42 -177
-200 -219 -238 -12 -11 -40 -39 -62 -62 -222 -230 -432 -413 -473 -413 -21 0
-131 -68 -153 -95 -15 -18 -93 -78 -162 -125 -34 -23 -103 -101 -151 -170 -11
-16 -17 -44 -17 -78 0 -48 3 -56 38 -88 20 -19 49 -42 64 -50 15 -8 39 -34 53
-58 19 -32 36 -47 68 -59 72 -26 125 -31 152 -13 31 21 115 21 163 0 20 -8 75
-28 122 -44 96 -32 153 -54 191 -75 14 -8 59 -26 100 -40 72 -26 242 -98 364
-156 33 -15 83 -37 111 -48 29 -11 74 -34 102 -50 27 -17 56 -31 65 -31 9 0
45 -15 79 -34 76 -41 99 -53 208 -107 47 -23 102 -56 123 -73 33 -26 127 -88
221 -144 16 -9 49 -34 75 -55 25 -21 74 -61 109 -90 35 -29 100 -85 144 -126
45 -40 104 -88 132 -106 28 -18 60 -43 71 -55 11 -12 38 -34 60 -47 22 -14 59
-44 82 -66 23 -23 62 -60 87 -82 25 -22 92 -85 148 -140 57 -55 132 -125 168
-155 35 -30 76 -68 90 -83 14 -16 35 -39 47 -50 24 -23 239 -241 336 -339 31
-32 57 -62 57 -68 0 -13 66 -91 176 -208 97 -102 134 -148 200 -247 70 -104
89 -129 127 -170 20 -22 48 -62 62 -90 50 -98 148 -220 211 -262 19 -13 34
-28 34 -33 0 -4 33 -41 73 -82 39 -40 101 -109 137 -154 80 -99 159 -170 199
-179 30 -6 99 12 142 37 28 17 59 90 59 136 0 34 -9 57 -60 154 -11 21 -33 44
-50 53 -16 9 -30 19 -30 24 0 5 -30 41 -67 79 -160 164 -264 286 -291 338 -11
21 -44 66 -72 99 -28 33 -66 83 -84 110 -19 28 -44 59 -56 70 -13 11 -45 54
-72 95 -28 41 -63 89 -80 105 -16 17 -53 60 -81 96 -81 103 -153 191 -183 224
-16 17 -54 60 -85 97 -31 37 -88 94 -126 126 -39 32 -95 85 -124 117 -30 32
-62 65 -73 74 -55 48 -149 149 -159 173 -7 14 -46 55 -87 89 -41 34 -87 74
-101 88 -15 14 -55 46 -90 71 -35 25 -102 81 -149 125 -47 45 -110 100 -140
122 -30 23 -85 70 -121 105 -36 35 -84 79 -107 98 -24 19 -62 52 -85 74 -73
67 -204 164 -259 192 -18 9 -71 42 -117 73 -81 54 -108 71 -161 97 -65 32
-126 66 -140 78 -8 8 -51 33 -95 56 -44 23 -89 49 -100 56 -11 8 -25 14 -31
14 -7 0 -36 16 -65 35 -30 19 -59 35 -67 35 -7 0 -34 11 -60 23 -26 13 -74 31
-107 41 -33 9 -100 36 -150 60 -105 51 -158 73 -201 81 -17 3 -46 17 -65 31
-21 16 -46 24 -72 24 -24 0 -69 15 -122 40 -46 22 -96 40 -110 40 -14 0 -38 6
-53 14 -47 24 -154 56 -189 56 -44 0 -42 14 7 45 22 14 59 37 82 53 23 15 56
36 74 47 17 11 75 56 128 100 131 109 236 192 267 213 47 31 134 116 177 173
23 31 69 77 101 103 61 49 125 119 174 191 29 43 55 78 129 173 26 33 81 129
122 213 42 84 80 157 85 163 4 6 23 45 42 86 18 41 46 96 61 121 15 25 28 57
28 70 0 13 10 44 21 69 18 39 53 159 79 270 4 19 15 55 24 79 9 24 16 57 16
74 0 16 4 46 9 66 5 20 15 63 21 96 7 33 18 75 26 93 8 18 14 40 14 50 0 9 7
31 16 47 30 56 42 110 47 200 5 110 -18 357 -37 393 -8 15 -19 68 -26 117 -21
163 -27 199 -53 285 -24 82 -38 134 -57 210 -4 19 -13 49 -18 65 -28 85 -42
135 -42 151 0 11 -14 60 -31 109 -16 50 -41 122 -54 160 -12 39 -30 84 -39
100 -9 17 -16 35 -16 41 0 6 -20 37 -45 70 -24 32 -45 64 -45 71 0 7 -12 27
-27 45 -16 18 -37 50 -47 70 -23 46 -93 128 -145 172 -22 18 -50 45 -63 58
-13 14 -52 50 -88 80 -36 30 -101 92 -145 137 -44 46 -92 89 -107 97 -15 8
-29 22 -33 33 -7 22 -181 159 -352 276 -28 20 -54 42 -57 50 -3 8 -28 26 -55
40 -28 14 -66 40 -85 57 -59 55 -87 77 -189 143 -55 36 -114 78 -133 95 -19
16 -43 30 -53 30 -19 0 -103 53 -181 115 -44 35 -125 89 -166 112 -101 55
-197 103 -207 103 -7 0 -37 13 -67 30 -30 16 -81 43 -112 60 -31 16 -81 49
-110 72 -29 24 -82 63 -118 86 -36 24 -76 59 -90 79 -14 19 -56 69 -93 110
-37 41 -78 96 -91 121 -14 26 -41 67 -62 91 -62 72 -104 149 -104 191 0 29 -9
49 -38 84 -25 30 -44 68 -56 109 -9 34 -22 78 -29 97 -8 23 -12 109 -12 255 0
296 -2 300 -166 311 -93 6 -94 6 -136 -25z"/>
<path d="M9879 27736 c-3 -3 -35 -7 -70 -7 -98 -2 -190 -18 -227 -41 -18 -11
-74 -28 -125 -38 -118 -23 -192 -47 -225 -75 -15 -12 -43 -28 -62 -35 -19 -8
-55 -33 -80 -56 -53 -48 -147 -114 -164 -114 -6 0 -35 -17 -63 -37 -85 -62
-116 -81 -161 -102 -23 -11 -45 -27 -48 -35 -6 -16 -145 -126 -189 -149 -16
-8 -49 -33 -72 -54 -23 -21 -65 -56 -93 -78 -80 -63 -229 -213 -281 -284 -14
-20 -39 -49 -55 -66 -34 -34 -85 -112 -114 -171 -11 -22 -28 -51 -38 -65 -11
-13 -30 -44 -42 -69 -13 -25 -38 -65 -57 -89 -18 -25 -36 -56 -40 -70 -3 -14
-20 -39 -37 -57 -31 -32 -70 -96 -102 -164 -16 -33 -50 -101 -108 -215 -14
-27 -40 -81 -57 -120 -17 -38 -41 -92 -54 -120 -13 -27 -28 -68 -35 -90 -15
-53 -52 -147 -62 -161 -14 -19 -42 -124 -67 -249 -12 -61 -55 -235 -71 -290
-6 -22 -18 -87 -26 -145 -18 -130 -28 -188 -41 -220 -12 -29 -10 -183 4 -325
11 -108 12 -127 12 -285 0 -58 5 -130 11 -160 6 -30 11 -104 11 -163 0 -95 5
-120 35 -212 19 -58 34 -115 34 -129 0 -52 32 -202 49 -230 10 -17 21 -42 24
-56 4 -14 22 -49 41 -78 19 -29 40 -69 45 -88 5 -20 20 -50 34 -67 13 -18 45
-97 71 -177 26 -80 61 -166 77 -191 16 -25 29 -55 29 -67 0 -11 17 -38 38 -60
21 -21 55 -62 77 -91 21 -28 42 -51 46 -51 3 0 35 -22 69 -50 34 -27 65 -50
69 -50 4 0 51 -44 105 -97 77 -75 106 -112 127 -160 18 -38 36 -64 49 -68 11
-4 27 -22 35 -41 8 -19 29 -49 47 -67 48 -48 132 -155 141 -180 4 -12 31 -45
59 -74 44 -44 49 -54 38 -67 -7 -9 -20 -16 -30 -16 -15 0 -68 -30 -142 -81
-15 -11 -36 -19 -47 -19 -11 0 -32 -11 -48 -24 -15 -13 -46 -33 -68 -45 -22
-12 -60 -35 -85 -51 -25 -16 -52 -33 -60 -36 -26 -12 -149 -95 -156 -105 -3
-5 -42 -28 -87 -51 -45 -22 -98 -53 -117 -69 -19 -16 -55 -45 -80 -65 -25 -19
-83 -66 -128 -102 -46 -37 -96 -73 -110 -81 -15 -8 -60 -42 -100 -77 -40 -35
-99 -82 -130 -104 -96 -68 -148 -113 -189 -161 -21 -26 -64 -68 -95 -93 -31
-26 -63 -55 -71 -67 -8 -11 -57 -56 -108 -101 -52 -44 -128 -115 -169 -157
-42 -42 -120 -116 -174 -166 -137 -125 -273 -253 -316 -298 -20 -21 -77 -71
-126 -111 -84 -68 -109 -96 -171 -191 -14 -22 -40 -57 -57 -77 -17 -20 -47
-62 -66 -94 -19 -31 -67 -89 -106 -128 -39 -39 -94 -100 -123 -135 -29 -35
-67 -78 -84 -95 -68 -68 -157 -177 -213 -261 -15 -22 -39 -51 -53 -65 -40 -39
-122 -146 -161 -210 -19 -32 -48 -77 -64 -101 -16 -24 -45 -69 -65 -99 -19
-30 -52 -74 -73 -97 -21 -24 -38 -48 -38 -54 0 -6 -13 -27 -30 -46 -16 -18
-30 -42 -30 -53 0 -10 -5 -22 -10 -25 -6 -4 -25 -30 -43 -58 -19 -29 -42 -59
-52 -67 -10 -8 -28 -31 -41 -50 -13 -19 -37 -54 -53 -77 -17 -24 -38 -57 -46
-74 -9 -17 -29 -35 -45 -40 -50 -18 -65 -53 -87 -203 -3 -26 0 -50 10 -70 8
-17 18 -43 21 -57 7 -33 69 -76 121 -84 34 -6 46 -2 83 25 24 17 50 46 59 63
37 78 82 149 130 206 29 34 53 66 53 71 0 12 56 96 92 138 15 18 28 38 28 45
0 8 14 26 31 43 17 16 52 58 77 94 25 36 59 81 75 99 17 19 38 54 49 78 10 23
23 45 28 48 6 4 21 27 34 53 13 26 34 56 46 67 12 11 33 40 46 65 48 88 90
150 141 207 131 147 176 200 190 228 31 61 84 123 113 135 17 7 37 25 45 41 8
15 34 43 56 61 42 33 97 108 120 163 25 59 80 133 117 159 21 14 48 44 60 65
12 21 73 88 136 147 62 60 125 128 140 151 14 24 43 54 64 67 20 13 61 47 90
75 29 28 67 58 83 66 16 9 29 20 29 24 0 15 52 73 83 91 32 20 211 183 270
247 21 22 49 44 62 47 13 3 41 27 62 54 47 59 97 109 142 144 20 15 56 46 81
68 91 84 193 166 230 185 21 11 48 33 60 48 12 15 38 36 58 46 21 11 55 38 77
61 22 23 54 49 70 57 17 9 46 29 65 44 19 15 97 59 173 98 77 39 156 86 178
105 21 20 55 47 76 61 21 14 63 43 93 65 30 22 60 40 66 40 6 0 32 16 57 35
25 19 56 35 69 35 13 0 46 15 73 33 144 95 181 112 221 98 57 -20 108 -14 150
20 52 41 57 53 51 108 -11 94 -92 207 -248 347 -40 35 -87 89 -110 124 -9 14
-29 39 -45 55 -16 17 -36 40 -44 51 -8 12 -34 47 -57 77 -24 31 -43 63 -43 71
0 9 -14 31 -32 51 -17 20 -38 49 -47 65 -23 40 -121 160 -132 160 -4 0 -22 14
-39 30 -17 17 -36 30 -42 30 -7 0 -26 14 -44 31 -17 17 -53 45 -80 62 -28 19
-62 54 -81 82 -17 28 -42 63 -55 79 -42 53 -91 140 -99 176 -13 57 -58 183
-72 199 -7 9 -19 34 -26 56 -7 22 -30 76 -51 120 -21 45 -43 107 -49 139 -6
31 -14 63 -18 69 -7 11 -12 37 -32 162 -4 28 -15 68 -24 90 -8 22 -21 87 -27
145 -6 58 -18 141 -26 185 -8 44 -16 145 -18 225 -2 80 -9 197 -16 260 -13
131 -11 156 20 260 13 41 26 113 31 160 4 47 14 121 23 165 8 44 19 100 24
125 4 25 12 52 17 60 5 8 13 35 17 60 4 25 11 71 17 102 5 31 16 67 25 80 9
12 16 38 16 58 0 20 11 52 25 75 13 22 25 48 25 59 0 10 11 40 25 68 14 27 25
56 25 65 0 8 20 45 45 82 25 37 45 78 45 91 0 13 6 31 14 39 21 23 106 191
106 208 0 8 19 40 43 71 52 69 87 126 87 140 0 6 25 48 55 93 30 45 55 88 55
95 0 7 17 34 38 61 21 26 43 55 48 64 10 18 150 180 227 261 26 28 69 67 95
87 26 20 57 44 67 54 36 32 159 128 217 169 32 22 64 50 71 62 8 11 50 39 93
61 44 22 102 55 129 74 28 19 64 44 80 55 40 28 99 72 160 121 59 47 158 92
255 115 19 5 58 16 85 24 146 44 153 45 346 42 163 -3 193 -1 210 13 25 20 38
76 39 159 0 56 -3 66 -27 89 -57 53 -70 57 -192 61 -64 2 -119 1 -122 -2z"/>
<path d="M9284 25576 c-18 -8 -34 -18 -38 -24 -3 -5 -40 -27 -82 -48 -42 -22
-92 -47 -110 -56 -34 -18 -64 -53 -64 -76 0 -8 -21 -45 -47 -84 -41 -61 -48
-78 -51 -132 -7 -109 36 -166 176 -233 42 -20 90 -47 105 -60 16 -12 42 -23
58 -23 16 0 46 -7 66 -15 48 -20 142 -10 186 19 38 25 77 97 77 141 0 21 9 40
26 56 54 50 73 123 50 198 -8 27 -18 75 -21 107 -12 98 -77 203 -142 230 -41
18 -149 17 -189 0z"/>
<path d="M13355 25129 c-36 -16 -119 -52 -146 -63 -30 -12 -111 -107 -152
-177 -34 -59 -43 -137 -27 -223 23 -121 115 -212 250 -246 25 -6 59 -15 75
-20 17 -5 68 -6 115 -2 81 7 89 10 135 47 26 22 71 67 98 99 l49 59 -4 121
c-5 129 -4 129 -84 278 -31 59 -43 71 -99 103 -55 30 -72 35 -127 34 -34 0
-72 -4 -83 -10z"/>
<path d="M11050 24740 c-45 -11 -154 -38 -205 -51 -52 -13 -166 -38 -230 -49
-53 -9 -119 -25 -255 -60 -47 -12 -116 -26 -155 -31 -38 -6 -88 -16 -110 -23
-22 -8 -55 -11 -73 -9 -21 4 -41 -1 -60 -13 -42 -28 -142 -74 -161 -74 -9 0
-25 -6 -36 -14 -11 -7 -38 -16 -60 -20 -40 -7 -85 -19 -140 -38 -27 -9 -90
-24 -180 -43 -16 -4 -57 -17 -90 -30 -94 -36 -198 -55 -355 -65 -115 -7 -159
-14 -214 -34 -38 -14 -84 -26 -103 -26 -19 0 -47 -6 -61 -14 -15 -7 -63 -21
-107 -31 -44 -9 -96 -21 -115 -25 -19 -5 -62 -16 -95 -24 -33 -8 -84 -23 -112
-34 -29 -11 -85 -26 -125 -33 -40 -7 -90 -20 -110 -31 -21 -10 -45 -18 -55
-18 -10 0 -38 -11 -62 -25 -23 -14 -58 -25 -76 -25 -40 0 -87 -36 -105 -81
-13 -31 -13 -34 18 -178 11 -51 29 -67 90 -83 25 -6 49 -20 58 -33 8 -12 38
-35 67 -50 28 -16 73 -46 99 -67 25 -21 61 -44 80 -50 33 -11 58 -28 121 -79
18 -15 48 -34 67 -43 19 -9 49 -24 65 -33 17 -9 35 -19 41 -22 6 -3 53 -34
104 -69 51 -34 104 -65 119 -69 41 -10 141 -60 165 -81 11 -11 41 -30 65 -42
24 -12 83 -48 130 -80 135 -92 244 -155 308 -179 97 -37 236 -112 265 -142 14
-15 39 -31 55 -34 52 -10 245 -80 306 -111 27 -13 54 -24 60 -24 7 0 32 -16
56 -35 25 -20 56 -38 70 -42 14 -3 46 -26 70 -50 25 -24 56 -46 70 -50 15 -3
35 -14 46 -23 11 -10 60 -32 109 -49 49 -17 100 -38 114 -48 60 -43 77 -51
132 -63 75 -16 98 -3 136 74 24 49 26 61 19 122 -6 56 -12 72 -35 93 -55 51
-88 70 -181 106 -52 21 -101 43 -109 50 -8 6 -38 23 -66 38 -28 14 -68 37 -89
51 -20 14 -53 28 -74 32 -20 4 -51 20 -71 39 -40 37 -197 118 -282 145 -73 24
-115 46 -156 81 -18 16 -40 29 -49 29 -9 0 -24 6 -32 14 -9 7 -56 30 -106 51
-178 74 -213 93 -288 152 -15 12 -74 48 -130 79 -56 32 -112 67 -125 78 -13
12 -72 46 -132 76 -197 100 -305 162 -341 197 -22 21 -53 38 -80 44 -25 6 -58
24 -81 44 -21 19 -49 35 -61 35 -21 0 -67 36 -67 53 0 16 139 61 240 78 30 5
66 14 80 19 14 6 48 15 75 20 64 11 105 23 180 50 33 12 98 30 144 40 72 15
100 16 187 8 88 -9 107 -9 127 5 13 8 46 22 73 30 27 9 107 36 178 61 72 25
157 48 190 51 66 7 151 28 204 51 18 8 42 14 53 14 11 0 37 9 57 19 43 22 159
61 217 72 22 4 60 13 85 19 25 6 68 15 95 20 28 5 68 13 90 19 108 27 154 40
194 54 24 9 57 13 73 10 16 -3 37 0 50 9 13 8 64 22 113 32 50 9 104 21 120
26 17 5 57 12 90 16 74 8 99 18 139 51 50 41 57 60 50 138 -7 77 -22 110 -56
121 -13 4 -34 15 -47 25 -25 20 -44 22 -101 9z"/>
<path d="M21366 17730 c-32 -29 -50 -57 -62 -93 -9 -29 -40 -96 -70 -150 -30
-53 -54 -101 -54 -105 0 -4 -18 -29 -40 -56 -22 -26 -40 -55 -40 -63 0 -8 -21
-41 -47 -73 -27 -32 -68 -88 -93 -125 -25 -36 -64 -89 -87 -116 -24 -27 -43
-58 -43 -68 0 -9 -12 -28 -26 -42 -14 -13 -33 -37 -41 -54 -9 -16 -29 -45 -44
-63 -16 -18 -39 -52 -50 -75 -12 -23 -35 -57 -50 -75 -16 -18 -29 -40 -29 -49
0 -8 -15 -30 -33 -47 -18 -17 -52 -60 -76 -96 -24 -36 -55 -78 -68 -93 -12
-16 -23 -35 -23 -42 0 -8 -27 -45 -61 -82 -34 -37 -66 -79 -73 -93 -6 -14 -24
-43 -39 -65 -61 -88 -87 -131 -87 -146 0 -24 -169 -269 -191 -277 -5 -2 -20
-25 -33 -50 -13 -26 -34 -56 -46 -67 -13 -11 -30 -36 -39 -55 -9 -19 -25 -48
-35 -65 -73 -114 -136 -206 -178 -254 -27 -31 -51 -67 -55 -81 -3 -14 -30 -52
-60 -85 -30 -33 -68 -89 -86 -125 -18 -36 -48 -81 -68 -101 -62 -62 -117 -137
-124 -169 -4 -18 -22 -43 -45 -61 -21 -17 -44 -45 -51 -63 -7 -17 -31 -53 -54
-81 -23 -27 -62 -81 -88 -120 -25 -38 -80 -105 -121 -147 -41 -42 -86 -98 -99
-125 -14 -27 -47 -72 -73 -100 -27 -28 -57 -63 -67 -77 -23 -33 -44 -33 -93 0
-58 40 -198 160 -301 260 -158 154 -239 226 -287 256 -27 16 -60 49 -77 76
-16 26 -40 52 -52 57 -13 6 -48 37 -78 70 -85 95 -102 113 -140 153 -20 20
-46 51 -58 69 -12 17 -30 35 -41 38 -11 4 -27 18 -34 33 -15 27 -64 80 -282
303 -71 72 -114 125 -114 137 0 32 -41 72 -85 84 -47 12 -160 20 -192 13 -20
-5 -113 -144 -113 -170 0 -21 -519 -519 -565 -543 -25 -13 -45 -27 -45 -31 0
-5 -19 -21 -42 -37 -24 -15 -72 -56 -108 -89 -36 -34 -92 -79 -125 -100 -33
-21 -73 -50 -90 -65 -29 -26 -41 -34 -118 -86 -21 -14 -44 -38 -50 -54 -13
-29 -104 -105 -183 -150 -24 -14 -54 -36 -67 -48 -19 -18 -28 -20 -53 -13 -68
21 -185 71 -210 90 -15 12 -35 21 -46 21 -10 0 -36 9 -56 19 -20 11 -82 38
-137 61 -55 23 -129 57 -165 76 -36 18 -98 50 -137 70 -40 19 -75 40 -79 45
-6 11 -110 59 -127 59 -6 0 -42 14 -81 31 -39 17 -93 40 -121 51 -27 11 -62
27 -77 34 -14 8 -34 14 -43 14 -9 0 -28 9 -42 20 -14 11 -34 20 -45 20 -10 0
-44 14 -76 30 -31 17 -68 37 -82 44 -14 7 -45 23 -70 34 -25 11 -72 33 -105
48 -33 15 -76 34 -95 42 -19 8 -44 20 -55 25 -107 55 -181 90 -237 111 -37 14
-127 54 -200 89 -73 35 -171 82 -218 103 -47 21 -91 43 -99 49 -47 34 -356
185 -379 185 -10 0 -26 6 -37 13 -25 17 -287 137 -299 137 -4 0 -21 11 -38 25
-16 14 -39 25 -51 25 -12 1 -41 11 -64 23 -57 30 -161 82 -203 101 -19 9 -50
27 -69 41 -24 18 -47 25 -79 25 -42 0 -50 -4 -94 -52 -48 -52 -93 -131 -102
-179 -7 -31 -131 -169 -153 -169 -8 0 -34 -19 -58 -42 -23 -24 -64 -59 -91
-78 -76 -56 -236 -209 -275 -264 -19 -28 -54 -64 -77 -79 -24 -16 -66 -51 -94
-78 -28 -27 -80 -65 -115 -85 -34 -19 -78 -51 -97 -70 -19 -20 -53 -48 -75
-62 -82 -55 -318 -274 -371 -346 -19 -26 -58 -73 -87 -105 -28 -32 -56 -68
-62 -80 -7 -11 -17 -21 -23 -21 -7 0 -51 19 -98 41 -47 23 -110 53 -140 68
-30 14 -73 43 -95 65 -22 21 -64 50 -93 63 -29 14 -75 40 -103 59 -28 19 -55
34 -61 34 -5 0 -36 14 -70 30 -33 17 -66 30 -72 30 -7 0 -21 10 -32 21 -10 12
-66 44 -124 72 -58 28 -122 65 -143 84 -20 18 -42 33 -47 33 -9 0 -138 80
-208 129 -13 9 -36 23 -50 31 -40 23 -187 111 -235 142 -23 15 -60 38 -82 51
-22 13 -83 50 -135 82 -52 31 -105 61 -117 66 -13 5 -23 13 -23 19 0 11 -138
78 -205 100 -22 7 -62 32 -90 55 -27 23 -87 61 -133 83 -46 23 -97 52 -114 64
-18 13 -49 32 -70 43 -75 40 -218 127 -224 136 -3 5 -28 22 -56 37 -100 54
-111 61 -160 99 -99 77 -168 136 -168 145 0 4 -9 17 -20 28 -33 33 -110 27
-211 -16 -97 -42 -112 -53 -146 -112 -14 -23 -39 -50 -57 -58 -17 -9 -47 -32
-66 -51 -19 -19 -73 -64 -120 -100 -110 -83 -182 -140 -228 -179 -42 -36 -183
-114 -205 -114 -25 0 -133 -87 -260 -211 -67 -65 -126 -119 -131 -119 -5 0
-30 -21 -56 -47 -25 -27 -69 -65 -96 -85 -125 -94 -145 -108 -154 -108 -6 0
-30 -18 -55 -41 l-44 -41 -34 21 c-19 11 -56 45 -83 75 -97 107 -111 121 -152
148 -22 15 -68 62 -102 105 -34 43 -71 83 -83 88 -26 12 -100 66 -131 95 -36
34 -101 93 -161 145 -32 28 -77 69 -100 93 -24 23 -51 42 -62 42 -10 0 -37 15
-60 34 -23 18 -63 41 -90 51 -54 20 -88 47 -109 87 -8 15 -24 30 -36 34 -26 8
-70 37 -113 75 -16 14 -51 38 -78 53 -26 15 -64 49 -85 77 -26 36 -47 52 -73
59 -28 8 -76 49 -205 179 -93 93 -200 202 -238 242 -39 41 -88 87 -110 103
-69 50 -210 186 -255 246 -36 47 -79 70 -132 70 -50 0 -85 -21 -165 -96 l-41
-39 -7 -100 c-4 -54 -12 -107 -17 -117 -5 -10 -14 -37 -18 -60 -5 -24 -17 -68
-26 -98 -9 -30 -21 -75 -27 -100 -6 -25 -17 -54 -24 -65 -8 -11 -14 -34 -14
-53 0 -18 -7 -49 -17 -70 -9 -20 -20 -66 -24 -102 -20 -175 -27 -218 -33 -229
-4 -6 -9 -82 -12 -169 -5 -189 -21 -465 -30 -507 -10 -49 -22 -414 -27 -800
-3 -211 -10 -389 -17 -430 -6 -38 -16 -113 -20 -165 -5 -52 -14 -126 -20 -165
-41 -272 -62 -953 -40 -1300 6 -93 12 -222 13 -285 13 -543 29 -986 37 -1043
6 -37 10 -104 10 -148 0 -44 5 -89 10 -100 6 -10 13 -49 17 -87 3 -37 11 -76
18 -88 7 -11 16 -43 20 -70 13 -92 45 -269 55 -304 5 -19 10 -49 10 -67 0 -18
7 -48 15 -68 8 -19 22 -52 31 -72 8 -20 18 -59 21 -87 3 -28 11 -62 19 -76 7
-14 20 -77 29 -140 10 -63 26 -131 35 -150 11 -21 16 -47 13 -63 -3 -15 2 -45
11 -67 9 -22 16 -53 16 -68 0 -15 8 -40 18 -57 30 -50 62 -149 62 -192 0 -24
8 -50 18 -64 10 -13 24 -51 30 -84 7 -33 26 -88 42 -121 17 -34 30 -70 30 -80
0 -11 16 -50 35 -89 20 -38 48 -104 64 -145 16 -41 41 -95 55 -120 14 -25 26
-57 26 -73 0 -15 20 -67 45 -115 25 -48 45 -95 45 -105 0 -10 20 -56 45 -104
25 -47 45 -94 45 -104 0 -9 11 -30 24 -46 13 -15 30 -42 39 -59 9 -17 23 -36
31 -43 9 -8 16 -24 16 -38 0 -13 14 -50 30 -83 17 -33 30 -67 30 -76 0 -18
159 -342 171 -350 5 -2 33 -41 64 -86 62 -90 108 -184 119 -242 4 -20 17 -47
29 -58 12 -12 40 -50 62 -84 90 -138 115 -174 172 -235 61 -65 133 -167 133
-187 0 -6 14 -27 30 -45 17 -19 30 -39 30 -45 0 -6 15 -28 34 -51 18 -22 76
-127 129 -233 52 -106 111 -215 131 -243 71 -98 86 -120 105 -160 17 -37 112
-153 304 -373 45 -50 84 -92 88 -92 4 0 20 -19 36 -42 44 -65 111 -135 178
-186 33 -26 72 -59 87 -74 14 -15 31 -28 38 -28 15 0 105 -65 147 -106 17 -18
49 -45 70 -60 21 -16 62 -52 90 -81 29 -29 57 -53 62 -53 13 0 130 -100 253
-214 131 -123 169 -154 268 -221 47 -31 101 -72 120 -91 127 -122 224 -204
244 -204 5 0 18 -9 30 -20 55 -52 115 -98 153 -118 45 -23 156 -100 188 -130
24 -23 60 -42 237 -127 76 -37 160 -81 188 -100 27 -18 71 -44 97 -56 27 -13
55 -29 64 -36 16 -13 97 -40 206 -68 29 -7 91 -34 139 -59 47 -25 90 -46 94
-46 5 0 48 -23 97 -51 48 -28 108 -58 133 -66 25 -8 52 -21 60 -27 21 -18 157
-86 170 -86 7 0 23 -9 37 -20 14 -11 37 -20 52 -20 28 0 82 -18 118 -38 12 -7
26 -12 31 -12 5 0 42 -22 83 -48 104 -68 149 -89 205 -98 27 -3 70 -17 96 -30
26 -13 55 -24 65 -24 10 0 27 -7 37 -15 11 -8 30 -15 43 -15 13 0 40 -7 61
-16 20 -8 59 -20 86 -25 27 -5 77 -23 110 -40 52 -26 84 -33 226 -49 91 -10
192 -26 225 -34 32 -9 82 -16 110 -16 28 0 75 -9 105 -20 31 -12 79 -20 110
-20 185 1 471 -26 504 -48 6 -4 47 -10 91 -13 44 -4 116 -12 160 -18 44 -6
211 -13 370 -15 170 -3 307 -10 330 -16 22 -6 59 -16 83 -21 23 -5 63 -14 90
-19 26 -6 81 -15 122 -21 41 -5 82 -12 90 -16 8 -4 56 -10 105 -13 50 -4 117
-15 150 -24 50 -15 79 -17 180 -10 66 4 183 8 260 9 77 1 172 8 210 15 39 7
149 14 245 14 97 1 182 6 189 10 7 5 70 8 140 8 71 -1 168 5 223 14 96 15 97
15 118 -6 20 -20 28 -22 84 -15 33 4 106 9 161 10 55 1 109 6 120 12 103 53
153 65 233 53 49 -7 87 -6 124 1 29 6 80 12 113 14 97 3 207 22 259 45 26 11
56 20 65 20 19 0 124 52 151 75 8 7 35 15 59 18 26 3 61 18 86 36 24 17 52 31
63 31 11 0 41 9 66 19 32 14 80 22 168 26 85 5 135 13 163 25 23 10 79 21 130
25 80 6 101 13 192 56 56 27 121 53 145 57 23 5 65 21 93 35 27 15 66 27 85
27 19 1 60 14 90 30 30 17 61 30 69 30 40 0 164 52 201 85 14 12 54 34 90 50
36 15 82 39 102 52 21 13 73 37 115 54 43 17 83 35 90 41 7 5 41 12 75 15 43
3 75 13 100 29 21 13 46 24 56 24 10 0 33 11 51 24 46 34 296 156 320 156 10
0 33 11 49 25 17 14 39 25 49 25 11 0 39 14 63 31 24 18 66 38 94 45 33 9 57
23 73 42 13 18 49 40 90 57 167 68 296 141 362 205 28 27 58 50 66 50 9 0 42
25 75 55 33 30 64 55 70 55 5 0 44 28 87 63 117 95 245 187 260 187 18 0 57
42 99 108 19 28 37 52 42 52 4 0 41 40 81 90 41 49 84 96 97 105 13 8 43 46
68 85 26 39 76 99 112 133 37 34 75 80 85 102 35 73 144 243 179 278 19 19 60
65 90 103 30 37 107 121 170 185 63 64 129 133 145 154 17 20 46 52 65 72 50
50 105 129 135 193 14 30 33 63 43 73 23 26 56 80 97 162 40 80 74 135 96 162
21 25 59 100 59 118 0 8 15 21 34 29 28 12 36 23 49 64 16 55 53 119 106 185
19 23 45 60 59 82 14 22 53 72 87 110 56 64 85 102 192 253 21 30 55 74 76 99
21 25 53 68 72 96 50 74 79 112 114 153 17 19 31 41 31 48 0 8 18 46 40 85 22
39 40 73 40 75 0 7 105 165 131 197 11 14 24 41 29 60 12 48 56 164 85 224 13
28 29 68 35 90 7 22 21 57 31 77 10 20 19 44 19 53 0 8 17 34 38 58 55 60 141
261 167 389 3 14 16 40 30 56 29 35 63 134 72 207 3 28 14 66 23 85 9 19 20
58 24 85 6 47 13 86 35 188 5 23 16 64 25 91 9 27 16 63 16 79 0 16 9 60 19
96 11 36 25 120 31 186 14 148 36 279 51 306 6 11 8 37 4 58 -3 20 3 106 14
191 17 131 19 182 12 335 -12 296 14 755 48 838 6 16 18 63 27 105 8 43 23 93
33 112 18 35 48 251 50 355 5 381 13 533 31 655 12 74 25 180 30 235 5 55 16
120 26 145 9 25 18 76 19 114 5 110 16 197 30 230 28 65 52 571 35 741 -18
184 -29 397 -35 664 -3 139 -7 257 -10 261 -3 5 -6 55 -7 112 0 57 -5 111 -10
120 -12 23 -17 266 -6 296 16 46 -18 372 -44 425 -11 21 -25 136 -39 302 -19
239 -25 290 -36 310 -6 11 -19 56 -28 99 -9 44 -22 91 -29 105 -15 29 -32 114
-42 206 -5 55 -17 93 -90 280 -32 85 -61 199 -69 278 -4 38 -13 84 -21 103 -8
18 -14 48 -14 66 0 40 -39 126 -69 152 -12 11 -21 31 -21 47 0 15 -3 35 -6 44
-11 27 -94 62 -166 69 l-67 7 -45 -41z m122 -591 c7 -41 16 -96 21 -124 4 -27
18 -71 30 -97 36 -78 89 -264 96 -336 9 -96 36 -211 62 -265 8 -16 16 -64 18
-107 2 -44 8 -88 14 -98 13 -25 31 -202 31 -316 1 -50 5 -109 10 -131 4 -22
16 -74 25 -115 51 -233 57 -284 56 -530 -1 -118 4 -242 10 -275 6 -33 13 -168
15 -300 6 -355 11 -472 20 -486 4 -7 11 -92 15 -188 5 -133 3 -192 -7 -241 -8
-37 -14 -129 -14 -210 -1 -132 -10 -230 -40 -425 -6 -38 -18 -122 -26 -185 -8
-63 -22 -137 -30 -165 -19 -65 -31 -181 -44 -435 -27 -523 -41 -709 -56 -770
-8 -36 -19 -94 -24 -130 -5 -36 -13 -76 -18 -90 -9 -22 -27 -137 -61 -400 -5
-36 -9 -168 -10 -295 -1 -417 -15 -627 -48 -728 -8 -27 -13 -57 -10 -68 3 -10
-1 -45 -9 -77 -7 -31 -14 -82 -14 -112 0 -30 -5 -73 -11 -95 -6 -22 -15 -65
-21 -95 -33 -182 -61 -289 -97 -373 -12 -27 -21 -60 -21 -73 0 -14 -9 -42 -20
-63 -31 -61 -50 -123 -50 -163 0 -32 -11 -63 -42 -118 -16 -30 -27 -56 -44
-115 -28 -96 -61 -173 -97 -228 -50 -76 -122 -231 -151 -322 -14 -44 -46 -111
-71 -150 -25 -38 -45 -77 -45 -86 0 -9 -7 -23 -17 -30 -9 -8 -25 -33 -35 -56
-10 -23 -23 -45 -29 -48 -5 -4 -25 -37 -45 -73 -19 -37 -61 -118 -94 -180 -33
-63 -76 -133 -97 -156 -21 -22 -58 -70 -83 -104 -25 -35 -77 -103 -116 -150
-39 -48 -81 -105 -94 -127 -13 -22 -43 -65 -67 -95 -23 -30 -57 -74 -75 -98
-18 -24 -56 -69 -84 -101 -29 -32 -66 -89 -84 -127 -18 -38 -44 -83 -56 -100
-13 -17 -37 -59 -54 -95 -17 -35 -42 -82 -55 -104 -14 -22 -30 -51 -37 -65 -7
-14 -27 -43 -45 -66 -18 -22 -42 -60 -52 -85 -11 -24 -44 -69 -74 -100 -29
-31 -71 -86 -92 -124 -21 -38 -69 -99 -109 -139 -39 -39 -103 -106 -142 -147
-39 -42 -88 -90 -110 -105 -93 -69 -223 -232 -297 -374 -27 -52 -59 -108 -72
-125 -12 -16 -30 -47 -39 -67 -10 -20 -39 -59 -64 -85 -26 -27 -60 -68 -76
-91 -16 -23 -49 -60 -75 -82 -69 -60 -70 -62 -110 -111 -45 -56 -166 -167
-250 -229 -34 -25 -87 -66 -119 -92 -31 -26 -63 -48 -70 -48 -8 0 -37 -24 -67
-52 -29 -29 -79 -72 -111 -94 -88 -62 -246 -151 -289 -163 -21 -5 -48 -20 -60
-31 -37 -35 -154 -108 -240 -149 -44 -21 -103 -54 -132 -72 -122 -80 -145 -91
-198 -98 -30 -4 -63 -15 -73 -24 -10 -9 -23 -17 -29 -17 -6 0 -21 -8 -34 -18
-30 -22 -144 -72 -167 -72 -9 0 -37 -14 -61 -30 -24 -17 -54 -30 -65 -30 -12
0 -30 -6 -41 -14 -11 -7 -69 -33 -130 -56 -60 -23 -128 -50 -150 -61 -22 -10
-59 -23 -83 -29 -23 -6 -57 -24 -76 -40 -18 -17 -38 -30 -43 -30 -5 0 -46 -18
-91 -40 -44 -22 -91 -40 -104 -40 -24 0 -99 -22 -156 -46 -18 -8 -46 -14 -62
-14 -44 0 -78 -16 -114 -55 -22 -23 -42 -35 -60 -35 -15 0 -39 -6 -54 -14 -15
-7 -45 -16 -67 -20 -22 -4 -60 -14 -84 -22 -24 -8 -56 -12 -70 -9 -14 3 -48 1
-76 -5 -27 -6 -93 -19 -146 -29 -53 -10 -112 -26 -130 -38 -19 -11 -55 -23
-81 -26 -25 -3 -67 -18 -93 -32 -27 -14 -56 -25 -67 -25 -10 0 -52 -16 -92
-35 -41 -19 -83 -35 -93 -35 -10 0 -29 -7 -41 -16 -12 -8 -46 -20 -75 -25 -86
-16 -289 -26 -318 -16 -18 7 -54 4 -125 -9 -70 -13 -143 -19 -249 -19 -82 0
-157 -4 -165 -10 -13 -8 -153 -12 -573 -14 -103 -1 -147 -5 -175 -17 -38 -16
-151 -31 -302 -38 -47 -2 -168 -9 -270 -15 -135 -8 -198 -8 -235 0 -27 6 -94
15 -147 19 -54 5 -106 13 -115 19 -10 5 -65 12 -123 16 -74 5 -111 13 -130 25
-14 10 -61 23 -105 30 -44 6 -109 16 -145 22 -36 5 -207 11 -380 13 -186 1
-338 7 -372 14 -31 7 -110 16 -175 21 -65 4 -156 15 -203 24 -138 26 -198 34
-335 46 -71 6 -161 18 -200 27 -38 8 -117 22 -175 30 -58 8 -136 24 -175 35
-152 43 -211 62 -245 78 -19 10 -59 23 -89 30 -30 7 -82 25 -115 40 -34 15
-74 30 -91 34 -43 10 -155 65 -188 93 -16 13 -35 23 -42 23 -8 0 -29 9 -48 20
-18 11 -58 28 -88 39 -163 58 -188 68 -200 78 -8 6 -41 23 -74 37 -33 15 -73
34 -90 43 -16 9 -61 34 -100 55 -38 21 -92 49 -120 61 -27 13 -56 31 -63 40
-7 8 -39 23 -70 32 -31 9 -69 23 -84 31 -14 8 -38 14 -52 14 -34 0 -109 25
-176 59 -30 16 -71 32 -90 36 -19 4 -45 16 -56 27 -28 25 -173 98 -196 98 -10
0 -40 13 -66 30 -27 17 -55 30 -62 30 -7 0 -28 14 -47 30 -18 17 -41 30 -51
30 -9 0 -48 25 -86 55 -38 30 -75 55 -82 55 -7 0 -23 13 -36 30 -12 16 -31 33
-42 36 -32 10 -141 90 -277 202 -139 114 -196 159 -251 196 -31 21 -114 95
-185 164 -70 68 -142 131 -160 138 -18 8 -36 20 -40 28 -4 7 -35 35 -68 62
-68 56 -90 75 -185 159 -37 33 -81 69 -98 80 -106 70 -364 314 -397 375 -7 14
-42 53 -76 88 -87 86 -109 110 -144 157 -16 23 -52 66 -79 98 -50 57 -83 107
-109 162 -8 17 -22 37 -32 45 -19 15 -61 77 -82 120 -7 14 -17 32 -22 40 -6 8
-40 78 -77 155 -66 141 -177 317 -244 390 -10 11 -25 37 -34 57 -8 21 -19 38
-25 38 -6 0 -19 19 -29 42 -11 24 -43 65 -71 93 -28 27 -51 57 -51 66 0 25
-50 131 -75 159 -13 14 -48 75 -79 135 -32 61 -65 117 -76 125 -10 8 -25 33
-34 54 -9 21 -33 64 -55 95 -46 68 -91 151 -91 169 0 16 -48 112 -67 134 -8 9
-25 48 -38 86 -27 79 -59 147 -75 157 -5 3 -10 17 -10 29 0 13 -9 35 -20 48
-10 14 -27 47 -36 73 -9 26 -36 84 -61 129 -24 45 -50 97 -58 116 -47 127 -66
172 -99 224 -20 33 -36 71 -36 85 0 15 -12 58 -26 96 -14 39 -34 98 -43 132
-10 34 -30 76 -44 93 -16 18 -27 44 -27 60 0 16 -11 55 -25 86 -14 31 -25 66
-25 78 0 12 -7 31 -15 42 -8 10 -15 34 -15 52 0 18 -5 42 -10 52 -6 11 -17 50
-25 87 -23 112 -42 186 -54 216 -6 16 -11 41 -11 57 0 16 -6 47 -14 67 -7 21
-18 61 -24 88 -32 151 -64 258 -84 283 -7 7 -15 48 -19 90 -4 42 -17 113 -29
157 -25 92 -40 177 -70 390 -6 44 -13 87 -17 95 -3 8 -7 107 -8 220 -2 113 -8
331 -14 485 -6 154 -9 366 -8 470 2 126 -1 217 -10 270 -11 61 -12 149 -7 375
3 162 7 358 9 435 1 77 7 187 13 245 17 161 30 278 41 360 6 41 13 95 16 120
19 145 31 458 24 595 -6 106 -4 218 6 380 16 245 20 332 35 765 9 266 11 281
49 446 21 95 46 182 55 195 9 13 16 33 16 45 0 11 9 47 20 79 11 32 20 68 20
80 0 13 7 28 15 35 11 9 27 0 87 -55 40 -37 96 -91 124 -119 29 -28 68 -64 88
-81 20 -16 43 -44 50 -61 8 -17 29 -41 47 -54 19 -12 63 -53 99 -89 73 -75
161 -149 235 -201 28 -19 71 -56 97 -82 25 -26 51 -48 56 -48 5 0 35 -20 67
-44 31 -25 70 -48 86 -51 16 -4 33 -13 37 -21 5 -8 20 -23 34 -32 92 -60 151
-103 211 -152 38 -30 84 -67 104 -82 19 -15 55 -45 79 -68 24 -22 48 -40 53
-40 5 0 73 -63 152 -140 79 -77 150 -140 156 -140 7 0 19 -13 28 -30 9 -16 19
-30 24 -30 4 0 22 -22 40 -50 19 -30 42 -52 57 -56 13 -3 39 -23 57 -44 17
-20 50 -49 73 -63 48 -30 120 -108 143 -156 10 -22 32 -41 65 -58 41 -21 56
-23 99 -18 42 6 58 14 84 43 31 34 53 85 53 124 0 10 10 23 22 29 13 6 34 22
48 36 44 42 94 80 130 98 46 23 93 61 138 110 70 77 157 156 205 187 26 17 47
35 47 40 0 17 86 91 172 149 49 32 92 59 96 59 8 0 154 85 196 115 16 11 50
39 75 62 60 55 156 129 259 199 45 31 82 59 82 64 0 4 18 19 41 34 l40 27 32
-26 c47 -38 230 -155 243 -155 6 0 28 -13 49 -30 20 -16 61 -41 90 -54 28 -14
57 -32 64 -40 7 -8 29 -20 49 -27 20 -7 50 -22 65 -35 16 -13 34 -24 41 -24 8
0 44 -21 82 -46 38 -26 78 -50 89 -54 11 -5 35 -20 54 -34 19 -14 42 -26 52
-26 9 0 33 -13 54 -30 21 -16 41 -30 45 -30 4 0 24 -13 45 -30 21 -16 47 -30
59 -30 27 0 166 -70 214 -108 35 -28 119 -79 172 -104 14 -6 41 -26 60 -43 34
-31 201 -135 216 -135 11 0 84 -49 114 -76 14 -13 42 -30 62 -38 20 -9 63 -34
94 -56 32 -22 63 -40 70 -40 6 0 36 -18 65 -40 30 -22 59 -40 66 -40 20 0 147
-66 162 -84 7 -9 31 -21 52 -26 22 -6 55 -22 75 -35 20 -13 45 -27 57 -31 12
-3 36 -19 52 -34 55 -52 128 -98 269 -170 163 -82 162 -82 169 -119 9 -46 60
-71 143 -71 101 0 205 18 234 38 14 10 34 34 45 52 18 30 88 109 167 190 15
15 35 46 44 69 12 30 36 58 78 92 82 65 81 64 161 159 65 77 108 114 176 150
16 9 36 25 44 38 20 27 98 82 119 82 24 0 145 123 158 161 14 42 73 116 107
134 14 8 46 33 71 57 25 23 57 49 71 58 85 49 151 104 296 248 l162 160 47
-14 c26 -8 55 -20 63 -28 23 -20 72 -42 106 -49 33 -6 287 -127 319 -152 11
-8 28 -15 38 -15 23 0 164 -66 203 -95 40 -30 196 -105 218 -105 10 0 20 -7
24 -15 6 -18 74 -55 99 -55 10 0 25 -6 33 -14 9 -8 45 -26 81 -40 102 -42 196
-86 285 -134 81 -43 184 -92 195 -92 6 0 38 -13 73 -29 34 -16 95 -41 135 -57
41 -15 97 -43 125 -61 29 -19 63 -36 77 -40 14 -3 40 -19 58 -35 18 -15 41
-28 52 -28 11 0 34 -9 52 -20 18 -11 40 -20 49 -20 9 0 43 -14 75 -31 32 -18
94 -44 136 -60 42 -15 112 -45 155 -67 75 -39 221 -111 383 -188 41 -20 113
-56 159 -80 47 -24 93 -44 103 -44 11 0 36 -11 56 -25 23 -16 51 -25 75 -25
24 0 49 -8 64 -20 14 -11 36 -20 50 -20 30 0 140 -37 167 -56 11 -8 29 -14 39
-14 10 0 30 -9 44 -20 18 -14 41 -20 78 -20 44 0 59 5 97 34 52 40 58 51 58
113 0 45 1 46 136 177 75 72 145 134 155 138 10 4 60 42 110 85 51 42 105 86
120 98 15 11 61 45 101 75 85 64 120 89 157 110 33 19 141 125 141 138 0 6 86
96 192 201 134 133 199 191 215 191 19 0 48 -24 178 -149 11 -11 43 -45 70
-75 28 -31 77 -84 110 -119 33 -35 89 -98 125 -141 36 -42 87 -100 114 -129
27 -29 56 -63 65 -77 16 -26 121 -125 251 -240 140 -123 225 -204 238 -227 7
-13 17 -23 21 -23 11 0 191 -145 211 -170 24 -30 103 -80 127 -80 12 0 32 -13
45 -31 25 -31 76 -54 147 -65 38 -6 43 -4 77 35 20 22 41 38 46 35 42 -26 170
69 189 139 6 23 27 56 53 81 23 22 52 61 65 86 13 25 31 54 41 65 10 11 27 38
38 60 11 22 44 65 74 95 30 31 67 74 81 95 31 49 75 97 110 119 14 10 29 27
33 39 3 11 21 41 39 66 39 55 75 125 75 145 0 8 25 39 55 68 31 29 67 75 81
102 13 27 37 65 53 85 15 20 40 56 55 81 15 25 51 79 82 120 30 41 62 88 72
104 9 16 31 47 47 70 17 22 43 66 59 96 16 30 48 76 72 102 24 26 44 53 44 59
0 7 26 44 58 83 32 39 75 98 96 131 20 33 53 85 72 115 19 30 53 90 74 132 22
43 61 99 86 125 26 27 59 73 73 103 29 59 49 91 136 210 30 41 69 102 86 135
47 89 158 254 179 265 10 5 22 23 28 38 5 16 25 50 43 75 19 25 45 62 59 82
14 21 41 56 60 79 20 22 47 59 61 81 14 22 38 59 53 83 15 24 33 45 41 48 7 3
32 37 55 75 23 39 47 68 53 66 6 -2 17 -37 25 -78z"/>
</g>
</svg>
