<?xml version="1.0" standalone="no"?>
<!DOCTYPE svg PUBLIC "-//W3C//DTD SVG 20010904//EN"
 "http://www.w3.org/TR/2001/REC-SVG-20010904/DTD/svg10.dtd">
<svg version="1.0" xmlns="http://www.w3.org/2000/svg"
 width="1967.537755pt" height="2702.728716pt" viewBox="0 0 1967.537755 2702.728716"
 preserveAspectRatio="xMidYMid meet">
<metadata>
Created by potrace 1.16, written by Peter Selinger 2001-2019
</metadata>
<g transform="translate(-212.226421,2906.883933) scale(0.100000,-0.100000)"
fill="#343434" stroke="none">
<path d="M11691 29054 c-24 -8 -85 -18 -135 -23 -140 -15 -182 -24 -298 -64
-85 -30 -127 -38 -211 -44 -98 -5 -107 -4 -132 16 -36 27 -125 29 -187 3 -24
-11 -68 -22 -98 -26 -30 -4 -85 -21 -121 -37 -37 -16 -73 -29 -81 -29 -7 0
-30 -11 -50 -25 -20 -14 -43 -25 -51 -25 -8 0 -32 -14 -53 -31 -22 -16 -67
-51 -101 -77 -33 -26 -96 -75 -138 -110 -43 -35 -108 -78 -144 -97 -37 -18
-92 -53 -122 -77 -29 -24 -65 -51 -79 -60 -21 -14 -63 -48 -215 -181 -91 -79
-114 -96 -141 -110 -18 -9 -101 -85 -186 -169 -180 -179 -218 -213 -268 -238
-20 -10 -42 -26 -49 -34 -8 -9 -31 -26 -52 -38 -22 -12 -48 -37 -59 -55 -10
-18 -42 -47 -70 -64 -27 -17 -50 -35 -50 -40 0 -12 -110 -120 -160 -158 -19
-14 -55 -46 -81 -71 -26 -25 -71 -65 -100 -89 -30 -25 -70 -63 -89 -87 -31
-37 -124 -123 -220 -204 -19 -17 -79 -67 -133 -112 -53 -46 -129 -108 -167
-138 -83 -66 -202 -175 -273 -250 -99 -104 -223 -225 -276 -270 -70 -59 -81
-71 -177 -176 -45 -49 -110 -118 -144 -154 -34 -36 -72 -79 -83 -96 -54 -78
-115 -153 -166 -205 -31 -31 -69 -73 -84 -95 -15 -21 -50 -67 -78 -102 -27
-35 -49 -68 -49 -74 0 -6 -28 -49 -63 -97 -90 -124 -123 -170 -162 -226 -19
-27 -55 -77 -80 -110 -25 -33 -53 -71 -62 -85 -10 -14 -37 -49 -60 -78 -24
-29 -50 -67 -59 -85 -9 -17 -34 -57 -55 -87 -34 -48 -75 -110 -164 -250 -46
-72 -125 -207 -131 -226 -4 -10 -20 -34 -36 -52 -15 -18 -28 -39 -28 -47 0
-17 -102 -187 -136 -228 -13 -16 -24 -33 -24 -39 0 -15 -70 -157 -92 -187 -10
-13 -18 -32 -18 -41 0 -10 -7 -23 -15 -30 -8 -7 -20 -30 -25 -51 -6 -21 -33
-72 -60 -112 -28 -41 -50 -82 -50 -92 0 -9 -20 -47 -45 -84 -25 -37 -45 -71
-45 -76 0 -8 -64 -147 -97 -210 -64 -121 -88 -164 -131 -232 -27 -43 -61 -98
-76 -123 -15 -25 -58 -97 -96 -160 -39 -63 -84 -149 -101 -190 -17 -41 -43
-100 -59 -130 -15 -30 -40 -80 -56 -110 -15 -30 -31 -62 -35 -70 -5 -8 -23
-44 -40 -80 -17 -36 -35 -72 -40 -80 -36 -61 -58 -110 -63 -140 -4 -19 -20
-62 -36 -95 -16 -33 -48 -105 -71 -160 -23 -55 -69 -156 -102 -225 -33 -69
-66 -142 -73 -163 -7 -21 -23 -50 -34 -64 -11 -14 -20 -30 -20 -35 0 -6 -19
-47 -41 -91 -23 -45 -50 -104 -61 -131 -10 -27 -28 -60 -38 -74 -11 -14 -20
-39 -20 -56 0 -17 -7 -40 -15 -50 -8 -11 -15 -29 -15 -39 0 -11 -18 -65 -40
-119 -22 -55 -40 -106 -40 -114 0 -7 -13 -42 -29 -76 -33 -71 -56 -138 -77
-218 -8 -30 -25 -75 -38 -100 -13 -25 -27 -65 -31 -89 -4 -24 -14 -60 -23 -80
-9 -20 -19 -61 -23 -91 -16 -111 -36 -216 -47 -240 -6 -14 -20 -59 -31 -100
-12 -41 -29 -97 -37 -123 -9 -27 -13 -61 -9 -77 3 -16 1 -39 -5 -50 -7 -12
-16 -52 -21 -89 -11 -79 -46 -196 -70 -231 -9 -14 -22 -52 -29 -85 -7 -33 -23
-89 -36 -126 -13 -36 -31 -101 -39 -145 -26 -141 -43 -211 -64 -260 -12 -27
-25 -83 -30 -124 -5 -41 -18 -100 -30 -130 -18 -45 -23 -87 -30 -231 -4 -97
-11 -180 -14 -186 -3 -5 -13 -54 -22 -109 -18 -113 -36 -175 -75 -255 -17 -35
-30 -81 -34 -125 -4 -38 -11 -80 -15 -94 -29 -87 -61 -220 -61 -254 0 -30 -26
-118 -50 -171 -21 -46 -50 -140 -50 -164 0 -9 -7 -34 -15 -56 -8 -22 -14 -67
-15 -100 -1 -78 -32 -271 -58 -360 -34 -117 -43 -156 -57 -248 -7 -49 -17
-100 -23 -115 -34 -95 -73 -320 -102 -602 -6 -58 -16 -139 -21 -180 -27 -207
-31 -307 -20 -460 8 -105 8 -173 2 -210 -13 -71 -30 -289 -36 -460 -2 -74 -10
-196 -16 -270 -12 -144 -7 -349 12 -440 6 -31 10 -146 10 -265 -1 -171 3 -229
19 -313 18 -92 19 -114 9 -195 -19 -148 -16 -496 6 -817 4 -47 8 -119 9 -160
3 -85 17 -169 42 -250 24 -81 52 -231 64 -345 5 -55 17 -129 26 -165 11 -43
19 -136 24 -270 5 -145 12 -221 24 -260 61 -202 76 -287 76 -431 0 -115 3
-136 20 -165 29 -46 111 -278 140 -392 4 -19 15 -41 24 -50 22 -25 56 -103 56
-130 0 -13 11 -33 25 -46 31 -29 152 -270 164 -327 29 -138 77 -254 120 -293
11 -11 21 -27 21 -36 0 -30 49 -149 88 -215 65 -110 96 -169 109 -202 16 -44
51 -89 78 -101 23 -11 89 -91 130 -157 30 -49 56 -85 92 -131 18 -23 33 -52
33 -65 0 -49 23 -102 58 -138 20 -20 55 -67 77 -105 22 -38 56 -87 76 -110 19
-23 41 -55 48 -73 7 -17 24 -42 38 -55 14 -12 40 -47 59 -76 19 -29 51 -72 73
-95 21 -23 44 -53 51 -67 25 -49 80 -111 188 -213 7 -6 37 -37 65 -68 29 -30
67 -66 84 -78 18 -12 33 -29 33 -36 0 -8 19 -38 42 -67 24 -29 56 -70 71 -91
16 -21 46 -49 67 -63 24 -16 43 -39 50 -60 7 -19 25 -41 43 -53 18 -11 46 -38
62 -61 17 -23 39 -52 50 -63 11 -12 29 -33 40 -47 11 -15 47 -50 80 -80 33
-30 68 -67 78 -82 10 -17 29 -31 47 -35 23 -4 36 -16 50 -42 10 -21 28 -41 39
-47 11 -5 30 -25 43 -44 13 -19 40 -46 60 -60 20 -14 71 -63 113 -110 96 -107
136 -149 221 -230 38 -36 77 -78 87 -93 10 -15 36 -39 58 -53 23 -14 55 -39
73 -55 103 -97 135 -123 166 -136 19 -9 65 -42 103 -74 37 -32 74 -59 80 -59
7 0 39 -25 72 -56 88 -82 314 -233 351 -234 11 0 29 -9 39 -20 9 -10 33 -25
53 -31 19 -6 52 -29 72 -50 21 -22 46 -39 58 -39 12 0 42 -16 68 -35 25 -19
52 -35 61 -35 8 0 28 -11 45 -25 16 -14 36 -25 44 -25 23 0 87 -44 124 -86 18
-21 61 -53 94 -70 34 -17 78 -43 99 -57 21 -14 47 -29 58 -32 11 -4 43 -22 72
-41 28 -19 60 -34 71 -34 11 0 63 -21 115 -47 53 -25 111 -50 131 -54 63 -14
253 -80 315 -109 88 -42 341 -130 446 -154 30 -8 65 -18 77 -25 11 -6 33 -11
47 -11 14 0 50 -11 78 -24 29 -13 68 -32 87 -40 19 -9 46 -23 60 -30 54 -31
215 -84 286 -96 28 -4 61 -13 72 -19 11 -6 35 -11 52 -11 17 0 40 -5 51 -10
21 -12 178 -42 309 -60 46 -6 92 -16 101 -20 9 -5 70 -14 135 -19 65 -5 153
-17 194 -25 41 -9 104 -16 139 -16 82 0 223 -18 280 -36 25 -8 64 -14 87 -14
24 0 67 -8 96 -19 118 -41 133 -44 187 -32 39 8 58 8 74 0 15 -9 63 -10 166
-4 81 4 171 7 201 5 62 -3 119 -2 400 3 181 4 300 13 475 38 39 5 97 11 130
13 33 1 98 10 144 19 79 16 87 16 133 0 45 -16 50 -17 80 -1 32 16 87 23 279
36 53 4 102 12 110 19 8 6 50 15 94 18 44 3 96 10 115 14 19 5 67 17 105 26
39 10 90 21 115 26 25 4 77 15 115 23 39 9 124 22 191 31 66 8 149 22 185 31
35 9 87 19 114 23 28 4 57 11 65 16 21 14 82 35 101 35 9 0 36 9 60 20 24 11
58 20 76 20 18 0 42 4 55 9 13 5 57 17 98 26 41 10 90 26 108 36 18 11 42 19
52 19 10 0 49 11 87 24 37 13 88 29 113 35 25 7 59 17 75 23 17 6 51 13 77 17
26 4 56 15 65 24 10 9 45 23 77 31 32 9 63 19 70 24 6 5 45 19 86 31 111 34
158 52 171 67 6 8 20 14 31 14 10 0 53 16 96 36 42 20 106 47 142 61 36 13 88
35 115 48 28 14 97 43 155 66 114 45 216 94 240 114 8 7 44 25 80 40 36 15 77
38 92 50 15 13 49 31 77 40 27 8 57 25 66 35 10 11 24 20 30 20 7 0 29 11 49
25 20 14 45 25 56 25 10 0 32 11 48 25 17 14 37 25 45 25 25 0 156 59 226 102
36 22 82 42 101 45 19 3 58 20 85 38 57 37 138 79 175 90 25 8 141 75 215 125
22 15 70 41 106 59 37 18 79 46 95 62 15 16 36 29 46 29 9 0 32 13 50 28 18
16 62 46 98 66 99 58 160 99 160 107 0 5 15 16 33 25 17 9 56 37 86 63 29 25
74 58 100 72 25 14 60 45 78 67 38 51 150 146 218 187 19 11 55 35 80 53 26
18 63 39 83 48 23 9 82 62 157 142 66 70 153 159 192 198 40 40 73 77 73 83 0
6 17 22 39 35 21 14 77 63 124 110 47 47 89 86 95 86 9 0 57 71 85 125 19 37
88 110 145 155 24 18 53 47 65 65 12 18 42 59 67 93 25 33 56 80 70 103 14 23
44 63 68 88 23 25 45 57 49 71 3 14 20 43 37 65 18 22 43 58 56 80 32 55 84
132 125 185 20 25 43 58 53 74 9 16 28 41 42 56 14 15 45 54 70 85 25 32 59
74 76 94 40 47 124 175 124 190 0 6 15 28 33 48 37 43 87 136 87 163 0 17 68
155 116 235 13 22 24 50 24 62 0 13 17 35 44 58 47 38 74 91 86 165 4 25 22
83 39 129 17 46 31 92 31 102 0 10 9 33 20 51 11 18 20 50 20 72 0 21 7 59 14
85 8 25 20 78 26 116 14 87 25 132 56 215 15 40 24 87 24 121 0 33 8 74 19
100 10 24 22 69 26 99 6 49 86 283 119 349 16 31 29 120 31 211 2 71 26 207
49 274 25 74 41 198 38 301 -1 59 4 131 13 175 8 41 17 140 20 220 3 80 9 163
14 185 32 144 50 314 56 525 3 107 10 231 15 275 13 97 29 259 37 375 3 47 0
184 -6 305 -10 184 -10 280 4 585 9 201 20 390 25 420 5 30 9 102 9 159 1 57
8 162 17 233 15 112 15 140 4 200 -11 56 -11 104 -2 246 7 110 8 192 2 217
-14 64 -15 240 -1 365 16 141 8 399 -19 620 -10 85 -21 193 -25 240 -4 47 -15
111 -26 142 -10 31 -24 112 -29 180 -6 68 -13 130 -16 138 -12 31 -34 122 -34
138 0 10 -13 51 -29 93 -20 53 -31 104 -36 168 -6 66 -13 98 -26 115 -11 13
-19 35 -19 48 -1 12 -8 41 -17 63 -8 22 -19 87 -23 145 -17 225 -48 418 -85
540 -9 30 -20 75 -25 100 -4 25 -12 58 -19 73 -6 16 -11 42 -11 58 0 17 -5 39
-10 49 -6 11 -15 50 -20 87 -22 162 -31 205 -50 240 -11 21 -20 49 -20 63 0
28 -23 108 -40 140 -6 12 -16 49 -21 83 -5 34 -16 85 -24 112 -7 28 -19 70
-25 94 -6 24 -36 96 -67 159 -30 64 -58 136 -62 162 -4 25 -14 59 -23 75 -8
17 -23 64 -33 105 -10 41 -33 105 -52 142 -22 43 -40 99 -49 155 -9 48 -24
105 -35 125 -10 20 -19 45 -19 54 0 9 -13 39 -30 66 -16 26 -30 58 -30 69 0
12 -15 51 -34 88 -18 36 -39 84 -46 106 -7 22 -25 67 -40 100 -16 33 -31 71
-35 85 -4 14 -14 36 -22 49 -9 13 -21 47 -29 75 -29 113 -45 160 -70 214 -35
73 -54 123 -54 143 0 8 -13 33 -29 55 -17 22 -37 62 -46 90 -9 27 -27 72 -39
99 -13 28 -34 84 -46 125 -13 41 -32 93 -41 115 -9 22 -25 60 -34 85 -31 81
-60 144 -81 175 -11 17 -28 55 -38 85 -9 30 -27 82 -38 115 -11 33 -31 91 -44
129 -13 38 -30 76 -38 85 -8 9 -17 41 -21 71 -16 146 -84 326 -190 505 -13 22
-33 58 -43 80 -11 22 -30 54 -44 70 -40 49 -58 83 -58 107 0 42 -29 130 -49
152 -10 11 -24 40 -30 63 -7 23 -16 45 -21 48 -6 3 -10 16 -11 28 0 12 -20 58
-44 102 -23 44 -68 130 -99 192 -30 61 -60 114 -66 118 -5 3 -10 13 -10 21 0
8 -33 73 -74 144 -40 71 -94 183 -120 247 -60 151 -60 150 -99 203 -18 25 -45
68 -59 95 -49 96 -71 135 -125 215 -17 26 -38 68 -47 94 -19 56 -98 209 -130
251 -13 16 -26 47 -30 67 -4 21 -24 58 -47 85 -37 44 -89 139 -89 161 0 6 -15
28 -32 50 -18 23 -51 66 -73 97 -42 59 -108 133 -233 262 -41 42 -84 92 -97
112 -12 20 -56 73 -97 116 -40 44 -85 98 -100 121 -14 23 -56 72 -93 109 -36
37 -72 83 -80 102 -8 18 -18 33 -23 33 -5 0 -23 22 -41 50 -18 27 -40 55 -50
62 -28 20 -124 138 -153 188 -14 25 -40 58 -57 74 -17 17 -31 37 -31 45 0 9
-37 52 -82 98 -46 45 -93 93 -104 105 -12 13 -63 61 -114 107 -50 46 -102 100
-115 120 -12 20 -49 57 -81 81 -33 24 -88 75 -124 114 -158 170 -366 366 -425
401 -27 16 -85 63 -128 104 -42 42 -100 96 -128 121 -28 25 -77 70 -108 100
-31 30 -76 73 -101 96 -25 23 -59 56 -77 75 -17 19 -56 54 -87 79 -31 25 -69
57 -85 72 -44 39 -164 137 -229 185 -30 24 -67 54 -82 68 -30 29 -140 106
-191 134 -19 11 -57 39 -85 63 -50 45 -125 98 -137 98 -3 0 -26 14 -49 31 -97
69 -223 149 -236 149 -19 0 -114 49 -140 73 -26 24 -71 52 -167 102 -38 21
-85 50 -103 66 -18 16 -44 29 -58 29 -31 0 -87 23 -121 50 -14 11 -33 20 -42
20 -9 0 -35 18 -58 39 -22 21 -54 46 -71 55 -17 9 -36 25 -42 36 -6 11 -22 23
-37 26 -15 4 -45 20 -68 35 -46 31 -118 59 -153 59 -13 0 -35 9 -49 20 -14 11
-36 20 -49 20 -27 0 -66 16 -112 47 -18 12 -65 32 -105 44 -40 12 -81 28 -92
35 -11 7 -47 15 -80 19 -33 4 -85 14 -115 22 -30 8 -73 18 -95 23 -22 4 -65
18 -95 29 -83 33 -142 43 -278 47 -68 2 -152 11 -187 19 -84 19 -429 18 -494
-1z m481 -305 c51 -7 113 -13 138 -15 228 -19 286 -32 448 -100 18 -8 47 -14
65 -14 18 0 46 -9 62 -20 17 -11 40 -20 53 -20 12 0 45 -11 72 -25 27 -14 56
-25 64 -25 8 0 47 -18 88 -39 40 -22 93 -43 118 -46 106 -15 311 -126 395
-214 16 -17 47 -36 70 -42 22 -6 52 -22 66 -36 15 -13 46 -29 70 -34 24 -6 55
-21 69 -33 14 -13 37 -30 52 -37 14 -8 50 -31 80 -51 29 -20 67 -40 83 -44 17
-3 41 -17 55 -30 28 -26 71 -44 104 -44 12 0 33 -11 45 -24 12 -13 41 -32 64
-42 23 -10 52 -26 64 -37 30 -26 119 -82 168 -106 22 -10 64 -40 93 -65 30
-25 59 -46 65 -46 7 0 41 -27 76 -60 35 -33 68 -60 73 -60 11 0 64 -43 153
-124 95 -87 156 -136 167 -136 7 0 39 -27 72 -59 34 -32 94 -90 135 -127 40
-38 103 -98 140 -134 36 -36 88 -81 116 -100 27 -19 91 -76 142 -127 50 -50
111 -105 135 -121 24 -17 75 -63 113 -102 141 -145 232 -231 400 -380 39 -34
74 -70 79 -79 5 -9 14 -20 20 -26 6 -5 65 -66 131 -135 66 -69 127 -129 136
-135 25 -15 129 -137 140 -163 5 -12 28 -47 51 -78 24 -30 54 -71 68 -89 44
-59 183 -226 228 -272 23 -25 67 -76 98 -114 30 -38 59 -69 64 -69 5 0 25 -25
44 -55 20 -30 45 -60 57 -67 11 -7 46 -47 77 -88 32 -42 89 -104 127 -140 39
-35 74 -71 79 -79 5 -9 27 -37 48 -63 21 -25 48 -68 60 -95 11 -26 40 -70 64
-97 24 -28 49 -70 58 -101 11 -34 27 -59 46 -74 17 -12 30 -29 30 -39 0 -10 8
-29 17 -42 10 -14 30 -52 46 -85 16 -33 41 -76 55 -95 15 -19 37 -57 50 -84
12 -26 40 -71 62 -98 42 -53 108 -182 135 -265 9 -29 23 -57 31 -64 8 -6 14
-17 14 -25 0 -18 67 -139 85 -154 8 -7 15 -20 15 -29 0 -9 9 -29 20 -46 11
-16 20 -40 20 -51 0 -12 8 -32 19 -45 10 -13 36 -57 57 -98 22 -40 51 -94 66
-120 15 -25 29 -53 33 -61 8 -20 25 -50 57 -102 15 -24 39 -74 52 -111 13 -37
39 -91 58 -120 41 -64 70 -125 93 -197 9 -30 35 -87 56 -127 22 -40 39 -78 39
-85 0 -22 168 -346 195 -378 8 -8 19 -37 26 -65 6 -27 18 -61 24 -75 7 -14 18
-52 25 -85 6 -33 18 -70 26 -82 8 -12 14 -33 14 -45 0 -38 36 -164 54 -189 9
-13 16 -32 16 -42 0 -10 6 -31 14 -45 20 -38 46 -99 101 -237 26 -66 54 -130
61 -142 14 -22 83 -198 115 -291 10 -29 25 -62 34 -74 8 -13 15 -29 15 -38 0
-22 60 -172 75 -190 7 -8 17 -28 20 -45 12 -52 34 -115 49 -138 8 -12 17 -38
21 -57 9 -53 84 -240 188 -475 24 -55 54 -127 66 -160 12 -33 33 -83 47 -110
13 -28 24 -59 24 -70 0 -11 6 -29 14 -40 7 -11 16 -33 19 -50 10 -55 75 -265
85 -278 6 -6 21 -50 35 -97 14 -47 32 -105 41 -130 10 -25 26 -74 37 -110 11
-36 28 -83 38 -105 10 -22 28 -83 40 -135 13 -52 33 -124 46 -160 44 -125 54
-156 79 -245 13 -49 27 -121 31 -160 3 -38 14 -106 25 -150 10 -44 24 -107 30
-140 6 -33 16 -73 21 -90 6 -16 15 -48 20 -70 5 -22 21 -73 35 -113 19 -55 26
-93 26 -155 0 -45 8 -124 19 -176 l18 -94 -25 -36 c-13 -19 -24 -39 -24 -44 0
-4 -11 -24 -24 -45 -13 -20 -32 -66 -41 -102 -10 -36 -33 -98 -51 -138 -19
-40 -34 -81 -34 -91 0 -10 -13 -45 -29 -77 -16 -32 -43 -93 -59 -134 -17 -41
-46 -113 -66 -160 -20 -46 -36 -89 -36 -95 0 -5 -7 -23 -16 -40 -20 -40 -64
-149 -64 -161 0 -6 -11 -25 -25 -44 -14 -19 -25 -43 -25 -55 0 -12 -10 -31
-22 -43 -13 -11 -33 -40 -44 -64 -32 -63 -139 -315 -159 -373 -19 -55 -49
-126 -70 -165 -26 -49 -85 -216 -95 -270 -14 -75 -30 -119 -55 -155 -28 -40
-95 -183 -95 -203 0 -8 -20 -55 -45 -104 -25 -49 -45 -96 -45 -106 0 -9 -18
-55 -41 -102 -70 -146 -97 -204 -108 -230 -6 -14 -27 -52 -46 -85 -19 -33 -42
-76 -51 -95 -9 -19 -29 -51 -44 -70 -15 -19 -38 -55 -50 -80 -12 -25 -35 -58
-51 -75 -16 -16 -41 -45 -57 -64 -25 -30 -31 -32 -50 -22 -13 7 -36 31 -52 53
-17 23 -43 49 -58 58 -15 9 -47 43 -72 75 -95 123 -343 356 -421 396 -31 15
-59 35 -63 44 -3 8 -25 24 -49 34 -42 18 -281 231 -300 268 -5 10 -17 25 -27
33 -23 21 -118 142 -168 215 -49 73 -96 125 -114 125 -7 0 -37 26 -68 58 -106
112 -200 131 -327 68 -37 -19 -79 -46 -92 -60 -13 -14 -49 -40 -80 -58 -31
-18 -85 -64 -121 -102 -36 -38 -81 -85 -100 -103 -213 -208 -306 -293 -317
-293 -7 0 -30 -15 -50 -34 -21 -18 -51 -40 -68 -49 -27 -14 -68 -56 -257 -259
-27 -28 -48 -55 -48 -60 0 -12 -64 -38 -93 -38 -13 0 -54 16 -91 35 -37 19
-76 35 -86 35 -10 0 -21 4 -24 9 -4 5 -31 17 -62 27 -31 9 -75 30 -98 46 -22
15 -47 28 -54 28 -7 0 -36 16 -65 35 -28 19 -54 35 -58 35 -3 0 -44 23 -90 51
-46 28 -102 60 -124 70 -22 11 -56 29 -75 41 -19 11 -65 38 -102 60 -36 22
-69 46 -72 53 -3 8 -23 19 -45 25 -22 6 -84 40 -138 76 -54 37 -105 69 -113
72 -8 3 -28 16 -43 29 -16 13 -35 23 -43 23 -7 0 -28 9 -46 20 -18 11 -40 20
-49 20 -22 0 -107 38 -115 51 -4 6 -27 20 -53 32 -54 23 -225 135 -279 182
-19 16 -38 20 -93 21 -56 0 -74 4 -97 22 -15 13 -48 33 -74 46 -42 20 -90 55
-142 103 -31 29 -116 81 -192 118 -77 37 -174 60 -296 69 -87 6 -161 22 -200
42 -14 8 -33 14 -41 14 -8 0 -44 18 -78 40 -35 22 -102 58 -149 80 -47 22
-106 51 -133 65 -26 14 -53 25 -60 25 -6 0 -32 14 -56 30 -50 34 -117 40 -174
16 -35 -14 -87 -69 -87 -91 0 -18 -106 -132 -129 -140 -17 -5 -84 -99 -126
-177 -19 -35 -204 -248 -215 -248 -18 0 -119 -90 -197 -175 -110 -121 -186
-193 -233 -222 -20 -12 -47 -34 -60 -48 -14 -15 -41 -35 -61 -46 -20 -10 -39
-25 -42 -33 -3 -8 -23 -26 -44 -39 -21 -14 -51 -44 -68 -67 -16 -23 -37 -48
-45 -56 -8 -8 -58 -56 -111 -107 -157 -151 -307 -240 -334 -198 -3 5 -27 17
-53 27 -26 10 -63 31 -83 48 -20 17 -53 42 -74 56 -20 14 -55 42 -78 63 -23
21 -69 53 -102 72 -33 19 -78 51 -100 72 -22 21 -52 47 -67 58 -172 131 -210
163 -237 203 -33 47 -69 62 -152 62 -54 0 -79 -5 -104 -20 -38 -24 -60 -68
-52 -107 4 -16 10 -49 15 -74 9 -51 53 -115 85 -125 24 -7 108 -69 202 -149
33 -28 112 -90 175 -137 63 -48 141 -109 173 -137 32 -28 66 -51 76 -51 9 0
41 -20 70 -45 29 -25 58 -45 64 -45 7 0 30 -14 51 -30 22 -17 44 -30 49 -30 5
0 32 -11 59 -25 45 -23 61 -25 166 -24 l117 1 78 51 c42 28 77 54 77 57 0 3
53 49 117 101 67 54 128 113 144 138 16 24 42 52 58 62 17 10 44 38 61 61 41
56 111 116 184 158 36 20 104 79 178 153 66 67 137 129 157 137 54 25 254 221
276 272 11 24 37 64 59 90 64 74 92 111 109 143 22 44 121 155 157 176 30 19
31 19 78 -5 26 -13 58 -27 72 -31 22 -6 205 -94 270 -129 33 -18 182 -64 245
-76 97 -17 216 -50 255 -70 22 -11 47 -20 56 -20 9 0 35 -15 58 -33 23 -18 68
-50 101 -72 33 -22 71 -49 85 -62 14 -12 56 -34 93 -48 38 -14 90 -36 117 -50
27 -14 55 -25 63 -25 7 0 43 -18 80 -40 36 -22 75 -40 85 -40 11 0 27 -11 36
-25 9 -13 53 -43 99 -65 45 -23 93 -47 107 -55 14 -8 62 -25 108 -39 46 -14
102 -38 125 -54 23 -15 71 -42 107 -59 36 -16 82 -44 104 -62 21 -17 46 -31
55 -31 9 0 46 -20 83 -44 65 -43 119 -73 278 -158 41 -22 84 -48 95 -58 11 -9
54 -33 96 -53 42 -20 82 -43 88 -51 7 -8 29 -20 49 -27 20 -6 48 -20 62 -29
14 -10 52 -29 86 -43 33 -14 99 -46 146 -71 47 -25 93 -46 102 -46 9 0 30 -19
46 -42 36 -50 68 -67 129 -68 45 0 45 0 198 157 84 86 153 160 153 165 0 4 13
16 29 26 17 10 49 43 73 73 59 75 136 144 194 175 27 14 63 38 79 54 36 35
222 222 252 253 140 147 200 207 210 207 6 0 25 11 41 25 17 14 34 25 40 25 6
0 34 -20 63 -45 29 -25 56 -45 59 -45 3 0 48 -52 100 -116 136 -167 417 -447
484 -481 32 -16 39 -21 145 -103 35 -28 69 -50 75 -50 17 0 290 -281 321 -329
13 -22 40 -51 59 -64 20 -13 49 -40 65 -61 16 -20 57 -66 91 -103 71 -75 91
-83 225 -89 113 -4 152 7 171 51 7 19 18 37 24 40 6 4 26 37 45 73 20 37 55
94 80 127 25 33 59 87 76 120 18 33 42 74 55 91 13 16 33 52 45 80 30 69 83
175 134 269 24 44 51 100 59 125 29 87 114 286 149 350 20 36 48 97 62 135 15
39 31 75 37 82 10 13 19 42 42 143 7 30 18 65 24 76 6 12 16 43 22 70 6 27 25
69 41 94 16 24 32 56 35 70 3 14 12 37 20 52 8 14 14 36 14 47 0 12 11 43 24
69 13 26 27 70 32 97 9 67 59 170 107 222 9 11 25 46 36 80 11 33 29 84 40
112 12 28 30 75 42 104 12 28 34 66 49 82 29 31 47 72 79 185 22 75 125 313
138 317 10 4 63 -152 63 -183 0 -11 7 -47 16 -79 16 -59 22 -97 44 -300 6 -55
20 -152 32 -215 12 -63 22 -155 24 -205 1 -49 6 -112 12 -140 15 -77 5 -258
-18 -316 -18 -45 -19 -58 -8 -186 7 -76 11 -199 9 -273 -4 -222 -5 -365 -2
-565 3 -141 -1 -218 -13 -300 -9 -60 -21 -150 -26 -200 -10 -93 -18 -788 -12
-1070 3 -112 -2 -202 -14 -300 -10 -77 -19 -198 -20 -270 -3 -172 -22 -451
-33 -495 -38 -144 -53 -301 -56 -570 -2 -211 -4 -242 -23 -295 -12 -33 -26
-89 -32 -125 -19 -127 -40 -276 -46 -330 -8 -79 -32 -188 -49 -221 -8 -15 -22
-48 -30 -73 -14 -41 -20 -64 -45 -181 -4 -22 -19 -83 -33 -135 -13 -52 -28
-115 -31 -138 -4 -24 -16 -63 -28 -85 -27 -53 -48 -133 -67 -252 -4 -27 -13
-63 -19 -78 -7 -16 -12 -41 -12 -57 0 -15 -16 -66 -36 -112 -51 -118 -74 -186
-74 -222 0 -17 -11 -52 -25 -78 -14 -26 -25 -53 -25 -60 0 -7 -9 -30 -20 -51
-11 -21 -30 -68 -42 -105 -12 -37 -27 -74 -33 -82 -29 -36 -105 -176 -106
-195 0 -11 -14 -42 -30 -70 -16 -27 -37 -68 -48 -90 -10 -22 -33 -59 -52 -82
-52 -65 -95 -125 -112 -158 -8 -16 -39 -52 -67 -80 -29 -27 -77 -88 -107 -135
-31 -47 -71 -102 -89 -123 -19 -20 -34 -43 -34 -50 0 -11 -25 -51 -102 -166
-13 -18 -37 -48 -54 -65 -17 -17 -39 -44 -49 -61 -10 -16 -37 -50 -60 -75 -23
-25 -50 -60 -59 -78 -25 -48 -177 -226 -257 -298 -19 -17 -54 -58 -79 -90 -51
-66 -90 -108 -233 -249 -206 -203 -253 -251 -285 -293 -19 -23 -40 -42 -48
-42 -8 0 -35 -22 -59 -48 -25 -27 -69 -61 -98 -75 -30 -14 -60 -33 -67 -42 -7
-9 -50 -40 -95 -70 -44 -30 -96 -72 -113 -94 -18 -23 -58 -59 -90 -81 -31 -22
-82 -60 -114 -83 -31 -23 -75 -55 -98 -72 -22 -16 -63 -47 -89 -67 -27 -20
-73 -49 -102 -64 -50 -25 -79 -45 -174 -114 -18 -14 -57 -38 -85 -55 -28 -16
-66 -39 -83 -50 -18 -12 -52 -29 -77 -39 -25 -10 -52 -24 -60 -31 -8 -7 -53
-33 -100 -57 -47 -24 -105 -57 -129 -73 -59 -40 -96 -59 -241 -120 -36 -15
-69 -31 -74 -36 -6 -5 -19 -9 -30 -9 -12 0 -39 -11 -61 -25 -22 -13 -47 -25
-56 -25 -8 0 -33 -13 -55 -29 -21 -16 -61 -36 -89 -46 -27 -9 -63 -27 -80 -39
-16 -13 -47 -28 -67 -35 -20 -7 -47 -20 -60 -30 -13 -10 -33 -21 -46 -25 -12
-4 -27 -16 -32 -27 -6 -10 -17 -19 -24 -19 -8 0 -49 -18 -92 -40 -43 -22 -88
-40 -99 -40 -12 0 -36 -11 -55 -25 -19 -14 -41 -25 -49 -25 -19 0 -132 -45
-174 -70 -19 -11 -65 -31 -103 -44 -38 -13 -101 -39 -139 -58 -92 -46 -175
-78 -203 -78 -20 0 -74 -15 -222 -61 -19 -7 -57 -22 -85 -35 -27 -12 -72 -28
-100 -35 -27 -6 -75 -22 -106 -35 -31 -13 -67 -24 -81 -24 -13 0 -32 -6 -43
-14 -11 -7 -40 -17 -65 -21 -25 -4 -56 -13 -70 -21 -30 -17 -162 -50 -294 -74
-32 -6 -72 -18 -90 -27 -17 -9 -49 -20 -71 -24 -22 -5 -74 -15 -115 -24 -70
-15 -190 -34 -340 -55 -36 -5 -90 -17 -120 -26 -30 -9 -82 -20 -115 -25 -33
-5 -71 -13 -85 -19 -33 -13 -258 -48 -385 -61 -55 -5 -111 -13 -125 -18 -14
-6 -74 -12 -135 -15 -165 -9 -304 -22 -360 -35 -27 -6 -97 -13 -155 -15 -58
-2 -163 -12 -235 -21 -141 -19 -324 -17 -362 3 -12 7 -90 14 -188 17 l-167 5
-32 -35 c-29 -31 -38 -35 -83 -35 -67 0 -321 29 -353 40 -14 5 -59 11 -100 15
-41 4 -81 12 -89 18 -8 7 -48 15 -90 19 -42 3 -132 14 -201 22 -69 9 -177 21
-240 26 -148 12 -209 20 -425 62 -27 5 -77 13 -110 17 -83 12 -233 39 -259 47
-11 4 -64 27 -116 52 -93 44 -149 68 -220 92 -19 7 -44 17 -55 23 -19 10 -53
19 -140 36 -75 15 -180 54 -208 77 -16 13 -38 24 -50 24 -12 0 -67 16 -121 35
-55 19 -109 35 -121 35 -12 0 -56 18 -99 40 -42 22 -84 40 -92 40 -8 0 -51 18
-97 39 -104 50 -182 81 -200 81 -8 0 -35 11 -58 25 -24 14 -51 25 -61 25 -9 0
-35 16 -58 35 -23 19 -47 35 -54 35 -7 0 -30 15 -52 33 -21 19 -57 46 -79 60
-22 15 -65 45 -95 67 -56 41 -132 80 -154 80 -7 0 -25 14 -41 30 -34 35 -93
71 -180 107 -33 14 -73 38 -90 53 -16 16 -50 38 -75 49 -25 12 -64 34 -87 49
-23 15 -63 41 -89 57 -26 17 -61 44 -78 60 -17 17 -51 41 -76 54 -25 12 -56
34 -70 47 -14 13 -40 29 -59 35 -18 6 -40 24 -50 39 -9 16 -52 57 -96 93 -44
36 -99 85 -121 109 -23 24 -63 59 -89 78 -27 19 -64 52 -84 72 -95 100 -131
140 -131 148 0 5 -14 17 -32 26 -34 17 -158 138 -158 154 0 5 -34 45 -75 89
-41 44 -75 85 -75 90 0 5 -15 18 -32 30 -57 36 -150 118 -176 155 -14 20 -32
38 -42 41 -9 3 -30 24 -46 47 -16 23 -40 53 -54 67 -53 55 -148 167 -159 188
-6 13 -24 29 -39 37 -16 8 -41 34 -57 58 -16 24 -50 66 -75 93 -26 28 -63 71
-81 96 -19 26 -62 69 -94 96 -71 60 -103 94 -177 188 -64 82 -78 106 -78 135
0 24 -90 179 -117 201 -9 8 -32 38 -51 68 -19 29 -49 70 -68 91 -19 20 -41 54
-49 73 -8 20 -48 79 -88 131 -39 52 -94 124 -121 161 -26 37 -84 106 -129 155
-60 66 -96 118 -143 207 -101 190 -143 276 -148 304 -3 14 -19 43 -36 64 -20
25 -30 49 -30 71 0 19 -9 44 -24 61 -12 15 -25 39 -28 53 -10 43 -56 162 -71
179 -8 9 -22 36 -31 61 -10 25 -38 75 -62 111 -24 37 -47 82 -50 100 -7 35
-28 84 -47 108 -15 18 -33 68 -63 176 -14 50 -31 104 -38 120 -52 118 -56 136
-62 242 -3 53 -17 142 -34 210 -17 65 -30 128 -30 141 0 13 -8 37 -18 55 -15
28 -17 57 -14 237 2 184 1 211 -17 264 -12 32 -26 95 -32 140 -27 202 -48 334
-58 371 -49 188 -62 284 -66 480 -2 99 -8 250 -14 335 -8 114 -8 179 0 247 7
56 9 148 5 240 -4 81 -11 261 -16 398 -8 228 -18 352 -35 475 -4 25 -1 97 5
160 7 63 15 214 20 335 4 121 15 273 24 337 16 114 18 212 14 508 -2 89 2 172
11 215 14 78 27 211 37 390 3 66 13 145 21 175 40 151 86 343 98 410 18 97 62
297 70 318 4 10 13 69 20 132 19 157 39 271 52 295 16 30 63 173 63 193 0 9 8
31 17 47 9 17 20 64 25 105 14 129 24 183 46 239 12 30 24 74 28 99 4 25 22
78 40 118 19 40 41 99 50 131 18 65 39 247 49 428 7 128 14 173 44 275 10 36
26 94 35 130 10 36 30 112 45 170 16 58 33 125 39 150 48 202 59 239 97 311
19 37 35 78 35 90 0 13 7 33 15 43 8 11 15 29 15 40 0 12 7 40 15 64 10 28 13
60 9 90 -3 26 -1 65 5 87 35 135 52 195 65 230 8 22 15 52 16 67 0 15 7 47 15
70 8 24 18 75 24 113 13 95 33 169 74 278 19 51 43 119 53 152 10 33 33 92 51
131 18 39 33 82 33 95 0 13 9 44 20 68 11 24 20 49 20 56 0 13 41 111 66 157
8 14 14 37 14 51 0 13 7 30 15 37 8 7 22 35 30 62 8 27 23 60 34 74 11 14 23
38 26 54 4 17 17 49 30 72 39 70 102 199 125 258 12 30 38 89 57 130 55 119
84 182 103 225 10 22 29 66 44 98 14 31 26 67 26 80 0 12 14 45 30 72 16 28
40 73 55 100 14 28 32 61 39 75 8 14 22 45 32 69 10 24 30 58 44 76 14 17 33
58 44 91 10 32 24 71 32 86 8 14 14 33 14 42 0 9 15 37 33 63 19 27 42 62 53
80 10 17 48 76 84 130 87 130 83 124 136 233 26 52 55 106 65 119 11 13 19 29
19 36 0 14 63 148 114 240 18 33 55 104 83 158 28 53 63 111 77 128 14 17 26
38 26 46 0 17 124 269 145 293 7 8 24 40 38 70 14 30 39 73 56 95 17 22 49 76
71 120 44 86 114 206 143 246 10 13 30 42 44 64 14 22 47 72 73 110 82 123
120 183 127 202 4 10 30 45 57 79 28 34 69 87 91 119 22 32 50 68 62 80 12 12
27 34 32 48 12 32 176 283 190 292 12 7 66 85 87 128 10 18 45 64 79 102 34
39 73 86 86 106 23 34 106 131 194 226 22 23 83 88 135 145 159 170 605 610
662 653 56 41 122 96 216 180 32 28 80 68 107 90 28 21 71 59 97 84 25 25 54
54 65 64 10 10 45 45 78 80 32 34 75 72 95 86 19 13 44 32 55 43 92 90 212
201 270 251 39 33 86 79 105 102 50 60 116 116 188 160 34 21 62 41 62 46 0 4
25 24 55 44 30 21 55 41 55 46 0 5 30 31 68 58 37 27 90 78 119 113 53 64 125
128 223 197 76 54 133 98 193 151 29 25 84 67 122 92 39 25 84 61 100 78 17
18 50 42 75 55 68 35 150 92 172 121 29 36 144 112 253 167 33 16 68 37 79 46
14 13 42 16 130 17 85 0 120 5 151 19 32 14 68 19 180 20 145 2 220 12 340 46
39 11 93 27 120 34 28 8 86 17 131 21 44 3 86 9 91 12 19 12 330 12 425 1z"/>
</g>
</svg>
