<?xml version="1.0" standalone="no"?>
<!DOCTYPE svg PUBLIC "-//W3C//DTD SVG 20010904//EN"
 "http://www.w3.org/TR/2001/REC-SVG-20010904/DTD/svg10.dtd">
<svg version="1.0" xmlns="http://www.w3.org/2000/svg"
 width="1677.261326pt" height="1243.149337pt" viewBox="0 0 1677.261326 1243.149337"
 preserveAspectRatio="xMidYMid meet">
<metadata>
Created by potrace 1.16, written by Peter Selinger 2001-2019
</metadata>
<g transform="translate(-204.344697,1421.710625) scale(0.100000,-0.100000)"
fill="#343434" stroke="none">
<path d="M5865 14205 c-52 -8 -89 -9 -105 -3 -15 5 -32 6 -45 0 -46 -21 -94
-32 -141 -32 -27 0 -67 -7 -89 -15 -22 -8 -57 -14 -78 -15 -21 0 -51 -7 -67
-15 -22 -11 -35 -12 -58 -4 -20 7 -37 7 -49 1 -10 -5 -75 -15 -144 -22 -101
-10 -138 -10 -178 0 -30 7 -73 10 -104 6 -50 -6 -258 -7 -688 -3 -147 2 -200
5 -212 15 -28 23 -155 35 -347 33 -338 -4 -724 -2 -842 4 -98 5 -122 4 -140
-9 -13 -9 -43 -16 -70 -16 -53 0 -126 -15 -176 -36 -18 -8 -50 -14 -70 -14
-34 0 -46 -9 -120 -83 -45 -45 -82 -85 -82 -89 0 -3 18 -37 40 -74 43 -74 48
-95 26 -113 -9 -7 -17 -40 -20 -79 -4 -37 -11 -94 -16 -127 -6 -33 -12 -107
-15 -165 -2 -58 -7 -133 -11 -167 -4 -37 -3 -68 3 -75 20 -25 22 -77 7 -120
-23 -66 -41 -619 -23 -708 17 -81 16 -838 -2 -902 -6 -22 -7 -47 -4 -57 4 -9
10 -72 14 -141 5 -86 13 -137 25 -162 16 -34 17 -60 11 -292 -8 -257 4 -655
27 -926 6 -74 13 -193 14 -265 3 -161 4 -175 16 -305 6 -58 14 -163 19 -235
23 -354 29 -423 38 -460 25 -103 30 -245 9 -278 -12 -17 -14 -51 -10 -157 2
-74 5 -265 6 -425 2 -203 7 -302 15 -329 8 -21 15 -100 18 -175 3 -123 15
-351 26 -536 10 -150 30 -301 43 -316 17 -19 19 -179 4 -258 -21 -109 -39
-311 -33 -362 5 -45 12 -59 42 -87 20 -18 48 -39 64 -47 15 -9 27 -24 27 -36
0 -12 10 -23 28 -29 15 -6 35 -15 45 -20 11 -7 45 -8 95 -2 149 15 742 -5 782
-28 31 -17 89 -31 160 -37 30 -3 61 -10 68 -15 7 -6 33 -8 63 -4 62 8 89 -9
89 -59 0 -18 7 -38 16 -46 12 -10 14 -23 9 -55 -5 -39 -3 -45 20 -60 l26 -17
-7 -99 c-6 -84 -4 -105 11 -139 16 -34 17 -45 7 -73 -18 -48 -15 -141 5 -179
14 -28 16 -65 15 -292 -2 -251 3 -326 38 -575 6 -41 9 -100 8 -130 -2 -30 -3
-101 -3 -157 0 -97 1 -103 27 -130 25 -26 27 -33 27 -125 0 -53 4 -105 10
-116 13 -24 32 -217 41 -427 8 -164 23 -269 44 -295 16 -20 13 -209 -4 -275
-10 -38 -10 -64 -2 -115 6 -36 14 -90 18 -122 5 -46 12 -62 40 -89 37 -36 70
-41 162 -24 50 9 54 14 63 81 5 36 19 71 46 111 21 32 48 75 58 97 11 21 35
50 53 63 17 14 32 32 32 40 0 8 8 27 18 41 10 15 27 47 37 72 11 25 32 65 47
89 16 25 28 54 28 65 0 12 10 41 21 66 11 25 29 71 40 103 11 32 32 77 46 100
30 46 83 154 83 167 0 14 47 80 75 106 14 13 25 34 25 47 0 13 9 32 20 42 11
10 20 25 20 33 0 8 14 30 30 49 17 18 30 42 30 53 0 11 9 24 19 30 11 5 23 20
27 32 3 13 21 43 38 68 17 25 57 88 89 141 31 54 64 99 72 102 7 3 19 25 25
49 7 23 18 51 26 62 8 11 14 27 14 36 0 8 18 40 40 70 46 63 100 172 100 202
0 11 9 31 20 45 11 14 20 38 20 52 0 19 14 41 45 71 32 31 45 52 45 72 0 15
11 44 25 64 14 20 29 53 35 74 5 20 18 45 29 54 10 10 22 33 25 51 7 37 66
147 96 180 10 11 26 36 35 55 10 19 31 51 46 70 17 21 30 54 34 82 4 26 15 54
26 64 10 9 19 21 19 26 0 5 8 21 19 36 50 73 91 142 91 153 0 7 11 26 24 43
13 17 26 45 30 63 4 17 16 39 27 49 10 9 19 23 19 30 0 7 23 39 50 70 28 31
50 61 50 65 0 5 15 16 33 26 32 18 93 30 202 39 33 3 69 9 80 14 28 12 263 22
269 11 11 -17 66 -20 122 -5 44 11 91 13 193 9 253 -10 440 -27 452 -41 6 -8
14 -35 16 -62 6 -52 46 -148 65 -154 9 -3 12 -28 9 -84 -2 -64 1 -83 13 -93
18 -15 56 -95 56 -117 0 -8 18 -23 40 -34 28 -14 47 -34 64 -68 13 -26 43 -62
67 -80 24 -18 55 -49 69 -69 14 -20 57 -70 95 -112 39 -42 85 -95 104 -119 21
-27 44 -45 63 -49 16 -3 36 -17 45 -30 10 -15 22 -22 31 -18 10 4 34 -12 67
-45 29 -28 69 -57 91 -65 38 -13 47 -22 58 -58 3 -9 16 -21 28 -26 13 -5 47
-32 76 -61 47 -46 57 -52 83 -46 22 4 40 -1 69 -19 22 -14 44 -25 49 -25 5 0
19 -16 31 -35 12 -19 30 -35 39 -35 10 0 42 -22 72 -50 47 -44 59 -50 97 -50
30 0 53 -7 75 -24 18 -13 58 -30 90 -37 31 -7 62 -18 68 -26 6 -7 19 -13 28
-13 9 0 25 -7 35 -15 11 -8 39 -15 62 -15 25 0 47 -6 54 -15 7 -8 26 -15 42
-15 17 0 42 -8 56 -19 15 -10 42 -22 59 -26 18 -3 35 -10 38 -14 2 -5 38 -6
79 -3 61 4 81 1 102 -13 21 -14 39 -16 85 -12 41 5 60 3 68 -7 7 -8 44 -16 92
-20 45 -4 91 -12 103 -19 11 -7 41 -13 66 -14 80 -3 135 -15 155 -33 17 -15
48 -18 199 -24 116 -4 184 -10 194 -18 8 -7 53 -14 100 -16 l86 -3 90 -95 c80
-85 92 -94 116 -89 23 5 36 -2 80 -45 28 -28 64 -57 78 -64 15 -8 49 -37 77
-65 27 -28 53 -51 58 -51 13 0 64 -43 168 -140 98 -92 135 -120 160 -120 9 0
24 -11 33 -25 10 -15 26 -25 41 -25 14 0 29 -8 35 -19 5 -11 20 -23 32 -26 13
-4 35 -19 50 -32 20 -19 33 -24 52 -19 20 5 36 -2 73 -30 27 -19 56 -47 67
-60 12 -16 24 -23 36 -19 11 4 33 -7 59 -29 23 -19 51 -38 64 -42 12 -3 31
-14 42 -24 32 -28 124 -90 133 -90 5 0 17 -9 27 -20 10 -11 27 -20 37 -20 10
0 21 -7 25 -16 6 -16 116 -74 139 -74 6 0 23 -18 38 -40 16 -24 37 -42 54 -46
15 -4 43 -20 63 -35 20 -16 43 -29 51 -29 8 0 27 -14 44 -31 16 -18 56 -44 89
-59 33 -16 69 -37 79 -49 11 -12 27 -21 37 -21 10 0 39 -29 69 -70 49 -68 52
-71 85 -64 18 3 49 1 67 -5 20 -6 51 -8 77 -3 38 6 49 14 78 57 26 37 33 57
30 80 -3 16 2 45 9 64 10 24 11 38 4 45 -6 6 -10 75 -10 172 0 101 -4 165 -10
169 -12 7 -6 114 11 223 11 74 19 256 19 494 0 92 4 187 8 210 5 24 4 77 -1
119 -6 48 -7 105 -1 150 l9 74 37 3 c20 2 46 -2 57 -7 15 -8 31 -6 66 9 35 15
66 19 133 18 48 -1 96 3 107 9 11 6 47 13 80 15 33 3 78 14 100 24 22 9 49 19
60 20 11 1 38 5 60 8 89 12 285 29 370 32 50 2 130 5 180 8 50 2 97 0 108 -5
13 -7 23 -7 33 2 8 7 30 9 54 6 22 -3 42 -2 45 3 4 7 155 22 241 24 25 1 50 8
61 18 11 10 30 18 42 18 12 0 34 6 49 14 15 7 59 16 99 20 39 4 95 16 124 27
30 10 67 19 84 19 16 0 48 7 70 15 22 8 61 14 88 15 26 0 55 4 65 9 18 10 110
27 207 40 33 4 88 19 123 34 36 16 99 32 145 38 45 6 86 14 92 20 5 5 19 9 31
9 12 0 27 7 34 15 7 8 27 15 45 15 19 0 39 8 50 20 10 11 23 20 30 20 6 0 24
13 40 30 16 17 37 30 47 30 11 0 36 11 56 25 20 14 42 25 48 25 6 0 19 9 29
20 10 11 23 20 29 20 17 0 127 79 177 128 26 24 56 49 67 56 22 13 198 156
225 183 34 35 132 152 162 193 17 23 45 59 63 80 37 43 82 126 82 151 0 9 12
32 28 52 43 57 82 123 82 139 0 8 10 23 21 34 12 10 31 42 44 70 12 28 39 75
60 104 21 30 47 79 57 109 11 31 30 74 42 96 13 22 27 51 31 65 4 14 15 34 25
45 10 11 32 54 48 95 17 41 44 101 61 132 17 32 31 62 31 68 0 6 13 40 30 75
17 35 30 72 30 82 0 10 7 27 15 37 9 12 15 42 15 77 0 40 5 63 19 81 21 27 43
110 45 175 1 24 7 48 14 55 7 7 12 25 12 41 0 15 5 38 11 49 17 31 49 233 49
305 0 34 4 72 9 85 23 59 31 113 35 243 3 77 10 167 16 200 5 33 10 90 10 126
0 37 5 91 12 120 6 30 11 68 10 84 -4 89 1 171 9 182 7 8 7 19 -1 33 -7 12
-13 72 -16 133 -3 104 -23 225 -45 284 -5 13 -9 41 -9 61 -1 20 -8 55 -17 77
-15 39 -44 180 -63 300 -5 33 -13 74 -18 91 -5 17 -13 64 -17 105 -3 41 -13
99 -21 129 -8 30 -24 89 -34 132 -11 42 -28 92 -40 112 -11 20 -20 47 -20 61
0 13 -4 27 -10 30 -5 3 -10 18 -10 32 0 15 -11 46 -25 69 -15 26 -27 62 -28
91 -2 26 -8 57 -14 68 -6 11 -19 47 -28 80 -17 60 -51 152 -86 232 -11 24 -19
48 -19 54 0 21 -63 130 -82 140 -10 5 -18 18 -18 28 0 22 -75 121 -92 121 -12
0 -138 126 -138 138 0 5 -25 29 -55 55 -30 26 -71 72 -91 102 -20 31 -42 54
-48 53 -13 -3 -76 63 -76 79 0 14 -144 153 -159 153 -7 0 -36 20 -63 45 -28
25 -54 45 -59 45 -9 0 -86 67 -146 128 -18 18 -47 38 -65 44 -43 15 -107 55
-135 85 -16 16 -33 23 -61 23 -35 0 -46 8 -115 76 -64 63 -83 76 -113 77 -30
2 -38 8 -49 34 -17 39 -37 53 -196 136 -40 20 -81 37 -91 37 -10 0 -37 17 -61
38 -59 52 -99 72 -144 72 -28 0 -51 9 -79 30 -32 25 -48 29 -96 30 -47 0 -59
4 -68 20 -7 13 -21 20 -39 20 -16 0 -35 7 -42 16 -26 32 -93 53 -135 44 -35
-8 -41 -7 -57 15 -10 14 -26 25 -36 25 -9 0 -25 6 -36 14 -11 7 -33 16 -50 20
-47 11 -96 24 -140 36 -54 16 -152 31 -197 30 -20 0 -39 4 -43 10 -3 5 -39 10
-80 10 -41 0 -86 5 -102 11 -15 6 -59 13 -98 14 -141 6 -351 25 -372 35 -16 6
-35 5 -64 -5 -77 -28 -98 -17 -78 38 10 27 9 49 -5 118 -18 94 -18 93 -15 344
2 207 -8 501 -17 517 -4 6 -8 115 -9 243 -3 222 -2 234 17 252 23 21 48 76 48
107 0 12 -6 31 -14 42 -8 11 -16 31 -18 44 -3 24 -5 25 -88 25 -77 0 -89 -3
-126 -28 l-40 -28 -281 -5 c-192 -4 -292 -3 -315 5 -22 7 -58 8 -110 2 -48 -5
-92 -5 -120 1 -24 6 -151 12 -283 14 -132 2 -307 6 -390 9 -560 16 -1517 23
-1573 10 -16 -3 -33 -2 -36 3 -6 11 -300 5 -341 -7 -16 -5 -104 -10 -194 -10
-133 -1 -169 -4 -188 -17 -20 -13 -30 -13 -52 -4 -43 18 -547 4 -1027 -28 -60
-4 -108 -12 -117 -20 -9 -8 -25 -11 -35 -8 -11 4 -147 8 -303 11 -351 5 -471
11 -613 30 -144 19 -182 19 -217 -2 -26 -15 -32 -16 -52 -3 -16 10 -61 14
-157 16 -74 1 -168 7 -209 13 -53 8 -77 8 -87 0 -9 -7 -23 -7 -51 1 -21 6
-146 15 -278 20 -132 5 -269 14 -304 19 -36 5 -68 8 -72 6 -4 -3 -125 2 -269
10 -157 10 -267 12 -274 7 -6 -6 -55 -4 -121 4 -126 15 -115 15 -220 -1z m535
-219 c58 -8 113 -17 123 -21 9 -4 31 -2 47 5 25 10 38 10 73 -2 23 -8 67 -16
97 -17 30 -1 69 -6 85 -10 54 -16 233 -33 247 -25 34 22 854 23 908 1 8 -3 49
-8 90 -11 213 -14 400 -38 452 -57 38 -14 66 -16 119 -12 48 4 77 2 94 -7 19
-10 33 -10 72 0 73 19 179 33 268 35 44 1 111 9 149 18 45 10 78 12 98 6 19
-5 38 -4 50 2 13 7 35 7 69 0 30 -7 57 -7 67 -2 9 4 53 11 97 15 44 3 127 11
184 18 93 11 106 10 133 -5 22 -13 34 -14 49 -7 10 6 36 10 56 10 21 -1 70 2
110 6 45 4 83 2 103 -5 24 -8 37 -8 53 2 25 14 102 16 522 18 433 3 506 1 521
-11 9 -8 18 -8 33 -1 11 6 53 11 93 11 43 0 79 5 86 12 8 8 15 8 27 -2 10 -9
47 -15 93 -17 140 -4 226 -10 340 -20 80 -8 123 -8 148 0 26 8 44 7 69 -2 18
-6 44 -9 57 -6 21 5 215 16 266 15 147 -4 251 1 258 12 8 12 48 10 61 -3 13
-13 269 -25 488 -23 98 1 154 6 186 17 41 14 50 14 90 0 32 -11 96 -16 239
-18 107 -2 203 -6 213 -10 9 -4 24 -2 32 5 24 20 42 4 48 -42 8 -62 20 -438
18 -540 -2 -62 2 -95 13 -116 13 -25 14 -44 5 -112 -5 -44 -7 -85 -4 -89 3 -5
7 -106 10 -224 3 -117 10 -249 16 -293 6 -43 12 -117 15 -164 5 -85 12 -138
35 -239 9 -39 9 -62 2 -82 -7 -19 -8 -52 -3 -96 5 -38 5 -86 1 -108 -10 -51
-4 -241 10 -320 6 -33 13 -118 15 -190 3 -127 26 -364 37 -382 3 -4 6 -67 8
-138 1 -72 5 -148 10 -171 7 -32 4 -53 -12 -95 -16 -41 -22 -86 -26 -189 -8
-199 -8 -229 6 -300 7 -37 15 -173 17 -320 2 -140 7 -280 10 -310 7 -69 7 -94
-5 -255 -9 -131 0 -456 19 -668 8 -89 7 -112 -5 -130 -14 -22 -15 -47 -15
-372 0 -104 -17 -319 -28 -346 -12 -29 -9 -156 10 -524 7 -132 12 -267 11
-300 -4 -127 -3 -198 8 -430 16 -343 17 -455 5 -463 -11 -7 -139 -32 -166 -33
-8 0 -26 0 -40 1 -14 0 -185 0 -380 -1 -282 -1 -362 -4 -389 -15 -25 -11 -48
-12 -85 -6 -28 5 -82 8 -121 7 -152 -5 -272 -5 -570 -3 -341 3 -706 -6 -830
-22 -80 -10 -435 -22 -595 -20 -47 1 -90 6 -97 12 -8 6 -24 7 -40 3 -48 -14
-146 -15 -216 -4 -60 10 -74 9 -108 -7 -31 -14 -44 -15 -62 -6 -29 15 -443 23
-477 9 -34 -14 -618 -11 -635 3 -7 6 -35 10 -61 9 -27 -1 -112 3 -189 9 -89 6
-144 6 -152 0 -7 -6 -47 -5 -108 1 -69 8 -102 8 -116 0 -12 -6 -65 -10 -127
-8 -59 1 -131 -4 -161 -10 -43 -10 -64 -10 -98 -1 -23 7 -52 10 -65 7 -12 -4
-34 1 -50 11 -28 16 -31 16 -69 -6 -28 -16 -44 -20 -52 -13 -7 5 -48 13 -92
16 -44 4 -94 11 -111 16 -22 7 -38 5 -62 -7 -20 -9 -43 -13 -60 -9 -20 4 -36
0 -54 -14 -14 -11 -27 -18 -30 -16 -3 3 -71 7 -152 10 -81 2 -150 6 -154 9 -4
3 -62 6 -127 7 -66 1 -138 7 -160 12 -71 16 -353 10 -415 -9 -32 -10 -90 -17
-140 -18 -47 -1 -90 -4 -96 -8 -6 -4 -26 -3 -45 2 -46 13 -106 13 -115 -1 -5
-8 -34 -10 -95 -6 -48 4 -90 3 -93 -2 -3 -5 -31 -21 -63 -37 -65 -33 -163
-118 -163 -143 0 -23 -22 -82 -41 -111 -9 -14 -19 -38 -23 -54 -4 -16 -41 -80
-82 -142 -46 -70 -74 -122 -74 -139 0 -15 -12 -41 -26 -59 -48 -59 -101 -151
-108 -186 -3 -19 -24 -57 -46 -85 -22 -27 -44 -59 -49 -71 -5 -11 -21 -34 -35
-51 -15 -18 -34 -56 -42 -85 -9 -29 -20 -57 -25 -62 -5 -6 -9 -20 -9 -33 0
-12 -13 -38 -30 -56 -16 -19 -30 -41 -30 -50 0 -8 -7 -20 -15 -27 -8 -6 -21
-35 -29 -64 -9 -28 -27 -63 -41 -76 -14 -13 -25 -35 -25 -48 0 -14 -11 -35
-25 -48 -14 -13 -25 -32 -25 -44 0 -11 -11 -37 -24 -58 -13 -20 -27 -60 -31
-87 -5 -44 -16 -62 -87 -145 -91 -108 -138 -183 -138 -222 0 -16 -15 -44 -37
-72 -81 -96 -175 -234 -234 -340 -11 -21 -35 -60 -53 -85 -17 -25 -40 -66 -51
-91 -10 -25 -27 -56 -37 -69 -10 -13 -18 -28 -18 -33 0 -6 -9 -21 -20 -35 -12
-15 -20 -41 -20 -63 0 -21 -7 -43 -15 -50 -8 -7 -15 -17 -15 -23 0 -6 -18 -32
-40 -58 -24 -28 -44 -66 -52 -96 -6 -26 -17 -55 -24 -63 -7 -8 -20 -38 -29
-67 -19 -58 -35 -76 -62 -71 -22 4 -31 46 -36 163 -2 50 -9 99 -15 110 -14 26
-32 148 -32 218 0 30 -9 110 -20 178 -43 260 -49 308 -59 454 -5 83 -10 202
-10 265 0 63 -5 131 -11 150 -5 19 -10 67 -10 105 0 39 -4 75 -10 81 -6 6 -6
30 0 69 15 90 14 513 -1 532 -17 20 -18 354 -2 403 7 19 13 70 15 113 l3 78
-40 18 c-22 10 -51 30 -64 44 -22 24 -23 30 -16 106 6 66 4 86 -9 106 -9 13
-16 29 -16 35 0 6 -10 24 -22 40 -25 34 -47 37 -127 18 -47 -11 -53 -10 -74
10 -28 26 -64 28 -115 6 -32 -13 -49 -14 -130 -3 -75 9 -98 9 -118 -1 -21 -12
-27 -11 -44 5 -28 26 -200 32 -263 10 -55 -19 -97 -19 -125 1 -19 13 -45 15
-150 12 -70 -3 -135 -8 -144 -12 -13 -6 -26 1 -48 26 -27 28 -31 38 -26 73 4
33 1 114 -19 475 -1 19 -7 53 -13 75 -6 22 -10 72 -9 111 1 53 -3 79 -17 106
-18 33 -19 42 -7 105 10 49 10 75 3 89 -5 10 -8 39 -5 64 2 25 -1 74 -7 110
-30 174 -40 357 -47 795 -5 366 -5 376 8 391 6 8 10 96 10 241 0 229 -11 333
-51 468 -16 55 -40 204 -47 295 -3 45 -11 82 -20 92 -12 13 -14 46 -12 170 1
84 -1 167 -5 184 -6 22 -3 41 9 63 15 29 15 41 1 144 -34 253 -44 482 -24 549
9 31 9 50 -2 91 -9 34 -13 91 -10 162 1 61 2 124 2 140 -6 183 -12 250 -27
301 -12 42 -16 78 -12 127 3 38 2 80 -4 94 -5 14 -11 80 -13 146 -3 96 0 125
13 148 13 23 14 33 3 61 -13 37 -16 130 -5 142 6 6 10 187 14 616 1 85 -4 187
-10 225 -8 55 -7 114 6 270 13 163 14 217 5 292 -8 64 -9 100 -2 119 6 15 10
50 9 78 -2 94 20 236 42 265 14 20 21 46 23 88 2 70 24 110 64 118 15 4 50 17
78 31 28 13 63 24 77 24 14 0 29 5 32 10 3 6 21 10 39 10 20 0 40 8 51 20 22
24 90 27 122 5 14 -10 43 -15 85 -14 34 1 99 -2 143 -6 115 -10 111 -10 219
10 75 13 120 16 180 10 45 -4 161 -9 258 -11 98 -2 186 -8 197 -13 13 -7 44
-8 93 -1 47 6 89 5 117 -1 30 -7 54 -6 78 2 26 8 37 8 49 -2 11 -9 39 -10 112
-4 53 4 106 8 117 7 96 -3 735 -3 742 0 4 3 42 5 84 6 42 1 100 7 129 12 29 6
69 10 89 10 21 0 42 5 49 12 7 7 27 13 45 15 93 7 144 17 159 30 12 11 67 16
235 23 120 4 236 6 258 3 22 -2 87 -10 145 -17z m8440 -1776 c41 -5 106 -12
145 -15 42 -4 76 -12 87 -22 14 -13 20 -13 33 -3 12 10 30 8 97 -13 46 -14
106 -29 133 -32 28 -4 58 -11 69 -17 10 -5 50 -11 89 -13 38 -2 75 -9 80 -14
6 -6 22 -11 35 -11 23 0 80 -21 112 -41 8 -5 31 -16 50 -24 19 -9 43 -20 52
-25 10 -6 38 -10 62 -10 32 0 53 -7 73 -23 43 -36 123 -71 166 -73 21 -1 46
-9 56 -18 10 -9 24 -16 32 -16 8 0 30 -10 49 -22 19 -13 51 -23 70 -23 25 0
37 -6 45 -21 19 -38 34 -50 74 -64 22 -7 58 -29 80 -49 80 -73 124 -102 145
-97 15 4 32 -8 69 -49 27 -30 57 -55 67 -55 9 0 23 -7 30 -15 7 -8 19 -15 27
-15 7 0 34 -21 59 -47 52 -53 159 -126 207 -142 18 -6 68 -45 112 -87 44 -42
103 -96 130 -119 28 -24 65 -64 84 -89 19 -25 40 -46 46 -46 6 0 30 -16 52
-35 23 -19 46 -35 52 -35 5 0 16 -8 23 -19 18 -25 144 -166 189 -210 19 -20
51 -58 69 -86 19 -27 57 -73 85 -102 51 -52 75 -101 75 -159 0 -16 7 -38 15
-48 8 -11 15 -27 15 -36 0 -9 13 -31 30 -50 19 -24 29 -46 30 -69 0 -19 16
-74 35 -122 19 -49 35 -102 35 -118 0 -17 5 -33 10 -36 6 -3 10 -16 10 -28 0
-20 9 -43 56 -140 8 -16 14 -41 14 -57 0 -16 6 -41 14 -57 17 -34 46 -129 46
-152 0 -9 7 -27 16 -40 12 -17 15 -36 11 -70 -4 -34 0 -59 13 -88 21 -47 40
-131 40 -176 0 -18 5 -38 11 -44 7 -7 11 -49 11 -106 -1 -104 6 -159 38 -292
12 -49 24 -130 27 -180 3 -60 10 -96 20 -107 12 -14 14 -38 9 -140 -8 -181
-20 -301 -31 -318 -11 -16 -37 -220 -34 -260 8 -104 1 -315 -14 -380 -5 -25
-13 -76 -17 -115 -12 -104 -25 -154 -49 -186 -14 -19 -20 -37 -16 -49 8 -24
-13 -138 -30 -165 -7 -11 -15 -42 -19 -70 -10 -69 -22 -107 -67 -202 -22 -45
-39 -91 -39 -102 0 -11 -5 -23 -10 -26 -15 -9 -45 -80 -61 -140 -7 -27 -23
-63 -36 -78 -13 -16 -23 -33 -23 -38 0 -5 -15 -26 -34 -46 -18 -21 -36 -51
-40 -68 -4 -16 -18 -43 -30 -60 -22 -30 -66 -115 -66 -128 0 -4 -10 -24 -23
-45 -13 -20 -31 -58 -40 -83 -10 -25 -29 -56 -42 -69 -14 -13 -25 -29 -25 -35
0 -7 -14 -30 -31 -51 -17 -22 -47 -73 -67 -114 -47 -100 -86 -156 -145 -209
-27 -25 -53 -55 -58 -68 -5 -13 -23 -32 -41 -43 -18 -11 -51 -46 -73 -77 -24
-34 -55 -65 -75 -75 -19 -9 -46 -28 -59 -42 -14 -14 -34 -26 -46 -26 -12 0
-36 -18 -58 -45 -22 -26 -46 -45 -58 -45 -22 0 -93 -45 -123 -79 -11 -11 -29
-21 -41 -21 -11 0 -37 -16 -56 -36 -46 -47 -110 -82 -167 -89 -26 -4 -69 -16
-96 -27 -27 -11 -82 -22 -123 -25 -50 -4 -77 -11 -80 -20 -3 -8 -13 -11 -24
-8 -12 4 -22 -1 -29 -15 -10 -18 -19 -21 -58 -19 -27 2 -58 -3 -72 -11 -23
-12 -91 -23 -230 -36 -30 -3 -65 -10 -76 -15 -15 -8 -28 -8 -43 0 -22 12 -58
-1 -103 -37 -11 -9 -27 -12 -48 -7 -20 4 -38 2 -53 -8 -12 -8 -35 -17 -52 -20
-124 -24 -255 -46 -281 -47 -17 0 -37 -6 -43 -14 -8 -9 -46 -15 -124 -19 -61
-3 -148 -11 -192 -17 -44 -6 -154 -13 -245 -15 -91 -2 -194 -9 -230 -15 -36
-7 -90 -15 -120 -19 -30 -4 -64 -12 -75 -18 -20 -10 -80 -18 -248 -31 -91 -7
-194 -1 -287 17 -50 10 -56 9 -69 -9 -16 -23 -32 -24 -84 -6 -33 12 -41 12
-73 -5 -20 -10 -42 -26 -49 -36 -20 -27 -9 -426 22 -751 4 -45 0 -82 -12 -129
-16 -57 -16 -74 -6 -134 14 -75 10 -108 -23 -184 -21 -47 -22 -64 -20 -288 2
-263 2 -263 -59 -234 -18 8 -43 20 -57 26 -14 6 -37 19 -52 29 -122 79 -268
162 -286 162 -14 0 -27 11 -37 31 -10 19 -22 29 -31 25 -8 -3 -21 5 -30 20
-10 14 -23 23 -30 20 -8 -3 -19 4 -25 15 -6 12 -17 18 -26 15 -9 -4 -35 15
-73 54 -56 56 -123 100 -153 100 -8 0 -26 9 -40 20 -14 11 -33 20 -42 20 -9 0
-36 16 -59 35 -24 19 -54 35 -68 35 -13 0 -35 12 -49 26 -49 53 -116 94 -151
94 -25 0 -42 8 -63 30 -16 16 -39 30 -51 30 -12 0 -25 7 -28 15 -3 9 -21 22
-40 30 -20 8 -40 24 -46 35 -6 11 -15 20 -21 20 -5 0 -44 34 -86 76 -43 42
-95 85 -116 97 -22 12 -51 28 -64 35 -13 8 -28 25 -33 38 -5 13 -16 24 -24 24
-8 0 -36 25 -62 54 -26 30 -56 56 -67 58 -11 2 -28 15 -36 30 -17 28 -129 153
-224 251 -56 58 -58 59 -88 47 -17 -7 -70 -14 -117 -15 -48 -2 -95 -6 -104
-10 -9 -3 -27 -1 -40 6 -14 8 -59 12 -123 10 -67 -1 -121 4 -163 15 -60 16
-65 16 -92 1 -28 -17 -29 -17 -42 10 -15 32 -46 40 -167 46 -45 2 -87 9 -94
16 -6 6 -33 11 -59 11 -27 0 -63 7 -80 16 -21 11 -51 15 -100 12 -58 -2 -71 0
-79 15 -8 13 -24 17 -75 17 -50 0 -71 5 -93 21 -21 16 -43 21 -83 21 -33 0
-69 7 -96 20 -23 11 -49 17 -58 14 -8 -3 -32 5 -52 19 -20 14 -46 25 -58 25
-47 0 -174 67 -238 126 -81 74 -120 104 -139 104 -26 0 -84 29 -90 44 -3 8
-24 24 -47 36 -22 11 -40 25 -40 31 0 5 -15 16 -33 24 -19 8 -48 28 -66 44
-20 19 -44 31 -60 31 -30 0 -51 16 -51 40 0 20 -83 90 -106 90 -18 0 -74 47
-74 62 0 4 -26 34 -57 66 -104 106 -273 296 -293 329 -10 17 -32 41 -49 54
-16 12 -35 36 -41 53 -6 17 -18 45 -25 61 -17 37 -48 232 -43 271 2 20 12 33
31 42 37 18 207 27 249 13 38 -12 230 -26 338 -24 41 1 131 6 200 13 126 12
160 13 215 10 17 -1 125 -2 240 -2 227 0 240 0 362 -18 62 -9 86 -9 103 0 17
9 25 9 38 -4 26 -23 337 -24 412 -1 58 17 101 17 760 -1 113 -3 219 -6 235 -6
35 -1 330 11 330 13 0 1 91 2 202 3 112 1 206 5 209 9 4 4 39 4 79 0 49 -4 79
-2 95 7 13 7 62 15 109 17 176 8 197 10 236 18 22 4 45 12 52 17 12 10 148
-17 169 -34 7 -5 22 -4 37 3 20 9 65 8 204 -6 98 -10 207 -17 243 -16 36 0
114 1 174 2 79 0 115 5 132 16 14 9 32 12 45 8 12 -4 97 -8 190 -10 113 -1
173 -6 183 -14 10 -9 82 -11 275 -9 l260 3 64 63 c38 37 67 59 72 53 6 -4 27
-11 47 -14 33 -5 40 -2 69 30 27 32 30 41 24 72 -4 20 -7 86 -6 148 0 62 -4
115 -9 118 -5 3 -9 36 -9 73 1 37 -5 99 -12 137 -9 47 -14 174 -15 385 -1 333
-8 544 -20 574 -4 9 -3 63 1 119 4 56 9 145 11 197 2 52 9 124 15 160 11 62
14 175 8 410 -1 58 -1 173 2 256 3 121 1 154 -10 168 -12 14 -12 26 -3 64 6
26 10 88 8 137 -10 225 -19 361 -27 377 -6 10 -5 28 2 45 7 18 11 142 11 363
-1 324 -10 517 -31 610 -6 29 -6 71 0 120 13 103 22 329 21 545 -1 172 -2 182
-26 227 -23 43 -25 58 -25 185 -1 147 -1 148 4 263 1 41 -5 142 -13 223 -13
121 -14 152 -3 169 10 16 10 26 -2 51 -17 37 -42 241 -32 258 5 7 21 9 41 6
19 -3 36 -1 39 4 4 5 17 9 29 9 13 0 29 7 36 15 13 16 89 15 250 -5z"/>
<path d="M10125 11431 c-6 -5 -44 -10 -85 -10 -41 -1 -85 -1 -97 -2 -13 0 -57
0 -98 0 -41 0 -99 1 -127 1 -29 0 -96 1 -148 2 -121 3 -159 2 -360 -6 -91 -4
-181 -7 -200 -5 -19 1 -53 1 -75 0 -22 0 -92 -1 -155 -1 -63 1 -162 0 -220 -2
-58 -1 -140 -1 -183 1 -59 1 -85 -2 -104 -14 -30 -20 -169 -23 -229 -5 -38 11
-44 11 -72 -10 -26 -20 -35 -21 -59 -12 -48 19 -148 19 -169 1 -17 -14 -34
-15 -134 -8 -63 5 -132 6 -153 3 -21 -3 -43 -2 -50 4 -18 14 -63 23 -71 14
-15 -14 -190 -11 -236 4 -29 10 -83 16 -150 16 -189 0 -335 6 -354 13 -10 5
-27 3 -37 -3 -10 -6 -53 -11 -96 -11 -43 1 -91 -4 -106 -10 -16 -6 -32 -9 -37
-6 -12 8 -529 -13 -585 -24 -40 -8 -55 -7 -73 5 -19 13 -32 14 -70 5 -61 -15
-484 -22 -529 -9 -42 12 -321 -9 -341 -25 -24 -19 -43 -80 -37 -115 8 -41 72
-112 102 -112 12 0 34 -5 49 -10 30 -12 166 3 212 22 15 7 61 10 102 9 60 -2
80 -7 98 -24 13 -12 35 -20 55 -20 156 3 287 2 300 -3 8 -3 33 0 55 6 23 6 94
13 159 15 297 13 367 16 494 25 75 5 148 15 163 21 21 10 34 10 61 0 18 -6 44
-9 57 -6 45 12 156 13 323 4 234 -12 537 -15 553 -5 7 4 26 3 42 -4 20 -8 59
-10 122 -6 51 4 119 6 150 6 37 -1 66 5 82 15 19 13 48 17 123 16 173 -2 192
-1 198 9 3 6 19 10 35 10 16 0 41 5 55 12 19 8 31 8 50 0 15 -7 97 -12 212
-13 114 -1 194 -6 204 -12 13 -8 24 -8 41 2 17 9 35 9 65 3 28 -6 57 -6 90 2
27 6 103 10 173 8 292 -7 579 1 607 16 18 10 22 9 25 -5 3 -15 21 -18 148 -21
204 -5 218 -5 256 3 20 3 53 22 75 42 44 40 49 68 23 133 -22 56 -92 97 -119
71z"/>
<path d="M11535 9129 c-5 -7 -26 -10 -57 -7 -27 3 -51 1 -55 -5 -3 -6 -35 -7
-81 -3 -48 4 -80 2 -88 -5 -7 -6 -79 -12 -171 -14 -87 -2 -196 -8 -243 -13
-56 -6 -91 -6 -104 0 -12 7 -26 7 -40 0 -33 -15 -194 -32 -219 -23 -13 5 -59
3 -111 -5 -49 -7 -93 -11 -96 -9 -4 3 -31 0 -61 -4 -30 -5 -88 -6 -128 -1 -41
4 -86 4 -100 0 -86 -26 -141 -32 -197 -22 -37 6 -77 7 -109 1 -27 -5 -140 -16
-250 -24 -110 -8 -206 -17 -213 -20 -7 -2 -109 -5 -228 -6 -119 -1 -257 -5
-307 -10 -105 -10 -403 -18 -1182 -34 -154 -3 -314 -9 -355 -14 -42 -6 -81 -6
-90 -1 -9 5 -72 7 -141 4 -75 -2 -181 2 -268 12 -79 8 -167 15 -195 15 -28 0
-143 3 -256 6 -268 8 -566 10 -890 3 -163 -3 -229 2 -294 22 -54 16 -73 18
-88 9 -10 -6 -50 -16 -89 -21 -39 -6 -75 -12 -79 -15 -15 -9 -42 -92 -38 -116
4 -32 132 -109 228 -138 25 -7 57 -19 72 -27 29 -16 74 -19 82 -5 3 5 20 11
38 14 18 2 58 10 89 16 45 9 63 9 96 -3 32 -11 54 -12 104 -4 35 5 141 13 235
17 122 4 176 10 187 20 11 8 26 11 44 6 16 -4 93 -7 172 -6 80 0 150 -4 155
-8 6 -5 90 -12 186 -15 96 -4 229 -10 295 -14 141 -8 500 -7 705 3 80 4 156 7
170 7 44 -1 229 1 440 4 113 2 243 4 289 4 46 0 89 4 95 9 7 6 61 11 121 12
61 1 118 6 128 11 10 5 156 11 325 13 371 6 496 11 542 24 35 10 258 24 360
21 30 0 71 4 90 9 65 18 272 32 325 22 31 -6 56 -6 67 0 10 5 79 10 155 10 75
0 145 5 155 10 10 6 87 11 171 13 242 6 430 17 458 27 18 7 51 7 98 0 57 -7
79 -7 105 4 49 21 525 16 551 -5 15 -12 55 -15 217 -15 l200 -1 20 43 c11 24
24 46 29 49 14 8 10 62 -6 95 -28 53 -64 58 -385 62 -113 1 -210 5 -215 9 -11
6 -172 10 -270 5 -27 -1 -60 2 -72 6 -13 5 -24 4 -28 -4z"/>
</g>
</svg>
