<svg xmlns="http://www.w3.org/2000/svg" xmlns:xlink="http://www.w3.org/1999/xlink" version="1.1" x="0px" y="0px" viewBox="25.42 25.42 49.15 49.15" width="100"><title>Close 2.15</title><desc>Created with Sketch.</desc><g stroke="none" stroke-width="1" fill="none" fill-rule="evenodd"><g fill="#343434"><path d="M73.5263156,36.4736844 C74.8924938,35.1075062 74.8916171,32.8916171 73.5280893,31.5280893 L68.4719107,26.4719107 C67.1067121,25.1067121 64.8876142,25.1123858 63.5263156,26.4736844 L52.4736844,37.5263156 C51.1075062,38.8924938 48.8876142,38.8876142 47.5263156,37.5263156 L36.4736844,26.4736844 C35.1075062,25.1075062 32.8916171,25.1083829 31.5280893,26.4719107 L26.4719107,31.5280893 C25.1067121,32.8932879 25.1123858,35.1123858 26.4736844,36.4736844 L37.5263156,47.5263156 C38.8924938,48.8924938 38.8876142,51.1123858 37.5263156,52.4736844 L26.4736844,63.5263156 C25.1075062,64.8924938 25.1083829,67.1083829 26.4719107,68.4719107 L31.5280893,73.5280893 C32.8932879,74.8932879 35.1123858,74.8876142 36.4736844,73.5263156 L47.5263156,62.4736844 C48.8924938,61.1075062 51.1123858,61.1123858 52.4736844,62.4736844 L63.5263156,73.5263156 C64.8924938,74.8924938 67.1083829,74.8916171 68.4719107,73.5280893 L73.5280893,68.4719107 C74.8932879,67.1067121 74.8876142,64.8876142 73.5263156,63.5263156 L62.4736844,52.4736844 C61.1075062,51.1075062 61.1123858,48.8876142 62.4736844,47.5263156 L73.5263156,36.4736844 Z"></path></g></g><text x="0" y="115" fill="#343434" font-size="5px" font-weight="bold" font-family="'Helvetica Neue', Helvetica, Arial-Unicode, Arial, Sans-serif">Created by Landan Lloyd</text><text x="0" y="120" fill="#343434" font-size="5px" font-weight="bold" font-family="'Helvetica Neue', Helvetica, Arial-Unicode, Arial, Sans-serif">from the Noun Project</text></svg>
