<?xml version="1.0" standalone="no"?>
<!DOCTYPE svg PUBLIC "-//W3C//DTD SVG 20010904//EN"
 "http://www.w3.org/TR/2001/REC-SVG-20010904/DTD/svg10.dtd">
<svg version="1.0" xmlns="http://www.w3.org/2000/svg"
 width="545.173816pt" height="626.103732pt" viewBox="0 0 545.173816 626.103732"
 preserveAspectRatio="xMidYMid meet">
<metadata>
Created by potrace 1.16, written by Peter Selinger 2001-2019
</metadata>
<g transform="translate(-148.268215,698.689843) scale(0.100000,-0.100000)"
fill="#000000" stroke="none">
<path d="M3290 6974 c-30 -8 -60 -16 -66 -17 -7 -2 -18 -8 -26 -14 -19 -16
-298 -25 -315 -11 -40 33 -280 18 -329 -21 -15 -11 -32 -21 -38 -21 -6 -1 -21
-9 -34 -20 -22 -18 -22 -19 -7 -76 8 -32 15 -66 15 -76 0 -19 -38 -82 -68
-113 -14 -14 -22 -40 -26 -85 -3 -36 -10 -112 -15 -170 -6 -58 -11 -143 -13
-190 -2 -73 -13 -132 -36 -190 -3 -8 -6 -47 -7 -86 -1 -38 -5 -76 -10 -83 -4
-8 -9 -44 -11 -82 -1 -38 -5 -73 -9 -79 -4 -7 -9 -28 -10 -48 -2 -20 -10 -64
-18 -97 -9 -33 -13 -63 -11 -67 3 -4 0 -16 -6 -27 -5 -11 -12 -59 -14 -108 -3
-52 -13 -109 -24 -140 -11 -28 -17 -54 -14 -57 2 -3 0 -11 -5 -18 -12 -15 -25
-91 -28 -168 -3 -72 -22 -150 -42 -172 -11 -12 -13 -22 -6 -30 19 -24 -4 -265
-27 -293 -6 -7 -13 -54 -16 -106 -4 -52 -11 -102 -16 -113 -7 -12 -6 -22 1
-29 16 -16 13 -68 -5 -88 -11 -12 -17 -40 -19 -77 -1 -36 -9 -69 -19 -83 -9
-13 -16 -40 -16 -59 0 -20 -7 -45 -15 -56 -8 -10 -15 -39 -15 -64 0 -27 -8
-58 -20 -77 -19 -32 -41 -148 -60 -318 -5 -44 -15 -113 -23 -154 -8 -40 -12
-84 -9 -97 2 -13 -5 -38 -16 -56 -25 -42 -35 -85 -22 -93 14 -9 13 -58 -2 -73
-6 -6 -12 -36 -13 -67 -1 -30 -5 -58 -8 -62 -4 -3 -7 -21 -7 -38 0 -18 -7 -49
-15 -68 -8 -20 -15 -45 -15 -56 0 -11 -5 -32 -12 -48 -6 -15 -12 -39 -14 -53
-7 -80 -14 -110 -33 -145 -12 -22 -21 -44 -21 -48 0 -5 -9 -20 -20 -34 -11
-14 -20 -40 -20 -57 0 -17 -7 -40 -15 -50 -8 -11 -15 -27 -15 -35 0 -17 -43
-127 -54 -138 -3 -3 -6 -18 -6 -33 0 -14 -4 -30 -10 -36 -5 -5 -12 -41 -15
-79 -3 -38 -9 -71 -14 -74 -5 -3 -14 -53 -21 -111 -17 -142 -10 -163 88 -268
l78 -84 104 -7 c58 -4 109 -4 114 1 13 11 60 10 72 -2 5 -5 46 -12 91 -16 68
-6 86 -11 104 -30 13 -13 33 -24 47 -24 13 0 37 -13 54 -30 16 -17 42 -32 56
-35 44 -9 133 -57 190 -102 30 -24 61 -43 70 -44 17 0 24 -4 123 -71 60 -39
105 -54 187 -62 29 -2 59 -9 65 -14 7 -5 35 -12 62 -16 28 -3 75 -18 105 -33
30 -15 68 -28 84 -30 17 -2 40 -10 51 -17 12 -8 62 -17 111 -21 104 -8 102 -8
176 1 31 3 86 1 122 -5 75 -13 186 0 207 25 6 8 18 14 25 14 18 0 74 87 74
113 0 11 8 34 19 51 10 17 22 56 25 86 4 30 11 59 15 65 5 5 11 24 14 42 4 17
16 52 27 77 16 34 19 49 11 64 -15 28 4 44 35 30 17 -8 24 -20 24 -38 0 -15
10 -36 25 -50 14 -13 25 -28 25 -33 0 -15 72 -81 103 -94 15 -7 37 -13 47 -13
10 0 23 -6 27 -14 5 -7 43 -18 93 -25 47 -7 100 -15 118 -18 19 -3 39 0 47 7
17 14 238 25 265 14 8 -4 46 -8 84 -11 38 -2 77 -8 87 -13 10 -6 36 -10 59
-10 23 0 51 -5 62 -11 33 -18 118 -20 197 -5 54 10 79 11 101 3 21 -8 35 -8
55 1 17 8 32 9 43 3 11 -6 24 -6 34 0 11 6 24 6 35 1 33 -17 88 -34 113 -36
14 -1 37 -7 53 -14 33 -14 154 -10 184 6 12 7 57 12 101 12 109 0 158 19 239
94 109 99 126 106 248 104 97 -3 105 -1 129 21 14 14 26 30 26 36 0 6 6 19 13
29 13 17 15 17 48 -3 48 -30 72 -26 109 15 44 51 54 81 35 110 -8 13 -24 47
-36 76 -11 28 -28 58 -38 65 -10 7 -26 31 -35 53 -9 22 -20 40 -25 40 -6 0
-19 19 -31 43 -11 23 -36 67 -55 97 -19 30 -46 79 -60 107 -15 29 -41 65 -60
80 -18 16 -43 48 -56 73 -13 25 -47 75 -76 111 -29 36 -53 69 -53 73 0 15 -84
106 -97 106 -7 0 -13 4 -13 9 0 4 -11 20 -25 35 -14 15 -25 33 -25 41 0 8 -8
20 -17 27 -30 22 -63 76 -57 92 3 9 -3 19 -16 26 -12 6 -28 26 -36 43 -35 76
-103 167 -124 167 -5 0 -16 17 -25 38 -9 20 -22 47 -28 59 -15 28 -85 103 -96
103 -5 0 -14 15 -22 33 -7 17 -31 50 -52 72 -22 22 -60 66 -85 97 -25 32 -50
58 -56 58 -16 0 -86 121 -86 148 0 17 6 22 25 22 14 0 34 5 45 10 11 6 29 15
40 20 11 5 28 10 37 10 21 0 89 23 99 33 4 4 22 7 39 7 35 0 100 23 110 40 3
5 17 10 30 10 13 0 27 4 30 10 3 6 14 10 23 10 9 0 36 21 60 45 24 25 51 45
60 45 22 0 112 83 112 102 0 8 27 36 59 62 33 25 62 54 66 64 3 9 22 29 43 44
21 14 47 43 58 64 10 21 45 64 77 95 31 31 57 65 57 76 0 10 12 36 26 56 24
36 26 45 24 145 -2 102 4 184 14 201 3 4 8 68 11 142 3 73 11 139 16 145 6 8
7 28 3 51 -5 21 -7 46 -5 56 1 10 -5 29 -13 42 -9 13 -16 39 -16 58 0 18 -5
38 -12 45 -6 6 -13 22 -14 34 -1 13 -12 61 -24 108 -12 47 -25 101 -29 121 -4
20 -22 56 -39 80 -17 24 -34 63 -38 86 -4 24 -12 47 -20 53 -7 6 -20 36 -30
66 -9 30 -25 59 -36 65 -10 5 -25 25 -33 44 -7 19 -19 35 -24 35 -6 0 -11 7
-11 14 0 20 -59 106 -76 113 -8 3 -14 13 -14 22 -1 24 -76 137 -106 158 -14
10 -62 53 -106 95 -44 42 -95 87 -114 100 -18 13 -34 28 -34 35 0 6 -9 14 -20
18 -11 3 -28 17 -39 31 -10 13 -23 24 -29 24 -9 0 -35 23 -138 121 -23 21 -46
39 -52 39 -5 0 -15 7 -22 15 -7 8 -19 15 -27 15 -8 0 -31 13 -51 29 -20 16
-74 41 -119 56 -45 14 -93 35 -106 46 -14 10 -28 19 -31 19 -4 0 -23 11 -44
24 -26 16 -47 22 -66 19 -28 -6 -138 26 -196 57 -19 10 -57 22 -85 26 -27 4
-65 14 -85 22 -47 20 -223 45 -340 48 -171 4 -325 14 -345 24 -43 19 -261 38
-293 25 -32 -13 -124 -16 -138 -5 -7 7 -22 9 -33 5 -12 -4 -30 0 -42 9 -12 8
-28 12 -36 9 -7 -3 -22 2 -33 12 -14 12 -28 16 -50 12 -16 -4 -30 -3 -30 1 0
14 -113 11 -170 -4z m200 -209 c21 -7 47 -11 58 -9 10 3 40 -4 65 -16 35 -17
56 -21 84 -16 45 8 43 8 263 -2 96 -5 182 -12 191 -16 10 -4 20 -3 24 4 5 8
11 8 22 -1 9 -8 53 -14 111 -16 53 -1 120 -7 147 -13 59 -13 46 -13 168 -5 85
6 101 4 117 -10 12 -11 28 -15 41 -12 13 3 41 -3 65 -14 24 -10 54 -19 67 -19
14 0 30 -7 37 -15 7 -8 18 -15 25 -15 6 0 32 -11 56 -23 24 -13 74 -30 111
-36 37 -7 73 -19 79 -27 6 -8 17 -14 24 -14 21 0 103 -39 132 -64 15 -13 39
-27 53 -31 14 -4 31 -12 37 -17 7 -6 40 -23 74 -39 40 -19 82 -51 123 -93 33
-35 71 -67 84 -71 12 -3 34 -24 47 -45 13 -21 33 -41 45 -45 11 -3 20 -12 20
-18 0 -14 87 -97 102 -97 16 0 64 -53 89 -101 28 -51 92 -139 130 -178 14 -15
29 -36 33 -48 4 -12 18 -41 31 -65 14 -24 30 -54 37 -68 7 -14 21 -35 33 -46
11 -12 29 -48 40 -80 11 -33 29 -79 41 -104 11 -25 27 -72 34 -105 7 -33 17
-65 23 -72 5 -7 6 -17 2 -22 -3 -6 1 -34 10 -63 9 -29 18 -83 20 -120 2 -37 9
-83 16 -103 10 -27 11 -40 2 -54 -7 -11 -10 -44 -8 -77 3 -36 -2 -80 -12 -111
-12 -41 -13 -56 -4 -67 10 -11 10 -20 1 -36 -7 -14 -9 -40 -5 -71 5 -33 3 -54
-5 -64 -6 -8 -9 -22 -6 -33 11 -33 -10 -112 -38 -141 -14 -15 -26 -35 -26 -45
0 -28 -37 -83 -60 -89 -11 -3 -25 -18 -32 -34 -18 -40 -68 -102 -88 -108 -10
-3 -30 -24 -45 -45 -16 -22 -38 -43 -51 -46 -12 -3 -32 -17 -45 -30 -12 -13
-28 -24 -34 -24 -7 0 -20 -9 -30 -20 -10 -11 -24 -20 -30 -20 -7 0 -24 -9 -38
-20 -14 -11 -36 -20 -49 -20 -13 0 -33 -7 -44 -15 -10 -8 -27 -15 -36 -15 -10
0 -18 -4 -18 -9 0 -6 -21 -13 -47 -17 -54 -7 -135 -27 -173 -42 -14 -5 -60 -7
-103 -4 -63 4 -84 1 -112 -14 -37 -20 -58 -54 -45 -74 11 -18 6 -26 -41 -56
-22 -13 -37 -29 -34 -34 3 -6 8 -19 10 -31 2 -12 18 -34 35 -50 16 -16 30 -34
30 -39 0 -5 12 -17 28 -27 15 -9 53 -41 84 -70 31 -29 61 -53 67 -53 6 0 11
-6 11 -14 0 -8 4 -16 8 -18 14 -5 162 -186 162 -198 0 -5 5 -10 10 -10 6 0 10
-7 10 -15 0 -9 11 -20 25 -25 14 -5 25 -14 25 -19 0 -14 40 -71 78 -110 17
-19 32 -44 32 -56 0 -13 19 -40 45 -66 30 -30 43 -50 39 -61 -3 -10 -1 -18 4
-18 9 0 62 -77 62 -91 0 -5 4 -9 9 -9 10 0 33 -52 29 -66 -7 -22 34 -96 62
-112 17 -9 39 -35 50 -57 11 -22 45 -65 76 -95 31 -30 80 -79 109 -108 30 -29
59 -68 65 -86 6 -19 17 -37 25 -40 8 -3 15 -14 15 -25 0 -11 5 -23 10 -26 6
-3 10 -14 10 -24 0 -10 7 -24 15 -31 8 -7 15 -21 15 -31 0 -11 5 -19 10 -19 6
0 14 -9 18 -19 4 -11 23 -30 42 -43 31 -21 36 -30 46 -95 7 -39 17 -80 23 -91
15 -28 -3 -40 -75 -48 -32 -3 -74 -15 -92 -25 -18 -11 -43 -19 -56 -19 -13 0
-31 -9 -41 -20 -10 -11 -24 -20 -31 -20 -7 0 -19 -10 -25 -22 -20 -38 -50 -58
-85 -58 -23 0 -37 -6 -44 -20 -7 -13 -21 -20 -40 -20 -16 0 -31 -4 -34 -8 -3
-5 -48 -9 -100 -10 -51 -1 -106 -6 -121 -12 -34 -13 -142 -13 -150 0 -3 6 -26
10 -51 10 -25 0 -55 5 -67 12 -25 14 -169 18 -292 8 -76 -6 -204 5 -235 20 -3
1 -18 3 -35 5 -16 1 -52 8 -80 14 -79 20 -228 29 -380 25 -128 -4 -144 -3
-185 16 -48 23 -114 98 -144 162 -9 20 -21 40 -26 43 -6 3 -10 17 -10 30 0 31
-33 79 -90 132 -42 39 -48 41 -86 34 -78 -15 -184 -109 -184 -164 0 -14 -4
-28 -8 -31 -5 -3 -12 -58 -15 -123 -4 -65 -11 -134 -18 -153 -6 -19 -10 -56
-9 -81 1 -37 -5 -53 -30 -83 -16 -22 -30 -43 -30 -47 0 -35 -18 -59 -45 -59
-13 0 -35 -4 -48 -9 -15 -6 -41 -6 -68 1 -31 7 -80 6 -164 -3 -116 -12 -121
-11 -162 10 -23 11 -51 21 -62 21 -11 0 -23 5 -26 10 -3 6 -20 10 -36 10 -17
0 -42 6 -57 14 -15 7 -45 17 -67 21 -22 4 -44 10 -50 15 -10 8 -54 16 -135 26
-25 4 -52 12 -60 19 -8 7 -33 22 -56 33 -22 11 -46 28 -53 36 -8 9 -22 16 -31
16 -10 0 -49 25 -86 55 -47 39 -73 54 -86 50 -12 -4 -33 5 -60 27 -24 19 -54
39 -68 45 -134 62 -170 76 -205 79 -22 2 -56 8 -75 13 -19 5 -64 17 -100 26
-36 10 -71 22 -77 27 -7 6 -42 13 -77 15 -80 7 -103 27 -122 110 -11 47 -11
61 0 78 7 11 11 36 8 56 -2 21 2 49 11 65 8 16 20 53 26 82 6 29 22 74 35 100
13 27 29 70 35 98 20 96 24 109 41 134 27 38 52 118 57 180 2 30 10 62 17 70
6 8 13 50 15 94 1 43 7 102 13 130 5 28 12 71 15 96 3 25 10 51 16 58 5 7 11
41 11 76 1 48 6 69 20 85 11 12 16 29 13 41 -3 12 1 38 10 58 13 32 22 86 22
130 -1 82 14 224 25 241 10 15 25 72 31 116 13 98 46 228 69 273 12 24 29 103
30 142 1 8 5 21 9 27 4 7 8 59 9 115 0 57 4 121 10 142 10 41 17 98 23 176 1
25 10 62 18 82 9 23 14 51 10 72 -3 19 -1 36 6 40 6 4 11 37 11 78 0 38 7 98
16 131 9 34 19 91 24 127 13 103 19 131 29 144 11 14 21 85 26 189 2 43 11 97
21 120 21 52 34 117 42 227 4 47 10 90 15 97 4 7 9 45 10 85 2 41 7 79 11 86
4 7 5 20 2 30 -4 10 1 39 10 63 11 30 16 72 15 136 -2 89 12 173 27 173 5 0
12 -4 18 -9 5 -4 21 -11 37 -15 43 -10 77 32 79 98 0 28 0 58 -1 66 -1 8 -2
51 -1 95 0 44 0 92 0 107 0 23 7 31 46 49 39 17 51 19 70 9 34 -19 367 -6 396
15 13 8 34 15 49 15 15 0 32 7 39 15 29 35 116 40 200 10z"/>
<path d="M3476 6471 c-3 -4 -76 -10 -162 -13 -132 -4 -158 -7 -166 -21 -7 -14
-13 -15 -29 -6 -24 12 -158 4 -173 -11 -6 -6 -17 -10 -26 -10 -20 0 -90 -65
-90 -84 0 -7 -9 -21 -21 -32 -12 -10 -28 -32 -36 -48 -8 -16 -24 -38 -34 -50
-23 -24 -18 -69 13 -102 20 -22 36 -134 19 -134 -17 0 -22 -50 -6 -73 8 -13
12 -27 8 -30 -3 -4 -7 -28 -9 -55 -6 -126 -16 -233 -25 -287 -6 -33 -12 -73
-13 -90 -1 -16 -9 -44 -19 -61 -9 -17 -13 -34 -10 -38 8 -8 8 -57 -1 -121 -3
-27 -8 -79 -11 -115 -4 -40 -11 -69 -20 -76 -11 -8 -15 -31 -15 -81 0 -47 -6
-82 -19 -109 -21 -44 -26 -146 -9 -180 8 -17 5 -36 -10 -80 -11 -33 -20 -66
-21 -74 0 -8 -6 -46 -11 -85 -6 -38 -13 -90 -15 -115 -15 -173 -19 -206 -25
-215 -4 -5 -10 -44 -13 -85 -3 -41 -10 -86 -15 -100 -12 -28 -24 -75 -27 -105
-6 -61 -28 -183 -37 -198 -9 -17 -14 -53 -23 -147 -7 -71 -15 -126 -25 -160
-6 -19 -17 -69 -25 -110 -8 -41 -17 -84 -19 -95 -23 -109 -27 -135 -26 -165 0
-20 -11 -58 -27 -89 -15 -30 -26 -66 -25 -80 2 -15 -4 -45 -12 -69 -9 -23 -21
-82 -27 -130 -7 -48 -16 -92 -21 -99 -5 -7 -7 -20 -4 -30 3 -10 -1 -30 -9 -45
-7 -16 -17 -49 -21 -75 -4 -27 -11 -59 -16 -73 -8 -20 -37 -233 -38 -277 0 -7
-15 -20 -32 -29 -54 -26 -98 -80 -98 -118 0 -31 24 -65 46 -66 5 -1 18 -15 29
-32 11 -17 27 -34 35 -38 8 -4 29 -14 45 -23 17 -9 50 -18 73 -21 23 -3 77
-10 121 -17 45 -6 87 -9 95 -6 23 9 158 -14 200 -34 22 -11 48 -19 57 -19 10
0 26 -11 37 -25 11 -14 26 -25 35 -25 8 0 26 -9 40 -20 14 -11 35 -20 46 -20
12 0 21 -4 21 -10 0 -5 12 -13 28 -16 15 -4 42 -16 60 -26 18 -10 53 -18 78
-18 33 0 70 -11 130 -40 65 -31 108 -43 185 -54 55 -8 110 -21 122 -28 12 -8
39 -18 59 -21 36 -5 39 -3 66 36 43 64 67 196 34 189 -7 -1 -17 10 -23 25 -15
38 -38 148 -35 164 13 64 38 151 47 164 8 12 19 75 22 131 1 22 8 48 16 58 9
10 14 44 15 89 1 39 5 77 9 84 4 7 5 23 2 36 -5 19 1 33 25 60 17 20 29 41 25
46 -3 6 1 26 9 45 8 19 12 43 10 53 -6 23 52 116 69 110 6 -2 14 -12 16 -23 1
-10 9 -26 17 -34 12 -14 40 -110 49 -167 4 -27 42 -78 58 -78 6 0 14 -12 17
-26 11 -41 30 -69 45 -69 9 0 15 -10 15 -25 0 -14 10 -36 23 -49 12 -13 27
-30 32 -38 6 -8 19 -28 30 -44 28 -43 99 -119 107 -117 4 2 46 -37 95 -85 48
-48 102 -94 118 -102 17 -8 41 -24 55 -36 14 -11 58 -31 97 -44 40 -12 78 -29
84 -36 6 -8 16 -14 21 -14 6 0 27 -13 47 -28 27 -22 55 -32 111 -41 86 -13
217 -16 305 -6 94 11 168 7 216 -9 50 -18 244 -22 254 -6 3 6 15 10 26 10 39
0 154 44 176 67 33 34 72 47 92 30 9 -8 34 -21 56 -28 22 -7 47 -19 56 -26 44
-36 129 20 129 85 0 25 -76 169 -106 203 -13 14 -24 30 -24 35 0 6 -22 34 -50
63 -27 29 -50 61 -50 71 0 10 -4 21 -9 24 -4 3 -11 20 -15 38 -4 21 -25 50
-61 84 -30 28 -55 59 -55 68 0 10 -11 32 -25 50 -14 18 -25 38 -25 44 0 7 -17
29 -38 50 -48 47 -102 117 -102 131 0 5 -9 15 -20 21 -11 6 -20 17 -20 24 0 7
-18 27 -40 45 -45 36 -99 110 -93 127 2 7 -11 21 -29 32 -32 20 -71 65 -94
108 -17 32 -153 196 -175 212 -10 7 -19 19 -19 26 0 7 -9 21 -20 31 -11 10
-19 23 -18 29 2 12 -66 121 -82 131 -5 3 -10 16 -10 28 0 13 -25 48 -58 84
-31 34 -68 76 -82 95 -14 18 -45 54 -69 80 -63 69 -55 78 76 80 59 1 129 1
156 -1 34 -2 63 5 104 24 56 25 106 41 168 52 17 3 35 9 40 13 26 19 128 70
139 70 8 0 19 7 26 15 7 8 45 33 85 55 40 22 75 46 78 53 2 7 24 22 49 34 47
24 208 191 208 216 0 9 14 29 30 46 17 17 37 53 46 83 9 29 25 72 35 95 11 24
19 51 19 62 0 10 9 40 21 65 13 31 17 51 11 59 -9 12 -18 166 -14 259 1 26 -3
50 -8 53 -6 3 -10 26 -10 50 0 24 -5 47 -10 50 -6 4 -8 15 -5 25 3 10 1 21 -5
25 -5 3 -10 15 -10 26 0 22 -36 131 -58 174 -8 17 -19 38 -24 49 -23 44 -52
93 -69 115 -11 13 -19 32 -19 41 0 10 -28 47 -62 82 -35 35 -79 86 -98 113
-19 26 -47 60 -62 76 -16 15 -28 32 -28 38 0 6 -15 27 -32 47 -18 19 -49 52
-68 73 -80 88 -124 131 -132 131 -4 0 -8 6 -8 14 0 8 -19 24 -42 36 -45 23
-162 111 -188 141 -20 22 -54 39 -78 39 -11 0 -25 7 -33 16 -7 8 -21 13 -31
11 -10 -3 -24 0 -31 7 -22 23 -55 36 -87 36 -17 0 -44 7 -59 14 -15 8 -37 15
-47 15 -43 -1 -123 11 -150 22 -16 7 -56 16 -89 20 -33 4 -85 13 -115 19 -98
19 -170 28 -189 23 -11 -3 -31 3 -46 13 -21 14 -52 18 -144 20 -64 2 -118 4
-121 5 -3 1 -9 1 -13 0 -4 -1 -18 4 -30 11 -12 6 -56 12 -97 13 -44 2 -92 9
-115 19 -31 13 -45 14 -66 6 -20 -9 -33 -9 -47 -1 -25 13 -59 14 -66 2z m7
-123 c19 -10 157 -18 372 -21 28 -1 53 -5 56 -10 4 -5 31 -9 60 -9 37 0 61 -6
80 -20 28 -21 55 -24 102 -12 21 5 36 1 58 -15 23 -17 47 -23 102 -26 40 -2
79 -6 89 -10 9 -3 33 -2 54 4 25 7 42 7 50 1 6 -6 19 -8 28 -4 9 3 16 2 16 -4
0 -5 21 -13 48 -16 135 -18 240 -40 262 -54 47 -31 71 -41 83 -36 7 2 22 -4
32 -16 10 -11 26 -20 35 -20 9 0 29 -13 45 -30 16 -16 34 -30 42 -30 7 0 17
-9 23 -20 6 -11 16 -20 22 -20 6 0 26 -18 45 -40 19 -22 39 -40 45 -40 6 0 21
-10 34 -22 12 -13 27 -27 33 -33 27 -24 75 -85 119 -149 26 -39 68 -90 95
-114 26 -25 47 -50 47 -57 0 -6 9 -20 20 -30 11 -10 20 -24 20 -31 0 -8 11
-21 25 -30 15 -10 25 -26 25 -40 0 -13 8 -28 19 -33 10 -6 21 -24 24 -40 4
-17 14 -32 26 -36 29 -9 42 -29 46 -76 3 -23 19 -72 37 -108 18 -36 33 -73 33
-81 1 -8 4 -22 8 -30 4 -9 6 -38 3 -65 -2 -28 -1 -54 3 -60 21 -28 30 -94 21
-141 -6 -34 -5 -67 3 -107 10 -50 9 -62 -6 -90 -10 -18 -15 -40 -12 -50 6 -15
-28 -77 -47 -85 -4 -2 -8 -9 -8 -15 0 -7 -11 -34 -25 -62 -13 -27 -25 -56 -25
-63 0 -7 -7 -15 -15 -18 -8 -4 -15 -13 -15 -21 0 -7 -13 -22 -30 -31 -16 -9
-30 -20 -30 -24 0 -11 -64 -68 -76 -68 -6 0 -21 -11 -34 -25 -13 -14 -29 -25
-36 -25 -6 0 -28 -20 -48 -44 -27 -34 -49 -48 -89 -61 -28 -9 -63 -22 -77 -29
-14 -7 -52 -21 -85 -31 -33 -9 -76 -23 -95 -30 -48 -19 -87 -26 -178 -32 -42
-2 -97 -6 -122 -8 -25 -2 -83 -7 -130 -9 -95 -6 -181 -23 -222 -43 -55 -27
-61 -86 -13 -117 14 -9 25 -23 25 -30 0 -20 77 -86 100 -86 10 0 27 -12 37
-26 10 -15 41 -50 68 -79 73 -76 105 -116 105 -130 0 -10 72 -107 123 -164 18
-20 51 -78 83 -141 17 -35 56 -82 106 -130 58 -57 78 -82 78 -102 0 -17 6 -27
20 -31 11 -3 24 -17 30 -31 5 -14 14 -26 20 -26 5 0 10 -11 10 -25 0 -13 7
-30 17 -37 31 -25 133 -130 133 -138 0 -4 7 -13 15 -20 8 -7 15 -19 15 -28 0
-8 18 -34 41 -56 71 -72 79 -83 74 -98 -4 -9 4 -22 19 -32 16 -10 26 -26 26
-40 0 -15 7 -26 20 -29 12 -3 20 -14 20 -26 0 -14 9 -25 25 -31 14 -5 28 -18
32 -27 4 -10 15 -29 25 -42 11 -15 16 -32 12 -48 -5 -20 2 -32 40 -69 35 -33
46 -50 41 -64 -5 -15 0 -23 19 -32 34 -15 33 -33 -4 -48 -17 -7 -35 -20 -40
-30 -5 -9 -37 -35 -71 -58 l-62 -42 -102 0 c-63 0 -105 4 -113 12 -13 13 -246
18 -392 8 -52 -4 -99 -4 -105 -1 -5 3 -47 15 -93 27 -50 13 -97 33 -120 50
-43 34 -66 48 -108 68 -17 9 -34 22 -37 31 -4 8 -15 15 -25 15 -21 0 -173 149
-185 182 -4 11 -25 39 -47 61 -22 21 -40 45 -40 52 0 7 -18 32 -40 56 -22 24
-40 47 -40 50 0 4 -20 33 -45 65 -25 32 -48 69 -51 81 -4 13 -10 23 -15 23 -5
0 -9 11 -9 25 0 14 -7 37 -16 51 -9 13 -17 32 -18 42 -6 64 -143 242 -188 242
-9 0 -20 4 -23 10 -3 5 -20 9 -38 9 -18 -1 -53 4 -78 11 -41 10 -50 9 -82 -10
-28 -17 -35 -26 -29 -38 8 -16 7 -110 -1 -182 -12 -97 -46 -200 -67 -200 -6 0
-10 -26 -10 -58 0 -50 -4 -62 -25 -80 -27 -23 -31 -37 -15 -47 6 -4 7 -13 1
-23 -4 -9 -6 -23 -4 -30 3 -7 0 -19 -6 -26 -18 -21 -42 -111 -31 -114 15 -5
12 -29 -4 -35 -8 -3 -20 -25 -27 -49 -14 -46 -13 -45 -4 -69 4 -10 -4 -28 -19
-46 -14 -17 -31 -58 -41 -98 -8 -38 -20 -74 -25 -80 -5 -6 -11 -23 -14 -39 -3
-16 -6 -29 -8 -30 -2 -1 -15 -9 -29 -18 -18 -12 -30 -13 -43 -6 -10 6 -35 12
-55 14 -71 6 -99 14 -182 53 -25 11 -51 21 -58 21 -16 0 -194 91 -206 106 -24
30 -91 54 -150 54 -33 1 -71 7 -85 15 -33 19 -64 19 -80 0 -17 -21 -83 -19
-103 3 -13 14 -15 34 -11 97 2 44 9 105 14 135 5 30 12 87 14 125 7 97 19 148
44 180 12 15 22 37 22 49 0 12 4 26 10 32 17 17 33 124 21 138 -22 27 -12 147
15 177 14 15 15 23 5 46 -12 30 -10 130 3 151 4 6 4 17 1 22 -4 6 -2 17 4 24
12 14 42 125 46 171 2 17 6 37 10 46 3 10 2 20 -4 24 -17 10 -13 51 9 90 13
23 20 54 20 88 0 35 7 63 21 86 18 29 19 38 8 58 -11 20 -10 32 5 74 10 27 16
62 13 77 -3 14 1 38 8 52 6 14 18 68 24 120 7 52 20 106 29 120 21 32 25 78
11 112 -7 18 -8 32 0 46 6 11 13 55 16 98 6 79 9 89 27 89 14 0 20 73 7 97 -6
11 -7 27 -4 36 4 9 9 37 12 62 2 25 10 63 18 85 9 22 15 54 14 70 -1 17 4 59
10 95 7 36 16 97 21 135 17 128 22 145 41 156 16 8 19 21 19 86 0 42 -5 92
-12 110 -10 26 -10 38 0 53 6 11 9 26 6 34 -3 9 1 23 10 31 15 16 17 31 22
170 0 22 3 47 6 55 21 57 30 105 32 175 4 77 17 148 35 190 20 44 20 55 1 65
-22 12 -26 41 -9 72 8 14 7 28 -1 48 -17 40 -3 58 70 90 34 15 65 32 69 36 11
16 72 44 95 44 12 0 27 5 34 12 9 9 15 9 24 0 14 -14 70 -16 84 -3 8 9 87 27
127 30 10 0 28 -4 40 -11z"/>
<path d="M4180 6250 c0 -5 5 -10 10 -10 6 0 10 5 10 10 0 6 -4 10 -10 10 -5 0
-10 -4 -10 -10z"/>
<path d="M3981 5476 c-85 -62 -103 -185 -34 -229 18 -11 16 -82 -2 -97 -8 -7
-15 -24 -15 -39 0 -14 -7 -34 -15 -45 -14 -18 -20 -60 -30 -186 -10 -139 -19
-196 -31 -215 -7 -11 -16 -43 -20 -72 -6 -51 -6 -52 40 -98 35 -36 55 -48 86
-52 23 -3 46 -1 54 6 16 13 154 9 177 -5 21 -13 267 -5 334 11 17 4 39 16 50
25 11 10 40 21 65 25 69 11 147 52 173 90 13 19 44 53 70 75 34 30 47 49 47
68 0 15 9 42 21 61 18 30 20 46 16 160 -3 128 -20 214 -58 297 -11 23 -19 48
-19 56 0 23 -37 66 -72 84 -39 20 -116 35 -203 40 -83 4 -152 11 -180 18 -11
3 -84 7 -163 9 -78 3 -148 9 -155 15 -6 6 -32 13 -57 16 -37 5 -51 2 -79 -18z
m429 -245 c19 -6 90 -14 158 -18 l123 -6 30 -44 c26 -40 30 -55 33 -130 2 -67
6 -87 19 -95 21 -11 22 -37 2 -65 -8 -12 -12 -28 -9 -37 3 -8 -3 -28 -13 -43
-11 -15 -23 -36 -26 -45 -4 -10 -15 -18 -26 -18 -11 0 -34 -13 -51 -29 -30
-27 -113 -61 -150 -61 -9 0 -25 -9 -34 -19 -16 -17 -31 -19 -137 -19 -66 1
-122 5 -125 10 -3 4 -29 8 -57 8 -35 0 -60 7 -76 19 -20 16 -23 23 -16 57 4
21 9 89 10 150 2 62 8 122 15 133 6 12 8 31 4 43 -4 15 1 26 21 42 25 20 26
25 15 46 -11 21 -10 26 9 38 15 10 21 25 21 49 0 25 5 36 20 41 30 11 199 6
240 -7z"/>
</g>
</svg>
