<?xml version="1.0" standalone="no"?>
<!DOCTYPE svg PUBLIC "-//W3C//DTD SVG 20010904//EN"
 "http://www.w3.org/TR/2001/REC-SVG-20010904/DTD/svg10.dtd">
<svg version="1.0" xmlns="http://www.w3.org/2000/svg"
 width="908.333566pt" height="741.042735pt" viewBox="0 0 908.333566 741.042735"
 preserveAspectRatio="xMidYMid meet">
<metadata>
Created by potrace 1.16, written by Peter Selinger 2001-2019
</metadata>
<g transform="translate(-161.594760,942.799052) scale(0.100000,-0.100000)"
fill="#000000" stroke="none">
<path d="M8125 9419 c-17 -4 -48 -7 -70 -8 -22 -1 -58 -8 -80 -17 -22 -8 -69
-17 -105 -20 -36 -3 -81 -9 -100 -15 -19 -5 -65 -9 -102 -9 -70 0 -180 -14
-258 -32 -25 -5 -67 -12 -95 -14 -27 -2 -74 -9 -103 -15 -29 -6 -60 -8 -68 -5
-8 3 -22 2 -32 -3 -32 -18 -227 -44 -312 -43 -80 2 -120 -3 -232 -27 -26 -6
-76 -12 -111 -15 -36 -3 -84 -14 -108 -25 -24 -12 -63 -21 -88 -21 -25 0 -77
-9 -116 -19 -52 -14 -75 -16 -92 -8 -16 7 -30 7 -48 -1 -14 -7 -59 -12 -98
-12 -40 0 -77 -4 -83 -9 -5 -5 -31 -11 -59 -14 -100 -11 -166 -26 -201 -46
-19 -12 -41 -21 -48 -21 -7 0 -24 -8 -37 -18 -41 -31 -128 -52 -219 -52 -47 0
-96 0 -110 0 -14 -1 -50 3 -81 8 -49 9 -356 17 -414 12 -55 -5 -372 13 -382
22 -7 6 -34 12 -60 13 -53 3 -97 12 -128 25 -44 18 -60 23 -70 20 -24 -6 -144
0 -190 11 -27 6 -81 15 -120 20 -108 13 -110 14 -110 34 0 22 -56 43 -118 44
-21 1 -48 6 -59 12 -12 6 -37 13 -57 15 -20 1 -63 8 -95 15 -57 11 -60 11 -77
-12 -10 -13 -19 -29 -19 -35 0 -6 -6 -17 -14 -23 -17 -14 -16 -135 1 -166 18
-33 25 -107 13 -160 -12 -58 -20 -118 -20 -158 -1 -16 -7 -39 -16 -52 -9 -14
-12 -33 -9 -48 4 -13 1 -43 -5 -66 -7 -26 -8 -47 -2 -54 13 -17 8 -132 -6
-150 -10 -11 -9 -17 3 -27 11 -9 14 -27 11 -69 -2 -31 2 -112 9 -181 7 -69 10
-131 8 -138 -3 -7 3 -22 12 -32 15 -17 19 -44 21 -176 2 -86 8 -162 13 -168 6
-7 5 -29 -1 -58 -6 -25 -7 -54 -3 -64 4 -11 9 -66 11 -124 1 -58 7 -134 13
-169 7 -45 7 -68 0 -77 -6 -7 -8 -26 -5 -41 11 -54 15 -188 6 -202 -5 -9 -5
-22 2 -34 11 -22 17 -65 21 -173 2 -39 7 -76 11 -83 4 -7 10 -49 12 -94 2 -45
10 -104 18 -132 31 -108 38 -159 23 -170 -23 -17 -9 -82 23 -105 16 -11 31
-20 35 -20 4 0 21 -11 37 -26 17 -14 37 -23 44 -20 24 9 328 -14 389 -30 33
-9 74 -18 90 -21 17 -3 42 -14 56 -24 20 -14 47 -19 115 -20 49 -1 94 -5 99
-10 6 -4 26 -4 45 0 19 4 45 3 57 -2 16 -7 35 -6 60 2 37 12 357 11 426 -1 18
-4 34 0 44 10 15 15 58 23 212 38 35 3 75 10 88 15 13 5 38 9 54 9 17 0 49 9
71 20 24 11 62 20 89 20 26 0 60 7 76 15 15 8 64 21 108 30 44 9 88 21 97 26
10 5 26 9 36 9 9 0 28 7 40 16 13 9 32 14 43 11 12 -3 27 2 37 13 9 9 35 21
57 25 22 4 72 18 111 31 40 13 95 29 125 35 29 6 66 20 83 30 17 10 40 19 51
19 11 0 31 7 44 17 22 15 49 23 134 40 18 3 32 15 37 29 11 28 60 35 60 8 0
-13 8 -14 48 -8 26 3 53 12 61 18 9 7 67 12 153 12 81 1 151 7 167 14 50 20
344 3 606 -36 22 -3 87 -8 145 -10 58 -2 114 -8 125 -13 11 -5 43 -13 70 -19
91 -20 189 -50 235 -72 25 -13 67 -34 94 -47 27 -13 77 -33 111 -44 34 -10 68
-26 75 -34 7 -8 22 -15 35 -15 12 0 30 -9 40 -20 10 -11 26 -20 35 -20 9 0 20
-4 26 -9 25 -24 147 -81 186 -87 23 -4 52 -14 63 -24 11 -9 34 -24 50 -32 87
-44 168 -90 216 -122 72 -48 179 -129 179 -137 0 -13 67 -79 80 -79 8 0 21
-15 28 -32 26 -64 36 -78 85 -130 27 -29 56 -63 65 -76 9 -14 31 -31 49 -38
18 -8 40 -25 49 -39 9 -13 24 -27 34 -30 10 -3 40 -27 67 -53 27 -26 70 -66
96 -88 54 -47 107 -116 107 -139 0 -19 43 -47 78 -51 15 -2 42 -6 60 -10 27
-5 37 -2 58 21 13 15 23 34 20 43 -2 10 -7 42 -11 73 -5 46 -3 58 9 62 18 7
22 62 6 72 -6 4 -7 11 -4 17 9 14 12 108 3 113 -3 3 -4 24 -2 47 8 81 13 143
13 176 0 22 5 32 15 32 19 0 19 5 -1 35 -10 15 -12 25 -5 25 7 0 11 20 11 52
0 31 6 58 15 67 15 18 23 80 12 98 -4 7 -2 21 5 32 9 15 9 28 0 59 -10 32 -9
44 4 71 10 19 13 42 9 60 -3 16 -2 32 3 35 6 3 9 44 9 90 -2 76 0 87 22 110
19 20 22 28 12 40 -15 18 -24 333 -9 342 5 3 7 22 3 44 -4 22 -2 41 4 44 5 4
9 37 8 75 0 46 4 75 13 86 15 18 18 38 24 132 2 49 9 70 30 98 15 19 27 43 26
53 -3 51 -1 75 7 81 4 3 8 22 7 41 0 19 7 49 16 65 9 17 17 46 18 65 4 90 9
122 18 128 5 4 9 21 10 37 0 17 8 46 17 65 8 19 21 67 28 105 7 39 16 74 21
80 4 5 8 26 8 46 0 20 7 42 15 49 8 7 15 25 15 39 0 15 7 36 15 47 8 10 15 28
15 39 0 11 7 33 15 49 9 16 13 36 11 43 -3 7 3 33 14 58 10 24 22 60 26 80 3
19 10 35 16 35 5 0 6 5 3 11 -4 6 2 29 13 52 27 54 36 80 33 92 -10 38 -6 64
12 69 13 3 17 10 13 23 -3 10 5 40 19 67 27 53 30 83 16 133 -6 20 -5 35 1 41
8 8 7 21 -3 44 -8 18 -14 40 -14 48 0 16 -14 17 -87 5 -45 -7 -49 -6 -79 26
-31 33 -97 69 -128 69 -9 0 -43 18 -75 40 -33 22 -71 43 -85 47 -14 3 -38 14
-53 24 -14 11 -37 19 -51 19 -13 0 -30 7 -37 15 -7 8 -23 15 -35 15 -12 0 -33
8 -46 19 -13 10 -35 21 -49 25 -14 4 -36 12 -50 18 -71 29 -97 41 -120 53
-114 62 -155 76 -214 75 -81 -1 -196 9 -221 20 -11 5 -47 11 -80 15 -140 15
-223 32 -245 50 -21 18 -95 26 -295 31 -328 9 -359 11 -399 28 -40 17 -136 19
-201 5z m181 -177 c7 -4 59 -5 115 -2 57 3 109 3 114 -1 18 -12 129 -27 175
-24 25 2 51 -2 57 -7 7 -6 36 -12 65 -13 109 -7 235 -22 248 -30 14 -9 39 -12
141 -19 30 -2 73 -9 95 -15 21 -6 56 -11 77 -11 30 0 37 -4 37 -20 0 -11 -5
-20 -11 -20 -7 0 -8 -16 -4 -45 6 -36 3 -52 -15 -82 -17 -29 -21 -47 -16 -80
3 -23 1 -45 -4 -48 -6 -3 -10 -21 -10 -40 0 -19 -4 -37 -10 -40 -5 -3 -10 -17
-10 -30 0 -12 -7 -25 -15 -29 -10 -3 -15 -19 -15 -46 0 -42 -26 -137 -41 -154
-14 -15 -10 -26 6 -20 20 8 20 -20 0 -36 -8 -7 -14 -18 -13 -24 1 -6 -1 -21
-6 -33 -4 -13 -2 -32 5 -45 10 -19 9 -24 -9 -36 -19 -13 -20 -17 -8 -41 17
-32 16 -115 -1 -133 -7 -6 -13 -24 -13 -39 0 -15 -5 -31 -11 -34 -6 -4 -8 -13
-5 -21 3 -8 -1 -17 -10 -21 -11 -4 -14 -13 -10 -29 4 -14 0 -37 -9 -54 -13
-25 -13 -30 -1 -37 27 -15 30 -59 5 -84 -18 -18 -20 -25 -10 -40 15 -24 14
-25 -9 -47 -18 -17 -19 -23 -9 -45 14 -30 -2 -111 -27 -139 -14 -14 -13 -20 5
-56 20 -39 20 -40 1 -57 -21 -19 -26 -60 -10 -85 6 -10 4 -22 -6 -38 -8 -12
-12 -27 -9 -32 3 -5 1 -29 -5 -54 -8 -37 -7 -54 7 -88 12 -30 13 -43 5 -46 -7
-2 -12 -11 -12 -21 0 -9 -5 -22 -12 -29 -8 -8 -8 -15 1 -26 9 -11 10 -24 1
-56 -6 -22 -8 -50 -5 -60 4 -14 2 -20 -9 -20 -11 0 -14 -11 -13 -42 1 -63 -12
-170 -23 -183 -11 -14 -2 -54 18 -77 13 -16 13 -20 -2 -43 -9 -14 -14 -30 -10
-36 12 -21 12 -104 -1 -119 -7 -8 -16 -28 -20 -45 -12 -49 -9 -192 5 -226 12
-28 12 -33 -5 -45 -18 -13 -18 -15 0 -69 18 -50 18 -56 3 -71 -13 -13 -13 -21
-5 -45 9 -22 8 -32 -1 -41 -10 -10 -20 -5 -48 25 -24 25 -44 37 -63 37 -17 0
-40 11 -57 27 -32 31 -74 56 -82 49 -2 -3 -60 24 -129 59 -69 36 -130 65 -135
65 -6 0 -25 11 -42 23 -17 13 -47 27 -67 31 -21 3 -42 13 -49 21 -7 8 -18 15
-25 15 -7 0 -18 6 -24 14 -6 7 -37 21 -69 31 -31 10 -64 22 -72 26 -27 13
-122 39 -145 39 -12 0 -48 13 -81 29 -69 33 -135 53 -184 56 -33 3 -191 24
-327 46 -41 6 -70 6 -89 -1 -15 -6 -35 -8 -43 -4 -15 7 -349 25 -441 24 -48
-1 -198 -15 -317 -30 -39 -5 -102 -18 -140 -28 -37 -11 -88 -24 -113 -27 -40
-7 -103 -27 -165 -54 -43 -19 -82 -31 -125 -40 -84 -17 -152 -40 -169 -55 -10
-9 -26 -16 -35 -16 -10 0 -30 -8 -44 -19 -15 -10 -47 -20 -72 -23 -25 -3 -80
-19 -123 -37 -43 -17 -83 -29 -88 -26 -9 6 -153 -31 -183 -47 -11 -6 -48 -12
-84 -14 -35 -2 -100 -13 -144 -24 -45 -11 -99 -20 -122 -20 -22 0 -77 -7 -121
-16 -64 -12 -114 -14 -245 -9 -91 4 -243 9 -337 10 -95 2 -199 9 -230 15 -78
16 -135 30 -154 40 -9 5 -36 14 -60 20 -24 6 -59 18 -78 27 -18 8 -70 17 -115
19 -103 6 -147 18 -168 48 -15 21 -16 26 -3 36 19 16 19 59 1 85 -15 21 -24
88 -31 220 -2 44 -6 116 -8 160 -2 44 -7 89 -10 100 -15 47 -26 198 -16 216 6
13 6 25 0 38 -6 10 -13 66 -15 122 -7 135 -16 208 -28 215 -5 3 -5 10 0 17 19
24 22 67 8 90 -16 26 -28 144 -15 153 10 6 12 48 2 57 -8 9 -12 41 -18 147 -6
93 -19 196 -30 221 -3 10 -2 20 4 24 12 7 15 68 4 79 -5 4 -9 22 -10 39 -1 18
-5 48 -9 68 -3 20 -2 45 4 55 6 13 5 35 -3 69 -12 43 -11 52 2 67 9 10 13 26
10 38 -3 12 1 40 9 63 8 23 19 71 24 107 5 36 13 76 17 90 3 14 7 48 7 75 1
28 4 55 8 60 3 6 3 40 -2 75 -9 77 3 102 42 82 13 -6 42 -14 65 -17 23 -4 47
-13 54 -21 7 -9 32 -14 70 -14 32 0 60 -4 63 -9 3 -5 20 -11 38 -14 77 -13
120 -25 136 -40 11 -10 22 -13 31 -7 8 5 25 4 40 -1 14 -6 60 -11 103 -11 44
-1 81 -5 84 -10 3 -4 36 -8 74 -8 38 0 72 -4 75 -10 3 -5 27 -10 53 -10 26 -1
76 -7 112 -16 159 -36 229 -36 265 0 18 18 77 21 138 7 21 -5 67 -5 105 0 37
4 80 4 97 -1 117 -33 161 -38 255 -28 52 5 119 10 148 10 55 0 88 12 248 89
44 21 90 39 103 39 12 0 50 9 84 21 53 18 91 21 250 24 104 2 191 6 194 9 4 3
43 6 88 6 69 0 87 4 109 21 34 26 162 59 232 59 29 0 55 4 59 10 3 5 18 9 33
8 15 -1 83 2 152 6 69 4 159 9 201 11 43 2 86 8 97 14 12 6 36 11 56 11 19 0
38 5 41 10 3 6 50 10 104 10 64 0 114 5 142 16 29 10 59 13 87 9 24 -4 49 -2
55 3 18 14 97 24 224 28 76 2 123 8 142 19 17 8 45 15 63 15 18 0 40 5 48 10
18 11 90 13 106 2z m1408 -181 c21 -11 43 -17 51 -15 7 3 19 -2 28 -10 9 -9
18 -16 21 -16 2 0 17 -5 33 -12 15 -7 33 -12 38 -13 6 -1 20 -5 33 -9 24 -8
30 -44 10 -64 -6 -6 -13 -40 -14 -74 -2 -68 -17 -118 -35 -118 -7 0 -9 -13 -4
-38 4 -25 1 -47 -10 -69 -9 -18 -13 -38 -10 -44 4 -5 0 -18 -8 -27 -12 -13
-13 -27 -7 -62 5 -27 5 -49 -1 -54 -5 -6 -9 -25 -9 -44 0 -18 -12 -54 -26 -80
-20 -35 -25 -56 -21 -84 3 -25 0 -41 -9 -49 -16 -13 -18 -40 -5 -54 5 -6 12
-29 16 -52 6 -37 4 -43 -18 -58 -24 -16 -56 -99 -43 -112 3 -3 -1 -14 -10 -24
-14 -16 -14 -20 1 -43 14 -21 15 -33 7 -73 -7 -30 -7 -54 -1 -65 7 -13 4 -21
-15 -34 -22 -14 -25 -22 -22 -65 3 -40 0 -51 -15 -59 -11 -7 -17 -21 -17 -42
0 -18 -3 -67 -7 -108 -3 -41 -6 -84 -6 -95 0 -11 1 -46 1 -79 1 -56 -18 -117
-40 -131 -7 -4 -6 -13 1 -26 7 -15 7 -24 -1 -34 -7 -8 -9 -18 -6 -24 3 -5 8
-31 11 -58 3 -26 7 -57 9 -68 2 -13 -10 -31 -33 -52 -33 -30 -35 -34 -18 -46
21 -18 22 -37 1 -37 -13 0 -15 -6 -9 -32 13 -65 17 -119 9 -136 -4 -9 -8 -66
-8 -125 -1 -92 -4 -110 -19 -118 -10 -6 -15 -15 -11 -20 3 -6 -2 -19 -12 -31
-18 -19 -18 -20 -1 -33 21 -15 22 -31 1 -39 -13 -5 -14 -9 -4 -21 17 -20 3
-142 -17 -149 -11 -5 -13 -14 -9 -32 5 -20 2 -30 -14 -41 -16 -11 -18 -18 -10
-33 14 -27 13 -65 -7 -148 -13 -56 -14 -80 -6 -102 7 -20 7 -32 0 -39 -7 -7
-7 -14 2 -24 9 -11 8 -17 -3 -26 -11 -9 -12 -18 -3 -41 8 -22 8 -32 -3 -45
-12 -15 -15 -14 -36 12 -13 15 -24 33 -24 38 -1 16 -52 69 -90 95 -19 13 -39
30 -43 37 -4 7 -14 13 -20 13 -7 0 -30 18 -51 39 l-38 39 2 103 c3 187 5 214
14 227 13 21 21 182 13 260 -2 23 0 45 4 48 5 3 9 45 9 93 0 48 4 91 9 97 17
16 32 216 20 251 -5 14 -3 25 5 32 8 7 12 32 11 68 -1 32 3 66 7 76 5 10 9 68
10 130 0 61 5 121 11 132 5 11 11 75 13 143 1 88 6 128 16 140 10 12 13 42 12
107 -1 49 1 92 4 95 4 3 17 27 30 54 21 44 21 50 8 65 -13 14 -13 20 -3 30 6
6 13 22 14 34 1 12 7 51 13 87 32 191 41 263 40 318 0 24 3 49 7 55 4 7 7 21
8 32 0 11 11 25 26 32 24 12 26 17 21 58 -3 33 0 50 11 63 8 9 18 44 20 77 3
33 11 76 16 95 6 19 11 47 11 61 0 14 7 40 16 58 9 17 13 39 10 47 -3 9 -3 21
1 27 4 7 8 26 9 44 0 18 7 39 14 48 18 22 97 19 144 -4z m412 -176 c26 -14 57
-25 69 -25 12 0 30 -9 39 -19 10 -10 32 -22 49 -25 18 -3 45 -17 61 -31 16
-14 37 -25 46 -25 10 0 23 -12 29 -27 12 -27 80 -83 101 -83 15 0 29 -42 19
-60 -16 -28 -39 -111 -39 -138 0 -15 -9 -38 -20 -52 -13 -18 -16 -28 -8 -38 8
-9 6 -18 -6 -31 -11 -12 -16 -31 -14 -50 2 -19 -3 -35 -13 -43 -18 -15 -42
-76 -34 -88 3 -5 -6 -33 -19 -62 -31 -66 -53 -131 -61 -183 -6 -39 -13 -59
-37 -110 -6 -13 -12 -47 -12 -74 -1 -27 -5 -53 -9 -57 -13 -14 -7 -34 11 -35
14 0 13 -2 -4 -9 -23 -9 -36 -53 -27 -89 4 -15 1 -21 -12 -21 -15 0 -17 -8
-13 -55 4 -43 1 -58 -13 -71 -9 -8 -20 -36 -24 -62 -4 -26 -12 -56 -17 -67 -6
-10 -12 -35 -14 -55 -5 -50 -14 -91 -29 -125 -22 -52 -26 -73 -15 -80 8 -5 7
-12 -3 -23 -8 -10 -17 -39 -21 -66 -3 -27 -10 -54 -15 -60 -13 -17 -27 -157
-22 -236 4 -80 -18 -383 -30 -394 -12 -13 -12 -63 1 -71 7 -4 6 -13 -1 -26 -6
-11 -8 -27 -5 -36 3 -8 1 -23 -4 -34 -8 -13 -7 -32 0 -60 8 -29 8 -55 1 -92
-6 -29 -13 -92 -16 -141 -3 -49 -10 -96 -14 -105 -9 -18 -22 -124 -25 -217 -2
-33 -9 -74 -17 -90 -17 -35 -13 -74 7 -74 19 0 18 -19 -1 -26 -8 -4 -15 -17
-15 -29 0 -13 -5 -27 -11 -30 -6 -4 -8 -14 -5 -22 9 -23 -5 -94 -21 -100 -7
-3 -24 6 -38 21 -13 14 -29 26 -36 26 -14 0 -121 89 -155 129 -14 17 -31 31
-38 31 -14 0 -85 73 -110 113 -19 32 -15 57 9 57 9 0 34 9 56 20 32 17 38 24
30 38 -5 10 -6 23 0 33 6 12 3 22 -11 34 -24 22 -25 41 -5 88 12 30 12 37 0
47 -12 10 -10 18 11 55 28 51 29 63 9 85 -13 14 -14 26 -6 59 8 36 6 43 -9 51
-21 11 -21 47 -1 118 7 24 9 56 6 72 -5 23 -2 31 15 40 17 9 19 14 9 26 -11
14 -10 35 7 164 4 25 10 50 14 55 8 9 7 63 -1 90 -6 20 13 75 28 84 13 7 14
14 6 38 -7 20 -8 35 0 48 7 13 6 24 -2 37 -8 12 -8 24 -2 36 5 10 9 34 9 53 0
19 7 63 16 98 9 36 17 85 18 110 1 25 7 58 15 73 10 21 11 33 1 53 -9 19 -9
28 -1 33 7 4 11 14 11 22 -1 8 0 28 0 43 2 24 5 27 22 22 20 -6 28 9 11 19
-16 10 -23 106 -9 123 7 8 11 30 9 49 -2 30 6 66 29 129 4 11 2 28 -3 37 -9
13 -7 22 7 37 12 13 15 27 11 41 -4 11 -2 27 4 34 6 7 10 36 9 64 -2 37 3 56
16 71 12 13 20 41 22 83 3 35 11 77 19 94 8 18 14 43 14 55 -1 13 3 37 10 52
14 35 14 40 0 31 -9 -5 -10 4 -3 32 4 21 8 53 9 69 2 34 24 85 37 85 4 0 8 5
8 10 0 6 -9 10 -20 10 -11 0 -20 5 -20 11 0 7 9 9 21 6 17 -5 20 -2 16 15 -4
12 -1 30 5 42 6 11 12 37 14 58 2 21 13 74 24 119 11 45 17 85 14 91 -3 5 -1
14 5 21 5 7 12 44 15 82 3 39 5 71 6 73 1 9 36 -2 76 -23z m-5826 -3025 c0 -5
-4 -10 -10 -10 -5 0 -10 5 -10 10 0 6 5 10 10 10 6 0 10 -4 10 -10z"/>
<path d="M7249 8136 c-2 -2 -55 -7 -118 -11 -92 -5 -119 -10 -139 -26 -14 -11
-32 -17 -41 -15 -9 3 -30 -3 -47 -12 -17 -9 -54 -29 -82 -44 -46 -25 -61 -44
-68 -86 -1 -8 -10 -22 -18 -31 -9 -10 -16 -24 -16 -32 0 -8 -9 -20 -20 -27
-11 -7 -20 -21 -20 -32 0 -11 -5 -20 -11 -20 -5 0 -9 -8 -7 -18 2 -11 -4 -31
-12 -46 -12 -23 -12 -29 -1 -36 9 -5 10 -13 5 -21 -15 -24 -14 -80 2 -86 9 -3
14 -20 14 -47 0 -43 29 -101 61 -124 11 -7 19 -20 19 -27 0 -8 15 -22 33 -31
17 -9 49 -32 70 -50 20 -19 47 -34 60 -34 12 0 33 -7 46 -16 19 -14 42 -16
132 -12 118 6 131 11 204 79 22 20 55 49 73 64 17 15 32 33 32 40 0 7 7 18 15
25 8 7 15 21 15 31 0 11 4 19 8 19 31 0 51 157 28 213 -9 20 -14 48 -10 61 4
19 -3 31 -40 62 -25 21 -46 44 -46 50 0 23 -52 54 -90 54 -26 0 -42 -7 -58
-25 l-21 -24 37 -30 c21 -16 48 -50 60 -75 13 -25 27 -48 33 -51 12 -8 12 -82
-1 -90 -5 -3 -10 -15 -10 -26 0 -23 -46 -99 -60 -99 -6 0 -10 -8 -10 -18 0
-10 -15 -32 -33 -50 -67 -65 -204 -84 -267 -37 -19 14 -39 25 -46 25 -20 0
-104 100 -104 124 0 12 -5 27 -12 34 -9 9 -8 18 2 37 10 20 11 31 3 44 -11 17
-8 26 44 121 10 19 47 65 82 102 74 78 114 94 266 108 88 9 90 8 135 -20 25
-16 50 -34 57 -39 6 -6 34 -8 61 -6 40 3 54 0 68 -16 20 -22 62 -25 70 -5 7
18 -57 108 -72 102 -7 -3 -22 6 -35 20 -12 13 -28 24 -34 24 -7 0 -23 8 -36
18 -13 11 -44 22 -69 25 -25 3 -53 9 -61 12 -8 3 -17 4 -20 1z"/>
<path d="M4866 8041 c-11 -12 -24 -30 -30 -40 -46 -80 -177 -230 -253 -290
-24 -18 -43 -38 -43 -45 0 -18 -43 -56 -63 -56 -9 0 -21 -9 -27 -19 -5 -11
-22 -26 -38 -33 -25 -13 -27 -18 -27 -75 0 -72 14 -95 45 -75 11 6 31 12 45
12 40 0 74 23 150 101 39 40 83 80 98 90 16 9 39 36 50 60 12 24 31 48 43 54
11 6 32 24 47 40 14 17 28 28 31 25 18 -19 -14 -288 -39 -327 -10 -15 -14 -34
-10 -51 3 -15 -2 -59 -11 -97 -9 -39 -19 -99 -21 -135 -3 -36 -10 -72 -17 -80
-7 -8 -14 -44 -15 -80 -1 -59 1 -68 28 -97 18 -20 39 -33 55 -33 21 0 79 37
98 64 7 11 0 35 -18 56 -14 16 -13 30 10 130 28 123 41 167 52 181 6 8 12 41
13 74 1 33 7 65 12 72 6 7 13 58 16 115 10 205 15 263 23 273 5 6 5 17 0 25
-6 8 -10 27 -10 42 0 15 -4 29 -9 32 -4 3 -11 23 -15 45 -3 22 -10 42 -14 45
-5 3 -38 8 -73 12 -57 6 -66 4 -83 -15z"/>
<path d="M7114 7979 c-4 -7 4 -20 17 -30 22 -17 25 -17 36 -2 9 12 10 20 2 30
-14 16 -45 17 -55 2z"/>
<path d="M5925 7969 c-44 -5 -93 -11 -110 -13 -16 -3 -33 -5 -36 -5 -4 -1 -35
-22 -70 -47 -34 -26 -77 -51 -95 -56 -18 -4 -52 -27 -77 -51 -24 -23 -56 -50
-71 -60 -19 -13 -26 -27 -26 -50 0 -18 -4 -37 -9 -42 -13 -15 -21 -84 -10 -91
6 -4 3 -14 -7 -25 -10 -11 -12 -19 -6 -19 7 0 12 -10 12 -23 0 -13 7 -32 15
-43 8 -10 23 -37 34 -59 37 -83 200 -267 265 -301 39 -21 86 -34 156 -44 68
-10 147 10 180 45 13 14 29 25 35 25 17 0 45 33 45 53 0 8 14 29 30 45 17 17
30 40 30 53 0 12 10 38 22 57 16 26 23 53 23 97 1 33 4 66 8 71 7 13 -4 60
-24 95 -7 13 -13 47 -14 75 0 45 -5 56 -38 93 -37 41 -44 71 -16 62 41 -13 86
-12 97 2 11 12 5 19 -30 40 -24 14 -57 38 -74 54 -69 63 -115 75 -239 62z
m-30 -129 c4 -6 28 -8 59 -4 52 6 54 6 80 -29 15 -20 25 -41 21 -47 -3 -5 1
-13 9 -16 9 -3 16 -17 16 -30 0 -13 4 -32 9 -42 34 -64 38 -200 8 -246 -8 -12
-17 -42 -21 -68 -8 -54 -70 -132 -121 -153 -40 -17 -119 -8 -141 16 -9 11 -24
19 -31 19 -21 0 -124 105 -168 170 -20 29 -38 68 -39 84 -2 17 -7 39 -11 49
-4 11 -3 23 4 30 6 6 11 22 11 36 0 28 108 149 150 167 14 6 34 21 44 33 11
11 29 21 42 21 13 0 26 5 29 10 8 13 42 13 50 0z"/>
<path d="M3281 5417 l-23 -26 26 -28 c46 -49 39 -53 -101 -54 -66 0 -135 6
-176 15 -38 9 -98 16 -134 16 -36 0 -83 5 -104 12 -28 8 -46 8 -62 1 -16 -8
-39 -8 -73 -1 -55 10 -175 -6 -209 -29 -11 -7 -27 -13 -36 -13 -15 0 -52 -16
-99 -42 -8 -4 -22 -11 -30 -15 -8 -4 -48 -31 -88 -60 -40 -30 -80 -57 -87 -59
-8 -3 -17 -14 -20 -25 -4 -10 -13 -19 -21 -19 -8 0 -41 -21 -75 -47 -33 -26
-84 -59 -112 -73 -40 -19 -57 -35 -73 -68 -12 -24 -31 -50 -43 -58 -12 -8 -21
-23 -21 -33 0 -10 -6 -24 -13 -30 -8 -6 -19 -28 -25 -50 -7 -21 -19 -44 -27
-51 -8 -7 -15 -27 -15 -44 0 -18 -5 -37 -12 -44 -22 -22 -12 -337 12 -382 5
-10 10 -38 10 -62 1 -24 7 -54 15 -68 8 -14 14 -38 15 -55 0 -16 9 -45 20 -63
11 -18 18 -37 15 -42 -3 -5 4 -24 15 -42 11 -18 20 -39 20 -47 0 -19 42 -69
149 -174 151 -149 185 -183 211 -217 14 -17 35 -35 48 -40 12 -5 22 -18 22
-28 0 -10 16 -32 35 -49 19 -17 35 -38 35 -46 0 -18 59 -84 98 -109 15 -10 39
-18 53 -18 15 0 32 -7 39 -15 7 -8 20 -15 30 -15 10 0 23 -7 30 -15 8 -9 20
-13 29 -9 55 22 91 24 141 4 57 -23 188 -28 208 -8 7 7 65 12 169 13 181 3
320 13 346 27 17 8 34 12 115 25 19 3 36 12 39 20 7 19 56 43 87 43 14 0 27 4
30 9 9 14 85 51 104 51 10 0 22 4 27 9 6 4 33 14 60 21 50 14 115 56 115 75 0
12 44 55 57 55 5 0 35 27 67 60 38 39 67 60 81 60 32 0 119 92 151 159 18 36
28 81 33 136 5 45 11 87 15 93 4 6 2 21 -4 33 -9 16 -8 29 3 57 8 20 17 54 21
75 7 35 4 41 -38 83 -32 33 -46 57 -51 85 -4 24 -14 43 -27 50 -13 7 -18 17
-15 30 4 14 -12 45 -49 96 -30 41 -54 81 -54 88 0 7 -7 18 -15 25 -9 7 -13 21
-10 31 4 12 -1 22 -15 29 -11 6 -20 17 -20 24 0 7 -9 21 -20 31 -11 10 -20 28
-20 41 0 13 -5 26 -11 30 -6 3 -17 21 -25 38 -29 63 -64 119 -99 157 -19 21
-35 43 -35 49 0 5 -19 29 -42 54 -24 24 -58 60 -75 80 -18 19 -42 40 -53 46
-11 6 -20 16 -20 23 -1 21 -54 74 -99 98 -70 38 -80 45 -105 68 -12 11 -31 21
-41 21 -10 0 -29 10 -41 21 -13 12 -41 23 -66 26 -37 4 -47 1 -67 -20z m119
-57 c0 -5 -7 -10 -15 -10 -8 0 -15 5 -15 10 0 6 7 10 15 10 8 0 15 -4 15 -10z
m-545 -145 c17 -4 35 -11 40 -14 11 -7 20 -8 208 -17 90 -4 142 -3 149 4 5 5
27 8 49 5 26 -4 47 0 63 11 53 34 94 22 194 -55 51 -38 92 -73 92 -77 0 -4 18
-25 40 -47 38 -38 100 -119 100 -132 0 -3 17 -22 38 -42 20 -20 50 -63 65 -94
16 -31 32 -59 37 -62 5 -3 11 -20 15 -38 5 -29 22 -77 46 -132 5 -11 12 -76
17 -145 8 -118 1 -184 -21 -206 -4 -4 -7 -20 -7 -36 0 -16 -8 -40 -17 -54 -10
-16 -17 -48 -18 -78 0 -37 -6 -57 -20 -72 -26 -27 -48 -60 -46 -68 1 -4 -16
-29 -38 -57 -22 -27 -43 -63 -46 -79 -5 -23 -12 -30 -31 -30 -15 0 -28 -9 -38
-27 -17 -33 -121 -143 -134 -143 -6 0 -41 -14 -79 -31 -153 -69 -338 -132
-364 -124 -10 3 -39 -3 -64 -15 -41 -19 -54 -20 -108 -12 -37 6 -69 6 -79 1
-9 -5 -19 -5 -22 0 -3 4 -28 11 -55 15 -28 4 -53 10 -55 15 -3 5 -41 16 -85
26 -68 16 -88 25 -137 67 -56 48 -58 49 -118 46 -51 -2 -67 2 -93 20 -17 12
-40 22 -51 22 -12 0 -30 14 -42 30 -12 17 -27 30 -34 30 -7 0 -21 9 -31 20
-10 11 -22 20 -28 20 -12 0 -167 129 -167 139 0 7 -26 40 -65 82 -8 9 -15 20
-15 26 0 6 -18 50 -40 97 -22 47 -40 94 -40 104 0 10 -4 22 -9 28 -11 11 -20
78 -27 194 -3 47 -9 89 -14 95 -14 17 4 152 23 173 9 10 17 26 17 35 0 9 10
33 23 54 12 20 27 53 32 72 8 26 34 56 95 108 46 40 90 73 97 73 7 0 17 9 23
20 6 11 22 23 36 26 23 6 175 118 220 163 12 12 31 21 43 21 12 0 38 7 59 16
20 8 68 16 105 18 37 2 72 7 77 12 11 11 192 10 235 -1z m1327 -1053 c5 -18
13 -32 17 -32 9 0 17 -48 26 -142 2 -32 -1 -50 -11 -59 -8 -6 -14 -29 -14 -51
0 -30 -8 -49 -31 -77 -69 -82 -85 -96 -133 -116 -18 -8 -54 -35 -80 -60 -26
-25 -49 -45 -52 -45 -3 0 -26 -18 -51 -40 -45 -39 -73 -51 -73 -29 0 6 38 47
85 92 47 44 85 89 85 99 0 10 18 41 40 69 22 28 40 60 40 70 0 25 27 79 40 79
6 0 10 15 10 33 0 22 7 36 21 45 13 9 18 19 14 32 -3 10 -1 21 4 24 5 4 7 22
4 41 -6 39 21 109 40 102 6 -2 15 -18 19 -35z m-1742 -852 c69 -25 111 -73 76
-86 -26 -10 -136 65 -136 92 0 17 -5 18 60 -6z"/>
<path d="M2948 4890 c-15 -4 -41 -22 -58 -38 -16 -17 -43 -33 -59 -37 -16 -3
-37 -15 -47 -26 -9 -10 -27 -19 -40 -19 -13 0 -26 -5 -29 -11 -4 -6 -13 -8
-20 -5 -7 2 -37 -4 -67 -14 -29 -10 -77 -24 -106 -30 -74 -17 -112 -51 -112
-100 0 -22 6 -43 15 -50 9 -7 14 -19 11 -27 -3 -7 6 -20 20 -29 28 -19 54 -63
54 -93 0 -11 9 -25 21 -31 11 -7 18 -17 16 -25 -8 -19 21 -55 44 -55 12 0 19
-7 19 -20 0 -42 88 -54 123 -16 74 79 145 67 269 -44 73 -65 82 -87 60 -145
-9 -26 -31 -63 -47 -82 -34 -39 -67 -46 -121 -23 -34 15 -68 9 -103 -18 l-23
-19 26 -49 c14 -27 41 -67 60 -88 l34 -39 86 0 87 0 40 39 c21 21 39 42 39 46
0 5 9 22 20 38 11 17 29 44 41 61 11 17 18 37 15 46 -4 9 -1 22 5 30 15 17 17
145 3 190 -5 18 -24 43 -41 56 -18 13 -30 27 -26 30 9 10 -24 44 -72 72 -24
13 -45 31 -49 40 -3 8 -13 15 -21 15 -9 0 -37 9 -62 21 -39 18 -61 20 -148 18
-111 -4 -135 4 -135 47 0 12 -4 26 -10 29 -37 23 54 83 138 90 69 5 103 18
169 63 66 45 70 49 103 110 l24 43 -25 24 c-27 27 -81 38 -121 25z"/>
<path d="M6635 5387 c-27 -5 -75 -18 -105 -29 -30 -11 -68 -22 -85 -25 -16 -3
-37 -11 -45 -18 -8 -7 -51 -19 -95 -25 -132 -20 -256 -63 -289 -99 -11 -12
-30 -21 -43 -21 -17 0 -29 -10 -41 -32 -9 -18 -37 -54 -62 -79 -25 -25 -59
-62 -77 -83 -18 -20 -41 -36 -51 -36 -20 0 -72 -42 -72 -58 0 -5 -26 -28 -57
-51 -32 -23 -69 -58 -83 -76 -14 -19 -30 -35 -36 -35 -7 0 -20 -12 -29 -27
-10 -15 -43 -52 -72 -83 -30 -30 -61 -67 -69 -81 -7 -15 -20 -29 -29 -32 -8
-4 -15 -17 -15 -31 0 -14 -10 -30 -24 -40 -33 -21 -89 -103 -80 -117 3 -6 -7
-25 -24 -42 -16 -18 -37 -45 -46 -62 -9 -16 -20 -37 -25 -45 -18 -32 -37 -87
-41 -120 0 -3 -12 -36 -26 -75 -14 -38 -28 -83 -30 -100 -2 -16 -8 -59 -14
-95 -10 -68 -3 -207 11 -216 5 -3 9 -23 9 -44 0 -21 5 -42 11 -46 6 -3 8 -15
6 -25 -3 -11 10 -49 29 -86 19 -37 34 -73 34 -80 0 -6 12 -29 26 -50 14 -21
36 -60 49 -88 12 -27 32 -59 44 -69 11 -11 21 -23 21 -28 0 -24 280 -263 316
-270 11 -2 21 -14 24 -29 11 -53 137 -191 168 -182 13 3 33 -6 58 -29 22 -18
56 -46 77 -61 20 -16 37 -34 37 -41 0 -7 20 -34 45 -59 25 -26 45 -51 45 -55
0 -8 58 -53 133 -105 25 -16 48 -25 59 -21 10 3 32 -2 50 -10 17 -9 36 -16 43
-16 7 0 20 -9 30 -20 10 -11 23 -20 28 -20 6 0 18 -7 27 -15 27 -25 110 -65
134 -65 12 0 27 -5 33 -11 14 -14 412 -16 439 -2 10 6 55 13 98 17 43 3 84 10
90 15 6 4 36 14 66 21 30 7 64 21 75 31 11 10 39 21 63 25 26 4 47 14 53 25 5
11 16 19 25 19 8 0 17 7 20 15 4 9 13 13 24 10 9 -3 23 1 30 10 7 8 22 15 34
15 11 0 30 7 40 15 11 8 35 15 53 15 41 0 86 22 107 51 10 15 20 19 35 14 25
-8 81 31 81 56 0 10 11 19 25 23 14 4 48 34 78 71 28 36 60 65 70 65 9 0 17 7
17 16 0 8 16 22 35 30 20 8 38 21 42 29 3 8 9 15 14 15 6 0 27 17 47 38 53 52
129 114 161 131 29 15 241 221 238 231 -1 3 15 21 36 39 20 18 37 39 37 46 0
7 7 16 15 19 12 4 13 10 6 24 -6 11 -6 23 -1 28 4 5 10 34 13 64 3 30 8 78 12
105 4 28 7 69 6 91 -1 26 5 46 14 54 11 9 14 23 9 45 -3 18 -1 43 6 55 10 19
8 26 -11 46 -19 20 -21 28 -11 46 27 58 31 253 4 280 -6 6 -12 16 -12 20 0 5
-19 35 -42 69 -47 66 -116 180 -149 246 -11 23 -29 45 -40 48 -10 4 -19 14
-19 24 0 9 -22 39 -50 66 -27 27 -50 55 -50 62 0 7 -17 29 -37 50 -21 22 -48
50 -60 63 -11 14 -36 39 -55 56 -19 17 -42 47 -52 67 -9 21 -22 37 -28 37 -6
0 -39 27 -72 61 -34 33 -85 72 -115 87 -30 15 -62 39 -70 54 -9 15 -35 38 -58
50 -40 22 -114 80 -157 124 -46 46 -159 93 -239 100 -21 1 -47 10 -56 18 -10
9 -31 16 -47 16 -16 0 -52 11 -80 24 -28 13 -93 31 -145 41 -52 9 -117 23
-146 31 -58 16 -221 17 -298 1z m305 -117 c0 -5 -9 -10 -20 -10 -11 0 -20 5
-20 10 0 6 9 10 20 10 11 0 20 -4 20 -10z m53 -16 c23 -8 22 -24 -3 -24 -10 0
-24 10 -31 21 -9 17 -8 20 3 15 7 -3 21 -9 31 -12z m-109 -28 c69 -25 145 -27
172 -6 13 12 24 11 106 -6 18 -4 28 -14 30 -28 2 -16 12 -22 43 -26 22 -3 54
-12 70 -21 17 -9 41 -20 55 -24 14 -4 37 -19 52 -33 22 -20 39 -26 88 -28 65
-2 130 -27 130 -49 0 -8 8 -20 19 -27 10 -7 25 -26 34 -43 15 -30 57 -77 112
-127 46 -42 85 -86 85 -96 0 -5 8 -20 18 -33 10 -13 26 -44 36 -69 10 -25 25
-56 34 -70 22 -34 42 -89 42 -120 0 -15 6 -32 12 -38 10 -10 10 -17 0 -32 -10
-17 -10 -21 3 -26 8 -4 15 -12 15 -19 0 -16 29 -73 41 -80 5 -4 5 -14 -1 -26
-7 -12 -7 -25 -1 -36 5 -10 9 -46 9 -80 0 -33 3 -75 7 -91 3 -17 2 -33 -4 -37
-7 -3 -8 -28 -5 -64 4 -37 2 -66 -5 -80 -10 -17 -10 -26 -1 -36 9 -11 9 -23
-1 -52 -7 -21 -13 -56 -14 -79 -1 -27 -10 -52 -29 -77 -15 -20 -25 -41 -22
-46 4 -6 -3 -15 -14 -21 -12 -6 -20 -21 -20 -36 0 -13 -7 -27 -15 -30 -8 -4
-15 -16 -15 -29 0 -13 -7 -25 -15 -29 -8 -3 -15 -9 -15 -14 0 -5 -16 -27 -35
-48 -19 -21 -35 -44 -35 -51 0 -14 -136 -153 -151 -153 -5 0 -14 -11 -19 -25
-10 -28 -85 -79 -105 -72 -7 3 -27 -8 -44 -24 -18 -16 -35 -29 -38 -29 -3 0
-21 -11 -39 -25 -18 -14 -37 -25 -43 -25 -13 0 -86 -71 -93 -92 -4 -10 -14
-15 -26 -12 -16 5 -90 -23 -154 -57 -10 -5 -26 -9 -37 -9 -10 0 -24 -7 -31
-15 -7 -8 -22 -14 -34 -14 -11 0 -48 -7 -81 -17 -93 -26 -233 -40 -256 -26
-10 7 -50 12 -88 12 -38 0 -99 7 -136 15 -57 14 -170 28 -300 39 -169 15 -390
61 -421 88 -11 10 -28 18 -38 18 -9 0 -32 16 -50 35 -23 24 -42 35 -61 35 -38
0 -132 76 -266 216 -33 34 -59 68 -59 76 0 9 -7 21 -15 28 -17 14 -65 112 -65
133 0 7 -9 23 -19 37 -15 18 -17 29 -9 43 8 15 5 26 -10 47 -13 17 -17 32 -12
40 5 9 -1 25 -16 46 -18 23 -23 39 -19 57 4 14 2 28 -4 31 -21 14 -4 203 21
233 5 7 10 29 10 50 0 21 6 54 14 73 13 34 37 120 36 130 -1 3 13 19 30 37 20
21 28 37 24 48 -4 12 0 18 13 22 11 3 26 22 34 42 9 20 22 43 31 50 9 8 16 19
16 26 0 7 25 37 55 66 30 30 55 60 55 67 0 7 8 16 18 19 9 4 44 35 76 70 32
35 66 63 75 63 10 0 21 13 26 33 8 24 21 37 58 55 26 13 62 37 80 53 17 16 37
29 44 29 6 0 29 21 49 48 21 26 45 54 54 62 9 8 24 27 32 41 17 27 150 99 185
99 11 0 23 3 27 7 12 12 80 33 108 33 15 0 30 5 33 10 3 6 16 10 29 10 13 0
31 9 41 20 10 11 26 20 35 20 10 0 31 7 46 15 16 8 45 17 64 21 19 3 44 10 55
15 11 5 52 10 90 12 39 2 87 4 107 5 20 1 67 -9 102 -22z m-784 -126 c0 -5 -7
-10 -15 -10 -8 0 -15 5 -15 10 0 6 7 10 15 10 8 0 15 -4 15 -10z m2041 -545
c25 -27 49 -58 52 -68 4 -9 18 -22 32 -27 14 -5 25 -15 25 -21 0 -6 28 -50 63
-98 71 -100 87 -125 87 -144 0 -7 19 -36 43 -63 23 -27 51 -69 61 -92 11 -23
23 -42 28 -42 4 0 8 -10 8 -23 0 -13 5 -28 12 -35 16 -16 22 -155 6 -150 -12
4 -15 10 -39 63 -8 17 -37 59 -66 95 -29 35 -53 70 -53 76 0 7 -26 36 -58 65
-63 59 -94 113 -86 147 5 17 1 22 -22 27 -49 11 -54 14 -49 28 3 7 -2 33 -10
57 -9 25 -19 61 -21 80 -3 18 -15 48 -28 65 -12 16 -26 42 -29 57 -4 14 -10
34 -14 43 -10 27 8 15 58 -40z m180 -632 c92 -111 119 -150 119 -173 0 -15 7
-20 24 -20 32 0 41 -16 26 -46 -12 -21 -10 -28 13 -63 15 -23 27 -54 27 -70 0
-16 5 -33 10 -36 16 -10 12 -81 -5 -95 -12 -10 -18 -8 -35 11 -10 13 -19 36
-20 50 0 15 -7 33 -16 40 -9 7 -20 24 -25 37 -5 13 -18 26 -28 29 -11 3 -25
18 -31 34 -16 39 -37 56 -52 41 -8 -8 -7 -22 6 -51 19 -41 15 -61 -10 -61 -18
0 -18 -14 1 -30 8 -7 15 -21 15 -31 0 -10 4 -20 9 -23 4 -3 11 -19 14 -35 4
-16 16 -38 27 -49 20 -18 20 -21 5 -65 -19 -56 -9 -110 21 -116 25 -4 44 -20
44 -37 0 -20 -127 -147 -140 -139 -5 3 -10 26 -10 51 0 25 -7 58 -15 74 -8 16
-11 31 -6 34 10 6 -2 51 -25 99 -8 16 -14 34 -14 40 0 7 -23 36 -51 66 l-50
54 18 51 c9 28 21 57 26 64 5 6 13 27 16 45 5 21 14 33 26 35 27 5 55 32 55
52 0 10 -16 30 -36 45 -32 25 -35 31 -29 59 5 17 9 65 9 106 2 65 9 100 20
100 2 0 32 -35 67 -77z m-154 -616 c15 -14 21 -27 17 -42 -3 -14 4 -36 21 -61
21 -31 25 -46 20 -72 -5 -25 -2 -39 11 -53 9 -10 14 -25 11 -33 -3 -8 1 -20 9
-26 8 -7 14 -18 14 -24 0 -6 -57 -65 -127 -131 -69 -66 -136 -130 -148 -142
-12 -13 -28 -23 -35 -23 -6 0 -31 -19 -55 -42 -84 -82 -125 -104 -125 -65 0 7
-27 45 -60 85 -33 41 -60 81 -60 90 0 9 -12 26 -27 39 l-28 23 24 19 c14 10
30 17 36 15 7 -3 18 2 25 11 7 8 18 15 25 15 8 0 32 21 54 47 37 44 42 46 68
37 15 -5 34 -23 42 -39 13 -28 13 -30 -18 -55 -36 -31 -38 -43 -11 -70 21 -21
74 -27 85 -9 4 5 18 14 30 19 35 13 60 66 46 97 -6 13 -11 32 -11 42 0 9 -13
30 -30 46 -16 16 -30 37 -30 47 0 10 -4 18 -10 18 -5 0 -10 8 -10 18 1 20 23
52 37 52 6 0 21 16 34 35 13 19 27 35 32 35 4 0 7 8 7 19 0 10 7 24 15 31 8 7
15 19 15 28 0 8 9 23 20 32 24 21 55 16 87 -13z m-259 -266 c18 -11 12 -45 -8
-49 -9 -1 -24 4 -35 12 -16 12 -17 16 -6 30 15 18 29 20 49 7z m-316 -278 c10
-9 18 -24 18 -34 0 -10 5 -21 10 -24 24 -15 40 -76 30 -118 -9 -39 -7 -44 15
-60 14 -10 25 -27 25 -37 0 -24 -64 -65 -131 -83 -30 -8 -65 -18 -78 -23 -23
-7 -24 -6 -17 27 21 106 23 99 -43 171 -34 36 -64 79 -67 95 -5 25 -1 30 28
41 18 7 46 20 61 29 65 35 121 41 149 16z m-258 -135 c37 -24 46 -45 22 -54
-34 -13 -24 -53 27 -111 19 -21 19 -24 4 -41 -21 -23 -21 -36 -2 -52 25 -21
17 -36 -27 -50 -24 -7 -71 -28 -106 -46 -34 -19 -74 -34 -87 -34 -14 0 -44 -8
-68 -19 -49 -22 -287 -41 -380 -31 -31 3 -63 3 -70 -2 -20 -13 -82 -9 -123 8
-81 34 -142 65 -154 79 -7 8 -23 15 -35 15 -12 0 -28 7 -36 16 -16 20 -83 54
-105 54 -9 0 -37 15 -63 33 -25 19 -54 37 -63 40 -10 4 -18 11 -18 16 0 5 -52
44 -115 86 -63 43 -118 81 -121 86 -7 12 43 11 66 -1 34 -18 173 -39 290 -44
63 -2 129 -10 145 -17 17 -7 59 -12 94 -11 36 0 76 -5 90 -13 14 -7 49 -12 76
-11 28 2 75 0 105 -4 30 -3 92 -4 137 -1 69 5 85 3 104 -11 12 -10 34 -18 50
-18 16 0 29 -4 29 -10 0 -5 -7 -10 -15 -10 -8 0 -15 -3 -15 -8 0 -18 32 -51
53 -54 15 -2 25 -14 33 -36 16 -49 36 -65 73 -57 42 9 46 20 25 63 -10 20 -18
48 -18 62 -1 17 -8 26 -26 30 -14 3 -27 15 -29 25 -2 11 -10 25 -19 31 -19 14
-8 34 20 34 11 0 31 9 45 20 14 11 34 20 44 20 10 0 21 5 24 11 4 6 19 7 37 4
24 -6 30 -3 35 14 7 27 23 26 67 -1z m358 -53 c0 -5 -5 -11 -11 -13 -6 -2 -11
4 -11 13 0 9 5 15 11 13 6 -2 11 -8 11 -13z"/>
<path d="M6250 4531 c-30 -8 -66 -73 -61 -112 1 -9 -5 -19 -14 -22 -10 -5 -15
-20 -15 -51 0 -38 -4 -48 -30 -66 -21 -15 -30 -30 -30 -50 0 -16 -7 -35 -15
-43 -8 -8 -22 -34 -31 -58 -11 -27 -42 -67 -81 -105 -35 -33 -63 -68 -63 -77
0 -9 -4 -17 -10 -17 -5 0 -16 -16 -25 -36 -13 -32 -13 -38 1 -59 9 -13 13 -28
10 -34 -12 -19 25 -41 69 -41 34 0 46 5 59 25 9 14 28 28 41 31 26 6 55 49 55
79 0 8 7 15 14 15 19 0 66 43 66 60 0 6 9 19 20 28 11 10 37 51 58 91 46 90
62 99 63 39 1 -23 3 -65 5 -91 2 -26 0 -56 -6 -66 -5 -10 -6 -22 -2 -26 10 -9
12 -39 15 -205 1 -84 8 -160 15 -181 15 -42 81 -92 114 -87 35 5 65 137 37
165 -6 6 -12 41 -15 79 -2 38 -6 86 -10 107 -3 20 -2 43 2 50 9 12 8 94 -2
282 -3 50 -5 107 -4 129 0 22 -8 53 -20 74 -12 19 -20 47 -18 62 2 25 -37 92
-66 112 -13 9 -92 9 -126 -1z"/>
<path d="M6947 4308 c-40 -40 -91 -89 -115 -108 -24 -20 -49 -50 -55 -70 -7
-19 -27 -50 -45 -69 -18 -18 -32 -42 -32 -53 0 -10 -5 -28 -11 -39 -8 -16 -7
-25 5 -37 8 -10 18 -41 22 -70 4 -36 12 -56 25 -63 11 -5 19 -18 19 -29 0 -10
5 -22 11 -26 6 -3 20 -27 32 -53 26 -59 56 -98 139 -181 62 -61 73 -67 131
-79 60 -12 65 -11 101 11 79 48 129 107 180 213 53 109 66 143 60 159 -3 9 -1
22 4 29 18 22 14 139 -6 181 -6 12 -13 28 -16 36 -17 39 -37 64 -69 86 -33 22
-36 27 -26 52 8 22 7 29 -8 42 -22 19 -73 86 -73 97 0 22 -65 43 -131 43 l-70
0 -72 -72z m150 -143 c38 -19 76 -42 84 -51 7 -9 23 -20 34 -24 21 -8 45 -80
45 -136 0 -14 5 -35 11 -46 7 -14 8 -28 1 -42 -5 -11 -18 -39 -28 -61 -10 -22
-21 -56 -24 -75 -4 -26 -11 -36 -30 -40 -15 -4 -26 -14 -28 -27 -5 -32 -29
-47 -79 -48 -37 -2 -46 2 -53 19 -4 12 -20 31 -34 43 -14 13 -26 30 -26 38 0
8 -13 24 -30 37 -16 12 -30 30 -30 40 0 10 -10 35 -23 56 -25 39 -47 95 -47
119 0 7 11 19 25 25 16 7 25 19 25 34 0 13 5 26 10 29 6 3 10 13 10 21 0 12
102 124 113 124 2 0 35 -16 74 -35z"/>
</g>
</svg>
