<svg xmlns="http://www.w3.org/2000/svg" xmlns:xlink="http://www.w3.org/1999/xlink" width="96px" height="96px" viewBox="0 0 96 96"><style type="text/css"><![CDATA[polygon{fill:#fff;}]]></style><g><polygon points="64,0 32,0 48,16"/><polygon points="64,0 96,32 96,0"/><polygon points="0,96 16,96 0,80"/><polygon points="16,96 48,96 32,80"/><polygon points="64,80 48,96 96,96 96,64 80,80 88,88 80,96 72,88"/><polygon points="96,64 96,32 80,48"/><polygon points="0,16 8,8 16,16 32,0 0,0 0,48 16,32"/><polygon points="0,48 0,80 16,64"/><polygon points="-32,0 -64,0 -48,16"/><polygon points="-96,0 -96,32 -64,0"/><polygon points="-32,0 0,32 0,0"/><polygon points="-72,88 -96,64 -96,96 -80,96 -64,96 -48,96 -64,80"/><polygon points="-32,80 -48,96 -32,96 -16,96 0,96 0,64 -24,88"/><polygon points="-96,32 -96,64 -80,48"/><polygon points="0,64 0,32 -16,48"/><polygon points="160,0 128,0 144,16"/><polygon points="160,0 192,32 192,0"/><polygon points="96,96 112,96 96,80"/><polygon points="112,96 144,96 128,80"/><polygon points="160,80 144,96 160,96 176,96 192,96 192,64 168,88"/><polygon points="192,64 192,32 176,48"/><polygon points="96,16 104,8 112,16 128,0 96,0 96,48 112,32"/><polygon points="96,48 96,80 112,64"/></g></svg>