<?xml version="1.0" standalone="no"?>
<!DOCTYPE svg PUBLIC "-//W3C//DTD SVG 20010904//EN"
 "http://www.w3.org/TR/2001/REC-SVG-20010904/DTD/svg10.dtd">
<svg version="1.0" xmlns="http://www.w3.org/2000/svg"
 width="702.899468pt" height="710.902775pt" viewBox="0 0 702.899468 710.902775"
 preserveAspectRatio="xMidYMid meet">
<metadata>
Created by potrace 1.16, written by Peter Selinger 2001-2019
</metadata>
<g transform="translate(-46.067194,753.954227) scale(0.100000,-0.100000)"
fill="#ffffff" stroke="none">
<path d="M3805 7524 c-33 -7 -82 -13 -110 -14 -67 0 -167 -17 -218 -36 -38
-14 -91 -29 -197 -54 -168 -39 -270 -68 -335 -95 -16 -7 -50 -18 -75 -25 -41
-11 -97 -36 -325 -146 -121 -59 -207 -114 -305 -196 -47 -39 -245 -168 -258
-168 -5 0 -21 -14 -38 -31 -16 -17 -69 -59 -119 -94 -87 -60 -148 -120 -414
-410 -56 -60 -110 -128 -122 -151 -11 -23 -27 -48 -36 -55 -8 -7 -32 -38 -53
-69 -21 -30 -65 -84 -97 -120 -33 -36 -65 -82 -72 -102 -7 -21 -17 -41 -23
-44 -6 -4 -19 -25 -30 -48 -22 -47 -30 -60 -81 -138 -20 -31 -37 -61 -37 -66
0 -5 -9 -21 -20 -35 -26 -33 -68 -137 -115 -284 -20 -65 -53 -149 -72 -188
-33 -68 -45 -119 -63 -275 -9 -75 -33 -184 -65 -292 -9 -32 -22 -127 -30 -210
-7 -84 -18 -171 -24 -193 -16 -59 -13 -228 5 -325 16 -82 23 -140 43 -355 9
-101 71 -311 126 -430 44 -95 62 -140 75 -180 13 -41 41 -105 111 -252 21 -45
39 -86 39 -90 0 -5 20 -40 45 -77 25 -38 45 -72 45 -75 0 -10 45 -92 88 -163
23 -37 42 -71 42 -75 0 -3 6 -14 14 -22 8 -9 33 -53 55 -98 23 -45 45 -84 50
-88 6 -3 36 -43 68 -88 32 -45 87 -113 124 -152 36 -38 87 -97 113 -130 26
-33 65 -73 86 -90 21 -16 50 -45 65 -63 15 -18 48 -44 74 -59 25 -15 60 -37
76 -48 17 -12 37 -25 45 -29 8 -3 29 -15 45 -26 31 -20 77 -43 210 -105 44
-20 87 -40 95 -45 8 -5 40 -24 70 -42 167 -101 168 -102 355 -188 90 -41 127
-57 154 -65 14 -4 46 -21 72 -36 25 -16 58 -29 71 -29 14 0 31 -6 37 -14 6 -7
25 -16 42 -20 16 -3 44 -17 62 -30 47 -36 134 -53 299 -60 108 -4 149 -2 156
7 18 23 20 180 6 391 -8 116 -19 398 -24 626 -5 228 -14 458 -19 510 -21 203
-24 478 -7 607 9 67 16 178 16 247 l0 125 -31 22 c-29 21 -37 21 -143 14 -61
-4 -160 -8 -221 -9 -60 -1 -180 -6 -265 -10 -135 -8 -157 -7 -168 7 -7 9 -17
66 -22 139 -6 67 -15 159 -20 203 -6 51 -6 166 -1 320 5 132 9 251 8 265 l-2
25 165 2 c91 1 271 7 400 13 226 10 236 12 273 36 l39 25 -6 97 c-17 297 -17
361 4 597 26 300 21 272 100 565 72 267 278 523 522 653 59 31 114 57 123 57
8 0 40 12 71 26 100 46 183 62 384 76 176 13 739 13 751 1 5 -5 5 -84 -1 -184
-6 -96 -14 -275 -18 -399 l-7 -225 -115 -6 c-63 -4 -131 -12 -150 -18 -19 -6
-75 -11 -123 -11 -200 0 -291 -30 -419 -138 -112 -93 -132 -130 -189 -337 -20
-72 -22 -102 -21 -305 0 -132 5 -236 11 -253 6 -15 14 -70 17 -122 5 -62 12
-99 21 -106 10 -9 39 -10 101 -4 94 9 121 9 282 0 58 -3 200 -8 315 -11 116
-3 213 -9 218 -13 7 -7 -29 -159 -57 -238 -8 -23 -24 -93 -35 -155 -11 -62
-29 -140 -39 -173 -11 -33 -25 -102 -32 -152 -8 -56 -19 -98 -28 -105 -10 -8
-124 -17 -371 -26 -215 -9 -366 -19 -381 -26 -22 -10 -25 -19 -28 -66 -2 -30
1 -63 7 -75 10 -22 25 -776 22 -1140 -2 -121 3 -321 9 -445 11 -221 22 -671
20 -800 -1 -58 2 -68 24 -89 24 -22 31 -23 96 -17 73 6 181 31 213 47 10 5 55
16 100 24 45 8 109 26 142 40 33 13 71 25 84 25 44 0 146 31 221 67 41 20 86
41 100 47 14 6 53 28 87 49 35 20 66 37 71 37 5 0 34 18 64 39 31 22 85 53
120 70 145 69 178 96 473 390 160 160 322 327 360 372 115 134 207 251 250
314 22 33 61 83 86 110 25 28 61 77 79 110 18 33 46 78 60 100 15 22 37 69 50
105 12 36 33 84 46 107 13 23 30 68 38 100 14 58 74 268 101 353 7 25 19 70
25 100 23 105 27 126 54 240 55 244 76 433 76 695 -1 155 -6 275 -15 340 -8
55 -15 125 -15 155 0 30 -9 82 -20 114 -11 33 -20 80 -20 105 -1 25 -7 73 -14
106 -8 33 -20 87 -26 120 -7 33 -23 87 -35 120 -13 33 -26 86 -30 118 -4 32
-13 70 -20 85 -8 14 -17 47 -21 72 -3 25 -19 73 -35 106 -16 34 -29 68 -29 76
0 8 -9 23 -19 32 -11 10 -22 30 -26 44 -6 25 -39 101 -70 162 -62 122 -96 173
-161 244 -42 44 -92 105 -111 135 -40 62 -365 391 -467 471 -38 30 -109 91
-157 135 -167 154 -426 355 -457 355 -9 0 -28 9 -42 20 -14 11 -29 20 -34 20
-5 0 -24 11 -42 25 -18 14 -36 25 -39 25 -4 0 -20 11 -37 25 -16 13 -46 29
-67 35 -21 5 -44 17 -51 25 -7 8 -42 24 -78 35 -36 11 -73 27 -82 35 -9 8 -70
28 -136 45 -65 17 -153 40 -194 52 -41 11 -100 26 -130 33 -446 103 -391 95
-683 94 -181 -1 -281 -5 -322 -15z m600 -170 c33 -9 84 -20 114 -25 29 -5 62
-14 71 -19 10 -6 63 -19 117 -30 195 -40 434 -106 478 -132 17 -10 38 -18 49
-18 26 0 200 -87 261 -130 28 -19 79 -50 115 -69 92 -47 215 -136 336 -243 30
-27 59 -48 64 -48 6 0 41 -30 78 -67 37 -38 110 -102 162 -143 51 -41 117
-100 144 -130 28 -30 98 -102 155 -160 57 -58 116 -125 132 -150 16 -24 65
-83 109 -131 66 -72 92 -111 150 -225 38 -77 73 -155 76 -174 4 -19 18 -55 31
-81 12 -26 23 -50 23 -55 0 -4 9 -17 19 -28 12 -13 24 -47 30 -84 6 -35 14
-69 19 -75 5 -7 15 -41 21 -77 7 -36 19 -78 26 -95 19 -40 55 -210 67 -310 5
-44 18 -113 28 -152 11 -40 20 -97 20 -128 0 -30 7 -99 16 -153 13 -77 15
-139 10 -297 -3 -110 -10 -216 -16 -235 -6 -19 -15 -78 -21 -130 -6 -52 -24
-149 -41 -215 -45 -180 -48 -196 -59 -254 -5 -29 -14 -63 -20 -73 -9 -18 -34
-105 -80 -288 -7 -25 -15 -54 -19 -65 -5 -11 -16 -40 -25 -65 -15 -42 -35 -87
-73 -170 -9 -19 -31 -59 -50 -87 -18 -29 -36 -63 -41 -75 -5 -13 -31 -48 -57
-79 -27 -30 -76 -92 -109 -138 -154 -211 -314 -391 -628 -703 l-249 -246 -115
-58 c-63 -31 -127 -67 -142 -79 -14 -12 -51 -33 -81 -45 -30 -13 -64 -31 -75
-40 -41 -35 -218 -114 -315 -141 -64 -17 -80 -21 -235 -61 -44 -12 -109 -29
-144 -39 -35 -11 -70 -19 -77 -19 -18 0 -25 67 -25 241 0 84 -5 240 -11 344
-6 105 -11 354 -12 555 -2 201 -6 538 -11 750 -7 333 -6 387 7 397 15 13 380
33 598 33 140 0 156 8 163 77 11 121 29 231 43 267 9 22 26 94 39 160 13 67
31 146 40 176 9 30 21 75 27 100 5 25 14 61 18 80 5 19 14 62 20 95 7 33 16
68 21 77 5 10 9 37 9 60 0 60 -38 98 -96 98 -24 0 -46 -4 -49 -10 -4 -6 -72
-8 -178 -5 -204 5 -627 25 -643 30 -33 10 -53 384 -27 505 32 154 71 226 165
309 71 62 88 71 157 90 53 15 107 21 174 21 53 0 133 7 178 16 76 16 83 16
117 0 20 -10 66 -20 103 -23 57 -5 72 -3 95 14 l27 20 3 354 c2 232 9 399 19
484 20 176 20 278 -1 296 -13 11 -97 14 -403 16 -212 2 -420 -1 -461 -7 -41
-5 -130 -14 -196 -19 -142 -12 -234 -32 -309 -66 -29 -14 -63 -25 -74 -25 -11
0 -78 -30 -148 -66 -107 -56 -137 -77 -187 -131 -32 -35 -75 -72 -95 -82 -32
-17 -81 -69 -81 -86 0 -4 -19 -32 -42 -63 -49 -65 -54 -74 -108 -181 -22 -44
-40 -86 -40 -94 0 -7 -9 -40 -20 -73 -31 -89 -72 -251 -82 -324 -23 -176 -49
-604 -46 -765 l3 -139 -35 -7 c-77 -16 -374 -30 -581 -27 -286 4 -266 21 -249
-208 9 -128 10 -201 1 -301 -11 -132 -5 -308 19 -558 15 -150 23 -177 66 -210
l36 -27 191 11 c106 7 273 13 372 14 l180 2 3 -33 c2 -18 -4 -87 -12 -153 -20
-152 -20 -381 0 -664 8 -121 17 -350 19 -510 3 -159 10 -373 16 -475 6 -102 9
-228 7 -280 l-3 -95 -35 1 c-66 3 -125 17 -145 34 -24 20 -130 70 -149 70 -11
0 -121 51 -198 91 -10 5 -26 9 -35 9 -10 0 -27 7 -38 16 -11 8 -48 23 -82 34
-34 10 -79 30 -100 43 -67 42 -236 141 -288 168 -27 14 -63 33 -80 42 -16 9
-35 17 -42 17 -18 0 -87 37 -168 89 -38 25 -87 54 -108 64 -36 18 -247 202
-247 216 0 3 -39 49 -87 101 -118 131 -242 297 -243 326 0 6 -17 35 -38 65
-21 30 -41 61 -44 70 -3 9 -23 41 -43 73 -20 31 -59 101 -87 154 -27 53 -55
104 -61 112 -13 15 -32 55 -62 125 -9 22 -30 67 -45 100 -68 147 -80 174 -80
183 0 5 -18 47 -39 94 -58 126 -102 262 -117 363 -7 50 -17 115 -23 145 -6 30
-15 84 -20 120 -5 36 -17 110 -25 165 -18 115 -20 165 -7 232 5 26 15 109 21
183 10 123 25 205 66 361 7 30 14 76 14 101 0 73 29 186 71 275 22 45 39 88
39 95 0 26 82 244 118 315 76 148 88 170 125 226 21 31 45 71 53 89 23 51 56
101 92 144 62 73 107 132 172 223 90 128 115 159 195 247 159 176 254 268 325
316 41 28 95 69 120 92 49 46 89 74 176 123 22 12 68 43 103 70 35 26 80 59
100 72 20 13 47 34 61 46 29 25 61 43 290 153 91 44 185 85 210 92 25 7 53 16
62 21 22 11 139 45 238 69 122 29 201 50 263 71 33 11 110 23 180 29 67 5 142
16 167 24 61 20 425 13 515 -10z"/>
</g>
</svg>
