<?xml version="1.0" encoding="UTF-8" standalone="no"?>
<svg
   xmlns:dc="http://purl.org/dc/elements/1.1/"
   xmlns:cc="http://creativecommons.org/ns#"
   xmlns:rdf="http://www.w3.org/1999/02/22-rdf-syntax-ns#"
   xmlns:svg="http://www.w3.org/2000/svg"
   xmlns="http://www.w3.org/2000/svg"
   xmlns:sodipodi="http://sodipodi.sourceforge.net/DTD/sodipodi-0.dtd"
   xmlns:inkscape="http://www.inkscape.org/namespaces/inkscape"
   inkscape:version="1.0 (4035a4f, 2020-05-01)"
   sodipodi:docname="handbook.svg"
   id="svg48"
   preserveAspectRatio="xMidYMid meet"
   viewBox="0 0 600.00004 600.00002"
   height="800"
   width="800"
   version="1.0">
  <defs
     id="defs52" />
  <sodipodi:namedview
     fit-margin-bottom="0"
     fit-margin-right="0"
     fit-margin-top="0"
     fit-margin-left="0"
     units="px"
     inkscape:current-layer="svg48"
     inkscape:window-maximized="1"
     inkscape:window-y="23"
     inkscape:window-x="51"
     inkscape:cy="360.87751"
     inkscape:cx="437.38661"
     inkscape:zoom="0.48348426"
     showgrid="false"
     id="namedview50"
     inkscape:window-height="755"
     inkscape:window-width="1229"
     inkscape:pageshadow="2"
     inkscape:pageopacity="0"
     guidetolerance="10"
     gridtolerance="10"
     objecttolerance="10"
     borderopacity="1"
     bordercolor="#666666"
     pagecolor="#ffffff" />
  <metadata
     id="metadata10">
Created by potrace 1.16, written by Peter Selinger 2001-2019
<rdf:RDF>
  <cc:Work
     rdf:about="">
    <dc:format>image/svg+xml</dc:format>
    <dc:type
       rdf:resource="http://purl.org/dc/dcmitype/StillImage" />
    <dc:title></dc:title>
  </cc:Work>
</rdf:RDF>
</metadata>
  <g
     transform="translate(56.194304,-5.0636132e-4)"
     style="stroke:#343434;stroke-width:7.5;stroke-miterlimit:4;stroke-dasharray:none;stroke-opacity:1"
     id="g990">
    <g
       id="g87"
       transform="scale(0.31144471)"
       style="stroke:#343434;stroke-width:24.0813;stroke-miterlimit:4;stroke-dasharray:none;stroke-opacity:1">
      <path
         d="m 1512.975,1.2109436 c -1.4,0.7 -4.7,1.3 -7.5,1.3 -2.7,0 -8.6,0.7 -13,1.6 -4.4,0.8 -9.7,1.3 -11.7,1 -2.3,-0.4 -5.2,0 -7.7,1 -3.2,1.3 -5,1.4 -8.7,0.6 -4.1,-0.9 -5.1,-0.8 -7,0.7 -2.4,1.9 -3.8,1.9 -30.4,0.7 -26.6,-1.3 -30.6,-1.4 -32.3,-0.4 -4.7,2.5000004 -13.4,2.8000004 -31.2,1.3 -33.1,-2.8 -43,-3.3 -44,-2.6 -0.5,0.5 -3.6,0.9 -6.7,0.9 -3.2,0.1 -7.1,0.8 -8.6,1.6 -3.4,1.8000004 -13.8,1.1000004 -16.2,-1 -1.9,-1.6 -10.9,-0.5 -13.5,1.6 -1.2,1.0000004 -2.4,1.0000004 -5.8,0.1 -3.1,-0.9 -5,-0.9 -7,-0.2 -1.6,0.6000004 -5.5,1.1000004 -8.7,1.1000004 -3.3,0 -7,0.5 -8.4,1.1 -1.4,0.7 -3.3,0.8 -4.3,0.4 -1,-0.5 -5.4,-1 -9.8,-1.2 -12.2,-0.5 -13.7,-0.5 -18,0.1 -2.2,0.4 -4.9,0.5 -6,0.5 -1.1,-0.1 -8.5,-0.3 -16.5,-0.5 -8,-0.1 -21.5,-0.5 -30.1,-0.8 -13.3,-0.5000004 -15.8,-0.4000004 -16.9,0.9 -1.1,1.3 -1.5,1.4 -2.9,0.2 -0.9,-0.8 -3.9,-1.7000004 -6.8,-2.0000004 -4.2,-0.5 -5.7,-0.2 -7.5,1.3000004 -2.2,1.7 -2.5,1.7 -5.1,0.2 -2.3,-1.4000004 -3.1,-1.4000004 -4.8,-0.4 -1.6,1 -4.6,1.2 -11.8,0.7 -8.2,-0.6 -9.9,-0.5 -11,0.9 -1.6,1.9 -4.2,2.1 -5.9,0.4 -0.7,-0.7 -4.6,-1 -11.4,-0.8 -19.5,0.5 -24.3,0.5 -30.3,-0.1 -3.3,-0.3 -8.7,-0.3 -12,0.1 -5.6,0.7 -10.6,0.3 -24.9,-2.0000004 -4.2,-0.7 -6.4,-0.6 -7.3,0.1 -0.9,0.8000004 -2.1,0.8000004 -4,0 -1.6,-0.6 -6.8,-1.3 -11.8,-1.6 -4.9,-0.3 -10.8,-0.9 -12.9,-1.4 -2.6,-0.7 -4.6,-0.6 -5.9,0.1 -1.2,0.6 -8.9,0.9 -20.1,0.8 -31.4,-0.5 -49.7,0 -66.4,2 -5,0.6000004 -15.1,0.6000004 -26,0.1 -9.7,-0.5 -18.1,-0.6 -18.5,-0.4 -0.5,0.3 -2,0 -3.3,-0.7 -2,-1.1 -2.7,-1.1 -4.1,0.3 -2,1.7000004 -2.9,1.7000004 -30.9,1.4000004 -10.8,-0.1 -17.6,-0.6000004 -18.5,-1.3000004 -0.9,-0.8 -11.5,-1.2 -32.9,-1.4 -17.3,-0.1 -38.5,-0.3 -47,-0.4 -8.7,0 -19.4,0.5 -24.5,1.3 -4.9,0.7 -9.9,1.3 -11,1.3 -13.1,-0.4 -31.2,0.3000004 -42.2,1.6000004 -4.6,0.5 -10.5,0.6 -13.2,0.1 -7.2,-1.1 -30.4,-2.3000004 -39.6,-2.0000004 -10.2,0.3 -9.7,0.3 -18,-0.8 -3.8,-0.5 -15.6,-0.9 -26.2,-0.9 -13.5,0 -19.8,-0.4 -21.5,-1.3 -2.4,-1.3 -11.7,-1.9 -12.4,-0.8 -0.2,0.4 -4.7,0.7 -10,0.7 -6.8,0.1 -10.1,0.5 -11.3,1.5 -1.6,1.5 -17.5,3.2000004 -26,2.8000004 -3,-0.1 -5,0.4 -6.3,1.6 -1.6,1.4 -2.3,1.5 -5.3,0.4 -1.9,-0.7 -4,-0.9 -4.7,-0.5 -0.6,0.4 -6.3,0.6 -12.5,0.5 -7.4,-0.2 -11.9,0.1 -12.8,0.9 -1,0.8 -2.4,0.8 -5,0.1 -2.7,-0.7 -4.6,-0.6 -7.7,0.5 -5.6,2 -9.1,1.8 -12.2,-0.7 -2.5,-2 -2.8,-2 -4.5,-0.5 -1,0.9 -3.1,1.6 -4.8,1.6 -1.7,0 -4.1,0.9 -5.5,1.9 -2.2,1.8 -3.1,1.9 -10.1,0.9 -5.2,-0.8 -8.5,-0.8 -10,-0.1 -1.4,0.6 -7,0.7 -15.2,0.2 -7.1,-0.4 -17.9,-0.4 -23.8,0.1 -10,0.7 -30.6,-0.2 -32.8,-1.6 -1.3,-0.8 -23.6,-2.6 -28.9,-2.4 -7.8,0.4 -12.2,0.3 -22.6,-0.5 -7.2,-0.6 -10.3,-0.4 -10.8,0.4 -0.4,0.6 -1.8,1.1 -3.2,1.1 -1.4,0 -4.2,0.9 -6.4,2 -2.2,1.1 -4.7,2 -5.7,2 -1,0 -3.3,0.9 -5.1,2 -2.5,1.5 -3.7,1.8 -5.2,1 -2.1,-1.1 -8.3,-1.4 -9.3,-0.3 -0.4,0.3 -3.4,0.8 -6.8,1 -3.4,0.1 -8,1.1 -10.4,2.2 -2.3,1 -7.1,2.2 -10.6,2.6 -3.5,0.4 -7.3,1.4 -8.4,2.1 -1.1,0.8 -3.1,1.4 -4.5,1.4 -1.4,0 -3.1,0.5 -3.8,1.2 -0.7,0.7 -2.9,1.3 -5,1.5 -5.8,0.3 -15.5,2.5 -17.7,4 -1.1,0.7 -3.8,1.3 -6.2,1.3 -2.3,0 -4.5,0.4 -4.8,1 -0.3,0.5 -1.3,1 -2.1,1 -0.9,0 -3.7,1.8 -6.3,4 -2.6,2.2 -5.3,4 -6,4 -0.6,0 -3.5,2.2 -6.4,5 -2.9,2.7 -5.9,5 -6.8,5 -2.1,0 -4.9,3.2 -4.9,5.7 0,1.1 -1.1,3 -2.5,4.3 -1.4,1.3 -2.5,2.8 -2.5,3.3 0,0.5 -2,3.6 -4.5,6.8 -2.5,3.3 -4.5,6.6 -4.5,7.4 0,0.7 -0.4,1.7 -1,2 -0.5,0.3 -1,1.5 -1,2.5 0,1 -1.1,2.7 -2.5,3.7 -2.5,1.8 -3.7,5.899996 -5,18.199996 -0.2,1.8 -0.8,3.8 -1.4,4.4 -0.6,0.6 -1.1,1.9 -1.1,2.8 0,0.9 -0.9,2.3 -2,3 -1.6,1.1 -2.3,3.2 -3.1,10.4 -1.3,11 -3,19.4 -4.1,20.1 -0.4,0.3 -0.8,2.7 -0.8,5.4 0,2.7 -0.4,5.1 -0.9,5.4 -0.4,0.3 -1.1,3.3 -1.5,6.5 -0.4,3.3 -1.1,6.3 -1.6,6.6 -0.6,0.4 -1,2 -1,3.6 0,1.7 -0.5,4 -1.1,5.1 -0.6,1.1 -1.3,8.4 -1.6,16.1 -0.4,10.1 -1,14.8 -2,16.4 -1.1,1.6 -1.5,4.9 -1.4,11.3 0,4.9 -0.3,9.2 -0.8,9.5 -0.5,0.3 -0.9,14.3 -0.9,31.1 -0.1,27.6 -0.2,30.9 -1.9,34.2 -2.1,4.3 -2.2,11.6 -0.3,28.5 0.9,7.3 1,11.1 0.3,11.8 -0.6,0.6 -0.8,4.6 -0.5,10 0.3,5.2 0.1,9.4 -0.5,10.1 -1.2,1.5 -1.1,41.8 0.1,43.6 0.4,0.7 0.5,1.6 0.2,2.1 -0.4,0.5 0.1,2.2 1.1,3.8 1.6,2.8 1.5,3.2 -0.6,7.6 -1.8,3.7 -2,5 -1.1,6.7 0.7,1.2 1,4.5 0.8,7.4 -0.2,2.8 -0.1,16.5 0.4,30.5 0.7,21.9 1,25.7 2.5,27.3 1.4,1.6 1.5,2.2 0.4,3.9 -0.7,1.3 -0.9,2.5 -0.3,3.2 0.5,0.7 1,6.3 1.1,12.6 0.1,8.1 0.6,12 1.6,13.5 1.8,2.5 1.9,5.8 0.4,7.3 -0.9,0.9 -0.9,1.9 0.1,4.2 0.6,1.6 0.9,3.4 0.6,3.9 -0.3,0.5 -0.1,9.7 0.5,20.3 0.6,10.7 1.1,20.7 1,22.4 -0.1,1.6 -0.3,5.9 -0.4,9.5 -0.2,3.6 -0.4,19.3 -0.4,35 0,15.7 -0.1,30.1 -0.1,32 0,1.9 -0.1,15.9 -0.2,31 -0.3,29.3 0.6,56.9 2.1,63.6 0.5,2.4 0.4,7.6 -0.1,12.5 -0.5,4.6 -1.6,13.9 -2.4,20.7 -1.1,9.5 -1.2,13.6 -0.4,18.2 0.9,4.5 0.9,6.6 0,8.2 -0.8,1.6 -1,6.6 -0.6,16.3 0.9,21.5 0.9,28.8 0,31 -0.9,2 -1.9,13.1 -1.7,19.6 0,2.1 -0.6,6.9 -1.3,10.8 -1.1,5.9 -1.1,7.7 0,10.8 1.6,4.6 1.8,9 0.4,9.8 -0.5,0.3 -1,3.6 -1,7.3 -0.1,3.7 -0.5,8.7 -1,11.2 -0.5,2.9 -0.5,4.9 0.2,5.8 0.7,0.7 0.8,3.2 0.3,6.5 -0.4,2.8 -0.7,7 -0.7,9.2 0.1,2.2 0.1,11.2 0.2,20 0.1,14.3 1.1,32.69996 2.5,43.99996 0.4,3.6 0.8,11.2 1.9,32.5 0.1,3.6 0.6,16.2 1,28 0.4,11.8 1.1,25.8 1.6,31 0.6,6.5 0.6,9.8 -0.2,10.7 -1.6,2 -2.3,18 -0.8,19.8 1,1.2 1,1.8 -0.1,3.1 -1.1,1.4 -1.4,10.6 -1.6,47.8 -0.1,25.3 -0.4,53.7 -0.7,63.1 -0.4,9.3 -0.6,25.5 -0.6,35.9 0,15.8 0.2,19.3 1.6,21.4 1.2,1.8 1.4,3 0.6,4.6 -1.8,3.6 -2.1,11.8 -0.7,14 1.5,2.4 1.6,5.9 1.5,42.9 0,14.1 0.3,26.5 0.8,27.5 2,3.8 4.2,34.2 3.3,46.7 -0.1,2.2 -0.1,13.2 0.1,24.5 0.2,13.2 -0.1,22.8 -0.9,27 -0.7,3.6 -1.4,13.9 -1.7,23 -0.2,9.1 -0.9,17.8 -1.5,19.3 -0.8,2.1 -0.8,3.5 0.3,5.5 0.7,1.5 1.6,7.4 1.9,13.2 0.6,8.9 0.4,10.7 -1,12.2 -1.5,1.7 -1.6,2.8 -0.6,9.5 0.8,5.8 0.8,9.3 -0.2,15.2 -0.7,4.2 -1.8,13.9 -2.5,21.6 -0.6,7.7 -1.6,15 -2.1,16.2 -0.5,1.3 -0.5,3.3 0,4.6 0.5,1.4 0.4,5.1 -0.5,9.7 -0.7,4.1 -1.3,9.4 -1.3,11.7 -0.1,2.3 -1.1,6.8 -2.3,10 -2,5.2 -2.2,7.8 -2.4,25.3 -0.1,21.1 -1.9,46.4 -3.5,49.3 -0.5,1 -0.7,2.2 -0.4,2.6 0.2,0.5 0.7,8.7 1,18.2 0.6,17.6 0.4,19 -3.5,26.1 -1.3,2.3 -1.3,11.5 0,12.3 0.6,0.3 1,1.7 1,3 0,1.7 1.2,3 4.6,4.9 2.6,1.4 5.4,2.6 6.4,2.6 2.9,0 5,3.5 5.6,9.1 0.3,3 1.4,7.5 2.5,10.1 1.3,3.2 1.9,7.1 1.9,12.4 0,6.1 0.4,8.2 1.8,9.8 1,1.2 2.4,4.9 3.1,8.3 1,5.4 1,6.6 -0.4,8.7 -1.6,2.3 -1.5,2.6 1.9,7.1 2,2.6 4.9,6 6.5,7.6 1.6,1.6 3.1,4.2 3.3,5.7 0.2,2.2 0.9,2.8 3.8,3.2 3.1,0.4 3.6,0.9 4,3.9 0.5,3.3 0.8,3.5 6,4.5 3,0.6 6.6,1.9 8,2.9 1.3,0.9 3.4,1.7 4.7,1.7 1.2,0 2.5,0.5 2.8,1 0.3,0.6 1.5,1 2.5,1 1,0 3.2,1.1 4.8,2.5 1.7,1.4 3.7,2.5 4.5,2.5 0.9,0 1.9,0.5 2.2,1.1 0.5,0.7 1.5,0.5 3,-0.5 2.9,-1.9 6.5,-1.4 30.5,4.5 5.3,1.4 13.2,2.3 21,2.6 6.9,0.3 12.9,0.9 13.5,1.4 1.4,1.4 7.8,1.1 11.6,-0.5 2.6,-1.1 8.8,-1.3 31.8,-0.9 26.7,0.5 41.6,0 85.1,-2.9 9.1,-0.6 17.9,-1 19.5,-1 9.2,0 38,-2.2 44,-3.3 13.3,-2.7 21.7,-3.3 50.5,-3.9 17.7,-0.4 32.3,-1.6 46,-3.6 4.1,-0.6 8.8,-0.9 10.3,-0.6 1.6,0.3 4.7,0.2 7,-0.3 2.3,-0.5 6.9,-1.5 10.2,-2.1 9,-1.7 14.9,-3.2 16,-4 0.6,-0.4 3.5,-0.4 6.5,0 3,0.4 5.8,0.6 6.2,0.3 0.4,-0.2 9.8,-0.5 20.8,-0.7 11,-0.2 20.3,-0.6 20.7,-1 0.3,-0.3 1.4,0.1 2.4,1 1.4,1.3 2.1,1.4 4.1,0.3 1.4,-0.8 7.5,-1.4 15.8,-1.6 7.4,-0.2 15.5,-0.9 18,-1.6 4.7,-1.4 13.2,-1.5 18.8,-0.2 2.3,0.5 4.4,0.1 7.6,-1.4 3.9,-2 5.6,-2.1 18.7,-1.7 21.2,0.7 46.1,1.7 48.4,1.9 3.2,0.3 22.9,-2.5 24,-3.4 0.6,-0.4 5,-0.8 9.7,-0.8 4.8,0.1 9.2,-0.2 9.7,-0.6 0.6,-0.3 2.5,0.2 4.2,1.1 2.6,1.3 3.9,1.4 6.9,0.5 4.6,-1.3 14.5,-1.4 16.9,-0.2 1.2,0.7 3.8,0.5 7.7,-0.4 3.2,-0.7 16.5,-1.8 29.4,-2.5 12.9,-0.6 24.6,-1.5 26,-2 5.5,-1.9 65.4,-5.4 86.3,-5.1 4.3,0.1 8.3,-0.2 9,-0.6 1.4,-0.9 4.2,-1 39.2,-1.7 14.3,-0.3 28,-0.7 30.5,-0.9 2.5,-0.2 5.3,0 6.3,0.5 1.1,0.6 8.2,0.3 18.5,-0.7 9.2,-1 20.5,-1.9 25.2,-2 11.5,-0.5 32.8,-2.3 42,-3.5 4.1,-0.6 9.1,-0.7 11,-0.4 6.2,1.1 12.2,1.3 14.5,0.4 1.2,-0.4 7.1,-0.4 13,0 6.9,0.6 11.3,0.6 12.1,-0.1 0.6,-0.5 1.9,-0.7 2.8,-0.3 0.9,0.3 2.3,0.1 3,-0.6 1.3,-1 21.5,-1.3 51.6,-0.9 1.4,0.1 6.1,-0.5 10.5,-1.1 4.4,-0.7 9.8,-1.4 12,-1.6 2.2,-0.2 5.6,-0.7 7.5,-1 1.9,-0.3 10.7,-0.1 19.5,0.4 8.8,0.5 16.4,0.7 16.9,0.4 0.5,-0.3 4.5,-0.7 9,-0.9 4.5,-0.1 16.9,-0.8 27.6,-1.4 10.7,-0.5 21.8,-1.1 24.7,-1.2 2.8,-0.1 5.4,-0.5 5.8,-0.9 0.4,-0.4 2,-0.5 3.5,-0.1 1.8,0.3 3.7,-0.1 5.1,-1.1 2.7,-1.8 9.6,-2.1 15.3,-0.5 3.3,0.9 4.1,0.8 6,-0.8 1.9,-1.7 3.3,-1.8 15.6,-1.3 10,0.5 14,0.3 15.5,-0.6 1.5,-1 8.5,-1.2 27.2,-1.1 23.5,0.1 25.3,0 27.3,-1.8 1.8,-1.6 2.4,-1.7 4.1,-0.7 1,0.7 3,1 4.4,0.6 1.4,-0.3 3.3,-0.3 4.2,0.2 1,0.4 7.6,0.6 14.7,0.5 9.9,-0.1 14.5,-0.7 19.2,-2.2 4.9,-1.6 6.7,-1.8 8.3,-0.9 1.8,0.9 2.9,0.4 7.3,-3.1 5,-3.9 5.4,-4.5 6.3,-10.2 1,-6 1.1,-6.2 4.7,-7 6.1,-1.4 6.9,-3.2 7.2,-14.9 0.2,-5.6 -0.1,-10.8 -0.6,-11.5 -0.7,-0.8 -0.4,-2.3 0.6,-4.4 0.9,-1.8 1.6,-4.2 1.6,-5.4 0,-1.2 0.9,-3 2,-4 2.3,-2.1 3.6,-6.1 4.5,-14 0.5,-4.2 1.4,-6.8 3.2,-8.9 2.8,-3.3 7.3,-11.9 7.3,-13.9 0,-0.7 1.1,-2.4 2.5,-3.7 1.4,-1.3 2.5,-3.1 2.5,-4.1 0,-0.9 0.7,-2.3 1.6,-3 2,-1.6 8.8,-11.8 11.5,-17.1 2.4,-4.7 14.1,-16.8 16.2,-16.8 2.3,0 3.7,-3.1 3.9,-9.1 0.2,-4.8 0.5,-5.4 3.6,-7.2 2.7,-1.6 3.2,-2.4 2.7,-4.6 -0.9,-4.4 -2.4,-28.9 -1.8,-30.9 0.2,-1.1 -0.3,-3.4 -1.2,-5.1 -0.8,-1.7 -1.3,-3.6 -1,-4.2 0.4,-0.5 -0.1,-2.2 -1,-3.6 -1.3,-2 -1.6,-4.1 -1.3,-9.2 0.3,-3.7 0,-7.4 -0.6,-8.3 -0.8,-1.3 -0.6,-2.6 0.6,-5 1.2,-2.3 1.9,-6.9 2.2,-15.3 1.3,-28.6 2.7,-46.4 3.7,-47.1 0.5,-0.3 0.9,-1.6 0.9,-3 0,-1.4 0.5,-3.5 1.1,-4.7 0.9,-1.5 1.3,-15.1 1.5,-45.1 0.2,-35.5 0,-43.7 -1.2,-46.5 -0.8,-2 -1.2,-4.7 -0.8,-6.6 0.3,-1.8 0.1,-5 -0.5,-7.1 -1.3,-4.5 -2.6,-38.8 -1.5,-40.5 1.2,-2 1.2,-23.3 0,-24.8 -0.7,-0.9 -1.2,-10.3 -1.4,-27.5 -0.2,-17 -0.7,-26.9 -1.4,-28.4 -0.9,-1.7 -0.8,-2.8 0.2,-4.6 0.7,-1.5 1,-3.9 0.6,-6.3 -0.3,-2.1 -0.8,-7.9 -1.1,-12.8 -0.3,-5 -0.9,-11.5 -1.4,-14.5 -3.2,-18 -3.6,-31.5 -1.2,-34.4 1.3,-1.5 1.2,-2.1 -0.3,-4.6 -1.4,-2.5 -1.5,-3.8 -0.6,-9.4 1.2,-7.8 0.5,-64.1 -1,-69.5 -0.9,-3.7 -0.6,-19.7 0.8,-38.1 0.7,-9.2 0.5,-11 -1.1,-14.4 -1.7,-3.5 -1.8,-4.7 -0.7,-12 0.6,-4.5 1.6,-10.4 2.1,-13.1 1.3,-5.9 1.2,-4 0.4,-75 -0.3,-30.79996 -0.5,-58.29996 -0.4,-60.99996 0.4,-8.2 0.2,-12.6 -1.1,-21 -1.4,-9.8 -1.5,-16.3 -0.6,-63 0.9,-41.1 1.4,-55.3 2.2,-63.5 0.7,-6.6 0.9,-14.4 0.6,-22.5 -0.2,-3.3 -0.3,-8.7 -0.2,-12 0.1,-10.8 -0.9,-38.5 -1.4,-39.3 -0.2,-0.4 -0.6,-7.3 -0.7,-15.2 -0.1,-9.8 -0.6,-15.4 -1.5,-17.2 -1,-1.9 -1.1,-3.4 -0.4,-5.3 1.2,-3.1 0.4,-18.8 -1.7,-33.5 -1.9,-13.4 -2.2,-17 -2.6,-31 -0.1,-6.5 -0.8,-12.5 -1.5,-13.7 -1.5,-2.7 -1.5,-6.8 -0.2,-9.4 1.2,-2.2 1.7,-43 0.5,-44.9 -0.4,-0.6 -1.1,-12.5 -1.6,-26.3 -0.5,-13.9 -1.5,-29 -2.2,-33.6 -0.8,-4.9 -1.1,-10 -0.6,-12.4 0.4,-2.3 0.3,-5.2 -0.2,-6.6 -0.6,-1.3 -0.9,-4.6 -0.8,-7.2 0.2,-3.2 -0.3,-5.4 -1.3,-6.6 -2.7,-3.1 -4,-32.1 -1.6,-35.1 0.8,-0.9 0.6,-1.7 -0.6,-3 -1.8,-2.1 -2.3,-11.7 -0.5,-12.7 2,-1.3 -0.9,-27.4 -3.7,-32.8 -1.7,-3.5 -1.9,-19.8 -0.2,-21.5 1.3,-1.3 2.2,-19.9 1.7,-35.7 -0.4,-15 -0.3,-18.4 1.1,-25.5 0.6,-3.6 1.5,-11.7 1.9,-18 0.4,-6.3 1,-12.3 1.5,-13.2 0.5,-1.1 0.1,-2.8 -1,-4.6 -1.6,-2.9 -1.6,-3.1 0.3,-5.8 1.9,-2.7 2,-4.1 1.6,-25.4 -1,-48 -0.4,-75.3 1.8,-82.5 1.4,-4.9 2.8,-19.9 1.9,-21 -1.2,-1.5 -1.1,-20.9 0.2,-28.5 1.2,-7.2 2.3,-49.399996 1.8,-64.299996 -0.3,-5.6 0.8,-14.4 2.5,-20.2 0.9,-3.1 1.4,-6.2 1.2,-6.9 -0.8,-2.1 -11.4,-7.6 -14.5,-7.6 -3.5,0 -5.5,-2.1 -7.5,-8.0000004 l -1.5,-4.39999995 -5.3,-0.1 c -3,-0.1 -6.5,0.5 -7.9,1.19999995 z m -4.5,19.8000004 c 4.1,0.1 7.1,0.8 9.4,2.3 2.2,1.3 4.4,1.9 6.1,1.6 2.4,-0.5 2.7,-0.3 2.7,2.8 0.5,26.5 0.2,44.2 -0.8,45.4 -0.9,1.1 -0.8,1.8 0.1,2.9 1,1.2 1.1,6 0.5,22.3 -1.2,29.899996 -1.7,37.499996 -4.5,68.199996 -1.2,13.1 -1.3,31.7 -0.2,39.3 0.4,3.2 0.5,9 0,12.9 -0.4,3.9 -0.5,7.5 -0.2,8 0.3,0.5 0.1,1.5 -0.5,2.2 -0.7,0.9 -0.7,2.4 0,5.1 0.6,2.1 0.8,5.5 0.4,7.4 -0.4,2 -0.9,7.2 -1,11.6 -0.2,4.4 -0.8,14.7 -1.4,23 -0.6,8.2 -1.1,16.6 -1,18.5 0.1,1.9 0.1,4.7 0,6.2 -0.1,3.7 -0.1,7.3 0,10 0,1.3 -0.4,7.9 -1.1,14.8 -4.1,45.7 -4,88.4 0.2,93.7 0.5,0.7 0.9,4.3 0.8,8 -0.1,3.7 -0.1,7 0,7.3 0.1,0.3 0.4,7.5 0.6,16 0.3,8.5 0.8,17 1.3,18.7 0.5,1.8 0.6,5.9 0.1,9 -0.5,3.9 -0.4,6.3 0.3,7.2 0.9,1.1 2.3,12.9 2.7,23.6 0.1,1 0.5,2.4 1,3 0.5,0.6 1.1,4.6 1.4,9 0.4,4.4 1,11 1.4,14.7 0.4,3.7 0.4,12 0,18.5 -0.6,9.8 -0.5,12.1 0.8,14.1 1.2,1.8 1.3,3 0.5,5.5 -0.7,2 -0.9,12.1 -0.6,27 0.3,19.1 0.7,24.3 1.9,26.2 1.2,1.9 1.4,5 1.1,17.4 -0.4,11 -0.1,16.1 0.8,19 1.1,3 1.2,5.1 0.3,9 -0.8,4 -0.7,5.7 0.2,7.2 0.9,1.4 1.4,9.1 1.8,24.7 0.2,12.5 1,27.9 1.6,34.2 1.6,17.2 2.1,39.7 1.8,86.2 0,1.6 0,3.6 0,4.5 0.1,1 -0.1,5.4 -0.5,9.8 -0.7,9.7 -1.2,29.7 -1.8,66.5 -0.3,21.7 -0.1,28.2 1,30.8 1,2.3 1.1,3.8 0.3,5.2 -0.5,1 -1,4.1 -1,6.8 0,2.6 -0.5,7.3 -1,10.3 -0.7,3.7 -0.7,8.1 0.1,13.9 0.6,4.7 1.2,11.6 1.4,15.5 0.2,3.8 0.9,17.29996 1.5,29.99996 0.9,16.5 0.9,26.7 0.1,35.9 -0.6,8.3 -0.7,13.6 0,14.7 0.5,1 0.7,4.9 0.4,8.6 -0.3,3.7 -0.7,12.7 -0.8,19.8 -0.2,7.2 -0.6,13.5 -0.9,14 -0.3,0.6 -0.2,6.8 0.3,13.9 0.7,8.8 0.7,14.5 -0.1,17.9 -0.7,3.5 -0.7,5.3 0,6.3 0.6,0.7 1.3,6.8 1.5,13.5 0.4,10.3 0.2,12.6 -1.2,14.1 -0.9,1 -1.5,3 -1.4,4.5 1.5,29.9 1.6,41.2 0.5,56.8 -1.2,17.8 -1,27.1 0.6,29 1.1,1.3 1.1,2 0,4 -1,1.9 -1,3.9 -0.1,10.2 0.7,4.3 1.3,10.5 1.5,13.8 0.1,3.3 0.5,6.6 1,7.3 0.4,0.7 1.2,6.8 1.7,13.5 1.4,17.2 1.4,17.3 0.9,36.7 0,1.9 0.4,11.6 1,21.5 2.2,37 2.8,57 1.9,58.1 -0.6,0.7 -0.6,4.5 0,10 1.2,11.4 1.2,81.9 0,86 -0.6,1.8 -0.6,5.6 0,9.5 0.7,5.3 0.6,6.7 -0.7,8.1 -0.8,1 -2.1,1.8 -2.9,1.8 -1.6,0 -1.7,1.2 0,2.8 1.7,1.8 1.8,9.9 0.1,15 -0.8,2.3 -1.4,6.6 -1.4,9.5 0,2.9 -0.5,7 -1,9.2 -0.5,2.2 -1.3,8.3 -1.6,13.5 -0.6,8.9 -0.5,9.6 1.5,11.4 2.3,2.1 2.7,4.6 0.9,6.4 -1.5,1.5 -2.8,24.8 -1.8,32.8 0.4,3.4 1.3,7.1 1.9,8.3 0.7,1.2 1,2.5 0.7,2.9 -0.3,0.5 0,2.7 0.6,4.9 0.8,3.2 0.7,4.8 -0.6,7.4 -1.2,2.7 -1.4,5.1 -0.7,11.9 0.9,9.5 0.5,10.5 -4.6,12.7 -1.8,0.7 -3.3,2 -3.3,2.8 0,0.7 -1.8,3.4 -3.9,5.9 -2.2,2.5 -4.9,6.7 -6.1,9.3 -4.8,10.2 -5.6,11.6 -8.7,14.8 -1.8,1.9 -3.3,4.2 -3.3,5.3 0,1 -1.5,3.3 -3.3,5 -3.2,3.1 -3.4,3.2 -5,1.4 -1.6,-1.7 -2,-17.2 -1.5,-60.7 0.2,-16.1 -1.1,-66.4 -1.6,-67.7 -0.5,-1 0,-5.2 1,-9.5 1.8,-7.6 2.3,-23.5 1.4,-42.8 -0.1,-3.9 0.2,-10.1 0.7,-13.8 0.6,-4.2 0.6,-10.9 0.1,-17.5 -1.1,-12.6 -1.9,-25.5 -1.9,-29.6 0,-1.6 -0.4,-3.5 -1,-4.3 -0.6,-0.7 -0.8,-2.1 -0.4,-3 0.8,-1.8 1.1,-5 1.9,-23.3 0.2,-5.8 1,-12.8 1.6,-15.5 1,-4.2 2.1,-17.2 2,-22.5 -0.3,-12.1 -0.1,-22.7 0.4,-27.7 0.4,-3.8 0.3,-7 -0.3,-8.2 -0.7,-1.2 -0.7,-2.9 -0.2,-4.8 0.9,-2.7 3.5,-35.7 3.2,-39.8 -0.1,-1.1 -0.2,-4 -0.1,-6.5 0,-2.4 -0.6,-9.2 -1.4,-15 -1.1,-7.1 -1.5,-16.6 -1.3,-29.3 0.2,-10.5 -0.1,-19.1 -0.6,-19.4 -0.5,-0.3 -0.6,-2.7 -0.3,-5.2 0.4,-2.7 0.1,-6.2 -0.5,-8.1 -0.9,-2.5 -0.9,-4.4 0,-8.1 0.7,-2.7 0.9,-5.4 0.5,-6.1 -0.9,-1.4 -1.2,-21.8 -0.3,-22.4 0.3,-0.2 0.7,-4.3 0.9,-9.1 0.5,-17 0.8,-22.8 1.5,-27.6 0.4,-2.6 0.2,-7.7 -0.5,-11.4 -1,-6.2 -1,-6.8 1,-9.5 1.6,-2.2 1.9,-3.6 1.4,-6.6 -0.4,-2 -1,-4.4 -1.5,-5.2 -0.4,-0.9 -0.3,-3.7 0.3,-6.4 0.7,-3.4 0.7,-5.1 -0.1,-5.9 -0.6,-0.6 -1.1,-4.7 -1.1,-9.4 0,-5.2 -0.6,-9.7 -1.5,-12 -1.4,-3.2 -1.4,-4.1 -0.1,-6.7 1,-2.4 1.3,-6.3 1,-16.6 -0.6,-17.5 -0.8,-19.7 -1.7,-20.6 -1.1,-1.2 -0.8,-5.3 0.7,-8.2 1.1,-2.1 1.2,-4.7 0.5,-12.2 -0.5,-5.2 -1.1,-18.8 -1.3,-30.3 -0.2,-11.4 -0.6,-21 -1,-21.4 -1.1,-1.2 -0.6,-5.6 0.8,-7.2 1.8,-2 2,-7.99996 0.6,-23.59996 -0.5,-6.6 -1.2,-16.7 -1.5,-22.3 -0.3,-5.7 -0.8,-10.9 -1.2,-11.5 -0.4,-0.6 -0.8,-4.4 -0.8,-8.4 -0.1,-4.3 -0.7,-7.8 -1.5,-8.8 -1,-1.2 -1,-2.1 -0.1,-4.1 0.6,-1.4 1.1,-5 1.1,-8 0,-3 0.4,-6.3 1,-7.3 0.7,-1.4 0.5,-2.3 -0.8,-3.4 -1.5,-1.4 -1.7,-3.4 -1.5,-15.2 0.1,-8.7 0.6,-14.2 1.4,-15.1 0.9,-1.1 0.8,-2.1 -0.4,-4.6 -1,-2.1 -1.4,-5.4 -1.3,-8.8 0.2,-3 -0.3,-7.5 -1,-9.9 -1.1,-3.8 -1.1,-4.8 0.3,-7.5 1.2,-2.3 1.6,-5.7 1.5,-13.1 0,-5.5 -0.1,-17.6 -0.1,-26.9 0,-13.4 -0.3,-17.2 -1.5,-18.5 -0.8,-0.9 -1.5,-3.2 -1.6,-5.1 0,-1.9 -0.1,-5.3 -0.1,-7.5 0,-2.2 0.5,-8.7 1.2,-14.5 1.1,-9.6 1.3,-14.4 1,-24 -0.1,-1.9 0.1,-6.1 0.5,-9.3 0.3,-3.2 0.2,-6.3 -0.4,-7 -0.5,-0.7 -0.6,-4.4 -0.1,-9.2 0.6,-6.5 0.5,-8.4 -0.8,-10.4 -1.2,-1.8 -1.4,-3.8 -0.8,-8.6 0.4,-4.5 0.3,-6.9 -0.7,-8.4 -1.1,-1.7 -1,-2.5 0.1,-4.4 1.1,-1.6 1.6,-7.1 1.8,-22.2 0.8,-43.2 0.6,-56.8 -1.1,-68 -1,-6.1 -1.7,-13.7 -1.6,-17 0.1,-3.3 0,-7.4 -0.1,-9 -0.1,-1.7 -0.1,-4.6 0,-6.5 0.6,-17.8 0.4,-30 -0.6,-33.1 -0.6,-1.9 -1.2,-7.1 -1.3,-11.5 -0.3,-15.1 -0.9,-26.9 -1.7,-36.9 -0.7,-7.3 -0.6,-11.4 0.4,-15.3 1.6,-6.6 1.7,-18.4 0.1,-20 -0.9,-0.9 -0.9,-1.7 0.1,-3.5 0.7,-1.2 1.1,-4.3 1,-6.7 -0.1,-2.5 0.2,-8.5 0.6,-13.3 0.6,-7.6 0.4,-9.1 -1,-10.7 -1.4,-1.5 -1.7,-3.7 -1.4,-11.7 0.1,-5.4 -0.1,-10.5 -0.4,-11.3 -0.3,-0.8 -0.8,-4 -1,-7 -0.3,-3 -1,-7.8 -1.7,-10.5 -1.4,-5.6 -1.5,-10.5 -0.8,-24.8 0.3,-5.4 0.1,-10 -0.3,-10.3 -0.5,-0.3 -0.9,-2.9 -0.9,-5.7 0,-5.5 -1.7,-11.4 -3.9,-14.1 -1.2,-1.4 -1.2,-2.1 -0.1,-4.4 0.9,-1.8 1.4,-9.1 1.6,-22.8 0.2,-11.1 0.6,-20.8 1,-21.7 0.3,-0.9 0.1,-4 -0.5,-6.9 -0.6,-2.9 -0.9,-8.9 -0.7,-13.3 0.3,-5.6 0,-8.5 -0.9,-9.5 -1.3,-1.5 -1.2,-3.2 1.5,-18.5 2.2,-12.9 2.8,-19 2,-20.5 -1,-1.8 -0.2,-13.7 1.1,-16.1 1.3,-2.6 -1.2,-14 -3.9,-17.7 -2.1,-2.8 -2.3,-3.6 -1.3,-5.5 0.6,-1.2 1,-3.3 0.9,-4.7 -0.3,-2.4 -0.1,-2.5 4.3,-2.2 l 4.7,0.3 0.7,-5.6 c 0.5,-4.3 0.3,-6.2 -0.9,-8 -0.9,-1.3 -1.6,-3.3 -1.6,-4.3 0,-1.1 -0.6,-2.5 -1.4,-3.1 -2.2,-1.8 -2.6,-14 -0.7,-22 0.9,-3.799996 2,-7.299996 2.4,-7.699996 0.4,-0.4 0.7,-1.4 0.7,-2.3 0.1,-0.9 0.9,-3.4 2,-5.6 1.1,-2.2 1.9,-5 2,-6.1 0,-2.3 7.7,-9.9 12.8,-12.6 1.7,-0.9 4.5,-3.9 6.2,-6.6 1.7,-2.8 3.7,-5.3 4.5,-5.6 3.1,-1.1 1.4,-12.3 -2,-13.6 -1.3,-0.5 -2.6,-1.4 -3,-1.9 -0.3,-0.6 -1.9,-1.1 -3.5,-1.1 -3.9,0 -9.4,5 -12.6,11.2 -1.4,2.7 -3.6,5.4 -5,6 -3.2,1.5 -13.8,15.3 -15.2,19.8 -0.5,1.9 -1.7,6 -2.6,9 -0.8,3 -2.2,7.7 -3,10.5 -0.8,2.7 -1.8,7.199996 -2.2,9.999996 -0.3,2.7 -1.1,5.8 -1.6,6.8 -0.6,1.1 -0.3,3.3 0.7,6.2 0.8,2.5 1.5,5.9 1.5,7.6 0,1.6 1.1,4.7 2.5,6.7 2.7,4 3.2,7.1 1.3,9 -1.8,1.8 -3.3,1.5 -6.5,-1.2 -2.6,-2.2 -3.2,-2.3 -8.8,-1.4 -3.3,0.5 -8.6,0.7 -11.7,0.4 -3.7,-0.4 -6,-0.2 -6.4,0.5 -0.4,0.8 -2.7,0.9 -6.4,0.6 -3.8,-0.4 -6.1,-0.2 -6.9,0.6 -0.9,0.9 -1.6,0.8 -3.4,-0.2 -1.5,-1 -7.1,-1.6 -18.9,-1.9 -14.5,-0.4 -17.2,-0.2 -20.4,1.3 -3.3,1.5 -5.5,1.7 -17.9,1 -7.8,-0.3 -18.9,-0.8 -24.6,-1 -5.7,-0.2 -13.5,-0.7 -17.4,-1.1 -8.7,-0.9 -9,-0.9 -43,0 -47.9,1.1 -54.5,1.4 -73,3 -19.5,1.7 -35.9,1.5 -39.5,-0.4 -1.7,-0.9 -5.7,-1 -14.7,-0.5 -10.4,0.6 -12.7,0.5 -14.8,-0.9 -1.4,-0.9 -4.4,-1.6 -7.2,-1.5 -2.6,0 -6.5,-0.2 -8.6,-0.6 -2.7,-0.5 -4.4,-0.3 -6.2,0.9 -1.5,1 -4.6,1.6 -8.2,1.6 -3.5,0 -7,0.7 -8.8,1.6 -3.6,2 -16.1,2.4 -21.7,0.7 -2.6,-0.7 -7.5,-0.8 -17,0 -9.1,0.7 -17.6,0.7 -27.3,0 -7.7,-0.6 -16.1,-0.8 -18.6,-0.6 -2.6,0.3 -5.7,0 -6.9,-0.7 -1.7,-0.9 -2.6,-0.8 -4.7,0.5 -1.8,1.2 -2.8,1.4 -3.6,0.6 -1.4,-1.4 -5.4,-1.4 -6.3,0 -0.3,0.6 -1.6,0.8 -2.8,0.4 -1.1,-0.3 -9.1,-0.8 -17.6,-1.1 -8.5,-0.2 -17.7,-0.9 -20.3,-1.4 -2.8,-0.6 -5.5,-0.6 -6.5,-0.1 -0.9,0.4 -5.7,0.7 -10.7,0.4 -20.2,-0.8 -47.1,-0.3 -49.2,1 -0.6,0.4 -2.4,0.2 -3.9,-0.3 -7.1,-2.7 -58.9,-3.2 -71.4,-0.7 -13.7,2.8 -23.3,3.6 -25.1,2.1 -2,-1.8 -2.7,-1.7 -6.4,0.2 -2.2,1.1 -5.4,1.5 -11.5,1.3 -4.7,-0.1 -10.5,0.3 -12.9,1 -3.4,0.9 -5.1,0.9 -7.2,0.1 -1.9,-0.8 -3.3,-0.9 -4.6,-0.1 -1.1,0.5 -6.6,1.3 -12.4,1.6 -5.7,0.4 -11.5,1.1 -12.9,1.6 -1.4,0.4 -9.7,1.1 -18.5,1.5 -42.8,1.6 -54.2,2.3 -57,3.3 -1.8,0.6 -17.6,1.3 -41,1.6 -20.9,0.3 -39.1,0.6 -40.5,0.7 -5.2,0.2 -24.7,-1.3 -28.4,-2.3 -3.2,-0.9 -18.3,-2.1 -26.6,-2.2 -1.4,0 -9.9,0.3 -19,0.7 -9.1,0.5 -18.5,0.9 -21,1 -2.5,0 -5,0.4 -5.7,0.9 -0.6,0.4 -5.3,0 -10.5,-0.9 -14.8,-2.6 -29.3,-2.4 -53.5,1 -8.2,1.1 -12.1,1.3 -14,0.5 -3.6,-1.3 -16.3,-1.9 -18.5,-0.8 -2.5,1.4 -78.6,1.9 -83.1,0.7 -3.3,-1 -4,-0.9 -6,1 -1.6,1.5 -3.6,2.2 -6.4,2.2 -2.3,0 -5.4,0.5 -7,1.1 -4,1.5 -22.7,2.9 -46,3.4 -13.6,0.3 -20.8,0.8 -22.2,1.7 -1.6,1 -2.5,0.9 -5.3,-0.6 -2.8,-1.5 -4.3,-1.6 -10.3,-0.8 -5.3,0.8 -7.5,0.7 -9,-0.3 -1.5,-0.9 -7.3,-1.2 -21,-1.2 -13.2,0 -23.1,-0.5 -32.3,-1.8 -10.5,-1.5 -14,-1.6 -16.4,-0.7 -3.4,1.3 -12.1,0 -14.7,-2.1 -0.9,-0.7 -3.3,-1.9 -5.5,-2.6 -5.3,-1.8 -16.6,-9 -16.6,-10.7 0,-0.7 -0.8,-2.8 -1.9,-4.6 -1,-1.8 -2.4,-6.2 -3.1,-9.8 l -1.2,-6.4 2.8,-2.3 c 2.6,-2.1 5.9,-10.7 4.8,-12.5 -0.3,-0.5 0.6,-2.3 1.9,-4 1.4,-1.8 2.8,-4.3 3.2,-5.599996 0.3,-1.2 1.5,-2.7 2.6,-3.2 1.1,-0.6 1.9,-2.1 1.9,-3.5 0,-1.4 0.8,-2.9 2,-3.5 1.1,-0.6 2,-2 2,-3.1 0,-2 12,-14.9 13.8,-14.9 0.6,0 3.7,-2 7.1,-4.5 4.6,-3.4 6.9,-4.4 9.2,-4.3 2.6,0.3 3.5,-0.2 4.9,-2.7 1.4,-2.5 2.3,-3 5.3,-3 2,0 4.1,-0.6 4.8,-1.3 0.7,-0.6 2.7,-1.2 4.5,-1.2 1.7,0 3.7,-0.7 4.4,-1.5 0.7,-0.9 2.9,-1.5 5.5,-1.5 2.4,0 4.8,-0.6 5.4,-1.4 0.7,-0.8 3.3,-1.7 5.9,-1.9 2.6,-0.3 11.4,-1.3 19.6,-2.2 8.2,-0.9 16,-2.2 17.5,-2.9 1.4,-0.8 4.8,-1.7 7.4,-2.1 2.7,-0.4 5.1,-1.3 5.3,-2 0.3,-0.7 2.8,-1.7 5.7,-2.3 16.3,-3.4 24,-3.9 31,-1.9 2.3,0.7 7.6,1.1 11.7,1 13.4,-0.6 21.2,-0.4 22.4,0.5 3.4,2.7 10.7,3.4 23.8,2.4 14.4,-1.1 21.5,-0.9 29.3,0.9 6.3,1.4 10.3,1.4 18.5,-0.1 3.6,-0.6 14.2,-1.2 23.5,-1.4 9.4,-0.1 17.7,-0.5 18.5,-0.9 0.8,-0.3 6.9,-0.8 13.5,-1.1 6.6,-0.3 20.1,-0.9 30,-1.4 9.9,-0.4 18.7,-1.2 19.5,-1.7 0.8,-0.6 2.4,-1.1 3.5,-1.1 1.1,-0.1 4.7,-0.7 8,-1.4 9.3,-1.8 19.2,-2.7 28.5,-2.4 31.9,0.8 43,1.5 49.6,2.9 6,1.4 8.1,1.5 12.1,0.5 2.6,-0.7 9.7,-1.7 15.6,-2.3 9.7,-0.9 11.2,-0.8 14.5,0.8 3.1,1.5 6.2,1.7 20.2,1.6 9.1,-0.1 16.9,-0.6 17.4,-1.1 1.5,-1.5 44.6,-1.3 50,0.2 3.9,1 5.1,0.9 11.7,-1.5 6.2,-2.3 9,-2.7 17.7,-2.7 5.7,0 11.3,0.5 12.4,1.1 3.5,1.9 13.6,2 20.7,0.3 5,-1.2 11.3,-1.6 25.6,-1.5 16.9,0.1 19.3,0.4 22.3,2.1 2.8,1.7 4.4,1.9 10.5,1.4 4,-0.3 8.6,-1 10.3,-1.5 1.6,-0.5 7.9,-1 14,-1 6,-0.1 13.2,-0.5 15.9,-0.9 3.1,-0.5 5.8,-0.4 7,0.3 1.1,0.6 5.4,1.2 9.5,1.3 4.1,0.2 13.2,0.8 20.1,1.4 9.9,0.9 13.5,0.9 17,-0.1 2.4,-0.7 6.4,-1.4 8.9,-1.5 2.5,-0.2 13.2,-0.9 23.8,-1.7 19.9,-1.4 23.2,-1.3 26.7,0.9 3.3,2 10.4,2.8 13.1,1.4 1.8,-1 3.6,-1 8.1,-0.1 3.9,0.7 7.5,0.8 10.8,0.2 3.5,-0.6 6.2,-0.5 9.4,0.4 10.1,3 15.9,3.7 23.7,3.1 4.3,-0.3 8.4,-0.6 8.9,-0.6 0.6,0 3.7,0.4 7,1 6.8,1.3 25.4,0.7 36.5,-1 12.6,-2 46.6,-1.4 50.9,0.9 2.8,1.5 10.1,1.3 21.1,-0.5 10.2,-1.7 22.9,-1.9 40.5,-0.7 6.1,0.4 17.9,0.5 26.4,0.1 12.4,-0.5 16.3,-0.4 19.9,0.8 2.7,1 5.5,1.3 7.5,0.8 1.8,-0.4 9.3,-0.8 16.7,-1 21,-0.3 38.2,-1.4 41.7,-2.5 1.8,-0.6 4.2,-0.8 5.2,-0.4 1.1,0.3 3.8,0.1 6.1,-0.5 6.3,-1.7 37.8,-2 41.7,-0.4 3.3,1.3 41,2.3 42.9,1.1 0.5,-0.3 6.5,-0.1 13.3,0.4 10.4,0.7 12.8,0.6 15.3,-0.7 2.1,-1.1 4.4,-1.4 7.7,-1 7.7,1 44.3,0.8 49.1,-0.3 2.5,-0.5 6.3,-1.5 8.5,-2.1 8.9,-2.5 27.9,-5.1 31,-4.2 1.1,0.3 4.7,0.6 8,0.7 z m -201.7,137.699996 c 1.2,-0.1 3.3,-0.2 4.7,-0.2 1.4,0 3.4,0 4.5,0 1.1,-0.1 3.2,-0.1 4.8,-0.1 4.7,0 11.9,0.8 13,1.5 1.2,0.7 28.6,1.8 41.7,1.6 4.4,0 10.9,-0.5 14.4,-1.1 9.3,-1.4 19.5,-1.6 22.2,-0.2 4.7,2.2 6.5,2.6 13.1,2.8 3.7,0.1 7.3,0.7 8.1,1.3 1.4,1.2 2.2,1.1 6.5,-0.4 0.9,-0.4 4.5,-0.7 7.9,-0.8 5.5,-0.1 6.3,0.1 6.5,1.9 0.2,1.3 1.3,2.2 3.3,2.5 l 2.9,0.5 0.3,9 c 0.1,5 0.4,13 0.7,18 0.2,5 0,9.5 -0.6,10.2 -0.6,0.8 -0.6,7.7 0.1,19.7 0.6,12 0.7,22.8 0.1,30.3 -1.8,22.5 -1.6,44.2 0.4,49.3 0.3,0.8 0.8,6.9 1.1,13.5 0.2,6.6 1.3,20.3 2.4,30.5 1.1,10.2 2,22.3 2,27 0,11.6 0.1,12.2 1.8,23 1.6,10.2 2.6,49.8 1.3,51.5 -1.2,1.6 -4.2,31 -3.5,34.2 0.4,1.5 1.3,4.8 2.1,7.3 2.2,7.1 3.9,37 3,55 -0.2,5.2 0,17.3 0.6,26.9 1.7,31.7 2,38.4 2.5,61.1 0.7,34.2 1.1,45.8 1.8,54 0.8,7.7 0.9,14.5 0.4,21.5 -0.1,2.2 -0.6,10.7 -1.1,19 -0.4,8.2 -1.2,19.9 -1.7,26 -0.5,6.7 -0.5,13.4 0.1,17 1.3,7.8 2,23 1.9,41.5 0,4.7 0.4,12.3 1,16.9 0.7,5.8 0.7,8.7 -0.1,9.5 -1.3,1.3 -1.3,31.9 0,36.6 1.2,4.1 2.3,37.6 1.8,53 -0.6,19.3 0.4,59.9 1.8,70.49996 0.2,2.3 -0.2,5.8 -0.9,8 -1.2,3.4 -1.2,5.6 -0.1,14 2.3,17.8 4.1,96.4 2.4,106.9 -0.5,3.4 -0.6,6.5 0,7.5 0.4,0.9 1.2,11.1 1.5,22.6 0.6,17.7 0.5,22.6 -1,31 -0.9,5.5 -1.8,14.9 -1.9,21 -0.2,17.1 1.1,60.2 1.9,61.5 0.4,0.6 0.9,11.4 1.2,23.8 0.6,26.5 0.6,21.7 0,41.7 -0.3,13 -0.1,16.3 1.1,17.7 0.9,1.1 1.2,2.3 0.6,3.5 -0.5,1 -0.9,3.4 -1,5.3 -0.1,1.9 -0.7,8 -1.2,13.5 -0.6,5.5 -1.5,15.4 -2.2,22 -0.6,6.6 -1.5,13.5 -2,15.4 -0.7,2.5 -0.5,4.1 0.7,6.4 1.2,2.4 1.3,3.5 0.4,4.9 -0.8,1.3 -0.9,3 -0.2,5.6 0.9,3.8 0.8,10.7 -0.3,20.2 -0.3,3 -1,14.8 -1.5,26.2 -0.5,11.4 -1.4,21.5 -1.9,22.5 -0.7,1.2 -0.6,2.6 0.5,4.6 1.1,2.2 1.2,4.2 0.6,9 -1.2,8.6 -0.7,47 0.7,60.2 1.6,14.1 1.6,15.2 0.2,32.5 -1,12.2 -3.5,66 -3.4,74 0,4.5 2.1,32.4 2.8,38 1.2,9.2 1.9,97.9 0.8,105.7 -0.4,3.7 -0.9,4.3 -2.9,4.3 -1.3,0 -2.6,0.4 -2.9,0.9 -0.3,0.5 -3.1,2.1 -6.2,3.6 -4.4,2.1 -6.9,2.7 -11,2.6 -3,-0.1 -6.5,-0.2 -7.9,-0.1 -5.1,0.3 -16.3,0.2 -25.4,-0.2 -9.3,-0.3 -9.3,-0.3 -10.7,2.5 -1.6,3.1 -2.6,3.3 -4.4,1.2 -1.1,-1.4 -1.5,-1.4 -2.9,-0.1 -1.9,1.7 -13.1,1.5 -21.6,-0.4 -6.8,-1.5 -18,-1.5 -23.5,-0.1 -2.5,0.7 -10.5,1.5 -17.9,1.7 -8.9,0.4 -14.1,1 -15.5,1.9 -1.4,0.9 -7,1.6 -16.1,2 -7.7,0.4 -15.4,1.1 -17,1.6 -1.7,0.5 -7.1,1.1 -12,1.3 -5,0.2 -10.3,0.9 -11.8,1.5 -1.6,0.6 -4.5,0.8 -6.5,0.5 -2,-0.3 -7.1,-0.1 -11.2,0.5 -4.1,0.5 -7.9,0.6 -8.5,0.2 -0.5,-0.5 -6.6,-0.6 -13.5,-0.4 -6.9,0.2 -17.4,0.6 -23.5,0.8 -6,0.2 -13.5,0.6 -16.5,0.9 -3,0.3 -13,0.7 -22.2,0.9 -9.2,0.2 -17.1,0.6 -17.4,1 -1.2,1.1 -6.7,0.8 -14.7,-0.8 -6.1,-1.3 -9,-1.4 -16.8,-0.5 -5.2,0.6 -17.5,1.1 -27.4,1 -11.1,-0.1 -19.7,0.3 -22.4,1 -3.6,0.9 -4.6,0.9 -6,-0.4 -2.1,-1.9 -4.3,-2 -5.8,-0.5 -0.6,0.6 -5.6,1.5 -11.1,1.9 -5.5,0.4 -10.5,1.1 -11.2,1.5 -0.6,0.4 -6.9,0.9 -13.8,1 -20.4,0.6 -37.3,2.3 -39.2,4 -2.2,2 -4.7,1.9 -5.9,-0.2 -0.7,-1.3 -1.2,-1.4 -2.3,-0.6 -0.8,0.7 -9.2,1.1 -24.8,1 -27,0 -51.2,0.9 -55.5,2.2 -1.7,0.4 -6.6,0.6 -11,0.4 -4.4,-0.3 -14.7,0.1 -23,0.7 -8.2,0.7 -17.2,1.4 -20,1.6 -5,0.4 -12.8,0.7 -55,2.5 -12.1,0.5 -22.8,1.4 -23.7,1.9 -1,0.6 -6.8,1 -12.8,1 -6.1,0 -13.1,0.5 -15.6,1.1 -3,0.8 -4.8,0.8 -5.7,0.1 -1.4,-1.2 -16.7,-1.9 -18.4,-0.9 -0.6,0.4 -7.4,0.9 -15,1.1 -7.6,0.3 -17.6,0.9 -22.3,1.5 -4.7,0.6 -10.7,0.9 -13.5,0.9 -2.7,-0.1 -6.4,0.4 -8.1,1.2 -2.6,1.1 -3.5,1.1 -6.1,-0.2 -2.5,-1.2 -4,-1.3 -8.2,-0.4 -3.8,0.7 -5.7,0.7 -7,-0.1 -2.2,-1.4 -18.8,-1.5 -21.3,-0.2 -1,0.5 -8.9,1.2 -17.5,1.4 -8.7,0.3 -18,1 -20.8,1.5 -2.7,0.5 -13.5,1 -24,0.9 -31.4,-0.1 -59.7,0.8 -64,1.9 -2.2,0.6 -7.1,1.6 -11,2.2 -3.8,0.6 -7.9,1.5 -9,2 -1.1,0.5 -9.6,1.4 -19,2 -21.1,1.3 -19.4,1.2 -29.5,0.7 -8.1,-0.4 -35.2,1.7 -37.2,2.9 -0.5,0.3 -6.7,1 -13.6,1.6 -7,0.5 -15.8,1.3 -19.7,1.9 -3.8,0.5 -8,0.9 -9.2,0.9 -1.3,0 -3.1,0 -4,0 -7,0 -20,1.1 -22.7,2 -2.4,0.8 -4.1,0.8 -6.2,0 -2,-0.8 -6,-0.8 -13.4,-0.2 -5.8,0.6 -12.3,1 -14.5,1.1 -6.2,0.1 -10.3,0.5 -10.9,1.2 -0.7,0.6 -87.7,0.2 -110.6,-0.6 -22.2,-0.8 -28,-1.2 -29.3,-2.3 -0.7,-0.5 -5.7,-1.2 -11.2,-1.6 -5.5,-0.4 -10.4,-1.1 -10.9,-1.6 -0.6,-0.6 -2,-1 -3.3,-1 -3.3,0 -12.2,-3.8 -15.6,-6.6 -2.4,-2.1 -3.7,-2.4 -6.4,-1.9 -3.8,0.7 -7,-1.4 -15.9,-10 -4,-3.9 -5.3,-5.9 -5.7,-9 -1.4,-9.9 -3.9,-21.3 -5.3,-24.3 -1.1,-2.4 -1.3,-5 -0.8,-10 0.5,-5.6 0.3,-7 -1,-8.1 -0.9,-0.7 -1.6,-1.9 -1.6,-2.7 0,-0.7 -0.8,-1.8 -1.9,-2.3 -1.1,-0.7 -2,-2.6 -2.4,-5.1 -0.3,-2.3 -1.3,-5 -2.2,-6 -1.4,-1.6 -1.6,-3.1 -1,-8.9 1,-9.8 -1,-20.7 -4.2,-22.8 -1.9,-1.3 -2.3,-2.4 -2.3,-6.4 0,-2.6 -0.4,-5 -0.9,-5.3 -2.8,-1.8 -1.6,-18.2 1.6,-21.8 1.2,-1.3 1.3,-2.1 0.5,-3.1 -0.8,-1 -0.7,-3.7 0.4,-10.3 0.9,-4.9 1.7,-13 2,-17.9 0.2,-5 0.4,-11 0.5,-13.5 0.1,-2.5 0.1,-7.2 -0.1,-10.5 -0.1,-3.3 0.5,-12.8 1.3,-21 3,-29.2 3,-29.4 1.8,-30.9 -0.9,-1.1 -0.8,-2.4 0.3,-5.7 1,-2.8 1.2,-4.8 0.5,-6 -1.2,-2.3 -1.2,-7.2 0.1,-8.5 1.4,-1.4 3.5,-18.6 3.5,-29.4 0.1,-5.2 0.6,-10.6 1.2,-12 0.7,-1.7 0.9,-9.1 0.5,-22.5 -0.9,-27.8 -0.4,-37.2 2.7,-55 0.6,-3.3 0.8,-7.8 0.5,-10.1 -0.3,-2.2 -0.1,-5.8 0.5,-7.9 0.9,-3.2 0.8,-4.2 -0.6,-5.7 -1.4,-1.6 -1.6,-4.9 -1.6,-25 0,-12.8 -0.3,-23.9 -0.7,-24.8 -1.8,-3.4 -2.3,-5.9 -2.6,-15 -0.3,-5.2 -0.7,-11.3 -0.9,-13.5 -0.7,-5.6 -0.7,-5.7 0,-18.5 1.1,-18.1 1.2,-53.6 0.2,-63.5 -2,-21.5 -2.4,-37.5 -1.7,-70.5 0.6,-31 0.3,-41 -1.5,-43 -1.4,-1.5 -1.5,-2.2 -0.4,-4.2 0.9,-1.5 1.3,-7.3 1.4,-17.8 0.1,-8.5 0.7,-20.5 1.4,-26.5 0.9,-7.5 1.1,-17.8 0.7,-32.5 -0.9,-34.8 -1.3,-44.5 -1.5,-45 -1,-1.7 -1.4,-10.9 -1.2,-27.6 0.1,-11.6 -0.3,-20.2 -0.9,-21.9 -0.6,-1.6 -1.3,-8.5 -1.6,-15.4 -0.7,-18.79996 -1.3,-29.29996 -2.2,-42.59996 -0.5,-6.6 -0.6,-12.5 -0.1,-13 0.4,-0.6 1,-11.2 1.2,-23.5 0.3,-12.4 0.8,-25.9 1.1,-30 0.3,-4.1 0.8,-10.2 1,-13.5 0.2,-3.3 0.8,-10.1 1.5,-15 0.7,-5.2 0.9,-14.2 0.6,-21.5 -1,-22 -1.1,-33.1 -0.5,-33.5 0.4,-0.2 0.7,-3.2 0.8,-6.7 0.1,-3.5 0.7,-9.6 1.2,-13.5 1.7,-11.3 2.5,-48.3 1.1,-51.2 -2.4,-4.7 -3.1,-9.5 -2.6,-17.9 0.4,-6.4 0.2,-9.8 -0.7,-11.2 -1,-1.5 -1,-2.2 0,-3.2 0.6,-0.6 1.2,-2.8 1.2,-4.8 0,-2 0.4,-4 0.9,-4.5 0.5,-0.6 0.5,-4.1 -0.1,-8.4 -0.7,-5.3 -0.7,-8.4 0.1,-11 0.8,-2.2 1,-6.6 0.6,-11.6 -0.3,-4.4 -0.6,-8.9 -0.5,-10 0.8,-22.5 0.5,-47.6 -0.6,-50.9 -0.8,-2.4 -0.9,-4.6 -0.4,-5.6 1,-1.8 0.6,-37.1 -0.5,-46.7 -0.5,-4.3 -0.4,-6.7 0.4,-7.7 0.6,-0.7 0.9,-2 0.6,-2.7 -0.2,-0.8 -0.7,-4.6 -0.9,-8.4 -1,-13.7 -2.5,-31.3 -3.2,-35.3 -0.4,-2.7 -0.2,-4.7 0.6,-5.7 0.7,-0.8 0.8,-1.9 0.3,-2.7 -0.4,-0.7 -0.9,-4.7 -1,-8.8 -0.5,-19.5 -0.4,-26.6 0.2,-28.3 0.4,-0.9 0.3,-2.3 -0.3,-3 -1.1,-1.3 -2.7,-27.1 -2.4,-38.2 0.1,-3.9 -0.3,-8.2 -0.9,-9.8 -0.8,-1.8 -0.8,-3.1 -0.2,-4 0.6,-0.7 0.7,-4.7 0.1,-10.7 -0.6,-6.3 -0.5,-10.3 0.2,-11.8 0.5,-1.3 1,-6.1 1,-10.7 0,-4.6 0.3,-8.6 0.7,-8.8 0.6,-0.4 0.7,-41.4 0.1,-50.2 0,-1.1 0.9,-7.9 2.2,-15 1.2,-7.2 2.2,-13.7 2.1,-14.5 -0.8,-7.1 -0.7,-43.9 0.2,-45.5 0.6,-1.1 1.1,-4.7 1.2,-8 0.1,-3.3 0.4,-6.7 0.8,-7.5 0.3,-0.8 1.1,-8.3 1.7,-16.5 0.6,-8.3 1.6,-16.4 2.1,-18.2 1.3,-4.1 1.6,-12.3 0.5,-14.5 -0.5,-1.2 -0.2,-2 1.4,-2.8 2.2,-1.2 8.1,0.2 15.7,3.6 1.7,0.8 3.8,1.4 4.6,1.4 0.7,0 3.2,1.3 5.4,2.9 3.5,2.6 4.7,2.8 10.4,2.6 3.8,-0.2 7.7,0.3 9.8,1.1 1.8,0.8 4.4,1.1 5.7,0.8 1.3,-0.3 7.2,0 13.1,0.6 5.9,0.7 14.6,1.4 19.3,1.6 11.4,0.5 38.2,0.4 39,-0.1 0.4,-0.3 6.3,0 13.1,0.6 19,1.6 27,1.7 31.4,0.6 4.7,-1.3 12.7,-1.8 24,-1.7 4.4,0 12.3,-0.4 17.5,-1.1 5.2,-0.6 12.6,-1.3 16.5,-1.5 3.8,-0.1 7.8,-0.7 9,-1.3 4.2,-2.1 39.6,-3.2 49.5,-1.6 3.6,0.6 4.9,0.4 5.9,-0.9 1.1,-1.3 3.5,-1.6 12.3,-1.6 6,0 11.8,0.5 13,1.1 1.4,0.8 2.8,0.7 4.9,-0.1 2.2,-0.9 3.6,-1 5.6,-0.1 5.1,2 15.2,2.4 17.8,0.7 3.9,-2.6 23.2,-4.4 43.1,-4.2 15.5,0.2 18.6,0.5 20.9,2 2.3,1.5 3.1,1.6 5.8,0.5 1.8,-0.8 7.5,-1.3 13.8,-1.3 5.9,-0.1 11,-0.3 11.2,-0.6 0.5,-0.5 6.3,-0.4 36.7,0.4 6.9,0.1 12.5,0.8 13.9,1.6 2,1 3.4,1 7.7,0 3.5,-0.9 7.7,-1 12.6,-0.5 4,0.4 10.3,0.6 13.9,0.5 6.1,-0.1 6.8,0.1 8.8,2.6 l 2.1,2.7 2.3,-2.1 c 1.8,-1.7 3.5,-2.2 7.3,-2.2 2.7,0.1 8.3,-0.1 12.4,-0.4 4.1,-0.2 8.7,0 10.3,0.6 2,0.8 3.1,0.7 4.2,-0.2 1.5,-1.3 7.3,-1.5 21.2,-1 6.9,0.3 8.6,0 10.3,-1.5 1.4,-1.2 2.9,-1.6 5.2,-1.3 1.8,0.3 6,0.1 9.3,-0.3 3.3,-0.5 12.1,-1.1 19.5,-1.4 7.4,-0.3 20.3,-1.3 28.5,-2.1 8.3,-0.8 20,-1.3 26.2,-1.1 7.3,0.2 11.6,0 12.3,-0.7 0.7,-0.7 7.3,-1.1 18.3,-1.2 11.1,0 18.8,-0.5 21.7,-1.4 4.6,-1.3 7.9,-1.5 35.2,-2.3 8.6,-0.3 16.2,-0.9 16.9,-1.3 1.9,-1.1 37.3,-0.6 40.5,0.6 1.6,0.6 3.1,0.7 3.8,0.1 0.6,-0.5 5.6,-0.7 11.1,-0.5 33.3,1.1 49,1.2 50.7,0.3 1.3,-0.7 4.2,-0.7 9.1,0.1 6.2,0.9 14.7,1.2 31.7,1 1.9,-0.1 6.4,-0.1 9.9,-0.1 3.6,0 7.1,-0.5 7.8,-1.1 1,-0.8 2.1,-0.8 4,0.1 1.4,0.6 7.2,1.2 12.9,1.2 5.7,0.1 10.7,0.5 11,1.1 0.4,0.5 3.1,0.7 6.9,0.3 4,-0.5 7,-0.3 8.4,0.4 1.2,0.7 2.7,0.9 3.4,0.4 0.6,-0.4 5.7,-0.8 11.2,-0.9 10.1,-0.3 33.3,-1.2 43.5,-1.7 3,-0.2 6.2,-0.6 7,-0.9 3.9,-1.6 7.6,-1.7 16.7,-0.7 12.9,1.5 26.5,1.8 28,0.6 0.8,-0.5 3.8,-0.5 8,0.2 9,1.4 14,1.5 38.3,0.2 11.3,-0.6 24.1,-1.1 28.5,-1 4.4,0 14,-0.2 21.3,-0.6 9.5,-0.5 13.7,-0.3 14.7,0.5 1,0.9 1.9,0.9 3.6,0 1.4,-0.8 4.2,-1 7.3,-0.6 2.9,0.3 5.7,0.1 6.6,-0.5 1,-0.6 4.8,-0.8 10.5,-0.3 5,0.4 10,0.6 11.3,0.6 z m 249.2,1403.79996 c 0,0.5 -0.4,1 -0.9,1 -0.6,0 -1.3,-0.5 -1.6,-1 -0.3,-0.6 0.1,-1 0.9,-1 0.9,0 1.6,0.4 1.6,1 z"
         id="path12"
         style="fill:#343434;stroke:#343434;stroke-width:24.0813;stroke-miterlimit:4;stroke-dasharray:none;stroke-opacity:1" />
    </g>
    <path
       style="fill:#343434;stroke:#343434;stroke-width:7.5;stroke-miterlimit:4;stroke-dasharray:none;stroke-opacity:1"
       id="path22"
       d="m 80.84326,139.25034 -1.52608,1.4015 -0.12458,3.6439 c -0.24915,6.82064 -0.46716,9.56135 -0.74746,9.93509 -0.21801,0.24915 -0.18687,0.59174 0.0623,1.05891 0.37373,0.71632 0.0934,3.83077 -0.71633,7.6304 -0.34259,1.65065 -0.2803,2.36697 0.49831,6.66491 0.34259,1.74409 0.43603,3.3636 0.31145,4.73396 -0.15572,1.52608 -0.0934,2.2424 0.21801,2.61614 0.24916,0.31144 0.37373,1.18349 0.31144,2.55384 -0.18686,3.92421 -0.0934,13.42327 0.12458,13.76586 0.31145,0.49831 0.68518,8.59587 0.87205,19.24728 0.0623,2.92758 0.21801,5.45029 0.31144,5.57486 0.34259,0.31145 0.24916,2.21126 -0.0934,2.42927 -0.46717,0.31145 -0.37373,1.49494 0.21801,2.33584 0.43602,0.62289 0.52946,1.43264 0.49831,4.45366 0,2.36698 -0.15572,3.95534 -0.40488,4.42251 -0.31144,0.5606 -0.31144,0.87205 -0.0623,1.18349 0.24916,0.2803 0.34259,2.36698 0.34259,6.16661 0,3.14559 0.0934,5.97974 0.18687,6.26004 0.12458,0.2803 0.0934,0.71632 -0.0311,0.93433 -0.15573,0.21801 -0.31145,2.42927 -0.37374,4.92083 -0.0623,2.49155 -0.12458,5.01426 -0.15572,5.606 0,0.59175 0,2.33584 0.0311,3.89306 0.0312,1.52608 0.0623,3.14559 0.0623,3.58161 0,3.48818 0.31145,7.47468 0.62289,8.15986 0.2803,0.59174 0.31145,1.09005 0.0934,1.71294 -0.37374,1.02777 -0.0623,7.41239 0.40487,8.34672 0.15573,0.34259 0.24916,2.61613 0.21802,5.13884 -0.15573,6.29118 -0.0623,8.50244 0.46716,12.76923 0.15573,1.27692 0.21801,2.77186 0.15573,3.30131 -0.0934,0.5606 0,1.09006 0.18686,1.18349 0.18687,0.12458 0.34259,0.62289 0.34259,1.09006 0,0.46717 0.15572,0.99662 0.34259,1.18349 0.2803,0.2803 0.2803,0.59175 0,1.24578 -0.43602,1.09006 -0.71632,4.76509 -0.37373,5.23226 0.12457,0.15572 0.18686,0.96548 0.0934,1.77523 -0.12458,1.4015 -0.21801,1.55723 -1.9621,2.803 l -1.86867,1.33922 0.18687,1.71294 c 0.0934,0.93434 0.21801,2.05554 0.24915,2.49156 0.0623,0.74747 0.18687,0.77861 2.70957,0.99662 2.02439,0.18687 2.92758,0.12458 3.83077,-0.21801 0.62289,-0.24915 1.58837,-0.46716 2.08668,-0.46716 0.49831,0 1.24578,-0.12458 1.71295,-0.31145 0.43602,-0.15572 2.27354,-0.37373 4.07992,-0.43602 1.77524,-0.0934 3.42589,-0.24916 3.64391,-0.40488 0.18686,-0.12458 2.05553,-0.24916 4.11107,-0.31144 4.73396,-0.12458 4.2045,-0.0934 9.46792,-0.62289 4.07992,-0.43603 4.60938,-0.43603 5.54371,0.0311 0.71632,0.34259 1.43265,0.43602 2.30469,0.31145 0.90319,-0.15573 1.37036,-0.0623 1.77524,0.31144 0.71632,0.62289 2.92758,0.71632 8.31557,0.37373 2.36698,-0.15572 4.23565,-0.43602 4.51595,-0.65403 0.80976,-0.65403 1.89981,-0.74747 3.27017,-0.31145 0.96548,0.34259 1.55722,0.37374 2.36698,0.12458 1.80638,-0.52945 19.87017,-0.34259 23.20263,0.24916 0.87204,0.15572 3.6439,0.18687 6.22889,0.0623 6.41576,-0.31145 8.90732,-0.34259 11.8349,-0.0934 1.74409,0.12458 2.74072,0.0934 3.23903,-0.18686 1.05891,-0.5606 23.17148,-0.8409 25.69419,-0.31145 1.93095,0.40488 5.69943,0.43603 10.58912,0.12458 1.55722,-0.0934 3.42589,-0.15572 4.2045,-0.15572 4.51595,0.0934 6.75835,0.2803 7.35009,0.59174 0.43603,0.21801 1.77524,0.24916 4.36023,0.0623 2.02439,-0.12458 3.9242,-0.12458 4.17336,0 0.24916,0.15572 0.87205,0.18687 1.33921,0.0934 0.59175,-0.12458 1.37036,0.0623 2.21126,0.49831 0.74747,0.34259 1.77523,0.68518 2.30469,0.74746 0.52946,0.0623 1.15235,0.2803 1.4015,0.49832 0.40488,0.31144 10.02852,0.49831 16.88031,0.2803 0.68517,-0.0312 4.54709,0 8.56472,0.0311 4.01764,0.0311 8.59588,-0.0623 10.12196,-0.18687 3.11444,-0.31144 5.26341,-0.31144 6.26004,0 0.37373,0.12458 1.1212,0.0312 1.74409,-0.21801 1.1212,-0.49831 3.6439,-0.31144 5.91745,0.40488 1.05891,0.31145 5.0454,0.99662 5.85516,0.96548 1.09005,0 3.30131,-0.40488 3.58161,-0.62289 0.37373,-0.31145 11.92833,-0.15572 13.64128,0.15572 0.77861,0.15572 1.30807,0.0934 1.61951,-0.15572 0.34259,-0.2803 1.05891,-0.34259 2.27355,-0.21801 0.96548,0.0934 2.49156,0.0623 3.33246,-0.0934 1.02776,-0.15572 2.2424,-0.12457 3.58161,0.15573 2.30469,0.46716 5.26342,0.49831 5.82402,0.0934 0.21801,-0.18687 2.92758,-0.2803 6.22889,-0.24916 3.20788,0.0623 6.69606,0.0623 7.72383,0.0623 2.21126,-0.0311 3.27017,-0.0311 4.45366,0 0.46717,0.0311 3.86191,-0.0623 7.53696,-0.21801 8.25329,-0.31144 9.77936,-0.31144 11.36773,0.0312 0.68518,0.15572 3.73734,0.21801 6.85179,0.0934 7.13208,-0.24916 8.75159,-0.0311 9.8105,1.30807 0.43603,0.52945 1.15235,1.43264 1.61952,1.9621 l 0.8409,0.96548 0.31144,-0.87205 c 0.18687,-0.46716 0.52946,-0.8409 0.77861,-0.8409 0.24916,0 0.87205,-0.37373 1.40151,-0.80975 0.71632,-0.59175 0.96547,-1.05892 0.96547,-1.80638 0,-0.74747 0.21802,-1.18349 0.93434,-1.6818 0.49831,-0.40488 0.93433,-0.87205 0.93433,-1.05892 0,-0.21801 0.2803,-0.68517 0.65404,-1.05891 0.49831,-0.52945 0.5606,-0.8409 0.34259,-1.27692 -0.52946,-0.96548 -0.99663,-4.82739 -0.77862,-6.66492 0.0934,-1.1212 0.0623,-1.83751 -0.18686,-1.96209 -0.21801,-0.15572 -0.2803,-0.96548 -0.15573,-2.49156 0.15573,-1.58836 0.0934,-2.49155 -0.21801,-3.02101 -0.21801,-0.40488 -0.43602,-1.89981 -0.46716,-3.39475 -0.0312,-1.46379 -0.21801,-4.7651 -0.43603,-7.31895 -0.40487,-4.95197 -0.71632,-11.74146 -0.77861,-16.72458 0,-1.6818 -0.18686,-3.17673 -0.37373,-3.42589 -0.24916,-0.2803 -0.34259,-2.67842 -0.2803,-7.41238 0.0311,-5.26342 -0.0623,-7.16323 -0.34259,-7.66154 -0.21801,-0.34259 -0.49831,-1.61952 -0.5606,-2.80301 -0.0934,-1.18349 -0.2803,-2.98987 -0.43602,-4.01763 -0.15573,-1.02777 -0.2803,-4.39137 -0.2803,-7.47468 -0.0312,-3.0833 -0.15573,-8.56473 -0.34259,-12.14634 -0.18687,-3.61276 -0.31145,-7.59925 -0.31145,-8.87617 0.0312,-1.68181 -0.15572,-2.92758 -0.65403,-4.36023 -0.59175,-1.77523 -0.65404,-2.27355 -0.37374,-3.89306 0.40488,-2.42927 0.0934,-12.42664 -0.40487,-13.2364 -0.0934,-0.15572 -0.18687,-1.37036 -0.21802,-2.70957 0,-1.33921 -0.21801,-2.89643 -0.46716,-3.48818 -0.37374,-0.8409 -0.37374,-1.21463 -0.0623,-1.93096 0.2803,-0.68517 0.2803,-1.6818 0,-4.23564 -0.46717,-4.48481 -0.43602,-6.97637 0.0934,-7.72383 0.8409,-1.21464 0.90319,-2.02439 0.24916,-2.74072 -0.71632,-0.80975 -0.96548,-1.93095 -1.15235,-5.66829 -0.15572,-2.86529 -0.68518,-6.29118 -1.09005,-6.85178 -0.40488,-0.5606 -0.71633,-7.31895 -0.59175,-13.2364 0.12458,-7.44353 0.0312,-10.27768 -0.34259,-10.77599 -0.18686,-0.18687 -0.37373,-0.87205 -0.43602,-1.43265 -0.0623,-0.59174 -0.18687,-1.24578 -0.2803,-1.4015 -0.2803,-0.43602 -4.92083,-0.12458 -5.51257,0.37374 -0.24916,0.21801 -1.43265,0.46716 -2.64728,0.59174 -1.18349,0.12458 -2.33584,0.37373 -2.55385,0.52946 -0.18687,0.18686 -0.65403,0.24915 -0.99662,0.12457 -0.31145,-0.0934 -0.68518,-0.0311 -0.80976,0.18687 -0.15572,0.21801 -0.96548,0.2803 -2.64728,0.12458 -1.55722,-0.12458 -2.49156,-0.0934 -2.61613,0.0934 -0.12458,0.21801 -1.86867,0.2803 -4.88969,0.21801 -2.803,-0.0934 -4.92082,-0.0311 -5.29456,0.15573 -0.37373,0.21801 -1.02776,0.21801 -1.89981,0.0311 -0.8409,-0.18687 -1.46379,-0.18687 -1.61951,0 -0.49831,0.46717 -2.98987,0.34259 -3.17674,-0.18687 -0.21801,-0.5606 -1.09005,-0.62289 -1.65065,-0.0934 -0.2803,0.31145 -2.30469,0.40488 -7.59925,0.46717 -3.9865,0.0311 -8.00413,0.0623 -8.93847,0.0934 -4.11107,0.0623 -5.0454,0 -5.41914,-0.2803 -0.24915,-0.21801 -1.15234,-0.12458 -2.89643,0.2803 -2.11783,0.52946 -3.30132,0.59175 -7.44353,0.49831 -2.74071,-0.0623 -5.73058,-0.31144 -6.66492,-0.49831 -2.02439,-0.46717 -2.08668,-0.46717 -4.51595,-0.0623 -1.02776,0.15572 -2.70956,0.24916 -3.73733,0.18687 -1.02777,-0.0311 -3.0833,0.12458 -4.57824,0.34259 -2.30469,0.37373 -2.86529,0.37373 -3.55047,0.0311 -0.46717,-0.2803 -1.27692,-0.37373 -2.02439,-0.2803 -0.68518,0.0934 -1.77523,0.0312 -2.39812,-0.15572 -3.61276,-1.05891 -4.07993,-1.1212 -4.73396,-0.52946 -0.5606,0.52946 -0.90319,0.52946 -4.23565,0.18687 -2.74072,-0.2803 -3.73734,-0.2803 -4.04878,0 -0.31145,0.24916 -0.5606,0.24916 -0.8409,0.0312 -0.5606,-0.46717 -10.65141,-0.2803 -13.29869,0.24915 -1.61952,0.31145 -3.08331,0.31145 -7.16323,0 -2.803,-0.18687 -5.26342,-0.46717 -5.45028,-0.59174 -0.15573,-0.15573 -0.8409,-0.34259 -1.49494,-0.46717 -0.90319,-0.15572 -1.33921,-0.0934 -1.93096,0.37373 -0.62288,0.49831 -1.1212,0.5606 -3.33245,0.43603 -1.43265,-0.0623 -3.17674,-0.31145 -3.92421,-0.5606 -1.55722,-0.49832 -5.01426,-0.56061 -7.69268,-0.12458 -0.99662,0.15572 -3.89306,0.37373 -6.38462,0.46716 -2.49156,0.0934 -5.35685,0.31145 -6.38461,0.46717 -2.55385,0.43602 -5.63715,0.40488 -6.38462,-0.0623 -0.46717,-0.31144 -0.68518,-0.2803 -1.18349,0.15572 -0.52946,0.46717 -1.24578,0.52946 -5.38799,0.49832 -2.64728,0 -5.29456,0.0623 -5.91745,0.18686 -0.68518,0.12458 -1.4015,0.0623 -1.80638,-0.12457 -0.34259,-0.18687 -1.86867,-0.37374 -3.39475,-0.40488 -2.14897,-0.0623 -2.95873,0.0311 -3.58161,0.46716 -0.71633,0.46717 -0.93434,0.46717 -2.08668,0.0623 -1.02777,-0.34259 -3.51933,-0.49831 -10.77599,-0.59174 -5.20113,-0.0934 -9.62364,-0.24916 -9.77937,-0.34259 -0.18686,-0.12458 -1.58836,-0.0312 -3.14559,0.18687 -2.21125,0.31144 -2.92758,0.31144 -3.42589,0.0311 -0.46717,-0.2803 -1.24578,-0.31144 -3.17673,-0.0934 -3.67505,0.43602 -16.69344,0.46716 -17.19175,0.0311 -0.2803,-0.24915 -3.14559,-0.2803 -9.71708,-0.12458 -14.41989,0.31145 -30.83302,0.24916 -32.95085,-0.15572 -1.02777,-0.18687 -4.04878,-0.43602 -6.69606,-0.52945 -5.85516,-0.21802 -7.59925,-0.68518 -8.44015,-2.3047 -0.80976,-1.46379 -1.21463,-1.80637 -2.46041,-1.99324 -0.96548,-0.15572 -1.24578,-0.0312 -2.61614,1.24578 z m 301.6342,9.06304 c 0.34259,0.37373 0.46717,2.30469 0.52946,8.62702 0.0311,4.4848 0.21801,8.409 0.37373,8.75159 0.12458,0.34259 0.34259,1.74409 0.43602,3.11445 0.12458,1.37036 0.34259,3.27017 0.52946,4.2045 0.15572,0.93434 0.31145,1.99325 0.2803,2.33584 -0.0311,2.58499 0.0934,4.42251 0.37373,4.73396 0.15573,0.21801 0.2803,1.52608 0.2803,2.95872 -0.0623,5.20113 0.18687,16.03941 0.37374,16.35085 0.12458,0.15572 0.2803,2.67843 0.40488,5.57486 0.0934,2.89644 0.2803,5.38799 0.43602,5.51257 0.31144,0.34259 -0.40488,5.45028 -0.40488,5.45028 1.84488,19.54678 2.36081,21.55556 1.93103,36.5636 0.71632,0.15573 0.99662,1.71295 1.27692,6.94522 0.15572,2.55385 0.34259,5.60601 0.43602,6.75835 0.0934,1.18349 0.0312,2.18011 -0.15572,2.27355 -0.43602,0.2803 -0.31144,1.80638 0.21801,2.49155 0.37374,0.49832 0.46717,1.4638 0.40488,4.8274 -0.0311,2.30469 -0.15572,5.23227 -0.31144,6.50919 -0.21801,1.74409 -0.15573,2.74072 0.18686,4.07993 0.5606,2.14897 0.59175,3.48818 0.0934,3.98649 -0.24916,0.24916 -0.24916,0.46717 0,0.74747 0.15572,0.21801 0.31144,0.74746 0.31144,1.18349 -0.0623,1.61951 0.46717,6.10431 0.74747,6.41576 0.15572,0.21801 0.12458,0.68518 -0.0934,1.18349 -0.40488,0.8409 -0.0623,5.73058 0.68517,10.46454 0.18687,1.12119 0.21801,2.70956 0.12458,3.51931 -0.0934,0.8409 -0.0623,1.6818 0.0934,1.86867 0.59175,0.71632 0.59175,2.70957 0.0312,3.20788 -0.49831,0.43602 -0.77861,0.43602 -2.92758,0 -1.30807,-0.2803 -2.55385,-0.40488 -2.74071,-0.2803 -0.49832,0.31145 -3.33246,0.31145 -4.2668,0 -0.43602,-0.15572 -2.86529,-0.34259 -5.45028,-0.43602 -5.48143,-0.15572 -7.13208,-0.24916 -10.86942,-0.52946 -1.93096,-0.12457 -3.6439,-0.0623 -5.606,0.2803 -1.55723,0.24916 -4.36023,0.49832 -6.26004,0.5606 -4.64053,0.0934 -12.98725,-0.37373 -13.42327,-0.74746 -0.21801,-0.18687 -0.65403,-0.12458 -1.24578,0.15572 -1.24578,0.62289 -11.64803,0.52946 -12.3955,-0.0934 -0.43602,-0.37374 -0.59174,-0.34259 -1.05891,0.0311 -0.93433,0.80976 -1.58837,0.87205 -4.67167,0.49831 -1.65066,-0.18687 -3.42589,-0.34259 -3.95535,-0.31144 -3.73734,0.12457 -6.54034,0 -6.91407,-0.31145 -0.34259,-0.2803 -0.59175,-0.2803 -1.02777,0 -0.31144,0.18687 -1.86867,0.34259 -3.48818,0.37374 -3.55047,0 -5.91745,0.15572 -7.56811,0.46716 -0.93433,0.15573 -1.77523,0.0312 -3.27017,-0.46716 -1.21463,-0.40488 -2.36698,-0.59175 -2.92758,-0.49832 -0.49831,0.0934 -1.09005,0.0312 -1.30806,-0.15572 -0.31145,-0.24915 -0.68518,-0.24915 -1.4015,0 -0.56061,0.18687 -2.05554,0.34259 -3.36361,0.34259 -1.6818,0 -2.58499,0.15572 -3.11444,0.49831 -0.59175,0.43603 -0.84091,0.43603 -1.4638,0.12458 -0.52945,-0.31144 -1.58836,-0.34259 -4.07992,-0.18687 -10.93171,0.74747 -19.71445,0.8409 -21.58312,0.2803 -15.64516,-3.87911 -33.04511,-1.60445 -48.7411,-3.20792 -1.89981,-0.18686 -3.45703,-0.18686 -4.82739,0.0623 -2.18011,0.34259 -2.74071,0.37374 -5.23227,0.0623 -1.24578,-0.12458 -1.77524,-0.0623 -2.18011,0.2803 -0.43603,0.37374 -0.99663,0.40488 -2.86529,0.24916 -1.99325,-0.21801 -2.46042,-0.15572 -3.17674,0.34259 -0.99662,0.68518 -1.30807,0.71632 -1.80638,0.0934 -0.21801,-0.24916 -0.68518,-0.46717 -1.05891,-0.46717 -0.37374,0 -0.80976,-0.12457 -0.99663,-0.2803 -0.34258,-0.34259 -9.96623,0.49831 -10.90056,0.96548 -0.77861,0.34259 -10.46454,0.0934 -11.2743,-0.31144 -0.80975,-0.43603 -15.35422,-0.24916 -16.13283,0.15572 -0.46717,0.2803 -0.93434,0.2803 -1.86867,0 -1.61952,-0.46717 -9.99738,-0.37373 -10.58912,0.12458 -0.2803,0.24915 -1.46379,0.34259 -3.33246,0.2803 -1.55722,-0.0623 -3.48818,-0.0934 -4.26679,-0.0623 -0.77862,0.0311 -1.61952,-0.0312 -1.86867,-0.12458 -0.65404,-0.2803 -18.15723,-0.34259 -18.53096,-0.0934 -0.15572,0.12457 -1.37036,0.2803 -2.64728,0.34259 -1.27693,0.0934 -3.51933,0.46716 -4.95197,0.8409 -2.14897,0.59174 -2.77186,0.65403 -3.23903,0.34259 -0.34259,-0.18687 -1.37035,-0.43603 -2.30469,-0.52946 -0.90319,-0.0934 -1.77523,-0.34259 -1.89981,-0.52946 -0.21801,-0.31144 -0.46717,-2.55384 -0.87205,-7.66152 -0.0934,-1.27693 -0.31144,-2.46042 -0.43602,-2.58499 -0.12458,-0.15573 -0.18687,-1.37036 -0.0934,-2.67843 0.15572,-1.9621 0.0623,-2.58499 -0.37374,-3.23902 -0.43602,-0.68518 -0.5606,-1.83753 -0.65403,-7.44353 -0.34259,-19.65216 -0.65403,-25.88106 -1.33921,-27.74973 -0.15573,-0.40487 -0.18687,-1.24578 -0.0623,-1.83752 0.15572,-0.59174 0.18687,-1.52608 0.0934,-2.05554 -0.0623,-0.5606 0,-1.18348 0.15572,-1.4015 0.18687,-0.21801 0.21802,-2.33583 0.0312,-5.66829 -0.18687,-3.70619 -0.15572,-5.606 0.0934,-6.32233 0.21801,-0.65403 0.2803,-1.89981 0.12458,-3.3636 -0.15572,-1.6818 -0.0934,-2.46041 0.18687,-2.803 0.2803,-0.37374 0.2803,-0.59175 0,-1.18349 -0.43603,-0.80976 -0.49831,-1.6818 -0.15573,-3.23903 0.12458,-0.68518 0.0623,-1.18349 -0.24915,-1.55722 -0.37374,-0.43602 -0.40488,-1.09006 -0.21801,-3.33246 0.12458,-1.55722 0.24915,-4.07993 0.24915,-5.66829 0.0312,-1.58837 0.18687,-3.23903 0.40488,-3.67505 0.31145,-0.65403 0.24916,-0.93434 -0.24915,-1.65066 -0.90319,-1.18349 -1.12121,-1.9621 -0.74747,-2.39812 0.43602,-0.52946 0.46717,-8.90732 0.0623,-10.74484 -0.18687,-0.77862 -0.37374,-3.7062 -0.40488,-6.54034 -0.0312,-2.83415 -0.18687,-5.48143 -0.37373,-5.91745 -0.15573,-0.43603 -0.40488,-3.86192 -0.56061,-7.6304 -0.15572,-3.76848 -0.37373,-8.25328 -0.46716,-9.96623 -0.12458,-1.71295 -0.18687,-3.58161 -0.15572,-4.14221 0,-0.59175 -0.15573,-1.83753 -0.43603,-2.80301 -0.24915,-1.05891 -0.34259,-1.86866 -0.15572,-2.08668 0.15572,-0.21801 0.15572,-1.15234 0,-2.33583 -0.37373,-2.46041 -0.40488,-4.88968 -0.0623,-5.07655 0.12458,-0.0934 0.24916,-2.08668 0.31145,-4.42251 0.0311,-2.67843 0.21801,-4.60939 0.49831,-5.26342 0.21801,-0.52946 0.34259,-1.43265 0.24915,-1.99325 -0.18686,-1.4015 0.2803,-1.80638 2.36698,-2.08668 2.27355,-0.2803 7.59925,-0.18686 9.3122,0.18687 0.71632,0.15572 3.58161,0.34259 6.38462,0.43602 2.77185,0.0934 5.76172,0.31145 6.60262,0.49831 1.86867,0.43603 8.50244,0.21802 9.46792,-0.31144 0.52946,-0.2803 1.46379,-0.2803 4.20451,0.0623 2.49155,0.31144 4.23565,0.37373 6.13546,0.18687 3.79962,-0.40488 11.05629,-0.37374 12.27092,0.0311 0.68518,0.21801 2.5227,0.24916 5.35685,0.12458 2.39812,-0.12458 7.5681,-0.24916 11.49231,-0.31145 3.95535,-0.0934 7.50582,-0.15572 7.94184,-0.15572 0.43602,0 1.6818,0.15572 2.803,0.34259 1.52608,0.24916 2.74071,0.24916 4.88968,-0.0311 1.89982,-0.21802 3.14559,-0.24916 3.73734,-0.0623 0.46717,0.18686 1.4015,0.24915 2.05553,0.15572 0.68518,-0.0623 1.74409,0.0934 2.55385,0.40488 0.77861,0.2803 1.52608,0.43602 1.71295,0.31144 0.18686,-0.12458 2.803,-0.40488 5.82401,-0.62289 4.2668,-0.34259 5.60601,-0.34259 5.9486,-0.0623 0.59174,0.49832 20.43077,0.43603 21.05366,-0.0623 0.24916,-0.18686 2.83415,-0.31144 7.06979,-0.31144 3.67505,0 8.191,-0.12458 10.02852,-0.31144 2.11783,-0.18687 3.64391,-0.21802 4.14222,-0.0311 0.46717,0.18687 1.52608,0.18687 2.77186,0.0311 1.43264,-0.21802 3.23902,-0.15573 6.29118,0.18686 4.88968,0.52946 8.03527,0.68518 14.26417,0.68518 2.39812,0 5.16998,0.0311 6.1666,0.0311 0.99663,0.0311 2.02439,-0.12458 2.27355,-0.34259 0.71632,-0.59175 11.24315,-0.65404 12.3955,-0.0623 0.62289,0.34259 1.09005,0.37373 1.71294,0.15572 1.40151,-0.52946 10.37111,-0.0312 11.77261,0.62289 0.49832,0.24915 1.05892,0.21801 2.18012,-0.15572 1.99324,-0.62289 6.41576,-0.96548 7.19437,-0.5606 1.33921,0.71632 19.06042,0.90319 20.64878,0.21801 0.2803,-0.12458 1.12121,-0.0623 1.89982,0.0934 1.05891,0.24916 1.9621,0.21801 3.55047,-0.0934 1.58836,-0.31145 3.83077,-0.40488 8.37786,-0.31145 8.53358,0.21801 18.09494,0.12458 19.77674,-0.18686 6.66492,-1.21464 7.41238,-1.27693 9.84165,-0.96548 1.33921,0.15572 2.58499,0.21801 2.77186,0.0934 0.34259,-0.21801 4.23565,-0.5606 7.35009,-0.62289 1.58837,-0.0623 2.18012,0.0623 2.49156,0.46717 z"
       sodipodi:nodetypes="ccccccccccccccccccsccsccscccccccsscccccccccsccccccccccccccccccccccccsccsccccccccccccccccccccccscscscccccccccccccscccccccccccccscccccccccccccccccccccccccccccccccccccccccsccccccccccccccccccccccccccccccccccccccccccscccccccccccccccscccccccccscccscccccccccccscccccccscccccccccccccccccccccccccccccccsccccccccccccccsccccscccccscccsccccscccccccccsccccccc" />
  </g>
</svg>
