<?xml version="1.0" standalone="no"?>
<!DOCTYPE svg PUBLIC "-//W3C//DTD SVG 20010904//EN"
 "http://www.w3.org/TR/2001/REC-SVG-20010904/DTD/svg10.dtd">
<svg version="1.0" xmlns="http://www.w3.org/2000/svg"
 width="1565.615858pt" height="1926.492781pt" viewBox="0 0 1565.615858 1926.492781"
 preserveAspectRatio="xMidYMid meet">
<metadata>
Created by potrace 1.16, written by Peter Selinger 2001-2019
</metadata>
<g transform="translate(-36.026157,1956.521841) scale(0.100000,-0.100000)"
fill="#343434" stroke="none">
<path d="M15490 19553 c-14 -7 -47 -13 -75 -13 -27 0 -86 -7 -130 -16 -44 -8
-97 -13 -117 -10 -23 4 -52 0 -77 -10 -32 -13 -50 -14 -87 -6 -41 9 -51 8 -70
-7 -24 -19 -38 -19 -304 -7 -266 13 -306 14 -323 4 -47 -25 -134 -28 -312 -13
-331 28 -430 33 -440 26 -5 -5 -36 -9 -67 -9 -32 -1 -71 -8 -86 -16 -34 -18
-138 -11 -162 10 -19 16 -109 5 -135 -16 -12 -10 -24 -10 -58 -1 -31 9 -50 9
-70 2 -16 -6 -55 -11 -87 -11 -33 0 -70 -5 -84 -11 -14 -7 -33 -8 -43 -4 -10
5 -54 10 -98 12 -122 5 -137 5 -180 -1 -22 -4 -49 -5 -60 -5 -11 1 -85 3 -165
5 -80 1 -215 5 -301 8 -133 5 -158 4 -169 -9 -11 -13 -15 -14 -29 -2 -9 8 -39
17 -68 20 -42 5 -57 2 -75 -13 -22 -17 -25 -17 -51 -2 -23 14 -31 14 -48 4
-16 -10 -46 -12 -118 -7 -82 6 -99 5 -110 -9 -16 -19 -42 -21 -59 -4 -7 7 -46
10 -114 8 -195 -5 -243 -5 -303 1 -33 3 -87 3 -120 -1 -56 -7 -106 -3 -249 20
-42 7 -64 6 -73 -1 -9 -8 -21 -8 -40 0 -16 6 -68 13 -118 16 -49 3 -108 9
-129 14 -26 7 -46 6 -59 -1 -12 -6 -89 -9 -201 -8 -314 5 -497 0 -664 -20 -50
-6 -151 -6 -260 -1 -97 5 -181 6 -185 4 -5 -3 -20 0 -33 7 -20 11 -27 11 -41
-3 -20 -17 -29 -17 -309 -14 -108 1 -176 6 -185 13 -9 8 -115 12 -329 14 -173
1 -385 3 -470 4 -87 0 -194 -5 -245 -13 -49 -7 -99 -13 -110 -13 -131 4 -312
-3 -422 -16 -46 -5 -105 -6 -132 -1 -72 11 -304 23 -396 20 -102 -3 -97 -3
-180 8 -38 5 -156 9 -262 9 -135 0 -198 4 -215 13 -24 13 -117 19 -124 8 -2
-4 -47 -7 -100 -7 -68 -1 -101 -5 -113 -15 -16 -15 -175 -32 -260 -28 -30 1
-50 -4 -63 -16 -16 -14 -23 -15 -53 -4 -19 7 -40 9 -47 5 -6 -4 -63 -6 -125
-5 -74 2 -119 -1 -128 -9 -10 -8 -24 -8 -50 -1 -27 7 -46 6 -77 -5 -56 -20
-91 -18 -122 7 -25 20 -28 20 -45 5 -10 -9 -31 -16 -48 -16 -17 0 -41 -9 -55
-19 -22 -18 -31 -19 -101 -9 -52 8 -85 8 -100 1 -14 -6 -70 -7 -152 -2 -71 4
-179 4 -238 -1 -100 -7 -306 2 -328 16 -13 8 -236 26 -289 24 -78 -4 -122 -3
-226 5 -72 6 -103 4 -108 -4 -4 -6 -18 -11 -32 -11 -14 0 -42 -9 -64 -20 -22
-11 -47 -20 -57 -20 -10 0 -33 -9 -51 -20 -25 -15 -37 -18 -52 -10 -21 11 -83
14 -93 3 -4 -3 -34 -8 -68 -10 -34 -1 -80 -11 -104 -22 -23 -10 -71 -22 -106
-26 -35 -4 -73 -14 -84 -21 -11 -8 -31 -14 -45 -14 -14 0 -31 -5 -38 -12 -7
-7 -29 -13 -50 -15 -58 -3 -155 -25 -177 -40 -11 -7 -38 -13 -62 -13 -23 0
-45 -4 -48 -10 -3 -5 -13 -10 -21 -10 -9 0 -37 -18 -63 -40 -26 -22 -53 -40
-60 -40 -6 0 -35 -22 -64 -50 -29 -27 -59 -50 -68 -50 -21 0 -49 -32 -49 -57
0 -11 -11 -30 -25 -43 -14 -13 -25 -28 -25 -33 0 -5 -20 -36 -45 -68 -25 -33
-45 -66 -45 -74 0 -7 -4 -17 -10 -20 -5 -3 -10 -15 -10 -25 0 -10 -11 -27 -25
-37 -25 -18 -37 -59 -50 -182 -2 -18 -8 -38 -14 -44 -6 -6 -11 -19 -11 -28 0
-9 -9 -23 -20 -30 -16 -11 -23 -32 -31 -104 -13 -110 -30 -194 -41 -201 -4 -3
-8 -27 -8 -54 0 -27 -4 -51 -9 -54 -4 -3 -11 -33 -15 -65 -4 -33 -11 -63 -16
-66 -6 -4 -10 -20 -10 -36 0 -17 -5 -40 -11 -51 -6 -11 -13 -84 -16 -161 -4
-101 -10 -148 -20 -164 -11 -16 -15 -49 -14 -113 0 -49 -3 -92 -8 -95 -5 -3
-9 -143 -9 -311 -1 -276 -2 -309 -19 -342 -21 -43 -22 -116 -3 -285 9 -73 10
-111 3 -118 -6 -6 -8 -46 -5 -100 3 -52 1 -94 -5 -101 -12 -15 -11 -418 1
-436 4 -7 5 -16 2 -21 -4 -5 1 -22 11 -38 16 -28 15 -32 -6 -76 -18 -37 -20
-50 -11 -67 7 -12 10 -45 8 -74 -2 -28 -1 -165 4 -305 7 -219 10 -257 25 -273
14 -16 15 -22 4 -39 -7 -13 -9 -25 -3 -32 5 -7 10 -63 11 -126 1 -81 6 -120
16 -135 18 -25 19 -58 4 -73 -9 -9 -9 -19 1 -42 6 -16 9 -34 6 -39 -3 -5 -1
-97 5 -203 6 -107 11 -207 10 -224 -1 -16 -3 -59 -4 -95 -2 -36 -4 -193 -4
-350 0 -157 -1 -301 -1 -320 0 -19 -1 -159 -2 -310 -3 -293 6 -569 21 -636 5
-24 4 -76 -1 -125 -5 -46 -16 -139 -24 -207 -11 -95 -12 -136 -4 -182 9 -45 9
-66 0 -82 -8 -16 -10 -66 -6 -163 9 -215 9 -288 0 -310 -9 -20 -19 -131 -17
-196 0 -21 -6 -69 -13 -108 -11 -59 -11 -77 0 -108 16 -46 18 -90 4 -98 -5 -3
-10 -36 -10 -73 -1 -37 -5 -87 -10 -112 -5 -29 -5 -49 2 -58 7 -7 8 -32 3 -65
-4 -28 -7 -70 -7 -92 1 -22 1 -112 2 -200 1 -143 11 -327 25 -440 4 -36 8
-112 19 -325 1 -36 6 -162 10 -280 4 -118 11 -258 16 -310 6 -65 6 -98 -2
-107 -16 -20 -23 -180 -8 -198 10 -12 10 -18 -1 -31 -11 -14 -14 -106 -16
-478 -1 -253 -4 -537 -7 -631 -4 -93 -6 -255 -6 -359 0 -158 2 -193 16 -214
12 -18 14 -30 6 -46 -18 -36 -21 -118 -7 -140 15 -24 16 -59 15 -429 0 -141 3
-265 8 -275 20 -38 42 -342 33 -467 -1 -22 -1 -132 1 -245 2 -132 -1 -228 -9
-270 -7 -36 -14 -139 -17 -230 -2 -91 -9 -178 -15 -193 -8 -21 -8 -35 3 -55 7
-15 16 -74 19 -132 6 -89 4 -107 -10 -122 -15 -17 -16 -28 -6 -95 8 -58 8 -93
-2 -152 -7 -42 -18 -139 -25 -216 -6 -77 -16 -150 -21 -162 -5 -13 -5 -33 0
-46 5 -14 4 -51 -5 -97 -7 -41 -13 -94 -13 -117 -1 -23 -11 -68 -23 -100 -20
-52 -22 -78 -24 -253 -1 -211 -19 -464 -35 -493 -5 -10 -7 -22 -4 -26 2 -5 7
-87 10 -182 6 -176 4 -190 -35 -261 -13 -23 -13 -115 0 -123 6 -3 10 -17 10
-30 0 -17 12 -30 46 -49 26 -14 54 -26 64 -26 29 0 50 -35 56 -91 3 -30 14
-75 25 -101 13 -32 19 -71 19 -124 0 -61 4 -82 18 -98 10 -12 24 -49 31 -83
10 -54 10 -66 -4 -87 -16 -23 -15 -26 19 -71 20 -26 49 -60 65 -76 16 -16 31
-42 33 -57 2 -22 9 -28 38 -32 31 -4 36 -9 40 -39 5 -33 8 -35 60 -45 30 -6
66 -19 80 -29 13 -9 34 -17 47 -17 12 0 25 -5 28 -10 3 -6 15 -10 25 -10 10 0
32 -11 48 -25 17 -14 37 -25 45 -25 9 0 19 -5 22 -11 5 -7 15 -5 30 5 29 19
65 14 305 -45 53 -14 132 -23 210 -26 69 -3 129 -9 135 -14 14 -14 78 -11 116
5 26 11 88 13 318 9 267 -5 416 0 851 29 91 6 179 10 195 10 92 0 380 22 440
33 133 27 217 33 505 39 177 4 323 16 460 36 41 6 88 9 103 6 16 -3 47 -2 70
3 23 5 69 15 102 21 90 17 149 32 160 40 6 4 35 4 65 0 30 -4 58 -6 62 -3 4 2
98 5 208 7 110 2 203 6 207 10 3 3 14 -1 24 -10 14 -13 21 -14 41 -3 14 8 75
14 158 16 74 2 155 9 180 16 47 14 132 15 188 2 23 -5 44 -1 76 14 39 20 56
21 187 17 212 -7 461 -17 484 -19 32 -3 229 25 240 34 6 4 50 8 97 8 48 -1 92
2 97 6 6 3 25 -2 42 -11 26 -13 39 -14 69 -5 46 13 145 14 169 2 12 -7 38 -5
77 4 32 7 165 18 294 25 129 6 246 15 260 20 55 19 654 54 863 51 43 -1 83 2
90 6 14 9 42 10 392 17 143 3 280 7 305 9 25 2 53 0 63 -5 11 -6 82 -3 185 7
92 10 205 19 252 20 115 5 328 23 420 35 41 6 91 7 110 4 62 -11 122 -13 145
-4 12 4 71 4 130 0 69 -6 113 -6 121 1 6 5 19 7 28 3 9 -3 23 -1 30 6 13 10
215 13 516 9 14 -1 61 5 105 11 44 7 98 14 120 16 22 2 56 7 75 10 19 3 107 1
195 -4 88 -5 164 -7 169 -4 5 3 45 7 90 9 45 1 169 8 276 14 107 5 218 11 247
12 28 1 54 5 58 9 4 4 20 5 35 1 18 -3 37 1 51 11 27 18 96 21 153 5 33 -9 41
-8 60 8 19 17 33 18 156 13 100 -5 140 -3 155 6 15 10 85 12 272 11 235 -1
253 0 273 18 18 16 24 17 41 7 10 -7 30 -10 44 -6 14 3 33 3 42 -2 10 -4 76
-6 147 -5 99 1 145 7 192 22 49 16 67 18 83 9 18 -9 29 -4 73 31 50 39 54 45
63 102 10 60 11 62 47 70 61 14 69 32 72 149 2 56 -1 108 -6 115 -7 8 -4 23 6
44 9 18 16 42 16 54 0 12 9 30 20 40 23 21 36 61 45 140 5 42 14 68 32 89 28
33 73 119 73 139 0 7 11 24 25 37 14 13 25 31 25 41 0 9 7 23 16 30 20 16 88
118 115 171 24 47 141 168 162 168 23 0 37 31 39 91 2 48 5 54 36 72 27 16 32
24 27 46 -9 44 -24 289 -18 309 2 11 -3 34 -12 51 -8 17 -13 36 -10 42 4 5 -1
22 -10 36 -13 20 -16 41 -13 92 3 37 0 74 -6 83 -8 13 -6 26 6 50 12 23 19 69
22 153 13 286 27 464 37 471 5 3 9 16 9 30 0 14 5 35 11 47 9 15 13 151 15
451 2 355 0 437 -12 465 -8 20 -12 47 -8 66 3 18 1 50 -5 71 -13 45 -26 388
-15 405 12 20 12 233 0 248 -7 9 -12 103 -14 275 -2 170 -7 269 -14 284 -9 17
-8 28 2 46 7 15 10 39 6 63 -3 21 -8 79 -11 128 -3 50 -9 115 -14 145 -32 180
-36 315 -12 344 13 15 12 21 -3 46 -14 25 -15 38 -6 94 12 78 5 641 -10 695
-9 37 -6 197 8 381 7 92 5 110 -11 144 -17 35 -18 47 -7 120 6 45 16 104 21
131 13 59 12 40 4 750 -3 308 -5 583 -4 610 4 82 2 126 -11 210 -14 98 -15
163 -6 630 9 411 14 553 22 635 7 66 9 144 6 225 -2 33 -3 87 -2 120 1 108 -9
385 -14 393 -2 4 -6 73 -7 152 -1 98 -6 154 -15 172 -10 19 -11 34 -4 53 12
31 4 188 -17 335 -19 134 -22 170 -26 310 -1 65 -8 125 -15 137 -15 27 -15 68
-2 94 12 22 17 430 5 449 -4 6 -11 125 -16 263 -5 139 -15 290 -22 336 -8 49
-11 100 -6 124 4 23 3 52 -2 66 -6 13 -9 46 -8 72 2 32 -3 54 -13 66 -27 31
-40 321 -16 351 8 9 6 17 -6 30 -18 21 -23 117 -5 127 20 13 -9 274 -37 328
-17 35 -19 198 -2 215 13 13 22 199 17 357 -4 150 -3 184 11 255 6 36 15 117
19 180 4 63 10 123 15 132 5 11 1 28 -10 46 -16 29 -16 31 3 58 19 27 20 41
16 254 -10 480 -4 753 18 825 14 49 28 199 19 210 -12 15 -11 209 2 285 12 72
23 494 18 643 -3 56 8 144 25 202 9 31 14 62 12 69 -8 21 -114 76 -145 76 -35
0 -55 21 -75 80 l-15 44 -53 1 c-30 1 -65 -5 -79 -12z m-45 -198 c41 -1 71 -8
94 -23 22 -13 44 -19 61 -16 24 5 27 3 27 -28 5 -265 2 -442 -8 -454 -9 -11
-8 -18 1 -29 10 -12 11 -60 5 -223 -12 -299 -17 -375 -45 -682 -12 -131 -13
-317 -2 -393 4 -32 5 -90 0 -129 -4 -39 -5 -75 -2 -80 3 -5 1 -15 -5 -22 -7
-9 -7 -24 0 -51 6 -21 8 -55 4 -74 -4 -20 -9 -72 -10 -116 -2 -44 -8 -147 -14
-230 -6 -82 -11 -166 -10 -185 1 -19 1 -47 0 -62 -1 -37 -1 -73 0 -100 0 -13
-4 -79 -11 -148 -41 -457 -40 -884 2 -937 5 -7 9 -43 8 -80 -1 -37 -1 -70 0
-73 1 -3 4 -75 6 -160 3 -85 8 -170 13 -187 5 -18 6 -59 1 -90 -5 -39 -4 -63
3 -72 9 -11 23 -129 27 -236 1 -10 5 -24 10 -30 5 -6 11 -46 14 -90 4 -44 10
-110 14 -147 4 -37 4 -120 0 -185 -6 -98 -5 -121 8 -141 12 -18 13 -30 5 -55
-7 -20 -9 -121 -6 -270 3 -191 7 -243 19 -262 12 -19 14 -50 11 -174 -4 -110
-1 -161 8 -190 11 -30 12 -51 3 -90 -8 -40 -7 -57 2 -72 9 -14 14 -91 18 -247
2 -125 10 -279 16 -342 16 -172 21 -397 18 -862 0 -16 0 -36 0 -45 1 -10 -1
-54 -5 -98 -7 -97 -12 -297 -18 -665 -3 -217 -1 -282 10 -308 10 -23 11 -38 3
-52 -5 -10 -10 -41 -10 -68 0 -26 -5 -73 -10 -103 -7 -37 -7 -81 1 -139 6 -47
12 -116 14 -155 2 -38 9 -173 15 -300 9 -165 9 -267 1 -359 -6 -83 -7 -136 0
-147 5 -10 7 -49 4 -86 -3 -37 -7 -127 -8 -198 -2 -72 -6 -135 -9 -140 -3 -6
-2 -68 3 -139 7 -88 7 -145 -1 -179 -7 -35 -7 -53 0 -63 6 -7 13 -68 15 -135
4 -103 2 -126 -12 -141 -9 -10 -15 -30 -14 -45 15 -299 16 -412 5 -568 -12
-178 -10 -271 6 -290 11 -13 11 -20 0 -40 -10 -19 -10 -39 -1 -102 7 -43 13
-105 15 -138 1 -33 5 -66 10 -73 4 -7 12 -68 17 -135 14 -172 14 -173 9 -367
0 -19 4 -116 10 -215 22 -370 28 -570 19 -581 -6 -7 -6 -45 0 -100 12 -114 12
-819 0 -860 -6 -18 -6 -56 0 -95 7 -53 6 -67 -7 -81 -8 -10 -21 -18 -29 -18
-16 0 -17 -12 0 -28 17 -18 18 -99 1 -150 -8 -23 -14 -66 -14 -95 0 -29 -5
-70 -10 -92 -5 -22 -13 -83 -16 -135 -6 -89 -5 -96 15 -114 23 -21 27 -46 9
-64 -15 -15 -28 -248 -18 -328 4 -34 13 -71 19 -83 7 -12 10 -25 7 -29 -3 -5
0 -27 6 -49 8 -32 7 -48 -6 -74 -12 -27 -14 -51 -7 -119 9 -95 5 -105 -46
-127 -18 -7 -33 -20 -33 -28 0 -7 -18 -34 -39 -59 -22 -25 -49 -67 -61 -93
-48 -102 -56 -116 -87 -148 -18 -19 -33 -42 -33 -53 0 -10 -15 -33 -33 -50
-32 -31 -34 -32 -50 -14 -16 17 -20 172 -15 607 2 161 -11 664 -16 677 -5 10
0 52 10 95 18 76 23 235 14 428 -1 39 2 101 7 138 6 42 6 109 1 175 -11 126
-19 255 -19 296 0 16 -4 35 -10 43 -6 7 -8 21 -4 30 8 18 11 50 19 233 2 58
10 128 16 155 10 42 21 172 20 225 -3 121 -1 227 4 277 4 38 3 70 -3 82 -7 12
-7 29 -2 48 9 27 35 357 32 398 -1 11 -2 40 -1 65 0 24 -6 92 -14 150 -11 71
-15 166 -13 293 2 105 -1 191 -6 194 -5 3 -6 27 -3 52 4 27 1 62 -5 81 -9 25
-9 44 0 81 7 27 9 54 5 61 -9 14 -12 218 -3 224 3 2 7 43 9 91 5 170 8 228 15
276 4 26 2 77 -5 114 -10 62 -10 68 10 95 16 22 19 36 14 66 -4 20 -10 44 -15
52 -4 9 -3 37 3 64 7 34 7 51 -1 59 -6 6 -11 47 -11 94 0 52 -6 97 -15 120
-14 32 -14 41 -1 67 10 24 13 63 10 166 -6 175 -8 197 -17 206 -11 12 -8 53 7
82 11 21 12 47 5 122 -5 52 -11 188 -13 303 -2 114 -6 210 -10 214 -11 12 -6
56 8 72 18 20 20 80 6 236 -5 66 -12 167 -15 223 -3 57 -8 109 -12 115 -4 6
-8 44 -8 84 -1 43 -7 78 -15 88 -10 12 -10 21 -1 41 6 14 11 50 11 80 0 30 4
63 10 73 7 14 5 23 -8 34 -15 14 -17 34 -15 152 1 87 6 142 14 151 9 11 8 21
-4 46 -10 21 -14 54 -13 88 2 30 -3 75 -10 99 -11 38 -11 48 3 75 12 23 16 57
15 131 0 55 -1 176 -1 269 0 134 -3 172 -15 185 -8 9 -15 32 -16 51 0 19 -1
53 -1 75 0 22 5 87 12 145 11 96 13 144 10 240 -1 19 1 61 5 93 3 32 2 63 -4
70 -5 7 -6 44 -1 92 6 65 5 84 -8 104 -12 18 -14 38 -8 86 4 45 3 69 -7 84
-11 17 -10 25 1 44 11 16 16 71 18 222 8 432 6 568 -11 680 -10 61 -17 137
-16 170 1 33 0 74 -1 90 -1 17 -1 46 0 65 6 178 4 300 -6 331 -6 19 -12 71
-13 115 -3 151 -9 269 -17 369 -7 73 -6 114 4 153 16 66 17 184 1 200 -9 9 -9
17 1 35 7 12 11 43 10 67 -1 25 2 85 6 133 6 76 4 91 -10 107 -14 15 -17 37
-14 117 1 54 -1 105 -4 113 -3 8 -8 40 -10 70 -3 30 -10 78 -17 105 -14 56
-15 105 -8 248 3 54 1 100 -3 103 -5 3 -9 29 -9 57 0 55 -17 114 -39 141 -12
14 -12 21 -1 44 9 18 14 91 16 228 2 111 6 208 10 217 3 9 1 40 -5 69 -6 29
-9 89 -7 133 3 56 0 85 -9 95 -13 15 -12 32 15 185 22 129 28 190 20 205 -10
18 -2 137 11 161 13 26 -12 140 -39 177 -21 28 -23 36 -13 55 6 12 10 33 9 47
-3 24 -1 25 43 22 l47 -3 7 56 c5 43 3 62 -9 80 -9 13 -16 33 -16 43 0 11 -6
25 -14 31 -22 18 -26 140 -7 220 9 38 20 73 24 77 4 4 7 14 7 23 1 9 9 34 20
56 11 22 19 50 20 61 0 23 77 99 128 126 17 9 45 39 62 66 17 28 37 53 45 56
31 11 14 123 -20 136 -13 5 -26 14 -30 19 -3 6 -19 11 -35 11 -39 0 -94 -50
-126 -112 -14 -27 -36 -54 -50 -60 -32 -15 -138 -153 -152 -198 -5 -19 -17
-60 -26 -90 -8 -30 -22 -77 -30 -105 -8 -27 -18 -72 -22 -100 -3 -27 -11 -58
-16 -68 -6 -11 -3 -33 7 -62 8 -25 15 -59 15 -76 0 -16 11 -47 25 -67 27 -40
32 -71 13 -90 -18 -18 -33 -15 -65 12 -26 22 -32 23 -88 14 -33 -5 -86 -7
-117 -4 -37 4 -60 2 -64 -5 -4 -8 -27 -9 -64 -6 -38 4 -61 2 -69 -6 -9 -9 -16
-8 -34 2 -15 10 -71 16 -189 19 -145 4 -172 2 -204 -13 -33 -15 -55 -17 -179
-10 -78 3 -189 8 -246 10 -57 2 -135 7 -174 11 -87 9 -90 9 -430 0 -479 -11
-545 -14 -730 -30 -195 -17 -359 -15 -395 4 -17 9 -57 10 -147 5 -104 -6 -127
-5 -148 9 -14 9 -44 16 -72 15 -26 0 -65 2 -86 6 -27 5 -44 3 -62 -9 -15 -10
-46 -16 -82 -16 -35 0 -70 -7 -88 -16 -36 -20 -161 -24 -217 -7 -26 7 -75 8
-170 0 -91 -7 -176 -7 -273 0 -77 6 -161 8 -186 6 -26 -3 -57 0 -69 7 -17 9
-26 8 -47 -5 -18 -12 -28 -14 -36 -6 -14 14 -54 14 -63 0 -3 -6 -16 -8 -28 -4
-11 3 -91 8 -176 11 -85 2 -177 9 -203 14 -28 6 -55 6 -65 1 -9 -4 -57 -7
-107 -4 -202 8 -471 3 -492 -10 -6 -4 -24 -2 -39 3 -71 27 -589 32 -714 7
-137 -28 -233 -36 -251 -21 -20 18 -27 17 -64 -2 -22 -11 -54 -15 -115 -13
-47 1 -105 -3 -129 -10 -34 -9 -51 -9 -72 -1 -19 8 -33 9 -46 1 -11 -5 -66
-13 -124 -16 -57 -4 -115 -11 -129 -16 -14 -4 -97 -11 -185 -15 -428 -16 -542
-23 -570 -33 -18 -6 -176 -13 -410 -16 -209 -3 -391 -6 -405 -7 -52 -2 -247
13 -284 23 -32 9 -183 21 -266 22 -14 0 -99 -3 -190 -7 -91 -5 -185 -9 -210
-10 -25 0 -50 -4 -57 -9 -6 -4 -53 0 -105 9 -148 26 -293 24 -535 -10 -82 -11
-121 -13 -140 -5 -36 13 -163 19 -185 8 -25 -14 -786 -19 -831 -7 -33 10 -40
9 -60 -10 -16 -15 -36 -22 -64 -22 -23 0 -54 -5 -70 -11 -40 -15 -227 -29
-460 -34 -136 -3 -208 -8 -222 -17 -16 -10 -25 -9 -53 6 -28 15 -43 16 -103 8
-53 -8 -75 -7 -90 3 -15 9 -73 12 -210 12 -132 0 -231 5 -323 18 -105 15 -140
16 -164 7 -34 -13 -121 0 -147 21 -9 7 -33 19 -55 26 -53 18 -166 90 -166 107
0 7 -8 28 -19 46 -10 18 -24 62 -31 98 l-12 64 28 23 c26 21 59 107 48 125 -3
5 6 23 19 40 14 18 28 43 32 56 3 12 15 27 26 32 11 6 19 21 19 35 0 14 8 29
20 35 11 6 20 20 20 31 0 20 120 149 138 149 6 0 37 20 71 45 46 34 69 44 92
43 26 -3 35 2 49 27 14 25 23 30 53 30 20 0 41 6 48 13 7 6 27 12 45 12 17 0
37 7 44 15 7 9 29 15 55 15 24 0 48 6 54 14 7 8 33 17 59 19 26 3 114 13 196
22 82 9 160 22 175 29 14 8 48 17 74 21 27 4 51 13 53 20 3 7 28 17 57 23 163
34 240 39 310 19 23 -7 76 -11 117 -10 134 6 212 4 224 -5 34 -27 107 -34 238
-24 144 11 215 9 293 -9 63 -14 103 -14 185 1 36 6 142 12 235 14 94 1 177 5
185 9 8 3 69 8 135 11 66 3 201 9 300 14 99 4 187 12 195 17 8 6 24 11 35 11
11 1 47 7 80 14 93 18 192 27 285 24 319 -8 430 -15 496 -29 60 -14 81 -15
121 -5 26 7 97 17 156 23 97 9 112 8 145 -8 31 -15 62 -17 202 -16 91 1 169 6
174 11 15 15 446 13 500 -2 39 -10 51 -9 117 15 62 23 90 27 177 27 57 0 113
-5 124 -11 35 -19 136 -20 207 -3 50 12 113 16 256 15 169 -1 193 -4 223 -21
28 -17 44 -19 105 -14 40 3 86 10 103 15 16 5 79 10 140 10 60 1 132 5 159 9
31 5 58 4 70 -3 11 -6 54 -12 95 -13 41 -2 132 -8 201 -14 99 -9 135 -9 170 1
24 7 64 14 89 15 25 2 132 9 238 17 199 14 232 13 267 -9 33 -20 104 -28 131
-14 18 10 36 10 81 1 39 -7 75 -8 108 -2 35 6 62 5 94 -4 101 -30 159 -37 237
-31 43 3 84 6 89 6 6 0 37 -4 70 -10 68 -13 254 -7 365 10 126 20 466 14 509
-9 28 -15 101 -13 211 5 102 17 229 19 405 7 61 -4 179 -5 264 -1 124 5 163 4
199 -8 27 -10 55 -13 75 -8 18 4 93 8 167 10 210 3 382 14 417 25 18 6 42 8
52 4 11 -3 38 -1 61 5 63 17 378 20 417 4 33 -13 410 -23 429 -11 5 3 65 1
133 -4 104 -7 128 -6 153 7 21 11 44 14 77 10 77 -10 443 -8 491 3 25 5 63 15
85 21 89 25 279 51 310 42 11 -3 47 -6 80 -7z m-2017 -1377 c12 1 33 2 47 2
14 0 34 0 45 0 11 1 32 1 48 1 47 0 119 -8 130 -15 12 -7 286 -18 417 -16 44
0 109 5 144 11 93 14 195 16 222 2 47 -22 65 -26 131 -28 37 -1 73 -7 81 -13
14 -12 22 -11 65 4 9 4 45 7 79 8 55 1 63 -1 65 -19 2 -13 13 -22 33 -25 l29
-5 3 -90 c1 -50 4 -130 7 -180 2 -50 0 -95 -6 -102 -6 -8 -6 -77 1 -197 6
-120 7 -228 1 -303 -18 -225 -16 -442 4 -493 3 -8 8 -69 11 -135 2 -66 13
-203 24 -305 11 -102 20 -223 20 -270 0 -116 1 -122 18 -230 16 -102 26 -498
13 -515 -12 -16 -42 -310 -35 -342 4 -15 13 -48 21 -73 22 -71 39 -370 30
-550 -2 -52 0 -173 6 -269 17 -317 20 -384 25 -611 7 -342 11 -458 18 -540 8
-77 9 -145 4 -215 -1 -22 -6 -107 -11 -190 -4 -82 -12 -199 -17 -260 -5 -67
-5 -134 1 -170 13 -78 20 -230 19 -415 0 -47 4 -123 10 -169 7 -58 7 -87 -1
-95 -13 -13 -13 -319 0 -366 12 -41 23 -376 18 -530 -6 -193 4 -599 18 -705 2
-23 -2 -58 -9 -80 -12 -34 -12 -56 -1 -140 23 -178 41 -964 24 -1069 -5 -34
-6 -65 0 -75 4 -9 12 -111 15 -226 6 -177 5 -226 -10 -310 -9 -55 -18 -149
-19 -210 -2 -171 11 -602 19 -615 4 -6 9 -114 12 -238 6 -265 6 -217 0 -417
-3 -130 -1 -163 11 -177 9 -11 12 -23 6 -35 -5 -10 -9 -34 -10 -53 -1 -19 -7
-80 -12 -135 -6 -55 -15 -154 -22 -220 -6 -66 -15 -135 -20 -154 -7 -25 -5
-41 7 -64 12 -24 13 -35 4 -49 -8 -13 -9 -30 -2 -56 9 -38 8 -107 -3 -202 -3
-30 -10 -148 -15 -262 -5 -114 -14 -215 -19 -225 -7 -12 -6 -26 5 -46 11 -22
12 -42 6 -90 -12 -86 -7 -470 7 -602 16 -141 16 -152 2 -325 -10 -122 -35
-660 -34 -740 0 -45 21 -324 28 -380 12 -92 19 -979 8 -1057 -4 -37 -9 -43
-29 -43 -13 0 -26 -4 -29 -9 -3 -5 -31 -21 -62 -36 -44 -21 -69 -27 -110 -26
-30 1 -65 2 -79 1 -51 -3 -163 -2 -254 2 -93 3 -93 3 -107 -25 -16 -31 -26
-33 -44 -12 -11 14 -15 14 -29 1 -19 -17 -131 -15 -216 4 -68 15 -180 15 -235
1 -25 -7 -105 -15 -179 -17 -89 -4 -141 -10 -155 -19 -14 -9 -70 -16 -161 -20
-77 -4 -154 -11 -170 -16 -17 -5 -71 -11 -120 -13 -50 -2 -103 -9 -118 -15
-16 -6 -45 -8 -65 -5 -20 3 -71 1 -112 -5 -41 -5 -79 -6 -85 -2 -5 5 -66 6
-135 4 -69 -2 -174 -6 -235 -8 -60 -2 -135 -6 -165 -9 -30 -3 -130 -7 -222 -9
-92 -2 -171 -6 -174 -10 -12 -11 -67 -8 -147 8 -61 13 -90 14 -168 5 -52 -6
-175 -11 -274 -10 -111 1 -197 -3 -224 -10 -36 -9 -46 -9 -60 4 -21 19 -43 20
-58 5 -6 -6 -56 -15 -111 -19 -55 -4 -105 -11 -112 -15 -6 -4 -69 -9 -138 -10
-204 -6 -373 -23 -392 -40 -22 -20 -47 -19 -59 2 -7 13 -12 14 -23 6 -8 -7
-92 -11 -248 -10 -270 0 -512 -9 -555 -22 -17 -4 -66 -6 -110 -4 -44 3 -147
-1 -230 -7 -82 -7 -172 -14 -200 -16 -50 -4 -128 -7 -550 -25 -121 -5 -228
-14 -237 -19 -10 -6 -68 -10 -128 -10 -61 0 -131 -5 -156 -11 -30 -8 -48 -8
-57 -1 -14 12 -167 19 -184 9 -6 -4 -74 -9 -150 -11 -76 -3 -176 -9 -223 -15
-47 -6 -107 -9 -135 -9 -27 1 -64 -4 -81 -12 -26 -11 -35 -11 -61 2 -25 12
-40 13 -82 4 -38 -7 -57 -7 -70 1 -22 14 -188 15 -213 2 -10 -5 -89 -12 -175
-14 -87 -3 -180 -10 -208 -15 -27 -5 -135 -10 -240 -9 -314 1 -597 -8 -640
-19 -22 -6 -71 -16 -110 -22 -38 -6 -79 -15 -90 -20 -11 -5 -96 -14 -190 -20
-211 -13 -194 -12 -295 -7 -81 4 -352 -17 -372 -29 -5 -3 -67 -10 -136 -16
-70 -5 -158 -13 -197 -19 -38 -5 -80 -9 -92 -9 -13 0 -31 0 -40 0 -70 0 -200
-11 -227 -20 -24 -8 -41 -8 -62 0 -20 8 -60 8 -134 2 -58 -6 -123 -10 -145
-11 -62 -1 -103 -5 -109 -12 -7 -6 -877 -2 -1106 6 -222 8 -280 12 -293 23 -7
5 -57 12 -112 16 -55 4 -104 11 -109 16 -6 6 -20 10 -33 10 -33 0 -122 38
-156 66 -24 21 -37 24 -64 19 -38 -7 -70 14 -159 100 -40 39 -53 59 -57 90
-14 99 -39 213 -53 243 -11 24 -13 50 -8 100 5 56 3 70 -10 81 -9 7 -16 19
-16 27 0 7 -8 18 -19 23 -11 7 -20 26 -24 51 -3 23 -13 50 -22 60 -14 16 -16
31 -10 89 10 98 -10 207 -42 228 -19 13 -23 24 -23 64 0 26 -4 50 -9 53 -28
18 -16 182 16 218 12 13 13 21 5 31 -8 10 -7 37 4 103 9 49 17 130 20 179 2
50 4 110 5 135 1 25 1 72 -1 105 -1 33 5 128 13 210 30 292 30 294 18 309 -9
11 -8 24 3 57 10 28 12 48 5 60 -12 23 -12 72 1 85 14 14 35 186 35 294 1 52
6 106 12 120 7 17 9 91 5 225 -9 278 -4 372 27 550 6 33 8 78 5 101 -3 22 -1
58 5 79 9 32 8 42 -6 57 -14 16 -16 49 -16 250 0 128 -3 239 -7 248 -18 34
-23 59 -26 150 -3 52 -7 113 -9 135 -7 56 -7 57 0 185 11 181 12 536 2 635
-20 215 -24 375 -17 705 6 310 3 410 -15 430 -14 15 -15 22 -4 42 9 15 13 73
14 178 1 85 7 205 14 265 9 75 11 178 7 325 -9 348 -13 445 -15 450 -10 17
-14 109 -12 276 1 116 -3 202 -9 219 -6 16 -13 85 -16 154 -7 188 -13 293 -22
426 -5 66 -6 125 -1 130 4 6 10 112 12 235 3 124 8 259 11 300 3 41 8 102 10
135 2 33 8 101 15 150 7 52 9 142 6 215 -10 220 -11 331 -5 335 4 2 7 32 8 67
1 35 7 96 12 135 17 113 25 483 11 512 -24 47 -31 95 -26 179 4 64 2 98 -7
112 -10 15 -10 22 0 32 6 6 12 28 12 48 0 20 4 40 9 45 5 6 5 41 -1 84 -7 53
-7 84 1 110 8 22 10 66 6 116 -3 44 -6 89 -5 100 8 225 5 476 -6 509 -8 24 -9
46 -4 56 10 18 6 371 -5 467 -5 43 -4 67 4 77 6 7 9 20 6 27 -2 8 -7 46 -9 84
-10 137 -25 313 -32 353 -4 27 -2 47 6 57 7 8 8 19 3 27 -4 7 -9 47 -10 88 -5
195 -4 266 2 283 4 9 3 23 -3 30 -11 13 -27 271 -24 382 1 39 -3 82 -9 98 -8
18 -8 31 -2 40 6 7 7 47 1 107 -6 63 -5 103 2 118 5 13 10 61 10 107 0 46 3
86 7 88 6 4 7 414 1 502 0 11 9 79 22 150 12 72 22 137 21 145 -8 71 -7 439 2
455 6 11 11 47 12 80 1 33 4 67 8 75 3 8 11 83 17 165 6 83 16 164 21 182 13
41 16 123 5 145 -5 12 -2 20 14 28 22 12 81 -2 157 -36 17 -8 38 -14 46 -14 7
0 32 -13 54 -29 35 -26 47 -28 104 -26 38 2 77 -3 98 -11 18 -8 44 -11 57 -8
13 3 72 0 131 -6 59 -7 146 -14 193 -16 114 -5 382 -4 390 1 4 3 63 0 131 -6
190 -16 270 -17 314 -6 47 13 127 18 240 17 44 0 123 4 175 11 52 6 126 13
165 15 38 1 78 7 90 13 42 21 396 32 495 16 36 -6 49 -4 59 9 11 13 35 16 123
16 60 0 118 -5 130 -11 14 -8 28 -7 49 1 22 9 36 10 56 1 51 -20 152 -24 178
-7 39 26 232 44 431 42 155 -2 186 -5 209 -20 23 -15 31 -16 58 -5 18 8 75 13
138 13 59 1 110 3 112 6 5 5 63 4 367 -4 69 -1 125 -8 139 -16 20 -10 34 -10
77 0 35 9 77 10 126 5 40 -4 103 -6 139 -5 61 1 68 -1 88 -26 l21 -27 23 21
c18 17 35 22 73 22 27 -1 83 1 124 4 41 2 87 0 103 -6 20 -8 31 -7 42 2 15 13
73 15 212 10 69 -3 86 0 103 15 14 12 29 16 52 13 18 -3 60 -1 93 3 33 5 121
11 195 14 74 3 203 13 285 21 83 8 200 13 262 11 73 -2 116 0 123 7 7 7 73 11
183 12 111 0 188 5 217 14 46 13 79 15 352 23 86 3 162 9 169 13 19 11 373 6
405 -6 16 -6 31 -7 38 -1 6 5 56 7 111 5 333 -11 490 -12 507 -3 13 7 42 7 91
-1 62 -9 147 -12 317 -10 19 1 64 1 99 1 36 0 71 5 78 11 10 8 21 8 40 -1 14
-6 72 -12 129 -12 57 -1 107 -5 110 -11 4 -5 31 -7 69 -3 40 5 70 3 84 -4 12
-7 27 -9 34 -4 6 4 57 8 112 9 101 3 333 12 435 17 30 2 62 6 70 9 39 16 76
17 167 7 129 -15 265 -18 280 -6 8 5 38 5 80 -2 90 -14 140 -15 383 -2 113 6
241 11 285 10 44 0 140 2 213 6 95 5 137 3 147 -5 10 -9 19 -9 36 0 14 8 42
10 73 6 29 -3 57 -1 66 5 10 6 48 8 105 3 50 -4 100 -6 113 -6z m2492 -14038
c0 -5 -4 -10 -9 -10 -6 0 -13 5 -16 10 -3 6 1 10 9 10 9 0 16 -4 16 -10z"/>
<path d="M5845 19118 c-38 -5 -74 -13 -78 -18 -5 -4 -27 -5 -48 -3 -22 3 -50
1 -62 -5 -34 -16 -204 -32 -395 -36 -115 -3 -178 -9 -188 -17 -9 -8 -33 -9
-73 -5 -32 4 -69 2 -82 -3 -14 -5 -55 -6 -94 -1 -39 4 -74 5 -79 2 -4 -2 -83
-3 -175 -2 -197 4 -194 4 -297 -5 -48 -5 -88 -4 -98 2 -13 7 -28 5 -54 -8 -25
-12 -59 -18 -102 -17 -208 2 -313 5 -373 12 -40 5 -73 4 -80 -2 -16 -12 -50
-22 -117 -34 -65 -11 -82 -12 -220 -9 -170 4 -302 -4 -336 -22 -23 -12 -58
-16 -132 -15 -55 0 -105 -2 -110 -6 -6 -3 -32 -1 -59 5 -26 6 -76 12 -111 14
l-62 4 -19 -37 c-11 -21 -20 -65 -22 -101 -4 -64 -4 -65 31 -89 29 -20 43 -23
81 -18 35 5 49 3 59 -9 18 -22 28 -18 32 12 l3 28 200 0 c157 1 205 4 225 15
19 12 63 15 190 15 91 0 171 4 178 8 7 5 61 13 120 18 59 5 117 11 130 14 12
3 114 8 225 11 111 3 254 9 317 14 179 15 331 20 645 25 444 6 594 12 608 23
19 16 339 33 355 20 9 -8 19 -8 35 0 55 26 254 19 301 -11 23 -15 143 -12 160
4 5 4 11 42 13 84 3 71 2 79 -23 108 -27 32 -27 32 -133 34 -58 1 -131 4 -161
7 -30 2 -86 0 -125 -6z"/>
<path d="M10840 19081 c-26 -17 -106 -23 -397 -28 -330 -5 -360 -7 -391 -17
-14 -5 -42 -1 -72 9 -27 9 -54 13 -60 10 -6 -4 -106 -6 -222 -6 -196 1 -319
-9 -360 -30 -10 -6 -27 -5 -42 2 -20 9 -30 9 -48 -3 -18 -12 -36 -13 -83 -6
-139 19 -167 21 -190 8 -19 -10 -30 -10 -54 -1 -23 10 -41 10 -85 0 -52 -11
-58 -11 -79 7 -19 17 -33 19 -97 16 -67 -4 -142 -4 -377 -1 -59 1 -76 -3 -102
-22 -27 -20 -31 -29 -31 -70 0 -36 6 -55 26 -78 14 -17 32 -31 39 -31 7 0 27
-12 45 -26 30 -26 31 -26 51 -8 19 17 37 19 168 17 166 -3 312 -4 389 -3 28 0
61 -4 71 -10 24 -13 185 -13 229 -1 28 8 116 11 267 9 122 -2 553 13 630 22
50 5 97 9 105 9 8 0 110 -2 225 -3 116 -2 235 -6 265 -10 66 -7 371 13 384 25
14 13 50 11 64 -3 7 -7 58 -11 154 -10 79 0 147 -3 153 -7 29 -23 59 -19 92 9
34 30 61 37 79 21 16 -16 217 -31 257 -20 21 5 41 8 46 4 11 -6 230 -6 361 0
231 12 801 6 848 -9 12 -4 27 -4 33 -1 18 12 181 15 202 4 13 -8 22 -8 30 0
13 13 114 15 122 2 3 -6 61 -8 143 -4 75 3 160 4 187 3 28 -2 106 -3 175 -2
69 1 166 2 215 2 50 1 124 -4 165 -10 41 -5 122 -14 178 -18 l104 -8 30 34
c20 24 28 41 24 56 -3 11 -6 36 -6 54 0 78 -112 123 -164 68 -24 -26 -48 -25
-121 4 -17 6 -47 9 -68 6 -22 -4 -66 -2 -100 4 -50 10 -67 9 -102 -5 -32 -12
-49 -13 -69 -5 -18 6 -42 7 -69 1 -29 -7 -45 -6 -56 2 -18 16 -147 19 -188 4
-24 -8 -41 -7 -73 3 -34 11 -46 11 -62 1 -16 -10 -24 -10 -41 2 -29 19 -269
16 -310 -4 -24 -11 -32 -10 -57 4 -36 22 -103 22 -136 0 -24 -15 -29 -15 -72
0 -37 12 -88 16 -232 15 -111 0 -194 -4 -207 -11 -17 -7 -30 -7 -48 1 -14 7
-70 12 -123 12 -61 0 -102 4 -110 12 -8 8 -15 8 -25 -1 -9 -7 -43 -11 -83 -10
-38 1 -107 -2 -154 -6 -114 -10 -351 -6 -630 11 -103 6 -104 6 -170 -2 -45 -6
-201 -6 -293 -1 -26 2 -53 9 -59 15 -14 14 -18 15 -38 3z"/>
<path d="M10290 18759 c-14 -6 -38 -8 -55 -6 -18 3 -37 -1 -47 -10 -13 -11
-21 -12 -37 -4 -30 16 -317 3 -332 -15 -8 -9 -17 -11 -28 -5 -25 14 -423 6
-450 -9 -15 -7 -45 -10 -84 -6 -73 6 -71 6 -167 1 -46 -2 -80 1 -88 7 -17 14
-254 12 -337 -3 -63 -11 -69 -12 -232 -9 -59 0 -112 -4 -124 -10 -15 -9 -24
-8 -35 1 -9 8 -18 8 -26 1 -7 -5 -137 -15 -288 -21 -180 -8 -297 -17 -339 -28
-59 -14 -66 -14 -93 1 -15 10 -33 14 -39 10 -7 -4 -130 -8 -275 -9 -240 -2
-266 -4 -285 -20 -17 -17 -25 -17 -68 -6 -53 13 -328 18 -373 6 -15 -4 -59 -1
-98 6 -57 10 -75 10 -94 -1 -15 -8 -36 -10 -53 -6 -50 13 -355 15 -478 4 -66
-7 -187 -13 -270 -14 -318 -6 -362 -9 -399 -29 -35 -19 -36 -19 -79 2 -42 20
-47 21 -153 7 -60 -8 -121 -19 -136 -25 -15 -6 -42 -9 -60 -5 -32 6 -123 13
-261 19 -37 2 -71 -1 -74 -6 -3 -5 -19 -6 -37 -3 -17 3 -47 1 -66 -5 -19 -6
-107 -13 -195 -16 -214 -7 -245 -6 -261 8 -10 8 -45 8 -136 -1 -112 -10 -331
-15 -418 -8 -63 4 -253 -11 -264 -22 -15 -15 -73 -12 -107 5 -25 13 -59 15
-206 11 -108 -4 -181 -10 -189 -17 -9 -7 -33 -9 -68 -5 -31 4 -57 3 -60 -2 -3
-5 -36 -13 -73 -16 -38 -4 -95 -12 -128 -17 -32 -6 -144 -12 -247 -14 l-189
-3 -30 25 -30 25 -24 -26 c-13 -14 -35 -26 -48 -26 -40 0 -70 -48 -73 -120 -1
-19 -5 -47 -9 -63 -9 -35 6 -53 51 -62 28 -5 39 -2 48 11 10 13 20 15 42 9 47
-11 83 -9 102 7 14 13 36 15 132 9 63 -4 131 -4 150 0 19 5 63 9 98 9 35 0 75
6 91 15 18 9 42 12 64 8 20 -3 66 2 104 10 129 30 221 40 290 33 94 -10 189
-8 243 4 107 26 746 31 948 9 79 -8 140 -8 257 1 84 7 176 10 205 8 28 -3 53
-1 56 3 3 5 47 6 99 2 60 -4 99 -2 107 4 7 6 78 14 158 17 80 4 161 9 180 11
87 13 203 12 289 -1 117 -17 151 -17 174 1 11 7 25 11 33 8 7 -3 85 0 171 6
172 13 238 14 741 14 20 0 87 -2 147 -5 61 -2 148 0 195 5 133 15 174 16 690
21 469 5 671 14 755 35 22 6 78 11 126 11 47 0 89 4 95 9 5 5 32 6 59 2 28 -4
86 -5 130 -3 44 1 143 5 219 7 81 2 148 8 161 15 15 8 29 9 41 3 11 -5 84 -8
164 -5 80 2 163 2 185 0 90 -7 441 2 473 13 19 6 126 13 246 15 116 2 220 4
231 5 11 0 73 -1 138 -3 l119 -4 29 34 c19 22 28 40 24 53 -3 10 -7 28 -10 38
-12 40 -69 78 -128 84 -30 4 -61 9 -69 11 -7 3 -24 0 -38 -5z"/>
<path d="M13770 18619 c-47 -4 -128 -12 -180 -18 -52 -6 -102 -8 -110 -5 -12
5 -322 15 -495 17 -184 2 -612 -7 -620 -13 -18 -13 -89 -20 -101 -9 -9 7 -20
6 -36 -3 -17 -9 -84 -13 -252 -14 -196 0 -230 -3 -237 -16 -8 -14 -14 -14 -49
-2 -43 15 -249 34 -265 25 -5 -3 -46 -6 -90 -7 -44 -2 -132 -6 -195 -9 l-115
-7 -42 -43 c-48 -47 -57 -90 -25 -118 27 -25 87 -47 126 -47 19 0 47 -5 61
-12 19 -9 28 -9 37 0 7 7 30 12 53 12 23 0 46 5 52 11 9 9 19 9 42 -1 16 -6
34 -9 39 -6 4 3 46 10 93 15 65 8 95 8 134 -2 37 -10 110 -12 290 -8 132 3
310 6 395 7 146 2 174 5 210 23 8 4 58 8 109 10 52 1 99 5 105 8 5 3 64 5 130
3 451 -10 1081 1 1115 20 14 7 27 7 45 -1 20 -9 46 -9 111 0 47 6 90 9 96 5 6
-3 108 -8 227 -11 120 -2 235 -8 256 -14 35 -10 41 -8 63 13 13 13 26 40 29
59 5 29 1 40 -34 77 -28 31 -47 42 -68 42 -16 0 -48 7 -71 15 -32 11 -49 12
-73 3 -24 -8 -37 -7 -55 2 -17 9 -41 11 -82 5 -63 -8 -93 -8 -197 1 -42 3 -72
2 -79 -5 -6 -6 -37 -8 -73 -5 -134 9 -192 10 -274 3z"/>
<path d="M2956 15094 l-49 -45 -4 -117 c-8 -219 -15 -307 -24 -319 -7 -8 -6
-19 2 -34 12 -23 3 -123 -23 -245 -11 -53 -9 -76 16 -214 11 -56 14 -108 10
-152 -5 -49 -3 -72 7 -84 8 -10 12 -38 10 -82 -6 -126 -3 -431 4 -442 10 -16
22 -276 28 -618 2 -94 7 -175 10 -179 11 -10 8 -71 -3 -78 -15 -10 -12 -48 7
-75 14 -20 17 -46 16 -143 0 -76 -5 -127 -13 -142 -10 -18 -10 -28 -2 -38 8
-9 11 -76 11 -198 0 -101 3 -192 6 -201 4 -9 3 -23 -1 -30 -5 -7 -10 -78 -12
-158 -2 -80 -4 -161 -5 -180 0 -19 0 -75 1 -125 1 -49 2 -101 2 -115 0 -112
10 -240 20 -262 9 -19 10 -35 3 -55 -12 -33 -2 -238 13 -268 5 -11 8 -84 7
-165 -5 -202 -2 -273 15 -410 5 -41 7 -89 5 -106 -3 -18 0 -35 6 -38 6 -4 11
-20 11 -35 0 -15 5 -32 11 -38 9 -9 9 -19 0 -40 -14 -35 -23 -153 -12 -168 4
-5 6 -31 3 -57 -4 -45 -7 -50 -63 -90 l-60 -43 6 -55 c3 -30 7 -66 8 -80 2
-24 6 -25 87 -32 65 -6 94 -4 123 7 20 8 51 15 67 15 16 0 40 4 55 10 14 5 73
12 131 14 57 3 110 8 117 13 6 4 66 8 132 10 152 4 135 3 304 20 131 14 148
14 178 -1 23 -11 46 -14 74 -10 29 5 44 2 57 -10 23 -20 94 -23 267 -12 76 5
136 14 145 21 26 21 61 24 105 10 31 -11 50 -12 76 -4 58 17 638 11 745 -8 28
-5 117 -6 200 -2 206 10 286 11 380 3 56 -4 88 -3 104 6 34 18 744 27 825 10
62 -13 183 -14 340 -4 50 3 110 5 135 5 145 -3 217 -9 236 -19 14 -7 57 -8
140 -2 65 4 126 4 134 0 8 -5 28 -6 43 -3 19 4 44 -2 71 -16 24 -11 57 -22 74
-24 17 -2 37 -9 45 -16 13 -10 322 -16 542 -9 22 1 146 0 275 -1 129 -1 276 2
325 6 100 10 169 10 201 0 12 -4 36 -1 56 7 36 16 117 10 190 -13 34 -10 162
-32 188 -31 35 0 106 13 115 20 12 10 383 5 438 -5 25 -5 42 -3 52 5 11 9 34
11 73 7 31 -3 80 -2 107 3 33 5 72 4 115 -5 74 -15 169 -16 187 -3 7 6 94 9
200 8 103 -2 215 -2 248 -2 71 1 105 1 143 0 15 -1 124 2 242 7 265 10 314 10
365 -1 22 -5 120 -7 220 -3 229 8 281 1 315 -42 14 -17 37 -46 52 -63 l27 -31
10 28 c6 15 17 27 25 27 8 0 28 12 45 26 23 19 31 34 31 58 0 24 7 38 30 54
16 13 30 28 30 34 0 7 9 22 21 34 16 17 18 27 11 41 -17 31 -32 155 -25 214 3
36 2 59 -6 63 -7 5 -9 31 -5 80 5 51 3 80 -7 97 -7 13 -14 61 -15 109 -1 47
-7 153 -14 235 -13 159 -23 377 -25 537 0 54 -6 102 -12 110 -8 9 -11 86 -9
238 1 169 -2 230 -11 246 -7 11 -16 52 -18 90 -3 38 -9 96 -14 129 -5 33 -9
141 -9 240 -1 99 -5 275 -11 390 -6 116 -10 244 -10 285 1 54 -5 94 -21 140
-19 57 -21 73 -12 125 13 78 3 399 -13 425 -3 5 -6 44 -7 87 0 43 -7 93 -15
112 -12 27 -12 39 -2 62 9 22 9 54 0 136 -15 144 -14 224 3 248 27 39 29 65 8
88 -23 26 -31 62 -37 182 -5 92 -22 202 -35 220 -13 18 -23 235 -19 425 4 239
1 330 -11 346 -6 6 -12 28 -14 46 -2 19 -6 40 -9 45 -9 14 -158 4 -177 -12 -8
-7 -46 -15 -85 -19 -38 -4 -75 -12 -82 -17 -6 -6 -21 -8 -32 -4 -10 3 -22 1
-26 -6 -5 -7 -31 -9 -85 -4 -50 4 -80 3 -84 -3 -4 -7 -60 -9 -157 -7 -90 3
-158 1 -170 -5 -12 -7 -33 -7 -61 -1 -27 6 -47 6 -52 0 -16 -15 -96 -11 -102
6 -7 18 -35 20 -53 3 -9 -10 -74 -13 -244 -15 -128 -1 -257 -2 -287 -3 -132
-2 -162 0 -174 9 -8 7 -37 4 -93 -9 -68 -17 -106 -19 -239 -16 -88 2 -184 10
-214 16 -65 15 -67 15 -145 2 -33 -5 -87 -8 -120 -6 -33 1 -99 -4 -147 -11
-74 -12 -92 -12 -114 -1 -15 9 -41 12 -65 9 -22 -3 -57 -1 -77 5 -116 34 -131
36 -152 17 -18 -17 -29 -17 -136 -6 -88 9 -120 9 -130 0 -10 -8 -18 -8 -27 -1
-18 15 -342 9 -427 -8 -52 -10 -99 -10 -230 0 -90 6 -169 15 -175 19 -5 5 -27
11 -48 15 -29 5 -43 3 -62 -12 -20 -16 -36 -18 -107 -14 -46 2 -102 10 -126
18 -50 16 -161 18 -247 4 -32 -5 -125 -12 -205 -15 -80 -3 -172 -10 -205 -15
-82 -14 -181 -13 -205 2 -15 10 -22 9 -38 -5 -17 -15 -40 -17 -173 -16 -85 0
-170 -2 -190 -6 -22 -4 -45 -2 -58 4 -11 6 -60 12 -109 13 -69 2 -95 -1 -115
-15 -23 -15 -30 -15 -67 -2 -33 11 -113 16 -346 19 -167 3 -309 8 -314 11 -6
4 -51 1 -101 -6 -71 -10 -94 -10 -110 -1 -15 9 -40 10 -102 3 -118 -14 -536
-15 -552 -1 -9 8 -101 9 -312 4 -463 -10 -990 -8 -1058 5 -33 6 -130 14 -215
17 -188 7 -244 22 -271 74 -26 47 -39 58 -79 64 -31 5 -40 1 -84 -40z m9685
-291 c11 -12 15 -74 17 -277 1 -144 7 -270 12 -281 4 -11 11 -56 14 -100 4
-44 11 -105 17 -135 5 -30 10 -64 9 -75 -1 -83 3 -142 12 -152 5 -7 9 -49 9
-95 -2 -167 6 -515 12 -525 4 -5 9 -86 13 -179 3 -93 9 -173 14 -177 10 -11 0
-159 -13 -175 -19 -24 -28 5 -29 92 0 47 -5 89 -9 92 -12 7 -11 81 1 89 6 3
10 43 10 87 0 76 -9 122 -33 175 -5 12 -7 29 -3 38 9 24 -12 246 -26 262 -7 8
-9 39 -6 83 4 48 1 78 -8 96 -11 20 -11 30 -3 40 9 11 8 18 0 28 -8 9 -11 46
-10 103 2 89 -2 163 -23 349 -8 76 -8 135 2 234 8 96 9 135 1 143 -6 6 -11 18
-11 26 0 19 -59 81 -78 81 -8 0 -26 6 -40 14 -40 20 -95 36 -126 36 -15 0 -36
5 -48 11 -16 9 -25 6 -47 -14 -22 -21 -33 -24 -76 -21 -27 3 -70 4 -93 4 -24
-1 -50 4 -57 10 -9 7 -23 9 -37 4 -13 -4 -52 -9 -88 -10 -304 -9 -384 -14
-399 -27 -19 -17 -112 -28 -274 -33 -72 -2 -125 -8 -133 -15 -11 -9 -20 -9
-37 -1 -31 16 -145 34 -159 26 -19 -12 -270 -14 -285 -3 -16 14 -79 4 -111
-17 -21 -14 -25 -12 -60 14 l-37 29 -200 -2 c-131 -1 -214 -6 -241 -14 -36
-12 -44 -11 -68 4 -22 15 -31 16 -56 5 -24 -10 -33 -10 -46 0 -20 17 -290 25
-344 10 -27 -7 -47 -7 -67 1 -19 7 -172 10 -468 9 -545 -3 -503 -3 -607 0 -59
2 -92 -1 -103 -10 -12 -10 -18 -10 -31 1 -12 10 -22 10 -47 1 -18 -6 -99 -14
-181 -17 -82 -4 -157 -12 -167 -18 -14 -9 -27 -8 -55 2 -46 17 -237 29 -369
25 -55 -2 -172 -5 -260 -5 -114 -1 -168 -5 -187 -15 -29 -15 -70 -18 -82 -6
-4 4 -60 8 -124 8 -65 1 -128 3 -142 5 -14 1 -135 -2 -270 -7 -287 -11 -1097
-6 -1122 7 -10 6 -28 5 -45 -2 -20 -7 -39 -7 -70 2 -31 8 -58 9 -105 1 -35 -6
-166 -14 -293 -18 -126 -3 -259 -8 -295 -12 -117 -10 -469 6 -596 28 -34 5
-102 10 -151 10 -49 0 -93 3 -97 7 -6 7 -75 15 -106 13 -135 -9 -184 -17 -190
-30 -4 -8 -12 -25 -18 -37 -7 -13 -12 -28 -12 -34 0 -6 -13 -27 -30 -46 -34
-38 -41 -95 -15 -129 8 -10 15 -29 15 -41 0 -12 5 -25 11 -28 6 -4 7 -19 4
-35 -10 -44 -10 -644 0 -659 4 -8 7 -76 7 -152 -1 -88 2 -140 9 -144 6 -5 8
-27 3 -61 -4 -38 -2 -59 6 -69 11 -13 10 -20 0 -40 -11 -20 -11 -32 -1 -62 7
-21 13 -82 14 -136 2 -81 5 -101 20 -112 14 -10 16 -20 9 -51 -5 -22 -3 -127
4 -244 6 -113 9 -209 6 -213 -2 -5 -3 -79 -2 -165 1 -87 3 -268 4 -403 1 -164
5 -251 12 -260 13 -16 26 -65 24 -91 -2 -58 -2 -58 17 -246 4 -40 1 -57 -11
-71 -14 -15 -14 -26 -5 -74 5 -32 7 -62 4 -68 -4 -5 -1 -16 5 -24 8 -9 10 -28
6 -49 -4 -18 -2 -46 4 -61 9 -23 13 -68 25 -275 1 -27 -3 -51 -12 -61 -11 -13
-11 -20 2 -47 21 -41 22 -228 2 -392 -10 -87 -12 -131 -5 -144 11 -19 5 -185
-8 -238 -5 -22 -1 -29 25 -42 25 -14 31 -23 31 -50 0 -37 31 -66 72 -66 12 0
35 -12 51 -27 25 -25 35 -28 90 -26 34 1 82 9 106 18 24 8 56 15 70 15 15 0
32 5 38 11 16 16 167 13 193 -3 16 -10 24 -10 41 0 12 8 47 13 82 12 86 -2
232 8 292 20 31 6 102 7 185 2 114 -7 141 -6 175 8 34 14 65 15 220 8 217 -9
377 -9 505 -1 52 4 113 6 134 5 22 -1 45 3 52 9 7 6 46 10 86 9 40 0 111 2
158 4 235 15 341 20 405 19 59 -1 633 -2 790 -1 168 0 356 -10 368 -20 10 -8
142 -13 433 -17 230 -3 475 -9 544 -13 91 -6 149 -5 215 6 50 7 117 11 150 9
33 -3 125 -10 205 -16 80 -6 152 -16 161 -21 10 -5 97 -12 195 -16 99 -4 185
-11 192 -17 7 -5 76 -14 155 -19 78 -5 151 -14 162 -19 13 -6 97 -9 220 -6
110 3 290 5 400 5 336 -1 434 1 585 7 220 8 234 10 248 18 7 5 19 4 27 -3 11
-9 40 -9 117 -2 160 15 522 16 550 1 17 -10 82 -12 247 -11 l224 2 33 -25 c18
-14 40 -25 48 -25 33 0 94 44 106 76 7 17 19 22 69 27 33 3 64 8 70 12 6 3 11
25 11 48 0 68 -20 316 -31 387 -10 63 -13 106 -22 427 -3 83 -8 156 -11 161
-3 6 -6 37 -6 69 2 152 -17 471 -30 504 -11 32 -11 42 3 78 10 23 17 61 17 85
0 24 3 71 6 105 6 49 10 61 23 59 23 -5 32 -55 41 -223 5 -82 11 -180 14 -217
3 -38 1 -70 -5 -73 -14 -9 -10 -58 7 -80 12 -16 15 -47 13 -155 -1 -74 -5
-168 -10 -209 -7 -56 -5 -88 6 -131 18 -69 19 -112 3 -128 -8 -8 -8 -15 0 -24
5 -7 10 -24 10 -38 -2 -52 15 -196 24 -206 5 -7 4 -22 -3 -38 -13 -27 -2 -184
22 -336 6 -36 7 -87 4 -113 -3 -27 -2 -54 3 -60 19 -23 19 -87 1 -103 -16 -14
-25 -14 -94 0 -42 9 -82 13 -88 9 -16 -10 -107 -10 -137 0 -14 5 -92 11 -175
14 -176 5 -229 8 -349 17 -62 4 -117 2 -180 -9 -50 -8 -140 -16 -201 -18 -149
-3 -417 12 -431 24 -7 6 -21 4 -40 -5 -40 -20 -374 -17 -398 3 -14 12 -19 11
-34 -1 -30 -26 -51 -28 -150 -16 -53 6 -110 11 -127 10 -120 -4 -210 0 -222
10 -11 9 -19 9 -33 0 -10 -6 -60 -11 -112 -12 -114 0 -190 -5 -243 -15 -30 -5
-57 -1 -105 15 -39 13 -76 19 -94 16 -16 -3 -35 -1 -42 5 -10 8 -22 8 -45 0
-18 -6 -66 -11 -108 -11 -54 0 -83 -5 -100 -16 -19 -14 -27 -14 -47 -4 -17 10
-51 11 -131 6 -351 -24 -633 -27 -693 -9 -24 8 -75 14 -112 15 -56 0 -71 4
-82 20 -12 17 -17 18 -34 7 -17 -10 -26 -10 -49 0 -18 9 -88 15 -201 18 -96 2
-195 9 -220 15 -26 5 -74 12 -107 14 -33 2 -84 6 -114 10 -45 5 -58 3 -82 -15
-23 -17 -33 -19 -54 -11 -15 6 -57 10 -93 10 -46 0 -75 5 -91 16 -18 13 -28
14 -47 5 -30 -13 -157 -14 -279 -1 -61 6 -111 6 -155 -2 -70 -11 -88 -12 -168
-2 -40 4 -57 2 -70 -9 -14 -12 -32 -13 -92 -8 -64 7 -79 5 -102 -11 -32 -22
-42 -23 -58 -3 -7 8 -22 15 -34 15 -12 0 -26 4 -32 9 -11 11 -320 -16 -350
-31 -25 -11 -336 -3 -362 10 -26 14 -493 8 -518 -5 -15 -9 -30 -9 -60 0 -52
15 -321 12 -340 -4 -9 -8 -47 -11 -107 -9 -50 2 -112 3 -137 2 -25 -1 -52 1
-60 4 -21 9 -583 11 -595 3 -5 -4 -44 -9 -85 -11 -41 -3 -113 -15 -159 -27
-69 -19 -89 -21 -104 -11 -11 6 -44 14 -74 17 -29 3 -57 11 -61 17 -7 10 -15
82 -28 246 -3 41 -10 79 -14 83 -4 5 -6 44 -3 86 5 63 2 83 -12 104 -14 22
-18 59 -21 239 -11 631 -21 831 -43 891 -5 13 -6 40 -2 59 5 19 6 49 3 66 -2
18 0 38 5 45 6 7 7 75 1 182 -6 119 -5 180 3 203 7 21 9 61 4 108 -5 54 -3 79
6 90 9 12 9 19 0 38 -14 26 -16 54 -5 104 4 22 2 38 -8 50 -12 14 -13 35 -7
107 4 50 8 131 8 182 1 51 6 104 13 118 10 21 8 30 -8 53 -29 38 -36 63 -24
77 14 17 15 286 2 345 -6 25 -12 119 -13 210 -1 91 -6 176 -12 190 -5 14 -13
124 -18 245 -5 121 -12 265 -15 320 -4 55 -6 115 -5 133 0 19 -5 59 -14 90 -8
34 -11 60 -5 67 5 7 5 37 0 75 -12 79 -13 157 -2 163 4 3 8 67 10 142 1 86 7
148 16 169 7 17 11 46 8 64 -6 45 9 58 76 67 73 9 244 6 299 -6 23 -5 115 -11
205 -14 89 -3 185 -10 212 -16 60 -14 273 -7 304 10 17 9 47 9 135 -2 80 -10
136 -12 197 -6 122 13 355 12 394 -1 22 -7 81 -8 172 -4 77 4 243 8 369 10
127 3 241 5 255 5 14 0 54 -5 90 -11 49 -8 88 -8 157 1 61 7 101 8 120 2 15
-6 45 -8 66 -5 22 2 56 -3 82 -13 25 -9 49 -14 55 -10 6 4 90 13 187 20 137
11 180 11 191 2 19 -16 656 -14 676 2 8 6 91 10 227 10 118 0 263 4 322 10 68
6 117 7 133 1 15 -6 49 -6 89 -1 46 7 104 5 202 -6 157 -17 258 -22 458 -22
77 0 166 -1 198 -1 32 -1 65 4 73 11 23 19 361 21 398 2 20 -11 35 -12 55 -5
45 17 333 1 378 -20 16 -8 34 -7 70 5 64 20 206 31 231 18 43 -23 612 -29 663
-7 9 4 36 2 61 -3 34 -8 63 -7 114 3 51 10 123 13 269 10 274 -7 581 -4 635 6
214 39 238 41 316 31 43 -5 83 -7 89 -3 11 7 136 18 236 20 51 2 70 -2 80 -15z
m-4036 -323 c121 2 263 2 315 1 155 -5 301 -6 365 -2 33 2 94 0 136 -4 45 -5
84 -3 95 2 12 7 48 7 104 0 47 -5 99 -9 115 -7 59 4 485 -7 595 -16 87 -7 120
-8 175 -5 22 2 114 -2 205 -8 91 -6 208 -9 260 -6 122 7 116 7 175 -1 28 -4
56 -11 63 -17 8 -6 17 -6 26 2 8 6 43 11 82 10 93 -2 175 10 197 29 15 13 46
16 180 15 89 -1 219 -4 289 -6 69 -3 129 -3 133 1 10 10 177 1 196 -11 14 -9
22 -7 38 7 46 42 70 -18 60 -154 -4 -56 -3 -102 3 -113 5 -10 11 -69 12 -131
2 -62 6 -118 10 -124 3 -5 8 -70 11 -144 7 -182 40 -485 55 -503 5 -6 10 -92
11 -191 1 -141 5 -184 16 -203 12 -19 14 -41 9 -103 -4 -43 -11 -89 -16 -102
-6 -18 -4 -39 11 -78 21 -57 25 -118 9 -134 -10 -10 7 -78 31 -126 5 -10 4
-61 -2 -118 -5 -56 -7 -111 -3 -123 8 -26 17 -339 14 -525 -1 -86 2 -143 10
-162 10 -25 10 -34 -3 -53 -12 -19 -15 -50 -12 -154 1 -71 7 -139 13 -149 7
-13 6 -44 -3 -99 -7 -44 -10 -84 -6 -90 3 -5 7 -122 8 -260 1 -137 4 -284 6
-325 6 -101 17 -354 22 -464 2 -48 8 -93 14 -99 16 -16 14 -42 -4 -57 -8 -7
-50 -13 -98 -15 -45 -1 -92 -7 -103 -13 -26 -14 -155 -15 -224 -2 -114 22
-120 23 -145 6 -23 -15 -28 -15 -55 -1 -33 17 -112 20 -139 5 -11 -5 -39 -6
-72 -1 -31 5 -61 5 -71 0 -11 -6 -26 -5 -42 3 -20 8 -32 8 -51 0 -21 -10 -30
-9 -50 4 -19 13 -33 14 -80 5 -32 -6 -61 -9 -65 -6 -17 10 -184 14 -232 4 -29
-5 -105 -12 -168 -14 -63 -3 -128 -10 -143 -16 -21 -9 -38 -9 -67 0 -31 9 -44
9 -59 -1 -16 -10 -27 -10 -55 0 -19 7 -51 10 -72 7 -22 -4 -68 -1 -104 7 -36
7 -92 12 -125 10 -93 -5 -503 -3 -575 2 -36 2 -101 9 -145 15 -44 7 -115 15
-157 20 -42 5 -81 12 -86 15 -5 3 -85 8 -177 11 -92 3 -171 7 -176 11 -12 7
-402 26 -527 25 -57 0 -112 4 -122 9 -13 7 -29 5 -55 -6 -31 -13 -66 -14 -218
-8 -210 8 -296 10 -387 6 -106 -4 -377 16 -399 30 -16 10 -30 10 -66 0 -36 -9
-51 -10 -68 0 -15 8 -62 11 -142 8 -66 -2 -131 -3 -145 -2 -14 1 -144 5 -290
10 -212 6 -269 5 -287 -5 -16 -9 -51 -12 -118 -9 -53 2 -98 0 -100 -4 -3 -4
-77 -8 -165 -8 -88 0 -164 -4 -170 -7 -13 -8 -347 -28 -425 -26 -33 2 -65 7
-71 12 -13 11 -527 1 -674 -13 -58 -5 -161 -12 -230 -14 -69 -2 -136 -6 -150
-10 -14 -3 -72 -8 -130 -10 -58 -2 -124 -9 -147 -15 -31 -8 -62 -9 -116 -1
-40 6 -83 9 -95 5 -12 -3 -41 3 -64 13 -24 9 -65 20 -93 23 l-50 6 -3 130 c-5
190 -2 330 8 418 8 63 7 84 -5 107 -10 19 -16 81 -21 201 -5 121 -11 179 -20
189 -16 19 -26 143 -28 370 -1 96 -8 233 -15 303 -10 95 -11 131 -3 139 9 9 8
16 -4 30 -10 10 -17 35 -17 60 0 106 3 427 5 468 1 25 1 62 0 83 -4 75 -6 143
-4 182 1 22 -3 123 -8 225 -6 102 -10 196 -11 210 -1 59 -21 249 -30 290 -5
25 -11 115 -13 200 -2 85 -9 266 -16 403 -10 190 -10 264 -1 318 6 38 8 77 4
87 -5 9 -8 76 -8 147 l0 130 110 2 c213 3 290 1 305 -7 9 -5 112 -13 230 -19
276 -15 358 -16 425 -6 144 21 571 33 785 22 85 -5 277 -8 425 -7 149 1 307 1
351 0 45 -1 85 3 88 8 8 13 101 15 446 11 383 -4 659 2 696 15 6 3 42 1 80 -4
43 -5 73 -5 80 1 15 12 286 12 369 0 33 -4 85 -7 115 -6 109 5 326 26 360 35
19 5 55 6 80 3 25 -4 144 -5 265 -3z m4165 -1961 c0 -17 4 -38 9 -48 5 -9 11
-73 12 -141 2 -103 0 -125 -12 -125 -28 0 -49 183 -33 299 7 52 24 63 24 15z
m38 -575 c-2 -22 -7 -39 -13 -39 -12 0 -19 60 -10 83 10 28 27 -3 23 -44z m12
-345 c0 -59 -4 -99 -10 -99 -11 0 -11 1 -15 115 -3 83 0 99 16 90 5 -4 9 -51
9 -106z"/>
<path d="M5118 13166 c-28 -35 -37 -79 -18 -91 6 -3 10 -13 10 -22 0 -8 8 -27
19 -41 10 -15 24 -44 30 -64 7 -20 25 -53 42 -74 16 -20 29 -43 29 -50 0 -43
123 -124 187 -124 35 0 93 24 93 39 0 4 20 22 45 40 25 18 45 38 45 45 0 7 8
20 19 30 10 9 28 38 41 64 12 26 28 58 35 72 29 58 27 76 -11 110 -28 24 -43
31 -63 27 -107 -22 -131 -37 -131 -82 0 -31 -44 -115 -60 -115 -13 0 -60 41
-60 52 0 6 -16 30 -35 54 -19 23 -35 47 -35 53 0 5 -12 27 -26 48 -19 29 -34
39 -62 44 -20 3 -44 9 -52 13 -10 4 -24 -6 -42 -28z"/>
<path d="M9929 13169 c-13 -10 -29 -19 -36 -19 -15 0 -36 -37 -29 -49 7 -10
-97 -101 -115 -101 -7 0 -45 23 -85 50 -65 45 -78 50 -126 50 -60 0 -78 -11
-78 -51 0 -15 -6 -32 -14 -39 -15 -12 -14 -24 7 -70 18 -41 38 -60 105 -97 53
-30 74 -36 138 -39 41 -2 79 -6 85 -10 5 -3 15 -1 22 4 7 5 29 12 49 16 29 5
49 21 96 74 80 91 106 147 100 218 -5 63 -10 69 -59 77 -25 4 -42 0 -60 -14z"/>
<path d="M6723 13143 c-22 -3 -51 -21 -87 -54 -29 -27 -63 -49 -73 -49 -11 0
-30 -11 -43 -26 -17 -17 -31 -23 -46 -20 -35 9 -91 -66 -80 -107 7 -30 75 -93
107 -101 17 -4 31 -1 38 8 7 8 20 12 30 9 11 -3 24 5 35 21 9 14 23 26 31 26
8 0 24 14 37 30 12 17 29 30 38 30 18 0 100 101 100 124 0 8 5 18 10 21 18 11
10 41 -18 68 -15 15 -32 26 -38 25 -5 0 -24 -3 -41 -5z"/>
<path d="M11089 12939 c-40 -20 -89 -72 -89 -94 0 -53 -167 -240 -286 -322
l-32 -21 -7 133 c-7 122 -9 136 -31 156 -20 19 -30 21 -78 15 -87 -11 -115
-55 -107 -166 1 -19 6 -39 11 -45 4 -5 7 -71 5 -145 -4 -127 5 -197 27 -227 6
-7 4 -28 -3 -53 -9 -31 -10 -43 -1 -52 7 -7 12 -22 12 -34 0 -27 15 -40 57
-49 27 -5 41 -1 78 24 25 17 53 31 61 31 22 0 26 23 9 56 -19 36 -20 93 -1
100 7 3 30 -6 51 -20 21 -14 41 -26 45 -26 4 0 30 -35 58 -78 28 -42 60 -86
71 -96 12 -11 21 -31 21 -45 1 -52 104 -135 125 -101 3 5 31 21 62 35 l55 26
-4 69 c-3 61 -7 74 -34 102 -16 18 -43 52 -59 76 -38 57 -160 182 -178 182
-16 0 -47 31 -47 48 0 6 20 23 45 38 25 14 54 38 66 52 11 15 50 59 87 97 65
68 92 109 92 142 0 8 11 28 25 45 33 39 34 97 3 124 -23 19 -65 45 -70 43 -2
-1 -19 -9 -39 -20z"/>
<path d="M11730 12923 c-39 -5 -85 -45 -152 -130 l-40 -52 -8 -133 c-9 -146
-25 -235 -45 -258 -7 -8 -16 -33 -19 -55 -5 -28 -19 -50 -46 -75 -36 -34 -38
-38 -33 -83 4 -30 1 -52 -7 -62 -10 -12 -7 -19 13 -37 13 -13 29 -33 36 -45 6
-13 20 -23 31 -23 10 0 32 -11 48 -25 17 -14 34 -25 40 -25 23 0 62 44 76 88
13 38 30 60 79 100 34 29 72 55 84 58 30 8 103 -51 103 -82 0 -13 4 -26 10
-29 5 -3 19 -27 30 -53 45 -102 109 -130 164 -73 22 23 29 39 29 73 0 47 -16
118 -36 152 -6 11 -17 41 -23 66 -6 25 -24 77 -39 115 -15 39 -31 90 -35 115
-4 25 -17 79 -28 120 -12 42 -26 109 -32 150 -14 91 -30 129 -67 156 -29 22
-90 55 -95 52 -2 0 -19 -3 -38 -5z m34 -325 c9 -17 16 -43 16 -57 0 -14 9 -46
20 -70 25 -53 25 -80 3 -87 -10 -3 -39 -17 -66 -31 -41 -21 -48 -22 -53 -9 -3
9 0 26 9 39 8 12 17 51 20 87 9 97 21 160 31 160 2 0 12 -14 20 -32z"/>
<path d="M8781 12800 c-32 -5 -52 -15 -73 -39 -26 -29 -28 -37 -28 -121 0 -76
3 -91 18 -99 24 -13 69 -115 75 -171 3 -25 11 -69 18 -98 9 -40 9 -58 0 -75
-52 -100 -81 -119 -194 -122 -45 -2 -93 1 -107 7 -34 12 -98 76 -115 113 -23
53 -25 66 -31 179 -3 71 -10 119 -20 133 -8 12 -14 33 -14 46 0 25 -57 107
-75 107 -5 0 -19 -7 -29 -15 -11 -8 -27 -15 -36 -15 -9 0 -24 -8 -34 -18 -13
-16 -15 -33 -11 -100 3 -45 10 -94 16 -109 6 -16 13 -55 15 -88 4 -75 22 -174
34 -197 6 -10 10 -24 10 -31 0 -25 115 -126 175 -153 55 -26 68 -27 190 -27
142 1 180 11 270 73 52 36 119 132 122 175 2 17 5 59 9 95 3 36 1 97 -6 135
-6 39 -16 107 -23 152 -7 45 -15 85 -19 89 -5 4 -8 17 -8 29 0 28 -43 116 -66
136 -14 11 -30 14 -63 9z"/>
<path d="M4203 12775 c-28 -13 -54 -29 -58 -34 -3 -6 -23 -18 -43 -27 -20 -8
-43 -19 -51 -23 -18 -9 -44 -89 -36 -115 6 -21 26 -140 46 -271 6 -40 8 -113
4 -170 -3 -55 -8 -129 -10 -164 -1 -35 -6 -96 -10 -135 -6 -64 -4 -75 15 -99
12 -15 26 -24 32 -21 5 3 19 -3 31 -13 12 -11 27 -23 33 -26 21 -12 73 14 94
48 17 27 19 42 14 96 -4 35 -11 69 -16 76 -18 23 -7 154 14 181 7 7 35 12 74
12 48 0 77 6 119 26 69 33 205 161 205 193 0 13 11 36 25 53 21 24 24 37 20
71 -15 114 -28 152 -77 218 -43 58 -56 68 -111 88 -77 29 -204 61 -237 61 -14
-1 -48 -12 -77 -25z m167 -224 c62 -15 90 -30 90 -49 0 -10 9 -27 20 -37 28
-25 25 -42 -9 -60 -16 -8 -32 -23 -35 -33 -4 -10 -20 -28 -36 -41 -25 -18 -41
-21 -88 -19 l-57 3 -7 70 c-4 38 -12 90 -18 114 -6 24 -7 47 -3 52 11 10 63
17 88 12 11 -3 36 -8 55 -12z"/>
<path d="M6973 12758 c-31 -8 -83 -59 -83 -81 0 -7 5 -39 11 -72 23 -137 30
-183 34 -240 7 -92 42 -295 58 -340 8 -22 13 -54 10 -72 -3 -19 0 -39 7 -48 6
-8 14 -42 17 -75 5 -49 11 -65 31 -80 38 -30 85 -26 127 12 35 30 36 34 32 82
-8 78 -22 143 -36 159 -6 8 -12 45 -14 83 -2 79 11 91 63 54 16 -12 34 -18 40
-15 21 13 122 -20 160 -52 21 -18 45 -33 52 -33 20 0 105 -58 123 -84 8 -11
31 -30 52 -41 28 -16 40 -31 53 -68 18 -56 43 -76 71 -58 11 6 25 11 32 11 17
0 57 42 57 60 0 7 6 21 14 29 7 9 16 34 19 56 6 39 5 41 -61 102 -37 35 -94
77 -127 94 -33 18 -80 46 -105 64 -25 17 -53 35 -62 38 -29 10 -21 37 30 95
l47 56 -2 108 c-2 122 -9 140 -71 192 -49 40 -47 40 -230 36 -69 -1 -128 2
-135 8 -27 21 -160 34 -214 20z m416 -226 c28 -6 36 -14 43 -40 8 -29 5 -38
-21 -68 -17 -19 -34 -35 -38 -35 -5 0 -15 -6 -23 -13 -43 -37 -101 -54 -161
-49 l-59 6 0 46 c0 25 -2 67 -6 94 -9 73 -2 77 124 71 59 -2 122 -8 141 -12z"/>
<path d="M9633 12730 c-34 -4 -73 -14 -87 -23 -14 -10 -35 -17 -46 -17 -12 0
-31 -5 -43 -11 -28 -14 -87 -70 -87 -82 0 -5 -16 -29 -36 -53 l-37 -45 0 -132
c-1 -110 2 -137 16 -157 9 -14 17 -31 17 -39 0 -16 113 -131 129 -131 6 0 19
-4 29 -9 95 -51 105 -54 177 -46 39 4 118 7 176 6 104 -3 106 -2 123 23 9 14
25 26 36 26 10 0 46 25 78 55 45 41 64 67 76 105 15 45 15 53 1 80 -8 16 -25
32 -38 34 -89 18 -117 12 -117 -24 0 -20 -66 -75 -100 -83 -14 -3 -52 -13 -85
-21 -74 -19 -193 -12 -247 15 -50 25 -71 60 -79 128 -7 64 4 99 45 149 38 44
67 42 107 -8 23 -29 40 -40 59 -40 45 0 92 26 145 79 49 50 49 51 36 86 -7 19
-10 44 -6 55 9 29 -22 69 -58 74 -70 11 -125 12 -184 6z"/>
<path d="M6177 12669 c-37 -31 -38 -33 -32 -83 4 -28 8 -105 9 -171 1 -66 7
-129 13 -140 15 -27 44 -145 60 -245 3 -19 11 -42 18 -50 7 -8 16 -31 20 -50
4 -19 12 -41 17 -47 7 -8 6 -23 -1 -44 -20 -59 27 -97 108 -86 21 2 44 1 52
-3 23 -15 30 0 13 29 -15 25 -15 30 0 65 25 59 21 152 -9 214 -14 29 -25 59
-25 68 0 8 -11 34 -24 57 -13 23 -27 60 -31 82 -4 22 -12 46 -17 53 -8 9 -8
16 0 24 16 16 15 39 -4 78 -14 26 -15 37 -5 52 6 10 8 24 4 31 -4 6 -6 43 -4
80 3 93 -12 117 -77 117 -38 0 -55 -6 -85 -31z"/>
<path d="M5185 12674 c-142 -17 -183 -47 -198 -146 -5 -35 -9 -70 -9 -78 5
-79 13 -318 12 -327 -9 -72 20 -256 51 -328 5 -11 10 -40 11 -65 3 -51 4 -51
93 -30 67 16 95 43 95 91 0 21 -4 41 -10 44 -5 3 -10 21 -10 39 0 17 -5 37
-12 44 -15 15 -14 108 2 127 7 8 22 15 34 15 27 0 131 -53 178 -90 20 -17 42
-30 48 -30 7 0 57 -45 111 -100 118 -120 141 -132 179 -95 14 14 34 25 43 25
27 0 40 38 34 97 -5 47 -11 59 -52 98 -25 25 -52 45 -60 45 -16 0 -115 68
-115 79 0 3 -27 27 -61 51 -33 25 -70 53 -82 62 l-22 17 33 27 c19 15 38 37
42 50 5 13 16 24 24 24 22 0 66 65 66 99 0 16 5 41 11 54 16 35 -7 79 -47 92
-17 6 -39 16 -48 24 -9 8 -47 17 -84 21 -37 4 -80 12 -95 18 -16 7 -37 12 -49
12 -11 0 -31 9 -45 20 -14 11 -28 19 -32 19 -3 -1 -19 -4 -36 -5z m98 -241
c37 -3 67 -8 67 -10 0 -2 -4 -11 -9 -21 -5 -9 -12 -25 -15 -34 -3 -9 -30 -34
-60 -54 -42 -27 -61 -35 -81 -30 -24 6 -25 10 -25 80 0 80 4 90 35 81 11 -3
50 -8 88 -12z"/>
</g>
</svg>
