<?xml version="1.0" encoding="UTF-8" standalone="no"?>
<svg
   version="1.0"
   width="1562.8035pt"
   height="1563.521pt"
   viewBox="0 0 1562.8034 1563.521"
   preserveAspectRatio="xMidYMid meet"
   id="svg876"
   sodipodi:docname="kure-vanoce-mensi.svg"
   inkscape:version="1.1.1 (c3084ef, 2021-09-22)"
   xmlns:inkscape="http://www.inkscape.org/namespaces/inkscape"
   xmlns:sodipodi="http://sodipodi.sourceforge.net/DTD/sodipodi-0.dtd"
   xmlns="http://www.w3.org/2000/svg"
   xmlns:svg="http://www.w3.org/2000/svg">
  <defs
     id="defs880" />
  <sodipodi:namedview
     id="namedview878"
     pagecolor="#ffffff"
     bordercolor="#666666"
     borderopacity="1.0"
     inkscape:pageshadow="2"
     inkscape:pageopacity="0.0"
     inkscape:pagecheckerboard="0"
     inkscape:document-units="pt"
     showgrid="false"
     fit-margin-top="191"
     fit-margin-bottom="191"
     fit-margin-left="0"
     fit-margin-right="0"
     inkscape:zoom="0.30342038"
     inkscape:cx="1048.0509"
     inkscape:cy="1041.4594"
     inkscape:window-width="1378"
     inkscape:window-height="847"
     inkscape:window-x="62"
     inkscape:window-y="25"
     inkscape:window-maximized="1"
     inkscape:current-layer="svg876" />
  <metadata
     id="metadata824">
Created by potrace 1.16, written by Peter Selinger 2001-2019
</metadata>
  <path
     d="m 1165.8012,191.8023 c -2.5,0.3 -10.1,1.3 -17,2.2 -6.9,0.9 -14.7,2.3 -17.5,3.1 -7,1.9 -18.8,6.5 -19.9,7.6 -0.6,0.6 -1.6,1 -2.3,1 -1.9,0 -12.2,5 -17.3,8.4 -4.6,3.1 -13.3,11.7 -24.9,24.6 -5.6,6.3 -6.7,8.2 -9.7,17.1 -3.1,9.5 -3.3,10.5 -2.9,21.9 0.2,6.6 0.7,13.7 1.1,15.8 1,5.6 5.8,15.1 10.8,21.2 2.5,3 6.7,8.1 9.3,11.3 13.5,16.4 37.8,36 51.3,41.3 2.5,1 6.1,2.8 8,4 1.9,1.2 6.9,3 11,3.9 4.1,0.9 9.5,2.3 11.9,3.1 2.5,0.8 5.7,1.4 7.3,1.4 3.6,0 8.3,2.4 9.3,4.7 0.4,1 0.9,4.3 1.1,7.3 0.2,3 1.1,7.7 1.9,10.5 1.9,6.3 4.5,19.3 4.5,22.3 0,3 4.2,5.1 6.5,3.2 0.8,-0.7 1.5,-2.5 1.5,-4.1 0,-2.1 1,-3.6 4.2,-6.1 2.2,-1.8 6.7,-6.1 10,-9.4 3.2,-3.4 8.6,-7.6 12.1,-9.5 l 6.2,-3.3 18.5,0.2 c 10.2,0.2 23.7,0.8 30,1.3 20.5,1.8 41.7,0.8 45.5,-2 0.6,-0.5 3.5,-1.6 6.5,-2.5 3,-1 6.2,-2.3 7,-3 0.8,-0.7 2.3,-1.6 3.2,-1.9 3.6,-1.3 15.9,-10 18,-12.8 1.3,-1.6 3.5,-4.4 4.9,-6.2 4.6,-5.7 6.4,-15.1 6.4,-33.7 0,-15.6 -0.2,-17.1 -3.3,-28.5 -1.9,-6.6 -4,-13.5 -4.8,-15.3 -0.9,-1.8 -2.1,-4.5 -2.7,-6.1 -2.1,-5 -19.8,-24.3 -30.3,-33.1 -2.3,-1.9 -7,-5.9 -10.5,-8.8 -7.3,-6.1 -28.9,-20.5 -38.8,-25.8 -3.6,-2 -7.3,-4.3 -8.2,-5 -0.8,-0.8 -2.2,-1.4 -2.9,-1.4 -0.8,0 -3.2,-0.9 -5.4,-1.9 -8.6,-4 -13.5,-6.1 -14.6,-6.1 -0.7,0 -2.6,-0.7 -4.3,-1.5 -15.7,-7.2 -31.4,-10.3 -51.2,-10.2 -8.2,0.1 -17,0.4 -19.5,0.8 z m 42.4,7 c 9.2,1.6 23.7,5.9 30.1,8.9 1.1,0.5 4,1.5 6.5,2.1 2.5,0.7 5.2,1.8 6,2.5 0.8,0.6 2.6,1.5 3.9,1.9 1.4,0.4 4.5,1.9 7,3.3 2.5,1.3 6.9,3.7 9.6,5.1 2.8,1.5 8.5,5.3 12.7,8.4 4.2,3.1 7.9,5.7 8.2,5.7 1.4,0 12.5,8.6 24.1,18.7 19.7,17.1 30.8,30.9 33.6,41.7 0.5,2 1.4,5.3 2,7.3 2.9,9.9 4,21.1 3.5,34.3 -0.5,13.4 -1.4,18.6 -4.1,24.6 -1.6,3.5 -13.7,15.3 -17.5,17.1 -13,6.1 -15.9,7.3 -17.2,7.3 -0.8,0 -2.8,0.6 -4.4,1.4 -4.1,1.9 -26.7,2.9 -38.9,1.6 -5.5,-0.6 -19,-1.5 -30,-2 -11,-0.5 -20.8,-1.2 -21.8,-1.6 -2,-0.7 -4.6,1.1 -5.7,4.2 -0.5,1.2 -3,3.2 -5.5,4.4 -2.6,1.3 -7.3,5 -10.4,8.2 -7.3,7.8 -11.6,10.5 -13.7,8.7 -0.9,-0.7 -1.3,-2.1 -1,-3.2 0.3,-1.1 -0.1,-3.8 -0.9,-6.1 -1.2,-3.8 -2.4,-12.1 -2.8,-20.8 -0.2,-2 -0.6,-4 -1.1,-4.5 -0.4,-0.4 -3.3,-1.3 -6.4,-1.9 -3.1,-0.7 -10.1,-2.4 -15.6,-3.8 -5.4,-1.4 -10.8,-2.6 -12,-2.7 -1.1,0 -4,-1 -6.2,-2.2 -4,-2.1 -5.6,-2.9 -17.1,-8.5 -2.9,-1.4 -6,-3.3 -6.9,-4.4 -1,-1 -2.1,-1.8 -2.7,-1.8 -0.5,0 -4.8,-3 -9.6,-6.7 -9.9,-7.7 -24.6,-22.5 -29.5,-29.8 -1.9,-2.8 -4.8,-6.3 -6.5,-7.9 -1.7,-1.7 -3.1,-3.9 -3.1,-5.1 0,-1.1 -0.5,-2.6 -1.1,-3.2 -1.9,-1.9 -3.6,-10.8 -3.8,-20.9 -0.2,-10.4 1.5,-19.9 4.9,-27.7 2.4,-5.2 15,-19.8 23.6,-27.1 6.5,-5.5 18,-12.6 20.6,-12.6 0.5,0 6.1,-2 12.3,-4.5 9.3,-3.7 13.2,-4.6 22.1,-5.5 6,-0.6 13.6,-1.7 16.9,-2.5 7.4,-1.7 39.4,-1.9 47.9,-0.4 z"
     id="path826"
     style="fill:#000000;stroke:none;stroke-width:0.1" />
  <path
     d="m 1097.8012,248.2023 c -0.9,1 -0.9,2.8 -0.2,6.7 0.6,2.9 1.3,7.7 1.7,10.6 0.3,2.9 1.6,9.4 2.9,14.5 1.3,5 2.6,11.3 3,14 0.4,2.7 1.7,5.9 3.1,7.5 l 2.4,2.7 3.7,-2 c 3,-1.6 4.4,-3.5 7.2,-9.3 3.6,-7.6 6.4,-9.3 7,-4.2 0.7,6.8 3.7,17.1 5.3,18.6 1.7,1.5 2.1,1.5 4.2,0.1 1.3,-0.8 3.4,-3.7 4.8,-6.3 3.3,-6.4 5.1,-9.6 6.5,-11.4 0.7,-0.8 1.5,-2.6 1.9,-4 0.9,-2.7 7.2,-11.7 9.8,-13.9 1,-0.7 1.7,-2.1 1.7,-3.1 0,-0.9 0.9,-2.9 2.1,-4.4 2.5,-3.2 1.9,-5.6 -1.4,-5.6 -2.9,0 -4.7,1.8 -4.7,4.6 0,1.2 -0.8,3.2 -1.8,4.5 -1.7,2.3 -5.6,8.8 -14.1,23.6 -2.3,4 -4.5,7.4 -5,7.7 -2,1.3 -3.5,-3.1 -4.4,-13.2 -1.1,-12.9 -2.3,-14.9 -6.4,-11 -1.6,1.5 -4.8,6.6 -7.2,11.3 -6.2,11.9 -8.4,13.3 -9.4,5.8 -0.2,-2.1 -1.4,-7.4 -2.6,-11.8 -1.2,-4.4 -2.8,-13.3 -3.6,-19.8 -0.8,-6.5 -1.7,-12.2 -2,-12.7 -0.9,-1.4 -3.1,-1.2 -4.5,0.5 z"
     id="path828"
     style="fill:#000000;stroke:none;stroke-width:0.1" />
  <path
     d="m 1177.3012,277.1023 c -2.7,1.3 -5.7,3.2 -6.6,4.2 -4.4,5.1 -6.3,20.7 -3.8,31.4 2.9,12.7 15.3,17.8 24.7,10.3 6.9,-5.6 9.2,-9.5 10.9,-18 0.9,-4.5 1.3,-9.2 1,-10.6 -1,-3.6 -6.9,-12 -9.4,-13.3 -1.2,-0.6 -3.2,-2.3 -4.3,-3.7 -2.6,-3.3 -5.7,-3.4 -12.5,-0.3 z m 14.3,8.4 c 5.1,4.7 5.2,4.9 5.2,10.5 0,13.7 -4.9,22.7 -13.3,24.2 -8.1,1.6 -12.1,-6 -11.5,-21.8 0.2,-7.6 0.7,-9.8 2.5,-12.3 2,-2.8 6.2,-4.8 10.8,-5.3 0.6,-0.1 3.4,2.1 6.3,4.7 z"
     id="path830"
     style="fill:#000000;stroke:none;stroke-width:0.1" />
  <path
     d="m 1299.0012,278.9023 c -0.5,0.7 -1.2,3.3 -1.4,5.8 -0.5,4.5 -2,10.9 -6.2,25.5 -3,10.1 -4.9,20.3 -4.1,21.5 0.9,1.4 4.9,1.2 6.3,-0.2 0.7,-0.7 1.2,-3.2 1.2,-5.7 0,-2.6 0.7,-7.1 1.4,-10.1 5.9,-22.7 7.6,-30 8.2,-33.8 0.6,-4 0.5,-4.2 -1.9,-4.2 -1.3,0 -2.9,0.6 -3.5,1.2 z"
     id="path832"
     style="fill:#000000;stroke:none;stroke-width:0.1" />
  <path
     d="m 1212.2012,287.1023 c -1.6,1.3 -1.7,1.8 -0.6,3.5 0.6,1.2 1.6,2.9 2.1,3.8 1.5,2.9 5.1,15.4 7.4,25.9 2,8.8 2.5,9.9 4.6,10.2 2.8,0.4 6.2,-2.5 9.7,-8.5 1.3,-2.4 2.9,-4.3 3.5,-4.3 1.2,0 3.7,5.7 4.6,10.3 0.8,4.7 5,9.9 7.6,9.5 2.5,-0.4 6.7,-6.2 6.7,-9.3 0,-2 4.4,-12.3 7,-16.5 0.5,-0.8 2.2,-4 3.7,-7 1.5,-3 3.5,-6.5 4.6,-7.7 1,-1.1 1.7,-3.2 1.5,-4.5 -0.2,-1.8 -0.9,-2.3 -3.2,-2.3 -2.6,0 -3.1,0.5 -4.4,4.5 -0.8,2.5 -4.2,9.7 -7.5,16 -3.3,6.3 -6.3,12.6 -6.6,13.9 -1.7,6.1 -4,3 -8.2,-11.2 -1.2,-4.3 -2.9,-8.3 -3.7,-8.9 -1.9,-1.6 -4.5,0.1 -5.6,3.8 -0.4,1.6 -1.7,4.8 -2.7,7.2 -2.5,5.5 -4.6,5.2 -6.6,-0.8 -0.7,-2.5 -1.8,-5.4 -2.3,-6.5 -0.5,-1.1 -1.8,-5 -2.9,-8.6 -2.5,-8.6 -4.8,-13.9 -5.9,-13.9 -0.4,0 -1.7,0.6 -2.8,1.4 z"
     id="path834"
     style="fill:#000000;stroke:none;stroke-width:0.1" />
  <path
     d="m 1288.8012,346.2023 c -0.7,0.8 -1,2.5 -0.6,4 0.9,3.4 4.3,3.3 5.8,-0.1 1.1,-2.2 1,-2.8 -0.7,-4 -2.4,-1.8 -3,-1.8 -4.5,0.1 z"
     id="path836"
     style="fill:#000000;stroke:none;stroke-width:0.1" />
  <path
     d="m 876.80117,436.7023 c -7,1.1 -17,4.8 -20.6,7.5 -1.8,1.4 -4.7,4.7 -6.5,7.5 -1.8,2.7 -3.6,5 -4.1,5 -0.5,0 -2.8,-1.8 -5.1,-4 -2.4,-2.1 -5.5,-4.4 -6.9,-4.9 -2.7,-1 -8.7,-0.6 -12.3,0.9 -1.1,0.4 -3.5,1.4 -5.3,2.1 -15.6,5.8 -25.9,38.3 -16,50.3 3.8,4.6 17.1,13.6 29.7,20.1 5.3,2.7 11.8,6.7 14.5,8.7 2.6,2 7.3,4.4 10.4,5.3 3.1,0.9 6.7,2 8,2.5 1.3,0.6 3,1 3.9,1 2.3,0 11.5,4.8 14.5,7.7 3.6,3.4 6,2.7 7.4,-2.4 1.8,-6 7.9,-18.9 17.6,-37.3 11.6,-21.8 12.4,-23.6 13.6,-30.8 1.7,-10.1 1.4,-20.8 -0.6,-26.1 -1.8,-4.5 -4,-6 -17.3,-12 -4.9,-2.2 -15.3,-2.7 -24.9,-1.1 z m 19.5,5.4 c 8.7,2.3 15.5,6.3 17.1,10.1 1.6,4 1.8,15.2 0.3,21 -0.6,2.2 -1.4,5.9 -1.9,8.2 -1,4.5 -5.1,12.6 -15.7,31 -2.2,3.9 -4.6,8.8 -5.3,10.9 -0.7,2.2 -2.1,5.1 -3.1,6.6 -1.1,1.4 -1.9,3.2 -1.9,4 0,0.8 -0.6,2.3 -1.4,3.3 -1.3,1.8 -1.6,1.8 -4.7,0.3 -4.2,-1.9 -8.6,-3.5 -16.4,-5.8 -7.5,-2.2 -13.8,-5 -18.9,-8.5 -2.2,-1.5 -8.1,-4.8 -13,-7.3 -5,-2.5 -11.1,-6 -13.6,-7.7 -2.5,-1.8 -6.6,-4.7 -9.2,-6.5 -5.5,-3.9 -6.3,-6.2 -6.2,-18 0.1,-6.3 0.6,-8.5 3.1,-13.5 4.3,-8.4 9.8,-13.8 16.9,-16.4 l 5.8,-2.2 4.4,2.3 c 2.4,1.2 7.3,5.3 10.8,9.1 4.2,4.6 6.9,6.7 8.1,6.5 1.2,-0.2 1.7,-1.1 1.4,-2.3 -0.2,-1.1 -0.4,-4.2 -0.5,-6.9 -0.1,-4.6 0.2,-5.1 5.2,-9.7 4,-3.7 6.2,-4.9 9.6,-5.4 2.5,-0.4 5,-0.4 5.6,0 0.6,0.4 2,-0.1 3,-1 3.7,-3.4 12.5,-4.3 20.5,-2.1 z"
     id="path838"
     style="fill:#1755d1;stroke:none;stroke-width:0.1;fill-opacity:1" />
  <path
     d="m 1491.2012,451.8023 c -0.6,1 -3.2,9.8 -6.3,21.4 -0.5,1.6 -2.5,6.5 -4.5,10.8 -2,4.3 -3.6,8 -3.6,8.3 0,0.2 -1.2,2.2 -2.6,4.4 l -2.7,4 h -8.2 c -4.5,0 -12.2,-0.7 -17.2,-1.6 -5,-0.8 -11.7,-1.4 -14.9,-1.2 -9.2,0.5 -8.6,1.9 6.8,17.3 7.3,7.3 14.9,15.1 16.8,17.2 2,2.1 4.4,4.3 5.5,4.9 1.8,1 1.9,1.4 0.6,8 -1.2,6.7 -3.7,16 -6.8,25.6 -2.5,8 1.3,11.5 6.8,6.2 1.5,-1.5 3.7,-3.2 4.8,-3.8 5.4,-3.1 11.2,-5.5 16.6,-7.1 3.3,-0.9 8.4,-3 11.3,-4.6 2.9,-1.6 5.8,-2.9 6.4,-2.9 1.3,0 13,9.5 17.2,13.9 1.7,1.7 3.4,3.1 4,3.1 0.6,0 3.1,2.1 5.7,4.6 7.3,7.2 9.1,4.1 4.1,-6.9 -4.1,-8.8 -5.6,-15 -4.4,-17.4 1.2,-2.1 -0.1,-10 -1.9,-11.8 -2.5,-2.5 -0.5,-5.4 11.2,-16.5 6.7,-6.3 13.9,-12.7 16,-14.2 4.2,-3 4.8,-4.8 2.4,-6.8 -1.1,-0.9 -2.2,-0.9 -5.2,0.2 -4.4,1.5 -28.5,1.4 -32.7,-0.2 -1.5,-0.5 -2.9,-1.8 -3.3,-2.7 -0.3,-1 -1.1,-2.5 -1.8,-3.3 -1.2,-1.5 -4.5,-11.3 -4.5,-13.4 0,-0.6 -0.7,-2.5 -1.6,-4.1 -0.8,-1.7 -1.9,-6.2 -2.4,-10 -0.4,-3.9 -1.7,-9 -2.9,-11.5 -1.1,-2.5 -2.1,-5.4 -2.1,-6.6 0,-3.7 -4.8,-6.1 -6.6,-3.3 z m 6.3,19.5 c 0.7,3.8 1.7,7.8 2.2,8.9 0.5,1.1 1.7,4.9 2.7,8.5 1,3.6 2.6,8.4 3.6,10.8 1,2.4 1.8,5.8 1.8,7.6 0,6.3 1.1,6.7 16.6,7.3 7.6,0.2 14.3,0.8 14.8,1.3 1,1 -5.4,8.6 -9.3,11.1 -1.5,0.9 -3.2,2.3 -4,3.2 -0.7,1 -1.9,1.7 -2.5,1.7 -0.7,0 -2.7,1.6 -4.6,3.5 -3.1,3.2 -3.2,3.6 -1.8,5.2 2.4,2.8 4.1,9.2 4.5,16.3 0.1,3.6 0.4,7.6 0.5,9 0.2,1.4 -0.2,2.5 -0.8,2.5 -0.7,0 -5.5,-3.9 -10.8,-8.8 -5.3,-4.8 -10,-8.7 -10.4,-8.7 -0.5,0 -2.7,1.4 -5,3.2 -2.3,1.8 -8.8,4.9 -14.5,6.9 -5.6,2 -11.7,4.2 -13.4,5 -5.2,2.1 -5.7,0.5 -2.8,-9.2 1.3,-4.6 2.5,-9.2 2.5,-10.2 0,-1.1 0.7,-3.4 1.6,-5.3 1.6,-3.2 1.5,-3.6 -0.2,-5.5 -1,-1.1 -3.7,-2.8 -6,-3.8 -2.3,-1.1 -5,-3.2 -6,-4.8 -1,-1.5 -5.7,-6.7 -10.6,-11.5 -11.8,-11.7 -11.7,-12.8 0.9,-10.2 8.7,1.8 27.3,2 30.4,0.4 1,-0.6 1.9,-1.8 1.9,-2.7 0,-1.7 5.8,-15.9 9.5,-23.3 0.7,-1.4 1.8,-5 2.6,-8 2.4,-10.4 4.8,-10.5 6.6,-0.4 z"
     id="path840"
     style="fill:#000000;stroke:none;stroke-width:0.1" />
  <path
     d="m 1003.0012,475.9023 c -2.3,2.3 -1.1,5.8 4.6,13.5 3.3,4.3 7.2,10.4 8.7,13.6 4.7,9.6 8.6,12.7 11.5,9.2 1.1,-1.3 0.9,-2 -1.2,-4.3 -1.4,-1.5 -4.2,-5.6 -6.3,-9.2 -2,-3.6 -4.7,-7.6 -6,-9 -1.3,-1.4 -3.3,-4.5 -4.5,-7 -3.4,-7 -3.6,-7.4 -4.6,-7.7 -0.5,-0.2 -1.5,0.2 -2.2,0.9 z"
     id="path842"
     style="fill:#000000;stroke:none;stroke-width:0.1" />
  <path
     d="m 1077.5012,477.4023 c -0.3,0.5 -0.5,8.7 -0.5,18.3 -0.1,14.6 0.2,17.8 1.5,19.2 0.9,1 2.4,1.8 3.3,1.8 3.6,0 5.3,-4.6 2.5,-7 -1.1,-0.9 -1.5,-4.5 -1.7,-16.9 -0.3,-15.1 -0.4,-15.6 -2.5,-15.9 -1.1,-0.2 -2.3,0.1 -2.6,0.5 z"
     id="path844"
     style="fill:#000000;stroke:none;stroke-width:0.1" />
  <path
     d="m 1154.5012,494.4023 c -4.3,7.1 -9.4,17.8 -10.1,21.1 -0.3,1.8 -2.4,5.5 -4.7,8.2 -3.2,3.8 -4,5.4 -3.7,8.1 0.2,1.8 0.8,3.4 1.4,3.6 1.8,0.6 7.4,-4.7 7.4,-6.9 0,-1.1 0.8,-3.2 1.8,-4.6 1,-1.5 2.4,-4.4 3.1,-6.5 1.6,-4.9 5.5,-13 8.6,-18.2 2.8,-4.7 3.1,-7.1 0.9,-7.9 -2.3,-0.9 -2.2,-0.9 -4.7,3.1 z"
     id="path846"
     style="fill:#000000;stroke:none;stroke-width:0.1" />
  <path
     d="m 981.70117,532.4023 c -8.1,8.4 -19,24.2 -23.6,34.3 -3.3,7.3 -4.3,9.9 -4.3,11.3 0,0.9 -0.4,1.8 -0.9,2.1 -0.5,0.3 -1.1,1.8 -1.4,3.3 -3,15.1 -3.7,19.5 -3.7,24.2 0,2.9 -0.5,7 -1.1,9.1 -1.3,4.3 -0.4,13.1 3,30.5 2.6,12.8 3.9,17.8 5.6,22 0.7,1.6 2,5 2.9,7.5 1.7,4.9 9,19.6 10.8,21.8 0.9,1 0.8,2.3 -0.1,5 -1.5,4.2 -7.2,13.2 -9.5,15.1 -0.9,0.8 -1.6,2 -1.6,2.7 0,0.7 -1.8,3.7 -4,6.6 -2.2,2.9 -4.2,6.6 -4.6,8.3 -0.4,1.6 -1.4,4 -2.2,5.3 -1.5,2.3 -1.8,2.3 -11.1,1.6 -10.4,-0.7 -22.2,-3.3 -27.3,-5.9 -1.8,-0.9 -5.1,-2 -7.3,-2.5 -2.2,-0.5 -5.8,-1.4 -8,-2 -2.2,-0.6 -7.4,-1.9 -11.5,-2.9 -8.8,-2.2 -10.9,-3 -21.6,-8.1 -4.4,-2.2 -13.2,-5.6 -19.5,-7.6 -6.3,-2 -14.4,-5.1 -18.2,-7 -3.7,-1.8 -9.3,-4.1 -12.5,-5.1 -9.8,-3 -36.2,-18 -40.2,-22.8 -1.7,-2 -3.3,-1.9 -5.5,0.5 -1.7,1.9 -1.7,2.1 0,5.3 1,1.9 3,5.1 4.6,7.3 2.5,3.6 4,6.2 7.2,13.4 0.7,1.4 3.5,6.2 6.4,10.7 2.9,4.5 5.3,8.6 5.3,9.1 0,0.5 0.6,2.2 1.4,3.8 0.8,1.6 2.4,5.4 3.7,8.4 3,7 6.6,13.8 18.1,35 7.7,14.2 10.6,19.5 15.2,28.5 6.3,12.3 10.4,18.6 19.2,29.9 3.8,4.9 9.2,12.3 12.1,16.5 14.1,20.7 29.4,37.6 39.3,43.4 2.5,1.4 6.5,4.4 9,6.6 2.5,2.2 5.1,4.1 5.7,4.1 0.7,0 2,1.1 2.9,2.5 1.9,2.9 5,4.1 6.9,2.5 1.1,-0.9 1.2,-3.4 0.8,-11.8 -0.3,-5.9 0,-15.7 0.7,-21.7 0.6,-6.1 1.5,-15.3 2,-20.5 0.8,-9.2 3.4,-25.5 4.6,-29.4 0.3,-1 1,-4.1 1.4,-7 0.4,-2.8 2,-9.6 3.5,-15.1 1.4,-5.5 3.2,-12.5 3.9,-15.5 0.8,-3 2.8,-9.6 4.6,-14.5 1.7,-5 3.6,-10.6 4.2,-12.5 1.3,-4.6 6.3,-17.3 9.1,-23 5.6,-11.7 16.7,-27 19.6,-27 0.8,0 2.7,1.2 4.2,2.6 3.1,3 4.9,2.5 4.9,-1.4 0,-2 -1.5,-4.2 -5.3,-7.9 -6.7,-6.5 -13.1,-18.4 -17.9,-32.9 -5.8,-17.7 -9.7,-37.2 -9.3,-46.4 0.4,-8 4.4,-34.8 6,-39.6 1.8,-5.3 8.1,-18.3 9.9,-20.3 0.8,-0.9 2.1,-3.2 3,-5.1 2.7,-5.9 13.9,-22.6 17.1,-25.3 2.5,-2.1 2.8,-2.7 1.6,-4.1 -0.7,-0.9 -1.6,-1.6 -2,-1.6 -0.4,0 -3.2,2.6 -6.2,5.7 z m -193.7,165.8 c 1.5,1.3 3.8,2.7 5,3.1 1.3,0.3 3.4,1.4 4.8,2.3 1.4,1 5.2,2.5 8.5,3.5 3.3,0.9 9.8,3.5 14.5,5.6 4.7,2.1 12.6,5 17.5,6.6 5,1.5 14,5.1 20.2,8.1 7.6,3.7 15.5,6.5 24.5,8.8 7.3,1.8 16.7,4.5 20.8,6 9.1,3.3 17.8,5.2 28.9,6.5 4.6,0.5 8.9,1.4 9.4,1.9 0.7,0.7 -0.6,5.9 -4.1,16.3 -6.3,19 -8.8,27.9 -9.6,34.2 -0.3,2.7 -1.1,5.4 -1.6,6.1 -0.6,0.7 -1.4,4.5 -2,8.6 -0.5,4.1 -1.8,11.4 -2.9,16.4 -1,4.9 -2.2,12.8 -2.6,17.5 -0.3,4.7 -1.4,13.9 -2.2,20.5 -0.9,6.6 -1.7,14.7 -1.7,18 -0.1,5.2 -0.4,6 -2.1,6.3 -3.3,0.5 -20.2,-12.4 -30,-22.9 -10.8,-11.4 -14,-15.6 -31.7,-41.2 -1.8,-2.7 -5,-6.9 -7.1,-9.5 -2.1,-2.6 -4.8,-6.4 -6,-8.6 -7.1,-12.6 -8.8,-15.8 -12.1,-22.2 -1.9,-3.9 -4,-8.2 -4.6,-9.5 -0.6,-1.3 -1.9,-3.8 -3,-5.4 -1.1,-1.7 -3.1,-5.3 -4.5,-8.2 -1.4,-2.8 -4.8,-9 -7.5,-13.7 -2.8,-4.8 -5,-8.9 -5,-9.2 0,-0.2 -2,-4.7 -4.5,-10 -2.5,-5.2 -4.5,-10 -4.5,-10.7 0,-0.7 -1.7,-3.7 -3.8,-6.7 -8,-11.6 -11.5,-19.4 -9.5,-21.4 1.2,-1.1 5.4,0.3 8.5,2.9 z"
     id="path848"
     style="fill:#000000;stroke:none;stroke-width:0.1" />
  <path
     d="m 1168.5012,541.4023 c -1.7,1.7 -0.1,4.1 7.6,11.3 5.3,5.1 9.1,9.7 10.9,13.2 8.5,17.2 10.8,22.3 10.8,24.7 0,1.4 0.7,5.1 1.5,8.1 3.7,14 4.1,38.9 0.9,51 -5.9,22.1 -8.4,28.9 -11.8,32.8 l -2.1,2.4 2.4,1.9 c 1.3,1.1 3.9,1.9 6,1.9 2.5,0 6.6,1.5 11.9,4.2 9.7,5.1 15.3,9.2 23.9,17.4 3.4,3.4 8.4,7.7 11,9.5 2.5,1.9 6,5 7.7,6.8 1.7,1.9 7,7.6 11.7,12.5 7.3,7.7 20.9,24.7 20.9,26.1 0,0.2 1.3,2.3 2.8,4.7 5.9,8.9 19.6,30.7 22.2,35.3 0.9,1.6 2.9,6.1 4.4,10 1.6,3.8 3.7,8.6 4.7,10.5 2,3.7 6.1,16 7.4,22 0.4,1.9 1.4,4.4 2.1,5.5 0.8,1.1 1.4,3.1 1.4,4.6 0,4.8 6.1,7.8 8,3.9 1.9,-4.1 6.9,-13.1 8,-14.5 1.7,-2.1 7.9,-14.4 8.8,-17.6 0.6,-1.9 2.5,-7.2 4.2,-11.9 1.8,-4.7 3.6,-10.4 4.1,-12.8 0.5,-2.4 1.2,-4.8 1.5,-5.4 0.4,-0.6 1.3,-3.8 2,-7.2 0.7,-3.4 1.7,-7.9 2.3,-10.1 0.6,-2.2 1.5,-6.7 2.1,-10 0.7,-3.3 1.8,-7.5 2.6,-9.3 0.8,-1.8 1.4,-5.2 1.4,-7.6 0,-2.4 0.5,-6.8 1.1,-9.7 1.6,-8.4 2.9,-21 3.8,-38.8 0.8,-15.8 0.5,-24.3 -2.1,-46.6 -0.6,-5.5 -1.2,-18.1 -1.3,-28 -0.2,-29.3 -1.8,-39.5 -5.9,-39.5 -1.5,0 -4.6,4.2 -4.6,6.1 0,0.7 -0.9,3 -1.9,5.3 -8.6,18.3 -11.7,24.3 -14.2,28.1 -1.6,2.3 -2.9,4.8 -2.9,5.4 0,0.7 -0.8,2.4 -1.9,3.9 -3.3,4.8 -10.7,16.6 -13.6,21.7 -1.6,2.7 -3.9,6.3 -5.2,8 -7.2,9.1 -20.4,27.7 -22.2,31.3 -1.2,2.3 -6.5,8.6 -11.8,13.9 -5.4,5.4 -11.9,12.4 -14.6,15.6 -2.7,3.2 -5.5,5.7 -6.2,5.5 -1.4,-0.3 -13.5,-13.6 -13.5,-14.7 0,-0.4 -2.8,-2.7 -6.1,-5.1 -3.4,-2.5 -9.6,-7.7 -13.8,-11.5 -12.6,-11.5 -16.3,-14.2 -25.1,-18.3 -4.7,-2.1 -9.3,-4.2 -10.2,-4.5 -2.1,-0.7 -2.2,-2.4 -0.7,-6.4 1.6,-4 6.9,-23 7.8,-27.8 0.4,-2.3 1.1,-4.7 1.5,-5.4 1.5,-2.4 0.6,-28.2 -1.3,-38.6 -3.1,-16.4 -5.3,-24.9 -7.3,-27.4 -1,-1.3 -1.8,-3 -1.8,-3.8 0,-0.8 -0.8,-2.7 -1.7,-4.1 -2.9,-4.3 -4.1,-6.5 -6,-10.1 -2.1,-4.3 -17.2,-19.1 -19.3,-19.1 -0.9,0 -2,0.3 -2.3,0.7 z m 199,72.9 c 1,3.6 1.1,7.6 0.4,15.6 -0.7,8 -0.6,13.1 0.5,20 0.8,5.1 1.4,11.6 1.4,14.5 0,2.8 0.5,6.4 1,7.8 0.6,1.5 1,9.1 1,16.8 -0.1,7.8 -0.1,15.8 0,17.7 0.2,12.8 -7.5,62.5 -12.5,79.5 -1.2,4.4 -3.1,11.6 -4.1,16 -0.9,4.4 -2.8,10.5 -4.2,13.5 -1.3,3 -3.2,8 -4.2,11 -3.7,11.4 -11.1,24 -14.2,24 -1.1,0 -3.9,-5.8 -5.3,-11 -2.6,-9.7 -16.9,-41.6 -20.4,-45.5 -1,-1.1 -2.6,-3.4 -3.5,-5 -0.9,-1.7 -2.2,-3.9 -2.9,-5 -3.3,-5.5 -9.9,-15.8 -14.3,-22.5 -2.7,-4.1 -5.1,-8 -5.4,-8.6 -0.3,-0.6 -2.3,-3.2 -4.4,-5.7 -5.3,-6.4 -5.2,-6.6 15.9,-28.1 5.3,-5.4 10.2,-10.8 10.9,-12 2.3,-3.6 11,-16.7 13.1,-19.6 1.1,-1.6 4.7,-6.5 8,-11 3.3,-4.5 7.4,-10.6 9,-13.6 1.7,-2.9 3.9,-6.3 5,-7.6 1.2,-1.3 2.7,-3.7 3.5,-5.3 0.8,-1.7 2.7,-4.9 4.3,-7.1 1.5,-2.3 2.7,-4.5 2.7,-5 0,-0.4 0.6,-1.5 1.4,-2.3 0.8,-0.9 3.3,-5.3 5.5,-9.8 2.2,-4.5 4.5,-8.4 5.1,-8.8 0.5,-0.3 1,-1.2 1,-2 0,-2.7 2,-6.7 3.2,-6.3 0.7,0.3 1.8,2.7 2.5,5.4 z"
     id="path850"
     style="fill:#000000;stroke:none;stroke-width:0.1" />
  <path
     d="m 1019.8012,574.4023 c -1.4,0.3 -3.1,1 -3.8,1.5 -0.7,0.6 -2.7,1.8 -4.4,2.8 -2.7,1.4 -3.4,2.6 -4.6,7.7 -1.8,7.5 -1.3,9.7 3.3,15.1 2.8,3.2 4.6,4.4 7.6,4.8 2.2,0.4 4.2,1.1 4.5,1.5 0.9,1.6 6.8,0.9 10.1,-1.1 1.8,-1.1 3.9,-3.6 4.8,-5.7 4.9,-11.6 3.5,-19.5 -4.3,-24.4 -4.4,-2.8 -7.3,-3.3 -13.2,-2.2 z m 12.1,6.9 c 1.8,2.2 2.3,12.3 0.7,15.4 -1.8,3.4 -4.2,3.2 -4.8,-0.5 -0.9,-5.3 -7.3,-4 -6.8,1.4 0.4,3.6 -3.5,4.1 -6.9,0.9 -2.3,-2.1 -2.5,-2.8 -2,-8.3 0.7,-8.1 3.5,-10.5 12.3,-10.5 4.4,0 6.5,0.5 7.5,1.6 z"
     id="path852"
     style="fill:#000000;stroke:none;stroke-width:0.1" />
  <path
     d="m 1126.5012,585.3023 c -2.7,1.4 -5.9,4.2 -7.4,6.5 -2.2,3.3 -2.5,4.6 -1.9,8.5 1.4,10.4 10.9,18.3 20.3,16.9 3.6,-0.5 5.4,-1.6 8.9,-5.2 3.9,-4 4.4,-5 4.6,-9.6 0.4,-10.2 0,-12 -3.7,-15.6 -3.1,-3.2 -4.1,-3.5 -9.7,-3.8 -5.2,-0.2 -7.2,0.2 -11.1,2.3 z m 16.1,4 c 1.9,1.3 2.2,2.4 2.2,8.5 0,8.3 -1.5,9.7 -5.9,5.5 -3.4,-3.3 -5.8,-3.3 -7.3,0 -1.1,2.4 -1,2.9 1.7,5 2.4,1.9 2.7,2.6 1.7,3.6 -2.1,2.1 -8.2,-1.9 -10.4,-6.8 -2.4,-5.6 -1.5,-9.5 3.3,-13.9 3.2,-2.8 4.7,-3.5 8.2,-3.5 2.3,0 5.3,0.7 6.5,1.6 z"
     id="path854"
     style="fill:#000000;stroke:none;stroke-width:0.1" />
  <path
     d="m 1065.0012,609.7023 c -5.1,2.6 -10,5.4 -11,6.3 -0.9,0.8 -4.4,2.4 -7.7,3.6 -3.3,1.1 -10.7,3.6 -16.4,5.6 -5.7,1.9 -10.9,3.9 -11.5,4.4 -0.6,0.5 -2.7,1.2 -4.6,1.6 -5.1,1.1 -17.00003,5.1 -20.80003,7 -1.7,0.9 -3.7,2.6 -4.3,3.7 -1.7,3.2 1.2,5.2 12.40003,8.7 16.5,5.1 29.5,9.2 40.7,12.9 5.8,1.9 12.1,3.8 14,4.3 1.9,0.4 7.1,1.7 11.5,2.8 28.3,7 28.9,7.1 28.3,3 -0.3,-2.2 -6,-4.5 -16.3,-6.7 -10.2,-2.1 -19.5,-4.5 -37.5,-9.9 -10.2,-3 -22.5,-6.6 -27.5,-7.9 -9.6,-2.7 -13.9,-4.8 -13.2,-6.7 0.2,-0.7 4.4,-2.6 9.3,-4.3 4.9,-1.7 9.6,-3.3 10.4,-3.7 2.6,-1.1 10.1,-3.6 21.1,-7.2 6.3,-2 13.2,-5 16.9,-7.4 3.5,-2.3 6.9,-4.1 7.6,-4.1 0.7,0 2.5,-0.7 4.1,-1.5 1.5,-0.9 4.1,-2 5.6,-2.5 2.3,-0.8 2.8,-1.5 2.5,-3.8 -0.4,-4 -2.9,-3.6 -13.6,1.8 z"
     id="path856"
     style="fill:#000000;stroke:none;stroke-width:0.1" />
  <path
     d="m 484.20117,664.4023 c -6,9.9 -12.7,19.3 -13.7,19.3 -2.3,0 -10.2,-2.8 -15.2,-5.3 -6.6,-3.3 -13.1,-6.1 -17.9,-7.8 -2.1,-0.8 -4.9,-2.4 -6.3,-3.6 -2.8,-2.7 -4.6,-2.9 -6.4,-0.7 -1.1,1.3 -1,2.1 0.4,4.7 0.9,1.8 2.3,6.1 3.2,9.6 0.9,3.5 2.9,10.3 4.6,15.1 1.6,4.8 2.9,9.7 2.9,10.7 0,2.2 -2.7,4.9 -8.4,8.3 -2.1,1.3 -5.8,4.3 -8.2,6.6 -2.4,2.4 -7.5,6.4 -11.4,8.9 -13.1,8.4 -11.2,10.2 10.6,9.6 28,-0.8 27,-0.8 30.4,2.4 1.6,1.6 3,3.3 3,3.8 0,0.5 0.8,2.1 1.9,3.5 1,1.5 3,5.6 4.4,9.2 1.4,3.6 3.7,8.7 5,11.5 1.3,2.7 2.7,6 3.1,7.1 0.4,1.2 1.5,2.9 2.6,3.9 1.9,1.7 2.1,1.7 4,0 1.2,-1.1 2,-3.1 2,-5 0,-13.2 8.8,-33.2 16.2,-36.9 1.8,-1 5.1,-2.1 7.3,-2.6 2.2,-0.5 8.3,-2.1 13.5,-3.5 5.2,-1.3 12.2,-2.7 15.5,-3.1 11.8,-1.3 13.1,-7.2 1.9,-8.7 -4.2,-0.5 -14.9,-3.5 -23.9,-6.7 -2.7,-1 -6.3,-2.2 -8,-2.7 -3.9,-1.1 -4.5,-4.1 -5,-25.3 -0.5,-19.3 -0.7,-22.1 -1.8,-23.8 -1.4,-2.1 -4.6,-1.3 -6.3,1.5 z m 2.2,18.3 c 0.2,15.8 1.6,31.5 3.1,33.1 0.8,1 6.4,2.8 13.1,4.4 20.6,4.7 20.6,4.8 -9.2,12.7 -9.5,2.5 -14.6,5.9 -14.6,9.7 0,1.2 -1.6,5.6 -3.5,9.7 -1.9,4.1 -3.5,8.3 -3.5,9.3 0,2.3 -2.5,4.5 -4.4,3.8 -0.7,-0.3 -2.1,-2.7 -3,-5.4 -1,-2.6 -3,-7.5 -4.5,-10.8 -1.6,-3.3 -3.4,-7.6 -4.1,-9.5 -2.4,-6.3 -1.8,-6.1 -20.2,-5.8 -21,0.3 -21.8,-0.1 -13.5,-7.7 3.2,-2.9 7.7,-6.3 10.1,-7.6 10,-5.5 12.6,-7.8 12.6,-10.9 0,-1.6 -1.1,-4.5 -2.4,-6.5 -3,-4.4 -8,-19.9 -7.2,-22.1 0.5,-1.3 1.5,-1.5 4.2,-1.1 5.2,0.9 16.3,6.5 18.1,9.3 0.9,1.5 2.5,2.4 4.1,2.4 1.4,0 3.7,1 5,2.2 l 2.4,2.3 4.5,-4.9 c 2.4,-2.7 5.6,-7.2 6.9,-9.8 1.7,-3.4 3,-4.8 4.2,-4.6 1.4,0.3 1.7,1.6 1.8,7.8 z"
     id="path858"
     style="fill:#000000;stroke:none;stroke-width:0.1" />
  <path
     d="m 610.80117,770.2023 c -1,1.2 -0.3,2.5 3.5,7.4 2.6,3.3 5.3,6.2 6.1,6.5 0.8,0.3 1.4,1 1.4,1.7 0,0.6 2.6,4.1 5.8,7.7 3.1,3.7 9.1,10.6 13.2,15.4 4.1,4.7 10.9,12.6 15,17.5 4.1,4.8 11.6,12.8 16.5,17.8 9.2,9.3 22.7,23.4 41.4,43.4 5.8,6.2 13.7,14.3 17.4,17.9 3.7,3.6 9.3,9.8 12.4,13.7 3.1,3.8 7.9,9.3 10.7,12.1 2.8,2.8 7.2,7.8 9.8,11.2 4.4,5.7 4.8,6.7 6.2,15.9 0.9,5.4 1.8,17.2 2,26.3 0.3,9.1 1,20.8 1.6,26 0.7,5.2 1.3,23.5 1.4,40.6 0.2,17.1 0.7,31.7 1.2,32.5 0.5,0.8 1,13.5 1.1,28.4 0.1,27.5 0.4,34.4 2.2,61 0.6,8.2 1.8,27.1 2.6,41.8 0.8,14.7 2.4,32.7 3.5,40 1.6,11 3.6,46.5 3.2,57.2 -0.1,4.8 -0.3,42.7 -0.1,45.5 0,1.4 -0.2,4.4 -0.6,6.6 -0.7,3.8 -0.5,4.4 1.9,5.9 2.7,1.8 4.2,1.8 14.9,-0.4 8.4,-1.7 32.3,-3.3 53.7,-3.5 10.2,-0.1 24.1,-0.7 31,-1.5 8.4,-0.9 18.7,-1.1 31.5,-0.7 26.8,0.8 56.7,0.6 63.2,-0.4 3,-0.5 7.5,-0.7 9.8,-0.3 2.6,0.3 7.40003,-0.1 11.90003,-1.2 4.8,-1 11.4,-1.6 17.4,-1.5 5.3,0.1 13.8,-0.4 18.7,-1 5,-0.5 16.2,-1.4 25,-2 8.8,-0.5 21.4,-1.4 28,-1.9 6.6,-0.6 19.2,-1.5 28,-2.2 8.8,-0.6 20.5,-1.7 26,-2.4 9.5,-1.3 38.8,-3.2 43,-2.8 1.1,0.1 6.1,-0.5 11.1,-1.3 7.2,-1.1 14.2,-1.3 32.7,-0.8 l 23.5,0.7 1.5,-2.4 c 1.3,-2.1 1.5,-7.5 1.2,-40.4 -0.2,-20.9 -0.9,-40.9 -1.5,-44.5 -0.5,-3.6 -1.4,-11 -1.9,-16.5 -1.1,-12.1 -3.8,-35 -5,-42.5 -0.5,-3 -0.9,-33.6 -0.9,-68 0,-48 -0.4,-67.6 -1.6,-84.5 -0.9,-12.1 -1.9,-27.4 -2.1,-34 -0.3,-6.6 -1,-16.2 -1.5,-21.4 -0.6,-5.1 -1,-16.4 -0.9,-25 0.1,-15.1 -1.3,-29.3 -3.3,-33.8 -1.9,-3.9 -1.1,-4.7 10.2,-9.5 3,-1.3 10.9,-4.1 17.5,-6.2 17.1,-5.4 17.3,-5.5 24.5,-8.3 3.6,-1.4 10.6,-4 15.5,-5.8 5,-1.8 11.5,-4.2 14.5,-5.3 3,-1.1 8.7,-3 12.5,-4.2 3.9,-1.3 7.9,-2.9 9,-3.6 1.1,-0.8 2.9,-1.4 4,-1.4 1.1,0 3.2,-0.6 4.7,-1.4 1.4,-0.8 4.6,-1.7 6.9,-2.1 2.4,-0.4 5,-1.1 5.9,-1.5 5.8,-2.8 9.5,-4.3 16.5,-7 4.4,-1.6 9.8,-3.9 12,-4.9 12.2,-5.9 19.5,-9.1 20.5,-9.1 0.6,0 2.7,-1 4.8,-2.3 3.3,-2 9.8,-4.4 17.2,-6.2 1.4,-0.4 6.8,-1.8 12,-3.1 5.2,-1.4 11.5,-3 14,-3.6 2.5,-0.6 5,-1.4 5.5,-1.8 0.6,-0.4 2.9,-1 5.2,-1.4 2.4,-0.3 6,-1.5 8,-2.5 2.1,-1.1 5.6,-2.3 7.8,-2.7 6.6,-1.1 9.6,-5.4 5.9,-8.5 -1.3,-1 -2,-1 -4.3,0.4 -1.6,0.9 -5.3,2.3 -8.3,3.1 -3.1,0.8 -6.4,1.9 -7.4,2.5 -1.1,0.6 -5.5,2 -9.9,3.1 -4.4,1.2 -8.9,2.5 -10,3 -1.1,0.5 -3.3,1.1 -5,1.4 -3.1,0.5 -8.2,1.7 -17.5,4.4 -5.2,1.4 -17.1,6.3 -28.5,11.6 -13.2,6.2 -16.2,7.6 -16.8,7.6 -0.3,0 -3.4,1.3 -6.9,2.9 -3.5,1.6 -8.1,3.4 -10.3,4.1 -2.2,0.7 -5.3,1.8 -7,2.6 -1.6,0.7 -6.6,2.4 -11,3.8 -8.5,2.6 -13,4.3 -21.1,8.1 -2.8,1.3 -7.1,2.9 -9.5,3.5 -6.5,1.7 -15.6,4.9 -22.4,8 -3.3,1.5 -8.2,3.3 -11,4 -6.4,1.6 -25.1,7.7 -29,9.4 -1.6,0.8 -5.2,2.2 -8,3.1 -2.7,1 -7.5,2.9 -10.5,4.3 -5.3,2.4 -6.1,2.5 -22.5,2.1 -19.8,-0.4 -20.1,-0.4 -57.5,1.6 -15.7,0.8 -38.5,1.5 -50.7,1.5 -21.4,0 -26.2,0.3 -56.3,3.5 -29.9,3.1 -56.1,3.4 -133.00003,1.4 -41.3,-1 -51.6,-0.8 -67.5,1.6 -4.9,0.8 -13.7,1.9 -19.5,2.5 -5.8,0.6 -15,2 -20.5,3.1 -6.5,1.3 -15.7,2.2 -26.3,2.5 l -16.3,0.5 -3.7,-3.8 c -12.4,-12.9 -25.8,-27.6 -27.3,-30 -1,-1.6 -5.8,-6.6 -10.6,-11.3 -4.9,-4.7 -16.2,-16.4 -25.3,-25.9 -9.1,-9.6 -20.3,-21.2 -25,-26 -7.5,-7.5 -13.4,-13.9 -25.9,-28.1 -14.2,-16.1 -25.2,-28.9 -28.4,-32.8 -13.8,-17.2 -14.3,-17.6 -16.7,-14.7 z m 617.80003,161.2 c 7.4,0.5 8.5,0.9 9.2,2.9 1.8,4.6 4.2,26.8 3.5,31.8 -1,7.1 -1,5.8 0.9,29.1 0.9,11.5 1.6,22.6 1.6,24.5 -0.1,1.9 0.3,10.7 0.9,19.5 2.6,43.2 2.7,44.7 2.1,59 -0.1,3.3 -0.1,18.6 0,33.9 l 0.3,28 -4.9,4.3 c -2.7,2.3 -5.8,4.6 -6.9,4.9 -1.1,0.4 -2.7,1.2 -3.5,1.9 -0.8,0.6 -5.3,2.7 -10,4.5 -4.7,1.8 -10.7,4.3 -13.5,5.5 -2.7,1.3 -8.6,4 -12.9,6 -4.4,2 -9.6,4.7 -11.6,6 -2,1.3 -5.9,3 -8.6,4 -2.7,0.9 -5.8,2.2 -6.9,2.9 -1.1,0.7 -5.4,2.5 -9.5,3.8 -4.1,1.4 -9.5,3.5 -12,4.6 -2.5,1.1 -7,3 -10,4.2 -2.9,1.2 -7,3.2 -9,4.4 -1.9,1.2 -4.8,2.8 -6.5,3.6 -1.6,0.8 -3.7,1.9 -4.5,2.5 -0.8,0.7 -4,2.2 -7,3.4 -4.8,2 -13.6,6 -28.5,13.2 -2.2,1 -4.4,1.9 -4.8,1.9 -0.5,0 -2.3,0.6 -4,1.4 -1.8,0.8 -7,2.9 -11.7,4.6 -4.7,1.8 -12.1,4.7 -16.6,6.6 -4.5,1.9 -8.6,3.4 -9.2,3.4 -0.6,0 -2.8,0.7 -4.9,1.6 -2.1,0.9 -4.7,2 -5.8,2.4 -1.1,0.4 -4,1.6 -6.5,2.8 -2.5,1.1 -6.9,3 -9.7,4.1 -2.9,1.2 -7.5,3 -10.20003,4.1 -2.7,1.1 -5.5,2 -6.2,2 -0.7,0 -3.1,0.8 -5.3,1.9 -2.3,1 -6.8,2.6 -10,3.6 -5.6,1.7 -6.4,1.7 -14.5,0.1 -4.7,-0.9 -10,-1.6 -11.7,-1.6 -1.7,0 -5.3,-0.7 -8.1,-1.5 -2.8,-0.8 -7.1,-1.9 -9.5,-2.4 -17,-3.6 -25,-5.8 -31.3,-8.7 -1.6,-0.7 -5.5,-2.1 -8.5,-3 -3,-0.9 -10.2,-3.3 -16,-5.4 -5.8,-2.1 -12.2,-4.2 -14.4,-4.5 -3.4,-0.6 -8.2,-2.3 -12.8,-4.6 -1,-0.5 -2.6,-0.9 -3.6,-0.9 -1.1,0 -3.6,-1.1 -5.6,-2.5 -2,-1.4 -4.4,-2.5 -5.2,-2.5 -1.6,0 -25.3,-10.2 -28.9,-12.4 -1.1,-0.7 -4.8,-2.3 -8.2,-3.5 -9.8,-3.6 -9.3,-2.2 -10.9,-32.8 -0.8,-14.7 -1.9,-32.2 -2.5,-38.8 -0.7,-6.6 -1.3,-24.4 -1.4,-39.5 -0.3,-42 -1.5,-84.2 -2.7,-97.5 -0.6,-6.6 -1.3,-15.8 -1.4,-20.5 -0.2,-4.7 -0.8,-14.8 -1.4,-22.5 -1.9,-25.3 -2,-24.7 1.5,-25.7 1.7,-0.5 7.5,-0.9 13,-0.9 5.5,-0.1 12,-0.5 14.5,-1.1 8.7,-1.9 15.7,-2.8 35.4,-4.8 11,-1.1 23.3,-2.4 27.5,-3 9.8,-1.3 28.6,-1.6 43,-0.7 12.1,0.8 71.8,1.9 93.10003,1.8 11,-0.1 24.2,-0.9 65,-4.2 5.8,-0.4 25.8,-1.2 44.5,-1.8 37.7,-1.1 80.8,-3 81.4,-3.7 0.7,-0.6 22.6,-0.5 31.9,0.3 z m 17.1,240.6 c 0.5,1.2 0.7,5.4 0.4,9.2 -0.3,4.5 0.5,13.8 2.2,26.5 1.5,10.7 3.1,24.7 3.6,31 0.5,6.3 1.3,13.5 1.9,16 0.5,2.5 1.3,12.3 1.7,21.7 0.5,14.3 0.4,17.3 -0.8,17.7 -5.2,1.7 -133,2.9 -164.4,1.6 -11.5,-0.5 -32,-1.4 -45.4,-2 -22.4,-0.9 -28.4,-1.5 -39.6,-3.9 -2.2,-0.5 -6.60003,-1.4 -9.70003,-1.9 -6.4,-1.2 -10.1,-2.9 -9.3,-4.2 0.7,-1.2 6.5,-4 8.2,-4 0.7,0 4.1,-1.3 7.60003,-2.8 3.4,-1.5 8.7,-3.4 11.8,-4 3.1,-0.7 6.5,-2.2 7.4,-3.2 1,-1.1 2.5,-2 3.3,-2 1.4,0 7.9,-2.7 12.4,-5.1 1,-0.5 2.7,-0.9 3.7,-0.9 2.3,0 6.5,-1.7 10.1,-4.1 1.4,-0.9 3.6,-1.9 5,-2.2 2.9,-0.6 9.9,-3.1 15,-5.4 4.6,-2 8,-3.4 10.5,-4.3 4.1,-1.5 7.2,-2.9 15.5,-6.8 14.9,-7 19.7,-9.2 20.4,-9.2 0.4,0 3.2,-1.6 6.2,-3.5 3,-1.9 6,-3.5 6.8,-3.5 0.7,0 2.1,-0.9 3.1,-2 1,-1.1 2.3,-2 2.9,-2 0.6,0 2.8,-0.9 4.9,-2 2,-1.1 4.3,-2 5,-2 0.7,0 3.3,-1 5.7,-2.1 2.5,-1.2 5.6,-2.5 7,-3 8.3,-2.6 23.6,-9.1 26.5,-11.3 1.9,-1.4 4,-2.6 4.9,-2.6 0.8,0 1.7,-0.4 2.1,-0.9 0.3,-0.5 2,-1.2 3.8,-1.6 1.7,-0.4 5,-1.7 7.2,-3 2.2,-1.2 8.1,-4 13,-6.1 5,-2.1 10.1,-4.6 11.4,-5.6 1.3,-1 2.9,-1.8 3.6,-1.8 0.7,0 3.6,-1.6 6.5,-3.5 6.1,-4.1 6.8,-4.2 7.9,-1.2 z m -447.60003,60.9 c 2.9,1.1 8,3.4 11.3,5 3.4,1.5 6.9,2.8 7.7,2.8 0.8,0 2,0.7 2.7,1.5 0.7,0.8 1.8,1.5 2.5,1.5 0.7,0 2.4,0.9 3.8,2 1.4,1.1 3.4,2 4.4,2 1.1,0 4.6,1.3 7.9,2.9 3.2,1.6 7.7,3.5 9.9,4.2 2.2,0.7 4.5,1.6 5,2 0.6,0.4 2.6,1 4.5,1.4 4.2,0.8 15.5,4.2 19,5.8 4.5,1.9 12.5,4.6 13.7,4.7 0.7,0 4.2,1.3 7.7,3 6.3,2.8 18.5,6.2 27.6,7.6 2.5,0.4 5,1.1 5.7,1.6 0.6,0.5 3.3,1.3 6,1.8 15.4,2.9 17.8,3.6 17.8,5 0,1.7 -2.6,3.1 -13.4,6.9 -4.3,1.6 -10.5,4.2 -13.7,5.9 -5.7,3 -8.8,4 -22.4,7.6 -3.6,1 -10.3,3.1 -15,4.8 -15.7,5.5 -21.6,6.6 -40.5,7.8 -7.7,0.5 -16.9,1.4 -20.5,2 -3.6,0.6 -10.8,1.5 -16.1,2 -5.3,0.4 -10.6,1.1 -11.7,1.4 -1,0.4 -3.1,0.2 -4.6,-0.4 -2.5,-0.9 -2.6,-1.2 -2.4,-8.2 0.4,-11.5 -1.2,-53.7 -2.2,-56.1 -1.2,-3.1 -3.4,-28.3 -2.6,-29.6 1,-1.5 2,-1.4 7.9,1.1 z m 186.2,58.8 c 3.9,1.1 8.8,2 11.1,2 2.2,0 4.4,0.4 5.00003,0.9 2.4,2.4 18.8,4.5 41.4,5.2 12.9,0.4 32.3,1.2 43,1.8 11,0.5 46.4,0.8 81,0.5 33.8,-0.3 64.9,-0.5 69,-0.5 4.1,-0.1 9.4,0 11.7,0.1 2.4,0.2 5,-0.3 5.8,-1 0.9,-0.7 1.8,-1 2.2,-0.7 0.3,0.4 0.8,8.6 1,18.3 0.6,24.1 2.4,22.5 -24.1,22.3 -26.9,-0.2 -52.3,0.8 -68.1,2.7 -7.1,0.9 -18.5,1.9 -25.2,2.4 -6.6,0.4 -12.5,1 -13.1,1.4 -0.5,0.3 -8.3,1 -17.3,1.5 -33.9,2.1 -47.7,3.1 -56.4,4.1 -4.9,0.6 -17.3,1.5 -27.5,2 -10.2,0.6 -24.60003,1.5 -32.00003,2.1 -16.7,1.4 -50.4,1.7 -75.5,0.6 -14.1,-0.6 -20.7,-0.5 -25.5,0.4 -3.6,0.7 -15.5,1.4 -26.5,1.5 -17.5,0.3 -48.4,2.2 -62.7,4 -4.5,0.6 -4.8,0.4 -5.8,-2.1 -0.6,-1.6 -0.9,-8.3 -0.8,-15.4 l 0.3,-12.6 3,-0.2 c 1.7,-0.2 8,-0.7 14,-1.2 6.1,-0.5 14.9,-1.6 19.7,-2.5 4.8,-0.9 15.1,-2.1 23,-2.6 10,-0.6 15.9,-1.5 19.8,-3 3,-1.1 6.1,-2 6.8,-2 0.8,0 2.8,-0.6 4.5,-1.4 5.3,-2.3 12.7,-4.6 24.2,-7.6 11.6,-2.9 18.9,-5.7 23.5,-9 1.6,-1.1 3.6,-2 4.5,-2 0.9,0 2.9,-0.6 4.3,-1.4 1.5,-0.8 5.6,-2.4 9.2,-3.6 3.6,-1.2 8,-2.9 9.9,-3.7 8.4,-3.8 12.7,-4 22.6,-1.3 z"
     id="path860"
     style="fill:#000000;stroke:none;stroke-width:0.1" />
  <path
     d="m 549.60117,889.8023 c -3,3.5 -6,7.4 -6.7,8.6 -1.8,3.5 -1.2,9.4 1.7,16 2.5,5.8 4.6,8.4 23.9,30 2.3,2.6 5.9,7.6 7.9,11 3.1,5.4 4.1,6.3 6.5,6.3 2.2,0 3.8,-1.2 7.3,-5.6 2.6,-3.1 4.6,-5.9 4.6,-6.4 0,-0.4 4.8,-5 10.8,-10.1 19.5,-16.9 23.5,-22.3 24.8,-33.1 0.7,-5.8 -0.9,-11.2 -3.8,-13.5 -1.8,-1.3 -11.5,-4.3 -14.1,-4.3 -3.8,0 -13.2,3.3 -16.7,5.9 -3.8,2.9 -7.8,5.1 -9,5.1 -0.4,0 -2.5,-2.5 -4.5,-5.5 -5.3,-7.7 -9.1,-9.7 -19.1,-10.3 l -8,-0.4 z m 22.6,2.1 c 3.8,2.6 6.4,6.3 7.9,11 0.3,0.9 1.8,2.4 3.2,3.4 2.5,1.6 2.7,1.6 5.4,-1 1.6,-1.5 5.9,-4.3 9.7,-6.2 5.8,-2.9 7.8,-3.4 14,-3.4 9.7,0 12.4,2 12.4,9.1 0,9.3 -4.9,15.4 -25.9,32.4 -4.1,3.3 -8.9,8.3 -10.8,11.2 -1.8,2.9 -4,5.3 -4.8,5.3 -0.9,0 -2.4,-1.5 -3.4,-3.3 -2.9,-4.9 -8.6,-11.9 -18.9,-23.1 -10.3,-11.1 -13.2,-16.3 -13.2,-23.5 0,-4.2 0.5,-5.4 4.1,-9.5 6.4,-7.3 12.4,-8 20.3,-2.4 z"
     id="path862"
     style="fill:#1755d1;stroke:none;stroke-width:0.1;fill-opacity:1" />
  <path
     d="m 1334.0012,922.9023 c -0.7,0.7 -1.2,4.1 -1.2,8.2 -0.1,12.3 -2.7,41.5 -5.4,59.2 -3,19.9 -5.2,30.5 -9.5,46.4 -3.3,12.1 -4.2,15.7 -8.9,36 -3,12.7 -4.4,16.4 -11.1,30 -2.1,4.1 -4.8,9.5 -6,12 -1.2,2.5 -3,6.1 -4.1,8 l -1.8,3.5 h -10.9 c -10.1,0.1 -10.8,0.2 -11.1,2.1 -0.6,3.8 2.2,4.8 14,4.8 l 11.1,0.1 1.5,4.5 c 2.9,8.7 8.2,23 9.2,25 2.4,4.8 2.8,5.8 3.5,9 0.4,1.9 1.1,3.9 1.5,4.5 0.4,0.5 2.4,6.8 4.4,14 2.1,7.1 4.2,14.1 4.8,15.5 1.2,2.9 2.6,7.9 3.8,13.5 0.4,2.2 1.5,6.5 2.4,9.5 0.9,3 2.1,9.3 2.6,14 0.5,4.7 1.4,11.6 2,15.5 2,12.9 2.9,25 2,25.9 -0.5,0.5 -1.5,0.6 -2.2,0.2 -3.8,-2 -6.2,-3.6 -8.9,-6.2 -2.4,-2.3 -3.3,-2.6 -4.7,-1.8 -3.4,2.2 -1.9,4.7 6.3,10.4 4.4,3.1 8.1,6.3 8.3,7.2 0.2,1 -1.5,3.7 -3.7,6.1 -4.4,4.8 -14,18.1 -17.1,23.8 -1.9,3.5 -1.9,3.7 -0.1,5.3 2.4,2.2 4.6,1.2 6.2,-2.7 0.7,-1.8 3.2,-6 5.6,-9.4 2.4,-3.4 4.3,-6.5 4.3,-7 0.1,-1.5 8.8,-10.3 10.2,-10.2 2.3,0.1 6.9,3.3 8.3,5.9 0.8,1.4 2.8,6.5 4.6,11.5 5.2,14.9 8.4,20.3 11.4,19.1 2.1,-0.8 1.1,-7.2 -1.6,-10.2 -1.1,-1.1 -1.9,-2.4 -1.9,-2.9 0,-0.5 -0.8,-2.7 -1.9,-4.9 -5.2,-11.4 -6.1,-13.8 -5.6,-14.6 1.1,-1.8 5.6,-1 9.8,1.7 6.8,4.5 8.1,5.3 10.3,6.2 1.2,0.5 4.7,3 7.9,5.6 3.1,2.6 8.2,6 11.3,7.7 3.2,1.7 6.2,3.5 6.9,4 0.7,0.5 2.2,0.8 3.5,0.6 1.8,-0.2 2.2,-0.8 2,-2.8 -0.4,-3 -3.3,-5.4 -8.3,-6.9 -2,-0.6 -6.5,-3 -9.9,-5.4 -8.7,-5.9 -11.1,-7.4 -14.5,-9.1 -3.9,-2 -5.9,-3.3 -11.8,-7.9 -2.7,-2 -5.8,-3.7 -6.8,-3.7 -1.1,0 -3.5,-0.6 -5.3,-1.4 -3.6,-1.5 -3.6,-1.6 -5.5,-15.2 -0.4,-3.4 -1.1,-6.5 -1.4,-7 -0.3,-0.5 -1,-6.1 -1.6,-12.4 -1.9,-19.7 -3.3,-29.4 -4.6,-31 -0.7,-0.8 -1.5,-3.3 -1.8,-5.5 -0.4,-2.2 -1.8,-6.8 -3.2,-10.2 -1.4,-3.5 -2.5,-7.3 -2.5,-8.6 0,-1.3 -0.4,-2.7 -0.9,-3.3 -0.5,-0.5 -1.6,-3.6 -2.6,-6.9 -0.9,-3.3 -2,-6.9 -2.5,-8 -0.4,-1.1 -1.7,-5.3 -3,-9.4 -1.2,-4.1 -3.8,-10.8 -5.7,-15 -8.7,-18.8 -11,-33.6 -6.6,-42.5 2.2,-4.3 9.9,-21.6 11.3,-25.1 0.4,-1.1 1.7,-4.5 2.9,-7.5 1.1,-3.1 2.1,-6.2 2.1,-7.1 0,-0.8 0.4,-1.9 0.8,-2.4 0.5,-0.6 1.5,-4.4 2.2,-8.5 0.7,-4.1 1.6,-9.1 2.1,-11 2.6,-11.4 5.1,-21.2 6.9,-26.5 2.1,-6.4 3.6,-13.9 4.9,-24.5 0.5,-3.6 1.6,-10.8 2.4,-16 0.9,-5.2 2,-12.9 2.6,-17 1.5,-10.8 3.5,-46.4 2.8,-48.4 -0.7,-1.9 -2.8,-2.1 -4.5,-0.4 z"
     id="path864"
     style="fill:#000000;stroke:none;stroke-width:0.1" />
  <path
     d="m 1492.3012,971.1023 c -2.2,2.4 -4.7,5.7 -5.5,7.2 -0.8,1.6 -2.1,3.7 -2.9,4.7 -2.4,2.8 -2.2,32.8 0.2,41.3 1.1,4 1.7,9.8 1.7,16.4 0,5.6 0.5,11 1.1,12.2 1,1.8 1.7,2 7.7,1.3 6,-0.6 8.1,-1.2 13.7,-3.6 1.1,-0.5 8.8,-2.6 17,-4.7 8.3,-2.1 16.4,-4.6 18,-5.7 11.3,-6.9 15.4,-10.6 17.9,-15.7 1.8,-3.5 2.2,-13.3 0.6,-14.3 -0.5,-0.3 -1,-1.4 -1,-2.5 0,-1 -1.6,-3.2 -3.5,-4.8 -4.5,-4 -9.8,-4.7 -20,-2.7 -13.6,2.7 -13,2.9 -13,-3.5 0,-3 -0.4,-7 -0.9,-8.9 -1,-4 -4.9,-11.7 -7.4,-14.4 -2.6,-3 -11.2,-6.7 -15.6,-6.7 -3.4,0 -4.6,0.6 -8.1,4.4 z m 17.8,4.9 c 1.2,0.8 3.5,4 5.1,7.2 2.4,4.9 2.8,6.8 2.9,14.3 0,4.8 -0.2,9.5 -0.4,10.6 -0.6,2.8 2.5,4.4 4.8,2.4 3,-2.6 8.2,-3.8 18.8,-4.4 9.4,-0.6 10.1,-0.5 12,1.5 1.3,1.6 2,4.1 2.3,8.6 0.4,6.3 0.3,6.6 -2.8,9.5 -6.1,5.7 -14,9.6 -25.5,12.5 -2.7,0.7 -10.2,2.8 -16.5,4.5 -6.3,1.8 -13.1,3.3 -15,3.4 l -3.5,0.1 -0.6,-9 c -0.4,-5 -1.3,-12.4 -2.2,-16.5 -0.9,-4.1 -1.9,-11.8 -2.3,-17.1 -0.6,-8.4 -0.4,-10.5 1.6,-16.5 1.3,-4.1 3.5,-8.3 5.4,-10.2 2.9,-3.2 3.4,-3.4 8.4,-2.9 3,0.3 6.3,1.2 7.5,2 z"
     id="path866"
     style="fill:#1755d1;stroke:none;stroke-width:0.1;fill-opacity:1" />
  <path
     d="m 289.50117,974.3023 c -0.3,0.4 -6.4,0.8 -13.5,0.9 -14.1,0.3 -17.7,1.3 -25.8,7.3 -4.3,3.1 -8.7,10.8 -13.4,23.4 -5,13.5 -6.2,31.9 -3.8,59.1 1.5,17.3 1.8,17 -12,17.7 l -9.7,0.5 -0.7,7.5 c -0.4,4.1 -0.3,16.9 0.3,28.3 0.5,11.4 0.8,21.1 0.5,21.5 -0.2,0.4 0,4.3 0.4,8.7 1.6,14.6 3,43.7 3.1,64.5 0.1,11.3 0.6,23.6 1.1,27.5 0.5,3.8 1.6,22.3 2.4,41 2.1,49.1 2.6,54 5.9,60.5 3.1,6.1 10.5,13.7 14.4,14.7 2.7,0.7 8.6,3.8 11.1,5.9 0.8,0.7 3.3,1.5 5.5,1.9 2.2,0.4 7.8,1.6 12.5,2.7 7.1,1.8 12.4,2.2 32,2.4 47.9,0.7 74.8,1.2 86.7,1.9 11,0.6 12.9,0.5 19.5,-1.6 6.1,-1.9 8.1,-3 12.4,-7.5 3,-3.2 5.5,-6.9 6.3,-9.4 1.5,-5 1.6,-23.2 0.2,-32 -0.5,-3.6 -1.2,-10.1 -1.6,-14.5 -0.3,-4.4 -1.2,-12.5 -2,-18 -4.5,-32.1 -4.9,-41.8 -6,-123.5 -0.2,-18.4 -0.7,-44.8 -1,-58.5 -0.6,-29.3 -0.3,-28.5 -10.8,-28.5 -3.3,0 -7.4,-0.4 -9.1,-0.9 -1.7,-0.6 -4.6,-1.3 -6.4,-1.8 -2.9,-0.7 -3.7,-1.6 -5.9,-6.8 -1.4,-3.3 -4.5,-13.4 -6.8,-22.5 -5.4,-21 -10.4,-34.9 -15.2,-42.3 -4,-6.3 -14.9,-15.7 -21,-18.2 -2.1,-0.9 -4.7,-2.4 -5.8,-3.4 -2.8,-2.6 -7.4,-4.7 -11.9,-5.5 -2.2,-0.4 -4.9,-1.4 -6,-2.2 -1.5,-1 -5.3,-1.4 -13.7,-1.4 -6.3,0 -11.8,0.3 -12.2,0.6 z m 29.6,8.1 c 0.6,0.6 3.3,1.6 5.9,2.3 2.6,0.7 5.6,2.3 6.9,3.6 1.2,1.2 3.5,2.6 5.1,2.9 1.9,0.5 6.2,3.9 11.7,9.3 6.8,6.8 9,9.8 10.3,13.7 3.1,9.5 6,17 6.8,18 0.5,0.5 1.3,3.2 1.8,6 0.6,2.7 2,8.6 3.2,13 1.2,4.4 2.4,9.1 2.7,10.5 0.2,1.4 0.9,3.4 1.5,4.6 0.5,1.1 0.8,3.4 0.6,5 -0.3,2.6 -0.7,2.9 -3.5,2.8 -21.9,-0.3 -22.4,-0.4 -22.9,-2.2 -0.3,-0.9 -0.9,-2.4 -1.3,-3.2 -0.5,-0.8 -1.6,-4.9 -2.6,-9 -0.9,-4.1 -2.6,-10.9 -3.6,-15.1 -1.1,-4.1 -1.9,-8.9 -1.9,-10.6 0,-4.8 -6.5,-20.9 -11.3,-28.1 -5.3,-7.9 -15.8,-18.2 -18.4,-18.2 -2.1,0 -6.6,-5.3 -5.5,-6.5 1,-1 12.9,0 14.5,1.2 z m -47.5,1.6 c 0.2,0.9 -0.8,3.1 -2.1,4.7 -1.4,1.6 -3,4.6 -3.7,6.7 -0.6,2.1 -1.5,4.7 -1.9,5.8 -1.2,2.9 -2.8,12.5 -4.2,24.8 -1,8.6 -1,14 0,27 0.7,8.9 1.7,17 2.2,17.9 1.2,2.3 3.2,2.3 5.3,-0.1 1.6,-1.7 1.6,-2.8 0.5,-12.2 -2.7,-21.6 -0.7,-48.7 4.3,-59.7 1.5,-3.4 2.8,-6.6 2.8,-7 0,-0.4 2,-2.4 4.4,-4.5 6.9,-5.7 12.5,-4.9 24.2,3.3 3.2,2.2 6.2,4 6.8,4 1.4,0 10.6,9.1 10.6,10.5 0,0.6 1.3,2.6 2.8,4.5 4.7,5.7 7.3,12.2 10.1,25 0.7,3 1.9,8.2 2.7,11.4 2.8,11.1 5.4,28 4.4,29 -1.5,1.5 -21,2.4 -32,1.4 -12.8,-1.1 -55,-0.2 -60.3,1.3 -2.2,0.6 -4.4,0.8 -5.1,0.6 -1.4,-0.6 -3.2,-8.2 -4.1,-17.2 -0.9,-9.5 -1,-36.6 -0.1,-40.5 1.2,-5.7 3.6,-13.2 5.7,-17.7 1,-2.4 1.9,-4.8 1.9,-5.5 0,-3.1 5.1,-9.3 10.1,-12.4 4.4,-2.8 6.3,-3.4 9.9,-3.2 3.4,0.2 4.6,0.7 4.8,2.1 z m 107.5,97.7 c 5.9,0.5 11.6,1.4 12.7,2 1,0.5 3.9,1 6.4,1 9.4,0 9.6,2.3 11.1,97.5 0.6,38.4 2.4,82 3.5,85 0.5,1.4 1,5.4 1,8.8 0,3.4 0.5,7.8 1,9.7 0.6,1.9 1.5,8.9 2,15.5 0.5,6.6 1.4,19.1 2.1,27.9 1.1,14.4 1,16.3 -0.6,21.5 -3.8,12 -9.1,15 -27.4,15.5 -6.9,0.2 -16.4,0 -21.1,-0.5 -8.2,-0.8 -77.2,-2.3 -89.5,-2 -4.1,0.2 -7.6,-0.4 -10.7,-1.8 -2.5,-1.1 -4.9,-1.7 -5.1,-1.4 -1.7,1.7 -20.1,-5.1 -22.9,-8.4 -0.7,-0.9 -3,-2.6 -5.1,-4 -2.3,-1.4 -4.5,-4 -5.7,-6.6 -2.9,-6.4 -6,-35.5 -6.1,-57.7 0,-10.2 -0.4,-21.7 -0.9,-25.5 -0.6,-3.9 -1.4,-18.5 -2,-32.5 -1,-24.7 -2.1,-47.7 -4.1,-84 -1.5,-27.8 -1.9,-47 -0.9,-49.4 0.7,-2 1.8,-2.4 7.2,-3 3.5,-0.3 8.8,-0.8 11.8,-1.2 3,-0.3 7.8,-1.4 10.5,-2.4 3.2,-1.2 9.6,-2.2 18,-2.7 14,-1 15.8,-1 40,0.1 12.4,0.5 20.5,0.2 36,-1.3 11,-1 21.8,-1.7 24,-1.5 2.2,0.2 8.8,0.8 14.8,1.4 z"
     id="path868"
     style="fill:#000000;stroke:none;stroke-width:0.1" />
  <path
     d="m 577.90117,1046.1023 c -0.6,0.7 -0.8,2.1 -0.5,3 0.4,0.9 -0.1,3.6 -0.9,5.9 -0.9,2.3 -2.1,6.8 -2.7,9.9 -0.6,3.2 -1.8,7.1 -2.6,8.7 -0.8,1.6 -1.9,7.8 -2.4,13.7 -0.5,5.9 -1.3,11.1 -1.8,11.6 -0.4,0.4 -4.6,-3.8 -9.2,-9.5 -9.4,-11.2 -10.5,-11.8 -18.8,-9.7 -10.1,2.5 -16.9,14.7 -15.9,28.5 0.2,3.8 1.2,8.7 2.3,10.8 3.2,6.6 -0.6,7.2 -7.9,1.1 -3.2,-2.7 -16.9,-9.4 -19.2,-9.4 -0.8,0 -2.4,-0.5 -3.4,-1.2 -2.4,-1.4 -5.1,0.4 -5.1,3.3 0,2 1.5,2.9 9,5 4.1,1.1 12.7,5.3 14,6.8 1.6,1.9 10.1,7 13.5,8.2 2.2,0.7 5.1,2.3 6.5,3.4 3.3,2.8 10.3,7.3 16,10.3 2.5,1.4 5.2,3 6,3.6 0.8,0.7 2.8,1.8 4.3,2.4 1.6,0.7 2.7,1.8 2.4,2.5 -0.4,1.4 -14.4,1.5 -26.2,0.3 -3.8,-0.4 -14,-1.1 -22.5,-1.6 -8.5,-0.5 -17.5,-1.1 -20,-1.4 -4,-0.5 -11.1,-0.1 -40.5,2 -4.4,0.3 -9.5,1.2 -11.3,2.1 l -3.3,1.4 0.5,15.2 c 0.3,8.4 0.8,25.8 1.2,38.7 0.6,23.5 0.9,26.9 3.9,47.5 2.9,19.1 3.3,23.4 5,48 0.8,13.2 1.8,25.6 2.2,27.5 0.4,1.9 0.7,5.5 0.8,8 0.1,7 3,10.3 11,12.5 5.3,1.4 11.7,1.8 33.8,2.1 36.1,0.5 46.6,1 50.1,2.3 1.8,0.7 7,1 13.7,0.7 6.7,-0.2 11.1,0 11.5,0.6 0.4,0.6 6.5,0.9 15.8,0.8 8.3,-0.1 27,0.2 41.6,0.7 36.6,1.1 98.7,0.8 100.3,-0.5 0.7,-0.6 1.2,-3 1.1,-5.4 -0.1,-2.4 -0.4,-22.7 -0.7,-45.3 -0.5,-38.1 -1.8,-59.4 -4.8,-81.5 -0.5,-4.1 -1.2,-11.1 -1.4,-15.5 -0.3,-4.4 -0.9,-10 -1.4,-12.5 -1.5,-7.2 -2.2,-38.5 -0.9,-39.8 0.9,-0.9 0.6,-1.8 -1,-3.5 l -2.2,-2.4 -33.3,0.2 c -18.2,0.1 -47.2,0.4 -64.2,0.6 -17.1,0.1 -31.6,0 -32.3,-0.5 -2.1,-1.3 -1.3,-2.6 2.6,-4.4 4.3,-1.9 12.2,-7.9 12.2,-9.2 0,-0.5 2,-3.8 4.5,-7.4 2.5,-3.7 4.5,-7.1 4.5,-7.7 0,-0.5 0.7,-2.4 1.6,-4.1 2.1,-4.1 2.1,-12.6 -0.1,-17.1 -1.8,-4 -5.4,-6.1 -11.7,-7.2 -5.8,-0.9 -11.2,1.1 -17.5,6.6 -3.6,3.2 -6.5,4.9 -7.8,4.7 -1.9,-0.3 -2,-1 -2,-12.8 0,-11.7 1.6,-23.2 3.7,-25.5 0.4,-0.5 0.8,-1.9 0.8,-3.1 0,-1.2 0.6,-3.7 1.4,-5.5 0.7,-1.9 1.9,-6.5 2.7,-10.2 1.1,-5.9 1.1,-7 -0.2,-7.8 -2,-1.2 -3.5,-1.1 -4.8,0.5 z m -24.6,47.3 c 3.7,4.7 7.3,10.5 8,12.7 0.7,2.3 1.8,6 2.5,8.3 1.5,4.8 0.9,27.8 -0.7,29.4 -2.6,2.6 -22.8,-11.7 -29.1,-20.6 -5.4,-7.7 -6.7,-16.6 -3.7,-26.9 2,-6.7 7.5,-11.4 13.7,-11.5 2.2,-0.1 3.8,1.4 9.3,8.6 z m 53.3,14.9 c 1.8,1.3 2.2,2.5 2.2,7.3 0,3.8 -0.5,6.3 -1.4,7 -0.8,0.7 -1.7,2.2 -2,3.4 -1.8,7.5 -13.6,21.7 -17.9,21.7 -0.9,0 -1.9,0.5 -2.2,1.1 -0.4,0.5 -1.8,1.4 -3.1,1.9 -1.3,0.5 -2.9,2.1 -3.4,3.6 -0.7,1.8 -1.6,2.5 -3.2,2.2 -1.7,-0.2 -2.5,-1.4 -3.5,-5.3 -1.9,-6.9 -1.3,-19.7 1,-22.2 0.9,-1.1 1.7,-2.5 1.7,-3.2 0,-3 10.3,-14 16.5,-17.8 3,-1.8 12.6,-1.6 15.3,0.3 z m -83.8,51.4 c 11,1.3 42.9,4 49.9,4.3 l 5.5,0.2 1.2,4.8 c 0.8,3 1.3,13.4 1.3,27.4 0.1,12.4 0.4,23 0.7,23.4 1,1.7 0.9,40 -0.1,40.9 -1.5,1.2 -7.1,1.3 -39,0.5 -41.9,-1 -45.5,-1.2 -53.7,-2.5 -6.3,-1.1 -10.2,-1.1 -20.5,0 -15.7,1.5 -17.7,1.3 -18.1,-2 -0.1,-1.4 -0.7,-4.1 -1.2,-6 -2,-7.5 -3,-23.1 -3.5,-54.8 l -0.5,-33.1 2.3,-1.3 c 1.2,-0.7 4.7,-1.3 7.7,-1.4 3,-0.1 10.7,-0.7 17,-1.2 12.6,-1.1 37.7,-0.6 51,0.8 z m 190.1,3.7 c 0.4,0.4 1,7.3 1.2,15.3 0.3,8 1,18.5 1.7,23.5 0.6,4.9 1.3,11.2 1.5,14 0.2,2.7 1.3,12.9 2.4,22.5 1.4,12.4 1.7,17.8 0.9,18.7 -0.8,1 -9.7,1.3 -39.7,1.3 -21.2,0 -45.3,0.5 -53.6,1.1 -20.8,1.5 -33.6,1.8 -36.2,0.8 -2.1,-0.8 -2.2,-1.5 -2.7,-15.6 -2,-66.4 -2.3,-79.9 -1.7,-80.6 0.4,-0.4 19.7,-0.9 43,-1.1 23.3,-0.3 42.5,-0.7 42.9,-1 0.8,-0.9 39.4,0.2 40.3,1.1 z m -26.4,101.4 c 14.2,0.1 28.1,0.4 30.8,0.7 l 5,0.7 0.2,12 c 0.7,35.1 0.5,75.7 -0.3,76.5 -1.3,1.3 -31.6,2.9 -49.4,2.5 -52.7,-1.2 -70.9,-1.8 -73.8,-2.4 -6.2,-1.2 -6.9,-6.4 -8.7,-63.6 -0.2,-8.8 -0.7,-17.4 -1,-19.2 -0.7,-3.8 0.5,-4.7 6,-4.9 2.2,-0.1 12.3,-0.5 22.5,-0.9 10.2,-0.5 22.2,-0.9 26.7,-0.9 4.5,-0.1 8.5,-0.5 9,-0.9 0.4,-0.5 2.2,-0.6 4,-0.2 1.8,0.3 14.8,0.6 29,0.6 z m -189.8,1.3 c 0.6,0.4 19.8,0.9 42.7,1.2 23,0.3 42,0.7 42.4,0.9 1,0.6 2,15.6 2.7,38 0.2,9.9 0.6,19.6 0.7,21.5 0.2,1.9 0.5,8.7 0.7,15 l 0.4,11.5 -16.5,0.1 c -9.1,0 -20.1,-0.5 -24.5,-1.2 -7.6,-1.2 -55.9,-3 -67.3,-2.5 -7.5,0.3 -16,-1.8 -18.1,-4.5 -1.8,-2.3 -2.8,-10.4 -5.1,-42.4 -0.6,-8 -1.6,-19.1 -2.2,-24.8 -0.7,-6.8 -0.8,-10.6 -0.1,-11.3 0.5,-0.5 5.2,-1.2 10.4,-1.5 5.2,-0.3 9.5,-0.7 9.6,-0.8 0.6,-0.6 23.2,0.2 24.2,0.8 z"
     id="path870"
     style="fill:#000000;stroke:none;stroke-width:0.1" />
  <path
     d="m 20.901173,1125.1023 c -2.5,2.6 -2.4,2.7 2.9,11.1 1,1.6 1.9,4.2 1.9,5.7 0.1,2.5 2.3,8.2 5.7,15 2.1,3.9 1.8,4.4 -4,7.8 -3,1.7 -7.5,4.7 -10,6.8 -2.4,2 -6.8,4.6 -9.6,5.7 -2.8,1.1 -5.9,2.8 -6.7,3.7 -1.5,1.7 -1.5,2 0.2,3.8 1,1.1 3,2 4.5,2 1.5,0 5.8,1.1 9.6,2.4 4.5,1.6 12,3 21.6,4 8.2,0.8 15.2,1.8 15.8,2.1 0.5,0.3 1,1.3 1,2.1 0,0.8 1.3,4.2 2.9,7.7 1.6,3.4 3.7,9.1 4.7,12.7 0.9,3.6 2.3,7.7 3.1,9.2 0.7,1.5 1.3,3.6 1.3,4.6 0,2 2.9,5.2 4.8,5.2 1.6,0 6.2,-7.5 6.2,-10 0,-3.1 8.6,-19.3 12.2,-22.9 3.6,-3.7 8.7,-6.1 13.099997,-6.1 1.6,0 7.5,-1.6 13.1,-3.4 5.6,-1.9 11.5,-3.6 13.1,-3.8 2.5,-0.2 3,-0.8 3,-2.8 0,-1.9 -0.6,-2.6 -2.5,-2.8 -1.4,-0.2 -2.9,-0.8 -3.5,-1.3 -0.5,-0.5 -2.1,-0.9 -3.5,-0.9 -1.4,0 -3,-0.4 -3.5,-0.8 -0.6,-0.5 -3,-1.4 -5.5,-2.1 -2.5,-0.8 -7.4,-2.8 -11,-4.6 -7.499997,-3.8 -7.799997,-4.8 -4.199997,-15 1.2,-3.3 3.099997,-10.5 4.299997,-16 1.2,-5.5 2.6,-10.4 3.1,-10.9 1.7,-2 0.9,-7.5 -1.3,-8.6 -1.7,-1 -2.9,-0.6 -7.499997,2.7 -14.4,10.1 -18,11.9 -27.5,13.2 l -7.2,1 -11.5,-5.5 c -6.3,-3 -11.7,-5.4 -12,-5.4 -1,0 -9.7,-4.3 -12.3,-6.1 -2.6,-1.8 -2.7,-1.8 -4.8,0.5 z m 18.9,12.4 c 2.5,1.1 6.3,2.8 8.5,3.7 5.7,2.3 9.7,4.5 12.2,6.7 2.3,2.1 4.9,1.8 8.8,-0.8 1.1,-0.8 3.4,-1.4 5.1,-1.4 1.7,0 3.7,-0.7 4.4,-1.5 0.7,-0.8 1.7,-1.5 2.4,-1.5 0.6,0 3.4,-1.6 6.1,-3.5 6.4,-4.3 9.9,-4.9 10.3,-1.7 0.2,1.3 -0.1,2.8 -0.6,3.5 -0.5,0.7 -1.5,4.3 -2.2,8.2 -0.7,3.8 -1.8,8.3 -2.5,10 -0.7,1.6 -1.6,4 -2,5.3 -0.3,1.2 -2,2.9 -3.6,3.8 -2.4,1.2 -2.9,2 -2.4,3.7 0.9,3 4.2,5.7 7.2,5.7 1.3,0 4.8,1.1 7.6,2.4 2.899997,1.3 7.399997,3.2 10.199997,4.4 5.4,2.2 6.7,3.9 3.8,4.8 -1,0.3 -2.5,0.9 -3.5,1.4 -0.9,0.5 -4,1.2 -7,1.6 -6.099997,0.7 -16.999997,5.5 -20.999997,9.2 -1.6,1.4 -2.8,3.6 -2.8,4.9 0,3.1 -6.9,16.5 -8.3,16 -0.6,-0.2 -1.4,-1 -1.8,-1.8 -1.1,-2 -7.9,-25.6 -7.9,-27.3 0,-2.5 -4.5,-4.4 -13,-5.4 -4.5,-0.6 -8.8,-0.8 -9.5,-0.6 -1.7,0.7 -21.8,-3.5 -23,-4.7 -1.4,-1.5 8.7,-10.2 15.5,-13.4 9.9,-4.7 10.5,-5 10.8,-7.3 0.2,-1.2 -0.1,-2.2 -0.6,-2.2 -1.3,0 -8.9,-16.1 -9.8,-20.4 -0.7,-4.2 0.1,-5.9 2.4,-4.8 0.9,0.5 3.7,1.8 6.2,3 z"
     id="path872"
     style="fill:#000000;stroke:none;stroke-width:0.1" />
</svg>
