<?xml version="1.0" standalone="no"?>
<!DOCTYPE svg PUBLIC "-//W3C//DTD SVG 20010904//EN"
 "http://www.w3.org/TR/2001/REC-SVG-20010904/DTD/svg10.dtd">
<svg version="1.0" xmlns="http://www.w3.org/2000/svg"
 width="688.193319pt" height="459.391175pt" viewBox="0 0 688.193319 459.391175"
 preserveAspectRatio="xMidYMid meet">
<metadata>
Created by potrace 1.16, written by Peter Selinger 2001-2019
</metadata>
<g transform="translate(-51.625083,516.458438) scale(0.100000,-0.100000)"
fill="#000000" stroke="none">
<path d="M744 5163 c-95 -3 -114 -7 -129 -23 -10 -11 -26 -20 -35 -20 -9 0
-24 -8 -34 -18 -15 -18 -15 -32 5 -223 26 -252 28 -391 9 -729 -17 -306 -18
-484 -6 -1025 21 -977 21 -1078 6 -1250 -24 -271 -29 -387 -30 -610 -1 -126
-5 -327 -9 -445 -7 -187 -7 -217 7 -232 20 -24 71 -23 97 2 19 18 39 21 171
25 82 2 174 9 204 16 69 15 523 5 785 -17 104 -9 346 -17 575 -19 217 -3 449
-10 515 -16 183 -18 831 3 930 30 64 17 633 33 761 20 95 -9 532 -12 1059 -7
88 1 225 -3 305 -8 93 -7 190 -7 270 -1 69 5 217 10 330 11 113 1 217 6 231
10 16 4 49 1 85 -8 32 -9 140 -21 238 -27 99 -5 186 -15 193 -21 8 -6 30 -8
58 -4 52 8 70 31 61 80 -3 17 -8 164 -11 326 -3 162 -10 349 -16 415 -8 88 -7
176 2 332 14 241 6 1327 -11 1548 -6 87 -6 209 1 370 9 218 24 893 23 1040 0
33 -3 142 -5 243 -5 206 -6 211 -77 197 -34 -7 -248 -17 -382 -18 -30 0 -116
6 -190 13 -86 9 -312 14 -620 16 -267 2 -534 7 -595 12 -60 5 -240 7 -400 4
-159 -2 -344 -2 -410 0 -322 9 -847 -5 -1135 -30 -47 -5 -128 -5 -180 0 -234
18 -574 29 -857 28 -414 -1 -1431 7 -1568 13 -60 2 -160 2 -221 0z m1091 -102
c198 -5 484 -7 635 -4 151 2 282 4 290 5 19 0 163 -7 470 -23 275 -14 301 -14
490 0 243 19 630 27 815 18 99 -5 218 -8 265 -7 304 6 1740 -4 1765 -13 29
-10 276 -30 365 -30 41 0 110 3 153 8 42 4 77 4 77 -1 0 -11 -72 -84 -83 -84
-6 0 -28 -15 -51 -33 -23 -19 -48 -36 -56 -39 -8 -3 -75 -55 -149 -114 -132
-108 -185 -150 -339 -271 -44 -34 -91 -77 -107 -95 -15 -18 -42 -44 -60 -58
-105 -79 -438 -394 -540 -511 -94 -107 -430 -411 -490 -442 -16 -8 -59 -41
-95 -72 -36 -31 -87 -72 -115 -91 -43 -29 -167 -129 -325 -261 -24 -21 -74
-65 -110 -98 -67 -62 -123 -105 -137 -105 -5 0 -31 -20 -58 -43 -28 -24 -70
-57 -95 -72 -25 -16 -56 -40 -70 -54 -73 -76 -188 -133 -227 -113 -10 6 -52
18 -93 28 -83 19 -311 122 -350 158 -14 12 -56 44 -95 71 -73 51 -139 105
-293 243 -51 45 -100 89 -110 97 -9 8 -39 34 -67 58 -27 24 -56 46 -62 48 -20
6 -198 147 -278 219 -66 60 -168 147 -269 228 -173 139 -356 296 -435 371 -34
34 -65 61 -68 61 -3 0 -44 35 -91 78 -83 75 -194 162 -207 162 -4 0 -40 27
-80 60 -40 33 -76 60 -79 60 -8 0 -174 132 -255 203 -36 31 -113 97 -170 145
-58 48 -145 122 -193 165 -49 42 -102 87 -119 99 -52 39 -40 45 110 53 97 5
154 3 193 -5 44 -10 90 -10 219 -1 90 7 166 14 168 17 2 2 13 1 25 -1 12 -3
183 -9 381 -14z m-1082 -196 c200 -167 251 -211 311 -266 87 -80 293 -243 401
-319 200 -140 260 -191 678 -573 38 -34 104 -89 147 -122 123 -95 229 -183
336 -279 54 -49 116 -100 137 -114 20 -13 37 -28 37 -31 0 -4 -14 -20 -30 -36
-17 -16 -56 -67 -87 -115 -31 -47 -66 -99 -77 -116 -12 -17 -107 -125 -212
-240 -106 -115 -208 -229 -229 -254 -20 -25 -71 -80 -112 -123 -42 -43 -93
-101 -114 -127 -21 -27 -197 -208 -391 -402 -342 -343 -667 -692 -719 -773
-14 -22 -61 -76 -104 -119 -108 -111 -105 -117 -99 233 6 308 18 576 35 756
13 145 15 368 6 735 -4 151 -7 311 -5 355 3 103 3 82 -12 495 -10 277 -10 395
-1 540 29 453 31 577 16 759 -8 97 -17 186 -20 199 -3 12 -3 22 0 22 3 0 51
-38 108 -85z m6532 -62 c8 -145 1 -608 -15 -1003 -11 -268 -7 -718 8 -990 7
-114 8 -381 5 -695 -8 -655 -8 -773 6 -868 16 -113 15 -497 -1 -496 -14 1
-353 353 -414 429 -20 25 -64 74 -98 110 -33 35 -92 101 -130 145 -38 44 -75
85 -81 90 -7 6 -67 73 -135 150 -68 77 -201 217 -295 310 -201 200 -328 333
-445 470 -47 54 -156 169 -244 254 -180 177 -341 364 -329 384 5 9 210 174
328 264 98 74 387 348 448 423 24 30 82 89 128 130 46 41 105 98 131 125 25
28 82 77 125 110 43 32 116 95 163 139 75 71 279 242 380 318 19 14 64 49 100
77 36 28 98 74 138 101 40 28 103 75 140 105 36 30 69 55 73 55 4 0 10 -62 14
-137z m-4259 -1815 c65 -57 150 -132 189 -168 38 -36 104 -91 145 -123 41 -31
104 -80 140 -107 58 -45 230 -136 291 -155 13 -4 30 -12 38 -18 47 -38 284
-69 354 -46 48 15 140 75 177 114 14 15 48 43 75 61 147 101 192 136 336 264
53 47 129 113 170 147 l74 62 43 -47 c23 -26 67 -76 96 -112 29 -36 111 -124
182 -195 138 -140 293 -307 389 -420 33 -38 172 -183 310 -320 137 -138 295
-301 350 -363 55 -62 146 -163 203 -225 56 -61 156 -173 222 -247 65 -74 173
-191 239 -259 66 -69 117 -129 114 -134 -8 -14 -184 -2 -268 18 -54 13 -90 15
-155 10 -107 -9 -113 -9 -240 0 -80 5 -127 3 -195 -9 -107 -19 -261 -21 -411
-4 -60 7 -167 11 -239 10 -734 -9 -865 -9 -995 1 -243 19 -736 9 -945 -18
-265 -35 -623 -45 -855 -25 -63 6 -279 12 -480 15 -201 2 -426 8 -500 14 -74
6 -198 13 -275 16 -77 3 -164 8 -193 11 -116 12 -317 12 -473 0 -90 -8 -166
-12 -168 -10 -2 2 15 25 38 51 23 27 64 75 91 108 208 252 329 382 785 847
297 302 423 437 630 672 44 50 108 120 141 156 157 168 219 239 262 304 26 39
49 76 52 84 9 22 114 141 126 141 6 1 64 -45 130 -101z"/>
</g>
</svg>
