<?xml version="1.0" standalone="no"?>
<!DOCTYPE svg PUBLIC "-//W3C//DTD SVG 20010904//EN"
 "http://www.w3.org/TR/2001/REC-SVG-20010904/DTD/svg10.dtd">
<svg version="1.0" xmlns="http://www.w3.org/2000/svg"
 width="2729.972044pt" height="1820.797135pt" viewBox="0 0 2729.972044 1820.797135"
 preserveAspectRatio="xMidYMid meet">
<metadata>
Created by potrace 1.15, written by Peter Selinger 2001-2017
</metadata>
<g transform="translate(-213.694686,2056.865220) scale(0.100000,-0.100000)"
fill="#000000" stroke="none">
<path d="M3493 20560 c-18 -4 -39 -13 -47 -19 -8 -7 -23 -11 -33 -10 -10 2
-27 -2 -39 -8 -11 -6 -26 -8 -32 -4 -13 8 -130 6 -187 -3 -16 -3 -53 -1 -82 5
-70 14 -162 14 -194 1 -30 -12 -194 -16 -251 -7 -25 4 -38 3 -38 -4 0 -6 -3
-10 -7 -10 -21 3 -33 -2 -33 -16 0 -8 -9 -15 -21 -15 -15 0 -19 -5 -14 -19 4
-13 -2 -25 -20 -39 -14 -11 -25 -25 -25 -31 0 -6 -11 -11 -24 -11 -14 0 -28
-4 -31 -10 -3 -5 -28 -10 -56 -10 -34 0 -49 -4 -49 -13 0 -9 -10 -12 -30 -9
-28 4 -30 2 -30 -25 0 -17 -8 -38 -19 -47 -19 -17 -18 -48 0 -72 5 -6 7 -13 4
-16 -3 -3 1 -21 9 -40 8 -19 13 -49 11 -67 -2 -18 0 -65 6 -104 6 -40 12 -116
14 -171 2 -54 9 -104 14 -109 6 -6 11 -40 11 -76 0 -37 5 -106 11 -156 6 -49
12 -117 15 -150 7 -89 15 -139 26 -152 7 -9 7 -13 -1 -13 -8 0 -10 -19 -7 -62
11 -130 30 -257 38 -252 4 3 8 0 8 -5 0 -6 -4 -11 -9 -11 -12 0 -5 -85 10
-112 6 -11 9 -35 6 -52 -3 -18 -2 -51 3 -74 5 -27 3 -50 -5 -65 -10 -19 -9
-27 1 -42 8 -11 11 -27 8 -37 -3 -11 -1 -24 4 -31 13 -16 21 -77 10 -83 -4 -3
-8 -19 -8 -35 0 -25 5 -30 30 -36 17 -3 33 -10 37 -16 4 -6 0 -8 -10 -4 -9 3
-19 2 -23 -4 -4 -7 -10 -6 -19 1 -11 9 -14 -8 -20 -86 -5 -57 -4 -104 2 -113
11 -19 6 -51 -8 -51 -6 0 -8 -4 -4 -9 9 -15 12 -210 3 -213 -5 -2 -10 -39 -13
-83 -2 -44 -5 -87 -6 -95 -6 -42 2 -80 16 -80 8 0 15 -4 15 -10 0 -5 -6 -10
-14 -10 -17 0 -23 -47 -18 -134 4 -61 6 -66 36 -80 l31 -16 -31 0 c-28 0 -32
-4 -38 -37 -3 -21 -6 -58 -6 -83 0 -25 -5 -63 -11 -85 -6 -21 -12 -78 -14
-125 -1 -47 -4 -85 -5 -85 -6 0 -6 -216 1 -226 4 -7 3 -25 -1 -40 -5 -16 -5
-29 0 -29 4 0 6 -43 3 -95 -3 -77 -1 -96 10 -101 18 -6 11 -44 -8 -44 -17 0
-27 -42 -13 -51 9 -6 8 -12 -1 -23 -9 -11 -10 -16 -2 -16 12 0 15 -32 5 -43
-10 -10 -12 -100 -2 -119 4 -9 4 -18 -2 -20 -5 -2 -12 -19 -14 -38 -3 -19 -5
-35 -6 -35 0 0 -3 -24 -6 -54 -2 -29 -8 -58 -11 -65 -4 -6 -9 -71 -10 -145 -1
-74 -5 -141 -8 -149 -3 -8 -1 -20 4 -26 12 -14 3 -56 -11 -56 -5 0 -9 -15 -7
-32 1 -18 -2 -42 -6 -52 -5 -11 -3 -37 3 -60 7 -28 8 -67 1 -121 -5 -44 -6
-111 -3 -150 3 -38 5 -74 5 -80 -5 -58 -4 -300 1 -308 4 -6 1 -19 -7 -27 -12
-14 -12 -20 1 -45 10 -19 11 -31 5 -33 -16 -5 0 -345 19 -413 6 -22 6 -46 -1
-72 -6 -22 -7 -43 -2 -46 4 -3 9 -19 9 -36 1 -65 13 -163 23 -202 8 -31 9
-198 1 -198 -7 0 -4 -64 4 -77 7 -12 7 -24 -1 -40 -15 -30 -25 -128 -13 -128
10 0 7 -82 -4 -123 -5 -16 -4 -32 3 -40 7 -9 7 -33 0 -80 -6 -37 -9 -97 -7
-132 1 -36 0 -65 -4 -65 -5 0 -8 -7 -8 -15 0 -8 6 -15 14 -15 15 0 19 -47 4
-56 -5 -3 -4 -12 3 -20 6 -8 13 -33 14 -57 1 -23 10 -82 20 -131 18 -86 18
-89 0 -102 -11 -8 -14 -14 -8 -14 6 0 14 -26 17 -57 3 -32 8 -78 12 -102 3
-25 2 -46 -3 -50 -6 -3 -7 -30 -3 -66 4 -36 3 -65 -3 -72 -6 -9 -6 -17 0 -25
19 -24 4 -220 -21 -279 -9 -21 -15 -71 -16 -125 -1 -49 -4 -120 -8 -159 -5
-46 -3 -87 6 -120 7 -27 11 -66 10 -85 -1 -20 2 -41 6 -48 4 -7 6 -25 5 -40
-2 -15 0 -33 5 -40 4 -8 8 -53 8 -100 0 -48 4 -91 8 -97 9 -12 18 -95 10 -95
-3 0 -5 -40 -5 -90 0 -70 3 -90 14 -90 10 0 12 -8 7 -31 -6 -31 -13 -154 -22
-374 -2 -66 -6 -145 -8 -175 -5 -58 -5 -71 -5 -122 0 -18 0 -64 0 -102 0 -38
3 -74 7 -80 11 -17 11 -140 0 -154 -7 -8 -7 -17 2 -27 7 -8 10 -24 7 -35 -3
-10 1 -24 7 -29 9 -7 10 -27 6 -62 -5 -34 -3 -55 5 -62 7 -7 10 -28 7 -53 -2
-25 0 -44 7 -48 14 -9 14 -88 0 -120 -8 -18 -9 -29 -2 -38 19 -23 23 -71 14
-143 -4 -38 -5 -72 -1 -75 4 -3 4 -34 -1 -70 -4 -36 -8 -98 -8 -137 0 -60 3
-73 16 -73 13 0 13 -3 2 -16 -10 -12 -13 -73 -12 -265 0 -142 -4 -252 -9 -255
-5 -3 -5 -11 1 -18 6 -7 6 -37 1 -83 -5 -39 -10 -100 -10 -135 -2 -95 -5 -122
-12 -134 -4 -5 -7 -33 -6 -61 0 -28 -5 -60 -11 -71 -12 -23 -13 -111 0 -127 4
-6 3 -46 -3 -90 -5 -44 -11 -125 -12 -180 -1 -55 -5 -106 -9 -112 -4 -7 -12
-63 -18 -124 -5 -62 -14 -118 -19 -124 -6 -7 -5 -16 2 -23 9 -9 8 -19 -6 -42
-9 -17 -15 -38 -12 -48 7 -24 -10 -93 -25 -103 -10 -6 -11 -12 -1 -31 11 -21
10 -64 -3 -76 -2 -3 0 -11 6 -18 6 -7 8 -23 4 -35 -4 -12 -9 -41 -11 -63 -2
-23 -4 -50 -5 -61 -2 -11 -2 -52 -1 -92 2 -60 5 -71 17 -67 8 4 15 1 15 -5 0
-6 -9 -11 -20 -11 -16 0 -19 -5 -16 -22 12 -59 15 -107 7 -112 -8 -5 -16 -240
-13 -368 1 -31 -2 -59 -7 -62 -4 -3 -5 -24 -1 -47 6 -30 4 -42 -6 -46 -19 -7
-18 -23 2 -23 12 0 15 -5 9 -22 -4 -13 -7 -53 -6 -90 1 -53 -3 -69 -16 -77
-15 -8 -15 -11 -3 -26 10 -12 14 -39 13 -79 -1 -33 2 -65 7 -71 4 -5 4 -39 -1
-75 -10 -86 0 -280 15 -274 12 5 16 -83 5 -101 -4 -5 -10 -57 -14 -115 -4 -58
-11 -107 -15 -110 -5 -3 -4 -23 1 -45 13 -48 13 -60 1 -105 -5 -22 -5 -43 1
-57 7 -16 6 -27 -2 -37 -10 -11 -8 -17 10 -29 l21 -15 -19 -54 c-15 -40 -20
-85 -22 -183 -3 -169 -11 -251 -24 -272 -5 -7 -4 -13 2 -13 6 0 8 -16 5 -37
-7 -60 -7 -128 0 -283 8 -201 8 -345 -2 -410 -4 -30 -4 -73 0 -95 13 -76 9
-199 -8 -223 -10 -15 -13 -32 -9 -52 5 -22 1 -38 -14 -59 -13 -18 -17 -32 -11
-36 5 -3 10 -16 10 -28 1 -21 52 -87 68 -87 5 0 17 -8 28 -18 41 -39 63 -35
115 20 35 36 49 59 49 79 0 23 5 29 33 35 17 4 40 8 50 9 10 1 22 8 27 15 6 9
35 15 92 16 46 2 93 6 104 9 14 3 24 -1 27 -9 5 -12 39 -14 174 -15 92 0 204
-1 248 -2 44 -1 103 3 131 9 55 12 106 6 82 -9 -9 -6 -9 -9 -1 -9 7 0 16 7 21
16 7 12 27 16 98 16 49 0 93 3 99 6 5 3 52 7 105 9 52 1 106 3 120 4 14 0 28
6 32 12 3 5 23 11 45 13 50 3 185 33 199 45 6 5 14 5 20 0 5 -6 24 -4 45 3 25
9 43 10 54 3 10 -5 46 -6 84 -3 84 9 89 9 256 8 77 0 163 0 190 1 28 0 93 0
145 -1 52 0 129 0 170 0 113 2 320 -11 365 -22 22 -5 65 -10 95 -10 31 0 79
-6 107 -13 40 -11 60 -11 85 -2 18 6 48 8 67 4 42 -9 129 -4 161 9 16 6 29 6
37 0 7 -5 17 -7 23 -3 6 4 20 -1 31 -11 16 -15 24 -16 39 -6 11 7 21 8 25 2 3
-5 21 -6 40 -3 19 3 76 1 127 -6 109 -13 146 -14 288 -9 63 3 112 0 123 -6 12
-8 22 -7 36 1 16 10 20 9 25 -4 5 -11 10 -13 17 -6 12 12 59 5 59 -9 0 -5 9
-4 21 2 15 9 24 8 35 -1 10 -8 21 -9 37 -2 12 5 36 7 53 3 16 -4 39 -3 50 0
10 4 27 3 38 -2 10 -6 30 -8 45 -5 33 6 146 -14 162 -30 9 -9 16 -9 30 0 13 8
27 8 56 -1 24 -7 39 -8 41 -2 2 6 10 6 21 0 10 -5 21 -7 24 -3 4 3 9 -2 13
-11 3 -9 11 -13 16 -10 5 4 46 8 90 10 44 2 86 8 93 14 10 8 16 7 23 -7 8 -13
25 -18 79 -19 37 -2 68 -3 68 -4 0 -1 12 -4 28 -6 16 -3 27 0 27 7 0 9 4 9 14
0 10 -8 16 -9 21 -1 3 6 11 8 16 5 5 -3 48 -8 95 -11 48 -2 92 -8 98 -11 6 -4
76 -8 155 -10 79 -1 148 -6 154 -12 6 -6 21 -4 43 5 41 17 44 17 44 2 0 -15
29 -16 418 -19 216 -2 265 0 280 12 14 12 63 14 277 13 174 -1 260 -5 263 -12
2 -6 10 -8 19 -5 9 4 35 6 57 5 23 0 116 -2 209 -3 92 -2 167 -7 167 -11 0 -5
16 -6 35 -2 51 9 368 11 381 2 6 -4 46 -4 90 0 87 9 223 10 239 1 6 -3 46 -4
90 -3 44 1 123 -3 175 -8 52 -5 115 -10 140 -12 25 -2 52 -6 60 -9 8 -4 50 -5
93 -4 43 2 80 1 82 -3 2 -4 20 -7 40 -8 19 -1 44 -6 55 -12 11 -6 39 -11 63
-10 23 0 76 -4 117 -10 137 -18 751 -11 758 9 3 8 8 9 16 2 16 -14 147 -21
169 -9 10 5 26 7 35 3 18 -7 150 -9 365 -4 102 2 131 -1 138 -12 7 -11 9 -11
9 -1 0 9 7 11 20 7 11 -4 20 -2 20 4 0 7 27 11 70 11 39 0 70 3 70 8 0 4 35 7
77 8 99 1 243 11 263 18 8 2 44 8 80 11 93 10 102 12 112 27 7 10 10 10 18 -4
8 -13 16 -15 42 -7 18 5 40 6 50 3 10 -3 23 -2 30 2 19 12 71 13 111 3 27 -7
49 -7 72 1 30 10 91 12 320 9 65 -1 180 15 232 32 18 6 48 9 65 8 33 -2 105
13 143 31 37 17 168 30 365 35 439 13 503 14 520 5 10 -6 21 -5 27 1 5 5 38
12 74 15 35 2 87 8 114 13 69 11 84 12 383 16 148 2 264 -1 268 -6 8 -14 34
-11 50 6 18 18 44 20 44 4 0 -8 24 -10 82 -4 45 3 132 8 192 10 61 3 208 7
326 12 222 7 263 7 365 -1 33 -3 102 -8 153 -12 51 -4 95 -11 98 -16 7 -12 62
-10 69 2 4 6 16 8 27 4 11 -3 41 -8 67 -10 25 -2 84 -8 131 -14 47 -6 106 -11
133 -10 26 0 52 -2 58 -6 6 -3 50 -8 97 -10 121 -6 174 -11 195 -19 9 -4 24
-2 32 5 8 6 19 9 26 5 16 -11 328 -7 365 4 17 5 81 6 141 4 71 -4 123 -2 144
6 25 8 34 8 40 0 4 -7 16 -9 28 -6 20 5 221 -8 291 -19 19 -3 58 -5 85 -5 361
7 585 4 598 -8 10 -7 17 -8 21 -2 7 10 253 10 272 -1 5 -2 59 -1 119 3 61 5
117 6 127 3 9 -2 19 -1 22 4 5 9 163 22 326 27 79 2 142 9 327 36 40 6 82 8
93 4 11 -3 20 -2 20 2 0 10 856 7 910 -3 19 -3 69 -10 110 -15 41 -4 113 -13
159 -18 62 -8 87 -8 92 0 4 8 10 5 17 -7 6 -10 14 -16 18 -12 4 5 12 4 18 -1
6 -5 80 -12 165 -15 85 -4 163 -12 173 -17 10 -6 29 -7 41 -3 23 8 201 6 239
-2 61 -12 274 -11 305 1 18 8 35 11 37 7 6 -11 621 -3 621 8 0 4 43 10 100 14
28 3 57 7 65 9 8 3 33 8 55 11 22 3 67 11 100 17 33 6 76 12 95 13 19 2 82 7
140 12 58 5 113 8 124 6 10 -1 25 3 32 9 11 9 18 8 29 -1 8 -6 20 -8 27 -4 16
10 110 5 124 -7 6 -5 15 -4 21 2 20 20 191 13 215 -8 14 -13 21 -13 33 -3 13
11 91 3 235 -26 50 -10 135 -11 148 -1 7 5 32 7 57 4 24 -4 47 -2 50 3 3 5 12
7 19 4 8 -3 79 4 158 16 78 13 151 23 161 23 9 1 17 5 17 10 0 11 276 -2 310
-15 14 -5 54 -16 90 -23 36 -8 99 -21 140 -30 41 -9 83 -17 92 -17 10 1 20 -3
23 -9 4 -5 28 -9 54 -9 26 0 51 -4 57 -10 5 -5 42 -10 82 -11 40 -1 72 -5 72
-9 0 -4 23 -10 51 -14 53 -7 446 -20 489 -16 26 2 40 2 86 -1 15 -1 30 5 35
12 5 8 9 10 9 4 0 -5 26 -11 57 -11 110 -3 318 -13 383 -19 99 -9 135 -19 132
-37 -4 -23 23 -40 68 -43 31 -2 41 2 45 16 3 10 12 16 19 13 7 -3 19 2 26 11
15 18 34 19 59 3 24 -15 70 17 71 50 0 12 4 22 10 22 17 0 23 68 8 93 -31 49
-40 100 -28 157 13 64 12 46 6 188 -3 62 -8 117 -11 122 -3 5 -1 11 4 14 5 3
7 23 5 43 -2 21 -4 79 -3 128 0 50 -1 128 -3 175 -2 47 -3 149 -3 228 0 78 -4
142 -8 142 -5 0 -6 8 -3 18 8 26 11 430 3 438 -10 11 -8 52 3 59 12 7 13 72 2
79 -5 3 -6 24 -2 48 3 24 2 60 -2 81 -5 21 -5 53 0 70 4 18 4 55 0 82 -11 71
-19 148 -19 165 5 117 -1 245 -12 259 -16 19 -21 68 -7 76 13 8 13 105 1 105
-5 0 -9 26 -8 58 1 80 -5 132 -15 132 -11 0 -10 43 1 56 9 9 -2 141 -17 204
-4 19 -7 73 -5 120 1 47 1 101 1 120 -1 19 -2 51 -2 70 -1 19 -4 37 -7 40 -11
8 -14 64 -5 78 4 8 9 48 10 90 1 42 5 82 9 89 4 6 5 48 1 92 -3 54 -2 81 5 81
17 0 13 28 -7 39 -12 8 -14 13 -5 18 6 5 14 26 18 48 4 22 10 45 14 50 10 17
12 62 11 356 -1 102 3 223 8 270 12 107 13 127 3 134 -5 2 -7 59 -5 126 2 67
-1 129 -5 137 -5 9 -5 29 0 46 5 17 9 65 8 106 -2 170 1 244 11 276 6 18 9 38
5 44 -3 5 -6 49 -6 96 0 48 -5 96 -10 106 -8 14 -7 24 3 35 15 18 19 293 5
293 -5 0 -6 17 -3 38 3 20 8 65 11 99 5 56 4 62 -15 68 -20 6 -20 8 -6 24 13
14 15 37 11 127 -8 188 -8 221 -1 232 4 6 4 22 1 35 -4 15 -1 28 9 37 13 10
14 16 4 27 -9 11 -12 83 -13 262 0 135 -4 252 -8 259 -5 7 -4 18 2 26 12 15
22 154 11 161 -12 7 -21 67 -11 79 14 18 20 56 10 62 -6 4 -6 10 0 18 7 8 8
83 5 207 -6 246 -6 438 1 450 3 5 2 17 -3 26 -5 10 -6 45 -2 78 4 35 2 98 -6
151 -7 53 -9 108 -4 132 4 23 4 44 1 47 -4 2 -6 19 -4 37 5 42 5 30 -2 198
-10 220 -11 236 -17 246 -16 26 -29 326 -14 341 2 3 0 16 -5 30 -5 14 -6 29
-3 35 3 5 -4 12 -15 15 -12 3 -20 11 -17 17 3 6 14 42 26 81 18 55 20 76 12
102 -6 18 -7 35 -2 38 6 4 6 160 0 160 -2 0 -3 27 -4 60 -1 33 -6 67 -11 75
-5 8 -10 28 -11 45 -4 47 -8 187 -6 215 3 54 -5 136 -15 154 -6 11 -7 31 -3
45 5 19 5 336 0 336 -6 0 -4 205 2 218 5 9 5 17 1 17 -4 0 -14 4 -22 9 -11 7
-10 13 4 35 15 22 16 33 8 61 -6 19 -7 37 -2 42 5 5 10 71 11 148 1 77 4 144
7 150 12 22 9 61 -6 77 -14 16 -15 21 -2 45 10 19 14 61 13 160 -1 73 2 133 6
133 9 0 8 32 -5 208 -6 77 -4 102 5 102 9 0 11 24 7 95 -3 52 -1 98 4 101 5 3
9 21 9 40 0 19 5 34 11 34 6 0 9 9 6 20 -3 11 -1 20 3 20 5 0 6 15 3 33 -2 17
0 57 5 87 7 34 7 59 1 64 -13 14 -11 26 5 26 12 0 12 7 0 47 -11 35 -11 49 -2
60 8 10 11 74 10 211 -1 108 -1 238 0 287 3 95 0 201 -9 380 -4 61 -7 160 -7
220 -1 61 -5 116 -9 123 -8 12 -7 23 15 95 10 32 9 40 -3 48 -10 6 -11 11 -3
17 6 4 14 39 17 77 4 39 9 89 11 112 4 28 1 47 -9 56 -12 12 -12 17 0 34 15
21 34 247 27 318 -11 109 -16 331 -8 344 4 6 2 27 -4 47 -7 19 -9 41 -6 49 3
8 0 17 -5 21 -7 4 -8 19 -4 38 4 17 9 79 10 138 2 59 6 111 9 117 3 5 5 30 4
55 -1 37 -5 46 -20 46 -22 0 -23 9 -2 25 9 6 18 31 21 61 2 27 8 58 13 69 5
11 11 52 14 90 3 39 6 77 7 85 4 27 -5 105 -12 110 -7 6 -23 238 -19 285 3 36
3 30 -4 180 -2 66 -5 155 -5 197 -1 65 -3 76 -16 72 -8 -4 -15 -1 -15 5 0 6 6
10 13 8 7 -1 11 6 9 18 -43 275 -48 325 -34 325 16 0 25 39 12 55 -9 10 -9 19
0 35 7 12 9 32 6 45 -3 13 -1 27 5 30 6 4 9 23 8 44 -1 20 4 50 11 66 16 37
13 87 -6 98 -8 4 -14 15 -14 23 0 8 -5 12 -10 9 -6 -3 -10 1 -10 9 0 9 -9 16
-20 16 -11 0 -29 6 -40 12 -16 10 -24 10 -40 0 -11 -6 -27 -12 -35 -12 -9 0
-33 -9 -55 -20 -22 -11 -48 -20 -60 -20 -11 0 -20 -4 -20 -10 0 -12 -35 -13
-58 -1 -9 4 -48 5 -85 1 -38 -4 -85 -4 -105 1 -20 5 -70 11 -111 14 -40 2 -79
9 -86 15 -6 5 -15 7 -19 3 -4 -4 -22 -6 -41 -5 -23 2 -36 -2 -43 -13 -7 -14
-10 -15 -15 -3 -3 10 -17 14 -44 11 -58 -5 -87 -6 -98 -3 -24 6 -45 -1 -45
-16 0 -11 -5 -14 -17 -9 -10 4 -40 9 -66 11 -36 3 -49 0 -53 -11 -4 -10 -10
-12 -18 -6 -11 9 -138 8 -166 -1 -8 -3 -40 -11 -70 -17 -30 -6 -74 -16 -98
-21 -24 -5 -86 -12 -138 -15 -83 -5 -100 -4 -128 13 -26 16 -47 19 -100 16
-40 -3 -66 0 -66 6 0 5 -11 10 -24 10 -13 0 -42 7 -65 15 -30 10 -54 12 -86 6
-25 -5 -45 -5 -45 0 0 4 -26 13 -57 19 -32 7 -66 16 -75 21 -11 5 -20 5 -24
-2 -4 -7 -23 -9 -45 -6 -23 3 -39 1 -39 -5 0 -12 -130 0 -147 14 -7 5 -18 6
-25 1 -32 -20 -300 -2 -408 27 -19 6 -53 10 -75 10 -22 0 -52 7 -67 14 -15 8
-30 11 -33 7 -8 -14 -653 2 -724 18 -21 4 -45 4 -54 0 -16 -9 -124 -5 -134 5
-10 10 -51 7 -58 -4 -7 -12 -45 -14 -45 -2 0 9 -675 5 -830 -6 -63 -4 -135 -4
-160 0 -46 9 -80 5 -138 -15 -25 -9 -35 -9 -40 0 -6 10 -298 29 -382 25 -8 0
-52 -2 -98 -5 -45 -3 -84 -2 -87 3 -6 9 -121 7 -131 -2 -3 -4 -16 -3 -29 2
-14 5 -26 5 -32 -1 -6 -6 -48 -12 -94 -14 -46 -2 -84 -4 -84 -5 0 -7 -232 -4
-242 3 -7 5 -30 3 -55 -4 -51 -14 -200 -14 -226 0 -19 10 -58 5 -77 -10 -6 -4
-19 -1 -29 7 -11 8 -29 14 -41 14 -12 0 -25 3 -28 6 -4 4 -50 7 -103 6 -52 0
-107 3 -121 9 -14 5 -53 10 -87 10 -33 1 -67 6 -74 12 -17 13 -202 11 -216 -3
-16 -16 -26 -12 -26 10 0 21 -1 21 -85 20 -62 -1 -278 -10 -322 -13 -39 -3
-53 -1 -53 8 0 14 -24 15 -36 2 -4 -4 -21 -7 -38 -7 -17 0 -46 -4 -63 -9 -21
-6 -35 -6 -39 0 -7 12 -214 9 -231 -3 -6 -5 -14 -5 -16 0 -8 11 -79 7 -222
-13 -75 -10 -141 -14 -175 -10 -30 4 -75 9 -100 10 -25 2 -47 4 -50 5 -3 2 -9
2 -13 1 -4 -1 -17 4 -29 10 -32 17 -429 24 -439 8 -6 -10 -13 -8 -34 5 -20 13
-30 15 -40 6 -8 -6 -53 -13 -100 -16 -47 -2 -94 -8 -103 -13 -9 -5 -49 -7 -89
-4 -54 4 -84 2 -117 -11 -24 -9 -48 -16 -52 -14 -5 1 -31 -2 -59 -6 -51 -8
-92 -9 -250 -1 -74 4 -92 8 -103 24 -11 16 -18 17 -45 9 -18 -6 -39 -14 -48
-18 -8 -5 -35 -3 -60 2 -24 6 -60 11 -79 13 -19 2 -36 4 -37 6 -2 1 -7 3 -13
4 -5 1 -11 4 -12 5 -7 6 -130 10 -175 5 -38 -5 -53 -11 -53 -21 0 -8 -5 -12
-10 -9 -6 4 -8 10 -5 15 6 10 -22 20 -61 21 -183 2 -302 7 -316 13 -9 4 -22 5
-29 1 -6 -4 -15 -2 -19 5 -7 11 -17 11 -53 0 -25 -6 -50 -9 -57 -5 -6 4 -17 1
-25 -5 -8 -6 -18 -9 -24 -6 -5 3 -7 -3 -4 -14 4 -14 0 -20 -12 -20 -11 0 -15
5 -12 14 4 11 -7 17 -41 25 -39 8 -48 7 -59 -7 -10 -14 -14 -14 -21 -4 -6 9
-29 13 -76 11 -52 -2 -72 2 -88 15 -18 16 -21 16 -38 1 -14 -12 -34 -16 -87
-14 -37 2 -80 7 -94 11 -17 6 -37 4 -59 -6 -24 -9 -42 -11 -60 -4 -17 5 -36 5
-52 -1 -17 -6 -29 -6 -36 1 -6 6 -12 6 -16 0 -4 -7 -17 -7 -35 -2 -16 4 -31 6
-34 4 -2 -3 -59 -5 -126 -5 -66 -1 -137 -5 -156 -9 -28 -6 -35 -5 -35 7 0 12
-3 13 -13 5 -20 -17 -153 -40 -232 -41 -38 -1 -100 -4 -137 -7 -37 -3 -86 -7
-110 -9 -24 -2 -43 -4 -43 -5 0 -1 -184 -3 -410 -5 -225 -2 -417 -6 -425 -8
-8 -3 -67 -8 -130 -11 -63 -3 -125 -8 -137 -12 -13 -3 -23 -2 -23 3 0 6 -30 8
-77 4 -43 -3 -99 -5 -125 -6 -27 0 -48 -3 -48 -7 0 -5 -15 -8 -33 -8 -18 0
-42 -7 -54 -15 -18 -13 -22 -13 -33 0 -9 11 -16 12 -25 5 -7 -6 -75 -13 -151
-15 -151 -6 -163 -7 -181 -18 -6 -4 -56 -9 -110 -12 -54 -3 -119 -7 -145 -8
-25 -2 -54 -9 -62 -16 -9 -8 -19 -11 -23 -7 -3 3 -1 6 5 6 7 0 12 5 12 11 0 8
-13 10 -37 6 -22 -4 -42 -2 -51 5 -17 15 -95 17 -104 3 -5 -6 -8 -5 -8 3 0 7
-4 11 -9 8 -5 -3 -23 -1 -40 5 -21 8 -35 8 -44 1 -7 -6 -47 -8 -91 -6 -57 3
-82 0 -88 -9 -5 -8 -8 -7 -8 6 0 22 -28 22 -52 0 -17 -15 -18 -15 -18 4 0 16
-9 22 -37 26 -24 4 -40 2 -45 -6 -6 -9 -8 -9 -8 0 0 20 -40 27 -160 29 -63 1
-133 3 -155 5 -66 5 -117 0 -110 -11 7 -11 -23 -2 -41 12 -7 5 -59 10 -116 12
-58 2 -113 8 -124 14 -11 6 -26 7 -34 2 -20 -11 -132 -17 -146 -8 -22 14 -199
21 -222 9 -11 -6 -23 -7 -26 -2 -3 5 -40 9 -81 9 -41 0 -81 4 -88 10 -6 6 -34
8 -62 6 -27 -2 -76 -6 -107 -8 -33 -3 -60 0 -64 5 -3 6 -22 9 -43 8 -20 -1
-48 4 -63 11 -23 11 -33 10 -64 -5 -29 -14 -42 -15 -55 -7 -12 8 -20 8 -24 2
-8 -13 -55 -13 -55 0 0 14 -66 13 -90 -2 -15 -10 -24 -9 -46 2 -21 11 -53 14
-133 11 -58 -3 -128 -4 -156 -4 -346 9 -792 9 -802 1 -18 -14 -106 -17 -116
-4 -6 8 -10 7 -14 -1 -6 -17 -35 -17 -51 -1 -10 10 -14 10 -20 1 -7 -12 -26
-12 -240 1 -18 1 -36 -2 -38 -6 -3 -4 -19 -8 -37 -7 -18 0 -63 -2 -102 -5 -38
-4 -77 -6 -85 -6 -8 1 -49 3 -90 6 -151 10 -395 12 -411 3 -9 -5 -30 -4 -48 1
-19 5 -31 5 -31 -1 0 -14 -48 -11 -80 6 -16 8 -31 11 -34 6 -3 -5 -118 -8
-256 -6 -201 2 -252 -1 -261 -12 -7 -8 -16 -10 -23 -4 -19 15 -108 30 -171 30
-33 0 -92 4 -130 10 -82 12 -218 15 -293 6 -33 -3 -61 -1 -75 6 -30 17 -179
22 -188 7 -4 -6 -25 -11 -46 -10 -90 2 -143 2 -221 -3 -45 -2 -93 0 -106 5
-15 5 -27 5 -34 -2 -8 -8 -18 -8 -37 0 -31 14 -72 16 -79 3 -4 -5 -24 -5 -48
1 -61 15 -113 19 -273 23 -77 2 -146 -1 -154 -5 -8 -4 -30 -1 -50 7 -27 11
-40 12 -53 4 -25 -16 -69 -14 -82 3 -8 11 -20 13 -45 8 -18 -4 -62 -5 -97 -2
-59 5 -64 4 -64 -14 0 -16 -3 -17 -12 -8 -14 14 -52 16 -43 2 3 -5 1 -10 -4
-10 -6 0 -11 5 -11 11 0 5 -4 8 -9 5 -5 -4 -11 -1 -13 5 -3 8 -17 9 -48 2 -31
-6 -54 -6 -72 2 -39 15 -233 6 -315 -16 -34 -9 -46 -9 -59 2 -19 16 -91 13
-119 -5 -14 -9 -61 -12 -162 -10 -116 2 -146 0 -158 -12 -8 -9 -19 -12 -25 -9
-6 4 -26 1 -46 -5 -24 -8 -39 -9 -47 -2 -12 10 -186 0 -287 -17 -25 -4 -56 -4
-70 0 -14 4 -48 7 -77 8 -29 1 -65 9 -82 19 -31 17 -31 17 -55 -13 -13 -16
-28 -26 -32 -22 -5 4 -2 12 6 18 13 8 13 10 0 19 -24 15 -104 29 -228 40 -64
6 -142 13 -172 16 -81 9 -180 10 -193 2 -6 -4 -20 0 -29 9 -16 14 -18 14 -18
1 0 -11 -7 -14 -25 -10 -14 2 -28 8 -31 13 -6 10 -36 10 -81 -1z m457 -80 c0
-5 -4 -10 -10 -10 -5 0 -10 5 -10 10 0 6 5 10 10 10 6 0 10 -4 10 -10z m2595
-8 c-3 -3 -11 0 -18 7 -9 10 -8 11 6 5 10 -3 15 -9 12 -12z m85 -2 c0 -5 -7
-10 -15 -10 -8 0 -15 5 -15 10 0 6 7 10 15 10 8 0 15 -4 15 -10z m4172 -12
c-7 -7 -12 -8 -12 -2 0 14 12 26 19 19 2 -3 -1 -11 -7 -17z m-8052 -8 c0 -12
-8 -12 -35 0 -18 8 -17 9 8 9 15 1 27 -3 27 -9z m2385 0 c3 -5 1 -10 -4 -10
-6 0 -11 5 -11 10 0 6 2 10 4 10 3 0 8 -4 11 -10z m3035 -8 c0 -16 -32 -12
-37 5 -3 7 4 11 16 10 12 -1 21 -7 21 -15z m-4180 -2 c0 -5 -5 -10 -11 -10 -5
0 -7 5 -4 10 3 6 8 10 11 10 2 0 4 -4 4 -10z m1207 -7 c3 -7 -3 -9 -16 -6 -12
3 -21 10 -21 15 0 13 32 6 37 -9z m5963 -13 c0 -5 -4 -10 -10 -10 -5 0 -10 5
-10 10 0 6 5 10 10 10 6 0 10 -4 10 -10z m9690 -10 c0 -5 -8 -10 -17 -10 -15
0 -16 2 -3 10 19 12 20 12 20 0z m-16920 -10 c0 -5 -2 -10 -4 -10 -3 0 -8 5
-11 10 -3 6 -1 10 4 10 6 0 11 -4 11 -10z m2297 -16 c-9 -9 -28 6 -21 18 4 6
10 6 17 -1 6 -6 8 -13 4 -17z m-2481 1 c18 -17 44 -20 44 -4 0 6 8 7 23 3 12
-4 33 -9 47 -10 14 -1 27 -3 30 -4 3 -1 22 -1 43 0 48 2 178 -19 194 -32 7 -5
22 -7 34 -3 13 4 24 2 29 -5 4 -6 31 -13 60 -15 29 -2 56 -8 59 -13 3 -6 23
-14 44 -20 30 -8 37 -8 37 4 0 21 26 17 49 -7 25 -27 62 -19 40 8 -13 15 -12
15 8 5 27 -15 133 -16 133 -2 0 6 8 5 20 -2 15 -10 22 -10 28 -2 4 7 20 10 37
9 16 -2 34 -1 40 3 10 7 35 9 172 14 75 3 81 6 61 26 -9 9 -8 12 5 12 10 0 20
-7 24 -16 5 -13 14 -15 47 -9 23 4 102 9 176 11 187 4 270 11 284 23 7 6 16 8
20 4 4 -4 34 -8 66 -8 40 -1 57 2 50 9 -17 17 -11 28 13 24 12 -2 20 -7 19
-12 -2 -5 2 -13 10 -17 19 -13 28 -11 22 5 -6 15 19 28 40 20 8 -3 16 -15 19
-26 4 -14 11 -19 22 -14 9 3 24 6 33 6 13 0 9 7 -12 25 -27 23 -28 25 -8 25
12 0 22 -5 22 -11 0 -6 9 -8 20 -4 14 5 20 2 20 -9 0 -9 3 -16 8 -16 4 -1 29
-3 56 -5 27 -3 55 0 62 6 7 6 18 9 26 8 28 -3 38 2 38 19 1 16 1 16 11 -1 6
-9 22 -17 37 -18 55 0 128 -6 180 -14 35 -5 52 -4 52 3 0 6 -4 14 -10 17 -13
8 -13 25 0 25 6 0 24 -10 40 -21 18 -14 38 -20 54 -17 14 3 27 1 28 -4 2 -5
39 -10 83 -10 80 0 94 2 129 17 13 6 23 3 32 -10 11 -15 22 -17 62 -12 32 4
53 2 61 -6 9 -9 14 -9 20 1 10 17 109 11 120 -7 6 -9 37 -13 101 -13 84 -1 95
1 111 21 9 11 23 21 31 20 10 0 10 -2 1 -6 -23 -9 -14 -23 15 -23 74 2 206
-11 218 -21 11 -9 14 -8 14 1 0 9 14 11 53 7 35 -3 58 -1 71 8 10 8 23 12 29
9 7 -2 31 -5 55 -7 30 -2 42 0 42 10 0 17 15 17 30 -2 16 -19 56 -19 109 0 22
8 41 10 41 5 0 -4 -6 -10 -12 -13 -7 -2 -11 -7 -8 -10 3 -3 25 2 49 10 25 8
46 11 50 6 12 -18 128 -35 205 -30 42 2 79 1 81 -4 3 -4 27 -8 54 -7 27 0 59
-3 72 -7 17 -6 21 -4 16 8 -5 13 1 16 36 13 24 -1 47 -5 52 -8 22 -12 65 -18
65 -8 0 5 -4 10 -10 10 -5 0 -10 5 -10 10 0 15 38 12 43 -2 5 -17 96 -15 107
2 6 9 11 8 19 -8 9 -18 16 -19 43 -12 17 5 36 6 42 1 16 -12 61 2 61 19 0 21
11 23 43 6 16 -8 56 -14 99 -14 39 0 76 -3 82 -7 6 -3 11 1 11 9 0 9 5 16 11
16 6 0 9 -7 6 -15 -5 -12 6 -13 66 -9 40 2 73 8 75 13 2 5 12 7 22 4 11 -3 17
-9 14 -14 -3 -5 10 -9 28 -10 18 0 48 -1 66 -2 22 -1 31 2 28 10 -8 20 16 28
29 10 13 -19 85 -24 85 -7 0 16 27 12 34 -5 5 -13 10 -14 27 -4 17 9 28 7 54
-6 23 -13 42 -16 68 -11 39 7 44 15 25 34 -9 9 -8 12 4 12 8 0 22 -7 29 -16
10 -12 24 -15 59 -10 100 14 160 16 160 6 0 -5 4 -10 10 -10 5 0 7 7 4 15 -8
19 10 19 26 0 7 -8 17 -12 24 -8 6 4 41 6 78 4 78 -3 108 4 108 25 0 8 5 14
10 14 6 0 10 -7 10 -15 0 -17 55 -22 64 -6 4 5 23 5 48 0 27 -7 45 -6 52 1 14
14 26 13 26 -4 0 -8 7 -16 15 -20 17 -6 20 5 4 21 -8 8 -8 13 1 18 7 4 13 -1
16 -12 4 -15 12 -18 37 -15 18 3 38 10 46 16 11 8 15 8 18 -1 3 -8 14 -11 27
-7 12 3 35 0 51 -6 19 -7 31 -8 39 0 5 5 21 10 34 10 14 0 33 11 44 25 22 28
41 33 31 8 -5 -12 -2 -15 10 -10 9 3 19 2 23 -4 3 -6 12 -8 19 -5 8 3 15 1 17
-4 5 -15 88 13 89 30 0 9 5 5 12 -10 11 -23 18 -25 85 -27 69 -2 72 -1 62 17
-12 22 -10 23 14 14 9 -3 16 -13 16 -21 0 -15 29 -14 72 2 11 4 18 1 21 -12 3
-15 5 -14 14 7 l11 25 11 -25 c10 -25 10 -25 17 -3 6 21 7 22 32 5 14 -9 23
-12 19 -6 -4 7 3 14 18 16 26 5 35 -6 13 -15 -7 -3 3 -6 22 -7 90 -4 125 -9
128 -18 4 -12 39 -4 70 16 20 13 22 13 22 -2 0 -19 21 -21 39 -3 11 10 14 10
18 0 8 -21 54 -16 60 7 3 11 9 20 13 20 5 0 10 6 13 13 2 6 3 5 2 -3 -2 -8 -6
-22 -10 -31 -5 -14 2 -18 37 -21 29 -3 46 0 51 9 11 18 27 16 27 -3 0 -10 6
-13 18 -10 9 3 31 2 47 -3 17 -4 42 -4 58 2 21 7 36 6 54 -4 22 -12 27 -12 31
0 3 8 7 9 11 3 11 -18 93 -19 89 -1 -2 6 3 14 11 17 10 3 12 0 8 -11 -5 -13 5
-17 51 -23 31 -4 75 -7 97 -7 22 0 45 -2 50 -6 6 -4 69 -7 141 -7 110 1 133 4
148 19 21 21 36 22 36 2 0 -12 19 -14 103 -14 60 1 105 5 109 12 4 7 12 5 22
-6 23 -22 53 -30 84 -21 33 9 83 5 99 -7 7 -7 14 -6 18 1 5 8 12 6 25 -5 15
-14 18 -14 23 -1 3 8 -1 17 -10 20 -32 13 -3 18 33 6 32 -11 39 -10 49 4 15
20 31 21 39 0 4 -9 13 -14 21 -10 8 3 15 2 15 -3 0 -13 40 -21 41 -8 0 8 2 8
6 -1 2 -6 9 -10 14 -6 5 3 9 2 9 -3 0 -4 22 -6 50 -5 32 3 50 0 50 -7 0 -7 25
-10 70 -9 39 1 70 6 70 10 0 13 28 9 32 -4 3 -7 20 -11 45 -10 23 2 44 -2 48
-8 4 -6 15 -8 25 -5 10 3 21 1 24 -4 8 -13 107 -12 123 1 9 7 17 5 28 -6 21
-20 134 -11 152 13 10 15 12 15 18 0 4 -11 15 -14 35 -11 17 2 28 8 25 12 -9
14 23 19 56 10 21 -6 47 -6 71 1 26 6 50 7 74 0 43 -12 194 -5 208 9 12 12 96
13 115 1 8 -5 24 -5 35 -1 61 24 88 30 143 30 17 0 38 6 46 15 20 19 32 19 52
-1 14 -14 20 -15 40 -4 13 7 28 9 34 6 6 -4 11 -3 11 2 0 18 43 22 55 6 10
-14 21 -14 111 -1 127 19 154 20 170 6 8 -7 25 -8 41 -4 41 11 75 13 98 5 12
-5 32 -1 50 8 28 14 29 14 16 -1 -16 -20 -1 -23 31 -6 14 7 23 8 27 1 8 -13
81 -11 81 1 0 5 6 5 13 -1 6 -6 24 -8 40 -5 22 4 25 8 16 19 -18 21 -5 17 25
-10 24 -20 33 -22 65 -15 20 5 40 9 45 9 4 0 5 7 2 16 -4 12 0 15 17 12 12 -2
21 -8 20 -13 -2 -12 62 -14 73 -2 4 4 17 7 29 7 11 0 27 6 34 13 11 10 13 9 8
-5 -7 -19 17 -26 28 -8 10 16 25 12 25 -6 0 -13 3 -14 14 -5 7 6 21 9 30 5 9
-3 16 -2 16 3 0 6 14 10 30 11 17 0 30 -5 30 -11 0 -7 11 2 25 18 18 22 24 25
25 13 0 -21 55 -34 75 -18 8 6 24 9 35 5 12 -4 35 -1 53 6 24 10 32 10 35 0 3
-9 9 -8 22 4 12 11 20 13 25 6 8 -14 65 -14 65 0 0 6 6 9 14 6 9 -4 16 3 20
16 6 20 7 21 17 5 12 -21 45 -24 53 -5 5 10 7 10 12 0 8 -18 24 -16 24 2 0 12
5 12 33 -4 24 -14 50 -17 107 -16 41 2 76 7 78 13 2 7 17 6 43 -3 43 -16 73
-10 65 11 -7 19 9 18 29 -2 11 -11 25 -14 45 -10 18 3 30 1 30 -5 0 -5 14 -2
31 8 29 17 31 17 40 0 6 -10 15 -14 22 -10 17 11 200 13 212 3 6 -5 28 -5 50
0 29 6 44 5 55 -4 19 -16 66 -15 63 2 -4 19 11 14 25 -8 10 -16 16 -18 32 -10
10 5 30 10 44 10 14 0 28 5 32 11 4 6 20 8 40 4 19 -3 40 -3 46 1 7 5 32 8 55
9 34 0 43 -3 43 -17 0 -21 20 -34 29 -19 7 10 41 9 93 -4 19 -5 29 -2 36 10 6
12 11 14 16 6 5 -8 13 -8 27 -1 10 6 19 7 19 2 0 -4 17 -9 37 -10 21 -2 41 -6
45 -10 11 -11 78 -2 78 9 0 5 7 9 15 9 8 0 15 -5 15 -11 0 -7 16 -8 45 -3 33
4 45 3 45 -6 0 -8 9 -11 25 -8 14 3 25 1 25 -3 0 -14 44 -11 59 4 11 10 14 10
18 0 3 -7 18 -13 33 -13 16 0 32 -5 35 -10 4 -7 13 -6 27 1 14 8 28 7 49 -1
17 -8 46 -10 73 -6 33 5 54 3 77 -10 31 -15 33 -15 46 2 11 15 15 16 22 5 7
-10 24 -12 65 -9 31 3 56 1 56 -4 0 -10 71 0 84 12 5 5 17 4 26 -3 14 -8 22
-7 35 3 16 13 67 21 158 24 37 1 48 9 25 20 -7 3 3 4 22 1 61 -9 154 -7 189 4
19 6 37 9 41 6 7 -4 110 -5 185 -1 28 1 60 8 71 14 18 9 24 9 34 -3 19 -23 91
-39 113 -26 10 7 23 9 29 5 18 -11 91 -13 110 -3 14 7 18 6 18 -6 0 -14 45
-22 103 -17 9 1 17 -2 17 -7 0 -12 137 -13 144 -2 3 5 17 6 31 4 17 -4 27 0
31 11 7 18 34 22 34 5 0 -6 8 -8 18 -5 9 3 51 8 92 12 41 3 89 8 105 10 36 4
267 5 348 1 32 -1 61 1 64 6 3 5 14 7 24 4 10 -3 22 -1 25 4 3 5 9 7 13 4 5
-2 75 -6 157 -9 82 -2 143 -2 137 1 -21 8 -16 45 5 41 10 -2 16 -12 15 -24 -2
-18 4 -21 55 -24 62 -3 84 -4 122 -1 14 1 41 0 60 -3 50 -8 97 -14 165 -21 33
-4 76 -10 95 -16 19 -5 47 -9 63 -9 15 0 27 -5 27 -11 0 -7 11 -9 30 -5 16 3
30 2 30 -3 0 -4 13 -6 29 -3 16 2 53 -1 83 -8 84 -18 126 -21 133 -10 3 6 11
8 16 4 5 -3 6 -10 3 -16 -4 -6 -2 -8 4 -4 6 3 37 7 69 7 32 1 68 6 81 12 15 7
29 7 45 0 32 -16 66 -22 69 -12 2 4 26 9 53 10 28 2 58 7 69 13 12 7 20 8 22
1 2 -6 32 -8 71 -6 38 2 91 5 118 6 28 1 58 6 68 10 10 4 31 5 47 2 16 -4 31
-3 34 1 8 13 312 8 328 -6 8 -6 17 -9 20 -6 4 3 104 7 225 10 255 4 719 15
748 16 11 1 58 1 105 0 47 0 110 0 140 0 86 1 304 -1 315 -2 13 -2 139 -7 372
-15 212 -7 213 -7 231 -19 7 -4 19 -3 26 3 7 6 26 9 42 6 22 -4 230 -13 352
-15 6 0 18 0 25 0 39 -1 97 -13 97 -22 0 -5 4 -7 8 -4 5 3 40 0 78 -6 38 -5
85 -11 104 -13 19 -2 35 -4 35 -4 0 -4 175 -12 325 -17 174 -5 268 -11 320
-19 19 -3 73 -10 120 -16 47 -6 94 -15 105 -20 36 -17 265 -35 344 -27 81 8
96 11 124 23 9 4 26 5 37 2 10 -3 27 1 37 8 18 12 205 36 278 35 22 -1 78 2
125 6 129 11 391 16 409 8 19 -7 102 -14 184 -14 31 1 57 -3 57 -8 0 -20 -74
-82 -98 -82 -9 0 -23 -9 -30 -20 -7 -11 -23 -20 -36 -20 -12 0 -31 -9 -41 -20
-10 -11 -24 -20 -31 -20 -7 0 -29 -13 -47 -30 -19 -16 -40 -30 -47 -30 -16 0
-40 -26 -40 -44 0 -9 -6 -16 -12 -16 -13 0 -72 -51 -80 -67 -1 -4 -19 -21 -38
-36 -101 -83 -128 -110 -123 -125 5 -12 1 -14 -26 -9 -35 7 -60 -2 -92 -34
-10 -10 -28 -19 -39 -19 -11 0 -20 -6 -20 -14 0 -8 -16 -27 -36 -43 -20 -15
-59 -50 -87 -78 -29 -27 -54 -49 -57 -50 -3 0 -25 -15 -48 -33 -23 -18 -46
-31 -50 -28 -12 7 -120 -46 -120 -59 0 -5 -14 -17 -32 -26 -17 -10 -39 -24
-49 -33 -10 -9 -21 -16 -25 -16 -4 0 -30 -22 -57 -50 -27 -27 -55 -50 -63 -50
-7 0 -34 -21 -59 -47 -52 -54 -100 -93 -116 -93 -6 0 -8 -6 -5 -14 4 -10 0
-13 -13 -10 -13 4 -47 -21 -113 -82 -52 -47 -110 -93 -127 -100 -18 -8 -33
-19 -33 -24 0 -6 -7 -13 -17 -17 -9 -3 -32 -24 -51 -45 -19 -21 -41 -38 -48
-38 -8 0 -14 -6 -14 -13 0 -8 -12 -20 -27 -28 -32 -16 -106 -70 -111 -81 -3
-7 -113 -97 -190 -155 -23 -18 -47 -33 -52 -33 -6 0 -10 -4 -10 -10 0 -5 -6
-10 -13 -10 -7 0 -24 -13 -37 -30 -14 -16 -28 -29 -32 -30 -10 0 -73 -44 -93
-64 -9 -9 -20 -16 -25 -16 -5 0 -36 -27 -70 -60 -34 -33 -67 -60 -74 -60 -7 0
-22 -10 -33 -22 -65 -71 -207 -186 -239 -194 -22 -6 -29 -16 -25 -37 1 -5 -2
-6 -7 -3 -10 6 -58 -27 -99 -69 -16 -15 -48 -41 -73 -58 -40 -27 -174 -150
-220 -202 -73 -82 -114 -134 -122 -157 -6 -17 -17 -28 -28 -28 -10 0 -30 -14
-44 -31 -14 -17 -30 -27 -36 -24 -5 3 -10 3 -10 -2 0 -4 -23 -21 -50 -36 -28
-16 -62 -44 -78 -63 -15 -19 -33 -34 -39 -34 -7 0 -13 -7 -13 -15 0 -8 -18
-26 -40 -40 -23 -14 -49 -34 -59 -44 -10 -10 -41 -36 -67 -57 -119 -95 -204
-173 -204 -188 0 -6 -13 -17 -30 -23 -16 -6 -30 -18 -30 -27 0 -9 -8 -16 -17
-16 -38 -1 -253 -172 -253 -201 0 -5 -5 -9 -11 -9 -12 0 -48 -40 -49 -55 0 -5
-23 -30 -50 -54 -28 -24 -50 -48 -50 -55 0 -15 -157 -164 -192 -182 -14 -7
-36 -27 -47 -43 -11 -16 -36 -36 -56 -45 -19 -9 -35 -21 -35 -25 0 -26 -75
-101 -127 -127 -32 -17 -59 -37 -61 -45 -2 -8 -8 -16 -14 -18 -10 -3 -28 -21
-125 -122 -23 -24 -78 -78 -122 -119 -44 -41 -86 -87 -92 -103 -7 -16 -22 -32
-33 -37 -12 -4 -28 -21 -36 -36 -8 -16 -20 -32 -27 -37 -12 -7 -73 -94 -73
-103 0 -3 -10 -15 -23 -27 -12 -12 -29 -34 -36 -49 -8 -16 -25 -35 -38 -43
-13 -9 -21 -20 -18 -25 3 -4 -14 -23 -37 -41 -24 -19 -49 -39 -56 -46 -7 -7
-18 -13 -23 -13 -15 0 -131 -119 -167 -172 -18 -27 -38 -48 -45 -48 -16 0
-107 -83 -107 -97 0 -6 -16 -18 -35 -27 -19 -9 -40 -27 -47 -39 -6 -12 -44
-54 -85 -93 -40 -39 -73 -75 -73 -79 0 -11 -42 -44 -76 -59 -36 -16 -144 -122
-144 -141 0 -7 -16 -22 -35 -34 -19 -11 -35 -27 -35 -35 0 -7 -15 -21 -33 -29
-18 -9 -57 -44 -87 -78 -65 -73 -97 -105 -140 -138 -17 -13 -36 -35 -41 -48
-6 -18 -14 -23 -26 -19 -9 4 -23 -1 -33 -11 -9 -10 -37 -34 -60 -53 -24 -19
-60 -51 -81 -72 -20 -20 -54 -44 -75 -54 -20 -10 -39 -26 -42 -36 -2 -10 -13
-18 -24 -18 -15 0 -19 -5 -15 -20 4 -17 1 -19 -19 -14 -21 5 -37 -6 -104 -72
-103 -102 -105 -104 -131 -104 -12 0 -19 -3 -16 -7 4 -3 -6 -13 -21 -20 -15
-8 -63 -33 -106 -56 -44 -23 -81 -49 -84 -59 -2 -10 -15 -21 -27 -24 -13 -3
-25 -15 -28 -26 -3 -11 -10 -17 -17 -13 -6 4 -29 -9 -50 -29 -22 -20 -45 -36
-50 -36 -13 0 -140 -131 -140 -144 0 -18 -33 -46 -56 -46 -13 0 -29 -8 -36
-18 -7 -10 -46 -42 -85 -71 -40 -30 -73 -58 -73 -62 0 -5 -7 -9 -15 -9 -8 0
-15 -6 -15 -12 0 -7 -13 -14 -29 -15 -16 -1 -44 -16 -62 -33 -18 -16 -39 -30
-45 -30 -7 0 -30 -16 -51 -35 -76 -71 -82 -75 -98 -69 -11 5 -19 -2 -27 -24
-6 -16 -24 -37 -40 -47 -16 -9 -38 -30 -50 -46 -12 -16 -28 -29 -35 -29 -8 0
-28 -13 -46 -30 -18 -16 -38 -30 -46 -30 -18 0 -91 -79 -91 -99 0 -5 -8 -7
-18 -4 -13 3 -38 -14 -80 -56 -34 -34 -66 -61 -72 -61 -5 0 -16 -12 -24 -27
-17 -34 -46 -58 -77 -68 -13 -5 -30 -16 -37 -26 -7 -11 -20 -19 -27 -19 -8 0
-22 -11 -31 -25 -9 -13 -24 -27 -35 -30 -10 -4 -19 -12 -19 -18 0 -7 -20 -25
-44 -40 -25 -16 -43 -34 -40 -40 2 -7 -7 -13 -25 -14 -37 -3 -128 -61 -137
-88 -9 -24 -30 -46 -38 -38 -3 4 -6 0 -6 -8 -1 -21 -51 -74 -88 -93 -18 -9
-30 -21 -27 -25 2 -5 -4 -11 -14 -14 -11 -3 -22 -17 -26 -36 -5 -23 -12 -31
-28 -31 -12 0 -33 -7 -47 -15 -14 -8 -32 -17 -40 -21 -23 -11 -58 -51 -62 -71
-2 -10 -12 -19 -23 -21 -11 -3 -24 -10 -28 -18 -4 -8 -13 -14 -19 -14 -10 0
-88 -77 -88 -87 0 -2 -16 -20 -35 -40 -19 -20 -35 -40 -35 -45 0 -4 -10 -8
-21 -8 -12 0 -41 -20 -67 -45 -24 -25 -48 -45 -52 -45 -4 0 -22 -16 -39 -37
-17 -20 -41 -42 -53 -49 -43 -25 -73 -37 -85 -35 -7 1 -17 -8 -23 -19 -6 -11
-17 -20 -24 -20 -7 0 -26 -14 -42 -30 -37 -38 -76 -60 -108 -60 -19 0 -27 -7
-32 -25 -3 -13 -13 -27 -22 -30 -10 -3 -31 -18 -49 -35 -18 -16 -37 -30 -42
-30 -6 0 -11 -4 -11 -10 0 -5 -13 -10 -30 -10 -25 0 -30 -4 -30 -25 0 -14 -4
-25 -8 -25 -5 0 -25 -16 -45 -35 -20 -19 -43 -35 -51 -35 -8 0 -18 -9 -21 -21
-4 -11 -18 -25 -31 -31 -13 -6 -24 -15 -24 -20 0 -4 -9 -8 -19 -8 -10 0 -29
-11 -42 -25 -13 -13 -29 -25 -36 -25 -6 0 -19 -9 -27 -21 -8 -12 -19 -18 -24
-15 -5 3 -20 -2 -33 -12 -13 -11 -39 -25 -56 -33 -18 -8 -33 -19 -33 -25 0 -6
-11 -16 -25 -22 -14 -7 -48 -32 -74 -57 -27 -25 -53 -45 -57 -44 -23 4 -34 -3
-34 -20 0 -11 -8 -26 -18 -33 -9 -7 -26 -29 -36 -48 -26 -49 -46 -69 -60 -64
-7 3 -21 -4 -31 -16 -10 -11 -22 -20 -27 -20 -4 0 -17 -8 -27 -17 -40 -37 -50
-43 -63 -38 -9 4 -20 -8 -31 -30 -9 -19 -23 -35 -32 -35 -8 0 -15 -7 -15 -15
0 -9 -9 -15 -24 -15 -13 0 -30 -9 -38 -21 -9 -14 -25 -22 -47 -23 -22 -1 -40
-10 -55 -28 -11 -14 -37 -29 -56 -33 -19 -4 -45 -13 -57 -21 -12 -8 -31 -14
-41 -14 -10 0 -22 -4 -27 -9 -13 -12 -161 -25 -258 -22 -57 2 -100 11 -160 32
-45 17 -86 35 -92 40 -5 5 -26 9 -46 9 -21 0 -41 5 -44 10 -5 8 -11 7 -21 -1
-11 -9 -18 -8 -32 3 -17 16 -39 24 -84 34 -47 10 -124 23 -161 27 -21 3 -46
12 -56 21 -10 9 -40 19 -67 22 -27 3 -61 15 -76 25 -15 10 -36 19 -47 19 -11
0 -37 11 -57 25 -20 14 -50 25 -65 25 -16 0 -29 4 -29 9 0 9 -82 43 -96 40
-23 -5 -94 47 -94 68 0 6 -18 13 -39 17 -38 6 -135 51 -167 76 -8 7 -27 14
-42 15 -25 3 -96 32 -132 54 -8 5 -37 20 -65 32 -27 12 -52 26 -55 29 -12 17
-53 31 -71 25 -18 -6 -20 -4 -14 14 5 15 1 23 -12 28 -24 9 -42 34 -43 58 0
16 -2 17 -10 5 -7 -12 -18 -5 -55 33 -26 26 -53 47 -61 47 -8 0 -14 5 -14 10
0 6 -7 10 -16 10 -9 0 -25 11 -36 25 -11 14 -25 25 -31 25 -7 0 -28 13 -48 29
-43 36 -105 71 -124 71 -8 0 -29 16 -48 35 -19 19 -39 35 -45 35 -6 0 -12 10
-14 23 -2 15 -11 23 -28 25 -56 6 -72 14 -92 47 -11 19 -27 35 -35 35 -17 0
-43 24 -43 39 0 6 -6 11 -14 11 -7 0 -26 16 -40 35 -15 19 -37 37 -49 40 -13
4 -49 33 -81 66 -32 32 -64 59 -70 59 -7 0 -23 12 -37 26 -13 14 -39 35 -59
47 -19 12 -56 43 -83 69 -26 26 -56 48 -67 48 -11 0 -19 3 -19 8 5 27 -3 42
-22 42 -11 0 -34 13 -50 30 -47 47 -115 100 -128 100 -6 0 -11 8 -11 19 0 28
-131 151 -161 151 -10 0 -19 11 -23 25 -4 14 -11 25 -17 25 -20 0 -74 55 -74
75 0 11 -5 20 -12 20 -6 0 -24 11 -40 25 -15 14 -42 36 -60 48 -17 12 -35 31
-38 42 -4 11 -13 20 -21 20 -8 0 -14 5 -14 10 0 6 -14 10 -30 10 -26 0 -31 5
-36 29 -4 17 -14 31 -25 34 -10 3 -23 16 -28 29 -9 23 -80 78 -101 78 -6 0
-28 16 -48 35 -20 19 -58 50 -84 68 -26 17 -48 38 -48 45 0 6 -5 12 -10 12 -6
0 -30 20 -54 45 -25 25 -52 45 -60 45 -9 0 -16 7 -16 16 0 10 -6 14 -15 10
-11 -4 -15 1 -15 19 0 16 -7 26 -22 30 -49 14 -92 40 -161 100 -10 9 -22 13
-27 10 -6 -4 -10 -1 -10 4 0 6 -6 11 -12 11 -7 1 -26 18 -43 39 -18 23 -39 38
-52 38 -12 0 -35 15 -52 32 -17 17 -33 31 -35 31 -6 0 -33 23 -94 80 -23 22
-47 40 -52 40 -6 0 -9 5 -8 12 2 6 -6 14 -16 16 -10 2 -28 14 -40 26 -12 13
-36 29 -53 37 -18 8 -33 20 -33 26 0 7 -9 13 -20 13 -11 0 -20 5 -20 11 0 13
-41 48 -57 49 -7 0 -16 6 -20 14 -4 7 -35 30 -68 51 -62 40 -127 100 -139 130
-3 9 -15 19 -26 22 -11 3 -20 9 -20 14 0 5 -9 9 -20 9 -10 0 -27 12 -37 26
-10 15 -27 35 -38 45 -65 61 -91 82 -112 90 -13 5 -26 17 -30 26 -8 26 -150
163 -168 163 -8 0 -47 29 -86 65 -39 36 -77 65 -84 65 -8 0 -17 9 -20 20 -3
11 -12 20 -19 20 -7 0 -25 18 -40 40 -14 22 -34 40 -44 40 -9 0 -23 9 -30 20
-7 11 -20 20 -29 20 -22 0 -53 29 -47 45 3 7 -7 17 -25 23 -17 6 -31 17 -31
25 0 8 -16 22 -35 33 -19 10 -35 24 -35 31 0 7 -15 15 -34 18 -22 5 -37 15
-45 31 -6 14 -17 27 -25 30 -7 3 -62 52 -121 110 -60 57 -114 104 -120 104 -6
0 -18 11 -25 25 -8 15 -22 25 -35 25 -13 0 -28 6 -34 14 -7 9 -24 13 -42 11
-19 -3 -29 0 -29 9 0 22 -44 63 -82 75 -21 7 -40 22 -47 38 -16 35 -52 73 -71
73 -19 1 -54 30 -63 53 -4 10 -17 17 -32 17 -18 0 -28 7 -35 25 -5 14 -20 27
-35 31 -15 4 -32 20 -42 38 -17 35 -47 66 -62 66 -6 0 -25 18 -43 40 -34 43
-92 85 -118 85 -9 0 -14 9 -13 19 1 20 -16 38 -87 88 -25 18 -61 47 -80 64
-46 43 -87 74 -95 74 -4 0 -22 15 -40 33 -72 70 -92 87 -103 87 -6 0 -16 9
-22 20 -6 11 -17 20 -25 20 -9 0 -55 40 -103 88 -48 49 -107 103 -132 121 -25
17 -55 48 -66 69 -12 20 -31 42 -43 48 -22 11 -42 29 -87 76 -14 14 -38 31
-53 37 -14 7 -31 22 -36 34 -6 12 -20 26 -32 32 -13 5 -23 18 -23 28 0 25 -44
67 -71 67 -14 0 -53 31 -108 85 -48 47 -102 95 -121 106 -18 12 -63 51 -100
89 -36 37 -89 82 -118 100 -29 17 -57 40 -63 51 -5 10 -15 19 -22 19 -15 1
-57 35 -57 47 0 5 -14 20 -31 33 -17 14 -57 50 -88 80 -77 74 -136 122 -175
142 -18 9 -38 24 -45 32 -8 9 -18 16 -24 16 -5 0 -24 11 -41 24 -18 13 -40 25
-51 27 -11 3 -26 17 -33 32 -7 15 -18 27 -24 27 -6 0 -27 12 -47 28 -88 67
-132 89 -187 94 -6 1 -9 10 -6 20 2 11 -1 18 -9 18 -8 1 -32 19 -54 40 -22 22
-45 40 -53 40 -7 0 -15 7 -18 15 -4 8 -12 15 -20 15 -8 0 -34 20 -57 45 -24
25 -51 45 -60 45 -9 0 -20 6 -24 13 -4 7 -25 21 -45 31 -21 9 -38 23 -38 30 0
22 -78 86 -104 86 -13 0 -29 7 -36 15 -7 8 -16 13 -20 10 -4 -3 -10 2 -14 10
-3 8 -11 15 -18 15 -7 0 -40 25 -73 55 -33 30 -72 60 -87 67 -16 7 -28 17 -28
23 0 13 -92 95 -106 95 -7 0 -14 6 -17 14 -3 7 -32 33 -66 57 -33 24 -61 50
-61 57 0 6 -4 12 -9 12 -4 0 -29 16 -55 36 -38 29 -54 35 -77 30 -31 -6 -39 7
-13 22 14 8 14 10 -1 22 -8 7 -18 10 -22 7 -3 -4 -14 5 -25 18 -11 14 -25 25
-32 25 -22 0 -101 68 -106 92 -4 14 -17 27 -36 33 -16 6 -50 27 -76 49 -25 21
-50 38 -54 38 -5 0 -25 15 -46 33 -20 18 -46 38 -58 45 -15 8 -19 17 -15 31 4
12 2 19 -7 19 -16 0 -67 47 -103 95 -15 19 -59 60 -98 92 -40 32 -80 68 -90
81 -10 12 -33 30 -50 38 -17 9 -66 50 -108 90 -43 41 -81 74 -86 74 -4 0 -22
14 -40 30 -18 17 -34 30 -38 30 -3 0 -18 11 -33 24 -101 89 -149 126 -163 126
-20 0 -39 20 -39 42 0 10 -11 23 -24 28 -14 5 -35 23 -48 40 -13 18 -47 43
-75 58 -29 14 -53 30 -53 37 0 6 -18 21 -39 33 -22 12 -48 37 -60 55 -11 17
-22 30 -23 27 -5 -7 -73 51 -170 143 -22 21 -53 44 -69 53 -16 8 -31 25 -35
38 -4 16 -19 30 -45 40 -21 9 -39 20 -39 25 0 8 -37 48 -91 97 -9 8 -24 12
-33 8 -11 -4 -16 -1 -16 10 0 18 -58 75 -76 76 -7 0 -26 13 -43 29 -18 17 -41
33 -52 36 -10 4 -19 11 -19 16 0 5 -7 9 -15 9 -20 0 -75 40 -75 54 0 14 -76
96 -89 96 -5 0 -13 14 -16 32 -9 38 -39 73 -56 63 -7 -5 -10 -3 -7 6 3 8 15
15 29 17 13 2 31 13 40 24 12 16 29 21 78 23 39 2 68 8 79 18 11 10 27 14 40
10 12 -3 29 0 37 7 8 6 20 8 27 4 7 -4 25 -7 39 -6 15 1 39 -2 53 -7 20 -8 24
-7 19 4 -6 18 10 19 37 3 17 -11 22 -10 30 2 9 13 11 13 20 0 8 -13 11 -12 25
5 12 14 18 16 21 8 3 -7 18 -13 32 -13 15 -1 44 -7 65 -14 33 -12 37 -12 37 3
0 14 8 17 46 15 37 -2 45 0 40 11 -3 8 -1 15 4 15 6 0 10 -5 10 -11 0 -7 9 -9
22 -6 12 4 28 1 35 -4 7 -7 31 -9 55 -5 24 3 50 6 58 7 8 1 23 8 32 16 9 8 21
12 27 9 5 -4 12 -2 15 3 4 5 31 7 61 4 49 -5 55 -4 49 11 -8 20 3 21 22 1z
m2374 11 c0 -11 -19 -15 -25 -6 -3 5 1 10 9 10 9 0 16 -2 16 -4z m320 0 c0 -3
-4 -8 -10 -11 -5 -3 -10 -1 -10 4 0 6 5 11 10 11 6 0 10 -2 10 -4z m3980 -6
c0 -5 -4 -10 -10 -10 -5 0 -10 5 -10 10 0 6 5 10 10 10 6 0 10 -4 10 -10z
m-5930 -10 c0 -5 -4 -10 -9 -10 -5 0 -16 -3 -25 -6 -9 -3 -16 -1 -16 4 0 9 16
17 43 21 4 0 7 -3 7 -9z m1010 0 c0 -5 -2 -10 -4 -10 -3 0 -8 5 -11 10 -3 6
-1 10 4 10 6 0 11 -4 11 -10z m-2055 -10 c3 -5 2 -10 -4 -10 -5 0 -13 5 -16
10 -3 6 -2 10 4 10 5 0 13 -4 16 -10z m85 0 c-19 -13 -30 -13 -30 0 0 6 10 10
23 10 18 0 19 -2 7 -10z m737 -12 c-3 -8 -6 -5 -6 6 -1 11 2 17 5 13 3 -3 4
-12 1 -19z m1108 12 c3 -5 1 -10 -4 -10 -6 0 -11 5 -11 10 0 6 2 10 4 10 3 0
8 -4 11 -10z m1495 0 c-19 -13 -30 -13 -30 0 0 6 10 10 23 10 18 0 19 -2 7
-10z m4156 -12 c2 -13 -3 -15 -19 -9 -30 11 -35 34 -7 29 13 -1 24 -11 26 -20z
m2152 10 c-2 -6 -10 -14 -16 -16 -7 -2 -10 2 -6 12 7 18 28 22 22 4z m6540 0
c-3 -7 -12 -14 -21 -16 -12 -2 -15 1 -11 12 7 19 38 22 32 4z m-16888 -14 c0
-2 -9 -4 -21 -4 -11 0 -18 4 -14 10 5 8 35 3 35 -6z m2220 -4 c0 -5 -2 -10 -4
-10 -3 0 -8 5 -11 10 -3 6 -1 10 4 10 6 0 11 -4 11 -10z m2068 -8 c6 -18 -15
-14 -22 4 -4 10 -1 14 6 12 6 -2 14 -10 16 -16z m2042 7 c0 -5 -4 -7 -10 -4
-5 3 -10 1 -10 -4 0 -6 -5 -11 -11 -11 -8 0 -8 5 1 15 14 17 30 20 30 4z m887
-21 c-3 -7 -5 -2 -5 12 0 14 2 19 5 13 2 -7 2 -19 0 -25z m10998 22 c-3 -5
-10 -10 -16 -10 -5 0 -9 5 -9 10 0 6 7 10 16 10 8 0 12 -4 9 -10z m-13718 -6
c-3 -3 -12 -4 -19 -1 -8 3 -5 6 6 6 11 1 17 -2 13 -5z m476 -1 c-7 -2 -19 -2
-25 0 -7 3 -2 5 12 5 14 0 19 -2 13 -5z m1536 1 c17 -4 31 -13 31 -20 0 -16
-16 -19 -25 -4 -3 6 -19 10 -36 10 -16 0 -29 5 -29 10 0 12 15 13 59 4z m3141
-14 c0 -5 -7 -7 -15 -4 -8 4 -15 8 -15 10 0 2 7 4 15 4 8 0 15 -4 15 -10z
m-3300 -14 c0 -3 -4 -8 -10 -11 -5 -3 -10 -1 -10 4 0 6 5 11 10 11 6 0 10 -2
10 -4z m2740 -6 c0 -5 -4 -10 -10 -10 -5 0 -10 5 -10 10 0 6 5 10 10 10 6 0
10 -4 10 -10z m2980 -14 c0 -3 -4 -8 -10 -11 -5 -3 -10 -1 -10 4 0 6 5 11 10
11 6 0 10 -2 10 -4z m-2440 -15 c0 -6 -4 -13 -10 -16 -5 -3 -10 1 -10 9 0 9 5
16 10 16 6 0 10 -4 10 -9z m10040 -31 c0 -5 -4 -10 -10 -10 -5 0 -10 5 -10 10
0 6 5 10 10 10 6 0 10 -4 10 -10z m110 0 c0 -5 -4 -10 -9 -10 -6 0 -13 5 -16
10 -3 6 1 10 9 10 9 0 16 -4 16 -10z m-8170 -20 c0 -5 -5 -10 -11 -10 -5 0 -7
5 -4 10 3 6 8 10 11 10 2 0 4 -4 4 -10z m-584 -21 c3 -5 1 -9 -5 -9 -17 0 -41
12 -41 20 0 10 38 1 46 -11z m-11396 -69 c0 -5 -7 -10 -15 -10 -8 0 -15 5 -15
10 0 6 7 10 15 10 8 0 15 -4 15 -10z m26860 -64 c0 -11 -19 -15 -25 -6 -3 5 1
10 9 10 9 0 16 -2 16 -4z m-26776 -126 c6 0 27 -13 46 -30 19 -16 40 -29 45
-30 6 0 21 -9 35 -20 14 -11 31 -20 38 -20 15 0 43 -24 160 -135 41 -38 79
-75 86 -81 7 -6 26 -19 44 -28 18 -9 32 -21 32 -26 0 -6 7 -10 14 -10 8 0 21
-12 28 -27 9 -18 21 -27 33 -26 13 1 28 -12 45 -38 14 -23 32 -39 43 -39 10 0
15 -4 12 -10 -3 -5 -1 -10 4 -10 6 0 21 -12 34 -26 12 -14 52 -48 90 -76 37
-27 67 -53 67 -57 0 -4 15 -15 33 -26 17 -10 61 -47 96 -82 42 -40 67 -59 72
-52 10 17 42 2 35 -16 -3 -9 3 -20 14 -27 11 -7 20 -18 20 -25 0 -18 17 -16
24 2 10 26 29 17 22 -10 -5 -21 -2 -27 21 -37 16 -7 34 -21 41 -30 7 -10 20
-18 28 -18 8 0 14 -8 14 -17 0 -19 97 -113 117 -113 7 0 22 -10 34 -22 18 -19
21 -19 16 -5 -10 27 13 9 23 -19 6 -15 15 -22 25 -18 8 3 15 2 15 -4 0 -13 79
-102 91 -102 6 0 21 -13 35 -29 13 -16 32 -28 41 -27 11 0 17 -5 16 -14 -2 -8
14 -26 35 -40 50 -33 52 -34 52 -16 0 9 5 16 10 16 13 0 13 -6 0 -30 -8 -16
-5 -26 16 -50 15 -16 33 -30 41 -30 7 0 13 -6 13 -13 0 -8 27 -36 60 -62 33
-26 60 -52 60 -56 0 -4 8 -10 18 -13 9 -3 35 -22 57 -41 69 -60 118 -91 123
-77 6 19 22 4 22 -22 0 -28 34 -61 55 -52 9 3 13 2 10 -4 -3 -6 -2 -10 3 -10
6 0 33 -22 62 -50 28 -27 67 -57 86 -66 19 -9 49 -30 66 -46 24 -22 33 -26 40
-16 7 10 9 10 5 -2 -7 -23 11 -50 34 -50 11 0 23 -10 29 -24 11 -30 47 -56 78
-56 13 0 20 -4 17 -10 -8 -13 17 -38 33 -32 6 2 12 -2 12 -10 0 -18 106 -109
129 -111 10 0 17 -6 15 -12 -2 -5 23 -30 56 -53 32 -24 62 -52 65 -63 4 -11
10 -17 14 -14 5 2 16 -4 26 -15 10 -11 23 -20 29 -20 6 -1 31 -21 56 -45 25
-25 49 -45 53 -45 20 0 114 -53 142 -81 17 -16 39 -29 48 -29 9 0 25 -9 34
-20 21 -25 32 -25 50 -2 13 16 14 15 9 -6 -5 -27 38 -74 92 -98 17 -8 32 -19
32 -24 0 -6 5 -10 12 -10 7 0 25 -15 41 -32 19 -21 31 -29 34 -20 2 6 12 12
20 12 13 0 13 -3 3 -15 -12 -15 -11 -16 10 -19 6 0 15 -7 19 -15 6 -9 11 -10
15 -2 12 19 26 12 26 -13 0 -18 14 -36 53 -65 136 -105 162 -121 182 -115 15
4 16 3 6 -4 -11 -8 -5 -15 25 -36 21 -14 57 -39 79 -55 22 -17 50 -35 62 -40
11 -5 38 -28 59 -50 20 -23 59 -55 85 -71 26 -17 50 -37 53 -45 3 -8 12 -15
21 -15 8 0 15 -6 15 -14 0 -8 18 -27 40 -43 22 -15 40 -33 40 -38 0 -6 20 -21
45 -34 25 -13 45 -30 45 -37 0 -16 57 -64 76 -64 8 0 14 -4 14 -8 0 -15 46
-31 61 -21 19 12 29 11 29 -1 0 -5 -9 -10 -20 -10 -11 0 -20 -6 -20 -12 1 -17
30 -56 30 -40 0 7 7 12 15 12 12 0 13 -4 6 -19 -8 -14 -6 -22 8 -35 9 -9 23
-16 29 -16 7 0 20 -8 31 -17 10 -10 39 -38 64 -62 38 -36 49 -42 61 -32 9 7
17 8 20 2 4 -5 -1 -11 -11 -13 -13 -2 -7 -11 25 -37 24 -18 61 -51 83 -72 22
-21 45 -39 50 -39 5 0 9 -6 9 -12 0 -22 101 -108 127 -108 20 0 22 -4 17 -25
-5 -20 -1 -26 20 -35 15 -5 29 -16 32 -24 3 -8 12 -12 20 -9 10 4 12 0 8 -11
-4 -10 2 -19 20 -27 14 -7 28 -20 31 -30 4 -11 17 -22 31 -25 13 -3 24 -12 24
-20 0 -24 286 -284 312 -284 5 0 30 -18 55 -40 25 -22 50 -40 55 -40 8 0 20
-8 53 -37 7 -7 17 -13 21 -13 4 0 29 -22 55 -50 34 -36 54 -49 71 -47 17 1 24
-4 26 -20 4 -28 74 -103 96 -103 9 0 16 -7 16 -16 0 -18 48 -64 65 -64 6 0 18
-12 27 -27 23 -39 89 -108 115 -122 12 -6 29 -8 37 -5 9 3 16 2 16 -4 0 -6 -5
-12 -11 -14 -6 -2 17 -23 50 -47 34 -25 61 -48 61 -53 0 -4 9 -8 20 -8 10 0
24 -9 30 -20 6 -11 17 -20 25 -20 7 0 22 -10 32 -23 10 -13 23 -22 30 -20 6 2
16 -5 22 -16 6 -11 38 -39 71 -62 33 -23 60 -46 60 -50 0 -5 5 -9 11 -9 13 0
105 -75 137 -112 13 -16 32 -28 42 -28 11 0 26 -9 34 -21 9 -13 19 -18 27 -14
8 6 10 4 4 -4 -8 -14 31 -61 51 -61 7 0 22 -11 33 -25 11 -15 37 -38 58 -52
21 -14 56 -43 78 -64 22 -22 45 -39 51 -39 6 0 28 -13 49 -30 21 -16 43 -30
50 -30 7 0 15 -9 18 -20 3 -11 21 -29 41 -41 20 -12 41 -30 47 -40 5 -11 16
-19 24 -19 8 0 15 -7 15 -15 0 -9 13 -24 30 -33 16 -9 30 -21 30 -25 0 -5 4
-6 9 -2 10 5 61 -43 61 -57 0 -5 7 -8 15 -8 13 0 139 -119 182 -173 10 -12 34
-33 53 -47 19 -13 58 -47 87 -77 29 -30 61 -53 73 -53 11 0 20 -6 20 -13 0
-15 58 -77 71 -77 5 0 9 -6 9 -14 0 -8 12 -18 28 -24 15 -5 47 -28 71 -51 24
-22 49 -41 55 -41 7 0 23 -13 38 -30 16 -18 36 -30 51 -30 17 0 28 -7 32 -20
3 -11 19 -27 36 -37 16 -9 29 -21 29 -25 0 -4 4 -8 10 -8 5 0 30 -20 54 -45
25 -25 54 -45 65 -45 13 0 21 -8 23 -22 2 -13 11 -24 22 -26 11 -3 36 -19 55
-38 33 -31 37 -33 50 -16 12 16 13 15 7 -5 -5 -17 1 -28 28 -50 20 -15 41 -28
48 -29 28 -3 58 -17 58 -28 0 -6 17 -20 37 -31 20 -11 47 -30 59 -42 13 -13
27 -23 32 -23 5 0 24 -13 42 -30 18 -16 42 -30 52 -30 10 0 18 -6 18 -13 0 -6
12 -18 28 -24 15 -7 36 -26 47 -43 11 -16 50 -50 86 -75 37 -25 69 -55 72 -66
3 -11 15 -23 26 -26 12 -3 21 -9 21 -14 0 -5 5 -9 11 -9 6 0 22 -13 36 -30 13
-16 30 -30 37 -30 7 0 23 -11 36 -25 13 -14 29 -25 37 -25 7 0 13 -6 13 -14 0
-15 53 -76 65 -76 7 0 27 -17 107 -92 16 -16 33 -28 37 -28 12 0 101 -97 101
-109 0 -6 8 -11 18 -11 9 0 23 -9 30 -21 7 -11 19 -18 27 -15 12 4 165 -147
165 -165 0 -3 9 -9 20 -12 11 -3 23 -13 26 -24 3 -10 10 -29 15 -42 9 -22 11
-23 23 -6 12 17 13 17 18 -3 4 -12 20 -30 37 -39 17 -10 31 -26 31 -35 0 -10
7 -18 15 -18 19 0 33 -11 99 -75 28 -27 62 -56 75 -62 13 -7 45 -31 71 -53 26
-22 52 -40 57 -40 5 0 22 -12 39 -27 17 -16 52 -46 79 -68 27 -22 58 -49 70
-60 12 -11 52 -44 91 -72 38 -29 80 -62 94 -73 14 -12 44 -30 67 -42 24 -11
56 -35 73 -54 16 -19 36 -34 44 -34 8 0 23 -11 34 -25 11 -14 25 -25 31 -25 6
0 11 -10 11 -21 0 -16 5 -20 20 -16 11 3 20 1 20 -3 0 -5 10 -12 23 -16 12 -4
36 -17 53 -30 17 -13 34 -24 37 -24 3 0 17 -10 30 -22 38 -36 66 -58 77 -58 5
0 16 -13 25 -28 9 -15 27 -35 40 -42 55 -35 150 -104 153 -112 2 -4 10 -8 19
-8 8 0 27 -8 41 -19 15 -10 40 -21 55 -25 16 -4 49 -22 75 -40 26 -18 54 -33
62 -34 36 -2 109 -28 153 -54 26 -15 54 -28 62 -28 7 0 15 -5 17 -11 2 -6 13
-12 23 -13 11 0 62 -25 112 -54 51 -28 101 -52 112 -52 11 0 40 -9 66 -20 26
-11 53 -20 62 -20 8 0 26 -9 40 -20 14 -11 23 -20 19 -20 -4 0 -4 -5 0 -11 4
-8 9 -7 14 2 7 10 11 10 24 0 8 -7 20 -10 26 -6 13 8 13 -18 -1 -32 -8 -8 3
-10 40 -8 30 2 62 -2 77 -10 15 -7 33 -11 40 -8 8 3 14 1 14 -5 0 -5 -7 -12
-15 -16 -16 -6 -21 -26 -7 -26 5 0 18 9 30 20 12 12 23 16 27 10 3 -6 19 -10
35 -10 16 0 35 -7 44 -15 8 -8 26 -15 39 -15 45 0 87 -12 87 -26 0 -21 22 -28
35 -11 14 20 45 23 45 5 0 -9 22 -13 71 -14 48 -1 75 -7 87 -17 12 -11 22 -13
32 -7 22 14 30 12 30 -6 0 -12 7 -15 30 -12 17 3 33 1 36 -4 3 -4 16 -8 29 -8
13 0 27 -5 30 -11 4 -6 19 -7 38 -3 17 3 54 6 81 5 92 -3 110 -2 163 6 29 5
61 17 72 27 10 10 26 18 34 20 8 1 21 7 28 13 8 6 28 13 44 16 93 16 111 21
118 33 4 7 21 15 37 19 17 4 30 10 30 15 0 5 10 12 22 16 21 6 34 17 108 89
14 14 33 25 41 25 9 0 26 11 39 25 14 15 35 25 52 25 15 0 28 4 28 9 0 15 43
58 65 65 11 3 29 24 39 46 31 64 81 117 118 124 32 6 138 97 138 118 0 6 9 8
19 5 12 -3 27 3 38 15 10 11 39 31 65 44 26 13 49 28 52 33 3 5 24 18 47 30
22 12 52 32 67 46 15 14 32 25 39 25 7 0 13 4 13 10 0 21 116 120 142 120 10
0 18 6 18 14 0 8 12 17 26 20 14 4 39 16 54 28 17 12 33 17 41 13 9 -6 11 -3
6 8 -4 11 1 21 16 28 12 7 33 23 46 35 13 13 43 34 67 46 24 12 44 24 44 27 1
14 78 90 110 107 19 11 51 36 71 57 19 20 40 37 45 37 6 0 40 27 75 60 35 33
67 60 70 60 13 0 49 38 49 51 0 16 58 52 71 43 5 -3 9 -1 9 4 0 17 95 112 112
112 11 0 18 10 20 28 2 19 8 26 21 24 15 -3 41 20 95 83 6 8 12 19 12 25 0 7
8 9 19 5 13 -4 20 0 24 15 3 11 11 20 19 20 7 0 21 14 30 30 10 17 25 33 35
37 22 8 138 101 173 138 14 15 55 47 93 71 37 25 67 48 67 52 0 5 32 32 71 62
39 29 92 75 119 102 27 26 52 48 57 48 4 0 35 25 68 55 32 30 68 58 78 61 18
6 41 23 95 72 14 12 29 22 34 22 13 0 38 -26 38 -39 0 -5 14 -18 30 -28 17
-10 34 -29 37 -43 3 -14 21 -43 40 -66 18 -23 33 -46 33 -53 0 -6 7 -14 15
-17 8 -4 15 -12 15 -19 0 -7 18 -28 41 -47 22 -18 49 -47 60 -64 10 -18 40
-51 65 -75 25 -24 51 -55 59 -69 19 -36 93 -110 110 -110 8 0 12 -6 9 -13 -3
-8 2 -20 11 -27 8 -7 15 -20 15 -29 0 -14 60 -84 150 -177 16 -17 30 -35 30
-40 0 -5 14 -18 30 -29 16 -11 30 -24 30 -30 0 -15 251 -256 261 -249 5 3 13
-5 18 -18 6 -13 21 -34 35 -47 14 -13 26 -34 26 -47 0 -15 7 -27 18 -30 33
-10 47 -21 52 -40 7 -26 141 -165 152 -158 11 7 48 -34 48 -53 0 -7 5 -13 10
-13 6 0 41 -31 79 -70 37 -38 73 -70 79 -70 6 0 20 -13 31 -29 11 -15 34 -34
51 -41 16 -7 30 -16 30 -21 0 -5 16 -23 35 -40 19 -18 35 -38 35 -46 0 -7 6
-13 14 -13 8 0 17 -11 20 -25 3 -13 12 -22 19 -20 6 2 25 -16 40 -40 16 -25
32 -45 37 -45 16 0 73 -64 87 -98 7 -18 25 -37 38 -42 14 -5 25 -16 25 -24 0
-7 9 -16 20 -19 11 -3 25 -18 32 -34 14 -33 57 -83 72 -83 19 -1 56 -37 56
-54 0 -9 7 -19 15 -22 8 -4 15 -12 15 -20 0 -8 3 -13 8 -13 20 3 30 -3 36 -23
3 -13 39 -57 78 -98 40 -41 97 -102 126 -135 30 -33 64 -62 75 -65 13 -4 23
-15 25 -29 2 -12 10 -30 18 -39 7 -9 32 -38 54 -63 22 -25 40 -50 40 -54 0
-14 93 -115 106 -115 13 0 40 -38 36 -52 -1 -3 14 -20 33 -37 19 -17 35 -32
35 -34 0 -10 77 -87 87 -87 6 0 14 -12 17 -26 7 -25 125 -149 174 -181 12 -9
22 -21 22 -27 0 -7 25 -38 55 -69 30 -31 55 -61 55 -66 0 -6 8 -15 18 -20 10
-5 24 -21 32 -35 7 -14 17 -26 21 -26 13 0 67 -59 74 -80 4 -11 13 -20 20 -20
8 0 18 -6 22 -14 4 -7 17 -18 28 -24 11 -5 38 -33 60 -61 22 -27 43 -50 47
-51 7 0 94 -87 123 -124 11 -14 26 -25 33 -26 7 0 15 -7 18 -15 4 -8 12 -15
20 -15 23 0 140 -103 149 -131 4 -10 11 -19 17 -19 30 0 124 -108 130 -151 2
-16 9 -23 21 -22 10 0 39 -20 64 -45 25 -26 51 -46 58 -44 8 1 16 -6 20 -16 3
-11 21 -36 40 -55 19 -20 35 -40 35 -45 0 -11 67 -72 79 -72 4 0 35 -27 67
-60 32 -33 65 -60 72 -60 6 0 12 -7 12 -15 0 -17 113 -135 130 -135 5 0 10 -5
10 -10 0 -6 12 -16 26 -22 14 -7 34 -28 44 -48 10 -20 39 -57 64 -83 25 -25
46 -51 46 -57 0 -5 5 -10 11 -10 18 0 70 -41 64 -50 -3 -5 3 -13 13 -19 10 -5
24 -21 31 -35 8 -14 19 -26 26 -28 12 -3 145 -163 145 -176 0 -10 99 -105 133
-126 15 -10 27 -24 27 -31 0 -6 19 -29 42 -50 24 -21 43 -45 43 -54 0 -8 12
-21 27 -29 15 -7 36 -28 48 -47 11 -19 34 -48 50 -66 17 -17 30 -37 30 -45 0
-8 5 -14 10 -14 6 0 10 -6 10 -13 0 -7 17 -26 38 -42 22 -16 45 -42 52 -58 7
-16 18 -31 25 -33 21 -8 235 -218 235 -230 0 -7 11 -15 25 -18 14 -4 25 -13
25 -22 0 -8 7 -17 15 -20 8 -4 15 -13 15 -21 0 -8 5 -11 10 -8 6 3 10 2 10 -4
0 -9 141 -175 179 -211 25 -24 71 -88 71 -99 0 -6 6 -11 13 -12 6 0 29 -21 50
-47 116 -142 123 -150 195 -215 23 -21 42 -41 42 -45 0 -4 14 -16 30 -27 17
-11 42 -38 56 -61 14 -22 39 -49 55 -58 16 -9 29 -21 29 -25 0 -5 30 -40 68
-78 37 -38 92 -100 122 -137 30 -37 65 -78 78 -90 12 -13 22 -28 22 -33 0 -5
25 -34 56 -64 30 -30 60 -63 65 -74 21 -46 62 -94 212 -247 20 -21 37 -42 37
-48 0 -5 6 -13 13 -17 8 -4 22 -21 33 -38 10 -16 30 -39 44 -49 29 -23 190
-183 190 -189 0 -11 105 -107 117 -107 7 0 13 -6 13 -14 0 -8 8 -21 18 -28 10
-7 29 -28 43 -47 13 -19 68 -78 122 -133 53 -54 97 -103 97 -108 0 -6 6 -10
14 -10 7 0 26 -17 42 -37 15 -21 32 -40 36 -41 5 -2 32 -27 61 -56 28 -28 68
-65 87 -82 19 -16 47 -45 61 -64 14 -19 53 -65 85 -101 33 -36 77 -91 99 -122
21 -30 43 -53 47 -51 4 3 8 -1 8 -8 0 -13 25 -44 102 -125 l39 -42 -20 -20
c-25 -25 -31 -26 -31 -7 0 8 -6 18 -12 22 -20 13 -328 30 -393 22 -111 -13
-524 -6 -547 9 -7 4 -38 9 -68 10 -30 0 -82 6 -115 13 -33 7 -71 13 -85 14
-14 0 -28 5 -32 10 -3 6 -27 9 -51 7 -25 -1 -48 3 -52 9 -3 6 -11 7 -17 4 -6
-4 -13 -2 -17 3 -3 6 -42 17 -86 26 -44 8 -91 18 -105 22 -14 3 -52 9 -85 12
-33 3 -64 8 -70 12 -20 12 -202 4 -285 -13 -47 -10 -101 -19 -120 -21 -19 -1
-35 -4 -35 -5 0 -1 -11 -4 -25 -6 -14 -2 -50 -8 -80 -14 -30 -6 -82 -8 -115
-5 -33 3 -87 6 -120 6 -33 1 -67 5 -75 9 -8 5 -55 10 -105 13 -49 3 -121 11
-160 17 -89 14 -556 5 -566 -11 -4 -6 -33 -13 -65 -16 -33 -2 -81 -6 -109 -9
-27 -3 -78 -6 -113 -8 -39 -1 -66 -7 -71 -15 -7 -10 -12 -11 -29 0 -18 11 -24
10 -40 -4 -23 -21 -148 -28 -552 -32 -151 -1 -279 -3 -285 -4 -20 -5 -162 -2
-196 3 -41 6 -255 15 -466 19 -89 2 -157 8 -165 14 -7 6 -25 11 -40 11 -15 0
-40 5 -56 11 -28 12 -52 11 -85 -4 -9 -4 -23 -3 -30 3 -6 5 -19 10 -27 11 -61
6 -100 14 -100 21 0 14 -116 23 -138 11 -13 -7 -42 -8 -79 -3 -32 4 -96 4
-143 1 -47 -3 -88 -4 -92 -2 -4 2 -52 6 -105 9 -54 2 -99 9 -101 14 -2 6 -10
6 -23 0 -10 -6 -54 -11 -96 -11 -43 0 -81 -3 -86 -6 -12 -7 -168 -16 -245 -14
-34 1 -67 -1 -74 -5 -12 -8 -20 -9 -178 -24 -102 -10 -126 -12 -152 -9 -22 2
-210 -11 -278 -19 -36 -4 -81 -5 -100 -2 -19 4 -44 3 -55 -1 -20 -6 -193 -2
-290 7 -27 2 -194 6 -370 8 -176 1 -376 8 -445 14 -138 13 -230 15 -395 8 -83
-3 -474 -16 -550 -17 -35 -1 -173 11 -185 15 -8 4 -67 7 -130 9 -63 1 -120 6
-126 9 -6 4 -46 7 -90 6 -43 0 -128 5 -189 12 -60 6 -123 10 -140 10 -16 -1
-32 -1 -35 0 -3 1 -16 3 -30 5 -14 2 -50 9 -80 15 -61 13 -510 20 -510 8 0 -5
-29 -8 -64 -8 -36 0 -68 -5 -71 -10 -4 -7 -12 -7 -25 0 -10 5 -69 7 -141 4
-68 -3 -128 -5 -134 -4 -5 0 -34 3 -64 5 -29 3 -71 1 -93 -4 -23 -6 -66 -6
-103 0 -35 5 -94 9 -132 10 -37 1 -72 4 -78 7 -13 8 -68 2 -79 -8 -5 -5 -19
-5 -32 0 -13 5 -26 5 -28 1 -3 -5 -24 -5 -47 -1 -23 4 -56 4 -73 -1 -17 -5
-44 -9 -61 -8 -16 1 -38 -1 -48 -5 -42 -15 -52 -16 -84 -5 -28 9 -37 8 -51 -4
-12 -11 -22 -13 -34 -6 -10 6 -26 5 -42 -1 -15 -5 -93 -12 -174 -15 -81 -3
-160 -8 -175 -11 -15 -3 -34 -1 -42 6 -9 8 -15 8 -20 0 -4 -7 -58 -11 -153
-10 -193 1 -295 -5 -362 -18 -30 -7 -93 -15 -139 -18 -67 -5 -88 -10 -100 -26
-18 -21 -71 -27 -281 -31 -58 -1 -111 -6 -118 -10 -8 -5 -15 -2 -19 9 -5 14
-8 15 -17 3 -7 -10 -33 -15 -76 -16 -89 -2 -124 -4 -133 -10 -4 -2 -60 -7
-125 -9 -64 -2 -151 -9 -192 -15 -41 -6 -111 -12 -155 -14 -44 -2 -105 -8
-135 -14 -30 -5 -94 -9 -141 -9 -47 1 -90 -1 -95 -5 -6 -3 -39 -4 -75 -3 -35
2 -69 -1 -74 -5 -6 -4 -28 -4 -49 1 -24 5 -49 5 -65 -2 -14 -5 -71 -8 -126 -7
-149 4 -217 0 -234 -14 -10 -8 -13 -8 -8 0 9 15 -14 22 -78 23 -64 1 -258 -8
-310 -14 -22 -3 -47 -5 -55 -5 -72 1 -117 5 -129 13 -8 5 -16 4 -20 -3 -5 -7
-17 -8 -41 -1 -19 5 -38 6 -44 1 -15 -11 -166 -20 -166 -10 0 5 -7 6 -15 3 -8
-4 -23 -3 -33 1 -9 4 -42 10 -72 12 -30 2 -93 11 -140 20 -47 8 -116 17 -155
19 -239 12 -285 12 -291 2 -4 -7 -9 -6 -14 3 -5 7 -22 12 -39 12 -17 0 -31 4
-31 9 0 4 -26 8 -57 7 -32 -1 -87 4 -122 11 -50 9 -70 9 -87 0 -17 -10 -37
-10 -85 -1 -41 7 -65 7 -69 1 -4 -6 -95 -9 -242 -7 -184 1 -239 5 -252 16 -13
11 -22 11 -41 3 -31 -14 -352 -7 -370 8 -6 5 -14 8 -17 5 -6 -6 -124 -6 -218
-1 -36 3 -71 0 -77 -6 -7 -6 -28 -7 -47 -4 -18 4 -61 7 -95 7 -34 1 -64 5 -67
11 -3 5 -11 4 -20 -2 -7 -7 -38 -11 -71 -9 -38 2 -70 -3 -93 -13 -51 -23 -70
-28 -70 -19 0 5 -20 6 -44 4 -37 -5 -234 4 -516 22 -41 3 -149 7 -240 9 -132
3 -165 6 -165 17 -1 18 -36 12 -51 -9 -10 -14 -15 -14 -50 3 -41 19 -51 20
-259 29 -71 4 -147 9 -168 12 -22 3 -43 1 -51 -5 -15 -13 -108 -10 -117 3 -10
14 -148 19 -163 7 -10 -9 -15 -8 -19 3 -3 9 -15 12 -31 9 -14 -3 -26 -1 -26 4
0 9 -104 23 -215 28 -22 2 -48 6 -57 10 -9 3 -25 3 -35 -2 -18 -8 -49 -8 -233
1 -70 3 -103 1 -124 -10 -16 -7 -32 -11 -37 -8 -5 3 -9 0 -9 -5 0 -19 -29 -12
-40 9 -9 17 -17 19 -49 14 -24 -4 -41 -2 -45 5 -4 6 -35 11 -69 11 -34 0 -102
5 -150 10 -154 18 -215 21 -222 10 -4 -6 -18 -4 -38 6 -21 12 -32 13 -35 5 -5
-15 -29 -14 -35 2 -3 9 -9 9 -29 -2 -14 -7 -34 -10 -44 -7 -11 3 -26 1 -33 -4
-9 -5 -23 -4 -35 3 -23 12 -29 13 -135 22 -41 3 -77 8 -81 10 -3 2 -61 7 -129
10 -94 6 -125 4 -131 -5 -6 -10 -13 -9 -30 3 -16 11 -29 13 -47 6 -34 -13 -87
-11 -101 3 -9 9 -17 9 -34 1 -31 -15 -84 -24 -93 -15 -3 4 -77 8 -163 10 -86
1 -188 3 -227 5 -38 2 -122 -1 -185 -6 -63 -4 -140 -10 -170 -12 -107 -8 -160
-17 -160 -26 0 -5 -9 -9 -20 -9 -11 0 -20 5 -20 11 0 14 -61 4 -70 -12 -4 -5
-18 -11 -31 -13 -94 -15 -145 -19 -309 -21 -237 -5 -343 -10 -355 -17 -6 -3
-29 -3 -53 2 -23 4 -44 4 -47 0 -2 -4 -18 -5 -35 -2 -17 2 -37 -2 -47 -9 -12
-11 -17 -11 -20 -2 -4 10 -12 9 -39 -2 -19 -8 -34 -10 -34 -4 0 5 -6 9 -13 9
-8 0 -24 8 -35 19 -23 19 -29 41 -12 41 5 0 23 13 40 30 17 16 40 30 50 30 11
0 19 4 17 9 -1 5 44 54 101 108 56 55 102 104 102 110 0 6 7 16 15 23 8 7 12
16 9 21 -3 5 0 9 7 9 12 0 159 150 159 163 0 4 4 7 10 7 17 0 180 178 180 197
0 5 13 20 30 33 16 14 29 30 30 37 0 7 16 24 35 39 19 14 35 31 35 38 0 6 14
29 30 50 17 22 30 45 30 51 0 6 9 17 20 25 11 8 20 20 20 27 0 6 25 41 55 77
30 35 55 69 55 75 0 6 7 11 15 11 7 0 18 6 22 14 11 20 99 120 161 182 28 30
52 58 52 64 0 5 5 10 11 10 5 0 7 5 4 10 -4 6 9 26 27 45 18 19 58 62 88 96
30 34 96 103 146 153 50 50 119 125 154 166 34 41 93 107 131 146 38 39 69 75
69 80 0 5 17 28 38 50 20 23 57 65 82 94 40 47 66 74 103 109 64 59 147 147
147 156 0 6 14 19 30 28 17 10 30 25 30 33 0 8 8 18 18 22 31 12 82 60 82 76
0 9 5 16 10 16 6 0 10 9 10 19 0 14 5 18 19 14 13 -3 25 4 38 23 10 16 46 57
80 91 35 35 63 72 63 83 0 13 5 18 15 14 8 -4 15 -2 15 3 0 5 28 38 62 73 33
36 73 84 88 107 15 23 29 41 31 38 2 -2 100 91 218 206 118 115 217 209 221
209 10 0 241 226 316 310 32 35 65 65 73 65 8 0 22 14 31 30 9 17 33 41 54 55
24 15 39 34 43 52 3 15 11 28 18 28 16 0 120 100 159 152 16 21 32 38 37 38
14 0 49 33 49 47 0 7 4 13 10 13 5 0 29 21 52 47 24 26 89 93 146 148 56 56
102 106 102 112 0 15 370 388 393 396 9 4 17 11 17 16 0 5 16 26 35 47 19 20
35 43 35 50 0 8 4 14 9 14 6 0 23 12 40 28 75 68 178 169 196 193 11 14 46 55
77 90 78 88 125 148 145 186 9 18 24 35 34 38 9 3 24 17 33 30 8 13 83 92 166
175 83 83 148 155 145 160 -3 6 0 10 8 10 7 0 38 28 68 62 30 34 72 80 94 103
64 67 139 155 153 181 7 13 21 24 31 24 17 0 36 24 33 41 -1 4 10 17 23 29 14
13 25 30 25 37 0 8 16 23 34 34 19 11 41 34 48 50 7 16 16 29 19 29 10 0 79
73 79 83 0 4 33 41 73 82 93 96 160 170 200 222 18 24 46 60 62 82 17 22 33
40 37 41 4 0 29 21 56 48 27 26 55 52 61 57 6 6 21 23 33 38 13 15 32 29 43
31 11 2 22 11 24 22 2 10 30 48 63 84 34 36 78 85 99 110 46 55 112 128 173
193 25 27 48 57 51 68 4 10 12 19 18 19 7 0 41 32 77 70 36 39 86 93 113 121
26 27 47 53 47 58 0 6 9 13 20 16 11 3 20 12 20 19 0 7 19 34 43 59 73 80 117
134 117 144 0 5 14 19 30 31 16 13 30 29 30 37 0 7 12 23 26 34 27 22 84 99
84 117 0 5 13 23 30 39 16 15 27 31 25 35 -3 4 2 13 10 20 8 7 15 18 15 24 0
6 23 44 50 85 28 40 50 78 50 82 0 5 5 9 10 9 6 0 10 6 10 13 0 8 9 22 20 32
21 19 50 71 50 90 0 6 16 26 35 45 19 19 35 42 35 51 0 9 9 24 20 34 12 10 30
34 42 53 11 18 34 48 50 65 16 18 34 44 41 60 6 15 19 27 27 27 8 0 44 29 79
65 35 35 76 75 92 87 34 27 40 69 9 61 -15 -4 -20 0 -20 16 0 12 -6 21 -14 21
-8 0 -16 10 -18 23 -2 16 -9 21 -26 20 -12 -2 -25 3 -28 11 -7 18 -48 9 -70
-15 -9 -10 -23 -19 -29 -19 -7 0 -16 -11 -19 -25 -4 -14 -11 -24 -18 -22 -6 1
-18 -11 -27 -28 -9 -16 -20 -32 -26 -34 -17 -7 -85 -84 -85 -97 0 -7 -16 -29
-35 -48 -19 -20 -35 -41 -35 -47 0 -7 -16 -29 -36 -51 -34 -38 -104 -169 -104
-195 0 -7 -7 -10 -15 -7 -8 4 -15 2 -15 -4 0 -6 -16 -29 -35 -52 -19 -23 -35
-50 -35 -60 0 -11 -13 -24 -30 -32 -21 -9 -30 -20 -30 -36 0 -12 -6 -25 -14
-28 -8 -3 -17 -20 -20 -39 -4 -18 -14 -39 -22 -46 -9 -7 -27 -34 -40 -61 -13
-26 -28 -48 -33 -48 -5 0 -16 -18 -25 -40 -9 -22 -20 -40 -24 -40 -5 0 -23
-22 -40 -50 -22 -35 -36 -48 -47 -44 -9 4 -15 1 -15 -8 0 -8 -27 -43 -60 -79
-33 -35 -60 -67 -60 -71 0 -5 -45 -54 -100 -110 -55 -56 -100 -104 -100 -107
0 -13 -53 -71 -66 -71 -7 0 -14 -6 -14 -14 0 -21 -48 -74 -82 -92 -16 -8 -27
-20 -26 -27 2 -7 -48 -62 -110 -124 -61 -61 -112 -117 -112 -123 0 -6 -17 -29
-37 -50 -93 -95 -113 -117 -113 -126 0 -5 -22 -22 -48 -39 -26 -16 -47 -35
-47 -41 0 -6 -23 -34 -50 -62 -102 -103 -170 -182 -183 -212 -6 -16 -16 -30
-21 -30 -11 0 -118 -107 -127 -128 -4 -9 -6 -24 -5 -32 0 -8 -13 -24 -31 -35
-18 -11 -39 -24 -48 -30 -25 -16 -90 -91 -90 -105 0 -11 -16 -28 -76 -81 -27
-24 -99 -111 -99 -119 0 -7 -71 -85 -107 -118 -9 -9 -15 -19 -12 -23 2 -4 -9
-21 -26 -37 -16 -17 -30 -38 -30 -46 0 -10 -9 -16 -22 -16 -22 0 -58 -26 -58
-43 0 -12 -48 -63 -172 -184 -31 -31 -64 -71 -73 -89 -9 -20 -24 -34 -37 -36
-13 -2 -32 -17 -43 -35 -11 -18 -27 -33 -35 -33 -8 0 -31 -19 -50 -42 -19 -23
-47 -54 -61 -68 -25 -24 -71 -88 -97 -136 -7 -13 -17 -24 -23 -24 -5 0 -9 -9
-9 -20 0 -11 -6 -20 -14 -20 -14 0 -33 -19 -132 -130 -31 -36 -77 -83 -100
-105 -122 -114 -144 -138 -144 -150 0 -8 -8 -19 -19 -24 -10 -6 -21 -25 -25
-43 -8 -39 -86 -114 -129 -124 -18 -4 -37 -20 -52 -44 -13 -21 -33 -41 -44
-45 -11 -3 -24 -19 -30 -35 -6 -18 -21 -34 -36 -40 -15 -6 -29 -19 -32 -30 -3
-11 -13 -22 -23 -25 -10 -3 -31 -25 -46 -48 -29 -43 -45 -59 -88 -89 -14 -10
-26 -28 -28 -40 -2 -17 -9 -22 -26 -21 -16 2 -28 -6 -40 -27 -9 -16 -32 -37
-50 -47 -17 -10 -32 -21 -32 -25 0 -4 -41 -49 -90 -100 -52 -52 -89 -97 -86
-105 3 -7 0 -13 -7 -13 -7 0 -20 -9 -30 -20 -9 -11 -22 -17 -30 -14 -8 3 -22
-11 -36 -36 -12 -22 -29 -40 -37 -40 -8 0 -14 -10 -14 -25 0 -17 -8 -29 -25
-37 -14 -6 -25 -17 -25 -23 0 -6 -11 -17 -25 -23 -21 -10 -94 -74 -182 -160
-12 -13 -23 -28 -23 -35 0 -7 -23 -30 -51 -52 -28 -22 -83 -70 -121 -107 -38
-38 -76 -68 -84 -68 -8 0 -14 -5 -14 -11 0 -11 -135 -146 -185 -185 -17 -12
-44 -41 -60 -64 -53 -73 -87 -111 -116 -126 -16 -8 -29 -19 -29 -24 0 -13 -87
-93 -111 -102 -11 -4 -19 -13 -19 -21 0 -12 -36 -55 -113 -137 -13 -14 -37
-42 -52 -63 -16 -21 -41 -45 -55 -52 -15 -8 -31 -26 -34 -40 -4 -14 -12 -25
-19 -25 -6 0 -25 -18 -41 -39 -16 -22 -34 -37 -41 -34 -7 2 -16 -4 -19 -15 -9
-27 -101 -122 -119 -122 -13 0 -33 -25 -74 -93 -15 -25 -64 -66 -80 -67 -7 0
-13 -9 -13 -20 0 -11 -6 -20 -13 -20 -14 0 -94 -81 -120 -122 -9 -15 -14 -34
-11 -43 5 -11 -6 -21 -41 -36 -50 -22 -97 -67 -115 -110 -6 -14 -23 -33 -39
-42 -15 -9 -39 -38 -53 -64 -13 -26 -34 -53 -46 -59 -12 -6 -45 -37 -74 -70
-28 -32 -57 -58 -65 -56 -11 2 -17 -9 -15 -29 1 -3 -12 -19 -28 -34 -17 -16
-30 -34 -30 -41 0 -6 -33 -42 -73 -80 -39 -38 -81 -82 -91 -99 -27 -42 -148
-165 -164 -165 -7 0 -15 -14 -19 -31 -3 -19 -14 -34 -25 -36 -10 -3 -18 -11
-18 -19 0 -7 -25 -37 -55 -66 -30 -29 -55 -60 -55 -70 0 -10 -6 -18 -14 -18
-14 0 -46 -52 -46 -75 0 -6 -11 -22 -25 -35 -14 -13 -25 -29 -25 -37 0 -7 -4
-13 -10 -13 -5 0 -10 -8 -10 -18 0 -23 -89 -126 -140 -163 -21 -16 -41 -37
-45 -48 -3 -10 -12 -22 -20 -25 -8 -3 -15 -12 -15 -21 0 -8 -7 -15 -15 -15 -9
0 -18 -8 -22 -17 -3 -10 -26 -38 -50 -63 -106 -109 -143 -154 -143 -171 0 -13
-7 -17 -27 -16 -17 1 -27 -3 -26 -10 2 -7 -12 -22 -30 -35 -17 -12 -40 -33
-50 -45 -10 -13 -24 -23 -30 -23 -6 0 -29 -19 -52 -43 -23 -25 -57 -48 -82
-56 -24 -8 -43 -17 -43 -21 0 -3 -15 -12 -34 -20 -19 -7 -36 -21 -39 -30 -2
-10 -18 -23 -36 -31 -35 -16 -38 -24 -15 -37 10 -6 14 -20 12 -43 -3 -30 -7
-34 -41 -42 -21 -5 -41 -6 -45 -2 -4 4 -5 71 -3 148 5 159 5 199 -2 407 -2 80
-8 157 -12 172 -4 15 -2 35 5 47 6 12 7 21 3 21 -10 0 -9 63 2 79 4 7 4 55 0
107 -4 53 -3 94 2 94 5 0 9 42 8 92 0 51 3 106 7 122 4 17 3 35 -2 42 -7 7 -7
21 -2 35 5 13 10 55 10 93 1 45 6 72 14 78 11 6 10 10 0 17 -12 7 -13 128 -2
311 0 8 -1 171 -4 363 -2 191 0 347 5 347 4 0 6 17 3 38 -8 59 -3 226 8 237 2
2 1 37 -3 77 -3 40 -3 77 -1 82 8 15 11 80 15 387 3 158 7 291 10 296 6 10 21
240 19 302 -1 25 3 50 7 55 22 26 45 252 57 556 3 85 14 205 24 265 10 61 16
113 14 117 -3 4 0 34 5 65 8 48 26 364 22 398 0 6 -2 89 -4 185 -2 97 -6 180
-9 185 -4 8 -3 70 1 70 1 0 4 45 6 100 3 55 7 121 9 147 3 26 1 50 -3 52 -3 3
-4 34 -1 70 3 36 3 66 0 66 -7 0 -15 237 -12 360 1 46 -2 87 -7 90 -22 13 -47
566 -31 705 6 62 19 300 22 425 3 102 -7 312 -14 316 -5 3 -7 12 -5 18 3 7 1
46 -4 87 -5 41 -12 106 -15 144 -2 39 -10 93 -17 120 -15 58 -12 227 3 243 1
1 4 7 5 12 1 6 3 11 5 13 1 1 3 63 5 137 5 162 12 240 26 256 7 8 7 14 -1 19
-11 7 -7 87 5 119 5 10 4 21 -1 25 -5 3 -10 47 -11 96 -2 122 -7 188 -16 202
-4 6 -4 18 -1 27 3 9 2 22 -4 29 -6 7 -11 48 -11 92 0 44 -5 107 -11 140 -10
58 -15 179 -12 280 1 28 2 86 2 130 0 44 1 199 3 345 2 146 0 301 -4 345 -4
44 -10 115 -13 159 -4 43 -9 83 -12 88 -4 5 -8 64 -10 131 -2 67 -6 178 -8
247 -3 82 0 130 7 138 8 10 8 19 0 31 -14 22 -8 592 7 671 12 66 12 64 2 120
-4 25 -4 61 0 81 4 20 9 96 11 168 3 72 7 134 11 138 3 3 6 50 6 102 0 71 4
102 15 118 13 18 13 26 4 41 -7 12 -9 27 -4 38 12 30 16 82 7 88 -6 3 -5 28 0
58 7 35 6 54 -1 56 -6 2 -7 12 -2 25 4 12 4 38 1 57 -3 19 -2 55 2 79 4 24 5
54 2 67 -3 13 -3 32 1 41 4 10 9 77 10 149 1 72 5 137 10 144 4 7 9 58 11 114
5 148 5 149 -6 160 -14 14 -12 26 4 26 16 0 28 98 14 114 -4 6 -1 17 7 26 12
13 13 29 6 81 -4 35 -12 73 -16 83 -7 15 -5 18 6 14 12 -5 15 9 16 78 1 47 5
94 8 105 4 11 2 26 -5 33 -8 10 -8 32 -1 76 7 44 7 69 0 83 -8 15 -8 22 2 28
17 10 23 299 8 368 -5 24 -10 74 -10 110 -1 36 -5 98 -11 136 -5 39 -9 103 -9
143 1 50 -3 80 -14 94 -8 12 -12 32 -9 44 3 12 1 30 -4 41 -6 10 -7 49 -3 91
4 40 3 76 -2 79 -5 3 -6 17 -2 31 3 14 1 28 -5 32 -13 8 -20 79 -8 86 11 7 10
51 -1 59 -6 3 -8 22 -7 43 2 20 0 42 -4 47 -11 14 -16 58 -7 71 3 6 2 26 -4
45 -12 37 -18 102 -19 193 0 32 -4 64 -9 70 -6 7 -9 40 -8 75 1 34 -1 65 -6
68 -4 3 -4 10 2 16 5 7 6 30 2 52 -4 22 -5 48 -3 59 3 16 9 13 39 -18 19 -20
41 -36 47 -36z m26586 -62 c6 -21 16 -38 22 -38 6 0 8 -9 5 -21 -9 -34 10
-186 27 -211 12 -19 14 -32 6 -57 -5 -19 -7 -38 -3 -44 12 -20 24 -825 12
-833 -15 -9 -10 -24 7 -24 10 0 14 -6 11 -14 -3 -8 -3 -17 1 -21 9 -8 13 -116
6 -135 -3 -8 -7 -37 -8 -63 -1 -27 -7 -52 -15 -56 -9 -6 -11 -18 -7 -37 9 -41
11 -298 3 -311 -4 -7 -5 -33 -2 -60 4 -26 8 -113 11 -193 2 -80 7 -152 10
-160 9 -22 16 -320 9 -339 -4 -9 -8 -34 -9 -56 -10 -153 -19 -236 -32 -278 -9
-26 -14 -64 -13 -85 2 -20 0 -64 -4 -97 -20 -163 -11 -373 19 -443 9 -24 11
-39 4 -47 -6 -7 -9 -64 -7 -138 2 -70 0 -127 -4 -127 -4 0 -7 -48 -7 -107 0
-60 -5 -138 -11 -176 -6 -37 -12 -123 -12 -192 -1 -69 -5 -128 -10 -131 -5 -3
-5 -12 0 -22 8 -14 9 -217 1 -232 -1 -3 -2 -36 -1 -75 0 -38 -4 -97 -9 -129
-6 -38 -6 -64 0 -71 5 -7 8 -14 5 -17 -11 -10 -17 -212 -20 -638 -3 -379 -7
-501 -15 -530 -4 -11 1 -331 6 -420 6 -116 8 -132 18 -148 4 -7 3 -18 -2 -25
-6 -7 -9 -80 -8 -175 1 -89 0 -165 -3 -168 -8 -7 -2 -125 6 -138 4 -6 8 -46
10 -90 1 -44 7 -84 12 -89 7 -7 6 -17 -1 -31 -6 -11 -12 -45 -14 -76 -1 -30
-5 -102 -8 -159 -4 -60 -2 -109 3 -115 6 -6 11 -45 12 -86 2 -41 7 -86 11
-100 5 -13 11 -54 13 -90 2 -36 5 -65 5 -65 1 0 4 -79 7 -175 5 -172 6 -208 3
-420 0 -58 4 -120 9 -138 6 -20 6 -43 1 -56 -5 -15 -5 -27 2 -34 5 -5 11 -40
14 -77 2 -37 8 -73 14 -80 7 -9 8 -15 1 -19 -6 -4 -8 -25 -4 -49 7 -52 10
-378 3 -392 -2 -5 -5 -188 -6 -405 -2 -418 -10 -767 -20 -813 -3 -16 -1 -27 5
-27 16 0 14 -107 -1 -112 -9 -3 -9 -41 1 -169 17 -202 18 -314 6 -684 -5 -159
-8 -306 -8 -325 6 -209 16 -377 24 -384 10 -11 13 -69 3 -78 -3 -3 -7 -57 -10
-119 -3 -63 -7 -150 -9 -194 -3 -44 -5 -87 -4 -95 2 -63 -4 -124 -16 -147 -9
-17 -11 -31 -5 -38 8 -9 8 -140 0 -140 -1 0 -3 -20 -5 -45 -1 -25 -8 -118 -15
-207 -7 -89 -10 -174 -7 -188 2 -15 1 -63 -4 -107 -5 -44 -7 -84 -3 -89 3 -5
7 -60 10 -122 2 -62 6 -141 9 -177 3 -36 8 -90 10 -120 2 -30 11 -116 20 -190
36 -305 48 -418 51 -480 6 -162 6 -238 -1 -272 -4 -20 -4 -42 0 -48 4 -7 6
-62 5 -123 -1 -62 -3 -194 -4 -294 0 -100 -4 -184 -8 -188 -4 -4 -3 -18 2 -31
9 -22 11 -109 13 -559 1 -93 -3 -219 -7 -280 -5 -60 -9 -142 -10 -182 -1 -39
-4 -75 -8 -79 -5 -4 -8 -18 -8 -30 0 -31 -20 -41 -36 -19 -8 10 -24 19 -36 20
-22 2 -58 38 -58 60 0 11 -29 39 -112 110 -10 8 -18 25 -18 37 0 15 -25 47
-72 94 -91 88 -188 194 -188 204 0 5 -13 18 -30 30 -33 24 -117 106 -202 198
-31 34 -60 62 -65 62 -4 1 -26 19 -48 40 -22 22 -45 40 -52 40 -7 0 -13 5 -13
12 0 6 -17 28 -39 47 -36 34 -61 71 -77 114 -3 9 -10 17 -15 17 -16 0 -123 92
-141 120 -9 15 -25 34 -35 41 -11 8 -28 27 -39 44 -24 37 -75 84 -91 85 -12 0
-14 6 -13 26 1 3 -8 13 -19 22 -11 9 -28 33 -39 52 -12 23 -29 38 -50 44 -18
5 -32 13 -32 18 0 12 -212 258 -222 258 -4 0 -8 6 -8 14 0 8 -10 23 -23 33
-12 10 -32 34 -44 53 -12 19 -34 47 -48 62 -14 15 -25 31 -25 35 0 5 -9 15
-21 23 -11 8 -29 30 -40 48 -12 17 -27 32 -34 32 -8 0 -20 10 -26 22 -7 13
-20 29 -31 36 -10 7 -18 19 -18 25 -1 7 -19 30 -40 52 -22 22 -40 45 -40 52 0
7 -8 13 -18 13 -31 0 -152 110 -152 138 0 6 -8 13 -18 17 -11 3 -24 22 -31 45
-6 22 -17 40 -22 40 -25 0 -107 77 -124 117 -11 24 -25 43 -32 43 -7 0 -13 9
-13 20 0 11 -4 20 -10 20 -5 0 -33 25 -62 56 -29 30 -77 80 -105 110 -29 30
-53 59 -53 64 0 6 -3 10 -7 10 -5 0 -18 17 -31 38 -13 20 -41 49 -63 64 -21
15 -39 35 -39 43 0 8 -4 15 -8 15 -4 0 -15 13 -25 29 -21 35 -89 107 -139 146
-21 16 -38 33 -38 39 0 6 -9 17 -20 24 -11 7 -20 20 -20 30 0 10 -13 25 -28
34 -43 26 -135 121 -200 207 -35 47 -81 98 -139 157 -18 18 -33 39 -33 47 0
20 -64 75 -95 83 -14 3 -25 13 -25 22 0 8 -15 29 -32 47 -18 18 -44 53 -58 79
-13 25 -28 46 -33 46 -9 0 -53 46 -82 87 -24 33 -137 143 -147 143 -5 0 -8 9
-8 19 0 12 -11 23 -30 30 -16 5 -30 14 -30 19 0 4 -9 17 -19 29 -11 11 -28 38
-39 59 -31 60 -247 273 -308 304 -35 17 -63 49 -64 71 0 8 -24 37 -52 64 -50
47 -114 125 -103 125 10 0 -29 35 -67 60 -21 14 -43 35 -49 48 -7 12 -28 32
-46 43 -18 11 -33 25 -33 30 0 5 -9 9 -20 9 -19 0 -77 53 -208 194 -34 36 -73
72 -87 78 -14 6 -25 17 -25 25 0 7 -11 19 -25 25 -14 6 -25 16 -25 22 0 10
-22 35 -74 84 -17 15 -39 37 -50 49 -12 12 -52 52 -90 90 -37 37 -79 85 -92
105 -13 21 -38 45 -54 53 -17 9 -35 27 -40 41 -5 13 -20 28 -32 33 -14 5 -26
22 -33 47 -8 31 -16 39 -41 45 -41 8 -83 39 -84 62 0 9 -4 17 -8 17 -15 0 -89
80 -108 116 -10 19 -26 34 -34 34 -9 0 -23 15 -32 33 -9 18 -39 48 -67 67 -31
22 -51 42 -51 54 0 11 -15 36 -34 55 -77 80 -116 125 -116 133 0 4 -7 8 -15 8
-9 0 -12 6 -8 15 4 11 -30 50 -106 124 -61 60 -111 113 -111 117 0 16 -66 81
-88 88 -12 4 -22 13 -22 21 0 7 -11 20 -24 28 -13 9 -34 36 -46 62 -12 25 -30
51 -39 58 -9 6 -30 31 -46 54 -17 23 -40 48 -53 54 -13 7 -38 38 -57 68 -19
31 -57 79 -86 106 -28 28 -55 58 -60 68 -5 9 -15 17 -22 17 -7 0 -28 15 -46
34 -19 19 -47 40 -62 47 -16 6 -29 15 -29 20 0 5 -15 23 -34 42 -18 18 -35 38
-37 43 -8 21 -86 83 -112 89 -15 4 -27 12 -27 19 0 6 -8 19 -17 27 -10 9 -25
26 -33 37 -8 12 -20 22 -27 22 -7 0 -13 6 -13 13 0 6 -26 35 -57 62 -91 81
-283 284 -283 299 0 4 -22 29 -50 56 -27 27 -50 54 -50 59 0 5 -29 23 -65 41
-36 18 -62 36 -59 41 3 5 -15 30 -40 56 -25 25 -46 52 -46 59 0 7 -9 15 -20
19 -10 3 -29 23 -42 43 -12 20 -35 49 -49 63 -15 14 -30 36 -34 48 -3 11 -27
42 -52 68 -24 26 -54 64 -64 85 -11 21 -23 38 -28 38 -5 0 -12 10 -15 23 -4
12 -33 39 -69 62 -48 31 -63 46 -65 68 -3 23 -6 25 -21 17 -16 -8 -20 -5 -24
20 -4 16 -31 58 -62 94 -30 36 -55 72 -55 81 0 8 -3 15 -7 15 -5 0 -24 23 -43
51 -19 28 -42 55 -52 60 -10 5 -18 20 -18 32 0 12 -7 35 -15 51 -8 15 -15 38
-15 50 0 27 27 66 45 66 8 0 22 11 30 24 9 14 30 29 46 35 16 5 29 14 29 18 0
5 13 16 28 25 16 10 53 40 82 68 29 27 56 50 60 50 4 0 34 25 66 56 33 31 82
71 109 89 28 18 61 45 74 59 14 15 44 37 67 51 23 13 44 31 48 40 3 8 11 15
18 15 7 0 32 18 56 40 24 22 46 40 51 40 4 0 16 9 26 20 11 12 35 28 54 38 20
9 55 36 78 59 29 30 46 41 58 37 14 -6 16 -3 10 14 -5 16 -2 22 9 22 9 0 16 4
16 8 0 5 32 30 71 57 39 26 78 59 86 72 8 12 21 23 28 23 7 0 18 7 25 15 7 8
21 15 31 15 12 0 19 7 19 18 0 17 60 62 60 45 0 -4 6 -1 13 8 7 9 23 22 37 29
35 18 80 62 80 77 0 7 7 13 16 13 8 0 31 11 51 24 19 14 42 22 49 19 8 -3 18
5 24 21 6 16 17 26 30 26 11 0 20 5 20 12 0 7 36 47 80 90 44 42 80 80 80 83
0 10 28 35 39 35 6 0 11 4 11 8 0 4 18 19 40 32 22 14 43 34 46 45 4 11 21 31
38 45 33 26 166 152 194 184 9 10 23 24 30 30 8 6 26 22 42 36 15 14 44 38 64
55 20 16 36 33 36 36 0 9 76 89 85 89 4 0 66 59 137 130 71 72 132 130 137
130 4 0 37 28 73 63 36 34 95 90 130 123 43 41 67 72 71 93 5 22 11 29 22 25
8 -3 15 -1 15 4 0 10 131 176 155 197 7 6 22 25 34 43 12 17 29 32 37 32 11 0
13 6 9 20 -4 11 -2 20 4 20 16 0 61 42 61 56 0 8 9 18 19 24 11 5 23 19 26 30
3 11 13 20 22 20 13 0 66 43 97 78 28 33 70 72 77 72 7 0 40 27 117 98 14 12
31 22 38 22 11 0 134 114 134 124 0 8 59 66 67 66 5 0 19 10 31 23 12 12 33
33 47 47 14 13 25 28 25 33 0 4 11 19 25 33 14 14 25 29 25 35 0 5 11 15 25
21 14 6 25 15 25 19 0 6 23 33 99 116 16 17 28 33 25 35 -2 3 8 11 24 19 32
16 122 104 122 118 0 5 10 13 23 17 12 4 24 10 27 14 3 4 21 18 41 31 61 40
229 171 242 188 7 9 26 25 42 35 17 11 35 25 40 32 15 18 145 104 158 104 16
0 77 61 77 77 0 7 11 19 25 25 14 6 25 14 25 18 0 4 20 21 45 39 25 18 45 39
45 47 0 8 7 14 15 14 8 0 15 3 15 8 0 4 29 30 64 57 42 33 73 68 92 103 16 28
32 52 36 52 4 0 31 24 60 53 29 29 72 66 95 82 23 17 68 53 101 80 68 57 101
83 157 123 22 16 60 49 85 73 25 25 63 58 85 74 64 47 66 48 102 83 19 17 38
32 42 32 3 0 28 23 54 50 26 28 53 50 60 50 23 1 106 62 173 128 23 23 47 42
52 42 5 0 17 9 27 20 10 11 24 20 31 20 6 0 26 16 43 35 17 19 34 35 38 35 4
0 22 12 38 28 77 71 141 119 153 115 7 -3 10 1 6 10 -3 9 5 18 23 26 15 7 60
41 98 76 39 36 74 65 79 65 8 0 54 36 114 90 13 11 46 33 74 48 28 15 78 51
111 80 33 30 65 58 71 63 6 6 26 19 45 30 18 11 35 28 38 39 3 10 16 21 30 25
15 3 51 28 82 56 30 27 61 49 68 49 7 0 13 4 13 10 0 5 16 16 35 25 19 9 39
23 46 31 6 8 17 14 24 14 17 0 151 105 158 124 4 9 12 13 20 10 13 -4 38 12
189 125 27 19 50 42 53 51 3 9 24 26 48 37 45 23 92 60 169 133 69 66 107 93
123 86 8 -3 15 -1 15 4 0 5 26 30 58 55 31 25 66 54 77 63 31 26 119 70 126
63 4 -3 12 -23 19 -43z m-26810 22 c0 -5 -2 -10 -4 -10 -3 0 -8 5 -11 10 -3 6
-1 10 4 10 6 0 11 -4 11 -10z m70 -5 c0 -17 -2 -18 -24 -9 -23 9 -20 24 4 24
11 0 20 -7 20 -15z m301 -18 c-8 -8 -17 -5 -34 11 l-22 23 33 -12 c24 -8 30
-15 23 -22z m249 -147 c0 -5 -9 -10 -20 -10 -11 0 -20 5 -20 10 0 6 9 10 20
10 11 0 20 -4 20 -10z m-517 -72 c4 -10 8 -9 16 2 7 9 11 10 11 3 0 -6 -4 -14
-10 -18 -13 -8 -61 5 -54 16 8 13 32 11 37 -3z m752 -28 c3 -5 1 -10 -4 -10
-6 0 -11 5 -11 10 0 6 2 10 4 10 3 0 8 -4 11 -10z m-765 -42 c0 -5 -9 -4 -20
2 -11 6 -18 15 -14 21 6 11 34 -7 34 -23z m700 -48 c0 -5 -2 -10 -4 -10 -3 0
-8 5 -11 10 -3 6 -1 10 4 10 6 0 11 -4 11 -10z m-705 -40 c-3 -5 -13 -10 -21
-10 -8 0 -14 5 -14 10 0 6 9 10 21 10 11 0 17 -4 14 -10z m-7 -111 c-2 -6 -8
-10 -13 -10 -5 0 -11 4 -13 10 -2 6 4 11 13 11 9 0 15 -5 13 -11z m962 -49 c0
-5 -4 -10 -9 -10 -6 0 -13 5 -16 10 -3 6 1 10 9 10 9 0 16 -4 16 -10z m46 -25
c10 -8 14 -15 7 -15 -19 0 -43 11 -43 21 0 13 14 11 36 -6z m104 -116 c0 -6
-4 -7 -10 -4 -5 3 -10 11 -10 16 0 6 5 7 10 4 6 -3 10 -11 10 -16z m60 -29 c0
-5 -5 -10 -11 -10 -5 0 -7 5 -4 10 3 6 8 10 11 10 2 0 4 -4 4 -10z m-1135 -10
c3 -5 2 -10 -4 -10 -5 0 -13 5 -16 10 -3 6 -2 10 4 10 5 0 13 -4 16 -10z
m1305 -70 c0 -5 -7 -10 -16 -10 -8 0 -12 5 -9 10 3 6 10 10 16 10 5 0 9 -4 9
-10z m301 -293 c-1 -12 -15 -9 -19 4 -3 6 1 10 8 8 6 -3 11 -8 11 -12z m119
-148 c0 -6 -4 -7 -10 -4 -5 3 -10 11 -10 16 0 6 5 7 10 4 6 -3 10 -11 10 -16z
m310 -109 c0 -5 -8 -10 -17 -10 -15 0 -16 2 -3 10 19 12 20 12 20 0z m31 -173
c-1 -12 -15 -9 -19 4 -3 6 1 10 8 8 6 -3 11 -8 11 -12z m-2046 -227 c3 -5 1
-10 -4 -10 -6 0 -11 5 -11 10 0 6 2 10 4 10 3 0 8 -4 11 -10z m2485 -10 c0 -5
-2 -10 -4 -10 -3 0 -8 5 -11 10 -3 6 -1 10 4 10 6 0 11 -4 11 -10z m-2491 -19
c9 -6 10 -10 2 -16 -16 -9 -44 2 -36 15 8 12 16 12 34 1z m74 -152 c-6 -6 -18
-6 -28 -3 -18 7 -18 8 1 14 23 9 39 1 27 -11z m-48 -9 c3 -5 -3 -10 -15 -10
-12 0 -18 5 -15 10 3 6 10 10 15 10 5 0 12 -4 15 -10z m23 -77 c-14 -17 -35
-16 -41 1 -4 10 3 13 23 12 22 0 26 -4 18 -13z m-58 -308 c0 -8 -7 -15 -15
-15 -8 0 -15 7 -15 15 0 8 7 15 15 15 8 0 15 -7 15 -15z m40 -5 c0 -5 -4 -10
-10 -10 -5 0 -10 5 -10 10 0 6 5 10 10 10 6 0 10 -4 10 -10z m-6 -59 c4 -5 -3
-7 -14 -4 -23 6 -26 13 -6 13 8 0 17 -4 20 -9z m3536 -221 c0 -5 -2 -10 -4
-10 -3 0 -8 5 -11 10 -3 6 -1 10 4 10 6 0 11 -4 11 -10z m-3540 -10 c0 -5 -7
-10 -15 -10 -8 0 -15 5 -15 10 0 6 7 10 15 10 8 0 15 -4 15 -10z m3716 -197
c-7 -7 -26 7 -26 19 0 6 6 6 15 -2 9 -7 13 -15 11 -17z m-3746 -12 c0 -6 -4
-13 -10 -16 -5 -3 -10 1 -10 9 0 9 5 16 10 16 6 0 10 -4 10 -9z m0 -70 c0 -11
-39 -21 -45 -11 -2 4 -2 10 2 14 10 9 43 7 43 -3z m35 -1 c3 -5 -1 -10 -10
-10 -9 0 -13 5 -10 10 3 6 8 10 10 10 2 0 7 -4 10 -10z m3935 -26 c0 -17 -22
-14 -28 4 -2 7 3 12 12 12 9 0 16 -7 16 -16z m-40 -33 c0 -5 -7 -12 -16 -15
-14 -5 -15 -4 -4 9 14 17 20 19 20 6z m-3940 -173 c0 -8 -15 -14 -35 -15 -36
-2 -48 12 -17 20 33 9 52 7 52 -5z m30 -44 c0 -9 -6 -14 -12 -11 -7 2 -21 0
-32 -5 -12 -7 -22 -6 -29 1 -11 11 1 16 32 12 7 -2 10 2 6 8 -3 7 2 11 14 11
13 0 21 -7 21 -16z m45 -14 c-3 -5 -10 -10 -16 -10 -5 0 -9 5 -9 10 0 6 7 10
16 10 8 0 12 -4 9 -10z m26795 -60 c0 -5 -7 -10 -15 -10 -8 0 -15 5 -15 10 0
6 7 10 15 10 8 0 15 -4 15 -10z m-26900 -120 c0 -5 -4 -10 -10 -10 -5 0 -10 5
-10 10 0 6 5 10 10 10 6 0 10 -4 10 -10z m4667 -56 c-3 -3 -12 -4 -19 -1 -8 3
-5 6 6 6 11 1 17 -2 13 -5z m-4637 -263 c0 -9 -24 -21 -42 -21 -6 0 -6 6 2 15
14 16 40 20 40 6z m-10 -92 c0 -5 -4 -9 -10 -9 -5 0 -10 7 -10 16 0 8 5 12 10
9 6 -3 10 -10 10 -16z m-16 -108 c3 -5 -1 -11 -9 -15 -9 -3 -15 0 -15 9 0 16
16 20 24 6z m-14 -41 c0 -5 -2 -10 -4 -10 -3 0 -8 5 -11 10 -3 6 -1 10 4 10 6
0 11 -4 11 -10z m-20 -20 c0 -5 -2 -10 -4 -10 -3 0 -8 5 -11 10 -3 6 -1 10 4
10 6 0 11 -4 11 -10z m64 -2 c-3 -4 -14 -8 -25 -8 -11 0 -18 4 -14 9 3 6 14 9
25 8 10 -1 16 -5 14 -9z m42 -55 c-10 -10 -19 5 -10 18 6 11 8 11 12 0 2 -7 1
-15 -2 -18z m-56 -33 c0 -5 -7 -10 -16 -10 -8 0 -12 5 -9 10 3 6 10 10 16 10
5 0 9 -4 9 -10z m-50 -60 c0 -5 -7 -10 -16 -10 -8 0 -12 5 -9 10 3 6 10 10 16
10 5 0 9 -4 9 -10z m5687 -326 c-3 -3 -12 -4 -19 -1 -8 3 -5 6 6 6 11 1 17 -2
13 -5z m-5750 -200 c-3 -3 -12 -4 -19 -1 -8 3 -5 6 6 6 11 1 17 -2 13 -5z
m6223 -186 c0 -13 -23 -5 -28 10 -2 7 2 10 12 6 9 -3 16 -11 16 -16z m-6127
-355 c-7 -2 -19 -2 -25 0 -7 3 -2 5 12 5 14 0 19 -2 13 -5z m-13 -617 c0 -11
-19 -15 -25 -6 -3 5 1 10 9 10 9 0 16 -2 16 -4z m-40 -296 c0 -5 -7 -10 -15
-10 -8 0 -15 5 -15 10 0 6 7 10 15 10 8 0 15 -4 15 -10z m7737 -2966 c-3 -3
-12 -4 -19 -1 -8 3 -5 6 6 6 11 1 17 -2 13 -5z m-7579 -101 c-10 -2 -26 -2
-35 0 -10 3 -2 5 17 5 19 0 27 -2 18 -5z m14682 -632 c0 -5 -7 -11 -15 -15 -9
-3 -15 0 -15 9 0 8 7 15 15 15 8 0 15 -4 15 -9z m-9237 -1748 c-7 -2 -19 -2
-25 0 -7 3 -2 5 12 5 14 0 19 -2 13 -5z m-5561 -1245 c-7 -7 -12 -8 -12 -2 0
14 12 26 19 19 2 -3 -1 -11 -7 -17z m26878 -2638 c0 -5 -2 -10 -4 -10 -3 0 -8
5 -11 10 -3 6 -1 10 4 10 6 0 11 -4 11 -10z m-5620 -1790 c0 -5 -5 -10 -11
-10 -5 0 -7 5 -4 10 3 6 8 10 11 10 2 0 4 -4 4 -10z"/>
<path d="M5730 20366 c0 -2 7 -6 15 -10 8 -3 15 -1 15 4 0 6 -7 10 -15 10 -8
0 -15 -2 -15 -4z"/>
<path d="M8855 20300 c3 -5 11 -10 16 -10 6 0 7 5 4 10 -3 6 -11 10 -16 10 -6
0 -7 -4 -4 -10z"/>
<path d="M18900 20260 c0 -5 9 -10 20 -10 11 0 20 5 20 10 0 6 -9 10 -20 10
-11 0 -20 -4 -20 -10z"/>
</g>
</svg>
