<?xml version="1.0" standalone="no"?>
<!DOCTYPE svg PUBLIC "-//W3C//DTD SVG 20010904//EN"
 "http://www.w3.org/TR/2001/REC-SVG-20010904/DTD/svg10.dtd">
<svg version="1.0" xmlns="http://www.w3.org/2000/svg"
 width="694.691069pt" height="465.641742pt" viewBox="0 0 694.691069 465.641742"
 preserveAspectRatio="xMidYMid meet">
<metadata>
Created by potrace 1.16, written by Peter Selinger 2001-2019
</metadata>
<g transform="translate(-48.103234,519.486195) scale(0.100000,-0.100000)"
fill="#ffffff" stroke="none">
<path d="M724 5193 c-95 -3 -114 -7 -129 -23 -10 -11 -26 -20 -35 -20 -9 0
-27 -11 -40 -25 l-23 -25 23 -232 c28 -279 29 -354 10 -698 -17 -303 -18 -515
-7 -1065 13 -636 13 -1229 -1 -1320 -7 -44 -16 -289 -22 -550 -5 -259 -12
-510 -16 -558 -6 -83 -5 -90 17 -113 29 -31 116 -35 143 -6 14 16 39 20 171
26 86 3 179 11 208 18 65 14 483 4 742 -18 103 -9 347 -17 570 -19 215 -3 446
-10 515 -16 197 -18 875 2 975 30 60 16 611 31 725 20 83 -8 645 -12 1075 -7
77 1 211 -3 297 -9 109 -8 198 -8 295 -1 176 13 599 17 638 6 17 -5 111 -13
209 -19 101 -5 186 -15 193 -21 8 -7 37 -9 75 -5 89 8 102 27 94 127 -4 41 -9
201 -11 355 -3 154 -10 329 -16 390 -7 78 -6 163 2 295 13 211 6 1370 -10
1580 -6 80 -6 203 0 340 9 203 24 882 23 1055 -3 402 -5 445 -28 460 -19 13
-52 13 -227 3 -244 -14 -240 -14 -404 2 -125 11 -960 28 -1575 31 -162 0 -358
2 -435 2 -500 4 -675 0 -1205 -30 -46 -2 -159 1 -250 7 -176 13 -555 19 -1565
25 -346 3 -688 6 -760 8 -71 2 -180 2 -241 0z m471 -163 c187 5 242 5 1105 -3
360 -3 768 -11 905 -18 285 -15 347 -15 535 0 226 18 602 26 789 17 194 -9
194 -9 636 -7 521 3 1359 -5 1380 -12 37 -12 289 -31 412 -31 67 0 120 -3 117
-8 -3 -4 -10 -8 -16 -8 -6 0 -29 -15 -52 -33 -23 -19 -48 -36 -56 -39 -8 -3
-75 -55 -149 -114 -132 -108 -185 -150 -339 -270 -43 -34 -93 -79 -112 -100
-18 -22 -43 -46 -56 -54 -76 -52 -459 -414 -544 -515 -35 -42 -323 -313 -395
-373 -33 -27 -73 -56 -90 -65 -16 -8 -59 -41 -95 -72 -36 -31 -86 -71 -112
-88 -66 -45 -261 -206 -379 -312 -110 -99 -178 -153 -194 -154 -6 -1 -33 -21
-60 -44 -28 -24 -68 -55 -91 -69 -22 -14 -69 -51 -105 -82 -35 -31 -79 -63
-98 -72 -33 -16 -40 -16 -130 6 -102 25 -327 124 -371 164 -14 12 -56 44 -95
71 -70 49 -200 157 -347 290 -124 112 -166 146 -196 164 -42 23 -183 135 -267
211 -66 60 -168 147 -269 228 -181 146 -360 299 -433 371 -35 33 -66 61 -69
61 -3 0 -45 35 -92 78 -83 75 -194 162 -207 162 -4 0 -40 27 -80 60 -40 33
-76 60 -79 60 -8 0 -174 131 -255 203 -36 31 -106 91 -156 133 -200 168 -294
249 -294 256 -1 11 78 16 164 10 44 -3 152 -4 240 -2z m6061 -247 c8 -96 0
-586 -16 -973 -12 -275 -8 -744 8 -1015 6 -111 8 -371 4 -675 -8 -640 -7 -798
7 -893 13 -91 15 -397 3 -397 -11 0 -251 246 -327 335 -33 39 -107 122 -165
186 -58 64 -159 176 -225 249 -250 278 -315 348 -416 443 -120 114 -287 290
-409 432 -47 54 -166 180 -266 279 -153 154 -282 297 -292 325 -2 6 152 132
323 263 83 63 385 352 434 414 22 28 80 87 128 130 49 43 107 98 129 124 23
25 77 72 120 105 44 32 117 95 164 139 75 71 279 242 380 318 19 14 64 49 100
77 36 28 99 74 140 103 41 28 93 66 114 84 22 19 43 34 47 34 4 0 11 -39 15
-87z m-6488 22 c138 -114 217 -182 276 -236 87 -80 293 -243 401 -319 200
-140 260 -191 678 -573 38 -34 104 -89 147 -122 122 -95 230 -183 326 -270 49
-44 101 -90 117 -101 30 -25 33 -36 13 -53 -8 -7 -40 -51 -72 -99 -32 -48 -67
-101 -78 -118 -12 -17 -107 -125 -212 -240 -105 -115 -218 -240 -251 -279 -34
-38 -77 -86 -98 -105 -20 -19 -61 -64 -90 -100 -28 -36 -211 -225 -405 -420
-331 -332 -671 -696 -714 -765 -33 -52 -139 -166 -147 -158 -10 11 8 759 21
858 22 179 31 377 25 575 -4 113 -8 342 -10 510 -2 168 -8 456 -15 640 -10
256 -10 378 -1 515 26 409 32 619 21 730 -11 123 -13 185 -4 185 3 0 36 -25
72 -55z m2250 -1857 c58 -51 136 -120 172 -153 72 -67 176 -151 260 -210 30
-21 66 -49 80 -61 14 -13 77 -46 140 -74 63 -28 124 -56 134 -62 81 -44 320
-73 399 -47 48 15 140 75 177 114 14 15 48 43 75 61 147 101 192 136 336 264
123 110 209 180 219 180 5 0 35 -30 67 -66 126 -142 286 -314 292 -314 9 0
224 -235 321 -350 35 -41 176 -188 314 -326 138 -137 296 -301 351 -362 55
-62 146 -163 203 -225 56 -61 156 -173 222 -247 65 -74 163 -181 218 -238 55
-56 95 -105 90 -108 -11 -7 -89 3 -173 21 -91 20 -512 18 -640 -2 -110 -17
-308 -14 -445 8 -54 8 -125 9 -250 3 -230 -11 -900 -8 -1009 5 -141 17 -676 2
-876 -24 -264 -35 -590 -45 -815 -25 -63 6 -272 12 -465 14 -192 3 -429 9
-525 15 -682 43 -753 45 -904 32 -71 -6 -131 -9 -134 -6 -3 2 19 30 48 62 29
31 59 68 68 82 9 15 36 49 61 77 26 28 80 88 121 134 127 143 232 253 565 591
287 293 466 483 594 633 24 28 87 98 141 156 200 215 250 273 299 346 28 41
51 78 51 82 0 12 91 112 101 112 6 0 58 -42 117 -92z"/>
</g>
</svg>
