<svg width="34" height="28" viewBox="0 0 34 28" fill="none" xmlns="http://www.w3.org/2000/svg">
<path d="M17 3H1.5C0.7 3 0 2.3 0 1.5C0 0.7 0.7 0 1.5 0H17C17.8 0 18.5 0.7 18.5 1.5C18.5 2.3 17.8 3 17 3Z" fill="#343434"/>
<path d="M32.5 15.4H1.5C0.7 15.4 0 14.7 0 13.9C0 13.1 0.7 12.4 1.5 12.4H32.5C33.3 12.4 34 13.1 34 13.9C34 14.7 33.3 15.4 32.5 15.4Z" fill="#343434"/>
<path d="M32.5 27.8H1.5C0.7 27.8 0 27.1 0 26.3C0 25.5 0.7 24.8 1.5 24.8H32.5C33.3 24.8 34 25.5 34 26.3C34 27.1 33.3 27.8 32.5 27.8Z" fill="#343434"/>
</svg>
