<?xml version="1.0" encoding="UTF-8"?>
<svg id="svg29" width="312.3" height="72" version="1.1" viewBox="0 0 312.3 72" xmlns="http://www.w3.org/2000/svg">
 <defs id="defs11">
  <style id="style9">.codeac{fill:#005096;}</style>
 </defs>
 <path id="path13" d="m78.6 42.58a19.22 19.22 0 0 1 6.73-11.58 20.19 20.19 0 0 1 13-4.3c7 0 12.42 3.75 14.64 9.57l-7.97 3.25c-1.11-3.05-4-5-7.77-5a9.42 9.42 0 0 0-6.52 2.64 11.8 11.8 0 0 0-3.6 6.31 13.36 13.36 0 0 0-0.28 2.36c0.03 4.72 3.17 8.17 8.17 8.17a10.58 10.58 0 0 0 8.4-4.71l7.35 3.95c-3.61 5.48-9.5 8.67-16.72 8.67-9.36 0-15.81-6.45-15.81-15.4a18.87 18.87 0 0 1 0.38-3.93z"/>
 <path id="path15" d="m115.57 42.58a19.24 19.24 0 0 1 6.8-11.52 19.6 19.6 0 0 1 12.83-4.37c9.3 0 15.8 6.52 15.8 15.31a19 19 0 0 1-0.35 3.75c-1.8 9.57-9.71 16.09-19.7 16.09-9.22 0-15.67-6.59-15.67-15.54a20 20 0 0 1 0.29-3.72zm26.85 0.07c0-4.79-3.19-8.12-8.26-8.12a9.6 9.6 0 0 0-6.59 2.57 11 11 0 0 0-3.67 6.38 14 14 0 0 0-0.21 2.36c0 4.78 3.19 8.11 8.18 8.11s9.3-3.88 10.34-9a13.94 13.94 0 0 0 0.21-2.3z"/>
 <path id="path17" d="m155.8 42.58a19.84 19.84 0 0 1 6.45-11.58 18.24 18.24 0 0 1 12.21-4.3c4.51 0 8.6 1.53 10.82 3.75l3.95-20.26h8.47l-9.85 50.64h-8.47l0.42-2.15a15 15 0 0 1-9.43 3.19c-8.54 0-15-6.8-15-15.47a18.07 18.07 0 0 1 0.43-3.82zm26.84 0.07c0-4.79-3.19-8.12-8.25-8.12a9.65 9.65 0 0 0-6.66 2.57 11.17 11.17 0 0 0-3.61 6.38 13.93 13.93 0 0 0-0.2 2.36c0 4.78 3.19 8.11 8.18 8.11s9.29-3.88 10.34-9a15 15 0 0 0 0.2-2.3z"/>
 <path id="path19" d="m230.15 47.36h-23.93c0.21 4.09 2.29 6.73 6.66 6.73a10.5 10.5 0 0 0 8.53-4.72l7 4c-3.4 5.48-9.57 8.46-16.16 8.46-8.6 0-14.64-7-14.64-15.33a23.19 23.19 0 0 1 0.39-3.5c1.8-9.64 9.29-16.3 18.87-16.3 8.67 0 14.35 6.59 14.35 14.64a18.22 18.22 0 0 1-1.07 6.02zm-7.28-6.93a6 6 0 0 0-6.45-6 9.16 9.16 0 0 0-8.88 6z"/>
 <path id="path21" d="m235.77 42.58a19.84 19.84 0 0 1 6.45-11.58 18.24 18.24 0 0 1 12.21-4.3 17.6 17.6 0 0 1 10.82 3.75l0.55-2.71h8.47l-6.46 33.09h-8.46l0.42-2.15a15 15 0 0 1-9.43 3.19c-8.54 0-15-6.8-15-15.47a18.07 18.07 0 0 1 0.43-3.82zm26.84 0.07c0-4.79-3.19-8.12-8.25-8.12a9.6 9.6 0 0 0-6.59 2.57 11.1 11.1 0 0 0-3.68 6.38 14 14 0 0 0-0.21 2.36c0 4.78 3.2 8.11 8.19 8.11s9.29-3.88 10.33-9a13.94 13.94 0 0 0 0.21-2.3z"/>
 <path id="path23" d="m277.94 42.58a19.12 19.12 0 0 1 6.73-11.58 20.15 20.15 0 0 1 13-4.3c7 0 12.41 3.75 14.63 9.57l-7.9 3.26c-1.11-3.05-4-5-7.77-5a9.39 9.39 0 0 0-6.52 2.64 11.75 11.75 0 0 0-3.61 6.31 13.36 13.36 0 0 0-0.28 2.36c0 4.71 3.12 8.11 8.12 8.11a10.57 10.57 0 0 0 8.39-4.71l7.35 3.95c-3.6 5.48-9.5 8.67-16.71 8.67-9.37 0-15.82-6.45-15.82-15.4a18.22 18.22 0 0 1 0.39-3.88z"/>
 <polygon id="polygon25" class="codeac" points="49.81 19.14 49.81 7.61 42.51 11.01 46.68 11.01 46.68 17.68"/>
 <path id="path27" class="codeac" d="m68.71 21.23-12.47-11.62v-2.41l-7.19-7.2-5.78 2.71h-0.09l-1 2.05-9.68-0.03-9.5-4.4h-5.16l-2.33 5v9.61l-3 3-2.65-0.27v4.71l-9.86 4.62v7.53l2.52 5.39 2.1 0.21 2.56 5.47 5.67 0.49 5.15 5.1 2.1 2.09 18.84 18.72h9.39l29.86-50.77zm-49.9-15.23 1.19-2.61h3.7l5.45 2.61-6.46 3-1.69-3.67h-1.24v5.35l-1 1zm22.72 51.88-7.85-7.88h-12.44l-6.77-6.91-5.29-0.45-1-2.24h10.67l5.42-5.4-7.27 3.39-12.41-1.29-1.53-3.29v-3.29l2.94 0.31 1 2.42 1.08 2.52 5.17-5.17-4.1 0.4-1.1-2.7-3.05-0.3 12.42-5.8 0.68 0.07 2.73 5.85 9.13 0.8 4.04-8.78-4-0.4-2.64 5.64v-5.91l-11-1.16 5.73-5.72 10.4-4.81 8.32 0.06-2.44 5.26h2.2l3.43-7.37 4.39-2.05 4.8 4.79v12l3.05 1.42v-8l11.09 9.35z"/>
</svg>
