<?xml version="1.0" encoding="UTF-8"?>
<!-- Generator: Adobe Illustrator 18.1.0, SVG Export Plug-In . SVG Version: 6.00 Build 0)  -->
<svg id="Layer_1" width="726.5" height="195.04" enable-background="new 58.8 507.2 726.5 195.1" version="1.1" viewBox="58.8 507.2 726.5 195.04" xml:space="preserve" xmlns="http://www.w3.org/2000/svg">
<g id="g7">
	<g id="g6" fill="#f7931e">
		<path id="path1" d="m111.9 520.5h24.7v114.1c-12.6 2.4-21.9 3.4-32 3.4-30.1 0-45.8-13.6-45.8-39.7 0-25.1 16.6-41.4 42.5-41.4 4 0 7 0.3 10.7 1.2zm0 57.4c-2.9-0.9-5.3-1.2-8.4-1.2-12.5 0-19.7 7.6-19.7 21.2 0 13.1 6.9 20.3 19.5 20.3 2.7 0 5-0.2 8.5-0.6z"/>
		<path id="path2" d="m175.8 558.6v57.1c0 19.7-1.4 29.1-5.8 37.3-4 7.9-9.3 12.8-20.1 18.3l-22.9-10.8c10.8-5.2 16.2-9.6 19.5-16.5 3.5-7 4.6-15.2 4.6-36.7v-48.7h24.7zm-24.7-38h24.7v25.3h-24.7z"/>
		<path id="path3" d="m190.7 564.2c10.8-5.2 21.3-7.3 32.6-7.3 12.6 0 21 3.4 24.7 9.9 2.1 3.7 2.7 8.5 2.7 18.7v50.1c-11.1 1.7-25 2.7-35.2 2.7-20.7 0-30-7.2-30-23.2 0-17.3 12.3-25.3 42.6-27.9v-5.5c0-4.4-2.3-6.1-8.5-6.1-9.1 0-19.4 2.6-29 7.5zm38.5 39.2c-16.3 1.7-21.6 4.1-21.6 10.5 0 4.8 3 7 9.8 7 3.7 0 7-0.3 11.9-1.1z"/>
		<path id="path4" d="m262.7 562.4c14.6-3.8 26.5-5.6 38.7-5.6 12.6 0 21.8 2.9 27.3 8.5 5.2 5.3 6.7 11.1 6.7 23.3v48.4h-24.7v-47.4c0-9.4-3.2-13-12-13-3.4 0-6.4 0.3-11.4 1.8v58.6h-24.7z"/>
		<path id="path5" d="m345 650.5c8.7 4.4 17.3 6.6 26.4 6.6 16.2 0 23-6.6 23-22.2v-0.5c-4.8 2.4-9.6 3.4-16 3.4-21.6 0-35.4-14.3-35.4-36.9 0-28 20.4-43.9 56.4-43.9 10.5 0 20.3 1.1 32.2 3.5l-8.5 17.8c-6.6-1.2-0.5-0.2-5.5-0.6v2.6l0.3 10.4 0.2 13.4c0.2 3.4 0.2 6.7 0.3 10.1v6.7c0 21.2-1.8 31.1-7 39.3-7.6 12-21 18-39.9 18-9.6 0-18-1.4-26.5-4.9zm49-73.6h-0.8-1.8c-4.8-0.2-10.4 1.1-14.3 3.5-5.9 3.4-9 9.4-9 18.1 0 12.3 6.1 19.4 16.9 19.4 3.4 0 6.1-0.6 9.3-1.7v-8.5c0-2.9-0.2-6.1-0.2-9.4l-0.1-11.3-0.2-8.2z"/>
		<path id="path6" d="m469.9 556.5c24.7 0 39.7 15.5 39.7 40.7 0 25.8-15.7 41.9-40.7 41.9-24.7 0-39.9-15.5-39.9-40.5 0.1-25.9 15.8-42.1 40.9-42.1zm-0.5 62.7c9.4 0 15.1-7.9 15.1-21.5 0-13.4-5.5-21.5-14.9-21.5-9.8 0-15.4 7.9-15.4 21.5 0 13.7 5.6 21.5 15.2 21.5z"/>
	</g>
</g>
<g id="g11" fill="#f7931e">
	<path id="path7" d="m562.1 702.1c-2.7 0.3-5.3 0.1-8-0.6s-5-1.7-7-3-3.7-3-4.9-4.9c-1.1-1.9-1.5-3.9-1.1-6.1 2 0 3.7 0.4 5.3 1.1 1.5 0.8 3 1.7 4.5 2.7 1.5 0.9 3.1 1.9 4.8 2.7s3.7 1.1 6 1.1c5.7 0 10.4-1.2 14.4-3.7 3.9-2.5 7-5.7 9.4-9.7s4-8.6 5.1-13.6c1-5.1 1.5-10.2 1.5-15.5 0-1.3-0.1-3.5-0.2-6.5s-0.3-6.3-0.5-9.9c-0.2-3.7-0.4-7.5-0.6-11.7-0.2-4-0.5-8-0.7-11.7s-0.5-7-0.7-9.9c-0.2-3-0.5-5.1-0.6-6.5-0.8 2-1.8 4.3-3 7.2-1.1 2.9-2.5 5.9-4 9s-3.2 6.3-5.2 9.4-4 5.9-6.4 8.4-5 4.4-7.7 6c-2.8 1.5-5.8 2.3-8.9 2.3-1.7 0-3-0.8-3.9-2.5s-1.7-3.6-2.2-5.8-0.8-4.3-0.9-6.4-0.2-3.6-0.2-4.4c-0.5-6.3-0.5-12.5 0-18.6s1.4-11.9 3-17.3c1.5-5.4 3.5-10.1 6-14.4 2.5-4.2 5.6-7.5 9.2-9.9s7.7-3.8 12.4-4.1c4.6-0.3 9.9 0.7 15.7 3.2 1.5-0.2 2.6 0.7 3.2 2.7 0.5 2 0.8 4.3 0.7 7.2 0 2.9-0.2 5.9-0.5 9s-0.5 5.8-0.6 8c0 5.1 0.2 10.2 0.6 15.3s0.8 10.2 1.4 15.3c0.5 5.1 1 10.1 1.4 15.2s0.6 10.1 0.6 15.3c0 5.9-0.6 12.1-1.8 18.6-1.1 6.5-3.2 12.6-6.1 18.1-2.9 5.6-6.7 10.1-11.5 13.7-5 3.4-10.9 5.2-18 5.2zm-9-86.2c0 1 0 2.2 0.1 3.6 0 1.4 0.2 2.8 0.6 4.1 0.3 1.3 0.9 2.5 1.7 3.4s1.8 1.4 3.2 1.4c2.8 0 5.3-1.2 7.6-3.7 2.4-2.5 4.5-5.7 6.5-9.6s3.8-8.2 5.5-12.9 3-9.3 4.1-13.8 2-8.6 2.6-12.3 0.9-6.4 0.9-8.2c-6-2.2-11.1-2.1-15.3 0.1-4.2 2.3-7.6 5.8-10.2 10.6-2.6 4.9-4.4 10.6-5.7 17.3-1.2 6.7-1.7 13.4-1.6 20z"/>
	<path id="path8" d="m611.7 541.5c-0.7 0-1.4-0.2-2.4-0.7-0.9-0.5-1.7-1.1-2.3-1.9-0.6-0.7-1-1.5-1.3-2.4-0.2-0.8-0.1-1.5 0.5-2.2 0.4-1.1 1.1-2.3 2.4-3.2 1.1-0.9 2.4-1.7 3.7-2 1.2-0.3 2.4-0.3 3.3 0.1s1.4 1.5 1.4 3.3c0 0.9-0.1 1.9-0.2 2.9s-0.4 2-0.9 2.9-1 1.7-1.7 2.2c-0.7 0.6-1.5 1-2.5 1zm6.2 94.8c-0.5 0-1.1-0.1-2-0.3-0.8-0.2-1.5-0.5-2.4-0.9-0.8-0.4-1.4-0.8-2-1.4-0.5-0.5-0.8-1.1-0.8-1.9l-0.1-70.9c0-0.7 0.3-1.3 0.8-1.9 0.5-0.5 1.2-1 2-1.4s1.5-0.7 2.4-0.9c0.8-0.2 1.4-0.3 2-0.3z"/>
	<path id="path9" d="m628.4 576c-0.3-1.2-0.7-2.9-1.1-4.9-0.5-2-0.9-3.9-1.3-6s-0.6-4-0.6-5.9 0.3-3.4 0.9-4.4c0.6-1.1 1.7-1.8 3.1-2s3.5 0.5 6.2 2c0.2 1 0.5 2.6 0.8 5 0.3 2.3 0.7 4.8 1.1 7.3 0.4 2.6 0.7 5.1 1 7.3s0.4 3.9 0.4 5c1.8-3.9 4-7.6 6.8-11.2 2.8-3.5 6-6.6 9.6-9.3s7.6-4.8 11.9-6.3 8.9-2.4 13.8-2.4l-1.4 8.4c-6.3 1-12.2 3.7-17.6 8-5.5 4.2-10 9.7-13.6 16.3-3.6 6.7-6.1 14.5-7.3 23.4-1.2 9-0.7 18.7 1.4 29.1l-9.3 2c-0.1-0.1-0.2-1.3-0.4-3.6s-0.4-5.3-0.7-8.9-0.6-7.7-0.9-12.2l-0.9-13.5c-0.3-4.5-0.6-8.8-0.9-12.9-0.5-4.2-0.8-7.7-1-10.3z"/>
	<path id="path10" d="m687.6 508.3 8.3-1.1c0.4 5.2 0.7 11.4 1.1 18.4 0.3 7 0.6 14.6 0.9 22.4 0.2 7.9 0.5 15.8 0.6 24 0.2 8.1 0.4 15.8 0.5 23s0.3 13.8 0.5 19.6c0.2 5.9 0.4 10.4 0.7 13.7 0 1.3-0.2 2.7-0.7 3.9s-1 2.1-1.8 2.7c-0.7 0.5-1.4 0.6-2.4 0.2-0.9-0.4-1.7-1.4-2.4-3.2z"/>
	<path id="path11" d="m707.2 607.5c0.8-1.7 1.8-2.7 2.8-3.2 1-0.4 2.5-0.5 4.2-0.4 3.5 3.2 7.1 6.3 10.8 9.1 3.7 2.9 7.5 5.3 11.6 7.3s8.3 3.7 12.7 5c4.4 1.2 9.1 1.9 14.2 1.9h3.4c1.2 0 2.5-0.2 3.5-0.5s2-0.9 2.7-1.7 1.1-2 1.1-3.4c-0.4-3-2-5.5-4.6-7.7-2.7-2.2-6-4.3-9.8-6.3s-8-4-12.2-6.2c-4.3-2.1-8.3-4.5-11.8-7.2s-6.4-5.8-8.6-9.3-3-7.6-2.5-12.6c0-2.8 0.9-5.2 2.7-7.3 1.8-2.2 3.9-4 6.5-5.5s5.3-2.7 8.1-3.5 5.3-1.2 7.4-1.2c4.2 0 8.5 0.6 12.9 1.9 4.3 1.2 8.3 3 11.7 5.4l-3.9 5.6c-1.8-1.4-3.9-2.6-6.5-3.3s-5.3-1.1-8.1-1.1-5.5 0.2-8.1 0.6c-2.7 0.5-5 1.2-7 2.3-2 1-3.5 2.3-4.5 3.7s-1.3 3-0.8 4.6c0 4.6 1.2 8.4 3.7 11.3s5.6 5.4 9.3 7.5 7.7 4 12.1 5.7 8.4 3.5 12.1 5.7c3.7 2.1 6.8 4.6 9.3 7.5s3.7 6.6 3.7 11.2c0 2.9-0.5 5.1-1.4 6.8s-2.2 3-3.7 3.8c-1.5 0.9-3.3 1.4-5.5 1.8-2.1 0.3-4.3 0.4-6.7 0.4-5.3 0-10.8-0.7-16.5-2.1s-11.3-3.3-16.6-5.8c-5.4-2.5-10.4-5.5-15.2-8.9-5.2-3.9-9.2-7.7-12.5-11.9z"/>
</g>
</svg>
