<?xml version="1.0" encoding="UTF-8"?>
<!-- Created with Inkscape (http://www.inkscape.org/) -->
<svg id="svg5" width="4905.1" height="984.26" version="1.1" viewBox="0 0 1297.8 260.42" xmlns="http://www.w3.org/2000/svg" xmlns:xlink="http://www.w3.org/1999/xlink">
 <defs id="defs2">
  <linearGradient id="linearGradient2446">
   <stop id="stop2442" offset="0"/>
   <stop id="stop2444" stop-opacity="0" offset="1"/>
  </linearGradient>
  <linearGradient id="linearGradient2452" x1="26.459" x2="238.13" y1="173.62" y2="173.62" gradientUnits="userSpaceOnUse" xlink:href="#linearGradient2446"/>
  <clipPath id="clipPath2710">
   <rect id="rect2712" transform="rotate(135)" x="132.33" y="26.458" width="131.87" height="164.53" d="M 132.33087,26.458332 H 264.19664 V 190.98652 H 132.33087 Z" fill="#f00" opacity=".3" stroke-linejoin="round" stroke-width="5.228"/>
  </clipPath>
  <clipPath id="clipPath2917">
   <rect id="rect2919" transform="rotate(135)" x="132.33" y="26.458" width="132.25" height="158.75" d="M 132.33087,26.458332 H 264.58333 V 185.20833 H 132.33087 Z" fill="#f00" opacity=".3" stroke-linejoin="round" stroke-width="5.228"/>
  </clipPath>
 </defs>
 <g id="layer10" transform="matrix(4.6985 0 0 1 30.374 -30.622)" display="none">
  <rect id="rect2229" x="-9.398" y="-5.8919" width="281.21" height="337.74" display="inline" fill="#fff" stroke-linejoin="round" stroke-width="5.228"/>
 </g>
 <g id="layer1" transform="translate(-4.384 -30.622)" display="none">
  <rect id="rect404" x="-60.874" y="-13.785" width="1390.2" height="357.91" display="inline" stroke-linejoin="round" stroke-width="10.378"/>
 </g>
 <g id="g466" transform="translate(-4.384 -30.622)" fill="url(#linearGradient2452)">
  <path id="path464" d="m132.33 56.206c-2.0438-0.0095-4.0904 0.76401-5.6498 2.3234l-94.608 94.608c-3.0998 3.0998-5.6126 9.1663-5.6126 13.55v116.42c2.82e-4 4.3835 3.5539 7.937 7.9375 7.937l97.933 1e-3z" fill="#5b5656" style="paint-order:stroke markers fill"/>
 </g>
 <g id="g25784" transform="translate(-4.384 -30.622)" fill="url(#linearGradient2452)">
  <g id="g25772" fill="#5abf71" style="paint-order:stroke markers fill">
   <path id="path9315" d="m132.33 56.206v234.83l97.859 1e-3c4.3838 4e-5 7.9375-3.5537 7.9375-7.9375v-116.42c0-4.3838-2.5128-10.45-5.6126-13.55l-94.608-94.608c-1.5404-1.5404-3.5564-2.314-5.5754-2.3234z" fill="#5abf71" style="paint-order:stroke markers fill"/>
  </g>
 </g>
 <g id="g2585" transform="translate(-4.384 -30.622)">
  <path id="path2583" d="m61.866 52.848a4.1477 4.1477 0 0 0-4.1477 4.1477v49.91a4.1477 4.1477 0 0 0 4.1477 4.1478h2.4336l18.904-18.904v-35.153a4.1477 4.1477 0 0 0-4.1477-4.1477z" fill="#5b5656"/>
 </g>
 <g id="g2505" transform="translate(-4.384 -30.622)" display="none" stroke-linejoin="round" stroke-width="5.228">
  <path id="rect2624" transform="rotate(-45)" x="-114.83749" y="120.3074" width="181.32619" height="17.975067" d="m-109.55 120.31h170.74a5.2917 5.2917 45 0 1 5.2917 5.2917v7.3917a5.2917 5.2917 135 0 1-5.2917 5.2917h-170.74a5.2917 5.2917 45 0 1-5.2917-5.2917v-7.3917a5.2917 5.2917 135 0 1 5.2917-5.2917z" fill="#5b5656"/>
  <path id="path2699" transform="rotate(225)" x="-301.65805" y="48.862247" width="181.32619" height="17.975067" d="m-296.37 48.862h170.74a5.2917 5.2917 45 0 1 5.2917 5.2917v7.3917a5.2917 5.2917 135 0 1-5.2917 5.2917h-170.74a5.2917 5.2917 45 0 1-5.2917-5.2917v-7.3917a5.2917 5.2917 135 0 1 5.2917-5.2917z" clip-path="url(#clipPath2710)" fill="#5abf71"/>
 </g>
 <g id="g2746" transform="translate(-4.384 -30.622)" stroke-linejoin="round" stroke-width="5.5438">
  <path id="path2815" transform="rotate(-45)" x="-110.70596" y="113.80614" width="184.30563" height="22.905046" d="m-105.41 113.81h173.72a5.2917 5.2917 45 0 1 5.2917 5.2917v12.322a5.2917 5.2917 135 0 1-5.2917 5.2917h-173.72a5.2917 5.2917 45 0 1-5.2917-5.2917v-12.322a5.2917 5.2917 135 0 1 5.2917-5.2917z" fill="#5b5656"/>
  <path id="rect2810" transform="rotate(225)" x="-298.35968" y="50.804325" width="184.30563" height="22.905046" d="m-293.07 50.804h173.72a5.2917 5.2917 45 0 1 5.2917 5.2917v12.322a5.2917 5.2917 135 0 1-5.2917 5.2917h-173.72a5.2917 5.2917 45 0 1-5.2917-5.2917v-12.322a5.2917 5.2917 135 0 1 5.2917-5.2917z" clip-path="url(#clipPath2917)" fill="#5abf71"/>
 </g>
 <g id="layer8" transform="translate(-4.384 -30.622)">
  <g id="text1165" fill="#fff" stroke-linejoin="round" stroke-width="5.228" style="font-variation-settings:'wght' 800" aria-label="R">
   <path id="path1001" d="m84.353 254.58v-114.65a5.2917 5.2917 135 0 1 5.2917-5.2917h45.861c2.9225 0 7.674-0.0436 10.568 0.34831 2.084 0.28224 4.1026 0.73602 6.0559 1.3613 2.7806 0.89017 7.0711 2.9635 9.5382 4.5264 1.6396 1.0387 3.1897 2.1892 4.6504 3.4516 2.2095 1.9096 5.3883 5.4529 7.0861 7.8296 1.0682 1.4954 2.039 3.0534 2.9124 4.674 1.3856 2.5713 3.1837 6.9768 3.9691 9.7898 0.47079 1.6862 0.82567 3.3788 1.0646 5.0779 0.40669 2.8917 0.40399 7.6527 0.0745 10.555-0.17073 1.5037-0.41556 2.9862-0.7345 4.4475-0.62278 2.8535-2.2105 7.3405-3.5258 9.9482-0.58031 1.1505-1.2115 2.2713-1.8935 3.3625-1.548 2.4767-4.5776 6.1518-6.7431 8.1109-0.90264 0.81661-1.8445 1.5901-2.8255 2.3205-2.3424 1.744-3.2385 4.9056-1.7517 7.4217l22.133 37.455a3.0196 3.0196 119.71 0 1-2.5996 4.5557h-21.343a9.2972 9.2972 29.647 0 1-7.9937-4.5498l-18.585-31.294a9.2972 9.2972 29.647 0 0-7.9937-4.5498h-8.9958a5.2917 5.2917 135 0 0-5.2917 5.2917v29.81a5.2917 5.2917 135 0 1-5.2917 5.2917h-18.344a5.2917 5.2917 45 0 1-5.2917-5.2917zm34.219-60.325h15.875c2.9225 0 7.8638 0.13861 10.344-1.3381 0.6478-0.38571 3.0395-2.2886 4.556-4.7702 0.71048-1.1627 2.183-4.367 2.6274-7.2463 0.33212-2.1516 0.39924-6.3547-0.36216-9.1675-0.55875-2.0642-2.4442-5.8241-4.4684-7.9163-0.98078-1.0137-3.9158-3.2496-6.7803-3.6714-0.82556-0.12155-3.876-0.10959-6.7986-0.10959h-14.993a5.2917 5.2917 135 0 0-5.2917 5.2917v23.636a5.2917 5.2917 45 0 0 5.2917 5.2917z" stroke-width="5.228"/>
  </g>
 </g>
 <g id="layer12" transform="translate(-13.782 -36.514)">
  <path id="path3475" d="m483.83 152.83q0 38.938-30.828 50.297l41.026 57.947h-44.501l-35.923-51.684h-25.032v51.684h-36.157v-162.02h61.422q37.777 0 53.772 12.753 16.221 12.746 16.221 41.026zm-68.839 25.265q18.542 0 25.265-6.0225 6.7233-6.0298 6.7233-19.009 0-13.213-6.9569-18.075-6.9496-4.8691-24.331-4.8691h-27.119v47.976zm222.63-79.03v32.215h-80.658v33.375h72.547v30.821h-72.547v33.609h83.212v31.989h-119.37v-162.02zm109.24 130.02q26.652 0 43.574-21.097l23.177 23.878q-27.579 31.061-65.13 31.061-37.31 0-61.648-23.645-24.104-23.637-24.104-59.568 0-36.157 24.564-60.261 24.805-24.105 60.495-24.105 39.865 0 66.751 30.368l-22.484 25.492q-17.155-21.316-42.647-21.316-20.396 0-34.996 13.432-14.366 13.213-14.366 35.931 0 22.484 13.673 36.157 13.673 13.673 33.142 13.673zm163.96-98.732v130.72h-36.157v-130.72h-45.895v-31.295h127.94v31.295zm191.65 48.903q0-21.791-13.906-37.084-13.906-15.301-34.302-15.301-20.162 0-34.069 15.301-13.907 15.293-13.907 37.084 0 21.557 13.907 36.85 13.907 15.067 34.069 15.067 20.396 0 34.31-15.067 13.899-15.293 13.899-36.85zm12.286 59.568q-24.564 23.871-60.495 23.871-35.916 0-60.488-23.871-24.572-24.105-24.572-59.801 0-35.697 24.572-59.568 24.565-24.105 60.488-24.105 35.93 0 60.495 24.105 24.572 23.871 24.572 59.568 0 35.697-24.572 59.801zm186.62-85.994q0 38.938-30.821 50.297l41.026 57.947h-44.508l-35.916-51.684h-25.039v51.684h-36.157v-162.02h61.422q37.778 0 53.772 12.753 16.221 12.746 16.221 41.026zm-68.839 25.265q18.542 0 25.265-6.0225 6.7233-6.0298 6.7233-19.009 0-13.213-6.9497-18.075-6.9569-4.8691-24.338-4.8691h-27.119v47.976z" fill="#333" font-family="Montserrat" font-size="31.75px" font-weight="700" stroke-width="7.3"/>
  <path id="path3717" d="m483.83 152.83q0 38.938-30.828 50.297l41.026 57.947h-44.501l-35.923-51.684h-25.032v51.684h-36.157v-162.02h61.422q37.777 0 53.772 12.753 16.221 12.746 16.221 41.026zm-68.839 25.265q18.542 0 25.265-6.0225 6.7233-6.0298 6.7233-19.009 0-13.213-6.9569-18.075-6.9496-4.8691-24.331-4.8691h-27.119v47.976zm222.63-79.03v32.215h-80.658v33.375h72.547v30.821h-72.547v33.609h83.212v31.989h-119.37v-162.02zm109.24 130.02q26.652 0 43.574-21.097l23.177 23.878q-27.579 31.061-65.13 31.061-37.31 0-61.648-23.645-24.104-23.637-24.104-59.568 0-36.157 24.564-60.261 24.805-24.105 60.495-24.105 39.865 0 66.751 30.368l-22.484 25.492q-17.155-21.316-42.647-21.316-20.396 0-34.996 13.432-14.366 13.213-14.366 35.931 0 22.484 13.673 36.157 13.673 13.673 33.142 13.673zm163.96-98.732v130.72h-36.157v-130.72h-45.895v-31.295h127.94v31.295zm191.65 48.903q0-21.791-13.906-37.084-13.906-15.301-34.302-15.301-20.162 0-34.069 15.301-13.907 15.293-13.907 37.084 0 21.557 13.907 36.85 13.907 15.067 34.069 15.067 20.396 0 34.31-15.067 13.899-15.293 13.899-36.85zm12.286 59.568q-24.564 23.871-60.495 23.871-35.916 0-60.488-23.871-24.572-24.105-24.572-59.801 0-35.697 24.572-59.568 24.565-24.105 60.488-24.105 35.93 0 60.495 24.105 24.572 23.871 24.572 59.568 0 35.697-24.572 59.801zm186.62-85.994q0 38.938-30.821 50.297l41.026 57.947h-44.508l-35.916-51.684h-25.039v51.684h-36.157v-162.02h61.422q37.778 0 53.772 12.753 16.221 12.746 16.221 41.026zm-68.839 25.265q18.542 0 25.265-6.0225 6.7233-6.0298 6.7233-19.009 0-13.213-6.9497-18.075-6.9569-4.8691-24.338-4.8691h-27.119v47.976z" display="none" fill="#fff" font-family="Montserrat" font-size="31.75px" font-weight="700" stroke-width="7.3"/>
  <text id="text2283" x="644.39795" y="191.10023" fill="#000000" font-family="'Nunito Sans'" font-size="176.39px" font-style="italic" font-weight="200" stroke-linejoin="round" stroke-width="5.228" xml:space="preserve"><tspan id="tspan2281" x="644.39795" y="191.10023" stroke-width="5.228"/></text>
 </g>
</svg>
