<?xml version="1.0" encoding="UTF-8" standalone="no"?>
<svg
   class="e_Z atm-icon__logo"
   viewBox="0 0 984.40999 145.88"
   version="1.1"
   aria-label="Logo Seznam Zprávy"
   id="svg3"
   sodipodi:docname="seznamzpravy.svg"
   width="984.40997"
   height="145.88"
   inkscape:version="1.4 (e7c3feb1, 2024-10-09)"
   xmlns:inkscape="http://www.inkscape.org/namespaces/inkscape"
   xmlns:sodipodi="http://sodipodi.sourceforge.net/DTD/sodipodi-0.dtd"
   xmlns="http://www.w3.org/2000/svg"
   xmlns:svg="http://www.w3.org/2000/svg">
  <defs
     id="defs3" />
  <sodipodi:namedview
     id="namedview3"
     pagecolor="#ffffff"
     bordercolor="#666666"
     borderopacity="1.0"
     inkscape:showpageshadow="2"
     inkscape:pageopacity="0.0"
     inkscape:pagecheckerboard="0"
     inkscape:deskcolor="#d1d1d1"
     inkscape:zoom="0.16451878"
     inkscape:cx="489.30585"
     inkscape:cy="72.940002"
     inkscape:current-layer="svg3" />
  <path
     fill="#382c2c"
     d="M 0,106.78 V 89.12 h 14.66 c 1.3,12.17 6.67,17 15.83,17 8.9,0 14.53,-4.06 14.53,-14 0,-7.46 -3.14,-11.65 -13.22,-14.27 L 22.38,75.37 C 8.51,71.71 0.39,64.78 0.39,48.55 c 0,-19.37 12.7,-28.79 32.06,-28.79 14.4,0 23.17,4.06 27.48,6.28 V 45.01 H 45.41 c -1,-9.95 -4.32,-16.49 -14.53,-16.49 -8.24,0 -11.91,4.71 -11.91,12 0.03,6.49 2.75,10.91 11.78,13 l 8.9,2.1 c 15.05,3.53 25,12.3 25,28.92 0,19.23 -12.56,29.7 -35.07,29.7 C 14.13,114.24 6,110.32 0,106.78 Z m 132.56,-9.16 3.27,5.63 c -7.33,7.33 -16.1,10.86 -28.27,10.86 -20.68,0 -32.71,-12.95 -32.71,-35.46 0,-22.25 13,-35.07 32.58,-35.07 21.46,0 29.57,12.43 29.57,32.43 v 6.15 H 97.75 c 0.52,13.87 5.1,19.76 17.4,19.76 a 38.39,38.39 0 0 0 17.41,-4.3 z m -34.68,-25 h 18.19 c 0,-15.7 -2.23,-20.41 -8.38,-20.41 -6.15,0 -8.9,4.72 -9.81,20.42 z m 104.17,39.79 h -56 v -8.24 l 33.1,-50.25 h -10.6 c -8.89,0 -10.86,2.09 -12.3,11.9 h -8.37 V 45.28 h 55.88 v 7.73 l -33.9,50.9 h 9.56 c 10.73,0 13.08,-0.52 16.88,-11.51 h 8.11 z m 80.04,-15.4 c 0,7.46 1.31,9.16 7.59,9.16 v 6.28 h -36.51 v -6.28 c 6.41,0 7.72,-1.7 7.72,-9 v -28 c 0,-8 -3.14,-10.6 -8.51,-10.6 a 20.09,20.09 0 0 0 -12,4.18 V 97.1 c 0,7.33 1.31,9 7.72,9 v 6.28 h -36.68 v -6.28 c 6.42,0 7.73,-1.7 7.73,-9.16 V 66.09 c 0,-9.56 -1.18,-10.87 -7.46,-11.13 v -6.15 l 22.11,-5.23 h 2 a 28.11,28.11 0 0 1 4.06,11.91 c 5.63,-6.55 12.69,-11.78 23,-11.78 10.73,0 19.24,6.28 19.24,20.28 z m 79.29,6.76 v 5.89 c -2.87,1.83 -8.11,3.54 -14.39,3.54 -7.85,0 -12.69,-3.54 -13.87,-9 -2.1,4.84 -7.72,9.94 -18.19,9.94 -11.52,0 -20.81,-5.63 -20.81,-19.37 0,-15.44 11.13,-22.11 31.67,-22.11 1.57,0 5.1,0.13 6.81,0.26 v -6 c 0,-9.81 -2.49,-14 -8.9,-14 -6.68,0 -8.51,4.84 -9.43,12 h -15.7 V 51.01 a 60.64,60.64 0 0 1 29.05,-7.46 c 15.18,0 26.17,6.67 26.17,22 0,3.93 -0.52,14.79 -0.52,26.7 0,9.82 1.57,11.39 8.11,11.52 z M 327.75,80.48 c -7.59,0 -11.9,3.8 -11.9,11.39 0,6.93 2.74,9.16 7.06,9.16 a 12.84,12.84 0 0 0 9,-3.93 L 332.3,80.48 Z M 456.12,43.71 c 10.6,0 19.11,6.28 19.11,20.28 V 97.1 c 0,7.46 1.31,9 7.59,9.16 v 6.15 H 447 v -6.15 c 6.28,0 7.07,-1.7 7.07,-9 V 69.1 c 0,-8 -3,-10.6 -7.85,-10.6 -4.85,0 -8.12,2 -11,3.92 v 34.81 c 0,7.33 0.78,8.9 6.93,9 v 6.15 h -35.2 v -6.15 c 6.41,0 7.07,-1.7 7.07,-9 V 69.1 c 0,-8 -3,-10.6 -7.72,-10.6 -5,0 -8.25,2.09 -11.26,4 v 34.73 c 0,7.33 0.66,9 7.07,9 v 6.15 h -36 v -6.15 c 6.41,-0.13 7.72,-1.7 7.72,-9.16 v -31 c 0,-9.56 -1.17,-10.87 -7.46,-11.13 v -6.13 l 22.12,-5.23 h 2 a 27.84,27.84 0 0 1 3.8,11.51 c 5.62,-7.06 12.3,-11.38 21.85,-11.38 a 18.27,18.27 0 0 1 17.4,11.78 c 5.57,-7.2 13.03,-11.78 22.58,-11.78 z m 86.23,59.41 h 16 c 10.08,0 13.35,-4.32 16,-16.1 H 585 l -1.44,25.39 h -66.21 v -7.33 l 42.93,-74.72 h -14.53 c -8.77,0 -11.38,4.58 -14,14.79 h -11.12 l 1,-23.82 h 63.21 v 7.33 z m 96.83,-59.41 c 15.84,0 26.3,10.86 26.3,34.68 0,25.51 -13.34,35.59 -31.14,35.59 -5.37,0 -10.6,-1.44 -14,-5.5 v 14.14 c 0,7.46 1.31,9.16 7.85,9.16 v 6.28 h -36.77 v -6.28 c 6.41,0 7.72,-1.7 7.72,-9.16 V 66.09 c 0,-9.56 -1.18,-10.87 -7.46,-11.13 v -6.15 l 22.11,-5.23 h 2 a 26.63,26.63 0 0 1 3.79,11.12 22.12,22.12 0 0 1 19.6,-10.99 z m -7.85,14 a 15.09,15.09 0 0 0 -11,4.45 V 98.8 c 2.75,3.14 6.28,4.19 10.07,4.19 7.46,0 12.57,-4.45 12.57,-22.25 C 643,62.68 638.53,57.71 631.33,57.71 Z m 89.9,-14.13 a 15.6,15.6 0 0 1 5.1,0.91 l -3.93,21.33 a 23.72,23.72 0 0 0 -7.85,-1.17 c -9.81,0 -12.3,3 -12.3,12.56 v 19.8 c 0,7.46 1.57,9.16 10.21,9.16 v 6.28 h -39.13 v -6.28 c 6.41,0 7.72,-1.7 7.72,-9.16 V 66.09 c 0,-9.56 -1.18,-10.87 -7.46,-11.13 v -6.15 l 22.12,-5.23 h 2 a 40.37,40.37 0 0 1 4.45,17.14 C 705,48.94 714,43.58 721.23,43.58 Z m 75.63,60.19 v 5.89 c -2.88,1.83 -8.12,3.54 -14.4,3.54 -7.85,0 -12.69,-3.54 -13.87,-9 -2.09,4.84 -7.72,9.94 -18.19,9.94 -11.51,0 -20.8,-5.63 -20.8,-19.37 0,-15.44 11.12,-22.11 31.66,-22.11 1.57,0 5.11,0.13 6.81,0.26 v -6 c 0,-9.81 -2.49,-14 -8.9,-14 -6.67,0 -8.51,4.84 -9.42,12 H 734 V 51.01 a 60.66,60.66 0 0 1 29.06,-7.46 c 15.17,0 26.17,6.67 26.17,22 0,3.93 -0.53,14.79 -0.53,26.7 0.04,9.82 1.61,11.39 8.16,11.52 z M 746.57,31.62 769.91,5.2 781.58,20.49 750.8,36.17 Z m 16.66,48.86 c -7.59,0 -11.91,3.8 -11.91,11.39 0,6.93 2.75,9.16 7.06,9.16 a 12.84,12.84 0 0 0 9,-3.93 l 0.4,-16.62 z m 77.99,-35.2 v 6.41 c 5.23,0 7.59,1.44 7.59,4.58 a 10.21,10.21 0 0 1 -0.53,3.14 l -7.85,24.87 a 81.48,81.48 0 0 0 -2.62,9.94 H 837 a 54.26,54.26 0 0 0 -2.36,-9.94 l -8.5,-25 a 7.78,7.78 0 0 1 -0.79,-3.14 c 0,-2.75 2,-4.45 7.33,-4.45 v -6.41 h -37 v 6.41 c 4.32,0.66 5.76,1.7 8.11,7.85 l 20.68,53.52 H 841 l 19.37,-53.52 c 2.23,-6.15 4.32,-7.85 8.77,-7.85 v -6.41 z"
     id="path1" />
  <path
     fill="#382c2c"
     d="m 914.89,45.28 v 6.41 c 5.88,0.26 8,0.79 8,3.53 a 8.75,8.75 0 0 1 -0.53,2.88 l -8.63,28.4 c -1.31,4.06 -2.49,8.51 -2.49,9.55 h -0.78 a 82,82 0 0 0 -2.1,-9.81 l -9,-28.14 a 11.38,11.38 0 0 1 -0.65,-3 c 0,-2.22 1.83,-3.14 7.72,-3.4 v -6.42 h -37.34 v 6.41 c 4.28,0 6.14,2.1 8.37,8.12 l 10.08,27.61 c 4.58,12.69 6.15,17.66 7.85,24.47 l 8.24,-0.66 c -4.71,9.56 -14.79,12.7 -26.56,14.66 l 7.33,13.48 c 16.22,-2.23 24.73,-12.56 30.35,-27.88 L 934,59.54 c 2.23,-6.15 3.8,-7.19 9,-7.85 v -6.41 z"
     id="path2" />
  <path
     fill="#f0c8c8"
     d="M 984.41,145.88 H 970.08 V 0 h 14.33 z"
     id="path3" />
</svg>
