<?xml version="1.0" encoding="UTF-8"?>
<svg id="svg29" width="100" height="100" clip-rule="evenodd" fill-rule="evenodd" stroke-linejoin="round" stroke-miterlimit="1.4142" version="1.1" viewBox="0 0 100 100" xml:space="preserve" xmlns="http://www.w3.org/2000/svg">
            
            
            
            
            <rect id="rect277" width="100" height="100" fill="#ffeb3b" stroke-width="1.0217"/><g id="g239" transform="translate(0 28.259)"><g id="g11" transform="translate(1.25 -27.009)">
                <path id="path9" d="m9.78 35.52 0.405 7.335c0 1.53-0.225 2.745-0.675 3.645s-1.215 1.575-2.295 2.025c1.14 0.39 1.92 0.983 2.34 1.777 0.42 0.795 0.63 2.018 0.63 3.668l-0.495 7.92c0 1.17 0.142 2.025 0.427 2.565 0.286 0.54 0.803 0.81 1.553 0.81s1.425-0.075 2.025-0.225l0.45 3.42c-1.26 0.27-2.445 0.405-3.555 0.405-1.83 0-3.247-0.51-4.253-1.53-1.005-1.02-1.507-2.415-1.507-4.185l0.495-8.595c0-1.26-0.173-2.265-0.518-3.015-0.344-0.75-1.117-1.2-2.317-1.35v-3.33c1.23-0.15 2.018-0.585 2.362-1.305 0.345-0.72 0.518-1.83 0.518-3.33l-0.36-7.605c0-1.83 0.48-3.255 1.44-4.275s2.37-1.53 4.23-1.53c1.2 0 2.4 0.15 3.6 0.45l-0.45 3.33c-0.84-0.15-1.44-0.225-1.8-0.225-0.93 0-1.537 0.232-1.823 0.697-0.285 0.466-0.427 1.283-0.427 2.453z" fill="currentColor" fill-rule="nonzero"/>
            </g><g id="g15" transform="translate(1.25 -27.009)">
                <path id="path13" d="m20.175 56.13v-13.815h-3.87v-3.78h3.87v-1.71c0-2.94 0.675-5.055 2.025-6.345 1.26-1.23 3.105-1.845 5.535-1.845s4.59 0.525 6.48 1.575l-1.305 3.6c-1.44-0.75-2.79-1.125-4.05-1.125s-2.13 0.308-2.61 0.922c-0.48 0.615-0.72 1.553-0.72 2.813v2.115h6.66v3.78h-6.66v15.075l3.78 0.18v3.6h-11.925v-3.42l1.485-0.135c0.45-0.06 0.78-0.187 0.99-0.383 0.21-0.195 0.315-0.562 0.315-1.102z" fill="currentColor" fill-rule="nonzero"/>
            </g><g id="g19" transform="translate(1.25 -27.009)">
                <path id="path17" d="m46.86 56.4-2.745-3.6-3.735 4.635 2.115 0.135v3.6h-9.36v-3.555l1.395-0.135c0.69-0.09 1.29-0.45 1.8-1.08l5.175-6.48-5.535-7.65-2.295-0.27v-3.465h10.485v3.555l-1.305 0.09c-0.36 0.03-0.592 0.165-0.697 0.405-0.106 0.24-0.053 0.495 0.157 0.765l2.565 3.42 3.465-4.5-1.845-0.135v-3.6h9.135v3.51l-1.35 0.09c-0.63 0.03-1.23 0.405-1.8 1.125l-4.95 6.255 5.895 7.83 2.295 0.27v3.555h-10.71v-3.555l1.395-0.09c0.39-0.03 0.623-0.158 0.697-0.383 0.075-0.224-7e-3 -0.472-0.247-0.742z" fill="currentColor" fill-rule="nonzero"/>
            </g><g id="g23" transform="translate(1.25 -27.009)">
                <path id="path21" d="m71.7 38.535h9.495v3.51l-1.395 0.09c-0.6 0.06-1.005 0.42-1.215 1.08l-5.805 17.955h-6.885l-6.3-17.91c-0.15-0.42-0.308-0.705-0.473-0.855-0.164-0.15-0.442-0.24-0.832-0.27l-1.305-0.09v-3.51h10.575v3.6l-2.745 0.135 4.635 14.805h0.09l4.5-14.805-2.34-0.135z" fill="currentColor" fill-rule="nonzero"/>
            </g><g id="g27" transform="translate(1.25 -27.009)">
                <path id="path25" d="m87.81 61.89-0.495-7.92c0-1.65 0.21-2.873 0.63-3.668 0.42-0.794 1.2-1.387 2.34-1.777-1.08-0.45-1.845-1.125-2.295-2.025s-0.675-2.115-0.675-3.645l0.405-7.335c0-1.17-0.142-1.987-0.427-2.453-0.286-0.465-0.893-0.697-1.823-0.697-0.36 0-0.96 0.075-1.8 0.225l-0.45-3.33c1.2-0.3 2.4-0.45 3.6-0.45 1.86 0 3.27 0.51 4.23 1.53s1.44 2.445 1.44 4.275l-0.36 7.605c0 1.5 0.173 2.61 0.518 3.33 0.344 0.72 1.132 1.155 2.362 1.305v3.33c-1.2 0.15-1.973 0.6-2.317 1.35-0.345 0.75-0.518 1.755-0.518 3.015l0.495 8.595c0 1.77-0.502 3.165-1.507 4.185-1.006 1.02-2.423 1.53-4.253 1.53-1.11 0-2.295-0.135-3.555-0.405l0.45-3.42c0.6 0.15 1.275 0.225 2.025 0.225s1.267-0.27 1.553-0.81c0.285-0.54 0.427-1.395 0.427-2.565z" fill="currentColor" fill-rule="nonzero"/>
            </g></g>
          </svg>
