<?xml version="1.0" encoding="UTF-8"?>
<svg id="svg830" width="3081.2" height="942.64" version="1.1" viewBox="0 0 3081.2 942.64" xmlns="http://www.w3.org/2000/svg">
 <path id="path824" d="m1658.2 663.64h90v-330h-90zm90-455h-90v73h90zm74 455h90v-192c0-64 44-75 62-75 57 0 55 43 55 82v185h90v-184c0-41 10-83 61-83s55 36 55 80v187h91v-221c0-85-51-118-121-118a120 120 0 0 0-99 55 98 98 0 0 0-97-55 119 119 0 0 0-100 54h-1v-45h-86zm595 0h90v-270h63v-60h-63v-19c0-28 11-38 35-38a300 300 0 0 1 33 2v-68l-49-2c-74 0-111 42-111 100v24h-52v61h54zm501-330h-90v172c0 67-21 94-70 94-42 0-58-27-58-81v-185h-91v203c0 82 25 136 121 136a117 117 0 0 0 100-55h2v46h86zm72 330h91v-455h-91zm-1638-449h101l168 449h-102l-34-100h-168l-35 100h-100zm-9 275h116l-57-164h-1zm-1201-353a462.19 462.19 0 0 0 640 667l150 139v-479a462 462 0 0 0-790-327z" fill="#35383c"/>
 <circle id="circle826" cx="465.19" cy="459.64" r="316" fill="#fff"/>
 <circle id="circle828" cx="465.19" cy="459.64" r="157" fill="#e33e11"/>
</svg>
