<svg width="512" height="141" viewBox="0 0 512 141" fill="none" xmlns="http://www.w3.org/2000/svg">
<g clip-path="url(#clip0_267_4771)">
<path d="M80.7834 0H138.731C139.91 0 140.866 0.955572 140.866 2.13433V90.6935C140.866 92.8147 138.107 93.6371 136.945 91.8621L78.9974 3.30296C78.0686 1.88346 79.087 0 80.7834 0Z" fill="#246DFF"/>
<path d="M60.0826 0H2.13433C0.955572 0 0 0.955572 0 2.13433V90.6935C0 92.8147 2.75884 93.6371 3.92029 91.8621L61.8686 3.30296C62.7975 1.88346 61.779 0 60.0826 0Z" fill="#20A34E"/>
<path d="M69.4405 70.9032L3.61107 137.228C2.27427 138.575 3.22828 140.866 5.12591 140.866H135.794C137.684 140.866 138.642 138.591 137.321 137.239L72.4815 70.9148C71.6487 70.0629 70.2797 70.0577 69.4405 70.9032Z" fill="#F86606"/>
<path d="M452.793 19.3785H428.135C420.42 19.3785 417.114 23.2354 417.114 30.2607V37.0107L453.041 37.0118L473.566 84.3995L494.093 37.0118H512.001L469.02 136.059H451.387L464.612 105.477L440.029 51.8885H417.114V106.716H399.482V51.8885H380.333V37.0107H399.482V26.8174C399.482 13.3173 406.92 5.32715 422.762 5.32715H452.793V19.3785Z" fill="#1F2123"/>
<path fill-rule="evenodd" clip-rule="evenodd" d="M312.456 35.4971C330.639 35.4973 345.517 49.1355 345.517 71.8651C345.517 94.7323 330.639 108.232 312.456 108.232C297.302 108.232 289.725 98.8649 288.348 96.1097V135.922H270.99V37.0124H288.485V48.0331C289.725 45.4158 297.302 35.4971 312.456 35.4971ZM307.909 50.9261C295.924 50.9264 288.21 59.8804 288.21 71.8651C288.21 83.7118 295.924 92.8038 307.909 92.804C320.031 92.804 327.746 83.712 327.746 71.8651C327.746 59.8803 320.031 50.9261 307.909 50.9261Z" fill="#1F2123"/>
<path fill-rule="evenodd" clip-rule="evenodd" d="M225.259 35.2207C246.886 35.2209 258.871 46.5167 258.871 63.0472V86.6041C258.871 90.7366 260.386 92.6648 264.381 92.9403V107.129H258.871C250.193 106.991 244.544 103.685 242.616 97.4862C239.172 102.445 232.009 108.232 220.024 108.232C203.631 108.232 191.232 98.864 191.232 84.675C191.233 70.6241 201.84 63.0473 219.059 63.0472H241.927C241.927 54.6444 235.452 49.2722 225.259 49.2721C215.616 49.2721 211.758 54.5063 210.794 56.2972H193.023C194.401 48.8583 203.356 35.2207 225.259 35.2207ZM221.952 75.032C213.824 75.032 208.589 78.0631 208.589 84.3999C208.59 91.1499 214.927 95.1445 223.743 95.1445C233.662 95.1443 241.927 90.1851 241.927 80.9556V75.032H221.952Z" fill="#1F2123"/>
<path d="M371.942 106.716H354.31V37.0117H371.942V106.716Z" fill="#1F2123"/>
<path d="M372.218 25.854H353.896V4.91504H372.218V25.854Z" fill="#1F2123"/>
</g>
<defs>
<clipPath id="clip0_267_4771">
<rect width="512" height="141" fill="white"/>
</clipPath>
</defs>
</svg>
