<?xml version="1.0" encoding="UTF-8"?>
<svg id="Sheet-9" width="1260.7" height="186.87" version="1.1" viewBox="0 0 1260.7 186.87" xmlns="http://www.w3.org/2000/svg" xmlns:cc="http://creativecommons.org/ns#" xmlns:dc="http://purl.org/dc/elements/1.1/" xmlns:rdf="http://www.w3.org/1999/02/22-rdf-syntax-ns#" xmlns:xlink="http://www.w3.org/1999/xlink">
 <defs id="defs832">
  <style id="style824">.cls-1{fill:#330229;}.cls-2{fill:url(#New_Gradient_Swatch_copy_5);}.cls-3{fill:url(#New_Gradient_Swatch_copy_5-2);}</style>
  <linearGradient id="New_Gradient_Swatch_copy_5" x1="105.57" x2="302.74" y1="120.76" y2="277.52" gradientUnits="userSpaceOnUse">
   <stop id="stop826" stop-color="#64519d" offset="0"/>
   <stop id="stop828" stop-color="#d30b6c" offset="1"/>
  </linearGradient>
  <linearGradient id="New_Gradient_Swatch_copy_5-2" x1="148.33" x2="345.49" y1="66.992" y2="223.75" gradientTransform="translate(-86.249 -86.249)" xlink:href="#New_Gradient_Swatch_copy_5"/>
  <linearGradient id="linearGradient941" x1="105.57" x2="302.74" y1="120.76" y2="277.52" gradientTransform="translate(-86.249 -86.249)" gradientUnits="userSpaceOnUse" xlink:href="#New_Gradient_Swatch_copy_5"/>
 </defs>
 <title id="title834">ataccama-full-horizontal</title>
 <path id="path836" class="cls-1" d="m400.74 40.102h27.5v106.59h-27.5v-12.578q-12.366 15.564-34.748 15.562-21.32 0-36.56-16.308-15.244-16.308-15.242-39.971 0-23.663 15.242-39.971 15.239-16.308 36.56-16.308 22.384 0 34.748 15.562zm-50.737 74.933q8.3141 8.4242 21.105 8.4209 12.791 0 21.212-8.4209 8.4189-8.4189 8.4205-21.638 0-13.216-8.4205-21.638-8.424-8.4189-21.212-8.4205-12.791 0-21.105 8.4205-8.3141 8.4243-8.314 21.638-3e-5 13.22 8.314 21.638z"/>
 <path id="path838" class="cls-1" d="m508.85 66.537h-24.089v44.342q0 5.546 2.7715 8.1007 2.7679 2.5583 8.1009 2.878a118.84 118.84 0 0 0 13.217-0.10648v24.942q-28.355 3.1977-39.971-5.3296-11.621-8.524-11.618-30.485v-44.342h-18.547v-26.435h18.547v-21.531l27.5-8.314v29.845h24.089z"/>
 <path id="path840" class="cls-1" d="m600.57 40.102h27.5v106.59h-27.5v-12.578q-12.366 15.564-34.748 15.562-21.32 0-36.56-16.308-15.244-16.308-15.242-39.971 0-23.663 15.242-39.971 15.239-16.308 36.56-16.308 22.384 0 34.748 15.562zm-50.737 74.933q8.3141 8.4242 21.105 8.4209 12.791 0 21.212-8.4209 8.4189-8.4189 8.4205-21.638 0-13.216-8.4205-21.638-8.424-8.4189-21.212-8.4205-12.791 0-21.105 8.4205-8.3141 8.4243-8.314 21.638-3e-5 13.22 8.314 21.638z"/>
 <path id="path842" class="cls-1" d="m694.05 149.68q-24.093 0-40.185-16.202-16.098-16.198-16.095-40.078 0-23.873 16.095-40.078 16.094-16.198 40.185-16.202a55.255 55.255 0 0 1 28.353 7.4614 49.635 49.635 0 0 1 19.399 20.039l-23.663 13.857a24.144 24.144 0 0 0-9.6998-10.446 28.196 28.196 0 0 0-14.603-3.8374q-12.366 0-20.465 8.2076-8.1043 8.2088-8.1009 20.998 0 12.581 8.1009 20.785 8.0992 8.2088 20.465 8.2075a29.225 29.225 0 0 0 14.816-3.7309 23.485 23.485 0 0 0 9.6998-10.339l23.876 13.643a53.362 53.362 0 0 1-19.826 20.146 54.668 54.668 0 0 1-28.353 7.5678z"/>
 <path id="path844" class="cls-1" d="m801.73 149.68q-24.093 0-40.185-16.202-16.098-16.198-16.095-40.078 0-23.873 16.095-40.078 16.094-16.198 40.185-16.202a55.255 55.255 0 0 1 28.353 7.4614 49.635 49.635 0 0 1 19.399 20.039l-23.663 13.857a24.144 24.144 0 0 0-9.6998-10.446 28.196 28.196 0 0 0-14.603-3.8374q-12.366 0-20.465 8.2076-8.1043 8.2088-8.1009 20.998 0 12.581 8.1009 20.785 8.0992 8.2088 20.465 8.2075a29.225 29.225 0 0 0 14.816-3.7309 23.485 23.485 0 0 0 9.6998-10.339l23.876 13.643a53.361 53.361 0 0 1-19.826 20.146 54.668 54.668 0 0 1-28.353 7.5679z"/>
 <path id="path846" class="cls-1" d="m940.05 40.102h27.5v106.59h-27.5v-12.578q-12.366 15.564-34.749 15.562-21.32 0-36.56-16.308-15.244-16.308-15.242-39.971 0-23.663 15.242-39.971 15.239-16.308 36.56-16.308 22.384 0 34.749 15.562zm-50.737 74.933q8.3141 8.4242 21.105 8.4209 12.791 0 21.211-8.4209 8.4189-8.4189 8.4209-21.638 0-13.216-8.4209-21.638-8.4237-8.4189-21.211-8.4205-12.791 0-21.105 8.4205-8.3141 8.4243-8.314 21.638-3e-5 13.22 8.314 21.638z"/>
 <path id="path848" class="cls-1" d="m1097.6 37.118q18.332 0 29.312 11.938 10.977 11.941 10.979 31.977v65.66h-27.501v-63.741q0-9.5933-4.69-14.923-4.6916-5.3262-13.217-5.3296-9.3831 0-14.603 6.1822-5.226 6.1854-5.2228 17.907v59.904h-27.501v-63.741q0-9.5933-4.69-14.923-4.6915-5.3262-13.217-5.3296-9.1687 0-14.603 6.1822-5.4361 6.1854-5.4361 17.907v59.904h-27.5v-106.59h27.5v11.299q9.5933-14.28 29.632-14.283 19.611 0 28.993 15.349 10.657-15.349 31.764-15.349z"/>
 <path id="path850" class="cls-1" d="m1233.2 40.102h27.5v106.59h-27.5v-12.578q-12.366 15.564-34.749 15.562-21.32 0-36.56-16.308-15.244-16.308-15.242-39.971 0-23.663 15.242-39.971 15.239-16.308 36.56-16.308 22.384 0 34.749 15.562zm-50.737 74.933q8.3138 8.4242 21.105 8.4209 12.791 0 21.212-8.4209 8.4189-8.4189 8.4209-21.638 0-13.216-8.4209-21.638-8.4237-8.4189-21.212-8.4205-12.79 0-21.105 8.4205-8.3139 8.4243-8.314 21.638-1e-4 13.22 8.314 21.638z"/>
 <path id="path852" class="cls-2" d="m159.66 159.92q-27.211 26.953-66.227 26.953-39.022 0-66.227-26.953-27.211-26.953-27.209-66.484 0-39.527 27.209-66.484 27.206-26.953 66.227-26.953 39.015 0 66.227 26.953 27.205 26.953 27.209 66.484 0 39.533-27.209 66.484zm-103.58-27.98q15.017 14.89 37.349 14.888 22.332 0 37.349-14.888 15.017-14.884 15.017-38.504 0-23.614-15.017-38.504-15.017-14.884-37.349-14.888-22.332 0-37.349 14.888-15.017 14.89-15.017 38.504 0 23.62 15.017 38.504z" fill="url(#linearGradient941)"/>
 <rect id="rect854" class="cls-3" x="183.28" y="3.5938" width="41.071" height="179.69" fill="url(#New_Gradient_Swatch_copy_5-2)"/>
 <metadata id="metadata939">
  <rdf:RDF>
   <cc:Work rdf:about="">
    <dc:title>ataccama-full-horizontal</dc:title>
   </cc:Work>
  </rdf:RDF>
 </metadata>
</svg>
