<?xml version="1.0" encoding="UTF-8"?>
<svg width="305" height="90" viewBox="0 0 305 90" xmlns="http://www.w3.org/2000/svg">
 <path d="m98.161 45.352c0-12.922 9.8791-21.642 22.947-21.642 10.942 0 16.444 6.3982 18.945 12.17l-10.879 5.0809c-1.0629-3.2618-4.314-6.0845-8.0654-6.0845-6.0652 0-10.13 4.6418-10.13 10.476 0 5.8336 4.0645 10.476 10.13 10.476 3.7513 0 7.0025-2.8233 8.0654-6.0851l10.879 5.0187c-2.4384 5.5827-8.0029 12.232-18.945 12.232-13.068 0-22.947-8.7818-22.947-21.641zm74.527-0.062727c0-5.646-3.2512-9.8487-10.004-9.8487h-6.0647v19.76h6.0021c6.3153 0 10.067-4.6418 10.067-9.9109zm-28.699 20.952v-41.841h18.632c13.131 0 22.884 7.5273 22.884 20.889 0 13.361-9.7535 20.952-22.822 20.952h-18.695zm74.027 0-15.381-21.203v21.203h-12.63v-41.841h13.005l14.506 19.823v-19.823h12.63v41.841h-12.13zm23.007 0 13.193-30.801h-19.571v-11.041h34.076v8.7824l-13.88 33.059h-13.818zm36.103 0 13.193-30.801h-19.57v-11.041h34.076v8.7824l-13.88 33.059h-13.818zm-239.08-66.242c-21.014 0-38.048 17.195-38.048 38.406 0 21.211 38.048 51.208 38.048 51.208s38.049-29.997 38.049-51.208c0-21.211-17.035-38.406-38.049-38.406" fill="#04151F"/>
 <path d="m38.048 13.715c-12.81 0-23.193 10.481-23.193 23.412 0 12.929 10.383 23.412 23.193 23.412 12.81 0 23.194-10.483 23.194-23.412 0-12.931-10.384-23.412-23.194-23.412" fill="#FFE115"/>
 <path d="m38.047 26.564c-5.7777 0-10.462 4.7296-10.462 10.562s4.6843 10.562 10.462 10.562c5.7786 0 10.465-4.7292 10.465-10.562s-4.686-10.562-10.465-10.562" fill="#04151F"/>
</svg>
