<?xml version="1.0" encoding="UTF-8"?>
<!-- Created with Inkscape (http://www.inkscape.org/) -->
<svg id="svg1" width="2645.8mm" height="656.45mm" version="1.1" viewBox="0 0 2645.8 656.45" xmlns="http://www.w3.org/2000/svg">
 <g id="layer1" transform="translate(-1057.5 -610.13)" stroke-width=".26458">
  <path id="path2" d="m1057.5 610.13h2645.8v647.17h-2645.8z" fill="#fff829"/>
  <path id="path4" d="m1363.1 610.39c-90.752 0-164.31 20.902-220.66 62.971-56.621 41.804-84.931 104.25-84.931 187.59v155.05c0 84.931 27.781 148.17 83.079 189.44 55.298 40.746 129.38 61.119 222.51 61.119 71.967 0 132.56-12.435 181.5-37.042 43.921 24.606 99.483 37.042 166.42 37.042 42.333 0 80.169-5.0271 113.24-14.817 3.9687 3.4396 9.2604 5.5563 15.081 5.8209h173.3c12.7-0.2646 23.812-10.848 24.606-24.606v-80.433c11.377 20.638 26.723 38.894 45.773 54.769 48.683 39.423 111.12 59.267 187.06 59.267 64.294 0 117.21-11.377 158.75-34.131 47.625 22.754 106.89 34.131 178.06 34.131a521.76 521.76 0 0 0 101.34-8.9958h159.54c12.7-0.2646 23.812-10.848 24.606-24.606v-89.958c6.0854-10.319 10.848-20.902 14.288-32.015l78.846 130.97c6.6146 10.319 16.14 15.61 28.31 15.61h209.81c12.435-0.2646 23.812-10.848 24.606-24.606v-424.92c-0.2646-12.435-10.583-23.812-24.606-24.606h-224.37c-11.642 0-20.373 5.2917-26.458 15.61l-80.433 131.23v-295.28c0-12.435-10.583-23.812-24.606-24.606h-159.54c-6.6146 0.26459-12.7 3.175-17.198 7.6729-26.194-5.0271-54.24-7.6729-84.138-7.6729-83.344 0-150.81 19.315-202.41 58.208a183.62 183.62 0 0 0-72.496 109.8 369.62 369.62 0 0 0-137.58 5.0271h-28.575a209.55 209.55 0 0 0-142.08 56.621v-32.015c-0.2646-12.435-10.848-23.812-24.871-24.606h-159.54c-6.0854 0-11.642 2.6458-16.14 6.8792-33.338-10.583-70.644-15.875-112.18-15.875-17.462 0-34.131 1.0583-50.006 2.9104-7.6729-24.871-19.579-47.096-36.248-66.675-55.827-66.94-143.14-100.28-261.67-100.28zm1701.8 0c-12.435 0.26459-23.812 10.583-24.606 24.606v89.165c0.2646 12.435 10.583 23.812 24.606 24.606h154.25c12.435-0.26458 23.812-10.848 24.606-24.606v-89.165c-0.2646-12.435-10.848-23.812-24.606-24.606zm223.04 0c-12.435 0.26459-23.812 10.583-24.606 24.606v597.96c0 12.435 10.583 23.812 24.606 24.606h163.25c12.435-0.2646 23.812-10.848 24.606-24.606v-597.96c-0.2645-12.435-10.583-23.812-24.606-24.606zm227.54 0c-12.435 0.26459-23.812 10.583-24.606 24.606v597.96c0.2646 12.435 10.583 23.812 24.606 24.606h163.25c12.435-0.2646 23.812-10.848 24.606-24.606v-597.96c-0.2646-12.435-10.583-23.812-24.606-24.606zm-2153.4 177.8c34.131 0 56.885 16.404 68.527 49.212 3.4396 10.319 7.4083 17.198 11.906 20.902 4.7625 3.7042 11.906 5.5562 21.696 5.5562h21.696a197.91 197.91 0 0 0-39.158 125.68v26.194c-2.1167 0.7938-3.7042 1.8521-5.2917 2.9104-4.2333 3.7042-7.9375 10.583-10.848 20.902-10.848 32.808-33.867 49.212-68.527 49.212-44.979 0-67.469-24.606-67.469-73.819v-152.93c0-49.212 22.49-73.819 67.469-73.819zm1244.1 0c19.315 0 34.925 5.0271 46.567 15.346 9.525 8.7312 19.844 13.758 30.956 15.081v37.042l-20.108-2.9104c-38.894-4.7625-65.617-10.319-80.169-16.404-14.023-6.0854-21.167-13.494-21.167-22.754 0-16.933 14.552-25.4 43.921-25.4zm-335.23 113.77c24.342 0 36.512 18.256 36.512 54.769v3.7042h-73.025v-3.7042c0-36.512 12.171-54.769 36.512-54.769zm-559.86 18.256c15.081 0 25.929 4.4979 32.015 13.758 6.0854 8.9958 8.9958 25.135 8.9958 48.154v76.729c0 23.019-2.9104 39.158-8.9958 48.154-6.0854 9.2604-16.933 13.758-32.015 13.758-15.081 0-25.929-4.2333-32.015-12.7-6.0854-8.7313-8.9958-25.135-8.9958-49.212v-13.758a266.96 266.96 0 0 0 0-15.081v-47.89c0-23.019 2.9104-39.158 8.9958-48.154 6.0855-9.2604 16.933-13.758 32.015-13.758zm819.94 95.25 32.279 5.0271c45.508 6.0854 76.465 12.171 92.869 18.256 16.404 5.5562 24.606 13.758 24.606 24.606 0 16.933-22.754 25.4-68.262 25.4-27.252 0-48.948-6.0854-64.823-18.256-6.35-5.0271-12.435-8.9959-18.256-11.906 1.0583-2.9104 1.5875-5.8208 1.5875-8.9958zm-296.6 58.738h78.052c0.2646 11.112 1.323 21.96 3.7042 32.279-7.6729 2.1167-14.817 6.6146-21.431 13.229-9.7896 9.7895-17.992 14.817-24.606 14.817-23.812 0-35.719-18.521-35.719-55.827z" fill="#db3f02"/>
  <path id="path6" d="m1661.1 777.35c-55.562 6.35-102.39 23.812-140.49 52.652-13.494 10.054-24.871 21.431-34.66 33.867h164.31c5.5562 0 10.319-1.8521 13.758-5.5562 4.2333-4.2333 6.35-8.9958 6.35-14.552 0-23.812-3.175-46.038-9.2604-66.41zm-196.85 235.74c-7.1438 0-12.965 0.7937-17.462 2.6458v35.719c0 69.85 23.548 123.3 70.908 160.34 8.4667 6.6145 17.462 12.435 26.988 17.727a250.3 250.3 0 0 0 80.169-63.235 195.26 195.26 0 0 0 45.244-121.18v-15.081c-0.7937-3.9687-2.6458-7.4083-6.0854-10.319a16.669 16.669 0 0 0-13.758-6.6146zm359.04-222.78a26.194 26.194 0 0 0-8.4667 17.727v424.92c0.2646 7.1438 3.7042 14.288 9.525 18.785 30.692-8.9958 57.415-22.49 80.169-39.952 47.36-37.042 71.173-90.488 71.173-160.34v-61.913c0-69.321-24.606-122.5-73.819-159.54a259.82 259.82 0 0 0-78.581-39.688zm371.21-6.8792a254.79 254.79 0 0 0-109.54 53.975 200.29 200.29 0 0 0-73.819 161.13v43.921c0 42.069 8.7313 78.846 26.194 110.07v-135.73c1.3229-12.7 6.35-22.754 15.61-29.898 9.7896-7.9375 22.754-11.906 39.158-11.906h117.74a23.548 23.548 0 0 0 17.198-7.4083c5.0271-4.7625 7.4084-10.583 7.4084-17.198v-142.35c0-6.6146-2.3813-12.435-7.4084-17.198a23.812 23.812 0 0 0-17.198-7.4083zm137.58-5.0271c-2.9104 13.229-4.2333 26.988-4.2333 41.54 0 105.04 67.733 170.13 203.2 195.53-1.5875-68.792-23.548-125.68-66.675-170.92a220.93 220.93 0 0 0-132.29-66.146zm0.5292 274.11c-5.5563 0-10.319 2.1167-14.552 6.35a17.727 17.727 0 0 0-5.5563 13.494v1.8521h193.94a25.4 25.4 0 0 0 23.019-15.61c-8.4667-3.9687-16.14-6.0854-23.548-6.0854zm-5.8209 52.652c-3.7041 0-7.1437 0.5291-10.583 1.3229a175.42 175.42 0 0 0 74.612 103.45c11.642 8.4666 24.342 15.875 38.1 22.49 7.9375-4.2334 15.61-8.9959 22.754-14.288 44.979-32.015 67.469-62.971 67.469-92.869 0-13.494-6.6146-20.108-20.108-20.108zm364.33-487.1a26.194 26.194 0 0 0-7.4084 16.933v183.62l7.1438 0.52917h182.56c4.7625 0 8.9958-1.8521 12.7-5.5562 4.2333-4.2333 6.35-8.9958 6.35-14.552 0-44.185-26.723-86.783-80.169-127.53-34.131-26.194-74.348-43.921-121.18-53.446zm-7.4084 237.6v377.3c0.2646 12.171 10.054 23.283 23.812 24.606 47.096-9.2604 87.842-25.665 121.97-49.212a207.96 207.96 0 0 0 62.971-65.352v-56.092l14.288 23.812c5.5562-17.198 8.4667-35.454 8.4667-54.769 0-62.442-19.315-109.01-58.208-139.44-35.454-28.575-93.133-48.948-173.3-60.854zm376.77-72.231c-12.7 0.26458-23.812 10.848-24.606 24.606v424.92c0 12.435 10.583 23.812 24.606 24.606h144.99a21.167 21.167 0 0 0 15.346-6.6146c4.2333-4.2333 6.35-8.7313 6.35-13.494 0-5.5562-1.0583-10.054-3.7042-13.758l-147.64-227.01 124.88-177.54c3.175-4.2333 4.7625-9.2604 4.7625-14.552 0-5.5562-2.3813-10.319-6.6146-14.552a20.108 20.108 0 0 0-15.346-6.6146z" fill="#b33402" style="mix-blend-mode:multiply"/>
 </g>
</svg>
