<?xml version="1.0" encoding="UTF-8"?>
<svg id="svg883" width="249.38pt" height="50.852pt" version="1.2" viewBox="0 0 249.38 50.852" xmlns="http://www.w3.org/2000/svg" xmlns:cc="http://creativecommons.org/ns#" xmlns:dc="http://purl.org/dc/elements/1.1/" xmlns:rdf="http://www.w3.org/1999/02/22-rdf-syntax-ns#">
 <metadata id="metadata889">
  <rdf:RDF>
   <cc:Work rdf:about="">
    <dc:format>image/svg+xml</dc:format>
    <dc:type rdf:resource="http://purl.org/dc/dcmitype/StillImage"/>
    <dc:title/>
   </cc:Work>
  </rdf:RDF>
 </metadata>
 <g id="surface12562" transform="translate(-44.312 -36.574)">
  <path id="path862" d="m123.93 72.254c-1.7774 1.7773-4.2188 2.7031-6.5547 2.7031-5.1055 0-9.3633-3.6992-9.3633-9.293 0-5.625 4.0703-9.293 9.3633-9.293 2.3359 0 4.8516 0.96484 6.6641 2.7422l-0.73828 0.70312c-1.5547-1.6289-3.8125-2.3711-5.9609-2.3711-4.4062 0-8.2188 2.8516-8.2188 8.2188 0 5.2578 3.7774 8.2188 8.2539 8.2188 2.0742 0 4.2578-0.77734 5.8164-2.3672z" fill="#595c61"/>
  <path id="path864" d="m131.81 56.52v2l-0.10938 2.5156c0.88672-2.7734 3.5547-4.6641 6.5898-4.6641 1.1094 0 2.4062 0.26172 3.5547 0.89062l-0.48438 0.92578c-1-0.55469-2.1094-0.77734-3.0703-0.77734-3.6641 0.03516-6.4062 3.1445-6.4062 6.4766v10.922h-1.1484v-18.289z" fill="#595c61"/>
  <path id="path866" d="m161.8 71.367c-1.7383 2.4062-4.9609 3.5898-7.9219 3.5898-4.8477 0-9.1094-3.3672-9.1094-9.2539 0-5.5938 3.9258-9.4062 9.0703-9.4062 4.9258 0 9.8125 2.8516 9.1094 9.9219h-17.066c0.40625 5.2188 4.0703 7.6641 7.9961 7.6641 2.5898 0 5.625-1.1484 7.0703-3.1445zm0.14844-6.1836c0.14844-5.0742-3.0742-7.8125-8.1094-7.8125-4.293 0-7.625 2.8164-7.957 7.8125z" fill="#595c61"/>
  <path id="path868" d="m185.64 74.809v-2.332l0.21875-2.6289c-1.2578 3.5547-4.9609 5.2227-8.1445 5.1836-5.0352 0-9.2539-3.5547-9.2539-9.3672 0-5.7383 4.1484-9.3672 9.1797-9.3672 3.3711 0 7.2226 1.7773 8.2188 5.4062l-0.21875-2.9609v-2.2227h1.1094v18.289zm-16.07-9.1445c0 5.2188 3.7422 8.293 8.1836 8.293 5.5547 0 7.9219-3.9961 7.9219-8.4766 0-4.2969-2.7031-8.1094-8.0703-8.1094-4.4414 0-8.0352 3.1094-8.0352 8.293" fill="#595c61"/>
  <path id="path870" d="m198.26 50.895v5.625h6.5156v0.96484h-6.5156v11.883c0 2.6641 0.40625 4.6641 3.625 4.6641 0.92578 0 2.332-0.44141 3.2969-0.92578l0.48047 0.92578c-1.1094 0.59375-2.5898 1.0352-3.7031 1.0352-3.8477-0.03516-4.8125-2.1094-4.8125-5.6992v-11.883h-3.9961v-0.96484h3.9961v-5.5156z" fill="#595c61"/>
  <path id="path872" d="m212.36 50.34c0 1.332-1.9648 1.332-1.9648 0 0-1.2617 1.9648-1.2617 1.9648 0m-1.5938 24.469h1.1133v-18.289h-1.1133z" fill="#595c61"/>
  <path id="path874" d="m239.34 74.809h-1.9961l-2.9648-7.9961-2.2188-7.1094-2.2969 7.1445-2.9609 7.9609h-2l-6.5156-18.289h2l5.5156 16.18 5.5898-16.18h1.2969l5.5508 16.18 5.4805-16.18h2z" fill="#595c61"/>
  <path id="path876" d="m250.3 65.664c0-5.4805 4.1445-9.4375 9.293-9.4375 5.1445 0 9.7344 3.1445 9.0312 10.289h-16.473c0.36719 4.2969 3.6641 6.8125 7.4414 6.8125 2.4023 0 5.2188-0.96094 6.5898-2.7773l1.293 1.0391c-1.7773 2.332-4.9609 3.5156-7.8828 3.5156-5.1484 0-9.293-3.6289-9.293-9.4414m16.695-0.73828c-0.0391-4.5195-3-7.0352-7.4023-7.0352-3.7773 0-7.0352 2.5547-7.4414 7.0352z" fill="#595c61"/>
  <path id="path878" d="m276.91 48.895v11.625c1.4805-2.9648 4.4414-4.2969 7.5898-4.2969 5.1094 0 9.1836 3.4062 9.1836 9.4414 0 6.0742-4.0391 9.4414-9.1484 9.4414-3.1055 0-6.1055-1.5547-7.625-4.332v4.0352h-1.7773v-25.914zm0.0391 16.734c0 4.5508 3.1836 7.6992 7.4766 7.6992 4.1094 0 7.4766-2.5898 7.4766-7.6641 0-5.1445-3.3672-7.6992-7.4766-7.6992-4.2188 0-7.4766 3.1094-7.4766 7.6641" fill="#595c61"/>
  <path id="path880" d="m44.312 87.426h50.852v-50.852h-50.852zm16.688-41.223c2.4961-2.5625 5.5039-3.6523 9.0938-3.6523 6.2734 0 11.941 5.4141 11.941 12.199 0 2.0859-0.36719 3.9102-1.1562 5.5703h-2.4141l-1.0469 4.3789c-0.73047 0.60938-1.5 1.0977-2.2969 1.4805l0.01172 0.01172c-0.36328 0.17578-0.73828 0.32031-1.1133 0.44922h-0.0078c-0.125 0.04297-0.24609 0.08984-0.37109 0.125v-6.6172c1.9492-1.1602 3.0781-3.0977 3.0781-5.207 0-3.7773-3.2305-6.3398-6.9141-6.3398-3.8438 0-7.043 2.6289-7.043 6.375 0 2.1016 1.0312 3.9375 3.0781 5.1992v6.5586c-0.41797-0.13672-0.8125-0.30469-1.2031-0.48438-0.05469-0.02344-0.10938-0.05078-0.16406-0.07813-0.09375-0.04297-0.1875-0.08203-0.27734-0.125l0.0078-0.01172c-0.76172-0.37891-1.4727-0.82422-2.125-1.3359l-1.0312-4.3789h-2.4375c-0.75391-1.6133-1.1641-3.4062-1.1641-5.2812 0-3.2969 1.1523-6.4023 3.5547-8.8359m17.641 35.246h-5.3125l-3.5547-13.398h-0.06641l-3.5547 13.398h-5.4727l-6.1172-20.703h6.1484l3.168 13.457h0.06641l1.8281-7.0508c0.35547 0.12109 0.49609 0.16406 0.49609 0.16406l-0.01172-2.0352 1.1758-4.5352h4.6445l1.1367 4.4883-0.01172 2.082s0.14062-0.04297 0.5-0.16406l1.8008 7.1055h0.0625l3.2344-13.512h6.1172z" fill="#d9022b"/>
 </g>
</svg>
