<?xml version="1.0" encoding="UTF-8"?>
<svg id="svg151" width="180" height="20.653" version="1.1" viewBox="0 0 180 20.653" xmlns="http://www.w3.org/2000/svg" xmlns:cc="http://creativecommons.org/ns#" xmlns:dc="http://purl.org/dc/elements/1.1/" xmlns:rdf="http://www.w3.org/1999/02/22-rdf-syntax-ns#">
 <metadata id="metadata157">
  <rdf:RDF>
   <cc:Work rdf:about="">
    <dc:format>image/svg+xml</dc:format>
    <dc:type rdf:resource="http://purl.org/dc/dcmitype/StillImage"/>
    <dc:title/>
   </cc:Work>
  </rdf:RDF>
 </metadata>
 <path id="path133" d="m15.49 14.002a8.73 8.73 0 0 1-1 2.93 7.18 7.18 0 0 1-1.7 2.07 6.39 6.39 0 0 1-2.29 1.23 9.33 9.33 0 0 1-2.73 0.41 8.22 8.22 0 0 1-3.19-0.59 7.69 7.69 0 0 1-2.5-1.7 5.93 5.93 0 0 1-1.23-1.7 8.62 8.62 0 0 1-0.62-2 14.26 14.26 0 0 1-0.23-2.09v-2.24-2.23a11.52 11.52 0 0 1 0.23-2.09 8.23 8.23 0 0 1 0.62-2 5.61 5.61 0 0 1 1.23-1.71 7.69 7.69 0 0 1 2.5-1.7 8.22 8.22 0 0 1 3.19-0.59 8.55 8.55 0 0 1 2.73 0.41 6.39 6.39 0 0 1 2.29 1.23 7.24 7.24 0 0 1 1.72 2.08 8.73 8.73 0 0 1 1 2.93h-5.11a3.74 3.74 0 0 0-0.8-1.52 2.28 2.28 0 0 0-1.8-0.67 2.78 2.78 0 0 0-1.18 0.23 2.15 2.15 0 0 0-0.8 0.62 3.4 3.4 0 0 0-0.31 0.51 2.44 2.44 0 0 0-0.23 0.82 8.72 8.72 0 0 0-0.15 1.41c0 0.59-0.05 1.34-0.05 2.29 0 0.95 0 1.7 0.05 2.29a13.1 13.1 0 0 0 0.15 1.41 4.88 4.88 0 0 0 0.23 0.82c0.1 0.18 0.21 0.36 0.31 0.51a2 2 0 0 0 0.8 0.62 2.78 2.78 0 0 0 1.18 0.23 2.28 2.28 0 0 0 1.8-0.67 3.74 3.74 0 0 0 0.8-1.52h5.1z" fill="#010101"/>
 <path id="polygon135" d="m15.49 19.922v-3.79l7.92-11.76h-7.58v-4.37h13.68v3.79l-7.95 11.76h7.95v4.37z" fill="#010101"/>
 <path id="polygon137" d="m30.25 19.892v-19.89h14.01v4.37h-8.94v3.33h7.64v4.37h-7.64v3.48h8.94v4.37h-14.01z" fill="#010101"/>
 <path id="path139" d="m61.23 14.002a8.73 8.73 0 0 1-1 2.93 7.18 7.18 0 0 1-1.7 2.07 6.39 6.39 0 0 1-2.29 1.23 9.33 9.33 0 0 1-2.73 0.41 8.22 8.22 0 0 1-3.19-0.59 7.69 7.69 0 0 1-2.5-1.7 5.93 5.93 0 0 1-1.24-1.72 8.62 8.62 0 0 1-0.62-2 14.26 14.26 0 0 1-0.21-2.13v-2.24-2.24a11.52 11.52 0 0 1 0.25-2.02 8.23 8.23 0 0 1 0.62-2 5.61 5.61 0 0 1 1.24-1.72 7.69 7.69 0 0 1 2.5-1.7 8.22 8.22 0 0 1 3.15-0.58 8.55 8.55 0 0 1 2.73 0.41 6.39 6.39 0 0 1 2.29 1.23 7.24 7.24 0 0 1 1.72 2.08 8.73 8.73 0 0 1 1 2.93h-5.1a3.74 3.74 0 0 0-0.8-1.52 2.28 2.28 0 0 0-1.8-0.67 2.78 2.78 0 0 0-1.18 0.23 2.15 2.15 0 0 0-0.8 0.62 3.4 3.4 0 0 0-0.31 0.51 2.44 2.44 0 0 0-0.23 0.82 8.72 8.72 0 0 0-0.15 1.41c0 0.59-0.05 1.34-0.05 2.29 0 0.95 0 1.7 0.05 2.29a13.1 13.1 0 0 0 0.12 1.42 4.88 4.88 0 0 0 0.23 0.82c0.1 0.18 0.21 0.36 0.31 0.51a2 2 0 0 0 0.8 0.62 2.78 2.78 0 0 0 1.18 0.23 2.28 2.28 0 0 0 1.8-0.67 3.74 3.74 0 0 0 0.8-1.52h5.1z" fill="#010101"/>
 <path id="polygon141" d="m72.4 19.922v-7.89h-5.37v7.89h-5.06v-19.92h5.06v7.66h5.37v-7.66h5.06v19.92z" fill="#010101"/>
 <path id="path143" d="m95.16 14.002a8.73 8.73 0 0 1-1 2.93 7.18 7.18 0 0 1-1.7 2.07 6.39 6.39 0 0 1-2.29 1.23 9.33 9.33 0 0 1-2.73 0.41 8.22 8.22 0 0 1-3.19-0.59 7.69 7.69 0 0 1-2.5-1.7 5.93 5.93 0 0 1-1.24-1.72 8.62 8.62 0 0 1-0.62-2 14.26 14.26 0 0 1-0.21-2.13v-2.24-2.24a11.52 11.52 0 0 1 0.22-2.02 8.23 8.23 0 0 1 0.62-2 5.61 5.61 0 0 1 1.24-1.72 7.69 7.69 0 0 1 2.5-1.7 8.22 8.22 0 0 1 3.18-0.58 8.55 8.55 0 0 1 2.73 0.41 6.39 6.39 0 0 1 2.29 1.23 7.24 7.24 0 0 1 1.72 2.08 8.73 8.73 0 0 1 1 2.93h-5.1a3.74 3.74 0 0 0-0.8-1.52 2.28 2.28 0 0 0-1.8-0.67 2.78 2.78 0 0 0-1.18 0.23 2.15 2.15 0 0 0-0.8 0.62 3.4 3.4 0 0 0-0.31 0.51 2.44 2.44 0 0 0-0.23 0.82 8.72 8.72 0 0 0-0.15 1.41c0 0.59-0.05 1.34-0.05 2.29 0 0.95 0 1.7 0.05 2.29a13.1 13.1 0 0 0 0.15 1.41 4.88 4.88 0 0 0 0.23 0.82c0.1 0.18 0.21 0.36 0.31 0.51a2 2 0 0 0 0.8 0.62 2.78 2.78 0 0 0 1.18 0.23 2.28 2.28 0 0 0 1.8-0.67 3.74 3.74 0 0 0 0.8-1.52h5.1zm11.1 5.87-3.62-7.39h-1.71v7.39h-5v-19.87h8.07a7.42 7.42 0 0 1 3 0.55 6.71 6.71 0 0 1 2.21 1.45 6.08 6.08 0 0 1 1.34 2 6.27 6.27 0 0 1 0.45 2.39 5.38 5.38 0 0 1-0.31 1.85 6.94 6.94 0 0 1-0.78 1.5 6.4 6.4 0 0 1-1.06 1.13 7.79 7.79 0 0 1-1.19 0.75l4.45 8.29h-5.87zm-0.26-13.51a2 2 0 0 0-0.57-1.4 2.15 2.15 0 0 0-1.6-0.63h-2.83v4h2.84a2 2 0 0 0 1.6-0.63 1.86 1.86 0 0 0 0.56-1.34zm22.35 6.93a7.07 7.07 0 0 1-4.77 6.84 9 9 0 0 1-3 0.52 8.66 8.66 0 0 1-3-0.52 7.14 7.14 0 0 1-2.45-1.47 7 7 0 0 1-2.27-5.37v-13.29h5v13.17a3.14 3.14 0 0 0 0.7 2.22 2.54 2.54 0 0 0 2 0.77 2.7 2.7 0 0 0 2-0.77 3.07 3.07 0 0 0 0.72-2.22v-13.17h5v13.3z" fill="#010101"/>
 <path id="polygon145" d="m141.81 19.922-6.36-10.02v10.02h-4.88v-19.92h4.26l6.36 10.02v-10.02h4.88v19.92z" fill="#010101"/>
 <path id="path147" d="m163.77 14.002a8.73 8.73 0 0 1-1 2.93 7.18 7.18 0 0 1-1.7 2.07 6.39 6.39 0 0 1-2.29 1.23 9.33 9.33 0 0 1-2.73 0.41 8.22 8.22 0 0 1-3.19-0.59 7.69 7.69 0 0 1-2.5-1.7 5.93 5.93 0 0 1-1.24-1.72 8.62 8.62 0 0 1-0.62-2 14.26 14.26 0 0 1-0.21-2.13v-2.24-2.24a11.52 11.52 0 0 1 0.22-2.02 8.23 8.23 0 0 1 0.62-2 5.61 5.61 0 0 1 1.24-1.72 7.69 7.69 0 0 1 2.5-1.7 8.22 8.22 0 0 1 3.18-0.58 8.55 8.55 0 0 1 2.73 0.41 6.39 6.39 0 0 1 2.29 1.23 7.24 7.24 0 0 1 1.72 2.08 8.73 8.73 0 0 1 1 2.93h-5.1a3.74 3.74 0 0 0-0.8-1.52 2.28 2.28 0 0 0-1.8-0.67 2.78 2.78 0 0 0-1.18 0.23 2.15 2.15 0 0 0-0.8 0.62 3.4 3.4 0 0 0-0.31 0.51 2.44 2.44 0 0 0-0.23 0.82 8.72 8.72 0 0 0-0.15 1.41c0 0.59-0.05 1.34-0.05 2.29 0 0.95 0 1.7 0.05 2.29a13.1 13.1 0 0 0 0.15 1.41 4.88 4.88 0 0 0 0.23 0.82c0.1 0.18 0.21 0.36 0.31 0.51a2 2 0 0 0 0.8 0.62 2.78 2.78 0 0 0 1.18 0.23 2.28 2.28 0 0 0 1.8-0.67 3.74 3.74 0 0 0 0.8-1.52h5.1z" fill="#010101"/>
 <path id="polygon149" d="m174.94 19.922v-7.89h-5.37v7.89h-5.06v-19.92h5.06v7.66h5.37v-7.66h5.06v19.92z" fill="#010101"/>
</svg>
