<svg xmlns="http://www.w3.org/2000/svg" width="405" viewBox="0 0 405 304">
	<rect x="100.5" width="304.5" height="304.48" fill="#c72437"/>
	<polygon points="206.5 78.1 286.9 160.2 286.9 120.3 218.1 50.2 218.1 50.2 178.1 50.2 150.3 50.2 150.3 50.2 150.3 254.3 150.3 254.3 178.1 254.3 218.1 254.3 218.1 226.5 178.1 226.5 178.1 78.1 206.5 78.1" fill="#fff"/>
	<polygon points="299 226.4 218.6 144.3 218.6 184.1 287.4 254.3 287.4 254.3 327.4 254.3 355.2 254.3 355.3 254.3 355.3 50.1 355.2 50.1 327.4 50.1 287.4 50.1 287.4 78 327.4 78 327.4 226.4 299 226.4" fill="#fff"/>
	<path d="M17.8,276.5c0-25.2,13.9-33,28.7-33,16.4,0,29.3,9.1,29.3,33.1V302H68.2v-6.6H25.3v9.1H17.8v-28Zm7.5,6.4H68.2v-7c0-14.7-8-19-20.5-19-17.3,0-22.4,7.1-22.4,22.4v3.7Z" fill="#c72437"/>
	<path d="M68.2,233.5v-6.3H25.3v9H17.8V185.9H36.2v10.2l-10.9.6v18H42.6V190.5h7.8v24.2H68.2V193.6L57,192.9V182.7H75.8v50.8H68.2Z" fill="#c72437"/>
	<path d="M25.3,114.3l50.5,0.8,0.3,10.8L34,157.4v0.9l34.2-.5V144h7.6v29.1H68.2v-6.8l-42.9-.6v9.6H17.8V155.3l41.4-31.7v-0.9l-33.9.3V136H17.8V107.6h7.5v6.7Z" fill="#c72437"/>
	<path d="M25.3,78.8H68.2V68.7h7.6V97.8H68.2V91.2H25.3v9.1H17.8v-29h7.5v7.4ZM7.3,93.3L0.2,73.5l9-2.6,3.7,20.6Z" fill="#c72437"/>
	<path d="M25.3,61.4H17.8V33.4h7.5v6.3H42.7V34.9L25.3,20v6.3H17.8V1.2h7.5V8.9L44,26.6,68.2,5.4V0h7.6V26.5H68.2V20.9l-18,14.7v4.2h18v-7h7.6v26H68.2V52.1H25.3v9.3Z" fill="#c72437"/>
</svg>
