<?xml version="1.0" encoding="UTF-8" standalone="no"?>
<!-- Generator: Adobe Illustrator 18.1.0, SVG Export Plug-In . SVG Version: 6.00 Build 0)  -->

<svg
   version="1.1"
   id="Layer_1"
   x="0px"
   y="0px"
   viewBox="58.8 507.2 726.5 195.035"
   enable-background="new 58.8 507.2 726.5 195.1"
   xml:space="preserve"
   sodipodi:docname="djangogirls.svg"
   width="726.5"
   height="195.035"
   inkscape:version="1.3.2 (091e20e, 2023-11-25)"
   xmlns:inkscape="http://www.inkscape.org/namespaces/inkscape"
   xmlns:sodipodi="http://sodipodi.sourceforge.net/DTD/sodipodi-0.dtd"
   xmlns="http://www.w3.org/2000/svg"
   xmlns:svg="http://www.w3.org/2000/svg"><defs
   id="defs11" /><sodipodi:namedview
   id="namedview11"
   pagecolor="#ffffff"
   bordercolor="#666666"
   borderopacity="1.0"
   inkscape:showpageshadow="2"
   inkscape:pageopacity="0.0"
   inkscape:pagecheckerboard="0"
   inkscape:deskcolor="#d1d1d1"
   inkscape:zoom="0.98004129"
   inkscape:cx="363.25"
   inkscape:cy="97.444874"
   inkscape:window-width="1376"
   inkscape:window-height="847"
   inkscape:window-x="67"
   inkscape:window-y="25"
   inkscape:window-maximized="1"
   inkscape:current-layer="Layer_1" />
<g
   id="g7">
	<g
   id="g6">
		<path
   fill="#f7931e"
   d="m 111.9,520.5 h 24.7 v 114.1 c -12.6,2.4 -21.9,3.4 -32,3.4 -30.1,0 -45.8,-13.6 -45.8,-39.7 0,-25.1 16.6,-41.4 42.5,-41.4 4,0 7,0.3 10.7,1.2 z m 0,57.4 c -2.9,-0.9 -5.3,-1.2 -8.4,-1.2 -12.5,0 -19.7,7.6 -19.7,21.2 0,13.1 6.9,20.3 19.5,20.3 2.7,0 5,-0.2 8.5,-0.6 z"
   id="path1" />
		<path
   fill="#f7931e"
   d="m 175.8,558.6 v 57.1 c 0,19.7 -1.4,29.1 -5.8,37.3 -4,7.9 -9.3,12.8 -20.1,18.3 L 127,660.5 c 10.8,-5.2 16.2,-9.6 19.5,-16.5 3.5,-7 4.6,-15.2 4.6,-36.7 v -48.7 c 0,0 24.7,0 24.7,0 z m -24.7,-38 h 24.7 v 25.3 h -24.7 z"
   id="path2" />
		<path
   fill="#f7931e"
   d="m 190.7,564.2 c 10.8,-5.2 21.3,-7.3 32.6,-7.3 12.6,0 21,3.4 24.7,9.9 2.1,3.7 2.7,8.5 2.7,18.7 v 50.1 c -11.1,1.7 -25,2.7 -35.2,2.7 -20.7,0 -30,-7.2 -30,-23.2 0,-17.3 12.3,-25.3 42.6,-27.9 v -5.5 c 0,-4.4 -2.3,-6.1 -8.5,-6.1 -9.1,0 -19.4,2.6 -29,7.5 z m 38.5,39.2 c -16.3,1.7 -21.6,4.1 -21.6,10.5 0,4.8 3,7 9.8,7 3.7,0 7,-0.3 11.9,-1.1 z"
   id="path3" />
		<path
   fill="#f7931e"
   d="m 262.7,562.4 c 14.6,-3.8 26.5,-5.6 38.7,-5.6 12.6,0 21.8,2.9 27.3,8.5 5.2,5.3 6.7,11.1 6.7,23.3 V 637 h -24.7 v -47.4 c 0,-9.4 -3.2,-13 -12,-13 -3.4,0 -6.4,0.3 -11.4,1.8 V 637 h -24.7 z"
   id="path4" />
		<path
   fill="#f7931e"
   d="m 345,650.5 c 8.7,4.4 17.3,6.6 26.4,6.6 16.2,0 23,-6.6 23,-22.2 0,-0.2 0,-0.3 0,-0.5 -4.8,2.4 -9.6,3.4 -16,3.4 -21.6,0 -35.4,-14.3 -35.4,-36.9 0,-28 20.4,-43.9 56.4,-43.9 10.5,0 20.3,1.1 32.2,3.5 l -8.5,17.8 c -6.6,-1.2 -0.5,-0.2 -5.5,-0.6 v 2.6 l 0.3,10.4 0.2,13.4 c 0.2,3.4 0.2,6.7 0.3,10.1 0,3 0,4.4 0,6.7 0,21.2 -1.8,31.1 -7,39.3 -7.6,12 -21,18 -39.9,18 -9.6,0 -18,-1.4 -26.5,-4.9 z m 49,-73.6 c -0.3,0 -0.6,0 -0.8,0 h -1.8 c -4.8,-0.2 -10.4,1.1 -14.3,3.5 -5.9,3.4 -9,9.4 -9,18.1 0,12.3 6.1,19.4 16.9,19.4 3.4,0 6.1,-0.6 9.3,-1.7 v -1.8 -6.7 c 0,-2.9 -0.2,-6.1 -0.2,-9.4 L 394,587 l -0.2,-8.2 z"
   id="path5" />
		<path
   fill="#f7931e"
   d="m 469.9,556.5 c 24.7,0 39.7,15.5 39.7,40.7 0,25.8 -15.7,41.9 -40.7,41.9 -24.7,0 -39.9,-15.5 -39.9,-40.5 0.1,-25.9 15.8,-42.1 40.9,-42.1 z m -0.5,62.7 c 9.4,0 15.1,-7.9 15.1,-21.5 0,-13.4 -5.5,-21.5 -14.9,-21.5 -9.8,0 -15.4,7.9 -15.4,21.5 0,13.7 5.6,21.5 15.2,21.5 z"
   id="path6" />
	</g>
</g>
<g
   id="g11">
	<path
   fill="#f7931e"
   d="m 562.1,702.1 c -2.7,0.3 -5.3,0.1 -8,-0.6 -2.7,-0.7 -5,-1.7 -7,-3 -2,-1.3 -3.7,-3 -4.9,-4.9 -1.1,-1.9 -1.5,-3.9 -1.1,-6.1 2,0 3.7,0.4 5.3,1.1 1.5,0.8 3,1.7 4.5,2.7 1.5,0.9 3.1,1.9 4.8,2.7 1.7,0.8 3.7,1.1 6,1.1 5.7,0 10.4,-1.2 14.4,-3.7 3.9,-2.5 7,-5.7 9.4,-9.7 2.4,-4 4,-8.6 5.1,-13.6 1,-5.1 1.5,-10.2 1.5,-15.5 0,-1.3 -0.1,-3.5 -0.2,-6.5 -0.1,-3 -0.3,-6.3 -0.5,-9.9 -0.2,-3.7 -0.4,-7.5 -0.6,-11.7 -0.2,-4 -0.5,-8 -0.7,-11.7 -0.2,-3.7 -0.5,-7 -0.7,-9.9 -0.2,-3 -0.5,-5.1 -0.6,-6.5 -0.8,2 -1.8,4.3 -3,7.2 -1.1,2.9 -2.5,5.9 -4,9 -1.5,3.1 -3.2,6.3 -5.2,9.4 -2,3.1 -4,5.9 -6.4,8.4 -2.4,2.5 -5,4.4 -7.7,6 -2.8,1.5 -5.8,2.3 -8.9,2.3 -1.7,0 -3,-0.8 -3.9,-2.5 -0.9,-1.7 -1.7,-3.6 -2.2,-5.8 -0.5,-2.2 -0.8,-4.3 -0.9,-6.4 -0.1,-2.1 -0.2,-3.6 -0.2,-4.4 -0.5,-6.3 -0.5,-12.5 0,-18.6 0.5,-6.1 1.4,-11.9 3,-17.3 1.5,-5.4 3.5,-10.1 6,-14.4 2.5,-4.2 5.6,-7.5 9.2,-9.9 3.6,-2.4 7.7,-3.8 12.4,-4.1 4.6,-0.3 9.9,0.7 15.7,3.2 1.5,-0.2 2.6,0.7 3.2,2.7 0.5,2 0.8,4.3 0.7,7.2 0,2.9 -0.2,5.9 -0.5,9 -0.3,3.1 -0.5,5.8 -0.6,8 0,5.1 0.2,10.2 0.6,15.3 0.4,5.1 0.8,10.2 1.4,15.3 0.5,5.1 1,10.1 1.4,15.2 0.4,5.1 0.6,10.1 0.6,15.3 0,5.9 -0.6,12.1 -1.8,18.6 -1.1,6.5 -3.2,12.6 -6.1,18.1 -2.9,5.6 -6.7,10.1 -11.5,13.7 -5,3.4 -10.9,5.2 -18,5.2 z m -9,-86.2 c 0,1 0,2.2 0.1,3.6 0,1.4 0.2,2.8 0.6,4.1 0.3,1.3 0.9,2.5 1.7,3.4 0.8,0.9 1.8,1.4 3.2,1.4 2.8,0 5.3,-1.2 7.6,-3.7 2.4,-2.5 4.5,-5.7 6.5,-9.6 2,-3.9 3.8,-8.2 5.5,-12.9 1.7,-4.7 3,-9.3 4.1,-13.8 1.1,-4.5 2,-8.6 2.6,-12.3 0.6,-3.7 0.9,-6.4 0.9,-8.2 -6,-2.2 -11.1,-2.1 -15.3,0.1 -4.2,2.3 -7.6,5.8 -10.2,10.6 -2.6,4.9 -4.4,10.6 -5.7,17.3 -1.2,6.7 -1.7,13.4 -1.6,20 z"
   id="path7" />
	<path
   fill="#f7931e"
   d="m 611.7,541.5 c -0.7,0 -1.4,-0.2 -2.4,-0.7 -0.9,-0.5 -1.7,-1.1 -2.3,-1.9 -0.6,-0.7 -1,-1.5 -1.3,-2.4 -0.2,-0.8 -0.1,-1.5 0.5,-2.2 0.4,-1.1 1.1,-2.3 2.4,-3.2 1.1,-0.9 2.4,-1.7 3.7,-2 1.2,-0.3 2.4,-0.3 3.3,0.1 0.9,0.4 1.4,1.5 1.4,3.3 0,0.9 -0.1,1.9 -0.2,2.9 -0.1,1 -0.4,2 -0.9,2.9 -0.5,0.9 -1,1.7 -1.7,2.2 -0.7,0.6 -1.5,1 -2.5,1 z m 6.2,94.8 c -0.5,0 -1.1,-0.1 -2,-0.3 -0.8,-0.2 -1.5,-0.5 -2.4,-0.9 -0.8,-0.4 -1.4,-0.8 -2,-1.4 -0.5,-0.5 -0.8,-1.1 -0.8,-1.9 l -0.1,-70.9 c 0,-0.7 0.3,-1.3 0.8,-1.9 0.5,-0.5 1.2,-1 2,-1.4 0.8,-0.4 1.5,-0.7 2.4,-0.9 0.8,-0.2 1.4,-0.3 2,-0.3 z"
   id="path8" />
	<path
   fill="#f7931e"
   d="m 628.4,576 c -0.3,-1.2 -0.7,-2.9 -1.1,-4.9 -0.5,-2 -0.9,-3.9 -1.3,-6 -0.4,-2.1 -0.6,-4 -0.6,-5.9 0,-1.9 0.3,-3.4 0.9,-4.4 0.6,-1.1 1.7,-1.8 3.1,-2 1.4,-0.2 3.5,0.5 6.2,2 0.2,1 0.5,2.6 0.8,5 0.3,2.3 0.7,4.8 1.1,7.3 0.4,2.6 0.7,5.1 1,7.3 0.3,2.2 0.4,3.9 0.4,5 1.8,-3.9 4,-7.6 6.8,-11.2 2.8,-3.5 6,-6.6 9.6,-9.3 3.6,-2.7 7.6,-4.8 11.9,-6.3 4.3,-1.5 8.9,-2.4 13.8,-2.4 l -1.4,8.4 c -6.3,1 -12.2,3.7 -17.6,8 -5.5,4.2 -10,9.7 -13.6,16.3 -3.6,6.7 -6.1,14.5 -7.3,23.4 -1.2,9 -0.7,18.7 1.4,29.1 l -9.3,2 c -0.1,-0.1 -0.2,-1.3 -0.4,-3.6 -0.2,-2.3 -0.4,-5.3 -0.7,-8.9 -0.3,-3.6 -0.6,-7.7 -0.9,-12.2 -0.3,-4.5 -0.6,-9 -0.9,-13.5 -0.3,-4.5 -0.6,-8.8 -0.9,-12.9 -0.5,-4.2 -0.8,-7.7 -1,-10.3 z"
   id="path9" />
	<path
   fill="#f7931e"
   d="m 687.6,508.3 8.3,-1.1 c 0.4,5.2 0.7,11.4 1.1,18.4 0.3,7 0.6,14.6 0.9,22.4 0.2,7.9 0.5,15.8 0.6,24 0.2,8.1 0.4,15.8 0.5,23 0.1,7.2 0.3,13.8 0.5,19.6 0.2,5.9 0.4,10.4 0.7,13.7 0,1.3 -0.2,2.7 -0.7,3.9 -0.5,1.2 -1,2.1 -1.8,2.7 -0.7,0.5 -1.4,0.6 -2.4,0.2 -0.9,-0.4 -1.7,-1.4 -2.4,-3.2 z"
   id="path10" />
	<path
   fill="#f7931e"
   d="m 707.2,607.5 c 0.8,-1.7 1.8,-2.7 2.8,-3.2 1,-0.4 2.5,-0.5 4.2,-0.4 3.5,3.2 7.1,6.3 10.8,9.1 3.7,2.9 7.5,5.3 11.6,7.3 4.1,2 8.3,3.7 12.7,5 4.4,1.2 9.1,1.9 14.2,1.9 0.9,0 2.1,0 3.4,0 1.2,0 2.5,-0.2 3.5,-0.5 1,-0.3 2,-0.9 2.7,-1.7 0.7,-0.8 1.1,-2 1.1,-3.4 -0.4,-3 -2,-5.5 -4.6,-7.7 -2.7,-2.2 -6,-4.3 -9.8,-6.3 -3.8,-2 -8,-4 -12.2,-6.2 -4.3,-2.1 -8.3,-4.5 -11.8,-7.2 -3.5,-2.7 -6.4,-5.8 -8.6,-9.3 -2.2,-3.5 -3,-7.6 -2.5,-12.6 0,-2.8 0.9,-5.2 2.7,-7.3 1.8,-2.2 3.9,-4 6.5,-5.5 2.6,-1.5 5.3,-2.7 8.1,-3.5 2.8,-0.8 5.3,-1.2 7.4,-1.2 4.2,0 8.5,0.6 12.9,1.9 4.3,1.2 8.3,3 11.7,5.4 l -3.9,5.6 c -1.8,-1.4 -3.9,-2.6 -6.5,-3.3 -2.6,-0.7 -5.3,-1.1 -8.1,-1.1 -2.8,0 -5.5,0.2 -8.1,0.6 -2.7,0.5 -5,1.2 -7,2.3 -2,1 -3.5,2.3 -4.5,3.7 -1,1.4 -1.3,3 -0.8,4.6 0,4.6 1.2,8.4 3.7,11.3 2.5,2.9 5.6,5.4 9.3,7.5 3.7,2.1 7.7,4 12.1,5.7 4.4,1.7 8.4,3.5 12.1,5.7 3.7,2.1 6.8,4.6 9.3,7.5 2.5,2.9 3.7,6.6 3.7,11.2 0,2.9 -0.5,5.1 -1.4,6.8 -0.9,1.7 -2.2,3 -3.7,3.8 -1.5,0.9 -3.3,1.4 -5.5,1.8 -2.1,0.3 -4.3,0.4 -6.7,0.4 -5.3,0 -10.8,-0.7 -16.5,-2.1 -5.7,-1.4 -11.3,-3.3 -16.6,-5.8 -5.4,-2.5 -10.4,-5.5 -15.2,-8.9 -5.2,-3.9 -9.2,-7.7 -12.5,-11.9 z"
   id="path11" />
</g>
</svg>
