<?xml version="1.0" encoding="UTF-8"?>
<svg id="svg3" width="2809.2" height="722.06" version="1.1" viewBox="0 0 2809.2 722.06" xml:space="preserve" xmlns="http://www.w3.org/2000/svg">
  <defs id="defs2">
    <filter id="a" x="-.0010726" y="-.010713" width="1.007" height="1.0698" color-interpolation-filters="sRGB">
      <feFlood id="feFlood1" flood-color="#352726" result="flood"/>
      <feGaussianBlur id="feGaussianBlur1" in="SourceGraphic" result="blur" stdDeviation="1.2"/>
      <feOffset id="feOffset1" dx="13" dy="13" in="blur" result="offset"/>
      <feComposite id="feComposite1" in="flood" in2="offset" operator="in" result="comp1"/>
      <feComposite id="feComposite2" in="SourceGraphic" in2="comp1" result="comp2"/>
    </filter>
  </defs>
  <path id="path2" d="m892.36 7.2347c-2.12 0.43-67.28 54.23-67.07 55.38 0.1 0.62 5.83 7.48 12.7 15.22 13.8 15.56 12.74 14.64 14.92 12.78 0.87-0.74 17-11.36 35.83-23.61 18.84-12.25 34.25-22.48 34.25-22.73s-4.16-5.56-9.25-11.8a1354.3 1354.3 0 0 1-14.75-18.41c-3.03-3.88-6-6.96-6.63-6.83zm-37.45 139.73c0.8 0 4.75 15.38 10.64 41.5 1.5 6.6 5.57 22.8 9.07 36s6.65 25.46 6.98 27.25l0.61 3.25h-27.58c-21.62 0-27.48-0.27-27.15-1.25 1.8-5.28 14.44-54.92 19.03-74.75 7.35-31.76 7.41-32 8.4-32zm37.02-44.02-71.35 0.52-37.74 120.5c-20.76 66.28-38.27 122.75-38.92 125.5-0.66 2.75-1.5 5.6-1.9 6.33-0.56 1.07-90.03-147.28-90.03-149.3l78-102.96c0.19-0.25-14.51-0.57-32.25-0.56h-32.25l-32.5 44.99c-17.87 24.74-34.74 48.85-38.24 52.99l-6.77 8.01c-0.44 0.53-1.01-15.68-0.99-47.75 0.02-26.26 0.03-50.11 0.02-53l-0.02-5.25h-59v260.3l9.75-0.64c5.36-0.36 18.64-0.65 29.5-0.66h19.75v-69.36l14.7-19.38c8.08-10.66 15.11-20.13 15.34-19.78l5.45 8.3c3 4.58 16.72 29.42 31.29 54.72l26.48 46 37.62-0.17c20.7-0.1 47.52-0.2 59.62-0.25l22-0.09 3.8-14.74c2.09-8.11 5.63-21.84 7.88-30.5l4.1-15.75h79.64l0.99 3.75c0.54 2.06 1.26 5.1 1.6 6.75 0.33 1.65 3.35 13.82 6.7 27.04l6.07 24.04 30.61-0.4c16.84-0.22 30.74-0.52 30.9-0.67 0.16-0.14-15.88-51.95-35.66-115.14-35.78-114.36-39.6-126.66-42.6-137.63zm232.58-79.86-1.5 1.33c-8.23 7.2-39.52 31.55-40.56 31.55-0.75 0-3.97-2.17-7.16-4.81a1743 1743 0 0 0-20.4-16.4l-14.6-11.59-11.4 7c-6.27 3.84-11.99 7.55-12.71 8.24l-1.32 1.26 35.42 43.8 64.44-1 17.05-21c9.38-11.55 17.16-21.45 17.3-22s-5.33-4.46-12.15-8.69zm-129.56 79.88 0.54 49.4 51.75-0.29c28.46-0.16 51.75 0.03 51.75 0.4 0 0.4-2.94 4.91-6.52 10.06-3.6 5.15-29.47 44.32-57.5 87.04l-50.98 77.7v35.19l93.73-0.31c51.55-0.18 93.8-0.4 93.87-0.5s0.38-11.1 0.67-24.44l0.54-24.25h-57.9c-31.85 0-57.91-0.2-57.91-0.43 0-0.24 25.54-39.27 56.75-86.75l56.75-86.32 0.5-13c0.28-7.15 0.36-15.36 0.2-18.25l-0.3-5.25h-87.97zm482.3-79.83-12.6 7.66c-6.91 4.22-12.6 8.02-12.62 8.44-0.02 0.43 5.88 8.08 13.11 17 7.23 8.93 15.14 18.7 17.57 21.73l4.42 5.5 32.18-0.32 32.18-0.33 17.28-21.4c9.51-11.77 17.34-21.74 17.4-22.15 0.06-0.42-5.46-4.21-12.27-8.43l-12.37-7.68-3.99 3.16a4717.1 4717.1 0 0 0-20.4 16.4c-9.04 7.29-16.99 13.25-17.67 13.25-0.7 0-10.47-7.39-21.74-16.42zm41.24 75.42-16 0.1-9 2.28c-78.36 19.88-90.2 108.6-19 142.44 3.85 1.83 17.35 7.68 30 13 38.38 16.13 44.44 20.28 45.99 31.5 1.58 11.5-3.02 19.44-14.49 24.95-7.05 3.38-28.96 5.3-45.06-0.44-12.06-4.3-24.33-11.58-39.52-21.96l-34.35 39.04 4.72 4.26c34.45 31.14 90.2 36.87 117.7 30.86 53.32-11.63 81.99-54.13 68.27-101.18-7.12-24.4-21.35-36.48-62.86-53.32-53.5-21.7-59.07-25.6-57.66-40.21 2.46-25.7 46.47-28.65 79.93-5.36 2.78 1.93 5.22 3.66 6.42 4.32l30.2-36.67-3.14-3c-20.85-19.83-50.27-30.8-82.15-30.6zm-1515.5 4.25v129.41c0 71.18 0.22 129.64 0.5 129.91 0.49 0.5 51.03 0.15 81.5-0.56 73.82-1.72 115.41-41.31 121.04-115.21 5.53-72.55-24.69-123.35-82.04-137.93-17.86-4.54-19.78-4.67-71.25-5.16zm59 47.16h7.75c49.77 0.06 72.3 20.68 76.31 69.82 4.56 55.97-16.79 89.31-60.27 94.1-5.34 0.6-12.88 1.08-16.75 1.08h-7.04v-82.5zm1154-47v259.5l82.73-0.32c45.5-0.17 82.8-0.4 82.87-0.5s0.38-11.1 0.7-24.43l0.56-24.25h-108.9l0.54-59.5 88.5-0.52v-49.2l-88.5 0.72v-52l103.5-0.52v-14.74c0-8.1 0.3-19.13 0.66-24.49l0.64-9.75h-81.65zm1542.4 506.14c-2.84-0.07-5.7 0.2-8.49 0.87-38.35 9.03-36.35 66.97 2.49 71.89 30.21 3.82 49.91-26.63 35.58-55.02-5.35-10.59-17.3-17.43-29.58-17.74zm-2418.7-243.78c-55.22-9.26-90.36-53.04-95.3-118.72-6.3-83.57 35.91-142.12 106.4-147.6 81.4-6.35 132.76 52.8 127.57 146.92-4.5 81.9-62.84 132.1-138.67 119.4zm34.4-49.94c37.65-9.75 57.34-73.78 38.74-125.96-20.77-58.27-88.82-53.95-104.72 6.65-18.41 70.16 15.94 132.26 65.98 119.3z" fill="#f0b46b" filter="url(#a)"/>
  <path id="path3" d="m568.13 680.36c-55.22-9.26-90.37-53.04-95.31-118.73-6.29-83.56 35.92-142.1 106.4-147.6 81.41-6.34 132.77 52.8 127.58 146.93-4.51 81.89-62.84 132.1-138.67 119.4zm34.4-49.94c37.64-9.75 57.34-73.78 38.74-125.96-20.77-58.27-88.83-53.95-104.73 6.64-18.4 70.16 15.94 132.27 65.99 119.32zm247.96 50.54c-53.6-7.83-91.78-43.14-102.54-94.83-11.13-53.4 3.05-107.1 36.75-139.26 44.14-42.12 119.65-44.71 161.02-5.52l6.6 6.25c-9.98 12.09-20 24.13-29.95 36.24l-7.09-4.65c-28.81-18.88-58.05-20.72-83.59-0.68-39.59 31.08-35.45 124.42 6.42 144.67 20.08 9.7 46.72 11.46 61.63 4.06l5.25-2.6 0.32-45-43.32 0.18v-47.86h95v118.6l-3.25 3.03c-22.56 21-66.7 32.7-103.25 27.37zm1018.7-0.6c-55-9.22-90.32-53.22-95.25-118.67-6.28-83.58 36.21-142.46 106.56-147.64 77.61-5.71 127.77 46.88 127.71 133.91-0.06 90.38-58.38 145.93-139.02 132.4zm34.8-49.96c38.38-9.04 57.37-75.15 37.07-129.04-21.2-56.26-89.17-48.78-103.96 11.44-17.24 70.16 16.5 129.48 66.89 117.6zm-1900.7-82.19 0.25-129.75 47-0.3c72.48-0.48 91.78 2.52 114.1 17.72 38.05 25.92 41.72 92.3 6.99 126.58-19.4 19.14-41.51 26.15-85.84 27.21l-23.75 0.57v87.72h-59zm102.25-6.25c23.18-4.61 32.24-17.21 32-39.48 0-29.22-10.16-36.4-52.75-37.27l-22.75-0.46v79.35l19.25-0.65c10.59-0.35 21.5-1.02 24.25-1.49zm135.5 5.92v-130.08l57.25 0.46c68.6 0.55 74.9 1.32 96.3 11.68 53.24 25.77 52.63 114.41-0.97 140.7-2.18 1.07-2.49 1.43-4.4 2.5l27.82 52.92c15.04 28.62 29 51.31 29 51.53s-14.68 0.28-32.62 0.13l-32.63-0.26-19.5-36.5c-10.72-20.07-20.24-38.3-21.15-40.5-0.92-2.2-3.12-6.81-4.9-10.25l-3.23-6.25h-32.97v94h-58zm105.32-11.88c22.1-4.6 32.6-20.54 29.49-44.73-1.54-15.22-14.99-24.43-29.31-25.63-15.78-1.33-47.5-0.86-47.5-0.86v73.47l21.25-0.62c11.69-0.35 23.42-1.08 26.07-1.63zm1136.2-117.54h64.89l1.94 6.5c1.07 3.58 10.51 30.35 20.99 59.5 15.31 42.63 32.68 94.17 32.68 96.98 0 0.29 0.63 0.52 1.4 0.52 1.4 0 3.88-7.23 6.54-19 1.78-7.88 14.49-45.39 33.38-98.5l16.36-46 64.62-0.53-0.64 8.27c-0.99 83.9-0.66 167.84-0.66 251.76h-53.12l0.43-56.75c0.24-32.13 0.91-61.09 1.55-66.75 8.24-73.48 8.38-72.83-6.38-29.68-8.48 24.8-46.67 128.74-47.64 129.65-0.19 0.18-7.5 0.48-16.23 0.68l-15.88 0.35-18.85-50.5c-10.37-27.77-19.78-53.87-20.91-58-4.5-16.38-17.47-53-18.8-53-0.93 0-1.16 0.83-0.75 2.75 0.33 1.51 2 16.03 3.72 32.25l3.13 29.5 0.46 59.75 0.45 59.75h-53.2zm620.18 258.75-77.93-259.25h62.16l53.15 204.47 51.44-203.97 60.64-0.53-79.3 260.03zm143.58-0.5 80.74-258.25h71.5l79.5 258.25h-61.4l-14.94-60.75-80.17 0.01-15.92 60.74zm142.58-106.75-27.53-107-27.31 107.04zm169.16-102h-72v-50h202v50h-72v210h-58zm-1547.5 79.92v-130.08l57.25 0.46c68.6 0.55 74.9 1.32 96.3 11.68 53.24 25.77 52.63 114.41-0.97 140.7a19.81 19.81 0 0 0-4.47 2.75l27.89 52.67c15.12 28.58 29 51.31 29 51.53s-14.68 0.28-32.63 0.13l-32.62-0.26-19.5-36.5c-10.72-20.07-20.24-38.3-21.16-40.5-0.9-2.2-3.11-6.81-4.89-10.25l-3.23-6.25h-32.97v94h-58zm105.32-11.88c22.1-4.6 32.6-20.54 29.48-44.73-1.54-15.22-14.98-24.43-29.3-25.63-15.78-1.33-47.5-0.86-47.5-0.86v73.47l21.25-0.62c11.68-0.35 23.42-1.08 26.07-1.63zm106.59 140.7 80.74-258.24h71.5l79.5 258.25h-61.4l-14.94-60.75-80.17 0.01-15.92 60.74zm142.58-106.74-27.53-107-27.3 107.04z" fill="#5fb1b7" filter="url(#a)"/>
</svg>
