<?xml version="1.0" encoding="UTF-8" standalone="no"?>
<svg
   xml:space="preserve"
   viewBox="0 0 2809.2051 722.05981"
   version="1.1"
   id="svg3"
   sodipodi:docname="dokazesprogramovat.svg"
   width="2809.2051"
   height="722.05981"
   inkscape:version="1.3.2 (091e20e, 2023-11-25)"
   xmlns:inkscape="http://www.inkscape.org/namespaces/inkscape"
   xmlns:sodipodi="http://sodipodi.sourceforge.net/DTD/sodipodi-0.dtd"
   xmlns="http://www.w3.org/2000/svg"
   xmlns:svg="http://www.w3.org/2000/svg"><sodipodi:namedview
   id="namedview3"
   pagecolor="#ffffff"
   bordercolor="#666666"
   borderopacity="1.0"
   inkscape:showpageshadow="2"
   inkscape:pageopacity="0.0"
   inkscape:pagecheckerboard="0"
   inkscape:deskcolor="#d1d1d1"
   inkscape:zoom="0.17492097"
   inkscape:cx="1394.9157"
   inkscape:cy="380.17169"
   inkscape:window-width="1384"
   inkscape:window-height="847"
   inkscape:window-x="62"
   inkscape:window-y="25"
   inkscape:window-maximized="1"
   inkscape:current-layer="svg3" />
  <defs
   id="defs2">
    <filter
   id="a"
   width="1.006987"
   height="1.0697818"
   x="-0.0010726257"
   y="-0.010712774"
   color-interpolation-filters="sRGB">
      <feFlood
   flood-color="#352726"
   flood-opacity="1"
   result="flood"
   id="feFlood1" />
      <feGaussianBlur
   in="SourceGraphic"
   result="blur"
   stdDeviation="1.2"
   id="feGaussianBlur1" />
      <feOffset
   dx="13"
   dy="13"
   in="blur"
   result="offset"
   id="feOffset1" />
      <feComposite
   in="flood"
   in2="offset"
   operator="in"
   result="comp1"
   id="feComposite1" />
      <feComposite
   in="SourceGraphic"
   in2="comp1"
   result="comp2"
   id="feComposite2" />
    </filter>
  </defs>
  <path
   fill="#f0b46b"
   d="m 892.36232,7.2346615 c -2.12,0.43 -67.28,54.2300005 -67.07,55.3800005 0.1,0.62 5.83,7.48 12.7,15.22 13.8,15.56 12.74,14.64 14.92,12.78 0.87,-0.74 17,-11.36 35.83,-23.61 18.84,-12.25 34.25,-22.48 34.25,-22.73 0,-0.25 -4.16,-5.56 -9.25,-11.8 a 1354.3,1354.3 0 0 1 -14.75,-18.41 c -3.03,-3.88 -6,-6.9600005 -6.63,-6.8300005 z m -37.45,139.7299985 c 0.8,0 4.75,15.38 10.64,41.5 1.5,6.6 5.57,22.8 9.07,36 3.5,13.2 6.65,25.46 6.98,27.25 l 0.61,3.25 h -27.58 c -21.62,0 -27.48,-0.27 -27.15,-1.25 1.8,-5.28 14.44,-54.92 19.03,-74.75 7.35,-31.76 7.41,-32 8.4,-32 z m 37.02,-44.02 -35.68,0.26 -35.67,0.26 -37.74,120.5 c -20.76,66.28 -38.27,122.75 -38.92,125.5 -0.66,2.75 -1.5,5.6 -1.9,6.33 -0.56,1.07 -90.03,-147.28 -90.03,-149.3 l 78,-102.96 c 0.19,-0.25 -14.51,-0.57 -32.25,-0.56 h -32.25 l -32.5,44.99 c -17.87,24.74 -34.74,48.85 -38.24,52.99 l -6.77,8.01 c -0.44,0.53 -1.01,-15.68 -0.99,-47.75 0.02,-26.26 0.03,-50.11 0.02,-53 l -0.02,-5.25 h -59 v 260.3 l 9.75,-0.64 c 5.36,-0.36 18.64,-0.65 29.5,-0.66 h 19.75 v -69.36 l 14.7,-19.38 c 8.08,-10.66 15.11,-20.13 15.34,-19.78 l 5.45,8.3 c 3,4.58 16.72,29.42 31.29,54.72 l 26.48,46 37.62,-0.17 c 20.7,-0.1 47.52,-0.2 59.62,-0.25 l 22,-0.09 3.8,-14.74 c 2.09,-8.11 5.63,-21.84 7.88,-30.5 l 4.1,-15.75 h 79.64 l 0.99,3.75 c 0.54,2.06 1.26,5.1 1.6,6.75 0.33,1.65 3.35,13.82 6.7,27.04 l 6.07,24.04 30.61,-0.4 c 16.84,-0.22 30.74,-0.52 30.9,-0.67 0.16,-0.14 -15.88,-51.95 -35.66,-115.14 -35.78,-114.36 -39.6,-126.66 -42.6,-137.63 z m 232.57998,-79.859998 -1.5,1.33 c -8.23,7.2 -39.52,31.55 -40.56,31.55 -0.75,0 -3.97,-2.17 -7.16,-4.81 a 1743,1743 0 0 0 -20.4,-16.4 l -14.6,-11.59 -11.4,7 c -6.27,3.84 -11.99,7.55 -12.71,8.24 l -1.32,1.26 17.71,21.9 17.71,21.9 32.22,-0.5 32.22,-0.5 17.05,-21 c 9.38,-11.55 17.16,-21.45 17.3,-22 0.14,-0.55 -5.33,-4.46 -12.15,-8.69 z m -129.55998,79.879998 0.27,24.7 0.27,24.7 51.74998,-0.29 c 28.46,-0.16 51.75,0.03 51.75,0.4 0,0.4 -2.94,4.91 -6.52,10.06 -3.6,5.15 -29.47,44.32 -57.5,87.04 l -50.97998,77.7 v 35.19 l 93.72998,-0.31 c 51.55,-0.18 93.8,-0.4 93.87,-0.5 0.07,-0.1 0.38,-11.1 0.67,-24.44 l 0.54,-24.25 h -57.9 c -31.85,0 -57.91,-0.2 -57.91,-0.43 0,-0.24 25.54,-39.27 56.75,-86.75 l 56.75,-86.32 0.5,-13 c 0.28,-7.15 0.36,-15.36 0.2,-18.25 l -0.3,-5.25 h -87.97 z m 482.29998,-79.829998 -12.6,7.66 c -6.91,4.22 -12.6,8.02 -12.62,8.44 -0.02,0.43 5.88,8.08 13.11,17 7.23,8.93 15.14,18.7 17.57,21.73 l 4.42,5.5 32.18,-0.32 32.18,-0.33 17.28,-21.4 c 9.51,-11.77 17.34,-21.74 17.4,-22.15 0.06,-0.42 -5.46,-4.21 -12.27,-8.43 l -12.37,-7.68 -3.99,3.16 a 4717.1,4717.1 0 0 0 -20.4,16.4 c -9.04,7.29 -16.99,13.25 -17.67,13.25 -0.7,0 -10.47,-7.39 -21.74,-16.42 z m 41.24,75.42 -16,0.1 -9,2.279998 c -78.36,19.88 -90.2,108.6 -19,142.44 3.85,1.83 17.35,7.68 30,13 38.38,16.13 44.44,20.28 45.99,31.5 1.58,11.5 -3.02,19.44 -14.49,24.95 -7.05,3.38 -28.96,5.3 -45.06,-0.44 -12.06,-4.3 -24.33,-11.58 -39.52,-21.96 l -34.35,39.04 4.72,4.26 c 34.45,31.14 90.2,36.87 117.7,30.86 53.32,-11.63 81.99,-54.13 68.27,-101.18 -7.12,-24.4 -21.35,-36.48 -62.86,-53.32 -53.5,-21.7 -59.07,-25.6 -57.66,-40.21 2.46,-25.7 46.47,-28.65 79.93,-5.36 2.78,1.93 5.22,3.66 6.42,4.32 l 30.2,-36.67 -3.14,-3 c -20.85,-19.83 -50.27,-30.799998 -82.15,-30.599998 z M 2.9923185,102.80466 v 129.41 c 0,71.18 0.22,129.64 0.5,129.91 0.49,0.5 51.0299995,0.15 81.4999995,-0.56 73.820002,-1.72 115.410002,-41.31 121.040002,-115.21 5.53,-72.55 -24.69,-123.35 -82.04,-137.93 -17.86,-4.54 -19.78,-4.67 -71.250002,-5.16 z m 58.9999995,47.16 h 7.75 c 49.770002,0.06 72.300002,20.68 76.310002,69.82 4.56,55.97 -16.79,89.31 -60.270002,94.1 -5.34,0.6 -12.88,1.08 -16.75,1.08 h -7.04 v -82.5 z m 1153.999982,-47 v 259.5 l 82.73,-0.32 c 45.5,-0.17 82.8,-0.4 82.87,-0.5 0.07,-0.1 0.38,-11.1 0.7,-24.43 l 0.56,-24.25 h -108.9 l 0.27,-29.75 0.27,-29.75 44.25,-0.26 44.25,-0.26 v -49.2 l -44.25,0.36 -44.25,0.36 v -52 l 51.75,-0.26 51.75,-0.26 v -14.74 c 0,-8.1 0.3,-19.13 0.66,-24.49 l 0.64,-9.75 h -81.65 z m 1542.36,506.14 c -2.84,-0.07 -5.7,0.2 -8.49,0.87 -38.35,9.03 -36.35,66.97 2.49,71.89 30.21,3.82 49.91,-26.63 35.58,-55.02 -5.35,-10.59 -17.3,-17.43 -29.58,-17.74 z m -2418.65998,-243.78 c -55.22,-9.26 -90.36,-53.04 -95.3,-118.72 -6.3,-83.57 35.91,-142.12 106.4,-147.599998 81.4,-6.35 132.76,52.799998 127.57,146.919998 -4.5,81.9 -62.84,132.1 -138.67,119.4 z m 34.4,-49.94 c 37.65,-9.75 57.34,-73.78 38.74,-125.96 -20.77,-58.27 -88.82,-53.95 -104.72,6.65 -18.41,70.16 15.94,132.26 65.98,119.3 z"
   filter="url(#a)"
   id="path2" />
  <path
   fill="#5fb1b7"
   d="m 568.13232,680.36466 c -55.22,-9.26 -90.37,-53.04 -95.31,-118.73 -6.29,-83.56 35.92,-142.1 106.4,-147.6 81.41,-6.34 132.77,52.8 127.58,146.93 -4.51,81.89 -62.84,132.1 -138.67,119.4 z m 34.4,-49.94 c 37.64,-9.75 57.34,-73.78 38.74,-125.96 -20.77,-58.27 -88.83,-53.95 -104.73,6.64 -18.4,70.16 15.94,132.27 65.99,119.32 z m 247.96,50.54 c -53.6,-7.83 -91.78,-43.14 -102.54,-94.83 -11.13,-53.4 3.05,-107.1 36.75,-139.26 44.14,-42.12 119.65,-44.71 161.02,-5.52 l 6.6,6.25 c -9.98,12.09 -20,24.13 -29.95,36.24 l -7.09,-4.65 c -28.81,-18.88 -58.05,-20.72 -83.59,-0.68 -39.59,31.08 -35.45,124.42 6.42,144.67 20.08,9.7 46.72,11.46 61.63,4.06 l 5.25,-2.6 0.32,-45 -43.32,0.18 v -47.86 h 95 v 118.6 l -3.25,3.03 c -22.56,21 -66.7,32.7 -103.25,27.37 z m 1018.68998,-0.6 c -55,-9.22 -90.32,-53.22 -95.25,-118.67 -6.28,-83.58 36.21,-142.46 106.56,-147.64 77.61,-5.71 127.77,46.88 127.71,133.91 -0.06,90.38 -58.38,145.93 -139.02,132.4 z m 34.8,-49.96 c 38.38,-9.04 57.37,-75.15 37.07,-129.04 -21.2,-56.26 -89.17,-48.78 -103.96,11.44 -17.24,70.16 16.5,129.48 66.89,117.6 z m -1900.7399815,-82.19 0.25,-129.75 46.9999995,-0.3 c 72.480002,-0.48 91.780002,2.52 114.100002,17.72 38.05,25.92 41.72,92.3 6.99,126.58 -19.4,19.14 -41.51,26.15 -85.840002,27.21 l -23.75,0.57 v 87.72 H 2.9923185 Z m 102.2500015,-6.25 c 23.18,-4.61 32.24,-17.21 32,-39.48 0,-29.22 -10.16,-36.4 -52.750002,-37.27 l -22.75,-0.46 v 79.35 l 19.25,-0.65 c 10.59,-0.35 21.500002,-1.02 24.250002,-1.49 z m 135.5,5.92 v -130.08 l 57.25,0.46 c 68.6,0.55 74.9,1.32 96.3,11.68 53.24,25.77 52.63,114.41 -0.97,140.7 -2.18,1.07 -2.49,1.43 -4.4,2.5 l 27.82,52.92 c 15.04,28.62 29,51.31 29,51.53 0,0.22 -14.68,0.28 -32.62,0.13 l -32.63,-0.26 -19.5,-36.5 c -10.72,-20.07 -20.24,-38.3 -21.15,-40.5 -0.92,-2.2 -3.12,-6.81 -4.9,-10.25 l -3.23,-6.25 h -32.97 v 94 h -58 z m 105.32,-11.88 c 22.1,-4.6 32.6,-20.54 29.49,-44.73 -1.54,-15.22 -14.99,-24.43 -29.31,-25.63 -15.78,-1.33 -47.5,-0.86 -47.5,-0.86 v 73.47 l 21.25,-0.62 c 11.69,-0.35 23.42,-1.08 26.07,-1.63 z m 1136.17998,-117.54 h 64.89 l 1.94,6.5 c 1.07,3.58 10.51,30.35 20.99,59.5 15.31,42.63 32.68,94.17 32.68,96.98 0,0.29 0.63,0.52 1.4,0.52 1.4,0 3.88,-7.23 6.54,-19 1.78,-7.88 14.49,-45.39 33.38,-98.5 l 16.36,-46 64.62,-0.53 -0.64,8.27 c -0.99,83.9 -0.66,167.84 -0.66,251.76 h -53.12 l 0.43,-56.75 c 0.24,-32.13 0.91,-61.09 1.55,-66.75 8.24,-73.48 8.38,-72.83 -6.38,-29.68 -8.48,24.8 -46.67,128.74 -47.64,129.65 -0.19,0.18 -7.5,0.48 -16.23,0.68 l -15.88,0.35 -18.85,-50.5 c -10.37,-27.77 -19.78,-53.87 -20.91,-58 -4.5,-16.38 -17.47,-53 -18.8,-53 -0.93,0 -1.16,0.83 -0.75,2.75 0.33,1.51 2,16.03 3.72,32.25 l 3.13,29.5 0.46,59.75 0.45,59.75 h -53.2 z m 620.18,258.75 -77.93,-259.25 h 62.16 l 53.15,204.47 51.44,-203.97 60.64,-0.53 -79.3,260.03 z m 143.58,-0.5 80.74,-258.25 h 71.5 l 79.5,258.25 h -61.4 l -14.94,-60.75 -80.17,0.01 -15.92,60.74 z m 142.58,-106.75 -27.53,-107 -27.31,107.04 z m 169.16,-102 h -72 v -50 h 202 v 50 h -72 v 210 h -58 z m -1547.5,79.92 v -130.08 l 57.25,0.46 c 68.6,0.55 74.9,1.32 96.3,11.68 53.24,25.77 52.63,114.41 -0.97,140.7 a 19.81,19.81 0 0 0 -4.47,2.75 l 27.89,52.67 c 15.12,28.58 29,51.31 29,51.53 0,0.22 -14.68,0.28 -32.63,0.13 l -32.62,-0.26 -19.5,-36.5 c -10.72,-20.07 -20.24,-38.3 -21.16,-40.5 -0.9,-2.2 -3.11,-6.81 -4.89,-10.25 l -3.23,-6.25 h -32.97 v 94 h -58 z m 105.32,-11.88 c 22.1,-4.6 32.6,-20.54 29.48,-44.73 -1.54,-15.22 -14.98,-24.43 -29.3,-25.63 -15.78,-1.33 -47.5,-0.86 -47.5,-0.86 v 73.47 l 21.25,-0.62 c 11.68,-0.35 23.42,-1.08 26.07,-1.63 z m 106.59,140.7 80.74,-258.24 h 71.5 l 79.5,258.25 h -61.4 l -14.94,-60.75 -80.17,0.01 -15.92,60.74 z m 142.58,-106.74 -27.53,-107 -27.3,107.04 z"
   filter="url(#a)"
   id="path3" />
</svg>
