<?xml version="1.0" encoding="UTF-8"?>
<svg id="svg123" width="1116.6" height="427.58" clip-rule="evenodd" fill-rule="evenodd" stroke-linejoin="round" stroke-miterlimit="2" version="1.1" viewBox="0 0 1116.6 427.58" xml:space="preserve" xmlns="http://www.w3.org/2000/svg" xmlns:serif="http://www.serif.com/">
    <g id="Layer-1" transform="matrix(4.1667 0 0 4.1667 -203.44 -192.24)" serif:id="Layer 1">
        <g id="g11" transform="translate(154.56 108.33)">
            <path id="path9" d="m0-1.365c0 0.804-0.18 1.407-0.542 1.795-0.361 0.39-0.857 0.58-1.49 0.58h-14.358c0 1.01 0.118 1.922 0.35 2.732 0.246 0.824 0.623 1.518 1.139 2.096 0.523 0.569 1.19 1.009 2.013 1.307 0.821 0.3 1.805 0.454 2.95 0.454 1.165 0 2.185-0.091 3.061-0.254 0.884-0.171 1.652-0.351 2.293-0.56 0.64-0.195 1.172-0.387 1.596-0.55 0.425-0.171 0.768-0.251 1.03-0.251 0.162 0 0.296 0.024 0.396 0.087 0.109 0.064 0.199 0.173 0.272 0.336 0.061 0.154 0.118 0.378 0.144 0.677 0.027 0.288 0.036 0.65 0.036 1.092 0 0.387-9e-3 0.72-0.026 0.993-0.02 0.269-0.047 0.504-0.083 0.704-0.027 0.189-0.081 0.351-0.152 0.487-0.074 0.136-0.163 0.26-0.281 0.379-0.117 0.126-0.424 0.298-0.938 0.504-0.514 0.209-1.164 0.415-1.958 0.623-0.796 0.199-1.698 0.381-2.718 0.523-1.027 0.156-2.12 0.228-3.285 0.228-2.094 0-3.935-0.264-5.515-0.795-1.57-0.525-2.888-1.326-3.953-2.4-1.056-1.076-1.841-2.438-2.365-4.071-0.513-1.643-0.776-3.566-0.776-5.769 0-2.092 0.271-3.989 0.822-5.668 0.541-1.686 1.337-3.112 2.373-4.287 1.047-1.172 2.312-2.065 3.801-2.68 1.49-0.623 3.167-0.929 5.035-0.929 1.976 0 3.665 0.289 5.065 0.875 1.397 0.578 2.553 1.39 3.448 2.419 0.901 1.03 1.559 2.248 1.984 3.666 0.424 1.407 0.632 2.94 0.632 4.593zm-6.454-1.904c0.054-1.867-0.317-3.34-1.119-4.405-0.803-1.064-2.039-1.598-3.718-1.598-0.847 0-1.58 0.155-2.203 0.47-0.631 0.316-1.147 0.75-1.56 1.282-0.416 0.541-0.732 1.174-0.958 1.905-0.217 0.731-0.342 1.516-0.378 2.346z" fill="#939598" fill-rule="nonzero"/>
        </g>
        <g id="g15" transform="translate(181.93 85.125)">
            <path id="path13" d="m0 34.312c0 0.2-0.046 0.363-0.137 0.498-0.089 0.125-0.234 0.234-0.451 0.324-0.206 0.09-0.497 0.154-0.858 0.19-0.36 0.035-0.802 0.052-1.334 0.052-0.559 0-1.022-0.017-1.372-0.052-0.352-0.036-0.641-0.1-0.867-0.19-0.215-0.09-0.379-0.199-0.468-0.324-0.1-0.135-0.146-0.298-0.146-0.498v-2.616c-1.218 1.308-2.489 2.319-3.826 3.042-1.327 0.722-2.808 1.083-4.424 1.083-1.804 0-3.32-0.343-4.566-1.039-1.237-0.694-2.256-1.635-3.042-2.816-0.786-1.182-1.353-2.563-1.705-4.142-0.353-1.581-0.524-3.241-0.524-4.982 0-2.102 0.225-3.991 0.668-5.661 0.451-1.677 1.11-3.104 1.976-4.285 0.858-1.183 1.941-2.085 3.223-2.719 1.291-0.64 2.77-0.955 4.439-0.955 1.33 0 2.53 0.27 3.601 0.801 1.075 0.543 2.139 1.329 3.196 2.376v-12.771c0-0.182 0.053-0.336 0.144-0.479 0.1-0.145 0.28-0.261 0.532-0.361 0.254-0.09 0.597-0.173 1.023-0.226 0.423-0.044 0.955-0.071 1.606-0.071 0.658 0 1.19 0.027 1.614 0.071 0.424 0.053 0.76 0.136 1.001 0.226 0.256 0.1 0.424 0.216 0.534 0.361 0.109 0.143 0.163 0.297 0.163 0.479zm-6.617-15.757c-0.948-1.201-1.859-2.114-2.734-2.745-0.877-0.641-1.787-0.959-2.733-0.959-0.868 0-1.61 0.221-2.241 0.653-0.622 0.433-1.128 1.01-1.508 1.733-0.377 0.721-0.657 1.525-0.847 2.419-0.179 0.893-0.272 1.805-0.272 2.732 0 0.984 0.082 1.95 0.236 2.882 0.163 0.938 0.415 1.767 0.786 2.5 0.36 0.73 0.84 1.316 1.433 1.761 0.606 0.44 1.364 0.657 2.275 0.657 0.461 0 0.904-0.063 1.338-0.199 0.432-0.127 0.874-0.343 1.324-0.641 0.444-0.307 0.911-0.694 1.382-1.183 0.479-0.478 1.001-1.075 1.561-1.786z" fill="#939598" fill-rule="nonzero"/>
        </g>
        <g id="g19" transform="translate(210.65 84.598)">
            <path id="path17" d="m0 34.839c0 0.182-0.057 0.335-0.154 0.47-0.11 0.125-0.289 0.244-0.533 0.326-0.245 0.09-0.588 0.153-1.02 0.199-0.434 0.045-0.967 0.069-1.598 0.069-0.652 0-1.191-0.024-1.625-0.069-0.433-0.046-0.777-0.109-1.019-0.199-0.244-0.082-0.426-0.201-0.531-0.326-0.102-0.135-0.155-0.288-0.155-0.47v-13.457c0-1.145-0.082-2.041-0.252-2.699-0.174-0.648-0.408-1.208-0.734-1.677-0.316-0.462-0.723-0.823-1.227-1.085-0.496-0.252-1.082-0.378-1.759-0.378-0.838 0-1.698 0.306-2.565 0.921-0.857 0.623-1.76 1.517-2.696 2.698v15.677c0 0.182-0.048 0.335-0.155 0.47-0.108 0.125-0.288 0.244-0.54 0.326-0.263 0.09-0.597 0.153-1.021 0.199-0.426 0.045-0.957 0.069-1.615 0.069-0.652 0-1.194-0.024-1.608-0.069-0.424-0.046-0.766-0.109-1.017-0.199-0.264-0.082-0.446-0.201-0.543-0.326-0.11-0.135-0.165-0.288-0.165-0.47v-34.767c0-0.179 0.055-0.334 0.165-0.477 0.097-0.144 0.279-0.263 0.543-0.352 0.251-0.101 0.593-0.172 1.017-0.225 0.414-0.056 0.956-0.082 1.608-0.082 0.658 0 1.189 0.026 1.615 0.082 0.424 0.053 0.758 0.124 1.021 0.225 0.252 0.089 0.432 0.208 0.54 0.352 0.107 0.143 0.155 0.298 0.155 0.477v13.034c1.143-1.129 2.319-1.968 3.509-2.527 1.183-0.551 2.429-0.83 3.711-0.83 1.607 0 2.959 0.263 4.062 0.795 1.1 0.53 1.994 1.253 2.67 2.165 0.676 0.919 1.166 1.986 1.463 3.212 0.305 1.229 0.453 2.71 0.453 4.46z" fill="#939598" fill-rule="nonzero"/>
        </g>
        <g id="g23" transform="translate(240.55 107.89)">
            <path id="path21" d="m0-0.479c0 2.012-0.27 3.845-0.793 5.504-0.535 1.653-1.336 3.089-2.41 4.279-1.072 1.201-2.42 2.131-4.045 2.781-1.623 0.65-3.518 0.975-5.686 0.975-2.093 0-3.916-0.29-5.468-0.868-1.553-0.584-2.842-1.436-3.864-2.545-1.017-1.11-1.777-2.472-2.275-4.097-0.496-1.617-0.738-3.466-0.738-5.551 0-2.013 0.269-3.846 0.802-5.514 0.541-1.661 1.346-3.088 2.42-4.278 1.082-1.192 2.418-2.111 4.036-2.762 1.615-0.658 3.5-0.984 5.677-0.984 2.112 0 3.942 0.289 5.496 0.856 1.551 0.579 2.832 1.419 3.844 2.529 1.02 1.11 1.768 2.483 2.266 4.096 0.486 1.625 0.738 3.483 0.738 5.579m-6.848 0.271c0-1.164-0.089-2.24-0.281-3.214-0.182-0.983-0.496-1.83-0.937-2.553-0.444-0.723-1.03-1.293-1.764-1.688-0.729-0.406-1.65-0.614-2.758-0.614-0.986 0-1.853 0.178-2.592 0.54-0.74 0.362-1.345 0.895-1.824 1.59-0.478 0.695-0.83 1.533-1.072 2.508-0.236 0.984-0.352 2.094-0.352 3.351 0 1.162 0.088 2.228 0.287 3.212 0.192 0.973 0.504 1.822 0.938 2.553 0.433 0.721 1.019 1.281 1.762 1.678 0.742 0.398 1.652 0.596 2.744 0.596 1.009 0 1.877-0.19 2.625-0.548 0.742-0.362 1.345-0.885 1.824-1.572 0.469-0.686 0.822-1.517 1.055-2.499 0.226-0.977 0.345-2.095 0.345-3.34" fill="#939598" fill-rule="nonzero"/>
        </g>
        <g id="g27" transform="translate(267.7 96.308)">
            <path id="path25" d="m0 23.129c0 0.182-0.045 0.335-0.135 0.47-0.09 0.125-0.242 0.244-0.461 0.326-0.224 0.09-0.513 0.153-0.875 0.199-0.361 0.045-0.812 0.069-1.361 0.069-0.582 0-1.057-0.024-1.42-0.069-0.359-0.046-0.641-0.109-0.855-0.199-0.209-0.082-0.364-0.201-0.454-0.326-0.08-0.135-0.125-0.288-0.125-0.47v-2.717c-1.308 1.409-2.636 2.465-3.98 3.168-1.355 0.704-2.744 1.058-4.188 1.058-1.625 0-2.988-0.264-4.087-0.795-1.102-0.526-1.998-1.246-2.674-2.166-0.676-0.91-1.164-1.979-1.455-3.187-0.285-1.209-0.432-2.705-0.432-4.504v-14.44c0-0.171 0.047-0.334 0.147-0.46 0.089-0.135 0.269-0.246 0.525-0.335 0.258-0.089 0.601-0.152 1.025-0.198 0.434-0.045 0.967-0.062 1.608-0.062 0.65 0 1.189 0.017 1.605 0.062 0.424 0.046 0.766 0.109 1.022 0.198 0.261 0.089 0.441 0.2 0.541 0.335 0.107 0.126 0.162 0.289 0.162 0.46v13.329c0 1.229 0.082 2.176 0.236 2.825 0.16 0.652 0.406 1.211 0.731 1.681 0.322 0.469 0.74 0.83 1.234 1.082 0.508 0.263 1.094 0.389 1.76 0.389 0.851 0 1.697-0.309 2.556-0.929 0.858-0.613 1.768-1.516 2.733-2.698v-15.679c0-0.171 0.055-0.334 0.146-0.46 0.1-0.135 0.28-0.246 0.532-0.335 0.253-0.089 0.597-0.152 1.021-0.198 0.424-0.045 0.955-0.062 1.604-0.062 0.66 0 1.193 0.017 1.617 0.062 0.424 0.046 0.76 0.109 1.004 0.198 0.252 0.089 0.423 0.2 0.533 0.335 0.105 0.126 0.16 0.289 0.16 0.46z" fill="#939598" fill-rule="nonzero"/>
        </g>
        <g id="g31" transform="translate(290.5 102.51)">
            <path id="path29" d="m0 10.265c0 1.343-0.252 2.518-0.756 3.544-0.498 1.021-1.211 1.879-2.123 2.565-0.92 0.684-2.002 1.201-3.258 1.544-1.246 0.343-2.607 0.514-4.072 0.514-0.881 0-1.723-0.064-2.525-0.199-0.803-0.126-1.516-0.298-2.149-0.497-0.64-0.207-1.162-0.413-1.588-0.624-0.424-0.216-0.73-0.412-0.929-0.594-0.188-0.19-0.342-0.479-0.452-0.876-0.099-0.396-0.154-0.984-0.154-1.76 0-0.506 0.02-0.922 0.055-1.226 0.035-0.308 0.09-0.553 0.152-0.742 0.074-0.178 0.164-0.306 0.274-0.37 0.099-0.064 0.232-0.091 0.394-0.091 0.19 0 0.479 0.11 0.86 0.334 0.378 0.218 0.847 0.462 1.416 0.721 0.56 0.263 1.218 0.516 1.968 0.743 0.75 0.235 1.596 0.343 2.545 0.343 0.604 0 1.139-0.063 1.608-0.18 0.457-0.128 0.865-0.3 1.207-0.534 0.353-0.224 0.605-0.515 0.785-0.875 0.172-0.352 0.262-0.756 0.262-1.211 0-0.529-0.163-0.983-0.487-1.362-0.326-0.378-0.758-0.713-1.299-0.993-0.533-0.28-1.138-0.551-1.824-0.793-0.68-0.245-1.371-0.526-2.084-0.821-0.713-0.299-1.41-0.643-2.094-1.031-0.677-0.388-1.283-0.864-1.824-1.425-0.533-0.568-0.965-1.246-1.289-2.041-0.326-0.794-0.486-1.74-0.486-2.853 0-1.126 0.217-2.163 0.656-3.102 0.441-0.948 1.076-1.753 1.906-2.429 0.819-0.667 1.83-1.181 3.02-1.551 1.195-0.371 2.531-0.56 4.008-0.56 0.74 0 1.465 0.052 2.16 0.161 0.693 0.102 1.326 0.235 1.887 0.399 0.566 0.152 1.037 0.326 1.423 0.511 0.389 0.182 0.668 0.347 0.84 0.473 0.162 0.133 0.28 0.269 0.354 0.397 0.07 0.135 0.125 0.296 0.162 0.478 0.037 0.189 0.062 0.415 0.09 0.686 0.027 0.28 0.045 0.613 0.045 1.019 0 0.48-0.018 0.865-0.045 1.164-0.028 0.299-0.075 0.541-0.137 0.714-0.053 0.18-0.145 0.298-0.244 0.361-0.106 0.063-0.233 0.089-0.369 0.089-0.162 0-0.407-0.089-0.741-0.28-0.341-0.178-0.755-0.378-1.261-0.595-0.498-0.207-1.084-0.406-1.744-0.595-0.659-0.181-1.416-0.272-2.254-0.272-0.606 0-1.121 0.055-1.565 0.18-0.439 0.127-0.803 0.3-1.082 0.533-0.289 0.227-0.498 0.497-0.64 0.803-0.135 0.307-0.207 0.643-0.207 0.993 0 0.542 0.16 1.005 0.503 1.372 0.332 0.371 0.768 0.696 1.321 0.984 0.549 0.279 1.162 0.542 1.865 0.796 0.697 0.244 1.4 0.513 2.113 0.803 0.713 0.288 1.418 0.631 2.114 1.02 0.695 0.388 1.316 0.857 1.869 1.426 0.539 0.559 0.982 1.235 1.316 2.022 0.332 0.784 0.504 1.714 0.504 2.79" fill="#939598" fill-rule="nonzero"/>
        </g>
        <g id="g35" transform="translate(316.8 108.33)">
            <path id="path33" d="m0-1.365c0 0.804-0.18 1.407-0.541 1.795-0.361 0.39-0.857 0.58-1.486 0.58h-14.364c0 1.01 0.12 1.922 0.352 2.732 0.246 0.824 0.625 1.518 1.139 2.096 0.523 0.569 1.191 1.009 2.013 1.307 0.823 0.3 1.805 0.454 2.951 0.454 1.166 0 2.184-0.091 3.059-0.254 0.887-0.171 1.652-0.351 2.293-0.56 0.641-0.195 1.174-0.387 1.596-0.55 0.424-0.171 0.769-0.251 1.031-0.251 0.162 0 0.299 0.024 0.398 0.087 0.106 0.064 0.196 0.173 0.27 0.336 0.062 0.154 0.117 0.378 0.143 0.677 0.029 0.288 0.037 0.65 0.037 1.092 0 0.387-8e-3 0.72-0.026 0.993-0.017 0.269-0.047 0.504-0.082 0.704-0.025 0.189-0.082 0.351-0.152 0.487-0.074 0.136-0.164 0.26-0.281 0.379-0.118 0.126-0.424 0.298-0.938 0.504-0.516 0.209-1.166 0.415-1.961 0.623-0.795 0.199-1.695 0.381-2.715 0.523-1.031 0.156-2.123 0.228-3.285 0.228-2.097 0-3.935-0.264-5.513-0.795-1.573-0.525-2.891-1.326-3.958-2.4-1.054-1.076-1.837-2.438-2.361-4.071-0.515-1.643-0.777-3.566-0.777-5.769 0-2.092 0.271-3.989 0.822-5.668 0.541-1.686 1.334-3.112 2.373-4.287 1.047-1.172 2.311-2.065 3.799-2.68 1.49-0.623 3.168-0.929 5.035-0.929 1.979 0 3.666 0.289 5.065 0.875 1.398 0.578 2.554 1.39 3.449 2.419 0.902 1.03 1.56 2.248 1.984 3.666 0.424 1.407 0.631 2.94 0.631 4.593zm-6.453-1.904c0.057-1.867-0.315-3.34-1.115-4.405-0.807-1.064-2.041-1.598-3.721-1.598-0.85 0-1.578 0.155-2.203 0.47-0.631 0.316-1.147 0.75-1.563 1.282-0.416 0.541-0.73 1.174-0.955 1.905-0.217 0.731-0.344 1.516-0.381 2.346z" fill="#939598" fill-rule="nonzero"/>
        </g>
        <g id="g39" transform="matrix(82.821 -49.402 -50.898 -85.329 40.17 97.924)">
            <path id="path37" d="m0.333 0.363c-0.054-0.045-0.082-0.209-0.081-0.391 2e-3 -0.213 0.045-0.443 0.124-0.456 0.112-0.02 0.298 0.088 0.421 0.198 0.104 0.092 0.168 0.19 0.138 0.244-0.042 0.078-0.174 0.191-0.303 0.278-0.032 0.022-0.064 0.042-0.095 0.06-0.095 0.055-0.178 0.088-0.204 0.067zm0.087-0.129c0.021 0.021 0.11-0.021 0.197-0.08 0.087-0.058 0.176-0.134 0.202-0.186 0.019-0.036-0.029-0.098-0.1-0.152-0.079-0.062-0.189-0.115-0.254-0.1-0.041 8e-3 -0.068 0.094-0.078 0.212 0.054 0.018 0.115 0.059 0.106 0.08-0.011 0.027-0.066 0.069-0.11 0.093 3e-3 0.048 7e-3 0.103 0.037 0.133z" fill="url(#_Linear1)" fill-rule="nonzero"/>
        </g>
        <g id="g43" transform="translate(145.36 139.15)">
            <path id="path41" d="m0 3.776c0 0.422-0.078 0.801-0.234 1.131s-0.378 0.609-0.666 0.836c-0.288 0.226-0.632 0.398-1.03 0.513-0.398 0.118-0.837 0.176-1.314 0.176-0.295 0-0.575-0.023-0.84-0.068-0.268-0.047-0.507-0.104-0.717-0.176-0.212-0.07-0.392-0.142-0.539-0.221-0.146-0.074-0.253-0.144-0.321-0.205-0.067-0.06-0.116-0.148-0.147-0.257-0.03-0.112-0.046-0.258-0.046-0.452 0-0.117 6e-3 -0.213 0.019-0.295 0.011-0.076 0.027-0.142 0.046-0.191 0.018-0.051 0.044-0.086 0.077-0.105 0.035-0.022 0.072-0.032 0.115-0.032 0.068 0 0.167 0.041 0.3 0.121 0.131 0.084 0.293 0.176 0.485 0.274 0.194 0.097 0.422 0.187 0.686 0.269 0.263 0.084 0.566 0.127 0.91 0.127 0.257 0 0.489-0.029 0.698-0.084 0.208-0.056 0.389-0.136 0.542-0.244 0.153-0.107 0.271-0.242 0.354-0.408 0.082-0.168 0.124-0.361 0.124-0.588 0-0.234-0.06-0.43-0.179-0.588-0.12-0.16-0.278-0.301-0.473-0.424-0.197-0.121-0.417-0.23-0.663-0.326-0.244-0.095-0.497-0.195-0.757-0.301-0.261-0.099-0.514-0.218-0.763-0.353-0.248-0.129-0.47-0.291-0.666-0.48-0.196-0.191-0.354-0.417-0.474-0.682-0.119-0.262-0.178-0.577-0.178-0.945 0-0.325 0.062-0.638 0.188-0.933 0.125-0.297 0.313-0.558 0.565-0.782 0.251-0.223 0.565-0.403 0.942-0.536 0.376-0.136 0.816-0.203 1.319-0.203 0.221 0 0.441 0.017 0.661 0.056 0.222 0.035 0.42 0.081 0.598 0.136 0.177 0.057 0.329 0.115 0.455 0.179 0.125 0.067 0.22 0.123 0.284 0.171 0.065 0.05 0.108 0.092 0.129 0.131 0.021 0.035 0.037 0.076 0.046 0.122 9e-3 0.045 0.018 0.102 0.027 0.172 0.01 0.065 0.014 0.148 0.014 0.247 0 0.102-4e-3 0.193-0.014 0.27-9e-3 0.076-0.024 0.14-0.045 0.189-0.022 0.05-0.048 0.085-0.079 0.105-0.031 0.022-0.064 0.032-0.101 0.032-0.055 0-0.134-0.033-0.238-0.102-0.105-0.066-0.24-0.138-0.405-0.215-0.166-0.075-0.36-0.148-0.584-0.215-0.223-0.067-0.479-0.102-0.767-0.102-0.258 0-0.484 0.028-0.679 0.089-0.197 0.057-0.357 0.138-0.484 0.248-0.125 0.106-0.221 0.234-0.284 0.38-0.065 0.148-0.097 0.305-0.097 0.477 0 0.24 0.061 0.441 0.184 0.603 0.122 0.163 0.282 0.304 0.477 0.426 0.196 0.122 0.42 0.235 0.672 0.333 0.251 0.098 0.506 0.2 0.767 0.301 0.261 0.106 0.517 0.221 0.772 0.35 0.254 0.129 0.479 0.285 0.676 0.469 0.195 0.184 0.354 0.404 0.472 0.662 0.12 0.258 0.18 0.563 0.18 0.918" fill="#939598" fill-rule="nonzero"/>
        </g>
        <g id="g47" transform="translate(153.65 141.03)">
            <path id="path45" d="m0 0.03c0-0.449-0.043-0.872-0.126-1.268-0.083-0.399-0.221-0.75-0.413-1.049-0.191-0.299-0.452-0.537-0.779-0.712-0.328-0.175-0.736-0.263-1.224-0.263-0.451 0-0.839 0.082-1.164 0.24-0.324 0.159-0.592 0.384-0.802 0.676-0.21 0.291-0.366 0.635-0.468 1.034-0.102 0.397-0.153 0.833-0.153 1.303 0 0.455 0.042 0.881 0.126 1.277 0.083 0.399 0.222 0.748 0.416 1.043 0.195 0.297 0.457 0.533 0.784 0.709 0.328 0.174 0.736 0.262 1.224 0.262 0.446 0 0.831-0.078 1.159-0.238s0.597-0.381 0.807-0.672c0.21-0.289 0.365-0.631 0.464-1.03 0.098-0.396 0.149-0.835 0.149-1.312m1.57-0.104c0 0.676-0.089 1.297-0.266 1.864-0.178 0.566-0.442 1.054-0.795 1.463-0.352 0.414-0.793 0.732-1.323 0.963-0.53 0.228-1.144 0.343-1.843 0.343-0.68 0-1.272-0.101-1.778-0.302-0.505-0.202-0.927-0.497-1.263-0.883-0.338-0.387-0.588-0.856-0.755-1.407-0.164-0.55-0.247-1.175-0.247-1.875 0-0.672 0.087-1.292 0.262-1.859 0.174-0.567 0.438-1.055 0.79-1.467 0.353-0.408 0.792-0.728 1.319-0.955 0.527-0.226 1.142-0.34 1.847-0.34 0.68 0 1.273 0.101 1.778 0.305 0.506 0.199 0.927 0.493 1.264 0.882 0.337 0.385 0.59 0.854 0.757 1.404 0.169 0.552 0.253 1.174 0.253 1.864" fill="#939598" fill-rule="nonzero"/>
        </g>
        <g id="g51" transform="translate(159.38 140.18)">
            <path id="path49" d="m0-2.249v7.251c0 0.049-0.012 0.088-0.037 0.124-0.025 0.035-0.065 0.062-0.124 0.085-0.058 0.026-0.136 0.043-0.234 0.057-0.098 0.012-0.22 0.018-0.367 0.018s-0.271-6e-3 -0.368-0.018c-0.099-0.014-0.177-0.031-0.234-0.057-0.059-0.023-0.1-0.05-0.125-0.085-0.024-0.036-0.037-0.075-0.037-0.124v-7.251h-1.167c-0.098 0-0.172-0.05-0.221-0.147-0.048-0.099-0.073-0.258-0.073-0.479 0-0.115 7e-3 -0.213 0.019-0.293 0.011-0.082 0.03-0.146 0.054-0.198 0.025-0.052 0.057-0.09 0.094-0.111 0.036-0.021 0.078-0.031 0.127-0.031h1.167v-0.854c0-0.577 0.054-1.072 0.162-1.485 0.107-0.413 0.269-0.753 0.487-1.014 0.217-0.266 0.493-0.459 0.826-0.586 0.335-0.125 0.727-0.189 1.181-0.189 0.227 0 0.447 0.025 0.662 0.071 0.214 0.045 0.367 0.087 0.46 0.129 0.091 0.038 0.156 0.078 0.192 0.114 0.037 0.036 0.066 0.084 0.088 0.141 0.021 0.06 0.037 0.13 0.046 0.211 9e-3 0.083 0.014 0.185 0.014 0.301 0 0.115-5e-3 0.209-0.014 0.279-9e-3 0.071-0.023 0.127-0.042 0.17-0.018 0.044-0.04 0.073-0.064 0.088-0.025 0.015-0.052 0.023-0.082 0.023-0.05 0-0.105-0.015-0.166-0.043s-0.139-0.057-0.229-0.09c-0.093-0.035-0.202-0.066-0.327-0.091-0.126-0.028-0.271-0.042-0.436-0.042-0.227 0-0.419 0.035-0.575 0.107-0.157 0.074-0.283 0.191-0.381 0.348-0.098 0.155-0.17 0.357-0.216 0.606-0.046 0.248-0.069 0.548-0.069 0.906v0.9h3.732v-1.969c0-0.042 0.011-0.081 0.036-0.119 0.023-0.036 0.064-0.069 0.119-0.095 0.055-0.029 0.131-0.047 0.229-0.062 0.098-0.01 0.225-0.017 0.378-0.017 0.146 0 0.269 7e-3 0.367 0.017 0.098 0.015 0.174 0.033 0.231 0.062 0.054 0.026 0.094 0.059 0.118 0.095 0.025 0.038 0.037 0.077 0.037 0.119v1.969h2.114c0.048 0 0.093 0.01 0.133 0.031s0.072 0.059 0.097 0.111c0.023 0.052 0.044 0.116 0.06 0.198 0.016 0.08 0.023 0.178 0.023 0.293 0 0.221-0.029 0.38-0.083 0.479-0.056 0.097-0.129 0.147-0.221 0.147h-2.123v4.611c0 0.572 0.083 1.002 0.248 1.293 0.165 0.289 0.469 0.437 0.91 0.437 0.135 0 0.259-0.013 0.372-0.043 0.113-0.027 0.212-0.054 0.299-0.086 0.085-0.033 0.161-0.06 0.225-0.089 0.064-0.028 0.118-0.041 0.161-0.041 0.036 0 0.067 9e-3 0.092 0.025 0.024 0.014 0.044 0.043 0.06 0.086 0.014 0.043 0.027 0.101 0.042 0.176 0.011 0.074 0.018 0.164 0.018 0.273 0 0.178-0.015 0.32-0.042 0.424-0.028 0.103-0.066 0.182-0.114 0.23-0.05 0.049-0.12 0.094-0.213 0.137-0.091 0.043-0.2 0.078-0.326 0.106-0.125 0.027-0.26 0.05-0.404 0.07-0.144 0.016-0.284 0.027-0.418 0.027-0.436 0-0.806-0.056-1.112-0.172-0.306-0.111-0.557-0.283-0.753-0.515-0.197-0.227-0.339-0.52-0.428-0.871-0.089-0.354-0.132-0.766-0.132-1.246v-4.832z" fill="#939598" fill-rule="nonzero"/>
        </g>
        <g id="g55" transform="translate(180.61 145.2)">
            <path id="path53" d="m0-8.307c0 0.043-5e-3 0.095-0.018 0.156-0.012 0.061-0.035 0.138-0.062 0.23l-2.437 7.858c-0.017 0.068-0.047 0.121-0.087 0.166-0.039 0.041-0.095 0.076-0.165 0.101-0.07 0.022-0.168 0.039-0.291 0.049-0.122 0.01-0.276 0.014-0.459 0.014-0.19 0-0.349-6e-3 -0.479-0.018-0.126-0.014-0.231-0.031-0.306-0.056-0.077-0.024-0.134-0.057-0.17-0.102-0.038-0.041-0.065-0.094-0.084-0.154l-1.736-6.003-0.018-0.081-0.018 0.081-1.609 6.003c-0.018 0.068-0.046 0.121-0.088 0.166-0.039 0.041-0.098 0.076-0.179 0.101-0.081 0.022-0.182 0.039-0.308 0.049s-0.28 0.014-0.462 0.014c-0.192 0-0.347-6e-3 -0.465-0.018-0.12-0.014-0.217-0.031-0.295-0.056-0.077-0.024-0.133-0.057-0.17-0.102-0.036-0.041-0.064-0.094-0.082-0.154l-2.417-7.858c-0.03-0.092-0.053-0.169-0.065-0.23s-0.018-0.113-0.018-0.156c0-0.056 0.011-0.1 0.035-0.133 0.025-0.035 0.067-0.063 0.127-0.084 0.057-0.021 0.136-0.035 0.235-0.042 0.097-3e-3 0.216-8e-3 0.356-8e-3 0.172 0 0.31 5e-3 0.413 0.015 0.106 7e-3 0.186 0.024 0.24 0.046 0.055 0.021 0.095 0.052 0.121 0.09 0.023 0.041 0.045 0.089 0.063 0.144l1.996 6.819 0.017 0.08 0.018-0.08 1.829-6.819c0.012-0.055 0.033-0.103 0.059-0.144 0.028-0.038 0.068-0.069 0.125-0.09 0.055-0.022 0.129-0.039 0.223-0.046 0.097-0.01 0.221-0.015 0.375-0.015 0.147 0 0.266 5e-3 0.36 0.015 0.097 7e-3 0.172 0.024 0.228 0.046 0.053 0.021 0.095 0.049 0.12 0.087 0.024 0.035 0.041 0.079 0.053 0.128l1.976 6.838 0.018 0.08 0.011-0.08 1.966-6.819c0.012-0.055 0.033-0.103 0.059-0.144 0.028-0.038 0.071-0.069 0.128-0.09 0.059-0.022 0.14-0.039 0.24-0.046 0.101-0.01 0.231-0.015 0.39-0.015 0.147 0 0.266 5e-3 0.353 8e-3 0.09 7e-3 0.162 0.024 0.212 0.047 0.053 0.025 0.089 0.053 0.11 0.082 0.021 0.032 0.032 0.074 0.032 0.13" fill="#939598" fill-rule="nonzero"/>
        </g>
        <g id="g59" transform="translate(187.01 140.67)">
            <path id="path57" d="m0 0.741h-1.297c-0.416 0-0.778 0.037-1.084 0.107-0.306 0.073-0.56 0.174-0.763 0.315-0.201 0.135-0.35 0.301-0.446 0.494-0.095 0.195-0.142 0.416-0.142 0.666 0 0.43 0.137 0.772 0.409 1.025 0.272 0.254 0.654 0.381 1.144 0.381 0.399 0 0.768-0.099 1.108-0.302 0.341-0.204 0.696-0.512 1.071-0.928zm1.507 3.779c0 0.073-0.025 0.129-0.073 0.166-0.05 0.035-0.119 0.065-0.204 0.082-0.085 0.018-0.209 0.028-0.376 0.028-0.159 0-0.285-0.01-0.381-0.028-0.095-0.017-0.163-0.047-0.207-0.082-0.044-0.037-0.065-0.093-0.065-0.166v-0.826c-0.361 0.385-0.763 0.686-1.208 0.899-0.444 0.214-0.913 0.322-1.41 0.322-0.435 0-0.83-0.055-1.18-0.17-0.354-0.113-0.655-0.275-0.902-0.492-0.248-0.213-0.441-0.477-0.579-0.791-0.136-0.313-0.207-0.664-0.207-1.065 0-0.465 0.095-0.869 0.285-1.215 0.189-0.339 0.463-0.625 0.818-0.853 0.355-0.226 0.791-0.396 1.306-0.51s1.092-0.17 1.736-0.17h1.14v-0.644c0-0.318-0.033-0.598-0.102-0.844-0.067-0.245-0.176-0.45-0.327-0.612-0.149-0.162-0.343-0.284-0.583-0.367-0.238-0.083-0.531-0.123-0.882-0.123-0.373 0-0.709 0.043-1.006 0.133-0.298 0.088-0.557 0.185-0.781 0.294-0.224 0.106-0.41 0.205-0.561 0.295-0.15 0.086-0.261 0.131-0.335 0.131-0.049 0-0.091-0.01-0.128-0.038-0.037-0.022-0.068-0.058-0.096-0.108-0.029-0.049-0.05-0.111-0.06-0.19-0.014-0.077-0.019-0.16-0.019-0.251 0-0.154 0.01-0.275 0.033-0.364 0.021-0.088 0.074-0.172 0.154-0.253 0.084-0.08 0.226-0.173 0.429-0.279 0.201-0.108 0.434-0.207 0.698-0.295 0.263-0.089 0.552-0.163 0.863-0.221 0.314-0.058 0.628-0.087 0.947-0.087 0.595 0 1.1 0.068 1.516 0.204 0.417 0.132 0.755 0.332 1.011 0.591 0.257 0.262 0.445 0.585 0.561 0.97 0.115 0.385 0.175 0.837 0.175 1.352z" fill="#939598" fill-rule="nonzero"/>
        </g>
        <g id="g63" transform="translate(196.14 144.51)">
            <path id="path61" d="m0-7.059c0 0.135-4e-3 0.249-0.011 0.34-6e-3 0.092-0.017 0.165-0.035 0.218-0.019 0.052-0.042 0.091-0.07 0.118-0.028 0.028-0.067 0.042-0.115 0.042-0.049 0-0.108-0.014-0.178-0.042-0.07-0.027-0.151-0.055-0.238-0.083-0.09-0.027-0.19-0.053-0.3-0.077-0.111-0.026-0.23-0.037-0.359-0.037-0.154 0-0.302 0.03-0.451 0.093-0.146 0.059-0.303 0.16-0.463 0.301-0.163 0.143-0.332 0.328-0.511 0.562-0.176 0.233-0.373 0.518-0.588 0.855v5.441c0 0.049-0.01 0.088-0.035 0.123s-0.065 0.063-0.122 0.086c-0.053 0.025-0.13 0.043-0.228 0.057-0.098 0.011-0.225 0.017-0.377 0.017-0.147 0-0.271-6e-3 -0.367-0.017-0.1-0.014-0.177-0.032-0.235-0.057-0.057-0.023-0.097-0.051-0.121-0.086-0.02-0.035-0.031-0.074-0.031-0.123v-8.273c0-0.049 0.011-0.091 0.028-0.122 0.018-0.035 0.056-0.066 0.111-0.093 0.053-0.028 0.124-0.048 0.211-0.055 0.084-9e-3 0.199-0.014 0.339-0.014 0.135 0 0.248 5e-3 0.336 0.014 0.088 7e-3 0.159 0.027 0.207 0.055 0.049 0.027 0.084 0.058 0.106 0.093 0.02 0.031 0.031 0.073 0.031 0.122v1.204c0.228-0.33 0.442-0.6 0.641-0.808 0.197-0.209 0.385-0.371 0.563-0.492 0.179-0.119 0.354-0.202 0.529-0.247 0.175-0.048 0.349-0.07 0.529-0.07 0.08 0 0.17 4e-3 0.271 0.014 0.1 8e-3 0.206 0.027 0.317 0.049 0.11 0.027 0.21 0.052 0.297 0.084 0.091 0.032 0.152 0.061 0.189 0.091 0.037 0.031 0.062 0.06 0.074 0.088 0.012 0.027 0.024 0.063 0.032 0.105 9e-3 0.045 0.017 0.107 0.018 0.188 5e-3 0.085 6e-3 0.197 6e-3 0.336" fill="#939598" fill-rule="nonzero"/>
        </g>
        <g id="g67" transform="translate(203.15 141.85)">
            <path id="path65" d="m0-1.61c0.018-0.795-0.16-1.42-0.533-1.873s-0.926-0.679-1.66-0.679c-0.375 0-0.705 0.07-0.991 0.209-0.283 0.141-0.519 0.33-0.711 0.561-0.191 0.234-0.337 0.504-0.443 0.814-0.105 0.31-0.164 0.631-0.176 0.968zm1.523 0.451c0 0.24-0.058 0.41-0.179 0.511-0.119 0.1-0.256 0.151-0.41 0.151h-5.448c0 0.459 0.047 0.873 0.139 1.24 0.094 0.367 0.246 0.684 0.463 0.949 0.215 0.262 0.494 0.465 0.84 0.606 0.343 0.138 0.765 0.209 1.265 0.209 0.393 0 0.745-0.032 1.051-0.094 0.309-0.065 0.574-0.137 0.801-0.219 0.225-0.078 0.41-0.15 0.553-0.215 0.144-0.064 0.254-0.095 0.33-0.095 0.041 0 0.08 9e-3 0.113 0.031 0.033 0.021 0.061 0.055 0.078 0.098 0.018 0.043 0.031 0.101 0.043 0.179 8e-3 0.076 0.014 0.168 0.014 0.28 0 0.082-4e-3 0.146-0.01 0.207-6e-3 0.056-0.016 0.109-0.021 0.156-0.012 0.047-0.026 0.086-0.047 0.123-0.022 0.037-0.051 0.072-0.082 0.105-0.036 0.035-0.135 0.09-0.301 0.166-0.164 0.077-0.379 0.153-0.643 0.227-0.263 0.072-0.568 0.139-0.914 0.195-0.345 0.059-0.717 0.088-1.107 0.088-0.682 0-1.276-0.094-1.787-0.283-0.512-0.191-0.942-0.473-1.291-0.848-0.352-0.373-0.614-0.84-0.791-1.404-0.178-0.563-0.268-1.219-0.268-1.967 0-0.71 0.094-1.35 0.277-1.917 0.184-0.565 0.448-1.048 0.795-1.442 0.346-0.395 0.764-0.699 1.254-0.91 0.489-0.212 1.039-0.317 1.645-0.317 0.65 0 1.203 0.105 1.66 0.311 0.455 0.21 0.83 0.49 1.125 0.842 0.293 0.353 0.51 0.766 0.648 1.241 0.137 0.475 0.205 0.981 0.205 1.52z" fill="#939598" fill-rule="nonzero"/>
        </g>
        <g id="g71" transform="translate(216.8 138.87)">
            <path id="path69" d="m0 0.497c-0.412-0.507-0.811-0.896-1.191-1.162-0.383-0.267-0.784-0.399-1.202-0.399-0.384 0-0.712 0.09-0.98 0.274-0.273 0.184-0.49 0.426-0.658 0.726-0.17 0.302-0.291 0.641-0.367 1.02-0.077 0.381-0.116 0.767-0.116 1.159 0 0.416 0.032 0.824 0.096 1.22 0.066 0.401 0.178 0.754 0.334 1.063 0.162 0.31 0.373 0.558 0.637 0.744 0.261 0.186 0.593 0.281 0.992 0.281 0.201 0 0.396-0.029 0.582-0.084 0.187-0.052 0.379-0.146 0.574-0.273 0.197-0.129 0.403-0.299 0.617-0.504 0.215-0.203 0.442-0.455 0.682-0.756zm1.523 5.819c0 0.049-9e-3 0.092-0.033 0.127-0.021 0.037-0.056 0.064-0.109 0.086-0.051 0.023-0.121 0.039-0.205 0.052-0.088 0.012-0.192 0.018-0.315 0.018-0.127 0-0.236-6e-3 -0.322-0.018-0.084-0.013-0.154-0.029-0.211-0.052-0.055-0.022-0.094-0.049-0.119-0.086-0.023-0.035-0.037-0.078-0.037-0.127v-1.096c-0.436 0.473-0.887 0.84-1.354 1.104-0.47 0.263-0.982 0.394-1.539 0.394-0.607 0-1.125-0.117-1.554-0.353-0.43-0.235-0.778-0.553-1.043-0.957-0.268-0.401-0.461-0.871-0.584-1.412-0.121-0.545-0.184-1.116-0.184-1.717 0-0.711 0.078-1.352 0.231-1.926 0.152-0.57 0.378-1.06 0.679-1.463 0.301-0.406 0.672-0.718 1.117-0.934 0.446-0.218 0.955-0.326 1.539-0.326 0.485 0 0.926 0.105 1.329 0.317 0.4 0.211 0.798 0.523 1.191 0.933v-4.807c0-0.041 0.01-0.085 0.029-0.123 0.024-0.042 0.065-0.071 0.125-0.093 0.063-0.022 0.139-0.04 0.233-0.054 0.097-0.017 0.218-0.024 0.365-0.024 0.154 0 0.277 7e-3 0.377 0.024 0.098 0.014 0.174 0.032 0.228 0.054 0.057 0.022 0.098 0.051 0.127 0.093 0.026 0.038 0.039 0.082 0.039 0.123z" fill="#939598" fill-rule="nonzero"/>
        </g>
        <g id="g75" transform="translate(226.65 141.85)">
            <path id="path73" d="m0-1.61c0.018-0.795-0.16-1.42-0.533-1.873-0.371-0.453-0.926-0.679-1.658-0.679-0.377 0-0.705 0.07-0.989 0.209-0.285 0.141-0.521 0.33-0.713 0.561-0.191 0.234-0.339 0.504-0.443 0.814-0.105 0.31-0.164 0.631-0.176 0.968zm1.523 0.451c0 0.24-0.058 0.41-0.177 0.511-0.121 0.1-0.258 0.151-0.412 0.151h-5.446c0 0.459 0.045 0.873 0.137 1.24 0.094 0.367 0.248 0.684 0.463 0.949 0.215 0.262 0.496 0.465 0.84 0.606 0.343 0.138 0.767 0.209 1.263 0.209 0.395 0 0.747-0.032 1.055-0.094 0.307-0.065 0.572-0.137 0.797-0.219 0.227-0.078 0.41-0.15 0.555-0.215 0.146-0.064 0.256-0.095 0.328-0.095 0.043 0 0.082 9e-3 0.115 0.031 0.035 0.021 0.059 0.055 0.078 0.098 0.02 0.043 0.035 0.101 0.043 0.179 8e-3 0.076 0.014 0.168 0.014 0.28 0 0.082-2e-3 0.146-8e-3 0.207-8e-3 0.056-0.014 0.109-0.025 0.156-0.01 0.047-0.024 0.086-0.045 0.123-0.022 0.037-0.049 0.072-0.084 0.105-0.032 0.035-0.131 0.09-0.299 0.166-0.164 0.077-0.379 0.153-0.643 0.227-0.263 0.072-0.568 0.139-0.914 0.195-0.347 0.059-0.715 0.088-1.107 0.088-0.68 0-1.276-0.094-1.787-0.283-0.512-0.191-0.944-0.473-1.291-0.848-0.35-0.373-0.614-0.84-0.789-1.404-0.18-0.563-0.268-1.219-0.268-1.967 0-0.71 0.092-1.35 0.275-1.917 0.184-0.565 0.448-1.048 0.795-1.442 0.346-0.395 0.766-0.699 1.256-0.91 0.488-0.212 1.037-0.317 1.643-0.317 0.65 0 1.203 0.105 1.66 0.311 0.457 0.21 0.832 0.49 1.125 0.842 0.293 0.353 0.512 0.766 0.648 1.241 0.137 0.475 0.205 0.981 0.205 1.52z" fill="#939598" fill-rule="nonzero"/>
        </g>
        <g id="g79" transform="translate(237.18 145.2)">
            <path id="path77" d="m0-8.307c0 0.024 0 0.05-4e-3 0.078-4e-3 0.026-8e-3 0.058-0.014 0.087-7e-3 0.031-0.013 0.064-0.025 0.102-6e-3 0.036-0.018 0.077-0.031 0.119l-2.822 7.858c-0.024 0.068-0.055 0.121-0.094 0.166-0.041 0.041-0.102 0.076-0.18 0.101-0.078 0.022-0.182 0.039-0.303 0.049-0.123 0.01-0.277 0.014-0.459 0.014-0.185 0-0.339-6e-3 -0.463-0.018-0.121-0.014-0.218-0.031-0.296-0.056-0.077-0.024-0.137-0.057-0.178-0.102-0.045-0.041-0.078-0.094-0.102-0.154l-2.81-7.858c-0.026-0.074-0.047-0.137-0.061-0.193-0.017-0.056-0.025-0.096-0.029-0.125-2e-3 -0.025-4e-3 -0.05-4e-3 -0.068 0-0.049 0.012-0.091 0.037-0.13 0.024-0.034 0.067-0.066 0.123-0.087 0.059-0.021 0.135-0.035 0.231-0.042 0.093-3e-3 0.213-8e-3 0.353-8e-3 0.178 0 0.32 5e-3 0.426 0.015 0.109 7e-3 0.191 0.024 0.25 0.049s0.1 0.057 0.129 0.092c0.027 0.038 0.053 0.084 0.076 0.139l2.336 6.819 0.035 0.11 0.027-0.11 2.307-6.819c0.014-0.055 0.035-0.101 0.065-0.139 0.031-0.035 0.076-0.067 0.134-0.092 0.057-0.025 0.139-0.042 0.241-0.049 0.099-0.01 0.234-0.015 0.398-0.015 0.141 0 0.258 5e-3 0.35 8e-3 0.091 7e-3 0.162 0.024 0.214 0.047 0.053 0.025 0.09 0.055 0.112 0.088 0.021 0.033 0.031 0.075 0.031 0.124" fill="#939598" fill-rule="nonzero"/>
        </g>
        <g id="g83" transform="translate(244.24 141.85)">
            <path id="path81" d="m0-1.61c0.018-0.795-0.16-1.42-0.533-1.873s-0.926-0.679-1.658-0.679c-0.377 0-0.707 0.07-0.993 0.209-0.281 0.141-0.519 0.33-0.711 0.561-0.191 0.234-0.337 0.504-0.443 0.814-0.105 0.31-0.162 0.631-0.176 0.968zm1.525 0.451c0 0.24-0.06 0.41-0.181 0.511-0.119 0.1-0.256 0.151-0.41 0.151h-5.448c0 0.459 0.047 0.873 0.139 1.24 0.094 0.367 0.248 0.684 0.463 0.949 0.215 0.262 0.494 0.465 0.84 0.606 0.343 0.138 0.767 0.209 1.265 0.209 0.395 0 0.745-0.032 1.053-0.094 0.307-0.065 0.572-0.137 0.799-0.219 0.225-0.078 0.41-0.15 0.553-0.215 0.144-0.064 0.254-0.095 0.33-0.095 0.041 0 0.08 9e-3 0.113 0.031 0.033 0.021 0.063 0.055 0.078 0.098 0.02 0.043 0.031 0.101 0.043 0.179 8e-3 0.076 0.014 0.168 0.014 0.28 0 0.082-4e-3 0.146-0.012 0.207-4e-3 0.056-0.014 0.109-0.019 0.156-0.01 0.047-0.026 0.086-0.047 0.123-0.022 0.037-0.049 0.072-0.082 0.105-0.036 0.035-0.133 0.09-0.301 0.166-0.164 0.077-0.379 0.153-0.641 0.227-0.265 0.072-0.57 0.139-0.916 0.195-0.345 0.059-0.717 0.088-1.107 0.088-0.68 0-1.276-0.094-1.787-0.283-0.51-0.191-0.942-0.473-1.291-0.848-0.35-0.373-0.614-0.84-0.791-1.404-0.178-0.563-0.266-1.219-0.266-1.967 0-0.71 0.092-1.35 0.277-1.917 0.182-0.565 0.446-1.048 0.793-1.442 0.348-0.395 0.764-0.699 1.254-0.91 0.49-0.212 1.039-0.317 1.645-0.317 0.65 0 1.203 0.105 1.66 0.311 0.455 0.21 0.83 0.49 1.125 0.842 0.295 0.353 0.51 0.766 0.648 1.241 0.137 0.475 0.207 0.981 0.207 1.52z" fill="#939598" fill-rule="nonzero"/>
        </g>
        <g id="g87" transform="translate(249.59 132.89)">
            <path id="path85" d="m0 12.289c0 0.049-0.014 0.088-0.037 0.123-0.024 0.035-0.063 0.063-0.119 0.086-0.057 0.025-0.133 0.043-0.231 0.057-0.097 0.011-0.224 0.017-0.375 0.017-0.148 0-0.271-6e-3 -0.367-0.017-0.101-0.014-0.18-0.032-0.236-0.057-0.059-0.023-0.096-0.051-0.119-0.086-0.022-0.035-0.034-0.074-0.034-0.123v-12.278c0-0.05 0.012-0.095 0.034-0.13 0.023-0.038 0.06-0.066 0.119-0.091 0.056-0.024 0.135-0.043 0.236-0.056 0.096-0.011 0.219-0.017 0.367-0.017 0.151 0 0.278 6e-3 0.375 0.017 0.098 0.013 0.174 0.032 0.231 0.056 0.056 0.025 0.095 0.053 0.119 0.091 0.023 0.035 0.037 0.08 0.037 0.13z" fill="#939598" fill-rule="nonzero"/>
        </g>
        <g id="g91" transform="translate(258.52 141.03)">
            <path id="path89" d="m0 0.03c0-0.449-0.043-0.872-0.127-1.268-0.082-0.399-0.221-0.75-0.41-1.049-0.193-0.299-0.453-0.537-0.781-0.712s-0.735-0.263-1.225-0.263c-0.449 0-0.838 0.082-1.164 0.24-0.322 0.159-0.592 0.384-0.801 0.676-0.211 0.291-0.367 0.635-0.469 1.034-0.103 0.397-0.152 0.833-0.152 1.303 0 0.455 0.041 0.881 0.125 1.277 0.084 0.399 0.223 0.748 0.418 1.043 0.193 0.297 0.457 0.533 0.781 0.709 0.33 0.174 0.737 0.262 1.227 0.262 0.443 0 0.83-0.078 1.158-0.238s0.598-0.381 0.807-0.672c0.211-0.289 0.365-0.631 0.463-1.03 0.099-0.396 0.15-0.835 0.15-1.312m1.57-0.104c0 0.676-0.09 1.297-0.267 1.864-0.178 0.566-0.442 1.054-0.793 1.463-0.354 0.414-0.795 0.732-1.324 0.963-0.528 0.228-1.145 0.343-1.842 0.343-0.682 0-1.274-0.101-1.778-0.302-0.505-0.202-0.927-0.497-1.265-0.883-0.336-0.387-0.588-0.856-0.754-1.407-0.164-0.55-0.246-1.175-0.246-1.875 0-0.672 0.088-1.292 0.26-1.859 0.175-0.567 0.439-1.055 0.789-1.467 0.355-0.408 0.795-0.728 1.32-0.955 0.527-0.226 1.142-0.34 1.848-0.34 0.679 0 1.271 0.101 1.777 0.305 0.506 0.199 0.926 0.493 1.266 0.882 0.335 0.385 0.589 0.854 0.755 1.404 0.17 0.552 0.254 1.174 0.254 1.864" fill="#939598" fill-rule="nonzero"/>
        </g>
        <g id="g95" transform="translate(268.36 144.16)">
            <path id="path93" d="m0-3.072c0-0.42-0.033-0.831-0.098-1.227-0.066-0.395-0.175-0.744-0.332-1.051-0.158-0.306-0.369-0.552-0.634-0.736-0.266-0.184-0.596-0.274-0.989-0.274-0.197 0-0.392 0.028-0.584 0.087-0.189 0.056-0.384 0.149-0.58 0.276-0.199 0.124-0.406 0.289-0.621 0.494-0.215 0.207-0.443 0.46-0.685 0.761v3.287c0.419 0.51 0.816 0.899 1.193 1.168 0.375 0.27 0.771 0.403 1.184 0.403 0.382 0 0.71-0.09 0.984-0.274 0.275-0.185 0.498-0.43 0.668-0.734 0.17-0.307 0.293-0.651 0.373-1.03 0.078-0.38 0.121-0.763 0.121-1.15m1.57-0.174c0 0.723-0.078 1.373-0.232 1.947-0.158 0.579-0.387 1.065-0.692 1.467-0.304 0.403-0.677 0.711-1.125 0.928-0.447 0.217-0.96 0.326-1.535 0.326-0.244 0-0.472-0.025-0.679-0.074-0.209-0.049-0.412-0.125-0.612-0.229-0.199-0.103-0.396-0.236-0.591-0.394-0.196-0.16-0.407-0.346-0.627-0.563v4.137c0 0.051-0.01 0.092-0.036 0.129-0.023 0.037-0.064 0.068-0.119 0.092-0.054 0.025-0.133 0.043-0.23 0.054-0.098 0.012-0.225 0.02-0.375 0.02-0.149 0-0.272-8e-3 -0.369-0.02-0.1-0.011-0.176-0.029-0.235-0.054-0.056-0.024-0.097-0.055-0.121-0.092-0.021-0.037-0.031-0.078-0.031-0.129v-11.552c0-0.057 0.01-0.099 0.029-0.134 0.016-0.032 0.055-0.061 0.11-0.087 0.054-0.024 0.125-0.042 0.211-0.049 0.085-9e-3 0.189-0.014 0.312-0.014 0.129 0 0.234 5e-3 0.318 0.014 0.08 7e-3 0.151 0.025 0.207 0.049 0.055 0.026 0.094 0.055 0.114 0.087 0.023 0.035 0.033 0.077 0.033 0.134v1.114c0.25-0.26 0.492-0.482 0.725-0.673 0.232-0.188 0.468-0.345 0.703-0.472 0.236-0.126 0.478-0.221 0.726-0.286 0.248-0.064 0.51-0.096 0.787-0.096 0.598 0 1.11 0.115 1.534 0.349 0.421 0.232 0.767 0.551 1.033 0.957 0.267 0.402 0.461 0.872 0.584 1.411 0.121 0.535 0.183 1.102 0.183 1.703" fill="#939598" fill-rule="nonzero"/>
        </g>
        <g id="g99" transform="translate(284.48 136.78)">
            <path id="path97" d="m0 8.403c0 0.049-0.012 0.088-0.037 0.123-0.024 0.035-0.065 0.063-0.119 0.086-0.055 0.025-0.131 0.043-0.229 0.057-0.097 0.011-0.22 0.017-0.367 0.017-0.154 0-0.281-6e-3 -0.379-0.017-0.098-0.014-0.174-0.032-0.234-0.057-0.057-0.023-0.098-0.051-0.123-0.086-0.024-0.035-0.037-0.074-0.037-0.123v-5.028c0-0.349-0.03-0.669-0.092-0.955-0.061-0.289-0.158-0.535-0.293-0.746-0.135-0.207-0.307-0.367-0.516-0.477-0.209-0.112-0.453-0.167-0.734-0.167-0.35 0-0.701 0.136-1.053 0.407-0.351 0.269-0.74 0.664-1.162 1.184v5.782c0 0.049-0.012 0.088-0.037 0.123-0.024 0.035-0.067 0.063-0.125 0.086-0.057 0.025-0.135 0.043-0.234 0.057-0.096 0.011-0.221 0.017-0.368 0.017-0.14 0-0.259-6e-3 -0.361-0.017-0.102-0.014-0.182-0.032-0.24-0.057-0.057-0.023-0.098-0.051-0.119-0.086-0.024-0.035-0.034-0.074-0.034-0.123v-5.028c0-0.349-0.033-0.669-0.099-0.955-0.069-0.289-0.17-0.535-0.303-0.746-0.137-0.207-0.305-0.367-0.512-0.477-0.205-0.112-0.447-0.167-0.728-0.167-0.35 0-0.703 0.136-1.059 0.407-0.355 0.269-0.74 0.664-1.156 1.184v5.782c0 0.049-0.016 0.088-0.039 0.123-0.024 0.035-0.063 0.063-0.119 0.086-0.053 0.025-0.131 0.043-0.229 0.057-0.099 0.011-0.224 0.017-0.377 0.017-0.146 0-0.269-6e-3 -0.367-0.017-0.098-0.014-0.178-0.032-0.234-0.057-0.061-0.023-0.098-0.051-0.119-0.086-0.022-0.035-0.034-0.074-0.034-0.123v-8.273c0-0.049 8e-3 -0.091 0.028-0.122 0.019-0.035 0.054-0.066 0.111-0.093 0.057-0.028 0.125-0.048 0.211-0.054 0.086-0.01 0.197-0.015 0.34-0.015 0.135 0 0.246 5e-3 0.334 0.015 0.092 6e-3 0.158 0.026 0.209 0.054 0.047 0.027 0.084 0.058 0.103 0.093 0.024 0.031 0.036 0.073 0.036 0.122v1.094c0.464-0.52 0.916-0.902 1.353-1.143 0.438-0.243 0.881-0.364 1.328-0.364 0.342 0 0.651 0.041 0.922 0.119 0.275 0.08 0.514 0.192 0.723 0.336s0.386 0.314 0.533 0.515c0.148 0.199 0.269 0.421 0.369 0.665 0.273-0.299 0.537-0.553 0.785-0.763 0.248-0.206 0.487-0.375 0.717-0.504 0.228-0.13 0.451-0.224 0.67-0.281 0.217-0.059 0.437-0.087 0.658-0.087 0.531 0 0.981 0.094 1.34 0.279 0.361 0.189 0.654 0.439 0.879 0.75 0.224 0.313 0.383 0.679 0.476 1.1 0.096 0.418 0.143 0.86 0.143 1.327z" fill="#939598" fill-rule="nonzero"/>
        </g>
        <g id="g103" transform="translate(292.78 141.85)">
            <path id="path101" d="m0-1.61c0.016-0.795-0.16-1.42-0.533-1.873s-0.926-0.679-1.66-0.679c-0.375 0-0.705 0.07-0.989 0.209-0.283 0.141-0.521 0.33-0.713 0.561-0.189 0.234-0.339 0.504-0.443 0.814-0.105 0.31-0.164 0.631-0.176 0.968zm1.523 0.451c0 0.24-0.06 0.41-0.177 0.511-0.121 0.1-0.26 0.151-0.414 0.151h-5.446c0 0.459 0.047 0.873 0.139 1.24s0.246 0.684 0.461 0.949c0.215 0.262 0.496 0.465 0.842 0.606 0.343 0.138 0.765 0.209 1.261 0.209 0.397 0 0.747-0.032 1.055-0.094 0.309-0.065 0.574-0.137 0.799-0.219 0.225-0.078 0.408-0.15 0.555-0.215 0.144-0.064 0.254-0.095 0.328-0.095 0.043 0 0.08 9e-3 0.115 0.031 0.035 0.021 0.059 0.055 0.078 0.098 0.02 0.043 0.033 0.101 0.041 0.179 0.01 0.076 0.016 0.168 0.016 0.28 0 0.082-4e-3 0.146-0.01 0.207-6e-3 0.056-0.014 0.109-0.025 0.156-8e-3 0.047-0.024 0.086-0.045 0.123-0.02 0.037-0.049 0.072-0.082 0.105-0.034 0.035-0.133 0.09-0.299 0.166-0.164 0.077-0.381 0.153-0.643 0.227-0.263 0.072-0.568 0.139-0.916 0.195-0.345 0.059-0.713 0.088-1.105 0.088-0.682 0-1.278-0.094-1.789-0.283-0.512-0.191-0.942-0.473-1.291-0.848-0.348-0.373-0.612-0.84-0.789-1.404-0.178-0.563-0.268-1.219-0.268-1.967 0-0.71 0.092-1.35 0.275-1.917 0.186-0.565 0.45-1.048 0.795-1.442 0.346-0.395 0.766-0.699 1.256-0.91 0.49-0.212 1.037-0.317 1.643-0.317 0.65 0 1.203 0.105 1.66 0.311 0.457 0.21 0.832 0.49 1.127 0.842 0.293 0.353 0.51 0.766 0.646 1.241 0.139 0.475 0.207 0.981 0.207 1.52z" fill="#939598" fill-rule="nonzero"/>
        </g>
        <g id="g107" transform="translate(303.73 136.78)">
            <path id="path105" d="m0 8.403c0 0.049-0.014 0.088-0.037 0.123-0.025 0.035-0.065 0.063-0.119 0.086-0.057 0.025-0.133 0.043-0.233 0.057-0.095 0.011-0.22 0.017-0.365 0.017-0.154 0-0.279-6e-3 -0.377-0.017-0.098-0.014-0.174-0.032-0.228-0.057-0.057-0.023-0.096-0.051-0.121-0.086-0.024-0.035-0.036-0.074-0.036-0.123v-4.845c0-0.471-0.037-0.852-0.111-1.138-0.072-0.289-0.182-0.535-0.322-0.746-0.141-0.207-0.322-0.367-0.547-0.477-0.223-0.112-0.481-0.167-0.775-0.167-0.381 0-0.76 0.136-1.141 0.407-0.379 0.269-0.777 0.664-1.195 1.184v5.782c0 0.049-0.01 0.088-0.036 0.123-0.023 0.035-0.064 0.063-0.121 0.086-0.054 0.025-0.131 0.043-0.228 0.057-0.098 0.011-0.225 0.017-0.377 0.017-0.147 0-0.27-6e-3 -0.367-0.017-0.1-0.014-0.178-0.032-0.235-0.057-0.058-0.023-0.097-0.051-0.121-0.086-0.021-0.035-0.031-0.074-0.031-0.123v-8.273c0-0.049 0.01-0.091 0.027-0.122 0.018-0.035 0.057-0.066 0.112-0.093 0.054-0.028 0.125-0.048 0.211-0.054 0.084-0.01 0.199-0.015 0.339-0.015 0.135 0 0.248 5e-3 0.336 0.015 0.088 6e-3 0.159 0.026 0.207 0.054 0.049 0.027 0.084 0.058 0.106 0.093 0.021 0.031 0.031 0.073 0.031 0.122v1.094c0.465-0.52 0.932-0.902 1.393-1.143 0.463-0.243 0.929-0.364 1.4-0.364 0.555 0 1.016 0.094 1.395 0.279 0.377 0.189 0.679 0.439 0.912 0.75 0.234 0.313 0.4 0.679 0.502 1.1 0.101 0.418 0.152 0.922 0.152 1.511z" fill="#939598" fill-rule="nonzero"/>
        </g>
        <g id="g111" transform="translate(310.62 135.4)">
            <path id="path109" d="m0 9.169c0 0.178-0.012 0.32-0.037 0.424-0.024 0.103-0.061 0.181-0.109 0.23-0.049 0.049-0.124 0.094-0.221 0.137-0.098 0.043-0.211 0.078-0.336 0.105-0.125 0.028-0.26 0.051-0.401 0.071-0.138 0.015-0.281 0.027-0.421 0.027-0.428 0-0.795-0.057-1.102-0.172-0.307-0.111-0.559-0.283-0.754-0.515-0.197-0.227-0.338-0.52-0.428-0.871-0.087-0.354-0.132-0.766-0.132-1.247v-4.831h-1.161c-0.089 0-0.164-0.05-0.22-0.148-0.053-0.098-0.08-0.257-0.08-0.478 0-0.115 7e-3 -0.213 0.021-0.293 0.016-0.082 0.035-0.147 0.059-0.198 0.025-0.052 0.058-0.09 0.099-0.111 0.039-0.021 0.084-0.031 0.133-0.031h1.149v-1.969c0-0.042 9e-3 -0.081 0.031-0.119 0.021-0.036 0.062-0.069 0.119-0.095 0.059-0.029 0.137-0.047 0.234-0.062 0.098-0.01 0.221-0.017 0.368-0.017 0.154 0 0.279 7e-3 0.378 0.017 0.098 0.015 0.174 0.033 0.229 0.062 0.055 0.026 0.096 0.059 0.119 0.095 0.025 0.038 0.037 0.077 0.037 0.119v1.969h2.123c0.049 0 0.094 0.01 0.129 0.031 0.037 0.021 0.07 0.059 0.096 0.111 0.029 0.051 0.047 0.116 0.06 0.198 0.01 0.08 0.018 0.178 0.018 0.293 0 0.221-0.027 0.38-0.082 0.478s-0.127 0.148-0.221 0.148h-2.123v4.611c0 0.572 0.084 1.002 0.252 1.293 0.17 0.289 0.471 0.437 0.906 0.437 0.141 0 0.268-0.013 0.377-0.043 0.112-0.027 0.207-0.054 0.293-0.086 0.088-0.033 0.161-0.06 0.221-0.09 0.063-0.027 0.119-0.041 0.168-0.041 0.029 0 0.059 0.01 0.086 0.026 0.027 0.014 0.049 0.043 0.064 0.086 0.016 0.043 0.028 0.101 0.041 0.176 0.01 0.074 0.018 0.164 0.018 0.273" fill="#939598" fill-rule="nonzero"/>
        </g>
    </g>
    <defs id="defs121">
        <linearGradient id="_Linear1" x2="1" gradientTransform="matrix(1 0 0 -1 0 -.11985)" gradientUnits="userSpaceOnUse"><stop id="stop114" stop-color="#00a650" offset="0"/><stop id="stop116" stop-color="#4eb848" offset=".11"/><stop id="stop118" stop-color="#a6ce38" offset="1"/></linearGradient>
    </defs>
</svg>
