<?xml version="1.0" encoding="UTF-8"?>
<svg id="Layer_1" width="1029.8" height="299.99" version="1.1" viewBox="0 0 1029.8 299.99" xmlns="http://www.w3.org/2000/svg">
 <path id="path1" d="m84.52 45.51c-46.56 0-84.52 37.19-84.52 84.88s33.43 86.01 84.52 86.01c37.19 0 69.13-24.78 80.39-58.97h-53.34c-5.63 7.15-13.13 13.52-27.04 13.52-19.15 0-32.3-12.02-35.3-28.91h118.69c4.89-54.84-30.41-96.54-83.38-96.54zm-33.44 66.86c4.89-11.28 16.91-21.78 33.43-21.78 18.04 0 27.43 12.02 32.3 21.78z"/>
 <path id="path2" d="m272.39 45.51c-21.41 0-36.43 13.52-42.07 21.78v-16.15h-48.83v159.63h48.83v-90.14c0-17.28 10.89-28.92 28.17-28.92s27.79 11.64 27.79 29.67v89.39h48.83v-95.78c0-44.7-24.79-69.49-62.73-69.49z"/>
 <path id="path3" d="m349.25 132.65c0 45.82 37.93 83.75 84.52 83.75 11.16 0 21.82-2.19 31.58-6.13 0.33 0.81 0.64 1.63 0.92 2.48 0.86 2.65 1.43 5.46 1.67 8.38-1.51 18.4-16.15 31.91-33.8 31.91s-32.3-13.52-33.8-31.93h-50.71c1.5 46.2 39.06 78.88 84.51 78.88s83-32.67 84.51-78.87c-0.49-15.76-5.21-29.97-13-41.82-0.31-0.47-0.63-0.92-0.95-1.38 0.32-0.49 0.64-0.96 0.95-1.46 8.01-12.78 12.64-27.83 12.64-43.83 0-11.65-2.63-22.91-7.52-33.06h19.32v-48.82h-95.95c-46.95 0-84.88 37.19-84.88 81.89zm118.31 0c0 4.28-0.86 8.41-2.43 12.19-4.89 12.02-16.84 20.7-31 20.85h-0.37c-18.78 0-33.8-15.02-33.8-33.04 0-16.15 15.02-31.17 33.8-31.17s33.8 15.02 33.8 31.17z"/>
 <path id="path4" d="m622.8 45.51c-46.56 0-84.52 37.19-84.52 84.88s33.43 86.01 84.52 86.01c37.19 0 69.1-24.78 80.39-58.97h-53.34c-5.63 7.15-13.15 13.52-27.04 13.52-19.15 0-32.3-12.02-35.3-28.91h118.69c4.89-54.84-30.43-96.54-83.39-96.54zm-33.43 66.86c4.89-11.28 16.91-21.78 33.43-21.78 18.04 0 27.41 12.02 32.3 21.78z"/>
 <path id="path5" d="m945.3 45.51c-46.58 0-84.52 37.19-84.52 84.88s37.93 86.01 84.52 86.01 84.49-38.3 84.49-86.01-37.93-84.88-84.49-84.88zm0 119.81c-18.78 0-33.83-15.02-33.83-34.93s15.04-34.17 33.83-34.17 33.8 15.02 33.8 34.17-15.02 34.93-33.8 34.93z"/>
 <path id="path6" d="m804.78 124.57v-48.33h0.13l26.71 25.2 31-33.13-64.74-61.53c-4.53-4.29-10.68-6.78-16.98-6.78s-12.32 2.4-16.84 6.66l-65.94 61.68 31.06 33.11 26.78-25.09v48.22c0 47.16 38.37 85.53 85.53 85.53h13.38v-48.81h-13.38c-20.25 0-36.72-16.47-36.72-36.72z"/>
</svg>
