<?xml version="1.0" encoding="UTF-8"?>
<!-- Created with Inkscape (http://www.inkscape.org/) -->
<svg id="svg5062" width="354.32" height="84.814" version="1.1" xml:space="preserve" xmlns="http://www.w3.org/2000/svg" xmlns:cc="http://creativecommons.org/ns#" xmlns:dc="http://purl.org/dc/elements/1.1/" xmlns:rdf="http://www.w3.org/1999/02/22-rdf-syntax-ns#"><metadata id="metadata5068"><rdf:RDF><cc:Work rdf:about=""><dc:format>image/svg+xml</dc:format><dc:type rdf:resource="http://purl.org/dc/dcmitype/StillImage"/></cc:Work></rdf:RDF></metadata><g id="g5070" transform="matrix(1.25 0 0 -1.25 0 84.814)"><path id="path5076" d="m122.39 35.434-0.6 0.0148-0.59 0.045-0.58 0.0742-0.57 0.1019-0.56 0.1297-0.56 0.157-0.54 0.1821-0.52 0.209-0.52 0.2332-0.5 0.2558-0.49 0.2813-0.47 0.3019-0.45 0.325-0.44 0.3449-0.43 0.3661-0.4 0.3847-0.39 0.4039-0.36 0.4223-0.35 0.4398-0.32 0.4563-0.3 0.4719-0.28 0.4871-0.26 0.5019-0.23 0.516-0.21 0.5278-0.18 0.541-0.16 0.5519-0.13 0.5633-0.1 0.5731-0.08 0.5828-0.04 0.591-0.02 0.5988c0 6.418 5.21 11.625 11.63 11.625 6.43 0 11.63-5.207 11.63-11.625 0-6.4289-5.2-11.636-11.63-11.636z" fill="none"/><path id="path5078" transform="matrix(.8 0 0 -.8 0 67.85)" d="m165.75-0.0019531c-42.01 0-76.061 18.985-76.061 42.402 0 13.267 10.922 25.101 28.021 32.875-8.0811-5.4874-13.403-12.973-14.584-21.859-2.685-20.186 16.83-40.82 45.148-49.615-14.688 6.665-24.924 21.427-24.924 38.6 0 23.217 18.648 42.046 41.773 42.383-0.0375 0.0049-0.0867 0.01465-0.13672 0.01953 0.2625 0 0.51172 0.0098 0.76172 0.0098 42.012 0 76.076-18.985 76.076-42.412 0-13.261-10.937-25.098-28.037-32.871l0.75 0.52148 0.73633 0.53125 0.71289 0.54297 0.69922 0.55469 0.6875 0.56641 0.66406 0.57812 0.64844 0.58789 0.625 0.59961 0.61328 0.60938 0.58789 0.62109 0.57422 0.63086 0.5625 0.64258 0.53711 0.65234 0.51367 0.66211 0.5 0.67188 0.47461 0.68359 0.44922 0.69336 0.4375 0.70312 0.42578 0.71289 0.38672 0.72266 0.375 0.73047 0.35156 0.74023 0.33594 0.75 0.30078 0.75977 0.28711 0.76953 0.26367 0.77734 0.25 0.78711 0.21094 0.79492 0.1875 0.80469 0.17578 0.8125 0.15039 0.82031 0.125 0.83008c2.675 20.19-16.838 40.826-45.15 49.619 14.688-6.665 24.926-21.426 24.926-38.613 0-23.203-18.65-42.026-41.775-42.367 0.05-0.005375 0.10039-0.015016 0.15039-0.025391-0.2625 0-0.52656-0.0097656-0.78906-0.0097656zm-13.248 11.314a14.25 14.25 0 0 1 14.25 14.25 14.25 14.25 0 0 1-14.25 14.25 14.25 14.25 0 0 1-14.25-14.25 14.25 14.25 0 0 1 14.25-14.25z" fill="#004170"/><path id="path5080" d="m171.03 60.227 0.6-0.4168 0.59-0.425 0.57-0.4352 0.56-0.4441 0.55-0.4528 0.53-0.4621 0.52-0.4699 0.5-0.4801 0.49-0.4879 0.47-0.4961 0.46-0.505 0.45-0.5141 0.43-0.5219 0.41-0.5301 0.4-0.5378 0.38-0.5469 0.36-0.5539 0.35-0.5621 0.34-0.57 0.31-0.5781 0.3-0.5851 0.28-0.593 0.27-0.6 0.24-0.6078 0.23-0.6153 0.21-0.6218 0.2-0.6289 0.17-0.6371 0.15-0.643 0.14-0.65 0.12-0.657 0.1-0.6641c2.14-16.152-13.47-32.66-36.12-39.695 11.75 5.332 19.94 17.141 19.94 30.891 0 18.562-14.92 33.621-33.42 33.894 0.04 0.0043 0.08 0.0121 0.12 0.0204-0.21 0-0.42 0.0078-0.63 0.0078-33.608 0-60.849-15.188-60.849-33.922 0-10.614 8.7379-20.082 22.418-26.301-6.4649 4.3899-10.723 10.379-11.668 17.488-2.148 16.149 13.465 32.656 36.119 39.692-11.75-5.332-19.94-17.141-19.94-30.879 0-18.574 14.92-33.637 33.42-33.906-0.03-0.0039063-0.07-0.011719-0.11-0.015625 0.21 0 0.41-0.0078125 0.61-0.0078125 33.61 0 60.86 15.188 60.86 33.93 0 10.609-8.75 20.078-22.43 26.297z" fill="none"/><path id="path5082" d="m283.46 1.7812-33.599 33.602 30.819 30.812h-23.93l-18.85-18.847-18.85 18.847h-23.939l30.82-30.812-33.6-33.602h23.93l21.639 21.637 21.64-21.637h23.92" fill="#004170"/><path id="path5084" d="m283.46 1.7812-33.599 33.602 30.819 30.812h-23.93l-18.85-18.847-18.85 18.847h-23.939l30.82-30.812-33.6-33.602h23.93l21.639 21.637 21.64-21.637z" fill="none"/><path id="path5086" d="m0 66.194h60.027v-13.191h-41.304v-11.945h32.207v-13.196h-32.207v-12.84h42.5v-13.191h-61.223v64.362" fill="#004170"/><path id="path5088" d="m0 66.194h60.027v-13.191h-41.304v-11.945h32.207v-13.196h-32.207v-12.84h42.5v-13.191h-61.223z" fill="none"/></g></svg>
