<?xml version="1.0" encoding="UTF-8"?>
<svg width="810" height="197" viewBox="0 0 810 197" xmlns="http://www.w3.org/2000/svg">
 <path d="m117.99 129.06c0 7.213 5.85 11.506 16 11.506 9.982 0 14.801-4.808 14.801-14.255v-8.928h-8.258c-17.557 0-22.543 4.118-22.543 11.677z" clip-rule="evenodd" fill="#1A1919" fill-rule="evenodd"/>
 <path d="m100.96 0.48471c-55.673 0-100.81 35.811-100.81 79.987v35.817c0 44.176 45.139 79.993 100.81 79.993 55.673 0 100.8-35.817 100.8-79.993v-35.817c0-44.177-45.127-79.987-100.8-79.987zm-32.724 118.5h-9.9824v38.754h-9.2884c-7.4033 0-13.943-5.666-13.943-13.741v-61.213c0-18.895 8.7797-42.555 35.152-48.414 26.695-5.932 34.161 7.1222 34.161 7.1222s-16.703-0.2281-29.79 9.9829c-7.4511 5.8119-16.031 18.628-16.292 33.201v18.004c16.48 3.155 29.671-2.319 33.562-4.0492l0.6675-0.0843s-1.1817 20.438-24.247 20.438zm103.09 7.154c0 19.579-14.452 33.144-35.104 33.144h-4.648c-22.027 0-37.172-12.362-37.172-29.364 0-16.486 12.046-29.021 46.124-29.021h8.085v-1.2061c0-13.051-6.194-22.325-19.964-22.325-16.692 0-25.981 6.3535-29.426 10.648h-0.8585v-7.3834c0-10.304 9.2944-22.667 33.728-22.667 20.652 0 39.236 14.941 39.236 46.879v21.295z" clip-rule="evenodd" fill="#1A1919" fill-rule="evenodd"/>
 <path d="m293.07 70.202h-28.957v23.507h33.896v5.6706c0 6.0834-4.802 9.4034-9.058 9.4034h-24.152v40.378h-7.823c-6.861 0-10.978-3.596-10.978-11.062v-69.004c0-11.754 4.665-14.658 15.645-14.658h42.131v5.9469c0 4.4232-3.295 9.8175-10.704 9.8175zm55.058 46.16h-6.598c-14.021 0-18.008 3.316-18.008 9.395 0 5.805 4.675 9.259 12.785 9.259 7.972 0 11.821-3.868 11.821-11.469v-7.185zm-10.035 33.718h-3.712c-17.594 0-29.69-9.949-29.69-23.631 0-13.267 9.622-23.354 36.839-23.354h6.461v-0.968c0-10.501-4.949-13.682-15.945-13.682-13.335 0-20.757 5.1147-23.506 8.5688h-0.687v-5.9431c0-8.2899 7.422-18.24 26.942-18.24 16.494 0 31.34 7.7377 31.34 33.443v17.136c0 15.754-11.546 26.671-28.042 26.671zm55.039-87.903v44.645c7.22-9.4279 14.301-18.994 22.908-27.174 4.444-4.1593 8.886-4.8531 14.857-4.8531h10.691v0.6938c-5.276 4.4363-22.633 24.123-30.406 33.968 5.969 7.348 11.801 14.974 18.464 21.767 6.805 6.794 9.859 8.18 14.44 9.707-1.943 5.961-4.997 9.15-12.634 9.15-4.165 0-9.025-1.941-12.218-5.131-9.58-9.843-17.911-20.935-26.102-31.889v36.465l-5.97 0.138c-8.607 0.14-12.774-4.436-12.774-13.171v-86.653h5.971c9.025 0 12.773 5.1288 12.773 12.338zm61.821 1.0853c2.476-2.9197 5.779-5.1463 8.667-5.1463h4.264v16.964h25.724v7.6481c0 3.8935-3.438 8.8996-11.005 8.8996h-14.719v29.339c0 9.732 4.264 13.488 11.693 13.488 5.915 0 10.455-0.836 13.344-2.642h0.687v6.673c0 7.648-5.503 12.514-16.232 12.514-18.708 0-27.788-10.289-27.788-27.809v-45.05c0-7.3703 1.376-10.151 5.365-14.878zm80.518 87.738c-18.269 0-32.693-12.168-32.693-33.878v-42.452h3.435c10.576 0 15.247 4.5641 15.247 13.275v27.38c0 13.689 6.594 19.22 14.973 19.22 7.556 0 12.913-5.255 12.913-17.977v-41.898h3.298c10.713 0 15.247 4.5641 15.247 13.275v27.932c0 23.231-10.852 35.123-32.42 35.123zm86.75-58.432c-2.77-1.1072-5.958-2.2143-10.808-2.2143-8.317 0-12.892 4.5656-12.892 15.912v42.895h-5.126c-8.316 0-13.582-4.151-13.582-11.9v-34.315c0-14.945 7.9-29.196 27.58-29.196 11.503 0 15.522 6.5022 15.522 12.176v6.6417h-0.694zm37.004-3.1064c-10.689 0-16.101 8.8709-16.101 21.206 0 14.831 5.412 23.701 17.764 23.701 10.827 0 16.102-8.87 16.102-21.068 0-14.968-5.553-23.839-17.765-23.839zm1.663-16.631c22.485 0 35.393 18.017 35.393 37.838 0 22.453-12.908 40.332-37.056 40.332-22.485 0-35.393-17.879-35.393-37.699 0-22.453 12.908-40.471 37.056-40.471zm67.476 78.17c-14.325 0-22.177-8.212-22.177-23.384v-50.803h5.235c8.262 0 13.223 4.4522 13.223 13.918v35.076c0 7.515 3.168 9.881 11.294 9.881h3.444v4.037c0 8.074-3.167 11.275-11.019 11.275zm-13.086-81.148c-5.923 0-10.743-5.0111-10.743-10.996 0-5.9858 4.82-10.857 10.743-10.857s10.881 4.8708 10.881 10.857c0 5.9845-4.958 10.996-10.881 10.996zm57.889 18.82c-9.415 0-15.507 9.1213-15.507 21.146 0 15.477 8.03 25.566 18.691 25.566 10.385 0 14.955-7.739 14.955-21.282 0-18.657-8.169-25.43-18.139-25.43zm0.968 62.328c-19.66 0-34.752-17.137-34.752-37.59 0-24.462 11.908-40.354 33.644-40.354 7.479 0 15.648 5.2517 18.556 11.747v-34.964h5.676c8.862 0 12.739 5.1122 12.739 12.574v52.516c0 21.698-10.246 36.07-35.863 36.07z" clip-rule="evenodd" fill="#1A1919" fill-rule="evenodd"/>
</svg>
