<?xml version="1.0" encoding="UTF-8"?>
<svg id="svg865" width="185.64" height="67.516" data-name="logo - full" version="1.1" viewBox="0 0 185.64 67.516" xmlns="http://www.w3.org/2000/svg" xmlns:cc="http://creativecommons.org/ns#" xmlns:dc="http://purl.org/dc/elements/1.1/" xmlns:rdf="http://www.w3.org/1999/02/22-rdf-syntax-ns#">
 <metadata id="metadata871">
  <rdf:RDF>
   <cc:Work rdf:about="">
    <dc:format>image/svg+xml</dc:format>
    <dc:type rdf:resource="http://purl.org/dc/dcmitype/StillImage"/>
   </cc:Work>
  </rdf:RDF>
 </metadata>
 <path id="path833" d="m62.986 6.1358q0 1.8968 0.1215 3.0668h-0.9225a13.594 13.594 0 0 0-2.4165-6.4215 5.6385 5.6385 0 0 0-4.5-1.854h-1.3298a5.7915 5.7915 0 0 0-1.8135 0.20025 1.2218 1.2218 0 0 0-0.7695 0.78525 6.4238 6.4238 0 0 0-0.2025 1.8788v10.172h1.4108a3.7192 3.7192 0 0 0 3.249-1.575 9.8032 9.8032 0 0 0 1.5458-3.7508h0.9315c-0.0855 1.125-0.1215 2.3918-0.1215 3.798v1.9328c0 1.3748 0.0765 3.2828 0.24075 5.7352h-0.9495q-0.846-5.3325-4.9162-5.328h-1.4108v9.2812a6.0435 6.0435 0 0 0 0.342 2.3625 1.764 1.764 0 0 0 1.2082 0.98775 12.125 12.125 0 0 0 2.7608 0.288v0.8865q-4.95-0.1215-7.3732-0.1215-2.0092 0-5.076 0.081l-1.2892 0.0405v-0.81a6.9142 6.9142 0 0 0 1.953-0.31725 1.413 1.413 0 0 0 0.846-0.9315 7.8188 7.8188 0 0 0 0.225-2.2208v-20.025a7.8188 7.8188 0 0 0-0.225-2.2208 1.4062 1.4062 0 0 0-0.846-0.927 7.236 7.236 0 0 0-1.953-0.3285v-0.801q4.3515 0.1125 13.133 0.1215c3.9488 0 6.75-0.045 8.4195-0.1215a82.6 82.6 0 0 0-0.27225 6.1358z" fill="#1c1300" stroke-width="2.25" data-name="Path 24"/>
 <path id="path835" d="m81.76 8.2372a3.9352 3.9352 0 0 1 0.927 2.628 3.4762 3.4762 0 0 1-0.86625 2.4435 2.9385 2.9385 0 0 1-2.277 0.94725 3.186 3.186 0 0 1-2.1758-0.70425 2.3895 2.3895 0 0 1-0.8055-1.8788 3.663 3.663 0 0 1 1.773-3.15 1.899 1.899 0 0 0-0.48375-0.045 2.0362 2.0362 0 0 0-0.6435 0.0855 3.825 3.825 0 0 0-2.5988 1.854 5.9535 5.9535 0 0 0-1.0688 3.3142v10.696a3.15 3.15 0 0 0 0.9 2.583 4.5765 4.5765 0 0 0 2.88 0.73125v0.846a7.767 7.767 0 0 1-0.927-0.045c-2.7405-0.0765-4.5675-0.1215-5.4788-0.1215-0.7245 0-2.376 0.045-4.95 0.1215a5.9648 5.9648 0 0 1-0.8055 0.045v-0.846a2.6258 2.6258 0 0 0 2.025-0.63 3.447 3.447 0 0 0 0.56475-2.2815v-12.715a4.9972 4.9972 0 0 0-0.56475-2.7 2.2252 2.2252 0 0 0-2.025-0.846v-0.8505c0.855 0.081 1.692 0.1215 2.4975 0.1215a25.247 25.247 0 0 0 5.8815-0.56475v3.7575a6.84 6.84 0 0 1 2.2162-2.8058 5.3528 5.3528 0 0 1 3.2625-1.0732 3.402 3.402 0 0 1 2.7428 1.0822z" fill="#1c1300" stroke-width="2.25" data-name="Path 25"/>
 <path id="path837" d="m101.06 9.792a14.677 14.677 0 0 1 0 16.736 11.306 11.306 0 0 1-14.483 0 14.584 14.584 0 0 1 0-16.736 11.25 11.25 0 0 1 14.483 0zm-10.012 0.675a21.627 21.627 0 0 0-1.0282 7.6905 21.391 21.391 0 0 0 1.0282 7.6702c0.675 1.6718 1.602 2.5088 2.7608 2.5088s2.106-0.83025 2.7788-2.475a21.868 21.868 0 0 0 1.008-7.695 21.6 21.6 0 0 0-1.0282-7.7108q-1.0282-2.4998-2.7608-2.502c-1.1542 0-2.0722 0.8415-2.7562 2.5245z" fill="#1c1300" stroke-width="2.25" data-name="Path 26"/>
 <path id="path839" d="m125.6 8.7232a4.4032 4.4032 0 0 1 0.9675 1.98 14.83 14.83 0 0 1 0.288 3.2738v10.858a3.3502 3.3502 0 0 0 0.585 2.2815 2.6348 2.6348 0 0 0 1.9935 0.63v0.846a183.21 183.21 0 0 0-5.319-0.1665c-0.81 0-2.5538 0.06075-5.238 0.1665v-0.846a2.025 2.025 0 0 0 1.692-0.63 3.9352 3.9352 0 0 0 0.48375-2.2815v-12.555a4.6755 4.6755 0 0 0-0.5445-2.502 2.151 2.151 0 0 0-1.9598-0.846 3.6 3.6 0 0 0-2.8148 1.35 4.9275 4.9275 0 0 0-1.1745 3.3345v11.221a3.8948 3.8948 0 0 0 0.48375 2.2815 2.025 2.025 0 0 0 1.692 0.63v0.846a151.29 151.29 0 0 0-4.9905-0.1665c-0.81 0-2.664 0.06075-5.5642 0.1665v-0.846a2.6258 2.6258 0 0 0 2.025-0.63 3.447 3.447 0 0 0 0.56475-2.2815v-12.715a4.9972 4.9972 0 0 0-0.56475-2.7 2.2252 2.2252 0 0 0-2.025-0.846v-0.8505c0.86175 0.081 1.6965 0.1215 2.4975 0.1215a25.218 25.218 0 0 0 5.8815-0.56475v3.636a6.6825 6.6825 0 0 1 6.6128-3.7575 5.5822 5.5822 0 0 1 4.428 1.5615z" fill="#1c1300" stroke-width="2.25" data-name="Path 27"/>
 <path id="path841" d="m139.1 7.7108h4.7588v0.81h-4.7588v16.306a2.7 2.7 0 0 0 0.423 1.7168 1.674 1.674 0 0 0 1.35 0.504q1.737 0 2.745-2.4233l0.675 0.36675a5.5598 5.5598 0 0 1-5.5148 4.1558 5.4608 5.4608 0 0 1-4.0342-1.3748 4.32 4.32 0 0 1-1.1475-2.115 15.797 15.797 0 0 1-0.3015-3.4942v-13.644h-3.375v-0.81h3.375v-5.328a12.323 12.323 0 0 0 5.8005-1.2892z" fill="#1c1300" stroke-width="2.25" data-name="Path 28"/>
 <path id="path843" d="m49.691 66.929q-2.7428-0.12825-9.225-0.1215-8.775 0-13.133 0.1215v-0.81a7.101 7.101 0 0 0 1.953-0.31725 1.413 1.413 0 0 0 0.846-0.9315 7.8255 7.8255 0 0 0 0.225-2.2208v-20.025a7.8255 7.8255 0 0 0-0.225-2.2208 1.3838 1.3838 0 0 0-0.846-0.927 7.038 7.038 0 0 0-1.953-0.3285v-0.79425q4.3515 0.1215 13.133 0.1215 5.922 0 8.4195-0.1215-0.27225 3.3548-0.27675 5.9738a22.642 22.642 0 0 0 0.1215 2.7495h-0.92925a11.457 11.457 0 0 0-2.1758-6.0592 5.6835 5.6835 0 0 0-4.4325-1.737h-1.647a5.8162 5.8162 0 0 0-1.818 0.207 1.215 1.215 0 0 0-0.765 0.78525 6.4058 6.4058 0 0 0-0.2025 1.8788v10.012h1.2892a3.717 3.717 0 0 0 3.249-1.575 9.8415 9.8415 0 0 0 1.5458-3.753h0.9315a50.76 50.76 0 0 0-0.1215 3.7912v1.9395c0 1.3702 0.0765 3.2828 0.24075 5.7352h-0.9315q-0.846-5.3325-4.9162-5.3325h-1.2892v10.172a6.408 6.408 0 0 0 0.2025 1.8788 1.224 1.224 0 0 0 0.765 0.78975 6.039 6.039 0 0 0 1.818 0.19575h1.9688a5.9108 5.9108 0 0 0 4.617-1.953 13.122 13.122 0 0 0 2.475-6.642h0.9225c-0.0765 0.9-0.1215 2.025-0.1215 3.3885a53.885 53.885 0 0 0 0.28575 6.129z" fill="#1c1300" stroke-width="2.25" data-name="Path 29"/>
 <path id="path845" d="m71.888 47.075a4.3492 4.3492 0 0 1 0.9675 1.98 14.731 14.731 0 0 1 0.288 3.2692v10.858a3.3885 3.3885 0 0 0 0.57825 2.2815 2.6505 2.6505 0 0 0 1.9935 0.6255v0.8505a161.11 161.11 0 0 0-5.319-0.162c-0.8055 0-2.5538 0.0495-5.238 0.162v-0.8505a2.025 2.025 0 0 0 1.692-0.6255 3.906 3.906 0 0 0 0.48375-2.2815v-12.555a4.6868 4.6868 0 0 0-0.5445-2.502 2.142 2.142 0 0 0-1.953-0.8505 3.5865 3.5865 0 0 0-2.8192 1.35 4.914 4.914 0 0 0-1.1678 3.3232v11.225a3.9082 3.9082 0 0 0 0.48375 2.2815 2.025 2.025 0 0 0 1.692 0.6255v0.8505a135.5 135.5 0 0 0-4.995-0.162c-0.8055 0-2.6595 0.0495-5.5598 0.162v-0.8505a2.6258 2.6258 0 0 0 2.025-0.6255 3.456 3.456 0 0 0 0.56475-2.2815v-12.715a4.986 4.986 0 0 0-0.56475-2.7 2.25 2.25 0 0 0-2.025-0.8505v-0.846c0.855 0.081 1.692 0.1215 2.4975 0.1215a25.25 25.25 0 0 0 5.8815-0.56475v3.6315a6.6848 6.6848 0 0 1 6.6082-3.7508 5.571 5.571 0 0 1 4.4302 1.575z" fill="#1c1300" stroke-width="2.25" data-name="Path 30"/>
 <path id="path847" d="m97.596 65.198a2.25 2.25 0 0 0 2.025 0.846v0.8505a25.776 25.776 0 0 0-2.4975-0.1215 25.247 25.247 0 0 0-5.8815 0.56475v-3.4695a5.1615 5.1615 0 0 1-5.238 3.6315 7.3395 7.3395 0 0 1-6.0232-2.7652 12.902 12.902 0 0 1-2.196-8.325 14.065 14.065 0 0 1 1.1475-5.9985 8.2305 8.2305 0 0 1 3.1838-3.672 8.7548 8.7548 0 0 1 4.653-1.233 6.0525 6.0525 0 0 1 4.473 1.5368v-6.8648a4.8308 4.8308 0 0 0-0.585-2.7 2.25 2.25 0 0 0-1.9935-0.8505v-0.85275c0.855 0.081 1.692 0.1215 2.4975 0.1215a25.848 25.848 0 0 0 5.8815-0.56475v27.169a4.986 4.986 0 0 0 0.5535 2.6978zm-7.5938-0.40275a4.1422 4.1422 0 0 0 1.2285-2.6235v-14.13a3.4245 3.4245 0 0 0-2.9408-1.3702 3.6248 3.6248 0 0 0-3.303 2.4615 17.476 17.476 0 0 0-1.125 7.3485 18.16 18.16 0 0 0 0.94725 7.101 3.1005 3.1005 0 0 0 2.8395 2.1802 3.3412 3.3412 0 0 0 2.3535-0.963z" fill="#1c1300" stroke-width="2.25" data-name="Path 31"/>
 <path id="path849" d="m109.68 63.18a3.3592 3.3592 0 0 0 0.585 2.2815 2.6505 2.6505 0 0 0 1.9935 0.6255v0.846a168.63 168.63 0 0 0-5.3572-0.15525c-0.837 0-2.7 0.0495-5.6002 0.15525v-0.846a2.628 2.628 0 0 0 2.025-0.6255 3.456 3.456 0 0 0 0.56475-2.2815v-12.722a5.0108 5.0108 0 0 0-0.56475-2.7 2.25 2.25 0 0 0-2.025-0.846v-0.846c0.86175 0.081 1.692 0.1215 2.4975 0.1215a25.238 25.238 0 0 0 5.8815-0.56475zm-0.4635-26.705a3.1298 3.1298 0 0 1 0 4.563 4.7588 4.7588 0 0 1-5.3595 0 3.1298 3.1298 0 0 1 0-4.563 4.7588 4.7588 0 0 1 5.3595 0z" fill="#1c1300" stroke-width="2.25" data-name="Path 32"/>
 <path id="path851" d="m124.79 45.882a6.7185 6.7185 0 0 1 1.9732 0.87075 1.3275 1.3275 0 0 0 0.7245 0.27675 0.738 0.738 0 0 0 0.6255-0.378 2.547 2.547 0 0 0 0.342-1.1138h0.846q-0.1665 2.0542-0.162 7.1055h-0.846a10.215 10.215 0 0 0-1.5908-4.4618 4.05 4.05 0 0 0-3.5662-1.8 2.925 2.925 0 0 0-1.9935 0.69075 2.376 2.376 0 0 0-0.78525 1.8945 3.348 3.348 0 0 0 0.927 2.367 20.639 20.639 0 0 0 2.9002 2.403l1.1678 0.846a21.085 21.085 0 0 1 3.627 3.3098 5.6025 5.6025 0 0 1 1.1678 3.636 5.1165 5.1165 0 0 1-1.0282 3.15 6.4642 6.4642 0 0 1-2.7608 2.0992 9.8348 9.8348 0 0 1-3.825 0.7245 7.875 7.875 0 0 1-3.7868-0.846 20.061 20.061 0 0 0-1.854-0.8505 0.6165 0.6165 0 0 0-0.70425 0.261 2.7855 2.7855 0 0 0-0.4635 1.1542h-0.846q0.1575-2.304 0.162-8.073h0.846q0.801 7.425 5.4382 7.425a2.97 2.97 0 0 0 1.9935-0.70425 2.7 2.7 0 0 0 0.82575-2.16 4.0252 4.0252 0 0 0-0.504-2.025 6.3495 6.3495 0 0 0-1.269-1.575 62.505 62.505 0 0 0-2.2972-1.899q-1.8135-1.4512-2.7608-2.3422a8.1945 8.1945 0 0 1-1.611-2.0992 5.517 5.517 0 0 1-0.675-2.7 4.7902 4.7902 0 0 1 2.025-4.0748 8.0055 8.0055 0 0 1 4.9162-1.4962 9.8438 9.8438 0 0 1 2.8215 0.38475z" fill="#1c1300" stroke-width="2.25" data-name="Path 33"/>
 <path id="path853" d="m140.79 46.069h4.7498v0.801h-4.7498v16.317a2.637 2.637 0 0 0 0.423 1.7122 1.638 1.638 0 0 0 1.35 0.504q1.737 0 2.745-2.4232l0.69075 0.36225a5.5778 5.5778 0 0 1-5.5238 4.1602 5.4788 5.4788 0 0 1-4.0342-1.3702 4.4235 4.4235 0 0 1-1.1475-2.1195 16.166 16.166 0 0 1-0.3015-3.4942v-13.648h-3.375v-0.801h3.375v-5.3325a12.339 12.339 0 0 0 5.8118-1.2892z" fill="#1c1300" stroke-width="2.25" data-name="Path 34"/>
 <path id="path855" d="m155.17 63.18a3.3885 3.3885 0 0 0 0.57825 2.2815 2.6505 2.6505 0 0 0 1.9935 0.6255v0.846a167.58 167.58 0 0 0-5.3528-0.15525c-0.83699 0-2.7 0.0495-5.6002 0.15525v-0.846a2.6212 2.6212 0 0 0 2.0092-0.6255 3.4515 3.4515 0 0 0 0.56925-2.2815v-12.722a5.0018 5.0018 0 0 0-0.56925-2.7 2.25 2.25 0 0 0-2.0092-0.846v-0.846c0.85725 0.081 1.692 0.1215 2.493 0.1215a25.288 25.288 0 0 0 5.8882-0.56475zm-0.46348-26.705a3.15 3.15 0 0 1 0 4.563 4.7678 4.7678 0 0 1-5.364 0 3.15 3.15 0 0 1 0-4.563 4.7678 4.7678 0 0 1 5.364 0z" fill="#1c1300" stroke-width="2.25" data-name="Path 35"/>
 <path id="path857" d="m0 33.026v0.6435h0.32175a4.0702 4.0702 0 0 1 3.0262 1.575 10.21 10.21 0 0 1 1.4512 4.653 79.355 79.355 0 0 1 0.4185 9.4635 24.975 24.975 0 0 0 1.35 9.225 8.2058 8.2058 0 0 0 4.3515 4.617 21.096 21.096 0 0 0 8.3452 1.3252v-1.224a4.635 4.635 0 0 1-3.0578-0.936 6.4328 6.4328 0 0 1-1.3252-3.717 77.929 77.929 0 0 1-0.387-9.3015q0-7.875-3.4155-11.432a17.842 17.842 0 0 0-9.2858-4.8442l0.261-0.06525z" fill="#1c1300" stroke-width="2.25" data-name="Path 36"/>
 <path id="path859" d="m183.58 33.026 0.26101 0.06525a17.824 17.824 0 0 0-9.2858 4.8442q-3.4155 3.5505-3.4155 11.432a79.346 79.346 0 0 1-0.3825 9.3015 6.543 6.543 0 0 1-1.3252 3.717 4.6778 4.6778 0 0 1-3.0668 0.936v1.224a21.132 21.132 0 0 0 8.3542-1.3252 8.2372 8.2372 0 0 0 4.3515-4.617 25.09 25.09 0 0 0 1.35-9.225 79.569 79.569 0 0 1 0.41399-9.4635 10.334 10.334 0 0 1 1.4513-4.653 4.0792 4.0792 0 0 1 3.0308-1.575h0.32175v-0.6615z" fill="#1c1300" stroke-width="2.25" data-name="Path 37"/>
 <path id="path861" d="m18.657 7.8638a23.546 23.546 0 0 0-1.35 8.9482 80.028 80.028 0 0 1-0.4185 9.5243 10.19 10.19 0 0 1-1.4512 4.653 3.8452 3.8452 0 0 1-3.0262 1.5165h-0.32175v0.51975h2.0678a17.775 17.775 0 0 0 9.0248-4.7498q3.4132-3.519 3.4155-11.462a74.077 74.077 0 0 1 0.387-9.0135 6.408 6.408 0 0 1 1.35-3.7125 4.536 4.536 0 0 1 3.0262-0.972v-1.224a20.338 20.338 0 0 0-8.325 1.3905 8.4442 8.4442 0 0 0-4.3785 4.581z" fill="#1c1300" stroke-width="2.25" data-name="Path 38"/>
 <path id="path863" d="m170.21 30.989a10.316 10.316 0 0 1-1.4513-4.653 79.762 79.762 0 0 1-0.42299-9.5243 23.566 23.566 0 0 0-1.35-8.9482 8.478 8.478 0 0 0-4.3808-4.5832 20.378 20.378 0 0 0-8.325-1.3905v1.224a4.5518 4.5518 0 0 1 3.0308 0.972 6.4462 6.4462 0 0 1 1.35 3.7125 74.358 74.358 0 0 1 0.3825 9.0135q0 7.9402 3.4245 11.462a17.741 17.741 0 0 0 9.0248 4.7498h2.0655v-0.51975h-0.32175a3.8542 3.8542 0 0 1-3.0262-1.5142z" fill="#1c1300" stroke-width="2.25" data-name="Path 39"/>
</svg>
