<?xml version="1.0" encoding="UTF-8"?>
<svg id="svg66" width="567.99" height="92.94" version="1.1" viewBox="0 0 567.99 92.94" xml:space="preserve" xmlns="http://www.w3.org/2000/svg">
<style id="style9" type="text/css">
	.st0{fill:#0a0a0a;}
	.st1{fill:url(#SVGID_1_);}
	.st2{fill:url(#SVGID_2_);}
	.st3{fill:url(#SVGID_3_);}
	.st4{fill:url(#SVGID_4_);}
	.st5{fill:url(#SVGID_5_);}
</style>
<g id="g64">
	<g id="g25">
		<path id="path11" class="st0" d="m160.69 50.13c-0.64 16.22-13.42 28.85-29.33 28.85-16.78 0-29.25-13.58-29.25-29.97 0-16.54 13.51-30.13 29.97-30.13 7.43 0 14.7 3.2 20.86 8.95l-4.79 5.91c-4.71-4.08-10.39-6.87-16.06-6.87-12.07 0-21.97 9.91-21.97 22.13 0 12.39 9.35 21.98 21.26 21.98 10.71 0 19.1-7.83 20.78-17.9h-24.29v-7.11h32.84v4.16z"/>
		<path id="path13" class="st0" d="m188.57 46.22h-4.48c-4.94 0-8.95 4.01-8.95 8.95v23.33h-7.99v-39.95h6.55v3.36c2.16-2.16 5.59-3.36 9.43-3.36h8.63z"/>
		<path id="path15" class="st0" d="m232.12 78.5h-6.79v-5.03c-5.25 5.13-13.54 7.59-21.93 3.91-6.22-2.73-10.85-8.4-12.08-15.09-2.38-12.92 7.56-24.38 20.26-24.38 5.35 0 10.15 2.16 13.66 5.67v-5.03h6.87v39.95zm-8.18-17.1c1.89-8.12-4.26-15.5-12.28-15.5-6.95 0-12.55 5.67-12.55 12.55 0 7.77 6.83 13.79 14.78 12.43 4.9-0.84 8.93-4.64 10.05-9.48z"/>
		<path id="path17" class="st0" d="m248.22 36.31v2.24h12.71v7.03h-12.71v32.92h-7.91v-41.95c0-8.79 6.31-13.98 14.22-13.98h9.59l-3.2 7.51h-6.39c-3.51 0-6.31 2.79-6.31 6.23z"/>
		<path id="path19" class="st0" d="m303.28 78.5h-6.79v-5.03c-5.25 5.13-13.54 7.59-21.93 3.91-6.22-2.73-10.85-8.4-12.08-15.09-2.38-12.92 7.56-24.38 20.26-24.38 5.35 0 10.15 2.16 13.66 5.67v-5.03h6.87v39.95zm-8.17-17.1c1.89-8.12-4.26-15.5-12.28-15.5-6.95 0-12.55 5.67-12.55 12.55 0 7.77 6.83 13.79 14.78 12.43 4.9-0.84 8.92-4.64 10.05-9.48z"/>
		<path id="path21" class="st0" d="m345.96 54.85v23.65h-7.99v-23.65c0-4.95-4.08-8.95-8.95-8.95-5.03 0-9.03 4-9.03 8.95v23.65h-7.99v-39.95h6.63v3.44c2.88-2.56 6.71-4.07 10.71-4.07 9.27-0.01 16.62 7.58 16.62 16.93z"/>
		<path id="path23" class="st0" d="m392.95 78.5h-6.79v-5.03c-5.25 5.13-13.54 7.59-21.93 3.91-6.22-2.73-10.85-8.4-12.08-15.09-2.38-12.92 7.56-24.38 20.26-24.38 5.35 0 10.15 2.16 13.66 5.67v-5.03h6.87v39.95zm-8.17-17.1c1.89-8.12-4.26-15.5-12.28-15.5-6.95 0-12.55 5.67-12.55 12.55 0 7.77 6.83 13.79 14.78 12.43 4.9-0.84 8.92-4.64 10.05-9.48z"/>
	</g>
	<g id="g55">
		<linearGradient id="SVGID_1_" x1="432.53" x2="432.53" y1="105.73" y2="21.688" gradientUnits="userSpaceOnUse">
			<stop id="stop27" stop-color="#FFF100" offset="0"/>
			<stop id="stop29" stop-color="#F05A28" offset="1"/>
		</linearGradient>
		<path id="path32" class="st1" d="m447.6 78.5h-30.14v-59.48h8.04v51.36h22.1z" fill="url(#SVGID_1_)"/>
		<linearGradient id="SVGID_2_" x1="469.66" x2="469.66" y1="105.73" y2="21.688" gradientUnits="userSpaceOnUse">
			<stop id="stop34" stop-color="#FFF100" offset="0"/>
			<stop id="stop36" stop-color="#F05A28" offset="1"/>
		</linearGradient>
		<path id="path39" class="st2" d="m490.36 78.5h-6.83v-5.06c-3.54 3.46-8.44 5.71-13.82 5.71-11.49 0-20.74-9.32-20.74-20.82 0-11.33 9.24-20.66 20.74-20.66 5.39 0 10.21 2.17 13.74 5.71v-5.06h6.91zm-7.88-20.18c0-6.91-5.63-12.62-12.7-12.62-6.99 0-12.62 5.71-12.62 12.62 0 7.07 5.63 12.7 12.62 12.7 7.08 0 12.7-5.62 12.7-12.7z" fill="url(#SVGID_2_)"/>
		<linearGradient id="SVGID_3_" x1="517.8" x2="517.8" y1="105.73" y2="21.688" gradientUnits="userSpaceOnUse">
			<stop id="stop41" stop-color="#FFF100" offset="0"/>
			<stop id="stop43" stop-color="#F05A28" offset="1"/>
		</linearGradient>
		<path id="path46" class="st3" d="m538.5 58.4c0 11.41-9.32 20.74-20.73 20.74-5.39 0-10.37-2.25-13.91-5.71v5.06h-6.75v-56.25h7.96v20.25c3.3-2.97 7.8-4.82 12.7-4.82 11.41 0 20.73 9.24 20.73 20.73zm-8.2 0c0-6.99-5.71-12.62-12.62-12.62s-12.62 5.63-12.62 12.62c0 6.91 5.71 12.54 12.62 12.54s12.62-5.62 12.62-12.54z" fill="url(#SVGID_3_)"/>
		<linearGradient id="SVGID_4_" x1="554.37" x2="554.37" y1="105.73" y2="21.688" gradientUnits="userSpaceOnUse">
			<stop id="stop48" stop-color="#FFF100" offset="0"/>
			<stop id="stop50" stop-color="#F05A28" offset="1"/>
		</linearGradient>
		<path id="path53" class="st4" d="m565.99 41.2-3.54 5.87c-1.69-1.04-4.58-2.65-7.8-2.65-3.05 0-5.79 1.53-5.79 4.02 0 2.73 3.13 3.78 7.07 5.22 6.43 2.25 12.06 6.59 12.06 13.18 0 6.67-5.71 12.3-13.9 12.3-4.98 0-9.97-2.01-13.34-4.1l3.14-6.67c2.33 1.37 6.67 3.05 9.97 3.05 4.02 0 5.79-2.41 5.79-4.74 0-2.73-2.49-4.26-8.04-6.43-4.02-1.61-10.53-4.26-10.53-11.41 0-6.67 5.71-11.17 13.34-11.17 4.5 0 8.19 1.52 11.57 3.53z" fill="url(#SVGID_4_)"/>
	</g>
	<linearGradient id="SVGID_5_" x1="42.775" x2="42.775" y1="113.82" y2="28.926" gradientUnits="userSpaceOnUse">
		<stop id="stop57" stop-color="#FFF100" offset="0"/>
		<stop id="stop59" stop-color="#F05A28" offset="1"/>
	</linearGradient>
	<path id="path62" class="st5" d="m85.43 41c-0.14-1.56-0.41-3.36-0.93-5.35-0.52-1.98-1.29-4.15-2.4-6.41-1.13-2.24-2.6-4.58-4.5-6.84-0.74-0.89-1.55-1.76-2.43-2.62 1.31-5.2-1.59-9.7-1.59-9.7-5-0.31-8.18 1.55-9.36 2.41-0.2-0.08-0.39-0.17-0.59-0.25-0.85-0.35-1.73-0.67-2.63-0.95s-1.82-0.54-2.76-0.77c-0.94-0.22-1.9-0.41-2.87-0.56-0.17-0.03-0.34-0.05-0.51-0.07-2.18-6.98-8.45-9.89-8.45-9.89-6.98 4.43-8.31 10.63-8.31 10.63s-0.03 0.14-0.07 0.37c-0.39 0.11-0.77 0.22-1.16 0.34-0.54 0.16-1.06 0.36-1.6 0.55-0.53 0.21-1.06 0.41-1.59 0.64-1.05 0.45-2.1 0.96-3.12 1.53-0.99 0.56-1.96 1.17-2.91 1.83-0.14-0.06-0.24-0.11-0.24-0.11-9.67-3.69-18.26 0.75-18.26 0.75-0.78 10.29 3.86 16.77 4.78 17.94-0.23 0.64-0.44 1.28-0.64 1.93-0.72 2.33-1.25 4.72-1.58 7.2-0.05 0.35-0.09 0.71-0.13 1.07-8.93 4.41-11.58 13.46-11.58 13.46 7.46 8.58 16.15 9.11 16.15 9.11 0.01-0.01 0.02-0.01 0.02-0.02 1.11 1.97 2.39 3.85 3.82 5.6 0.6 0.73 1.24 1.44 1.89 2.12-2.72 7.77 0.38 14.25 0.38 14.25 8.3 0.31 13.76-3.63 14.9-4.54 0.83 0.28 1.66 0.53 2.51 0.75 2.55 0.66 5.16 1.04 7.77 1.16 0.65 0.03 1.3 0.04 1.96 0.04h0.32l0.21-0.01 0.41-0.01 0.41-0.02 0.01 0.01c3.91 5.58 10.79 6.37 10.79 6.37 4.89-5.16 5.17-10.27 5.17-11.38v-0.07-0.16c0-0.08-0.01-0.15-0.01-0.24 1.03-0.72 2.01-1.49 2.93-2.32 1.96-1.77 3.67-3.79 5.09-5.96 0.13-0.2 0.26-0.41 0.39-0.62 5.54 0.32 9.44-3.43 9.44-3.43-0.92-5.77-4.21-8.58-4.89-9.12 0 0-0.03-0.02-0.07-0.05s-0.06-0.05-0.06-0.05c-0.04-0.02-0.08-0.05-0.12-0.08 0.03-0.35 0.06-0.69 0.08-1.04 0.04-0.62 0.06-1.24 0.06-1.86v-0.81-0.16l-0.02-0.39-0.03-0.52c-0.01-0.18-0.02-0.34-0.04-0.5-0.01-0.16-0.03-0.32-0.05-0.48l-0.06-0.48-0.07-0.48c-0.09-0.63-0.22-1.26-0.36-1.89-0.58-2.49-1.55-4.85-2.83-6.97s-2.88-4-4.67-5.58c-1.8-1.59-3.81-2.86-5.92-3.81s-4.33-1.56-6.54-1.84c-1.1-0.14-2.21-0.2-3.3-0.19l-0.41 0.01h-0.1-0.14l-0.17 0.01-0.4 0.03c-0.15 0.01-0.31 0.02-0.45 0.04-0.56 0.05-1.12 0.13-1.66 0.24-2.19 0.41-4.26 1.2-6.09 2.29-1.82 1.09-3.41 2.46-4.7 4-1.29 1.55-2.29 3.26-2.98 5.03s-1.07 3.6-1.18 5.38c-0.03 0.44-0.04 0.89-0.03 1.32 0 0.11 0 0.22 0.01 0.33l0.01 0.36c0.02 0.21 0.03 0.43 0.05 0.64 0.09 0.9 0.25 1.76 0.49 2.6 0.48 1.66 1.25 3.17 2.21 4.45 0.95 1.28 2.09 2.34 3.3 3.17s2.5 1.42 3.78 1.79c1.28 0.38 2.55 0.54 3.75 0.54 0.15 0 0.3 0 0.45-0.01 0.08 0 0.16-0.01 0.24-0.01s0.16-0.01 0.24-0.01c0.13-0.01 0.25-0.03 0.38-0.04 0.03 0 0.07-0.01 0.11-0.01l0.12-0.02c0.08-0.01 0.15-0.02 0.23-0.03 0.16-0.02 0.29-0.05 0.44-0.08 0.14-0.03 0.28-0.05 0.42-0.09 0.28-0.06 0.54-0.14 0.8-0.23 0.52-0.17 1.01-0.38 1.47-0.61 0.46-0.24 0.88-0.5 1.27-0.77 0.11-0.08 0.22-0.16 0.33-0.25 0.42-0.33 0.49-0.94 0.15-1.35-0.29-0.36-0.8-0.45-1.2-0.23-0.1 0.05-0.2 0.11-0.3 0.16-0.35 0.17-0.71 0.32-1.1 0.45-0.39 0.12-0.79 0.22-1.21 0.3-0.21 0.03-0.42 0.06-0.64 0.08-0.11 0.01-0.22 0.02-0.32 0.02-0.11 0-0.22 0.01-0.32 0.01s-0.21 0-0.31-0.01c-0.13-0.01-0.26-0.01-0.39-0.02h-0.01-0.04l-0.09-0.01c-0.06-0.01-0.12-0.01-0.17-0.02-0.12-0.01-0.23-0.03-0.35-0.04-0.94-0.13-1.89-0.4-2.8-0.82-0.92-0.41-1.8-0.99-2.59-1.7s-1.48-1.57-2.02-2.54-0.92-2.04-1.1-3.17c-0.09-0.56-0.13-1.15-0.11-1.72 0.01-0.16 0.01-0.31 0.02-0.47v-0.03-0.06l0.01-0.12c0.01-0.08 0.01-0.15 0.02-0.23 0.03-0.31 0.08-0.62 0.13-0.93 0.43-2.46 1.66-4.86 3.57-6.68 0.48-0.45 0.99-0.88 1.54-1.25 0.55-0.38 1.13-0.71 1.73-0.99 0.61-0.28 1.24-0.51 1.89-0.68s1.32-0.29 1.99-0.35c0.34-0.03 0.68-0.04 1.02-0.04h0.23l0.28 0.01 0.17 0.01h0.03 0.07l0.28 0.02c0.73 0.06 1.46 0.16 2.18 0.33 1.44 0.32 2.84 0.85 4.15 1.57 2.61 1.45 4.84 3.71 6.2 6.44 0.69 1.36 1.17 2.82 1.41 4.33 0.06 0.38 0.1 0.76 0.13 1.14l0.02 0.29 0.01 0.29c0.01 0.1 0.01 0.19 0.01 0.29s0.01 0.2 0 0.27v0.25l-0.01 0.28c-0.01 0.19-0.02 0.49-0.03 0.68-0.03 0.42-0.07 0.83-0.12 1.25-0.05 0.41-0.12 0.82-0.19 1.23-0.08 0.41-0.17 0.81-0.27 1.21-0.2 0.8-0.46 1.6-0.77 2.37-0.61 1.55-1.43 3.02-2.41 4.38-1.97 2.71-4.66 4.92-7.72 6.32-1.53 0.69-3.15 1.2-4.8 1.47-0.83 0.14-1.67 0.22-2.51 0.25l-0.16 0.01h-1.02-0.01-0.08c-0.45-0.01-0.9-0.03-1.35-0.07-1.8-0.13-3.57-0.45-5.29-0.95s-3.39-1.17-4.97-2.01c-3.16-1.69-5.98-4-8.19-6.79-1.11-1.39-2.08-2.88-2.88-4.45s-1.43-3.22-1.9-4.9c-0.46-1.69-0.75-3.41-0.86-5.15l-0.02-0.33-0.01-0.08v-0.21l-0.01-0.29v-0.37l-0.01-0.4v-0.08-0.03-0.16c0-0.21 0.01-0.42 0.01-0.64 0.03-0.86 0.1-1.74 0.22-2.62 0.11-0.88 0.26-1.77 0.44-2.65s0.4-1.75 0.64-2.6c0.49-1.71 1.1-3.37 1.83-4.94 1.45-3.14 3.35-5.91 5.64-8.13 0.57-0.56 1.16-1.09 1.78-1.58 0.61-0.49 1.25-0.95 1.91-1.38 0.65-0.43 1.33-0.83 2.03-1.19 0.34-0.19 0.7-0.35 1.05-0.52 0.18-0.08 0.36-0.16 0.54-0.24s0.36-0.16 0.54-0.23c0.72-0.31 1.47-0.56 2.22-0.8 0.19-0.06 0.38-0.11 0.57-0.17s0.38-0.1 0.57-0.16c0.38-0.11 0.77-0.2 1.15-0.29 0.19-0.05 0.39-0.09 0.58-0.13s0.39-0.08 0.58-0.12c0.2-0.04 0.39-0.07 0.59-0.11l0.29-0.05 0.29-0.04c0.2-0.03 0.39-0.06 0.59-0.09 0.22-0.04 0.44-0.05 0.66-0.09 0.18-0.02 0.48-0.06 0.66-0.08 0.14-0.01 0.28-0.03 0.42-0.04l0.28-0.03 0.14-0.01 0.16-0.01c0.22-0.01 0.44-0.03 0.67-0.04l0.33-0.02h0.02 0.07l0.14-0.01 0.57-0.03c0.75-0.02 1.5-0.02 2.25 0 1.49 0.06 2.95 0.22 4.37 0.49 2.84 0.53 5.51 1.44 7.93 2.64 2.42 1.18 4.59 2.64 6.47 4.22 0.12 0.1 0.23 0.2 0.35 0.3 0.11 0.1 0.23 0.2 0.34 0.3 0.23 0.2 0.45 0.41 0.67 0.61s0.43 0.41 0.64 0.62 0.42 0.42 0.61 0.63c0.8 0.85 1.54 1.7 2.2 2.56 1.34 1.72 2.41 3.46 3.26 5.1 0.05 0.1 0.11 0.2 0.16 0.31 0.05 0.1 0.1 0.2 0.15 0.31 0.1 0.2 0.2 0.4 0.29 0.6s0.19 0.4 0.27 0.59c0.09 0.2 0.17 0.39 0.25 0.58 0.32 0.77 0.61 1.5 0.84 2.19 0.39 1.11 0.68 2.12 0.9 3 0.09 0.35 0.42 0.58 0.78 0.55 0.37-0.03 0.66-0.34 0.67-0.71-0.06-1-0.08-2.1-0.19-3.36z" fill="url(#SVGID_5_)"/>
</g>
</svg>
