<?xml version="1.0" encoding="UTF-8"?>
<!-- Created with Inkscape (http://www.inkscape.org/) -->
<svg id="svg2" width="2405.4" height="513.46" version="1.1" viewBox="0 0 2405.4 513.46" xml:space="preserve" xmlns="http://www.w3.org/2000/svg"><defs id="defs6"><clipPath id="clipPath16"><path id="path14" d="m0 1e3h2160v-1e3h-2160z"/></clipPath></defs><g id="g8" transform="matrix(1.3333 0 0 -1.3333 -234.81 920.45)"><g id="g10"><g id="g12" clip-path="url(#clipPath16)"><g id="g18" transform="translate(755.35 486.83)"><path id="path20" d="m0 0h30.799v-44.399c0-22.4-11.199-35.2-32.799-35.2s-32.8 12.8-32.8 35.2v72.798c0 22.4 11.2 35.2 32.8 35.2s32.799-12.8 32.799-35.2v-13.599h-20.799v15c0 9.999-4.4 13.8-11.4 13.8s-11.4-3.801-11.4-13.8v-75.6c0-10 4.4-13.599 11.4-13.599s11.4 3.599 11.4 13.599v25.8h-10z" fill="#3c3c3b"/></g><g id="g22" transform="translate(822.35 528.83)"><path id="path24" d="m0 0v-42.999h8.6c8.2 0 13.2 3.6 13.2 14.8v13.8c0 10-3.4 14.399-11.2 14.399zm24-120c-1.2 3.6-2 5.8-2 17.2v21.999c0 13-4.4 17.8-14.4 17.8h-7.6v-56.999h-22v140h33.2c22.8 0 32.599-10.6 32.599-32.199v-11c0-14.401-4.6-23.8-14.4-28.4 11-4.6 14.601-15.2 14.601-29.799v-21.6c0-6.8 0.199-11.8 2.399-17z" fill="#3c3c3b"/></g><g id="g26" transform="translate(902.75 489.83)"><path id="path28" d="m0 0h30.2v-20h-30.2v-40.999h38v-20h-60v140h60v-20h-38z" fill="#3c3c3b"/></g><g id="g30" transform="translate(976.35 489.83)"><path id="path32" d="m0 0h30.2v-20h-30.2v-40.999h38v-20h-60v140h60v-20h-38z" fill="#3c3c3b"/></g><g id="g34" transform="translate(1047.5 510.23)"><path id="path36" d="m0 0v-101.4h-19.8v140h27.6l22.599-83.799v83.799h19.6v-140h-22.6z" fill="#3c3c3b"/></g><g id="g38" transform="translate(1166.3 486.63)"><path id="path40" d="m0 0h28.4v-20h-28.4v-57.799h-21.999v140h58.199v-20h-36.2z" fill="#3c3c3b"/></g><g id="g42" transform="translate(1233.3 441.03)"><path id="path44" d="m0 0c0-10 4.399-13.8 11.399-13.8 6.999 0 11.4 3.8 11.4 13.8v75.6c0 9.999-4.401 13.799-11.4 13.799-7 0-11.399-3.8-11.399-13.799zm-22 74.199c0 22.4 11.799 35.199 33.399 35.199s33.4-12.799 33.4-35.199v-72.799c0-22.399-11.8-35.199-33.4-35.199s-33.399 12.8-33.399 35.199z" fill="#3c3c3b"/></g><g id="g46" transform="translate(1362.7 548.83)"><path id="path48" d="m0 0-23-67.999 24.6-71.999h-23.2l-18 55.399-18.2-55.399h-20.599l24.599 71.999-22.999 67.999h22.799l16.6-51.6 17 51.6z" fill="#3c3c3b"/></g><g id="g50" transform="translate(1427.3 453.23)"><path id="path52" d="m0 0h21.2l-10.599 70.799zm50.199-44.399h-22.199l-3.8 25.399h-26.999l-3.801-25.399h-20.199l22.4 140h32.2z" fill="#3c3c3b"/></g><g id="g54" transform="translate(1551.5 461.03)"><path id="path56" d="m0 0v-18.6c0-22.399-11.199-35.199-32.799-35.199-21.599 0-32.801 12.8-32.801 35.199v72.799c0 22.4 11.202 35.199 32.801 35.199 21.6 0 32.799-12.799 32.799-35.199v-13.599h-20.8v15c0 9.999-4.399 13.799-11.399 13.799s-11.401-3.8-11.401-13.799v-75.6c0-10 4.401-13.6 11.401-13.6s11.399 3.6 11.399 13.6v20z" fill="#3c3c3b"/></g><g id="g58" transform="translate(1585.9 453.23)"><path id="path60" d="m0 0h21.199l-10.599 70.799zm50.199-44.399h-22.2l-3.8 25.399h-27l-3.8-25.399h-20.199l22.4 140h32.199z" fill="#3c3c3b"/></g><g id="g62" transform="translate(1668.3 528.83)"><path id="path64" d="m0 0v-99.998h12.4c7 0 11.2 3.6 11.2 13.6v72.798c0 10-4.2 13.6-11.2 13.6zm-21.999 20h34.8c21.999 0 32.799-12.2 32.799-34.6v-70.798c0-22.4-10.8-34.6-32.799-34.6h-34.8z" fill="#3c3c3b"/></g><g id="g66" transform="translate(1749.9 489.83)"><path id="path68" d="m0 0h30.2v-20h-30.2v-40.999h38v-20h-59.999v140h59.999v-20h-38z" fill="#3c3c3b"/></g><g id="g70" transform="translate(1848.1 449.43)"><path id="path72" d="m0 0 15 99.398h30.6v-140h-20.8v100.4l-15.2-100.4h-20.799l-16.401 98.998v-98.998h-19.199v140h30.6z" fill="#3c3c3b"/></g><g id="g74" transform="translate(1930.3 455.23)"><path id="path76" d="m 0,0 -27.8,93.599 h 23 L 12,29.8 28.799,93.599 h 21 L 22,0 V -46.399 H 0 Z" fill="#3c3c3b"/></g><g id="g78" transform="translate(414.72 520.45)"><path id="path80" d="m0 0c0-6.097-4.178-11.038-9.331-11.038s-9.326 4.941-9.326 11.038c0 6.095 4.173 11.04 9.326 11.04 5.153-3e-3 9.331-4.945 9.331-11.04" fill="#3cb878"/></g><g id="g82" transform="translate(283.08 520.45)"><path id="path84" d="m0 0c0-6.097-4.178-11.038-9.331-11.038-5.154 0-9.327 4.941-9.327 11.038s4.173 11.04 9.327 11.04c5.153-1e-3 9.331-4.943 9.331-11.04" fill="#007335"/></g><g id="g86" transform="translate(429.86 539.04)"><path id="path88" d="m0 0c0-54.981-49.675-36.942-49.675-36.942-1.14 51.677 49.675 36.942 49.675 36.942m10.532-29.301c16.52 13.923 31.504 24.518 40.473 26.224l20.129 20.129c-7.178 9.048-15.616 17.15-25.04 24.325-0.11 0.083-0.216 0.17-0.326 0.254-8.36 6.329-17.496 11.925-27.227 16.786 1e-3 4e-3 1e-3 7e-3 2e-3 0.01 9.983 50.729 42.664 90.395 43.892 91.871 0.023 0.029 0.039 0.048 0.039 0.048-76.129 8.999-108.29-48.461-117.61-70.115-0.135 0.019-0.269 0.04-0.404 0.057-11.794 1.538-23.78 2.307-35.766 2.307v-186.99c7e-3 0 0.014 1e-3 0.021 1e-3h8e-3c8e-3 0 0.016 1e-3 0.025 1e-3h3e-3c6.188-0.022 11.929-1.744 16.998-4.527h1e-3c0.05-0.027 0.101-0.054 0.151-0.081 0.516-0.286 1.024-0.586 1.524-0.895 6.515 6.959 48.239 51.206 83.111 80.596" fill="#3cb878"/></g><g id="g90" transform="translate(296.91 502.1)"><path id="path92" d="m0 0s-49.675-18.039-49.675 36.942c0 0 50.818 14.736 49.675-36.942m5.466 117.17c-9.322 21.651-41.485 79.113-117.62 70.114 0 0 0.016-0.018 0.04-0.048 1.208-1.452 32.884-39.898 43.401-89.477 1e-3 -1e-3 1e-3 -1e-3 1e-3 -2e-3 0.168-0.793 0.331-1.589 0.488-2.388 2e-3 -9e-3 4e-3 -0.019 6e-3 -0.027-9.859-4.926-19.099-10.612-27.55-17.04-9.426-7.169-17.87-15.266-25.046-24.312l20.181-20.181c8.973-1.739 23.921-12.309 40.402-26.199 34.89-29.403 76.649-73.69 83.137-80.62-3.39-2.108-6.407-4.741-8.92-7.802l0.018-0.017c2.905 3.543 6.482 6.516 10.536 8.765 0.034 0.018 0.069 0.037 0.102 0.054 5.066 2.792 10.806 4.522 16.989 4.553v186.99c-12.124 0-24.246-0.791-36.17-2.363" fill="#007335"/></g><g id="g94" transform="translate(357.28 429.14)"><path id="path96" d="m0 0c-4e-3 -4e-3 -9e-3 -9e-3 -0.012-0.013 3.395-2.104 6.419-4.734 8.939-7.793l-1.345-1.345 0.015-0.016 1.361 1.361c-2.524 3.065-5.554 5.7-8.958 7.806" fill="#f6f3cf"/></g><g id="g98" transform="translate(357.27 429.13)"><path id="path100" d="m0 0c-0.507 0.314-1.021 0.617-1.544 0.908-0.05 0.028-0.101 0.054-0.151 0.081h-1e-3c-5.07 2.783-10.809 4.505-16.998 4.528h-3e-3c-9e-3 0-0.017-1e-3 -0.025-1e-3h-8e-3c-7e-3 0-0.015-1e-3 -0.021-1e-3 -6.183-0.032-11.924-1.761-16.989-4.553l-0.102-0.054c-0.544-0.302-1.077-0.619-1.603-0.946-3.397-2.112-6.418-4.751-8.934-7.819l1.333-1.332 26.264-26.264v-0.061l0.031 0.031 0.029-0.031v0.061l26.316 26.314 1.345 1.346c-2.52 3.059-5.543 5.689-8.939 7.793" fill="#3c3c3b"/></g><g id="g102" transform="translate(448.4 597.47)"><path id="path104" d="m0 0c-1e-3 -3e-3 -1e-3 -6e-3 -2e-3 -0.01 9.731-4.861 18.867-10.457 27.227-16.786 0.11-0.084 0.216-0.171 0.326-0.254 9.149 20.507 15.844 59.214 16.38 108.97 0 0-0.015-0.019-0.039-0.048-1.227-1.475-33.909-41.142-43.892-91.871" fill="#3c3c3b"/></g><g id="g106" transform="translate(448.4 597.47)"><path id="path108" d="M 0,0 C 9.983,50.729 42.665,90.396 43.892,91.871 42.664,90.396 9.983,50.729 0,0" fill="#3c3c3b"/></g><g id="g110" transform="translate(228.7 597.47)"><path id="path112" d="m0 0c-0.157 0.799-0.32 1.595-0.488 2.388 0 1e-3 0 1e-3 -1e-3 2e-3 -10.517 49.58-42.194 88.026-43.402 89.477-0.024 0.029-0.039 0.048-0.039 0.048 0.536-49.766 7.234-88.477 16.386-108.98 8.451 6.428 17.69 12.114 27.55 17.04-3e-3 8e-3 -5e-3 0.018-6e-3 0.027" fill="#3c3c3b"/></g><g id="g114" transform="translate(184.8 689.34)"><path id="path116" d="M 0,0 C 1.208,-1.451 32.885,-39.897 43.402,-89.478 32.885,-39.898 1.208,-1.452 0,0" fill="#3c3c3b"/></g><g id="g118" transform="translate(228.21 599.86)"><path id="path120" d="m0 0c0.168-0.793 0.331-1.589 0.488-2.388-0.157 0.799-0.32 1.595-0.488 2.388" fill="#3c3c3b"/></g><g id="g122" transform="translate(338.55 393.68)"><path id="path124" d="m0 0v-0.061l-0.03 0.031-0.031-0.031v0.061l-26.263 26.264-6e-3 -6e-3s-45.879 45.88-81.05 81.051c-10.418-18.132-16.376-39.153-16.376-61.564 0-68.35 55.408-123.76 123.76-123.76h1e-3v78.016z" fill="#007335"/></g><g id="g126" transform="translate(524.39 465.25)"><path id="path128" d="m 0,0 c -0.677,21.906 12.78,48.868 12.78,48.868 -15.341,0.723 -30.744,-5.037 -43.909,-12.372 21.35,45.211 86.038,78.657 86.038,78.657 0,0 73.264,-70.829 -11.46,-151.125 C 51.405,-1.277 39.617,28.43 39.617,28.43 26.59,7.073 0,0 0,0" fill="#f6f3cf"/></g><g id="g130" transform="translate(564.01 493.68)"><path id="path132" d="m0 0c-13.026-21.356-39.617-28.43-39.617-28.43-0.676 21.907 12.78 48.868 12.78 48.868-15.34 0.723-30.744-5.037-43.909-12.372-1.809-3.828-3.402-7.708-4.525-11.69-5.249-18.676-14.283-37.12-26.454-52.349-0.372-27.305-9.582-52.473-24.906-72.773 29.72 2.373 67.836 14.685 112.49 49.029 6.666 5.135 12.608 10.244 17.971 15.316 7.956 34.694-3.833 64.401-3.833 64.401" fill="#3cb878"/></g><g id="g134" transform="translate(445.92 501.01)"><path id="path136" d="m0 0c-35.17-35.17-81.038-81.037-81.038-81.037l-0.015 0.016-26.313-26.313v-78.016c40.381 0 76.241 19.344 98.829 49.267 15.325 20.3 24.535 45.468 24.906 72.773 8e-3 0.573 0.022 1.144 0.022 1.719 0 22.423-5.964 43.452-16.391 61.591" fill="#3cb878"/></g><g id="g138" transform="translate(440.39 509.74)"><path id="path140" d="m0 0c-34.872-29.391-76.596-73.638-83.11-80.597 3.403-2.106 6.433-4.741 8.958-7.805 3.811 3.81 15.292 15.292 29.721 29.721l84.904 84.905c-8.969-1.706-23.952-12.301-40.473-26.224" fill="#f6f3cf"/></g><g id="g142" transform="translate(319.82 429.09)"><path id="path144" d="m0 0c-6.487 6.93-48.247 51.217-83.137 80.62-16.48 13.89-31.429 24.46-40.402 26.198l114.62-114.62c2.513 3.061 5.529 5.694 8.919 7.802" fill="#d5d2b1"/></g><g id="g146" transform="translate(290.88 346.04)"><path id="path148" d="m0 0c-22.531 0-40.805-18.267-40.805-40.801h81.61c0 22.534-18.275 40.801-40.805 40.801" fill="#3c3c3b"/></g><g id="g150" transform="translate(385.19 346.04)"><path id="path152" d="m0 0c-22.534 0-40.806-18.267-40.806-40.801h81.603c0 22.534-18.258 40.801-40.797 40.801" fill="#3c3c3b"/></g></g></g></g></svg>
