<?xml version="1.0" encoding="UTF-8"?>
<svg id="svg21" width="243.66" height="48.859" fill="none" version="1.1" viewBox="0 0 243.66 48.859" xmlns="http://www.w3.org/2000/svg">
 <g id="g21" transform="translate(-.28125 -.14062)" clip-path="url(#clip0_3138_1451)" fill="#121212">
  <path id="path1" d="m243.65 36.82c-0.28-0.0704-0.421 0.5632-0.421 0.5632-2.244 7.4627-9.889 9.7156-13.746 9.7156-5.821 0-8.416-5.6322-8.837-10.279-0.351-2.8865-0.281-4.6465-0.141-7.6738 0-0.4928 0.351-0.4928 0.562-0.4928h20.128c1.613 0 2.385-0.7041 2.385-3.1681 0-7.2515-9.047-12.18-15.851-12.18-10.38 0-17.814 8.6594-17.814 17.882 0 10.138 8.627 17.601 17.814 17.601 8.978 0 14.518-5.8434 16.131-11.405 0 0.0704 0.281-0.4224-0.21-0.5632zm-23.074-9.6451c0-1.1264 0.07-2.3937 0.14-3.8721 0.491-5.2098 2.455-9.2227 6.943-9.2227 3.226 0 4.84 2.2529 5.471 5.8434 0.421 2.3232 0.561 4.9281 0.561 7.1106 0 0.4928-0.421 0.6336-0.631 0.6336h-11.923c-0.281 0-0.561 0-0.561-0.4928zm-25.53 20.91h8.487v-22.318c0-9.5043-7.575-12.602-12.975-12.602-5.401 0-7.925 2.1824-9.398 4.5057h-0.211v-3.1681c0-0.2112-0.14-0.4224-0.701-0.4224h-11.643c-0.49 0-0.631 0.0704-0.631 0.4224s0.141 0.4224 0.631 0.4224h3.297c0.701 0 0.771 0.704 0.771 3.0273v30.062h8.417v-27.386c0-2.0417 2.314-6.5474 7.574-6.5474 3.226 0 6.312 1.3376 6.312 6.7586v27.246zm-32.893-42.945c0-2.8161-2.174-4.9986-4.909-4.9986-2.736 0-4.98 2.1825-4.98 4.9986s2.244 4.9281 4.98 4.9281c2.735-0.07035 4.909-2.112 4.909-4.9281zm-1.052 9.0115h-11.853c-0.491 0-0.631 0.0704-0.631 0.4224s0.14 0.4224 0.631 0.4224h3.297c0.701 0 0.771 0.704 0.771 3.0273v30.062h8.416v-33.582c0-0.2112-0.07-0.352-0.631-0.352zm-16.341 16.544v-0.6336-0.2816c-0.281-6.6178-4.209-12.743-11.783-15.488-0.912-0.352-1.824-0.5632-2.735-0.7744 0 0-0.491-0.1408-0.561 0.2112-0.071 0.352 0.21 0.4224 0.21 0.4224 0.982 0.2112 1.683 0.4928 2.805 0.8448 3.647 1.3377 4.699 3.8017 4.629 6.6882 0 1.6193-0.421 3.3793-0.841 5.1394-1.263 4.5761-3.016 9.4339-4.98 13.728-0.281 0.7041-0.631 1.3377-0.982 2.0417 0 0-2.104 4.2242-3.507 6.6882h0.421c7.575 0.0704 13.536-4.8577 16.131-12.109 0.421-1.1264 0.702-2.3232 0.912-3.4497v-0.0704l0.21-1.4784v-0.352c0.071-0.4225 0.071-0.7745 0.071-1.1265zm-21.532-10.983s2.104-4.2242 3.507-6.6883h-0.421c-7.575-0.0704-13.536 4.8578-16.131 12.109-0.631 1.6897-0.982 3.3794-1.122 4.9986v0.4928 0.9857 0.9152 0.4928c0.421 6.4066 4.348 12.25 11.712 14.925 0.912 0.352 1.824 0.5632 2.736 0.7744 0 0 0.491 0.1408 0.631-0.2112s-0.281-0.4224-0.281-0.4224c-0.982-0.2112-1.683-0.4928-2.805-0.8448-1.403-0.4928-2.455-1.1969-3.156-2.0417v-0.0704c-2.104-2.4641-1.613-6.0546-0.561-9.6451 1.262-4.5762 3.016-9.4339 4.979-13.728 0.211-0.704 0.561-1.408 0.912-2.0416zm-16.482-0.4224c0-4.013-3.787-6.125-7.0833-6.125-3.5068 0-6.4524 1.8304-7.9253 4.7873h-0.1402v-3.3793c0-0.2112-0.0702-0.4224-0.7014-0.4224h-11.642c-0.491 0-0.6312 0.0704-0.6312 0.4224s0.1402 0.4224 0.6312 0.4224h3.2963c0.7014 0 0.7715 0.704 0.7715 3.0273v30.062h8.4162v-27.034c0-3.6609 3.4366-6.8994 6.4524-6.8994 0.7715 0 1.543 0.4928 1.543 1.3376 0 1.4785-2.104 1.6897-2.104 4.2946s2.104 4.2945 4.4182 4.2945c2.595 0 4.699-1.9009 4.699-4.7873zm-30.579 18.164s0.2104-0.4928-0.2805-0.6336c-0.2806-0.0704-0.4208 0.5632-0.4208 0.5632-2.2444 7.4627-9.8891 9.7156-13.746 9.7156-5.8212 0-8.4162-5.6322-8.837-10.279-0.3507-2.8865-0.2806-4.6465-0.1403-7.6738 0-0.4928 0.3507-0.4928 0.5611-0.4928h20.129c1.6131 0 2.3845-0.7041 2.3845-3.1681 0-7.2515-9.0474-12.18-15.85-12.18-10.38 0-17.814 8.6594-17.814 17.882 0 10.138 8.6266 17.601 17.814 17.601 9.0474 0.0704 14.588-5.773 16.201-11.335zm-23.355-10.279c0-1.1264 0.0702-2.3937 0.1403-3.8721 0.491-5.2098 2.4547-9.2227 6.9434-9.2227 3.2262 0 4.8393 2.2529 5.4705 5.8434 0.4208 2.3232 0.5611 4.9281 0.5611 7.1106 0 0.4928-0.4208 0.6336-0.6312 0.6336h-11.923c-0.2104 0-0.5611 0-0.5611-0.4928zm-25.459 20.91h8.4162v-22.318c0-9.5043-7.4343-12.602-12.905-12.602-5.4004 0-7.8551 2.1824-9.3279 4.4353h-0.0702v-15.7c0-0.2112-0.0701-0.42241-0.6312-0.42241h-11.923c-0.49095 0-0.63122 0.0704-0.63122 0.42241s0.14027 0.42242 0.63122 0.42242h3.2964c0.70135 0 0.77148 0.70402 0.77148 3.0273v42.734h8.4162v-27.386c0-2.0417 2.3145-6.5474 7.5746-6.5474 3.2262 0 6.3122 1.3376 6.3122 6.7586z"/>
  <path id="path2" d="m167.9 8.5184 2.665-3.2385h-2.524v-0.84483h3.717v0.84483l-2.525 3.1681h2.665l-0.14 0.84483h-3.858z"/>
  <path id="path3" d="m172.6 10.701v-4.1537-0.84483h0.981c0 0.0704 0.071 0.35201 0.071 0.42241 0.14-0.28161 0.49-0.56322 1.052-0.56322 0.841 0 1.472 0.70403 1.472 1.8305 0 1.2672-0.701 1.9713-1.543 1.9713-0.491 0-0.771-0.21121-0.911-0.42242v1.6897zm1.753-4.2946c-0.561 0-0.772 0.35201-0.772 1.1264 0 0.70402 0.211 1.1264 0.702 1.1264 0.561 0 0.771-0.42241 0.771-1.1264 0.07-0.77443-0.21-1.1264-0.701-1.1264z"/>
  <path id="path4" d="m180.18 8.237v1.056h-0.982v-0.42242c-0.211 0.35202-0.561 0.49282-0.982 0.49282-0.702 0-1.193-0.42241-1.193-1.3376v-2.3937h0.982v2.1825c0 0.42241 0.141 0.70402 0.561 0.70402 0.421 0 0.632-0.28161 0.632-0.98563v-1.9009h0.982zm-2.455-3.6609c0-0.42241 0.28-0.70402 0.841-0.70402 0.562 0 0.842 0.28161 0.842 0.70402 0 0.42242-0.351 0.70403-0.842 0.70403-0.561 0-0.841-0.28161-0.841-0.70403zm1.192 0c0-0.1408-0.14-0.35201-0.351-0.35201-0.21 0-0.35 0.14081-0.35 0.28161 0 0.14081 0.07 0.28161 0.35 0.28161 0.281 0 0.351-0.0704 0.351-0.21121z"/>
  <path id="path5" d="m181.93 8.2368c0.07 0.28161 0.281 0.42241 0.702 0.42241 0.35 0 0.491-0.1408 0.491-0.35201 0-0.2112-0.141-0.35201-0.702-0.42241-1.192-0.28161-1.402-0.63362-1.402-1.1968s0.35-1.1264 1.472-1.1264c1.123 0 1.473 0.63362 1.473 1.1264h-0.912c0-0.1408-0.14-0.35201-0.561-0.35201-0.35 0-0.42 0.1408-0.42 0.28161 0 0.2112 0.14 0.28161 0.701 0.42241 1.192 0.28161 1.403 0.70402 1.403 1.1968 0 0.63362-0.491 1.1264-1.543 1.1264-1.123 0-1.543-0.56322-1.613-1.1968z"/>
  <path id="path6" d="m188.31 7.4624c0 1.1264-0.631 1.9009-1.823 1.9009-1.122 0-1.754-0.77443-1.754-1.9009 0-1.1264 0.702-1.9009 1.824-1.9009 1.052 0 1.753 0.77443 1.753 1.9009zm-2.525 0c0 0.70402 0.281 1.1264 0.772 1.1264s0.771-0.42241 0.771-1.1264c0-0.77443-0.28-1.1264-0.771-1.1264s-0.772 0.35201-0.772 1.1264z"/>
  <path id="path7" d="m189.16 4.1538h0.982v1.9009c0.14-0.21121 0.421-0.49282 1.052-0.49282 0.982 0 1.473 0.84483 1.473 1.8305 0 1.056-0.561 1.9713-1.543 1.9713-0.561 0-0.772-0.14081-0.982-0.42242 0 0.14081 0 0.28161-0.07 0.35202h-0.982v-1.1968-3.9425zm1.753 2.2529c-0.561 0-0.771 0.35201-0.771 1.1264 0 0.63362 0.21 1.056 0.771 1.056 0.491 0 0.772-0.42241 0.772-1.1264 0-0.63362-0.21-1.056-0.772-1.056z"/>
  <path id="path8" d="m196.73 8.2372v1.056h-0.982v-0.42241c-0.21 0.35201-0.561 0.49282-0.981 0.49282-0.702 0-1.193-0.42242-1.193-1.3376v-2.3937h0.982v2.1825c0 0.42241 0.14 0.70402 0.561 0.70402s0.631-0.28161 0.631-0.98563v-1.9009h0.982z"/>
  <path id="path9" d="m198.76 5.6323v3.5905c0 1.056-0.211 1.5488-1.192 1.5488h-0.281v-0.7744h0.07c0.351 0 0.421-0.14081 0.421-0.49282v-3.8721zm-0.982-0.56322v-0.91523h0.982v0.91523z"/>
  <path id="path10" d="m200.66 7.674c0 0.42241 0.211 0.91523 0.702 0.91523 0.421 0 0.561-0.1408 0.631-0.35201h0.982c-0.14 0.42241-0.561 1.1968-1.683 1.1968-1.193 0-1.684-0.91523-1.684-1.8305 0-1.1264 0.562-1.9713 1.754-1.9713 1.262 0 1.683 0.91523 1.683 1.8305v0.28161zm1.403-0.56322c0-0.42241-0.21-0.77442-0.701-0.77442s-0.702 0.35201-0.702 0.77442z"/>
  <path id="path11" d="m205.64 6.5472v-0.91523h0.982c0 0.0704 0 0.35201 0.07 0.49281 0.14-0.21121 0.421-0.56322 1.052-0.56322 0.701 0 1.192 0.49282 1.192 1.408v2.3233h-0.982v-2.1825c0-0.42241-0.14-0.70402-0.561-0.70402s-0.631 0.21121-0.631 0.91523v2.0417h-0.982v-2.8161z"/>
  <path id="path12" d="m210.76 7.674c0 0.42241 0.211 0.91523 0.701 0.91523 0.421 0 0.562-0.1408 0.632-0.35201h0.982c-0.141 0.42241-0.562 1.1968-1.684 1.1968-1.192 0-1.683-0.91523-1.683-1.8305 0-1.1264 0.561-1.9713 1.753-1.9713 1.263 0 1.684 0.91523 1.684 1.8305v0.28161zm1.403-0.56322c0-0.42241-0.211-0.77442-0.702-0.77442-0.49 0-0.701 0.35201-0.701 0.77442z"/>
  <path id="path13" d="m213.77 8.5188 1.824-2.1121h-1.683v-0.77443h2.875v0.77443l-1.753 2.0417h1.894l-0.141 0.77442h-2.945v-0.70402z"/>
  <path id="path14" d="m220.58 8.378c0 0.35201 0 0.84482 0.07 0.91523h-0.982c0-0.07041-0.07-0.28161-0.07-0.35201-0.141 0.2112-0.351 0.42241-1.052 0.42241-0.842 0-1.263-0.56322-1.263-1.1264 0-0.84483 0.632-1.1968 1.754-1.1968h0.491v-0.2112c0-0.28161-0.07-0.49282-0.561-0.49282-0.421 0-0.491 0.21121-0.562 0.42241h-0.981c0.07-0.63362 0.42-1.1968 1.543-1.1968 0.981 0 1.472 0.35202 1.472 1.2672v1.5488zm-0.982-0.70403h-0.421c-0.631 0-0.842 0.21121-0.842 0.56322 0 0.28161 0.141 0.49282 0.561 0.49282 0.632 0 0.702-0.42242 0.702-0.91523zm0.982-3.5905-1.123 1.056h-0.841l0.771-1.056z"/>
  <path id="path15" d="m222.26 5.6323c0.351 1.2672 0.631 2.3233 0.701 2.7457 0.141-0.56321 0.491-1.6896 0.772-2.7457h0.982l-1.263 3.6609h-1.052l-1.192-3.6609z"/>
  <path id="path16" d="m225.35 5.069v-0.91523h0.982v0.91523zm0 0.56322h0.982v3.6609h-0.982z"/>
  <path id="path17" d="m228.15 8.2368c0.07 0.28161 0.28 0.42241 0.701 0.42241 0.351 0 0.491-0.1408 0.491-0.35201 0-0.2112-0.14-0.35201-0.701-0.42241-1.192-0.28161-1.403-0.63362-1.403-1.1968s0.351-1.1264 1.473-1.1264 1.473 0.63362 1.473 1.1264h-0.982c0-0.1408-0.14-0.35201-0.561-0.35201-0.351 0-0.421 0.1408-0.421 0.28161 0 0.2112 0.14 0.28161 0.701 0.42241 1.193 0.28161 1.403 0.70402 1.403 1.1968 0 0.63362-0.491 1.1264-1.543 1.1264-1.122 0-1.543-0.56322-1.613-1.1968z"/>
  <path id="path18" d="m231.1 9.2932v-5.1394h0.982v5.1394z"/>
  <path id="path19" d="m236.57 7.4624c0 1.1264-0.631 1.9009-1.823 1.9009-1.123 0-1.754-0.77443-1.754-1.9009 0-1.1264 0.702-1.9009 1.824-1.9009 1.052 0 1.753 0.77443 1.753 1.9009zm-2.595 0c0 0.70402 0.281 1.1264 0.772 1.1264s0.771-0.42241 0.771-1.1264c0-0.77443-0.28-1.1264-0.771-1.1264-0.421 0-0.772 0.35201-0.772 1.1264z"/>
  <path id="path20" d="m238.18 8.2368c0.07 0.28161 0.281 0.42241 0.702 0.42241 0.35 0 0.49-0.1408 0.49-0.35201 0-0.2112-0.14-0.35201-0.701-0.42241-1.192-0.28161-1.403-0.63362-1.403-1.1968s0.351-1.1264 1.473-1.1264 1.473 0.63362 1.473 1.1264h-0.982c0-0.1408-0.14-0.35201-0.561-0.35201-0.351 0-0.421 0.1408-0.421 0.28161 0 0.2112 0.141 0.28161 0.702 0.42241 1.192 0.28161 1.402 0.70402 1.402 1.1968 0 0.63362-0.491 1.1264-1.543 1.1264-1.122 0-1.543-0.56322-1.613-1.1968z"/>
  <path id="path21" d="m240.78 5.6321h0.561v-0.98564h0.982v0.98564h0.702v0.77442h-0.702v1.8305c0 0.28161 0.07 0.35201 0.351 0.35201h0.21v0.70403c-0.21 0.0704-0.491 0.0704-0.701 0.0704-0.701 0-0.912-0.35201-0.912-0.98563v-1.9713h-0.561v-0.77442z"/>
 </g>
 <defs id="defs21">
  <clipPath id="clip0_3138_1451">
   <rect id="rect21" width="244" height="49" fill="#fff"/>
  </clipPath>
 </defs>
</svg>
