<svg xmlns="http://www.w3.org/2000/svg" width="447" height="40" viewBox="0 0 447 40"><path fill="#3f4552" d="M280.54.67l.5 1.2-9.99 5.04-.96-1.04 3.54-5.2zM62.35 32.59c2.25 1.5 4.5 2.75 6.99 2.75 3.13 0 5.21-1.54 5.21-4.16 0-6.16-12.49-4.71-12.49-14.78 0-5.91 4.54-8.45 9.24-8.45 3.29 0 5.66.71 7.78 1.87v6.7H76.8l-2.59-5.61c-3.74-.88-6.36.41-6.36 3.87 0 6.32 12.65 4.82 12.65 14.77 0 5.91-4.33 8.95-9.78 8.95-4.16 0-7-1.83-9.08-4.66zm152.47 0c2.25 1.5 4.49 2.75 6.99 2.75 3.12 0 5.2-1.54 5.2-4.16 0-6.16-12.48-4.71-12.48-14.78 0-5.91 4.53-8.45 9.24-8.45 3.28 0 5.66.71 7.78 1.87v6.7h-2.29l-2.58-5.61c-3.75-.88-6.37.41-6.37 3.87 0 6.32 12.66 4.82 12.66 14.77 0 5.91-4.33 8.95-9.79 8.95-4.16 0-6.99-1.83-9.07-4.66zM22.31 21.73H10.36v12.73l3.62 1.34V38H0v-2.2l3.66-1.34V6.24L0 4.91v-2.2h13.98v2.2l-3.62 1.33v11.78h11.95V6.24l-3.7-1.33v-2.2h13.98v2.2l-3.62 1.33v28.22l3.62 1.34V38H18.61v-2.2l3.7-1.34zm401.04-10.08l-2.25-.99V8.45h12.03v2.21l-2.66.99 3.66 7 1.75 3.66h.21l1.62-3.62L441 11.9l-3.25-1.29V8.45h9.03v2.16l-2.45 1.29-7.12 13.49v9.37l3.58 1.04V38h-13.4v-2.2l3.58-1.04v-8.7zm-25.26.21l-2.67-1.2V8.45h7.87l9.45 14.69 2.33 3.87.21-.08-.09-4.5-.16-10.44-3.71-1.38V8.45h9.41v2.16l-2.5 1.38-.17 25.93-2.95.37-11.74-18.19-2.25-3.83-.25.09.09 4.58.16 13.52 3.71 1.38V38h-9.41v-2.16l2.5-1.38zm-13.66-.16l-2.87-1.04V8.45h11.95v2.21l-2.83 1.04v23.06l2.83 1.04V38h-11.95v-2.2l2.87-1.04zm-6.32.25l-8.45 26.14h-4.25l-8.45-26.39-2.37-1.04V8.45h11.78v2.21l-2.83 1.04 4.33 13.52 1.37 4.96h.21l1.33-4.96 4.08-13.27-3.37-1.34V8.45h8.91v2.16zM342.27 38.5c-6.45 0-12.78-5.37-12.78-15.27 0-9.91 6.33-15.28 12.78-15.28 6.41 0 12.73 5.37 12.73 15.28 0 9.9-6.32 15.27-12.73 15.27zm0-27.76c-3.37 0-6.12 4.24-6.12 12.49 0 8.24 2.75 12.48 6.12 12.48 3.33 0 6.07-4.24 6.07-12.48 0-8.25-2.74-12.49-6.07-12.49zm-42-4.62l-3.87-1.21v-2.2h9.49l13.19 19.18 2.33 3.87.21-.08-.08-4.49-.17-14.95-4.53-1.37V2.71h11.69v2.16l-3.12 1.37-.17 31.68-3.37.37-15.48-22.68-2.25-3.83-.25.08.08 4.58.17 18.02 4.54 1.38V38H296.4v-2.16l3.7-1.38zM263.18 35.8l2.88-1.04V11.7l-2.88-1.04V8.45h21.19v8.62h-2.29l-2.25-5.71h-7.53v10.28l7.57-.83v4.37l-7.57-.79v10.7h8.07l2.42-6.12h2.29V38h-21.9zm-24.85-24.1l-2.87-1.04V8.45h11.95v2.21l-2.83 1.04v11.23l.17.09 2.58-3.42 6.24-7.65-2.42-1.34V8.45h9.58v2.16l-2.92 1.34-6.66 7.65 9.33 15.2 2.12 1V38h-11.78v-2.2l2.25-1.04-6.24-10.24-2.25 2.58v7.66l2.83 1.04V38h-11.95v-2.2l2.87-1.04zm-40.08 10.44c3 0 4.87-1.91 4.87-5.66 0-3.54-1.5-5.12-4.33-5.12h-1.95v10.78zm-1.41 12.57l3.24 1.09V38h-12.36v-2.2l2.87-1.04V11.7l-2.87-1.04V8.45h12.99c4.95 0 8.74 2.25 8.74 7.57 0 3.96-2.5 6.54-6.45 7.54v.21c7.11 1.25 6.24 12.78 12.94 15.07l-.42 1.16c-13.69-.04-12.61-14.94-17.39-14.94h-1.29zM191.93 0l6.82 2.62L205.16 0l1.12.96L201 6.62h-4.87L190.84.96zm-10.79.67l.5 1.2-9.99 5.04-.95-1.04 3.54-5.2zM167.33 28.8l-1.75 5.71 3.41 1.33V38h-8.7v-2.16l2.08-1.33 8.33-26.14h5.24l8.33 26.39 2.12 1.04V38h-11.61v-2.2l2.87-1.04-1.87-5.96zm7.57-2.91l-2.12-6.62-1.21-4.41h-.21l-1.16 4.41-2.04 6.62zm-28.84 9.2c4.62 0 7.61-4.58 7.61-12.24 0-7.7-2.99-11.49-7.61-11.49h-2.21v23.73zM134.73 38v-2.2l2.88-1.04V11.7l-2.88-1.04V8.45h12.7c7.62 0 12.9 4.79 12.9 14.36 0 9.49-5.28 15.19-12.9 15.19zm-15.02.5c-6.45 0-12.78-5.37-12.78-15.27 0-9.91 6.33-15.28 12.78-15.28 6.41 0 12.74 5.37 12.74 15.28 0 9.9-6.33 15.27-12.74 15.27zm0-27.76c-3.37 0-6.12 4.24-6.12 12.49 0 8.24 2.75 12.48 6.12 12.48 3.33 0 6.08-4.24 6.08-12.48 0-8.25-2.75-12.49-6.08-12.49zm-27.6 23.97l3.87 1.09V38H83v-2.2l2.87-1.04V11.7L83 10.66V8.45h12.9c5.2 0 9.16 2.5 9.16 8.53 0 4.79-3.29 8.66-11.2 8.66l-.42-1.46c3.83-.83 5.08-3.16 5.08-7.16 0-3.99-1.5-5.66-4.45-5.66h-1.96zM46.87 38.5c-6.45 0-12.78-5.37-12.78-15.27 0-9.91 6.33-15.28 12.78-15.28 6.41 0 12.73 5.37 12.73 15.28 0 9.9-6.32 15.27-12.73 15.27zm0-27.76c-3.37 0-6.12 4.24-6.12 12.49 0 8.24 2.75 12.48 6.12 12.48 3.33 0 6.07-4.24 6.07-12.48 0-8.25-2.74-12.49-6.07-12.49z"/></svg>