<?xml version="1.0" encoding="UTF-8"?>
<!-- Created with Inkscape (http://www.inkscape.org/) -->
<svg id="svg9" width="500.36" height="161.1" version="1.1" viewBox="0 0 500.36 161.1" xmlns="http://www.w3.org/2000/svg">
 <defs id="defs13">
  <clipPath id="clipPath29">
   <path id="path27" d="M 0,177.725 H 450.115 V 0 H 0 Z"/>
  </clipPath>
  <clipPath id="clipPath115">
   <path id="path113" d="M 0,177.725 H 450.115 V 0 H 0 Z"/>
  </clipPath>
 </defs>
 <g id="g17" transform="matrix(1.3333 0 0 -1.3333 -49.899 203)">
  <g id="g19" transform="translate(146.41 102.5)">
   <path id="path21" d="m0 0h-10.696l0.77 10.716h-5.295l-1.711-26.102h5.295l0.734 11.123h10.696l-0.732-11.123h5.21l1.674 26.102h-5.213z" fill="#344079"/>
  </g>
  <g id="g23">
   <g id="g25" clip-path="url(#clipPath29)">
    <g id="g31" transform="translate(167.51 97.224)">
     <path id="path33" d="m0 0c-0.216-3.955-1.763-6.133-4.354-6.133-1.55 0-2.156 0.772-2.156 2.753 0 0.37 0.074 1.187 0.165 2.226 0.241 2.738 0.605 6.877 0.281 9.47l-0.035 0.287h-4.735l0.052-0.372c0.457-3.326 0.03-8.156-0.2-10.749-0.075-0.856-0.128-1.473-0.128-1.766 0-3.99 2.046-6.278 5.616-6.278 1.851 0 3.638 0.742 5.026 2.062l-0.101-1.516c-0.24-3.784-1.769-5.473-4.965-5.473-1.483 0-2.273 0.073-4.03 0.52l-0.379 0.095-0.249-3.942 0.263-0.065c1.866-0.475 2.616-0.545 4.231-0.545 6.691 0 9.454 2.734 9.85 9.749l0.994 18.28h-4.684l-0.462-8.603" fill="#344079"/>
    </g>
    <g id="g35" transform="translate(186.95 101.89)">
     <path id="path37" d="m0 0c1.861 0 2.931-1.572 2.931-4.315 0-3.648-2.048-6.403-4.763-6.403-1.148 0-2.142 0.448-2.882 1.301l0.197 3.237c0.232 3.753 2.005 6.18 4.517 6.18m1.057 4.427c-2.138 0-3.794-0.684-5.409-2.266-0.052 0.679-0.136 1.011-0.301 1.544l-0.071 0.232h-4.727l0.099-0.406c0.231-0.935 0.521-2.975 0.437-4.584l-1.319-23.041h4.842l0.595 10.163c1.032-0.774 2.2-1.097 3.861-1.097 5.332 0 8.912 4.685 8.912 11.66 0 4.663-2.78 7.795-6.919 7.795" fill="#344079"/>
    </g>
    <g id="g39" transform="translate(206.85 102.01)">
     <path id="path41" d="m0 0c2.403 0 3.785-1.781 3.785-4.888 0-3.741-1.741-6.159-4.436-6.159-2.378 0-3.743 1.737-3.743 4.766 0 3.933 1.642 6.281 4.394 6.281m0.202 4.305c-5.948 0-9.643-4.041-9.643-10.548 0-5.61 3.354-9.233 8.545-9.233 6.014 0 9.604 3.99 9.604 10.67 0 5.705-3.179 9.111-8.506 9.111" fill="#344079"/>
    </g>
    <g id="g43" transform="translate(225.37 110.38)">
     <path id="path45" d="m0 0h-4.684l-0.243-4.557h-2.56l-0.246-3.777h2.563l-0.626-9.828c-0.103-1.717 0.305-3.074 1.213-4.042 0.973-1.032 2.468-1.556 4.445-1.556 1.74 0 3.227 0.418 4.416 1.244l0.132 0.092 0.2 4.133-0.521-0.311c-1.406-0.836-2.426-1.226-3.213-1.226-0.623 0-1.067 0.153-1.362 0.463-0.368 0.39-0.526 1.087-0.466 2.066l0.51 8.965h5.286l0.293 3.777h-5.343l0.206 4.557" fill="#344079"/>
    </g>
    <g id="g47" transform="translate(238.56 97.903)">
     <path id="path49" d="m0 0c-0.349 0-0.562 0-0.915 0.036 0.542 2.361 2.39 4.36 4.09 4.36 1.047 0 1.866-0.777 1.866-1.767 0-1.573-2.026-2.629-5.041-2.629m3.578 8.331c-5.568 0-9.768-4.763-9.768-11.076 0-5.292 3.087-8.58 8.059-8.58 2.186 0 3.93 0.501 6.025 1.73l0.154 0.091 0.15 4.42-0.525-0.344c-1.867-1.218-3.64-1.836-5.271-1.836-2.103 0-3.412 1.285-3.637 3.549 0.06-5e-3 0.115-0.011 0.167-0.015 0.314-0.024 0.561-0.042 0.864-0.042 6.13 0 10.092 2.625 10.092 6.69 0 3.339-2.419 5.413-6.31 5.413" fill="#344079"/>
    </g>
    <g id="g51" transform="translate(280.21 106.32)">
     <path id="path53" d="m0 0c-2.136 0-4.277-0.939-5.865-2.54-0.103 0.785-0.184 1.123-0.415 1.824l-0.074 0.225h-4.738l0.122-0.419c0.352-1.191 0.477-2.552 0.477-5.203 0-1.005-0.685-12.628-0.695-12.745l-0.017-0.346h4.72l0.587 9.25c0.243 3.668 2.444 5.649 4.394 5.649 0.667 0 1.317-0.285 1.783-0.783 0.501-0.535 0.751-1.271 0.7-2.078l-0.673-12.038h4.887l0.67 12.623c0.103 1.96-0.451 3.636-1.595 4.841-1.066 1.123-2.581 1.74-4.268 1.74" fill="#344079"/>
    </g>
    <g id="g55" transform="translate(321.31 91.004)">
     <path id="path57" d="m0 0c-1.145 0-1.559 0.104-2.473 0.67l3e-3 0.028c0.19 2.75 0.355 5.126 0.674 5.98 0.483 2.737 2.435 4.168 4.115 4.168 1.945 0 2.892-1.33 2.892-4.067 0-4.18-1.998-6.779-5.211-6.779m3.251 15.272c-2.072 0-3.715-0.621-5.103-1.946l0.777 11.716h-4.725l-1.619-27.528 0.19-0.095c2.131-1.096 4.75-1.723 7.187-1.723 6.063 0 10.136 4.767 10.136 11.863 0 4.758-2.62 7.713-6.843 7.713" fill="#344079"/>
    </g>
    <g id="g59" transform="translate(341.62 91.254)">
     <path id="path61" d="m0 0c-1.756 0-2.726 1.239-2.726 3.49 0 4.225 2.222 7.063 5.531 7.063 0.726 0 1.38-0.055 2.303-0.321l-0.27-4.172c-0.222-3.398-2.347-6.06-4.838-6.06m9.744 14.064c-2.394 0.778-3.816 0.916-5.92 0.916-7.188 0-11.478-4.326-11.478-11.57 0-4.986 2.511-7.963 6.718-7.963 2.214 0 4.314 0.921 5.772 2.496 0.074-0.98 0.247-1.782 0.255-1.825l0.057-0.257h4.484l-0.072 0.388c-0.27 1.437-0.398 3.118-0.365 4.719l0.789 13.017-0.24 0.079" fill="#344079"/>
    </g>
    <g id="g63" transform="translate(366.88 106.32)">
     <path id="path65" d="m0 0c-2.135 0-4.282-0.939-5.872-2.541-0.099 0.768-0.178 1.111-0.409 1.824l-0.073 0.226h-4.749l0.124-0.419c0.353-1.186 0.478-2.547 0.478-5.203 0-1.005-0.687-12.628-0.693-12.745l-0.022-0.346h4.723l0.588 9.249c0.248 3.669 2.448 5.65 4.396 5.65 0.668 0 1.318-0.285 1.784-0.782 0.501-0.535 0.751-1.271 0.702-2.079l-0.671-12.038h4.885l0.669 12.623c0.101 1.963-0.45 3.637-1.596 4.843-1.065 1.121-2.579 1.738-4.264 1.738" fill="#344079"/>
    </g>
    <g id="g67" transform="translate(390.21 92.266)">
     <path id="path69" d="m0 0-3.897 5.621 9.753 7.94h-7.145l-6.667-5.81 0.95 15.907h-4.723l-1.709-28.809h4.724l0.491 8.505 3.006-4.386c1.062-1.522 2.029-2.913 2.764-3.979l0.099-0.14h6.285l-0.449 0.536c-1.031 1.226-2.461 3.125-3.482 4.615" fill="#344079"/>
    </g>
    <g id="g71" transform="translate(402.71 91.254)">
     <path id="path73" d="m0 0c-1.761 0-2.732 1.239-2.732 3.49 0 4.225 2.224 7.063 5.534 7.063 0.724 0 1.377-0.055 2.304-0.321l-0.269-4.172c-0.226-3.398-2.35-6.06-4.837-6.06m9.195 0.968 0.788 13.017-0.239 0.079c-2.402 0.778-3.823 0.916-5.923 0.916-7.185 0-11.475-4.326-11.475-11.57 0-4.986 2.509-7.963 6.714-7.963 2.214 0 4.315 0.921 5.772 2.496 0.074-0.98 0.246-1.78 0.255-1.825l0.056-0.257h4.482l-0.071 0.386c-0.266 1.439-0.396 3.122-0.359 4.721" fill="#344079"/>
    </g>
    <g id="g75" transform="translate(260.76 101.85)">
     <path id="path77" d="m0 0c1.348 0 2.225-0.32 3.681-1.036l0.376-0.185 0.917 4.397-0.235 0.109c-1.274 0.6-2.607 1.141-4.86 1.141-6.005 0-9.886-4.251-9.886-10.831 0-5.393 3.181-8.744 8.297-8.744 2.07 0 3.866 0.458 5.648 1.437l0.17 0.094v4.63l-0.497-0.305c-1.818-1.117-3.09-1.553-4.547-1.553-2.558 0-4.025 1.679-4.025 4.607 0 3.731 1.992 6.239 4.961 6.239" fill="#344079"/>
    </g>
    <g id="g79" transform="translate(261.2 111.09)">
     <path id="path81" d="m0 0-2.984 2.578h-4.158l4.445-5.866h5.13l5.281 5.866h-4.256z" fill="#344079"/>
    </g>
    <g id="g83" transform="translate(291.36 107.81)">
     <path id="path85" d="m0 0h3.877l6.292 5.826h-6.685z" fill="#344079"/>
    </g>
    <g id="g87" transform="translate(290.41 87.115)">
     <path id="path89" d="m0 0h4.807l0.968 18.713h-4.761z" fill="#344079"/>
    </g>
    <g id="g91" transform="translate(117.69 87.442)">
     <path id="path93" d="m0 0h-40.117c-1.813 0-3.289-1.484-3.289-3.315s1.476-3.318 3.289-3.318h40.117c1.814 0 3.29 1.487 3.29 3.318s-1.476 3.315-3.29 3.315" fill="#93b83f"/>
    </g>
    <g id="g95" transform="translate(123.99 124.21)">
     <path id="path97" d="m0 0s-35.997 27.632-36.522 28.038c-0.249-0.164-48.525-31.548-48.53-31.548-0.732-0.475-1.244-1.215-1.428-2.079-0.055-0.236-0.082-0.477-0.082-0.714 0-0.628 0.181-1.247 0.528-1.791 0.478-0.744 1.209-1.258 2.067-1.442 0.858-0.191 1.74-0.026 2.478 0.453l44.188 28.725s0.228 0.151 0.47 0.135c0.207-8e-3 0.368-0.124 0.368-0.124l32.475-24.929c1.444-1.105 3.513-0.825 4.613 0.621 0.446 0.603 0.67 1.311 0.67 2.009 0 1.005-0.445 1.993-1.295 2.646" fill="#93b83f"/>
    </g>
    <g id="g99" transform="translate(89.7 121.59)">
     <path id="path101" d="m0 0c3.103 0 5.622 2.536 5.622 5.667 0 3.13-2.519 5.668-5.622 5.668-3.099 0-5.617-2.538-5.617-5.668 0-3.131 2.518-5.667 5.617-5.667" fill="#344079"/>
    </g>
    <g id="g103" transform="translate(98.217 111.1)">
     <path id="path105" d="m0 0c-0.088 0.093-0.143 0.261-0.143 0.424 0 0.35 0.368 0.508 0.785 0.659 0.736 0.264 2.869 1.345 4.541 2.594 0.874 0.656 1.644 1.552 1.644 3.028 0 2.077-1.71 3.525-3.593 3.525-1.036 0-1.954-0.68-3.182-1.448-1.875-1.168-4.557-2.601-8.656-2.601-4.71 0-8.905 1.9-11.489 3.648-2.127 1.442-3.375 2.795-4.977 2.795-2.337 0-3.505-2.031-3.505-3.522 0-1.164 0.569-2.15 1.293-2.749 1.673-1.389 3.58-2.494 5.299-3.485 0.234-0.133 0.327-0.298 0.327-0.453 0-0.251-0.166-0.409-0.384-0.532-6.774-3.969-11.796-8.567-18.993-20.641-0.333-0.555-0.5-1.182-0.5-1.815 0-1.629 1.186-3.536 3.433-3.536 1.16 0 2.317 0.597 2.946 1.709 8.768 15.562 18.004 20.359 23.569 20.359 4.646 0 9.171-4.128 12.715-11.794 0.603-1.307 1.901-2.044 3.243-2.044 2.078 0 3.446 1.933 3.446 3.536 0 2.27-4.579 9.538-7.819 12.343" fill="#344079"/>
    </g>
   </g>
  </g>
  <path id="path107" d="m37.425 63.271h375.27v1.712h-375.27z" fill="#868686"/>
  <g id="g109">
   <g id="g111" clip-path="url(#clipPath115)">
    <g id="g117" transform="translate(87.03 32.196)">
     <path id="path119" d="m0 0c-0.808-0.375-2.431-0.751-4.511-0.751-4.815 0-8.441 2.816-8.441 7.995 0 4.947 3.626 8.299 8.924 8.299 2.126 0 3.472-0.42 4.052-0.701l-0.528-1.667c-0.838 0.378-2.03 0.657-3.451 0.657-4.001 0-6.666-2.366-6.666-6.516 0-3.868 2.408-6.355 6.567-6.355 1.342 0 2.712 0.26 3.597 0.657zm-5.451 16.2-2.658 2.673h1.873l1.622-1.641h0.052l1.598 1.641h1.822l-2.608-2.673z" fill="#868686"/>
    </g>
    <g id="g121" transform="translate(90.301 47.483)">
     <path id="path123" d="m0 0v-15.803h9.507v1.712h-7.299v14.091z" fill="#868686"/>
    </g>
    <g id="g125" transform="translate(102.78 47.483)">
     <path id="path127" d="m0 0v-15.803h9.605v1.712h-7.397v5.698h6.637v1.687h-6.637v4.994h7.015v1.712z" fill="#868686"/>
    </g>
    <g id="g129" transform="translate(115.75 31.681)">
     <path id="path131" d="m0 0v15.8h2.408l5.479-7.993c1.264-1.852 2.252-3.517 3.064-5.135l0.047 0.022c-0.2 2.112-0.252 4.034-0.252 6.496v6.61h2.08v-15.8h-2.23l-5.426 8.017c-1.189 1.758-2.327 3.564-3.191 5.276l-0.078-0.025c0.126-1.991 0.179-3.89 0.179-6.516v-6.752z" fill="#868686"/>
    </g>
    <g id="g133" transform="translate(138.52 34.167)">
     <path id="path135" d="m0 0c0.985-0.563 2.431-1.032 3.954-1.032 2.253 0 3.571 1.101 3.571 2.697 0 1.477-0.911 2.319-3.22 3.139-2.786 0.917-4.51 2.253-4.51 4.478 0 2.462 2.206 4.292 5.525 4.292 1.746 0 3.018-0.375 3.777-0.775l-0.608-1.665c-0.555 0.282-1.697 0.751-3.246 0.751-2.331 0-3.216-1.289-3.216-2.366 0-1.48 1.038-2.206 3.395-3.048 2.89-1.033 4.361-2.322 4.361-4.643 0-2.438-1.954-4.548-5.982-4.548-1.648 0-3.446 0.446-4.362 1.008z" fill="#868686"/>
    </g>
    <g id="g137" transform="translate(151.83 47.482)">
     <path id="path139" d="m0 0h2.206v-7.619h0.074c0.454 0.609 0.911 1.173 1.343 1.688l5.222 5.931h2.739l-6.185-6.706 6.664-9.094h-2.611l-5.624 7.761-1.622-1.736v-6.025h-2.206z" fill="#868686"/>
    </g>
    <g id="g141" transform="translate(168.28 47.482)">
     <path id="path143" d="m0 0v-9.354c0-3.539 1.697-5.041 3.977-5.041 2.534 0 4.157 1.549 4.157 5.041v9.354h2.229v-9.213c0-4.853-2.763-6.847-6.466-6.847-3.495 0-6.132 1.853-6.132 6.753v9.307z" fill="#868686"/>
    </g>
    <g id="g145" transform="translate(182.98 47.296)">
     <path id="path147" d="m0 0c1.067 0.162 2.458 0.304 4.236 0.304 2.176 0 3.777-0.47 4.789-1.312 0.936-0.751 1.492-1.899 1.492-3.307 0-1.43-0.454-2.554-1.319-3.376-1.164-1.149-3.065-1.735-5.217-1.735-0.657 0-1.269 0.026-1.775 0.141v-6.33h-2.206zm2.206-7.62c0.482-0.118 1.089-0.163 1.822-0.163 2.665 0 4.288 1.195 4.288 3.374 0 2.087-1.6 3.095-4.031 3.095-0.961 0-1.699-0.07-2.079-0.164z" fill="#868686"/>
    </g>
    <path id="path149" d="m196.98 31.679h2.205v15.803h-2.205z" fill="#868686"/>
    <g id="g151" transform="translate(203.54 31.681)">
     <path id="path153" d="m0 0v15.8h2.408l5.474-7.993c1.266-1.852 2.257-3.517 3.064-5.135l0.052 0.022c-0.199 2.112-0.252 4.034-0.252 6.496v6.61h2.075v-15.8h-2.23l-5.421 8.017c-1.193 1.758-2.332 3.564-3.191 5.276l-0.083-0.025c0.132-1.991 0.179-3.89 0.179-6.516v-6.752z" fill="#868686"/>
    </g>
    <g id="g155" transform="translate(224.36 31.681)">
     <path id="path157" d="m0 0v6.705l-5.399 9.095h2.509l2.409-4.36c0.659-1.195 1.163-2.156 1.696-3.257h0.052c0.481 1.029 1.059 2.062 1.719 3.257l2.46 4.36h2.509l-5.725-9.072v-6.728z" fill="#868686"/>
    </g>
    <g id="g159" transform="translate(252.59 32.196)">
     <path id="path161" d="m0 0c-0.812-0.375-2.436-0.751-4.515-0.751-4.813 0-8.437 2.816-8.437 7.995 0 4.947 3.624 8.299 8.919 8.299 2.132 0 3.472-0.42 4.055-0.701l-0.531-1.667c-0.837 0.378-2.03 0.657-3.445 0.657-4.006 0-6.666-2.366-6.666-6.516 0-3.868 2.408-6.355 6.562-6.355 1.344 0 2.712 0.26 3.601 0.657zm-5.451 16.2-2.657 2.673h1.872l1.623-1.641h0.051l1.593 1.641h1.828l-2.613-2.673z" fill="#868686"/>
    </g>
    <g id="g163" transform="translate(255.56 34.167)">
     <path id="path165" d="m0 0c0.986-0.563 2.431-1.032 3.955-1.032 2.252 0 3.571 1.101 3.571 2.697 0 1.477-0.911 2.319-3.22 3.139-2.786 0.917-4.51 2.253-4.51 4.478 0 2.462 2.205 4.292 5.524 4.292 1.746 0 3.019-0.375 3.777-0.775l-0.608-1.665c-0.555 0.282-1.696 0.751-3.245 0.751-2.332 0-3.216-1.289-3.216-2.366 0-1.48 1.037-2.206 3.394-3.048 2.89-1.033 4.361-2.322 4.361-4.643 0-2.438-1.953-4.548-5.981-4.548-1.648 0-3.446 0.446-4.363 1.008z" fill="#868686"/>
    </g>
    <g id="g167" transform="translate(283.47 39.746)">
     <path id="path169" d="m0 0c0-5.438-3.571-8.323-7.934-8.323-4.509 0-7.678 3.235-7.678 8.019 0 5.017 3.377 8.299 7.933 8.299 4.663 0 7.679-3.307 7.679-7.995m-13.251-0.257c0-3.376 1.977-6.401 5.446-6.401 3.5 0 5.476 2.978 5.476 6.564 0 3.142-1.775 6.425-5.448 6.425-3.651 0-5.474-3.12-5.474-6.588" fill="#868686"/>
    </g>
    <g id="g171" transform="translate(286.84 47.272)">
     <path id="path173" d="m0 0c0.963 0.187 2.487 0.328 4.028 0.328 2.208 0 3.628-0.35 4.691-1.151 0.886-0.608 1.42-1.546 1.42-2.788 0-1.525-1.089-2.861-2.89-3.471v-0.044c1.622-0.376 3.524-1.62 3.524-3.964 0-1.361-0.583-2.391-1.445-3.164-1.19-1.008-3.116-1.477-5.907-1.477-1.52 0-2.683 0.093-3.421 0.188zm2.205-6.472h2.001c2.334 0 3.702 1.126 3.702 2.651 0 1.849-1.518 2.578-3.749 2.578-1.013 0-1.598-0.071-1.954-0.141zm0-7.572c0.43-0.069 1.067-0.094 1.853-0.094 2.28 0 4.383 0.773 4.383 3.073 0 2.156-2.004 3.047-4.413 3.047h-1.823z" fill="#868686"/>
    </g>
   </g>
  </g>
 </g>
</svg>
