<?xml version="1.0" encoding="UTF-8"?>
<svg id="svg855" width="708.6" height="263.24" version="1.1" viewBox="0 0 708.6 263.24" xmlns="http://www.w3.org/2000/svg" xmlns:cc="http://creativecommons.org/ns#" xmlns:dc="http://purl.org/dc/elements/1.1/" xmlns:rdf="http://www.w3.org/1999/02/22-rdf-syntax-ns#">
 <metadata id="metadata859">
  <rdf:RDF>
   <cc:Work rdf:about="">
    <dc:format>image/svg+xml</dc:format>
    <dc:type rdf:resource="http://purl.org/dc/dcmitype/StillImage"/>
    <dc:title>Group 2</dc:title>
   </cc:Work>
  </rdf:RDF>
 </metadata>
 <!-- Generator: Sketch 45.1 (43504) - http://www.bohemiancoding.com/sketch -->
 <title id="title833">Group 2</title>
 <desc id="desc835">Created with Sketch.</desc>
 <g id="Page-1" transform="translate(-.6 -.9)" fill="none" fill-rule="evenodd">
  <g id="inuits">
   <g id="Group">
    <g id="Group-2">
     <path id="Shape" d="m40.4 190.9v-91.4l-32 14.5-7.8-17.5 59.5-27.3h0.9v121.8h-20.6zm9.4-138c-14.9 0-26.4-11-26.4-26 0-14.9 11.5-26 26.4-26s26.4 11 26.4 26c0 14.9-11.5 26-26.4 26zm0-37c-6.4 0-11 4.6-11 11s4.6 11 11 11 11-4.6 11-11-4.6-11-11-11z" fill="#11a7c9" fill-rule="nonzero"/>
     <path id="path840" d="m120.3 110.3c-1.4 4.8-1.8 10.6-1.8 19.8v60.9h-20.7v-65.2c0-7.8 0.5-13.1 1.4-17.5 5.1-24.4 24.1-40.4 55.6-40.4s50.5 16.1 55.6 40.4c0.9 4.4 1.4 9.6 1.4 17.5v65.2h-20.7v-60.9c0-9.2-0.5-14.9-1.8-19.8-4.1-14-14.7-22.5-34.5-22.5s-30.4 8.5-34.5 22.5z" fill="#11a7c9" fill-rule="nonzero"/>
     <path id="path842" d="m337 149.8c1.4-4.8 1.8-10.6 1.8-19.8v-60.9h20.7v65.2c0 7.8-0.5 13.1-1.4 17.5-5.1 24.4-24.1 40.4-55.6 40.4s-50.5-16-55.5-40.3c-0.9-4.4-1.4-9.6-1.4-17.5v-65.2h20.7v60.9c0 9.2 0.5 14.9 1.8 19.8 4.1 14 14.7 22.5 34.5 22.5 19.7-0.1 30.3-8.6 34.4-22.6z" fill="#11a7c9" fill-rule="nonzero"/>
     <path id="path844" d="m425.2 190.9v-91.4l-31.9 14.5-7.8-17.5 59.5-27.3h0.9v121.8h-20.7zm9.4-138c-14.9 0-26.4-11-26.4-26 0-14.9 11.5-26 26.4-26s26.4 11 26.4 26c0 14.9-11.5 26-26.4 26zm0-37c-6.4 0-11 4.6-11 11s4.6 11 11 11 11-4.6 11-11-4.6-11-11-11z" fill="#11a7c9" fill-rule="nonzero"/>
     <path id="path846" d="m510.8 88.5h-40.7v-19.3h108.9v19.3h-47.6v50.5c0 8 0.7 13.8 2.5 18.6 3.9 9.9 12.9 14.7 27.6 14.7 5.3 0 11.9-0.7 18.4-2.3l4.6 19.3c-7.8 2.1-16.1 3-24.8 3-24.4 0-39.5-10.6-45.7-27.3-2.1-5.7-3.2-12.2-3.2-21.1z" fill="#11a7c9" fill-rule="nonzero"/>
     <path id="path848" d="m661.9 171.6c10.8 0 16.8-1.6 20.4-4.1 3.9-2.8 5.5-6.9 5.5-12.2 0-6-1.8-10.6-7.1-13.3-3.7-1.8-9.2-3-19.5-3h-11.5c-13.6 0-21.4-1.6-27.3-4.6-11.3-5.7-17.2-16.3-17.2-29.4 0-13.8 6.4-24.8 17.7-30.8 6.2-3.2 13.8-5.1 26.2-5.1h55.1v19.3h-56.3c-7.6 0-12.4 1.1-15.9 3.7-3.7 2.5-5.5 6.7-5.5 11.9 0 6 2.5 10.3 7.1 12.9 3.2 1.8 7.6 2.8 16.1 2.8h12.4c14.7 0 22.5 1.6 28.7 4.6 12.4 6 18.4 17.5 18.4 31 0 10.3-3.9 19.3-11.5 25.7-7.4 6.2-18.1 9.9-35.6 9.9h-55.4v-19.3z" fill="#11a7c9" fill-rule="nonzero"/>
     <path id="OPEN-SOURCE-INNOVATORS" d="m30.609 249.96c0 4.1003-1.2966 7.4891-3.8899 10.166-2.5933 2.6774-5.963 4.0161-10.109 4.0161-4.1156 0-7.4585-1.3387-10.029-4.0161-2.5703-2.6774-3.8555-6.0662-3.8555-10.166v-6.0127c0-4.085 1.2813-7.47 3.844-10.155 2.5627-2.6851 5.9018-4.0276 10.017-4.0276 4.1462 0 7.5197 1.3425 10.121 4.0276 2.6009 2.6851 3.9014 6.07 3.9014 10.155zm-6.7012-6.0586c0-2.6009-0.65022-4.7352-1.9507-6.4028-1.3005-1.6676-3.0905-2.5015-5.3701-2.5015-2.2796 0-4.0467 0.82998-5.3013 2.49-1.2546 1.66-1.8818 3.7981-1.8818 6.4143v6.0586c0 2.6468 0.63492 4.804 1.9048 6.4717 1.2699 1.6676 3.0369 2.5015 5.3013 2.5015 2.2949 0 4.085-0.83381 5.3701-2.5015 1.2852-1.6677 1.9277-3.8249 1.9277-6.4717zm22.635 7.6421v12.117h-6.7012v-33.414h13.311c3.8402 0 6.8618 0.97915 9.0649 2.9375 2.2031 1.9583 3.3047 4.5363 3.3047 7.7339 0 3.1976-1.1016 5.7679-3.3047 7.7109s-5.2248 2.9146-9.0649 2.9146zm0-5.1636h6.6094c1.8665 0 3.2817-0.5087 4.2456-1.5261 0.96387-1.0174 1.4458-2.314 1.4458-3.8899 0-1.6064-0.4781-2.9337-1.4343-3.9817-0.95622-1.048-2.3752-1.572-4.2571-1.572h-6.6094zm48.453 2.5933h-13.838v9.5469h16.179v5.1406h-22.88v-33.414h22.834v5.1636h-16.133v8.3994h13.838zm37.46 14.688h-6.6782l-13.494-22.834-0.1377 0.023v22.812h-6.7012v-33.414h6.7012l13.494 22.812 0.1377-0.023v-22.789h6.6782zm44.007-8.7207c0-1.2852-0.45515-2.3179-1.3655-3.0982-0.91033-0.78028-2.5053-1.5146-4.7849-2.2031-3.9779-1.1475-6.9842-2.5091-9.019-4.085-2.0348-1.5759-3.0522-3.7331-3.0522-6.4717s1.1666-4.9762 3.4998-6.7126 5.3127-2.6047 8.9387-2.6047c3.6719 0 6.6629 0.97534 8.9732 2.926 2.3102 1.9507 3.4271 4.3565 3.3506 7.2175l-0.0459 0.13769h-6.4946c0-1.5452-0.51635-2.796-1.5491-3.7522-1.0327-0.95623-2.4823-1.4343-4.3489-1.4343-1.79 0-3.1746 0.39778-4.1538 1.1934-0.97918 0.79558-1.4688 1.813-1.4688 3.0522 0 1.1322 0.524 2.0616 1.572 2.7883 1.048 0.72672 2.8572 1.4955 5.4275 2.3064 3.6872 1.0251 6.4793 2.3791 8.3765 4.062 1.8972 1.683 2.8457 3.8937 2.8457 6.6323 0 2.861-1.1283 5.1177-3.385 6.77-2.2567 1.6524-5.2362 2.4785-8.9387 2.4785-3.6413 0-6.8159-0.93708-9.5239-2.8113-2.708-1.8742-4.0238-4.5018-3.9473-7.883l0.0459-0.1377h6.5176c0 1.9889 0.60815 3.4462 1.8245 4.3718 1.2163 0.92562 2.9107 1.3884 5.0833 1.3884 1.8206 0 3.2129-0.37484 4.1768-1.1245 0.96388-0.74967 1.4458-1.7518 1.4458-3.0063zm42.646-4.98c0 4.1003-1.2966 7.4891-3.8899 10.166-2.5933 2.6774-5.963 4.0161-10.109 4.0161-4.1156 0-7.4585-1.3387-10.029-4.0161-2.5703-2.6774-3.8555-6.0662-3.8555-10.166v-6.0127c0-4.085 1.2813-7.47 3.844-10.155 2.5627-2.6851 5.9018-4.0276 10.017-4.0276 4.1462 0 7.5197 1.3425 10.121 4.0276 2.6009 2.6851 3.9014 6.07 3.9014 10.155zm-6.7012-6.0586c0-2.6009-0.65022-4.7352-1.9507-6.4028-1.3005-1.6676-3.0905-2.5015-5.3701-2.5015-2.2796 0-4.0467 0.82998-5.3013 2.49-1.2546 1.66-1.8818 3.7981-1.8818 6.4143v6.0586c0 2.6468 0.63492 4.804 1.9048 6.4717 1.2699 1.6676 3.0369 2.5015 5.3013 2.5015 2.2949 0 4.085-0.83381 5.3701-2.5015 1.2852-1.6677 1.9277-3.8249 1.9277-6.4717zm42.371-13.655v22.169c0 3.7484-1.2392 6.64-3.7178 8.6748-2.4785 2.0348-5.722 3.0522-9.7305 3.0522-3.9932 0-7.2175-1.0174-9.6731-3.0522s-3.6834-4.9264-3.6834-8.6748v-22.169h6.7241v22.169c0 2.2031 0.58903 3.8516 1.7671 4.9456 1.1781 1.0939 2.7998 1.6409 4.8652 1.6409 2.096 0 3.7407-0.54313 4.9341-1.6294 1.1934-1.0863 1.79-2.7386 1.79-4.957v-22.169zm16.553 20.058v13.356h-6.7012v-33.414h12.599c3.8096 0 6.7891 0.86823 8.9387 2.6047 2.1496 1.7365 3.2244 4.1576 3.2244 7.2634 0 1.7288-0.45133 3.2129-1.354 4.4522-0.90267 1.2393-2.2261 2.2414-3.9702 3.0064 1.9736 0.58138 3.3926 1.5529 4.2571 2.9146 0.86442 1.3617 1.2966 3.0446 1.2966 5.0488v2.4556c0 0.93328 0.12622 1.9086 0.37866 2.926 0.25245 1.0174 0.68465 1.7709 1.2966 2.2605v0.48193h-6.9077c-0.61198-0.48959-1.0098-1.3081-1.1934-2.4556-0.18359-1.1475-0.27539-2.2337-0.27539-3.2588v-2.3638c0-1.6676-0.45516-2.9643-1.3655-3.8899-0.91032-0.92562-2.1916-1.3884-3.844-1.3884zm0-5.1636h5.7832c1.8818 0 3.2856-0.39778 4.2112-1.1934s1.3884-1.9736 1.3884-3.5342c0-1.53-0.46281-2.7462-1.3884-3.6489-0.92562-0.90268-2.2911-1.354-4.0964-1.354h-5.898zm53.593 7.1602 0.0459 0.13769c0.0612 3.5954-1.0365 6.4449-3.2932 8.5486-2.2567 2.1037-5.3892 3.1555-9.3977 3.1555-4.0238 0-7.2902-1.2928-9.7993-3.8784-2.5091-2.5856-3.7637-5.9132-3.7637-9.9829v-6.6323c0-4.0544 1.2239-7.382 3.6719-9.9829 2.4479-2.6009 5.6302-3.9014 9.5469-3.9014 4.1309 0 7.359 1.0595 9.6846 3.1785 2.3255 2.119 3.4577 5.0067 3.3965 8.6633l-0.0459 0.1377h-6.5176c0-2.2031-0.52783-3.8899-1.5835-5.0603-1.0557-1.1704-2.7004-1.7556-4.9341-1.7556-2.0042 0-3.5954 0.81469-4.7734 2.4441s-1.7671 3.7063-1.7671 6.2307v6.6782c0 2.555 0.61962 4.6472 1.8589 6.2766 1.2393 1.6294 2.9145 2.4441 5.0259 2.4441 2.096 0 3.6451-0.56225 4.6472-1.6868s1.5032-2.796 1.5032-5.0144zm29.359-3.3276h-13.838v9.5469h16.179v5.1406h-22.88v-33.414h22.834v5.1636h-16.133v8.3994h13.838zm33.267 14.688h-6.7012v-33.414h6.7012zm37.689 0h-6.6782l-13.494-22.834-0.13769 0.023v22.812h-6.7012v-33.414h6.7012l13.494 22.812 0.13769-0.023v-22.789h6.6782zm37.276 0h-6.6782l-13.494-22.834-0.1377 0.023v22.812h-6.7012v-33.414h6.7012l13.494 22.812 0.1377-0.023v-22.789h6.6782zm37.139-13.701c0 4.1003-1.2966 7.4891-3.8899 10.166-2.5933 2.6774-5.963 4.0161-10.109 4.0161-4.1156 0-7.4585-1.3387-10.029-4.0161-2.5703-2.6774-3.8555-6.0662-3.8555-10.166v-6.0127c0-4.085 1.2813-7.47 3.844-10.155 2.5627-2.6851 5.9018-4.0276 10.017-4.0276 4.1462 0 7.5197 1.3425 10.121 4.0276 2.6009 2.6851 3.9014 6.07 3.9014 10.155zm-6.7012-6.0586c0-2.6009-0.65022-4.7352-1.9507-6.4028s-3.0905-2.5015-5.3701-2.5015c-2.2796 0-4.0467 0.82998-5.3013 2.49-1.2546 1.66-1.8818 3.7981-1.8818 6.4143v6.0586c0 2.6468 0.63492 4.804 1.9048 6.4717 1.2699 1.6676 3.0369 2.5015 5.3013 2.5015 2.2949 0 4.085-0.83381 5.3701-2.5015 1.2852-1.6677 1.9277-3.8249 1.9277-6.4717zm26.697 10.878 0.41308 1.813h0.1377l0.39014-1.7671 7.2749-24.579h7.0684l-11.36 33.414h-6.8848l-11.337-33.414h7.0684zm37.253 1.6753h-11.727l-2.272 7.2061h-6.77l11.498-33.414h6.8618l11.452 33.414h-6.77zm-10.075-5.2554h8.4224l-4.1309-13.127h-0.13769zm49.325-15.789h-9.4551v28.25h-6.7012v-28.25h-9.4092v-5.1636h25.565zm33.857 14.55c0 4.1003-1.2966 7.4891-3.8899 10.166-2.5933 2.6774-5.963 4.0161-10.109 4.0161-4.1156 0-7.4585-1.3387-10.029-4.0161-2.5703-2.6774-3.8555-6.0662-3.8555-10.166v-6.0127c0-4.085 1.2813-7.47 3.844-10.155 2.5627-2.6851 5.9018-4.0276 10.017-4.0276 4.1462 0 7.5197 1.3425 10.121 4.0276 2.6009 2.6851 3.9014 6.07 3.9014 10.155zm-6.7012-6.0586c0-2.6009-0.65022-4.7352-1.9507-6.4028-1.3005-1.6676-3.0905-2.5015-5.3701-2.5015-2.2796 0-4.0467 0.82998-5.3013 2.49-1.2546 1.66-1.8818 3.7981-1.8818 6.4143v6.0586c0 2.6468 0.63492 4.804 1.9048 6.4717 1.2699 1.6676 3.0369 2.5015 5.3013 2.5015 2.2949 0 4.085-0.83381 5.3701-2.5015 1.2852-1.6677 1.9277-3.8249 1.9277-6.4717zm22.635 6.4028v13.356h-6.7012v-33.414h12.599c3.8096 0 6.7891 0.86823 8.9387 2.6047 2.1496 1.7365 3.2244 4.1576 3.2244 7.2634 0 1.7288-0.45133 3.2129-1.354 4.4522-0.90268 1.2393-2.2261 2.2414-3.9702 3.0064 1.9736 0.58138 3.3927 1.5529 4.2571 2.9146 0.86443 1.3617 1.2966 3.0446 1.2966 5.0488v2.4556c0 0.93328 0.12622 1.9086 0.37866 2.926 0.25245 1.0174 0.68465 1.7709 1.2966 2.2605v0.48193h-6.9077c-0.61198-0.48959-1.0098-1.3081-1.1934-2.4556-0.18359-1.1475-0.27539-2.2337-0.27539-3.2588v-2.3638c0-1.6676-0.45515-2.9643-1.3655-3.8899-0.91032-0.92562-2.1916-1.3884-3.844-1.3884zm0-5.1636h5.7832c1.8818 0 3.2856-0.39778 4.2112-1.1934s1.3884-1.9736 1.3884-3.5342c0-1.53-0.46281-2.7462-1.3884-3.6489-0.92562-0.90268-2.2911-1.354-4.0964-1.354h-5.8979zm46.41 9.7993c0-1.2852-0.45515-2.3179-1.3655-3.0982-0.91032-0.78028-2.5053-1.5146-4.7849-2.2031-3.9779-1.1475-6.9842-2.5091-9.019-4.085-2.0348-1.5759-3.0522-3.7331-3.0522-6.4717s1.1666-4.9762 3.4998-6.7126c2.3332-1.7365 5.3127-2.6047 8.9387-2.6047 3.6719 0 6.6629 0.97534 8.9731 2.926s3.4271 4.3565 3.3506 7.2175l-0.0459 0.13769h-6.4946c0-1.5452-0.51635-2.796-1.5491-3.7522-1.0327-0.95623-2.4823-1.4343-4.3489-1.4343-1.79 0-3.1746 0.39778-4.1538 1.1934s-1.4688 1.813-1.4688 3.0522c0 1.1322 0.52401 2.0616 1.572 2.7883 1.048 0.72672 2.8572 1.4955 5.4275 2.3064 3.6872 1.0251 6.4793 2.3791 8.3765 4.062s2.8457 3.8937 2.8457 6.6323c0 2.861-1.1283 5.1177-3.385 6.77-2.2567 1.6524-5.2362 2.4785-8.9387 2.4785-3.6413 0-6.8159-0.93708-9.5239-2.8113-2.708-1.8742-4.0238-4.5018-3.9473-7.883l0.0459-0.1377h6.5176c0 1.9889 0.60815 3.4462 1.8245 4.3718 1.2163 0.92562 2.9107 1.3884 5.0832 1.3884 1.8206 0 3.2129-0.37484 4.1768-1.1245 0.96387-0.74967 1.4458-1.7518 1.4458-3.0063z" fill="#41a7c9"/>
    </g>
   </g>
  </g>
 </g>
</svg>
