<?xml version="1.0" encoding="UTF-8"?>
<svg id="svg826" width="362.89" height="98.716" fill="none" version="1.1" viewBox="0 0 362.89 98.716" xmlns="http://www.w3.org/2000/svg">
 <path id="path824" d="m27.294 0h-27.294l56.994 98.716 13.619-23.589zm51.151 61.56 12.686-21.973-22.826-39.587h-25.356zm35.542-61.56-15.023 26.02-15.003-26.02zm-86.947 72.488 15.129 26.205h-30.259zm117.33 13.928c1.653-1.6796 2.4796-3.9469 2.4796-6.802v-49.042h-10.414v47.362c0 1.6796-0.7714 2.5195-2.3142 2.5195h-7.1079v8.5654h10.745c2.7551 0 4.9591-0.86781 6.612-2.6032zm-8.0172-73.143c-1.3774 1.3436-2.0661 3.0791-2.0661 5.2065 0 2.1274 0.6887 3.8629 2.0661 5.2065 1.4326 1.3436 3.196 2.0154 5.2896 2.0154 2.0939 0 3.8295-0.6718 5.2072-2.0154 1.4326-1.3436 2.1488-3.0791 2.1488-5.2065 0-2.1274-0.71618-3.8629-2.1488-5.2065-1.3777-1.3436-3.1133-2.0154-5.2072-2.0154-2.0936 0-3.857 0.6718-5.2896 2.0154zm19.852 26.536c-1.7081 3.247-2.5622 6.998-2.5622 11.253 0 4.2546 0.88155 8.0895 2.6449 11.504 1.7631 3.415 4.2426 6.0742 7.4384 7.9778 3.1957 1.9033 6.8601 2.8551 10.993 2.8551 3.5262 0 6.5294-0.55988 9.0089-1.6796 2.5345-1.1755 4.463-2.4352 5.7854-3.7787 1.3774-1.3997 2.6999-2.9954 3.9671-4.7867l-8.3476-5.2064c-2.3691 4.2546-5.8406 6.3821-10.414 6.3821-2.8652 0-5.2621-0.9238-7.1906-2.7714-1.9285-1.8473-3.0031-4.1426-3.2234-6.8857h29.837v-3.9469c0-4.2548-0.82633-7.9778-2.4795-11.169-1.653-3.247-3.9946-5.7382-7.0252-7.4736-3.0306-1.7916-6.5019-2.6874-10.414-2.6874-3.9674 0-7.5213 0.9238-10.662 2.7714-3.1405 1.7914-5.5926 4.3386-7.3557 7.6416zm24.382 1.0078c1.7082 1.5674 2.6999 3.7229 2.9754 6.4661h-19.175c0.33075-2.7432 1.3224-4.8987 2.9754-6.4661 1.653-1.5677 3.9122-2.3512 6.7774-2.3512 2.6446 0 4.7937 0.78357 6.4467 2.3512zm15.307-10.245h10.249v-12.932h10.414v12.932h11.24v8.5654h-11.24v22.002c0 1.6794 0.77141 2.5192 2.3142 2.5192h7.9345v8.5654h-11.571c-2.7548 0-4.9588-0.83982-6.6118-2.5192-1.6532-1.7354-2.4795-4.0309-2.4795-6.886v-23.681h-10.249zm55.786 32.75-10.166-32.75h-11.24l14.133 41.652h15.374l14.132-41.652h-11.239l-10.167 32.75zm23.759-12.26c0-4.2548 0.85278-8.0058 2.5609-11.253 1.7626-3.303 4.2146-5.8502 7.3562-7.6416 3.1416-1.8476 6.6952-2.7714 10.661-2.7714 3.914 0 7.3847 0.89581 10.415 2.6874 3.0301 1.7354 5.3733 4.2266 7.0244 7.4736 1.6537 3.1911 2.4806 6.914 2.4806 11.169v3.9469h-29.837c0.22033 2.7432 1.296 5.0384 3.2245 6.8857 1.9285 1.8476 4.3235 2.7714 7.1903 2.7714 4.5724 0 8.0431-2.1275 10.412-6.3821l8.3489 5.2064c-1.2675 1.7914-2.5894 3.387-3.9684 4.7867-1.3219 1.3435-3.2504 2.6032-5.7854 3.7787-2.478 1.1198-5.4822 1.6796-9.0073 1.6796-4.1343 0-7.7969-0.9518-10.993-2.8551-3.196-1.9036-5.6766-4.5628-7.4391-7.9778-1.7626-3.415-2.6439-7.2499-2.6439-11.504zm29.92-3.7789c-0.27734-2.7432-1.2675-4.8987-2.9756-6.4661-1.6537-1.5677-3.8025-2.3512-6.4464-2.3512-2.8668 0-5.1245 0.78357-6.7782 2.3512-1.6537 1.5674-2.6465 3.7229-2.9757 6.4661zm17.361-7.4739c-1.8715 3.303-2.8098 7.1659-2.8098 11.589 0 4.4225 0.9383 8.3134 2.8098 11.672 1.874 3.303 4.4376 5.8502 7.688 7.6418 3.2504 1.7914 6.9156 2.6872 10.993 2.6872 4.0773 0 7.7398-0.89581 10.99-2.6872 3.253-1.7916 5.8139-4.3388 7.688-7.6418 1.874-3.359 2.8098-7.2499 2.8098-11.672 0-4.4228-0.93574-8.2857-2.8098-11.589-1.874-3.359-4.435-5.9342-7.688-7.7256-3.2504-1.7916-6.913-2.6874-10.99-2.6874-4.0773 0-7.7424 0.89581-10.993 2.6874-3.2504 1.7914-5.8139 4.3665-7.688 7.7256zm10.664 20.994c-2.0399-2.2955-3.0586-5.4306-3.0586-9.4052 0-3.9749 1.0187-7.082 3.0586-9.3215 2.0373-2.2952 4.7097-3.4427 8.0172-3.4427 3.3049 0 5.9772 1.1475 8.0172 3.4427 2.0373 2.2395 3.056 5.3466 3.056 9.3215 0 3.9746-1.0187 7.1097-3.056 9.4052-2.0399 2.2393-4.7123 3.359-8.0172 3.359-3.3074 0-5.9798-1.1198-8.0172-3.359z" clip-rule="evenodd" fill="#6279f0" fill-rule="evenodd" stroke-width="2.592"/>
</svg>
