<svg xmlns="http://www.w3.org/2000/svg" viewBox="0 0 2048 512">
  <path fill="#424242" d="M393.17 6.35a35.43 35.43 0 00-35.43 35.43 35.43 35.43 0 0027.1 34.44v11.74H226.47a7.31 7.31 0 00-7.32 7.33v3.08H219v17.76c-48.26 4.07-86.35 41.07-92.46 90.1H37.02A30.95 30.95 0 006 237.24a30.94 30.94 0 0029.97 30.99v162.26a39.1 39.1 0 0039.2 39.19h304.37a39.1 39.1 0 0039.2-39.2v-162.5a30.93 30.93 0 0026.92-30.74 30.95 30.95 0 00-31.02-31.01h-86.4c-6.02-49.28-43.69-86.37-92.18-90.14v-12.45h158.09a7.31 7.31 0 007.32-7.33v-8.35h-.12v-11.7a35.43 35.43 0 0027.25-34.48 35.43 35.43 0 00-35.43-35.43zm1473.64 199.8c-1.2 0-2.55.1-4.17.28-10.05 1.13-15.31 6.03-23.13 21.5-3.37 6.67-7.94 13.25-10.17 14.64-2.33 1.46-11.3 2.98-21.14 3.57-28.98 1.75-41.7 6.99-36.76 15.13 3.2 5.25 14.07 9.48 27.1 10.54 21.47 1.73 25.89 5.47 22.28 18.8-4.63 17.11-12.87 73.55-12.08 82.76 1.7 19.97 14.39 38.7 29.08 42.98 9.45 2.75 17.76 2.02 27.06-2.36 15.2-7.15 31.04-20.21 40.9-33.72l9.29-12.74 3.75 14.12c4.25 15.99 8.82 24.72 14.3 27.31 14.04 6.67 19.1 3.6 32.36-19.7 16.32-28.67 19.98-31.54 26.39-20.67 1.98 3.36 5.36 6.57 7.51 7.13 10.77 2.81 30.15-8.58 39.03-22.95 9.08-14.68-.2-16.45-15.18-2.88-15.11 13.69-19.28 11.93-22.69-9.55-2.95-18.63-4.96-24.32-9.05-25.62-8.99-2.85-16.7 6.86-18.27 23.03-1.56 15.92-14.69 40.8-19.17 36.34-1.05-1.05-4-9.1-6.54-17.9-5.85-20.16-11.19-30.61-19.94-39.03-11.3-10.88-21.62-12.87-25.84-5-1.35 2.54-.88 6.13 1.8 13.73 3.5 10 3.52 10.4.3 14-1.82 2.04-8.32 11.1-14.44 20.14-18.47 27.29-32.25 38.95-35.63 30.15-1.14-2.96 0-8.95 12.2-64.58 8.54-38.97 9.9-43.4 13.86-45.06 1.68-.7 9.57-1.85 17.54-2.54 23.68-2.04 32.05-8.08 28.86-20.8-1.47-5.85-14.3-11.68-25.72-11.68-13.3 0-16.6-3.36-18.52-18.9-1.3-10.43-2.4-13.3-6.51-16.82-3.05-2.62-5.1-3.62-8.66-3.65zM837.38 210.1a8.44 8.44 0 00-2.86.39c-6.22 1.97-16.05 11.83-20.41 20.47-9.6 18.98-19.74 56.43-29.93 110.43-4.94 26.16-6.1 30.06-8.75 29.23-3.49-1.11-8.04 3.35-15.55 15.26-9.94 15.74-15.28 21.59-19.73 21.59-7.29 0-8.22-4.87-7.86-41 .45-43.68-1.94-54.72-13.31-61.66-13.61-8.3-30.65-2.17-46.37 16.67-12.36 14.82-20.7 30.11-23.44 42.98-3.1 14.62-8.2 16.21-19.42 6.07-8.62-7.78-21.77-29.46-21.77-35.88 0-3.4 2.6-7.05 9.44-13.17 17.18-15.38 28.35-26.8 28.35-28.98 0-4.24-8.75-11-14.25-11-4.14 0-8.14 2.56-16.96 10.8-6.35 5.94-12.82 10.8-14.4 10.8-4.95 0-6.96-7.1-8.38-29.52-1.5-23.8-3.22-30.04-10.35-37.5-11.7-12.28-21.63-2.18-26.4 26.85-4.7 28.56-10.59 111.34-9.54 134.2 1.1 23.96 3.95 31.93 13.81 38.64 17.2 11.68 33.68 4.31 31.1-13.92-.48-3.46-.98-18.18-1.1-32.73-.24-28.58 1.54-35.36 6.66-25.46 7.66 14.83 33.39 33.33 49.92 35.9 4.39.7 9.86 2.7 12.14 4.48 6.34 4.9 22.67 8.1 28.32 5.52 8.26-3.76 15.21-2.52 23.4 4.19 12.74 10.44 23.43 12.53 36.4 7.13 7.73-3.22 19.27-13.8 23.17-21.23 3.57-6.81 4.9-5 2.6 3.59-1 3.81-2.74 14.43-3.85 23.6-4.7 38.98 8.53 68.73 34.2 76.92 9.99 3.2 20.69 2.28 26.9-2.28 6.08-4.48 15.76-20.61 19.1-31.8 3.03-10.18 3.42-35.96.72-47.65-1.07-4.66-1.16-8.6-.22-9.54 1.64-1.64 8.3-2.87 16.74-3.1 2.58-.06 7.71-2.17 11.4-4.68l6.72-4.55 10.92 5.45c8.99 4.5 13.11 5.46 23.31 5.46 11.04 0 13.43-.67 21.76-6.08 5.15-3.34 15.53-11.81 23.08-18.83l13.72-12.76-.9 7.95c-.8 7.06-.28 8.57 4.59 13.44 6.16 6.16 10.6 6.77 19.27 2.66 6.77-3.22 8.76-7.23 12.48-25.28 4.85-23.44 17.35-51.64 21.2-47.79 2.07 2.07-2.5 40.33-6.89 57.54-3.45 13.58-1.53 20.4 7.24 25.76 7.12 4.34 19.31 4.47 23.11.24 3.08-3.42 8.77-24.5 12.03-44.54 2.2-13.58 8.7-28.95 14.44-34.14 3.43-3.1 3.62-3.1 4.8-.01.69 1.77.18 11.4-1.12 21.38-1.3 10-2.72 25.06-3.16 33.47-.7 13.52-.36 15.85 2.98 20.1 2.08 2.64 7.4 6.19 11.83 7.88 13.56 5.18 20.15.4 36.03-26.08l6.95-11.58 3.95 12.95c4.54 14.84 10.78 24.01 18.54 27.23 4.84 2 6.38 1.7 14.91-2.89 5.3-2.86 17.13-12.76 26.74-22.39l17.23-17.27 2.13 8.96c2.87 12.06 9.78 20.6 20.88 25.76 11.83 5.51 28.8 5.9 38.52.87 8.9-4.6 23.95-17.38 37.71-32.03l11.25-11.98v13c0 15.98-2.61 22.54-15.1 37.89-14.12 17.35-21.66 30-27.2 45.6-3.43 9.65-4.57 15.6-3.8 19.74 6.4 33.8 54.04 29.07 67.52-6.7 4.48-11.9 12.2-46.61 15.35-69 1.38-9.86 3.8-19.88 5.37-22.29 2.6-3.96 20.11-13.83 21.35-12.02.28.41 2.91 6.8 5.85 14.2 4.55 11.46 6.4 14.04 12.53 17.51 12.53 7.09 27.9 4.22 27.9-5.2 0-1.86-1.7-8.38-3.75-14.5-4.08-12.12-3.78-20.16 1.4-36.45 3.53-11.15 12.34-28.98 15.17-30.73 6.9-4.27 8.78 16.24 4.95 54.02-2.42 23.97-.54 30.91 9.72 35.78 11.9 5.65 20.68 2.65 30.72-10.5l6.2-8.11 3.57 6.06c7.4 12.55 20.89 19.16 39.07 19.16 9.87 0 12.37-.79 21.78-6.89 5.84-3.79 11.75-8.26 13.13-9.94 1.38-1.68 7.05-6.99 12.6-11.8l10.08-8.73.12 13.73c.3 36.57 7.69 50.8 27.78 53.49 6.65.89 8.98.38 13.11-2.88l5.03-3.97-1.23-29.15c-1.17-27.75-.16-46.1 2.54-46 .68.03 4.01 4.14 7.4 9.14 9.75 14.37 28.97 27.83 44.52 31.2 11.6 2.5 29.24-6.23 33.1-16.38 2.2-5.8-.78-12.77-6.59-15.42-4.2-1.91-5.98-1.49-15.2 3.62-5.75 3.19-12.16 5.8-14.26 5.8-5.93 0-20.05-14.6-27.51-28.45-8.3-15.39-7.72-17.85 7.08-30.13 19.74-16.4 23.98-21.05 23.98-26.27 0-5.84-5.75-10.53-12.93-10.53-4.68 0-9.92 3.68-23.72 16.64-6.04 5.68-10.96 6.36-12.87 1.8-.72-1.73-1.88-12.86-2.58-24.74-.93-15.83-2.27-23.83-5-29.99-6.77-15.2-18.2-18.1-25.38-6.45-5.2 8.44-8.75 29.52-12 71.53l-2.87 36.89-21.05 20.7c-12.54 12.33-24.12 22.07-28.64 24.09-7.17 3.2-7.85 3.22-12.23.35-5.94-3.9-8.38-10.44-7.7-20.67l.53-8.14 10.84-3.72c15.9-5.46 23.7-10.97 32.5-22.91 10.84-14.73 12.53-21.61 7.73-31.52-6.95-14.36-26.04-20.78-41.98-14.12-16.57 6.92-38.26 37.83-42.4 60.44-1.99 10.8-10.4 29.17-13.83 30.19-1.56.46-2.16-3.83-2.18-15.45-.05-31.9-9.7-57.55-24.26-64.49-5.54-2.64-6.48-2.61-12.86.41-3.78 1.8-11.67 7.96-17.53 13.7-5.87 5.74-11.28 10.05-12.03 9.59-.74-.46-2.37-7.12-3.6-14.78-2.87-17.77-4.26-21.28-9.88-24.96-4.2-2.75-4.95-2.76-8.93-.16-7.5 4.92-12.28 20.99-12.4 41.65-.05 9.9.5 19.78 1.22 21.96 1.12 3.36.22 4.53-5.9 7.65-11.16 5.7-14.1 4.98-16.38-3.96-5.2-20.36-11.52-31.64-20.38-36.4-5.88-3.18-6.53-3.2-10.84-.37-5.05 3.3-7.64 12.42-5.94 20.9.94 4.71-1 7.13-22.74 28.33-25.5 24.87-34.81 31.06-41.88 27.84-6.18-2.81-10.05-11.63-9.41-21.43l.54-8.39 11.49-3.94c15.16-5.2 24.79-12.22 33.07-24.07 9.75-13.96 11.57-21.14 7.51-29.7-6.9-14.54-28.01-21.43-43.36-14.14-16.55 7.85-38.32 38.14-41.2 57.32-1.03 6.92-2.86 9.6-13.16 19.31-13.64 12.87-28.12 22.98-32.9 22.98-4.88 0-5.76-6.7-4.38-33.28 2.43-46.91 3.49-52.77 12.63-69.68 11.81-21.84 17.34-39.02 18.51-57.45.96-15.09.85-15.63-3.5-18.49-8.5-5.56-19.86 1.96-28.35 18.75-9.1 18.02-21.56 61.9-27.2 95.82-1.82 10.95-2.97 13.94-5.35 13.94-3.87 0-5.7 2.5-9.6 13.02-3.5 9.47-9.1 17.33-11 15.44-.67-.68-1.54-7.56-1.92-15.3-1.72-35.19-11.42-52.75-29.16-52.75-7.14 0-8.96.87-14.98 7.2-3.76 3.96-7.27 7.2-7.78 7.2-.51 0-2.64-3.34-4.72-7.43-10.28-20.14-22.82-20.96-39.04-2.53-3.95 4.49-7.9 8.13-8.76 8.09-.86-.04-3.19-2.64-5.17-5.78-4.68-7.44-11.53-11.23-17.55-9.72-5.7 1.43-6.07 2.56-8.52 26.37l-1.94 18.89-22.88 22.59c-30.45 30.06-39.32 33.97-47.3 20.89-3.38-5.56-4.55-16.1-2.4-21.7.59-1.54 5.73-4.1 11.43-5.7 5.7-1.6 14.32-5.9 19.17-9.55 10-7.52 21.53-23.5 23.15-32.08 2.43-12.9-9.95-27.18-25.04-28.88-14.41-1.62-19.91.58-33.57 13.47-20.17 19.03-28.24 36.5-29.61 64.14-1.12 22.5-5.9 29.9-19.29 29.9-4.4 0-7.54-2.02-14.7-9.44-17.99-18.69-25.84-42.04-23.37-69.51.86-9.58 2.96-15.63 10.66-30.81 14.03-27.67 21.5-56.03 18.21-69.13a10.15 10.15 0 00-9.22-7.67zm1.23 8.43c2.19 0 .26 22.56-3.12 36.46-2.48 10.21-14.92 41.73-15.08 38.22-.15-3.24 5.27-35.7 8.05-48.18 3.25-14.63 7.8-26.5 10.15-26.5zm359.65 0c4.3 0-.32 33.45-7.22 52.34-2.78 7.63-5.93 15.37-7 17.2-1.75 3.01-1.94 2.88-1.99-1.3-.17-14.55 12.58-68.24 16.21-68.24zm135.52 48.6c-3.23-.02-6.43.83-9.23 2.79-7.26 5.08-4.17 17.57 6.02 24.28 9.31 6.14 18.45 3.99 22.27-5.24 4.44-10.73-7.52-21.78-19.06-21.84zM227.12 277.45h.07a67.48 67.48 0 11-.07 0zm1055.99 32.92c3.25-.16 5.05 3.51 5.05 10.92 0 7.88-4.17 16.44-10.69 21.93-6.46 5.43-11.18 6.16-14.44 2.23-3.2-3.86 2.07-18.4 10.04-27.7 4.1-4.8 7.51-7.25 10.04-7.38zm-348.45.02c1.47.1 2.64.97 3.32 2.75 3.51 9.14-.8 22.68-9.6 30.08-6.44 5.42-11.18 6.16-14.43 2.25-2.4-2.9-1.5-7.08 3.96-18.09 5.2-10.48 12.35-17.26 16.75-16.99zm630.6.01c2.28-.1 3.82 1.87 4.58 5.9 1.74 9.29-1.96 19.9-9.15 26.22-6.03 5.3-9.74 6.4-14.76 4.37-5.38-2.17.23-18.5 10.3-29.97 3.72-4.24 6.75-6.41 9.03-6.52zm-1355.71.4a4.37 4.37 0 00-4.25 4.36v59.62a4.37 4.37 0 006.55 3.79l51.63-29.81a4.37 4.37 0 000-7.56l-51.63-29.82a4.37 4.37 0 00-2.27-.58 4.37 4.37 0 00-.03 0zM702.9 333.7c2.84 0 2.79 4.1-.32 24.5-2.56 16.8-5.75 25.2-11.93 31.37-3.47 3.48-9 4.6-11.3 2.3-3.13-3.12-.92-18.28 4.29-29.39 6.9-14.7 16.31-28.78 19.26-28.78zm1077.77 43.18c-6.08 0-15.65 8.67-15.65 14.17 0 5.44 3.7 12.55 7 13.43 6.8 1.82 9.9.85 15.67-4.93 10.48-10.48 6.71-22.67-7.02-22.67zm-966.98 11.05c.57 0 1.25.86 2.56 2.57 6.74 8.77 13.25 26.18 15.17 40.55 1.68 12.63 1.53 17.46-.92 29.49-1.62 7.9-4.45 16.4-6.3 18.9-6.8 9.14-15.23 4.83-20.24-10.36-4-12.13 1.37-66.63 7.75-78.54.93-1.74 1.4-2.6 1.98-2.6zm512.67 40.23l-1.32 9.9c-2 14.98-7.63 31.58-12.83 37.75-7.32 8.7-11.07 10.04-13.46 4.79-1.56-3.42-1.33-6.39 1.01-13.45 3.48-10.49 14.45-27.96 21.64-34.49z" paint-order="fill markers stroke"/>
</svg>
