<svg width="512" height="512" viewBox="0 0 512 512" fill="none" xmlns="http://www.w3.org/2000/svg">
<g clip-path="url(#clip0_747_0)">
<path d="M80 256C80 135.824 169.826 36.628 286 21.89C276.176 20.643 266.163 20 256 20C125.661 20 20 125.661 20 256C20 386.339 125.661 492 256 492C266.163 492 276.176 491.357 286 490.11C169.826 475.372 80 376.176 80 256Z" fill="#4E4C82" fill-opacity="0.5"/>
<path d="M256 512C187.62 512 123.333 485.371 74.98 437.02C26.629 388.667 0 324.38 0 256C0 187.62 26.629 123.333 74.98 74.98C123.333 26.629 187.62 0 256 0C324.38 0 388.667 26.629 437.02 74.98C485.371 123.333 512 187.62 512 256C512 324.38 485.371 388.667 437.02 437.02C388.667 485.371 324.38 512 256 512ZM256 40C136.897 40 40 136.897 40 256C40 375.103 136.897 472 256 472C375.103 472 472 375.103 472 256C472 136.897 375.103 40 256 40Z" fill="#4E4C82"/>
<path d="M333.8 168.624C317.878 159.563 298.975 159.743 283.232 169.098L207.231 214.263C201.598 217.611 196.81 221.903 193.001 226.869V181C193.001 169.954 184.047 161 173.001 161C161.955 161 153.001 169.954 153.001 181V332C153.001 343.046 161.955 352 173.001 352C184.047 352 193.001 343.046 193.001 332V287.131C196.811 292.097 201.599 296.389 207.231 299.737L283.232 344.902H283.233C291.244 349.663 300.072 352.047 308.911 352.047C317.441 352.047 325.981 349.825 333.801 345.376C349.58 336.397 359.001 320.244 359.001 302.165V211.835C359 193.756 349.579 177.603 333.8 168.624ZM319 302.165C319 307.047 315.879 309.552 314.019 310.61C312.452 311.5 308.31 313.276 303.666 310.515H303.667L227.666 265.35C223.472 262.858 222.846 259.048 222.846 256.999C222.846 254.95 223.472 251.141 227.666 248.648L303.666 203.483C308.311 200.722 312.451 202.497 314.019 203.388C315.879 204.447 319 206.951 319 211.833V302.165Z" fill="#4E4C82"/>
</g>
<defs>
<clipPath id="clip0_747_0">
<rect width="512" height="512" fill="white"/>
</clipPath>
</defs>
</svg>
