<?xml version="1.0" encoding="UTF-8"?>
<svg width="213px" height="50px" version="1.1" viewBox="0 0 213 50" xmlns="http://www.w3.org/2000/svg">
 <!--Generator: Sketch 62 (91390) - https://sketch.com-->
 <title>Combined Shape</title>
 <desc>Created with Sketch.</desc>
 <defs>
  <linearGradient id="linearGradient-1" x1="-1.4211e-12%" y1="50%" y2="50%">
   <stop stop-color="#18C872" offset="0"/>
   <stop stop-color="#006DFF" offset="1"/>
  </linearGradient>
 </defs>
 <g id="07_Lundeweb" fill="none" fill-rule="evenodd">
  <g id="404" transform="translate(-30 -33)" fill="url(#linearGradient-1)">
   <path id="Combined-Shape" transform="translate(136.5 58) translate(-136.5 -58)" d="m155.79 43.638c4.3898 0 7.3336 3.0377 7.3336 7.5702v6.0406c0 4.5298-2.9438 7.5675-7.3336 7.5675l-7.1493 0.0080363v1.476c0 0.96703 0.46987 1.4412 1.4018 1.4412h5.5658c4.3405 0 7.2843 3.0324 7.2843 7.5621v0.47682c-0.15316 4.3342-3.0477 7.2193-7.3233 7.2193h-12.359v-6.0299h11.659c0.87744 0 1.3343-0.42324 1.394-1.2644v-0.96435c0-0.96167-0.46468-1.4492-1.3992-1.4492h-5.7916c-4.3457 0-7.248-3.0458-7.248-7.5782v-14.505c0-4.5325 2.9854-7.5702 7.331-7.5702zm87.209-10.638v28.497c0 4.5956-2.95 7.673-7.3046 7.673h-6.6491c-4.3963 0-7.3463-3.0773-7.3463-7.673v-10.069c0-4.5956 2.95-7.6757 7.3463-7.6757h7.1642v-10.753h6.7896zm-22.365 10.638v6.129h-5.0508c-1.0001 0-1.5085 0.49032-1.5085 1.471v17.932h-7.2857v-17.834c0-4.609 3.1651-7.698 7.8919-7.698h5.9531zm-40.47 9.5745v5.8303l-6.9804 0.0028138c-0.94925 0-1.4186 0.5065-1.4186 1.5195v0.94546c0.060311 0.88355 0.52182 1.3281 1.4081 1.3281h6.9909v6.3312h-7.5074c-4.3188 0-7.24-3.0277-7.3947-7.5777h-0.007867v-0.43896c0-4.7611 2.9762-7.9407 7.3632-7.9407h7.5468zm15.057-9.5745c4.3552 0 7.3081 3.0943 7.3081 7.7084v17.823h-13.958c-4.2824 0-7.1807-2.936-7.3342-7.3482h-0.007805v-0.42567c0-4.6169 2.9503-7.7002 7.3029-7.7002h7.2041v-2.4449c0-0.98504-0.4683-1.4735-1.4023-1.4735h-11.231v-6.1394zm-62.763 0c4.3317 0 7.2366 3.094 7.2366 7.7103v7.754h-14.619v2.4582c0 0.98221 0.46366 1.4733 1.3858 1.4733h10.971v6.1361h-11.848c-4.2907 0-7.1905-3.0912-7.1905-7.7076v-10.114c0-4.6164 2.8998-7.7103 7.1905-7.7103zm-16.193-10.638v36.17h-13.95c-4.4021 0-7.3498-3.0798-7.3498-7.6751v-10.068c0-4.5926 2.9477-7.6724 7.3498-7.6724h7.1624v-10.755h6.7878zm-31.799 10.638c4.3542 0 7.3037 3.089 7.3037 7.698v17.834h-6.7887v-17.932c0-0.98063-0.46819-1.471-1.4046-1.471h-4.9134c-0.93638 0-1.4072 0.49032-1.4072 1.471v17.932h-6.7861v-17.834c0-4.609 2.9496-7.698 7.3506-7.698zm-31.703 0v17.932c0 0.98063 0.46819 1.471 1.4046 1.471h4.916c0.93378 0 1.402-0.49032 1.402-1.471v-17.932h6.7887v17.834c0 4.609-2.947 7.698-7.3506 7.698h-6.6457c-4.3542 0-7.3037-3.089-7.3037-7.698v-17.834h6.7887zm-15.388-10.638-0.0028261 28.594c0 0.97757 0.5087 1.4691 1.5261 1.4691h4.9457v6.1071h-5.8585c-4.7817 0-7.9865-3.0794-7.9865-7.6712v-28.499h7.3761zm72.109 16.863-6.3299 0.0027159c-0.934 0-1.4023 0.48614-1.4023 1.4666v10.263c0 0.975 0.4683 1.472 1.4023 1.472h6.3299v-13.205zm126.73 0.0012663h-6.3239c-0.93649 0-1.4021 0.4889-1.4021 1.4667v10.264c0 0.97779 0.46564 1.4585 1.4021 1.4585h5.1897c0.7518-0.092347 1.1342-0.58396 1.1342-1.4585v-11.731zm-40.473 9.4856-6.6499 0.0027287c-0.934 0-1.3997 0.49116-1.3997 1.4735v0.91682c0.057237 0.85679 0.51774 1.2879 1.3945 1.2879h6.6551v-3.6809zm-40.789-9.6843h-4.9064c-0.93196 0-1.3966 0.48218-1.3966 1.4465v7.6746h6.303c0.93455 0 1.4018-0.4795 1.4018-1.4412v-6.2335c0-0.96435-0.46728-1.4465-1.4018-1.4465zm-23.322 0.11158h-5.1668c-0.92219 0-1.3858 0.4911-1.3858 1.4733v2.21h7.9359v-2.21c0-0.98221-0.46366-1.4733-1.3833-1.4733zm48.537-6.1388v6.383h-13.845v-6.383h13.845z"/>
  </g>
 </g>
</svg>
