<?xml version="1.0" encoding="UTF-8" standalone="no"?>
<svg
   width="1073"
   height="155.95399"
   viewBox="0 0 1073 155.95399"
   fill="none"
   version="1.1"
   id="svg1"
   sodipodi:docname="MEWS_WORDMARK_BLACK.svg"
   inkscape:version="1.4.3 (0d15f75, 2025-12-25)"
   xmlns:inkscape="http://www.inkscape.org/namespaces/inkscape"
   xmlns:sodipodi="http://sodipodi.sourceforge.net/DTD/sodipodi-0.dtd"
   xmlns="http://www.w3.org/2000/svg"
   xmlns:svg="http://www.w3.org/2000/svg">
  <defs
     id="defs1" />
  <sodipodi:namedview
     id="namedview1"
     pagecolor="#ffffff"
     bordercolor="#666666"
     borderopacity="1.0"
     inkscape:showpageshadow="2"
     inkscape:pageopacity="0.0"
     inkscape:pagecheckerboard="0"
     inkscape:deskcolor="#d1d1d1"
     inkscape:zoom="0.022222222"
     inkscape:cx="562.5"
     inkscape:cy="90"
     inkscape:current-layer="svg1" />
  <path
     d="M 131.899,115.109 43.087,1.529 H 0 V 154.425 H 36.272 V 48.49 l 76.062,96.324 c 10.772,13.542 28.798,13.542 39.57,0 L 227.966,48.49 v 105.935 h 36.272 V 1.529 H 221.371 Z M 506.493,1.529 H 305.127 V 154.425 H 508.471 V 123.19 H 341.399 V 93.485 H 499.898 V 62.25 H 341.399 V 32.763 H 506.493 Z M 781.5,154.425 844.37,1.529 H 806.78 L 760.18,118.166 712.26,14.853 C 708.08,5.679 696.65,0.437 686.54,0.437 c -10.34,0 -21.55,5.242 -25.73,14.416 L 612.45,118.166 566.067,1.529 h -37.371 l 62.434,152.896 h 40.89 L 686.54,37.787 740.83,154.425 Z M 877.13,105.498 858,135.422 c 27.04,13.542 63.1,20.532 105.74,20.532 44.19,0 109.26,-3.058 109.26,-49.364 0,-43.684 -57.6,-42.155 -105.96,-44.776 -39.79,-1.966 -67.93,-0.656 -67.93,-13.543 0,-14.634 28.36,-16.163 64.41,-16.163 39.57,0 64.63,5.242 85.74,15.945 L 1067.5,17.911 C 1040.68,6.334 1003.31,0 963.74,0 916.48,0 859.98,3.713 859.98,48.49 c 0,42.592 56.94,40.408 105.3,42.811 45.51,2.184 68.59,1.31 68.59,14.197 0,13.761 -18.25,18.347 -70.13,18.347 -29.23,0 -59.57,-5.46 -86.61,-18.347 z"
     fill="#000000"
     id="path1" />
</svg>
