<?xml version="1.0" encoding="UTF-8"?>
<svg id="svg848" width="401.9" height="63.8" clip-rule="evenodd" fill-rule="evenodd" stroke-linejoin="round" stroke-miterlimit="2" version="1.1" viewBox="0 0 401.9 63.8" xml:space="preserve" xmlns="http://www.w3.org/2000/svg">
    <g id="g846" transform="translate(-15.9 -7.1)" fill="#fd8f82" fill-rule="nonzero">
        <g id="g838">
            <path id="path824" d="m15.9 30.9h13.6v4.7c3.7-3.6 7.9-5.3 12.5-5.3 5.7 0 10.1 2.4 13.1 7.2 3.1-4.9 7.4-7.3 13.1-7.3 1.8 0 3.5 0.3 5.1 0.8s3 1.4 4.1 2.5c1.2 1.1 2.1 2.6 2.7 4.4 0.7 1.8 1 4 1 6.5v25h-13.6v-19c0-2-0.1-3.6-0.4-4.8-0.3-1.3-0.7-2.2-1.2-2.9s-1.1-1.2-1.8-1.4-1.5-0.4-2.3-0.4c-4.4 0-6.5 3.2-6.5 9.5v19h-13.7v-19c0-2-0.1-3.6-0.4-4.8-0.3-1.3-0.6-2.3-1.1-3-0.5-0.8-1.1-1.3-1.8-1.5-0.8-0.3-1.6-0.4-2.6-0.4-0.9 0-1.7 0.1-2.4 0.4-0.8 0.3-1.4 0.7-2 1.5-0.6 0.7-1 1.7-1.4 3-0.3 1.3-0.5 2.9-0.5 5v19h-13.5z"/>
            <path id="path826" d="m158.3 42.3v27.2h-13.6v-27.2h-4.5v-11.4h4.5v-11.5h13.6v11.6h7.7v11.3z"/>
            <path id="path828" d="m171.3 16.1c0-1.1 0.2-2 0.6-3 0.4-0.9 1-1.7 1.7-2.4s1.5-1.3 2.4-1.7 1.9-0.6 3-0.6 2 0.2 3 0.6c0.9 0.4 1.7 1 2.4 1.7s1.3 1.5 1.7 2.4 0.6 1.9 0.6 3-0.2 2-0.6 3c-0.4 0.9-1 1.7-1.7 2.4s-1.5 1.3-2.4 1.7-1.9 0.6-3 0.6-2-0.2-3-0.6c-0.9-0.4-1.7-1-2.4-1.7s-1.3-1.5-1.7-2.4-0.6-1.9-0.6-3zm14.5 14.8v38.5h-13.6v-38.5z"/>
            <path id="path830" d="m247.6 30.9h13.6v4.9c1.9-2.3 3.7-3.8 5.6-4.5 1.9-0.8 4.1-1.2 6.7-1.2 2.7 0 5 0.4 6.9 1.3s3.6 2.1 4.9 3.7c1.1 1.3 1.9 2.8 2.3 4.4s0.6 3.4 0.6 5.5v24.5h-13.6v-19.5c0-1.9-0.1-3.4-0.4-4.6s-0.8-2.1-1.5-2.8c-0.6-0.6-1.3-1-2-1.3-0.8-0.2-1.6-0.4-2.4-0.4-2.3 0-4.1 0.7-5.3 2.1s-1.8 3.3-1.8 5.9v20.6h-13.6z"/>
            <rect id="rect832" x="297.5" y="7.1" width="13.6" height="62.3"/>
            <path id="path834" d="m350 30.9h13.8v38.5h-13.7v-4.3c-2.9 3.7-6.8 5.5-11.8 5.5-2.8 0-5.4-0.5-7.7-1.5-2.4-1-4.4-2.5-6.2-4.3-1.8-1.9-3.1-4-4.1-6.5s-1.5-5.2-1.5-8.2c0-2.8 0.5-5.4 1.4-7.8 1-2.5 2.3-4.6 4-6.5s3.7-3.3 6.1-4.4 5-1.6 7.8-1.6c4.8 0 8.8 1.7 11.9 5zm-17 19.2c0 1.3 0.2 2.4 0.7 3.5s1.1 2 1.8 2.8c0.8 0.8 1.7 1.4 2.8 1.9s2.2 0.7 3.5 0.7c1.2 0 2.3-0.2 3.4-0.7s2-1.1 2.8-1.9 1.4-1.7 1.9-2.8 0.7-2.2 0.7-3.4-0.2-2.3-0.7-3.4-1.1-2-1.9-2.8-1.7-1.4-2.8-1.9-2.2-0.7-3.4-0.7c-1.3 0-2.4 0.2-3.5 0.7s-2 1.1-2.8 1.9-1.4 1.7-1.8 2.7c-0.5 1.1-0.7 2.2-0.7 3.4z"/>
            <path id="path836" d="m386.6 7.1v27.6c3.2-3.4 7.2-5 12-5 2.9 0 5.5 0.5 7.8 1.6 2.4 1.1 4.4 2.5 6.1 4.4 1.7 1.8 3 4 3.9 6.5 1 2.5 1.4 5.1 1.4 7.9 0 2.9-0.5 5.5-1.5 8s-2.3 4.7-4.1 6.5c-1.8 1.9-3.8 3.3-6.2 4.4s-4.9 1.6-7.7 1.6c-5 0-9-1.8-11.9-5.5v4.3h-13.4v-62.3zm17.1 43.2c0-1.2-0.2-2.3-0.7-3.4s-1.1-2-1.9-2.8-1.7-1.4-2.8-1.9-2.2-0.7-3.5-0.7c-1.2 0-2.3 0.2-3.4 0.7s-2 1.1-2.7 1.9c-0.8 0.8-1.4 1.7-1.9 2.8s-0.7 2.2-0.7 3.4 0.2 2.3 0.7 3.4 1.1 2 1.9 2.7c0.8 0.8 1.7 1.4 2.8 1.9s2.2 0.7 3.4 0.7 2.3-0.2 3.4-0.7 2-1.1 2.7-1.9c0.8-0.8 1.4-1.7 1.9-2.8 0.6-1 0.8-2.1 0.8-3.3z"/>
        </g>
        <g id="g844">
            <path id="path840" d="m133.4 41.9c-1.2-2.5-2.8-4.7-4.8-6.5-2.1-1.8-4.5-3.3-7.4-4.3-2.8-1-5.9-1.5-9.2-1.5-3.4 0-6.4 0.5-9.3 1.6-2.8 1.1-5.3 2.5-7.3 4.3-2.1 1.8-3.7 4-4.8 6.5-1.2 2.5-1.7 5.1-1.7 8v0.5h14.3v-0.4c0-1.2 0.2-2.3 0.7-3.4s1.1-2 1.9-2.8 1.7-1.4 2.8-1.9 2.2-0.7 3.4-0.7 2.3 0.2 3.4 0.7 2 1.1 2.8 1.9 1.4 1.7 1.9 2.8 0.7 2.2 0.7 3.4c0 1.3-0.2 2.4-0.7 3.5s-1.1 2-1.9 2.8-1.7 1.4-2.8 1.9-2.2 0.7-3.4 0.7h-0.2v11.9c3.3 0 6.5-0.5 9.3-1.5 2.9-1 5.3-2.4 7.4-4.2s3.7-4 4.8-6.5c1.2-2.5 1.8-5.3 1.8-8.4s-0.6-5.9-1.7-8.4z"/>
            <path id="path842" d="m194.9 58.5c1.2 2.5 2.8 4.7 4.8 6.5 2.1 1.8 4.5 3.3 7.4 4.3 2.8 1 5.9 1.5 9.2 1.5 3.4 0 6.4-0.5 9.3-1.6 2.8-1.1 5.3-2.5 7.3-4.3 2.1-1.8 3.7-4 4.8-6.5 1.2-2.5 1.7-5.1 1.7-8v-0.5h-14.3v0.4c0 1.2-0.2 2.3-0.7 3.4s-1.1 2-1.9 2.8-1.7 1.4-2.8 1.9-2.2 0.7-3.4 0.7-2.3-0.2-3.4-0.7-2-1.1-2.8-1.9-1.4-1.7-1.9-2.8-0.7-2.2-0.7-3.4c0-1.3 0.2-2.4 0.7-3.5s1.1-2 1.9-2.8 1.7-1.4 2.8-1.9 2.2-0.7 3.4-0.7h0.2v-11.9c-3.3 0-6.5 0.5-9.3 1.5-2.9 1-5.3 2.4-7.4 4.2s-3.7 4-4.8 6.5c-1.2 2.5-1.8 5.3-1.8 8.4s0.6 5.9 1.7 8.4z"/>
        </g>
    </g>
</svg>
