<?xml version="1.0" encoding="UTF-8"?>
<svg id="svg10" width="2665.7" height="524.99" version="1.1" viewBox="0 0 2665.7 524.99" xmlns="http://www.w3.org/2000/svg">
 <path id="path1" d="m218.28 57.208c10.531 0 19.069-8.5376 19.069-19.069 0-10.532-8.538-19.069-19.069-19.069-10.532 0-19.07 8.5376-19.07 19.069 0 10.532 8.538 19.069 19.07 19.069zm0 19.069c21.063 0 38.138-17.075 38.138-38.138 0-0.8378-0.027-1.6693-0.08-2.4937 1.444-0.3516 3.015-0.7204 4.708-1.0998 10.546-2.3643 25.763-5.1301 44.262-6.681 37.041-3.1053 86.939-1.3149 138.83 18.046 51.599 19.253 86.86 51.406 109.26 78.832 11.197 13.708 19.143 26.191 24.268 35.198 0.478 0.841 0.932 1.652 1.361 2.429-7.735 6.98-12.596 17.084-12.596 28.322 0 3.25 0.407 6.405 1.172 9.417-9.84 1.915-21.449 2.084-34.513-1.417-18.871-5.057-31.285-15.225-39.32-25.015 9.374-6.948 15.449-18.093 15.449-30.657 0-21.064-17.075-38.139-38.139-38.139-21.063 0-38.138 17.075-38.138 38.139 0 9.054 3.155 17.371 8.426 23.912-6.332 13.745-10.682 31.848-7.461 53.768 3.885 26.443 16.724 44.397 28.848 55.774-0.789 3.056-1.209 6.261-1.209 9.564 0 21.063 17.076 38.138 38.139 38.138s38.138-17.075 38.138-38.138c0-21.064-17.075-38.139-38.138-38.139-10.64 0-20.261 4.357-27.179 11.383-8.598-9.102-16.953-22.44-19.732-41.354-2.32-15.784 0.198-28.967 4.358-39.401 4.32 1.698 9.025 2.631 13.948 2.631 1.427 0 2.836-0.078 4.223-0.231l0.052 0.073c9.817 13.613 26.334 29.02 52.8 36.111 18.967 5.083 35.644 3.911 49.206 0.307 6.92 7.044 16.554 11.413 27.209 11.413 21.063 0 38.138-17.076 38.138-38.139s-17.075-38.138-38.138-38.138c-2.971 0-5.863 0.34-8.639 0.982-0.53-0.965-1.093-1.974-1.691-3.024-5.561-9.775-14.095-23.167-26.073-37.832-23.95-29.322-61.824-63.911-117.36-84.635-55.249-20.616-108.13-22.448-147.09-19.183-19.499 1.6346-35.585 4.5528-46.841 7.0761-2.399 0.5378-4.58 1.058-6.529 1.5444-6.79-10.518-18.615-17.482-32.065-17.482-21.064 0-38.139 17.075-38.139 38.138 0 21.063 17.075 38.138 38.139 38.138zm265.25 81.186c-0.031-0.068-0.063-0.135-0.094-0.202-3.397 2.873-7.789 4.606-12.587 4.606-2.349 0-4.602-0.416-6.688-1.178l0.049 0.124c-7.137-2.758-12.199-9.685-12.199-17.794 0-10.532 8.538-19.07 19.069-19.07 10.532 0 19.07 8.538 19.07 19.07 0 5.773-2.566 10.947-6.62 14.444zm140.11 33.228c0 10.532-8.538 19.069-19.069 19.069-10.532 0-19.07-8.537-19.07-19.069 0-10.531 8.538-19.069 19.07-19.069 10.531 0 19.069 8.538 19.069 19.069zm-123.95 114.42c10.531 0 19.069-8.538 19.069-19.069 0-10.532-8.538-19.07-19.069-19.07-10.532 0-19.069 8.538-19.069 19.07 0 10.531 8.537 19.069 19.069 19.069zm-351.63-238.94c0.273 10.528-8.039 19.285-18.568 19.559-10.528 0.274-19.284-8.0384-19.558-18.566s8.039-19.285 18.566-19.559c10.528-0.274 19.285 8.0385 19.56 18.567zm19.062-0.4958c0.548 21.056-16.077 38.57-37.134 39.118-13.158 0.342-24.932-6.022-32.047-15.982-35.698 26.295-58.995 70.89-57.669 121.82l0.0016 0.051 2e-3 0.08 0.0013 0.043c19.64 1.075 35.477 17.082 35.997 37.089 0.3535 13.604-6.4609 25.73-17.008 32.756 24.195 43.183 68.76 71.081 117.95 69.802 2.195-0.057 4.378-0.172 6.548-0.343 1.8-18.925 17.49-33.959 36.975-34.466 21.055-0.548 38.569 16.078 39.117 37.134s-16.077 38.569-37.134 39.117c-15.995 0.416-29.946-9.078-35.969-22.897-2.989 0.265-6.004 0.438-9.042 0.517-58.248 1.516-109.76-32.035-136.71-82.596-0.6163 0.046-1.2364 0.077-1.8604 0.093-21.056 0.548-38.569-16.077-39.117-37.133-0.4004-15.377 8.3584-28.864 21.312-35.235-0.0537-1.169-0.0967-2.341-0.1269-3.516-1.5313-58.895 26.541-111.23 69.821-140.83-0.082-0.868-0.134-1.7449-0.158-2.6294-0.548-21.056 16.077-38.57 37.134-39.118 21.056-0.5478 38.569 16.077 39.117 37.134zm-116.22 197.39c-0.0185-0.048-0.0381-0.095-0.0566-0.143-3.4483 3.08-7.999 4.953-12.986 4.953-1.4541 0-2.8701-0.159-4.2333-0.461-8.1573-1.988-14.307-9.237-14.536-18.033-0.2734-10.528 8.0391-19.285 18.566-19.559 10.528-0.274 19.285 8.039 19.56 18.567 0.1504 5.806-2.3096 11.073-6.3135 14.676zm189.89 90.207c0.274 10.528-8.039 19.284-18.567 19.558s-19.284-8.038-19.559-18.566c-0.273-10.528 8.039-19.285 18.567-19.559s19.285 8.038 19.559 18.567zm39.603-219.78c10.531 0 19.07-8.537 19.07-19.069 0-10.531-8.539-19.069-19.07-19.069-10.532 0-19.069 8.538-19.069 19.069 0 10.532 8.537 19.069 19.069 19.069zm0 19.07c21.064 0 38.138-17.075 38.138-38.139 0-21.063-17.074-38.138-38.138-38.138-16.744 0-30.969 10.791-36.097 25.798-6.086 0.15-12.249 0.693-18.456 1.651-69.92 10.798-118.78 70.228-109.12 132.74 0.705 4.556 1.7 9.002 2.966 13.326-6.75 6.88-10.913 16.308-10.913 26.708 0 21.063 17.075 38.138 38.139 38.138 21.063 0 38.138-17.075 38.138-38.138s-17.075-38.138-38.138-38.138c-3.515 0-6.918 0.475-10.151 1.365-0.474-2.033-0.874-4.091-1.195-6.171-7.748-50.177 31.636-101.48 93.189-110.99 4.757-0.734 9.464-1.191 14.103-1.385 3.195 17.833 18.786 31.367 37.539 31.367zm-133.48 143.02c10.531 0 19.069-8.537 19.069-19.069s-8.538-19.069-19.069-19.069c-10.532 0-19.069 8.537-19.069 19.069s8.537 19.069 19.069 19.069zm457.67 9.535c10.531 0 19.069-8.538 19.069-19.069 0-10.532-8.538-19.07-19.069-19.07-10.532 0-19.07 8.538-19.07 19.07 0 10.531 8.538 19.069 19.07 19.069zm0.375 19.067c20.89-0.201 37.763-17.198 37.763-38.136 0-21.064-17.075-38.139-38.138-38.139-21.064 0-38.139 17.075-38.139 38.139 0 14.189 7.749 26.568 19.246 33.137-3.872 10.664-10.728 22.207-22.691 32.64-9.239 8.058-18.721 13.007-27.669 15.943-5.485-14.334-19.37-24.512-35.632-24.512-21.063 0-38.139 17.076-38.139 38.139s17.076 38.138 38.139 38.138c18.847 0 34.501-13.671 37.586-31.637 12.437-3.452 25.849-9.865 38.754-21.12 15.502-13.519 24.183-28.713 28.92-42.592zm-105.26 76.28c10.531 0 19.069-8.538 19.069-19.069 0-10.532-8.538-19.069-19.069-19.069-10.532 0-19.069 8.537-19.069 19.069 0 10.531 8.537 19.069 19.069 19.069zm-100.25-295.57c0 10.532-8.538 19.069-19.07 19.069-10.531 0-19.069-8.537-19.069-19.069 0-10.531 8.538-19.069 19.069-19.069 10.532 0 19.07 8.538 19.07 19.069zm19.069 0c0 19.109-14.053 34.935-32.388 37.708-9.611 12.538-18.825 31.047-18.917 56.257 0.16 3.628 0.492 7.393 1.022 11.297 1.664 12.257 4.846 22.686 8.768 31.491 1.533 3.04 3.179 5.876 4.888 8.511 4.036-1.454 8.388-2.246 12.925-2.246 21.063 0 38.138 17.075 38.138 38.139 0 21.063-17.075 38.138-38.138 38.138s-38.138-17.075-38.138-38.138c0-9.211 3.264-17.658 8.7-24.249-2.572-4.652-5.003-9.739-7.187-15.284-5.757-12.574-9.826-27.799-10.039-45.815-0.016-1.328-0.01-2.641 0.016-3.94-0.132-4.333-0.067-8.511 0.167-12.533-8.39 6.733-18.447 13.141-30.477 18.654-15.085 6.915-29.211 10.562-41.919 12.129 5.514 4.904 10.852 10.772 15.775 17.787 3.554 5.063 6.473 10.126 8.852 15.128 20.556 0.58 37.042 17.426 37.042 38.123 0 16.874-10.959 31.188-26.147 36.215 3.548 10.359 9.853 21.534 20.801 31.897 8.537 8.081 17.414 13.316 25.907 16.639 4.591-15.908 19.26-27.543 36.647-27.543 21.063 0 38.138 17.076 38.138 38.139 0 5.904-1.341 11.496-3.737 16.485 6.482 10.145 11.839 22.733 14.299 38.137 4.494 28.148-3.131 50.374-11.896 65.475-4.363 7.517-9.011 13.285-12.605 17.206-1.8 1.965-3.348 3.48-4.481 4.532-0.567 0.526-1.031 0.938-1.373 1.234-0.171 0.148-0.312 0.267-0.419 0.357l-0.136 0.113-0.049 0.04-0.02 0.016-8e-3 7e-3c-4e-3 3e-3 -8e-3 6e-3 -6.258-7.696-6.249-7.703-6.253-7.7-6.256-7.698l0.162-0.139c0.175-0.151 0.467-0.409 0.857-0.771 0.781-0.725 1.949-1.863 3.356-3.398 2.822-3.08 6.558-7.706 10.073-13.761 6.99-12.044 13.089-29.678 9.462-52.389-1.598-10.006-4.683-18.488-8.523-25.639-5.939 3.815-13.004 6.027-20.586 6.027-17.473 0-32.202-11.75-36.715-27.78-12.744-3.858-26.494-10.897-39.477-23.186-15.503-14.674-23.591-30.851-27.616-45.323-16.991-3.849-29.677-19.041-29.677-37.196 0-14.279 7.846-26.724 19.462-33.261-1.534-2.847-3.297-5.716-5.316-8.593-5.457-7.775-11.502-13.772-17.663-18.401-6.053 13.06-19.279 22.118-34.62 22.118-21.063 0-38.139-17.075-38.139-38.138 0-21.064 17.076-38.139 38.139-38.139 16.239 0 30.108 10.15 35.609 24.452 13.917 0.74 31.416-1.333 51.178-10.391 23.842-10.928 37.832-25.997 46.008-38.672 1.302-3.522 2.696-6.795 4.128-9.815-10.738-6.747-17.876-18.698-17.876-32.317 0-21.063 17.075-38.138 38.138-38.138 21.064 0 38.139 17.075 38.139 38.138zm-4.633 181.16c0 10.531-8.537 19.069-19.069 19.069s-19.069-8.538-19.069-19.069c0-10.532 8.537-19.07 19.069-19.07s19.069 8.538 19.069 19.07zm-171.62-76.275c0 1.777-0.243 3.497-0.698 5.129-0.136 0.463-0.29 0.919-0.459 1.367l0.019 8e-3c-2.659 7.329-9.684 12.565-17.931 12.565-10.532 0-19.069-8.538-19.069-19.069 0-10.532 8.537-19.07 19.069-19.07s19.069 8.538 19.069 19.07zm45.61 61.222-0.019-0.072c-4.533 3.486-7.454 8.964-7.454 15.125 0 10.531 8.538 19.069 19.069 19.069 10.532 0 19.07-8.538 19.07-19.069 0-10.532-8.538-19.07-19.07-19.07-1.933 0-3.799 0.288-5.557 0.823-2.211 0.707-4.25 1.798-6.039 3.194zm106.94 129.47c10.532 0 19.069-8.538 19.069-19.069 0-10.532-8.537-19.069-19.069-19.069s-19.069 8.537-19.069 19.069c0 10.531 8.537 19.069 19.069 19.069z" clip-rule="evenodd" fill="#480074" fill-rule="evenodd"/>
 <path id="path2" d="m837.43 199.52v171.12h-37.723v-173.05c0-28.2 15.984-47.107 49.551-47.107 30.05 0 43.477 15.382 52.428 40.057l62.979 138.12c2.557 5.127 6.713 8.972 13.746 8.972 7.994 0 12.784-4.807 12.784-12.177v-171.12h38.05v172.73c0 28.521-16.31 47.428-49.555 47.428-30.051 0-43.797-15.382-52.748-40.057l-62.979-138.12c-2.877-6.409-6.713-9.293-13.426-9.293-8.632 0-13.107 4.807-13.107 12.498z" fill="#480074"/>
 <path id="path3" d="m1157.4 196.64-68.41 174.01h-41.56l75.77-192.28c7.99-20.189 22.69-27.88 45.39-27.88 22.38 0 37.09 7.691 44.76 27.88l72.89 192.28h-41.88l-65.54-174.01c-1.92-5.127-5.43-7.371-10.55-7.371-5.11 0-8.63 2.244-10.87 7.371z" fill="#480074"/>
 <path id="path4" d="m1304.2 154.34h38.36v144.53c0 21.471 10.87 33.968 35.8 33.968h38.37c24.29 0 35.48-12.497 35.48-33.968v-144.53h37.08v147.41c0 45.505-23.97 68.899-70.01 68.899h-45.39c-46.04 0-69.69-23.394-69.69-68.899z" fill="#480074"/>
 <path id="path5" d="m1629.4 154.34h83.44v37.814h-83.44c-41.56 0-59.78 20.829-59.78 70.5 0 49.351 17.9 70.18 59.78 70.18h83.44v37.815h-83.44c-62.98 0-97.5-35.571-97.5-108 0-72.744 34.84-108.31 97.5-108.31z" fill="#480074"/>
 <path id="path6" d="m1795.2 199.52v171.12h-37.72v-173.05c0-28.2 15.67-47.107 47.95-47.107 28.78 0 42.52 15.382 50.51 40.057l52.43 138.12c2.24 5.447 6.4 8.972 12.15 8.972 6.39 0 11.19-4.807 11.19-12.177v-127.86c0-28.2 15.66-47.107 47.63-47.107 28.77 0 42.52 15.382 51.15 40.057l66.82 180.1h-40.6l-64.26-174.33c-2.24-5.447-6.39-9.293-12.15-9.293-6.39 0-10.87 4.807-10.87 12.498v127.54c0 28.521-16.3 47.428-47.95 47.428-28.45 0-42.52-15.382-50.83-40.057l-52.43-138.12c-2.24-5.447-6.39-9.293-11.83-9.293-6.71 0-11.19 4.807-11.19 12.498z" fill="#480074"/>
 <path id="path7" d="m2193.9 154.34h108.05v37.814h-108.05c-22.7 0-32.61 10.575-32.61 27.238 0 17.626 11.19 25.637 32.93 25.637h106.14v34.289h-107.1c-21.74 0-32.93 8.652-32.93 26.278 0 16.984 10.55 27.238 32.61 27.238h109.33v37.815h-109.33c-51.15 0-71.93-25.317-71.93-58.965 0-24.675 11.19-41.339 31.01-49.671-20.14-8.332-30.37-24.995-30.37-48.709 0-34.61 21.42-58.964 72.25-58.964z" fill="#480074"/>
 <path id="path8" d="m2345.6 327.07h36.44v43.583h-36.44z" fill="#480074"/>
 <path id="path9" d="m2428.7 154.34h37.73v216.31h-37.73z" fill="#480074"/>
 <path id="path10" d="m2501.7 154.34h164v37.814h-62.98v178.5h-38.04v-178.5h-62.98z" fill="#480074"/>
</svg>
