<?xml version="1.0" encoding="UTF-8"?>
<svg width="466" height="353" viewBox="0 0 466 353" xmlns="http://www.w3.org/2000/svg">
 <path d="m135.31 40.117c0 7.0078 2.187 12.75 6.562 17.227 4.375 4.4765 9.715 6.7187 16.024 6.7187 6.406 0 11.769-2.2656 16.097-6.793 4.328-4.5273 6.488-10.242 6.488-17.152 0-6.961-2.199-12.688-6.597-17.191-4.403-4.5039-9.731-6.7539-15.988-6.7539-6.551 0-11.954 2.3008-16.207 6.8984-4.254 4.6016-6.379 10.285-6.379 17.047zm-14.743 0.0351c0-10.949 3.618-19.934 10.856-26.949 7.234-7.0156 16.058-10.523 26.473-10.523 10.218 0 18.996 3.457 26.328 10.375 7.332 6.918 11 15.953 11 27.098 0 11.148-3.657 20.195-10.965 27.137-7.309 6.9414-16.094 10.414-26.363 10.414-10.559 0-19.422-3.5234-26.586-10.562-7.161-7.039-10.743-16.035-10.743-26.988z" fill="#D34822"/>
 <path d="m226.64 41.18c0 3.9101 0.804 7.6523 2.421 11.223 1.61 3.5664 4.18 6.5625 7.7 8.9805 3.519 2.4219 7.648 3.6328 12.394 3.6328 6.649 0 12.137-2.2265 16.465-6.6758 4.324-4.4492 6.488-10.559 6.488-18.332 0-7.5781-2.261-13.496-6.785-17.75-4.523-4.2539-9.668-6.3789-15.437-6.3789-6.157 0-11.575 2.3086-16.243 6.9297s-7.003 10.742-7.003 18.371zm-13.715 59.98v-84.109h-11.953v-12.391h25.886v11.145c6.942-8.1641 15.352-12.246 25.231-12.246 9.972 0 18.222 3.4219 24.75 10.266 6.527 6.8477 9.789 15.746 9.789 26.695 0 11.488-3.543 20.559-10.633 27.207-7.09 6.6523-15.156 9.9765-24.199 9.9765-9.387 0-17.703-3.6211-24.938-10.855v34.312h13.789v12.395h-40.703v-12.395h12.981z" fill="#D34822"/>
 <path d="m357.57 33.551c-0.98-4.9844-3.57-9.4961-7.773-13.527-4.207-4.0351-9.363-6.0507-15.473-6.0507-5.574 0-10.343 1.8203-14.3 5.4648-3.965 3.6406-6.383 8.3477-7.262 14.113h44.808zm14.375 10.121h-59.699c0.883 6.5547 3.473 11.859 7.778 15.914 4.3 4.0586 9.8 6.0899 16.5 6.0899 9.726 0 17.429-3.9102 23.097-11.734l12.324 5.4258c-4.011 6.2109-9.218 10.816-15.621 13.824-6.406 3.0078-13.105 4.5117-20.097 4.5117-10.852 0-20.129-3.3867-27.828-10.16-7.704-6.7696-11.551-15.898-11.551-27.391 0-10.902 3.75-19.875 11.258-26.914 7.503-7.0391 16.121-10.563 25.847-10.563 9.535 0 18.176 3.4375 25.926 10.305 7.75 6.8711 11.773 17.102 12.066 30.691z" fill="#D34822"/>
 <path d="m410.46 4.6562v8.582c8.945-6.4531 17.109-9.6797 24.492-9.6797 4.598 0 8.399 1.0859 11.406 3.2617 3.008 2.1758 4.973 4.8399 5.903 7.9961 0.929 3.1524 1.394 7.7617 1.394 13.824v34.613h11.953v12.394h-25.886v-46.422c0-5.3789-0.809-8.8868-2.422-10.524-1.613-1.6406-3.594-2.457-5.938-2.457-6.164 0-13.129 3.0078-20.902 9.0195v37.988h12.246v12.394h-38.648v-12.394h12.468v-46.203h-12.468v-12.395h26.402z" fill="#D34822"/>
 <path d="m134.94 170.98c0 7.188 2.09 13.051 6.27 17.602 4.18 4.543 9.519 6.82 16.023 6.82 6.356 0 11.832-2.285 16.426-6.859 4.598-4.57 6.895-10.449 6.895-17.637 0-7.285-2.297-13.14-6.895-17.566-4.594-4.422-9.926-6.637-15.984-6.637-6.067 0-11.367 2.188-15.914 6.567-4.547 4.375-6.821 10.277-6.821 17.71zm72.09-36.23v12.395h-12.761v52.875c0 7.14-0.368 12.433-1.102 15.878-0.731 3.446-2.504 6.969-5.316 10.559-2.813 3.594-7.028 6.613-12.649 9.059-5.625 2.445-11.906 3.668-18.848 3.668-10.464 0-19.8-3.157-28.015-9.461l9.094-10.121c6.16 4.789 12.859 7.187 20.093 7.187 4.008 0 7.727-0.769 11.149-2.312 3.422-1.54 5.976-3.407 7.664-5.61 1.687-2.199 2.773-4.289 3.262-6.269 0.488-1.981 0.734-5.317 0.734-10.012v-6.453c-2.199 2.789-5.649 5.426-10.34 7.922-4.695 2.492-9.828 3.738-15.402 3.738-10.168 0-18.457-3.52-24.86-10.559-6.406-7.039-9.609-15.695-9.609-25.961 0-11.246 3.531-20.328 10.598-27.246 7.066-6.918 15.242-10.375 24.531-10.375 9.387 0 17.75 3.739 25.082 11.219v-10.121h26.695z" fill="#45A798"/>
 <path d="m273.03 164.53c-0.98-4.988-3.57-9.5-7.773-13.531-4.207-4.035-9.363-6.051-15.477-6.051-5.57 0-10.34 1.821-14.297 5.465-3.96 3.641-6.382 8.348-7.261 14.117h44.808zm14.375 10.118h-59.699c0.883 6.554 3.473 11.859 7.777 15.914 4.301 4.058 9.801 6.089 16.5 6.089 9.727 0 17.43-3.91 23.098-11.734l12.324 5.426c-4.011 6.211-9.218 10.816-15.621 13.824-6.406 3.008-13.105 4.512-20.093 4.512-10.856 0-20.133-3.387-27.833-10.16-7.703-6.77-11.55-15.899-11.55-27.391 0-10.902 3.75-19.875 11.257-26.914 7.504-7.039 16.122-10.559 25.848-10.559 9.535 0 18.176 3.434 25.926 10.301 7.75 6.871 11.773 17.102 12.066 30.692z" fill="#45A798"/>
 <path d="m314.86 171.09c0 7.008 2.188 12.75 6.563 17.226 4.375 4.481 9.719 6.719 16.027 6.719 6.402 0 11.77-2.265 16.098-6.793 4.324-4.527 6.488-10.242 6.488-17.152 0-6.957-2.199-12.688-6.601-17.192-4.399-4.503-9.727-6.753-15.985-6.753-6.555 0-11.957 2.3-16.211 6.902-4.254 4.598-6.379 10.281-6.379 17.043zm-14.742 0.035c0-10.949 3.621-19.934 10.856-26.949 7.234-7.016 16.062-10.524 26.476-10.524 10.215 0 18.992 3.457 26.324 10.375 7.336 6.918 11.004 15.95 11.004 27.098s-3.656 20.195-10.965 27.137c-7.308 6.941-16.097 10.414-26.363 10.414-10.562 0-19.426-3.52-26.586-10.563-7.164-7.039-10.746-16.035-10.746-26.988z" fill="#45A798"/>
 <path d="m133.18 338.85v-77.223h-12.614v-12.395h26.547v89.618h10.856v12.394h-37.403v-12.394h12.614z" fill="#A68018"/>
 <path d="m213.06 324.84c-6.012-4.692-12.098-7.039-18.258-7.039-3.863 0-7.09 1.125-9.684 3.371-2.59 2.25-3.886 5.16-3.886 8.73 0 3.324 1.136 6.11 3.41 8.36 2.273 2.25 5.367 3.371 9.277 3.371 6.746 0 13.129-2.832 19.141-8.504v-8.289zm25.742 14.008v12.394h-24.348v-8.656c-6.746 6.555-14.277 9.828-22.59 9.828-6.453 0-12.062-2.102-16.828-6.305-4.765-4.207-7.152-9.582-7.152-16.136 0-6.598 2.531-12.075 7.594-16.426 5.058-4.352 11.156-6.528 18.297-6.528 6.648 0 13.078 2.004 19.285 6.012v-7.039c0-3.617-0.34-6.406-1.028-8.359-0.683-1.957-2.285-3.715-4.8-5.282-2.52-1.562-5.805-2.347-9.864-2.347-6.992 0-12.054 2.789-15.183 8.359l-13.348-3.519c5.918-11.047 16.137-16.575 30.656-16.575 5.328 0 9.938 0.723 13.824 2.165 3.887 1.445 6.786 3.3 8.692 5.574 1.906 2.273 3.187 4.73 3.848 7.371 0.664 2.64 0.992 6.844 0.992 12.613v32.856h11.953z" fill="#A68018"/>
 <path d="m273.83 315.9c0 7.379 2.262 13.235 6.785 17.563 4.524 4.328 9.742 6.488 15.657 6.488 6.21 0 11.562-2.297 16.062-6.89 4.496-4.594 6.746-10.758 6.746-18.481 0-7.48-2.238-13.285-6.711-17.418-4.472-4.133-9.719-6.199-15.73-6.199-5.918 0-11.196 2.141-15.84 6.418-4.645 4.277-6.969 10.449-6.969 18.519zm-26.695 35.348v-12.394h12.617v-77.223h-12.617v-12.395h26.258v41.067c6.988-8.016 15.57-12.028 25.738-12.028 9.777 0 17.98 3.364 24.605 10.086 6.625 6.723 9.938 15.582 9.938 26.586 0 10.559-3.238 19.446-9.719 26.657-6.476 7.21-14.777 10.816-24.894 10.816-5.672 0-10.856-1.223-15.551-3.664-4.692-2.445-8.067-5.16-10.117-8.141v10.633h-26.258z" fill="#A68018"/>
 <path d="m344.12 351.25v-24.348h12.469v2.348c0.437 3.324 2.234 6.063 5.387 8.211 3.156 2.152 6.882 3.227 11.187 3.227 4.496 0 8.09-0.782 10.777-2.344 2.692-1.567 4.036-3.742 4.036-6.528 0-2.691-1.114-4.671-3.336-5.941-2.227-1.269-6.641-2.441-13.243-3.512-9.777-1.648-16.757-4.324-20.937-8.015-4.176-3.696-6.266-8.477-6.266-14.348 0-5.918 2.274-10.871 6.821-14.859 4.546-3.989 10.535-5.981 17.964-5.981 6.7 0 12.469 1.379 17.309 4.137v-3.039h12.395v23.543h-12.395v-4.328c-3.766-5.817-9.238-8.727-16.426-8.727-3.668 0-6.687 0.793-9.058 2.383s-3.555 3.703-3.555 6.344c0 2.691 1.086 4.535 3.262 5.539 2.175 1 6.859 2.062 14.047 3.18 6.89 1.074 12.101 2.328 15.617 3.773 3.523 1.441 6.445 3.836 8.765 7.187 2.321 3.352 3.481 7.25 3.481 11.7 0 6.605-2.527 11.851-7.59 15.738-5.059 3.891-11.621 5.832-19.691 5.832-7.579 0-13.762-1.723-18.551-5.164v3.992h-12.469z" fill="#A68018"/>
 <path d="M0 0L80.3711 33.7578L80.3789 46.7109L0 80.3789V67.5156L66.8164 40.2656L0 12.8633V0Z" fill="#D34822"/>
</svg>
