<?xml version="1.0" encoding="UTF-8"?>
<!-- Created with Inkscape (http://www.inkscape.org/) -->
<svg id="svg115845" width="662.85" height="94.146" version="1.0" xmlns="http://www.w3.org/2000/svg">
 <g id="layer1" transform="translate(-702.65 -712.58)">
  <g id="g16337" fill="#f80000">
   <path id="path16197" d="m980.65 771.7h40.652l-21.495-34.583-39.451 62.527h-17.955l47.986-75.108c2.0864-3.0347 5.5635-4.8681 9.4203-4.8681 3.7299 0 7.2071 1.7702 9.2303 4.7417l48.176 75.235h-17.955l-8.4719-13.972h-41.158l-8.9775-13.972zm186.51 13.972v-65.246h-15.237v71.631c0 1.9599 0.7588 3.8566 2.2128 5.3106 1.4539 1.4542 3.4139 2.276 5.5635 2.276h69.482l8.9775-13.972h-70.999zm-252.07-11.696c14.794 0 26.807-11.949 26.807-26.743 0-14.794-12.012-26.806-26.807-26.806h-66.656v79.218h15.231v-65.246h50.414c7.0812 0 12.771 5.7532 12.771 12.834 0 7.0809-5.6899 12.834-12.771 12.834l-42.953-0.06325 45.482 39.64h22.128l-30.6-25.668h6.9543zm-160.41 25.668c-21.869 0-39.616-17.702-39.616-39.577 0-21.875 17.747-39.64 39.616-39.64h46.045c21.875 0 39.609 17.765 39.609 39.64 0 21.875-17.734 39.577-39.609 39.577h-46.045zm45.02-13.972c14.168 0 25.643-11.443 25.643-25.605 0-14.162-11.475-25.668-25.643-25.668h-44.003c-14.162 0-25.643 11.506-25.643 25.668 0 14.162 11.481 25.605 25.643 25.605h44.003zm289.32 13.972c-21.875 0-39.64-17.702-39.64-39.577 0-21.875 17.765-39.64 39.64-39.64h54.687l-8.9143 13.972h-44.762c-14.162 0-25.668 11.506-25.668 25.668 0 14.162 11.506 25.605 25.668 25.605h54.94l-8.9774 13.972h-46.974zm186.32-13.972c-11.696 0-21.622-7.8396-24.657-18.651h65.119l8.9775-13.972h-74.097c3.0348-10.748 12.961-18.651 24.657-18.651h44.698l9.0407-13.972h-54.751c-21.875 0-39.64 17.765-39.64 39.64 0 21.875 17.765 39.577 39.64 39.577h46.974l8.9774-13.972h-54.94"/>
   <path id="path16199" d="m1337.2 728.84c0-3.8566 3.0975-6.9545 6.9543-6.9545 3.92 0 7.0175 3.0979 7.0175 6.9545 0 3.9197-3.0975 7.0177-7.0175 7.0177-3.8568 0-6.9543-3.0979-6.9543-7.0177zm6.9543 8.9776c4.9311 0 8.9143-3.983 8.9143-8.9144s-3.9832-8.9143-8.9143-8.9143c-4.8684 0-8.8511 3.983-8.8511 8.9143s3.9827 8.9144 8.8511 8.9144zm-0.822-14.225c1.3908 0 1.96 0.06319 2.5924 0.31606 1.77 0.56905 1.9595 2.1496 1.9595 2.7818 0 0.12644 0 0.44255-0.1264 0.82186-0.0631 0.37937-0.3159 1.138-1.2011 1.707-0.1264 0.06324-0.1896 0.12644-0.4424 0.25287l2.276 4.1095h-2.2128l-2.0232-3.7934h-1.3907v3.7934h-1.96v-9.9891h2.5287zm0.6956 4.552c0.632-0.06319 1.2644-0.06319 1.6436-0.63224 0.1895-0.25287 0.2532-0.50574 0.2532-0.88511 0-0.50574-0.3164-0.9483-0.7588-1.2012-0.4428-0.18963-0.8852-0.18963-1.8336-0.18963h-0.5687v2.9082h1.2643"/>
  </g>
 </g>
</svg>
