<?xml version="1.0" encoding="UTF-8"?>
<!-- Generator: Adobe Illustrator 24.3.0, SVG Export Plug-In . SVG Version: 6.00 Build 0)  -->
<svg id="Vrstva_1" width="344.4" height="89.54" version="1.1" viewBox="0 0 344.4 89.54" xml:space="preserve" xmlns="http://www.w3.org/2000/svg">
<style id="style9" type="text/css">
	.st0{fill:#1A1A18;}
	.st1{fill:#462482;}
	.st2{fill:#FFFFFF;}
</style>
<g id="g41" transform="translate(-248.74,-252.87)">
	<g id="g27">
		<path id="path11" class="st0" d="m386.11 282.96h8.79l0.77 3.35h0.28c2.65-2.44 6.14-4.19 9.7-4.19 8.37 0 13.53 6.91 13.53 17.58 0 11.93-7.04 18.77-14.51 18.77-3 0-5.72-1.25-8.16-3.56l0.35 5.37v10.05h-10.74v-47.37zm21.98 16.89c0-6.07-1.81-8.93-5.65-8.93-2.02 0-3.7 0.91-5.58 2.93v13.74c1.74 1.53 3.56 2.02 5.23 2.02 3.35 0 6-2.72 6-9.76z"/>
		<path id="path13" class="st0" d="m421.63 272.5c0-3.35 2.51-5.51 6.07-5.51s6.07 2.16 6.07 5.51c0 3.42-2.51 5.58-6.07 5.58s-6.07-2.16-6.07-5.58zm0.7 10.46h10.74v34.67h-10.74z"/>
		<path id="path15" class="st0" d="m437.81 282.96h8.79l0.77 3.35h0.28c2.65-2.44 6.14-4.19 9.7-4.19 8.37 0 13.54 6.91 13.54 17.58 0 11.93-7.05 18.77-14.51 18.77-3 0-5.72-1.25-8.16-3.56l0.35 5.37v10.05h-10.74v-47.37zm21.98 16.89c0-6.07-1.81-8.93-5.65-8.93-2.02 0-3.7 0.91-5.58 2.93v13.74c1.74 1.53 3.56 2.02 5.23 2.02 3.34 0 6-2.72 6-9.76z"/>
		<path id="path17" class="st0" d="m472.14 300.27c0-11.23 8.09-18.14 16.4-18.14 10.05 0 14.93 7.26 14.93 16.68 0 1.95-0.21 3.77-0.42 4.74h-20.44c0.98 4.68 4.26 6.7 8.65 6.7 2.51 0 5.02-0.77 7.46-2.16l3.49 6.49c-3.63 2.58-8.37 3.91-12.49 3.91-9.9-0.02-17.58-6.64-17.58-18.22zm22.12-3.98c0-3.42-1.53-6-5.44-6-3.07 0-5.65 1.95-6.35 6z"/>
		<path id="path19" class="st0" d="m508.14 304.8v-13.39h-4.67v-8.09l5.3-0.35 1.26-10.6h8.93v10.6h8.16v8.44h-8.16v13.25c0 3.91 1.81 5.37 4.39 5.37 1.12 0 2.3-0.14 3.21-0.49l1.67 7.53c-1.81 0.7-4.46 1.4-7.88 1.4-8.65 0-12.21-5.51-12.21-13.67z"/>
		<path id="path21" class="st0" d="m528.08 307.94c0-7.33 5.65-11.3 19.32-12.7-0.28-2.86-1.74-4.54-5.3-4.54-2.79 0-5.58 0.98-9.07 2.93l-3.77-6.98c4.54-2.79 9.49-4.54 14.93-4.54 8.93 0 13.95 4.95 13.95 15.84v19.67h-8.79l-0.77-3.49h-0.28c-2.86 2.58-6 4.33-9.91 4.33-6.33 0.01-10.31-4.73-10.31-10.52zm19.33-0.56v-5.51c-6.91 0.91-9 2.79-9 5.23 0 2.02 1.33 3 3.7 3 2.16 0 3.62-1.04 5.3-2.72z"/>
		<path id="path23" class="st0" d="m561.84 272.5c0-3.35 2.51-5.51 6.07-5.51s6.07 2.16 6.07 5.51c0 3.42-2.51 5.58-6.07 5.58s-6.07-2.16-6.07-5.58zm0.7 10.46h10.74v34.67h-10.74z"/>
		<path id="path25" class="st0" d="m577.94 306.4v-37.53h10.74v37.95c0 2.23 1.12 2.93 1.95 2.93 0.42 0 0.7 0 1.25-0.14l1.26 7.95c-1.19 0.49-3 0.91-5.37 0.91-7.39 0-9.83-4.81-9.83-12.07z"/>
	</g>
	<g id="g39">
		<path id="path29" class="st1" d="m276.03 252.87h-19.19c-4.47 0-8.1 3.63-8.1 8.1v73.34c0 4.47 3.63 8.1 8.1 8.1h106.51v-89.54z"/>
		<g id="g37">
			<g id="g33">
				<path id="path31" class="st2" d="m322.08 330.85-13.87-13.23 0.01-19.81h25.56c3.06 0 4.6-1.6 4.6-4.81v-2.27h-30.16v-11.75h43.96v18.3c0 1.96-0.29 3.7-0.89 5.21-0.59 1.51-1.43 2.79-2.53 3.84s-2.39 1.85-3.88 2.4c-1.49 0.56-3.11 0.83-4.86 0.83h-17.94z"/>
			</g>
			<rect id="rect35" class="st2" x="286.42" y="278.98" width="18.33" height="11.75"/>
		</g>
	</g>
</g>
</svg>
