<?xml version="1.0" encoding="UTF-8"?>
<svg id="svg4" width="2960" height="894.16" version="1.2" viewBox="0 0 2960 894.16" xml:space="preserve" xmlns="http://www.w3.org/2000/svg">
  <path id="path1" d="m1211.2 0h44.151v152.39c0 148.69 0.7339 152.27 1.353 156.16 3.118 19.611 27.524 16.605 41.729 16.734 12.889 0.0712 23.784-0.0712 24.069-0.35605 0.2849-0.28484-1.709-4.4151-4.4863-9.115-3.308-5.5982-17.524-30.284-24.924-53.052-15.108-37.958-4.6368-113.99-1.7802-130.32 4.3723-24.985 17.847-76.441 56.968-104.61 21.083-15.92 48.116-24.948 81.18-27.202 6.765-0.49847 18.016-0.6409 27.772-0.35605 31.581 0.43505 63.432 7.6356 89.725 25.707 41.656 29.562 56.716 79.837 62.594 128.18 7.7583 74.674-0.2466 96.985-8.9726 119.99-15.538 39.184-41.655 74.854-75.626 119.63-3.062 4.1302-6.0529 8.4741-6.5513 9.6134-0.4273 1.1394-0.6409 3.1333-0.4273 4.2726s1.6378 3.3469 3.1333 4.7711c1.4954 1.4954 4.2014 3.4893 6.0529 4.4151 1.9227 0.92574 6.6226 2.8484 10.539 4.2014 3.9166 1.353 11.251 3.4181 16.378 4.6999 25.48 5.7642 50.988 11.421 76.551 16.806 6.4802 1.353 14.456 3.3469 17.803 4.4863s8.6165 3.2757 11.75 4.6999c29.491 13.156 51.934 37.365 57.04 69.858 0.7833 5.6256 0.9969 14.028 0.6409 73.205l-10.682 3.8454c-54.207 19.593-168.08 42.94-258.49 42.94-93.698 0-208.47-24.907-257.43-42.655-5.6968-1.9939-10.753-3.8454-11.251-3.9878-1.0372-0.46098-1.0595-66.845 0.8546-76.551 0.6409-3.3469 1.9939-8.4741 2.9908-11.394 13.96-40.883 53.859-56.196 64.73-59.675 12.64-4.3852 93.026-20.231 109.31-25.565 4.1538-1.3607 15.226-5.2997 19.013-9.7559 1.2818-1.4242 2.5636-3.4181 2.7772-4.5575 0.2849-1.0682 0.2137-2.706-0.1424-3.703-0.4272-0.99694-6.2665-9.1862-25.565-34.751l-42.014-0.28484c-40.804-0.28484-42.228-0.35605-48.067-1.9227-34.493-6.3636-52.226-27.178-52.269-58.108zm-1211.2 890.38h35.696v-69.228h42.186c34.614 0 60.575-22.716 60.575-58.141v-3.786c0-35.425-24.879-58.141-60.575-58.141h-77.882zm35.696-101.68v-55.166h38.67c17.037 0 28.394 10.006 28.394 26.231v2.7042c0 16.225-11.628 26.231-28.394 26.231zm130.8 101.68h35.696v-71.392h49.758c10.547 0 14.603 5.9492 14.603 14.603v56.789h35.696v-61.927c0-15.144-8.3832-24.879-22.716-25.69v-4.8676c15.955-6.4902 28.124-20.282 28.124-42.997v-3.245c0-30.558-23.527-50.569-58.952-50.569h-82.208zm35.696-103.84v-53.003h42.727c17.307 0 27.042 10.006 27.042 25.149v2.7042c0 15.144-10.276 25.149-27.042 25.149zm122.09 103.84h36.777l10.276-41.645h67.606l10.276 41.645h36.778l-49.758-189.3h-62.197zm55.437-74.637 22.986-92.214h4.8676l22.986 92.214zm130.29 74.637h35.696v-78.693h70.31v78.693h35.696v-189.3h-35.696v78.152h-70.31v-78.152h-35.696zm164.06 0h36.778l10.276-41.645h67.606l10.276 41.645h36.778l-49.758-189.3h-62.197zm55.437-74.637 22.986-92.214h4.8676l22.986 92.214zm1853.9 46.513c-26.502 0-42.186-16.766-42.186-42.727v-47.594c0-25.961 15.684-42.727 42.186-42.727s42.186 16.766 42.186 42.727v47.594c0 25.961-15.684 42.727-42.186 42.727zm0 31.91c47.594 0 77.882-27.042 77.882-75.718v-45.431c0-48.676-30.287-75.718-77.882-75.718s-77.882 27.042-77.882 75.718v45.431c0 48.676 30.287 75.718 77.882 75.718zm185.29-31.91c-26.502 0-42.186-16.766-42.186-42.727v-47.594c0-25.961 15.684-42.727 42.186-42.727 26.501 0 42.186 16.766 42.186 42.727v47.594c0 25.961-15.685 42.727-42.186 42.727zm0 31.91c47.594 0 77.882-27.042 77.882-75.718v-45.431c0-48.676-30.287-75.718-77.882-75.718s-77.882 27.042-77.882 75.718v45.431c0 48.676 30.287 75.718 77.882 75.718zm-723.46 0c43.809 0 71.662-23.797 71.662-58.411 0-34.614-26.772-48.676-67.065-57.33l-6.2197-1.3521c-22.716-4.8676-33.262-11.628-33.262-25.69 0-14.062 10.006-22.716 31.639-22.716s34.885 8.6535 34.885 30.287v8.1127h35.155v-8.1127c0-41.104-29.476-61.656-70.04-61.656s-66.794 20.552-66.794 55.166c0 34.614 22.986 47.865 62.197 56.518l6.2198 1.3521c24.338 5.4084 38.13 10.817 38.13 26.501 0 15.144-12.169 25.961-36.507 25.961-24.338 0-39.211-11.358-39.211-34.073v-7.5718h-35.155v7.5718c0 41.104 30.558 65.442 74.366 65.442zm175.06 0c46.513 0 73.014-27.042 73.014-71.392v-3.786h-35.155v4.8676c0 22.175-12.439 38.4-37.859 38.4-25.42 0-40.563-16.766-40.563-43.268v-46.513c0-26.501 15.144-43.268 40.563-43.268 25.42 0 37.859 16.225 37.859 38.4v2.7043h35.155v-1.6225c0-44.349-26.502-71.392-73.014-71.392-47.054 0-76.259 27.042-76.259 75.718v45.431c0 48.676 29.206 75.718 76.259 75.718zm102.22-3.7859h35.696v-78.693h70.31v78.693h35.696v-189.3h-35.696v78.152h-70.31v-78.152h-35.696zm557.29 0h80.19v-32.451h-44.494v-156.85h-35.696z"/>
  <path id="path2" d="m998.35 894.16c46.513 0 73.014-27.042 73.014-71.392v-3.786h-35.155v4.8676c0 22.175-12.439 38.4-37.859 38.4-25.42 0-40.563-16.766-40.563-43.268v-46.513c0-26.501 15.144-43.268 40.563-43.268 25.42 0 37.859 16.225 37.859 38.4v2.7042h35.155v-1.6225c0-44.349-26.501-71.392-73.014-71.392-47.054 0-76.259 27.042-76.259 75.718v45.431c0 48.676 29.206 75.718 76.259 75.718zm182.3 0c47.594 0 77.882-27.042 77.882-75.718v-45.431c0-48.676-30.287-75.718-77.882-75.718s-77.882 27.042-77.882 75.718v45.431c0 48.676 30.287 75.718 77.882 75.718zm0-31.91c-26.502 0-42.186-16.766-42.186-42.727v-47.594c0-25.961 15.684-42.727 42.186-42.727 26.501 0 42.186 16.766 42.186 42.727v47.594c0 25.961-15.684 42.727-42.186 42.727zm101.72 28.124h77.882c50.84 0 77.882-25.961 77.882-76.8v-35.696c0-50.839-27.042-76.8-77.882-76.8h-77.882v31.369h24.879v126.56h-24.879zm60.575-32.451v-124.39h17.848c28.665 0 41.645 15.685 41.645 43.268v37.859c0 27.583-12.98 43.268-41.645 43.268zm126.5 32.451h35.696v-189.3h-35.696zm74.41 0h35.155v-164.96h4.8676l37.589 164.96h67.876v-189.3h-35.155v164.96h-4.8676l-37.589-164.96h-67.876zm252.51 3.7858c29.206 0 37.859-12.71 41.645-21.904h4.8676v18.118h32.992v-96.811h-80.045v30.287h44.89v2.7042c0 21.093-11.358 36.237-37.318 36.237-25.961 0-41.104-17.307-41.104-43.809v-46.513c0-26.501 15.144-43.268 40.564-43.268 25.42 0 37.859 15.685 37.859 35.696v2.1634h35.155v-1.0816c0-42.186-26.501-68.687-73.014-68.687-47.054 0-76.259 27.042-76.259 75.718v45.431c0 48.676 30.828 75.718 69.769 75.718z" fill="#0151f3"/>
  <path id="path3" d="m1332.8 166.28c-1.117 4.9538-1.6931 43.099 0.2848 51.129 3.3978 13.795 14.802 29.134 33.968 35.178 7.1204 2.2456 152.23 1.7358 157.73 0.92573 23.686-3.4852 36.85-22.429 39.949-37.884 1.4975-7.4672 1.4881-41.816-0.071-49.207-4.2002-19.907-23.89-37.884-37.742-37.884-136.72-3e-3 -153.27-0.17066-156.66 0.6409-30.471 7.2822-36.867 34.483-37.457 37.101z" fill="#fff"/>
  <path id="path4" d="m1429.1 164.57c2.5636 0.78332 6.1954 2.6348 11.75 6.8362l20.722-0.14242c2.7837-2.4056 5.7294-4.6354 9.1862-5.9817 17.737-6.5693 58.525-4.3727 70.854-0.42727 4.2455 1.3586 7.817 5.5256 9.115 7.8332 3.0644 6.4353 1.4941 34.113-4.9135 47.569-2.0984 4.0059-6.3648 8.5982-10.539 10.326-8.1201 3.48-44.57 6.5788-58.464-0.21363-7.8069-3.9035-10.905-9.947-11.322-10.824-1.9277-3.6802-5.0876-16.459-5.6969-21.577-0.4272-2.9196-0.9257-6.8362-1.4954-12.106l-14.598 0.35605c-1.2882 14.722-3.88 28.953-8.9013 36.317-3.7538 5.5056-9.7561 8.702-16.378 10.468-4.5875 1.0587-40.862 2.1899-50.916-1.9227-3.9818-1.6289-8.6894-6.3412-11.109-11.18-5.4598-10.919-8.8925-39.293-4.6999-47.213 2.071-4.142 6.2278-6.409 8.3316-7.3347 8.2178-3.6158 46.561-7.6625 69.074-0.78332zm-64.374 14.812c-3.301 3.0947 2.3357 29.756 4.7711 34.252 4.4379 8.8757 42.99 9.0774 49.634 3.5605 7.94-6.5938 12.577-27.247 10.041-36.246-2.3096-8.1942-59.086-6.4796-64.446-1.5666zm107.81 1.4954c0.2119 2.6599 1.7543 20.83 4.9848 29.552 1.6933 4.3104 3.3411 6.3461 8.1892 7.9044 4.181 1.3487 19.533 2.3317 33.469 0.78332 9.0766-0.55907 12.311-1.3951 15.239-9.8983 2.6695-9.0764 5.2617-27.638 2.9196-29.98-3.0141-3.0142-49.272-7.5832-64.802 1.6378z"/>
</svg>
