<?xml version="1.0" encoding="UTF-8"?>
<svg width="346px" height="61px" version="1.1" viewBox="0 0 346 61" xmlns="http://www.w3.org/2000/svg" xmlns:xlink="http://www.w3.org/1999/xlink">
 <!-- Generator: Sketch 51.2 (57519) - http://www.bohemiancoding.com/sketch -->
 <title>Group 28</title>
 <desc>Created with Sketch.</desc>
 <defs>
  <polygon id="path-1" points="9.8571e-4 0.059456 67.25 0.059456 67.25 61 9.8571e-4 61"/>
 </defs>
 <g id="Page-1" fill="none" fill-rule="evenodd">
  <g id="Group-28">
   <g id="Group-3">
    <mask id="mask-2" fill="white">
     <use xlink:href="#path-1"/>
    </mask>
    <path id="Fill-1" d="m35.984 61h-14.867c-3.068 0-5.9266-1.6616-7.4619-4.3326l-12.509-21.802c-1.5279-2.6759-1.5279-5.9966 0-8.6701l12.509-21.799c1.5328-2.6759 4.3938-4.3375 7.4619-4.3375h25.012c3.068 0 5.9266 1.6616 7.4643 4.3375l12.506 21.799c1.5328 2.671 1.5328 5.9942 0 8.6701l-3.2356 5.1906c-1.5057 2.6263-4.3667 4.2854-7.4372 4.2854h-14.884l8.1371-13.824-7.5284-13.114h-15.059l-7.5309 13.124 17.422 30.472z" fill="#FE5000" mask="url(#mask-2)"/>
   </g>
   <path id="Fill-4" d="m91.51 30.626c2.6599 0 4.356-0.81164 4.356-3.6139 0-2.7601-1.4545-3.532-3.9936-3.532h-1.9352v7.1459h1.5728zm-1.5728 14.374h-6.937v-27h9.841c6.3281 0 10.159 2.9636 10.159 8.5656 0 6.2945-4.5557 9.4617-11.007 9.4617h-2.056v8.9727z" fill="#222"/>
   <path id="Fill-6" d="m113.85 18v17.349c0 3.0309 1.5543 3.9477 3.7444 3.9477 2.0732 0 3.5471-1.2338 3.5471-3.7478v-17.549h6.8555v18.346c0 5.3863-4.3048 8.6538-10.561 8.6538-6.8944 0-10.439-2.7895-10.439-9.2512v-17.749h6.853z" fill="#222"/>
   <polygon id="Fill-8" points="158 18 175.72 18 175.72 24.092 165 24.092 165 28.19 174.21 28.19 174.21 34.281 165 34.281 165 38.911 176 38.911 176 45 158 45" fill="#222"/>
   <path id="Fill-10" d="m182.35 39.88c1.265 0.85217 4.1619 2.318 7.3881 2.318 2.7347 0 5.7114-0.85714 5.7114-5.0012 0-3.2497-2.8569-4.3056-6.1181-5.2-3.9199-1.0559-7.7574-2.5193-7.7574-7.518 0-4.5118 3.5107-7.4783 8.6133-7.4783 3.6729 0 6.8966 1.7068 8.8154 3.6174l-1.7965 2.1516c-2.1209-1.8261-4.4913-3.0062-7.0613-3.0062-2.2856 0-5.2223 0.9764-5.2223 4.3901 0 3.2099 2.7746 4.1441 6.2853 5.2025 3.7552 1.1776 7.5902 2.6012 7.5902 7.7193 0 5.0807-3.4283 7.9255-9.1422 7.9255-3.9199 0-7.5503-1.5851-8.6532-2.4795l1.3474-2.641z" fill="#222"/>
   <polygon id="Fill-12" points="221 18 221 20.76 212.99 20.76 212.99 45 209.85 45 209.85 20.76 202 20.76 202 18" fill="#222"/>
   <path id="Fill-14" d="m234.22 42.277c5.7687 0 7.5611-5.5677 7.5611-11.093 0-4.795-1.5516-11.421-7.6025-11.421-5.8052 0-7.9551 5.6497-7.9551 11.178 0 5.3615 1.4325 11.337 7.9965 11.337m-0.31859 2.723c-6.8023 0-10.9-4.6733-10.9-13.94 0-10.442 5.8879-14.06 11.299-14.06 5.7298 0 10.701 3.6969 10.701 14.06 0 9.3068-4.2949 13.94-11.1 13.94" fill="#222"/>
   <path id="Fill-16" d="m278.82 34.078h9.0859l-4.5851-13.193-4.5008 13.193zm-6.8169 10.922 9.4926-27h3.8139l9.6935 27h-3.3675l-2.9584-8.3232h-10.628l-2.8815 8.3232h-3.1642z" fill="#222"/>
   <path id="Fill-18" d="m315.92 42.523c-2.1747 1.5031-5.2966 2.477-8.735 2.477-6.9155 0-11.185-4.5093-11.185-13.938 0-10.524 5.9297-14.062 11.185-14.062 2.6894 0 6.1254 0.85466 8.8148 4.3901l-2.2544 1.8286c-1.7373-2.1118-3.7936-3.4559-6.599-3.4559-4.9801 0-7.9449 4.1863-7.9449 11.014 0 7.3168 2.5299 11.585 8.2614 11.585 2.0563 0 4.3856-0.73292 5.3353-1.4261v-8.0422h-5.9708v-2.7652h9.0927v12.395z" fill="#222"/>
   <polygon id="Fill-20" points="322 18 336.72 18 336.72 20.76 325.13 20.76 325.13 29.858 335.1 29.858 335.1 32.616 325.13 32.616 325.13 42.24 337 42.24 337 45 322 45" fill="#222"/>
   <path id="Fill-22" d="m257.37 32.453h-4.1193v-11.812h3.5855c4.6505 0 7.9465 0.5262 7.9465 5.885 0 4.3436-3.0466 5.9272-7.4127 5.9272zm7.7299 4.0756c-0.62192-1.3577-1.0197-2.0452-1.8809-2.4697 3.0215-1.3279 4.9023-3.9812 4.9023-8.0196 0-5.2794-3.4621-8.0394-9.2281-8.0394h-8.8957v27h3.2531v-9.9482h4.6959c0.33488 0 0.6622-0.01241 0.9845-0.032267l-0.045322 0.019857c1.6845 0 2.4675 1.0847 3.1675 2.5441l3.4848 7.4065h3.4596l-3.8977-8.4614z" fill="#222"/>
   <path id="Fill-24" d="m139.83 30.626v-7.1459h1.9047c2.5016 0 3.9307 0.77192 3.9307 3.532 0 2.8023-1.6669 3.6139-4.2873 3.6139h-1.548zm10.567 5.8229c-0.39549-0.96801-1.0239-1.735-1.73-2.1023 2.5064-1.5389 4.0229-4.1277 4.0229-7.7788 0-5.6045-3.7705-8.5681-10.001-8.5681h-9.6835v27h6.8253v-8.9727h1.7567c0.91716 0.064534 1.5019 0.58081 1.912 1.529l3.2028 7.4189h7.3033l-3.608-8.5259z" fill="#222"/>
   <path id="Fill-26" d="m342.53 20.303c0.48645 0 0.91452-0.047733 0.91452-0.60859 0-0.46778-0.46699-0.52506-0.85615-0.52506h-0.78318v1.1337h0.72481zm-0.72481 2.1981h-0.64698v-3.8735h1.4958c0.95344 0 1.4399 0.32697 1.4399 1.1146 0 0.70167-0.4378 0.99045-1.0288 1.0573l1.1067 1.7017h-0.73454l-1.0215-1.6563h-0.61049v1.6563zm0.70535-4.8926c-1.5445 0-2.746 1.1885-2.746 2.8926 0 1.5895 1.0483 2.8902 2.746 2.8902 1.5274 0 2.729-1.179 2.729-2.8902 0-1.7041-1.2015-2.8926-2.729-2.8926zm0 6.3914c-2.0504 0-3.5097-1.5084-3.5097-3.4988 0-2.1074 1.6223-3.5012 3.5097-3.5012 1.8704 0 3.4903 1.3938 3.4903 3.5012 0 2.1026-1.6199 3.4988-3.4903 3.4988z" fill="#222"/>
  </g>
 </g>
</svg>
