<?xml version="1.0" encoding="UTF-8"?>
<svg id="svg4400" width="199.97" height="33.445" version="1.1" viewBox="32.27 213.57 435.4 33.445" xmlns="http://www.w3.org/2000/svg" xmlns:cc="http://creativecommons.org/ns#" xmlns:dc="http://purl.org/dc/elements/1.1/" xmlns:rdf="http://www.w3.org/1999/02/22-rdf-syntax-ns#">
 <metadata id="metadata4405">
  <rdf:rdf>
   <cc:work rdf:about="">
    <dc:format>image/svg+xml</dc:format>
    <dc:type rdf:resource="http://purl.org/dc/dcmitype/StillImage"/>
    <dc:title/>
   </cc:work>
  </rdf:rdf>
 </metadata>
 <path id="path4158-3" d="m65.98 221.99c0-4.601-1.0345-8.2851-3.101-11.052-2.0673-2.7681-5.1349-4.1531-9.2028-4.1531-1.334 0-2.5679 0.0501-3.7008 0.1493-1.1338 0.10012-2.0682 0.21867-2.8006 0.35041v26.909c0.93267 0.59894 2.1516 1.1004 3.6516 1.4991 1.5 0.39871 3.0158 0.59983 4.5509 0.59983 7.067 0 10.603-4.767 10.603-14.304m15.205-0.40135c0 4.0697-0.49971 7.7705-1.5009 11.103-0.99942 3.3364-2.4669 6.2029-4.4008 8.603-1.9347 2.401-4.3358 4.269-7.2014 5.603-2.8691 1.3323-6.1695 2.0023-9.9037 2.0023-2.0682 0-4.0012-0.20463-5.8024-0.60334-1.8003-0.39783-3.5339-0.96516-5.2008-1.6985v19.805h-14.904v-69.32c1.3323-0.39871 2.8656-0.78249 4.601-1.1505 1.7345-0.36534 3.5506-0.68413 5.4511-0.95111 1.9022-0.26522 3.8343-0.48302 5.8015-0.64988 1.9672-0.16598 3.8519-0.24941 5.6522-0.24941 4.334 0 8.2026 0.64988 11.603 1.9488 3.4013 1.3033 6.2687 3.137 8.603 5.5038 2.3334 2.3659 4.118 5.2509 5.3519 8.6513 1.233 3.4013 1.8504 7.2032 1.8504 11.403" fill="#232f36"/>
 <path id="path4162-6" d="m132.32 195.28c-3.0088 10.137-6.1502 19.639-9.4259 28.508-3.2766 8.87-6.8545 17.473-10.732 25.807-1.4025 3.0018-2.805 5.5538-4.2067 7.651-1.4043 2.1016-2.9412 3.8361-4.6089 5.2034-1.6704 1.3665-3.5559 2.3677-5.6601 3.0026-2.1042 0.62881-4.5571 0.94848-7.3612 0.94848-2.3387 0-4.4938-0.21516-6.4637-0.65076-1.969-0.43384-3.5884-0.91686-4.8565-1.4508l2.5995-11.902c1.5351 0.53045 2.9034 0.90018 4.103 1.1004 1.2005 0.20023 2.4696 0.29947 3.8044 0.29947 2.6672 0 4.7178-0.71838 6.1537-2.149 1.4341-1.4359 2.6531-3.4207 3.6543-5.9534-3.404-6.6683-6.8071-14.153-10.21-22.457-3.4022-8.3036-6.6051-17.621-9.6051-27.958h15.804c0.67008 2.6013 1.4578 5.4186 2.3615 8.4528 0.90457 3.0351 1.8601 6.1019 2.8648 9.2028 1.0038 3.0992 2.0252 6.1177 3.0624 9.0518 1.038 2.935 2.0278 5.6013 2.9657 8.0014 0.86944-2.4002 1.7731-5.0664 2.7111-8.0014 0.93794-2.9341 1.8592-5.9526 2.762-9.0518 0.90368-3.101 1.7749-6.1677 2.6118-9.2028 0.83694-3.0342 1.5896-5.8516 2.2596-8.4528z" fill="#232f36"/>
 <path id="path4166-7" d="m155.15 247.9c-3.4136-6.6692-6.8791-14.472-10.392-23.408-3.5138-8.9367-6.8448-18.673-9.9888-29.209h15.804c0.66832 2.6013 1.457 5.4186 2.3615 8.4528 0.90368 3.0351 1.8407 6.1019 2.8138 9.202 0.97043 3.1001 1.9409 6.1185 2.9139 9.0527 0.9713 2.935 1.9259 5.6013 2.8639 8.0014 0.86856-2.4002 1.8065-5.0664 2.8094-8.0014 1.0047-2.9341 1.9927-5.9526 2.9622-9.0527 0.97043-3.1001 1.9084-6.1668 2.8121-9.202 0.9028-3.0342 1.6914-5.8516 2.3606-8.4528h15.413c-3.144 10.536-6.4725 20.272-9.9818 29.209-3.5102 8.9359-6.9722 16.739-10.383 23.408z" fill="#232f36"/>
 <path id="path4170-5" d="m225.45 216.29c-0.0677-1.2638-0.28718-2.4994-0.6534-3.699-0.36797-1.2005-0.93354-2.2693-1.6994-3.202-0.76756-0.93267-1.7354-1.7029-2.8999-2.3009-1.1689-0.60158-2.6188-0.90106-4.3533-0.90106-1.6669 0-3.1001 0.28543-4.2998 0.85012-1.2005 0.56733-2.2017 1.3191-3.0009 2.2518-0.80093 0.93355-1.4183 2.0173-1.8513 3.2503-0.43472 1.2365-0.74999 2.4871-0.94936 3.7509zm-35.012 5.7023c0-4.6668 0.71574-8.7523 2.1499-12.252 1.4332-3.5032 3.317-6.4198 5.6522-8.7541 2.3325-2.3343 5.0173-4.1004 8.0524-5.3009 3.0334-1.2005 6.151-1.8021 9.353-1.8021 7.4675 0 13.369 2.2842 17.703 6.8536 4.3331 4.5667 6.5014 11.288 6.5014 20.155 0 0.86768-0.0316 1.8188-0.0992 2.8507-0.0676 1.0345-0.13612 1.9496-0.19935 2.7515h-33.809c0.33285 3.0676 1.7661 5.502 4.3015 7.3015 2.5336 1.8012 5.9341 2.7032 10.202 2.7032 2.7348 0 5.4186-0.25205 8.0541-0.75263 2.6311-0.50059 4.781-1.1145 6.4514-1.8504l1.9971 12.104c-0.79743 0.40223-1.8654 0.80181-3.1967 1.1988-1.3358 0.40398-2.8191 0.75088-4.4543 1.0539-1.6352 0.29859-3.3846 0.55064-5.2509 0.75-1.8671 0.19848-3.7351 0.29859-5.6013 0.29859-4.7354 0-8.8524-0.70169-12.354-2.1024-3.5006-1.3972-6.4013-3.3153-8.7014-5.7506-2.3009-2.4344-4.002-5.3167-5.1024-8.6522-1.1004-3.3346-1.6502-6.9362-1.6502-10.803" fill="#232f36"/>
 <path id="path4174-3" d="m247.4 221.59c0-3.8009 0.61651-7.384 1.8495-10.75 1.2348-3.3697 3.0176-6.3038 5.3536-8.805 2.3326-2.4985 5.1648-4.4842 8.502-5.9517 3.3328-1.4658 7.1346-2.2008 11.404-2.2008 2.8006 0 5.3668 0.25029 7.7011 0.75175 2.3343 0.49971 4.6001 1.2172 6.8018 2.1508l-3.1001 11.902c-1.4016-0.53308-2.9368-1.0012-4.6001-1.3999-1.6695-0.39871-3.5375-0.59983-5.6022-0.59983-4.4025 0-7.6879 1.3674-9.8545 4.1013-2.1683 2.7339-3.2503 6.3355-3.2503 10.802 0 4.7362 1.0152 8.4028 3.0509 11.003 2.0331 2.6013 5.5837 3.9046 10.653 3.9046 1.8004 0 3.7342-0.16861 5.8015-0.50409 2.0656-0.33109 3.9678-0.86505 5.7014-1.5984l2.1024 12.205c-1.7371 0.73244-3.9019 1.363-6.5041 1.897-2.5995 0.53483-5.4678 0.80181-8.6022 0.80181-4.7995 0-8.9367-0.71838-12.404-2.1499-3.4672-1.4341-6.317-3.3838-8.5521-5.8533-2.2351-2.4669-3.8677-5.3835-4.9004-8.7497-1.0346-3.3697-1.5509-7.0196-1.5509-10.957" fill="#232f36"/>
 <path id="path4178" d="m314.78 240c0 3-0.95111 5.2851-2.8507 6.8501-1.8996 1.5659-4.0504 2.3519-6.4514 2.3519-2.4019 0-4.5509-0.786-6.4523-2.3519-1.9013-1.565-2.8524-3.8501-2.8524-6.8501 0-3.0026 0.95111-5.286 2.8524-6.8545 1.9013-1.565 4.0503-2.3484 6.4523-2.3484 2.401 0 4.5518 0.78337 6.4514 2.3484 1.8996 1.5685 2.8507 3.8519 2.8507 6.8545" fill="#00a8f8"/>
 <path id="path4182" d="m355.79 221.49c0-4.6001-0.91773-8.2166-2.7523-10.852-1.8337-2.6338-4.4508-3.9511-7.8495-3.9511-3.4013 0-6.0369 1.3173-7.9022 3.9511-1.8688 2.6355-2.8024 6.252-2.8024 10.852 0 4.6019 0.93355 8.2517 2.8024 10.956 1.8653 2.6988 4.5009 4.0512 7.9022 4.0512 3.3987 0 6.0158-1.3525 7.8495-4.0512 1.8346-2.704 2.7523-6.3539 2.7523-10.956m15.205 0c0 4.1373-0.59982 7.9215-1.8003 11.354-1.2005 3.4356-2.9359 6.3697-5.2008 8.8041-2.2684 2.4335-4.9865 4.3173-8.1534 5.6496-3.1686 1.3358-6.7192 2.0015-10.652 2.0015-3.8703 0-7.3884-0.66569-10.554-2.0015-3.1677-1.3322-5.8867-3.216-8.1516-5.6496-2.2693-2.4344-4.0372-5.3686-5.3027-8.8041-1.2682-3.4321-1.8996-7.2163-1.8996-11.354 0-4.132 0.64989-7.9022 1.9488-11.304 1.3024-3.4005 3.1027-6.3003 5.4037-8.7014 2.3001-2.401 5.0331-4.2664 8.2008-5.6013 3.1677-1.3349 6.6191-2.0023 10.355-2.0023 3.7992 0 7.2839 0.66744 10.452 2.0023 3.166 1.3349 5.8849 3.2002 8.1516 5.6013 2.2667 2.401 4.0354 5.3009 5.3027 8.7014 1.2664 3.4013 1.9005 7.1715 1.9005 11.304" fill="#00a8f8"/>
 <path id="path4186" d="m412.76 208.49c-1.334-0.33373-2.9016-0.68062-4.702-1.0486-1.7986-0.36709-3.7342-0.55064-5.7998-0.55064-0.93533 0-2.0515 0.0834-3.3513 0.24941-1.3033 0.16511-2.2851 0.34866-2.9508 0.54801v40.215h-14.905v-49.817c2.6672-0.93179 5.8164-1.8153 9.4523-2.6505 3.635-0.83343 7.6853-1.2497 12.153-1.2497 0.80185 0 1.767 0.05 2.9016 0.1493 1.1347 0.0992 2.2667 0.23448 3.3996 0.40046 1.1347 0.16687 2.2676 0.3671 3.4013 0.59983 1.1347 0.23536 2.1025 0.51815 2.9034 0.84923z" fill="#00a8f8"/>
 <path id="path4190" d="m434.96 219.89c0 8.3369 3.3653 12.504 10.101 12.504 1.5351 0 2.9657-0.19935 4.3015-0.6007 1.3349-0.39959 2.467-0.86504 3.4014-1.4008v-23.805c-0.73335-0.13437-1.601-0.25029-2.6013-0.35217-0.99857-0.0992-2.1674-0.1493-3.5006-0.1493-3.9344 0-6.8686 1.2998-8.8015 3.9028-1.9356 2.6004-2.9008 5.8999-2.9008 9.901m32.708 21.407c0 8.6057-2.185 14.989-6.5515 19.156-4.3691 4.1663-11.12 6.252-20.256 6.252-3.2019 0-6.4013-0.28454-9.6024-0.85099-3.1994-0.56557-6.1695-1.3156-8.9043-2.2491l2.6022-12.503c2.3343 0.93443 4.7845 1.6634 7.3524 2.2008 2.5653 0.53044 5.4845 0.7983 8.7515 0.7983 4.269 0 7.2866-0.93267 9.0527-2.7998 1.767-1.8697 2.6513-4.2664 2.6513-7.2031v-1.8996c-1.601 0.73331-3.2512 1.284-4.9522 1.6519-1.7002 0.36534-3.5498 0.54976-5.5495 0.54976-7.2707 0-12.839-2.1534-16.706-6.454s-5.8007-10.318-5.8007-18.055c0-3.8668 0.59894-7.3841 1.7995-10.554 1.2005-3.166 2.9508-5.8823 5.2517-8.149 2.3-2.2693 5.1174-4.0196 8.4529-5.2526 3.3337-1.2348 7.103-1.8513 11.304-1.8513 1.8003 0 3.6516 0.0843 5.5512 0.24942 1.8996 0.16773 3.785 0.38553 5.6521 0.65075 1.8662 0.2661 3.6499 0.58578 5.3519 0.95111 1.6993 0.36798 3.216 0.75088 4.55 1.1496z" fill="#00a8f8"/>
</svg>
