<?xml version="1.0" encoding="UTF-8"?>
<svg id="svg859" width="353.69" height="109.45" version="1.1" viewBox="0 0 353.69 109.45" xmlns="http://www.w3.org/2000/svg">
 <g id="Group_722" transform="translate(-1400.9 -445.91)" data-name="Group 722">
  <path id="Path_678" d="m1412.3 482.39 36.482-36.482h-13.949l-32.082 32.081a6.224 6.224 0 0 0 0 8.8l32.082 32.081h13.949z" data-name="Path 678"/>
  <path id="Path_679" transform="translate(-63.175,-58.713)" d="m1539.8 577.59-36.482 36.482h13.948l32.082-32.082a6.223 6.223 0 0 0 0-8.8l-32.082-32.081h-13.948z" data-name="Path 679"/>
  <g id="Group_675" transform="translate(1526.4 447.23)" data-name="Group 675">
   <g id="Group_671" data-name="Group 671">
    <g id="Group_670" data-name="Group 670">
     <path id="Path_680" transform="translate(-1728.3 -461.14)" d="m1736.5 476.35c2.81 0.62 6.459 1.787 6.386 5.691a4.848 4.848 0 0 1-2.045 4.123 8.356 8.356 0 0 1-5.071 1.5c-3.613 0-6.276-1.6-7.443-4.268l3.394-1.971a3.85 3.85 0 0 0 4.049 2.627c2.08 0 3.1-0.693 3.1-2.043 0-1.168-1.533-1.861-3.466-2.335-2.736-0.694-6.421-1.788-6.348-5.62a4.912 4.912 0 0 1 1.9-4.049 8.015 8.015 0 0 1 11.528 2.262l-3.32 1.861a3.445 3.445 0 0 0-3.43-2.079c-1.495 0-2.663 0.656-2.663 1.933 0 1.2 1.532 1.824 3.429 2.372" data-name="Path 680"/>
     <path id="Path_681" transform="translate(-1756.1 -461.14)" d="m1783 483.83a5.5 5.5 0 0 0 4.049-1.642 6 6 0 0 0 0-8.246 5.816 5.816 0 0 0-8.1 0 6 6 0 0 0 0 8.246 5.505 5.505 0 0 0 4.05 1.642m-6.823 1.058a9.78 9.78 0 1 1 6.823 2.772 9.277 9.277 0 0 1-6.823-2.772" data-name="Path 681"/>
     <path id="Path_682" transform="translate(-1790.6 -449.36)" d="m1840.4 453.18c-2.882-0.255-4.306 0.949-4.306 3.612v0.366h4.306v3.793h-4.306v14.448h-3.94v-14.448h-2.774v-3.793h2.774v-0.366c0-5 2.846-7.734 8.246-7.406z" data-name="Path 682"/>
     <path id="Path_683" transform="translate(-1811.7 -453.69)" d="m1875.3 465.28h-4.525v8.757c0 2.335 1.534 2.3 4.525 2.152v3.539c-6.02 0.729-8.465-0.912-8.465-5.691v-8.757h-3.356v-3.794h3.356v-3.94l3.939-1.168v5.109h4.525z" data-name="Path 683"/>
    </g>
    <path id="Path_684" transform="translate(-1835.3 -461.91)" d="m1924.4 469.71h4.158l-5.727 18.242h-3.868l-3.794-12.295-3.83 12.295h-3.867l-5.729-18.242h4.159l3.538 12.588 3.831-12.588h3.759l3.792 12.592z" data-name="Path 684"/>
    <path id="Path_685" transform="translate(-1881.5 -461.14)" d="m1986.4 483.9a5.607 5.607 0 0 0 4.122-1.642 5.778 5.778 0 0 0 1.642-4.2 5.639 5.639 0 0 0-1.642-4.16 5.9 5.9 0 0 0-8.246 0 5.639 5.639 0 0 0-1.641 4.16 5.778 5.778 0 0 0 1.641 4.2 5.612 5.612 0 0 0 4.124 1.642m5.764-14.959h3.94v18.242h-3.94v-2.627a7.367 7.367 0 0 1-6.384 3.1 8.547 8.547 0 0 1-6.423-2.772 10.074 10.074 0 0 1 0-13.645 8.543 8.543 0 0 1 6.423-2.774 7.423 7.423 0 0 1 6.384 3.066z" data-name="Path 685"/>
    <path id="Path_686" transform="translate(-1921.3 -461.38)" d="m2045.1 472.24c0.986-2.262 2.882-3.392 5.619-3.392v4.268a5.7 5.7 0 0 0-3.94 1.1 4.582 4.582 0 0 0-1.678 4.013v9.194h-3.94v-18.247h3.94z" data-name="Path 686"/>
    <path id="Path_687" transform="translate(-1939.6 -461.15)" d="m2085.6 476.53a5.084 5.084 0 0 0-5.217-4.488 5.3 5.3 0 0 0-5.51 4.488zm-10.69 3.21c0.584 2.773 2.809 4.306 5.837 4.306a5.406 5.406 0 0 0 4.707-2.262l3.248 1.9a8.976 8.976 0 0 1-7.991 3.977 9.856 9.856 0 0 1-7.187-2.7 10.012 10.012 0 0 1-0.037-13.718 9.209 9.209 0 0 1 6.933-2.772 8.548 8.548 0 0 1 6.566 2.81 9.748 9.748 0 0 1 2.591 6.822 10.783 10.783 0 0 1-0.146 1.642z" data-name="Path 687"/>
   </g>
   <g id="Group_673" transform="translate(.13 35.879)" data-name="Group 673">
    <path id="Path_688" transform="translate(-1728.7 -544.74)" d="m1738.4 568.09a5.608 5.608 0 0 0 4.122-1.641 5.779 5.779 0 0 0 1.642-4.2 5.64 5.64 0 0 0-1.642-4.159 5.9 5.9 0 0 0-8.246 0 5.64 5.64 0 0 0-1.641 4.159 5.779 5.779 0 0 0 1.641 4.2 5.608 5.608 0 0 0 4.124 1.641m5.764-22.254h3.94v25.539h-3.94v-2.628a7.367 7.367 0 0 1-6.385 3.1 8.54 8.54 0 0 1-6.422-2.772 10.071 10.071 0 0 1 0-13.645 8.541 8.541 0 0 1 6.422-2.772 7.425 7.425 0 0 1 6.385 3.065z" data-name="Path 688"/>
    <path id="Path_689" transform="translate(-1766.9 -555.72)" d="m1805.4 571.7a5.084 5.084 0 0 0-5.217-4.488 5.3 5.3 0 0 0-5.51 4.488zm-10.69 3.21c0.584 2.773 2.809 4.306 5.837 4.306a5.4 5.4 0 0 0 4.706-2.262l3.249 1.9a8.98 8.98 0 0 1-7.991 3.976 9.855 9.855 0 0 1-7.188-2.7 10.013 10.013 0 0 1-0.036-13.717 9.21 9.21 0 0 1 6.933-2.773 8.548 8.548 0 0 1 6.566 2.811 9.748 9.748 0 0 1 2.591 6.822 10.744 10.744 0 0 1-0.146 1.641z" data-name="Path 689"/>
    <path id="Path_690" transform="translate(-1799.3 -556.49)" d="m1857.6 564.88h4.3l-7.114 18.242h-4.561l-7.114-18.242h4.3l5.108 13.864z" data-name="Path 690"/>
    <g id="Group_672" transform="translate(64.11,7.916)" data-name="Group 672">
     <path id="Path_691" transform="translate(-1896 -563.64)" d="m1910.8 571.7a5.084 5.084 0 0 0-5.217-4.488 5.3 5.3 0 0 0-5.51 4.488zm-10.69 3.21c0.584 2.773 2.809 4.306 5.837 4.306a5.4 5.4 0 0 0 4.706-2.262l3.249 1.9a8.979 8.979 0 0 1-7.991 3.976 9.856 9.856 0 0 1-7.188-2.7 10.013 10.013 0 0 1-0.036-13.717 9.21 9.21 0 0 1 6.933-2.773 8.548 8.548 0 0 1 6.566 2.811 9.749 9.749 0 0 1 2.591 6.822 10.741 10.741 0 0 1-0.146 1.641z" data-name="Path 691"/>
    </g>
    <rect id="Rectangle_497" transform="translate(87.097)" width="3.94" height="26.634" data-name="Rectangle 497"/>
    <path id="Path_692" transform="translate(-1882.1 -555.72)" d="m1987 579a5.505 5.505 0 0 0 4.049-1.641 6 6 0 0 0 0-8.247 5.818 5.818 0 0 0-8.1 0 6 6 0 0 0 0 8.247 5.508 5.508 0 0 0 4.051 1.641m-6.823 1.058a9.782 9.782 0 1 1 6.823 2.772 9.279 9.279 0 0 1-6.823-2.772" data-name="Path 692"/>
    <path id="Path_693" transform="translate(-1920 -555.72)" d="m2048.6 579.07a5.609 5.609 0 0 0 4.122-1.641 5.779 5.779 0 0 0 1.643-4.2 5.637 5.637 0 0 0-1.643-4.159 5.9 5.9 0 0 0-8.245 0 5.642 5.642 0 0 0-1.642 4.159 5.785 5.785 0 0 0 1.642 4.2 5.612 5.612 0 0 0 4.123 1.641m7.042-12.623a10.026 10.026 0 0 1 0 13.609 8.535 8.535 0 0 1-6.421 2.772 7.424 7.424 0 0 1-6.385-3.064v9.888h-3.94v-25.539h3.94v2.626a7.366 7.366 0 0 1 6.385-3.1 8.572 8.572 0 0 1 6.421 2.81" data-name="Path 693"/>
    <path id="Path_694" transform="translate(-1958.2 -555.72)" d="m2127.6 571.05v11.31h-3.94v-11.058c0-2.517-1.35-3.976-3.54-3.976-2.444 0-3.976 1.606-3.976 4.817v10.214h-3.941v-11.055c0-2.517-1.24-3.976-3.429-3.976-2.372 0-4.05 1.642-4.05 4.817v10.214h-3.939v-18.24h3.939v2.185a5.824 5.824 0 0 1 5.219-2.665 5.576 5.576 0 0 1 5.18 2.882 6.1 6.1 0 0 1 5.582-2.882c4.123 0 6.9 2.882 6.9 7.408" data-name="Path 694"/>
    <path id="Path_695" transform="translate(-2007.7 -555.72)" d="m2195.8 571.7a5.084 5.084 0 0 0-5.217-4.488 5.3 5.3 0 0 0-5.509 4.488zm-10.691 3.21c0.584 2.773 2.81 4.306 5.837 4.306a5.405 5.405 0 0 0 4.707-2.262l3.248 1.9a8.979 8.979 0 0 1-7.991 3.976 9.851 9.851 0 0 1-7.187-2.7 10.011 10.011 0 0 1-0.037-13.717 9.211 9.211 0 0 1 6.933-2.773 8.545 8.545 0 0 1 6.566 2.811 9.748 9.748 0 0 1 2.591 6.822 10.578 10.578 0 0 1-0.146 1.641z" data-name="Path 695"/>
    <path id="Path_696" transform="translate(-2044.7 -555.72)" d="m2257.6 571.16v11.2h-3.94v-10.8c0-2.737-1.568-4.233-4.087-4.233-2.772 0-4.633 1.716-4.633 5.255v9.777h-3.94v-18.24h3.94v2.335a6.237 6.237 0 0 1 5.655-2.81c4.2 0 7.005 2.846 7.005 7.516" data-name="Path 696"/>
    <path id="Path_697" transform="translate(-2076.7 -548.27)" d="m2304.8 560.46h-4.524v8.756c0 2.335 1.533 2.3 4.524 2.153v3.536c-6.02 0.729-8.465-0.911-8.465-5.691v-8.756h-3.352v-3.794h3.356v-3.939l3.94-1.167v5.108h4.524z" data-name="Path 697"/>
   </g>
   <g id="Group_674" transform="translate(.13 73.465)" data-name="Group 674">
    <path id="Path_698" transform="translate(-1728.7 -652.04)" d="m1738.4 674.29a5.613 5.613 0 0 0 4.122-1.641 5.786 5.786 0 0 0 1.642-4.2 5.637 5.637 0 0 0-1.642-4.159 5.9 5.9 0 0 0-8.246 0 5.637 5.637 0 0 0-1.641 4.159 5.786 5.786 0 0 0 1.641 4.2 5.613 5.613 0 0 0 4.124 1.641m5.764-14.958h3.94v18.241h-3.94v-2.627a7.367 7.367 0 0 1-6.385 3.1 8.546 8.546 0 0 1-6.422-2.77 10.072 10.072 0 0 1 0-13.647 8.543 8.543 0 0 1 6.422-2.775 7.425 7.425 0 0 1 6.385 3.066z" data-name="Path 698"/>
    <path id="Path_699" transform="translate(-1766.8 -652.04)" d="m1793.3 675.28a9.358 9.358 0 0 1-2.736-6.823 9.24 9.24 0 0 1 2.736-6.824 9.353 9.353 0 0 1 6.9-2.773 8.984 8.984 0 0 1 8.135 4.707l-3.392 1.971a5.077 5.077 0 0 0-4.78-2.809 5.5 5.5 0 0 0-4.05 1.642 6.006 6.006 0 0 0 0 8.172 5.5 5.5 0 0 0 4.05 1.642 5.326 5.326 0 0 0 4.852-2.81l3.393 1.935a9.182 9.182 0 0 1-8.208 4.741 9.355 9.355 0 0 1-6.9-2.77" data-name="Path 699"/>
    <path id="Path_700" transform="translate(-1799.2 -652.04)" d="m1852.7 674.29a5.61 5.61 0 0 0 4.122-1.641 5.787 5.787 0 0 0 1.642-4.2 5.638 5.638 0 0 0-1.642-4.159 5.9 5.9 0 0 0-8.246 0 5.637 5.637 0 0 0-1.641 4.159 5.786 5.786 0 0 0 1.641 4.2 5.615 5.615 0 0 0 4.124 1.641m5.764-14.958h3.94v18.241h-3.94v-2.627a7.366 7.366 0 0 1-6.384 3.1 8.546 8.546 0 0 1-6.422-2.77 10.075 10.075 0 0 1 0-13.647 8.543 8.543 0 0 1 6.422-2.775 7.423 7.423 0 0 1 6.384 3.066z" data-name="Path 700"/>
    <path id="Path_701" transform="translate(-1837.4 -641.06)" d="m1914.6 663.31a5.606 5.606 0 0 0 4.123-1.641 5.781 5.781 0 0 0 1.642-4.2 5.634 5.634 0 0 0-1.642-4.159 5.9 5.9 0 0 0-8.246 0 5.635 5.635 0 0 0-1.641 4.159 5.782 5.782 0 0 0 1.641 4.2 5.609 5.609 0 0 0 4.123 1.641m5.765-22.255h3.94v25.542h-3.94v-2.63a7.366 7.366 0 0 1-6.385 3.1 8.541 8.541 0 0 1-6.421-2.77 10.072 10.072 0 0 1 0-13.647 8.538 8.538 0 0 1 6.42-2.773 7.423 7.423 0 0 1 6.385 3.066z" data-name="Path 701"/>
    <path id="Path_702" transform="translate(-1875.5 -652.04)" d="m1981.6 666.92a5.084 5.084 0 0 0-5.217-4.489 5.3 5.3 0 0 0-5.509 4.489zm-10.689 3.209c0.583 2.772 2.809 4.3 5.836 4.3a5.4 5.4 0 0 0 4.707-2.26l3.248 1.9a8.973 8.973 0 0 1-7.991 3.977 9.857 9.857 0 0 1-7.187-2.7 10.013 10.013 0 0 1-0.037-13.718 9.21 9.21 0 0 1 6.933-2.773 8.548 8.548 0 0 1 6.566 2.811 9.749 9.749 0 0 1 2.591 6.823 10.914 10.914 0 0 1-0.145 1.641z" data-name="Path 702"/>
    <path id="Path_703" transform="translate(-1912.5 -652.04)" d="m2053.6 666.26v11.31h-3.94v-11.055c0-2.516-1.349-3.976-3.54-3.976-2.444 0-3.976 1.605-3.976 4.817v10.214h-3.941v-11.055c0-2.516-1.24-3.976-3.43-3.976-2.371 0-4.049 1.642-4.049 4.817v10.214h-3.94v-18.242h3.94v2.189a5.829 5.829 0 0 1 5.219-2.665 5.576 5.576 0 0 1 5.181 2.885 6.1 6.1 0 0 1 5.583-2.885c4.122 0 6.9 2.885 6.9 7.408" data-name="Path 703"/>
    <path id="Path_704" transform="translate(-1959.7 -652.8)" d="m2117.7 660.1h4.2l-7 18.825c-1.752 4.707-4.707 6.97-8.9 6.713v-3.685c2.48 0.147 3.867-1.058 4.852-3.575l0.182-0.364-7.735-17.913h4.305l5.436 13.244z" data-name="Path 704"/>
   </g>
  </g>
 </g>
</svg>
