<?xml version="1.0" encoding="UTF-8"?>
<svg id="svg3" class="e_Z atm-icon__logo" width="984.41" height="145.88" aria-label="Logo Seznam Zprávy" version="1.1" viewBox="0 0 984.41 145.88" xmlns="http://www.w3.org/2000/svg">
 <path id="path1" d="m0 106.78v-17.66h14.66c1.3 12.17 6.67 17 15.83 17 8.9 0 14.53-4.06 14.53-14 0-7.46-3.14-11.65-13.22-14.27l-9.42-2.48c-13.87-3.66-21.99-10.59-21.99-26.82 0-19.37 12.7-28.79 32.06-28.79 14.4 0 23.17 4.06 27.48 6.28v18.97h-14.52c-1-9.95-4.32-16.49-14.53-16.49-8.24 0-11.91 4.71-11.91 12 0.03 6.49 2.75 10.91 11.78 13l8.9 2.1c15.05 3.53 25 12.3 25 28.92 0 19.23-12.56 29.7-35.07 29.7-15.45 0-23.58-3.92-29.58-7.46zm132.56-9.16 3.27 5.63c-7.33 7.33-16.1 10.86-28.27 10.86-20.68 0-32.71-12.95-32.71-35.46 0-22.25 13-35.07 32.58-35.07 21.46 0 29.57 12.43 29.57 32.43v6.15h-39.25c0.52 13.87 5.1 19.76 17.4 19.76a38.39 38.39 0 0 0 17.41-4.3zm-34.68-25h18.19c0-15.7-2.23-20.41-8.38-20.41s-8.9 4.72-9.81 20.42zm104.17 39.79h-56v-8.24l33.1-50.25h-10.6c-8.89 0-10.86 2.09-12.3 11.9h-8.37v-20.54h55.88v7.73l-33.9 50.9h9.56c10.73 0 13.08-0.52 16.88-11.51h8.11zm80.04-15.4c0 7.46 1.31 9.16 7.59 9.16v6.28h-36.51v-6.28c6.41 0 7.72-1.7 7.72-9v-28c0-8-3.14-10.6-8.51-10.6a20.09 20.09 0 0 0-12 4.18v34.35c0 7.33 1.31 9 7.72 9v6.28h-36.68v-6.28c6.42 0 7.73-1.7 7.73-9.16v-30.85c0-9.56-1.18-10.87-7.46-11.13v-6.15l22.11-5.23h2a28.11 28.11 0 0 1 4.06 11.91c5.63-6.55 12.69-11.78 23-11.78 10.73 0 19.24 6.28 19.24 20.28zm79.29 6.76v5.89c-2.87 1.83-8.11 3.54-14.39 3.54-7.85 0-12.69-3.54-13.87-9-2.1 4.84-7.72 9.94-18.19 9.94-11.52 0-20.81-5.63-20.81-19.37 0-15.44 11.13-22.11 31.67-22.11 1.57 0 5.1 0.13 6.81 0.26v-6c0-9.81-2.49-14-8.9-14-6.68 0-8.51 4.84-9.43 12h-15.7v-13.91a60.64 60.64 0 0 1 29.05-7.46c15.18 0 26.17 6.67 26.17 22 0 3.93-0.52 14.79-0.52 26.7 0 9.82 1.57 11.39 8.11 11.52zm-33.63-23.29c-7.59 0-11.9 3.8-11.9 11.39 0 6.93 2.74 9.16 7.06 9.16a12.84 12.84 0 0 0 9-3.93l0.39-16.62zm128.37-36.77c10.6 0 19.11 6.28 19.11 20.28v33.11c0 7.46 1.31 9 7.59 9.16v6.15h-35.82v-6.15c6.28 0 7.07-1.7 7.07-9v-28.16c0-8-3-10.6-7.85-10.6s-8.12 2-11 3.92v34.81c0 7.33 0.78 8.9 6.93 9v6.15h-35.2v-6.15c6.41 0 7.07-1.7 7.07-9v-28.13c0-8-3-10.6-7.72-10.6-5 0-8.25 2.09-11.26 4v34.73c0 7.33 0.66 9 7.07 9v6.15h-36v-6.15c6.41-0.13 7.72-1.7 7.72-9.16v-31c0-9.56-1.17-10.87-7.46-11.13v-6.13l22.12-5.23h2a27.84 27.84 0 0 1 3.8 11.51c5.62-7.06 12.3-11.38 21.85-11.38a18.27 18.27 0 0 1 17.4 11.78c5.57-7.2 13.03-11.78 22.58-11.78zm86.23 59.41h16c10.08 0 13.35-4.32 16-16.1h10.65l-1.44 25.39h-66.21v-7.33l42.93-74.72h-14.53c-8.77 0-11.38 4.58-14 14.79h-11.12l1-23.82h63.21v7.33zm96.83-59.41c15.84 0 26.3 10.86 26.3 34.68 0 25.51-13.34 35.59-31.14 35.59-5.37 0-10.6-1.44-14-5.5v14.14c0 7.46 1.31 9.16 7.85 9.16v6.28h-36.77v-6.28c6.41 0 7.72-1.7 7.72-9.16v-56.53c0-9.56-1.18-10.87-7.46-11.13v-6.15l22.11-5.23h2a26.63 26.63 0 0 1 3.79 11.12 22.12 22.12 0 0 1 19.6-10.99zm-7.85 14a15.09 15.09 0 0 0-11 4.45v36.64c2.75 3.14 6.28 4.19 10.07 4.19 7.46 0 12.57-4.45 12.57-22.25 0.03-18.06-4.44-23.03-11.64-23.03zm89.9-14.13a15.6 15.6 0 0 1 5.1 0.91l-3.93 21.33a23.72 23.72 0 0 0-7.85-1.17c-9.81 0-12.3 3-12.3 12.56v19.8c0 7.46 1.57 9.16 10.21 9.16v6.28h-39.13v-6.28c6.41 0 7.72-1.7 7.72-9.16v-30.92c0-9.56-1.18-10.87-7.46-11.13v-6.15l22.12-5.23h2a40.37 40.37 0 0 1 4.45 17.14c2.84-11.78 11.84-17.14 19.07-17.14zm75.63 60.19v5.89c-2.88 1.83-8.12 3.54-14.4 3.54-7.85 0-12.69-3.54-13.87-9-2.09 4.84-7.72 9.94-18.19 9.94-11.51 0-20.8-5.63-20.8-19.37 0-15.44 11.12-22.11 31.66-22.11 1.57 0 5.11 0.13 6.81 0.26v-6c0-9.81-2.49-14-8.9-14-6.67 0-8.51 4.84-9.42 12h-15.75v-13.91a60.66 60.66 0 0 1 29.06-7.46c15.17 0 26.17 6.67 26.17 22 0 3.93-0.53 14.79-0.53 26.7 0.04 9.82 1.61 11.39 8.16 11.52zm-50.29-72.15 23.34-26.42 11.67 15.29-30.78 15.68zm16.66 48.86c-7.59 0-11.91 3.8-11.91 11.39 0 6.93 2.75 9.16 7.06 9.16a12.84 12.84 0 0 0 9-3.93l0.4-16.62zm77.99-35.2v6.41c5.23 0 7.59 1.44 7.59 4.58a10.21 10.21 0 0 1-0.53 3.14l-7.85 24.87a81.48 81.48 0 0 0-2.62 9.94h-0.81a54.26 54.26 0 0 0-2.36-9.94l-8.5-25a7.78 7.78 0 0 1-0.79-3.14c0-2.75 2-4.45 7.33-4.45v-6.41h-37v6.41c4.32 0.66 5.76 1.7 8.11 7.85l20.68 53.52h16.53l19.37-53.52c2.23-6.15 4.32-7.85 8.77-7.85v-6.41z" fill="#382c2c"/>
 <path id="path2" d="m914.89 45.28v6.41c5.88 0.26 8 0.79 8 3.53a8.75 8.75 0 0 1-0.53 2.88l-8.63 28.4c-1.31 4.06-2.49 8.51-2.49 9.55h-0.78a82 82 0 0 0-2.1-9.81l-9-28.14a11.38 11.38 0 0 1-0.65-3c0-2.22 1.83-3.14 7.72-3.4v-6.42h-37.34v6.41c4.28 0 6.14 2.1 8.37 8.12l10.08 27.61c4.58 12.69 6.15 17.66 7.85 24.47l8.24-0.66c-4.71 9.56-14.79 12.7-26.56 14.66l7.33 13.48c16.22-2.23 24.73-12.56 30.35-27.88l19.25-51.95c2.23-6.15 3.8-7.19 9-7.85v-6.41z" fill="#382c2c"/>
 <path id="path3" d="m984.41 145.88h-14.33v-145.88h14.33z" fill="#f0c8c8"/>
</svg>
