<?xml version="1.0" encoding="UTF-8"?>
<!-- Created with Inkscape (http://www.inkscape.org/) -->
<svg id="svg912" width="879.92" height="430.97" version="1.1" viewBox="0 0 879.92 430.97" xml:space="preserve" xmlns="http://www.w3.org/2000/svg"><defs id="defs916"><clipPath id="clipPath928"><path id="path926" d="m384.15 453.81c-12.313-10.615-28.256-15.928-47.83-15.928-19.579 0-35.523 5.379-47.83 16.136-12.312 10.757-18.458 27.443-18.458 50.057v44.562h42.789v-39.183c0-11.586 2.4486-19.721 7.3449-24.408 4.8907-4.6917 10.278-7.0348 16.153-7.0348 5.8737 0 11.257 2.3431 16.153 7.0348 4.8907 4.6872 7.3394 12.822 7.3394 24.408v25.527c0 5.7929-2.2386 11.514-6.7093 17.171-4.4762 5.6512-10.008 11.439-16.573 17.372-6.5763 5.929-13.783 12-21.608 18.207-7.8353 6.2068-15.036 12.958-21.608 20.271-6.5752 7.3026-12.102 15.166-16.572 23.58-4.4762 8.4127-6.7093 17.584-6.7093 27.513v35.819c0 11.585 1.7405 21.58 5.2436 29.998 3.4933 8.4094 8.318 15.308 14.474 20.686 6.1453 5.379 13.213 9.3076 21.187 11.787 7.9694 2.4847 16.425 3.7276 25.383 3.7276 8.9469 0 17.413-1.2429 25.382-3.7276 7.9749-2.4792 15.032-6.3474 21.188-11.579 6.1508-5.2429 10.976-12.07 14.473-20.479 3.4987-8.4182 5.2448-18.554 5.2448-30.412v-45.748h-42.795v40.375c0 11.58-2.4487 19.716-7.3394 24.408-4.8962 4.6861-10.28 7.0292-16.153 7.0292-5.8748 0-11.262-2.3431-16.153-7.0292-4.8963-4.6917-7.3449-12.828-7.3449-24.408v-22.583c0-8.0042 2.2386-15.246 6.7148-21.72 4.4707-6.4846 9.997-12.621 16.573-18.413 6.5708-5.7874 13.772-11.58 21.608-17.373 7.8254-5.7918 15.032-11.862 21.607-18.206 6.5664-6.3485 12.093-13.378 16.573-21.1 4.4718-7.722 6.7093-16.544 6.7093-26.478v-39.593c0-22.897-6.1563-39.649-18.458-50.264" clip-rule="evenodd"/></clipPath><clipPath id="clipPath934"><path id="path932" d="m0 0h1200v1200h-1200z"/></clipPath><clipPath id="clipPath944"><path id="path942" d="m526.38 714.66v-272.64h-42.259v272.64h-44.921v41.786h132.58v-41.786z" clip-rule="evenodd"/></clipPath><clipPath id="clipPath950"><path id="path948" d="m0 0h1200v1200h-1200z"/></clipPath><clipPath id="clipPath960"><path id="path958" d="m702.66 684.87c0 11.58-1.9231 19.716-5.7648 24.408-3.8418 4.6862-9.8936 7.0292-18.144 7.0292h-21.778v-103.84h21.778c8.2509 0 14.303 2.3387 18.144 7.0348 3.8417 4.6872 5.7648 12.823 5.7648 24.408zm8.5379-242.85-37.571 130.32h-16.655v-130.32h-43.555v314.42h75.581c16.503 0 30.17-5.1055 40.991-15.307 10.816-10.207 16.227-27.17 16.227-50.887v-48.409c0-15.998-2.8511-29.028-8.5379-39.093-5.7032-10.07-13.386-17.17-23.06-21.307l40.136-139.42z" clip-rule="evenodd"/></clipPath><clipPath id="clipPath966"><path id="path964" d="m0 0h1200v1200h-1200z"/></clipPath><clipPath id="clipPath976"><path id="path974" d="m891.44 442.02h-62.144l-38.942 314.42h42.259l27.548-256.5 27.551 256.5h42.259z" clip-rule="evenodd"/></clipPath><clipPath id="clipPath982"><path id="path980" d="m0 0h1200v1200h-1200z"/></clipPath></defs><g id="g918" transform="matrix(1.3333 0 0 -1.3333 -360.04 1014.8)"><g id="g922"><g id="g924" clip-path="url(#clipPath928)"><g id="g930" clip-path="url(#clipPath934)"><path id="path936" d="m265.03 766.11h142.58v-333.23h-142.58z" fill="#ef0d33"/></g></g></g><g id="g938"><g id="g940" clip-path="url(#clipPath944)"><g id="g946" clip-path="url(#clipPath950)"><path id="path952" d="m434.2 761.44h142.58v-324.42h-142.58z" fill="#ef0d33"/></g></g></g><g id="g954"><g id="g956" clip-path="url(#clipPath960)"><g id="g962" clip-path="url(#clipPath966)"><path id="path968" d="m608.42 761.44h151.34v-324.42h-151.34z" fill="#ef0d33"/></g></g></g><g id="g970"><g id="g972" clip-path="url(#clipPath976)"><g id="g978" clip-path="url(#clipPath982)"><path id="path984" d="m785.35 761.44h149.62v-324.42h-149.62z" fill="#ef0d33"/></g></g></g></g></svg>
