<?xml version="1.0" encoding="UTF-8"?>
<svg width="20.9mm" height="17.9mm" version="1.1" viewBox="0 0 20.9 17.9" xmlns="http://www.w3.org/2000/svg" xmlns:cc="http://creativecommons.org/ns#" xmlns:dc="http://purl.org/dc/elements/1.1/" xmlns:rdf="http://www.w3.org/1999/02/22-rdf-syntax-ns#">
<title>SUSE Software Solutions Germany GmbH logo</title>
<desc>An enterprise Linux vendor based in Nürnberg, Germany</desc>
 <metadata>
  <rdf:RDF>
   <cc:Work rdf:about="">
    <dc:format>image/svg+xml</dc:format>
    <dc:type rdf:resource="http://purl.org/dc/dcmitype/StillImage"/>
    <dc:title/>
   </cc:Work>
  </rdf:RDF>
 </metadata>
 <g transform="translate(-20.5 -3.15)">
  <path d="m30 15.9c-0.231 0-0.418 0.187-0.418 0.418v2.63c0 0.485-0.102 0.842-0.306 1.07-0.204 0.23-0.52 0.344-0.948 0.344-0.428 0-0.744-0.115-0.948-0.344-0.204-0.229-0.306-0.587-0.306-1.07v-2.63c0-0.231-0.187-0.418-0.418-0.418-0.231 0-0.418 0.187-0.418 0.418v2.73c0 0.671 0.178 1.18 0.534 1.52 0.356 0.343 0.874 0.515 1.56 0.515s1.2-0.171 1.56-0.515c0.356-0.343 0.534-0.849 0.534-1.52v-2.73c0-0.231-0.187-0.418-0.418-0.418" style="fill:#0c322c"/>
  <path d="m23.9 18.4c-0.271-0.126-0.636-0.231-1.09-0.313-0.49-0.0878-0.83-0.192-1.02-0.313-0.191-0.121-0.286-0.285-0.286-0.491 0-0.222 0.0981-0.404 0.294-0.545 0.196-0.142 0.472-0.213 0.828-0.213 0.361 0 0.65 0.0695 0.866 0.209 0.117 0.0751 0.223 0.175 0.319 0.3 0.141 0.183 0.408 0.207 0.579 0.0522 0.162-0.146 0.176-0.396 0.0307-0.558-0.176-0.196-0.376-0.352-0.6-0.466-0.333-0.17-0.734-0.255-1.2-0.255-0.403 0-0.755 0.0695-1.06 0.209-0.302 0.139-0.533 0.328-0.693 0.565-0.16 0.237-0.24 0.501-0.24 0.789 0 0.273 0.0632 0.506 0.19 0.696 0.126 0.191 0.329 0.351 0.607 0.48 0.279 0.129 0.653 0.237 1.12 0.325 0.469 0.0878 0.798 0.188 0.986 0.302 0.188 0.114 0.283 0.263 0.283 0.449 0 0.232-0.104 0.411-0.313 0.538-0.209 0.127-0.496 0.19-0.863 0.19-0.387 0-0.711-0.0723-0.971-0.217-0.149-0.0822-0.282-0.192-0.4-0.328-0.149-0.172-0.415-0.176-0.576-0.0155l-0.0011 0.0014c-0.147 0.147-0.158 0.385-0.0198 0.54 0.441 0.492 1.1 0.739 1.98 0.739 0.402 0 0.757-0.0607 1.06-0.182 0.307-0.121 0.545-0.295 0.715-0.522 0.17-0.227 0.255-0.49 0.255-0.789 0-0.279-0.0617-0.512-0.186-0.7-0.124-0.188-0.321-0.346-0.592-0.472" style="fill:#0c322c"/>
  <path d="m35.3 18.4c-0.271-0.126-0.636-0.231-1.09-0.313-0.49-0.0878-0.83-0.192-1.02-0.313-0.191-0.121-0.286-0.285-0.286-0.491 0-0.222 0.0981-0.404 0.294-0.545 0.196-0.142 0.472-0.213 0.828-0.213 0.361 0 0.65 0.0695 0.866 0.209 0.117 0.0751 0.223 0.175 0.319 0.3 0.141 0.183 0.408 0.207 0.579 0.0522 0.162-0.146 0.176-0.396 0.0307-0.558-0.176-0.196-0.376-0.352-0.6-0.466-0.333-0.17-0.734-0.255-1.2-0.255-0.403 0-0.755 0.0695-1.06 0.209-0.302 0.139-0.533 0.328-0.693 0.565-0.16 0.237-0.24 0.501-0.24 0.789 0 0.273 0.0632 0.506 0.19 0.696 0.126 0.191 0.329 0.351 0.607 0.48 0.279 0.129 0.653 0.237 1.12 0.325 0.469 0.0878 0.798 0.188 0.986 0.302 0.188 0.114 0.283 0.263 0.283 0.449 0 0.232-0.104 0.411-0.313 0.538-0.209 0.127-0.497 0.19-0.863 0.19-0.387 0-0.711-0.0723-0.971-0.217-0.149-0.0822-0.282-0.192-0.4-0.328-0.149-0.172-0.415-0.176-0.576-0.0155l-0.0011 0.0014c-0.147 0.147-0.158 0.385-0.0198 0.54 0.441 0.492 1.1 0.739 1.98 0.739 0.402 0 0.757-0.0607 1.06-0.182 0.307-0.121 0.545-0.295 0.715-0.522 0.17-0.227 0.255-0.49 0.255-0.789 0-0.279-0.0617-0.512-0.186-0.7-0.124-0.188-0.321-0.346-0.592-0.472" style="fill:#0c322c"/>
  <path d="m41.1 20.3h-2.32c-0.179 0-0.324-0.145-0.324-0.324v-1.17h2.24c0.192 0 0.348-0.156 0.348-0.348s-0.156-0.348-0.348-0.348h-2.24v-1.15c0-0.179 0.145-0.324 0.324-0.324h2.32c0.202 0 0.365-0.164 0.365-0.365 0-0.202-0.164-0.365-0.365-0.365h-2.32c-0.581 0-1.05 0.473-1.05 1.05v3.02c0 0.582 0.473 1.05 1.05 1.05h2.32c0.202 0 0.365-0.163 0.365-0.365s-0.164-0.365-0.365-0.365" style="fill:#0c322c"/>
  <path d="m40.5 6.42c0 0.514-0.416 0.93-0.93 0.93-0.514 0-0.93-0.416-0.93-0.93 0-0.513 0.416-0.93 0.93-0.93 0.514 0 0.93 0.416 0.93 0.93m-6.64 3.89c-0.592-0.219-0.821-0.175-1.58-0.165-0.525 0.0071-0.543-0.0109-1.14-0.0109-0.185 0-0.253 0.887 0.416 1.07 0.293 0.0804 0.61 0.131 0.83 0.357 0.0974 0.0995 0.152 0.25-0.0734 0.25h-1.66c-0.291 0-0.566 0.0067-0.788-0.181-0.335-0.284-0.492-0.674-0.66-1.06-0.175-0.403-0.362-0.799-0.583-1.18-0.439-0.754-1.02-1.44-1.8-1.85-0.972-0.521-2.62-0.78-3.93 0.223-1.38 1.06-1.08 3.04 0.122 4 0.476 0.383 1.1 0.543 1.7 0.507 1.19-0.0691 2.07-0.947 1.85-2.03-0.073-0.361-0.284-0.703-0.601-0.89-0.226-0.132-0.494-0.179-0.755-0.18-0.281-3.44e-4 -0.58 0.0575-0.782 0.253-0.239 0.232-0.278 0.641-0.0868 0.914 0.106 0.151 0.278 0.278 0.249 0.475-0.0201 0.133-0.13 0.232-0.261 0.261-0.223 0.0497-0.428-0.0773-0.578-0.233-0.387-0.399-0.508-1.03-0.295-1.55 0.278-0.672 1.05-1.04 1.78-1.02 0.937 0.0314 1.82 0.65 2.2 1.51 0.385 0.855 0.27 1.91-0.26 2.68-1.18 1.72-4.08 1.52-5.43 0.0663-0.847-0.91-1.31-1.79-1.24-3.44 0.0452-1.16 0.716-2.31 1.57-3.11 1.39-1.31 3.23-2.21 5.09-2.6 1.13-0.234 2.3-0.289 3.45-0.174 1.01 0.101 2.02 0.287 3 0.589 0.484 0.151 0.96 0.33 1.42 0.542 0.406 0.186 0.938 0.389 1.25 0.712 0-0.583-0.0229-1.22-0.0229-1.67 0-0.17 0.179-0.285 0.332-0.213 0.66 0.307 2.22 1.04 3.27 1.52 1.4 0.639 1.5 2.14 1.55 3.48 0.0011 0.0296 0.0021 0.0607-0.0109 0.0871-0.0437 0.0914-0.279 0.0667-0.366 0.0677-0.167 0.00177-0.419 7.14e-4 -0.586 0.00811-0.334 0.0148-0.659 0.00847-0.992-0.00811-0.617-0.03-1.21-0.305-1.61-0.639-0.0399-0.0332-0.169-0.0698-0.229-0.00706-0.0632 0.0653-0.042 0.167-0.0074 0.202 0.229 0.231 0.477 0.381 0.766 0.53 0.367 0.188 0.767 0.236 1.17 0.26 0.435 0.0258 0.872 0.0194 1.31-0.025 0.362-0.037 0.455-0.0621 0.0984 0.204-0.314 0.233-0.678 0.4-1.05 0.525-0.529 0.18-1.09 0.27-1.65 0.285-0.338 0.00917-0.677-0.00882-1.01-0.0522-0.173-0.0219-0.346-0.0533-0.52-0.0709-0.141-0.0141-0.288-0.0406-0.429-0.0102-0.127 0.0279-0.246 0.097-0.327 0.201-0.11 0.144-0.149 0.54-0.0847 0.711 0.123 0.333 0.394 0.526 0.681 0.696 0.31 0.184 0.717 0.247 0.797 0.599 0.0166 0.0737-0.642 0.0755-0.717 0.0744h-0.877s-0.477 0.0113-0.662-0.0561c-0.0063-0.0018-0.0109-0.0046-0.0166-0.0074-0.101-0.0543-0.145-0.189-0.179-0.292-0.0487-0.144-0.135-0.288-0.239-0.438-0.198-0.282-0.503-0.592-0.819-0.709m6-5.12c-0.908-0.213-1.72 0.603-1.51 1.51 0.108 0.463 0.476 0.83 0.938 0.939 0.908 0.213 1.73-0.604 1.51-1.51-0.109-0.463-0.476-0.83-0.939-0.938m0.44 1.16c-0.132-0.136-0.349-0.136-0.481 0-0.148 0.148-0.131 0.403 0.0536 0.525 0.112 0.0744 0.262 0.0744 0.374 0 0.184-0.122 0.201-0.377 0.0536-0.525" style="fill:#31ba78"/>
 </g>
</svg>
