<?xml version="1.0" encoding="UTF-8"?>
<svg id="Vrstva_1" width="709.44" height="220.69" version="1.1" viewBox="0 0 709.44 220.69" xmlns="http://www.w3.org/2000/svg">
 <defs id="defs1">
  <style id="style1">.cls-1{fill:#241cc0;stroke-width:0px;}</style>
 </defs>
 <path id="path1" class="cls-1" d="m377.12 11.25h-9.23v-3.01h22.07v3.01h-9.22v29.46h-3.62z"/>
 <path id="path2" class="cls-1" d="m402.16 30.03-10.07-21.79h3.86l8.19 18.07 8.24-18.07h3.53l-10.12 21.79v10.68h-3.62v-10.68zm-0.56-25.84 4.19-4.19h2.54v1.36l-4.24 4.19h-2.5v-1.36z"/>
 <path id="path3" class="cls-1" d="m420.61 8.24h16.94l4.42 4.42v23.63l-4.42 4.42h-16.94zm15.2 29.46 2.54-2.54v-21.37l-2.54-2.54h-11.58v26.45z"/>
 <path id="path4" class="cls-1" d="m449.51 8.24h18.4v3.01h-14.78v11.67h13.79v3.01h-13.79v11.77h14.87v3.01h-18.5v-32.47z"/>
 <path id="path5" class="cls-1" d="m474.36 8.24h4.19l14.21 27.63v-27.63h3.25v32.47h-4.19l-14.21-27.72v27.72h-3.25z"/>
 <path id="path6" class="cls-1" d="m515.55 8.24h16.94l4.14 4.14v11.06l-4.14 4.14h-13.32v13.13h-3.62zm15.11 16.43 2.35-2.35v-8.8l-2.35-2.35h-11.48v13.51h11.48z"/>
 <path id="path7" class="cls-1" d="m542.52 8.24h17.23l4.14 4.14v9.79l-3.91 3.91 4.28 14.64h-3.67l-4.05-14.12h-10.4v14.12h-3.62zm15.2 15.34 2.54-2.54v-7.53l-2.35-2.35h-11.77v12.42z"/>
 <path id="path8" class="cls-1" d="m570.62 36.29v-23.63l4.42-4.42h13.23l4.42 4.42v23.63l-4.42 4.42h-13.23zm15.91 1.41 2.54-2.54v-21.37l-2.54-2.54h-9.74l-2.54 2.54v21.37l2.54 2.54z"/>
 <path id="path9" class="cls-1" d="m373.48 67.65h36.73l9.04 9.05v44.95l-9.04 9.04h-36.73zm30.7 54.73 4.29-4.29v-37.83l-4.29-4.29h-19.92v46.41z"/>
 <path id="path10" class="cls-1" d="m431.77 68.66h10.32v10.32h-10.32zm0 62.04v-45.32h10.32v45.32z"/>
 <path id="path11" class="cls-1" d="m454.8 139.65v-5.76h9.87v3.47l2.19 2.1h14.8l3.47-3.47v-13.34l-6.21 6.12h-16.72l-8.04-8.04v-27.23l8.04-8.13h17.45l7.4 7.4 0.55-7.4h7.86v53.08l-8.13 8.13h-25.58l-6.94-6.94zm23.85-18 6.49-6.49v-15.99l-6.67-6.58h-10.6l-3.47 3.47v22.02l3.47 3.56h10.78z"/>
 <path id="path12" class="cls-1" d="m508.15 68.66h10.32v10.32h-10.32zm0 62.04v-45.32h10.32v45.32z"/>
 <path id="path13" class="cls-1" d="m534.01 122.56v-29.6h-6.94v-7.58h6.94v-12.79h10.23v12.79h15.35v7.58h-15.35v26.5l3.47 3.38h11.88v7.86h-17.54l-8.04-8.13z"/>
 <path id="path14" class="cls-1" d="m566.63 123.39v-12.33l7.31-7.31h23.12v-8.22l-3.11-3.2h-13.16l-2.37 2.38v3.93h-10.6v-5.94l7.31-7.31h24.12l8.13 8.13v37.19h-7.86l-0.55-6.85-6.85 6.85h-18.27l-7.22-7.31zm24.94 0.18 5.48-5.48v-8.04h-17.45l-2.65 2.65v8.31l2.56 2.56zm-9.78-46.23 7.77-7.77h6.49v3.93l-7.86 7.77h-6.4z"/>
 <path id="path15" class="cls-1" d="m619.9 130.69v-63.04h10.32v63.04z"/>
 <path id="path16" class="cls-1" d="m643.1 85.38h7.86l0.55 7.49 7.4-7.49h15.72l8.04 8.13v37.19h-10.23v-34.08l-3.38-3.38h-8.86l-6.85 6.85v30.61h-10.23v-45.32z"/>
 <path id="path17" class="cls-1" d="m695.18 77.34 7.77-7.77h6.49v3.93l-7.86 7.77h-6.4zm0 53.36v-45.32h10.32v45.32z"/>
 <path id="path18" class="cls-1" d="m372.57 211.63v-44.95l9.04-9.04h27.87l8.68 8.68v11.33h-10.69v-7.77l-3.93-3.93h-15.9l-4.29 4.29v37.92l4.29 4.29h15.9l3.93-3.93v-8.13h10.69v11.6l-8.68 8.68h-27.87zm10.51-66.61v-3.66h5.48l6.21 6.21h0.91l6.3-6.21h5.48v3.66l-7.31 7.31h-9.87l-7.22-7.31z"/>
 <path id="path19" class="cls-1" d="m428.3 212.55v-29.05l8.04-8.13h24.49l8.04 8.13v16.9h-30.52v9.87l3.38 3.38h14.62l2.28-2.28v-4.29h10.23v6.58l-6.94 7.03h-25.58l-8.04-8.13zm30.52-18.73v-8.22l-3.2-3.2h-13.98l-3.29 3.2v8.22z"/>
 <path id="path20" class="cls-1" d="m478.28 213.83v-6.3h10.05v4.02l2.01 2.1h14.98l2.56-2.47v-8.04l-1.65-1.55h-21.84l-5.85-5.85v-12.97l7.4-7.4h24.85l6.85 6.85v6.21h-10.14v-4.02l-2.1-2.01h-14.07l-2.47 2.47v7.95l1.46 1.46h21.84l5.94 5.94v13.06l-7.4 7.4h-25.58l-6.85-6.85z"/>
 <path id="path21" class="cls-1" d="m548.45 199.03-9.68 11.51v10.14h-10.23v-63.04h10.23v41.48l18.82-23.76h11.79l-13.98 16.9 15.44 28.41h-11.24l-11.15-21.65z"/>
 <path id="path22" class="cls-1" d="m575.95 212.55v-29.05l8.04-8.13h24.94l8.13 8.13v29.05l-8.13 8.13h-24.94zm27.41 1.1 3.38-3.56v-24.21l-3.38-3.47h-13.7l-3.47 3.47v24.21l3.47 3.56z"/>
 <path id="path23" class="cls-1" d="m313.27 45.85c-38.02-34.09-96.45-31.34-132.55 4.77l-77.87 77.88h18.61c6.65 0 12.07 5.39 12.07 12.07s-5.39 12.07-12.07 12.07h-47.72c-3.34 0-6.33-1.36-8.52-3.55s-3.55-5.18-3.55-8.52v-47.72c0-6.64 5.39-12.07 12.07-12.07s12.07 5.39 12.07 12.07v18.61l69.08-69.08c-39.32-31.06-97.54-26.89-131.7 12.55-30.82 35.55-30.92 89.07-0.32 124.76 36.66 42.68 101.35 44.52 140.41 5.46l78.95-78.95h-18.61c-6.65 0-12.07-5.39-12.07-12.07s5.39-12.07 12.07-12.07h47.72c6.64 0 12.07 5.39 12.07 12.07v47.72c0 6.64-5.39 12.07-12.07 12.07-3.34 0-6.33-1.36-8.52-3.55s-3.55-5.18-3.55-8.52v-18.61l-69.04 69.04c37.53 29.63 92.28 27.16 126.92-7.44 38.57-38.57 37.28-102.12-3.86-138.99h-0.04z"/>
</svg>
