<?xml version="1.0" encoding="UTF-8"?>
<svg id="svg130" width="1348.6" height="1121.5" version="1.1" viewBox="0 0 1348.6 1121.5" xmlns="http://www.w3.org/2000/svg" xmlns:cc="http://creativecommons.org/ns#" xmlns:dc="http://purl.org/dc/elements/1.1/" xmlns:rdf="http://www.w3.org/1999/02/22-rdf-syntax-ns#">
 <defs id="defs1">
  <style id="style1">.cls-1{fill:none;clip-rule:evenodd;}.cls-2{clip-path:url(#clip-path);}.cls-3{fill:#fff;}.cls-10,.cls-11,.cls-12,.cls-13,.cls-14,.cls-15,.cls-16,.cls-17,.cls-18,.cls-19,.cls-20,.cls-21,.cls-22,.cls-23,.cls-24,.cls-25,.cls-26,.cls-27,.cls-28,.cls-29,.cls-3,.cls-30,.cls-31,.cls-32,.cls-33,.cls-34,.cls-35,.cls-36,.cls-37,.cls-38,.cls-39,.cls-4,.cls-40,.cls-41,.cls-42,.cls-43,.cls-44,.cls-45,.cls-46,.cls-47,.cls-48,.cls-49,.cls-5,.cls-50,.cls-51,.cls-52,.cls-53,.cls-54,.cls-55,.cls-56,.cls-57,.cls-58,.cls-59,.cls-6,.cls-60,.cls-61,.cls-62,.cls-63,.cls-64,.cls-65,.cls-66,.cls-67,.cls-68,.cls-69,.cls-7,.cls-70,.cls-71,.cls-72,.cls-73,.cls-74,.cls-75,.cls-76,.cls-77,.cls-78,.cls-79,.cls-8,.cls-80,.cls-81,.cls-82,.cls-83,.cls-84,.cls-85,.cls-86,.cls-87,.cls-88,.cls-89,.cls-9,.cls-90,.cls-91,.cls-92,.cls-93,.cls-94,.cls-95,.cls-96,.cls-97,.cls-98{fill-rule:evenodd;}.cls-4{fill:#38beef;}.cls-5{fill:#3bbeef;}.cls-6{fill:#3dbfef;}.cls-7{fill:#40bfef;}.cls-8{fill:#43bfee;}.cls-9{fill:#46c0ed;}.cls-10{fill:#48c0ed;}.cls-11{fill:#4bc0ec;}.cls-12{fill:#4dc1eb;}.cls-13{fill:#51c1eb;}.cls-14{fill:#54c2ea;}.cls-15{fill:#54c2e9;}.cls-16{fill:#54c2e8;}.cls-17{fill:#56c2e8;}.cls-18{fill:#56c2e7;}.cls-19{fill:#57c2e6;}.cls-20{fill:#59c2e6;}.cls-21{fill:#5bc3e5;}.cls-22{fill:#5bc2e5;}.cls-23{fill:#5dc3e5;}.cls-24{fill:#5dc3e4;}.cls-25{fill:#5fc3e4;}.cls-26{fill:#5fc3e3;}.cls-27{fill:#61c3e2;}.cls-28{fill:#63c4e1;}.cls-29{fill:#64c4e0;}.cls-30{fill:#66c5e0;}.cls-31{fill:#68c5e0;}.cls-32{fill:#68c5df;}.cls-33{fill:#68c5de;}.cls-34{fill:#68c5dd;}.cls-35{fill:#69c5dc;}.cls-36{fill:#69c5db;}.cls-37{fill:#69c4da;}.cls-38{fill:#6bc5da;}.cls-39{fill:#6cc5da;}.cls-40{fill:#6ec6da;}.cls-41{fill:#6fc6da;}.cls-42{fill:#71c6da;}.cls-43{fill:#72c7da;}.cls-44{fill:#74c7db;}.cls-45{fill:#75c8db;}.cls-46{fill:#77c8db;}.cls-47{fill:#78c9db;}.cls-48{fill:#7bc9db;}.cls-49{fill:#7dcadb;}.cls-50{fill:#7ecadc;}.cls-51{fill:#7fcbdc;}.cls-52{fill:#81ccdd;}.cls-53{fill:#82ccdd;}.cls-54{fill:#84cdde;}.cls-55{fill:#86cdde;}.cls-56{fill:#88cedf;}.cls-57{fill:#89cedf;}.cls-58{fill:#8ccfdf;}.cls-59{fill:#8dd0df;}.cls-60{fill:#8fd0e0;}.cls-61{fill:#92d1e1;}.cls-62{fill:#93d2e1;}.cls-63{fill:#96d3e2;}.cls-64{fill:#97d3e2;}.cls-65{fill:#9ad4e3;}.cls-66{fill:#9dd5e4;}.cls-67{fill:#9fd6e4;}.cls-68{fill:#a1d7e5;}.cls-69{fill:#a3d8e5;}.cls-70{fill:#a5d8e5;}.cls-71{fill:#a8d9e6;}.cls-72{fill:#aadae6;}.cls-73{fill:#addbe8;}.cls-74{fill:#b0dce8;}.cls-75{fill:#b1dde9;}.cls-76{fill:#b5dfea;}.cls-77{fill:#b7dfea;}.cls-78{fill:#bae1eb;}.cls-79{fill:#bde2ec;}.cls-80{fill:#c0e3ed;}.cls-81{fill:#c3e4ed;}.cls-82{fill:#c6e5ed;}.cls-83{fill:#cae7ef;}.cls-84{fill:#cce8ef;}.cls-85{fill:#d0e9f0;}.cls-86{fill:#d3ebf2;}.cls-87{fill:#d6ecf3;}.cls-88{fill:#daeef4;}.cls-89{fill:#ddeff5;}.cls-90{fill:#e1f1f6;}.cls-91{fill:#e4f3f7;}.cls-92{fill:#e7f4f8;}.cls-93{fill:#ebf6f9;}.cls-94{fill:#eef7fa;}.cls-95{fill:#f0f8fb;}.cls-96{fill:#f4fafc;}.cls-97{fill:#f8fbfd;}.cls-98{fill:#fbfdff;}</style>
  <clipPath id="clip-path">
   <path id="path1" class="cls-1" d="m960.71 902.58c15.95 17.26 32.47 34 49.33 50.31l1.12 1.1-1.43 0.62c-3.66 1.59-7.32 3.14-11 4.62l-0.64 0.26-0.49-0.48q-19.66-19.14-38.55-39.01c-1.66 15.11-3.92 30.21-6.88 45.36-0.63 3.15-1.27 6.3-1.94 9.44l-0.14 0.63-0.61 0.16q-9.71 2.54-19.51 4.62l-1.6 0.34 0.36-1.6q2-8.71 3.73-17.49a547.47 547.47 0 0 0 8.3-61.34q-12.48-13.92-24.38-28.34c-12.07 26-25.48 51.36-39.66 76.25q10.41 18.24 21.32 36.17l0.84 1.38-1.6 0.2q-6 0.78-12 1.38l-0.65 0.07-0.35-0.57q-7.66-12.71-15.1-25.56-8.1 13.86-16.46 27.55l-0.31 0.49h-0.57c-2.85 0.06-5.71 0.11-8.56 0.11-1.46 0-2.9 0-4.34-0.05h-1.85l1-1.58q12.09-19.65 23.65-39.61c-12.6-22.41-24.54-45.2-35.43-68.49-17 19.92-34.87 39.08-53.28 57.69q6.15 23.43 13.08 46.64l0.46 1.56-1.62-0.23c-4-0.56-8-1.17-12-1.85l-0.64-0.11-0.19-0.64q-5.07-17.28-9.77-34.7-13.61 13.45-27.51 26.59l-0.43 0.4-0.56-0.15q-6.18-1.68-12.29-3.53l-1.72-0.53 1.32-1.24q18.92-17.79 37.34-36.13c-7.14-27.8-13.37-55.87-18.11-84.18-21.05 15-42.84 29.05-65 42.36-0.2 20.41 0.08 40.81 0.68 61.21v1.66l-1.52-0.67c-3.73-1.66-7.44-3.34-11.13-5.11l-0.57-0.28v-0.64c-0.42-16.14-0.65-32.27-0.58-48.42q-21.27 12.44-43 24.15l-0.54 0.31-0.53-0.35c-3.48-2.24-6.93-4.55-10.35-6.9l-1.42-1 1.51-0.81c18.33-9.9 36.52-20.07 54.44-30.68 0.38-23.62 1.43-47.24 3.47-70.78-22.45 8.14-45.23 15.34-68.21 21.88-5.64 19.96-10.78 40.03-15.64 60.21l-0.39 1.62-1.28-1c-3.17-2.58-6.32-5.19-9.41-7.87l-0.49-0.41 0.16-0.62q5.8-24 12.34-47.82-24.18 6.55-48.56 12.34l-0.61 0.14-0.41-0.46c-2.77-3.07-5.49-6.2-8.16-9.35l-1.11-1.31 1.67-0.39c20.53-4.84 41-10 61.32-15.65 7.21-24.94 15.22-49.66 24.43-73.93-26.47 2.54-53.06 3.79-79.64 4.18-10.53 17.65-20.62 35.56-30.43 53.63l-0.81 1.49-1-1.4q-3.53-5.11-6.9-10.33l-0.34-0.52 0.3-0.55q11.63-21.25 23.88-42.18c-16 0.05-31.93-0.18-47.89-0.6h-0.64l-0.28-0.57q-2.67-5.52-5.17-11.13l-0.58-1.56h1.67c20.27 0.6 40.54 0.89 60.82 0.7 15.08-24.94 31.09-49.37 48.45-72.8-28.34-3.86-56.46-9.41-84.3-16-14.27 14-28.21 28.31-41.94 42.84l-1.23 1.3-0.53-1.71c-1.25-4.06-2.42-8.14-3.55-12.23l-0.15-0.57 0.4-0.44q15.82-16.64 32.09-32.83-20.79-5.22-41.43-11.09l-0.65-0.18-0.1-0.66q-0.94-5.94-1.71-11.91l-0.21-1.58 1.54 0.44c17.75 5.08 35.58 9.87 53.52 14.24 18.03-17.52 36.66-34.52 56.02-50.62-23.88-10.74-47.24-22.68-70.16-35.34q-21.43 12.2-42.46 25.09l-1.57 1v-1.84c0-1.47-0.05-2.93-0.05-4.39 0-2.83 0-5.66 0.1-8.49v-0.58l0.5-0.3q15-9.1 30.23-17.88-14.07-8-28-16.31l-0.58-0.35 0.07-0.66q0.63-6 1.45-11.93l0.22-1.58 1.36 0.82q19.18 11.5 38.69 22.44c22.77-12.77 45.94-24.85 69.64-35.82-20.09-16.73-39.38-34.42-58.1-52.66q-19.35 5.06-38.54 10.64l-1.82 0.52 0.51-1.81c1.2-4.19 2.48-8.37 3.79-12.52l0.18-0.54 0.53-0.15q12.26-3.5 24.55-6.79-8.17-8.14-16.2-16.41l-0.47-0.49 0.25-0.62c1.45-3.73 2.95-7.45 4.51-11.13l0.62-1.46 1.1 1.14q12.29 12.71 24.87 25.13c23.36-6 46.91-11.27 70.64-15.57-19.09-28.14-36.59-57.36-53.15-87l-0.32-0.58 0.38-0.55q3.51-4.92 7.18-9.74l1-1.29 0.79 1.42c18 32.58 37.19 64.64 58.31 95.33q21.93-3.6 44.06-5.86c0.56-2.44 1.14-4.87 1.73-7.31-24.56-40.79-45.82-82.16-61.18-127.34l-1.3-3.85 0.47-0.46q7.14-6.85 14.61-13.37l1.2-1.05 0.49 1.52q1.71 5.39 3.56 10.74 6.21 18.12 13.64 35.48c21.41 6.22 43 12.83 63.88 20.4-2-23.8-3.11-47.67-3.47-71.55q-20.28-12.09-41-23.46l-1.48-0.82 1.4-1c3.38-2.33 6.81-4.63 10.27-6.86l0.53-0.34 0.54 0.31q14.88 8.28 29.56 16.89 0-17.17 0.28-34.34v-0.62l0.55-0.29c3.67-1.93 7.37-3.82 11.1-5.64l1.55-0.76v1.71c-0.35 15.92-0.5 31.83-0.35 47.73 22.21 13.42 44 27.56 65.09 42.73 4.4-26.22 10.08-52.23 16.57-78q-16-16.49-32.6-32.43l-1.24-1.2 1.64-0.55c3.95-1.33 7.92-2.57 11.91-3.78l0.59-0.18 0.44 0.43q11.67 11.34 23.09 22.93 4.11-15.57 8.57-31l0.17-0.61 0.61-0.13c4-0.86 8.08-1.67 12.15-2.4l1.61-0.32-0.48 1.62q-6.33 21.81-12 43.79c20.19 21 39.64 42.82 57.78 65.65 11.07-26.38 23.7-52.11 37.26-77.28q-10.93-19.4-22.48-38.43l-0.93-1.54 1.8-0.05c4.12-0.12 8.25-0.23 12.37-0.2h0.94l0.3 0.51q7.82 13 15.38 26.23 7-12.59 14.27-25l0.33-0.56h0.65q6.06 0.45 12.09 1.1l1.62 0.17-0.82 1.4q-10.57 18-20.6 36.23c12.25 22 23.84 44.39 34.38 67.26 16.57-20.28 34.14-39.75 52.3-58.61q-4.54-17.42-9.52-34.71l-0.5-1.76 1.76 0.46q6.21 1.56 12.36 3.31l0.57 0.17 0.15 0.56q3 10.51 5.8 21.08 7.21-7.32 14.53-14.52l0.47-0.47 0.61 0.22c3.83 1.33 7.64 2.73 11.43 4.17l1.53 0.59-1.17 1.14q-11.92 11.65-23.56 23.59c6.38 25.31 12.08 50.88 16.53 76.55 21.37-15.07 43.45-29.13 65.92-42.49q0.09-14.72-0.12-29.43v-1.86l1.61 0.94c3.72 2.16 7.41 4.4 11.06 6.68l0.49 0.3v0.57q0.08 7.56 0.07 15.13 6.09-3.52 12.24-7l0.56-0.32 0.54 0.37q5 3.42 10 7l1.33 1-1.43 0.8q-11.7 6.58-23.28 13.36c-0.29 24.12-1.26 48.25-3.24 72.28 30.35-10.54 61.26-19.46 92.37-27.43l0.61-0.16 0.43 0.48q4.11 4.59 8.06 9.3l1.09 1.28-1.63 0.42c-34.47 8.69-68.73 18.51-102.24 30.41q-2.21 22.13-5.75 44.07 3.33 1.76 6.61 3.57c45.79-13.18 91.21-22.89 138.84-26.14l1.37-0.09 0.34 0.55q5.16 8.63 9.92 17.48l0.78 1.46-1.65 0.08c-3.14 0.17-6.28 0.35-9.42 0.57-11.82 0.81-23.48 2-35 3.61-12.87 21.42-26.24 43.08-40.55 63.57 23.52 4.17 46.86 9.33 70 15.16q18.4-17.92 36.16-36.52l1.15-1.2 0.59 1.55q2.18 5.71 4.19 11.48l0.21 0.61-0.45 0.47q-13.36 13.88-27.09 27.42c12.8 3.37 25.55 6.95 38.26 10.65l0.59 0.17 0.14 0.59c1 4.07 1.9 8.15 2.75 12.25l0.35 1.71-1.68-0.49c-17-5-34.14-9.82-51.33-14.25-18.72 18-38 35.39-58.12 51.81 24.19 11 47.84 23.25 71.06 36.2q22.86-12.76 45.25-26.41l1.45-0.88 0.14 1.69q0.51 6.15 0.87 12.33v0.63l-0.54 0.32q-16.83 10.14-33.91 19.84 17.19 9.85 34.11 20.15l0.53 0.33v0.62c-0.19 4.14-0.41 8.28-0.73 12.42l-0.12 1.72-1.47-0.9q-22.59-13.83-45.62-26.9c-25.54 14.05-51.63 27.2-78.37 38.81 22.61 17.52 44.19 36.39 65 56 17.19-4.42 34.29-9.2 51.31-14.21l1.69-0.5-0.37 1.71c-0.86 4.12-1.81 8.2-2.81 12.29l-0.14 0.58-0.58 0.17q-18.93 5.52-38 10.57 13.62 13.18 26.85 26.73l0.45 0.47-0.21 0.62q-2 5.73-4.21 11.42l-0.59 1.53-1.14-1.18q-17.68-18.19-36-35.76c-24.41 6.13-49 11.53-73.87 15.8 15.31 21.25 29.57 43.27 43.09 65.68 15.3 0.11 30.6-0.06 45.91-0.41h1.79l-0.85 1.59q-3 5.6-6.18 11.11l-0.3 0.51h-0.59q-16 0.32-32 0.31 7.67 13.08 15.06 26.32l0.32 0.57-0.37 0.53q-3.45 5-7 9.91l-1 1.32-0.79-1.44q-10.44-18.8-21.42-37.31c-26.09-0.32-52.21-1.45-78.21-3.8 9 24.54 16.89 49.51 24 74.67q19.2 5.28 38.54 10l1.79 0.44-1.29 1.31q-4.5 4.59-9.12 9.06l-0.42 0.39-0.56-0.13q-12.48-3.13-24.91-6.46 3.13 11.61 6.07 23.28l0.16 0.64-0.5 0.42q-4.65 3.93-9.4 7.7l-1.27 1-0.4-1.59q-4.42-17.81-9.29-35.5c-23.21-6.51-46.26-13.69-69-21.83 2.57 35.28 3 70.71 2.45 106.07v0.64l-0.59 0.28c-3.66 1.78-7.37 3.48-11.09 5.15l-1.51 0.68v-1.66c0.78-38.7 0.31-77.52-2.75-116.12q-20.9-7.9-41.2-16.98-2.57 2.74-5.16 5.46a777.17 777.17 0 0 1-2.14 78.14zm-228.13-117.42c-17.37 8.42-35.16 16-53.16 22.91-2.11 22.35-3 45.21-3.55 67.73 21.24-12.94 42.09-26.59 62.22-41.21-2.43-16.39-4.31-32.88-5.51-49.43zm50.42-27.78q-18.4 11.55-37.74 21.46c1 15.7 2.63 31.35 4.79 46.92 14.45-10.94 28.49-22.44 42-34.6q-5.09-16.73-9-33.78zm28.15-0.31c-5 0.14-10 0.15-14.84 0.08q2.87 12.14 6.35 24.12 12.45-11.88 24-24.63-7.75 0.52-15.55 0.43zm56.59-7.79-1 0.28c-4.36 1.27-8.78 2.37-13.22 3.31 22.88 46.82 54.31 89.65 88.48 128.85 1-20.22 1.19-40.53 0.76-61.06l-0.1-4.21 2.93-3c39.5-40.56 72.85-88.9 89.48-143.44 12.71-41.64 15.16-86.09 3.55-128.27-19.47-70.58-78.62-120.82-151.41-128.52-68.21-7.22-130.99 25.87-152.21 93.44-16.28 51.85 2 116.49 58.89 131.73 24.74 6.63 50.32 1.33 72-11.78l0.87-0.52 1.1 1.71-0.84 0.57c-24 16.43-53.43 23.9-81.94 16.26-27.25-7.3-47.82-26.84-59.08-52.41-12.29-27.91-12.35-60.09-3.3-88.94 27-86.13 111.63-124.7 196.52-103.68 25.61 6.35 53.08 20.93 75.27 35.15 38.85-1.54 77.81 1.74 116.17 7.84 13.39-18.86 25.92-38.83 38-58.62a750.67 750.67 0 0 0-86.75 20.35l-4 1.18-3.66-2.06c-86.58-48.44-196.15-72.55-286.54-19.53-63 36.94-96.34 107.35-85 179.48 10.68 67.75 58.89 119.82 129.65 122.84 54.29 2.31 112-32.07 112-91 0-25.62-11.73-49-30-66.53l-0.73-0.71 1.36-1.51 0.78 0.67c22.1 18.92 36.91 45.37 36.91 74.94 0 28.21-13.55 53.13-35.34 70.63-23.78 19.09-54.84 27.47-85.06 26.21-90.21-3.8-149.33-75.58-151-163-0.5-26.38 6.47-56.68 14.46-81.8-11.54-37.13-18.45-75.62-22.49-114.25-19-7.06-38.73-13.26-58.3-19.1a765.46 765.46 0 0 0 40.87 75.84l2.19 3.6-1 4.07c-24.49 96.21-19.35 208.18 55.29 281.82 52.08 51.36 128.54 65.3 195.35 35.61 62.3-27.69 100.39-88.4 85.1-157-6.16-27.63-21.25-53.43-44.39-70.16-21.14-15.29-47-21.29-72.46-14.48-24.75 6.63-44.26 24-56.5 46.21l-0.49 0.89-1.81-0.93 0.44-0.92c12.56-26.25 34.28-47.39 62.83-55 27.21-7.29 54.87-0.64 77.37 15.85 24.65 18.07 40.72 45.8 47.33 75.37 19.56 87.57-34 163.24-117.34 187.76zm196.17-183.79a601.22 601.22 0 0 0 51.72-35.85c-14.56-6.15-29.34-11.81-44.31-16.85q-7.59 8.34-15.51 16.38c0.74 2.4 1.46 4.82 2.13 7.25a226.7 226.7 0 0 1 6 29.07zm120-94.67c-22.26-5.44-44.69-10.23-67.29-14.05-11.33 15.61-23.26 30.82-35.88 45.42 15.77 5.47 31.31 11.61 46.63 18.25 19.56-15.7 38.34-32.37 56.54-49.62zm-152.95 6.43q4 5.92 7.55 12.13 14.54 3.74 28.82 8.34c12.24-13.89 23.81-28.38 34.81-43.27-18.31-2.74-36.73-4.81-55.22-6q-7.53 14.61-16 28.77zm1.63-29.49q-13.31-0.51-26.63-0.3a188.76 188.76 0 0 1 16.61 18.35q5.19-8.93 10-18.05zm88.85 159.54c26.23-11.08 51.81-23.72 76.83-37.27-22.53-12.36-45.49-24-69-34.47a624.62 624.62 0 0 1-56 39.46c16.58 9.93 32.6 20.77 48.12 32.28zm-74.84-102.2q2.34 5.11 4.4 10.35 3.38-3.5 6.69-7.07-5.54-1.69-11.09-3.28zm19.26 80.64a249.8 249.8 0 0 1-1.46 42.54c14.48-4.49 28.78-9.61 42.88-15.19-13.41-9.69-27.21-18.86-41.42-27.35zm53.72 36.46c-16.24 6.66-32.74 12.71-49.49 18a629.62 629.62 0 0 1 42 50.64c23.93-3.91 47.68-8.93 71.22-14.67-20.4-18.94-41.57-37.11-63.76-53.94zm-58.61 27.35a291.49 291.49 0 0 1-14.54 48.83c17.06-1 34.09-2.89 51-5.31-11.5-15-23.62-29.63-36.47-43.52zm87.5 118.54c-13.22-21.58-27.16-42.73-42.13-63.15-18.66 2.86-37.43 5-56.27 6.29 8.45 17.19 16.06 34.8 23 52.65 25.06 2.46 50.24 3.73 75.4 4.21zm-110.14-51.09a354.77 354.77 0 0 1-21.49 39.08q20.65 3.76 41.53 6.19c-6.13-15.33-12.77-30.46-20-45.27zm25.36 59c-16.65-1.81-33.24-4.16-49.71-7.19 3.29 19.13 5.7 38.43 7.43 57.77 21.7 7.95 43.75 15 66 21.37-7-24.26-14.78-48.32-23.68-72zm-61.48 1.59q-11.78 16.17-25 31.19 15.15 6.71 30.62 12.68-2.13-22-5.6-43.87zm-343.72-99.36a603.69 603.69 0 0 0-26.86 56.9c15.68-2 31.31-4.43 46.8-7.56q2.4-11 5.25-21.94-2.79-2.57-5.48-5.22a226.63 226.63 0 0 1-19.71-22.18zm-32.4 70.77c-9.09 23.37-17 47.19-24.16 71.23 22-6.42 43.82-13.48 65.3-21.46 2-19.2 4.73-38.33 8.37-57.28-16.4 3.14-32.92 5.6-49.51 7.51zm54.84 44.53c17.23-6.78 34.22-14.2 50.81-22.43-0.52-11-0.73-21.94-0.56-32.9q-6.43-3.13-12.61-6.73-14.46 4-29.13 7.19c-3.66 18.15-6.42 36.47-8.51 54.87zm86.78-42a187.86 187.86 0 0 1-23.56-7.58q0 10.32 0.36 20.64 11.78-6.22 23.2-13.06zm-179.92-80.76c-17.17 22.71-33 46.44-47.91 70.69 25.7-0.57 51.41-2 77-4.63a628 628 0 0 1 28.75-62.17c-19.32-0.31-38.62-1.69-57.81-3.89zm115.91 51.08q-4.58-3.26-9-6.76c-0.78 3.15-1.54 6.3-2.26 9.46q5.64-1.27 11.24-2.7zm-57-60.21a250.4 250.4 0 0 1-20-37.57q-15.45 16.71-29.54 34.61c16.46 1.68 33 2.73 49.54 3zm-92.59-67.86c-18.77 15.35-36.83 31.58-54.35 48.32 27.14 6.21 54.56 11.36 82.19 14.84 10.74-13.89 22-27.38 33.87-40.31a631.55 631.55 0 0 1-61.71-22.85zm53.11-39.4c-14.26 9.45-28.08 19.55-41.53 30.11 17.48 7.28 35.31 13.84 53.31 19.51a290.72 290.72 0 0 1-11.82-49.57zm-9.59-9.3c-15.91-10.67-31.3-22.11-46.24-34.1-22.93 10.39-45.39 21.88-67.39 34.02 22.24 12.08 44.9 23.44 68.06 33.63 14.74-11.8 29.91-23.07 45.59-33.58zm7.22-10.87a356.58 356.58 0 0 1-0.93-44.58c-13.18 4.69-26.2 9.86-39.06 15.39 13 10.22 26.28 20 40 29.19zm-107.94-88.88c18.19 17.51 36.95 34.46 56.49 50.47 15.31-6.76 30.86-13 46.64-18.63-12.43-14.93-24.15-30.43-35.32-46.31-22.78 4-45.39 8.89-67.81 14.47zm108.93 18.36c1.41-13.26 3.46-26.45 6.07-39.53q-16.49 1.77-32.86 4.33 12.86 18 26.79 35.2zm178.25-110.38a602.28 602.28 0 0 0-48-40.67c-2.17 15.66-3.82 31.39-4.82 47.17q10 5.16 19.84 10.75c2.13-1.36 4.28-2.67 6.45-3.95a229 229 0 0 1 26.53-13.3zm-59.93-49.6c-20.22-14.82-41.18-28.65-62.55-41.77 0.51 22.91 1.68 45.82 3.83 68.63 18 6.91 35.79 14.49 53.17 22.91 1.2-16.66 3.1-33.25 5.55-49.77zm-57.16 41.45c2.09 18.4 4.87 36.72 8.53 54.88q16.08 3.49 31.92 8 4.7-5.4 9.75-10.44-0.14-15 0.61-30c-16.59-8.24-33.58-15.65-50.81-22.43zm11.54 68.91q3 13 6.61 25.8a189.48 189.48 0 0 1 13.42-20.8q-10-2.7-20-5zm131.06-127.07c-17.49-22.47-36.31-43.9-55.89-64.58-6.11 25-11.4 50.17-15.44 75.55a626.36 626.36 0 0 1 52.6 43.86c5.3-18.58 11.63-36.86 18.73-54.83zm-79.34 98.7c2.88-2.39 5.84-4.71 8.85-6.93q-4.26-2.36-8.56-4.63-0.21 5.78-0.29 11.56zm114.37-49.07c-8.09-12.83-16.73-25.32-25.77-37.49-5.89 15.46-11.18 31.15-15.69 47.07a250.53 250.53 0 0 1 41.46-9.58zm-20.16-51.74c10.64 14 20.75 28.34 30.17 43.16a633.51 633.51 0 0 1 38-53.71c-10-22.1-21-43.74-32.6-65-13 24.61-25.09 49.76-35.61 75.54zm41.58 49.55a291.07 291.07 0 0 1 51 1.4c-5.45-16.21-11.62-32.17-18.35-47.9-11.54 15-22.49 30.48-32.6 46.5zm41.78-58.17c7.58 17.28 14.54 34.86 20.63 52.73 14.42-12.61 29.46-24.52 44.91-35.84-4.11-24.85-9.4-49.49-15.45-73.93-17.43 18.36-34.25 37.3-50.09 57zm29.26 62.51a355.67 355.67 0 0 1 43.3 10.64c-1.12-13.95-2.74-27.86-4.76-41.71-13.22 9.88-26.12 20.21-38.54 31.07zm113.79-81.26c-21.62 13-42.85 26.78-63.37 41.5 2.56 16.55 4.58 33.18 5.92 49.87 17.64-8.13 35.65-15.45 53.88-22.12 2.06-23 3.15-46.14 3.57-69.25zm-45.88 100.48c12.44 4.8 24.64 10.2 36.6 16.1q2.57-16.38 4.32-32.86-20.74 7.76-40.92 16.76zm-169.46 510.41c10.33 22.53 21.7 44.6 33.71 66.29 13.63-24.25 26.47-49 38-74.28-11.39-14.42-22.25-29.18-32.39-44.42-12.22 18.12-25.43 35.56-39.32 52.44zm-6-13.36c13.29-16.42 25.91-33.4 37.55-51a493.55 493.55 0 0 1-25.17-45 486.5 486.5 0 0 1-35.09 36.14 632.44 632.44 0 0 0 22.71 59.86zm-33.29-50.24c-14.16 12.53-28.92 24.37-44.1 35.64 4.37 27.55 10.23 54.87 17 81.93 17.68-18.08 34.82-36.7 51.09-56.07-8.95-20.1-17.08-40.61-24-61.5z"/>
  </clipPath>
 </defs>
 <title id="title1">Vertical - Color</title>
 <g id="Artwork" transform="translate(-146 -155.56)">
  <path id="path2" d="m498.32 1159.6q-17 0-29.9 0.64c-12.75 0.69-20.51 4.58-23.15 11.77q-2.77 7.32-2.76 26.93c0 12.8 0.76 21.89 2.31 27.11q3.45 12 21.92 13.31c7 0.53 15.65 0.75 26.05 0.75q20.49 0 29.06-0.18a113.85 113.85 0 0 0 17.57-1.67 23 23 0 0 0 9.41-4.13c4.25-3.31 6.7-10 7.46-20 0.26-4 0.41-9.37 0.41-16.18q0-18.7-2.32-25.79a14.13 14.13 0 0 0-6.86-8.51c-3.41-1.84-8.17-2.94-14.3-3.25-8.23-0.54-19.89-0.77-34.9-0.77zm-3.63-36.9q55.35 0 68.44 2.32c8.59 1.55 15.47 4.07 20.69 7.59a34.62 34.62 0 0 1 12 14.37 65.09 65.09 0 0 1 5.86 23.25q0.72 11.09 0.74 31 0 28.14-3.52 41.67-7.87 29.65-45.85 32.79-17.42 1.3-55.4 1.32-32.9 0-51.2-1c-23.18-1.36-38-9.37-44.5-24.15a71.51 71.51 0 0 1-5.45-24.05q-0.67-11.74-0.68-27.57 0-27.73 1.89-37.66c2.87-15.55 10.18-26.09 21.8-31.7a73.69 73.69 0 0 1 25-6.53c11.57-1.08 28.32-1.67 50.17-1.67zm198.56 78.77h66.92c10.13 0 16.64-1.41 19.63-4.19 3.09-3 4.64-7.67 4.64-14 0-7.6-1.17-13-3.43-16.25q-3-4.1-10.22-5.46a79.32 79.32 0 0 0-10.62-0.41h-66.92zm244.34 74v-113.9h-67.36v-37.31h180.77v37.31h-67.32v113.91zm-156.54 0-34.41-37.22h-53.39v37.22h-45.84v-151.21h115.87c11.86 0 20 0.18 24.45 0.56 9.43 0.79 16.87 2.62 22.39 5.42a32 32 0 0 1 13.31 12.72c4.59 7.69 6.85 19.87 6.85 36.46s-1.69 28.74-5.07 36.57q-5.81 13.37-18.84 18.37a40.79 40.79 0 0 1-6.23 1.66l36.48 39.45zm571.28 0 41.62-44.24 41.62 44.24h59l-70.69-76.08 70.69-75.14h-60.8l-39.77 42.9-39.87-42.89h-60.8l70.71 75.14-70.71 76.08zm-211.33-92.7h87v33.19h-87v25.17h114.14v34.34h-159.51v-151.21h159.54v34.32h-114.17zm-914.39 92.71-80.61-151.22h50.76l59.7 114.19 61-114.19h51.32l-83.78 151.22z"/>
  <g id="g130" class="cls-2" clip-path="url(#clip-path)">
   <polygon id="polygon2" class="cls-3" points="1353.7 867.21 548.49 1083 332.73 277.77 1138 61.98"/>
   <path id="path3" class="cls-4" d="m847.78 571.12a4.88 4.88 0 1 0-3.44 6 4.88 4.88 0 0 0 3.44-6z"/>
   <path id="path4" class="cls-4" d="m846.21 571.54a3.25 3.25 0 1 1-4-2.29 3.25 3.25 0 0 1 4 2.29zm4.71-1.26a8.13 8.13 0 1 0-5.75 10 8.13 8.13 0 0 0 5.75-10z"/>
   <path id="path5" class="cls-4" d="m849.35 570.7a6.5 6.5 0 1 1-8-4.6 6.51 6.51 0 0 1 8 4.6zm4.71-1.26a11.37 11.37 0 1 0-8 13.94 11.38 11.38 0 0 0 8-13.94z"/>
   <path id="path6" class="cls-4" d="m852.49 569.86a9.75 9.75 0 1 1-12-6.9 9.76 9.76 0 0 1 12 6.9zm4.71-1.26a14.63 14.63 0 1 0-10.34 17.92 14.64 14.64 0 0 0 10.34-17.92z"/>
   <path id="path7" class="cls-5" d="m855.63 569a13 13 0 1 1-15.93-9.2 13 13 0 0 1 15.93 9.2zm4.71-1.26a17.88 17.88 0 1 0-12.64 21.9 17.87 17.87 0 0 0 12.64-21.9z"/>
   <path id="path8" class="cls-5" d="m858.77 568.18a16.25 16.25 0 1 1-19.9-11.5 16.26 16.26 0 0 1 19.9 11.5zm4.71-1.27a21.13 21.13 0 1 0-14.94 25.9 21.13 21.13 0 0 0 14.94-25.9z"/>
   <path id="path9" class="cls-6" d="m861.91 567.33a19.5 19.5 0 1 1-23.91-13.79 19.52 19.52 0 0 1 23.89 13.79zm4.71-1.26a24.38 24.38 0 1 0-17.23 29.87 24.39 24.39 0 0 0 17.23-29.87z"/>
   <path id="path10" class="cls-6" d="m865.05 566.49a22.76 22.76 0 1 1-27.87-16.1 22.76 22.76 0 0 1 27.87 16.1zm4.71-1.25a27.63 27.63 0 1 0-19.53 33.85 27.62 27.62 0 0 0 19.53-33.85z"/>
   <path id="path11" class="cls-6" d="m868.18 565.66a26 26 0 1 1-31.84-18.4 26 26 0 0 1 31.84 18.4zm4.72-1.27a30.88 30.88 0 1 0-21.84 37.84 30.9 30.9 0 0 0 21.84-37.84z"/>
   <path id="path12" class="cls-6" d="m871.33 564.81a29.25 29.25 0 1 1-35.83-20.7 29.27 29.27 0 0 1 35.83 20.7zm4.71-1.26a34.13 34.13 0 1 0-24.13 41.82 34.13 34.13 0 0 0 24.09-41.82z"/>
   <path id="path13" class="cls-7" d="m874.47 564a32.51 32.51 0 1 1-39.82-23 32.51 32.51 0 0 1 39.82 23zm4.71-1.26a37.38 37.38 0 1 0-26.43 45.8 37.4 37.4 0 0 0 26.43-45.8z"/>
   <path id="path14" class="cls-8" d="m877.6 563.13a35.75 35.75 0 1 1-43.79-25.3 35.76 35.76 0 0 1 43.79 25.3zm4.72-1.27a40.63 40.63 0 1 0-28.73 49.79 40.65 40.65 0 0 0 28.73-49.79z"/>
   <path id="path15" class="cls-8" d="m880.75 562.29a39 39 0 1 1-47.75-27.6 39 39 0 0 1 47.77 27.6zm4.7-1.26a43.88 43.88 0 1 0-31 53.76 43.87 43.87 0 0 0 31-53.76z"/>
   <path id="path16" class="cls-9" d="m883.89 561.44a42.26 42.26 0 1 1-51.76-29.89 42.27 42.27 0 0 1 51.76 29.89zm4.71-1.25a47.13 47.13 0 1 0-33.32 57.74 47.15 47.15 0 0 0 33.32-57.74z"/>
   <path id="path17" class="cls-10" d="m887 560.61a45.5 45.5 0 1 1-55.73-32.2 45.51 45.51 0 0 1 55.73 32.2zm4.72-1.27a50.38 50.38 0 1 0-35.62 61.73 50.39 50.39 0 0 0 35.62-61.73z"/>
   <path id="path18" class="cls-11" d="m890.17 559.76a48.76 48.76 0 1 1-59.72-34.49 48.77 48.77 0 0 1 59.72 34.49zm4.7-1.26a53.63 53.63 0 1 0-37.87 65.72 53.65 53.65 0 0 0 37.91-65.72z"/>
   <path id="path19" class="cls-12" d="m893.31 558.92a52 52 0 1 1-63.71-36.79 52 52 0 0 1 63.71 36.79zm4.71-1.26a56.88 56.88 0 1 0-40.22 69.69 56.9 56.9 0 0 0 40.2-69.69z"/>
   <path id="path20" class="cls-13" d="m896.44 558.08a55.25 55.25 0 1 1-67.68-39.08 55.25 55.25 0 0 1 67.68 39.1zm4.72-1.27a60.14 60.14 0 1 0-42.52 73.69 60.16 60.16 0 0 0 42.52-73.69z"/>
   <path id="path21" class="cls-13" d="m899.59 557.24a58.51 58.51 0 1 1-71.67-41.39 58.54 58.54 0 0 1 71.67 41.39zm4.7-1.26a63.38 63.38 0 1 0-44.81 77.65 63.39 63.39 0 0 0 44.81-77.63z"/>
   <path id="path22" class="cls-14" d="m902.72 556.4a61.75 61.75 0 1 1-75.64-43.7 61.77 61.77 0 0 1 75.64 43.7zm4.72-1.26a66.64 66.64 0 1 0-47.11 81.64 66.66 66.66 0 0 0 47.11-81.64z"/>
   <path id="path23" class="cls-15" d="m905.86 555.56a65 65 0 1 1-79.62-46 65 65 0 0 1 79.62 46zm4.71-1.27a69.88 69.88 0 1 0-49.4 85.63 69.89 69.89 0 0 0 49.4-85.63z"/>
   <path id="path24" class="cls-16" d="m909 554.72a68.26 68.26 0 1 1-83.61-48.3 68.29 68.29 0 0 1 83.61 48.3zm4.7-1.27a73.13 73.13 0 1 0-51.7 89.61 73.14 73.14 0 0 0 51.7-89.61z"/>
   <path id="path25" class="cls-16" d="m912.14 553.87a71.51 71.51 0 1 1-87.59-50.6 71.53 71.53 0 0 1 87.59 50.6zm4.72-1.26a76.39 76.39 0 1 0-54 93.6 76.4 76.4 0 0 0 54-93.6z"/>
   <path id="path26" class="cls-17" d="m915.28 553a74.76 74.76 0 1 1-91.57-52.89 74.78 74.78 0 0 1 91.57 52.89zm4.71-1.26a79.63 79.63 0 1 0-56.3 97.57 79.66 79.66 0 0 0 56.31-97.54z"/>
   <path id="path27" class="cls-18" d="m918.42 552.19a78 78 0 1 1-95.55-55.19 78 78 0 0 1 95.55 55.2zm4.71-1.26a82.88 82.88 0 1 0-58.6 101.56 82.88 82.88 0 0 0 58.6-101.56z"/>
   <path id="path28" class="cls-19" d="m921.56 551.35a81.26 81.26 0 1 1-99.56-57.49 81.28 81.28 0 0 1 99.53 57.49zm4.71-1.26a86.14 86.14 0 1 0-60.89 105.54 86.16 86.16 0 0 0 60.89-105.54z"/>
   <path id="path29" class="cls-20" d="m924.7 550.51a84.51 84.51 0 1 1-103.51-59.8 84.53 84.53 0 0 1 103.51 59.8zm4.71-1.26a89.39 89.39 0 1 0-63.19 109.52 89.4 89.4 0 0 0 63.19-109.52z"/>
   <path id="path30" class="cls-21" d="m927.84 549.67a87.76 87.76 0 1 1-107.49-62.1 87.78 87.78 0 0 1 107.49 62.1zm4.71-1.27a92.64 92.64 0 1 0-65.49 113.51 92.65 92.65 0 0 0 65.49-113.51z"/>
   <path id="path31" class="cls-22" d="m931 548.82a91 91 0 1 1-111.47-64.39 91 91 0 0 1 111.47 64.39zm4.71-1.26a95.89 95.89 0 1 0-67.81 117.49 95.9 95.9 0 0 0 67.79-117.49z"/>
   <path id="path32" class="cls-23" d="m934.12 548a94.26 94.26 0 1 1-115.46-66.69 94.3 94.3 0 0 1 115.46 66.69zm4.71-1.25a99.13 99.13 0 1 0-70.09 121.46 99.16 99.16 0 0 0 70.09-121.46z"/>
   <path id="path33" class="cls-24" d="m937.26 547.15a97.51 97.51 0 1 1-119.44-69 97.53 97.53 0 0 1 119.44 69zm4.71-1.27a102.39 102.39 0 1 0-72.39 125.45 102.41 102.41 0 0 0 72.42-125.45z"/>
   <path id="path34" class="cls-25" d="m940.4 546.3a100.76 100.76 0 1 1-123.4-71.3 100.79 100.79 0 0 1 123.4 71.3zm4.71-1.26a105.64 105.64 0 1 0-74.69 129.43 105.66 105.66 0 0 0 74.69-129.47z"/>
   <path id="path35" class="cls-26" d="m943.54 545.46a104 104 0 1 1-127.4-73.59 104 104 0 0 1 127.4 73.59zm4.71-1.26a108.89 108.89 0 1 0-77 133.42 108.92 108.92 0 0 0 77-133.42z"/>
   <path id="path36" class="cls-26" d="m946.68 544.62a107.27 107.27 0 1 1-131.38-75.89 107.3 107.3 0 0 1 131.38 75.89zm4.71-1.26a112.14 112.14 0 1 0-79.28 137.39 112.15 112.15 0 0 0 79.28-137.39z"/>
   <path id="path37" class="cls-27" d="m949.82 543.78a110.51 110.51 0 1 1-135.36-78.2 110.54 110.54 0 0 1 135.36 78.2zm4.71-1.26a115.39 115.39 0 1 0-81.53 141.38 115.41 115.41 0 0 0 81.58-141.38z"/>
   <path id="path38" class="cls-27" d="m953 542.93a113.77 113.77 0 1 1-139.35-80.48 113.81 113.81 0 0 1 139.35 80.48zm4.71-1.25a118.64 118.64 0 1 0-83.92 145.32 118.67 118.67 0 0 0 83.88-145.35z"/>
   <path id="path39" class="cls-28" d="m956.1 542.1a117 117 0 1 1-143.33-82.8 117 117 0 0 1 143.33 82.8zm4.71-1.27a121.89 121.89 0 1 0-86.18 149.35 121.92 121.92 0 0 0 86.18-149.35z"/>
   <path id="path40" class="cls-29" d="m959.24 541.25a120.26 120.26 0 1 1-147.31-85.09 120.3 120.3 0 0 1 147.31 85.09zm4.76-1.25a125.14 125.14 0 1 0-88.48 153.33 125.17 125.17 0 0 0 88.48-153.33z"/>
   <path id="path41" class="cls-29" d="m962.37 540.41a123.51 123.51 0 1 1-151.28-87.41 123.54 123.54 0 0 1 151.28 87.39zm4.72-1.26a128.39 128.39 0 1 0-90.77 157.31 128.41 128.41 0 0 0 90.77-157.31z"/>
   <path id="path42" class="cls-30" d="m965.52 539.57a126.77 126.77 0 1 1-155.27-89.69 126.81 126.81 0 0 1 155.27 89.69zm4.7-1.26a131.64 131.64 0 1 0-93.06 161.3 131.65 131.65 0 0 0 93.06-161.3z"/>
   <path id="path43" class="cls-31" d="m968.66 538.73a130 130 0 1 1-159.25-92 130.06 130.06 0 0 1 159.25 92zm4.71-1.26a134.89 134.89 0 1 0-95.37 165.27 134.93 134.93 0 0 0 95.37-165.27z"/>
   <path id="path44" class="cls-32" d="m971.79 537.89a133.27 133.27 0 1 1-163.22-94.3 133.31 133.31 0 0 1 163.22 94.3zm4.72-1.26a138.14 138.14 0 1 0-97.67 169.26 138.17 138.17 0 0 0 97.67-169.26z"/>
   <path id="path45" class="cls-32" d="m974.94 537.05a136.52 136.52 0 1 1-167.22-96.59 136.55 136.55 0 0 1 167.22 96.59zm4.7-1.27a141.39 141.39 0 1 0-99.96 173.22 141.42 141.42 0 0 0 100-173.24z"/>
   <path id="path46" class="cls-32" d="m978.08 536.21a139.77 139.77 0 1 1-171.2-98.9 139.83 139.83 0 0 1 171.2 98.9zm4.71-1.27a144.65 144.65 0 1 0-102.27 177.23 144.68 144.68 0 0 0 102.27-177.23z"/>
   <path id="path47" class="cls-32" d="m981.21 535.36a143 143 0 1 1-175.21-101.19 143 143 0 0 1 175.21 101.19zm4.72-1.26a147.9 147.9 0 1 0-104.56 181.21 147.93 147.93 0 0 0 104.56-181.21z"/>
   <path id="path48" class="cls-33" d="m984.36 534.52a146.27 146.27 0 1 1-179.17-103.52 146.33 146.33 0 0 1 179.17 103.52zm4.7-1.26a151.14 151.14 0 1 0-106.85 185.19 151.17 151.17 0 0 0 106.85-185.19z"/>
   <path id="path49" class="cls-33" d="m987.49 533.68a149.52 149.52 0 1 1-183.13-105.79 149.56 149.56 0 0 1 183.13 105.79zm4.72-1.26c-22.09-82.42-106.76-131.32-189.11-109.24a154.47 154.47 0 1 0 189.11 109.24z"/>
   <path id="path50" class="cls-34" d="m990.63 532.84a152.77 152.77 0 1 1-187.11-108.09 152.82 152.82 0 0 1 187.11 108.09zm4.71-1.26a157.68 157.68 0 0 0-193.09-111.58c-84.1 22.54-134 109-111.45 193.16a157.64 157.64 0 1 0 304.54-81.61z"/>
   <path id="path51" class="cls-34" d="m993.78 532a156.02 156.02 0 1 1-301.41 80.77c-22.31-83.27 27.07-168.86 110.3-191.16a156.05 156.05 0 0 1 191.11 110.39zm4.7-1.26c-23-85.87-111.24-136.85-197.07-113.84s-136.76 111.26-113.75 197.1 111.24 136.88 197.08 113.87 136.75-111.26 113.74-197.13z"/>
   <path id="path52" class="cls-34" d="m996.91 531.16a159.27 159.27 0 1 1-195.08-112.7c85-22.77 172.3 27.69 195.08 112.7zm4.72-1.27c-23.48-87.6-113.5-139.6-201.06-116.14s-139.52 113.51-116.05 201.12 113.48 139.61 201.05 116.13 139.53-113.5 116.06-201.11z"/>
   <path id="path53" class="cls-35" d="m1e3 530.31a162.56 162.56 0 0 1-114.9 199.14c-86.7 23.23-175.81-28.25-199.06-115s28.2-175.89 114.91-199.12 175.82 28.25 199.06 115zm4.71-1.26c-23.94-89.34-115.73-142.37-205-118.43s-142.32 115.75-118.38 205.1 115.74 142.37 205 118.43 142.29-115.75 118.35-205.1z"/>
   <path id="path54" class="cls-36" d="m1003.2 529.47c23.7 88.53-28.77 179.41-117.2 203.11s-179.34-28.81-203-117.28 28.77-179.42 117.2-203.12 179.29 28.82 203 117.29zm4.7-1.25c-24.4-91.09-118-145.14-209-120.75s-145 118-120.64 209.08 118 145.14 209 120.75 145-118 120.64-209.08z"/>
   <path id="path55" class="cls-36" d="m1006.3 528.64c24.17 90.21-29.33 182.92-119.49 207.09s-182.84-29.38-207.03-119.59 29.33-182.93 119.49-207.14 182.86 29.38 207 119.6zm4.72-1.27c-24.87-92.81-120.24-147.9-213-123s-147.82 120.22-122.95 213.03 120.23 147.9 213 123 147.81-120.24 122.95-213.06z"/>
   <path id="path56" class="cls-36" d="m1009.5 527.79c24.64 92-29.89 186.45-121.79 211.08s-186.38-30-211-121.9 29.9-186.44 121.8-211.07 186.36 29.94 211 121.89zm4.71-1.26c-25.34-94.53-122.47-150.66-216.98-125.34s-150.57 122.5-125.2 217.05 122.48 150.66 217 125.34 150.57-122.5 125.24-217.05z"/>
   <path id="path57" class="cls-37" d="m1012.6 527c25.1 93.68-30.45 190-124.09 215.06s-189.89-30.51-215-124.19 30.46-190 124.1-215.06 189.88 30.51 215 124.19zm4.71-1.26c-25.8-96.28-124.73-153.43-221-127.64s-153.32 124.7-127.5 220.98 124.72 153.43 221 127.64 153.33-124.75 127.53-221z"/>
   <path id="path58" class="cls-38" d="m1015.8 526.11c25.57 95.41-31 193.48-126.39 219s-193.4-31.08-219-126.49 31-193.48 126.39-219 193.41 31.07 219 126.49zm4.71-1.27c-26.26-98-127-156.18-224.94-129.93s-156.1 127-129.84 225 127 156.19 225 129.94 156.09-127 129.83-225z"/>
   <path id="path59" class="cls-38" d="m1018.9 525.27c26 97.15-31.58 197-128.68 223s-196.93-31.64-223-128.79 31.59-197 128.69-223 196.92 31.65 222.95 128.8zm4.71-1.26c-26.73-99.75-129.22-159-228.92-132.24s-158.86 129.23-132.14 229 129.22 158.95 228.92 132.23 158.87-129.26 132.14-229z"/>
   <path id="path60" class="cls-38" d="m1022 524.42c26.5 98.89-32.15 200.52-131 227s-200.39-32.2-226.89-131.08 32.15-200.52 131-227 200.42 32.2 226.89 131.08zm4.71-1.25c-27.16-101.49-131.44-161.72-232.88-134.54s-161.62 131.48-134.43 232.97 131.47 161.73 232.91 134.54 161.62-131.49 134.43-233z"/>
   <path id="path61" class="cls-39" d="m1025.2 523.59c27 100.62-32.71 204-133.28 231s-203.96-32.78-230.89-133.41 32.71-204 133.27-231 204 32.78 230.92 133.4zm4.71-1.27c-27.66-103.22-133.72-164.48-236.88-136.83s-164.39 133.73-136.74 237 133.74 164.45 236.89 136.8 164.39-133.75 136.73-237z"/>
   <path id="path62" class="cls-39" d="m1028.3 522.75c27.43 102.35-33.28 207.55-135.58 235s-207.47-33.37-234.9-135.75 33.28-207.55 135.58-235 207.48 33.33 234.9 135.69zm4.71-1.27c-28.12-105-136-167.25-240.87-139.14s-167.15 136-139 241 135.94 167.2 240.85 139.09 167.15-136 139-240.95z"/>
   <path id="path63" class="cls-39" d="m1031.4 521.9c27.89 104.1-33.84 211.1-137.88 238.96s-211-33.9-238.88-138 33.84-211.08 137.89-239 211 33.9 238.87 138zm4.71-1.26c-28.59-106.64-138.16-170.02-244.85-141.44s-169.91 138.24-141.31 244.93 138.21 170 244.85 141.44 169.91-138.24 141.33-244.93z"/>
   <path id="path64" class="cls-39" d="m1034.6 521.06c28.41 105.82-34.41 214.59-140.18 242.94s-214.5-34.46-242.85-140.28 34.44-214.6 140.17-242.95 214.5 34.47 242.86 140.29zm4.7-1.26c-29-108.43-140.44-172.78-248.82-143.74s-172.68 140.48-143.63 248.94 140.46 172.75 248.84 143.71 172.67-140.48 143.61-248.91z"/>
   <path id="path65" class="cls-39" d="m1037.7 520.22c28.82 107.56-35 218.11-142.47 246.92s-218-35-246.85-142.59 35-218.11 142.48-246.92 218 35 246.84 142.59zm4.71-1.26c-29.52-110.16-142.71-175.55-252.81-146s-175.44 142.69-145.92 252.85 142.7 175.55 252.81 146 175.48-142.69 145.92-252.81z"/>
   <path id="path66" class="cls-39" d="m1040.9 519.38c29.28 109.29-35.54 221.62-144.77 250.9s-221.54-35.6-250.82-144.89 35.53-221.63 144.77-250.9 221.53 35.59 250.82 144.89zm4.71-1.26c-30-111.9-145-178.31-256.8-148.34s-178.2 145-148.22 256.87 144.95 178.35 256.79 148.35 178.21-145 148.23-256.87z"/>
   <path id="path67" class="cls-40" d="m1044 518.54c29.75 111-36.1 225.14-147.08 254.88s-225-36.16-254.79-147.19 36.1-225.14 147.07-254.88 225.06 36.16 254.8 147.19zm4.7-1.27c-30.43-113.62-147.18-181.07-260.76-150.64s-180.94 147.23-150.52 260.86 147.2 181.08 260.78 150.64 181-147.23 150.51-260.86z"/>
   <path id="path68" class="cls-40" d="m1047.1 517.7c30.22 112.76-36.66 228.66-149.36 258.87s-228.57-36.74-258.78-149.5 36.66-228.66 149.37-258.86 228.58 36.72 258.78 149.49zm4.72-1.27c-30.86-115.36-149.45-183.84-264.75-152.93s-183.73 149.5-152.82 264.84 149.44 183.83 264.71 152.93 183.73-149.47 152.82-264.84z"/>
   <path id="path69" class="cls-40" d="m1050.3 516.85c30.71 114.51-37.23 232.15-151.67 262.85s-232.09-37.28-262.76-151.79 37.22-232.18 151.66-262.84 232.09 37.29 262.77 151.78zm4.71-1.26c-31.38-117.1-151.7-186.59-268.74-155.24s-186.49 151.73-155.12 268.83 151.7 186.6 268.74 155.24 186.49-151.73 155.12-268.83z"/>
   <path id="path70" class="cls-41" d="m1053.4 516c31.14 116.24-37.8 235.7-154 266.84s-235.57-37.84-266.71-154.08 37.78-235.7 154-266.83 235.6 37.85 266.75 154.08zm4.7-1.26c-31.84-118.83-153.93-189.36-272.71-157.52s-189.25 153.96-157.42 272.78 154 189.38 272.73 157.55 189.25-154 157.4-272.8z"/>
   <path id="path71" class="cls-41" d="m1056.6 515.17c31.62 118-38.34 239.22-156.26 270.81s-239.11-38.41-270.73-156.38 38.36-239.22 156.27-270.82 239.16 38.42 270.72 156.39zm4.72-1.26c-32.28-120.57-156.19-192.13-276.7-159.84s-192 156.22-159.71 276.79 156.19 192.14 276.7 159.84 192-156.22 159.71-276.79z"/>
   <path id="path72" class="cls-42" d="m1059.7 514.33c32.07 119.7-38.92 242.73-158.56 274.8s-242.64-39-274.71-158.7 38.91-242.73 158.56-274.79 242.64 39 274.71 158.69zm4.7-1.26c-32.76-122.31-158.41-194.9-280.68-162.14s-194.73 158.46-162.01 280.77 158.44 194.89 280.68 162.13 194.79-158.46 162-280.76z"/>
   <path id="path73" class="cls-42" d="m1062.8 513.49c32.54 121.44-39.48 246.25-160.86 278.78s-246.16-39.55-278.69-161 39.48-246.27 160.86-278.77 246.14 39.55 278.69 161zm4.7-1.26c-33.23-124-160.67-197.66-284.66-164.44s-197.54 160.71-164.3 284.75 160.68 197.67 284.66 164.46 197.54-160.72 164.3-284.75z"/>
   <path id="path74" class="cls-43" d="m1066 512.65c33 123.17-40 249.77-163.15 282.76s-249.69-40.12-282.69-163.29 40-249.77 163.15-282.76 249.69 40.12 282.69 163.29zm4.72-1.27c-33.72-125.77-162.96-200.38-288.67-166.73s-200.3 163-166.6 288.74 162.93 200.42 288.64 166.73 200.3-163 166.61-288.74z"/>
   <path id="path75" class="cls-44" d="m1069.1 511.8c33.46 124.92-40.61 253.29-165.46 286.75s-253.18-40.68-286.67-165.55 40.61-253.29 165.45-286.74 253.19 40.68 286.66 165.58zm4.7-1.25c-34.16-127.51-165.18-203.2-292.62-169s-203.07 165.17-168.9 292.68 165.17 203.19 292.62 169 203.07-165.18 168.9-292.68z"/>
   <path id="path76" class="cls-45" d="m1072.3 511c33.92 126.65-41.18 256.81-167.76 290.73s-256.7-41.25-290.63-167.88 41.17-256.85 167.75-290.77 256.7 41.25 290.64 167.88zm4.7-1.26c-34.62-129.25-167.42-206-296.6-171.33s-205.83 167.41-171.2 296.65 167.42 206 296.6 171.35 205.83-167.41 171.23-296.71z"/>
   <path id="path77" class="cls-46" d="m1075.4 510.13c34.4 128.37-41.73 260.32-170.05 294.7s-260.22-41.83-294.61-170.18 41.74-260.33 170-294.71 260.26 41.81 294.66 170.19zm4.72-1.27c-35.1-131-169.68-208.72-300.59-173.64s-208.59 169.71-173.53 300.69 169.7 208.72 300.62 173.63 208.59-169.7 173.5-300.68z"/>
   <path id="path78" class="cls-47" d="m1078.6 509.28c34.86 130.11-42.31 263.84-172.35 298.72s-263.74-42.4-298.6-172.52 42.3-263.84 172.4-298.69 263.73 42.38 298.6 172.49zm4.7-1.26c-35.56-132.72-171.92-211.48-304.56-175.93s-211.36 171.91-175.8 304.66 171.92 211.48 304.57 175.94 211.35-172 175.79-304.67z"/>
   <path id="path79" class="cls-48" d="m1081.7 508.44c35.32 131.85-42.86 267.36-174.68 302.67s-267.21-42.93-302.54-174.78 42.87-267.33 174.65-302.67 267.25 42.93 302.57 174.78zm4.71-1.26c-36-134.45-174.16-214.25-308.55-178.24s-214.11 174.2-178.09 308.65 174.17 214.25 308.55 178.23 214.12-174.19 178.09-308.64z"/>
   <path id="path80" class="cls-49" d="m1084.8 507.6c35.8 133.58-43.43 270.88-176.94 306.66s-270.77-43.51-306.56-177.09 43.43-270.88 176.94-306.66 270.74 43.49 306.56 177.09zm4.71-1.27c-36.53-136.18-176.41-217.01-312.53-180.53s-216.88 176.44-180.39 312.63 176.39 217.01 312.53 180.57 216.86-176.48 180.39-312.67z"/>
   <path id="path81" class="cls-50" d="m1088 506.76c36.25 135.32-44 274.39-179.25 310.63s-274.31-44.06-310.57-179.39 44-274.4 179.24-310.64 274.28 44.08 310.58 179.4zm4.7-1.26c-37-137.92-178.66-219.78-316.51-182.84s-219.67 178.7-182.72 316.62 178.66 219.77 316.53 182.83 219.65-178.7 182.69-316.61z"/>
   <path id="path82" class="cls-51" d="m1091.1 505.92c36.73 137.05-44.56 277.91-181.54 314.62s-277.8-44.64-314.56-181.69 44.55-277.91 181.54-314.62 277.8 44.64 314.52 181.69zm4.71-1.26c-37.42-139.66-180.9-222.55-320.49-185.14s-222.41 180.94-185 320.59 180.92 222.54 320.5 185.14 222.41-180.94 185-320.59z"/>
   <path id="path83" class="cls-52" d="m1094.2 505.08c37.19 138.78-45.12 281.43-183.84 318.6s-281.31-45.2-318.5-184 45.1-281.42 183.84-318.59 281.32 45.2 318.5 184zm4.71-1.27c-37.88-141.38-183.16-225.3-324.47-187.43s-225.17 183.19-187.29 324.62 183.15 225.26 324.48 187.39 225.16-183.19 187.33-324.58z"/>
   <path id="path84" class="cls-53" d="m1097.4 504.24c37.65 140.51-45.69 284.94-186.13 322.58s-284.84-45.76-322.49-186.29 45.68-284.95 186.14-322.53 284.83 45.77 322.48 186.29zm4.71-1.27c-38.35-143.12-185.41-228.07-328.45-189.74s-227.94 185.44-189.59 328.57 185.4 228.06 328.46 189.73 227.93-185.43 189.58-328.53z"/>
   <path id="path85" class="cls-54" d="m1100.5 503.39c38.11 142.26-46.25 288.47-188.43 326.57s-288.35-46.32-326.47-188.59 46.25-288.46 188.44-326.56 288.35 46.33 326.46 188.58zm4.71-1.26c-38.81-144.86-187.65-230.83-332.44-192s-230.69 187.65-191.88 332.51 187.65 230.83 332.44 192 230.65-187.64 191.88-332.51z"/>
   <path id="path86" class="cls-55" d="m1103.7 502.55c38.58 144-46.82 292-190.73 330.55s-291.87-46.89-330.45-190.88 46.81-292 190.74-330.55 291.86 46.89 330.44 190.88zm4.71-1.26c-39.28-146.6-189.9-233.6-336.37-194.29s-233.51 189.88-194.23 336.48 189.9 233.6 336.42 194.34 233.46-189.94 194.18-336.53z"/>
   <path id="path87" class="cls-56" d="m1106.8 501.71c39 145.73-47.38 295.5-193 334.54s-295.41-47.46-334.46-193.19 47.38-295.51 193-334.53 295.41 47.47 334.46 193.18zm4.71-1.26c-39.74-148.33-192.14-236.36-340.4-196.63s-236.22 192.18-196.48 340.5 192.15 236.37 340.37 196.68 236.22-192.18 196.48-340.5z"/>
   <path id="path88" class="cls-57" d="m1109.9 500.87c39.51 147.46-47.94 299-195.33 338.51s-298.89-48-338.4-195.48 47.93-299 195.32-338.52 298.9 48 338.41 195.49zm4.71-1.26c-40.21-150.07-194.39-239.14-344.38-198.94s-239 194.43-198.78 344.49 194.4 239.13 344.38 198.94 239-194.43 198.78-344.49z"/>
   <path id="path89" class="cls-58" d="m1113.1 500c40 149.2-48.5 302.54-197.63 342.5s-302.45-48.56-342.39-197.76 48.51-302.54 197.63-342.5 302.42 48.59 342.39 197.76zm4.71-1.27c-40.67-151.73-196.64-241.86-348.36-201.2s-241.75 196.68-201.07 348.47 196.64 241.9 348.36 201.24 241.74-196.68 201.07-348.48z"/>
   <path id="path90" class="cls-59" d="m1116.2 499.19c40.44 150.93-49.07 306.05-199.93 346.48s-305.93-49.16-346.37-200.09 49.08-306.06 199.93-346.48 305.93 49.16 346.37 200.09zm4.71-1.27c-41.13-153.53-198.88-244.66-352.34-203.53s-244.51 198.92-203.38 352.46 198.89 244.65 352.35 203.53 244.51-198.92 203.37-352.46z"/>
   <path id="path91" class="cls-60" d="m1119.4 498.34c40.91 152.67-49.63 309.58-202.22 350.47s-309.45-49.72-350.35-202.39 49.63-309.57 202.21-350.42 309.44 49.72 350.35 202.38zm4.71-1.26c-41.61-155.26-201.13-247.42-356.33-205.83s-247.27 201.17-205.67 356.44 201.14 247.42 356.33 205.83 247.27-201.17 205.67-356.44z"/>
   <path id="path92" class="cls-61" d="m1122.5 497.5c41.37 154.4-50.2 313.1-204.5 354.5s-313-50.33-354.36-204.73 50.2-313.1 204.53-354.45 313 50.29 354.33 204.68zm4.71-1.26c-42.07-157-203.39-250.19-360.31-208.13s-250 203.41-208 360.42 203.37 250.18 360.3 208.13 250-203.42 208-360.42z"/>
   <path id="path93" class="cls-62" d="m1125.6 496.66c41.84 156.14-50.76 316.61-206.82 358.43s-316.48-50.85-358.32-207 50.77-316.62 206.82-358.43 316.49 50.84 358.32 207zm4.71-1.26c-42.53-158.74-205.63-252.95-364.29-210.4s-252.8 205.66-210.27 364.4 205.63 253 364.29 210.44 252.8-205.68 210.27-364.41z"/>
   <path id="path94" class="cls-63" d="m1128.8 495.82c42.29 157.87-51.33 320.13-209.12 362.41s-320-51.41-362.29-209.29 51.32-320.12 209.11-362.4 320 51.41 362.3 209.28zm4.7-1.26c-43-160.48-207.87-255.72-368.26-212.74s-255.56 207.92-212.57 368.39 207.88 255.71 368.27 212.73 255.56-207.94 212.56-368.38z"/>
   <path id="path95" class="cls-64" d="m1131.9 495c42.76 159.59-51.92 323.63-211.42 366.37s-323.5-51.98-366.28-211.58 51.9-323.64 211.42-366.4 323.51 52 366.28 211.59zm4.71-1.26c-43.47-162.21-210.13-258.48-372.26-215s-258.32 210.11-214.85 372.31 210.12 258.48 372.24 215 258.33-210.17 214.87-372.37z"/>
   <path id="path96" class="cls-65" d="m1135.1 494.14c43.22 161.34-52.46 327.16-213.72 370.37s-327.02-52.51-370.25-213.88 52.45-327.16 213.71-370.37 327 52.54 370.26 213.88zm4.71-1.27c-43.93-163.93-212.37-261.24-376.23-217.33s-261.09 212.46-217.16 376.35 212.37 261.25 376.23 217.34 261.08-212.41 217.16-376.36z"/>
   <path id="path97" class="cls-66" d="m1138.2 493.29c43.69 163.08-53 330.69-216 374.37s-330.56-53.11-374.2-216.19 53-330.67 216-374.36 330.54 53.11 374.24 216.18zm4.7-1.25c-44.38-165.68-214.61-264.04-380.2-219.64s-263.85 214.66-219.46 380.34 214.62 264 380.21 219.63 263.85-214.66 219.45-380.37z"/>
   <path id="path98" class="cls-67" d="m1141.3 492.45c44.17 164.81-53.58 334.21-218.3 378.34s-334.03-53.67-378.23-218.47 53.59-334.2 218.32-378.32 334.05 53.68 378.21 218.48zm4.72-1.26c-44.86-167.41-216.87-266.77-384.2-221.93s-266.61 216.9-221.75 384.31 216.9 266.78 384.19 221.94 266.61-216.9 221.76-384.32z"/>
   <path id="path99" class="cls-68" d="m1144.5 491.62c44.62 166.54-54.15 337.71-220.61 382.32s-337.58-54.24-382.2-220.78 54.15-337.72 220.6-382.33 337.58 54.24 382.21 220.79zm4.7-1.27c-45.32-169.14-219.1-269.53-388.18-224.23s-269.36 219.15-224 388.3 219.07 269.58 388.14 224.23 269.37-219.16 224-388.3z"/>
   <path id="path100" class="cls-69" d="m1147.6 490.77c45.09 168.28-54.71 341.24-222.91 386.31s-341.09-54.8-386.18-223.08 54.7-341.22 222.9-386.3 341.1 54.81 386.19 223.08zm4.7-1.26c-45.78-170.88-221.32-272.3-392.15-226.51s-272.17 221.37-226.35 392.26 221.36 272.3 392.18 226.53 272.14-221.4 226.35-392.28z"/>
   <path id="path101" class="cls-70" d="m1150.8 489.93c45.56 170-55.27 344.76-225.2 390.29s-344.61-55.37-390.17-225.38 55.28-344.75 225.21-390.29 344.61 55.36 390.16 225.38zm4.72-1.26c-46.26-172.62-223.62-275.07-396.15-228.84s-274.89 223.66-228.64 396.27 223.6 275.07 396.13 228.83 274.91-223.65 228.66-396.26z"/>
   <path id="path102" class="cls-71" d="m1153.9 489.09c46 171.75-55.84 348.27-227.51 394.28s-348.12-55.94-394.14-227.69 55.83-348.27 227.5-394.27 348.13 55.93 394.15 227.68zm4.7-1.27c-46.71-174.34-225.85-277.82-400.12-231.12s-277.66 225.89-230.94 400.24 225.85 277.84 400.12 231.13 277.66-225.89 230.94-400.25z"/>
   <path id="path103" class="cls-72" d="m1157 488.25c46.51 173.48-56.37 351.75-229.77 398.25s-351.64-56.5-398.12-230 56.4-351.78 229.79-398.25 351.65 56.49 398.14 230zm4.7-1.26c-47.18-176.09-228.1-280.6-404.09-233.44s-280.39 228.15-233.21 404.24 228.1 280.59 404.1 233.43 280.42-228.15 233.24-404.22z"/>
   <path id="path104" class="cls-73" d="m1160.2 487.41c46.95 175.22-57 355.31-232.09 402.24s-355.16-57.07-402.08-232.29 57-355.3 232.1-402.23 355.16 57.06 402.1 232.28zm4.72-1.26c-47.65-177.82-230.36-283.37-408.09-235.74s-283.19 230.39-235.54 408.21 230.35 283.38 408.08 235.73 283.19-230.35 235.55-408.2z"/>
   <path id="path105" class="cls-74" d="m1163.3 486.57c47.4 176.94-57.54 358.82-234.4 406.21s-358.68-57.63-406.09-234.58 57.53-358.82 234.4-406.2 358.67 57.63 406.09 234.59zm4.7-1.27c-48.11-179.55-232.59-286.12-412.06-238s-285.96 232.61-237.84 412.16 232.6 286.13 412.06 238 286-232.64 237.84-412.2z"/>
   <path id="path106" class="cls-75" d="m1166.4 485.73c47.88 178.68-58.09 362.33-236.69 410.2s-362.19-58.2-410.07-236.93 58.09-362.33 236.69-410.2 362.2 58.2 410.07 236.89zm4.71-1.27c-48.57-181.29-234.84-288.89-416-240.33s-288.75 234.87-240.16 416.18 234.82 288.89 416 240.33 288.71-234.89 240.13-416.18z"/>
   <path id="path107" class="cls-76" d="m1169.6 484.88c48.34 180.42-58.65 365.86-239 414.19s-365.7-58.77-414.04-239.18 58.66-365.89 238.99-414.19 365.71 58.76 414.05 239.18zm4.71-1.26c-49-183-237.09-291.65-420-242.63s-291.5 237.13-242.46 420.16 237.09 291.65 420 242.63 291.48-237.14 242.44-420.16z"/>
   <path id="path108" class="cls-77" d="m1172.7 484c48.8 182.16-59.23 369.37-241.3 418.17s-369.23-59.32-418-241.48 59.19-369.34 241.26-418.13 369.22 59.33 418 241.48zm4.7-1.26c-49.5-184.76-239.33-294.42-424-244.93s-294.24 239.42-244.74 424.19 239.3 294.41 424.01 244.92 294.29-239.38 244.73-424.14z"/>
   <path id="path109" class="cls-78" d="m1175.9 483.2c49.27 183.89-59.78 372.89-243.59 422.15s-372.73-59.89-422-243.78 59.79-372.89 243.58-422.15 372.75 59.88 422 243.78zm4.71-1.26c-50-186.5-241.59-297.18-428-247.23s-297 241.63-247 428.12 241.56 297.17 427.97 247.23 297-241.63 247-428.12z"/>
   <path id="path110" class="cls-79" d="m1179 482.36c49.74 185.63-60.35 376.41-245.88 426.13s-376.25-60.49-425.99-246.08 60.35-376.41 245.87-426.14 376.27 60.46 426 246.09zm4.71-1.26c-50.43-188.23-243.83-300-432-249.53s-299.71 243.87-249.29 432.1 243.83 300 432 249.54 299.77-243.88 249.33-432.11z"/>
   <path id="path111" class="cls-80" d="m1182.2 481.52c50.21 187.36-60.91 379.93-248.18 430.11s-379.78-61-430-248.38 60.92-379.93 248.19-430.11 379.77 61 430 248.38zm4.71-1.27c-50.89-190-246.08-302.7-435.95-251.82s-302.53 246.12-251.62 436.08 246.07 302.71 435.94 251.83 302.53-246.12 251.63-436.09z"/>
   <path id="path112" class="cls-81" d="m1185.3 480.68c50.67 189.09-61.47 383.44-250.48 434.09s-383.3-61.58-434-250.68 61.52-383.44 250.52-434.09 383.29 61.59 434 250.69zm4.71-1.27c-51.37-191.69-248.33-305.47-439.93-254.13s-305.29 248.37-253.93 440.08 248.33 305.48 439.94 254.13 305.28-248.38 253.92-440.08z"/>
   <path id="path113" class="cls-82" d="m1188.4 479.83c51.13 190.83-62 387-252.78 438.08s-386.8-62.15-437.94-253 62.05-387 252.78-438.07 386.81 62.14 437.94 253zm4.71-1.26c-51.83-193.43-250.57-308.23-443.91-256.43s-308.06 250.62-256.23 444.06 250.58 308.24 443.91 256.42 308.09-250.62 256.23-444.05z"/>
   <path id="path114" class="cls-83" d="m1191.6 479c51.59 192.57-62.6 390.48-255.07 442.07s-390.33-62.73-441.93-255.29 62.61-390.49 255.08-442.07 390.35 62.72 441.92 255.29zm4.71-1.26c-52.28-195.17-252.82-311.02-447.9-258.74s-310.81 252.87-258.51 448 252.82 311 447.88 258.73 310.82-252.87 258.53-448z"/>
   <path id="path115" class="cls-84" d="m1194.7 478.16c52.06 194.29-63.17 394-257.38 446s-393.84-63.24-445.89-257.54 63.17-394 257.37-446 393.84 63.28 445.9 257.59zm4.71-1.27c-52.76-196.91-255.07-313.77-451.88-261s-313.54 255.11-260.82 451.99 255.07 313.77 451.88 261 313.58-255.12 260.82-452z"/>
   <path id="path116" class="cls-85" d="m1197.8 477.31c52.52 196-63.73 397.52-259.67 450s-397.36-63.81-449.89-259.85 63.71-397.52 259.71-450.03 397.36 63.85 449.89 259.88zm4.71-1.26c-53.23-198.64-257.31-316.54-455.85-263.33s-316.35 257.37-263.13 456 257.32 316.54 455.86 263.33 316.34-257.36 263.12-456z"/>
   <path id="path117" class="cls-86" d="m1201 476.47c53 197.77-64.3 401-262 454s-400.85-64.4-453.85-262.17 64.3-401 262-454 400.85 64.4 453.85 262.17zm4.71-1.26c-53.71-200.38-259.57-319.3-459.85-265.63s-319.1 259.61-265.41 460 259.55 319.28 459.83 265.61 319.11-259.61 265.42-460z"/>
   <path id="path118" class="cls-87" d="m1204.1 475.63c53.46 199.5-64.86 404.55-264.27 458s-404.39-64.98-457.86-264.49 64.85-404.55 264.27-458 404.39 65 457.84 264.48zm4.71-1.27c-54.15-202.1-261.84-322.06-463.84-267.93s-321.85 261.87-267.7 463.97 261.81 322.07 463.83 267.93 321.86-261.85 267.71-464z"/>
   <path id="path119" class="cls-88" d="m1207.3 474.78c53.92 201.24-65.43 408.08-266.57 462s-407.91-65.56-461.83-266.78 65.43-408.09 266.57-462 407.91 65.54 461.83 266.77zm4.71-1.25c-54.62-203.85-264.06-324.83-467.8-270.23s-324.63 264.1-270 468 264.04 324.77 467.82 270.17 324.63-264.1 270-467.94z"/>
   <path id="path120" class="cls-89" d="m1210.4 473.94c54.39 203-66 411.59-268.86 466s-411.43-66.14-465.82-269.11 66-411.6 268.87-466 411.4 66.17 465.81 269.11zm4.71-1.25c-55.12-205.58-266.31-327.6-471.79-272.54s-327.39 266.36-272.33 471.93 266.3 327.6 471.77 272.54 327.4-266.36 272.32-471.93z"/>
   <path id="path121" class="cls-90" d="m1213.6 473.11c54.85 204.7-66.56 415.1-271.16 469.94s-414.95-66.68-469.79-271.38 66.55-415.11 271.16-469.95 414.94 66.67 469.79 271.39zm4.7-1.27c-55.54-207.31-268.55-330.36-475.76-274.84s-330.15 268.61-274.61 475.93 268.56 330.35 475.77 274.82 330.15-268.6 274.6-475.91z"/>
   <path id="path122" class="cls-91" d="m1216.7 472.26c55.32 206.45-67.12 418.63-273.47 473.92s-418.45-67.18-473.77-273.68 67.12-418.62 273.46-473.92 418.46 67.24 473.78 273.68zm4.71-1.26c-56-209-270.8-333.12-479.75-277.13s-332.92 270.85-276.9 479.9 270.8 333.12 479.74 277.13 332.92-270.85 276.91-479.9z"/>
   <path id="path123" class="cls-92" d="m1219.8 471.42c55.77 208.18-67.69 422.14-275.76 477.91s-422-67.8-477.76-276 67.69-422.13 275.76-477.89 422 67.81 477.76 276zm4.71-1.26c-56.48-210.79-273-335.89-483.73-279.43s-335.68 273.1-279.2 483.88 273 335.88 483.72 279.43 335.67-273.1 279.21-483.88z"/>
   <path id="path124" class="cls-93" d="m1223 470.58c56.24 209.91-68.25 425.66-278.06 481.89s-425.52-68.36-481.76-278.28 68.24-425.66 278.05-481.89 425.49 68.36 481.77 278.28zm4.7-1.27c-56.96-212.51-275.32-338.64-487.7-281.72s-338.48 275.35-281.53 487.86 275.29 338.65 487.7 281.73 338.45-275.34 281.5-487.87z"/>
   <path id="path125" class="cls-94" d="m1226.1 469.73c56.71 211.66-68.8 429.19-280.35 485.88s-429.01-68.93-485.75-280.61 68.82-429.18 280.36-485.87 429 68.93 485.71 280.57zm4.72-1.25c-57.41-214.26-277.54-341.42-491.69-284s-341.21 277.52-283.8 491.82 277.54 341.41 491.69 284 341.2-277.59 283.8-491.84z"/>
   <path id="path126" class="cls-95" d="m1229.2 468.9c57.17 213.38-69.37 432.69-282.65 489.85s-432.53-69.49-489.7-282.88 69.37-432.7 282.65-489.87 432.52 69.49 489.7 282.88zm4.71-1.26c-57.88-216-279.79-344.18-495.67-286.33s-344 279.84-286.1 495.82 279.81 344.19 495.67 286.33 344-279.84 286.1-495.82z"/>
   <path id="path127" class="cls-96" d="m1232.4 468.06c57.63 215.11-69.94 436.21-285 493.83s-436-70.06-493.68-285.18 69.94-436.21 285-493.84 436 70.06 493.68 285.19zm4.7-1.27c-58.33-217.72-282-346.94-499.65-288.62s-346.73 282.08-288.39 499.83 282 347 499.64 288.64 346.74-282.1 288.4-499.82z"/>
   <path id="path128" class="cls-97" d="m1235.5 467.21c58.11 216.86-70.52 439.79-287.24 497.79s-439.56-70.59-497.67-287.45 70.51-439.73 287.25-497.81 439.56 70.62 497.66 287.47zm4.72-1.26c-58.8-219.45-284.24-349.71-503.64-290.95s-349.49 284.36-290.69 503.82 284.28 349.71 503.63 290.92 349.46-284.33 290.7-503.74z"/>
   <path id="path129" class="cls-98" d="m1238.7 466.37c58.56 218.59-71.07 443.25-289.55 501.8s-443.12-71.17-501.64-289.77 71.06-443.26 289.52-501.81 443.07 71.2 501.65 289.78zm4.7-1.26c-59.26-221.19-286.53-352.48-507.61-293.23s-352.26 286.59-293 507.78 286.54 352.47 507.62 293.23 352.26-286.59 293-507.78z"/>
   <path id="path130" class="cls-3" d="m1241.8 465.53c59 220.33-71.63 446.77-291.85 505.78s-446.59-71.75-505.62-292.07 71.66-446.77 291.84-505.78 446.59 71.75 505.63 292.07zm3.13-0.84c-59.49-222-287.65-353.86-509.6-294.38s-353.64 287.69-294.14 509.77 287.65 353.86 509.6 294.38 353.65-287.71 294.14-509.77z"/>
  </g>
 </g>
 <metadata id="metadata130">
  <rdf:RDF>
   <cc:Work rdf:about="">
    <dc:title>Vertical - Color</dc:title>
   </cc:Work>
  </rdf:RDF>
 </metadata>
</svg>
