<?xml version="1.0" encoding="UTF-8"?>
<svg id="svg2" width="16.821cm" height="3.6642cm" version="1.1" viewBox="0 0 596.01 129.84" xmlns="http://www.w3.org/2000/svg" xmlns:cc="http://creativecommons.org/ns#" xmlns:dc="http://purl.org/dc/elements/1.1/" xmlns:rdf="http://www.w3.org/1999/02/22-rdf-syntax-ns#">
 <metadata id="metadata7">
  <rdf:RDF>
   <cc:Work rdf:about="">
    <dc:format>image/svg+xml</dc:format>
    <dc:type rdf:resource="http://purl.org/dc/dcmitype/StillImage"/>
   </cc:Work>
  </rdf:RDF>
 </metadata>
 <g id="layer1" transform="translate(-40.022 15.492)">
  <g id="g948" fill="#0385d1">
   <path id="path906" d="m40.022 23.156 22.174-6.4116q2.2263 6.5897 3.562 13.001t1.781 14.07q0.53431 7.5693 0.62336 11.22 0.0891 3.562 0.1781 12.289v2.7606q0 5.8773-0.89051 12.823-0.80145 6.9459-1.6029 9.2612 5.4321 0 8.7269-7.124 3.3839-7.2131 3.3839-15.495v-33.127l18.701-0.089q0.44525 6.9459 0.44525 21.639 0 14.159-0.62335 33.75h0.44525q10.241 0 10.241-35.531 0-21.995-1.2467-35.62h21.906q0.1781 2.8496 0.1781 8.6379v7.7474q0 31.702-3.7401 48.978-2.4934 11.398-11.22 18.166-8.7269 6.6788-22.886 6.6788h-3.0277q-1.6029-5.8773-2.1372-13.625-2.7606 5.8773-9.9736 10.33-7.2131 4.3635-19.146 4.3635h-0.5343q-3.562-0.089-5.8773-1.0686-0.26715-1.8701-0.44525-15.228-0.1781-13.447-1.3358-30.099-1.0686-16.652-3.562-29.03-1.8701-9.3503-4.0963-13.268z"/>
   <path id="path908" d="m189.98 2.4068q-4.1854 0-6.9459 1.0686-2.6715 0.97955-3.9182 2.9387-1.1576 1.9591-1.5138 3.7401-0.3562 1.781-0.3562 4.1854l0.0891 6.3226h16.385q9.4393 0 15.673 1.8701l-3.9182 17.543q-3.473-1.1577-8.7269-1.1577h-19.502l0.0891 71.864h-22.886v-71.864h-12.734v-18.255h12.734v-4.6306q0-3.9182 0.80145-7.7474 0.80146-3.9182 3.1168-8.2817 2.3153-4.4525 5.8773-7.7474 3.6511-3.2949 9.8846-5.5211 6.3226-2.2263 14.337-2.2263 13.892 0 22.352 3.8292 8.5488 3.8292 13.536 13.714l-18.879 8.6379q-1.6029-5.0759-5.1649-6.6788-3.562-1.6029-10.33-1.6029z"/>
   <path id="path910" d="m303.34 71.955v3.562q0 8.7269 2.5825 12.645 2.5825 3.8292 8.3707 4.8087 3.2058 0.3562 5.7883 0.3562 6.2335 0 10.686-2.4934 1.3358-0.7124 2.3153-1.781 1.0686-1.1577 1.692-2.4934 0.71241-1.3358 1.0686-2.3153 0.3562-0.97955 0.7124-2.2262 0.3562-1.3358 0.44525-1.5139l18.522 8.905q-0.7124 1.8701-2.2263 4.6306-1.5138 2.6715-5.254 6.8569-3.6511 4.0963-8.1926 6.6788-6.4116 3.7401-19.591 3.7401-14.159 0-22.886-3.0277-8.6379-3.0277-13.001-12.111-3.473-7.124-3.473-20.838v-3.7401q0.5343-22.886 0.80145-32.503h-1.2467q-3.8292 0-7.3021 1.0686l-1.5138-18.166q3.2058-1.0686 9.0831-1.0686h1.3358q0-3.1168 0-10.686 0.089-7.6583 0.089-10.775l22.352 0.5343q0 8.4598-0.1781 20.571 4.2744 0 13.625 0.089 9.3503 0.0891 16.92 0.1781 7.5693 0.0891 7.6583 0.0891l-0.26715 18.166q-6.1445 0-19.235-0.0891-13.001-0.089-18.879-0.089-0.26715 7.9255-0.44525 18.522-0.1781 10.508-0.3562 14.515z"/>
   <path id="path912" d="m389.37 56.817q12.111-2.1372 30.277-2.1372-0.3562-8.3707-4.4525-12.556-4.0073-4.1854-10.241-4.1854-6.5897 0-10.864 5.4321-4.2744 5.4321-4.7197 13.447zm15.406-36.956q20.393 0 29.208 12.378 8.905 12.378 8.905 36.065l-0.089 3.8292q-39.004 0.5343-53.43 3.3839 1.0686 7.3912 6.1445 12.645 5.1649 5.1649 11.309 5.1649 6.6788 0 10.686-2.2263 4.0963-2.2262 9.0831-7.5693l15.851 13.892q-3.7401 4.1854-6.5007 6.5007-2.7606 2.3153-6.9459 4.2744-4.0963 1.9591-9.4393 2.6715-5.343 0.80145-13.268 0.80145-18.79 0-29.387-12.734-10.508-12.823-10.508-34.106 0-19.858 10.063-32.414t28.318-12.556z"/>
   <path id="path914" d="m483.4 63.762q0 8.0145 1.6029 13.892 1.6029 5.7883 3.6511 8.6379 2.1372 2.7606 5.1649 4.3635 3.0277 1.6029 4.6306 1.8701 1.692 0.1781 3.6511 0.1781h1.0686q6.1445 0 10.152-3.3839 4.0963-3.3839 7.8364-9.7065l20.125 11.933q-4.5416 10.063-13.625 14.96-9.0831 4.8978-23.598 4.8978-8.816 0-15.94-1.4248-7.035-1.4248-12.823-5.6992-8.2817-6.4116-11.755-16.296-3.3839-9.9736-3.3839-24.133 0-43.724 43.902-43.724 14.604 0 22.708 5.4321 7.9255 5.343 11.398 13.447l-19.591 9.0831q-2.4044-9.1722-16.118-9.1722-9.2612 0-14.159 7.2131-4.8978 7.2131-4.8978 17.632z"/>
   <path id="path916" d="m632.12 60.379v30.99q0 10.241 3.9182 15.851l-20.125 7.124q-5.6992-7.9255-5.6992-19.235v-28.051q0-7.9255-1.0686-13.447-0.97956-5.6102-2.4044-8.5488-1.4248-2.9387-3.9182-4.4525-2.4934-1.6029-4.4525-1.8701-1.8701-0.3562-4.8978-0.3562-4.6306 0-8.7269 3.562-4.0963 3.473-6.8569 8.1036v60.732h-21.817v-102.94q0-8.1036-1.4248-21.906l22.084-0.80145q1.2467 10.152 1.2467 23.153 0 10.597-2.1372 19.769 9.8846-7.4802 20.66-7.4802 17.365 0 26.448 9.5284 9.1722 9.4393 9.1722 30.277z"/>
  </g>
  <text id="text836" font-family="'Alte DIN 1451 Mittelschrift'" font-size="177.16px" style="line-height:1.25;shape-inside:url(#rect838);white-space:pre" xml:space="preserve"/>
  <text id="text900" font-family="'Alte DIN 1451 Mittelschrift'" font-size="177.16px" style="line-height:1.25;shape-inside:url(#rect902);white-space:pre" xml:space="preserve"/>
 </g>
</svg>
