<?xml version="1.0" encoding="UTF-8"?>
<svg id="svg23" width="497.53" height="109.19" version="1.1" xmlns="http://www.w3.org/2000/svg">
 <g id="g19" transform="translate(-101.57 -120.25)" fill-rule="evenodd">
  <path id="path11" d="m269.81 162.78c0.832 0 1.363 0.37 1.594 1.109l8.94 28.481c0.138 0.324 0.369 0.485 0.692 0.485h0.278c0.415 0 0.646-0.161 0.692-0.485l9.355-26.263c0.463-1.248 1.005-2.114 1.629-2.599s1.559-0.728 2.807-0.728h8.246c1.247 0 2.183 0.243 2.807 0.728 0.623 0.485 1.166 1.351 1.628 2.599l9.286 26.263c0.046 0.324 0.277 0.485 0.693 0.485h0.277c0.324 0 0.555-0.161 0.693-0.485l9.009-28.481c0.139-0.739 0.67-1.109 1.594-1.109h7.831c0.6 0 0.981 0.15 1.143 0.451 0.162 0.3 0.173 0.704 0.035 1.212l-10.534 32.085c-0.554 1.756-1.213 2.911-1.975 3.465s-1.882 0.832-3.361 0.832h-8.731c-1.202 0-2.125-0.312-2.772-0.936s-1.27-1.744-1.871-3.361l-9.147-25.293c-0.093-0.278-0.301-0.416-0.624-0.416h-0.416c-0.37 0-0.577 0.138-0.623 0.416l-9.078 25.293c-0.601 1.617-1.225 2.737-1.872 3.361-0.646 0.624-1.57 0.936-2.772 0.936h-8.731c-1.478 0-2.599-0.278-3.361-0.832s-1.421-1.709-1.975-3.465l-10.395-32.085c-0.138-0.508-0.138-0.912 0-1.212 0.139-0.301 0.532-0.451 1.179-0.451h7.83m93.288 0c1.016 0 1.524 0.532 1.524 1.594v20.027c0 1.479 0.093 2.703 0.277 3.673 0.185 0.97 0.532 1.744 1.04 2.321 0.508 0.578 1.224 0.994 2.148 1.248s2.148 0.381 3.673 0.381h17.809c1.525 0 2.772-0.127 3.742-0.381 0.971-0.254 1.745-0.67 2.322-1.248 0.577-0.577 0.981-1.351 1.213-2.321 0.231-0.97 0.346-2.194 0.346-3.673v-20.027c0-1.062 0.508-1.594 1.525-1.594h6.791c1.016 0 1.524 0.532 1.524 1.594v22.453c0 2.494-0.277 4.631-0.831 6.41-0.555 1.778-1.467 3.233-2.737 4.365-1.271 1.132-2.969 1.952-5.094 2.46-2.125 0.509-4.735 0.763-7.831 0.763h-19.334c-3.141 0-5.763-0.254-7.865-0.763-2.102-0.508-3.788-1.328-5.059-2.46-1.27-1.132-2.183-2.587-2.737-4.365-0.554-1.779-0.831-3.916-0.831-6.41v-22.453c0-1.062 0.531-1.594 1.593-1.594h6.792m71.181-13.929c1.016 0 1.524 0.509 1.524 1.525v48.924c0 1.016-0.508 1.525-1.524 1.525h-6.791c-1.016 0-1.525-0.509-1.525-1.525v-48.924c0-1.016 0.509-1.525 1.525-1.525h6.791m25.237 13.929v-9.147c0-1.017 0.508-1.525 1.525-1.525h6.86c1.017 0 1.525 0.508 1.525 1.525v9.147h12.127c0.831 0 1.247 0.416 1.247 1.248v5.682c0 0.832-0.416 1.247-1.247 1.247h-12.127v16.077c0 1.941 0.392 3.361 1.178 4.262 0.785 0.901 2.333 1.352 4.643 1.352h6.721c0.832 0 1.248 0.415 1.248 1.247v5.682c0 0.832-0.416 1.248-1.248 1.248h-8.384c-2.772 0-5.059-0.254-6.861-0.763-1.802-0.508-3.246-1.316-4.331-2.425-1.086-1.109-1.836-2.541-2.252-4.296-0.416-1.756-0.624-3.858-0.624-6.307v-16.077h-6.583c-0.832 0-1.248-0.415-1.248-1.247v-5.682c0-0.832 0.416-1.248 1.248-1.248h6.583m75.27 0c0.832 0 1.247 0.416 1.247 1.248v5.821c0 0.831-0.415 1.247-1.247 1.247h-18.433c-1.479 0-2.703 0.127-3.673 0.381s-1.744 0.67-2.321 1.248c-0.578 0.577-0.982 1.362-1.213 2.356-0.231 0.993-0.347 2.206-0.347 3.638v20.581c0 1.016-0.508 1.525-1.524 1.525h-6.791c-1.063 0-1.594-0.509-1.594-1.525v-22.452c0-2.495 0.277-4.632 0.832-6.41 0.554-1.779 1.466-3.234 2.737-4.366 1.27-1.132 2.957-1.964 5.059-2.495 2.101-0.531 4.723-0.797 7.865-0.797h19.403m47.829 0c3.094 0 5.705 0.266 7.83 0.797s3.823 1.363 5.093 2.495c1.271 1.132 2.183 2.587 2.738 4.366 0.554 1.778 0.831 3.915 0.831 6.41v18.433c0 1.109-0.081 2.021-0.243 2.737-0.161 0.716-0.438 1.282-0.831 1.698s-0.912 0.704-1.559 0.866-1.478 0.243-2.495 0.243h-32.985c-2.033 0-3.731-0.197-5.094-0.589-1.363-0.393-2.46-0.982-3.291-1.767-0.832-0.786-1.421-1.802-1.768-3.049-0.346-1.248-0.52-2.726-0.52-4.436v-3.326c0-1.432 0.174-2.714 0.52-3.846a6.503 6.503 0 0 1 1.768-2.876c0.831-0.785 1.928-1.374 3.291-1.767 1.363-0.392 3.061-0.589 5.094-0.589h28.203v-1.317c0-1.108-0.115-2.055-0.346-2.841-0.231-0.785-0.624-1.42-1.178-1.906-0.555-0.485-1.317-0.843-2.287-1.074s-2.217-0.346-3.742-0.346h-28.967c-0.831 0-1.246-0.416-1.246-1.247v-5.821c0-0.832 0.415-1.248 1.246-1.248zm4.573 30.422c0.739 0 1.259-0.173 1.559-0.52 0.3-0.346 0.45-0.958 0.45-1.836v-6.098h-25.362c-1.432 0-2.437 0.288-3.015 0.866-0.577 0.577-0.866 1.42-0.866 2.529v1.455c0 1.248 0.289 2.16 0.866 2.738 0.578 0.577 1.583 0.866 3.015 0.866zm-370.56-63.948a77.725 77.725 0 0 1 3.947 24.499c0 34.499-22.763 64.883-55.79 74.59l-3.709 1.09-3.71-1.09c-33.026-9.707-55.789-40.091-55.789-74.59a77.753 77.753 0 0 1 3.946-24.499l2.991-9.011 38.251 13.155h-28.756a64.506 64.506 0 0 0-3.277 20.355c0 29.334 19.558 54.096 46.344 61.969 26.786-7.873 46.344-32.635 46.344-61.969a64.506 64.506 0 0 0-3.277-20.355h-30.571l40.065-13.155 2.991 9.011"/>
  <path id="path13" d="m161.07 229.44-3.71-1.09c-33.026-9.707-55.789-40.091-55.789-74.59a77.753 77.753 0 0 1 3.946-24.499l2.991-9.011 38.251 13.155h-28.756a64.506 64.506 0 0 0-3.277 20.355c0 29.334 19.558 54.096 46.344 61.969v13.711"/>
  <path id="path15" d="m152.91 223.07h16.326v-56.236l-8.063-16.326-8.263 16.326v56.236"/>
  <path id="path17" d="m151.91 224.07h9.16v-73.36l-9.16 16.35v57.01"/>
 </g>
</svg>
