<svg version="1.1" id="Layer_1" xmlns="http://www.w3.org/2000/svg" xmlns:xlink="http://www.w3.org/1999/xlink" x="0px" y="0px" width="1024px" height="224px" viewBox="0 0 1024 224" enable-background="new 0 0 1024 224" xml:space="preserve">
<path fill="#979897" d="M677.98,0h4.729c3.55,2.21,7.39,5.23,7.21,9.88c0.2,25.68,0.23,51.38,0.19,77.07  c14.59-14.36,29-28.89,43.688-43.14c3.87-4.19,11.22-3.93,14.72,0.61c3.593,4.03,2.91,10.49-1,14.06  c-10.979,10.9-22,21.77-33.027,32.62c10.659,10.8,21.3,21.63,32.04,32.36c2.02,2.069,3.987,4.49,4.31,7.479  c0.75,5.621-4.01,11.568-9.87,11.229c-3.277,0.32-6.08-1.68-8.26-3.893c-10.811-10.857-21.62-21.729-32.51-32.487  c-3.393,3.38-6.78,6.771-10.13,10.198c-0.03,6.029,0.42,12.102-0.353,18.102c-0.68,4.99-5.8,8.771-10.778,8.053  c-5.569-0.201-9.569-5.812-9.012-11.15c0.09-40.35-0.067-80.71,0.07-121.06C669.82,5.09,673.76,1.54,677.98,0z"/>
<path fill="#50893F" d="M498.15,24.91c0.067-4.75,4.01-9.01,8.697-9.6c5.593-0.88,11.36,4.02,11.23,9.71  c0.12,4.07-0.04,8.14,0.07,12.2c-2.803-2.51-6.19-4.75-10.133-4.47c-3.907-0.19-7.21,2.1-10.039,4.51  C498.17,33.15,497.97,29.03,498.15,24.91z"/>
<path fill="#979897" d="M568.43,15.54c11.15-0.83,22.4-0.06,33.59-0.38c2.07,0.22,5.062-0.59,6.15,1.79  c0.01,8.7-7.54,16.53-16.17,17.16c-5.68,0.4-11.37,0.03-17.04,0.19c-3.2-0.06-6.8,0.21-9.46-1.92  C559.68,28.21,561.1,17.18,568.43,15.54z"/>
<path fill="#979897" d="M0,49.06c1.43-4.33,5.1-8.47,10.04-8.13c27-0.06,54,0.01,80.99-0.03c5.94-0.53,11.35,5.17,10.59,11.05  c-0.51,4.5-4.38,7.37-7.3,10.4c-20.03,19.79-40.02,39.63-59.97,59.52c18.89,0.101,37.79-0.08,56.68,0.069  c5.17-0.209,10.01,3.898,10.57,9.051c0.8,5.91-4.55,11.729-10.56,11.13c-27.02-0.04-54.05,0.03-81.07-0.04  c-4.85,0.35-8.31-3.7-9.97-7.801v-5.389c1.99-2.312,3.9-4.711,6.04-6.893c20.17-20.28,40.4-40.51,60.5-60.86  C48.02,61.05,29.51,61.19,11,61.09c-5.23,0.38-9.52-3.52-11-8.29V49.06z"/>
<path fill="#979897" d="M244.86,50.99c-0.39-5.48,4.64-10.56,10.14-10.09c13.34-0.01,26.67,0.05,40.01-0.01  c16.51-0.79,31.771,14.71,30.82,31.19c-0.36,5.98-6.92,10.77-12.72,8.95c-4.5-1.18-7.54-5.53-7.603-10.11  c-0.18-5.38-5.02-10.13-10.47-9.79c-10.03-0.05-20.06-0.01-30.09,0.01c-0.04,22.96-0.16,45.92-0.07,68.879  c0.04,3.181-0.3,6.738-2.77,9.041c-3.58,4.119-10.72,4.219-14.43,0.229c-2.3-2.08-2.92-5.29-2.86-8.262  C244.88,104.35,244.81,77.67,244.86,50.99z"/>
<path fill="#50893F" d="M498.08,51.93c-0.4-5.22,3.59-10.37,8.84-10.98c5.71-0.85,11.45,4.22,11.16,10.02  c0.06,37.67-0.01,75.35,0.03,113.03c0.317,15.92-14.19,30.52-30.13,30.2c-8.763,0.03-17.53-0.04-26.303,0  c-0.14,8.26,0.09,16.53-0.067,24.79c0.05,1.84-0.812,3.5-1.763,5.01h-2.188c-2.58-1.95-4.86-4.24-7.12-6.529  c-8.79-8.891-17.73-17.631-26.48-26.551c-3.8-3.62-3.72-10.18,0.103-13.75c9.56-9.76,19.32-19.33,28.91-29.07  c1.987-1.789,5.01-5.51,7.72-2.85c0.93,2.13,0.83,4.5,0.89,6.77c-0.04,7.4-0.05,14.801-0.027,22.201  c8.8-0.061,17.59,0.149,26.39-0.051c5.78,0.08,10.61-5.51,10.06-11.189C498.08,125.96,498.1,88.95,498.08,51.93z"/>
<path fill="#979897" d="M831.17,41.28c15.26-0.87,30.61-0.09,45.9-0.39c16.897-0.97,32.58,15.35,30.88,32.18  c-1.103,7.16-10.61,10.78-16.16,6.15c-3.05-2.13-3.91-5.86-4.24-9.33c-0.479-5.08-5.42-9.14-10.489-8.77  c-13.368,0.01-26.75-0.05-40.118,0.03c-5.69-0.14-10.521,5.27-10.08,10.89c-0.021,12.99-0.013,25.98,0,38.97  c-0.42,5.59,4.38,11.01,10.06,10.86c13.36,0.069,26.74,0.01,40.11,0.021c5.09,0.399,10.04-3.66,10.52-8.761  c0.33-3.49,1.2-7.24,4.28-9.36c5.53-4.63,14.939-0.98,16.1,6.1c1.79,16.86-13.938,33.25-30.857,32.26  c-13.71-0.05-27.41-0.01-41.11-0.021c-9.85,0.229-18.79-5.869-24.24-13.739c-3.8-4.94-5.05-11.31-4.979-17.43  c0.05-13.62-0.062-27.25,0.05-40.87C806.73,56.28,818,44.1,831.17,41.28z"/>
<path fill="#979897" d="M922.44,50.96c-0.11-5.52,4.947-10.55,10.54-10.05c24-0.01,48.01,0.03,72.02-0.01  c3.96,0.04,7.96-0.32,11.89,0.37c3.7,0.93,5.96,4.43,7.11,7.84v3.85c-0.96,2.24-2.26,4.35-3.98,6.09  c-21.117,20.91-42.18,41.88-63.26,62.83c18.07,0.011,36.143,0.04,54.223-0.03c2.827,0.131,5.97,0.041,8.397,1.771  c2.23,1.5,3.44,4.01,4.62,6.34v4.801c-1.89,3.869-5.26,7.739-10,7.329c-27,0.052-54-0.01-81,0.03  c-5.98,0.568-11.27-5.229-10.51-11.092c0.35-3.719,3.277-6.328,5.72-8.85c20.32-20.291,40.49-40.729,60.771-61.061  c-18.671-0.06-37.351,0.09-56.021-0.05C927.45,61.29,922.4,56.48,922.44,50.96z"/>
<path fill="#979897" d="M217.38,131.029c-0.01-40.021,0.03-80.039-0.02-120.049c0.45-5.32-3.52-9.71-8.48-10.98h-2.71  c-4.66,1.09-8.91,4.93-8.88,9.99c-0.27,10.25,0.1,20.52-0.13,30.78c-14.39-0.17-28.78,0.31-43.17,0.13  c-5.89,0.09-12.03-0.61-17.64,1.58c-11.53,4.44-20.5,15.94-20.38,28.55c-0.09,13.66-0.09,27.34,0,41.01  c-0.1,16.13,14.79,30.989,31.05,30.101c20.34-0.121,40.7,0.069,61.04-0.08C213.82,142.221,217.89,136.439,217.38,131.029z   M197.21,121.9c-17.09-0.062-34.18,0.09-51.26-0.07c-5.5-0.04-10.02-5.41-9.62-10.8c0.01-13.03,0.01-26.06,0-39.09  c-0.3-4.74,3.09-9.4,7.69-10.52c3.29-0.52,6.63-0.29,9.94-0.32c14.42,0.03,28.83,0.01,43.24,0.01  C197.24,81.37,197.23,101.63,197.21,121.9z"/>
<path fill="#979897" d="M443.44,69.99c-0.053-15.7-14.74-29.72-30.4-29.1c-13.35,0.04-26.7,0.04-40.05,0  c-2.55,0.01-5.12,0.09-7.61,0.68c-12.93,3.43-23.47,15.86-23.24,29.48c-0.06,11.31,0.171,22.62,0.07,33.92  c0.01,6.2-0.47,12.719,2.271,18.48c4.93,10.86,16.237,19.42,28.52,18.68c13.3-0.17,26.61,0.14,39.91,0.17  c15.72,0.4,30.51-13.489,30.53-29.329C443.52,98.65,443.53,84.31,443.44,69.99z M423.4,73.98C423.26,86.66,423.47,99.33,423.3,112  c0.03,5.34-4.897,10.12-10.25,9.87c-13.34,0.05-26.68,0.03-40.02,0.01c-5.853,0.42-11-5.069-10.58-10.84  c-0.01-13.02-0.01-26.05,0-39.07c-0.32-4.79,3.13-9.47,7.79-10.57c13.567-0.69,27.21-0.05,40.81-0.32c3.48-0.2,7.24,0.56,9.58,3.37  C423.21,66.9,423.45,70.64,423.4,73.98z"/>
<path fill="#979897" d="M642.84,131.08c-0.07-20.37,0.08-40.74-0.07-61.11c-0.188-13.79-11.317-26.03-24.63-28.71  c-3.647-0.69-7.38-0.54-11.067-0.54c-11.683,0.08-23.36-0.06-35.03,0.04c-5.479-0.22-10.47,4.73-10.38,10.19  c-0.04,5.42,4.93,10.29,10.357,10.12c13.33,0.16,26.673-0.04,40,0.05c4.683-0.3,9.133,3.16,10.263,7.65  c0.71,4.16,0.237,8.41,0.237,12.61c-16.85-0.09-33.697-0.03-50.55-0.04c-15.77-0.31-30.479,13.77-30.357,29.65  c-1,16.35,13.97,31.85,30.37,31.14c20.35-0.069,40.697,0.021,61.05-0.03C638.89,142.5,643.26,136.59,642.84,131.08z M571.97,121.88  c-5.357,0.21-10.22-4.601-10.26-9.92c-0.14-5.46,4.84-10.43,10.32-10.25c16.83-0.11,33.659,0.06,50.5-0.07  c0.147,6.74,0.02,13.48,0.1,20.219C605.74,121.91,588.86,121.91,571.97,121.88z"/>
<path fill="#979897" d="M774.37,122.43c4.09-0.619,8.32-0.609,12.42-0.02c4.17,1.09,3.92,6.18,3.96,9.59  c-0.05,3.42,0.28,8.42-3.77,9.74c-4.25,0.55-8.643,0.609-12.87-0.051c-3.96-1.51-3.353-6.33-3.44-9.739  C770.73,128.57,770.24,123.609,774.37,122.43z"/>
</svg>