<?xml version="1.0" standalone="no"?>
<!DOCTYPE svg PUBLIC "-//W3C//DTD SVG 20010904//EN"
 "http://www.w3.org/TR/2001/REC-SVG-20010904/DTD/svg10.dtd">
<svg version="1.0" xmlns="http://www.w3.org/2000/svg"
 width="605.529885pt" height="501.866759pt" viewBox="0 0 605.529885 501.866759"
 preserveAspectRatio="xMidYMid meet">
<metadata>
Created by potrace 1.16, written by Peter Selinger 2001-2019
</metadata>
<g transform="translate(-14.034836,522.508311) scale(0.100000,-0.100000)"
fill="#1755d1" stroke="none">
<path d="M3850 5220 c-85 -12 -162 -35 -221 -64 -29 -15 -76 -33 -104 -41 -27
-7 -88 -29 -135 -48 -81 -32 -115 -48 -275 -121 -38 -18 -151 -59 -250 -90
-99 -32 -188 -62 -197 -67 -10 -5 -26 -9 -36 -9 -10 0 -22 -4 -27 -8 -6 -4
-35 -16 -65 -26 -30 -11 -59 -23 -65 -27 -5 -5 -17 -9 -27 -9 -10 0 -26 -4
-36 -9 -61 -32 -191 -81 -217 -81 -8 0 -62 -18 -121 -40 -58 -22 -151 -54
-207 -70 -56 -15 -147 -45 -202 -65 -55 -20 -134 -46 -175 -57 -41 -11 -111
-37 -155 -58 -44 -21 -129 -55 -190 -75 -60 -21 -175 -69 -255 -107 -185 -89
-467 -187 -537 -188 -43 0 -149 -76 -176 -125 -18 -34 -36 -137 -37 -210 0
-58 5 -81 31 -135 17 -36 46 -108 64 -160 55 -155 80 -222 103 -274 12 -27 22
-53 22 -58 0 -15 41 -132 51 -144 4 -6 17 -46 28 -90 24 -99 51 -186 60 -199
5 -5 16 -35 25 -65 10 -30 36 -96 57 -146 21 -50 39 -98 39 -105 0 -8 12 -37
27 -64 31 -59 93 -231 93 -260 0 -25 98 -317 111 -330 5 -5 9 -16 9 -25 0 -8
25 -76 56 -150 31 -74 61 -155 68 -180 6 -25 21 -63 33 -85 12 -22 40 -76 63
-120 23 -44 48 -92 56 -106 29 -54 113 -95 226 -109 122 -15 198 -4 314 46 56
24 106 44 112 44 5 0 15 7 22 15 7 8 18 15 26 15 10 0 12 -27 8 -137 -3 -76
-7 -141 -10 -144 -2 -4 -1 -49 3 -99 6 -83 9 -97 37 -134 63 -82 190 -151 321
-175 109 -19 290 -23 1200 -27 495 -2 1037 -6 1205 -9 501 -9 1005 -11 1168
-5 l153 7 77 39 c67 34 80 45 99 84 13 28 25 79 31 135 5 50 16 106 25 125 18
40 24 145 33 580 3 162 7 297 9 300 2 3 -1 93 -6 200 -37 750 -45 1138 -28
1260 7 52 13 147 13 210 -1 99 -4 121 -23 157 -67 125 -165 187 -326 203 -240
24 -473 39 -650 41 -241 3 -396 15 -411 31 -6 7 -18 33 -27 58 -20 57 -63 166
-82 205 -12 27 -53 146 -99 290 -23 75 -81 241 -110 315 -13 36 -30 81 -37
100 -7 19 -23 64 -37 100 -13 36 -30 81 -37 100 -7 19 -22 58 -34 87 -12 28
-21 57 -21 63 0 6 -16 46 -36 88 -20 42 -40 87 -45 99 -9 24 -90 80 -161 112
-57 26 -114 32 -188 21z m173 -115 c32 -15 63 -37 69 -49 6 -11 21 -32 33 -46
25 -27 75 -142 75 -172 0 -10 -5 -18 -10 -18 -6 0 -39 -13 -73 -29 -34 -16
-96 -41 -137 -56 -103 -38 -125 -47 -200 -82 -36 -16 -96 -40 -135 -53 -38
-12 -149 -53 -247 -91 -97 -38 -182 -69 -190 -69 -7 0 -22 -6 -33 -13 -11 -7
-40 -19 -65 -26 -60 -17 -141 -46 -340 -121 -156 -58 -352 -131 -541 -201
-115 -42 -351 -123 -484 -165 -60 -20 -144 -48 -185 -63 -41 -16 -100 -36
-130 -46 -30 -10 -83 -30 -117 -46 -67 -30 -131 -53 -338 -119 -71 -23 -148
-50 -170 -59 -75 -33 -170 -69 -215 -81 -25 -7 -99 -30 -164 -52 -66 -21 -123
-35 -127 -31 -4 4 -21 41 -38 82 -34 80 -41 161 -20 236 14 49 79 115 114 115
14 0 44 9 67 19 24 11 79 31 123 44 137 43 241 83 358 140 117 58 254 116 322
137 22 7 60 23 85 35 82 41 194 82 242 88 26 4 56 11 65 16 10 5 41 17 68 26
28 9 68 25 90 35 23 10 61 23 85 30 73 19 192 57 235 76 22 9 83 29 135 44 53
15 127 41 165 58 39 16 81 33 95 37 14 4 50 19 80 32 81 37 91 41 140 53 25 7
77 22 115 35 39 13 97 31 130 41 33 9 65 20 70 24 6 4 42 17 80 29 39 13 115
45 170 72 55 27 134 58 175 70 41 11 85 27 97 35 12 8 29 14 36 14 8 0 40 12
72 26 71 33 239 75 280 70 17 -2 56 -16 88 -31z m224 -377 c10 -17 29 -66 58
-153 26 -81 50 -139 69 -175 8 -14 22 -52 31 -85 10 -33 26 -82 38 -108 17
-42 18 -50 6 -63 -14 -13 -140 -58 -307 -109 -46 -14 -100 -32 -120 -41 -49
-21 -208 -71 -252 -79 -19 -4 -44 -13 -55 -20 -11 -7 -35 -16 -54 -20 -18 -4
-48 -16 -66 -26 -18 -11 -66 -29 -106 -40 -41 -11 -115 -35 -165 -54 -50 -20
-117 -42 -150 -50 -32 -9 -74 -22 -91 -31 -18 -8 -52 -21 -75 -30 -24 -8 -54
-26 -68 -39 l-26 -25 -229 2 c-316 2 -531 -27 -622 -85 -41 -26 -143 -164
-143 -193 0 -8 -5 -24 -12 -37 -6 -12 -14 -28 -17 -35 -9 -19 -186 -97 -326
-143 -66 -22 -133 -46 -150 -53 -16 -8 -91 -34 -165 -59 -147 -50 -249 -88
-350 -132 -96 -41 -258 -92 -315 -99 l-50 -7 -52 158 c-28 87 -61 181 -72 208
-63 161 -71 188 -58 203 15 19 141 77 187 87 47 10 206 62 228 75 29 17 282
107 392 139 41 12 116 40 165 61 50 22 124 50 165 64 41 13 96 33 123 45 26
11 92 31 146 45 54 13 113 32 130 41 18 9 99 38 179 65 167 56 187 63 332 120
58 23 128 48 155 56 28 9 88 31 135 49 47 18 105 38 130 44 25 7 54 16 65 21
129 57 188 80 233 89 29 6 74 21 100 34 26 13 81 34 122 47 41 13 111 40 155
60 44 21 125 52 180 70 55 18 128 45 163 61 35 16 102 45 150 64 48 20 98 42
112 48 37 17 113 44 127 46 6 0 15 -5 20 -11z m280 -769 c41 -119 69 -188 104
-264 15 -33 30 -75 34 -92 l7 -33 -44 0 c-109 -1 -1153 -2 -1320 -1 -104 1
-188 5 -188 9 0 5 17 14 38 20 20 6 63 18 95 27 32 10 95 33 140 52 45 18 107
40 137 48 30 7 104 34 165 59 60 25 125 49 145 52 19 4 48 13 63 21 31 16 163
62 282 98 44 14 107 36 140 49 91 36 149 55 159 52 6 -1 25 -45 43 -97z m-597
-475 c581 -2 780 -6 797 -15 17 -9 29 -9 46 -2 27 12 634 0 817 -16 159 -14
290 -37 340 -59 58 -25 126 -98 140 -152 6 -24 16 -51 22 -60 9 -13 8 -53 -3
-151 -17 -163 -16 -471 2 -934 27 -713 12 -1350 -36 -1505 -8 -25 -17 -82 -21
-127 -8 -98 -25 -120 -119 -151 -56 -19 -89 -21 -455 -22 -371 -1 -789 3
-1430 15 -314 6 -1048 10 -1314 7 -186 -3 -443 12 -531 29 -76 15 -191 76
-226 120 -29 37 -30 42 -30 146 -2 349 10 2053 14 2060 3 5 6 103 8 218 1 116
6 233 10 261 14 91 96 239 153 273 113 67 245 82 691 74 193 -3 699 -7 1125
-9z m-2056 -382 c3 -5 0 -170 -5 -368 -6 -197 -11 -651 -11 -1008 l-2 -648
-35 -23 c-20 -12 -43 -30 -50 -39 -8 -9 -61 -40 -119 -67 l-105 -51 -111 -2
c-101 -1 -115 1 -156 24 -51 29 -99 92 -144 189 -6 14 -23 49 -38 79 -16 30
-28 61 -28 71 0 9 -12 39 -25 66 -14 28 -25 53 -25 57 0 4 -11 31 -24 60 -13
29 -34 84 -45 122 -12 38 -25 74 -30 80 -12 15 -59 149 -77 216 -20 77 -55
190 -67 220 -18 45 -48 124 -72 190 -12 36 -37 97 -55 135 -30 65 -70 189 -70
217 0 12 85 58 106 58 25 0 220 67 289 100 44 21 96 41 115 45 19 4 49 16 66
26 17 10 71 29 120 43 49 13 109 34 133 46 25 12 101 42 170 66 70 23 158 56
196 73 76 32 91 35 99 23z"/>
<path d="M2820 2327 c-3 -3 -81 -7 -175 -11 l-169 -6 -29 -28 c-39 -39 -48
-114 -36 -297 17 -249 25 -297 55 -321 42 -34 71 -38 394 -53 305 -15 277 -17
320 28 48 50 52 82 40 346 -11 227 -18 258 -71 298 -30 22 -47 26 -144 31 -60
4 -126 9 -145 12 -20 3 -38 3 -40 1z m45 -226 c-5 -69 -11 -186 -14 -260 l-6
-135 -27 -7 c-15 -4 -44 -3 -65 2 -21 5 -70 9 -108 9 -101 0 -111 10 -120 112
-4 46 -11 102 -16 125 -14 66 -14 240 1 257 12 16 71 21 264 22 l98 0 -7 -125z
m238 86 c29 -38 13 -50 -73 -55 l-70 -4 0 44 c0 25 2 47 4 49 3 2 30 2 62 -1
47 -4 60 -10 77 -33z m29 -187 c1 -27 2 -60 2 -71 1 -30 -57 -49 -137 -46
l-62 3 4 74 c2 41 5 78 8 83 2 4 44 7 94 7 l89 0 2 -50z m2 -232 c0 -71 -12
-79 -108 -76 l-80 3 -9 44 c-6 28 -5 47 2 54 14 14 84 25 146 23 l50 -1 -1
-47z"/>
<path d="M2377 1413 c-12 -11 -8 -35 14 -81 l22 -44 -22 -54 c-25 -59 -25 -97
1 -102 11 -2 26 12 44 39 l27 43 19 -27 c16 -22 28 -27 61 -27 24 0 48 7 59
17 23 21 135 19 159 -3 8 -8 35 -14 58 -14 34 0 44 4 48 20 6 23 23 27 23 5 0
-8 11 -22 25 -31 21 -14 31 -15 50 -6 31 14 31 30 3 79 -16 27 -23 54 -23 93
l0 55 -35 0 c-19 0 -40 4 -46 8 -7 4 -36 2 -65 -3 -41 -8 -56 -7 -68 4 -23 19
-81 28 -97 15 -8 -6 -21 -8 -31 -3 -30 13 -115 15 -130 3 -10 -9 -18 -8 -31 5
-19 16 -53 21 -65 9z m183 -105 c0 -30 -15 -69 -22 -58 -27 43 -29 52 -12 71
25 27 34 24 34 -13z m130 -24 c0 -8 -4 -14 -10 -14 -5 0 -10 9 -10 21 0 11 5
17 10 14 6 -3 10 -13 10 -21z m124 2 c-6 -16 -24 -23 -24 -8 0 10 22 33 27 28
2 -2 1 -11 -3 -20z"/>
<path d="M3290 1356 c-6 -8 -18 -12 -25 -10 -19 8 -55 -14 -55 -33 0 -9 7 -24
15 -34 14 -15 14 -20 -5 -58 -30 -56 -37 -113 -16 -130 22 -19 43 -7 60 34 8
19 18 35 22 35 3 0 15 -11 26 -25 25 -32 82 -35 100 -5 7 11 17 20 23 20 6 0
16 -9 23 -20 14 -24 45 -26 62 -5 16 19 34 19 51 -1 16 -20 93 -12 120 12 15
14 19 12 41 -16 29 -37 83 -47 102 -17 12 18 11 19 -37 80 l-28 35 18 37 c17
36 17 37 -2 51 -12 9 -30 12 -47 9 -20 -5 -29 -2 -38 14 -9 17 -20 21 -63 21
-29 0 -58 -5 -65 -12 -9 -9 -15 -9 -24 0 -19 19 -46 14 -84 -15 l-35 -26 -15
21 c-8 12 -21 22 -28 22 -8 0 -19 7 -26 15 -16 19 -54 19 -70 1z m364 -133
c-24 -38 -55 -12 -33 29 10 19 12 19 27 4 13 -12 14 -21 6 -33z m-290 21 c9
-24 7 -28 -9 -14 -17 14 -20 30 -6 30 5 0 12 -7 15 -16z"/>
<path d="M4203 1314 c-31 -23 -35 -24 -68 -13 -26 10 -41 10 -53 3 -25 -16
-27 -51 -3 -66 27 -16 26 -22 -5 -53 -48 -48 -11 -106 47 -71 30 18 31 18 53
-3 12 -12 32 -21 44 -21 11 0 24 -4 27 -10 9 -15 41 -12 55 5 7 8 27 15 46 15
18 0 36 5 39 10 11 18 41 11 65 -15 13 -14 32 -25 42 -25 11 0 34 11 52 25 40
30 48 31 71 5 20 -22 55 -26 73 -8 19 19 14 40 -19 74 l-32 33 17 36 c25 53
18 79 -22 83 -22 2 -34 -2 -38 -12 -8 -22 -21 -20 -27 4 -4 14 -14 20 -34 20
-16 0 -33 -4 -38 -9 -6 -4 -25 -11 -42 -14 -26 -5 -35 -2 -43 13 -15 27 -29
25 -66 -11 l-32 -31 -21 31 c-27 38 -46 39 -88 5z m317 -110 c0 -39 -9 -43
-35 -14 -17 19 -17 21 0 40 23 26 35 17 35 -26z m-275 -12 c0 -31 -19 -28 -23
4 -3 18 0 25 10 22 7 -3 13 -14 13 -26z"/>
<path d="M5061 1298 c-6 -7 -31 -13 -54 -13 -36 0 -42 -3 -45 -23 -2 -13 4
-35 13 -48 15 -23 15 -28 1 -59 -28 -58 -16 -105 26 -105 10 0 23 9 30 20 15
23 31 26 47 6 7 -8 28 -17 48 -21 28 -5 40 -2 59 16 23 21 33 21 66 -3 14 -10
22 -10 38 0 11 6 28 12 38 12 10 0 23 5 28 10 7 7 20 0 39 -20 28 -29 58 -39
69 -21 3 5 42 7 87 5 85 -4 109 4 109 35 0 10 -11 28 -25 41 -14 13 -25 30
-25 37 0 8 11 24 25 37 59 55 -5 105 -69 55 l-27 -22 -16 23 c-12 17 -22 21
-43 16 -18 -3 -33 0 -40 9 -13 15 -88 11 -122 -7 -11 -5 -25 -4 -37 4 -15 9
-24 8 -46 -6 -24 -16 -28 -16 -44 -2 -10 9 -29 16 -44 16 -14 0 -29 5 -32 10
-9 14 -38 13 -54 -2z m84 -98 c19 -21 14 -50 -9 -50 -19 0 -40 36 -32 56 7 19
20 18 41 -6z m170 10 c9 -14 -23 -62 -35 -55 -14 9 -12 39 2 53 15 15 25 15
33 2z m159 -24 c30 -39 31 -49 13 -65 -10 -8 -18 -4 -33 17 -25 34 -36 61 -28
73 9 16 21 10 48 -25z"/>
</g>
</svg>
