<?xml version="1.0" standalone="no"?>
<!DOCTYPE svg PUBLIC "-//W3C//DTD SVG 20010904//EN"
 "http://www.w3.org/TR/2001/REC-SVG-20010904/DTD/svg10.dtd">
<svg version="1.0" xmlns="http://www.w3.org/2000/svg"
 width="611.209993pt" height="591.425759pt" viewBox="0 0 611.209993 591.425759"
 preserveAspectRatio="xMidYMid meet">
<metadata>
Created by potrace 1.16, written by Peter Selinger 2001-2019
</metadata>
<g transform="translate(-13.428423,603.535491) scale(0.100000,-0.100000)"
fill="#343434" stroke="none">
<path d="M3087 6033 c-1 -1 -84 -3 -185 -4 -212 -3 -336 -11 -487 -34 -61 -9
-141 -21 -180 -26 -38 -6 -92 -15 -120 -21 -27 -6 -90 -18 -140 -27 -92 -18
-110 -24 -255 -93 -47 -22 -96 -45 -110 -51 -14 -6 -34 -19 -45 -28 -26 -22
-195 -109 -212 -109 -7 0 -30 -16 -52 -35 -21 -19 -41 -35 -44 -35 -3 0 -52
-28 -109 -62 -82 -50 -126 -87 -215 -178 -61 -63 -119 -122 -127 -130 -112
-105 -168 -166 -194 -212 -18 -31 -39 -62 -48 -69 -61 -50 -244 -444 -244
-524 0 -13 -7 -39 -15 -59 -8 -20 -22 -60 -30 -88 -8 -29 -30 -105 -50 -168
-20 -63 -40 -153 -46 -200 -6 -47 -15 -119 -20 -160 -5 -41 -11 -174 -14 -295
-3 -121 -7 -236 -10 -256 -5 -40 14 -183 40 -291 8 -38 24 -123 35 -190 10
-68 28 -152 39 -188 12 -36 21 -72 21 -80 0 -9 19 -54 43 -100 24 -47 49 -101
57 -120 7 -19 31 -61 52 -94 21 -32 38 -61 38 -64 0 -3 11 -19 24 -36 13 -17
33 -51 46 -76 21 -41 97 -152 188 -275 20 -27 60 -72 88 -100 29 -27 66 -70
84 -95 76 -108 313 -340 347 -340 5 0 18 -9 28 -20 27 -30 203 -128 232 -129
7 -1 36 -12 65 -25 29 -13 69 -28 88 -34 44 -13 137 -44 215 -70 85 -28 222
-63 275 -69 25 -3 49 -9 54 -14 16 -15 45 -10 66 11 21 21 27 74 10 85 -6 4
-10 85 -10 210 0 199 0 204 -22 219 -12 9 -38 16 -58 16 -50 0 -176 25 -267
54 -43 13 -123 34 -178 47 -122 27 -173 56 -263 155 -67 73 -84 100 -141 224
-67 145 -132 234 -216 295 -33 24 -92 68 -132 97 -39 28 -69 56 -66 61 3 5 40
7 82 5 131 -9 265 -86 395 -228 171 -187 189 -203 263 -227 38 -13 76 -23 84
-23 9 0 31 -8 50 -17 48 -25 134 -36 284 -37 111 -1 136 2 170 19 l40 20 2
183 1 182 -34 27 c-29 22 -41 25 -79 20 -31 -5 -58 -1 -92 12 -26 10 -68 24
-93 31 -25 6 -68 22 -95 36 -28 13 -58 24 -67 24 -15 0 -103 43 -174 86 -18
11 -63 47 -102 81 -39 33 -97 79 -129 101 -169 116 -321 361 -378 607 -42 186
-43 190 -50 355 -5 121 -3 175 9 243 9 49 18 93 21 98 3 5 10 33 15 62 5 30
18 72 29 93 11 21 32 62 46 89 63 122 112 200 132 210 53 27 54 29 47 155 -5
99 -3 123 11 150 12 23 20 74 26 164 12 192 35 326 59 350 20 20 21 20 87 3
38 -9 79 -17 93 -17 14 0 44 -9 65 -20 22 -12 69 -33 105 -49 36 -15 90 -45
120 -66 155 -110 179 -125 198 -125 11 0 25 6 31 14 6 8 22 16 34 19 107 23
327 65 347 65 14 0 75 4 135 7 65 4 147 2 200 -5 50 -6 125 -14 167 -18 42 -4
83 -13 90 -19 6 -7 35 -13 62 -13 28 -1 69 -7 91 -15 22 -8 63 -17 90 -21 28
-3 70 -12 94 -21 37 -13 51 -14 100 -3 76 18 87 24 155 91 32 32 68 61 80 65
11 3 32 17 46 29 62 58 234 119 383 137 83 10 100 10 111 -3 24 -25 40 -102
39 -189 -1 -316 -5 -404 -19 -447 -20 -59 -15 -85 21 -103 138 -70 249 -208
300 -375 10 -33 21 -64 25 -70 4 -5 19 -46 35 -90 26 -77 27 -85 21 -220 -3
-77 -15 -192 -26 -255 -11 -63 -23 -130 -27 -149 -4 -24 -14 -38 -36 -50 -17
-9 -47 -31 -68 -49 l-37 -32 -33 52 c-18 29 -54 78 -80 108 -25 30 -67 81 -93
113 -74 91 -143 154 -215 196 -36 22 -74 48 -84 59 -26 28 -171 89 -232 97
-27 3 -93 13 -146 21 -86 14 -103 14 -171 0 -140 -29 -245 -61 -328 -100 -30
-14 -61 -26 -68 -26 -30 0 -161 -87 -225 -149 -68 -65 -147 -162 -147 -179 0
-8 -37 -83 -117 -237 -61 -116 -89 -240 -79 -348 14 -155 24 -224 39 -267 8
-25 20 -72 27 -105 20 -103 42 -168 76 -231 19 -33 34 -68 34 -77 0 -10 15
-34 33 -54 19 -21 53 -69 76 -108 23 -38 55 -88 71 -110 16 -22 49 -69 73
-105 24 -36 67 -92 95 -124 29 -33 52 -67 52 -76 0 -10 7 -23 15 -30 8 -7 15
-18 15 -26 0 -7 33 -61 73 -121 40 -59 80 -125 90 -145 10 -20 29 -51 43 -67
14 -17 47 -72 73 -123 70 -137 88 -166 145 -243 29 -38 72 -110 95 -160 23
-49 55 -106 70 -125 57 -72 100 -139 130 -202 42 -86 60 -102 108 -96 35 5
124 56 138 79 4 5 24 18 45 29 22 11 84 51 137 89 125 87 340 217 374 226 15
4 60 33 100 66 41 32 82 59 91 59 9 0 20 4 23 10 3 5 32 17 63 26 66 19 177
70 193 90 6 8 37 29 68 46 31 18 63 38 72 43 9 6 31 18 49 28 18 10 62 40 99
66 36 26 80 56 98 66 17 11 82 63 145 117 384 327 542 522 573 709 4 24 16 76
26 116 38 150 47 421 19 558 -26 130 -42 192 -54 210 -8 12 -21 49 -30 84 -9
35 -29 80 -45 100 -16 20 -40 59 -54 86 -16 32 -55 77 -108 125 -103 93 -139
119 -210 153 -31 15 -59 33 -62 41 -3 8 -9 54 -13 103 -3 48 -15 115 -25 147
-10 33 -19 70 -19 83 0 12 -9 49 -20 80 -11 32 -29 108 -40 168 -12 61 -28
124 -37 140 -24 48 -82 203 -113 303 -15 51 -34 100 -42 109 -7 9 -32 52 -54
97 -108 212 -133 256 -158 287 -16 18 -32 42 -36 54 -4 11 -26 44 -49 72 -22
29 -41 55 -41 58 0 13 -172 205 -256 285 -49 47 -125 112 -169 145 -44 32
-109 89 -146 126 -36 37 -84 77 -106 89 -23 12 -61 38 -85 59 -24 21 -54 41
-68 46 -14 4 -57 24 -96 46 -40 21 -104 47 -144 58 -40 11 -80 27 -89 35 -9 8
-37 18 -61 22 -25 3 -55 13 -67 20 -12 8 -33 14 -46 14 -21 0 -96 21 -137 38
-13 5 -458 10 -463 5z m403 -120 c88 -11 134 -21 185 -43 11 -5 47 -14 80 -21
33 -6 65 -15 72 -21 6 -5 41 -17 78 -28 78 -22 183 -77 306 -160 49 -33 91
-60 95 -60 5 0 95 -77 203 -176 31 -28 74 -61 97 -73 64 -36 284 -276 366
-400 20 -31 50 -74 65 -95 64 -90 267 -487 276 -541 8 -42 55 -173 73 -200 8
-12 21 -44 28 -71 8 -27 22 -74 31 -104 9 -30 21 -77 26 -105 4 -27 13 -59 18
-70 19 -41 31 -89 31 -127 0 -21 6 -51 14 -66 15 -30 28 -160 17 -167 -4 -2
-54 3 -112 11 -163 23 -365 29 -419 11 -25 -8 -58 -18 -74 -21 -16 -4 -58 -25
-94 -47 -36 -21 -70 -39 -75 -39 -6 0 -7 21 -2 53 4 28 12 84 17 122 18 131
19 255 2 354 -9 52 -20 102 -25 110 -10 20 -49 115 -84 205 -15 39 -46 94 -69
124 -22 29 -51 68 -64 85 -13 18 -45 46 -71 64 -26 18 -53 38 -59 46 -13 16
-19 348 -7 450 8 70 -6 167 -30 217 -7 14 -15 41 -19 62 -9 47 -46 73 -104 71
-82 -3 -267 -36 -362 -64 -96 -29 -119 -43 -280 -166 -38 -29 -71 -53 -75 -53
-3 0 -23 -13 -43 -29 l-37 -29 -175 34 c-96 19 -197 38 -225 43 -139 27 -422
55 -469 47 -17 -3 -79 -10 -137 -15 -97 -9 -187 -27 -338 -66 -64 -17 -98 -7
-164 50 -59 51 -291 166 -352 175 -27 4 -63 12 -80 18 -92 32 -144 44 -164 37
-55 -17 -117 -227 -130 -442 -6 -94 -14 -147 -25 -168 -12 -22 -16 -57 -16
-133 l0 -104 -40 -57 c-22 -31 -40 -61 -40 -67 0 -5 -22 -44 -49 -87 -80 -127
-124 -249 -154 -427 -18 -102 -13 -411 8 -500 9 -41 25 -113 35 -160 27 -124
76 -251 126 -326 24 -36 44 -70 44 -76 0 -23 71 -116 136 -179 38 -36 115 -96
171 -133 56 -36 111 -80 123 -95 21 -31 92 -69 230 -124 108 -43 275 -96 348
-111 53 -10 57 -13 64 -46 5 -19 5 -64 2 -99 -4 -49 -11 -69 -30 -88 -22 -22
-29 -23 -87 -17 -166 18 -260 36 -346 66 -89 31 -97 37 -151 98 -96 111 -247
260 -263 260 -8 0 -19 6 -25 13 -11 13 -107 62 -172 87 -41 16 -192 24 -268
15 -71 -9 -87 -32 -71 -103 12 -57 48 -96 147 -159 161 -103 251 -204 311
-351 24 -59 47 -98 118 -202 41 -61 143 -151 212 -187 25 -14 159 -48 231 -59
25 -4 63 -15 85 -24 23 -10 84 -28 138 -41 139 -34 141 -36 145 -156 1 -54 -1
-118 -6 -143 -7 -42 -10 -45 -37 -42 -17 2 -34 7 -40 11 -13 10 -86 28 -145
37 -25 3 -62 17 -82 30 -20 13 -70 31 -110 40 -40 9 -98 28 -128 42 -30 13
-77 33 -106 42 -28 10 -70 30 -92 44 -23 14 -44 26 -47 26 -7 0 -88 59 -153
112 -69 55 -207 197 -262 268 -24 30 -66 78 -94 105 -28 28 -66 70 -84 93 -54
68 -180 260 -188 284 -3 13 -19 39 -33 58 -37 48 -64 95 -137 238 -66 130 -84
188 -116 372 -10 63 -31 165 -46 225 -23 97 -26 127 -25 254 2 82 7 149 13
155 14 14 13 99 -2 114 -14 14 -12 223 3 322 6 36 13 92 16 125 2 33 9 64 14
70 5 5 9 17 9 26 0 17 84 288 101 324 5 11 18 55 28 98 11 43 23 83 29 90 5 7
14 28 22 47 42 115 100 226 154 298 23 32 54 77 68 102 29 49 82 106 202 215
42 39 82 81 89 95 15 30 107 105 212 174 128 84 133 86 280 165 21 11 46 21
53 21 8 0 40 17 71 38 62 41 108 64 266 133 86 37 310 86 500 109 50 6 106 15
126 21 78 24 820 32 999 12z m175 -2273 c147 -21 246 -58 305 -114 25 -23 59
-51 75 -61 55 -33 147 -118 187 -173 23 -30 58 -73 79 -94 44 -45 99 -136 99
-163 0 -33 30 -55 76 -55 41 0 46 3 83 53 29 39 53 60 89 75 27 12 86 44 131
72 44 27 83 50 86 50 3 0 23 11 43 25 20 14 46 25 58 25 12 0 38 7 57 15 47
19 265 20 397 1 77 -11 113 -23 190 -61 150 -74 305 -196 337 -264 10 -19 32
-57 49 -83 17 -25 37 -70 44 -100 7 -29 19 -65 27 -81 7 -15 18 -46 22 -70 5
-23 16 -76 25 -117 22 -97 22 -276 1 -400 -9 -52 -21 -128 -26 -168 -12 -89
-60 -196 -129 -290 -75 -103 -321 -336 -481 -457 -153 -115 -417 -295 -433
-295 -2 0 -28 -15 -56 -34 -29 -19 -78 -44 -109 -56 -31 -12 -78 -30 -104 -41
-27 -10 -81 -40 -120 -66 -83 -56 -115 -73 -132 -73 -6 0 -36 -17 -66 -39 -30
-21 -72 -48 -94 -60 -22 -12 -60 -37 -85 -56 -25 -19 -52 -38 -60 -42 -15 -7
-95 -59 -233 -151 l-68 -46 -24 30 c-14 16 -39 54 -57 84 -18 30 -46 70 -64
90 -18 20 -60 89 -94 155 -34 66 -74 135 -89 154 -46 59 -101 151 -141 236
-13 28 -37 70 -54 94 -55 78 -205 325 -235 387 -17 34 -51 85 -76 115 -26 30
-62 77 -80 104 -19 28 -47 63 -64 79 -17 17 -31 33 -31 38 0 14 -91 159 -132
211 -20 26 -42 63 -47 82 -5 19 -18 47 -29 62 -21 30 -47 110 -67 208 -7 33
-20 85 -28 115 -37 134 -47 274 -27 362 17 75 173 388 228 456 54 68 123 142
133 142 4 0 35 16 69 35 33 19 80 39 102 46 23 6 51 16 62 24 26 16 224 79
291 93 51 10 69 10 190 -8z"/>
</g>
</svg>
