<?xml version="1.0" standalone="no"?>
<!DOCTYPE svg PUBLIC "-//W3C//DTD SVG 20010904//EN"
 "http://www.w3.org/TR/2001/REC-SVG-20010904/DTD/svg10.dtd">
<svg version="1.0" xmlns="http://www.w3.org/2000/svg"
 width="591.390645pt" height="583.451465pt" viewBox="0 0 591.390645 583.451465"
 preserveAspectRatio="xMidYMid meet">
<metadata>
Created by potrace 1.16, written by Peter Selinger 2001-2019
</metadata>
<g transform="translate(-27.440493,605.790596) scale(0.100000,-0.100000)"
fill="#343434" stroke="none">
<path d="M1118 6055 c-3 -4 -146 -12 -317 -19 -306 -11 -310 -12 -336 -36 -28
-26 -34 -80 -13 -125 15 -33 -5 -549 -28 -706 -8 -57 -14 -162 -14 -234 1 -71
-1 -247 -4 -390 -3 -143 -8 -393 -11 -555 -4 -162 -11 -353 -16 -425 -8 -113
-20 -387 -34 -745 -2 -58 -9 -136 -15 -175 -7 -46 -9 -127 -5 -235 5 -133 4
-178 -9 -230 -10 -43 -16 -114 -16 -210 0 -80 -5 -163 -10 -185 -16 -68 -21
-302 -9 -495 11 -193 13 -259 24 -708 l7 -273 24 -9 c13 -5 24 -13 24 -17 0
-5 16 -21 36 -37 31 -24 40 -27 55 -17 12 7 89 13 201 16 115 3 200 10 228 19
25 8 86 17 135 20 77 5 158 14 367 43 21 3 42 11 48 17 5 7 12 90 15 187 2 96
8 194 12 219 5 25 5 173 0 330 -4 157 -8 303 -9 325 -1 76 22 460 32 525 6 36
12 191 14 345 3 154 9 422 15 595 10 276 13 758 8 1205 -1 88 5 190 17 275 15
114 17 178 12 415 -3 172 -2 303 4 340 6 33 15 105 20 160 4 55 11 118 14 140
26 190 37 337 27 366 -6 18 -11 76 -11 130 0 96 0 97 -31 123 -30 26 -32 26
-209 26 -97 0 -190 3 -206 6 -16 3 -32 3 -36 -1z m315 -111 c9 -3 24 -22 33
-42 21 -51 22 -369 1 -517 -34 -239 -42 -343 -38 -520 7 -320 5 -438 -12 -555
-14 -95 -16 -163 -11 -390 9 -416 6 -802 -9 -1245 -8 -220 -15 -418 -15 -440
0 -85 -12 -331 -18 -358 -3 -16 -7 -83 -9 -150 -2 -67 -8 -167 -14 -222 -7
-70 -7 -128 1 -195 14 -121 5 -733 -12 -808 -8 -34 -19 -57 -33 -66 -29 -19
-132 -34 -297 -46 -75 -5 -156 -14 -181 -19 -26 -6 -119 -12 -208 -13 -147 -3
-164 -1 -176 15 -16 22 -24 173 -29 582 -3 197 -10 343 -21 425 -16 123 -15
188 5 325 14 92 30 369 41 700 6 165 14 377 18 470 24 499 31 624 37 664 5 43
28 867 38 1386 2 143 9 298 15 345 6 47 15 198 21 335 6 138 13 260 15 271 5
24 40 33 165 40 41 3 88 10 103 16 18 7 64 9 125 5 53 -3 106 -2 117 3 22 9
319 12 348 4z"/>
<path d="M4000 5983 c-52 -6 -235 -51 -320 -79 -41 -14 -122 -48 -180 -76 -58
-28 -114 -55 -125 -59 -11 -4 -45 -18 -75 -29 -74 -29 -108 -47 -155 -84 -21
-17 -46 -35 -55 -41 -56 -34 -172 -114 -210 -144 -60 -48 -200 -190 -200 -203
0 -6 -17 -30 -37 -53 -94 -107 -148 -194 -189 -301 -13 -36 -39 -95 -58 -132
-18 -37 -44 -92 -57 -122 -12 -30 -32 -71 -44 -90 -12 -19 -34 -69 -49 -110
-15 -41 -43 -116 -61 -167 -18 -50 -40 -104 -48 -120 -32 -62 -59 -240 -59
-387 0 -209 12 -414 27 -471 7 -27 16 -70 20 -95 10 -70 79 -273 112 -330 8
-14 25 -48 37 -75 13 -28 40 -69 59 -92 19 -24 51 -71 70 -105 20 -35 59 -85
87 -113 29 -27 63 -66 75 -86 23 -35 135 -129 155 -129 5 0 24 -20 43 -45 35
-45 112 -115 128 -115 4 0 35 -26 67 -57 151 -148 197 -183 307 -237 120 -59
201 -96 211 -96 4 0 34 -12 68 -26 90 -39 99 -42 126 -50 35 -10 343 -6 465 6
178 19 229 27 270 44 22 10 63 19 90 20 28 2 81 13 118 24 38 12 96 26 129 32
46 7 69 17 92 39 38 35 68 51 97 51 12 0 43 16 69 35 26 19 70 45 96 56 26 12
66 35 88 51 23 16 73 48 111 70 77 44 148 108 171 151 8 15 52 70 97 122 90
103 149 178 186 234 13 20 41 54 62 76 21 22 45 58 54 79 9 22 27 54 40 70 43
56 98 190 158 381 9 28 34 100 57 160 49 130 46 106 61 411 11 231 11 244 -9
315 -11 41 -30 112 -43 159 -13 47 -37 111 -55 142 -18 31 -35 67 -39 80 -4
13 -34 75 -68 138 -33 63 -83 160 -111 215 -46 91 -83 150 -178 286 -34 48
-293 315 -371 381 -24 21 -61 45 -83 55 -22 10 -64 39 -94 64 -49 40 -97 68
-205 115 -16 7 -69 30 -117 52 -48 22 -122 47 -165 56 -43 9 -107 24 -143 35
-91 27 -194 51 -222 51 -12 0 -65 16 -117 35 -51 19 -101 34 -110 33 -9 0 -32
-3 -51 -5z m100 -147 c41 -7 93 -18 115 -24 22 -7 96 -23 165 -38 150 -31 301
-72 314 -85 6 -5 19 -9 30 -9 12 0 50 -14 84 -30 35 -17 67 -30 71 -30 14 0
185 -101 211 -124 37 -33 97 -76 107 -76 23 -1 125 -91 245 -215 175 -183 246
-288 391 -580 22 -44 49 -93 62 -110 12 -16 28 -48 35 -70 7 -22 27 -69 46
-105 51 -101 60 -128 84 -250 20 -99 22 -132 16 -264 -10 -264 -17 -309 -73
-462 -57 -157 -79 -219 -98 -284 -16 -55 -79 -185 -107 -219 -11 -15 -26 -39
-34 -56 -8 -16 -48 -73 -89 -125 -42 -52 -94 -119 -117 -149 -23 -30 -71 -89
-108 -131 -37 -41 -75 -90 -84 -107 -8 -17 -39 -48 -68 -67 -129 -88 -242
-159 -272 -171 -18 -8 -38 -21 -46 -29 -7 -9 -16 -16 -21 -16 -5 0 -28 -8 -52
-19 -23 -10 -55 -23 -70 -30 -16 -6 -45 -24 -65 -40 -23 -18 -64 -35 -107 -45
-38 -9 -88 -22 -110 -27 -22 -6 -69 -14 -105 -19 -36 -5 -84 -15 -106 -23 -97
-35 -291 -56 -489 -54 -119 1 -197 6 -210 13 -11 7 -31 16 -45 22 -52 20 -325
151 -368 176 -13 7 -75 62 -139 122 -64 60 -133 118 -155 129 -21 12 -56 43
-76 70 -21 27 -57 63 -81 80 -24 16 -63 50 -85 75 -23 24 -73 76 -113 115 -46
44 -81 89 -96 122 -13 29 -40 72 -60 96 -20 25 -51 71 -68 103 -18 33 -35 64
-39 69 -23 34 -100 277 -100 318 0 13 -7 44 -15 67 -22 61 -33 526 -15 607 19
87 29 121 60 203 16 41 31 88 35 105 4 16 17 54 31 83 13 29 24 57 24 63 0 6
20 50 44 97 44 87 196 426 196 439 0 3 7 14 16 24 9 10 23 31 32 48 9 17 47
68 85 115 37 47 67 88 67 93 0 22 188 196 240 223 36 18 127 79 183 123 27 20
55 37 63 37 8 0 40 14 71 30 31 17 61 30 68 30 6 0 43 15 81 34 101 51 210 93
284 111 71 18 110 28 155 43 42 14 88 14 175 -2z"/>
</g>
</svg>
