<?xml version="1.0" standalone="no"?>
<!DOCTYPE svg PUBLIC "-//W3C//DTD SVG 20010904//EN"
 "http://www.w3.org/TR/2001/REC-SVG-20010904/DTD/svg10.dtd">
<svg version="1.0" xmlns="http://www.w3.org/2000/svg"
 width="535.732772pt" height="622.390988pt" viewBox="0 0 535.732772 622.390988"
 preserveAspectRatio="xMidYMid meet">
<metadata>
Created by potrace 1.16, written by Peter Selinger 2001-2019
</metadata>
<g transform="translate(-141.855457,694.837041) scale(0.100000,-0.100000)"
fill="#1755d1" stroke="none">
<path d="M3320 6940 c-25 -4 -57 -6 -72 -3 -14 3 -50 -3 -78 -12 -33 -11 -66
-15 -89 -11 -53 8 -75 -11 -90 -78 -7 -31 -17 -56 -23 -56 -5 0 -7 -7 -4 -15
5 -14 -15 -72 -45 -127 -5 -10 -9 -27 -9 -38 0 -12 -6 -33 -14 -48 -7 -15 -16
-45 -19 -68 -7 -42 -52 -150 -67 -159 -4 -3 -11 -24 -15 -46 -4 -23 -17 -62
-28 -88 -12 -25 -24 -71 -29 -101 -15 -108 -21 -135 -34 -155 -8 -11 -14 -34
-14 -52 0 -17 -16 -65 -35 -105 -30 -64 -68 -182 -82 -258 -3 -14 -14 -43 -24
-66 -10 -22 -19 -48 -19 -57 0 -10 -4 -25 -10 -35 -5 -9 -23 -57 -39 -107 -16
-49 -36 -103 -45 -120 -9 -16 -16 -35 -16 -42 0 -7 -11 -38 -25 -69 -14 -31
-25 -68 -25 -82 0 -14 -8 -44 -19 -66 -10 -23 -23 -59 -29 -81 -35 -127 -55
-193 -65 -215 -23 -55 -46 -126 -47 -145 0 -11 -11 -37 -25 -57 -14 -20 -25
-46 -25 -58 0 -30 -21 -113 -31 -124 -5 -6 -9 -19 -9 -30 0 -12 -7 -29 -15
-39 -7 -11 -17 -37 -20 -59 -4 -23 -14 -56 -21 -74 -8 -18 -14 -44 -14 -57 0
-13 -11 -45 -25 -71 -14 -26 -25 -55 -25 -64 0 -9 -7 -30 -16 -47 -9 -16 -20
-53 -24 -81 -4 -27 -17 -71 -29 -97 -11 -25 -21 -53 -21 -62 0 -9 -11 -38 -25
-65 -27 -53 -55 -128 -55 -148 0 -7 -9 -31 -20 -54 -10 -22 -29 -79 -41 -127
-11 -47 -27 -93 -33 -101 -7 -8 -18 -31 -26 -50 -7 -19 -22 -55 -33 -80 -11
-25 -23 -61 -27 -80 -4 -19 -20 -66 -34 -105 -14 -38 -26 -78 -26 -87 0 -24
-44 -51 -70 -43 -30 10 -80 -14 -91 -42 -21 -56 -12 -89 39 -135 l47 -43 -6
-54 c-8 -58 1 -95 23 -104 22 -8 94 8 123 27 14 9 30 28 35 42 5 13 15 24 21
24 6 0 9 9 6 19 -3 12 3 27 14 37 10 9 19 23 19 31 0 8 4 12 9 8 6 -3 6 -18 0
-38 -36 -125 57 -160 331 -127 128 16 165 17 167 5 2 -5 -8 -10 -22 -10 -28 0
-63 -41 -48 -56 5 -5 34 -9 64 -9 113 1 125 6 154 65 12 26 22 35 40 35 13 0
26 -4 29 -8 3 -4 41 -8 86 -7 45 1 83 -2 86 -6 2 -4 -5 -28 -16 -54 -11 -26
-20 -61 -20 -80 0 -18 -6 -38 -14 -44 -7 -6 -13 -29 -13 -51 0 -22 -8 -51 -17
-65 -10 -15 -15 -32 -13 -38 2 -7 -2 -25 -11 -42 -8 -16 -18 -37 -23 -46 -4
-9 -11 -33 -14 -53 -4 -20 -11 -39 -16 -42 -5 -3 -9 -15 -9 -28 0 -12 -7 -31
-15 -42 -8 -10 -15 -28 -15 -39 0 -11 -9 -31 -20 -45 -11 -14 -20 -32 -20 -41
0 -9 -9 -28 -20 -42 -11 -14 -20 -32 -20 -41 0 -9 -4 -24 -9 -34 -5 -9 -15
-36 -22 -59 -6 -23 -23 -52 -35 -64 -13 -13 -24 -27 -24 -32 0 -6 -8 -19 -17
-29 -10 -12 -20 -46 -25 -91 -6 -59 -4 -74 9 -89 15 -17 15 -20 -5 -48 -17
-22 -22 -43 -22 -89 0 -57 2 -61 30 -76 23 -12 39 -13 72 -6 29 7 46 6 55 -1
23 -19 185 -10 206 11 13 13 49 15 63 2 5 -5 43 -11 85 -15 61 -5 79 -4 89 9
9 10 17 12 30 5 28 -15 76 -12 90 5 11 13 14 13 27 0 19 -20 58 -19 88 1 14 9
32 14 40 11 8 -4 28 -1 45 5 39 13 45 7 32 -31 -10 -28 -8 -33 29 -66 32 -29
44 -34 67 -29 53 13 70 23 77 43 3 12 15 26 26 31 14 8 18 17 13 34 -3 13 -1
27 5 30 6 4 11 24 11 45 0 24 9 49 25 70 20 27 22 38 13 54 -8 17 -6 23 12 37
16 12 20 23 16 38 -8 23 12 70 38 91 9 8 16 24 16 37 0 13 5 24 12 24 9 0 9 3
0 12 -18 18 -15 43 11 96 13 26 29 72 37 102 7 30 19 64 27 76 7 11 11 23 8
26 -7 7 14 57 33 80 9 10 13 30 10 49 -5 32 20 98 50 132 9 10 16 35 17 55 0
22 10 51 23 70 13 17 22 37 20 44 -1 7 6 27 15 45 9 18 17 42 17 55 1 26 32
124 51 160 7 13 14 30 16 38 6 34 23 116 27 130 3 8 5 18 5 22 1 4 10 9 20 13
11 3 22 19 26 35 4 17 11 32 16 35 5 4 9 17 9 31 0 13 4 24 9 24 16 0 42 32
37 46 -3 7 2 18 10 24 8 7 14 19 14 26 0 18 20 17 44 -1 28 -21 102 -20 115 3
9 15 31 17 218 18 227 1 334 8 363 24 10 5 35 10 55 10 40 0 149 33 206 62 20
10 42 18 49 18 6 0 23 9 37 20 14 11 29 18 33 15 4 -2 29 4 56 14 111 43 131
49 184 61 30 6 67 16 82 22 14 5 61 18 105 28 212 49 288 73 309 98 13 16 27
23 37 19 9 -3 32 6 55 23 22 15 57 37 79 49 30 15 42 28 46 51 5 25 11 30 35
30 33 0 116 50 132 79 6 12 20 21 31 21 19 0 110 86 106 100 -1 3 15 23 36 42
30 28 37 41 32 60 -5 18 0 28 22 44 16 12 38 24 51 28 12 4 22 15 22 24 0 9
14 37 30 62 16 25 30 55 30 66 0 12 7 27 15 34 9 7 23 29 32 49 9 20 23 44 31
53 12 14 12 20 2 33 -7 8 -8 15 -2 15 24 0 44 87 48 215 3 72 7 136 9 143 3 7
-1 30 -9 51 -9 27 -10 44 -3 56 15 27 2 180 -17 210 -9 13 -16 32 -16 41 0 19
-33 64 -77 107 -18 17 -33 36 -33 43 0 6 -15 25 -32 41 -74 67 -108 158 -76
200 5 7 7 17 3 22 -3 6 1 23 8 38 17 33 28 102 31 198 1 39 6 76 10 83 4 6 2
20 -3 31 -8 14 -6 23 10 37 18 16 20 26 15 74 -3 30 -8 73 -10 95 -5 58 -47
129 -121 206 -36 37 -65 71 -65 76 0 14 -92 104 -117 114 -21 8 -47 41 -98
124 -11 17 -52 60 -92 94 -39 35 -74 68 -76 76 -3 7 -18 16 -34 19 -15 4 -36
15 -45 23 -10 9 -18 13 -18 9 0 -10 -54 20 -69 38 -8 9 -23 16 -35 16 -30 0
-126 36 -157 59 -16 12 -59 24 -110 32 -46 6 -97 20 -113 30 -17 10 -49 21
-73 25 -23 3 -48 12 -54 20 -6 8 -28 14 -48 14 -21 0 -65 15 -106 35 -46 23
-84 35 -111 35 -28 0 -44 5 -48 15 -3 8 -14 15 -24 15 -10 0 -33 7 -50 16 -18
8 -36 13 -42 9 -5 -3 -22 0 -37 8 -15 8 -34 12 -41 10 -7 -3 -21 2 -31 11 -10
9 -21 13 -24 10 -4 -4 -13 -1 -22 6 -8 7 -25 10 -36 7 -12 -3 -35 1 -50 9 -15
7 -40 14 -54 14 -14 0 -28 7 -32 16 -5 13 -16 15 -59 10 -29 -3 -55 -2 -58 2
-3 5 -31 14 -63 21 -32 7 -80 19 -108 28 -64 19 -399 31 -409 14 -9 -14 -59
-14 -73 0 -7 7 -63 12 -140 14 -70 2 -141 8 -156 14 -31 12 -89 12 -157 1z
m160 -171 c58 0 116 0 130 1 95 2 533 -20 570 -29 25 -6 61 -14 80 -17 19 -4
40 -11 47 -16 7 -5 27 -8 45 -6 37 3 112 -15 176 -44 24 -10 52 -16 61 -13 10
3 23 -1 30 -9 6 -7 33 -17 59 -21 26 -4 60 -14 77 -23 16 -8 39 -16 50 -18 11
-1 34 -7 50 -13 17 -5 57 -17 90 -26 33 -9 77 -23 97 -31 21 -7 44 -11 53 -8
8 4 21 1 28 -5 17 -14 94 -41 129 -46 45 -6 110 -26 132 -40 12 -7 41 -16 66
-19 25 -4 54 -15 65 -25 18 -16 55 -29 136 -45 14 -3 54 -28 89 -56 35 -28 75
-53 89 -57 36 -8 71 -42 71 -69 0 -23 42 -64 66 -64 7 0 18 -9 24 -20 6 -11
17 -20 25 -20 8 0 19 -9 25 -20 6 -10 68 -78 139 -149 l128 -129 12 -69 c7
-37 17 -77 23 -89 7 -14 6 -33 -1 -59 -8 -30 -7 -44 5 -67 17 -33 9 -119 -19
-198 -9 -25 -19 -57 -22 -72 -4 -24 -8 -26 -33 -18 -35 10 -106 37 -157 60
-54 24 -107 40 -131 40 -10 0 -34 9 -52 20 -18 11 -39 20 -48 20 -8 0 -34 9
-56 20 -23 11 -49 20 -59 20 -9 0 -22 6 -28 14 -6 8 -35 17 -64 20 -29 4 -59
11 -66 16 -8 5 -25 4 -39 -1 -17 -7 -29 -6 -40 3 -8 7 -20 13 -26 13 -11 1
-30 8 -71 25 -11 5 -45 12 -75 15 -30 4 -68 13 -85 20 -16 6 -54 13 -83 14
-29 1 -71 9 -93 16 -23 8 -44 13 -48 10 -4 -2 -26 3 -49 10 -23 8 -77 18 -119
22 -111 10 -415 5 -427 -7 -5 -5 -22 -10 -37 -10 -15 0 -31 -5 -35 -11 -3 -6
-22 -9 -43 -7 -20 3 -45 -1 -56 -8 -11 -6 -67 -17 -124 -24 -94 -11 -106 -11
-116 4 -16 22 -68 20 -89 -2 -11 -13 -14 -28 -10 -48 5 -25 2 -32 -18 -41 -33
-16 -103 -188 -88 -214 5 -7 5 -19 0 -28 -26 -53 -50 -113 -50 -124 0 -7 -6
-19 -12 -26 -7 -6 -14 -26 -14 -44 -1 -18 -18 -84 -38 -147 -19 -63 -35 -124
-34 -135 0 -11 -7 -33 -16 -50 -9 -16 -16 -42 -16 -57 0 -15 -5 -30 -10 -33
-15 -10 -38 -69 -45 -120 -4 -25 -11 -48 -16 -51 -5 -3 -9 -19 -9 -35 0 -22
-9 -39 -32 -60 -71 -63 -98 -94 -98 -114 -1 -11 -9 -38 -20 -60 -11 -22 -19
-50 -20 -63 0 -12 -9 -40 -20 -62 -11 -22 -20 -55 -20 -74 0 -19 -4 -37 -9
-41 -12 -7 -41 -64 -41 -80 0 -7 -9 -24 -20 -38 -11 -14 -20 -31 -20 -38 0
-17 -39 -97 -51 -105 -5 -3 -9 -18 -9 -33 0 -15 -9 -36 -20 -46 -12 -10 -19
-24 -16 -31 3 -7 -1 -17 -7 -23 -7 -5 -14 -22 -15 -37 -1 -15 -9 -35 -17 -44
-21 -23 -46 -87 -40 -102 3 -8 -8 -27 -25 -43 -21 -20 -30 -38 -30 -60 0 -17
-9 -48 -20 -70 -11 -22 -20 -49 -20 -61 0 -12 -7 -27 -15 -34 -8 -7 -15 -27
-15 -44 0 -18 -4 -36 -8 -41 -8 -10 -29 -77 -51 -161 -6 -23 -11 -55 -11 -72
0 -17 -4 -34 -10 -37 -5 -3 -10 -15 -10 -25 0 -11 -18 -34 -40 -51 -22 -18
-40 -39 -40 -46 0 -8 -10 -27 -21 -43 l-22 -29 -134 0 c-74 0 -149 -3 -166 -6
-18 -4 -46 -1 -62 5 -23 9 -32 8 -40 -3 -8 -11 -34 -12 -140 -6 -82 5 -134 4
-141 -2 -8 -7 -36 -6 -81 1 -144 24 -163 24 -188 0 -22 -21 -52 -20 -39 1 15
25 11 65 -8 86 -11 12 -17 27 -13 34 4 6 9 34 9 61 1 29 8 53 15 58 8 4 11 15
8 24 -7 16 5 45 31 78 8 9 15 35 17 57 1 23 7 47 11 54 5 6 18 30 29 52 10 22
27 49 37 60 9 11 19 42 22 69 3 26 12 56 20 65 9 10 16 31 16 47 0 16 7 39 15
52 9 12 17 42 19 66 1 25 10 54 19 64 9 10 17 23 17 29 0 6 12 31 26 57 20 37
23 50 14 61 -13 15 -3 42 24 65 9 7 16 27 16 44 0 29 17 89 32 112 11 17 38
98 38 115 0 9 6 22 13 28 8 6 12 23 9 42 -5 33 35 169 50 169 4 0 8 13 8 29 0
16 6 31 15 35 9 3 15 18 15 39 0 19 7 40 15 47 8 7 15 23 15 35 0 12 7 28 15
35 8 7 15 22 15 34 0 11 0 32 1 46 0 13 7 32 15 42 9 9 13 22 9 28 -4 6 1 20
10 30 9 10 15 27 14 37 -2 10 1 29 6 43 5 14 8 35 6 48 -2 17 3 25 18 29 12 3
21 12 21 20 0 22 32 116 47 138 16 24 17 57 1 73 -9 9 -7 16 8 33 10 12 20 33
20 48 3 43 35 121 55 132 12 6 19 21 19 37 0 15 7 38 16 50 9 13 14 26 10 29
-3 3 1 18 9 33 23 44 45 113 45 141 0 15 7 32 16 40 8 7 13 21 10 31 -2 11 2
22 10 25 8 3 14 19 14 38 0 19 4 36 9 39 4 3 11 31 15 63 9 77 26 134 48 157
10 11 18 30 18 43 0 13 5 23 10 23 6 0 10 18 10 40 0 47 24 100 45 100 10 0
14 13 13 48 0 61 5 94 16 111 5 7 10 21 11 30 3 28 17 76 27 88 23 29 48 89
48 115 0 15 5 30 10 33 6 3 10 20 10 37 0 20 9 39 26 55 16 15 24 30 20 40 -8
20 13 82 36 109 11 12 21 38 25 58 4 28 10 36 27 36 12 0 26 4 32 9 15 15 96
29 139 25 22 -3 87 -5 145 -5z m1290 -1405 c36 -3 97 -5 137 -4 54 1 82 -4
114 -19 25 -12 63 -21 90 -21 49 0 118 -15 199 -44 25 -9 55 -16 67 -16 12 0
25 -4 28 -10 3 -5 26 -10 50 -10 24 0 47 -4 50 -10 3 -5 14 -10 25 -10 10 0
44 -13 75 -30 31 -16 67 -30 80 -30 12 0 28 -7 35 -15 8 -10 27 -14 62 -12 36
3 54 -1 70 -15 12 -10 28 -18 37 -18 9 0 27 -7 40 -16 13 -9 43 -17 67 -18 35
-2 55 -11 106 -52 35 -27 71 -52 82 -57 15 -6 17 -14 11 -44 -8 -45 -40 -84
-102 -127 -34 -23 -49 -41 -51 -60 -2 -15 -11 -30 -20 -34 -17 -6 -94 -65
-167 -128 -22 -19 -55 -37 -73 -40 -22 -4 -36 -14 -42 -28 -4 -12 -14 -26 -21
-32 -17 -13 -143 -61 -184 -70 -16 -4 -39 -15 -50 -24 -11 -10 -45 -25 -76
-34 -31 -9 -83 -35 -116 -58 -52 -38 -111 -71 -178 -99 -25 -10 -284 -47 -390
-56 -119 -9 -638 -3 -649 8 -13 12 -63 11 -71 -1 -9 -14 -155 -6 -184 10 -12
6 -21 8 -21 5 0 -3 -15 6 -34 20 -45 34 -54 79 -25 118 14 20 19 36 14 54 -4
16 0 34 10 50 9 14 15 33 12 44 -3 10 1 23 9 30 8 6 14 24 14 39 0 15 9 35 21
46 14 13 18 25 14 42 -5 22 10 84 27 108 4 6 3 25 -2 43 -7 25 -5 39 10 64 10
18 21 48 25 67 4 19 16 51 27 72 12 23 17 45 13 58 -4 14 -1 28 10 40 11 12
16 31 13 57 -2 32 0 38 17 38 26 0 59 63 43 82 -7 9 -7 17 2 28 10 12 31 16
85 14 39 -1 80 3 91 9 12 6 30 9 40 6 12 -3 30 4 44 16 13 11 35 23 49 26 14
2 51 12 81 21 30 9 78 17 105 18 28 1 57 5 65 8 21 9 71 14 100 11 14 -2 54
-6 90 -10z m1652 -636 c51 -39 78 -70 78 -91 0 -11 11 -43 24 -71 20 -42 24
-68 25 -146 1 -52 3 -125 6 -163 2 -45 -1 -79 -11 -102 -8 -19 -14 -49 -14
-67 0 -18 -7 -46 -15 -62 -8 -15 -15 -38 -15 -50 0 -12 -7 -31 -15 -42 -8 -10
-15 -26 -15 -35 0 -8 -16 -33 -35 -55 -20 -21 -38 -51 -42 -66 -3 -14 -18 -39
-34 -54 -16 -15 -29 -35 -29 -43 0 -9 -15 -31 -34 -51 -19 -19 -50 -51 -69
-70 -49 -50 -150 -139 -173 -153 -11 -7 -35 -21 -53 -32 -19 -11 -49 -32 -66
-47 -18 -16 -42 -28 -54 -28 -12 0 -24 -7 -28 -15 -8 -23 -50 -42 -123 -56
-36 -7 -77 -21 -92 -31 -14 -10 -40 -18 -57 -18 -17 0 -45 -6 -63 -14 -48 -20
-102 -36 -122 -36 -9 0 -34 -9 -56 -20 -22 -11 -53 -20 -70 -20 -17 0 -47 -7
-67 -15 -19 -8 -45 -15 -57 -15 -12 0 -30 -6 -41 -14 -11 -8 -43 -21 -72 -29
-28 -9 -63 -23 -77 -32 -14 -10 -52 -21 -83 -26 -32 -4 -89 -15 -128 -24 -54
-13 -101 -15 -205 -11 -182 7 -280 15 -310 26 -14 5 -55 9 -92 8 -58 -1 -70 2
-98 25 -53 45 -120 27 -134 -35 -3 -16 -9 -40 -12 -55 -4 -16 -12 -33 -20 -39
-12 -10 -14 -23 -13 -93 0 -13 -9 -33 -19 -45 -11 -11 -22 -38 -25 -59 -3 -20
-14 -50 -25 -65 -11 -15 -25 -45 -33 -67 -7 -22 -17 -44 -21 -49 -4 -6 -8 -20
-8 -32 0 -29 -28 -94 -41 -94 -7 0 -7 -6 0 -17 7 -13 6 -23 -3 -33 -7 -8 -21
-37 -31 -65 -9 -27 -20 -57 -23 -65 -3 -8 -6 -28 -7 -43 -2 -15 -10 -36 -19
-46 -9 -10 -16 -29 -16 -44 0 -14 -4 -29 -10 -32 -5 -3 -10 -19 -10 -34 0 -15
-5 -32 -12 -39 -15 -15 -38 -83 -32 -94 3 -5 -4 -25 -15 -44 -12 -19 -21 -44
-21 -54 0 -10 -5 -22 -10 -25 -5 -3 -10 -21 -10 -39 0 -19 -7 -39 -15 -46 -8
-7 -15 -26 -15 -42 0 -16 -9 -48 -19 -71 -37 -82 -71 -171 -71 -186 0 -9 -7
-29 -15 -45 -8 -15 -15 -36 -15 -45 0 -10 -11 -39 -25 -66 -13 -27 -22 -52
-19 -57 9 -14 -26 -48 -48 -48 -11 0 -28 -5 -38 -10 -11 -6 -60 -12 -109 -14
-49 -2 -93 -6 -98 -9 -5 -4 -72 -9 -149 -13 -76 -3 -146 -10 -155 -15 -27 -14
-176 17 -213 44 -27 20 -6 83 44 132 22 22 38 45 36 51 -2 6 -1 29 4 50 7 29
5 43 -6 55 -19 22 -18 34 7 51 14 9 23 27 26 48 2 19 8 37 13 38 6 2 10 16 10
32 0 15 7 33 15 40 8 7 15 20 15 29 0 9 7 24 14 34 8 10 12 26 9 36 -3 10 5
38 16 62 12 23 21 55 21 70 0 14 8 37 18 50 41 54 71 116 65 137 -7 29 3 67
24 88 9 9 17 28 18 43 0 22 4 26 26 23 33 -4 79 14 79 30 0 7 9 19 21 26 29
18 62 100 55 139 -3 24 0 35 11 42 11 6 19 31 25 77 4 38 12 70 18 72 5 2 10
18 10 36 0 41 17 92 43 129 16 24 19 39 14 89 -5 53 -3 60 15 67 19 7 47 74
50 121 0 8 5 20 10 27 5 7 7 17 4 22 -4 5 -2 12 4 16 5 3 17 23 26 43 9 20 21
47 27 59 6 13 7 26 4 30 -4 3 0 17 8 29 10 15 11 25 4 29 -7 5 -6 12 4 23 7
10 22 35 32 57 10 22 29 53 41 68 13 16 24 38 24 50 0 12 9 33 20 47 11 14 20
34 20 45 0 12 9 38 20 60 11 22 20 45 20 52 0 7 11 20 25 29 20 13 23 20 14
35 -8 15 -4 27 21 57 26 33 31 48 33 105 2 36 6 69 10 73 3 4 39 1 79 -6 61
-10 82 -10 130 3 40 11 70 12 103 6 29 -5 54 -5 65 1 13 7 27 6 43 -1 19 -9
42 -8 98 4 45 9 80 11 91 6 15 -8 51 -7 159 6 26 3 75 0 110 -6 35 -6 88 -11
117 -11 28 1 67 1 85 1 51 -1 279 0 309 1 15 0 30 5 33 10 4 6 19 10 34 10 16
0 34 6 40 14 6 7 34 16 62 19 29 4 59 13 68 20 9 8 45 20 79 28 49 10 68 20
83 40 10 15 33 30 51 34 43 10 38 8 80 34 20 12 39 28 41 35 3 8 20 16 39 19
69 12 93 21 111 44 10 12 27 23 36 23 10 0 30 9 45 21 14 11 26 18 26 14 0
-10 64 27 91 54 47 46 133 108 179 130 25 12 65 41 89 66 24 25 49 45 56 45
14 0 50 38 58 62 3 9 24 29 47 43 22 14 40 31 40 38 0 40 48 47 92 15z"/>
</g>
</svg>
