<?xml version="1.0" encoding="UTF-8"?>
<svg width="100" version="1.1" viewBox=".53 .02 99.03 96.33" xmlns="http://www.w3.org/2000/svg">
 <g fill="none" fill-rule="evenodd">
  <g fill="#343434">
   <path d="m87.202 48.535c-1.7485-3.9176-4.2149-7.277-7.9832-9.5208-1.0287-0.61268-1.9644-0.43353-2.4218 0.67306-0.38515 0.93239-0.93762 1.2293-1.8792 1.4243-2.0198 0.41769-2.205 0.79283-2.0495 2.911 0.015842 0.21182 0.1 0.46322 0.018812 0.63248-0.96436 2.0142 0.14059 3.4059 1.3881 4.7728 0.52871 0.57804 1.0267 1.1858 1.5267 1.7896 1.9356 2.3329 3.4535 4.9381 4.4485 7.7758 1.596 4.5531 0.063366 8.5776-2.5812 12.272-2.305 3.2208-5.6743 5.2142-8.9861 7.1473-8.1762 4.7698-17.039 7.664-26.38 9.1497-2.4634 0.39097-4.8802 0.34841-7.1465-0.68395-2.5297-1.1531-5.0228-2.4102-7.4347-3.7929-4.3089-2.4705-7.9752-5.7705-11.459-9.2764-1.9446-1.9558-3.3545-4.1928-4.0673-6.9207-0.80297-3.0694-1.2663-6.1486-1.0396-9.3169 0-1.4966-0.20396-3.0268 0.038614-4.4838 0.68614-4.1314 0.72673-8.345 2.0307-12.413 0.80792-2.521 2.0317-4.7233 3.5752-6.7415 2.7059-3.5385 6.3257-6.1526 9.7822-8.8933 1.601-1.2699 3.3901-2.4082 5.2634-3.2079 4.2584-1.8183 8.7129-2.4943 13.367-1.7678 4.1663 0.64931 7.8663 2.2498 11.233 4.757 0.77822 0.57903 1.7436 0.93536 2.6644 1.2838 0.78416 0.29694 1.5257 0.14154 2.1267-0.55231 0.68515-0.79283 0.57525-1.6787 0.089109-2.3854-1.0703-1.5569-1.8198-3.4534-3.899-4.0829-0.39208-0.11779-0.72277-0.45135-1.0693-0.70374-1.8347-1.3412-3.5614-2.8655-5.5178-3.9938-3.7158-2.1429-7.7634-3.2723-12.099-2.815-5.4505 0.57507-10.53 2.5002-15.562 4.5382-0.78911 0.31871-1.5752 0.70968-2.2634 1.2046-5.9723 4.2868-11.117 9.3278-14.443 16.007-0.3495 0.70177-0.7901 1.358-1.1337 2.0637-0.46337 0.95416-0.94257 1.9113-1.2921 2.91-0.61188 1.745-1.1842 3.5078-1.6733 5.2895-0.54554 1.9865-1.2248 3.981-1.4158 6.012-0.50693 5.3815-0.71188 10.769 0.33564 16.147 0.83663 4.2957 1.8604 8.5033 4.5218 12.069 1.7376 2.329 3.5921 4.5887 5.5653 6.7197 2.6545 2.8664 5.899 4.9896 9.6485 6.0853 5.6 1.6381 11.284 2.9862 16.905 4.556 3.8406 1.0729 7.7416 1.2422 11.68 1.1244 2.4634-0.074235 4.7723-0.74136 6.9713-1.8588 1.2693-0.64535 2.5703-1.2491 3.9059-1.7391 4.9733-1.8262 9.7307-4.0799 14.127-7.0503 2.8426-1.9212 5.5426-4.0047 7.7881-6.6485 3.199-3.7672 5.2485-8.1054 6.705-12.776 0.48812-1.5629 1.0851-3.0565 0.86634-4.7787-0.55644-4.3878-0.94653-8.8122-2.7752-12.911"/>
  </g>
 </g>
</svg>
