<?xml version="1.0" encoding="UTF-8" standalone="no"?>
<!-- Created with Inkscape (http://www.inkscape.org/) -->

<svg
   width="1280"
   height="800"
   viewBox="0 0 338.66666 211.66666"
   version="1.1"
   id="svg1"
   inkscape:version="1.4.3 (0d15f75, 2025-12-25)"
   sodipodi:docname="default-project.svg"
   xml:space="preserve"
   xmlns:inkscape="http://www.inkscape.org/namespaces/inkscape"
   xmlns:sodipodi="http://sodipodi.sourceforge.net/DTD/sodipodi-0.dtd"
   xmlns="http://www.w3.org/2000/svg"
   xmlns:svg="http://www.w3.org/2000/svg"><sodipodi:namedview
     id="namedview1"
     pagecolor="#ffffff"
     bordercolor="#d4d4d4"
     borderopacity="1"
     inkscape:showpageshadow="true"
     inkscape:pageopacity="0.0"
     inkscape:pagecheckerboard="false"
     inkscape:deskcolor="#ffffff"
     inkscape:document-units="mm"
     inkscape:zoom="0.68417508"
     inkscape:cx="587.5689"
     inkscape:cy="384.40453"
     inkscape:window-width="1376"
     inkscape:window-height="847"
     inkscape:window-x="67"
     inkscape:window-y="25"
     inkscape:window-maximized="1"
     inkscape:current-layer="icons_Q2"
     showborder="true"
     labelstyle="default" /><defs
     id="defs1" /><g
     inkscape:label="Layer 1"
     inkscape:groupmode="layer"
     id="layer1"><circle
       id="path315"
       style="fill:#000000;stroke:#000000;stroke-width:0.264583"
       cx="-25.136719"
       cy="22.429688"
       r="0.027257873" /><circle
       id="path320"
       style="fill:#000000;stroke:#000000;stroke-width:0.264583"
       cx="-51.820309"
       cy="93.585938"
       r="0.027257873" /><circle
       id="path321"
       style="fill:#000000;stroke:#000000;stroke-width:0.264583"
       cx="-14.308594"
       cy="83.144531"
       r="0.027257873" /><circle
       id="path322"
       style="fill:#000000;stroke:#000000;stroke-width:0.264583"
       cx="-25.910154"
       cy="87.785156"
       r="0.027257873" /><g
       id="Layer_2"
       data-name="Layer 2"
       transform="matrix(1.6704644,0,0,1.6704644,108.40885,64.908854)"><g
         id="invisible_box"
         data-name="invisible box"><rect
           width="48"
           height="48"
           fill="none"
           id="rect1"
           x="0"
           y="0" /><rect
           width="48"
           height="48"
           fill="none"
           id="rect2"
           x="0"
           y="0" /></g><g
         id="icons_Q2"
         data-name="icons Q2"><path
           d="m 36.68364,3.3880778 a 21.6,21.6 0 0 0 -6.8,42.2000002 c 1,0.2 1.8,-0.9 1.8,-1.8 v -2.9 c -6,1.3 -7.9,-2.9 -7.9,-2.9 a 6.5,6.5 0 0 0 -2.2,-3.2 c -2,-1.4 0.1,-1.3 0.1,-1.3 a 4.3,4.3 0 0 1 3.3,2 c 1.7,2.9 5.5,2.6 6.7,2.1 a 5.4,5.4 0 0 1 0.5,-2.9 c -6.8,-1.2 -10.5,-5.2 -10.5,-10.6 a 10.7,10.7 0 0 1 2.9,-7.6 6.2,6.2 0 0 1 0.3,-6.4 8.9,8.9 0 0 1 6.4,2.9 15.1,15.1 0 0 1 5.4,-0.8 17.1,17.1 0 0 1 5.4,0.7 9,9 0 0 1 6.4,-2.8 6.5,6.5 0 0 1 0.4,6.4 10.7,10.7 0 0 1 2.8,7.6 c 0,5.4 -3.7,9.4 -10.5,10.6 a 5.4,5.4 0 0 1 0.5,2.9 v 6.2 a 1.8,1.8 0 0 0 1.9,1.8 21.7,21.7 0 0 0 -6.9,-42.2000002 z"
           id="path2"
           style="fill:#4d4d4d;fill-opacity:1" /></g></g></g></svg>
