<?xml version="1.0" encoding="UTF-8"?>
<svg xmlns="http://www.w3.org/2000/svg" width="464" height="298" viewBox="8 9 464 298" fill="none">
  <g fill="#343434">
    <circle cx="10" cy="14" r="1.6"/>
    <circle cx="22" cy="14" r="1.6"/>
    <circle cx="34" cy="14" r="1.6"/>
    <circle cx="46" cy="14" r="1.6"/>
    <circle cx="58" cy="14" r="1.6"/>
    <circle cx="70" cy="14" r="1.6"/>
    <circle cx="82" cy="14" r="1.6"/>
    <circle cx="94" cy="14" r="2.1"/>
    <circle cx="106" cy="14" r="2.1"/>
    <circle cx="118" cy="14" r="2.1"/>
    <circle cx="130" cy="14" r="2.1"/>
    <circle cx="142" cy="14" r="2.1"/>
    <circle cx="154" cy="14" r="2.1"/>
    <circle cx="166" cy="14" r="2.7"/>
    <circle cx="178" cy="14" r="2.7"/>
    <circle cx="190" cy="14" r="2.7"/>
    <circle cx="202" cy="14" r="2.7"/>
    <circle cx="214" cy="14" r="2.7"/>
    <circle cx="226" cy="14" r="2.7"/>
    <circle cx="238" cy="14" r="3.3"/>
    <circle cx="250" cy="14" r="3.3"/>
    <circle cx="262" cy="14" r="3.3"/>
    <circle cx="274" cy="14" r="3.3"/>
    <circle cx="286" cy="14" r="3.3"/>
    <circle cx="298" cy="14" r="3.3"/>
    <circle cx="310" cy="14" r="4.0"/>
    <circle cx="322" cy="14" r="4.0"/>
    <circle cx="334" cy="14" r="4.0"/>
    <circle cx="346" cy="14" r="4.0"/>
    <circle cx="358" cy="14" r="4.0"/>
    <circle cx="370" cy="14" r="4.0"/>
    <circle cx="382" cy="14" r="4.8"/>
    <circle cx="394" cy="14" r="4.8"/>
    <circle cx="406" cy="14" r="4.8"/>
    <circle cx="418" cy="14" r="4.8"/>
    <circle cx="430" cy="14" r="4.8"/>
    <circle cx="442" cy="14" r="4.8"/>
    <circle cx="454" cy="14" r="4.8"/>
    <circle cx="466" cy="14" r="4.8"/>
    <circle cx="10" cy="26" r="1.6"/>
    <circle cx="22" cy="26" r="1.6"/>
    <circle cx="34" cy="26" r="1.6"/>
    <circle cx="46" cy="26" r="1.6"/>
    <circle cx="58" cy="26" r="1.6"/>
    <circle cx="70" cy="26" r="1.6"/>
    <circle cx="82" cy="26" r="1.6"/>
    <circle cx="94" cy="26" r="2.1"/>
    <circle cx="106" cy="26" r="2.1"/>
    <circle cx="118" cy="26" r="2.1"/>
    <circle cx="130" cy="26" r="2.1"/>
    <circle cx="142" cy="26" r="2.1"/>
    <circle cx="154" cy="26" r="2.1"/>
    <circle cx="166" cy="26" r="2.7"/>
    <circle cx="178" cy="26" r="2.7"/>
    <circle cx="190" cy="26" r="2.7"/>
    <circle cx="202" cy="26" r="2.7"/>
    <circle cx="214" cy="26" r="2.7"/>
    <circle cx="226" cy="26" r="2.7"/>
    <circle cx="238" cy="26" r="3.3"/>
    <circle cx="250" cy="26" r="3.3"/>
    <circle cx="262" cy="26" r="3.3"/>
    <circle cx="274" cy="26" r="3.3"/>
    <circle cx="286" cy="26" r="3.3"/>
    <circle cx="298" cy="26" r="3.3"/>
    <circle cx="310" cy="26" r="4.0"/>
    <circle cx="322" cy="26" r="4.0"/>
    <circle cx="334" cy="26" r="4.0"/>
    <circle cx="346" cy="26" r="4.0"/>
    <circle cx="358" cy="26" r="4.0"/>
    <circle cx="370" cy="26" r="4.0"/>
    <circle cx="382" cy="26" r="4.8"/>
    <circle cx="394" cy="26" r="4.8"/>
    <circle cx="406" cy="26" r="4.8"/>
    <circle cx="418" cy="26" r="4.8"/>
    <circle cx="430" cy="26" r="4.8"/>
    <circle cx="442" cy="26" r="4.8"/>
    <circle cx="454" cy="26" r="4.8"/>
    <circle cx="466" cy="26" r="4.8"/>
    <circle cx="10" cy="38" r="1.6"/>
    <circle cx="22" cy="38" r="1.6"/>
    <circle cx="34" cy="38" r="1.6"/>
    <circle cx="46" cy="38" r="1.6"/>
    <circle cx="58" cy="38" r="1.6"/>
    <circle cx="70" cy="38" r="1.6"/>
    <circle cx="82" cy="38" r="1.6"/>
    <circle cx="94" cy="38" r="2.1"/>
    <circle cx="106" cy="38" r="2.1"/>
    <circle cx="118" cy="38" r="2.1"/>
    <circle cx="130" cy="38" r="2.1"/>
    <circle cx="142" cy="38" r="2.1"/>
    <circle cx="154" cy="38" r="2.1"/>
    <circle cx="166" cy="38" r="2.7"/>
    <circle cx="178" cy="38" r="2.7"/>
    <circle cx="190" cy="38" r="2.7"/>
    <circle cx="202" cy="38" r="2.7"/>
    <circle cx="214" cy="38" r="2.7"/>
    <circle cx="226" cy="38" r="2.7"/>
    <circle cx="238" cy="38" r="3.3"/>
    <circle cx="250" cy="38" r="3.3"/>
    <circle cx="262" cy="38" r="3.3"/>
    <circle cx="274" cy="38" r="3.3"/>
    <circle cx="286" cy="38" r="3.3"/>
    <circle cx="298" cy="38" r="3.3"/>
    <circle cx="310" cy="38" r="4.0"/>
    <circle cx="322" cy="38" r="4.0"/>
    <circle cx="334" cy="38" r="4.0"/>
    <circle cx="346" cy="38" r="4.0"/>
    <circle cx="358" cy="38" r="4.0"/>
    <circle cx="370" cy="38" r="4.0"/>
    <circle cx="382" cy="38" r="4.8"/>
    <circle cx="394" cy="38" r="4.8"/>
    <circle cx="406" cy="38" r="4.8"/>
    <circle cx="418" cy="38" r="4.8"/>
    <circle cx="430" cy="38" r="4.8"/>
    <circle cx="442" cy="38" r="4.8"/>
    <circle cx="454" cy="38" r="4.8"/>
    <circle cx="466" cy="38" r="4.8"/>
    <circle cx="10" cy="50" r="1.6"/>
    <circle cx="22" cy="50" r="1.6"/>
    <circle cx="34" cy="50" r="1.6"/>
    <circle cx="46" cy="50" r="1.6"/>
    <circle cx="58" cy="50" r="1.6"/>
    <circle cx="70" cy="50" r="1.6"/>
    <circle cx="82" cy="50" r="1.6"/>
    <circle cx="94" cy="50" r="2.1"/>
    <circle cx="106" cy="50" r="2.1"/>
    <circle cx="118" cy="50" r="2.1"/>
    <circle cx="130" cy="50" r="2.1"/>
    <circle cx="142" cy="50" r="2.1"/>
    <circle cx="154" cy="50" r="2.1"/>
    <circle cx="166" cy="50" r="2.7"/>
    <circle cx="178" cy="50" r="2.7"/>
    <circle cx="190" cy="50" r="2.7"/>
    <circle cx="202" cy="50" r="2.7"/>
    <circle cx="214" cy="50" r="2.7"/>
    <circle cx="226" cy="50" r="2.7"/>
    <circle cx="238" cy="50" r="3.3"/>
    <circle cx="250" cy="50" r="3.3"/>
    <circle cx="262" cy="50" r="3.3"/>
    <circle cx="274" cy="50" r="3.3"/>
    <circle cx="286" cy="50" r="3.3"/>
    <circle cx="298" cy="50" r="3.3"/>
    <circle cx="310" cy="50" r="4.0"/>
    <circle cx="322" cy="50" r="4.0"/>
    <circle cx="334" cy="50" r="4.0"/>
    <circle cx="346" cy="50" r="4.0"/>
    <circle cx="358" cy="50" r="4.0"/>
    <circle cx="370" cy="50" r="4.0"/>
    <circle cx="382" cy="50" r="4.8"/>
    <circle cx="394" cy="50" r="4.8"/>
    <circle cx="406" cy="50" r="4.8"/>
    <circle cx="418" cy="50" r="4.8"/>
    <circle cx="430" cy="50" r="4.8"/>
    <circle cx="442" cy="50" r="4.8"/>
    <circle cx="454" cy="50" r="4.8"/>
    <circle cx="466" cy="50" r="4.8"/>
    <circle cx="10" cy="62" r="1.6"/>
    <circle cx="22" cy="62" r="1.6"/>
    <circle cx="34" cy="62" r="1.6"/>
    <circle cx="46" cy="62" r="1.6"/>
    <circle cx="58" cy="62" r="1.6"/>
    <circle cx="70" cy="62" r="1.6"/>
    <circle cx="82" cy="62" r="1.6"/>
    <circle cx="94" cy="62" r="2.1"/>
    <circle cx="106" cy="62" r="2.1"/>
    <circle cx="118" cy="62" r="2.1"/>
    <circle cx="130" cy="62" r="2.1"/>
    <circle cx="142" cy="62" r="2.1"/>
    <circle cx="154" cy="62" r="2.1"/>
    <circle cx="166" cy="62" r="2.7"/>
    <circle cx="178" cy="62" r="2.7"/>
    <circle cx="190" cy="62" r="2.7"/>
    <circle cx="202" cy="62" r="2.7"/>
    <circle cx="214" cy="62" r="2.7"/>
    <circle cx="226" cy="62" r="2.7"/>
    <circle cx="238" cy="62" r="3.3"/>
    <circle cx="250" cy="62" r="3.3"/>
    <circle cx="262" cy="62" r="3.3"/>
    <circle cx="274" cy="62" r="3.3"/>
    <circle cx="286" cy="62" r="3.3"/>
    <circle cx="298" cy="62" r="3.3"/>
    <circle cx="310" cy="62" r="4.0"/>
    <circle cx="322" cy="62" r="4.0"/>
    <circle cx="334" cy="62" r="4.0"/>
    <circle cx="346" cy="62" r="4.0"/>
    <circle cx="358" cy="62" r="4.0"/>
    <circle cx="370" cy="62" r="4.0"/>
    <circle cx="382" cy="62" r="4.8"/>
    <circle cx="394" cy="62" r="4.8"/>
    <circle cx="406" cy="62" r="4.8"/>
    <circle cx="418" cy="62" r="4.8"/>
    <circle cx="430" cy="62" r="4.8"/>
    <circle cx="442" cy="62" r="4.8"/>
    <circle cx="454" cy="62" r="4.8"/>
    <circle cx="466" cy="62" r="4.8"/>
    <circle cx="10" cy="74" r="1.6"/>
    <circle cx="22" cy="74" r="1.6"/>
    <circle cx="34" cy="74" r="1.6"/>
    <circle cx="46" cy="74" r="1.6"/>
    <circle cx="58" cy="74" r="1.6"/>
    <circle cx="70" cy="74" r="1.6"/>
    <circle cx="82" cy="74" r="1.6"/>
    <circle cx="94" cy="74" r="2.1"/>
    <circle cx="106" cy="74" r="2.1"/>
    <circle cx="118" cy="74" r="2.1"/>
    <circle cx="130" cy="74" r="2.1"/>
    <circle cx="142" cy="74" r="2.1"/>
    <circle cx="154" cy="74" r="2.1"/>
    <circle cx="166" cy="74" r="2.7"/>
    <circle cx="178" cy="74" r="2.7"/>
    <circle cx="190" cy="74" r="2.7"/>
    <circle cx="202" cy="74" r="2.7"/>
    <circle cx="214" cy="74" r="2.7"/>
    <circle cx="226" cy="74" r="2.7"/>
    <circle cx="238" cy="74" r="3.3"/>
    <circle cx="250" cy="74" r="3.3"/>
    <circle cx="262" cy="74" r="3.3"/>
    <circle cx="274" cy="74" r="3.3"/>
    <circle cx="286" cy="74" r="3.3"/>
    <circle cx="298" cy="74" r="3.3"/>
    <circle cx="310" cy="74" r="4.0"/>
    <circle cx="322" cy="74" r="4.0"/>
    <circle cx="334" cy="74" r="4.0"/>
    <circle cx="346" cy="74" r="4.0"/>
    <circle cx="358" cy="74" r="4.0"/>
    <circle cx="370" cy="74" r="4.0"/>
    <circle cx="382" cy="74" r="4.8"/>
    <circle cx="394" cy="74" r="4.8"/>
    <circle cx="406" cy="74" r="4.8"/>
    <circle cx="418" cy="74" r="4.8"/>
    <circle cx="430" cy="74" r="4.8"/>
    <circle cx="442" cy="74" r="4.8"/>
    <circle cx="454" cy="74" r="4.8"/>
    <circle cx="466" cy="74" r="4.8"/>
    <circle cx="10" cy="86" r="1.6"/>
    <circle cx="22" cy="86" r="1.6"/>
    <circle cx="34" cy="86" r="1.6"/>
    <circle cx="46" cy="86" r="1.6"/>
    <circle cx="58" cy="86" r="1.6"/>
    <circle cx="70" cy="86" r="1.6"/>
    <circle cx="82" cy="86" r="1.6"/>
    <circle cx="94" cy="86" r="2.1"/>
    <circle cx="106" cy="86" r="2.1"/>
    <circle cx="118" cy="86" r="2.1"/>
    <circle cx="130" cy="86" r="2.1"/>
    <circle cx="142" cy="86" r="2.1"/>
    <circle cx="154" cy="86" r="2.1"/>
    <circle cx="166" cy="86" r="2.7"/>
    <circle cx="178" cy="86" r="2.7"/>
    <circle cx="190" cy="86" r="2.7"/>
    <circle cx="202" cy="86" r="2.7"/>
    <circle cx="214" cy="86" r="2.7"/>
    <circle cx="226" cy="86" r="2.7"/>
    <circle cx="238" cy="86" r="3.3"/>
    <circle cx="250" cy="86" r="3.3"/>
    <circle cx="262" cy="86" r="3.3"/>
    <circle cx="274" cy="86" r="3.3"/>
    <circle cx="286" cy="86" r="3.3"/>
    <circle cx="298" cy="86" r="3.3"/>
    <circle cx="310" cy="86" r="4.0"/>
    <circle cx="322" cy="86" r="4.0"/>
    <circle cx="334" cy="86" r="4.0"/>
    <circle cx="346" cy="86" r="4.0"/>
    <circle cx="358" cy="86" r="4.0"/>
    <circle cx="370" cy="86" r="4.0"/>
    <circle cx="382" cy="86" r="4.8"/>
    <circle cx="394" cy="86" r="4.8"/>
    <circle cx="406" cy="86" r="4.8"/>
    <circle cx="418" cy="86" r="4.8"/>
    <circle cx="430" cy="86" r="4.8"/>
    <circle cx="442" cy="86" r="4.8"/>
    <circle cx="454" cy="86" r="4.8"/>
    <circle cx="466" cy="86" r="4.8"/>
    <circle cx="10" cy="98" r="1.6"/>
    <circle cx="22" cy="98" r="1.6"/>
    <circle cx="34" cy="98" r="1.6"/>
    <circle cx="46" cy="98" r="1.6"/>
    <circle cx="58" cy="98" r="1.6"/>
    <circle cx="70" cy="98" r="1.6"/>
    <circle cx="82" cy="98" r="1.6"/>
    <circle cx="94" cy="98" r="2.1"/>
    <circle cx="106" cy="98" r="2.1"/>
    <circle cx="118" cy="98" r="2.1"/>
    <circle cx="130" cy="98" r="2.1"/>
    <circle cx="142" cy="98" r="2.1"/>
    <circle cx="154" cy="98" r="2.1"/>
    <circle cx="166" cy="98" r="2.7"/>
    <circle cx="178" cy="98" r="2.7"/>
    <circle cx="190" cy="98" r="2.7"/>
    <circle cx="202" cy="98" r="2.7"/>
    <circle cx="214" cy="98" r="2.7"/>
    <circle cx="226" cy="98" r="2.7"/>
    <circle cx="238" cy="98" r="3.3"/>
    <circle cx="250" cy="98" r="3.3"/>
    <circle cx="262" cy="98" r="3.3"/>
    <circle cx="274" cy="98" r="3.3"/>
    <circle cx="286" cy="98" r="3.3"/>
    <circle cx="298" cy="98" r="3.3"/>
    <circle cx="310" cy="98" r="4.0"/>
    <circle cx="322" cy="98" r="4.0"/>
    <circle cx="334" cy="98" r="4.0"/>
    <circle cx="346" cy="98" r="4.0"/>
    <circle cx="358" cy="98" r="4.0"/>
    <circle cx="370" cy="98" r="4.0"/>
    <circle cx="382" cy="98" r="4.8"/>
    <circle cx="394" cy="98" r="4.8"/>
    <circle cx="406" cy="98" r="4.8"/>
    <circle cx="418" cy="98" r="4.8"/>
    <circle cx="430" cy="98" r="4.8"/>
    <circle cx="442" cy="98" r="4.8"/>
    <circle cx="454" cy="98" r="4.8"/>
    <circle cx="466" cy="98" r="4.8"/>
    <circle cx="10" cy="110" r="1.6"/>
    <circle cx="22" cy="110" r="1.6"/>
    <circle cx="34" cy="110" r="1.6"/>
    <circle cx="46" cy="110" r="1.6"/>
    <circle cx="58" cy="110" r="1.6"/>
    <circle cx="70" cy="110" r="1.6"/>
    <circle cx="82" cy="110" r="1.6"/>
    <circle cx="94" cy="110" r="2.1"/>
    <circle cx="106" cy="110" r="2.1"/>
    <circle cx="118" cy="110" r="2.1"/>
    <circle cx="130" cy="110" r="2.1"/>
    <circle cx="142" cy="110" r="2.1"/>
    <circle cx="154" cy="110" r="2.1"/>
    <circle cx="166" cy="110" r="2.7"/>
    <circle cx="178" cy="110" r="2.7"/>
    <circle cx="190" cy="110" r="2.7"/>
    <circle cx="202" cy="110" r="2.7"/>
    <circle cx="214" cy="110" r="2.7"/>
    <circle cx="226" cy="110" r="2.7"/>
    <circle cx="238" cy="110" r="3.3"/>
    <circle cx="250" cy="110" r="3.3"/>
    <circle cx="262" cy="110" r="3.3"/>
    <circle cx="274" cy="110" r="3.3"/>
    <circle cx="286" cy="110" r="3.3"/>
    <circle cx="298" cy="110" r="3.3"/>
    <circle cx="310" cy="110" r="4.0"/>
    <circle cx="322" cy="110" r="4.0"/>
    <circle cx="334" cy="110" r="4.0"/>
    <circle cx="346" cy="110" r="4.0"/>
    <circle cx="358" cy="110" r="4.0"/>
    <circle cx="370" cy="110" r="4.0"/>
    <circle cx="382" cy="110" r="4.8"/>
    <circle cx="394" cy="110" r="4.8"/>
    <circle cx="406" cy="110" r="4.8"/>
    <circle cx="418" cy="110" r="4.8"/>
    <circle cx="430" cy="110" r="4.8"/>
    <circle cx="442" cy="110" r="4.8"/>
    <circle cx="454" cy="110" r="4.8"/>
    <circle cx="466" cy="110" r="4.8"/>
    <circle cx="10" cy="122" r="1.6"/>
    <circle cx="22" cy="122" r="1.6"/>
    <circle cx="34" cy="122" r="1.6"/>
    <circle cx="46" cy="122" r="1.6"/>
    <circle cx="58" cy="122" r="1.6"/>
    <circle cx="70" cy="122" r="1.6"/>
    <circle cx="82" cy="122" r="1.6"/>
    <circle cx="94" cy="122" r="2.1"/>
    <circle cx="106" cy="122" r="2.1"/>
    <circle cx="118" cy="122" r="2.1"/>
    <circle cx="130" cy="122" r="2.1"/>
    <circle cx="142" cy="122" r="2.1"/>
    <circle cx="154" cy="122" r="2.1"/>
    <circle cx="166" cy="122" r="2.7"/>
    <circle cx="178" cy="122" r="2.7"/>
    <circle cx="190" cy="122" r="2.7"/>
    <circle cx="202" cy="122" r="2.7"/>
    <circle cx="214" cy="122" r="2.7"/>
    <circle cx="226" cy="122" r="2.7"/>
    <circle cx="238" cy="122" r="3.3"/>
    <circle cx="250" cy="122" r="3.3"/>
    <circle cx="262" cy="122" r="3.3"/>
    <circle cx="274" cy="122" r="3.3"/>
    <circle cx="286" cy="122" r="3.3"/>
    <circle cx="298" cy="122" r="3.3"/>
    <circle cx="310" cy="122" r="4.0"/>
    <circle cx="322" cy="122" r="4.0"/>
    <circle cx="334" cy="122" r="4.0"/>
    <circle cx="346" cy="122" r="4.0"/>
    <circle cx="358" cy="122" r="4.0"/>
    <circle cx="370" cy="122" r="4.0"/>
    <circle cx="382" cy="122" r="4.8"/>
    <circle cx="394" cy="122" r="4.8"/>
    <circle cx="406" cy="122" r="4.8"/>
    <circle cx="418" cy="122" r="4.8"/>
    <circle cx="430" cy="122" r="4.8"/>
    <circle cx="442" cy="122" r="4.8"/>
    <circle cx="454" cy="122" r="4.8"/>
    <circle cx="466" cy="122" r="4.8"/>
    <circle cx="10" cy="134" r="1.6"/>
    <circle cx="22" cy="134" r="1.6"/>
    <circle cx="34" cy="134" r="1.6"/>
    <circle cx="46" cy="134" r="1.6"/>
    <circle cx="58" cy="134" r="1.6"/>
    <circle cx="70" cy="134" r="1.6"/>
    <circle cx="82" cy="134" r="1.6"/>
    <circle cx="94" cy="134" r="2.1"/>
    <circle cx="106" cy="134" r="2.1"/>
    <circle cx="118" cy="134" r="2.1"/>
    <circle cx="130" cy="134" r="2.1"/>
    <circle cx="142" cy="134" r="2.1"/>
    <circle cx="154" cy="134" r="2.1"/>
    <circle cx="166" cy="134" r="2.7"/>
    <circle cx="178" cy="134" r="2.7"/>
    <circle cx="190" cy="134" r="2.7"/>
    <circle cx="202" cy="134" r="2.7"/>
    <circle cx="214" cy="134" r="2.7"/>
    <circle cx="226" cy="134" r="2.7"/>
    <circle cx="238" cy="134" r="3.3"/>
    <circle cx="250" cy="134" r="3.3"/>
    <circle cx="262" cy="134" r="3.3"/>
    <circle cx="274" cy="134" r="3.3"/>
    <circle cx="286" cy="134" r="3.3"/>
    <circle cx="298" cy="134" r="3.3"/>
    <circle cx="310" cy="134" r="4.0"/>
    <circle cx="322" cy="134" r="4.0"/>
    <circle cx="334" cy="134" r="4.0"/>
    <circle cx="346" cy="134" r="4.0"/>
    <circle cx="358" cy="134" r="4.0"/>
    <circle cx="370" cy="134" r="4.0"/>
    <circle cx="382" cy="134" r="4.8"/>
    <circle cx="394" cy="134" r="4.8"/>
    <circle cx="406" cy="134" r="4.8"/>
    <circle cx="418" cy="134" r="4.8"/>
    <circle cx="430" cy="134" r="4.8"/>
    <circle cx="442" cy="134" r="4.8"/>
    <circle cx="454" cy="134" r="4.8"/>
    <circle cx="466" cy="134" r="4.8"/>
    <circle cx="10" cy="146" r="1.6"/>
    <circle cx="22" cy="146" r="1.6"/>
    <circle cx="34" cy="146" r="1.6"/>
    <circle cx="46" cy="146" r="1.6"/>
    <circle cx="58" cy="146" r="1.6"/>
    <circle cx="70" cy="146" r="1.6"/>
    <circle cx="82" cy="146" r="1.6"/>
    <circle cx="94" cy="146" r="2.1"/>
    <circle cx="106" cy="146" r="2.1"/>
    <circle cx="118" cy="146" r="2.1"/>
    <circle cx="130" cy="146" r="2.1"/>
    <circle cx="142" cy="146" r="2.1"/>
    <circle cx="154" cy="146" r="2.1"/>
    <circle cx="166" cy="146" r="2.7"/>
    <circle cx="178" cy="146" r="2.7"/>
    <circle cx="190" cy="146" r="2.7"/>
    <circle cx="202" cy="146" r="2.7"/>
    <circle cx="214" cy="146" r="2.7"/>
    <circle cx="226" cy="146" r="2.7"/>
    <circle cx="238" cy="146" r="3.3"/>
    <circle cx="250" cy="146" r="3.3"/>
    <circle cx="262" cy="146" r="3.3"/>
    <circle cx="274" cy="146" r="3.3"/>
    <circle cx="286" cy="146" r="3.3"/>
    <circle cx="298" cy="146" r="3.3"/>
    <circle cx="310" cy="146" r="4.0"/>
    <circle cx="322" cy="146" r="4.0"/>
    <circle cx="334" cy="146" r="4.0"/>
    <circle cx="346" cy="146" r="4.0"/>
    <circle cx="358" cy="146" r="4.0"/>
    <circle cx="370" cy="146" r="4.0"/>
    <circle cx="382" cy="146" r="4.8"/>
    <circle cx="394" cy="146" r="4.8"/>
    <circle cx="406" cy="146" r="4.8"/>
    <circle cx="418" cy="146" r="4.8"/>
    <circle cx="430" cy="146" r="4.8"/>
    <circle cx="442" cy="146" r="4.8"/>
    <circle cx="454" cy="146" r="4.8"/>
    <circle cx="466" cy="146" r="4.8"/>
    <circle cx="10" cy="158" r="1.6"/>
    <circle cx="22" cy="158" r="1.6"/>
    <circle cx="34" cy="158" r="1.6"/>
    <circle cx="46" cy="158" r="1.6"/>
    <circle cx="58" cy="158" r="1.6"/>
    <circle cx="70" cy="158" r="1.6"/>
    <circle cx="82" cy="158" r="1.6"/>
    <circle cx="94" cy="158" r="2.1"/>
    <circle cx="106" cy="158" r="2.1"/>
    <circle cx="118" cy="158" r="2.1"/>
    <circle cx="130" cy="158" r="2.1"/>
    <circle cx="142" cy="158" r="2.1"/>
    <circle cx="154" cy="158" r="2.1"/>
    <circle cx="166" cy="158" r="2.7"/>
    <circle cx="178" cy="158" r="2.7"/>
    <circle cx="190" cy="158" r="2.7"/>
    <circle cx="202" cy="158" r="2.7"/>
    <circle cx="214" cy="158" r="2.7"/>
    <circle cx="226" cy="158" r="2.7"/>
    <circle cx="238" cy="158" r="3.3"/>
    <circle cx="250" cy="158" r="3.3"/>
    <circle cx="262" cy="158" r="3.3"/>
    <circle cx="274" cy="158" r="3.3"/>
    <circle cx="286" cy="158" r="3.3"/>
    <circle cx="298" cy="158" r="3.3"/>
    <circle cx="310" cy="158" r="4.0"/>
    <circle cx="322" cy="158" r="4.0"/>
    <circle cx="334" cy="158" r="4.0"/>
    <circle cx="346" cy="158" r="4.0"/>
    <circle cx="358" cy="158" r="4.0"/>
    <circle cx="370" cy="158" r="4.0"/>
    <circle cx="382" cy="158" r="4.8"/>
    <circle cx="394" cy="158" r="4.8"/>
    <circle cx="406" cy="158" r="4.8"/>
    <circle cx="418" cy="158" r="4.8"/>
    <circle cx="430" cy="158" r="4.8"/>
    <circle cx="442" cy="158" r="4.8"/>
    <circle cx="454" cy="158" r="4.8"/>
    <circle cx="466" cy="158" r="4.8"/>
    <circle cx="10" cy="170" r="1.6"/>
    <circle cx="22" cy="170" r="1.6"/>
    <circle cx="34" cy="170" r="1.6"/>
    <circle cx="46" cy="170" r="1.6"/>
    <circle cx="58" cy="170" r="1.6"/>
    <circle cx="70" cy="170" r="1.6"/>
    <circle cx="82" cy="170" r="1.6"/>
    <circle cx="94" cy="170" r="2.1"/>
    <circle cx="106" cy="170" r="2.1"/>
    <circle cx="118" cy="170" r="2.1"/>
    <circle cx="130" cy="170" r="2.1"/>
    <circle cx="142" cy="170" r="2.1"/>
    <circle cx="154" cy="170" r="2.1"/>
    <circle cx="166" cy="170" r="2.7"/>
    <circle cx="178" cy="170" r="2.7"/>
    <circle cx="190" cy="170" r="2.7"/>
    <circle cx="202" cy="170" r="2.7"/>
    <circle cx="214" cy="170" r="2.7"/>
    <circle cx="226" cy="170" r="2.7"/>
    <circle cx="238" cy="170" r="3.3"/>
    <circle cx="250" cy="170" r="3.3"/>
    <circle cx="262" cy="170" r="3.3"/>
    <circle cx="274" cy="170" r="3.3"/>
    <circle cx="286" cy="170" r="3.3"/>
    <circle cx="298" cy="170" r="3.3"/>
    <circle cx="310" cy="170" r="4.0"/>
    <circle cx="322" cy="170" r="4.0"/>
    <circle cx="334" cy="170" r="4.0"/>
    <circle cx="346" cy="170" r="4.0"/>
    <circle cx="358" cy="170" r="4.0"/>
    <circle cx="370" cy="170" r="4.0"/>
    <circle cx="382" cy="170" r="4.8"/>
    <circle cx="394" cy="170" r="4.8"/>
    <circle cx="406" cy="170" r="4.8"/>
    <circle cx="418" cy="170" r="4.8"/>
    <circle cx="430" cy="170" r="4.8"/>
    <circle cx="442" cy="170" r="4.8"/>
    <circle cx="454" cy="170" r="4.8"/>
    <circle cx="466" cy="170" r="4.8"/>
    <circle cx="10" cy="182" r="1.6"/>
    <circle cx="22" cy="182" r="1.6"/>
    <circle cx="34" cy="182" r="1.6"/>
    <circle cx="46" cy="182" r="1.6"/>
    <circle cx="58" cy="182" r="1.6"/>
    <circle cx="70" cy="182" r="1.6"/>
    <circle cx="82" cy="182" r="1.6"/>
    <circle cx="94" cy="182" r="2.1"/>
    <circle cx="106" cy="182" r="2.1"/>
    <circle cx="118" cy="182" r="2.1"/>
    <circle cx="130" cy="182" r="2.1"/>
    <circle cx="142" cy="182" r="2.1"/>
    <circle cx="154" cy="182" r="2.1"/>
    <circle cx="166" cy="182" r="2.7"/>
    <circle cx="178" cy="182" r="2.7"/>
    <circle cx="190" cy="182" r="2.7"/>
    <circle cx="202" cy="182" r="2.7"/>
    <circle cx="214" cy="182" r="2.7"/>
    <circle cx="226" cy="182" r="2.7"/>
    <circle cx="238" cy="182" r="3.3"/>
    <circle cx="250" cy="182" r="3.3"/>
    <circle cx="262" cy="182" r="3.3"/>
    <circle cx="274" cy="182" r="3.3"/>
    <circle cx="286" cy="182" r="3.3"/>
    <circle cx="298" cy="182" r="3.3"/>
    <circle cx="310" cy="182" r="4.0"/>
    <circle cx="322" cy="182" r="4.0"/>
    <circle cx="334" cy="182" r="4.0"/>
    <circle cx="346" cy="182" r="4.0"/>
    <circle cx="358" cy="182" r="4.0"/>
    <circle cx="370" cy="182" r="4.0"/>
    <circle cx="382" cy="182" r="4.8"/>
    <circle cx="394" cy="182" r="4.8"/>
    <circle cx="406" cy="182" r="4.8"/>
    <circle cx="418" cy="182" r="4.8"/>
    <circle cx="430" cy="182" r="4.8"/>
    <circle cx="442" cy="182" r="4.8"/>
    <circle cx="454" cy="182" r="4.8"/>
    <circle cx="466" cy="182" r="4.8"/>
    <circle cx="10" cy="194" r="1.6"/>
    <circle cx="22" cy="194" r="1.6"/>
    <circle cx="34" cy="194" r="1.6"/>
    <circle cx="46" cy="194" r="1.6"/>
    <circle cx="58" cy="194" r="1.6"/>
    <circle cx="70" cy="194" r="1.6"/>
    <circle cx="82" cy="194" r="1.6"/>
    <circle cx="94" cy="194" r="2.1"/>
    <circle cx="106" cy="194" r="2.1"/>
    <circle cx="118" cy="194" r="2.1"/>
    <circle cx="130" cy="194" r="2.1"/>
    <circle cx="142" cy="194" r="2.1"/>
    <circle cx="154" cy="194" r="2.1"/>
    <circle cx="166" cy="194" r="2.7"/>
    <circle cx="178" cy="194" r="2.7"/>
    <circle cx="190" cy="194" r="2.7"/>
    <circle cx="202" cy="194" r="2.7"/>
    <circle cx="214" cy="194" r="2.7"/>
    <circle cx="226" cy="194" r="2.7"/>
    <circle cx="238" cy="194" r="3.3"/>
    <circle cx="250" cy="194" r="3.3"/>
    <circle cx="262" cy="194" r="3.3"/>
    <circle cx="274" cy="194" r="3.3"/>
    <circle cx="286" cy="194" r="3.3"/>
    <circle cx="298" cy="194" r="3.3"/>
    <circle cx="310" cy="194" r="4.0"/>
    <circle cx="322" cy="194" r="4.0"/>
    <circle cx="334" cy="194" r="4.0"/>
    <circle cx="346" cy="194" r="4.0"/>
    <circle cx="358" cy="194" r="4.0"/>
    <circle cx="370" cy="194" r="4.0"/>
    <circle cx="382" cy="194" r="4.8"/>
    <circle cx="394" cy="194" r="4.8"/>
    <circle cx="406" cy="194" r="4.8"/>
    <circle cx="418" cy="194" r="4.8"/>
    <circle cx="430" cy="194" r="4.8"/>
    <circle cx="442" cy="194" r="4.8"/>
    <circle cx="454" cy="194" r="4.8"/>
    <circle cx="466" cy="194" r="4.8"/>
    <circle cx="10" cy="206" r="1.6"/>
    <circle cx="22" cy="206" r="1.6"/>
    <circle cx="34" cy="206" r="1.6"/>
    <circle cx="46" cy="206" r="1.6"/>
    <circle cx="58" cy="206" r="1.6"/>
    <circle cx="70" cy="206" r="1.6"/>
    <circle cx="82" cy="206" r="1.6"/>
    <circle cx="94" cy="206" r="2.1"/>
    <circle cx="106" cy="206" r="2.1"/>
    <circle cx="118" cy="206" r="2.1"/>
    <circle cx="130" cy="206" r="2.1"/>
    <circle cx="142" cy="206" r="2.1"/>
    <circle cx="154" cy="206" r="2.1"/>
    <circle cx="166" cy="206" r="2.7"/>
    <circle cx="178" cy="206" r="2.7"/>
    <circle cx="190" cy="206" r="2.7"/>
    <circle cx="202" cy="206" r="2.7"/>
    <circle cx="214" cy="206" r="2.7"/>
    <circle cx="226" cy="206" r="2.7"/>
    <circle cx="238" cy="206" r="3.3"/>
    <circle cx="250" cy="206" r="3.3"/>
    <circle cx="262" cy="206" r="3.3"/>
    <circle cx="274" cy="206" r="3.3"/>
    <circle cx="286" cy="206" r="3.3"/>
    <circle cx="298" cy="206" r="3.3"/>
    <circle cx="310" cy="206" r="4.0"/>
    <circle cx="322" cy="206" r="4.0"/>
    <circle cx="334" cy="206" r="4.0"/>
    <circle cx="346" cy="206" r="4.0"/>
    <circle cx="358" cy="206" r="4.0"/>
    <circle cx="370" cy="206" r="4.0"/>
    <circle cx="382" cy="206" r="4.8"/>
    <circle cx="394" cy="206" r="4.8"/>
    <circle cx="406" cy="206" r="4.8"/>
    <circle cx="418" cy="206" r="4.8"/>
    <circle cx="430" cy="206" r="4.8"/>
    <circle cx="442" cy="206" r="4.8"/>
    <circle cx="454" cy="206" r="4.8"/>
    <circle cx="466" cy="206" r="4.8"/>
    <circle cx="10" cy="218" r="1.6"/>
    <circle cx="22" cy="218" r="1.6"/>
    <circle cx="34" cy="218" r="1.6"/>
    <circle cx="46" cy="218" r="1.6"/>
    <circle cx="58" cy="218" r="1.6"/>
    <circle cx="70" cy="218" r="1.6"/>
    <circle cx="82" cy="218" r="1.6"/>
    <circle cx="94" cy="218" r="2.1"/>
    <circle cx="106" cy="218" r="2.1"/>
    <circle cx="118" cy="218" r="2.1"/>
    <circle cx="130" cy="218" r="2.1"/>
    <circle cx="142" cy="218" r="2.1"/>
    <circle cx="154" cy="218" r="2.1"/>
    <circle cx="166" cy="218" r="2.7"/>
    <circle cx="178" cy="218" r="2.7"/>
    <circle cx="190" cy="218" r="2.7"/>
    <circle cx="202" cy="218" r="2.7"/>
    <circle cx="214" cy="218" r="2.7"/>
    <circle cx="226" cy="218" r="2.7"/>
    <circle cx="238" cy="218" r="3.3"/>
    <circle cx="250" cy="218" r="3.3"/>
    <circle cx="262" cy="218" r="3.3"/>
    <circle cx="274" cy="218" r="3.3"/>
    <circle cx="286" cy="218" r="3.3"/>
    <circle cx="298" cy="218" r="3.3"/>
    <circle cx="310" cy="218" r="4.0"/>
    <circle cx="322" cy="218" r="4.0"/>
    <circle cx="334" cy="218" r="4.0"/>
    <circle cx="346" cy="218" r="4.0"/>
    <circle cx="358" cy="218" r="4.0"/>
    <circle cx="370" cy="218" r="4.0"/>
    <circle cx="382" cy="218" r="4.8"/>
    <circle cx="394" cy="218" r="4.8"/>
    <circle cx="406" cy="218" r="4.8"/>
    <circle cx="418" cy="218" r="4.8"/>
    <circle cx="430" cy="218" r="4.8"/>
    <circle cx="442" cy="218" r="4.8"/>
    <circle cx="454" cy="218" r="4.8"/>
    <circle cx="466" cy="218" r="4.8"/>
    <circle cx="10" cy="230" r="1.6"/>
    <circle cx="22" cy="230" r="1.6"/>
    <circle cx="34" cy="230" r="1.6"/>
    <circle cx="46" cy="230" r="1.6"/>
    <circle cx="58" cy="230" r="1.6"/>
    <circle cx="70" cy="230" r="1.6"/>
    <circle cx="82" cy="230" r="1.6"/>
    <circle cx="94" cy="230" r="2.1"/>
    <circle cx="106" cy="230" r="2.1"/>
    <circle cx="118" cy="230" r="2.1"/>
    <circle cx="130" cy="230" r="2.1"/>
    <circle cx="142" cy="230" r="2.1"/>
    <circle cx="154" cy="230" r="2.1"/>
    <circle cx="166" cy="230" r="2.7"/>
    <circle cx="178" cy="230" r="2.7"/>
    <circle cx="190" cy="230" r="2.7"/>
    <circle cx="202" cy="230" r="2.7"/>
    <circle cx="214" cy="230" r="2.7"/>
    <circle cx="226" cy="230" r="2.7"/>
    <circle cx="238" cy="230" r="3.3"/>
    <circle cx="250" cy="230" r="3.3"/>
    <circle cx="262" cy="230" r="3.3"/>
    <circle cx="274" cy="230" r="3.3"/>
    <circle cx="286" cy="230" r="3.3"/>
    <circle cx="298" cy="230" r="3.3"/>
    <circle cx="310" cy="230" r="4.0"/>
    <circle cx="322" cy="230" r="4.0"/>
    <circle cx="334" cy="230" r="4.0"/>
    <circle cx="346" cy="230" r="4.0"/>
    <circle cx="358" cy="230" r="4.0"/>
    <circle cx="370" cy="230" r="4.0"/>
    <circle cx="382" cy="230" r="4.8"/>
    <circle cx="394" cy="230" r="4.8"/>
    <circle cx="406" cy="230" r="4.8"/>
    <circle cx="418" cy="230" r="4.8"/>
    <circle cx="430" cy="230" r="4.8"/>
    <circle cx="442" cy="230" r="4.8"/>
    <circle cx="454" cy="230" r="4.8"/>
    <circle cx="466" cy="230" r="4.8"/>
    <circle cx="10" cy="242" r="1.6"/>
    <circle cx="22" cy="242" r="1.6"/>
    <circle cx="34" cy="242" r="1.6"/>
    <circle cx="46" cy="242" r="1.6"/>
    <circle cx="58" cy="242" r="1.6"/>
    <circle cx="70" cy="242" r="1.6"/>
    <circle cx="82" cy="242" r="1.6"/>
    <circle cx="94" cy="242" r="2.1"/>
    <circle cx="106" cy="242" r="2.1"/>
    <circle cx="118" cy="242" r="2.1"/>
    <circle cx="130" cy="242" r="2.1"/>
    <circle cx="142" cy="242" r="2.1"/>
    <circle cx="154" cy="242" r="2.1"/>
    <circle cx="166" cy="242" r="2.7"/>
    <circle cx="178" cy="242" r="2.7"/>
    <circle cx="190" cy="242" r="2.7"/>
    <circle cx="202" cy="242" r="2.7"/>
    <circle cx="214" cy="242" r="2.7"/>
    <circle cx="226" cy="242" r="2.7"/>
    <circle cx="238" cy="242" r="3.3"/>
    <circle cx="250" cy="242" r="3.3"/>
    <circle cx="262" cy="242" r="3.3"/>
    <circle cx="274" cy="242" r="3.3"/>
    <circle cx="286" cy="242" r="3.3"/>
    <circle cx="298" cy="242" r="3.3"/>
    <circle cx="310" cy="242" r="4.0"/>
    <circle cx="322" cy="242" r="4.0"/>
    <circle cx="334" cy="242" r="4.0"/>
    <circle cx="346" cy="242" r="4.0"/>
    <circle cx="358" cy="242" r="4.0"/>
    <circle cx="370" cy="242" r="4.0"/>
    <circle cx="382" cy="242" r="4.8"/>
    <circle cx="394" cy="242" r="4.8"/>
    <circle cx="406" cy="242" r="4.8"/>
    <circle cx="418" cy="242" r="4.8"/>
    <circle cx="430" cy="242" r="4.8"/>
    <circle cx="442" cy="242" r="4.8"/>
    <circle cx="454" cy="242" r="4.8"/>
    <circle cx="466" cy="242" r="4.8"/>
    <circle cx="10" cy="254" r="1.6"/>
    <circle cx="22" cy="254" r="1.6"/>
    <circle cx="34" cy="254" r="1.6"/>
    <circle cx="46" cy="254" r="1.6"/>
    <circle cx="58" cy="254" r="1.6"/>
    <circle cx="70" cy="254" r="1.6"/>
    <circle cx="82" cy="254" r="1.6"/>
    <circle cx="94" cy="254" r="2.1"/>
    <circle cx="106" cy="254" r="2.1"/>
    <circle cx="118" cy="254" r="2.1"/>
    <circle cx="130" cy="254" r="2.1"/>
    <circle cx="142" cy="254" r="2.1"/>
    <circle cx="154" cy="254" r="2.1"/>
    <circle cx="166" cy="254" r="2.7"/>
    <circle cx="178" cy="254" r="2.7"/>
    <circle cx="190" cy="254" r="2.7"/>
    <circle cx="202" cy="254" r="2.7"/>
    <circle cx="214" cy="254" r="2.7"/>
    <circle cx="226" cy="254" r="2.7"/>
    <circle cx="238" cy="254" r="3.3"/>
    <circle cx="250" cy="254" r="3.3"/>
    <circle cx="262" cy="254" r="3.3"/>
    <circle cx="274" cy="254" r="3.3"/>
    <circle cx="286" cy="254" r="3.3"/>
    <circle cx="298" cy="254" r="3.3"/>
    <circle cx="310" cy="254" r="4.0"/>
    <circle cx="322" cy="254" r="4.0"/>
    <circle cx="334" cy="254" r="4.0"/>
    <circle cx="346" cy="254" r="4.0"/>
    <circle cx="358" cy="254" r="4.0"/>
    <circle cx="370" cy="254" r="4.0"/>
    <circle cx="382" cy="254" r="4.8"/>
    <circle cx="394" cy="254" r="4.8"/>
    <circle cx="406" cy="254" r="4.8"/>
    <circle cx="418" cy="254" r="4.8"/>
    <circle cx="430" cy="254" r="4.8"/>
    <circle cx="442" cy="254" r="4.8"/>
    <circle cx="454" cy="254" r="4.8"/>
    <circle cx="466" cy="254" r="4.8"/>
    <circle cx="10" cy="266" r="1.6"/>
    <circle cx="22" cy="266" r="1.6"/>
    <circle cx="34" cy="266" r="1.6"/>
    <circle cx="46" cy="266" r="1.6"/>
    <circle cx="58" cy="266" r="1.6"/>
    <circle cx="70" cy="266" r="1.6"/>
    <circle cx="82" cy="266" r="1.6"/>
    <circle cx="94" cy="266" r="2.1"/>
    <circle cx="106" cy="266" r="2.1"/>
    <circle cx="118" cy="266" r="2.1"/>
    <circle cx="130" cy="266" r="2.1"/>
    <circle cx="142" cy="266" r="2.1"/>
    <circle cx="154" cy="266" r="2.1"/>
    <circle cx="166" cy="266" r="2.7"/>
    <circle cx="178" cy="266" r="2.7"/>
    <circle cx="190" cy="266" r="2.7"/>
    <circle cx="202" cy="266" r="2.7"/>
    <circle cx="214" cy="266" r="2.7"/>
    <circle cx="226" cy="266" r="2.7"/>
    <circle cx="238" cy="266" r="3.3"/>
    <circle cx="250" cy="266" r="3.3"/>
    <circle cx="262" cy="266" r="3.3"/>
    <circle cx="274" cy="266" r="3.3"/>
    <circle cx="286" cy="266" r="3.3"/>
    <circle cx="298" cy="266" r="3.3"/>
    <circle cx="310" cy="266" r="4.0"/>
    <circle cx="322" cy="266" r="4.0"/>
    <circle cx="334" cy="266" r="4.0"/>
    <circle cx="346" cy="266" r="4.0"/>
    <circle cx="358" cy="266" r="4.0"/>
    <circle cx="370" cy="266" r="4.0"/>
    <circle cx="382" cy="266" r="4.8"/>
    <circle cx="394" cy="266" r="4.8"/>
    <circle cx="406" cy="266" r="4.8"/>
    <circle cx="418" cy="266" r="4.8"/>
    <circle cx="430" cy="266" r="4.8"/>
    <circle cx="442" cy="266" r="4.8"/>
    <circle cx="454" cy="266" r="4.8"/>
    <circle cx="466" cy="266" r="4.8"/>
    <circle cx="10" cy="278" r="1.6"/>
    <circle cx="22" cy="278" r="1.6"/>
    <circle cx="34" cy="278" r="1.6"/>
    <circle cx="46" cy="278" r="1.6"/>
    <circle cx="58" cy="278" r="1.6"/>
    <circle cx="70" cy="278" r="1.6"/>
    <circle cx="82" cy="278" r="1.6"/>
    <circle cx="94" cy="278" r="2.1"/>
    <circle cx="106" cy="278" r="2.1"/>
    <circle cx="118" cy="278" r="2.1"/>
    <circle cx="130" cy="278" r="2.1"/>
    <circle cx="142" cy="278" r="2.1"/>
    <circle cx="154" cy="278" r="2.1"/>
    <circle cx="166" cy="278" r="2.7"/>
    <circle cx="178" cy="278" r="2.7"/>
    <circle cx="190" cy="278" r="2.7"/>
    <circle cx="202" cy="278" r="2.7"/>
    <circle cx="214" cy="278" r="2.7"/>
    <circle cx="226" cy="278" r="2.7"/>
    <circle cx="238" cy="278" r="3.3"/>
    <circle cx="250" cy="278" r="3.3"/>
    <circle cx="262" cy="278" r="3.3"/>
    <circle cx="274" cy="278" r="3.3"/>
    <circle cx="286" cy="278" r="3.3"/>
    <circle cx="298" cy="278" r="3.3"/>
    <circle cx="310" cy="278" r="4.0"/>
    <circle cx="322" cy="278" r="4.0"/>
    <circle cx="334" cy="278" r="4.0"/>
    <circle cx="346" cy="278" r="4.0"/>
    <circle cx="358" cy="278" r="4.0"/>
    <circle cx="370" cy="278" r="4.0"/>
    <circle cx="382" cy="278" r="4.8"/>
    <circle cx="394" cy="278" r="4.8"/>
    <circle cx="406" cy="278" r="4.8"/>
    <circle cx="418" cy="278" r="4.8"/>
    <circle cx="430" cy="278" r="4.8"/>
    <circle cx="442" cy="278" r="4.8"/>
    <circle cx="454" cy="278" r="4.8"/>
    <circle cx="466" cy="278" r="4.8"/>
    <circle cx="10" cy="290" r="1.6"/>
    <circle cx="22" cy="290" r="1.6"/>
    <circle cx="34" cy="290" r="1.6"/>
    <circle cx="46" cy="290" r="1.6"/>
    <circle cx="58" cy="290" r="1.6"/>
    <circle cx="70" cy="290" r="1.6"/>
    <circle cx="82" cy="290" r="1.6"/>
    <circle cx="94" cy="290" r="2.1"/>
    <circle cx="106" cy="290" r="2.1"/>
    <circle cx="118" cy="290" r="2.1"/>
    <circle cx="130" cy="290" r="2.1"/>
    <circle cx="142" cy="290" r="2.1"/>
    <circle cx="154" cy="290" r="2.1"/>
    <circle cx="166" cy="290" r="2.7"/>
    <circle cx="178" cy="290" r="2.7"/>
    <circle cx="190" cy="290" r="2.7"/>
    <circle cx="202" cy="290" r="2.7"/>
    <circle cx="214" cy="290" r="2.7"/>
    <circle cx="226" cy="290" r="2.7"/>
    <circle cx="238" cy="290" r="3.3"/>
    <circle cx="250" cy="290" r="3.3"/>
    <circle cx="262" cy="290" r="3.3"/>
    <circle cx="274" cy="290" r="3.3"/>
    <circle cx="286" cy="290" r="3.3"/>
    <circle cx="298" cy="290" r="3.3"/>
    <circle cx="310" cy="290" r="4.0"/>
    <circle cx="322" cy="290" r="4.0"/>
    <circle cx="334" cy="290" r="4.0"/>
    <circle cx="346" cy="290" r="4.0"/>
    <circle cx="358" cy="290" r="4.0"/>
    <circle cx="370" cy="290" r="4.0"/>
    <circle cx="382" cy="290" r="4.8"/>
    <circle cx="394" cy="290" r="4.8"/>
    <circle cx="406" cy="290" r="4.8"/>
    <circle cx="418" cy="290" r="4.8"/>
    <circle cx="430" cy="290" r="4.8"/>
    <circle cx="442" cy="290" r="4.8"/>
    <circle cx="454" cy="290" r="4.8"/>
    <circle cx="466" cy="290" r="4.8"/>
    <circle cx="10" cy="302" r="1.6"/>
    <circle cx="22" cy="302" r="1.6"/>
    <circle cx="34" cy="302" r="1.6"/>
    <circle cx="46" cy="302" r="1.6"/>
    <circle cx="58" cy="302" r="1.6"/>
    <circle cx="70" cy="302" r="1.6"/>
    <circle cx="82" cy="302" r="1.6"/>
    <circle cx="94" cy="302" r="2.1"/>
    <circle cx="106" cy="302" r="2.1"/>
    <circle cx="118" cy="302" r="2.1"/>
    <circle cx="130" cy="302" r="2.1"/>
    <circle cx="142" cy="302" r="2.1"/>
    <circle cx="154" cy="302" r="2.1"/>
    <circle cx="166" cy="302" r="2.7"/>
    <circle cx="178" cy="302" r="2.7"/>
    <circle cx="190" cy="302" r="2.7"/>
    <circle cx="202" cy="302" r="2.7"/>
    <circle cx="214" cy="302" r="2.7"/>
    <circle cx="226" cy="302" r="2.7"/>
    <circle cx="238" cy="302" r="3.3"/>
    <circle cx="250" cy="302" r="3.3"/>
    <circle cx="262" cy="302" r="3.3"/>
    <circle cx="274" cy="302" r="3.3"/>
    <circle cx="286" cy="302" r="3.3"/>
    <circle cx="298" cy="302" r="3.3"/>
    <circle cx="310" cy="302" r="4.0"/>
    <circle cx="322" cy="302" r="4.0"/>
    <circle cx="334" cy="302" r="4.0"/>
    <circle cx="346" cy="302" r="4.0"/>
    <circle cx="358" cy="302" r="4.0"/>
    <circle cx="370" cy="302" r="4.0"/>
    <circle cx="382" cy="302" r="4.8"/>
    <circle cx="394" cy="302" r="4.8"/>
    <circle cx="406" cy="302" r="4.8"/>
    <circle cx="418" cy="302" r="4.8"/>
    <circle cx="430" cy="302" r="4.8"/>
    <circle cx="442" cy="302" r="4.8"/>
    <circle cx="454" cy="302" r="4.8"/>
    <circle cx="466" cy="302" r="4.8"/>
  </g>
</svg>
