<?xml version="1.0" encoding="UTF-8"?>
<svg id="Layer_1" width="167.7" height="96.1" version="1.1" viewBox="0 0 167.7 96.1" xml:space="preserve" xmlns="http://www.w3.org/2000/svg">
<style id="style824" type="text/css">
	.st0{fill:#1C3997;}
	.st1{fill:#FFFFFF;}
	.st2{fill:#F9596D;}
</style>
<g id="g834">
	<polygon id="polygon826" class="st0" points="14.2 81.9 14.2 96.1 167.7 96.1 167.7 0 0 0 0 81.9"/>
	<g id="g832">
		<path id="path828" class="st1" d="m91.9 33.4h-1.8v12c0 0.6 0 1.2-0.1 1.8 0 0.6-0.2 1.2-0.4 1.7s-0.6 0.9-1.1 1.2-1.1 0.5-2 0.5v4.6c3 0 5.2-0.7 6.6-2.2 1.4-1.4 2.2-3.7 2.2-6.9v-14.5h-3.4zm17.6 12.7v-1.7h1.8v-2.8c-0.9 0-1.5-0.2-2-0.5s-0.8-0.7-1.1-1.2c-0.2-0.5-0.4-1.1-0.4-1.7s-0.1-1.2-0.1-1.8v-4.8h3.6v-2.9h-3.6v-5.2h-3.4v1.8h-1.8v11.9c0 3.1 0.7 5.4 2.2 6.9 1.1 1.1 2.7 1.8 4.8 2zm-23-14.5h-4.9v0.9c-1.9-0.7-2.5-0.9-4.3-0.9-1 0-1.9 0.2-2.8 0.6s-1.6 0.9-2.2 1.6-1.1 1.4-1.4 2.3-0.5 1.8-0.5 2.8c0 1.1 0.2 2 0.5 2.9s0.8 1.7 1.5 2.3 1.4 1.2 2.2 1.5c0.8 0.4 1.8 0.5 2.8 0.5 1.8 0 3-0.4 4.2-1.3v1.3h3.1v-1.8h1.8zm-4.9 8.7c-0.2 0.4-0.4 0.8-0.8 1.1-0.3 0.3-0.7 0.6-1.1 0.8s-0.9 0.3-1.4 0.3-1-0.1-1.4-0.3-0.8-0.4-1.1-0.8c-0.3-0.3-0.6-0.7-0.7-1.1-0.2-0.4-0.3-0.9-0.3-1.4s0.1-0.9 0.3-1.4c0.2-0.4 0.4-0.8 0.7-1.1s0.7-0.6 1.1-0.8 0.9-0.3 1.4-0.3 1 0.1 1.4 0.3 0.8 0.4 1.1 0.8c0.3 0.3 0.6 0.7 0.8 1.1s0.3 0.9 0.3 1.4-0.1 1-0.3 1.4zm46.9 19.5h-1.8v12.8h5.2v-14.6h-3.4zm-20.5 7.1-3.7-8.9h-2.9v1.8h-1.8l5.7 12.8h5.2l6.6-14.6h-5.4zm17.7-35.3-3.6 7-3.7-7h-2.8v1.8h-1.9l5.6 10.1-6.2 11.6h5.5l12.5-23.5zm18.6 26.4v-2.9h-3.6v-5.2h-3.4v1.8h-1.8v11.9c0 3.1 0.7 5.4 2.2 6.9 1.1 1.1 2.8 1.8 4.9 2.1v-1.7h1.8v-2.9c-0.9 0-1.5-0.2-2-0.5s-0.8-0.7-1.1-1.2c-0.2-0.5-0.4-1.1-0.4-1.7s-0.1-1.2-0.1-1.8v-4.8z"/>
		<path id="path830" class="st2" d="m91.9 25.3h-1.8v3.4h5.2v-5.2h-3.4zm36.6 24.6v1.8h-1.8v3.4h5.2v-5.2z"/>
	</g>
</g>
</svg>
