<?xml version="1.0" encoding="UTF-8"?>
<svg id="svg136" width="512" height="512" version="1.1" viewBox="0 0 512 512" xmlns="http://www.w3.org/2000/svg">
 <rect id="rect132" width="512" height="512" rx="80" fill="#699fb0"/>
 <path id="path134" d="m325.51 347.76c0 0.297 0.148 0.445 0.445 0.445-10.381 29.659-21.947 52.497-34.701 68.512-0.89 0.297-3.855 2.076-8.897 5.339-14.237 3.559-24.766-3.263-31.587-20.465-4.449-5.635-9.788-24.617-16.016-56.945-2.966-52.496-4.3-81.858-4.004-88.087l-1.335-71.626c-2.669 7.118-6.525 18.834-11.567 35.146-4.745 16.016-8.601 28.028-11.566 36.036 0 0.593 0.593 0.889 1.779 0.889-3.262 10.084-5.339 18.241-6.228 24.469 0.296 0-0.445 1.038-2.225 3.114 0.297-0.297 0.445 0.89 0.445 3.559-16.016 64.36-24.32 98.912-24.913 103.66l-3.114 9.342c0.593 0.297 0.889 1.187 0.889 2.67 0 1.779 0.445 2.817 1.335 3.114-0.89 1.483-2.224 8.008-4.004 19.575 2.966 3.262 3.856 6.525 2.669 9.787-13.05 3.559-20.909-5.19-23.579-26.248 0-1.779 2.225-14.681 6.674-38.705l40.484-147.7c0.297 0 0.593-0.445 0.89-1.335 0-0.889 0.296-1.334 0.89-1.334 0.889-4.449 9.787-32.922 26.693-85.418 2.669 1.187 4.448 1.038 5.338-0.445 0.297 1.187 1.78 2.076 4.449 2.67 2.669 0.889 4.004 2.224 4.004 4.004 0.593 0 0.89-0.445 0.89-1.335 0-0.593 0.445-0.89 1.334-0.89-0.889 1.78-0.444 2.521 1.335 2.225-0.297-0.89 0.89 19.723 3.559 61.838 0 0.297-0.593 1.038-1.779 2.225 0 0.593 0.296 1.186 0.889 1.779 0.89 0.593 1.187 1.335 0.89 2.225-0.593 7.118-0.593 20.464 0 40.039-0.593 5.635-0.593 8.601 0 8.898l-1.779 3.114c2.669 5.042 2.965 11.419 0.889 19.13 1.187 1.186 1.632 3.411 1.335 6.673-0.297 3.263-0.148 5.191 0.445 5.784 0.296 0.889 0 1.483-0.89 1.779-0.89 0.297-1.335 0.593-1.335 0.89 0 0.593 0.445 0.741 1.335 0.445 0.593-0.297 0.89-0.297 0.89 0 0.593 17.202 1.483 29.214 2.669 36.035 0 0.89-0.741 1.335-2.224 1.335 2.076 4.449 2.817 10.084 2.224 16.906 0 0.296 0.297 0.444 0.89 0.444l0.445 0.445c-0.89 2.373-0.593 6.08 0.89 11.122s1.927 8.75 1.334 11.123c8.898 21.651 12.457 31.735 10.677 30.252 7.712 0 12.161-3.559 13.347-10.678 3.262-2.965 6.97-8.897 11.122-17.795 4.152-9.194 7.86-15.423 11.122-18.685 1.186-1.78 1.186-2.669 0-2.669 5.932-12.754 14.385-37.074 25.358-72.961 0.594-5.635 2.373-14.385 5.339-26.248 2.966-10.974 4.745-19.723 5.339-26.248 0 0.889 0.593 0.148 1.779-2.225-0.593-6.525 0.445-12.605 3.114-18.24 0.89 1.186 1.335-2.224 1.335-10.232l3.114-28.473c-1.186 0.593-1.779 4.597-1.779 12.012l-4.449 25.358c5.042-62.876 2.966-103.21-6.229-121.01-8.304-4.4489-14.384-6.525-18.24-6.2284-2.076-3.8557-6.08-5.1903-12.012-4.0039l-7.118 2.2244c-3.262 1.4829-5.19 2.2244-5.783 2.2244 6.821-10.381 15.126-15.571 24.913-15.571 15.126 9.1942 25.803 18.092 32.032 26.693 0.296 0.5932 0.741 0.5932 1.334 0 0.297-0.2966 0.594-0.2966 0.89 0 0.89 2.3727 1.483 3.559 1.78 3.559 4.152 7.1182 7.711 20.316 10.677 39.594 0 4.153 0.445 6.97 1.335 8.453 0.296 61.691-11.716 130.05-36.036 205.09zm17.351-233.12c-0.594-0.297-0.445-0.742 0.445-1.335zm9.787 4.893 0.89-0.889-0.89-1.335c-0.593-0.593-0.89-1.038-0.89-1.335zm1.335 7.119c-1.187-2.966-1.632-4.449-1.335-4.449-0.593 0.593-0.741 1.483-0.445 2.669 0.297 1.186 0.89 1.78 1.78 1.78zm0.445 0.889c-0.594 0-0.89 0.149-0.89 0.445 0.593 0 0.89-0.148 0.89-0.445zm-9.788 33.367c-2.966 4.448-2.966 7.118 0 8.007 0.89-23.133 0.89-36.777 0-40.929 0.297 3.856 0.297 9.343 0 16.461zm10.232-24.469c-0.593-0.593-0.593-1.78 0-3.559 0.297-1.483-0.148-2.373-1.334-2.669-0.593 3.559-0.148 5.635 1.334 6.228zm-3.559-1.335c-0.593 0-0.889-0.741-0.889-2.224 0.296-1.483 0-2.225-0.89-2.225-0.593 0.594-0.593 1.632 0 3.115s1.186 1.927 1.779 1.334zm-1.334 6.229c0.593-1.187 1.038-2.373 1.334-3.559h-1.779c0.89 0.296 1.038 0.889 0.445 1.779-0.297 1.186-0.297 1.78 0 1.78zm4.893 0.445c0-2.67-0.148-3.56-0.444-2.67 0 2.373 0.148 3.263 0.444 2.67zm-5.783 30.696c1.483-0.296 1.78-2.521 0.89-6.673 0.89-6.525 0.89-14.533 0-24.023l-0.445 15.57c-0.593 6.525-0.742 11.567-0.445 15.126zm6.228-28.917h1.78v-1.335h-1.78zm-0.445 18.685c1.78-8.304 1.632-14.384-0.444-18.24-0.297 7.415-0.149 13.495 0.444 18.24zm-133.91-7.563c0.889-0.296 1.631-1.483 2.224-3.559-0.593 0-1.335 1.186-2.224 3.559zm4.449 3.114c0.296-0.296 0.444-0.741 0.444-1.334 0.297-0.89 0-1.187-0.889-0.89 0 1.483 0.148 2.224 0.445 2.224zm-4.449-1.779c-0.89 0.89-1.335 1.186-1.335 0.89 0.89-0.89 1.335-1.187 1.335-0.89zm-2.67 6.673c0.594-1.483 0.742-2.521 0.445-3.114-1.186 3.559-1.631 5.635-1.334 6.228zm137.02 2.224c-0.296-0.296-0.445-0.741-0.445-1.334-0.889-0.297-1.334 0.296-1.334 1.779 0.296 1.187 0.741 1.78 1.334 1.78 0-0.297 0.297-0.445 0.89-0.445l0.89-0.445c-0.593 0-0.89-0.296-0.89-0.89 0-0.296-0.148-0.445-0.445-0.445zm-139.25 4.894c0-2.373 0.148-3.411 0.445-3.114 0 2.076-0.148 3.114-0.445 3.114zm-2.224 4.449c0.889 0 1.482-0.593 1.779-1.78 0.593-0.889 0.297-1.334-0.89-1.334 0.297 0.593 0.149 1.038-0.445 1.334-0.296 0.594-0.444 1.187-0.444 1.78zm6.228-2.224c0-0.297-0.148-0.445-0.445-0.445s-0.445 0.148-0.445 0.445zm13.791 4.004c1.483-1.483 1.483-2.225 0-2.225-0.889 1.187-0.889 1.928 0 2.225zm115.22 1.334c0-0.593 0.297-0.89 0.89-0.89 0-1.482-0.445-2.372-1.335-2.669 0.593 2.669 0.742 3.856 0.445 3.559zm-181.96 159.27c4.449-14.532 12.16-41.374 23.134-80.523 9.491-34.108 17.498-60.801 24.023-80.079 0-0.594-0.296-0.89-0.889-0.89-19.279 59.021-34.701 112.85-46.268 161.49zm67.622-150.82c-0.297-0.297-0.445-1.631-0.445-4.004-0.296-2.669-0.593-4.301-0.89-4.894 0 5.932 0.445 8.898 1.335 8.898zm-17.795-5.339c-0.297 0 0.296-0.445 1.779-1.334-1.186-0.89-1.779-0.445-1.779 1.334zm122.79 54.276c-1.779 2.966-3.114 7.267-4.003 12.902-0.89 6.228-1.78 10.529-2.67 12.901-0.296 2.076-4.745 18.685-13.346 49.827-0.297 0.593-0.149 1.038 0.445 1.335 0.296 0.593 0.444 1.186 0.444 1.779h-1.779l-15.571 37.815c0 2.373 0.297 3.856 0.89 4.449-1.483 0.593-2.225 1.632-2.225 3.114 4.746-3.559 6.822-7.859 6.229-12.901 1.483 0.593 2.224 0.741 2.224 0.445-0.89-5.635-0.741-7.86 0.445-6.673-0.297 0.296 0.445 0.444 2.224 0.444 0-2.965-0.148-4.893-0.444-5.783 2.372 0 3.114 0.148 2.224 0.445-1.186-2.076-1.631-3.114-1.335-3.114 0.594 0 1.187-0.149 1.78-0.445l1.335-0.445c0-1.78-0.149-2.966-0.445-3.559 2.372-2.669 4.3-7.118 5.783-13.347 1.483-7.118 2.966-11.863 4.449-14.236 0 2.076 2.076-5.635 6.228-23.134 0-2.669-0.148-3.559-0.445-2.669 0.89-0.297 1.335-1.631 1.335-4.004s0.742-3.263 2.225-2.669c0-8.601 0.741-13.94 2.224-16.016 0.89-10.084 2.669-17.054 5.339-20.91-0.89-2.076-0.89-5.19 0-9.342 1.186-4.746 1.631-8.305 1.334-10.677l2.669-5.339c-0.296-2.076-0.148-6.08 0.445-12.012 0.89-6.228 1.038-10.825 0.445-13.791-0.593 6.821-2.224 16.312-4.893 28.472-2.077 10.974-3.263 20.02-3.56 27.138zm-111.66-51.161c0.89-1.187 0.89-1.78 0-1.78-0.89 1.186-0.89 1.78 0 1.78zm123.68 20.909c0.297-0.297 0.297-1.335 0-3.114-0.296-1.186 0-2.076 0.89-2.669v1.334c0.89 0.297 1.335 0 1.335-0.89 0-0.889-0.445-1.038-1.335-0.444-0.297-0.297-0.297-1.187 0-2.67 0.297-1.186 0.148-2.076-0.445-2.669l1.335-1.78c0.593-0.593 0.89-1.038 0.89-1.334-0.297-0.593-0.742-0.742-1.335-0.445s-0.89 0.297-0.89 0c1.187-0.593 2.076-1.928 2.669-4.004-1.186 0.297-1.631-0.148-1.334-1.335 1.186 0 1.779-0.445 1.779-1.334-0.296 0.296-1.186 0.148-2.669-0.445 0.593-3.559-0.593 6.228-3.559 29.362-1.78 4.152-2.521 7.415-2.224 9.788 0.889-0.297 2.224-0.149 4.004 0.444-0.297 0.594-1.039-0.296-2.225-2.669v-3.114c0.297 0 0.593 0.148 0.89 0.445 0.296 0.296 0.741 0.445 1.335 0.445 0.593-1.78 0.889-2.966 0.889-3.559-1.483 0-2.224-0.149-2.224-0.445 2.076-1.483 2.966-3.114 2.669-4.894-0.593 0-0.89 0.148-0.89 0.445zm-117.89 0.445c3.559-6.228 3.559-12.457 0-18.685v9.342c0.297 3.559 0.297 6.674 0 9.343zm-19.575-16.461c0.594 0.297 1.038 0.149 1.335-0.445 0-0.889-0.297-1.186-0.89-0.889zm5.784 2.67 2.224-0.445v-0.89h-1.779zm-2.669 2.669c0.296-0.297 0.444-0.89 0.444-1.78 0.297-1.186 0-1.631-0.889-1.334 1.186 2.076 1.334 3.114 0.445 3.114zm-6.674 7.118c-0.889-1.186-0.741-1.631 0.445-1.335zm0.445 1.335c-0.593 0-0.89 0.148-0.89 0.445 0.594 0 0.89-0.149 0.89-0.445zm-2.224 5.338c-1.78-1.186-1.631-1.779 0.445-1.779zm24.468 40.93c0-0.89 0.445-1.335 1.335-1.335-0.297 0.593-0.593 1.779-0.89 3.559-0.296 1.779-0.593 2.966-0.889 3.559 1.482 3.262 1.631 5.932 0.444 8.008 2.077 8.304 2.225 15.867 0.445 22.689 1.483 0 2.225 0.148 2.225 0.445-0.297 0.89-0.297 2.521 0 4.894 0.296 2.076 0.148 3.707-0.445 4.893 0.593 2.076 0.89 5.932 0.89 11.567s0.148 9.639 0.444 12.012c-0.593 2.966-0.296 7.415 0.89 13.347 0.593 5.931 0.742 10.232 0.445 12.901 0.89 1.187 1.335 4.152 1.335 8.898 0.296 4.449 1.038 7.415 2.224 8.897-2.373-20.464-4.449-56.796-6.228-109l1.334-4.894c-1.482-4.152-2.076-10.973-1.779-20.464 0.297-10.084-0.148-17.351-1.335-21.799 0.593 6.524 0.593 14.087 0 22.689-0.593 9.194-0.741 15.57-0.445 19.13zm-19.13-39.15h1.335v-1.335h-1.335zm-1.334 0c0-0.593-0.149-0.89-0.445-0.89-0.593 0-0.89 0.297-0.89 0.89 0.297-0.297 0.593-0.297 0.89 0zm-7.563 8.008c0.89-0.594 1.631-1.78 2.224-3.559 0.89-1.78 0.89-2.818 0-3.115zm8.008-0.89c0-0.297 0.148-0.445 0.445-0.445 0-0.89-0.297-1.186-0.89-0.89 0 0.89 0.148 1.335 0.445 1.335zm-10.678 10.677c0.89-0.593 1.632-1.928 2.225-4.004s0.445-3.262-0.445-3.559l-0.89 4.004c-0.593 1.78-0.89 2.966-0.89 3.559zm141.92 6.228c1.483 0 2.076 0.445 1.78 1.335 1.186-0.296 2.076-1.335 2.669-3.114-1.78 0-2.669-0.445-2.669-1.335l2.224-6.673h-1.779c-0.594 4.449-1.335 7.711-2.225 9.787zm3.559-2.224c0.593-0.297 1.187-1.483 1.78-3.559 0.296-1.78 0-2.818-0.89-3.114 0 0.89-0.297 2.076-0.89 3.559-0.593 1.186-0.593 2.224 0 3.114zm-146.37 0h0.889v-1.335h-0.889zm-0.89 4.004c-0.593 0-0.89 0.148-0.89 0.445 0.593 0 0.89-0.148 0.89-0.445zm139.69 32.032c0-0.89 0.742-3.263 2.225-7.119 0.889-2.965 1.186-5.783 0.889-8.452 2.966-0.297 3.263-2.521 0.89-6.674 1.187 0 1.78-0.296 1.78-0.889-0.89-0.297-1.187-0.89-0.89-1.78 0.297-0.593 0.741-1.038 1.335-1.335-0.89 0-1.335-0.148-1.335-0.444 0.297-0.594 1.186-1.187 2.669-1.78l-0.445-1.779c-0.296-0.89-0.593-1.483-0.889-1.78-2.966 1.186-4.449 4.597-4.449 10.232 0 6.229-0.742 9.936-2.225 11.122 0.297 1.187 0.149 2.521-0.445 4.004-0.296 1.483-0.296 2.521 0 3.115 0-0.297 0.149-0.297 0.445 0-0.593 0.296-0.889 1.038-0.889 2.224 0 0.89-0.297 1.631-0.89 2.224 0.593 0.297 1.038 0.149 1.334-0.445 0.297-0.296 0.594-0.444 0.89-0.444zm-142.36-25.804c0.296 0 0.889-0.445 1.779-1.334-1.186-0.297-1.779 0.148-1.779 1.334zm0.889 12.012c0-0.296 0.149-0.445 0.445-0.445zm40.04 13.792c0.593-5.339 0.445-8.898-0.445-10.678-0.593 5.339-0.445 8.898 0.445 10.678zm-47.603-2.67c-1.186-0.296-1.038-0.889 0.445-1.779zm48.938 18.24c-3.263-10.38-4.004-15.126-2.225-14.236 0.593 1.483 0.742 4.004 0.445 7.563 0 2.966 0.593 5.191 1.78 6.673zm94.76 10.233c0-0.297-0.149-0.593-0.445-0.89-0.593-0.297-0.742-0.741-0.445-1.335 0.593-0.296 1.186-1.038 1.779-2.224 0.297-1.483 0.742-2.521 1.335-3.114-0.89-0.297-1.186-1.038-0.89-2.225 0.297-1.483 0.149-2.521-0.445-3.114 0.297-0.296 0.742-0.445 1.335-0.445 0.89 0 1.335-0.148 1.335-0.445l-1.335-2.669 0.89-0.445c0 0.593 0.148 0.89 0.445 0.89l0.889-2.224h0.445c0-2.966-0.445-4.894-1.334-5.784-1.187 1.78-2.076 4.746-2.67 8.898-0.593 4.152-1.631 7.118-3.114 8.897v6.229zm-145.48-21.355c0.296-0.296 0.296-0.444 0-0.444zm49.382 32.477c0.593 2.373 0.89 6.821 0.89 13.346 0.296 5.636 1.038 9.788 2.224 12.457-0.593-5.042-1.038-13.05-1.335-24.024-0.296-9.787-0.889-17.053-1.779-21.799-0.297 2.669-0.297 5.932 0 9.788 0.296 3.855 0.296 7.266 0 10.232zm4.004-13.791c0-3.263-0.445-4.449-1.335-3.56 0.593 0 0.89 0.594 0.89 1.78-0.297 1.186-0.148 1.78 0.445 1.78zm90.311 5.783c-0.296 0.593-0.741 0.741-1.335 0.445-0.593-0.297-1.038-0.297-1.334 0-0.593 3.559-1.631 8.008-3.114 13.346l-3.559 12.902c3.262-2.966 4.448-6.673 3.559-11.122 1.186-0.593 2.076-1.928 2.669-4.004 0.593-2.373 1.335-3.707 2.224-4.004 0.297-0.593 0.149-1.186-0.445-1.78-0.296-0.296-0.444-0.593-0.444-0.889l1.779-0.445c-0.593-4.449-0.741-6.673-0.445-6.673-0.593 0.593-0.445 1.334 0.445 2.224zm-87.197 2.669c-0.297 0-0.445-0.148-0.445-0.445-0.296-0.296-0.593-0.444-0.89-0.444-0.593 0.296-0.593 0.741 0 1.334 0.594 0.593 1.038 0.445 1.335-0.445zm-65.398 5.784c0.89 0.296 1.335 0 1.335-0.89s-0.297-1.335-0.89-1.335c0 1.187-0.148 1.928-0.445 2.225zm141.47 20.464c0.297 0 0.89 0.445 1.78 1.335 0-0.593 0.148-1.038 0.444-1.335 0.297-0.296 0.445-0.593 0.445-0.889-1.483 0-2.372 0.296-2.669 0.889zm-2.669 4.894c2.966 2.966 3.559 4.449 1.779 4.449l3.114-7.563c-0.889 0.297-1.779 0.297-2.669 0-0.593 2.076-1.335 3.114-2.224 3.114zm-78.745 2.225c0.89 0 1.335-0.297 1.335-0.89-0.89 0-1.335 0.296-1.335 0.89zm1.335 1.779c-0.593 0-0.89 0.148-0.89 0.445 0.593 0 0.89-0.148 0.89-0.445zm74.74 12.012c0.89-7.711 1.632-11.419 2.225-11.122-1.187 7.711-1.928 11.418-2.225 11.122zm-73.405-3.114c-0.593-0.89-0.89-2.225-0.89-4.004 0-1.78-0.297-2.966-0.89-3.559-1.186 5.931-0.593 8.452 1.78 7.563zm-76.965-2.67c-0.593-2.076-0.742-3.114-0.445-3.114 0 2.076 0.148 3.114 0.445 3.114zm75.63 5.784 1.335 0.445c0-1.187-0.445-1.631-1.335-1.335zm70.292 5.783c0.296 0.297 0.296 0.89 0 1.78l-1.78-0.445c-0.89 2.966-1.038 4.449-0.445 4.449l-4.449 10.232c2.076-1.186 4.004-4.004 5.784-8.453 1.779-4.745 3.411-7.711 4.894-8.897 0-1.483-0.594-2.225-1.78-2.225-0.297 0-0.741 0.297-1.335 0.89-0.296 0.593-0.741 1.038-1.334 1.335zm-68.512 4.449c-0.89-4.449-1.483-6.821-1.78-7.118 0.89 4.449 1.483 6.822 1.78 7.118zm-0.445 6.229c0.889 0.296 1.334-0.445 1.334-2.225 0-1.483-0.296-2.373-0.889-2.669-0.297 0.89-0.297 1.779 0 2.669 0 1.186-0.149 1.928-0.445 2.225zm54.72 0c0 4.152-0.741 5.19-2.224 3.114 0.89 1.483 1.038 2.966 0.445 4.449-0.593 1.779-0.89 3.114-0.89 4.004 2.966-4.449 4.894-8.453 5.784-12.012-0.594-0.297-1.187-0.297-1.78 0zm-53.386 1.334c-0.593 0-0.889 0.149-0.889 0.445 0.593-0.593 0.889-0.741 0.889-0.445zm-1.334 12.012c1.186-2.966 0.445-6.673-2.225-11.122 0.593 6.228 1.335 9.936 2.225 11.122zm61.394-7.563c1.186 3.263 1.186 4.597 0 4.004zm-60.505 1.78 1.335 0.444c-0.593-1.186-1.038-1.779-1.335-1.779zm56.501 11.567c0.593-0.297 0.889-1.039 0.889-2.225 0-0.89 0.445-1.483 1.335-1.779 0-2.077-0.148-3.559-0.445-4.449-3.855 0.593-5.042 2.521-3.559 5.783 0-0.593 0.297-0.89 0.89-0.89zm-52.052 1.779c-0.593-0.296-0.889-0.593-0.889-0.89-0.297-0.593-0.594-0.889-0.89-0.889-0.297 0.593-0.149 1.186 0.445 1.779 0.296 0.593 0.741 0.593 1.334 0zm45.378 3.114c-0.296-0.296-0.444-0.148-0.444 0.445-0.89 0.297-1.483 0.742-1.78 1.335-0.593 0.89-0.297 1.483 0.89 1.779l1.334-3.559c3.559-0.89 4.301-2.372 2.225-4.449 0 0.594-0.297 1.335-0.89 2.225zm-3.114 3.114c-0.593 0-0.89 0.149-0.89 0.445 0.594 0 0.89-0.148 0.89-0.445zm48.048-115.67c0.296 0.296 0.444 0.593 0.444 0.89 0.594-0.297 0.297-0.742-0.889-1.335zm-22.689 49.382c0-0.297 0.444-0.445 1.334-0.445 0 0.297-0.445 0.445-1.334 0.445zm-8.453 22.244c0-0.297 0.445-0.445 1.334-0.445 0 0.297-0.444 0.445-1.334 0.445zm-8.008 32.476c0-1.186 0.445-1.779 1.335-1.779 0 0.593-0.445 1.186-1.335 1.779z" fill="#fcf9f8"/>
</svg>
