<svg xmlns="http://www.w3.org/2000/svg" viewBox="0 0 2555 2670">
  <path fill="#343434" d="M1642 0c-21 3-17 29-23 44q-19 54-66 87c-14 9-28 32-9 43 20 7 33-16 48-25q24-24 43-53 16-30 25-62c9-15 1-34-18-34m154 15c-16 11-19 33-32 48-24 34-60 55-92 80-13 2-35-6-37 15-1 21 22 24 37 26q26 13 53 23c18 8 39 9 56 22 22 17 49 26 69 45l47 48q28 44 54 90 14 32 23 63l11 49c-10 14-28-3-41-2q-54-11-110-11c-16-5-38 7-30 26 6 15 24 13 37 10q66-1 130 18 44 5 86 11 31 2 62 7c-12 10-30 10-44 18q-27 10-54 23c-26 12-55 14-81 27q-25 15-55 19t-58 18c-26 12-55 15-83 24-11 5-28 3-33 16-8 17 10 34 26 26 24-6 46-20 71-22 27-7 51-23 80-28q41-10 79-28c24-9 50-14 74-23q39-23 84-33 28-12 58-21c18-1 30-22 17-37-13-16-34-8-51-12q-43-6-87-10c-13-3-39 2-37-19-1-17-10-32-13-49q-7-36-24-69c-8-21-23-38-33-58-12-21-23-43-41-59q-25-27-52-51c-14-15-33-19-50-27-16-11-32-25-53-26-15-6-35-7-47-18 8-14 27-21 38-33q45-36 67-88c6-14-6-29-21-28m-263 1c-19 7-13 29-15 45q-10 37-34 69a95 95 0 0 1-56 32q-35 9-68 21c-33 8-69 6-100 19q-40 11-72 37-36 25-65 58-20 23-36 49-13 28-24 56-19 46-18 96c-2 44-3 88 11 130q13 55 32 109c-1 15 9 34 26 31 16-5 13-25 9-38q-11-27-17-55l-20-76q-7-38-9-77-4-56 19-108c10-23 18-47 34-67 11-20 30-35 46-51 24-20 48-42 78-52 50-21 106-18 156-38 20-5 42-8 61-18 20-8 33-26 47-42 11-14 14-31 22-46q14-25 10-53c2-13-2-29-17-31m254 314c-22 3-37 26-35 48-1 18 16 32 34 31 15-1 36-3 41-21 8-20 1-48-21-56q-9-2-19-2m-322 52c-20 1-29 25-23 42 6 23 29 44 53 40 15-6 17-24 25-36 7-17-4-35-21-39-11-3-22-8-34-7M34 655c-12 5-34 0-35 19 0 18 16 30 20 47 7 19 7 39 14 58 6 26 9 53 23 77q33 74 74 143c15 27 27 55 45 80q24 36 45 74 30 37 57 75c22 33 44 66 74 92 24 24 42 53 65 79q22 20 40 44c18 18 41 31 56 53 15 16 46-1 35-22-12-14-29-22-42-35-25-19-43-46-65-67q-29-38-61-72c-38-36-63-81-94-122-18-23-39-43-51-71-15-31-39-58-54-90-24-45-51-88-73-134q-19-38-30-79c-3-25-15-48-19-72-3-22 16-1 25 2 28 12 49 37 78 47 23 7 41 25 64 35q30 15 60 32c26 13 55 20 80 37 17 9 37 13 54 25 21 10 44 15 64 27l56 35c18 11 40 11 56 26 17 9 36 11 53 20 15 10 31 20 50 22l156 36c19 4 36-26 15-35q-28-6-57-11c-31-5-59-16-90-22q-33-5-61-22c-9-10-34-7-33-22q18-19 34-39c34-40 78-70 116-105 31-24 69-38 104-57q27-13 57-18c21-7 38-21 60-26 18-6 34-16 52-21 17-7 11-35-7-37-16-3-28 11-42 16-19 9-39 14-57 24-15 9-33 12-50 17-26 7-47 23-72 33q-35 16-67 41-22 22-47 39-31 25-59 54l-41 42c-9 9-12 30-28 25-19-10-39-17-56-31q-39-25-82-40-29-17-59-29-39-20-80-35c-36-16-69-38-104-57-22-14-48-20-67-38-20-16-45-23-62-42-10-12-22-23-37-25m1954 22c-19 1-17 25-21 38-9 25-27 46-29 72-6 17-20 29-29 44-12 17-31 29-44 46q-18 21-43 34-31 20-63 37c-15 4-35 14-28 33 5 15 23 12 36 9 16 2 27 18 38 28q19 23 38 45c22 31 36 65 52 99q15 34 20 70 10 44 12 87 10 78 6 157c1 12-4 24 0 35 8 16 0 32-2 47-5 32-16 63-24 95-7 25-20 48-28 73q-13 31-25 62c-22 55-65 97-99 145-27 33-65 54-101 76-45 32-96 54-144 81q-30 13-59 30c-29 10-56 26-87 28-15 3-31-2-45 4-21 8-26-18-38-28q-17-20-32-42c-11-13-38 1-31 18 8 19 25 32 37 48 12 9 2 24-12 17-32-2-64 6-96 6-38 8-76 5-114 7q-41 1-83-4-45 0-91-5-42-2-82-16c-35-12-71-20-104-37-23-2-10-25-4-37 9-17 11-37 21-53 15-13 4-40-16-37-17 7-16 28-24 42l-24 60c-13 9-25-6-37-10q-33-13-61-36-47-33-80-79-15-27-34-52-18-31-34-64-11-27-21-56-7-25-16-49-5-35-7-68c-2-55 4-110 5-165q7-45 10-90 1-28 13-53c5-13-4-34-21-29-14 5-15 22-22 34-6 19-3 39-7 59q-1 35-9 69c-2 30 3 60-4 90q-5 42 1 84 1 41 7 82 9 26 18 52a482 482 0 0 0 79 154c8 15 11 32 24 43q32 33 68 61c13 14 29 27 49 31 19 8 36 22 56 29 8 14-12 28-14 43q-12 35-26 70c-11 26-19 52-32 78q-13 35-27 72-22 39-37 83c-6 16-11 42-34 31-32-6-67-18-100-7-21 5-10 38 9 36 14 0 28-7 42-1 22 4 45 7 64 19 21 15 32 39 51 56q23 28 48 55c10 12 27 1 31-12 2-16-18-23-26-36-8-14-32-26-29-42 20 5 36 21 56 25q31 13 59 32c15 11 38-11 25-26-5-5-21-16-5-12q28 6 56 7c14 0 30 2 42-6 16-14-1-39-20-32q-45 2-87-9-42-9-84-12-35-5-65-17c-19-12 2-32 3-47q12-26 24-54 19-47 40-96c22-55 40-112 66-166 1-17 20-20 30-8 21 11 44 15 66 24q43 14 88 25c47 8 96 5 144 11q89 4 179-3 53-6 105-8c14 2 32-10 42 4q12 24 30 44 16 26 34 51 32 53 65 104 20 32 43 63 18 33 40 64c3 21-22 7-34 8l-67-2c-18 2-13 23-5 32 8 15 27 2 40 6 27 0 53 5 80 6 16-8 28 1 38 13 25 24 56 39 81 62 6 13 26 20 31 4 10-14 5-34-11-39q-27-13-51-31c-8-4-11-14 1-9 17 6 34 8 51 16 35 10 69 25 105 33 15 3 34-12 27-28-11-13-29-9-43-15l-58-18c14-9 32 1 48-2q46-2 93-5c20-4 21-40-2-38l-50 3q-43 2-86 2c-30 1-59 9-89 9-17-1-33-9-50-8-14-5-21-21-29-33l-34-55c-12-23-32-41-44-65q-18-22-31-46l-31-52c-16-21-27-46-45-66-16-10-11-29 9-26 28 0 55-10 82-16q40-16 77-35c21-6 38-20 57-29q28-15 55-28c41-22 78-50 117-73q35-24 61-58c16-17 28-39 44-57 22-27 36-59 53-89q10-30 25-59c15-36 25-73 38-110a517 517 0 0 0 23-136c-2-13-11-35 1-42 22-3 35-23 52-35q29-24 60-44 27-18 50-38 31-22 54-52 45-51 94-99 28-31 52-66 45-48 77-104c19-35 44-67 62-103q16-32 31-63 14-34 31-67c9-21 10-44 16-67 6-22-30-32-38-10q-22 25-48 48c-28 24-60 43-88 66q-31 24-66 41-47 28-93 58-65 37-132 69c-32 15-67 22-98 39q-29 12-57 26c-16 1-29 21-44 14-10-14-17-29-29-42-15-18-29-38-49-51-18-12 12-20 19-28 21-15 45-27 61-48 20-18 42-36 56-60q22-27 29-61 12-20 21-42 8-21 12-40c-1-11-14-16-23-19m515 94c-4 16-15 29-20 45q-23 50-47 96-20 33-41 65-15 24-30 50c-17 18-27 44-47 60q-24 29-45 59-39 43-80 84c-21 20-36 45-59 63-32 29-69 52-104 77-16 12-29 29-47 40-18-4-8-29-13-42q-5-70-18-139-9-56-34-107c-11-8-9-27 8-24 21-8 39-20 60-27q46-24 95-37 26-14 54-27 30-14 59-32 49-24 93-55c28-20 61-34 89-54q26-16 49-36 41-26 78-59"/>
</svg>
