<?xml version="1.0" encoding="UTF-8"?>
<!-- Created with Inkscape (http://www.inkscape.org/) -->
<svg id="svg1" width="1280" height="800" version="1.1" viewBox="0 0 338.67 211.67" xml:space="preserve" xmlns="http://www.w3.org/2000/svg"><g id="layer1"><circle id="path315" cx="-25.137" cy="22.43" r=".027258" stroke="#000" stroke-width=".26458"/><circle id="path320" cx="-51.82" cy="93.586" r=".027258" stroke="#000" stroke-width=".26458"/><circle id="path321" cx="-14.309" cy="83.145" r=".027258" stroke="#000" stroke-width=".26458"/><circle id="path322" cx="-25.91" cy="87.785" r=".027258" stroke="#000" stroke-width=".26458"/><g id="Layer_2" transform="matrix(1.6705 0 0 1.6705 108.41 64.909)" data-name="Layer 2"><g id="invisible_box" fill="none" data-name="invisible box"><rect id="rect1" width="48" height="48"/><rect id="rect2" width="48" height="48"/></g><g id="icons_Q2" data-name="icons Q2"><path id="path2" d="m36.684 3.3881a21.6 21.6 0 0 0-6.8 42.2c1 0.2 1.8-0.9 1.8-1.8v-2.9c-6 1.3-7.9-2.9-7.9-2.9a6.5 6.5 0 0 0-2.2-3.2c-2-1.4 0.1-1.3 0.1-1.3a4.3 4.3 0 0 1 3.3 2c1.7 2.9 5.5 2.6 6.7 2.1a5.4 5.4 0 0 1 0.5-2.9c-6.8-1.2-10.5-5.2-10.5-10.6a10.7 10.7 0 0 1 2.9-7.6 6.2 6.2 0 0 1 0.3-6.4 8.9 8.9 0 0 1 6.4 2.9 15.1 15.1 0 0 1 5.4-0.8 17.1 17.1 0 0 1 5.4 0.7 9 9 0 0 1 6.4-2.8 6.5 6.5 0 0 1 0.4 6.4 10.7 10.7 0 0 1 2.8 7.6c0 5.4-3.7 9.4-10.5 10.6a5.4 5.4 0 0 1 0.5 2.9v6.2a1.8 1.8 0 0 0 1.9 1.8 21.7 21.7 0 0 0-6.9-42.2z" fill="#343434"/></g></g></g></svg>
