<?xml version="1.0" encoding="UTF-8"?>
<svg id="svg48" width="800" height="800" version="1.0" viewBox="0 0 600 600" xmlns="http://www.w3.org/2000/svg" xmlns:cc="http://creativecommons.org/ns#" xmlns:dc="http://purl.org/dc/elements/1.1/" xmlns:rdf="http://www.w3.org/1999/02/22-rdf-syntax-ns#">
 <metadata id="metadata10">Created by potrace 1.16, written by Peter Selinger 2001-2019
  <rdf:RDF>
   <cc:Work rdf:about="">
    <dc:format>image/svg+xml</dc:format>
    <dc:type rdf:resource="http://purl.org/dc/dcmitype/StillImage"/>
    <dc:title/>
   </cc:Work>
  </rdf:RDF>
 </metadata>
 <g id="g990" transform="translate(56.194 -.00050636)" stroke="#343434">
  <g id="g87" transform="scale(.31144)" stroke-width="24.081">
   <path id="path12" d="m1513 1.2109c-1.4 0.7-4.7 1.3-7.5 1.3-2.7 0-8.6 0.7-13 1.6-4.4 0.8-9.7 1.3-11.7 1-2.3-0.4-5.2 0-7.7 1-3.2 1.3-5 1.4-8.7 0.6-4.1-0.9-5.1-0.8-7 0.7-2.4 1.9-3.8 1.9-30.4 0.7-26.6-1.3-30.6-1.4-32.3-0.4-4.7 2.5-13.4 2.8-31.2 1.3-33.1-2.8-43-3.3-44-2.6-0.5 0.5-3.6 0.9-6.7 0.9-3.2 0.1-7.1 0.8-8.6 1.6-3.4 1.8-13.8 1.1-16.2-1-1.9-1.6-10.9-0.5-13.5 1.6-1.2 1-2.4 1-5.8 0.1-3.1-0.9-5-0.9-7-0.2-1.6 0.6-5.5 1.1-8.7 1.1-3.3 0-7 0.5-8.4 1.1-1.4 0.7-3.3 0.8-4.3 0.4-1-0.5-5.4-1-9.8-1.2-12.2-0.5-13.7-0.5-18 0.1-2.2 0.4-4.9 0.5-6 0.5-1.1-0.1-8.5-0.3-16.5-0.5-8-0.1-21.5-0.5-30.1-0.8-13.3-0.5-15.8-0.4-16.9 0.9-1.1 1.3-1.5 1.4-2.9 0.2-0.9-0.8-3.9-1.7-6.8-2-4.2-0.5-5.7-0.2-7.5 1.3-2.2 1.7-2.5 1.7-5.1 0.2-2.3-1.4-3.1-1.4-4.8-0.4-1.6 1-4.6 1.2-11.8 0.7-8.2-0.6-9.9-0.5-11 0.9-1.6 1.9-4.2 2.1-5.9 0.4-0.7-0.7-4.6-1-11.4-0.8-19.5 0.5-24.3 0.5-30.3-0.1-3.3-0.3-8.7-0.3-12 0.1-5.6 0.7-10.6 0.3-24.9-2-4.2-0.7-6.4-0.6-7.3 0.1-0.9 0.8-2.1 0.8-4 0-1.6-0.6-6.8-1.3-11.8-1.6-4.9-0.3-10.8-0.9-12.9-1.4-2.6-0.7-4.6-0.6-5.9 0.1-1.2 0.6-8.9 0.9-20.1 0.8-31.4-0.5-49.7 0-66.4 2-5 0.6-15.1 0.6-26 0.1-9.7-0.5-18.1-0.6-18.5-0.4-0.5 0.3-2 0-3.3-0.7-2-1.1-2.7-1.1-4.1 0.3-2 1.7-2.9 1.7-30.9 1.4-10.8-0.1-17.6-0.6-18.5-1.3-0.9-0.8-11.5-1.2-32.9-1.4-17.3-0.1-38.5-0.3-47-0.4-8.7 0-19.4 0.5-24.5 1.3-4.9 0.7-9.9 1.3-11 1.3-13.1-0.4-31.2 0.3-42.2 1.6-4.6 0.5-10.5 0.6-13.2 0.1-7.2-1.1-30.4-2.3-39.6-2-10.2 0.3-9.7 0.3-18-0.8-3.8-0.5-15.6-0.9-26.2-0.9-13.5 0-19.8-0.4-21.5-1.3-2.4-1.3-11.7-1.9-12.4-0.8-0.2 0.4-4.7 0.7-10 0.7-6.8 0.1-10.1 0.5-11.3 1.5-1.6 1.5-17.5 3.2-26 2.8-3-0.1-5 0.4-6.3 1.6-1.6 1.4-2.3 1.5-5.3 0.4-1.9-0.7-4-0.9-4.7-0.5-0.6 0.4-6.3 0.6-12.5 0.5-7.4-0.2-11.9 0.1-12.8 0.9-1 0.8-2.4 0.8-5 0.1-2.7-0.7-4.6-0.6-7.7 0.5-5.6 2-9.1 1.8-12.2-0.7-2.5-2-2.8-2-4.5-0.5-1 0.9-3.1 1.6-4.8 1.6s-4.1 0.9-5.5 1.9c-2.2 1.8-3.1 1.9-10.1 0.9-5.2-0.8-8.5-0.8-10-0.1-1.4 0.6-7 0.7-15.2 0.2-7.1-0.4-17.9-0.4-23.8 0.1-10 0.7-30.6-0.2-32.8-1.6-1.3-0.8-23.6-2.6-28.9-2.4-7.8 0.4-12.2 0.3-22.6-0.5-7.2-0.6-10.3-0.4-10.8 0.4-0.4 0.6-1.8 1.1-3.2 1.1s-4.2 0.9-6.4 2-4.7 2-5.7 2-3.3 0.9-5.1 2c-2.5 1.5-3.7 1.8-5.2 1-2.1-1.1-8.3-1.4-9.3-0.3-0.4 0.3-3.4 0.8-6.8 1-3.4 0.1-8 1.1-10.4 2.2-2.3 1-7.1 2.2-10.6 2.6s-7.3 1.4-8.4 2.1c-1.1 0.8-3.1 1.4-4.5 1.4s-3.1 0.5-3.8 1.2-2.9 1.3-5 1.5c-5.8 0.3-15.5 2.5-17.7 4-1.1 0.7-3.8 1.3-6.2 1.3-2.3 0-4.5 0.4-4.8 1-0.3 0.5-1.3 1-2.1 1-0.9 0-3.7 1.8-6.3 4s-5.3 4-6 4c-0.6 0-3.5 2.2-6.4 5-2.9 2.7-5.9 5-6.8 5-2.1 0-4.9 3.2-4.9 5.7 0 1.1-1.1 3-2.5 4.3s-2.5 2.8-2.5 3.3-2 3.6-4.5 6.8c-2.5 3.3-4.5 6.6-4.5 7.4 0 0.7-0.4 1.7-1 2-0.5 0.3-1 1.5-1 2.5s-1.1 2.7-2.5 3.7c-2.5 1.8-3.7 5.9-5 18.2-0.2 1.8-0.8 3.8-1.4 4.4s-1.1 1.9-1.1 2.8-0.9 2.3-2 3c-1.6 1.1-2.3 3.2-3.1 10.4-1.3 11-3 19.4-4.1 20.1-0.4 0.3-0.8 2.7-0.8 5.4s-0.4 5.1-0.9 5.4c-0.4 0.3-1.1 3.3-1.5 6.5-0.4 3.3-1.1 6.3-1.6 6.6-0.6 0.4-1 2-1 3.6 0 1.7-0.5 4-1.1 5.1s-1.3 8.4-1.6 16.1c-0.4 10.1-1 14.8-2 16.4-1.1 1.6-1.5 4.9-1.4 11.3 0 4.9-0.3 9.2-0.8 9.5s-0.9 14.3-0.9 31.1c-0.1 27.6-0.2 30.9-1.9 34.2-2.1 4.3-2.2 11.6-0.3 28.5 0.9 7.3 1 11.1 0.3 11.8-0.6 0.6-0.8 4.6-0.5 10 0.3 5.2 0.1 9.4-0.5 10.1-1.2 1.5-1.1 41.8 0.1 43.6 0.4 0.7 0.5 1.6 0.2 2.1-0.4 0.5 0.1 2.2 1.1 3.8 1.6 2.8 1.5 3.2-0.6 7.6-1.8 3.7-2 5-1.1 6.7 0.7 1.2 1 4.5 0.8 7.4-0.2 2.8-0.1 16.5 0.4 30.5 0.7 21.9 1 25.7 2.5 27.3 1.4 1.6 1.5 2.2 0.4 3.9-0.7 1.3-0.9 2.5-0.3 3.2 0.5 0.7 1 6.3 1.1 12.6 0.1 8.1 0.6 12 1.6 13.5 1.8 2.5 1.9 5.8 0.4 7.3-0.9 0.9-0.9 1.9 0.1 4.2 0.6 1.6 0.9 3.4 0.6 3.9s-0.1 9.7 0.5 20.3c0.6 10.7 1.1 20.7 1 22.4-0.1 1.6-0.3 5.9-0.4 9.5-0.2 3.6-0.4 19.3-0.4 35s-0.1 30.1-0.1 32-0.1 15.9-0.2 31c-0.3 29.3 0.6 56.9 2.1 63.6 0.5 2.4 0.4 7.6-0.1 12.5-0.5 4.6-1.6 13.9-2.4 20.7-1.1 9.5-1.2 13.6-0.4 18.2 0.9 4.5 0.9 6.6 0 8.2-0.8 1.6-1 6.6-0.6 16.3 0.9 21.5 0.9 28.8 0 31-0.9 2-1.9 13.1-1.7 19.6 0 2.1-0.6 6.9-1.3 10.8-1.1 5.9-1.1 7.7 0 10.8 1.6 4.6 1.8 9 0.4 9.8-0.5 0.3-1 3.6-1 7.3-0.1 3.7-0.5 8.7-1 11.2-0.5 2.9-0.5 4.9 0.2 5.8 0.7 0.7 0.8 3.2 0.3 6.5-0.4 2.8-0.7 7-0.7 9.2 0.1 2.2 0.1 11.2 0.2 20 0.1 14.3 1.1 32.7 2.5 44 0.4 3.6 0.8 11.2 1.9 32.5 0.1 3.6 0.6 16.2 1 28s1.1 25.8 1.6 31c0.6 6.5 0.6 9.8-0.2 10.7-1.6 2-2.3 18-0.8 19.8 1 1.2 1 1.8-0.1 3.1-1.1 1.4-1.4 10.6-1.6 47.8-0.1 25.3-0.4 53.7-0.7 63.1-0.4 9.3-0.6 25.5-0.6 35.9 0 15.8 0.2 19.3 1.6 21.4 1.2 1.8 1.4 3 0.6 4.6-1.8 3.6-2.1 11.8-0.7 14 1.5 2.4 1.6 5.9 1.5 42.9 0 14.1 0.3 26.5 0.8 27.5 2 3.8 4.2 34.2 3.3 46.7-0.1 2.2-0.1 13.2 0.1 24.5 0.2 13.2-0.1 22.8-0.9 27-0.7 3.6-1.4 13.9-1.7 23-0.2 9.1-0.9 17.8-1.5 19.3-0.8 2.1-0.8 3.5 0.3 5.5 0.7 1.5 1.6 7.4 1.9 13.2 0.6 8.9 0.4 10.7-1 12.2-1.5 1.7-1.6 2.8-0.6 9.5 0.8 5.8 0.8 9.3-0.2 15.2-0.7 4.2-1.8 13.9-2.5 21.6-0.6 7.7-1.6 15-2.1 16.2-0.5 1.3-0.5 3.3 0 4.6 0.5 1.4 0.4 5.1-0.5 9.7-0.7 4.1-1.3 9.4-1.3 11.7-0.1 2.3-1.1 6.8-2.3 10-2 5.2-2.2 7.8-2.4 25.3-0.1 21.1-1.9 46.4-3.5 49.3-0.5 1-0.7 2.2-0.4 2.6 0.2 0.5 0.7 8.7 1 18.2 0.6 17.6 0.4 19-3.5 26.1-1.3 2.3-1.3 11.5 0 12.3 0.6 0.3 1 1.7 1 3 0 1.7 1.2 3 4.6 4.9 2.6 1.4 5.4 2.6 6.4 2.6 2.9 0 5 3.5 5.6 9.1 0.3 3 1.4 7.5 2.5 10.1 1.3 3.2 1.9 7.1 1.9 12.4 0 6.1 0.4 8.2 1.8 9.8 1 1.2 2.4 4.9 3.1 8.3 1 5.4 1 6.6-0.4 8.7-1.6 2.3-1.5 2.6 1.9 7.1 2 2.6 4.9 6 6.5 7.6s3.1 4.2 3.3 5.7c0.2 2.2 0.9 2.8 3.8 3.2 3.1 0.4 3.6 0.9 4 3.9 0.5 3.3 0.8 3.5 6 4.5 3 0.6 6.6 1.9 8 2.9 1.3 0.9 3.4 1.7 4.7 1.7 1.2 0 2.5 0.5 2.8 1 0.3 0.6 1.5 1 2.5 1s3.2 1.1 4.8 2.5c1.7 1.4 3.7 2.5 4.5 2.5 0.9 0 1.9 0.5 2.2 1.1 0.5 0.7 1.5 0.5 3-0.5 2.9-1.9 6.5-1.4 30.5 4.5 5.3 1.4 13.2 2.3 21 2.6 6.9 0.3 12.9 0.9 13.5 1.4 1.4 1.4 7.8 1.1 11.6-0.5 2.6-1.1 8.8-1.3 31.8-0.9 26.7 0.5 41.6 0 85.1-2.9 9.1-0.6 17.9-1 19.5-1 9.2 0 38-2.2 44-3.3 13.3-2.7 21.7-3.3 50.5-3.9 17.7-0.4 32.3-1.6 46-3.6 4.1-0.6 8.8-0.9 10.3-0.6 1.6 0.3 4.7 0.2 7-0.3s6.9-1.5 10.2-2.1c9-1.7 14.9-3.2 16-4 0.6-0.4 3.5-0.4 6.5 0s5.8 0.6 6.2 0.3c0.4-0.2 9.8-0.5 20.8-0.7s20.3-0.6 20.7-1c0.3-0.3 1.4 0.1 2.4 1 1.4 1.3 2.1 1.4 4.1 0.3 1.4-0.8 7.5-1.4 15.8-1.6 7.4-0.2 15.5-0.9 18-1.6 4.7-1.4 13.2-1.5 18.8-0.2 2.3 0.5 4.4 0.1 7.6-1.4 3.9-2 5.6-2.1 18.7-1.7 21.2 0.7 46.1 1.7 48.4 1.9 3.2 0.3 22.9-2.5 24-3.4 0.6-0.4 5-0.8 9.7-0.8 4.8 0.1 9.2-0.2 9.7-0.6 0.6-0.3 2.5 0.2 4.2 1.1 2.6 1.3 3.9 1.4 6.9 0.5 4.6-1.3 14.5-1.4 16.9-0.2 1.2 0.7 3.8 0.5 7.7-0.4 3.2-0.7 16.5-1.8 29.4-2.5 12.9-0.6 24.6-1.5 26-2 5.5-1.9 65.4-5.4 86.3-5.1 4.3 0.1 8.3-0.2 9-0.6 1.4-0.9 4.2-1 39.2-1.7 14.3-0.3 28-0.7 30.5-0.9s5.3 0 6.3 0.5c1.1 0.6 8.2 0.3 18.5-0.7 9.2-1 20.5-1.9 25.2-2 11.5-0.5 32.8-2.3 42-3.5 4.1-0.6 9.1-0.7 11-0.4 6.2 1.1 12.2 1.3 14.5 0.4 1.2-0.4 7.1-0.4 13 0 6.9 0.6 11.3 0.6 12.1-0.1 0.6-0.5 1.9-0.7 2.8-0.3 0.9 0.3 2.3 0.1 3-0.6 1.3-1 21.5-1.3 51.6-0.9 1.4 0.1 6.1-0.5 10.5-1.1 4.4-0.7 9.8-1.4 12-1.6s5.6-0.7 7.5-1 10.7-0.1 19.5 0.4 16.4 0.7 16.9 0.4 4.5-0.7 9-0.9c4.5-0.1 16.9-0.8 27.6-1.4 10.7-0.5 21.8-1.1 24.7-1.2 2.8-0.1 5.4-0.5 5.8-0.9s2-0.5 3.5-0.1c1.8 0.3 3.7-0.1 5.1-1.1 2.7-1.8 9.6-2.1 15.3-0.5 3.3 0.9 4.1 0.8 6-0.8 1.9-1.7 3.3-1.8 15.6-1.3 10 0.5 14 0.3 15.5-0.6 1.5-1 8.5-1.2 27.2-1.1 23.5 0.1 25.3 0 27.3-1.8 1.8-1.6 2.4-1.7 4.1-0.7 1 0.7 3 1 4.4 0.6 1.4-0.3 3.3-0.3 4.2 0.2 1 0.4 7.6 0.6 14.7 0.5 9.9-0.1 14.5-0.7 19.2-2.2 4.9-1.6 6.7-1.8 8.3-0.9 1.8 0.9 2.9 0.4 7.3-3.1 5-3.9 5.4-4.5 6.3-10.2 1-6 1.1-6.2 4.7-7 6.1-1.4 6.9-3.2 7.2-14.9 0.2-5.6-0.1-10.8-0.6-11.5-0.7-0.8-0.4-2.3 0.6-4.4 0.9-1.8 1.6-4.2 1.6-5.4s0.9-3 2-4c2.3-2.1 3.6-6.1 4.5-14 0.5-4.2 1.4-6.8 3.2-8.9 2.8-3.3 7.3-11.9 7.3-13.9 0-0.7 1.1-2.4 2.5-3.7s2.5-3.1 2.5-4.1c0-0.9 0.7-2.3 1.6-3 2-1.6 8.8-11.8 11.5-17.1 2.4-4.7 14.1-16.8 16.2-16.8 2.3 0 3.7-3.1 3.9-9.1 0.2-4.8 0.5-5.4 3.6-7.2 2.7-1.6 3.2-2.4 2.7-4.6-0.9-4.4-2.4-28.9-1.8-30.9 0.2-1.1-0.3-3.4-1.2-5.1-0.8-1.7-1.3-3.6-1-4.2 0.4-0.5-0.1-2.2-1-3.6-1.3-2-1.6-4.1-1.3-9.2 0.3-3.7 0-7.4-0.6-8.3-0.8-1.3-0.6-2.6 0.6-5 1.2-2.3 1.9-6.9 2.2-15.3 1.3-28.6 2.7-46.4 3.7-47.1 0.5-0.3 0.9-1.6 0.9-3s0.5-3.5 1.1-4.7c0.9-1.5 1.3-15.1 1.5-45.1 0.2-35.5 0-43.7-1.2-46.5-0.8-2-1.2-4.7-0.8-6.6 0.3-1.8 0.1-5-0.5-7.1-1.3-4.5-2.6-38.8-1.5-40.5 1.2-2 1.2-23.3 0-24.8-0.7-0.9-1.2-10.3-1.4-27.5-0.2-17-0.7-26.9-1.4-28.4-0.9-1.7-0.8-2.8 0.2-4.6 0.7-1.5 1-3.9 0.6-6.3-0.3-2.1-0.8-7.9-1.1-12.8-0.3-5-0.9-11.5-1.4-14.5-3.2-18-3.6-31.5-1.2-34.4 1.3-1.5 1.2-2.1-0.3-4.6-1.4-2.5-1.5-3.8-0.6-9.4 1.2-7.8 0.5-64.1-1-69.5-0.9-3.7-0.6-19.7 0.8-38.1 0.7-9.2 0.5-11-1.1-14.4-1.7-3.5-1.8-4.7-0.7-12 0.6-4.5 1.6-10.4 2.1-13.1 1.3-5.9 1.2-4 0.4-75-0.3-30.8-0.5-58.3-0.4-61 0.4-8.2 0.2-12.6-1.1-21-1.4-9.8-1.5-16.3-0.6-63 0.9-41.1 1.4-55.3 2.2-63.5 0.7-6.6 0.9-14.4 0.6-22.5-0.2-3.3-0.3-8.7-0.2-12 0.1-10.8-0.9-38.5-1.4-39.3-0.2-0.4-0.6-7.3-0.7-15.2-0.1-9.8-0.6-15.4-1.5-17.2-1-1.9-1.1-3.4-0.4-5.3 1.2-3.1 0.4-18.8-1.7-33.5-1.9-13.4-2.2-17-2.6-31-0.1-6.5-0.8-12.5-1.5-13.7-1.5-2.7-1.5-6.8-0.2-9.4 1.2-2.2 1.7-43 0.5-44.9-0.4-0.6-1.1-12.5-1.6-26.3-0.5-13.9-1.5-29-2.2-33.6-0.8-4.9-1.1-10-0.6-12.4 0.4-2.3 0.3-5.2-0.2-6.6-0.6-1.3-0.9-4.6-0.8-7.2 0.2-3.2-0.3-5.4-1.3-6.6-2.7-3.1-4-32.1-1.6-35.1 0.8-0.9 0.6-1.7-0.6-3-1.8-2.1-2.3-11.7-0.5-12.7 2-1.3-0.9-27.4-3.7-32.8-1.7-3.5-1.9-19.8-0.2-21.5 1.3-1.3 2.2-19.9 1.7-35.7-0.4-15-0.3-18.4 1.1-25.5 0.6-3.6 1.5-11.7 1.9-18s1-12.3 1.5-13.2c0.5-1.1 0.1-2.8-1-4.6-1.6-2.9-1.6-3.1 0.3-5.8s2-4.1 1.6-25.4c-1-48-0.4-75.3 1.8-82.5 1.4-4.9 2.8-19.9 1.9-21-1.2-1.5-1.1-20.9 0.2-28.5 1.2-7.2 2.3-49.4 1.8-64.3-0.3-5.6 0.8-14.4 2.5-20.2 0.9-3.1 1.4-6.2 1.2-6.9-0.8-2.1-11.4-7.6-14.5-7.6-3.5 0-5.5-2.1-7.5-8l-1.5-4.4-5.3-0.1c-3-0.1-6.5 0.5-7.9 1.2zm-4.5 19.8c4.1 0.1 7.1 0.8 9.4 2.3 2.2 1.3 4.4 1.9 6.1 1.6 2.4-0.5 2.7-0.3 2.7 2.8 0.5 26.5 0.2 44.2-0.8 45.4-0.9 1.1-0.8 1.8 0.1 2.9 1 1.2 1.1 6 0.5 22.3-1.2 29.9-1.7 37.5-4.5 68.2-1.2 13.1-1.3 31.7-0.2 39.3 0.4 3.2 0.5 9 0 12.9-0.4 3.9-0.5 7.5-0.2 8s0.1 1.5-0.5 2.2c-0.7 0.9-0.7 2.4 0 5.1 0.6 2.1 0.8 5.5 0.4 7.4-0.4 2-0.9 7.2-1 11.6-0.2 4.4-0.8 14.7-1.4 23-0.6 8.2-1.1 16.6-1 18.5s0.1 4.7 0 6.2c-0.1 3.7-0.1 7.3 0 10 0 1.3-0.4 7.9-1.1 14.8-4.1 45.7-4 88.4 0.2 93.7 0.5 0.7 0.9 4.3 0.8 8s-0.1 7 0 7.3 0.4 7.5 0.6 16c0.3 8.5 0.8 17 1.3 18.7 0.5 1.8 0.6 5.9 0.1 9-0.5 3.9-0.4 6.3 0.3 7.2 0.9 1.1 2.3 12.9 2.7 23.6 0.1 1 0.5 2.4 1 3s1.1 4.6 1.4 9c0.4 4.4 1 11 1.4 14.7s0.4 12 0 18.5c-0.6 9.8-0.5 12.1 0.8 14.1 1.2 1.8 1.3 3 0.5 5.5-0.7 2-0.9 12.1-0.6 27 0.3 19.1 0.7 24.3 1.9 26.2s1.4 5 1.1 17.4c-0.4 11-0.1 16.1 0.8 19 1.1 3 1.2 5.1 0.3 9-0.8 4-0.7 5.7 0.2 7.2 0.9 1.4 1.4 9.1 1.8 24.7 0.2 12.5 1 27.9 1.6 34.2 1.6 17.2 2.1 39.7 1.8 86.2v4.5c0.1 1-0.1 5.4-0.5 9.8-0.7 9.7-1.2 29.7-1.8 66.5-0.3 21.7-0.1 28.2 1 30.8 1 2.3 1.1 3.8 0.3 5.2-0.5 1-1 4.1-1 6.8 0 2.6-0.5 7.3-1 10.3-0.7 3.7-0.7 8.1 0.1 13.9 0.6 4.7 1.2 11.6 1.4 15.5 0.2 3.8 0.9 17.3 1.5 30 0.9 16.5 0.9 26.7 0.1 35.9-0.6 8.3-0.7 13.6 0 14.7 0.5 1 0.7 4.9 0.4 8.6s-0.7 12.7-0.8 19.8c-0.2 7.2-0.6 13.5-0.9 14-0.3 0.6-0.2 6.8 0.3 13.9 0.7 8.8 0.7 14.5-0.1 17.9-0.7 3.5-0.7 5.3 0 6.3 0.6 0.7 1.3 6.8 1.5 13.5 0.4 10.3 0.2 12.6-1.2 14.1-0.9 1-1.5 3-1.4 4.5 1.5 29.9 1.6 41.2 0.5 56.8-1.2 17.8-1 27.1 0.6 29 1.1 1.3 1.1 2 0 4-1 1.9-1 3.9-0.1 10.2 0.7 4.3 1.3 10.5 1.5 13.8 0.1 3.3 0.5 6.6 1 7.3 0.4 0.7 1.2 6.8 1.7 13.5 1.4 17.2 1.4 17.3 0.9 36.7 0 1.9 0.4 11.6 1 21.5 2.2 37 2.8 57 1.9 58.1-0.6 0.7-0.6 4.5 0 10 1.2 11.4 1.2 81.9 0 86-0.6 1.8-0.6 5.6 0 9.5 0.7 5.3 0.6 6.7-0.7 8.1-0.8 1-2.1 1.8-2.9 1.8-1.6 0-1.7 1.2 0 2.8 1.7 1.8 1.8 9.9 0.1 15-0.8 2.3-1.4 6.6-1.4 9.5s-0.5 7-1 9.2-1.3 8.3-1.6 13.5c-0.6 8.9-0.5 9.6 1.5 11.4 2.3 2.1 2.7 4.6 0.9 6.4-1.5 1.5-2.8 24.8-1.8 32.8 0.4 3.4 1.3 7.1 1.9 8.3 0.7 1.2 1 2.5 0.7 2.9-0.3 0.5 0 2.7 0.6 4.9 0.8 3.2 0.7 4.8-0.6 7.4-1.2 2.7-1.4 5.1-0.7 11.9 0.9 9.5 0.5 10.5-4.6 12.7-1.8 0.7-3.3 2-3.3 2.8 0 0.7-1.8 3.4-3.9 5.9-2.2 2.5-4.9 6.7-6.1 9.3-4.8 10.2-5.6 11.6-8.7 14.8-1.8 1.9-3.3 4.2-3.3 5.3 0 1-1.5 3.3-3.3 5-3.2 3.1-3.4 3.2-5 1.4-1.6-1.7-2-17.2-1.5-60.7 0.2-16.1-1.1-66.4-1.6-67.7-0.5-1 0-5.2 1-9.5 1.8-7.6 2.3-23.5 1.4-42.8-0.1-3.9 0.2-10.1 0.7-13.8 0.6-4.2 0.6-10.9 0.1-17.5-1.1-12.6-1.9-25.5-1.9-29.6 0-1.6-0.4-3.5-1-4.3-0.6-0.7-0.8-2.1-0.4-3 0.8-1.8 1.1-5 1.9-23.3 0.2-5.8 1-12.8 1.6-15.5 1-4.2 2.1-17.2 2-22.5-0.3-12.1-0.1-22.7 0.4-27.7 0.4-3.8 0.3-7-0.3-8.2-0.7-1.2-0.7-2.9-0.2-4.8 0.9-2.7 3.5-35.7 3.2-39.8-0.1-1.1-0.2-4-0.1-6.5 0-2.4-0.6-9.2-1.4-15-1.1-7.1-1.5-16.6-1.3-29.3 0.2-10.5-0.1-19.1-0.6-19.4s-0.6-2.7-0.3-5.2c0.4-2.7 0.1-6.2-0.5-8.1-0.9-2.5-0.9-4.4 0-8.1 0.7-2.7 0.9-5.4 0.5-6.1-0.9-1.4-1.2-21.8-0.3-22.4 0.3-0.2 0.7-4.3 0.9-9.1 0.5-17 0.8-22.8 1.5-27.6 0.4-2.6 0.2-7.7-0.5-11.4-1-6.2-1-6.8 1-9.5 1.6-2.2 1.9-3.6 1.4-6.6-0.4-2-1-4.4-1.5-5.2-0.4-0.9-0.3-3.7 0.3-6.4 0.7-3.4 0.7-5.1-0.1-5.9-0.6-0.6-1.1-4.7-1.1-9.4 0-5.2-0.6-9.7-1.5-12-1.4-3.2-1.4-4.1-0.1-6.7 1-2.4 1.3-6.3 1-16.6-0.6-17.5-0.8-19.7-1.7-20.6-1.1-1.2-0.8-5.3 0.7-8.2 1.1-2.1 1.2-4.7 0.5-12.2-0.5-5.2-1.1-18.8-1.3-30.3-0.2-11.4-0.6-21-1-21.4-1.1-1.2-0.6-5.6 0.8-7.2 1.8-2 2-8 0.6-23.6-0.5-6.6-1.2-16.7-1.5-22.3-0.3-5.7-0.8-10.9-1.2-11.5s-0.8-4.4-0.8-8.4c-0.1-4.3-0.7-7.8-1.5-8.8-1-1.2-1-2.1-0.1-4.1 0.6-1.4 1.1-5 1.1-8s0.4-6.3 1-7.3c0.7-1.4 0.5-2.3-0.8-3.4-1.5-1.4-1.7-3.4-1.5-15.2 0.1-8.7 0.6-14.2 1.4-15.1 0.9-1.1 0.8-2.1-0.4-4.6-1-2.1-1.4-5.4-1.3-8.8 0.2-3-0.3-7.5-1-9.9-1.1-3.8-1.1-4.8 0.3-7.5 1.2-2.3 1.6-5.7 1.5-13.1 0-5.5-0.1-17.6-0.1-26.9 0-13.4-0.3-17.2-1.5-18.5-0.8-0.9-1.5-3.2-1.6-5.1 0-1.9-0.1-5.3-0.1-7.5s0.5-8.7 1.2-14.5c1.1-9.6 1.3-14.4 1-24-0.1-1.9 0.1-6.1 0.5-9.3 0.3-3.2 0.2-6.3-0.4-7-0.5-0.7-0.6-4.4-0.1-9.2 0.6-6.5 0.5-8.4-0.8-10.4-1.2-1.8-1.4-3.8-0.8-8.6 0.4-4.5 0.3-6.9-0.7-8.4-1.1-1.7-1-2.5 0.1-4.4 1.1-1.6 1.6-7.1 1.8-22.2 0.8-43.2 0.6-56.8-1.1-68-1-6.1-1.7-13.7-1.6-17s0-7.4-0.1-9c-0.1-1.7-0.1-4.6 0-6.5 0.6-17.8 0.4-30-0.6-33.1-0.6-1.9-1.2-7.1-1.3-11.5-0.3-15.1-0.9-26.9-1.7-36.9-0.7-7.3-0.6-11.4 0.4-15.3 1.6-6.6 1.7-18.4 0.1-20-0.9-0.9-0.9-1.7 0.1-3.5 0.7-1.2 1.1-4.3 1-6.7-0.1-2.5 0.2-8.5 0.6-13.3 0.6-7.6 0.4-9.1-1-10.7-1.4-1.5-1.7-3.7-1.4-11.7 0.1-5.4-0.1-10.5-0.4-11.3s-0.8-4-1-7c-0.3-3-1-7.8-1.7-10.5-1.4-5.6-1.5-10.5-0.8-24.8 0.3-5.4 0.1-10-0.3-10.3-0.5-0.3-0.9-2.9-0.9-5.7 0-5.5-1.7-11.4-3.9-14.1-1.2-1.4-1.2-2.1-0.1-4.4 0.9-1.8 1.4-9.1 1.6-22.8 0.2-11.1 0.6-20.8 1-21.7 0.3-0.9 0.1-4-0.5-6.9s-0.9-8.9-0.7-13.3c0.3-5.6 0-8.5-0.9-9.5-1.3-1.5-1.2-3.2 1.5-18.5 2.2-12.9 2.8-19 2-20.5-1-1.8-0.2-13.7 1.1-16.1 1.3-2.6-1.2-14-3.9-17.7-2.1-2.8-2.3-3.6-1.3-5.5 0.6-1.2 1-3.3 0.9-4.7-0.3-2.4-0.1-2.5 4.3-2.2l4.7 0.3 0.7-5.6c0.5-4.3 0.3-6.2-0.9-8-0.9-1.3-1.6-3.3-1.6-4.3 0-1.1-0.6-2.5-1.4-3.1-2.2-1.8-2.6-14-0.7-22 0.9-3.8 2-7.3 2.4-7.7s0.7-1.4 0.7-2.3c0.1-0.9 0.9-3.4 2-5.6s1.9-5 2-6.1c0-2.3 7.7-9.9 12.8-12.6 1.7-0.9 4.5-3.9 6.2-6.6 1.7-2.8 3.7-5.3 4.5-5.6 3.1-1.1 1.4-12.3-2-13.6-1.3-0.5-2.6-1.4-3-1.9-0.3-0.6-1.9-1.1-3.5-1.1-3.9 0-9.4 5-12.6 11.2-1.4 2.7-3.6 5.4-5 6-3.2 1.5-13.8 15.3-15.2 19.8-0.5 1.9-1.7 6-2.6 9-0.8 3-2.2 7.7-3 10.5-0.8 2.7-1.8 7.2-2.2 10-0.3 2.7-1.1 5.8-1.6 6.8-0.6 1.1-0.3 3.3 0.7 6.2 0.8 2.5 1.5 5.9 1.5 7.6 0 1.6 1.1 4.7 2.5 6.7 2.7 4 3.2 7.1 1.3 9-1.8 1.8-3.3 1.5-6.5-1.2-2.6-2.2-3.2-2.3-8.8-1.4-3.3 0.5-8.6 0.7-11.7 0.4-3.7-0.4-6-0.2-6.4 0.5-0.4 0.8-2.7 0.9-6.4 0.6-3.8-0.4-6.1-0.2-6.9 0.6-0.9 0.9-1.6 0.8-3.4-0.2-1.5-1-7.1-1.6-18.9-1.9-14.5-0.4-17.2-0.2-20.4 1.3-3.3 1.5-5.5 1.7-17.9 1-7.8-0.3-18.9-0.8-24.6-1s-13.5-0.7-17.4-1.1c-8.7-0.9-9-0.9-43 0-47.9 1.1-54.5 1.4-73 3-19.5 1.7-35.9 1.5-39.5-0.4-1.7-0.9-5.7-1-14.7-0.5-10.4 0.6-12.7 0.5-14.8-0.9-1.4-0.9-4.4-1.6-7.2-1.5-2.6 0-6.5-0.2-8.6-0.6-2.7-0.5-4.4-0.3-6.2 0.9-1.5 1-4.6 1.6-8.2 1.6-3.5 0-7 0.7-8.8 1.6-3.6 2-16.1 2.4-21.7 0.7-2.6-0.7-7.5-0.8-17 0-9.1 0.7-17.6 0.7-27.3 0-7.7-0.6-16.1-0.8-18.6-0.6-2.6 0.3-5.7 0-6.9-0.7-1.7-0.9-2.6-0.8-4.7 0.5-1.8 1.2-2.8 1.4-3.6 0.6-1.4-1.4-5.4-1.4-6.3 0-0.3 0.6-1.6 0.8-2.8 0.4-1.1-0.3-9.1-0.8-17.6-1.1-8.5-0.2-17.7-0.9-20.3-1.4-2.8-0.6-5.5-0.6-6.5-0.1-0.9 0.4-5.7 0.7-10.7 0.4-20.2-0.8-47.1-0.3-49.2 1-0.6 0.4-2.4 0.2-3.9-0.3-7.1-2.7-58.9-3.2-71.4-0.7-13.7 2.8-23.3 3.6-25.1 2.1-2-1.8-2.7-1.7-6.4 0.2-2.2 1.1-5.4 1.5-11.5 1.3-4.7-0.1-10.5 0.3-12.9 1-3.4 0.9-5.1 0.9-7.2 0.1-1.9-0.8-3.3-0.9-4.6-0.1-1.1 0.5-6.6 1.3-12.4 1.6-5.7 0.4-11.5 1.1-12.9 1.6-1.4 0.4-9.7 1.1-18.5 1.5-42.8 1.6-54.2 2.3-57 3.3-1.8 0.6-17.6 1.3-41 1.6-20.9 0.3-39.1 0.6-40.5 0.7-5.2 0.2-24.7-1.3-28.4-2.3-3.2-0.9-18.3-2.1-26.6-2.2-1.4 0-9.9 0.3-19 0.7-9.1 0.5-18.5 0.9-21 1-2.5 0-5 0.4-5.7 0.9-0.6 0.4-5.3 0-10.5-0.9-14.8-2.6-29.3-2.4-53.5 1-8.2 1.1-12.1 1.3-14 0.5-3.6-1.3-16.3-1.9-18.5-0.8-2.5 1.4-78.6 1.9-83.1 0.7-3.3-1-4-0.9-6 1-1.6 1.5-3.6 2.2-6.4 2.2-2.3 0-5.4 0.5-7 1.1-4 1.5-22.7 2.9-46 3.4-13.6 0.3-20.8 0.8-22.2 1.7-1.6 1-2.5 0.9-5.3-0.6s-4.3-1.6-10.3-0.8c-5.3 0.8-7.5 0.7-9-0.3-1.5-0.9-7.3-1.2-21-1.2-13.2 0-23.1-0.5-32.3-1.8-10.5-1.5-14-1.6-16.4-0.7-3.4 1.3-12.1 0-14.7-2.1-0.9-0.7-3.3-1.9-5.5-2.6-5.3-1.8-16.6-9-16.6-10.7 0-0.7-0.8-2.8-1.9-4.6-1-1.8-2.4-6.2-3.1-9.8l-1.2-6.4 2.8-2.3c2.6-2.1 5.9-10.7 4.8-12.5-0.3-0.5 0.6-2.3 1.9-4 1.4-1.8 2.8-4.3 3.2-5.6 0.3-1.2 1.5-2.7 2.6-3.2 1.1-0.6 1.9-2.1 1.9-3.5s0.8-2.9 2-3.5c1.1-0.6 2-2 2-3.1 0-2 12-14.9 13.8-14.9 0.6 0 3.7-2 7.1-4.5 4.6-3.4 6.9-4.4 9.2-4.3 2.6 0.3 3.5-0.2 4.9-2.7s2.3-3 5.3-3c2 0 4.1-0.6 4.8-1.3 0.7-0.6 2.7-1.2 4.5-1.2 1.7 0 3.7-0.7 4.4-1.5 0.7-0.9 2.9-1.5 5.5-1.5 2.4 0 4.8-0.6 5.4-1.4 0.7-0.8 3.3-1.7 5.9-1.9 2.6-0.3 11.4-1.3 19.6-2.2s16-2.2 17.5-2.9c1.4-0.8 4.8-1.7 7.4-2.1 2.7-0.4 5.1-1.3 5.3-2 0.3-0.7 2.8-1.7 5.7-2.3 16.3-3.4 24-3.9 31-1.9 2.3 0.7 7.6 1.1 11.7 1 13.4-0.6 21.2-0.4 22.4 0.5 3.4 2.7 10.7 3.4 23.8 2.4 14.4-1.1 21.5-0.9 29.3 0.9 6.3 1.4 10.3 1.4 18.5-0.1 3.6-0.6 14.2-1.2 23.5-1.4 9.4-0.1 17.7-0.5 18.5-0.9 0.8-0.3 6.9-0.8 13.5-1.1s20.1-0.9 30-1.4c9.9-0.4 18.7-1.2 19.5-1.7 0.8-0.6 2.4-1.1 3.5-1.1 1.1-0.1 4.7-0.7 8-1.4 9.3-1.8 19.2-2.7 28.5-2.4 31.9 0.8 43 1.5 49.6 2.9 6 1.4 8.1 1.5 12.1 0.5 2.6-0.7 9.7-1.7 15.6-2.3 9.7-0.9 11.2-0.8 14.5 0.8 3.1 1.5 6.2 1.7 20.2 1.6 9.1-0.1 16.9-0.6 17.4-1.1 1.5-1.5 44.6-1.3 50 0.2 3.9 1 5.1 0.9 11.7-1.5 6.2-2.3 9-2.7 17.7-2.7 5.7 0 11.3 0.5 12.4 1.1 3.5 1.9 13.6 2 20.7 0.3 5-1.2 11.3-1.6 25.6-1.5 16.9 0.1 19.3 0.4 22.3 2.1 2.8 1.7 4.4 1.9 10.5 1.4 4-0.3 8.6-1 10.3-1.5 1.6-0.5 7.9-1 14-1 6-0.1 13.2-0.5 15.9-0.9 3.1-0.5 5.8-0.4 7 0.3 1.1 0.6 5.4 1.2 9.5 1.3 4.1 0.2 13.2 0.8 20.1 1.4 9.9 0.9 13.5 0.9 17-0.1 2.4-0.7 6.4-1.4 8.9-1.5 2.5-0.2 13.2-0.9 23.8-1.7 19.9-1.4 23.2-1.3 26.7 0.9 3.3 2 10.4 2.8 13.1 1.4 1.8-1 3.6-1 8.1-0.1 3.9 0.7 7.5 0.8 10.8 0.2 3.5-0.6 6.2-0.5 9.4 0.4 10.1 3 15.9 3.7 23.7 3.1 4.3-0.3 8.4-0.6 8.9-0.6 0.6 0 3.7 0.4 7 1 6.8 1.3 25.4 0.7 36.5-1 12.6-2 46.6-1.4 50.9 0.9 2.8 1.5 10.1 1.3 21.1-0.5 10.2-1.7 22.9-1.9 40.5-0.7 6.1 0.4 17.9 0.5 26.4 0.1 12.4-0.5 16.3-0.4 19.9 0.8 2.7 1 5.5 1.3 7.5 0.8 1.8-0.4 9.3-0.8 16.7-1 21-0.3 38.2-1.4 41.7-2.5 1.8-0.6 4.2-0.8 5.2-0.4 1.1 0.3 3.8 0.1 6.1-0.5 6.3-1.7 37.8-2 41.7-0.4 3.3 1.3 41 2.3 42.9 1.1 0.5-0.3 6.5-0.1 13.3 0.4 10.4 0.7 12.8 0.6 15.3-0.7 2.1-1.1 4.4-1.4 7.7-1 7.7 1 44.3 0.8 49.1-0.3 2.5-0.5 6.3-1.5 8.5-2.1 8.9-2.5 27.9-5.1 31-4.2 1.1 0.3 4.7 0.6 8 0.7zm-201.7 137.7c1.2-0.1 3.3-0.2 4.7-0.2h4.5c1.1-0.1 3.2-0.1 4.8-0.1 4.7 0 11.9 0.8 13 1.5 1.2 0.7 28.6 1.8 41.7 1.6 4.4 0 10.9-0.5 14.4-1.1 9.3-1.4 19.5-1.6 22.2-0.2 4.7 2.2 6.5 2.6 13.1 2.8 3.7 0.1 7.3 0.7 8.1 1.3 1.4 1.2 2.2 1.1 6.5-0.4 0.9-0.4 4.5-0.7 7.9-0.8 5.5-0.1 6.3 0.1 6.5 1.9 0.2 1.3 1.3 2.2 3.3 2.5l2.9 0.5 0.3 9c0.1 5 0.4 13 0.7 18 0.2 5 0 9.5-0.6 10.2-0.6 0.8-0.6 7.7 0.1 19.7 0.6 12 0.7 22.8 0.1 30.3-1.8 22.5-1.6 44.2 0.4 49.3 0.3 0.8 0.8 6.9 1.1 13.5 0.2 6.6 1.3 20.3 2.4 30.5s2 22.3 2 27c0 11.6 0.1 12.2 1.8 23 1.6 10.2 2.6 49.8 1.3 51.5-1.2 1.6-4.2 31-3.5 34.2 0.4 1.5 1.3 4.8 2.1 7.3 2.2 7.1 3.9 37 3 55-0.2 5.2 0 17.3 0.6 26.9 1.7 31.7 2 38.4 2.5 61.1 0.7 34.2 1.1 45.8 1.8 54 0.8 7.7 0.9 14.5 0.4 21.5-0.1 2.2-0.6 10.7-1.1 19-0.4 8.2-1.2 19.9-1.7 26-0.5 6.7-0.5 13.4 0.1 17 1.3 7.8 2 23 1.9 41.5 0 4.7 0.4 12.3 1 16.9 0.7 5.8 0.7 8.7-0.1 9.5-1.3 1.3-1.3 31.9 0 36.6 1.2 4.1 2.3 37.6 1.8 53-0.6 19.3 0.4 59.9 1.8 70.5 0.2 2.3-0.2 5.8-0.9 8-1.2 3.4-1.2 5.6-0.1 14 2.3 17.8 4.1 96.4 2.4 106.9-0.5 3.4-0.6 6.5 0 7.5 0.4 0.9 1.2 11.1 1.5 22.6 0.6 17.7 0.5 22.6-1 31-0.9 5.5-1.8 14.9-1.9 21-0.2 17.1 1.1 60.2 1.9 61.5 0.4 0.6 0.9 11.4 1.2 23.8 0.6 26.5 0.6 21.7 0 41.7-0.3 13-0.1 16.3 1.1 17.7 0.9 1.1 1.2 2.3 0.6 3.5-0.5 1-0.9 3.4-1 5.3s-0.7 8-1.2 13.5c-0.6 5.5-1.5 15.4-2.2 22-0.6 6.6-1.5 13.5-2 15.4-0.7 2.5-0.5 4.1 0.7 6.4 1.2 2.4 1.3 3.5 0.4 4.9-0.8 1.3-0.9 3-0.2 5.6 0.9 3.8 0.8 10.7-0.3 20.2-0.3 3-1 14.8-1.5 26.2s-1.4 21.5-1.9 22.5c-0.7 1.2-0.6 2.6 0.5 4.6 1.1 2.2 1.2 4.2 0.6 9-1.2 8.6-0.7 47 0.7 60.2 1.6 14.1 1.6 15.2 0.2 32.5-1 12.2-3.5 66-3.4 74 0 4.5 2.1 32.4 2.8 38 1.2 9.2 1.9 97.9 0.8 105.7-0.4 3.7-0.9 4.3-2.9 4.3-1.3 0-2.6 0.4-2.9 0.9s-3.1 2.1-6.2 3.6c-4.4 2.1-6.9 2.7-11 2.6-3-0.1-6.5-0.2-7.9-0.1-5.1 0.3-16.3 0.2-25.4-0.2-9.3-0.3-9.3-0.3-10.7 2.5-1.6 3.1-2.6 3.3-4.4 1.2-1.1-1.4-1.5-1.4-2.9-0.1-1.9 1.7-13.1 1.5-21.6-0.4-6.8-1.5-18-1.5-23.5-0.1-2.5 0.7-10.5 1.5-17.9 1.7-8.9 0.4-14.1 1-15.5 1.9s-7 1.6-16.1 2c-7.7 0.4-15.4 1.1-17 1.6-1.7 0.5-7.1 1.1-12 1.3-5 0.2-10.3 0.9-11.8 1.5-1.6 0.6-4.5 0.8-6.5 0.5s-7.1-0.1-11.2 0.5c-4.1 0.5-7.9 0.6-8.5 0.2-0.5-0.5-6.6-0.6-13.5-0.4s-17.4 0.6-23.5 0.8c-6 0.2-13.5 0.6-16.5 0.9s-13 0.7-22.2 0.9-17.1 0.6-17.4 1c-1.2 1.1-6.7 0.8-14.7-0.8-6.1-1.3-9-1.4-16.8-0.5-5.2 0.6-17.5 1.1-27.4 1-11.1-0.1-19.7 0.3-22.4 1-3.6 0.9-4.6 0.9-6-0.4-2.1-1.9-4.3-2-5.8-0.5-0.6 0.6-5.6 1.5-11.1 1.9s-10.5 1.1-11.2 1.5c-0.6 0.4-6.9 0.9-13.8 1-20.4 0.6-37.3 2.3-39.2 4-2.2 2-4.7 1.9-5.9-0.2-0.7-1.3-1.2-1.4-2.3-0.6-0.8 0.7-9.2 1.1-24.8 1-27 0-51.2 0.9-55.5 2.2-1.7 0.4-6.6 0.6-11 0.4-4.4-0.3-14.7 0.1-23 0.7-8.2 0.7-17.2 1.4-20 1.6-5 0.4-12.8 0.7-55 2.5-12.1 0.5-22.8 1.4-23.7 1.9-1 0.6-6.8 1-12.8 1-6.1 0-13.1 0.5-15.6 1.1-3 0.8-4.8 0.8-5.7 0.1-1.4-1.2-16.7-1.9-18.4-0.9-0.6 0.4-7.4 0.9-15 1.1-7.6 0.3-17.6 0.9-22.3 1.5s-10.7 0.9-13.5 0.9c-2.7-0.1-6.4 0.4-8.1 1.2-2.6 1.1-3.5 1.1-6.1-0.2-2.5-1.2-4-1.3-8.2-0.4-3.8 0.7-5.7 0.7-7-0.1-2.2-1.4-18.8-1.5-21.3-0.2-1 0.5-8.9 1.2-17.5 1.4-8.7 0.3-18 1-20.8 1.5-2.7 0.5-13.5 1-24 0.9-31.4-0.1-59.7 0.8-64 1.9-2.2 0.6-7.1 1.6-11 2.2-3.8 0.6-7.9 1.5-9 2s-9.6 1.4-19 2c-21.1 1.3-19.4 1.2-29.5 0.7-8.1-0.4-35.2 1.7-37.2 2.9-0.5 0.3-6.7 1-13.6 1.6-7 0.5-15.8 1.3-19.7 1.9-3.8 0.5-8 0.9-9.2 0.9h-4c-7 0-20 1.1-22.7 2-2.4 0.8-4.1 0.8-6.2 0-2-0.8-6-0.8-13.4-0.2-5.8 0.6-12.3 1-14.5 1.1-6.2 0.1-10.3 0.5-10.9 1.2-0.7 0.6-87.7 0.2-110.6-0.6-22.2-0.8-28-1.2-29.3-2.3-0.7-0.5-5.7-1.2-11.2-1.6s-10.4-1.1-10.9-1.6c-0.6-0.6-2-1-3.3-1-3.3 0-12.2-3.8-15.6-6.6-2.4-2.1-3.7-2.4-6.4-1.9-3.8 0.7-7-1.4-15.9-10-4-3.9-5.3-5.9-5.7-9-1.4-9.9-3.9-21.3-5.3-24.3-1.1-2.4-1.3-5-0.8-10 0.5-5.6 0.3-7-1-8.1-0.9-0.7-1.6-1.9-1.6-2.7 0-0.7-0.8-1.8-1.9-2.3-1.1-0.7-2-2.6-2.4-5.1-0.3-2.3-1.3-5-2.2-6-1.4-1.6-1.6-3.1-1-8.9 1-9.8-1-20.7-4.2-22.8-1.9-1.3-2.3-2.4-2.3-6.4 0-2.6-0.4-5-0.9-5.3-2.8-1.8-1.6-18.2 1.6-21.8 1.2-1.3 1.3-2.1 0.5-3.1s-0.7-3.7 0.4-10.3c0.9-4.9 1.7-13 2-17.9 0.2-5 0.4-11 0.5-13.5s0.1-7.2-0.1-10.5c-0.1-3.3 0.5-12.8 1.3-21 3-29.2 3-29.4 1.8-30.9-0.9-1.1-0.8-2.4 0.3-5.7 1-2.8 1.2-4.8 0.5-6-1.2-2.3-1.2-7.2 0.1-8.5 1.4-1.4 3.5-18.6 3.5-29.4 0.1-5.2 0.6-10.6 1.2-12 0.7-1.7 0.9-9.1 0.5-22.5-0.9-27.8-0.4-37.2 2.7-55 0.6-3.3 0.8-7.8 0.5-10.1-0.3-2.2-0.1-5.8 0.5-7.9 0.9-3.2 0.8-4.2-0.6-5.7-1.4-1.6-1.6-4.9-1.6-25 0-12.8-0.3-23.9-0.7-24.8-1.8-3.4-2.3-5.9-2.6-15-0.3-5.2-0.7-11.3-0.9-13.5-0.7-5.6-0.7-5.7 0-18.5 1.1-18.1 1.2-53.6 0.2-63.5-2-21.5-2.4-37.5-1.7-70.5 0.6-31 0.3-41-1.5-43-1.4-1.5-1.5-2.2-0.4-4.2 0.9-1.5 1.3-7.3 1.4-17.8 0.1-8.5 0.7-20.5 1.4-26.5 0.9-7.5 1.1-17.8 0.7-32.5-0.9-34.8-1.3-44.5-1.5-45-1-1.7-1.4-10.9-1.2-27.6 0.1-11.6-0.3-20.2-0.9-21.9-0.6-1.6-1.3-8.5-1.6-15.4-0.7-18.8-1.3-29.3-2.2-42.6-0.5-6.6-0.6-12.5-0.1-13 0.4-0.6 1-11.2 1.2-23.5 0.3-12.4 0.8-25.9 1.1-30s0.8-10.2 1-13.5 0.8-10.1 1.5-15c0.7-5.2 0.9-14.2 0.6-21.5-1-22-1.1-33.1-0.5-33.5 0.4-0.2 0.7-3.2 0.8-6.7s0.7-9.6 1.2-13.5c1.7-11.3 2.5-48.3 1.1-51.2-2.4-4.7-3.1-9.5-2.6-17.9 0.4-6.4 0.2-9.8-0.7-11.2-1-1.5-1-2.2 0-3.2 0.6-0.6 1.2-2.8 1.2-4.8s0.4-4 0.9-4.5c0.5-0.6 0.5-4.1-0.1-8.4-0.7-5.3-0.7-8.4 0.1-11 0.8-2.2 1-6.6 0.6-11.6-0.3-4.4-0.6-8.9-0.5-10 0.8-22.5 0.5-47.6-0.6-50.9-0.8-2.4-0.9-4.6-0.4-5.6 1-1.8 0.6-37.1-0.5-46.7-0.5-4.3-0.4-6.7 0.4-7.7 0.6-0.7 0.9-2 0.6-2.7-0.2-0.8-0.7-4.6-0.9-8.4-1-13.7-2.5-31.3-3.2-35.3-0.4-2.7-0.2-4.7 0.6-5.7 0.7-0.8 0.8-1.9 0.3-2.7-0.4-0.7-0.9-4.7-1-8.8-0.5-19.5-0.4-26.6 0.2-28.3 0.4-0.9 0.3-2.3-0.3-3-1.1-1.3-2.7-27.1-2.4-38.2 0.1-3.9-0.3-8.2-0.9-9.8-0.8-1.8-0.8-3.1-0.2-4 0.6-0.7 0.7-4.7 0.1-10.7-0.6-6.3-0.5-10.3 0.2-11.8 0.5-1.3 1-6.1 1-10.7s0.3-8.6 0.7-8.8c0.6-0.4 0.7-41.4 0.1-50.2 0-1.1 0.9-7.9 2.2-15 1.2-7.2 2.2-13.7 2.1-14.5-0.8-7.1-0.7-43.9 0.2-45.5 0.6-1.1 1.1-4.7 1.2-8s0.4-6.7 0.8-7.5c0.3-0.8 1.1-8.3 1.7-16.5 0.6-8.3 1.6-16.4 2.1-18.2 1.3-4.1 1.6-12.3 0.5-14.5-0.5-1.2-0.2-2 1.4-2.8 2.2-1.2 8.1 0.2 15.7 3.6 1.7 0.8 3.8 1.4 4.6 1.4 0.7 0 3.2 1.3 5.4 2.9 3.5 2.6 4.7 2.8 10.4 2.6 3.8-0.2 7.7 0.3 9.8 1.1 1.8 0.8 4.4 1.1 5.7 0.8s7.2 0 13.1 0.6c5.9 0.7 14.6 1.4 19.3 1.6 11.4 0.5 38.2 0.4 39-0.1 0.4-0.3 6.3 0 13.1 0.6 19 1.6 27 1.7 31.4 0.6 4.7-1.3 12.7-1.8 24-1.7 4.4 0 12.3-0.4 17.5-1.1 5.2-0.6 12.6-1.3 16.5-1.5 3.8-0.1 7.8-0.7 9-1.3 4.2-2.1 39.6-3.2 49.5-1.6 3.6 0.6 4.9 0.4 5.9-0.9 1.1-1.3 3.5-1.6 12.3-1.6 6 0 11.8 0.5 13 1.1 1.4 0.8 2.8 0.7 4.9-0.1 2.2-0.9 3.6-1 5.6-0.1 5.1 2 15.2 2.4 17.8 0.7 3.9-2.6 23.2-4.4 43.1-4.2 15.5 0.2 18.6 0.5 20.9 2s3.1 1.6 5.8 0.5c1.8-0.8 7.5-1.3 13.8-1.3 5.9-0.1 11-0.3 11.2-0.6 0.5-0.5 6.3-0.4 36.7 0.4 6.9 0.1 12.5 0.8 13.9 1.6 2 1 3.4 1 7.7 0 3.5-0.9 7.7-1 12.6-0.5 4 0.4 10.3 0.6 13.9 0.5 6.1-0.1 6.8 0.1 8.8 2.6l2.1 2.7 2.3-2.1c1.8-1.7 3.5-2.2 7.3-2.2 2.7 0.1 8.3-0.1 12.4-0.4 4.1-0.2 8.7 0 10.3 0.6 2 0.8 3.1 0.7 4.2-0.2 1.5-1.3 7.3-1.5 21.2-1 6.9 0.3 8.6 0 10.3-1.5 1.4-1.2 2.9-1.6 5.2-1.3 1.8 0.3 6 0.1 9.3-0.3 3.3-0.5 12.1-1.1 19.5-1.4s20.3-1.3 28.5-2.1c8.3-0.8 20-1.3 26.2-1.1 7.3 0.2 11.6 0 12.3-0.7s7.3-1.1 18.3-1.2c11.1 0 18.8-0.5 21.7-1.4 4.6-1.3 7.9-1.5 35.2-2.3 8.6-0.3 16.2-0.9 16.9-1.3 1.9-1.1 37.3-0.6 40.5 0.6 1.6 0.6 3.1 0.7 3.8 0.1 0.6-0.5 5.6-0.7 11.1-0.5 33.3 1.1 49 1.2 50.7 0.3 1.3-0.7 4.2-0.7 9.1 0.1 6.2 0.9 14.7 1.2 31.7 1 1.9-0.1 6.4-0.1 9.9-0.1 3.6 0 7.1-0.5 7.8-1.1 1-0.8 2.1-0.8 4 0.1 1.4 0.6 7.2 1.2 12.9 1.2 5.7 0.1 10.7 0.5 11 1.1 0.4 0.5 3.1 0.7 6.9 0.3 4-0.5 7-0.3 8.4 0.4 1.2 0.7 2.7 0.9 3.4 0.4 0.6-0.4 5.7-0.8 11.2-0.9 10.1-0.3 33.3-1.2 43.5-1.7 3-0.2 6.2-0.6 7-0.9 3.9-1.6 7.6-1.7 16.7-0.7 12.9 1.5 26.5 1.8 28 0.6 0.8-0.5 3.8-0.5 8 0.2 9 1.4 14 1.5 38.3 0.2 11.3-0.6 24.1-1.1 28.5-1 4.4 0 14-0.2 21.3-0.6 9.5-0.5 13.7-0.3 14.7 0.5 1 0.9 1.9 0.9 3.6 0 1.4-0.8 4.2-1 7.3-0.6 2.9 0.3 5.7 0.1 6.6-0.5 1-0.6 4.8-0.8 10.5-0.3 5 0.4 10 0.6 11.3 0.6zm249.2 1403.8c0 0.5-0.4 1-0.9 1-0.6 0-1.3-0.5-1.6-1-0.3-0.6 0.1-1 0.9-1 0.9 0 1.6 0.4 1.6 1z" fill="#343434" stroke="#343434" stroke-width="24.081"/>
  </g>
  <path id="path22" d="m80.843 139.25-1.5261 1.4015-0.12458 3.6439c-0.24915 6.8206-0.46716 9.5614-0.74746 9.9351-0.21801 0.24915-0.18687 0.59174 0.0623 1.0589 0.37373 0.71632 0.0934 3.8308-0.71633 7.6304-0.34259 1.6506-0.2803 2.367 0.49831 6.6649 0.34259 1.7441 0.43603 3.3636 0.31145 4.734-0.15572 1.5261-0.0934 2.2424 0.21801 2.6161 0.24916 0.31144 0.37373 1.1835 0.31144 2.5538-0.18686 3.9242-0.0934 13.423 0.12458 13.766 0.31145 0.49831 0.68518 8.5959 0.87205 19.247 0.0623 2.9276 0.21801 5.4503 0.31144 5.5749 0.34259 0.31145 0.24916 2.2113-0.0934 2.4293-0.46717 0.31145-0.37373 1.4949 0.21801 2.3358 0.43602 0.62289 0.52946 1.4326 0.49831 4.4537 0 2.367-0.15572 3.9553-0.40488 4.4225-0.31144 0.5606-0.31144 0.87205-0.0623 1.1835 0.24916 0.2803 0.34259 2.367 0.34259 6.1666 0 3.1456 0.0934 5.9797 0.18687 6.26 0.12458 0.2803 0.0934 0.71632-0.0311 0.93433-0.15573 0.21801-0.31145 2.4293-0.37374 4.9208-0.0623 2.4916-0.12458 5.0143-0.15572 5.606 0 0.59175 0 2.3358 0.0311 3.8931 0.0312 1.5261 0.0623 3.1456 0.0623 3.5816 0 3.4882 0.31145 7.4747 0.62289 8.1599 0.2803 0.59174 0.31145 1.09 0.0934 1.7129-0.37374 1.0278-0.0623 7.4124 0.40487 8.3467 0.15573 0.34259 0.24916 2.6161 0.21802 5.1388-0.15573 6.2912-0.0623 8.5024 0.46716 12.769 0.15573 1.2769 0.21801 2.7719 0.15573 3.3013-0.0934 0.5606 0 1.0901 0.18686 1.1835 0.18687 0.12458 0.34259 0.62289 0.34259 1.0901s0.15572 0.99662 0.34259 1.1835c0.2803 0.2803 0.2803 0.59175 0 1.2458-0.43602 1.0901-0.71632 4.7651-0.37373 5.2323 0.12457 0.15572 0.18686 0.96548 0.0934 1.7752-0.12458 1.4015-0.21801 1.5572-1.9621 2.803l-1.8687 1.3392 0.18687 1.7129c0.0934 0.93434 0.21801 2.0555 0.24915 2.4916 0.0623 0.74747 0.18687 0.77861 2.7096 0.99662 2.0244 0.18687 2.9276 0.12458 3.8308-0.21801 0.62289-0.24915 1.5884-0.46716 2.0867-0.46716s1.2458-0.12458 1.713-0.31145c0.43602-0.15572 2.2735-0.37373 4.0799-0.43602 1.7752-0.0934 3.4259-0.24916 3.6439-0.40488 0.18686-0.12458 2.0555-0.24916 4.1111-0.31144 4.734-0.12458 4.2045-0.0934 9.4679-0.62289 4.0799-0.43603 4.6094-0.43603 5.5437 0.0311 0.71632 0.34259 1.4326 0.43602 2.3047 0.31145 0.90319-0.15573 1.3704-0.0623 1.7752 0.31144 0.71632 0.62289 2.9276 0.71632 8.3156 0.37373 2.367-0.15572 4.2356-0.43602 4.516-0.65403 0.80976-0.65403 1.8998-0.74747 3.2702-0.31145 0.96548 0.34259 1.5572 0.37374 2.367 0.12458 1.8064-0.52945 19.87-0.34259 23.203 0.24916 0.87204 0.15572 3.6439 0.18687 6.2289 0.0623 6.4158-0.31145 8.9073-0.34259 11.835-0.0934 1.7441 0.12458 2.7407 0.0934 3.239-0.18686 1.0589-0.5606 23.171-0.8409 25.694-0.31145 1.931 0.40488 5.6994 0.43603 10.589 0.12458 1.5572-0.0934 3.4259-0.15572 4.2045-0.15572 4.516 0.0934 6.7584 0.2803 7.3501 0.59174 0.43603 0.21801 1.7752 0.24916 4.3602 0.0623 2.0244-0.12458 3.9242-0.12458 4.1734 0 0.24916 0.15572 0.87205 0.18687 1.3392 0.0934 0.59175-0.12458 1.3704 0.0623 2.2113 0.49831 0.74747 0.34259 1.7752 0.68518 2.3047 0.74746 0.52946 0.0623 1.1524 0.2803 1.4015 0.49832 0.40488 0.31144 10.029 0.49831 16.88 0.2803 0.68517-0.0312 4.5471 0 8.5647 0.0311 4.0176 0.0311 8.5959-0.0623 10.122-0.18687 3.1144-0.31144 5.2634-0.31144 6.26 0 0.37373 0.12458 1.1212 0.0312 1.7441-0.21801 1.1212-0.49831 3.6439-0.31144 5.9174 0.40488 1.0589 0.31145 5.0454 0.99662 5.8552 0.96548 1.09 0 3.3013-0.40488 3.5816-0.62289 0.37373-0.31145 11.928-0.15572 13.641 0.15572 0.77861 0.15572 1.3081 0.0934 1.6195-0.15572 0.34259-0.2803 1.0589-0.34259 2.2736-0.21801 0.96548 0.0934 2.4916 0.0623 3.3325-0.0934 1.0278-0.15572 2.2424-0.12457 3.5816 0.15573 2.3047 0.46716 5.2634 0.49831 5.824 0.0934 0.21801-0.18687 2.9276-0.2803 6.2289-0.24916 3.2079 0.0623 6.6961 0.0623 7.7238 0.0623 2.2113-0.0311 3.2702-0.0311 4.4537 0 0.46717 0.0311 3.8619-0.0623 7.537-0.21801 8.2533-0.31144 9.7794-0.31144 11.368 0.0312 0.68518 0.15572 3.7373 0.21801 6.8518 0.0934 7.1321-0.24916 8.7516-0.0311 9.8105 1.3081 0.43603 0.52945 1.1524 1.4326 1.6195 1.9621l0.8409 0.96548 0.31144-0.87205c0.18687-0.46716 0.52946-0.8409 0.77861-0.8409 0.24916 0 0.87205-0.37373 1.4015-0.80975 0.71632-0.59175 0.96547-1.0589 0.96547-1.8064 0-0.74747 0.21802-1.1835 0.93434-1.6818 0.49831-0.40488 0.93433-0.87205 0.93433-1.0589 0-0.21801 0.2803-0.68517 0.65404-1.0589 0.49831-0.52945 0.5606-0.8409 0.34259-1.2769-0.52946-0.96548-0.99663-4.8274-0.77862-6.6649 0.0934-1.1212 0.0623-1.8375-0.18686-1.9621-0.21801-0.15572-0.2803-0.96548-0.15573-2.4916 0.15573-1.5884 0.0934-2.4916-0.21801-3.021-0.21801-0.40488-0.43602-1.8998-0.46716-3.3948-0.0312-1.4638-0.21801-4.7651-0.43603-7.319-0.40487-4.952-0.71632-11.741-0.77861-16.725 0-1.6818-0.18686-3.1767-0.37373-3.4259-0.24916-0.2803-0.34259-2.6784-0.2803-7.4124 0.0311-5.2634-0.0623-7.1632-0.34259-7.6615-0.21801-0.34259-0.49831-1.6195-0.5606-2.803-0.0934-1.1835-0.2803-2.9899-0.43602-4.0176-0.15573-1.0278-0.2803-4.3914-0.2803-7.4747-0.0312-3.0833-0.15573-8.5647-0.34259-12.146-0.18687-3.6128-0.31145-7.5992-0.31145-8.8762 0.0312-1.6818-0.15572-2.9276-0.65403-4.3602-0.59175-1.7752-0.65404-2.2736-0.37374-3.8931 0.40488-2.4293 0.0934-12.427-0.40487-13.236-0.0934-0.15572-0.18687-1.3704-0.21802-2.7096 0-1.3392-0.21801-2.8964-0.46716-3.4882-0.37374-0.8409-0.37374-1.2146-0.0623-1.931 0.2803-0.68517 0.2803-1.6818 0-4.2356-0.46717-4.4848-0.43602-6.9764 0.0934-7.7238 0.8409-1.2146 0.90319-2.0244 0.24916-2.7407-0.71632-0.80975-0.96548-1.931-1.1524-5.6683-0.15572-2.8653-0.68518-6.2912-1.09-6.8518-0.40488-0.5606-0.71633-7.319-0.59175-13.236 0.12458-7.4435 0.0312-10.278-0.34259-10.776-0.18686-0.18687-0.37373-0.87205-0.43602-1.4326-0.0623-0.59174-0.18687-1.2458-0.2803-1.4015-0.2803-0.43602-4.9208-0.12458-5.5126 0.37374-0.24916 0.21801-1.4326 0.46716-2.6473 0.59174-1.1835 0.12458-2.3358 0.37373-2.5538 0.52946-0.18687 0.18686-0.65403 0.24915-0.99662 0.12457-0.31145-0.0934-0.68518-0.0311-0.80976 0.18687-0.15572 0.21801-0.96548 0.2803-2.6473 0.12458-1.5572-0.12458-2.4916-0.0934-2.6161 0.0934-0.12458 0.21801-1.8687 0.2803-4.8897 0.21801-2.803-0.0934-4.9208-0.0311-5.2946 0.15573-0.37373 0.21801-1.0278 0.21801-1.8998 0.0311-0.8409-0.18687-1.4638-0.18687-1.6195 0-0.49831 0.46717-2.9899 0.34259-3.1767-0.18687-0.21801-0.5606-1.09-0.62289-1.6506-0.0934-0.2803 0.31145-2.3047 0.40488-7.5992 0.46717-3.9865 0.0311-8.0041 0.0623-8.9385 0.0934-4.1111 0.0623-5.0454 0-5.4191-0.2803-0.24915-0.21801-1.1523-0.12458-2.8964 0.2803-2.1178 0.52946-3.3013 0.59175-7.4435 0.49831-2.7407-0.0623-5.7306-0.31144-6.6649-0.49831-2.0244-0.46717-2.0867-0.46717-4.516-0.0623-1.0278 0.15572-2.7096 0.24916-3.7373 0.18687-1.0278-0.0311-3.0833 0.12458-4.5782 0.34259-2.3047 0.37373-2.8653 0.37373-3.5505 0.0311-0.46717-0.2803-1.2769-0.37373-2.0244-0.2803-0.68518 0.0934-1.7752 0.0312-2.3981-0.15572-3.6128-1.0589-4.0799-1.1212-4.734-0.52946-0.5606 0.52946-0.90319 0.52946-4.2356 0.18687-2.7407-0.2803-3.7373-0.2803-4.0488 0-0.31145 0.24916-0.5606 0.24916-0.8409 0.0312-0.5606-0.46717-10.651-0.2803-13.299 0.24915-1.6195 0.31145-3.0833 0.31145-7.1632 0-2.803-0.18687-5.2634-0.46717-5.4503-0.59174-0.15573-0.15573-0.8409-0.34259-1.4949-0.46717-0.90319-0.15572-1.3392-0.0934-1.931 0.37373-0.62288 0.49831-1.1212 0.5606-3.3324 0.43603-1.4326-0.0623-3.1767-0.31145-3.9242-0.5606-1.5572-0.49832-5.0143-0.56061-7.6927-0.12458-0.99662 0.15572-3.8931 0.37373-6.3846 0.46716-2.4916 0.0934-5.3568 0.31145-6.3846 0.46717-2.5538 0.43602-5.6372 0.40488-6.3846-0.0623-0.46717-0.31144-0.68518-0.2803-1.1835 0.15572-0.52946 0.46717-1.2458 0.52946-5.388 0.49832-2.6473 0-5.2946 0.0623-5.9174 0.18686-0.68518 0.12458-1.4015 0.0623-1.8064-0.12457-0.34259-0.18687-1.8687-0.37374-3.3948-0.40488-2.149-0.0623-2.9587 0.0311-3.5816 0.46716-0.71633 0.46717-0.93434 0.46717-2.0867 0.0623-1.0278-0.34259-3.5193-0.49831-10.776-0.59174-5.2011-0.0934-9.6236-0.24916-9.7794-0.34259-0.18686-0.12458-1.5884-0.0312-3.1456 0.18687-2.2112 0.31144-2.9276 0.31144-3.4259 0.0311-0.46717-0.2803-1.2458-0.31144-3.1767-0.0934-3.675 0.43602-16.693 0.46716-17.192 0.0311-0.2803-0.24915-3.1456-0.2803-9.7171-0.12458-14.42 0.31145-30.833 0.24916-32.951-0.15572-1.0278-0.18687-4.0488-0.43602-6.6961-0.52945-5.8552-0.21802-7.5992-0.68518-8.4402-2.3047-0.80976-1.4638-1.2146-1.8064-2.4604-1.9932-0.96548-0.15572-1.2458-0.0312-2.6161 1.2458zm301.63 9.063c0.34259 0.37373 0.46717 2.3047 0.52946 8.627 0.0311 4.4848 0.21801 8.409 0.37373 8.7516 0.12458 0.34259 0.34259 1.7441 0.43602 3.1144 0.12458 1.3704 0.34259 3.2702 0.52946 4.2045 0.15572 0.93434 0.31145 1.9932 0.2803 2.3358-0.0311 2.585 0.0934 4.4225 0.37373 4.734 0.15573 0.21801 0.2803 1.5261 0.2803 2.9587-0.0623 5.2011 0.18687 16.039 0.37374 16.351 0.12458 0.15572 0.2803 2.6784 0.40488 5.5749 0.0934 2.8964 0.2803 5.388 0.43602 5.5126 0.31144 0.34259-0.40488 5.4503-0.40488 5.4503 1.8449 19.547 2.3608 21.556 1.931 36.564 0.71632 0.15573 0.99662 1.713 1.2769 6.9452 0.15572 2.5538 0.34259 5.606 0.43602 6.7584 0.0934 1.1835 0.0312 2.1801-0.15572 2.2736-0.43602 0.2803-0.31144 1.8064 0.21801 2.4916 0.37374 0.49832 0.46717 1.4638 0.40488 4.8274-0.0311 2.3047-0.15572 5.2323-0.31144 6.5092-0.21801 1.7441-0.15573 2.7407 0.18686 4.0799 0.5606 2.149 0.59175 3.4882 0.0934 3.9865-0.24916 0.24916-0.24916 0.46717 0 0.74747 0.15572 0.21801 0.31144 0.74746 0.31144 1.1835-0.0623 1.6195 0.46717 6.1043 0.74747 6.4158 0.15572 0.21801 0.12458 0.68518-0.0934 1.1835-0.40488 0.8409-0.0623 5.7306 0.68517 10.465 0.18687 1.1212 0.21801 2.7096 0.12458 3.5193-0.0934 0.8409-0.0623 1.6818 0.0934 1.8687 0.59175 0.71632 0.59175 2.7096 0.0312 3.2079-0.49831 0.43602-0.77861 0.43602-2.9276 0-1.3081-0.2803-2.5538-0.40488-2.7407-0.2803-0.49832 0.31145-3.3325 0.31145-4.2668 0-0.43602-0.15572-2.8653-0.34259-5.4503-0.43602-5.4814-0.15572-7.1321-0.24916-10.869-0.52946-1.931-0.12457-3.6439-0.0623-5.606 0.2803-1.5572 0.24916-4.3602 0.49832-6.26 0.5606-4.6405 0.0934-12.987-0.37373-13.423-0.74746-0.21801-0.18687-0.65403-0.12458-1.2458 0.15572-1.2458 0.62289-11.648 0.52946-12.396-0.0934-0.43602-0.37374-0.59174-0.34259-1.0589 0.0311-0.93433 0.80976-1.5884 0.87205-4.6717 0.49831-1.6507-0.18687-3.4259-0.34259-3.9554-0.31144-3.7373 0.12457-6.5403 0-6.9141-0.31145-0.34259-0.2803-0.59175-0.2803-1.0278 0-0.31144 0.18687-1.8687 0.34259-3.4882 0.37374-3.5505 0-5.9174 0.15572-7.5681 0.46716-0.93433 0.15573-1.7752 0.0312-3.2702-0.46716-1.2146-0.40488-2.367-0.59175-2.9276-0.49832-0.49831 0.0934-1.09 0.0312-1.3081-0.15572-0.31145-0.24915-0.68518-0.24915-1.4015 0-0.56061 0.18687-2.0555 0.34259-3.3636 0.34259-1.6818 0-2.585 0.15572-3.1144 0.49831-0.59175 0.43603-0.84091 0.43603-1.4638 0.12458-0.52945-0.31144-1.5884-0.34259-4.0799-0.18687-10.932 0.74747-19.714 0.8409-21.583 0.2803-15.645-3.8791-33.045-1.6044-48.741-3.2079-1.8998-0.18686-3.457-0.18686-4.8274 0.0623-2.1801 0.34259-2.7407 0.37374-5.2323 0.0623-1.2458-0.12458-1.7752-0.0623-2.1801 0.2803-0.43603 0.37374-0.99663 0.40488-2.8653 0.24916-1.9932-0.21801-2.4604-0.15572-3.1767 0.34259-0.99662 0.68518-1.3081 0.71632-1.8064 0.0934-0.21801-0.24916-0.68518-0.46717-1.0589-0.46717-0.37374 0-0.80976-0.12457-0.99663-0.2803-0.34258-0.34259-9.9662 0.49831-10.901 0.96548-0.77861 0.34259-10.465 0.0934-11.274-0.31144-0.80975-0.43603-15.354-0.24916-16.133 0.15572-0.46717 0.2803-0.93434 0.2803-1.8687 0-1.6195-0.46717-9.9974-0.37373-10.589 0.12458-0.2803 0.24915-1.4638 0.34259-3.3325 0.2803-1.5572-0.0623-3.4882-0.0934-4.2668-0.0623-0.77862 0.0311-1.6195-0.0312-1.8687-0.12458-0.65404-0.2803-18.157-0.34259-18.531-0.0934-0.15572 0.12457-1.3704 0.2803-2.6473 0.34259-1.2769 0.0934-3.5193 0.46716-4.952 0.8409-2.149 0.59174-2.7719 0.65403-3.239 0.34259-0.34259-0.18687-1.3704-0.43603-2.3047-0.52946-0.90319-0.0934-1.7752-0.34259-1.8998-0.52946-0.21801-0.31144-0.46717-2.5538-0.87205-7.6615-0.0934-1.2769-0.31144-2.4604-0.43602-2.585-0.12458-0.15573-0.18687-1.3704-0.0934-2.6784 0.15572-1.9621 0.0623-2.585-0.37374-3.239-0.43602-0.68518-0.5606-1.8375-0.65403-7.4435-0.34259-19.652-0.65403-25.881-1.3392-27.75-0.15573-0.40487-0.18687-1.2458-0.0623-1.8375 0.15572-0.59174 0.18687-1.5261 0.0934-2.0555-0.0623-0.5606 0-1.1835 0.15572-1.4015 0.18687-0.21801 0.21802-2.3358 0.0312-5.6683-0.18687-3.7062-0.15572-5.606 0.0934-6.3223 0.21801-0.65403 0.2803-1.8998 0.12458-3.3636-0.15572-1.6818-0.0934-2.4604 0.18687-2.803 0.2803-0.37374 0.2803-0.59175 0-1.1835-0.43603-0.80976-0.49831-1.6818-0.15573-3.239 0.12458-0.68518 0.0623-1.1835-0.24915-1.5572-0.37374-0.43602-0.40488-1.0901-0.21801-3.3325 0.12458-1.5572 0.24915-4.0799 0.24915-5.6683 0.0312-1.5884 0.18687-3.239 0.40488-3.675 0.31145-0.65403 0.24916-0.93434-0.24915-1.6507-0.90319-1.1835-1.1212-1.9621-0.74747-2.3981 0.43602-0.52946 0.46717-8.9073 0.0623-10.745-0.18687-0.77862-0.37374-3.7062-0.40488-6.5403-0.0312-2.8342-0.18687-5.4814-0.37373-5.9174-0.15573-0.43603-0.40488-3.8619-0.56061-7.6304-0.15572-3.7685-0.37373-8.2533-0.46716-9.9662-0.12458-1.713-0.18687-3.5816-0.15572-4.1422 0-0.59175-0.15573-1.8375-0.43603-2.803-0.24915-1.0589-0.34259-1.8687-0.15572-2.0867 0.15572-0.21801 0.15572-1.1523 0-2.3358-0.37373-2.4604-0.40488-4.8897-0.0623-5.0766 0.12458-0.0934 0.24916-2.0867 0.31145-4.4225 0.0311-2.6784 0.21801-4.6094 0.49831-5.2634 0.21801-0.52946 0.34259-1.4326 0.24915-1.9932-0.18686-1.4015 0.2803-1.8064 2.367-2.0867 2.2736-0.2803 7.5992-0.18686 9.3122 0.18687 0.71632 0.15572 3.5816 0.34259 6.3846 0.43602 2.7718 0.0934 5.7617 0.31145 6.6026 0.49831 1.8687 0.43603 8.5024 0.21802 9.4679-0.31144 0.52946-0.2803 1.4638-0.2803 4.2045 0.0623 2.4916 0.31144 4.2356 0.37373 6.1355 0.18687 3.7996-0.40488 11.056-0.37374 12.271 0.0311 0.68518 0.21801 2.5227 0.24916 5.3568 0.12458 2.3981-0.12458 7.5681-0.24916 11.492-0.31145 3.9554-0.0934 7.5058-0.15572 7.9418-0.15572s1.6818 0.15572 2.803 0.34259c1.5261 0.24916 2.7407 0.24916 4.8897-0.0311 1.8998-0.21802 3.1456-0.24916 3.7373-0.0623 0.46717 0.18686 1.4015 0.24915 2.0555 0.15572 0.68518-0.0623 1.7441 0.0934 2.5538 0.40488 0.77861 0.2803 1.5261 0.43602 1.713 0.31144 0.18686-0.12458 2.803-0.40488 5.824-0.62289 4.2668-0.34259 5.606-0.34259 5.9486-0.0623 0.59174 0.49832 20.431 0.43603 21.054-0.0623 0.24916-0.18686 2.8342-0.31144 7.0698-0.31144 3.675 0 8.191-0.12458 10.029-0.31144 2.1178-0.18687 3.6439-0.21802 4.1422-0.0311 0.46717 0.18687 1.5261 0.18687 2.7719 0.0311 1.4326-0.21802 3.239-0.15573 6.2912 0.18686 4.8897 0.52946 8.0353 0.68518 14.264 0.68518 2.3981 0 5.17 0.0311 6.1666 0.0311 0.99663 0.0311 2.0244-0.12458 2.2736-0.34259 0.71632-0.59175 11.243-0.65404 12.396-0.0623 0.62289 0.34259 1.09 0.37373 1.7129 0.15572 1.4015-0.52946 10.371-0.0312 11.773 0.62289 0.49832 0.24915 1.0589 0.21801 2.1801-0.15572 1.9932-0.62289 6.4158-0.96548 7.1944-0.5606 1.3392 0.71632 19.06 0.90319 20.649 0.21801 0.2803-0.12458 1.1212-0.0623 1.8998 0.0934 1.0589 0.24916 1.9621 0.21801 3.5505-0.0934 1.5884-0.31145 3.8308-0.40488 8.3779-0.31145 8.5336 0.21801 18.095 0.12458 19.777-0.18686 6.6649-1.2146 7.4124-1.2769 9.8416-0.96548 1.3392 0.15572 2.585 0.21801 2.7719 0.0934 0.34259-0.21801 4.2356-0.5606 7.3501-0.62289 1.5884-0.0623 2.1801 0.0623 2.4916 0.46717z" fill="#343434" stroke-width="7.5"/>
 </g>
</svg>
