<?xml version="1.0" encoding="UTF-8"?>
<svg id="svg876" width="1562.8pt" height="1563.5pt" version="1.0" viewBox="0 0 1562.8 1563.5" xmlns="http://www.w3.org/2000/svg">
 <metadata id="metadata824">Created by potrace 1.16, written by Peter Selinger 2001-2019</metadata>
 <path id="path826" d="m1165.8 191.8c-2.5 0.3-10.1 1.3-17 2.2s-14.7 2.3-17.5 3.1c-7 1.9-18.8 6.5-19.9 7.6-0.6 0.6-1.6 1-2.3 1-1.9 0-12.2 5-17.3 8.4-4.6 3.1-13.3 11.7-24.9 24.6-5.6 6.3-6.7 8.2-9.7 17.1-3.1 9.5-3.3 10.5-2.9 21.9 0.2 6.6 0.7 13.7 1.1 15.8 1 5.6 5.8 15.1 10.8 21.2 2.5 3 6.7 8.1 9.3 11.3 13.5 16.4 37.8 36 51.3 41.3 2.5 1 6.1 2.8 8 4s6.9 3 11 3.9 9.5 2.3 11.9 3.1c2.5 0.8 5.7 1.4 7.3 1.4 3.6 0 8.3 2.4 9.3 4.7 0.4 1 0.9 4.3 1.1 7.3s1.1 7.7 1.9 10.5c1.9 6.3 4.5 19.3 4.5 22.3s4.2 5.1 6.5 3.2c0.8-0.7 1.5-2.5 1.5-4.1 0-2.1 1-3.6 4.2-6.1 2.2-1.8 6.7-6.1 10-9.4 3.2-3.4 8.6-7.6 12.1-9.5l6.2-3.3 18.5 0.2c10.2 0.2 23.7 0.8 30 1.3 20.5 1.8 41.7 0.8 45.5-2 0.6-0.5 3.5-1.6 6.5-2.5 3-1 6.2-2.3 7-3s2.3-1.6 3.2-1.9c3.6-1.3 15.9-10 18-12.8 1.3-1.6 3.5-4.4 4.9-6.2 4.6-5.7 6.4-15.1 6.4-33.7 0-15.6-0.2-17.1-3.3-28.5-1.9-6.6-4-13.5-4.8-15.3-0.9-1.8-2.1-4.5-2.7-6.1-2.1-5-19.8-24.3-30.3-33.1-2.3-1.9-7-5.9-10.5-8.8-7.3-6.1-28.9-20.5-38.8-25.8-3.6-2-7.3-4.3-8.2-5-0.8-0.8-2.2-1.4-2.9-1.4-0.8 0-3.2-0.9-5.4-1.9-8.6-4-13.5-6.1-14.6-6.1-0.7 0-2.6-0.7-4.3-1.5-15.7-7.2-31.4-10.3-51.2-10.2-8.2 0.1-17 0.4-19.5 0.8zm42.4 7c9.2 1.6 23.7 5.9 30.1 8.9 1.1 0.5 4 1.5 6.5 2.1 2.5 0.7 5.2 1.8 6 2.5 0.8 0.6 2.6 1.5 3.9 1.9 1.4 0.4 4.5 1.9 7 3.3 2.5 1.3 6.9 3.7 9.6 5.1 2.8 1.5 8.5 5.3 12.7 8.4s7.9 5.7 8.2 5.7c1.4 0 12.5 8.6 24.1 18.7 19.7 17.1 30.8 30.9 33.6 41.7 0.5 2 1.4 5.3 2 7.3 2.9 9.9 4 21.1 3.5 34.3-0.5 13.4-1.4 18.6-4.1 24.6-1.6 3.5-13.7 15.3-17.5 17.1-13 6.1-15.9 7.3-17.2 7.3-0.8 0-2.8 0.6-4.4 1.4-4.1 1.9-26.7 2.9-38.9 1.6-5.5-0.6-19-1.5-30-2s-20.8-1.2-21.8-1.6c-2-0.7-4.6 1.1-5.7 4.2-0.5 1.2-3 3.2-5.5 4.4-2.6 1.3-7.3 5-10.4 8.2-7.3 7.8-11.6 10.5-13.7 8.7-0.9-0.7-1.3-2.1-1-3.2s-0.1-3.8-0.9-6.1c-1.2-3.8-2.4-12.1-2.8-20.8-0.2-2-0.6-4-1.1-4.5-0.4-0.4-3.3-1.3-6.4-1.9-3.1-0.7-10.1-2.4-15.6-3.8-5.4-1.4-10.8-2.6-12-2.7-1.1 0-4-1-6.2-2.2-4-2.1-5.6-2.9-17.1-8.5-2.9-1.4-6-3.3-6.9-4.4-1-1-2.1-1.8-2.7-1.8-0.5 0-4.8-3-9.6-6.7-9.9-7.7-24.6-22.5-29.5-29.8-1.9-2.8-4.8-6.3-6.5-7.9-1.7-1.7-3.1-3.9-3.1-5.1 0-1.1-0.5-2.6-1.1-3.2-1.9-1.9-3.6-10.8-3.8-20.9-0.2-10.4 1.5-19.9 4.9-27.7 2.4-5.2 15-19.8 23.6-27.1 6.5-5.5 18-12.6 20.6-12.6 0.5 0 6.1-2 12.3-4.5 9.3-3.7 13.2-4.6 22.1-5.5 6-0.6 13.6-1.7 16.9-2.5 7.4-1.7 39.4-1.9 47.9-0.4z" fill="#343434"/>
 <path id="path828" d="m1097.8 248.2c-0.9 1-0.9 2.8-0.2 6.7 0.6 2.9 1.3 7.7 1.7 10.6 0.3 2.9 1.6 9.4 2.9 14.5 1.3 5 2.6 11.3 3 14s1.7 5.9 3.1 7.5l2.4 2.7 3.7-2c3-1.6 4.4-3.5 7.2-9.3 3.6-7.6 6.4-9.3 7-4.2 0.7 6.8 3.7 17.1 5.3 18.6 1.7 1.5 2.1 1.5 4.2 0.1 1.3-0.8 3.4-3.7 4.8-6.3 3.3-6.4 5.1-9.6 6.5-11.4 0.7-0.8 1.5-2.6 1.9-4 0.9-2.7 7.2-11.7 9.8-13.9 1-0.7 1.7-2.1 1.7-3.1 0-0.9 0.9-2.9 2.1-4.4 2.5-3.2 1.9-5.6-1.4-5.6-2.9 0-4.7 1.8-4.7 4.6 0 1.2-0.8 3.2-1.8 4.5-1.7 2.3-5.6 8.8-14.1 23.6-2.3 4-4.5 7.4-5 7.7-2 1.3-3.5-3.1-4.4-13.2-1.1-12.9-2.3-14.9-6.4-11-1.6 1.5-4.8 6.6-7.2 11.3-6.2 11.9-8.4 13.3-9.4 5.8-0.2-2.1-1.4-7.4-2.6-11.8s-2.8-13.3-3.6-19.8-1.7-12.2-2-12.7c-0.9-1.4-3.1-1.2-4.5 0.5z" fill="#343434"/>
 <path id="path830" d="m1177.3 277.1c-2.7 1.3-5.7 3.2-6.6 4.2-4.4 5.1-6.3 20.7-3.8 31.4 2.9 12.7 15.3 17.8 24.7 10.3 6.9-5.6 9.2-9.5 10.9-18 0.9-4.5 1.3-9.2 1-10.6-1-3.6-6.9-12-9.4-13.3-1.2-0.6-3.2-2.3-4.3-3.7-2.6-3.3-5.7-3.4-12.5-0.3zm14.3 8.4c5.1 4.7 5.2 4.9 5.2 10.5 0 13.7-4.9 22.7-13.3 24.2-8.1 1.6-12.1-6-11.5-21.8 0.2-7.6 0.7-9.8 2.5-12.3 2-2.8 6.2-4.8 10.8-5.3 0.6-0.1 3.4 2.1 6.3 4.7z" fill="#343434"/>
 <path id="path832" d="m1299 278.9c-0.5 0.7-1.2 3.3-1.4 5.8-0.5 4.5-2 10.9-6.2 25.5-3 10.1-4.9 20.3-4.1 21.5 0.9 1.4 4.9 1.2 6.3-0.2 0.7-0.7 1.2-3.2 1.2-5.7 0-2.6 0.7-7.1 1.4-10.1 5.9-22.7 7.6-30 8.2-33.8 0.6-4 0.5-4.2-1.9-4.2-1.3 0-2.9 0.6-3.5 1.2z" fill="#343434"/>
 <path id="path834" d="m1212.2 287.1c-1.6 1.3-1.7 1.8-0.6 3.5 0.6 1.2 1.6 2.9 2.1 3.8 1.5 2.9 5.1 15.4 7.4 25.9 2 8.8 2.5 9.9 4.6 10.2 2.8 0.4 6.2-2.5 9.7-8.5 1.3-2.4 2.9-4.3 3.5-4.3 1.2 0 3.7 5.7 4.6 10.3 0.8 4.7 5 9.9 7.6 9.5 2.5-0.4 6.7-6.2 6.7-9.3 0-2 4.4-12.3 7-16.5 0.5-0.8 2.2-4 3.7-7s3.5-6.5 4.6-7.7c1-1.1 1.7-3.2 1.5-4.5-0.2-1.8-0.9-2.3-3.2-2.3-2.6 0-3.1 0.5-4.4 4.5-0.8 2.5-4.2 9.7-7.5 16s-6.3 12.6-6.6 13.9c-1.7 6.1-4 3-8.2-11.2-1.2-4.3-2.9-8.3-3.7-8.9-1.9-1.6-4.5 0.1-5.6 3.8-0.4 1.6-1.7 4.8-2.7 7.2-2.5 5.5-4.6 5.2-6.6-0.8-0.7-2.5-1.8-5.4-2.3-6.5s-1.8-5-2.9-8.6c-2.5-8.6-4.8-13.9-5.9-13.9-0.4 0-1.7 0.6-2.8 1.4z" fill="#343434"/>
 <path id="path836" d="m1288.8 346.2c-0.7 0.8-1 2.5-0.6 4 0.9 3.4 4.3 3.3 5.8-0.1 1.1-2.2 1-2.8-0.7-4-2.4-1.8-3-1.8-4.5 0.1z" fill="#343434"/>
 <path id="path838" d="m876.8 436.7c-7 1.1-17 4.8-20.6 7.5-1.8 1.4-4.7 4.7-6.5 7.5-1.8 2.7-3.6 5-4.1 5s-2.8-1.8-5.1-4c-2.4-2.1-5.5-4.4-6.9-4.9-2.7-1-8.7-0.6-12.3 0.9-1.1 0.4-3.5 1.4-5.3 2.1-15.6 5.8-25.9 38.3-16 50.3 3.8 4.6 17.1 13.6 29.7 20.1 5.3 2.7 11.8 6.7 14.5 8.7 2.6 2 7.3 4.4 10.4 5.3s6.7 2 8 2.5c1.3 0.6 3 1 3.9 1 2.3 0 11.5 4.8 14.5 7.7 3.6 3.4 6 2.7 7.4-2.4 1.8-6 7.9-18.9 17.6-37.3 11.6-21.8 12.4-23.6 13.6-30.8 1.7-10.1 1.4-20.8-0.6-26.1-1.8-4.5-4-6-17.3-12-4.9-2.2-15.3-2.7-24.9-1.1zm19.5 5.4c8.7 2.3 15.5 6.3 17.1 10.1 1.6 4 1.8 15.2 0.3 21-0.6 2.2-1.4 5.9-1.9 8.2-1 4.5-5.1 12.6-15.7 31-2.2 3.9-4.6 8.8-5.3 10.9-0.7 2.2-2.1 5.1-3.1 6.6-1.1 1.4-1.9 3.2-1.9 4s-0.6 2.3-1.4 3.3c-1.3 1.8-1.6 1.8-4.7 0.3-4.2-1.9-8.6-3.5-16.4-5.8-7.5-2.2-13.8-5-18.9-8.5-2.2-1.5-8.1-4.8-13-7.3-5-2.5-11.1-6-13.6-7.7-2.5-1.8-6.6-4.7-9.2-6.5-5.5-3.9-6.3-6.2-6.2-18 0.1-6.3 0.6-8.5 3.1-13.5 4.3-8.4 9.8-13.8 16.9-16.4l5.8-2.2 4.4 2.3c2.4 1.2 7.3 5.3 10.8 9.1 4.2 4.6 6.9 6.7 8.1 6.5s1.7-1.1 1.4-2.3c-0.2-1.1-0.4-4.2-0.5-6.9-0.1-4.6 0.2-5.1 5.2-9.7 4-3.7 6.2-4.9 9.6-5.4 2.5-0.4 5-0.4 5.6 0s2-0.1 3-1c3.7-3.4 12.5-4.3 20.5-2.1z" fill="#1755d1"/>
 <path id="path840" d="m1491.2 451.8c-0.6 1-3.2 9.8-6.3 21.4-0.5 1.6-2.5 6.5-4.5 10.8s-3.6 8-3.6 8.3c0 0.2-1.2 2.2-2.6 4.4l-2.7 4h-8.2c-4.5 0-12.2-0.7-17.2-1.6-5-0.8-11.7-1.4-14.9-1.2-9.2 0.5-8.6 1.9 6.8 17.3 7.3 7.3 14.9 15.1 16.8 17.2 2 2.1 4.4 4.3 5.5 4.9 1.8 1 1.9 1.4 0.6 8-1.2 6.7-3.7 16-6.8 25.6-2.5 8 1.3 11.5 6.8 6.2 1.5-1.5 3.7-3.2 4.8-3.8 5.4-3.1 11.2-5.5 16.6-7.1 3.3-0.9 8.4-3 11.3-4.6s5.8-2.9 6.4-2.9c1.3 0 13 9.5 17.2 13.9 1.7 1.7 3.4 3.1 4 3.1s3.1 2.1 5.7 4.6c7.3 7.2 9.1 4.1 4.1-6.9-4.1-8.8-5.6-15-4.4-17.4 1.2-2.1-0.1-10-1.9-11.8-2.5-2.5-0.5-5.4 11.2-16.5 6.7-6.3 13.9-12.7 16-14.2 4.2-3 4.8-4.8 2.4-6.8-1.1-0.9-2.2-0.9-5.2 0.2-4.4 1.5-28.5 1.4-32.7-0.2-1.5-0.5-2.9-1.8-3.3-2.7-0.3-1-1.1-2.5-1.8-3.3-1.2-1.5-4.5-11.3-4.5-13.4 0-0.6-0.7-2.5-1.6-4.1-0.8-1.7-1.9-6.2-2.4-10-0.4-3.9-1.7-9-2.9-11.5-1.1-2.5-2.1-5.4-2.1-6.6 0-3.7-4.8-6.1-6.6-3.3zm6.3 19.5c0.7 3.8 1.7 7.8 2.2 8.9s1.7 4.9 2.7 8.5 2.6 8.4 3.6 10.8 1.8 5.8 1.8 7.6c0 6.3 1.1 6.7 16.6 7.3 7.6 0.2 14.3 0.8 14.8 1.3 1 1-5.4 8.6-9.3 11.1-1.5 0.9-3.2 2.3-4 3.2-0.7 1-1.9 1.7-2.5 1.7-0.7 0-2.7 1.6-4.6 3.5-3.1 3.2-3.2 3.6-1.8 5.2 2.4 2.8 4.1 9.2 4.5 16.3 0.1 3.6 0.4 7.6 0.5 9 0.2 1.4-0.2 2.5-0.8 2.5-0.7 0-5.5-3.9-10.8-8.8-5.3-4.8-10-8.7-10.4-8.7-0.5 0-2.7 1.4-5 3.2s-8.8 4.9-14.5 6.9c-5.6 2-11.7 4.2-13.4 5-5.2 2.1-5.7 0.5-2.8-9.2 1.3-4.6 2.5-9.2 2.5-10.2 0-1.1 0.7-3.4 1.6-5.3 1.6-3.2 1.5-3.6-0.2-5.5-1-1.1-3.7-2.8-6-3.8-2.3-1.1-5-3.2-6-4.8-1-1.5-5.7-6.7-10.6-11.5-11.8-11.7-11.7-12.8 0.9-10.2 8.7 1.8 27.3 2 30.4 0.4 1-0.6 1.9-1.8 1.9-2.7 0-1.7 5.8-15.9 9.5-23.3 0.7-1.4 1.8-5 2.6-8 2.4-10.4 4.8-10.5 6.6-0.4z" fill="#343434"/>
 <path id="path842" d="m1003 475.9c-2.3 2.3-1.1 5.8 4.6 13.5 3.3 4.3 7.2 10.4 8.7 13.6 4.7 9.6 8.6 12.7 11.5 9.2 1.1-1.3 0.9-2-1.2-4.3-1.4-1.5-4.2-5.6-6.3-9.2-2-3.6-4.7-7.6-6-9s-3.3-4.5-4.5-7c-3.4-7-3.6-7.4-4.6-7.7-0.5-0.2-1.5 0.2-2.2 0.9z" fill="#343434"/>
 <path id="path844" d="m1077.5 477.4c-0.3 0.5-0.5 8.7-0.5 18.3-0.1 14.6 0.2 17.8 1.5 19.2 0.9 1 2.4 1.8 3.3 1.8 3.6 0 5.3-4.6 2.5-7-1.1-0.9-1.5-4.5-1.7-16.9-0.3-15.1-0.4-15.6-2.5-15.9-1.1-0.2-2.3 0.1-2.6 0.5z" fill="#343434"/>
 <path id="path846" d="m1154.5 494.4c-4.3 7.1-9.4 17.8-10.1 21.1-0.3 1.8-2.4 5.5-4.7 8.2-3.2 3.8-4 5.4-3.7 8.1 0.2 1.8 0.8 3.4 1.4 3.6 1.8 0.6 7.4-4.7 7.4-6.9 0-1.1 0.8-3.2 1.8-4.6 1-1.5 2.4-4.4 3.1-6.5 1.6-4.9 5.5-13 8.6-18.2 2.8-4.7 3.1-7.1 0.9-7.9-2.3-0.9-2.2-0.9-4.7 3.1z" fill="#343434"/>
 <path id="path848" d="m981.7 532.4c-8.1 8.4-19 24.2-23.6 34.3-3.3 7.3-4.3 9.9-4.3 11.3 0 0.9-0.4 1.8-0.9 2.1s-1.1 1.8-1.4 3.3c-3 15.1-3.7 19.5-3.7 24.2 0 2.9-0.5 7-1.1 9.1-1.3 4.3-0.4 13.1 3 30.5 2.6 12.8 3.9 17.8 5.6 22 0.7 1.6 2 5 2.9 7.5 1.7 4.9 9 19.6 10.8 21.8 0.9 1 0.8 2.3-0.1 5-1.5 4.2-7.2 13.2-9.5 15.1-0.9 0.8-1.6 2-1.6 2.7s-1.8 3.7-4 6.6-4.2 6.6-4.6 8.3c-0.4 1.6-1.4 4-2.2 5.3-1.5 2.3-1.8 2.3-11.1 1.6-10.4-0.7-22.2-3.3-27.3-5.9-1.8-0.9-5.1-2-7.3-2.5s-5.8-1.4-8-2-7.4-1.9-11.5-2.9c-8.8-2.2-10.9-3-21.6-8.1-4.4-2.2-13.2-5.6-19.5-7.6s-14.4-5.1-18.2-7c-3.7-1.8-9.3-4.1-12.5-5.1-9.8-3-36.2-18-40.2-22.8-1.7-2-3.3-1.9-5.5 0.5-1.7 1.9-1.7 2.1 0 5.3 1 1.9 3 5.1 4.6 7.3 2.5 3.6 4 6.2 7.2 13.4 0.7 1.4 3.5 6.2 6.4 10.7s5.3 8.6 5.3 9.1 0.6 2.2 1.4 3.8 2.4 5.4 3.7 8.4c3 7 6.6 13.8 18.1 35 7.7 14.2 10.6 19.5 15.2 28.5 6.3 12.3 10.4 18.6 19.2 29.9 3.8 4.9 9.2 12.3 12.1 16.5 14.1 20.7 29.4 37.6 39.3 43.4 2.5 1.4 6.5 4.4 9 6.6s5.1 4.1 5.7 4.1c0.7 0 2 1.1 2.9 2.5 1.9 2.9 5 4.1 6.9 2.5 1.1-0.9 1.2-3.4 0.8-11.8-0.3-5.9 0-15.7 0.7-21.7 0.6-6.1 1.5-15.3 2-20.5 0.8-9.2 3.4-25.5 4.6-29.4 0.3-1 1-4.1 1.4-7 0.4-2.8 2-9.6 3.5-15.1 1.4-5.5 3.2-12.5 3.9-15.5 0.8-3 2.8-9.6 4.6-14.5 1.7-5 3.6-10.6 4.2-12.5 1.3-4.6 6.3-17.3 9.1-23 5.6-11.7 16.7-27 19.6-27 0.8 0 2.7 1.2 4.2 2.6 3.1 3 4.9 2.5 4.9-1.4 0-2-1.5-4.2-5.3-7.9-6.7-6.5-13.1-18.4-17.9-32.9-5.8-17.7-9.7-37.2-9.3-46.4 0.4-8 4.4-34.8 6-39.6 1.8-5.3 8.1-18.3 9.9-20.3 0.8-0.9 2.1-3.2 3-5.1 2.7-5.9 13.9-22.6 17.1-25.3 2.5-2.1 2.8-2.7 1.6-4.1-0.7-0.9-1.6-1.6-2-1.6s-3.2 2.6-6.2 5.7zm-193.7 165.8c1.5 1.3 3.8 2.7 5 3.1 1.3 0.3 3.4 1.4 4.8 2.3 1.4 1 5.2 2.5 8.5 3.5 3.3 0.9 9.8 3.5 14.5 5.6s12.6 5 17.5 6.6c5 1.5 14 5.1 20.2 8.1 7.6 3.7 15.5 6.5 24.5 8.8 7.3 1.8 16.7 4.5 20.8 6 9.1 3.3 17.8 5.2 28.9 6.5 4.6 0.5 8.9 1.4 9.4 1.9 0.7 0.7-0.6 5.9-4.1 16.3-6.3 19-8.8 27.9-9.6 34.2-0.3 2.7-1.1 5.4-1.6 6.1-0.6 0.7-1.4 4.5-2 8.6-0.5 4.1-1.8 11.4-2.9 16.4-1 4.9-2.2 12.8-2.6 17.5-0.3 4.7-1.4 13.9-2.2 20.5-0.9 6.6-1.7 14.7-1.7 18-0.1 5.2-0.4 6-2.1 6.3-3.3 0.5-20.2-12.4-30-22.9-10.8-11.4-14-15.6-31.7-41.2-1.8-2.7-5-6.9-7.1-9.5s-4.8-6.4-6-8.6c-7.1-12.6-8.8-15.8-12.1-22.2-1.9-3.9-4-8.2-4.6-9.5s-1.9-3.8-3-5.4c-1.1-1.7-3.1-5.3-4.5-8.2-1.4-2.8-4.8-9-7.5-13.7-2.8-4.8-5-8.9-5-9.2 0-0.2-2-4.7-4.5-10-2.5-5.2-4.5-10-4.5-10.7s-1.7-3.7-3.8-6.7c-8-11.6-11.5-19.4-9.5-21.4 1.2-1.1 5.4 0.3 8.5 2.9z" fill="#343434"/>
 <path id="path850" d="m1168.5 541.4c-1.7 1.7-0.1 4.1 7.6 11.3 5.3 5.1 9.1 9.7 10.9 13.2 8.5 17.2 10.8 22.3 10.8 24.7 0 1.4 0.7 5.1 1.5 8.1 3.7 14 4.1 38.9 0.9 51-5.9 22.1-8.4 28.9-11.8 32.8l-2.1 2.4 2.4 1.9c1.3 1.1 3.9 1.9 6 1.9 2.5 0 6.6 1.5 11.9 4.2 9.7 5.1 15.3 9.2 23.9 17.4 3.4 3.4 8.4 7.7 11 9.5 2.5 1.9 6 5 7.7 6.8 1.7 1.9 7 7.6 11.7 12.5 7.3 7.7 20.9 24.7 20.9 26.1 0 0.2 1.3 2.3 2.8 4.7 5.9 8.9 19.6 30.7 22.2 35.3 0.9 1.6 2.9 6.1 4.4 10 1.6 3.8 3.7 8.6 4.7 10.5 2 3.7 6.1 16 7.4 22 0.4 1.9 1.4 4.4 2.1 5.5 0.8 1.1 1.4 3.1 1.4 4.6 0 4.8 6.1 7.8 8 3.9 1.9-4.1 6.9-13.1 8-14.5 1.7-2.1 7.9-14.4 8.8-17.6 0.6-1.9 2.5-7.2 4.2-11.9 1.8-4.7 3.6-10.4 4.1-12.8s1.2-4.8 1.5-5.4c0.4-0.6 1.3-3.8 2-7.2s1.7-7.9 2.3-10.1 1.5-6.7 2.1-10c0.7-3.3 1.8-7.5 2.6-9.3s1.4-5.2 1.4-7.6 0.5-6.8 1.1-9.7c1.6-8.4 2.9-21 3.8-38.8 0.8-15.8 0.5-24.3-2.1-46.6-0.6-5.5-1.2-18.1-1.3-28-0.2-29.3-1.8-39.5-5.9-39.5-1.5 0-4.6 4.2-4.6 6.1 0 0.7-0.9 3-1.9 5.3-8.6 18.3-11.7 24.3-14.2 28.1-1.6 2.3-2.9 4.8-2.9 5.4 0 0.7-0.8 2.4-1.9 3.9-3.3 4.8-10.7 16.6-13.6 21.7-1.6 2.7-3.9 6.3-5.2 8-7.2 9.1-20.4 27.7-22.2 31.3-1.2 2.3-6.5 8.6-11.8 13.9-5.4 5.4-11.9 12.4-14.6 15.6s-5.5 5.7-6.2 5.5c-1.4-0.3-13.5-13.6-13.5-14.7 0-0.4-2.8-2.7-6.1-5.1-3.4-2.5-9.6-7.7-13.8-11.5-12.6-11.5-16.3-14.2-25.1-18.3-4.7-2.1-9.3-4.2-10.2-4.5-2.1-0.7-2.2-2.4-0.7-6.4 1.6-4 6.9-23 7.8-27.8 0.4-2.3 1.1-4.7 1.5-5.4 1.5-2.4 0.6-28.2-1.3-38.6-3.1-16.4-5.3-24.9-7.3-27.4-1-1.3-1.8-3-1.8-3.8s-0.8-2.7-1.7-4.1c-2.9-4.3-4.1-6.5-6-10.1-2.1-4.3-17.2-19.1-19.3-19.1-0.9 0-2 0.3-2.3 0.7zm199 72.9c1 3.6 1.1 7.6 0.4 15.6s-0.6 13.1 0.5 20c0.8 5.1 1.4 11.6 1.4 14.5 0 2.8 0.5 6.4 1 7.8 0.6 1.5 1 9.1 1 16.8-0.1 7.8-0.1 15.8 0 17.7 0.2 12.8-7.5 62.5-12.5 79.5-1.2 4.4-3.1 11.6-4.1 16-0.9 4.4-2.8 10.5-4.2 13.5-1.3 3-3.2 8-4.2 11-3.7 11.4-11.1 24-14.2 24-1.1 0-3.9-5.8-5.3-11-2.6-9.7-16.9-41.6-20.4-45.5-1-1.1-2.6-3.4-3.5-5-0.9-1.7-2.2-3.9-2.9-5-3.3-5.5-9.9-15.8-14.3-22.5-2.7-4.1-5.1-8-5.4-8.6s-2.3-3.2-4.4-5.7c-5.3-6.4-5.2-6.6 15.9-28.1 5.3-5.4 10.2-10.8 10.9-12 2.3-3.6 11-16.7 13.1-19.6 1.1-1.6 4.7-6.5 8-11s7.4-10.6 9-13.6c1.7-2.9 3.9-6.3 5-7.6 1.2-1.3 2.7-3.7 3.5-5.3 0.8-1.7 2.7-4.9 4.3-7.1 1.5-2.3 2.7-4.5 2.7-5 0-0.4 0.6-1.5 1.4-2.3 0.8-0.9 3.3-5.3 5.5-9.8s4.5-8.4 5.1-8.8c0.5-0.3 1-1.2 1-2 0-2.7 2-6.7 3.2-6.3 0.7 0.3 1.8 2.7 2.5 5.4z" fill="#343434"/>
 <path id="path852" d="m1019.8 574.4c-1.4 0.3-3.1 1-3.8 1.5-0.7 0.6-2.7 1.8-4.4 2.8-2.7 1.4-3.4 2.6-4.6 7.7-1.8 7.5-1.3 9.7 3.3 15.1 2.8 3.2 4.6 4.4 7.6 4.8 2.2 0.4 4.2 1.1 4.5 1.5 0.9 1.6 6.8 0.9 10.1-1.1 1.8-1.1 3.9-3.6 4.8-5.7 4.9-11.6 3.5-19.5-4.3-24.4-4.4-2.8-7.3-3.3-13.2-2.2zm12.1 6.9c1.8 2.2 2.3 12.3 0.7 15.4-1.8 3.4-4.2 3.2-4.8-0.5-0.9-5.3-7.3-4-6.8 1.4 0.4 3.6-3.5 4.1-6.9 0.9-2.3-2.1-2.5-2.8-2-8.3 0.7-8.1 3.5-10.5 12.3-10.5 4.4 0 6.5 0.5 7.5 1.6z" fill="#343434"/>
 <path id="path854" d="m1126.5 585.3c-2.7 1.4-5.9 4.2-7.4 6.5-2.2 3.3-2.5 4.6-1.9 8.5 1.4 10.4 10.9 18.3 20.3 16.9 3.6-0.5 5.4-1.6 8.9-5.2 3.9-4 4.4-5 4.6-9.6 0.4-10.2 0-12-3.7-15.6-3.1-3.2-4.1-3.5-9.7-3.8-5.2-0.2-7.2 0.2-11.1 2.3zm16.1 4c1.9 1.3 2.2 2.4 2.2 8.5 0 8.3-1.5 9.7-5.9 5.5-3.4-3.3-5.8-3.3-7.3 0-1.1 2.4-1 2.9 1.7 5 2.4 1.9 2.7 2.6 1.7 3.6-2.1 2.1-8.2-1.9-10.4-6.8-2.4-5.6-1.5-9.5 3.3-13.9 3.2-2.8 4.7-3.5 8.2-3.5 2.3 0 5.3 0.7 6.5 1.6z" fill="#343434"/>
 <path id="path856" d="m1065 609.7c-5.1 2.6-10 5.4-11 6.3-0.9 0.8-4.4 2.4-7.7 3.6-3.3 1.1-10.7 3.6-16.4 5.6-5.7 1.9-10.9 3.9-11.5 4.4s-2.7 1.2-4.6 1.6c-5.1 1.1-17 5.1-20.8 7-1.7 0.9-3.7 2.6-4.3 3.7-1.7 3.2 1.2 5.2 12.4 8.7 16.5 5.1 29.5 9.2 40.7 12.9 5.8 1.9 12.1 3.8 14 4.3 1.9 0.4 7.1 1.7 11.5 2.8 28.3 7 28.9 7.1 28.3 3-0.3-2.2-6-4.5-16.3-6.7-10.2-2.1-19.5-4.5-37.5-9.9-10.2-3-22.5-6.6-27.5-7.9-9.6-2.7-13.9-4.8-13.2-6.7 0.2-0.7 4.4-2.6 9.3-4.3s9.6-3.3 10.4-3.7c2.6-1.1 10.1-3.6 21.1-7.2 6.3-2 13.2-5 16.9-7.4 3.5-2.3 6.9-4.1 7.6-4.1s2.5-0.7 4.1-1.5c1.5-0.9 4.1-2 5.6-2.5 2.3-0.8 2.8-1.5 2.5-3.8-0.4-4-2.9-3.6-13.6 1.8z" fill="#343434"/>
 <path id="path858" d="m484.2 664.4c-6 9.9-12.7 19.3-13.7 19.3-2.3 0-10.2-2.8-15.2-5.3-6.6-3.3-13.1-6.1-17.9-7.8-2.1-0.8-4.9-2.4-6.3-3.6-2.8-2.7-4.6-2.9-6.4-0.7-1.1 1.3-1 2.1 0.4 4.7 0.9 1.8 2.3 6.1 3.2 9.6s2.9 10.3 4.6 15.1c1.6 4.8 2.9 9.7 2.9 10.7 0 2.2-2.7 4.9-8.4 8.3-2.1 1.3-5.8 4.3-8.2 6.6-2.4 2.4-7.5 6.4-11.4 8.9-13.1 8.4-11.2 10.2 10.6 9.6 28-0.8 27-0.8 30.4 2.4 1.6 1.6 3 3.3 3 3.8s0.8 2.1 1.9 3.5c1 1.5 3 5.6 4.4 9.2s3.7 8.7 5 11.5c1.3 2.7 2.7 6 3.1 7.1 0.4 1.2 1.5 2.9 2.6 3.9 1.9 1.7 2.1 1.7 4 0 1.2-1.1 2-3.1 2-5 0-13.2 8.8-33.2 16.2-36.9 1.8-1 5.1-2.1 7.3-2.6s8.3-2.1 13.5-3.5c5.2-1.3 12.2-2.7 15.5-3.1 11.8-1.3 13.1-7.2 1.9-8.7-4.2-0.5-14.9-3.5-23.9-6.7-2.7-1-6.3-2.2-8-2.7-3.9-1.1-4.5-4.1-5-25.3-0.5-19.3-0.7-22.1-1.8-23.8-1.4-2.1-4.6-1.3-6.3 1.5zm2.2 18.3c0.2 15.8 1.6 31.5 3.1 33.1 0.8 1 6.4 2.8 13.1 4.4 20.6 4.7 20.6 4.8-9.2 12.7-9.5 2.5-14.6 5.9-14.6 9.7 0 1.2-1.6 5.6-3.5 9.7s-3.5 8.3-3.5 9.3c0 2.3-2.5 4.5-4.4 3.8-0.7-0.3-2.1-2.7-3-5.4-1-2.6-3-7.5-4.5-10.8-1.6-3.3-3.4-7.6-4.1-9.5-2.4-6.3-1.8-6.1-20.2-5.8-21 0.3-21.8-0.1-13.5-7.7 3.2-2.9 7.7-6.3 10.1-7.6 10-5.5 12.6-7.8 12.6-10.9 0-1.6-1.1-4.5-2.4-6.5-3-4.4-8-19.9-7.2-22.1 0.5-1.3 1.5-1.5 4.2-1.1 5.2 0.9 16.3 6.5 18.1 9.3 0.9 1.5 2.5 2.4 4.1 2.4 1.4 0 3.7 1 5 2.2l2.4 2.3 4.5-4.9c2.4-2.7 5.6-7.2 6.9-9.8 1.7-3.4 3-4.8 4.2-4.6 1.4 0.3 1.7 1.6 1.8 7.8z" fill="#343434"/>
 <path id="path860" d="m610.8 770.2c-1 1.2-0.3 2.5 3.5 7.4 2.6 3.3 5.3 6.2 6.1 6.5s1.4 1 1.4 1.7c0 0.6 2.6 4.1 5.8 7.7 3.1 3.7 9.1 10.6 13.2 15.4 4.1 4.7 10.9 12.6 15 17.5 4.1 4.8 11.6 12.8 16.5 17.8 9.2 9.3 22.7 23.4 41.4 43.4 5.8 6.2 13.7 14.3 17.4 17.9s9.3 9.8 12.4 13.7c3.1 3.8 7.9 9.3 10.7 12.1s7.2 7.8 9.8 11.2c4.4 5.7 4.8 6.7 6.2 15.9 0.9 5.4 1.8 17.2 2 26.3 0.3 9.1 1 20.8 1.6 26 0.7 5.2 1.3 23.5 1.4 40.6 0.2 17.1 0.7 31.7 1.2 32.5s1 13.5 1.1 28.4c0.1 27.5 0.4 34.4 2.2 61 0.6 8.2 1.8 27.1 2.6 41.8s2.4 32.7 3.5 40c1.6 11 3.6 46.5 3.2 57.2-0.1 4.8-0.3 42.7-0.1 45.5 0 1.4-0.2 4.4-0.6 6.6-0.7 3.8-0.5 4.4 1.9 5.9 2.7 1.8 4.2 1.8 14.9-0.4 8.4-1.7 32.3-3.3 53.7-3.5 10.2-0.1 24.1-0.7 31-1.5 8.4-0.9 18.7-1.1 31.5-0.7 26.8 0.8 56.7 0.6 63.2-0.4 3-0.5 7.5-0.7 9.8-0.3 2.6 0.3 7.4-0.1 11.9-1.2 4.8-1 11.4-1.6 17.4-1.5 5.3 0.1 13.8-0.4 18.7-1 5-0.5 16.2-1.4 25-2 8.8-0.5 21.4-1.4 28-1.9 6.6-0.6 19.2-1.5 28-2.2 8.8-0.6 20.5-1.7 26-2.4 9.5-1.3 38.8-3.2 43-2.8 1.1 0.1 6.1-0.5 11.1-1.3 7.2-1.1 14.2-1.3 32.7-0.8l23.5 0.7 1.5-2.4c1.3-2.1 1.5-7.5 1.2-40.4-0.2-20.9-0.9-40.9-1.5-44.5-0.5-3.6-1.4-11-1.9-16.5-1.1-12.1-3.8-35-5-42.5-0.5-3-0.9-33.6-0.9-68 0-48-0.4-67.6-1.6-84.5-0.9-12.1-1.9-27.4-2.1-34-0.3-6.6-1-16.2-1.5-21.4-0.6-5.1-1-16.4-0.9-25 0.1-15.1-1.3-29.3-3.3-33.8-1.9-3.9-1.1-4.7 10.2-9.5 3-1.3 10.9-4.1 17.5-6.2 17.1-5.4 17.3-5.5 24.5-8.3 3.6-1.4 10.6-4 15.5-5.8 5-1.8 11.5-4.2 14.5-5.3s8.7-3 12.5-4.2c3.9-1.3 7.9-2.9 9-3.6 1.1-0.8 2.9-1.4 4-1.4s3.2-0.6 4.7-1.4c1.4-0.8 4.6-1.7 6.9-2.1 2.4-0.4 5-1.1 5.9-1.5 5.8-2.8 9.5-4.3 16.5-7 4.4-1.6 9.8-3.9 12-4.9 12.2-5.9 19.5-9.1 20.5-9.1 0.6 0 2.7-1 4.8-2.3 3.3-2 9.8-4.4 17.2-6.2 1.4-0.4 6.8-1.8 12-3.1 5.2-1.4 11.5-3 14-3.6s5-1.4 5.5-1.8c0.6-0.4 2.9-1 5.2-1.4 2.4-0.3 6-1.5 8-2.5 2.1-1.1 5.6-2.3 7.8-2.7 6.6-1.1 9.6-5.4 5.9-8.5-1.3-1-2-1-4.3 0.4-1.6 0.9-5.3 2.3-8.3 3.1-3.1 0.8-6.4 1.9-7.4 2.5-1.1 0.6-5.5 2-9.9 3.1-4.4 1.2-8.9 2.5-10 3s-3.3 1.1-5 1.4c-3.1 0.5-8.2 1.7-17.5 4.4-5.2 1.4-17.1 6.3-28.5 11.6-13.2 6.2-16.2 7.6-16.8 7.6-0.3 0-3.4 1.3-6.9 2.9s-8.1 3.4-10.3 4.1-5.3 1.8-7 2.6c-1.6 0.7-6.6 2.4-11 3.8-8.5 2.6-13 4.3-21.1 8.1-2.8 1.3-7.1 2.9-9.5 3.5-6.5 1.7-15.6 4.9-22.4 8-3.3 1.5-8.2 3.3-11 4-6.4 1.6-25.1 7.7-29 9.4-1.6 0.8-5.2 2.2-8 3.1-2.7 1-7.5 2.9-10.5 4.3-5.3 2.4-6.1 2.5-22.5 2.1-19.8-0.4-20.1-0.4-57.5 1.6-15.7 0.8-38.5 1.5-50.7 1.5-21.4 0-26.2 0.3-56.3 3.5-29.9 3.1-56.1 3.4-133 1.4-41.3-1-51.6-0.8-67.5 1.6-4.9 0.8-13.7 1.9-19.5 2.5s-15 2-20.5 3.1c-6.5 1.3-15.7 2.2-26.3 2.5l-16.3 0.5-3.7-3.8c-12.4-12.9-25.8-27.6-27.3-30-1-1.6-5.8-6.6-10.6-11.3-4.9-4.7-16.2-16.4-25.3-25.9-9.1-9.6-20.3-21.2-25-26-7.5-7.5-13.4-13.9-25.9-28.1-14.2-16.1-25.2-28.9-28.4-32.8-13.8-17.2-14.3-17.6-16.7-14.7zm617.8 161.2c7.4 0.5 8.5 0.9 9.2 2.9 1.8 4.6 4.2 26.8 3.5 31.8-1 7.1-1 5.8 0.9 29.1 0.9 11.5 1.6 22.6 1.6 24.5-0.1 1.9 0.3 10.7 0.9 19.5 2.6 43.2 2.7 44.7 2.1 59-0.1 3.3-0.1 18.6 0 33.9l0.3 28-4.9 4.3c-2.7 2.3-5.8 4.6-6.9 4.9-1.1 0.4-2.7 1.2-3.5 1.9-0.8 0.6-5.3 2.7-10 4.5s-10.7 4.3-13.5 5.5c-2.7 1.3-8.6 4-12.9 6-4.4 2-9.6 4.7-11.6 6s-5.9 3-8.6 4c-2.7 0.9-5.8 2.2-6.9 2.9s-5.4 2.5-9.5 3.8c-4.1 1.4-9.5 3.5-12 4.6s-7 3-10 4.2c-2.9 1.2-7 3.2-9 4.4-1.9 1.2-4.8 2.8-6.5 3.6-1.6 0.8-3.7 1.9-4.5 2.5-0.8 0.7-4 2.2-7 3.4-4.8 2-13.6 6-28.5 13.2-2.2 1-4.4 1.9-4.8 1.9-0.5 0-2.3 0.6-4 1.4-1.8 0.8-7 2.9-11.7 4.6-4.7 1.8-12.1 4.7-16.6 6.6s-8.6 3.4-9.2 3.4-2.8 0.7-4.9 1.6-4.7 2-5.8 2.4-4 1.6-6.5 2.8c-2.5 1.1-6.9 3-9.7 4.1-2.9 1.2-7.5 3-10.2 4.1s-5.5 2-6.2 2-3.1 0.8-5.3 1.9c-2.3 1-6.8 2.6-10 3.6-5.6 1.7-6.4 1.7-14.5 0.1-4.7-0.9-10-1.6-11.7-1.6s-5.3-0.7-8.1-1.5-7.1-1.9-9.5-2.4c-17-3.6-25-5.8-31.3-8.7-1.6-0.7-5.5-2.1-8.5-3s-10.2-3.3-16-5.4-12.2-4.2-14.4-4.5c-3.4-0.6-8.2-2.3-12.8-4.6-1-0.5-2.6-0.9-3.6-0.9-1.1 0-3.6-1.1-5.6-2.5s-4.4-2.5-5.2-2.5c-1.6 0-25.3-10.2-28.9-12.4-1.1-0.7-4.8-2.3-8.2-3.5-9.8-3.6-9.3-2.2-10.9-32.8-0.8-14.7-1.9-32.2-2.5-38.8-0.7-6.6-1.3-24.4-1.4-39.5-0.3-42-1.5-84.2-2.7-97.5-0.6-6.6-1.3-15.8-1.4-20.5-0.2-4.7-0.8-14.8-1.4-22.5-1.9-25.3-2-24.7 1.5-25.7 1.7-0.5 7.5-0.9 13-0.9 5.5-0.1 12-0.5 14.5-1.1 8.7-1.9 15.7-2.8 35.4-4.8 11-1.1 23.3-2.4 27.5-3 9.8-1.3 28.6-1.6 43-0.7 12.1 0.8 71.8 1.9 93.1 1.8 11-0.1 24.2-0.9 65-4.2 5.8-0.4 25.8-1.2 44.5-1.8 37.7-1.1 80.8-3 81.4-3.7 0.7-0.6 22.6-0.5 31.9 0.3zm17.1 240.6c0.5 1.2 0.7 5.4 0.4 9.2-0.3 4.5 0.5 13.8 2.2 26.5 1.5 10.7 3.1 24.7 3.6 31s1.3 13.5 1.9 16c0.5 2.5 1.3 12.3 1.7 21.7 0.5 14.3 0.4 17.3-0.8 17.7-5.2 1.7-133 2.9-164.4 1.6-11.5-0.5-32-1.4-45.4-2-22.4-0.9-28.4-1.5-39.6-3.9-2.2-0.5-6.6-1.4-9.7-1.9-6.4-1.2-10.1-2.9-9.3-4.2 0.7-1.2 6.5-4 8.2-4 0.7 0 4.1-1.3 7.6-2.8 3.4-1.5 8.7-3.4 11.8-4 3.1-0.7 6.5-2.2 7.4-3.2 1-1.1 2.5-2 3.3-2 1.4 0 7.9-2.7 12.4-5.1 1-0.5 2.7-0.9 3.7-0.9 2.3 0 6.5-1.7 10.1-4.1 1.4-0.9 3.6-1.9 5-2.2 2.9-0.6 9.9-3.1 15-5.4 4.6-2 8-3.4 10.5-4.3 4.1-1.5 7.2-2.9 15.5-6.8 14.9-7 19.7-9.2 20.4-9.2 0.4 0 3.2-1.6 6.2-3.5s6-3.5 6.8-3.5c0.7 0 2.1-0.9 3.1-2s2.3-2 2.9-2 2.8-0.9 4.9-2c2-1.1 4.3-2 5-2s3.3-1 5.7-2.1c2.5-1.2 5.6-2.5 7-3 8.3-2.6 23.6-9.1 26.5-11.3 1.9-1.4 4-2.6 4.9-2.6 0.8 0 1.7-0.4 2.1-0.9 0.3-0.5 2-1.2 3.8-1.6 1.7-0.4 5-1.7 7.2-3 2.2-1.2 8.1-4 13-6.1 5-2.1 10.1-4.6 11.4-5.6s2.9-1.8 3.6-1.8 3.6-1.6 6.5-3.5c6.1-4.1 6.8-4.2 7.9-1.2zm-447.6 60.9c2.9 1.1 8 3.4 11.3 5 3.4 1.5 6.9 2.8 7.7 2.8s2 0.7 2.7 1.5 1.8 1.5 2.5 1.5 2.4 0.9 3.8 2 3.4 2 4.4 2c1.1 0 4.6 1.3 7.9 2.9 3.2 1.6 7.7 3.5 9.9 4.2s4.5 1.6 5 2c0.6 0.4 2.6 1 4.5 1.4 4.2 0.8 15.5 4.2 19 5.8 4.5 1.9 12.5 4.6 13.7 4.7 0.7 0 4.2 1.3 7.7 3 6.3 2.8 18.5 6.2 27.6 7.6 2.5 0.4 5 1.1 5.7 1.6 0.6 0.5 3.3 1.3 6 1.8 15.4 2.9 17.8 3.6 17.8 5 0 1.7-2.6 3.1-13.4 6.9-4.3 1.6-10.5 4.2-13.7 5.9-5.7 3-8.8 4-22.4 7.6-3.6 1-10.3 3.1-15 4.8-15.7 5.5-21.6 6.6-40.5 7.8-7.7 0.5-16.9 1.4-20.5 2s-10.8 1.5-16.1 2c-5.3 0.4-10.6 1.1-11.7 1.4-1 0.4-3.1 0.2-4.6-0.4-2.5-0.9-2.6-1.2-2.4-8.2 0.4-11.5-1.2-53.7-2.2-56.1-1.2-3.1-3.4-28.3-2.6-29.6 1-1.5 2-1.4 7.9 1.1zm186.2 58.8c3.9 1.1 8.8 2 11.1 2 2.2 0 4.4 0.4 5 0.9 2.4 2.4 18.8 4.5 41.4 5.2 12.9 0.4 32.3 1.2 43 1.8 11 0.5 46.4 0.8 81 0.5 33.8-0.3 64.9-0.5 69-0.5 4.1-0.1 9.4 0 11.7 0.1 2.4 0.2 5-0.3 5.8-1 0.9-0.7 1.8-1 2.2-0.7 0.3 0.4 0.8 8.6 1 18.3 0.6 24.1 2.4 22.5-24.1 22.3-26.9-0.2-52.3 0.8-68.1 2.7-7.1 0.9-18.5 1.9-25.2 2.4-6.6 0.4-12.5 1-13.1 1.4-0.5 0.3-8.3 1-17.3 1.5-33.9 2.1-47.7 3.1-56.4 4.1-4.9 0.6-17.3 1.5-27.5 2-10.2 0.6-24.6 1.5-32 2.1-16.7 1.4-50.4 1.7-75.5 0.6-14.1-0.6-20.7-0.5-25.5 0.4-3.6 0.7-15.5 1.4-26.5 1.5-17.5 0.3-48.4 2.2-62.7 4-4.5 0.6-4.8 0.4-5.8-2.1-0.6-1.6-0.9-8.3-0.8-15.4l0.3-12.6 3-0.2c1.7-0.2 8-0.7 14-1.2 6.1-0.5 14.9-1.6 19.7-2.5s15.1-2.1 23-2.6c10-0.6 15.9-1.5 19.8-3 3-1.1 6.1-2 6.8-2 0.8 0 2.8-0.6 4.5-1.4 5.3-2.3 12.7-4.6 24.2-7.6 11.6-2.9 18.9-5.7 23.5-9 1.6-1.1 3.6-2 4.5-2s2.9-0.6 4.3-1.4c1.5-0.8 5.6-2.4 9.2-3.6s8-2.9 9.9-3.7c8.4-3.8 12.7-4 22.6-1.3z" fill="#343434"/>
 <path id="path862" d="m549.6 889.8c-3 3.5-6 7.4-6.7 8.6-1.8 3.5-1.2 9.4 1.7 16 2.5 5.8 4.6 8.4 23.9 30 2.3 2.6 5.9 7.6 7.9 11 3.1 5.4 4.1 6.3 6.5 6.3 2.2 0 3.8-1.2 7.3-5.6 2.6-3.1 4.6-5.9 4.6-6.4 0-0.4 4.8-5 10.8-10.1 19.5-16.9 23.5-22.3 24.8-33.1 0.7-5.8-0.9-11.2-3.8-13.5-1.8-1.3-11.5-4.3-14.1-4.3-3.8 0-13.2 3.3-16.7 5.9-3.8 2.9-7.8 5.1-9 5.1-0.4 0-2.5-2.5-4.5-5.5-5.3-7.7-9.1-9.7-19.1-10.3l-8-0.4zm22.6 2.1c3.8 2.6 6.4 6.3 7.9 11 0.3 0.9 1.8 2.4 3.2 3.4 2.5 1.6 2.7 1.6 5.4-1 1.6-1.5 5.9-4.3 9.7-6.2 5.8-2.9 7.8-3.4 14-3.4 9.7 0 12.4 2 12.4 9.1 0 9.3-4.9 15.4-25.9 32.4-4.1 3.3-8.9 8.3-10.8 11.2-1.8 2.9-4 5.3-4.8 5.3-0.9 0-2.4-1.5-3.4-3.3-2.9-4.9-8.6-11.9-18.9-23.1-10.3-11.1-13.2-16.3-13.2-23.5 0-4.2 0.5-5.4 4.1-9.5 6.4-7.3 12.4-8 20.3-2.4z" fill="#1755d1"/>
 <path id="path864" d="m1334 922.9c-0.7 0.7-1.2 4.1-1.2 8.2-0.1 12.3-2.7 41.5-5.4 59.2-3 19.9-5.2 30.5-9.5 46.4-3.3 12.1-4.2 15.7-8.9 36-3 12.7-4.4 16.4-11.1 30-2.1 4.1-4.8 9.5-6 12s-3 6.1-4.1 8l-1.8 3.5h-10.9c-10.1 0.1-10.8 0.2-11.1 2.1-0.6 3.8 2.2 4.8 14 4.8l11.1 0.1 1.5 4.5c2.9 8.7 8.2 23 9.2 25 2.4 4.8 2.8 5.8 3.5 9 0.4 1.9 1.1 3.9 1.5 4.5 0.4 0.5 2.4 6.8 4.4 14 2.1 7.1 4.2 14.1 4.8 15.5 1.2 2.9 2.6 7.9 3.8 13.5 0.4 2.2 1.5 6.5 2.4 9.5s2.1 9.3 2.6 14 1.4 11.6 2 15.5c2 12.9 2.9 25 2 25.9-0.5 0.5-1.5 0.6-2.2 0.2-3.8-2-6.2-3.6-8.9-6.2-2.4-2.3-3.3-2.6-4.7-1.8-3.4 2.2-1.9 4.7 6.3 10.4 4.4 3.1 8.1 6.3 8.3 7.2 0.2 1-1.5 3.7-3.7 6.1-4.4 4.8-14 18.1-17.1 23.8-1.9 3.5-1.9 3.7-0.1 5.3 2.4 2.2 4.6 1.2 6.2-2.7 0.7-1.8 3.2-6 5.6-9.4s4.3-6.5 4.3-7c0.1-1.5 8.8-10.3 10.2-10.2 2.3 0.1 6.9 3.3 8.3 5.9 0.8 1.4 2.8 6.5 4.6 11.5 5.2 14.9 8.4 20.3 11.4 19.1 2.1-0.8 1.1-7.2-1.6-10.2-1.1-1.1-1.9-2.4-1.9-2.9s-0.8-2.7-1.9-4.9c-5.2-11.4-6.1-13.8-5.6-14.6 1.1-1.8 5.6-1 9.8 1.7 6.8 4.5 8.1 5.3 10.3 6.2 1.2 0.5 4.7 3 7.9 5.6 3.1 2.6 8.2 6 11.3 7.7 3.2 1.7 6.2 3.5 6.9 4s2.2 0.8 3.5 0.6c1.8-0.2 2.2-0.8 2-2.8-0.4-3-3.3-5.4-8.3-6.9-2-0.6-6.5-3-9.9-5.4-8.7-5.9-11.1-7.4-14.5-9.1-3.9-2-5.9-3.3-11.8-7.9-2.7-2-5.8-3.7-6.8-3.7-1.1 0-3.5-0.6-5.3-1.4-3.6-1.5-3.6-1.6-5.5-15.2-0.4-3.4-1.1-6.5-1.4-7s-1-6.1-1.6-12.4c-1.9-19.7-3.3-29.4-4.6-31-0.7-0.8-1.5-3.3-1.8-5.5-0.4-2.2-1.8-6.8-3.2-10.2-1.4-3.5-2.5-7.3-2.5-8.6s-0.4-2.7-0.9-3.3c-0.5-0.5-1.6-3.6-2.6-6.9-0.9-3.3-2-6.9-2.5-8-0.4-1.1-1.7-5.3-3-9.4-1.2-4.1-3.8-10.8-5.7-15-8.7-18.8-11-33.6-6.6-42.5 2.2-4.3 9.9-21.6 11.3-25.1 0.4-1.1 1.7-4.5 2.9-7.5 1.1-3.1 2.1-6.2 2.1-7.1 0-0.8 0.4-1.9 0.8-2.4 0.5-0.6 1.5-4.4 2.2-8.5s1.6-9.1 2.1-11c2.6-11.4 5.1-21.2 6.9-26.5 2.1-6.4 3.6-13.9 4.9-24.5 0.5-3.6 1.6-10.8 2.4-16 0.9-5.2 2-12.9 2.6-17 1.5-10.8 3.5-46.4 2.8-48.4-0.7-1.9-2.8-2.1-4.5-0.4z" fill="#343434"/>
 <path id="path866" d="m1492.3 971.1c-2.2 2.4-4.7 5.7-5.5 7.2-0.8 1.6-2.1 3.7-2.9 4.7-2.4 2.8-2.2 32.8 0.2 41.3 1.1 4 1.7 9.8 1.7 16.4 0 5.6 0.5 11 1.1 12.2 1 1.8 1.7 2 7.7 1.3 6-0.6 8.1-1.2 13.7-3.6 1.1-0.5 8.8-2.6 17-4.7 8.3-2.1 16.4-4.6 18-5.7 11.3-6.9 15.4-10.6 17.9-15.7 1.8-3.5 2.2-13.3 0.6-14.3-0.5-0.3-1-1.4-1-2.5 0-1-1.6-3.2-3.5-4.8-4.5-4-9.8-4.7-20-2.7-13.6 2.7-13 2.9-13-3.5 0-3-0.4-7-0.9-8.9-1-4-4.9-11.7-7.4-14.4-2.6-3-11.2-6.7-15.6-6.7-3.4 0-4.6 0.6-8.1 4.4zm17.8 4.9c1.2 0.8 3.5 4 5.1 7.2 2.4 4.9 2.8 6.8 2.9 14.3 0 4.8-0.2 9.5-0.4 10.6-0.6 2.8 2.5 4.4 4.8 2.4 3-2.6 8.2-3.8 18.8-4.4 9.4-0.6 10.1-0.5 12 1.5 1.3 1.6 2 4.1 2.3 8.6 0.4 6.3 0.3 6.6-2.8 9.5-6.1 5.7-14 9.6-25.5 12.5-2.7 0.7-10.2 2.8-16.5 4.5-6.3 1.8-13.1 3.3-15 3.4l-3.5 0.1-0.6-9c-0.4-5-1.3-12.4-2.2-16.5s-1.9-11.8-2.3-17.1c-0.6-8.4-0.4-10.5 1.6-16.5 1.3-4.1 3.5-8.3 5.4-10.2 2.9-3.2 3.4-3.4 8.4-2.9 3 0.3 6.3 1.2 7.5 2z" fill="#1755d1"/>
 <path id="path868" d="m289.5 974.3c-0.3 0.4-6.4 0.8-13.5 0.9-14.1 0.3-17.7 1.3-25.8 7.3-4.3 3.1-8.7 10.8-13.4 23.4-5 13.5-6.2 31.9-3.8 59.1 1.5 17.3 1.8 17-12 17.7l-9.7 0.5-0.7 7.5c-0.4 4.1-0.3 16.9 0.3 28.3 0.5 11.4 0.8 21.1 0.5 21.5-0.2 0.4 0 4.3 0.4 8.7 1.6 14.6 3 43.7 3.1 64.5 0.1 11.3 0.6 23.6 1.1 27.5 0.5 3.8 1.6 22.3 2.4 41 2.1 49.1 2.6 54 5.9 60.5 3.1 6.1 10.5 13.7 14.4 14.7 2.7 0.7 8.6 3.8 11.1 5.9 0.8 0.7 3.3 1.5 5.5 1.9s7.8 1.6 12.5 2.7c7.1 1.8 12.4 2.2 32 2.4 47.9 0.7 74.8 1.2 86.7 1.9 11 0.6 12.9 0.5 19.5-1.6 6.1-1.9 8.1-3 12.4-7.5 3-3.2 5.5-6.9 6.3-9.4 1.5-5 1.6-23.2 0.2-32-0.5-3.6-1.2-10.1-1.6-14.5-0.3-4.4-1.2-12.5-2-18-4.5-32.1-4.9-41.8-6-123.5-0.2-18.4-0.7-44.8-1-58.5-0.6-29.3-0.3-28.5-10.8-28.5-3.3 0-7.4-0.4-9.1-0.9-1.7-0.6-4.6-1.3-6.4-1.8-2.9-0.7-3.7-1.6-5.9-6.8-1.4-3.3-4.5-13.4-6.8-22.5-5.4-21-10.4-34.9-15.2-42.3-4-6.3-14.9-15.7-21-18.2-2.1-0.9-4.7-2.4-5.8-3.4-2.8-2.6-7.4-4.7-11.9-5.5-2.2-0.4-4.9-1.4-6-2.2-1.5-1-5.3-1.4-13.7-1.4-6.3 0-11.8 0.3-12.2 0.6zm29.6 8.1c0.6 0.6 3.3 1.6 5.9 2.3s5.6 2.3 6.9 3.6c1.2 1.2 3.5 2.6 5.1 2.9 1.9 0.5 6.2 3.9 11.7 9.3 6.8 6.8 9 9.8 10.3 13.7 3.1 9.5 6 17 6.8 18 0.5 0.5 1.3 3.2 1.8 6 0.6 2.7 2 8.6 3.2 13s2.4 9.1 2.7 10.5c0.2 1.4 0.9 3.4 1.5 4.6 0.5 1.1 0.8 3.4 0.6 5-0.3 2.6-0.7 2.9-3.5 2.8-21.9-0.3-22.4-0.4-22.9-2.2-0.3-0.9-0.9-2.4-1.3-3.2-0.5-0.8-1.6-4.9-2.6-9-0.9-4.1-2.6-10.9-3.6-15.1-1.1-4.1-1.9-8.9-1.9-10.6 0-4.8-6.5-20.9-11.3-28.1-5.3-7.9-15.8-18.2-18.4-18.2-2.1 0-6.6-5.3-5.5-6.5 1-1 12.9 0 14.5 1.2zm-47.5 1.6c0.2 0.9-0.8 3.1-2.1 4.7-1.4 1.6-3 4.6-3.7 6.7-0.6 2.1-1.5 4.7-1.9 5.8-1.2 2.9-2.8 12.5-4.2 24.8-1 8.6-1 14 0 27 0.7 8.9 1.7 17 2.2 17.9 1.2 2.3 3.2 2.3 5.3-0.1 1.6-1.7 1.6-2.8 0.5-12.2-2.7-21.6-0.7-48.7 4.3-59.7 1.5-3.4 2.8-6.6 2.8-7s2-2.4 4.4-4.5c6.9-5.7 12.5-4.9 24.2 3.3 3.2 2.2 6.2 4 6.8 4 1.4 0 10.6 9.1 10.6 10.5 0 0.6 1.3 2.6 2.8 4.5 4.7 5.7 7.3 12.2 10.1 25 0.7 3 1.9 8.2 2.7 11.4 2.8 11.1 5.4 28 4.4 29-1.5 1.5-21 2.4-32 1.4-12.8-1.1-55-0.2-60.3 1.3-2.2 0.6-4.4 0.8-5.1 0.6-1.4-0.6-3.2-8.2-4.1-17.2-0.9-9.5-1-36.6-0.1-40.5 1.2-5.7 3.6-13.2 5.7-17.7 1-2.4 1.9-4.8 1.9-5.5 0-3.1 5.1-9.3 10.1-12.4 4.4-2.8 6.3-3.4 9.9-3.2 3.4 0.2 4.6 0.7 4.8 2.1zm107.5 97.7c5.9 0.5 11.6 1.4 12.7 2 1 0.5 3.9 1 6.4 1 9.4 0 9.6 2.3 11.1 97.5 0.6 38.4 2.4 82 3.5 85 0.5 1.4 1 5.4 1 8.8s0.5 7.8 1 9.7c0.6 1.9 1.5 8.9 2 15.5s1.4 19.1 2.1 27.9c1.1 14.4 1 16.3-0.6 21.5-3.8 12-9.1 15-27.4 15.5-6.9 0.2-16.4 0-21.1-0.5-8.2-0.8-77.2-2.3-89.5-2-4.1 0.2-7.6-0.4-10.7-1.8-2.5-1.1-4.9-1.7-5.1-1.4-1.7 1.7-20.1-5.1-22.9-8.4-0.7-0.9-3-2.6-5.1-4-2.3-1.4-4.5-4-5.7-6.6-2.9-6.4-6-35.5-6.1-57.7 0-10.2-0.4-21.7-0.9-25.5-0.6-3.9-1.4-18.5-2-32.5-1-24.7-2.1-47.7-4.1-84-1.5-27.8-1.9-47-0.9-49.4 0.7-2 1.8-2.4 7.2-3 3.5-0.3 8.8-0.8 11.8-1.2 3-0.3 7.8-1.4 10.5-2.4 3.2-1.2 9.6-2.2 18-2.7 14-1 15.8-1 40 0.1 12.4 0.5 20.5 0.2 36-1.3 11-1 21.8-1.7 24-1.5s8.8 0.8 14.8 1.4z" fill="#343434"/>
 <path id="path870" d="m577.9 1046.1c-0.6 0.7-0.8 2.1-0.5 3 0.4 0.9-0.1 3.6-0.9 5.9-0.9 2.3-2.1 6.8-2.7 9.9-0.6 3.2-1.8 7.1-2.6 8.7s-1.9 7.8-2.4 13.7-1.3 11.1-1.8 11.6c-0.4 0.4-4.6-3.8-9.2-9.5-9.4-11.2-10.5-11.8-18.8-9.7-10.1 2.5-16.9 14.7-15.9 28.5 0.2 3.8 1.2 8.7 2.3 10.8 3.2 6.6-0.6 7.2-7.9 1.1-3.2-2.7-16.9-9.4-19.2-9.4-0.8 0-2.4-0.5-3.4-1.2-2.4-1.4-5.1 0.4-5.1 3.3 0 2 1.5 2.9 9 5 4.1 1.1 12.7 5.3 14 6.8 1.6 1.9 10.1 7 13.5 8.2 2.2 0.7 5.1 2.3 6.5 3.4 3.3 2.8 10.3 7.3 16 10.3 2.5 1.4 5.2 3 6 3.6 0.8 0.7 2.8 1.8 4.3 2.4 1.6 0.7 2.7 1.8 2.4 2.5-0.4 1.4-14.4 1.5-26.2 0.3-3.8-0.4-14-1.1-22.5-1.6s-17.5-1.1-20-1.4c-4-0.5-11.1-0.1-40.5 2-4.4 0.3-9.5 1.2-11.3 2.1l-3.3 1.4 0.5 15.2c0.3 8.4 0.8 25.8 1.2 38.7 0.6 23.5 0.9 26.9 3.9 47.5 2.9 19.1 3.3 23.4 5 48 0.8 13.2 1.8 25.6 2.2 27.5s0.7 5.5 0.8 8c0.1 7 3 10.3 11 12.5 5.3 1.4 11.7 1.8 33.8 2.1 36.1 0.5 46.6 1 50.1 2.3 1.8 0.7 7 1 13.7 0.7 6.7-0.2 11.1 0 11.5 0.6s6.5 0.9 15.8 0.8c8.3-0.1 27 0.2 41.6 0.7 36.6 1.1 98.7 0.8 100.3-0.5 0.7-0.6 1.2-3 1.1-5.4s-0.4-22.7-0.7-45.3c-0.5-38.1-1.8-59.4-4.8-81.5-0.5-4.1-1.2-11.1-1.4-15.5-0.3-4.4-0.9-10-1.4-12.5-1.5-7.2-2.2-38.5-0.9-39.8 0.9-0.9 0.6-1.8-1-3.5l-2.2-2.4-33.3 0.2c-18.2 0.1-47.2 0.4-64.2 0.6-17.1 0.1-31.6 0-32.3-0.5-2.1-1.3-1.3-2.6 2.6-4.4 4.3-1.9 12.2-7.9 12.2-9.2 0-0.5 2-3.8 4.5-7.4 2.5-3.7 4.5-7.1 4.5-7.7 0-0.5 0.7-2.4 1.6-4.1 2.1-4.1 2.1-12.6-0.1-17.1-1.8-4-5.4-6.1-11.7-7.2-5.8-0.9-11.2 1.1-17.5 6.6-3.6 3.2-6.5 4.9-7.8 4.7-1.9-0.3-2-1-2-12.8 0-11.7 1.6-23.2 3.7-25.5 0.4-0.5 0.8-1.9 0.8-3.1s0.6-3.7 1.4-5.5c0.7-1.9 1.9-6.5 2.7-10.2 1.1-5.9 1.1-7-0.2-7.8-2-1.2-3.5-1.1-4.8 0.5zm-24.6 47.3c3.7 4.7 7.3 10.5 8 12.7 0.7 2.3 1.8 6 2.5 8.3 1.5 4.8 0.9 27.8-0.7 29.4-2.6 2.6-22.8-11.7-29.1-20.6-5.4-7.7-6.7-16.6-3.7-26.9 2-6.7 7.5-11.4 13.7-11.5 2.2-0.1 3.8 1.4 9.3 8.6zm53.3 14.9c1.8 1.3 2.2 2.5 2.2 7.3 0 3.8-0.5 6.3-1.4 7-0.8 0.7-1.7 2.2-2 3.4-1.8 7.5-13.6 21.7-17.9 21.7-0.9 0-1.9 0.5-2.2 1.1-0.4 0.5-1.8 1.4-3.1 1.9s-2.9 2.1-3.4 3.6c-0.7 1.8-1.6 2.5-3.2 2.2-1.7-0.2-2.5-1.4-3.5-5.3-1.9-6.9-1.3-19.7 1-22.2 0.9-1.1 1.7-2.5 1.7-3.2 0-3 10.3-14 16.5-17.8 3-1.8 12.6-1.6 15.3 0.3zm-83.8 51.4c11 1.3 42.9 4 49.9 4.3l5.5 0.2 1.2 4.8c0.8 3 1.3 13.4 1.3 27.4 0.1 12.4 0.4 23 0.7 23.4 1 1.7 0.9 40-0.1 40.9-1.5 1.2-7.1 1.3-39 0.5-41.9-1-45.5-1.2-53.7-2.5-6.3-1.1-10.2-1.1-20.5 0-15.7 1.5-17.7 1.3-18.1-2-0.1-1.4-0.7-4.1-1.2-6-2-7.5-3-23.1-3.5-54.8l-0.5-33.1 2.3-1.3c1.2-0.7 4.7-1.3 7.7-1.4s10.7-0.7 17-1.2c12.6-1.1 37.7-0.6 51 0.8zm190.1 3.7c0.4 0.4 1 7.3 1.2 15.3 0.3 8 1 18.5 1.7 23.5 0.6 4.9 1.3 11.2 1.5 14 0.2 2.7 1.3 12.9 2.4 22.5 1.4 12.4 1.7 17.8 0.9 18.7-0.8 1-9.7 1.3-39.7 1.3-21.2 0-45.3 0.5-53.6 1.1-20.8 1.5-33.6 1.8-36.2 0.8-2.1-0.8-2.2-1.5-2.7-15.6-2-66.4-2.3-79.9-1.7-80.6 0.4-0.4 19.7-0.9 43-1.1 23.3-0.3 42.5-0.7 42.9-1 0.8-0.9 39.4 0.2 40.3 1.1zm-26.4 101.4c14.2 0.1 28.1 0.4 30.8 0.7l5 0.7 0.2 12c0.7 35.1 0.5 75.7-0.3 76.5-1.3 1.3-31.6 2.9-49.4 2.5-52.7-1.2-70.9-1.8-73.8-2.4-6.2-1.2-6.9-6.4-8.7-63.6-0.2-8.8-0.7-17.4-1-19.2-0.7-3.8 0.5-4.7 6-4.9 2.2-0.1 12.3-0.5 22.5-0.9 10.2-0.5 22.2-0.9 26.7-0.9 4.5-0.1 8.5-0.5 9-0.9 0.4-0.5 2.2-0.6 4-0.2 1.8 0.3 14.8 0.6 29 0.6zm-189.8 1.3c0.6 0.4 19.8 0.9 42.7 1.2 23 0.3 42 0.7 42.4 0.9 1 0.6 2 15.6 2.7 38 0.2 9.9 0.6 19.6 0.7 21.5 0.2 1.9 0.5 8.7 0.7 15l0.4 11.5-16.5 0.1c-9.1 0-20.1-0.5-24.5-1.2-7.6-1.2-55.9-3-67.3-2.5-7.5 0.3-16-1.8-18.1-4.5-1.8-2.3-2.8-10.4-5.1-42.4-0.6-8-1.6-19.1-2.2-24.8-0.7-6.8-0.8-10.6-0.1-11.3 0.5-0.5 5.2-1.2 10.4-1.5s9.5-0.7 9.6-0.8c0.6-0.6 23.2 0.2 24.2 0.8z" fill="#343434"/>
 <path id="path872" d="m20.901 1125.1c-2.5 2.6-2.4 2.7 2.9 11.1 1 1.6 1.9 4.2 1.9 5.7 0.1 2.5 2.3 8.2 5.7 15 2.1 3.9 1.8 4.4-4 7.8-3 1.7-7.5 4.7-10 6.8-2.4 2-6.8 4.6-9.6 5.7s-5.9 2.8-6.7 3.7c-1.5 1.7-1.5 2 0.2 3.8 1 1.1 3 2 4.5 2s5.8 1.1 9.6 2.4c4.5 1.6 12 3 21.6 4 8.2 0.8 15.2 1.8 15.8 2.1 0.5 0.3 1 1.3 1 2.1s1.3 4.2 2.9 7.7c1.6 3.4 3.7 9.1 4.7 12.7 0.9 3.6 2.3 7.7 3.1 9.2 0.7 1.5 1.3 3.6 1.3 4.6 0 2 2.9 5.2 4.8 5.2 1.6 0 6.2-7.5 6.2-10 0-3.1 8.6-19.3 12.2-22.9 3.6-3.7 8.7-6.1 13.1-6.1 1.6 0 7.5-1.6 13.1-3.4 5.6-1.9 11.5-3.6 13.1-3.8 2.5-0.2 3-0.8 3-2.8 0-1.9-0.6-2.6-2.5-2.8-1.4-0.2-2.9-0.8-3.5-1.3-0.5-0.5-2.1-0.9-3.5-0.9s-3-0.4-3.5-0.8c-0.6-0.5-3-1.4-5.5-2.1-2.5-0.8-7.4-2.8-11-4.6-7.5-3.8-7.8-4.8-4.2-15 1.2-3.3 3.1-10.5 4.3-16s2.6-10.4 3.1-10.9c1.7-2 0.9-7.5-1.3-8.6-1.7-1-2.9-0.6-7.5 2.7-14.4 10.1-18 11.9-27.5 13.2l-7.2 1-11.5-5.5c-6.3-3-11.7-5.4-12-5.4-1 0-9.7-4.3-12.3-6.1s-2.7-1.8-4.8 0.5zm18.9 12.4c2.5 1.1 6.3 2.8 8.5 3.7 5.7 2.3 9.7 4.5 12.2 6.7 2.3 2.1 4.9 1.8 8.8-0.8 1.1-0.8 3.4-1.4 5.1-1.4s3.7-0.7 4.4-1.5 1.7-1.5 2.4-1.5c0.6 0 3.4-1.6 6.1-3.5 6.4-4.3 9.9-4.9 10.3-1.7 0.2 1.3-0.1 2.8-0.6 3.5s-1.5 4.3-2.2 8.2c-0.7 3.8-1.8 8.3-2.5 10-0.7 1.6-1.6 4-2 5.3-0.3 1.2-2 2.9-3.6 3.8-2.4 1.2-2.9 2-2.4 3.7 0.9 3 4.2 5.7 7.2 5.7 1.3 0 4.8 1.1 7.6 2.4 2.9 1.3 7.4 3.2 10.2 4.4 5.4 2.2 6.7 3.9 3.8 4.8-1 0.3-2.5 0.9-3.5 1.4-0.9 0.5-4 1.2-7 1.6-6.1 0.7-17 5.5-21 9.2-1.6 1.4-2.8 3.6-2.8 4.9 0 3.1-6.9 16.5-8.3 16-0.6-0.2-1.4-1-1.8-1.8-1.1-2-7.9-25.6-7.9-27.3 0-2.5-4.5-4.4-13-5.4-4.5-0.6-8.8-0.8-9.5-0.6-1.7 0.7-21.8-3.5-23-4.7-1.4-1.5 8.7-10.2 15.5-13.4 9.9-4.7 10.5-5 10.8-7.3 0.2-1.2-0.1-2.2-0.6-2.2-1.3 0-8.9-16.1-9.8-20.4-0.7-4.2 0.1-5.9 2.4-4.8 0.9 0.5 3.7 1.8 6.2 3z" fill="#343434"/>
</svg>
