<?xml version="1.0" standalone="no"?>
<!DOCTYPE svg PUBLIC "-//W3C//DTD SVG 20010904//EN"
 "http://www.w3.org/TR/2001/REC-SVG-20010904/DTD/svg10.dtd">
<svg version="1.0" xmlns="http://www.w3.org/2000/svg"
 width="2593.730669pt" height="2657.295810pt" viewBox="0 0 2593.730669 2657.295810"
 preserveAspectRatio="xMidYMid meet">
<metadata>
Created by potrace 1.15, written by Peter Selinger 2001-2017
</metadata>
<g transform="translate(-220.000000,2828.912864) scale(0.100000,-0.100000)"
fill="#000000" stroke="none">
<path d="M18525 28277 c-59 -36 -82 -87 -78 -169 3 -54 -1 -74 -17 -100 -11
-18 -20 -42 -20 -52 0 -21 -17 -81 -31 -108 -5 -10 -9 -34 -9 -53 0 -22 -4
-34 -10 -30 -5 3 -10 -3 -10 -14 0 -12 -17 -39 -37 -62 -20 -22 -37 -48 -38
-57 -2 -21 -34 -79 -56 -102 -8 -9 -22 -33 -30 -52 -8 -20 -44 -71 -82 -113
-37 -42 -67 -79 -67 -83 0 -4 -14 -16 -30 -27 -17 -11 -28 -25 -26 -31 4 -11
-64 -77 -74 -72 -7 4 -100 -91 -100 -102 0 -10 -39 -25 -58 -21 -7 1 -15 -6
-19 -16 -7 -21 -38 -53 -51 -53 -16 0 -122 -114 -122 -132 0 -9 -4 -20 -10
-23 -10 -6 -8 -40 3 -51 4 -4 7 -15 7 -25 0 -10 6 -22 13 -26 8 -4 16 -16 20
-25 4 -12 18 -18 39 -19 40 -2 35 -3 81 14 33 12 107 80 107 100 0 4 7 7 16 7
9 0 24 8 33 19 9 10 26 21 39 25 12 4 22 12 22 17 0 5 4 9 9 9 10 0 67 46 90
74 31 38 76 76 88 76 7 0 10 7 7 15 -4 10 14 34 50 69 31 29 56 58 56 64 0 6
25 38 56 69 31 32 63 69 72 83 9 14 27 33 39 43 13 10 23 26 23 36 0 19 43
112 71 152 10 14 16 29 12 33 -3 3 -2 6 4 6 13 0 77 140 92 205 7 27 16 54 20
60 5 5 11 21 15 35 4 14 13 49 22 78 8 30 12 58 9 62 -3 5 8 28 25 51 24 33
30 52 30 91 0 26 -4 48 -10 48 -5 0 -10 7 -10 16 0 8 -19 24 -45 35 -24 11
-47 24 -50 29 -8 14 -56 12 -80 -3z"/>
<path d="M20102 28115 c3 -13 1 -22 -4 -19 -10 7 -48 -24 -48 -38 0 -5 -13
-29 -30 -53 -16 -24 -30 -50 -30 -59 0 -8 -11 -27 -25 -42 -14 -15 -25 -37
-25 -49 0 -21 -33 -72 -77 -121 -11 -12 -25 -35 -32 -53 -8 -17 -17 -31 -22
-31 -5 0 -9 -6 -9 -12 0 -7 -27 -39 -60 -71 -33 -31 -60 -60 -60 -63 0 -6 -16
-26 -57 -72 -18 -19 -33 -39 -33 -44 0 -4 -7 -8 -15 -8 -9 0 -34 -18 -56 -40
-22 -22 -45 -40 -51 -40 -11 0 -53 -35 -133 -110 -49 -46 -99 -82 -109 -81
-24 4 -36 -1 -36 -14 0 -8 -3 -15 -7 -15 -5 0 -30 -21 -56 -45 -26 -25 -53
-45 -60 -45 -7 0 -26 -14 -42 -30 -16 -17 -35 -28 -42 -26 -14 6 -37 -14 -53
-45 -6 -10 -19 -19 -29 -19 -10 0 -24 -7 -31 -15 -14 -17 -125 -22 -134 -6
-20 31 -127 15 -152 -24 -28 -42 -35 -97 -17 -118 9 -10 23 -15 30 -13 9 4 15
-7 19 -34 6 -36 9 -39 46 -45 23 -4 44 -3 50 3 7 7 17 5 31 -8 18 -18 43 -24
134 -35 18 -2 40 -10 47 -18 8 -8 31 -18 50 -21 18 -4 39 -13 46 -21 7 -8 19
-15 26 -15 8 0 13 -3 13 -7 -3 -19 3 -22 27 -12 24 8 25 8 14 -6 -10 -12 -10
-15 2 -15 8 0 19 -5 25 -11 18 -18 112 -49 129 -42 8 3 14 1 14 -3 0 -14 62
-38 91 -36 15 1 32 -5 40 -14 7 -9 22 -20 34 -25 11 -5 27 -13 35 -17 44 -25
62 -32 86 -32 14 0 55 -8 92 -17 51 -14 66 -15 70 -5 2 8 11 4 24 -13 13 -17
28 -25 46 -23 30 2 72 -17 72 -32 0 -6 10 -10 23 -10 12 0 29 -9 37 -19 7 -11
17 -18 22 -15 4 3 8 -1 8 -9 0 -16 21 -27 48 -27 10 0 23 -9 30 -20 7 -11 21
-20 32 -20 11 0 20 -6 20 -13 0 -7 10 -19 21 -27 12 -8 27 -21 35 -27 7 -7 17
-13 23 -13 19 0 156 -68 178 -89 12 -12 28 -21 34 -21 7 0 27 -11 45 -25 18
-14 35 -25 39 -25 3 0 18 -11 33 -25 15 -14 32 -25 39 -25 7 0 18 -9 25 -20 7
-11 16 -20 21 -20 10 0 71 -42 75 -52 2 -5 12 -8 23 -8 10 0 19 -4 19 -10 0
-5 7 -10 15 -10 9 0 15 -9 15 -25 0 -15 6 -25 15 -25 8 0 19 -9 25 -20 6 -11
15 -18 21 -15 5 4 9 -3 9 -14 0 -11 10 -26 23 -32 12 -7 32 -23 44 -36 12 -12
28 -23 36 -23 8 0 19 -12 25 -26 7 -14 17 -22 23 -18 6 4 9 -1 7 -13 -3 -20
77 -113 98 -113 16 0 74 -61 85 -89 6 -15 15 -21 24 -17 9 3 15 0 15 -9 0 -17
18 -52 37 -72 6 -7 25 -41 42 -75 16 -35 41 -75 56 -91 14 -15 32 -42 40 -60
8 -17 25 -44 39 -59 14 -15 26 -32 26 -38 0 -23 36 -76 49 -72 10 3 12 0 8
-11 -3 -9 1 -21 8 -27 8 -7 12 -16 9 -21 -3 -5 17 -43 45 -85 28 -42 51 -84
51 -95 0 -10 4 -19 9 -19 5 0 19 -20 31 -45 12 -25 27 -48 34 -53 6 -4 22 -32
36 -62 13 -30 33 -65 43 -77 11 -12 16 -26 13 -31 -3 -6 7 -36 24 -68 16 -31
27 -61 24 -65 -2 -4 0 -10 6 -14 5 -3 10 -23 10 -44 0 -25 7 -44 19 -55 11
-10 23 -35 26 -57 4 -23 16 -45 28 -54 15 -10 17 -15 7 -15 -10 0 -11 -3 -3
-8 11 -7 14 -19 56 -224 13 -65 31 -126 39 -135 15 -17 34 -106 37 -167 0 -16
8 -51 16 -79 8 -28 15 -72 15 -99 0 -27 5 -48 10 -48 6 0 16 -4 23 -10 7 -5
25 -20 40 -32 30 -25 29 -58 -2 -58 -17 1 -124 15 -176 24 -16 3 -55 10 -85
15 -30 5 -73 16 -95 25 -22 8 -56 15 -75 16 -30 0 -79 10 -140 26 -68 18 -151
33 -182 34 -20 0 -39 4 -42 9 -9 14 -118 31 -237 36 -63 3 -122 8 -132 11 -30
9 -104 14 -294 18 -100 2 -186 7 -191 10 -5 3 -15 -1 -21 -8 -9 -10 -21 -12
-44 -6 -79 20 -104 19 -125 -3 -55 -61 -70 -154 -29 -187 12 -11 30 -17 39
-14 13 4 16 1 12 -11 -5 -11 0 -18 15 -22 11 -3 21 -9 21 -14 0 -10 41 -8 57
3 6 5 53 11 105 14 51 3 110 9 130 14 21 4 36 4 33 0 -3 -5 43 -8 103 -7 59 0
112 -2 117 -5 6 -3 37 -6 70 -7 33 -1 107 -6 165 -11 58 -6 113 -11 123 -11 9
0 17 -4 17 -7 0 -4 14 -9 30 -10 17 -1 62 -9 101 -17 39 -8 88 -15 110 -15 22
0 54 -7 71 -16 17 -9 39 -14 49 -11 10 3 20 -1 23 -9 3 -8 16 -14 30 -14 14 0
36 -4 49 -9 30 -12 84 -23 119 -25 14 0 30 -4 34 -8 4 -5 18 -8 30 -8 13 0 25
-4 28 -9 3 -5 61 -12 128 -16 184 -10 252 -18 368 -41 49 -10 99 -11 94 -3 -7
12 -2 11 33 -6 19 -9 71 -17 134 -20 57 -3 105 -9 107 -15 2 -5 14 -7 27 -4
12 3 26 1 29 -5 4 -6 31 -11 60 -11 138 0 540 -53 598 -79 21 -9 37 -18 37
-21 0 -12 -178 -91 -216 -96 -24 -4 -43 -10 -43 -15 0 -5 -6 -9 -14 -9 -8 0
-16 -5 -18 -11 -2 -6 -28 -15 -58 -20 -30 -5 -64 -13 -75 -18 -11 -5 -40 -14
-64 -21 -25 -7 -56 -16 -70 -22 -14 -5 -28 -9 -29 -8 -2 1 -16 -9 -30 -22 -15
-14 -45 -30 -67 -36 -22 -6 -62 -18 -90 -27 -27 -9 -60 -19 -72 -22 -13 -3
-23 -9 -23 -13 0 -12 -88 -53 -104 -47 -8 3 -25 -3 -37 -14 -12 -11 -34 -22
-48 -26 -14 -3 -35 -14 -46 -24 -11 -9 -37 -20 -57 -24 -21 -4 -42 -13 -49
-21 -6 -8 -17 -14 -23 -14 -6 0 -24 -7 -41 -16 -16 -8 -45 -16 -65 -18 -20 -2
-47 -9 -60 -16 -14 -8 -47 -17 -75 -21 -27 -3 -77 -17 -110 -29 -33 -12 -77
-24 -97 -26 -21 -2 -51 -10 -67 -19 -17 -8 -40 -15 -51 -15 -12 0 -34 -8 -48
-19 -15 -10 -44 -21 -64 -25 -20 -4 -60 -22 -89 -41 -28 -20 -63 -38 -78 -41
-14 -4 -33 -13 -42 -20 -8 -8 -28 -15 -43 -16 -15 -1 -32 -8 -38 -15 -6 -7
-19 -13 -29 -13 -9 0 -24 -6 -31 -13 -22 -21 -70 -35 -139 -40 -36 -2 -81 -11
-100 -20 -43 -19 -144 -41 -155 -34 -15 8 -156 -22 -174 -38 -8 -8 -24 -13
-35 -13 -11 1 -49 -12 -85 -30 -36 -17 -78 -33 -94 -36 -15 -3 -43 -16 -61
-30 -19 -14 -44 -28 -57 -30 -13 -3 -25 -5 -28 -6 -3 -2 -9 -2 -14 -1 -4 1
-13 -5 -20 -13 -6 -9 -27 -18 -46 -20 -19 -3 -61 -14 -92 -26 -32 -11 -71 -20
-87 -20 -17 0 -45 -6 -63 -14 -18 -8 -68 -20 -111 -27 -43 -6 -80 -16 -83 -21
-3 -4 -9 -6 -14 -3 -4 3 -13 -2 -20 -10 -7 -8 -28 -15 -46 -15 -19 0 -34 -4
-34 -10 0 -5 -10 -9 -22 -9 -13 1 -48 -6 -78 -15 -30 -9 -91 -25 -135 -35 -44
-11 -95 -27 -112 -36 -18 -9 -37 -14 -42 -11 -13 8 -27 -15 -29 -49 -1 -16 -7
-40 -13 -52 -16 -30 19 -120 45 -115 9 2 24 -4 33 -13 10 -10 24 -14 37 -10
12 3 47 11 79 16 31 6 57 16 57 21 0 6 6 8 14 5 25 -10 156 27 156 45 0 3 17
12 38 18 20 7 44 18 52 25 18 14 97 47 125 50 11 2 33 8 48 14 16 6 45 11 66
11 22 0 44 6 51 15 7 9 22 12 38 9 16 -3 47 3 75 15 27 12 53 18 58 15 6 -3
15 -1 22 4 7 5 27 13 46 17 19 4 50 14 70 23 20 9 39 15 44 14 4 -1 36 16 71
38 35 22 68 40 73 39 4 -1 21 3 36 9 16 7 33 12 38 12 5 0 19 8 30 19 21 19
58 31 118 38 18 2 41 8 51 13 18 10 97 30 140 36 14 2 45 10 69 19 24 8 56 15
72 15 16 0 38 9 49 20 15 15 36 22 75 23 39 2 63 9 87 27 18 14 42 26 53 26
46 4 141 28 150 38 11 14 127 70 165 81 14 4 32 13 40 20 14 11 139 45 168 45
7 0 24 7 38 16 14 9 43 19 66 21 23 2 49 10 58 18 9 8 24 15 33 15 9 0 18 4
21 9 3 4 32 11 65 14 33 3 75 13 93 22 42 21 137 47 148 40 5 -3 11 -1 15 5 3
5 14 10 24 10 9 0 27 11 39 25 12 13 34 28 49 31 15 4 45 21 65 37 20 16 41
26 47 22 6 -3 14 1 17 9 3 9 10 14 15 11 4 -3 16 -1 26 4 33 18 108 49 145 61
21 6 40 16 43 21 4 5 15 9 25 9 10 0 20 5 22 11 5 16 88 50 88 37 0 -9 3 -9
12 0 7 7 22 12 34 12 13 0 25 4 28 9 3 5 31 11 61 13 37 3 60 10 68 22 13 17
53 27 111 26 15 0 35 5 42 11 8 6 14 9 14 5 0 -3 18 5 40 19 22 14 46 25 54
25 8 0 18 5 21 10 3 6 15 10 26 10 10 0 19 4 19 10 0 5 16 12 35 16 19 3 38
10 41 15 3 5 22 9 43 9 24 0 47 8 61 20 24 21 25 21 80 26 19 1 36 7 38 13 2
6 19 11 37 11 39 0 86 16 97 33 5 9 8 8 8 -3 0 -20 39 23 68 78 30 54 24 86
-26 140 -20 22 -47 53 -59 69 l-22 28 -143 1 c-79 0 -165 6 -193 13 -27 7 -75
15 -105 17 -118 9 -238 27 -301 44 -63 17 -106 19 -129 5 -6 -3 -48 1 -93 9
-45 9 -131 20 -192 26 -60 6 -121 13 -135 15 -14 2 -79 8 -145 15 -66 7 -125
16 -131 21 -7 5 -29 9 -50 7 -22 -1 -58 -1 -81 0 -41 2 -43 4 -43 32 0 21 4
28 14 24 8 -3 25 9 40 28 21 28 24 41 20 74 -10 71 -34 159 -54 202 -11 22
-20 52 -20 66 0 14 -4 27 -9 31 -5 3 -9 19 -9 35 1 16 -4 35 -10 42 -10 13
-41 121 -46 163 -1 11 -8 36 -14 55 -6 19 -13 51 -16 70 -6 50 -25 120 -42
152 -8 14 -14 36 -14 47 0 12 -4 21 -10 21 -5 0 -13 18 -16 40 -4 24 -14 45
-25 51 -11 5 -16 16 -12 25 3 8 -1 20 -9 27 -8 7 -20 31 -26 53 -7 23 -19 47
-27 54 -8 7 -17 27 -21 46 -3 19 -10 34 -15 34 -5 0 -9 11 -9 24 0 13 -9 35
-21 50 -11 15 -18 33 -15 41 3 8 2 15 -3 15 -5 0 -14 14 -21 30 -7 17 -16 30
-21 30 -5 0 -9 8 -9 18 0 15 -24 45 -100 128 -11 12 -23 36 -26 53 -4 17 -10
31 -15 31 -4 0 -11 10 -15 23 -15 49 -56 128 -68 133 -7 3 -24 28 -37 57 -13
29 -38 73 -56 99 -18 27 -34 56 -36 66 -1 10 -12 31 -24 46 -12 15 -25 36 -28
47 -4 10 -11 19 -16 19 -22 0 -51 38 -44 59 5 15 2 21 -9 21 -9 0 -16 5 -16
11 0 17 -163 176 -185 180 -11 2 -24 13 -30 24 -5 11 -21 32 -35 46 -14 14
-47 51 -74 82 -27 31 -56 57 -63 57 -23 0 -42 26 -36 49 3 11 1 21 -5 21 -6 0
-33 18 -61 40 -28 22 -55 40 -60 40 -5 0 -14 14 -20 30 -5 17 -16 30 -23 30
-8 0 -28 14 -46 30 -18 17 -40 30 -48 30 -8 0 -20 14 -26 30 -6 19 -19 32 -34
36 -13 3 -24 10 -24 14 0 4 -11 11 -25 14 -14 4 -25 13 -25 21 0 8 -9 15 -20
15 -24 0 -70 20 -70 31 0 5 -13 6 -28 3 -19 -4 -32 -1 -41 10 -8 9 -21 16 -31
16 -9 0 -33 11 -52 23 -19 13 -46 27 -61 31 -15 3 -27 11 -27 16 0 6 -6 10
-14 10 -8 0 -21 8 -28 18 -7 9 -35 28 -63 42 -27 14 -63 37 -80 53 -41 38
-138 82 -210 95 -33 6 -89 16 -125 22 -36 7 -78 19 -93 27 -16 8 -37 16 -47
18 -10 2 -37 12 -62 24 -24 11 -74 25 -111 31 -37 7 -67 16 -67 20 0 4 -20 11
-45 14 -29 5 -54 17 -72 35 -16 15 -35 30 -44 33 -33 13 -29 45 12 82 21 20
45 36 53 36 8 0 29 13 46 29 76 71 87 81 93 81 4 0 45 30 91 68 46 37 99 78
117 92 67 50 179 154 179 166 0 5 16 19 35 32 19 12 35 29 35 37 0 8 4 15 10
15 5 0 27 16 47 35 20 19 41 35 45 35 4 0 8 6 8 13 0 8 8 23 18 34 9 12 33 40
52 63 19 24 41 49 48 56 6 7 12 16 12 21 0 7 17 36 62 102 10 14 29 51 43 81
14 30 29 57 33 60 12 8 32 49 32 63 0 7 11 28 25 47 28 38 32 72 11 90 -8 6
-12 18 -10 25 6 16 -39 88 -49 79 -4 -4 -12 -2 -19 3 -7 6 -28 13 -47 17 -31
6 -33 4 -29 -19z m68 -95 c0 -5 -7 -10 -16 -10 -8 0 -12 5 -9 10 3 6 10 10 16
10 5 0 9 -4 9 -10z m-500 -780 c0 -5 -4 -10 -10 -10 -5 0 -10 5 -10 10 0 6 5
10 10 10 6 0 10 -4 10 -10z m-273 -137 c-9 -9 -19 -14 -23 -11 -10 10 6 28 24
28 15 0 15 -1 -1 -17z m-119 -120 c2 -8 -5 -13 -17 -13 -12 0 -21 6 -21 16 0
18 31 15 38 -3z m-322 -409 c-5 -14 -9 -15 -19 -5 -9 9 -9 14 3 21 18 11 24 6
16 -16z m1258 -533 c3 -5 -1 -14 -8 -20 -12 -10 -13 -8 -9 8 6 23 9 25 17 12z
m248 -3063 c-7 -7 -12 -8 -12 -2 0 14 12 26 19 19 2 -3 -1 -11 -7 -17z"/>
<path d="M17443 28105 c-11 -13 -27 -41 -33 -62 -7 -21 -17 -44 -23 -51 -6 -7
-7 -33 -2 -65 10 -68 9 -188 -2 -196 -13 -9 -43 -114 -43 -151 0 -20 -10 -46
-25 -66 -13 -17 -30 -53 -37 -78 -7 -25 -16 -46 -20 -46 -4 0 -8 -6 -8 -14 0
-8 -6 -21 -13 -28 -13 -14 -67 -136 -67 -153 0 -5 -16 -27 -34 -47 -19 -21
-43 -52 -53 -70 -10 -18 -38 -53 -64 -78 -25 -25 -58 -64 -73 -87 -14 -24 -32
-43 -39 -43 -7 0 -26 -13 -42 -30 -16 -16 -34 -30 -40 -30 -18 0 -95 -40 -95
-49 0 -5 -17 -12 -37 -16 -21 -4 -43 -11 -49 -16 -7 -5 -16 -9 -20 -8 -5 1
-22 -3 -37 -9 -16 -7 -38 -12 -51 -12 -12 0 -41 -9 -64 -20 -22 -11 -54 -20
-71 -20 -16 0 -37 -7 -46 -16 -8 -9 -22 -14 -29 -11 -7 3 -25 0 -39 -8 -14 -7
-53 -16 -86 -20 -34 -4 -63 -11 -66 -15 -3 -4 -28 -11 -55 -15 -27 -4 -66 -18
-86 -32 -21 -13 -50 -25 -65 -25 -16 -1 -37 -9 -48 -20 -11 -10 -29 -18 -40
-18 -10 0 -66 -11 -123 -24 -56 -13 -134 -27 -173 -31 -38 -4 -86 -11 -105
-16 -19 -5 -71 -11 -115 -15 -44 -3 -83 -8 -87 -10 -4 -3 -55 -9 -113 -14 -70
-6 -119 -16 -143 -29 -20 -10 -64 -25 -97 -32 -33 -7 -67 -18 -76 -26 -8 -7
-21 -13 -27 -13 -7 0 -12 -4 -12 -9 0 -4 -28 -12 -62 -15 -35 -4 -66 -13 -70
-19 -3 -6 -22 -11 -40 -11 -21 -1 -32 -6 -31 -13 3 -13 -2 -15 -42 -18 -11 -1
-46 -13 -77 -28 -32 -15 -68 -29 -82 -33 -13 -3 -26 -14 -29 -23 -2 -10 -17
-21 -33 -25 -16 -4 -43 -18 -61 -32 -17 -13 -34 -24 -37 -24 -6 0 -36 -24 -94
-77 -19 -17 -40 -29 -46 -27 -6 2 -33 -16 -61 -41 -27 -25 -53 -45 -58 -45 -4
0 -11 -10 -16 -23 -5 -13 -16 -24 -23 -24 -17 0 -78 -43 -78 -55 0 -4 -5 -8
-10 -8 -23 0 -180 -133 -180 -152 0 -13 -39 -48 -53 -48 -7 0 -21 -16 -30 -36
-10 -19 -42 -58 -71 -85 -30 -27 -57 -61 -60 -74 -4 -14 -12 -25 -19 -25 -7 0
-23 -13 -35 -30 -13 -16 -29 -30 -38 -30 -8 0 -19 -12 -24 -26 -11 -27 -60
-97 -72 -102 -5 -2 -8 -7 -8 -12 0 -4 -14 -23 -32 -41 -17 -19 -39 -53 -49
-75 -11 -23 -27 -44 -37 -46 -11 -3 -22 -18 -25 -37 -4 -17 -18 -43 -32 -57
-15 -15 -25 -36 -25 -54 0 -29 -5 -42 -53 -138 -15 -28 -27 -58 -27 -66 0 -7
-9 -16 -20 -19 -14 -4 -20 -14 -20 -34 0 -40 -59 -206 -79 -223 -12 -10 -31
-50 -31 -67 0 -10 -10 -47 -21 -83 -11 -36 -23 -76 -25 -90 -3 -13 -10 -30
-15 -36 -5 -7 -11 -26 -14 -43 -2 -17 -7 -35 -10 -42 -4 -6 -7 -28 -7 -50 1
-21 -5 -45 -12 -51 -14 -15 -36 -158 -24 -158 4 0 8 -11 8 -25 0 -14 -4 -25
-9 -25 -4 0 -9 -44 -9 -97 -1 -54 -6 -141 -12 -193 -10 -99 -9 -610 2 -740 3
-42 14 -104 23 -139 9 -35 17 -89 19 -121 1 -33 8 -66 16 -74 7 -9 16 -35 21
-59 15 -74 18 -87 23 -96 4 -5 17 -69 31 -143 33 -172 42 -205 61 -212 8 -3
12 -11 9 -16 -4 -6 0 -22 9 -35 9 -14 16 -45 16 -73 0 -26 4 -52 9 -58 5 -5
14 -32 19 -59 6 -28 17 -64 23 -80 7 -17 13 -34 14 -40 0 -5 6 -19 12 -30 6
-11 11 -22 10 -25 0 -3 7 -27 15 -55 35 -112 52 -170 53 -178 0 -4 6 -11 13
-16 8 -4 16 -28 19 -52 2 -24 11 -60 18 -79 7 -20 11 -57 9 -83 -3 -43 0 -50
31 -82 19 -19 35 -39 35 -45 0 -5 11 -10 25 -10 14 0 25 -4 25 -10 0 -5 23
-10 50 -10 46 0 50 2 50 23 0 13 6 37 14 53 26 54 29 74 11 74 -15 0 -16 8
-10 65 5 51 3 69 -9 87 -9 12 -16 35 -16 51 0 15 -7 30 -15 33 -8 4 -15 11
-15 17 0 6 -11 41 -24 77 -14 36 -28 74 -32 85 -4 11 -9 32 -11 47 -1 15 -12
54 -23 85 -22 62 -61 222 -65 263 -1 14 -5 34 -9 45 -32 85 -77 249 -83 305
-3 25 -8 47 -12 50 -13 10 -31 62 -31 90 0 17 -4 30 -9 30 -20 0 -44 111 -45
218 -1 31 -6 56 -14 61 -7 4 -14 33 -17 67 -2 32 -8 91 -13 129 -6 39 -13 149
-17 245 -3 96 -11 193 -16 214 -7 26 -8 83 -1 170 5 72 10 147 10 166 1 63 21
275 27 295 4 11 14 35 22 53 8 19 17 57 19 85 5 47 20 90 60 170 8 16 14 37
14 47 0 10 5 22 10 25 6 3 10 16 10 29 0 12 5 27 12 34 16 16 38 84 31 96 -4
6 1 7 13 2 10 -4 15 -4 11 0 -4 4 -1 17 7 28 7 12 17 40 20 63 4 23 14 44 22
47 8 3 14 15 14 26 0 11 9 37 20 57 11 21 20 47 20 59 0 12 6 24 14 27 8 3 17
21 21 39 4 18 16 40 26 49 11 9 19 21 19 27 0 18 41 92 51 92 5 0 15 14 24 30
9 17 22 30 30 30 8 0 18 12 21 28 4 15 10 32 14 37 4 6 11 24 14 42 4 17 18
39 31 47 34 22 75 68 75 84 0 7 4 11 9 7 5 -3 43 30 84 72 71 74 161 165 187
189 7 7 32 33 56 58 25 25 50 46 57 46 6 0 27 14 46 30 18 17 37 30 41 30 11
0 110 98 110 109 0 6 8 11 18 11 11 0 27 9 37 20 9 10 20 18 24 17 3 -1 20 12
37 28 39 38 121 98 146 107 12 5 16 13 12 20 -6 10 -4 10 8 0 13 -10 17 -10
22 3 4 11 13 14 26 10 13 -4 22 -1 26 9 4 9 12 15 18 14 14 -3 89 33 94 45 2
4 17 7 33 7 16 0 29 5 29 10 0 6 7 10 15 10 9 0 18 7 21 15 4 10 20 15 44 15
22 0 42 5 45 10 3 6 19 10 36 10 16 0 39 5 52 12 48 25 57 28 78 28 11 0 29 5
39 10 11 6 41 13 67 16 26 3 53 9 58 14 6 5 28 9 50 9 22 0 55 4 74 10 19 6
38 8 42 5 5 -3 9 0 9 6 0 8 9 10 25 6 21 -5 82 5 135 22 8 2 26 6 40 8 14 1
59 8 100 13 41 6 102 13 135 16 33 3 65 11 70 18 6 7 37 13 70 15 33 1 63 8
67 15 4 6 20 10 37 9 16 -2 32 1 36 7 3 6 13 11 22 11 9 0 35 9 57 19 23 10
65 24 94 31 28 7 52 16 52 20 0 10 49 22 100 25 19 1 53 7 75 13 22 6 59 13
83 16 24 2 50 10 58 17 8 7 25 14 37 15 76 11 104 19 118 35 9 11 21 19 26 19
5 0 29 10 54 22 24 11 51 21 59 21 8 0 21 6 28 14 7 7 25 16 40 19 15 4 35 14
45 22 9 8 17 12 17 9 0 -4 19 12 43 36 24 23 41 48 39 55 -2 6 2 12 10 12 8 0
21 11 28 25 7 14 17 25 22 25 12 0 158 148 158 160 0 6 7 10 16 10 8 0 12 5 8
11 -3 6 -2 14 3 18 13 9 53 80 53 95 0 7 8 24 19 37 10 13 21 42 25 64 4 22
15 51 24 65 9 14 15 31 14 38 -2 6 1 12 5 12 8 0 27 33 55 100 9 19 22 51 31
70 32 73 58 154 52 167 -3 8 -2 20 2 26 8 13 10 22 19 95 4 29 2 85 -5 125 -7
45 -8 94 -2 130 8 56 7 60 -22 93 -17 19 -37 34 -44 34 -8 0 -16 7 -19 15 -8
21 -25 17 -51 -10z m-3153 -2249 c0 -3 -4 -8 -10 -11 -5 -3 -10 -1 -10 4 0 6
5 11 10 11 6 0 10 -2 10 -4z"/>
<path d="M19991 24976 c-6 -7 -29 -16 -51 -20 -30 -5 -55 -20 -100 -64 -34
-31 -69 -73 -78 -92 -9 -19 -18 -37 -21 -40 -4 -3 -6 -27 -7 -55 -1 -27 -3
-61 -4 -75 -2 -14 -3 -58 -2 -97 2 -57 5 -73 17 -73 8 0 15 -4 15 -10 0 -14
87 -100 94 -93 3 3 16 -1 28 -9 13 -8 44 -20 71 -28 42 -11 52 -11 95 6 26 11
70 20 97 20 70 2 106 13 132 40 83 89 107 159 101 288 -6 114 -27 164 -95 224
-75 67 -102 78 -194 85 -67 5 -89 4 -98 -7z"/>
<path d="M16755 24457 c-48 -14 -75 -40 -116 -109 -28 -48 -30 -56 -25 -127 4
-64 7 -90 15 -141 2 -12 50 -60 60 -60 7 0 9 -9 5 -24 -4 -17 0 -27 12 -34 10
-6 23 -25 29 -43 8 -23 20 -36 41 -42 16 -5 43 -22 59 -37 17 -15 38 -30 48
-33 10 -4 16 -11 12 -17 -4 -6 5 -7 23 -4 18 4 41 0 60 -10 77 -40 185 23 197
115 4 27 12 49 18 49 11 1 57 86 57 105 0 5 10 19 23 33 19 21 22 34 22 114 0
75 -3 91 -18 99 -9 6 -17 16 -17 24 0 8 -12 18 -26 21 -15 4 -35 15 -45 25
-11 11 -33 19 -50 19 -17 0 -28 4 -24 10 3 6 -3 10 -14 10 -11 0 -23 5 -26 10
-3 6 -29 10 -57 10 -42 0 -51 3 -55 21 -5 18 -11 21 -44 16 -22 -3 -39 -1 -39
4 0 12 -76 10 -125 -4z m372 -503 c-3 -3 -12 -4 -19 -1 -8 3 -5 6 6 6 11 1 17
-2 13 -5z"/>
<path d="M28120 23713 c0 -29 12 -24 17 7 2 11 -2 20 -7 20 -6 0 -10 -12 -10
-27z"/>
<path d="M2428 21723 c-8 -10 -18 -26 -21 -35 -6 -18 -47 -26 -47 -10 0 16
-50 32 -68 22 -9 -5 -34 -12 -54 -15 -32 -5 -38 -10 -38 -30 0 -13 5 -35 11
-49 7 -14 8 -32 4 -43 -15 -33 -12 -51 11 -79 13 -15 24 -32 24 -38 0 -6 10
-20 23 -31 12 -11 28 -33 36 -50 7 -16 17 -37 22 -45 5 -8 12 -23 15 -32 4
-10 10 -18 15 -18 5 0 6 -6 3 -14 -3 -8 6 -39 21 -70 14 -31 26 -64 25 -73 -3
-23 10 -63 20 -63 4 0 11 -33 14 -72 4 -40 14 -86 22 -103 7 -16 15 -62 16
-102 3 -55 8 -75 21 -85 17 -13 36 -84 42 -158 3 -40 13 -86 24 -115 12 -30
33 -116 36 -145 1 -14 3 -27 5 -30 1 -3 1 -18 0 -33 -1 -15 3 -33 8 -40 5 -7
9 -19 9 -27 0 -8 9 -35 20 -60 12 -25 24 -61 28 -80 4 -19 16 -46 26 -59 11
-13 19 -29 19 -37 0 -7 5 -14 10 -16 6 -2 12 -14 13 -28 1 -14 9 -34 19 -44
10 -11 18 -30 18 -43 0 -13 4 -23 9 -23 5 0 11 -13 15 -30 3 -18 12 -30 21
-30 8 0 16 -8 16 -17 4 -54 8 -68 18 -71 14 -5 55 -82 44 -82 -5 0 -2 -4 5 -9
8 -5 15 -20 15 -35 1 -14 5 -26 10 -26 4 0 7 -9 7 -20 0 -11 4 -20 9 -20 5 0
14 -15 21 -32 6 -18 16 -40 21 -48 32 -53 49 -92 44 -100 -4 -6 1 -13 9 -16 9
-3 16 -15 16 -25 0 -10 6 -19 14 -19 8 0 17 -16 21 -37 4 -21 13 -45 21 -54 8
-9 14 -20 12 -25 -4 -12 53 -114 64 -114 4 0 8 -4 8 -9 0 -5 4 -20 9 -33 5
-13 9 -27 9 -32 0 -5 4 -12 9 -15 12 -9 32 -42 44 -73 6 -16 15 -28 20 -28 5
0 9 -8 9 -19 0 -10 7 -24 15 -31 9 -7 23 -29 32 -49 9 -20 27 -50 40 -67 13
-17 23 -36 23 -41 0 -6 7 -16 15 -23 8 -7 13 -16 10 -20 -3 -4 3 -18 13 -31
10 -13 23 -36 30 -51 6 -16 16 -28 22 -28 6 0 9 -8 6 -18 -4 -12 4 -29 22 -48
16 -16 40 -51 53 -79 13 -27 27 -51 32 -53 4 -2 7 -9 7 -16 0 -6 9 -29 20 -51
11 -22 20 -45 20 -51 0 -7 7 -14 15 -18 8 -3 15 -15 15 -28 0 -12 8 -31 19
-42 10 -12 26 -42 36 -68 10 -27 22 -48 26 -48 5 0 9 -9 9 -19 0 -11 13 -30
28 -43 27 -23 47 -55 44 -70 -1 -5 2 -8 7 -8 5 0 13 -10 16 -22 4 -13 25 -44
46 -70 22 -26 52 -71 67 -100 15 -29 32 -59 39 -66 7 -7 13 -18 13 -24 0 -5
13 -23 30 -38 16 -15 30 -34 30 -42 0 -8 8 -23 18 -34 9 -10 25 -35 35 -54 28
-58 71 -129 88 -149 9 -10 22 -36 29 -57 7 -22 21 -50 31 -63 11 -13 19 -30
19 -37 0 -7 9 -18 20 -24 11 -6 20 -21 20 -33 0 -12 9 -28 20 -35 11 -7 20
-19 20 -27 0 -8 4 -15 10 -15 5 0 17 -15 26 -32 9 -18 25 -42 35 -53 49 -56
79 -94 79 -101 0 -5 25 -34 55 -64 30 -30 55 -60 55 -67 0 -6 10 -20 23 -30
12 -10 28 -30 36 -45 8 -15 22 -37 33 -47 10 -11 18 -23 18 -27 0 -4 7 -14 15
-23 35 -38 115 -140 115 -148 0 -5 12 -22 28 -39 32 -37 49 -61 62 -91 5 -13
14 -23 19 -23 5 0 11 -11 15 -23 3 -13 19 -39 36 -58 16 -19 30 -39 30 -45 0
-7 18 -30 39 -52 21 -22 42 -51 46 -63 4 -13 19 -36 33 -50 14 -14 26 -33 28
-41 2 -20 45 -78 56 -78 4 0 8 -6 8 -13 0 -7 24 -38 53 -69 28 -31 69 -78 90
-105 21 -27 51 -57 68 -68 16 -11 29 -26 29 -32 0 -15 222 -243 236 -243 14 0
64 -53 64 -67 0 -6 12 -21 27 -33 30 -24 63 -73 63 -95 0 -8 6 -15 14 -15 14
0 78 -73 89 -102 3 -10 11 -18 17 -18 5 0 10 -5 10 -11 0 -7 9 -20 20 -29 21
-18 70 -86 70 -98 1 -4 19 -25 40 -47 22 -22 45 -55 51 -72 6 -18 15 -33 21
-33 15 0 158 -153 158 -169 0 -8 6 -11 15 -7 8 3 15 2 15 -3 0 -15 52 -61 63
-54 6 4 7 1 3 -6 -5 -8 0 -14 13 -18 11 -3 30 -21 42 -39 11 -19 25 -34 30
-34 6 0 7 -4 4 -10 -3 -5 -1 -10 4 -10 6 0 11 -4 11 -10 0 -5 10 -20 23 -33
65 -71 87 -97 87 -106 0 -5 4 -11 9 -13 5 -2 24 -22 44 -45 19 -23 37 -40 39
-37 3 2 19 -10 35 -28 16 -18 45 -42 64 -52 62 -35 120 -89 106 -99 -9 -6 -8
-8 3 -4 20 6 39 -8 69 -50 12 -18 26 -33 31 -33 20 0 122 -111 140 -153 16
-35 24 -44 39 -40 11 3 28 -5 44 -21 28 -28 84 -35 105 -14 9 9 12 9 12 0 0
-21 16 -13 28 13 7 14 20 29 29 32 37 14 42 28 34 88 -5 33 -15 63 -23 69 -9
6 -17 20 -20 31 -3 15 -10 19 -32 17 -19 -2 -37 5 -55 20 -14 13 -43 35 -63
48 -21 14 -43 35 -49 47 -7 13 -15 23 -18 23 -3 0 -39 32 -80 70 -40 39 -79
70 -86 70 -6 0 -20 9 -30 20 -10 11 -27 20 -37 20 -11 0 -22 9 -25 20 -3 11
-9 20 -14 20 -5 0 -21 14 -36 32 -105 120 -172 188 -185 188 -5 0 -8 6 -8 13
0 8 -12 24 -26 38 -14 13 -30 34 -35 47 -5 12 -15 22 -24 22 -8 0 -15 6 -15
14 0 16 -42 60 -109 115 -22 18 -43 42 -46 52 -4 11 -16 22 -28 25 -20 5 -91
101 -109 146 -4 10 -14 18 -21 18 -8 0 -22 17 -33 37 -10 21 -27 47 -37 58
-11 11 -38 45 -62 75 -23 30 -53 65 -66 77 -13 12 -40 41 -59 64 -19 23 -50
59 -67 79 -18 21 -33 39 -33 42 0 7 -89 98 -96 98 -10 0 -104 100 -104 111 0
5 -7 9 -15 9 -8 0 -15 4 -15 9 0 5 -28 38 -63 73 -34 36 -69 74 -77 85 -56 77
-105 137 -137 168 -21 20 -38 41 -38 46 0 5 -6 14 -14 18 -8 5 -10 14 -6 21 5
8 4 11 -2 7 -6 -4 -19 9 -29 28 -10 19 -22 35 -27 35 -14 0 -37 28 -37 44 0 9
-4 16 -10 16 -5 0 -10 9 -10 20 0 11 -4 20 -8 20 -9 0 -72 86 -72 98 0 4 -10
19 -22 33 -28 31 -45 56 -58 88 -6 13 -24 41 -40 61 -17 21 -30 43 -30 49 0 6
-4 11 -10 11 -5 0 -10 7 -10 15 0 8 -5 15 -10 15 -6 0 -25 22 -42 50 -17 27
-39 52 -48 55 -10 3 -21 16 -24 28 -3 12 -21 41 -41 64 -19 23 -35 46 -35 52
0 5 -9 16 -20 24 -11 8 -17 17 -14 20 4 3 -23 34 -59 68 -36 34 -73 77 -82 95
-9 19 -21 34 -28 34 -12 1 -67 73 -67 89 0 5 -12 23 -27 39 -46 50 -64 76 -69
100 -4 12 -13 22 -21 22 -9 0 -13 6 -10 14 3 8 -1 20 -9 26 -8 7 -14 19 -14
26 0 8 -4 14 -10 14 -5 0 -10 8 -10 19 0 26 -26 85 -44 100 -9 7 -18 28 -22
47 -3 19 -10 34 -15 34 -4 0 -15 15 -24 34 -9 19 -25 42 -36 52 -10 9 -19 24
-19 33 0 9 -14 33 -31 54 -17 20 -27 41 -24 47 3 5 2 10 -3 10 -16 0 -49 34
-57 60 -4 13 -14 30 -21 38 -8 7 -14 20 -14 27 0 8 -9 19 -20 25 -12 6 -34 40
-50 76 -17 35 -44 77 -61 92 -18 16 -33 40 -35 54 -1 13 -14 42 -28 63 -14 21
-31 55 -36 75 -6 21 -17 43 -25 50 -8 7 -15 18 -15 24 0 7 -11 27 -25 46 -14
19 -25 42 -25 51 0 10 -11 30 -24 46 -13 15 -27 39 -31 53 -4 13 -13 30 -19
37 -28 32 -36 43 -36 51 0 10 -31 75 -39 82 -27 23 -131 211 -131 237 0 6 -11
20 -25 31 -14 11 -25 30 -25 41 0 12 -9 32 -20 44 -23 24 -50 74 -50 91 0 6
-12 29 -27 51 -37 54 -73 123 -73 139 0 8 -7 16 -15 20 -8 3 -15 14 -15 24 0
11 -7 25 -15 32 -8 7 -12 16 -10 21 3 4 -1 11 -9 16 -8 4 -16 23 -19 41 -5 32
-28 68 -54 85 -7 4 -10 13 -7 20 2 7 -5 22 -16 34 -11 12 -20 33 -20 47 0 14
-13 45 -30 69 -16 25 -30 51 -30 59 0 8 -9 24 -20 36 -11 12 -20 30 -20 42 0
11 -4 20 -8 20 -5 0 -9 14 -10 31 0 17 -8 39 -17 49 -9 10 -14 23 -11 29 4 5
2 12 -4 16 -13 8 -43 77 -64 150 -28 93 -39 119 -57 135 -13 12 -20 45 -28
124 -6 60 -16 115 -23 123 -6 8 -12 37 -13 65 -1 29 -7 54 -12 55 -6 2 -9 13
-6 23 3 11 1 20 -5 20 -6 0 -14 15 -17 33 -3 17 -7 41 -9 52 -4 27 -13 51 -39
105 -12 25 -23 54 -24 65 -1 11 -6 40 -11 65 -6 25 -18 88 -27 140 -20 117
-46 210 -58 210 -5 0 -6 8 -3 17 4 9 3 19 -2 22 -10 7 -43 123 -37 129 7 8 35
-19 35 -34 0 -8 10 -14 24 -14 13 0 38 -13 56 -30 18 -16 36 -30 41 -30 5 0 9
-9 9 -20 0 -11 9 -24 19 -28 11 -4 37 -24 59 -44 22 -20 61 -47 86 -59 25 -12
49 -25 52 -30 3 -5 14 -9 25 -9 10 0 19 -4 19 -10 0 -5 7 -10 17 -10 9 0 31
-11 49 -25 18 -14 38 -25 44 -25 14 0 56 -27 98 -62 18 -15 38 -28 44 -28 6 0
21 -10 34 -22 49 -47 64 -57 78 -52 7 3 22 -5 32 -18 11 -13 41 -39 68 -58 27
-19 62 -47 78 -62 16 -16 38 -28 48 -28 19 0 113 -49 118 -62 2 -4 15 -8 28
-8 23 0 33 -3 81 -28 13 -7 28 -12 33 -12 18 0 120 -53 120 -62 0 -4 8 -8 19
-8 15 0 53 -24 107 -69 6 -5 25 -16 41 -25 17 -8 37 -21 45 -29 7 -7 32 -19
56 -26 23 -8 42 -18 42 -23 0 -5 11 -13 25 -18 14 -5 28 -17 31 -25 4 -8 17
-15 29 -15 13 0 26 -4 30 -9 3 -5 27 -17 53 -27 26 -10 49 -21 52 -24 3 -3 34
-21 70 -39 36 -19 89 -47 118 -63 29 -16 64 -29 78 -30 14 -2 32 -10 41 -20 9
-10 22 -18 30 -18 7 0 13 -7 13 -15 0 -16 34 -38 43 -28 4 3 9 -2 13 -11 3 -9
10 -16 16 -16 5 0 25 -12 44 -26 18 -14 40 -24 48 -21 8 3 27 -5 42 -18 15
-13 47 -29 71 -35 23 -7 43 -15 43 -19 0 -7 72 -31 92 -31 16 0 102 -42 106
-52 2 -5 9 -8 17 -8 7 0 34 -9 60 -21 25 -11 49 -18 52 -15 3 3 12 -2 20 -10
9 -8 20 -13 27 -11 6 2 17 -2 24 -10 7 -7 23 -13 34 -13 11 0 37 -10 57 -22
60 -38 67 -42 110 -66 22 -12 41 -27 41 -32 0 -6 7 -10 15 -10 9 0 18 -7 21
-15 4 -8 14 -15 23 -15 21 -1 116 -33 133 -46 28 -21 67 -36 76 -30 6 3 17 -1
25 -9 9 -8 24 -15 35 -15 28 0 112 -39 140 -65 14 -13 43 -31 66 -41 23 -10
43 -22 46 -26 8 -11 61 -29 70 -23 4 3 13 -2 20 -10 7 -8 21 -15 31 -15 9 0
25 -7 34 -16 9 -10 33 -20 53 -25 72 -14 85 -18 126 -38 22 -10 57 -22 76 -26
19 -4 45 -18 56 -31 13 -13 29 -21 40 -18 12 3 31 -7 49 -24 17 -16 35 -29 40
-30 6 -1 25 -5 43 -8 21 -4 42 -18 59 -40 14 -19 34 -34 43 -34 10 0 25 -7 34
-15 8 -8 21 -15 29 -15 7 0 34 -20 58 -45 31 -31 52 -45 72 -45 15 0 27 -5 27
-10 0 -6 8 -14 18 -17 9 -4 28 -15 41 -25 13 -10 32 -18 42 -18 11 0 35 -18
55 -40 20 -22 43 -40 50 -40 15 0 55 -20 64 -31 5 -7 86 -33 106 -34 6 0 22
-8 37 -18 14 -9 35 -17 46 -17 11 0 23 -5 26 -11 4 -6 19 -9 33 -8 15 1 40 -3
55 -10 16 -6 33 -11 39 -11 5 0 31 -19 58 -42 26 -24 74 -56 106 -72 32 -16
62 -35 66 -42 5 -7 17 -10 28 -7 10 3 43 -7 72 -21 28 -14 60 -26 70 -26 30 0
146 -42 198 -72 8 -4 22 -11 30 -15 8 -4 17 -10 20 -14 3 -5 21 -10 40 -11 19
-2 37 -5 40 -8 12 -12 51 -30 65 -30 8 0 15 -5 15 -11 0 -16 63 -69 82 -69 10
0 18 -4 18 -10 0 -5 9 -10 20 -10 11 0 20 -4 20 -9 0 -5 23 -14 50 -21 28 -7
53 -16 56 -22 3 -5 28 -8 56 -7 27 2 52 -1 56 -7 4 -5 23 -10 42 -11 19 -1 36
-6 38 -12 2 -6 19 -11 38 -11 19 0 42 -4 52 -9 9 -6 60 -17 112 -26 52 -9 109
-21 125 -26 17 -5 45 -10 63 -11 17 -1 32 -6 32 -11 0 -5 9 -7 20 -4 11 3 23
1 26 -5 3 -5 13 -7 21 -4 9 4 21 2 28 -4 6 -5 38 -14 71 -20 105 -17 129 -23
149 -36 11 -7 43 -15 70 -19 28 -4 82 -15 120 -25 92 -23 231 -44 244 -36 5 4
14 -1 18 -9 6 -9 30 -18 61 -22 28 -3 57 -12 63 -19 6 -8 23 -14 38 -14 15 0
31 -4 37 -9 5 -5 42 -14 83 -20 87 -12 135 2 151 43 5 14 17 29 27 35 14 7 19
22 21 57 1 26 -1 44 -5 40 -4 -3 -20 7 -37 23 -34 33 -53 38 -171 46 -56 3
-82 9 -88 20 -4 8 -20 15 -35 15 -59 0 -168 13 -179 22 -25 20 -195 57 -263
57 -56 0 -77 4 -115 20 -82 37 -101 41 -159 43 -31 0 -46 5 -46 14 0 8 -6 11
-15 8 -8 -4 -15 -1 -15 5 0 6 -11 11 -24 11 -13 0 -45 9 -69 19 -25 11 -47 17
-50 15 -7 -7 -166 25 -190 37 -10 5 -22 7 -27 4 -5 -3 -23 1 -40 10 -18 9 -55
18 -83 20 -28 2 -53 9 -55 14 -2 6 -24 11 -48 11 -24 0 -52 4 -62 9 -36 19
-68 29 -91 29 -13 1 -27 5 -30 9 -11 15 -73 43 -94 43 -12 0 -28 9 -35 20 -7
11 -21 20 -32 20 -12 0 -20 7 -20 16 0 10 -5 14 -15 10 -9 -3 -24 4 -37 19
-12 14 -36 28 -55 31 -18 3 -33 10 -33 15 0 5 -11 9 -24 9 -13 0 -28 6 -34 13
-6 7 -27 19 -47 27 -19 7 -35 17 -35 22 0 4 -10 8 -22 8 -13 0 -36 7 -52 15
-16 8 -46 18 -68 21 -21 4 -50 15 -63 26 -25 19 -34 48 -15 48 6 0 10 6 10 14
0 8 20 35 45 60 25 26 45 51 45 56 0 6 6 10 13 11 6 0 41 36 77 79 36 43 68
79 72 79 8 1 60 55 98 101 98 120 272 310 284 310 4 0 33 26 62 58 29 31 57
60 61 64 4 4 26 23 48 43 72 66 122 105 134 105 6 0 11 4 11 9 0 15 83 91 120
109 19 10 34 23 33 30 -3 13 93 87 132 102 15 6 23 14 20 20 -3 5 0 10 7 10 7
0 39 24 70 53 32 28 81 72 109 97 88 77 119 108 119 119 0 6 6 11 13 11 7 0
31 13 53 30 21 16 45 30 51 30 7 0 18 9 25 20 7 11 17 20 21 20 5 0 23 11 41
25 18 14 37 25 43 25 6 0 22 11 37 25 15 14 32 25 37 25 6 0 17 7 25 15 9 8
27 18 42 21 15 4 35 15 44 25 9 9 32 20 49 24 18 4 39 14 47 21 7 8 22 14 31
14 10 0 24 7 31 15 7 8 20 15 30 15 10 0 23 7 30 15 7 8 16 13 20 10 5 -3 11
-1 15 5 3 5 14 10 23 10 10 0 23 9 30 20 7 11 20 20 31 20 17 0 81 27 91 39 3
3 19 12 35 20 17 7 39 18 50 24 11 6 43 23 70 37 28 15 64 34 80 43 17 9 35
17 41 17 7 0 15 7 18 16 3 9 15 14 28 13 13 -2 45 7 72 19 27 12 54 22 60 22
6 0 20 6 31 13 11 7 33 14 48 15 15 1 38 7 49 13 12 6 45 12 75 12 29 0 53 4
53 8 0 3 17 9 38 12 20 3 51 11 67 18 17 7 36 11 43 10 7 -1 25 7 41 19 16 11
32 20 36 20 3 0 23 11 43 25 20 14 42 25 49 25 7 0 28 11 48 24 20 14 52 30
72 37 19 6 44 20 55 31 11 11 26 17 35 14 9 -4 34 2 57 13 23 10 52 21 66 24
73 16 104 27 112 40 5 9 16 13 28 10 11 -3 20 -1 20 4 0 6 19 16 43 23 23 7
54 21 69 31 14 11 31 19 37 19 25 0 62 33 56 49 -5 13 -4 14 6 4 18 -18 32
-16 84 8 24 11 49 18 54 15 17 -11 87 30 88 51 0 10 1 32 3 48 4 59 -12 109
-44 137 -27 24 -39 28 -97 28 -47 0 -70 -4 -79 -15 -7 -8 -21 -15 -31 -15 -11
0 -29 -10 -41 -22 -26 -26 -88 -59 -98 -53 -4 3 -27 -9 -51 -27 -23 -17 -64
-38 -91 -48 -26 -9 -51 -20 -55 -23 -3 -4 -17 -7 -29 -7 -12 0 -29 -6 -36 -12
-14 -14 -137 -58 -161 -58 -23 0 -131 -56 -151 -79 -11 -11 -25 -21 -33 -21
-7 0 -13 -4 -13 -8 0 -4 -12 -7 -27 -7 -16 1 -42 -9 -60 -22 -17 -13 -35 -23
-39 -23 -4 0 -30 -11 -58 -24 -28 -13 -69 -28 -91 -34 -93 -24 -137 -32 -145
-27 -11 7 -73 -15 -85 -30 -6 -7 -33 -16 -59 -19 -26 -2 -56 -11 -65 -19 -9
-8 -36 -17 -59 -21 -24 -4 -51 -13 -59 -21 -8 -8 -23 -15 -33 -15 -10 0 -27
-11 -38 -25 -12 -15 -30 -25 -45 -25 -14 0 -29 -5 -32 -10 -4 -6 -11 -8 -16
-5 -5 4 -12 -1 -15 -9 -3 -9 -12 -16 -19 -16 -7 0 -18 -6 -24 -14 -16 -19
-102 -59 -186 -87 -38 -13 -72 -26 -75 -30 -5 -6 -87 -53 -157 -90 -24 -12
-43 -26 -43 -31 0 -4 -12 -8 -27 -8 -14 0 -40 -10 -57 -23 -17 -13 -47 -29
-66 -37 -19 -7 -48 -24 -63 -37 -16 -13 -32 -23 -36 -23 -5 0 -22 -12 -39 -27
-17 -16 -49 -41 -72 -58 -23 -16 -56 -43 -73 -58 -17 -16 -43 -31 -57 -34 -15
-3 -47 -32 -78 -69 -29 -35 -71 -74 -93 -87 -21 -12 -44 -34 -51 -48 -6 -14
-23 -31 -38 -37 -14 -7 -37 -22 -50 -35 -14 -12 -29 -22 -35 -23 -21 -1 -80
-40 -117 -76 -21 -21 -53 -45 -70 -54 -37 -19 -68 -48 -91 -86 -10 -16 -23
-28 -30 -28 -6 0 -38 -26 -69 -58 -32 -31 -70 -66 -84 -77 -14 -11 -40 -33
-58 -50 -18 -16 -53 -49 -79 -73 -26 -23 -47 -46 -47 -50 0 -4 -16 -20 -35
-37 -70 -61 -101 -92 -126 -128 -14 -20 -42 -54 -62 -76 -20 -22 -37 -44 -37
-49 0 -6 -12 -18 -27 -27 -16 -10 -52 -41 -82 -69 -134 -127 -153 -149 -148
-167 3 -11 -2 -24 -12 -32 -10 -6 -21 -21 -25 -32 -8 -26 -65 -88 -94 -104
-12 -6 -22 -17 -22 -24 -1 -7 -11 -25 -24 -40 l-23 -28 -59 26 c-32 15 -70 32
-84 38 -14 6 -36 19 -49 29 -13 10 -30 18 -38 18 -8 0 -27 9 -43 20 -15 11
-30 17 -34 13 -3 -3 -14 0 -23 8 -28 22 -61 39 -78 39 -8 0 -15 5 -15 10 0 6
-8 10 -17 10 -29 1 -96 36 -130 69 -41 40 -97 71 -128 71 -16 0 -23 4 -19 14
5 14 -35 46 -58 46 -7 0 -19 9 -26 20 -7 12 -23 20 -40 20 -16 0 -39 10 -52
23 -14 12 -40 30 -60 40 -19 10 -53 28 -75 42 -37 22 -89 48 -189 96 -22 11
-48 19 -57 19 -10 0 -24 6 -32 14 -8 8 -32 18 -53 21 -42 8 -227 92 -232 106
-2 5 -9 9 -15 9 -14 0 -131 71 -135 82 -2 4 -10 8 -18 8 -8 0 -32 9 -52 19
-20 10 -55 25 -77 31 -22 7 -46 17 -54 23 -13 11 -28 17 -111 48 -51 18 -200
92 -206 101 -6 9 -59 34 -94 43 -14 4 -32 12 -40 19 -30 22 -60 36 -80 36 -11
0 -20 4 -20 10 0 5 -20 15 -45 21 -25 6 -45 15 -45 19 0 5 -15 12 -32 15 -18
4 -44 12 -58 18 -14 6 -29 12 -35 12 -5 1 -30 12 -55 23 -25 12 -53 22 -62 22
-9 0 -23 6 -30 13 -15 14 -77 37 -101 37 -9 0 -17 5 -17 10 0 6 -9 10 -20 10
-11 0 -20 4 -20 9 0 5 -21 19 -47 32 -27 12 -51 27 -54 32 -4 5 -13 7 -20 5
-8 -3 -27 6 -42 18 -16 13 -35 24 -43 24 -8 0 -26 11 -40 24 -15 13 -43 29
-64 35 -21 6 -40 18 -43 26 -3 7 -24 19 -46 25 -23 6 -41 15 -41 20 0 6 -5 10
-11 10 -6 0 -16 6 -23 13 -15 13 -24 20 -104 72 -30 19 -58 35 -62 35 -5 0
-33 14 -61 31 -29 17 -65 31 -80 31 -18 1 -29 7 -32 19 -3 11 -14 19 -25 19
-11 0 -25 7 -32 15 -7 8 -30 25 -51 37 -22 12 -39 25 -39 30 0 4 -5 8 -11 8
-6 0 -22 9 -36 20 -14 11 -34 20 -43 20 -10 0 -23 7 -30 15 -7 8 -34 17 -60
21 -27 4 -51 12 -54 19 -2 7 -16 15 -31 19 -15 4 -44 18 -66 31 -21 14 -45 25
-54 25 -8 0 -15 4 -15 9 0 5 -13 12 -29 16 -16 3 -35 13 -42 21 -6 8 -17 14
-24 14 -7 0 -15 7 -19 15 -3 8 -15 15 -26 15 -12 0 -28 13 -39 31 -10 17 -37
39 -60 51 -22 11 -41 26 -41 34 0 8 -6 14 -12 14 -7 0 -28 14 -47 30 -18 17
-39 30 -46 30 -7 0 -18 7 -25 15 -7 8 -21 15 -32 15 -11 0 -34 10 -51 23 -18
12 -48 30 -67 41 -19 10 -37 21 -40 25 -3 4 -16 12 -30 19 -44 22 -69 38 -88
55 -10 10 -24 17 -30 17 -7 0 -12 5 -12 11 0 14 -47 59 -61 59 -17 0 -127 121
-125 138 1 9 -21 27 -54 44 -30 16 -59 36 -63 44 -4 8 -23 14 -42 14 -24 0
-38 6 -45 20 -14 26 -71 27 -92 3z m-121 -189 c-3 -3 -12 -4 -19 -1 -8 3 -5 6
6 6 11 1 17 -2 13 -5z m6963 -3369 c-7 -8 -17 -15 -23 -15 -6 0 -2 7 9 15 25
19 30 19 14 0z"/>
<path d="M21983 21504 c-18 -7 -39 -24 -48 -37 -12 -19 -35 -139 -47 -247 -1
-8 -7 -19 -14 -25 -6 -5 -19 -40 -27 -77 -10 -44 -26 -81 -46 -107 -17 -21
-31 -42 -31 -46 0 -7 -57 -125 -78 -160 -6 -11 -16 -39 -22 -63 -6 -24 -18
-46 -26 -49 -7 -3 -14 -10 -14 -17 0 -6 -7 -23 -14 -38 -8 -15 -17 -53 -21
-85 -13 -125 -48 -218 -100 -268 -23 -22 -45 -48 -48 -57 -4 -10 -11 -18 -17
-18 -5 0 -10 -5 -10 -11 0 -6 -22 -36 -50 -67 -27 -30 -48 -58 -45 -60 2 -3
-6 -13 -20 -23 -13 -11 -26 -33 -30 -49 -4 -17 -11 -30 -16 -30 -5 0 -9 -6 -9
-12 0 -7 -24 -36 -53 -65 -28 -28 -66 -66 -83 -85 -51 -54 -81 -78 -96 -78
-18 0 -48 -31 -48 -51 0 -8 -19 -27 -41 -44 -23 -16 -47 -42 -55 -57 -8 -16
-18 -28 -23 -28 -4 0 -12 -8 -17 -18 -5 -11 -36 -43 -69 -72 -33 -30 -63 -61
-67 -70 -3 -9 -20 -23 -37 -30 -21 -8 -31 -19 -31 -34 0 -24 -70 -64 -90 -51
-11 7 -50 -14 -82 -44 -32 -30 -47 -41 -58 -41 -5 0 -10 -4 -10 -10 0 -5 -9
-10 -20 -10 -11 0 -25 -9 -32 -20 -7 -11 -23 -20 -35 -20 -22 0 -51 -19 -102
-70 -28 -27 -111 -75 -111 -64 0 4 -8 -3 -19 -14 -10 -12 -25 -22 -32 -22 -25
0 -130 -58 -146 -79 -8 -12 -22 -21 -31 -21 -10 0 -33 -13 -52 -30 -20 -16
-47 -29 -62 -30 -16 0 -28 -4 -28 -10 0 -5 -7 -10 -15 -10 -8 0 -15 -4 -15
-10 0 -5 -15 -10 -34 -10 -44 0 -95 -22 -125 -54 -19 -20 -26 -40 -28 -82 -3
-57 5 -82 38 -115 20 -20 44 -17 54 9 6 15 8 15 18 2 20 -25 68 -52 83 -46 8
3 14 14 14 25 0 34 60 42 112 15 17 -9 41 -14 54 -11 14 2 33 -5 51 -19 15
-13 34 -23 41 -24 6 0 12 -4 12 -10 0 -5 5 -10 11 -10 6 0 24 -13 39 -30 15
-16 31 -30 35 -30 3 0 12 -6 20 -12 93 -88 134 -130 163 -167 18 -24 47 -57
64 -73 17 -16 28 -31 25 -34 -3 -4 15 -28 41 -54 26 -26 56 -59 66 -74 10 -14
23 -26 28 -26 6 0 22 -13 36 -29 84 -91 102 -112 102 -120 0 -4 11 -18 24 -30
13 -13 27 -38 30 -56 4 -19 18 -43 31 -54 14 -10 25 -22 25 -26 0 -5 11 -23
26 -42 14 -18 22 -38 18 -45 -4 -7 -3 -8 4 -4 8 4 12 0 12 -12 0 -10 9 -29 20
-42 11 -12 22 -31 25 -41 4 -11 13 -19 20 -19 17 0 39 -36 30 -50 -3 -5 -1
-11 5 -15 5 -3 10 -17 10 -30 0 -35 35 -108 59 -123 12 -7 21 -19 21 -27 0 -8
6 -29 14 -47 7 -18 19 -51 26 -73 7 -22 25 -57 41 -77 16 -20 29 -44 29 -52 0
-8 4 -17 9 -20 4 -3 11 -20 15 -38 3 -18 16 -42 27 -54 11 -12 26 -46 34 -75
39 -151 39 -153 59 -186 7 -13 16 -20 21 -15 4 4 5 -1 1 -12 -3 -10 -1 -25 5
-32 6 -7 15 -30 20 -51 17 -69 23 -91 32 -113 3 -8 8 -33 11 -55 2 -22 10 -67
15 -100 6 -33 13 -77 15 -98 3 -21 8 -42 12 -48 4 -6 8 -30 9 -53 2 -51 24
-158 35 -171 5 -5 10 -30 13 -55 3 -25 10 -67 17 -95 6 -27 13 -84 15 -125 4
-70 10 -135 36 -395 6 -55 12 -127 13 -160 2 -33 9 -100 16 -148 7 -49 10
-101 6 -118 -3 -16 0 -41 6 -57 6 -15 13 -88 15 -162 1 -74 5 -200 7 -280 7
-261 2 -613 -9 -662 -5 -19 -2 -32 13 -48 19 -21 20 -60 1 -60 -5 0 -9 -12 -9
-26 0 -14 -5 -34 -11 -45 -6 -11 -10 -45 -10 -76 0 -44 4 -58 20 -70 12 -8 21
-22 21 -31 0 -10 9 -23 20 -30 22 -13 28 -66 9 -77 -6 -4 -8 -13 -5 -21 3 -7
-1 -17 -9 -21 -8 -5 -15 -27 -16 -51 -2 -24 -7 -46 -11 -48 -4 -3 -8 -23 -8
-45 0 -22 -6 -52 -14 -67 -7 -15 -17 -74 -21 -132 -4 -62 -15 -126 -26 -155
-11 -27 -19 -56 -19 -64 0 -8 -7 -22 -15 -31 -9 -10 -17 -49 -21 -103 -4 -48
-10 -87 -14 -87 -12 0 -29 -50 -35 -100 -3 -24 -13 -58 -21 -75 -23 -45 -44
-116 -44 -151 0 -39 -37 -164 -55 -184 -7 -8 -23 -53 -35 -100 -26 -102 -40
-140 -50 -140 -11 0 -40 -87 -32 -96 4 -4 2 -4 -5 -1 -7 5 -14 -4 -18 -23 -4
-16 -11 -32 -16 -35 -5 -4 -9 -15 -9 -26 0 -10 -3 -19 -7 -19 -5 0 -9 -14 -10
-30 -1 -17 -9 -40 -18 -52 -8 -13 -15 -28 -15 -36 0 -7 -11 -38 -25 -68 -14
-30 -25 -60 -25 -67 0 -7 -4 -17 -8 -23 -5 -5 -19 -42 -31 -82 -13 -40 -29
-79 -35 -85 -7 -7 -18 -28 -26 -47 -8 -19 -19 -39 -26 -45 -6 -5 -17 -28 -24
-50 -7 -22 -20 -58 -30 -80 -10 -22 -21 -64 -25 -92 -4 -29 -10 -53 -14 -53
-4 0 -13 -18 -20 -40 -6 -22 -16 -40 -21 -40 -6 0 -10 -8 -10 -18 0 -10 -4
-22 -9 -28 -16 -16 -77 -137 -91 -179 -7 -22 -21 -48 -30 -57 -10 -9 -21 -31
-25 -48 -4 -16 -11 -30 -16 -30 -5 0 -9 -6 -9 -14 0 -8 -11 -28 -25 -44 -14
-17 -25 -33 -25 -36 0 -4 -11 -18 -25 -32 -14 -14 -25 -31 -25 -39 0 -8 -4
-15 -8 -15 -9 0 -65 -79 -90 -126 -7 -13 -17 -24 -22 -24 -6 0 -16 -15 -24
-34 -7 -18 -23 -42 -34 -52 -11 -10 -45 -50 -76 -89 -30 -38 -69 -84 -86 -101
-16 -17 -30 -36 -30 -42 0 -7 -20 -33 -45 -59 -25 -25 -45 -50 -45 -54 0 -8
-88 -124 -125 -164 -16 -16 -36 -48 -47 -71 -10 -24 -40 -60 -68 -84 -28 -23
-50 -47 -50 -53 0 -6 -34 -44 -75 -84 -41 -39 -75 -77 -75 -82 0 -6 -4 -11 -9
-11 -6 0 -25 -14 -43 -31 -18 -17 -50 -42 -71 -55 -21 -14 -40 -31 -43 -38 -3
-7 -20 -19 -39 -26 -19 -8 -35 -17 -35 -22 0 -4 -6 -8 -14 -8 -8 0 -25 -13
-38 -28 -13 -16 -29 -27 -36 -24 -7 2 -12 -1 -12 -7 0 -6 -7 -11 -16 -11 -9 0
-39 -23 -67 -50 -28 -27 -56 -50 -63 -50 -20 0 -108 -43 -117 -58 -4 -6 -16
-12 -26 -12 -9 0 -26 -9 -38 -19 -11 -10 -34 -26 -51 -35 -17 -9 -35 -22 -39
-29 -4 -7 -33 -24 -63 -39 -50 -25 -81 -48 -146 -108 -12 -11 -28 -20 -35 -20
-8 0 -27 -11 -43 -25 -16 -14 -34 -25 -41 -25 -7 0 -30 -13 -51 -28 -21 -15
-55 -34 -74 -42 -19 -8 -39 -20 -43 -27 -4 -7 -16 -13 -26 -13 -9 0 -26 -8
-37 -18 -33 -30 -73 -52 -94 -52 -11 0 -20 -4 -20 -10 0 -5 -7 -10 -15 -10 -8
0 -15 -4 -15 -10 0 -5 -7 -10 -16 -10 -8 0 -30 -12 -49 -27 -18 -15 -40 -28
-49 -30 -9 -2 -23 -4 -31 -6 -8 -2 -22 -10 -32 -19 -10 -9 -31 -20 -48 -23
-16 -4 -40 -18 -53 -31 -29 -30 -87 -60 -134 -69 -20 -4 -44 -16 -54 -26 -9
-10 -22 -19 -29 -19 -6 0 -20 -8 -31 -19 -11 -10 -38 -24 -60 -31 -21 -7 -41
-16 -44 -19 -11 -15 -68 -50 -72 -46 -3 3 -13 -4 -23 -15 -10 -11 -27 -20 -37
-20 -11 0 -31 -9 -45 -20 -14 -11 -34 -20 -44 -20 -11 0 -19 -4 -19 -10 0 -10
-47 -26 -66 -22 -5 1 -19 -6 -30 -17 -11 -10 -37 -24 -57 -30 -20 -7 -37 -17
-37 -22 0 -5 -7 -9 -16 -9 -8 0 -25 -5 -37 -12 -12 -7 -26 -13 -32 -14 -32 -6
-65 -25 -65 -37 0 -9 -8 -13 -22 -10 -17 3 -35 -7 -66 -38 -34 -34 -57 -47
-110 -60 -37 -10 -68 -23 -70 -28 -2 -6 -16 -11 -31 -11 -14 0 -35 -6 -46 -14
-11 -8 -40 -20 -65 -27 -25 -7 -53 -19 -62 -27 -10 -8 -18 -12 -18 -8 0 4 -15
-4 -33 -18 -19 -15 -47 -26 -64 -26 -16 0 -51 -11 -77 -25 -26 -14 -66 -28
-89 -31 -23 -4 -47 -10 -52 -15 -6 -4 -32 -9 -58 -11 -26 -2 -47 -6 -47 -10 0
-3 -30 -10 -67 -14 -37 -4 -82 -13 -99 -20 -24 -10 -46 -11 -81 -5 -26 5 -50
6 -53 2 -10 -15 -53 -20 -74 -9 -31 17 -143 20 -159 4 -29 -29 -66 -40 -144
-41 -59 -1 -86 -6 -97 -18 -18 -18 -56 -12 -56 9 0 8 -4 14 -10 14 -5 0 -10
11 -10 24 0 13 -6 26 -14 29 -8 3 -26 31 -41 61 -15 31 -31 56 -36 56 -5 0 -9
6 -9 13 0 13 -19 34 -86 94 -17 15 -47 53 -67 83 -40 60 -38 57 -84 116 -18
23 -30 44 -26 48 3 3 -1 6 -10 6 -10 0 -17 4 -17 8 0 4 -15 23 -33 42 -18 19
-41 54 -51 78 -11 23 -22 42 -25 42 -4 0 -12 13 -18 30 -11 29 -12 29 -64 24
-83 -9 -116 -22 -137 -56 -18 -28 -19 -35 -6 -72 7 -23 16 -53 19 -69 3 -15
19 -39 36 -54 16 -15 45 -50 64 -79 21 -32 44 -54 60 -58 16 -4 30 -19 39 -39
7 -18 25 -46 40 -63 43 -49 47 -54 40 -54 -4 0 3 -11 16 -25 13 -14 31 -25 41
-25 11 0 20 -11 24 -31 8 -34 43 -99 54 -99 3 0 15 -17 26 -37 11 -21 24 -41
29 -45 6 -4 5 -16 -2 -33 -9 -20 -17 -24 -36 -19 -13 3 -34 1 -46 -6 -26 -14
-316 -25 -348 -13 -15 6 -67 4 -134 -4 -61 -7 -132 -12 -157 -12 -25 1 -77 -7
-116 -16 -49 -12 -120 -17 -237 -18 -93 -1 -168 -6 -168 -10 0 -5 -9 -5 -20
-2 -12 4 -26 2 -33 -3 -14 -12 -118 -32 -129 -26 -4 3 -20 -2 -36 -10 -15 -8
-43 -12 -62 -10 -45 5 -26 5 -250 -2 -107 -3 -249 -6 -315 -7 -66 -1 -125 -5
-131 -9 -5 -4 -26 -3 -45 1 -18 4 -95 6 -169 3 -304 -10 -496 -8 -513 7 -9 7
-23 11 -32 8 -8 -4 -54 -1 -102 4 -116 15 -175 17 -448 23 -285 5 -450 15
-493 28 -18 5 -75 11 -127 13 -51 1 -98 6 -104 9 -6 4 -30 4 -54 1 -29 -5 -55
-1 -83 10 -22 8 -66 17 -97 18 -30 1 -59 6 -63 10 -4 4 -22 7 -40 7 -18 0 -45
5 -61 11 -15 6 -39 13 -53 15 -14 2 -40 7 -59 10 -19 3 -43 11 -55 19 -12 7
-39 16 -61 19 -58 10 -108 29 -121 45 -6 8 -18 11 -27 8 -9 -3 -24 1 -32 10
-9 8 -29 16 -45 17 -16 1 -35 7 -42 14 -6 6 -26 12 -42 12 -17 0 -44 7 -59 15
-15 8 -55 19 -88 26 -33 6 -62 16 -65 20 -3 5 -16 9 -29 9 -13 0 -27 5 -30 10
-3 6 -14 10 -24 10 -11 0 -53 12 -95 26 -42 14 -81 22 -86 19 -6 -3 -10 1 -10
9 0 9 -9 16 -20 16 -12 0 -32 7 -46 16 -13 9 -27 14 -31 11 -3 -4 -20 1 -37
10 -17 9 -43 17 -57 18 -15 2 -36 12 -48 24 -11 11 -28 21 -36 21 -9 0 -18 6
-21 14 -3 8 -22 17 -42 21 -20 4 -41 10 -47 15 -5 4 -28 13 -50 20 -22 7 -49
19 -60 26 -11 8 -32 14 -47 14 -36 0 -41 11 -28 62 12 46 51 131 62 136 4 2 4
10 1 18 -3 9 1 14 12 14 9 0 14 4 10 9 -3 5 4 24 14 43 11 18 22 45 25 60 5
27 32 91 62 143 31 54 34 64 34 104 0 22 5 43 11 46 5 4 8 12 6 18 -2 7 7 29
20 49 12 21 23 42 23 48 0 6 4 18 9 28 17 32 41 90 41 100 0 5 13 27 28 48 62
88 87 144 62 144 -5 0 -10 9 -10 21 0 33 -79 105 -122 112 -32 5 -39 2 -61
-25 -15 -17 -23 -37 -20 -46 5 -11 2 -14 -9 -9 -13 4 -19 -5 -29 -46 -6 -29
-23 -77 -37 -107 -14 -30 -25 -62 -25 -70 0 -8 -10 -31 -22 -50 -22 -35 -32
-65 -42 -130 -3 -19 -9 -37 -12 -40 -10 -7 -36 -67 -51 -115 -7 -22 -16 -44
-21 -49 -5 -6 -9 -20 -9 -33 0 -13 -9 -32 -20 -43 -11 -11 -20 -30 -20 -43 0
-13 -4 -27 -9 -32 -14 -15 -81 -143 -81 -155 0 -6 -11 -26 -25 -44 -14 -18
-25 -38 -25 -44 0 -7 -3 -12 -7 -12 -13 0 -76 25 -103 39 -14 8 -26 14 -27 13
-10 -6 -119 47 -134 65 -6 7 -18 13 -26 13 -7 0 -24 7 -36 15 -13 8 -49 24
-80 34 -32 11 -64 27 -73 36 -8 8 -22 15 -30 15 -8 0 -14 4 -14 8 0 8 -56 34
-75 36 -5 1 -16 7 -23 14 -7 6 -24 12 -37 12 -26 0 -65 18 -89 43 -10 9 -26
17 -36 17 -10 0 -27 11 -38 25 -11 14 -26 25 -35 25 -15 0 -67 47 -67 61 0 5
-5 9 -11 9 -14 0 -149 102 -149 112 0 5 -6 8 -13 8 -13 0 -81 51 -166 127 -29
26 -66 57 -81 68 -15 11 -27 22 -27 25 2 13 -70 80 -85 80 -10 0 -18 4 -18 9
0 13 -57 78 -130 148 -83 80 -76 72 -110 117 -17 21 -30 43 -30 47 0 5 -14 22
-31 39 -31 29 -43 47 -81 122 -10 21 -22 38 -27 38 -5 0 -11 17 -15 38 -3 21
-16 48 -28 59 -35 33 -47 50 -41 57 3 3 -6 18 -20 32 -15 15 -27 33 -27 40 0
7 -9 18 -20 24 -11 6 -20 17 -20 25 0 8 -4 15 -8 15 -5 0 -14 12 -21 26 -6 15
-23 36 -37 46 -13 11 -22 23 -19 28 3 4 -2 13 -10 20 -8 7 -15 19 -15 27 0 8
-6 21 -13 28 -38 44 -67 96 -133 243 -8 17 -19 32 -24 32 -6 0 -10 9 -10 20 0
12 -11 33 -25 48 -25 26 -65 104 -65 126 0 6 -14 27 -30 46 -16 19 -30 45 -30
58 0 12 -7 25 -15 28 -8 3 -17 22 -21 42 -4 21 -20 72 -35 115 -16 43 -29 87
-29 98 0 11 -7 22 -15 25 -8 4 -18 23 -21 44 -4 27 -12 40 -26 43 -11 3 -17
10 -14 15 3 6 -1 29 -10 53 -8 24 -17 53 -20 64 -24 122 -39 179 -50 190 -7 7
-11 15 -8 18 4 3 -1 16 -10 29 -9 13 -16 43 -16 70 0 27 -4 48 -9 48 -4 0 -16
25 -26 55 -9 30 -20 57 -25 60 -4 3 -14 29 -21 57 -6 29 -18 58 -26 63 -9 7
-15 48 -18 135 -7 142 -9 164 -23 240 -6 31 -8 83 -5 118 3 36 2 67 -5 74 -11
14 -19 172 -12 251 1 6 -1 68 -3 137 -2 69 0 177 4 240 14 181 15 210 5 213
-5 2 -4 40 2 87 6 47 14 137 17 200 4 63 9 119 13 125 4 5 5 93 4 195 -2 102
1 195 5 207 4 12 6 69 3 127 -3 59 -1 107 4 109 5 2 13 25 17 53 4 27 13 74
19 104 11 56 17 121 24 270 3 47 12 135 21 195 9 61 17 117 17 125 1 181 31
373 65 408 7 7 13 22 13 32 0 10 5 22 10 25 6 3 10 19 10 34 0 15 9 36 20 46
11 10 18 20 15 23 -3 3 0 11 5 17 11 13 -4 116 -21 147 -5 10 -9 29 -9 43 0
24 -3 25 -33 20 -18 -4 -44 -2 -59 4 -20 8 -28 7 -32 -5 -3 -8 -11 -14 -18
-14 -8 0 -22 -10 -33 -22 -10 -13 -18 -23 -16 -23 1 0 0 -7 -3 -15 -32 -92
-49 -130 -56 -130 -4 0 -13 -15 -20 -32 -6 -18 -16 -42 -22 -53 -16 -29 -29
-143 -34 -289 -3 -81 -10 -140 -19 -160 -8 -18 -17 -85 -21 -161 -18 -349 -33
-479 -67 -590 -14 -46 -17 -68 -19 -142 -2 -68 13 -491 18 -515 3 -16 -1 -40
-9 -56 -8 -16 -12 -43 -9 -60 2 -18 -3 -45 -13 -64 -13 -25 -18 -65 -20 -161
-2 -77 -8 -134 -15 -142 -7 -8 -9 -31 -6 -57 4 -24 3 -76 -2 -116 -4 -40 -6
-74 -4 -77 2 -2 7 -53 9 -112 3 -59 10 -114 17 -122 9 -12 21 -252 15 -326 -3
-37 -1 -70 5 -125 19 -171 25 -231 27 -285 2 -33 7 -65 12 -72 5 -7 6 -16 3
-22 -3 -5 -1 -11 6 -13 13 -5 16 -99 4 -136 -5 -16 -3 -29 8 -41 9 -10 16 -22
16 -28 0 -6 7 -16 15 -23 8 -7 15 -24 15 -38 0 -14 9 -35 20 -47 13 -14 21
-37 22 -66 0 -24 8 -54 16 -67 8 -13 18 -40 23 -60 11 -55 40 -156 47 -167 11
-17 53 -138 62 -180 5 -22 16 -55 25 -72 9 -18 14 -37 10 -43 -3 -5 -3 -10 2
-10 4 0 14 -15 21 -33 7 -17 18 -40 23 -49 5 -10 9 -25 9 -33 0 -8 4 -23 9
-33 27 -50 51 -104 51 -113 0 -6 7 -17 15 -25 8 -9 15 -26 15 -38 0 -13 6 -29
14 -35 8 -6 19 -32 25 -56 6 -26 19 -49 31 -55 11 -6 20 -17 20 -24 0 -8 6
-19 14 -25 7 -6 16 -24 19 -39 3 -15 15 -37 26 -49 12 -12 21 -28 21 -36 0 -7
13 -33 28 -58 32 -50 62 -112 62 -127 0 -5 7 -12 15 -16 8 -3 15 -12 15 -20 0
-8 3 -16 8 -18 4 -1 18 -23 31 -48 14 -25 29 -48 33 -51 5 -3 11 -15 12 -25 2
-10 11 -18 20 -18 9 1 16 -2 16 -8 0 -5 20 -30 44 -56 24 -26 47 -57 50 -69 4
-13 11 -23 15 -23 4 0 13 -12 20 -26 6 -14 24 -42 40 -62 18 -23 33 -60 41
-100 7 -34 17 -65 21 -68 5 -3 9 -13 9 -22 1 -9 19 -35 40 -57 22 -22 40 -45
40 -50 0 -6 13 -22 30 -35 16 -14 29 -31 30 -37 0 -7 3 -13 8 -13 4 0 27 -20
52 -45 25 -24 50 -45 55 -45 6 -1 35 -32 65 -70 30 -38 61 -69 69 -69 15 -1
121 -109 121 -124 0 -5 6 -7 13 -4 8 3 30 -14 52 -39 23 -26 47 -44 60 -44 12
0 33 -15 49 -35 16 -19 33 -35 40 -35 6 0 22 -14 35 -30 13 -17 31 -30 41 -30
21 0 62 -45 81 -90 8 -16 21 -30 29 -30 8 0 38 -21 67 -48 79 -72 107 -91 144
-96 19 -2 50 -11 71 -20 20 -9 50 -17 67 -18 17 -1 31 -6 31 -10 0 -10 60 -41
67 -35 2 3 28 -10 56 -29 28 -19 59 -34 69 -34 9 0 21 -6 25 -14 8 -14 85 -63
116 -73 9 -3 17 -9 17 -13 0 -4 12 -7 26 -7 15 0 36 -11 50 -27 14 -14 33 -26
42 -26 9 0 29 -6 43 -14 14 -7 42 -16 62 -20 21 -4 37 -11 37 -16 0 -5 9 -12
20 -15 11 -3 20 -12 20 -19 0 -21 -38 -102 -55 -116 -8 -7 -15 -19 -15 -26 0
-8 -4 -22 -8 -32 -11 -21 -62 -132 -87 -187 -10 -22 -18 -43 -17 -47 1 -5 -2
-8 -7 -8 -10 0 -33 -61 -30 -76 2 -5 -5 -27 -15 -49 -10 -22 -20 -57 -23 -77
-3 -21 -16 -47 -29 -59 -13 -12 -24 -32 -24 -45 0 -12 -7 -35 -15 -50 -8 -16
-15 -42 -15 -59 0 -33 -31 -109 -49 -119 -6 -4 -11 -17 -11 -28 0 -12 -8 -30
-17 -40 -9 -10 -18 -37 -19 -59 -1 -22 -8 -48 -16 -57 -21 -28 -38 -61 -38
-77 0 -8 -5 -15 -11 -15 -7 0 -9 -9 -5 -24 4 -15 0 -28 -10 -37 -8 -7 -13 -21
-11 -31 3 -10 2 -18 -2 -18 -3 0 -11 -10 -18 -22 -38 -75 -47 -95 -49 -113 -8
-55 -18 -92 -29 -110 -7 -11 -20 -44 -30 -72 -9 -29 -22 -56 -28 -60 -7 -5
-18 -26 -26 -48 -7 -22 -28 -71 -46 -110 -37 -80 -47 -103 -51 -127 -2 -9 -19
-50 -38 -90 -18 -40 -39 -91 -46 -113 -7 -22 -16 -44 -20 -50 -4 -5 -8 -17 -9
-25 -3 -38 -9 -58 -32 -100 -13 -25 -24 -49 -23 -55 0 -5 -8 -32 -18 -58 -10
-26 -18 -60 -18 -75 0 -23 -20 -64 -39 -82 -19 -16 -81 -144 -81 -165 0 -7 -7
-15 -15 -19 -8 -3 -15 -11 -15 -17 0 -7 -6 -20 -13 -28 -8 -9 -22 -38 -31 -64
-10 -26 -28 -60 -40 -75 -13 -15 -26 -47 -30 -71 -4 -24 -13 -53 -21 -64 -8
-12 -15 -28 -15 -36 0 -8 -6 -22 -13 -30 -7 -9 -26 -54 -41 -101 -29 -87 -61
-180 -76 -215 -5 -11 -18 -40 -28 -65 -11 -25 -28 -69 -38 -99 -10 -29 -25
-56 -31 -58 -7 -3 -13 -10 -13 -15 0 -6 -6 -24 -14 -41 -8 -18 -16 -40 -20
-49 -3 -10 -15 -18 -27 -18 -23 0 -173 25 -249 41 -25 5 -62 10 -82 11 -21 1
-38 4 -38 8 0 8 -84 29 -141 35 -26 2 -57 9 -71 14 -13 5 -42 11 -64 12 -21 2
-41 7 -44 11 -3 4 -35 8 -70 9 -36 1 -80 6 -98 11 -18 5 -41 7 -50 3 -9 -4
-55 -8 -102 -9 -52 -2 -98 -9 -120 -18 -19 -9 -51 -19 -71 -22 -44 -8 -82 -45
-69 -66 5 -8 10 -30 10 -48 0 -45 29 -91 60 -99 14 -3 30 -10 37 -15 17 -13
112 -13 125 0 7 7 29 12 49 12 21 0 41 5 45 11 8 13 207 4 235 -11 10 -6 28
-10 41 -10 13 0 28 -4 34 -9 13 -13 117 -22 133 -12 9 6 26 1 49 -12 19 -11
51 -22 71 -24 19 -2 42 -10 51 -17 8 -7 21 -11 28 -9 7 3 19 0 27 -7 8 -6 19
-9 24 -6 5 4 12 2 16 -3 3 -6 12 -8 20 -4 8 3 15 0 15 -7 0 -7 8 -9 20 -5 29
9 87 -15 99 -42 6 -13 22 -28 36 -35 14 -6 25 -15 25 -20 0 -4 9 -8 21 -8 31
0 59 -18 53 -35 -4 -9 0 -15 8 -15 20 0 48 -32 48 -54 0 -9 4 -15 9 -11 6 3
18 -6 28 -21 10 -14 36 -45 58 -68 22 -22 47 -54 55 -71 8 -16 25 -41 38 -55
12 -14 22 -30 22 -36 0 -7 7 -14 15 -18 8 -3 15 -12 15 -21 0 -9 12 -20 28
-26 15 -5 39 -29 55 -54 16 -25 33 -45 39 -45 17 0 78 -73 78 -93 0 -10 46
-67 101 -125 56 -59 109 -119 119 -134 9 -15 29 -37 44 -49 15 -12 57 -58 93
-103 56 -70 71 -83 110 -93 40 -10 46 -9 65 10 33 35 98 125 98 136 0 6 -14
23 -30 38 -17 14 -30 33 -30 41 0 8 -6 12 -14 9 -10 -4 -13 -1 -10 7 3 8 -7
23 -23 36 -15 12 -51 44 -80 71 -28 27 -58 49 -67 49 -9 0 -17 9 -18 23 0 12
-2 29 -2 37 -1 8 -8 14 -16 13 -8 -1 -42 32 -75 73 -33 41 -77 94 -98 117 -53
58 -61 68 -76 99 -8 16 -18 28 -23 28 -4 0 -27 29 -49 65 -23 36 -46 65 -50
65 -4 0 -11 9 -14 20 -3 11 -13 20 -20 20 -27 0 -25 19 3 32 23 12 36 12 77 1
28 -7 61 -13 74 -13 13 0 21 -3 18 -7 -9 -9 62 -33 78 -27 7 3 20 -2 29 -11
12 -12 16 -13 16 -3 1 8 4 7 10 -4 6 -9 25 -20 42 -23 18 -4 48 -20 68 -35 19
-15 51 -32 70 -37 19 -5 34 -15 33 -21 -2 -7 5 -12 15 -12 11 0 27 -9 37 -20
10 -11 26 -20 35 -20 9 0 21 -5 28 -12 11 -11 36 -16 96 -21 16 -1 31 -8 34
-15 2 -6 10 -12 18 -12 8 0 43 -13 77 -29 34 -16 72 -32 85 -35 12 -4 22 -12
22 -17 0 -5 6 -9 13 -9 7 0 22 -8 33 -18 10 -9 29 -18 42 -20 13 -2 32 -12 43
-23 10 -10 26 -19 34 -19 8 0 15 -4 15 -8 0 -4 9 -8 20 -9 19 -2 82 -41 88
-55 2 -5 12 -8 23 -8 10 0 19 -7 19 -15 0 -8 7 -15 15 -15 8 0 15 -3 15 -7 0
-5 19 -16 43 -27 23 -10 50 -22 59 -27 31 -16 52 -9 95 30 59 53 67 101 24
154 -16 21 -54 50 -83 65 -29 14 -55 28 -58 32 -3 3 -24 12 -47 19 -24 8 -50
22 -59 33 -10 10 -24 18 -33 18 -9 0 -27 9 -41 20 -14 11 -32 20 -40 20 -8 0
-33 14 -54 30 -22 17 -43 30 -48 30 -13 0 -54 40 -42 41 66 6 224 -20 273 -46
16 -8 53 -16 82 -19 139 -11 205 -19 214 -26 28 -20 133 -42 198 -42 39 0 86
-3 102 -8 27 -8 128 -20 180 -21 94 -3 305 10 322 19 12 7 30 12 40 12 10 1
30 17 46 37 38 51 38 116 -2 159 l-28 31 -244 -3 c-240 -3 -462 13 -514 36
-24 12 -186 40 -226 40 -15 0 -31 5 -34 10 -3 6 -19 10 -35 10 -16 0 -32 5
-35 11 -4 6 -13 8 -20 5 -7 -2 -17 0 -22 5 -9 9 -74 22 -183 36 -25 3 -50 10
-56 14 -6 5 -56 9 -110 10 -54 0 -133 6 -174 14 -62 12 -153 24 -376 49 -11 1
-25 6 -32 10 -6 4 -31 8 -54 10 -24 2 -51 7 -61 11 -9 4 -29 5 -42 3 -17 -4
-25 -1 -25 8 0 9 -12 14 -35 14 -19 0 -35 4 -35 10 0 5 -18 14 -40 20 -21 6
-42 15 -45 20 -3 5 -13 6 -22 3 -9 -4 -19 1 -25 10 -5 10 -19 17 -31 17 -12 0
-31 7 -41 15 -11 8 -30 15 -42 15 -13 0 -26 4 -29 10 -10 16 -73 42 -84 35 -6
-3 -11 1 -11 9 0 9 5 16 10 16 6 0 10 15 10 34 0 19 5 38 10 41 6 3 10 17 10
29 0 13 6 46 14 72 8 27 20 70 27 97 6 26 17 51 24 55 19 11 35 48 35 81 0 16
4 32 9 35 4 3 12 20 16 38 9 38 10 41 28 90 7 21 16 41 20 44 4 4 7 16 7 26 0
10 5 18 11 18 16 0 39 26 39 44 0 9 5 16 10 16 6 0 10 9 10 21 0 21 9 43 61
155 16 33 29 66 29 72 0 6 13 37 29 69 29 57 45 93 71 163 8 19 17 37 20 40 3
3 12 25 20 50 7 25 17 50 21 55 4 6 16 42 28 80 11 39 32 93 46 120 14 28 25
57 25 66 0 26 51 142 69 159 10 8 16 20 14 26 -2 6 3 17 12 24 8 7 15 18 15
25 0 28 35 122 57 151 13 17 23 43 23 58 0 15 9 44 19 64 10 20 24 56 30 80 7
23 16 42 21 42 4 0 11 19 15 42 4 24 14 53 22 65 15 22 80 201 88 238 7 39 33
99 44 103 6 2 11 12 11 22 0 10 4 21 9 24 5 3 12 23 16 43 4 21 10 40 14 43 8
6 51 130 51 148 0 17 42 106 52 110 4 2 8 9 8 16 0 16 33 104 65 171 13 28 26
67 30 88 4 24 10 35 17 31 7 -5 9 -2 5 9 -3 8 0 21 8 27 7 6 16 27 20 46 3 19
13 38 21 41 7 3 14 11 14 18 0 7 23 56 50 108 27 52 50 100 50 105 0 6 10 33
23 62 l22 51 42 -6 c51 -7 74 -15 91 -32 14 -13 76 -33 105 -33 10 0 20 -7 24
-16 3 -8 11 -13 18 -11 6 3 28 -10 49 -29 20 -18 43 -31 51 -28 8 3 24 -4 36
-15 13 -12 33 -21 46 -21 13 0 23 -4 23 -10 0 -5 11 -10 24 -10 13 0 40 -7 60
-15 20 -9 42 -15 49 -13 7 1 22 -3 34 -10 12 -7 26 -11 30 -10 8 1 17 -2 120
-49 30 -13 71 -23 97 -23 36 0 46 -4 51 -20 4 -13 18 -21 43 -25 20 -3 58 -12
83 -20 26 -8 54 -15 63 -15 9 0 16 -5 16 -11 0 -5 8 -9 18 -8 26 4 92 -11 92
-21 0 -5 17 -12 37 -15 55 -8 152 -31 193 -46 54 -19 64 -22 83 -26 10 -1 31
-10 47 -18 16 -8 55 -15 88 -15 43 0 66 -5 84 -19 18 -15 43 -20 100 -22 41
-1 80 1 87 5 6 4 14 0 17 -8 4 -11 19 -16 43 -16 21 0 40 -3 44 -6 3 -3 63 -7
134 -9 70 -2 164 -8 208 -14 44 -6 156 -9 250 -8 123 2 177 0 195 -10 14 -7
27 -8 30 -3 7 11 140 -11 140 -23 0 -5 6 -4 14 2 8 7 28 16 46 21 27 8 33 6
37 -10 4 -14 10 -17 25 -11 12 4 39 4 62 0 130 -25 314 -28 913 -18 183 3 276
9 285 16 9 8 39 10 82 8 37 -3 76 -1 85 5 12 6 22 5 29 -2 18 -18 441 4 453
23 3 6 68 12 145 15 76 3 155 8 174 11 19 3 53 8 75 9 85 7 100 9 111 16 20
13 207 22 369 19 81 -2 179 3 320 18 175 18 225 20 225 9 0 -6 8 -18 18 -27
11 -9 22 -28 26 -44 3 -15 15 -36 26 -47 11 -11 20 -22 20 -25 0 -3 0 -11 0
-17 0 -7 13 -27 28 -43 16 -17 37 -49 47 -73 10 -23 23 -42 28 -42 5 0 6 -7 3
-15 -4 -11 9 -26 39 -47 25 -18 48 -41 51 -52 4 -12 16 -30 28 -42 31 -31 48
-55 74 -106 13 -25 32 -55 43 -67 10 -11 19 -23 19 -26 0 -3 11 -18 25 -33 14
-15 25 -32 25 -38 0 -6 7 -17 15 -24 8 -7 15 -21 15 -31 0 -11 5 -19 10 -19 6
0 10 -10 10 -23 0 -13 9 -26 22 -32 13 -6 25 -19 27 -30 2 -11 12 -26 22 -33
11 -7 19 -20 19 -28 0 -8 5 -14 11 -14 5 0 7 -5 4 -10 -3 -6 -3 -10 2 -10 10
0 52 -66 87 -137 15 -28 35 -54 45 -58 12 -3 21 -19 25 -39 4 -19 13 -36 20
-39 8 -3 19 -22 26 -43 15 -44 49 -86 63 -77 6 3 7 1 3 -5 -4 -6 2 -19 14 -29
11 -10 20 -21 20 -26 0 -20 84 -176 97 -181 8 -3 12 -10 9 -15 -3 -4 3 -16 14
-26 10 -9 22 -30 25 -46 4 -17 13 -29 22 -29 9 0 13 -6 9 -15 -3 -8 -2 -15 3
-15 5 0 32 -35 62 -78 29 -42 57 -78 61 -80 4 -2 8 -12 8 -21 0 -10 8 -29 19
-42 15 -20 71 -108 134 -214 7 -11 28 -43 48 -70 20 -28 43 -64 52 -80 9 -17
32 -48 52 -70 19 -22 35 -45 35 -52 0 -7 4 -13 8 -13 5 0 23 -20 42 -45 19
-25 39 -45 46 -45 7 0 16 -15 20 -32 3 -18 22 -55 40 -83 19 -27 34 -54 34
-60 0 -5 18 -28 40 -50 21 -22 39 -48 40 -57 0 -9 5 -20 10 -23 5 -3 10 -15
10 -25 0 -10 10 -31 23 -47 12 -15 31 -46 42 -68 11 -22 30 -51 43 -65 12 -14
22 -28 22 -32 0 -13 101 -173 126 -199 15 -16 24 -37 24 -58 0 -18 9 -45 19
-60 11 -15 22 -43 26 -63 8 -40 7 -41 -75 -54 -53 -8 -110 -6 -125 5 -5 4 -32
9 -60 10 -27 1 -68 6 -90 11 -22 4 -73 5 -113 1 -40 -4 -76 -3 -80 1 -4 4 -86
10 -182 12 -96 3 -228 8 -292 11 l-117 7 -26 -27 c-31 -34 -33 -75 -5 -82 11
-3 17 -10 14 -15 -3 -5 0 -9 7 -7 39 5 42 1 37 -65 -5 -59 -4 -65 17 -74 13
-6 26 -7 31 -2 5 5 26 5 47 1 30 -7 40 -6 50 8 10 15 23 16 102 10 53 -5 106
-4 127 2 27 7 44 6 60 -2 13 -7 40 -12 61 -10 21 1 43 -1 49 -5 6 -4 63 -9
126 -10 64 -2 123 -6 131 -9 9 -3 42 -7 74 -10 32 -2 67 -10 78 -16 22 -11
223 -4 244 9 5 3 25 7 43 8 19 0 37 5 40 10 11 15 52 35 52 25 0 -5 13 -11 30
-14 19 -4 37 -18 48 -37 10 -16 22 -27 25 -23 4 3 7 1 7 -6 0 -13 128 -141
141 -141 4 0 10 6 12 13 3 7 6 5 6 -5 1 -22 69 -98 87 -98 8 0 14 -4 14 -9 0
-6 18 -20 40 -32 22 -12 42 -31 46 -41 3 -10 9 -16 14 -13 5 3 17 -3 27 -15
10 -11 22 -20 29 -20 6 0 19 -9 29 -20 10 -11 24 -20 32 -20 7 0 16 -7 19 -15
4 -8 17 -15 30 -15 15 0 24 -6 24 -15 0 -8 7 -15 15 -15 8 0 15 -4 15 -10 0
-5 7 -10 15 -10 9 0 29 -16 46 -35 17 -19 34 -33 38 -30 4 2 15 -5 24 -16 9
-10 24 -19 32 -19 8 0 15 -5 15 -12 0 -6 3 -8 7 -5 3 4 16 -3 27 -16 12 -12
41 -35 66 -52 25 -16 51 -38 58 -47 7 -10 19 -18 26 -18 6 0 17 -15 24 -32 17
-46 45 -76 84 -92 58 -23 76 -10 114 80 38 93 45 129 31 164 -17 40 -47 69
-65 63 -11 -5 -14 -2 -9 10 5 13 1 17 -16 18 -12 1 -25 1 -30 0 -10 -1 -47 37
-47 49 0 6 -10 10 -22 10 -41 0 -94 25 -127 57 -17 17 -41 35 -53 39 -12 4
-31 17 -41 30 -10 13 -27 24 -38 24 -11 0 -22 6 -25 14 -3 8 -12 12 -19 10 -7
-3 -27 8 -43 25 -16 17 -34 31 -41 31 -18 0 -71 42 -71 57 0 7 -6 13 -12 13
-17 1 -58 35 -58 49 0 6 -9 11 -20 11 -11 0 -20 5 -20 10 0 6 -7 10 -15 10 -8
0 -15 5 -15 11 0 6 -5 9 -11 7 -7 -2 -33 19 -58 46 -42 46 -71 73 -108 101 -8
6 -11 18 -8 26 9 24 83 10 180 -32 25 -11 119 -29 124 -23 2 2 10 -4 17 -14 6
-10 26 -19 44 -20 18 -1 58 -11 91 -22 32 -11 68 -20 79 -20 11 0 28 -4 38 -9
26 -13 169 -51 193 -51 12 0 38 -12 56 -26 26 -20 42 -25 64 -20 20 4 28 2 26
-7 -1 -7 13 -13 37 -15 22 -2 49 -10 60 -18 11 -8 28 -14 37 -14 10 0 19 -4
21 -9 2 -5 21 -12 43 -15 65 -8 129 -28 142 -45 10 -13 15 -14 32 -3 17 10 21
10 19 0 -2 -8 6 -12 20 -10 15 2 22 -2 22 -12 0 -11 9 -16 30 -16 17 0 30 -4
30 -10 0 -5 14 -10 30 -10 17 0 30 -4 30 -10 0 -5 15 -10 34 -10 19 0 38 -4
41 -10 3 -5 15 -10 25 -10 10 0 25 -7 34 -15 8 -8 21 -12 29 -9 8 3 21 -2 30
-10 9 -9 27 -16 41 -16 14 0 28 -5 31 -10 4 -6 10 -8 15 -5 5 3 11 1 15 -5 3
-5 19 -10 35 -10 16 0 32 -5 35 -10 4 -6 10 -8 15 -5 4 3 24 -2 44 -10 19 -8
63 -15 97 -15 58 0 64 2 95 36 19 19 34 39 34 44 0 5 9 12 21 15 11 4 18 9 16
12 -3 2 -1 18 5 34 8 24 7 34 -7 49 -29 32 -93 60 -138 60 -24 0 -67 7 -95 15
-29 9 -57 13 -63 9 -6 -3 -18 0 -27 8 -20 16 -111 45 -166 52 -22 3 -43 11
-47 17 -4 6 -31 15 -60 20 -30 5 -59 15 -65 23 -5 8 -17 14 -25 13 -23 -1 -79
15 -79 23 0 8 -76 25 -83 18 -2 -1 -10 2 -18 8 -12 10 -42 20 -74 25 -5 1 -32
10 -58 20 -26 11 -61 19 -77 19 -16 0 -32 4 -35 10 -3 5 -25 14 -48 20 -23 6
-49 14 -57 17 -8 3 -26 7 -39 9 -29 4 -32 6 -21 23 5 9 33 15 81 18 41 2 87 8
103 13 15 5 32 7 37 4 5 -3 35 0 66 5 75 14 173 15 246 3 32 -5 60 -5 63 0 3
4 9 6 14 3 4 -3 44 -6 89 -7 45 0 81 -5 81 -11 0 -5 6 -4 14 2 9 7 53 10 133
7 66 -2 153 0 194 4 41 5 112 10 159 13 47 3 107 11 134 18 32 9 51 10 53 4 4
-13 86 -9 113 5 16 8 35 8 71 1 87 -19 138 18 163 118 13 50 10 91 -5 91 -5 0
-9 7 -9 17 0 9 -3 14 -6 10 -4 -3 -13 1 -22 10 -13 13 -30 14 -101 8 -48 -4
-104 -8 -126 -9 -22 -1 -46 -5 -53 -10 -19 -11 -295 -17 -331 -6 -20 5 -31 5
-34 -3 -2 -7 -40 -11 -106 -11 -74 -1 -104 -5 -110 -15 -6 -10 -13 -10 -29 -2
-11 6 -69 10 -133 9 -63 -1 -195 0 -294 2 -170 2 -239 -3 -395 -31 -36 -6 -81
-12 -102 -13 -20 0 -34 -4 -32 -7 2 -3 -9 -7 -24 -8 -77 -4 -137 -10 -232 -23
-58 -8 -124 -14 -147 -13 -24 2 -43 -1 -43 -6 0 -6 -8 -6 -19 0 -10 6 -49 13
-87 16 -77 7 -139 22 -169 42 -11 7 -32 13 -47 13 -16 0 -28 4 -28 9 0 18
-102 10 -139 -10 -41 -22 -81 -25 -81 -6 0 12 -29 45 -98 107 -18 17 -30 35
-27 40 3 5 0 8 -7 6 -16 -5 -87 74 -93 104 -2 12 -9 27 -14 34 -5 6 -10 13
-10 16 -8 35 -15 50 -22 50 -5 0 -9 5 -9 11 0 7 -11 22 -25 35 -14 13 -37 46
-51 74 -14 27 -28 50 -32 50 -4 0 -13 15 -20 33 -7 17 -17 39 -23 47 -5 8 -16
31 -25 52 -8 20 -26 45 -40 55 -13 10 -24 24 -24 31 0 12 -54 99 -70 112 -12
11 -46 68 -85 146 -22 44 -59 99 -82 122 -24 23 -43 48 -43 57 0 9 -7 18 -15
21 -8 3 -20 21 -27 40 -7 21 -17 33 -25 30 -7 -3 -22 9 -35 27 -12 18 -25 34
-29 37 -3 3 -10 16 -14 30 -7 23 -59 97 -77 110 -4 3 -11 22 -15 42 -7 32 -42
82 -98 142 -12 11 -24 29 -28 39 -4 10 -11 15 -17 12 -5 -3 -10 3 -10 14 0 11
-12 33 -26 48 -33 35 -74 98 -74 115 -1 7 -20 37 -44 67 -25 30 -42 59 -40 66
3 6 -6 24 -20 40 -13 15 -22 34 -19 42 3 7 1 13 -3 13 -5 0 -20 21 -34 47 -23
44 -36 62 -86 119 -12 14 -27 39 -34 57 -24 63 -42 99 -58 117 -30 33 -38 44
-66 96 -15 29 -41 66 -57 83 -16 18 -29 35 -29 39 0 4 -9 18 -20 32 -11 14
-20 33 -20 43 0 9 -4 17 -9 17 -5 0 -19 21 -32 48 -12 26 -38 67 -56 91 -18
25 -36 55 -39 68 -4 13 -10 23 -15 23 -5 0 -9 7 -9 15 0 9 -11 27 -24 40 -13
12 -33 39 -45 59 -12 19 -38 45 -57 56 -18 12 -34 26 -34 32 0 5 -6 15 -12 23
-24 24 -53 67 -53 79 -2 21 -23 62 -40 76 -22 18 -47 68 -40 80 3 5 1 11 -4
15 -18 10 0 34 35 45 19 6 34 16 34 22 0 6 12 8 26 5 15 -3 43 2 63 10 34 15
71 20 206 27 33 1 72 6 86 10 17 5 29 3 34 -3 4 -8 13 -7 28 4 12 8 34 15 49
15 15 0 30 5 33 10 3 6 26 10 49 10 27 0 48 6 56 15 8 10 30 15 61 15 26 0 51
5 54 10 4 6 14 10 23 8 10 -1 31 3 47 9 40 16 115 36 140 38 11 1 40 11 65 23
25 12 59 22 76 22 18 0 38 8 49 20 10 11 29 20 43 20 14 0 32 10 43 24 10 13
34 27 54 30 19 4 35 11 35 15 0 5 17 11 38 15 20 3 50 13 66 21 15 8 35 15 42
15 8 0 42 17 77 38 61 37 171 92 184 92 4 0 14 7 24 16 10 9 47 24 84 33 36
10 63 20 59 23 -3 4 4 4 15 1 12 -3 29 1 39 10 9 8 49 32 87 52 39 20 79 45
91 56 11 10 25 19 32 19 6 0 16 9 22 20 6 11 17 20 25 20 8 0 15 4 15 9 0 4
16 11 34 14 19 3 52 17 73 31 21 14 50 26 65 26 17 0 33 8 40 20 7 11 18 20
24 20 7 0 14 7 18 15 3 8 17 15 30 15 17 0 34 11 51 34 20 26 31 32 50 28 17
-3 27 1 31 12 3 9 15 16 25 16 10 0 19 4 19 9 0 5 17 11 39 15 21 3 44 13 51
21 7 8 16 13 20 10 4 -2 20 7 36 20 16 14 37 25 47 25 10 0 35 11 55 25 20 14
46 25 57 25 11 0 26 9 33 20 7 11 17 20 23 20 6 0 30 14 55 30 24 17 65 41 92
53 42 20 79 44 119 77 7 5 15 10 18 10 3 0 18 11 32 25 15 13 40 27 55 30 15
4 28 10 28 14 0 6 59 45 70 46 3 0 19 14 36 30 47 45 62 55 78 55 7 0 28 14
46 30 18 17 40 30 50 30 10 0 20 6 23 14 3 7 18 17 34 20 35 9 123 64 141 88
7 10 19 18 27 18 7 0 26 11 42 24 15 13 37 26 48 30 11 3 36 19 55 36 19 16
40 30 45 30 6 0 35 23 65 50 30 28 60 50 67 50 7 0 13 3 13 8 0 4 13 16 30 27
16 11 35 30 41 42 7 13 18 23 25 23 7 0 33 27 59 60 25 32 54 65 64 72 10 7
31 33 47 57 38 59 96 125 146 167 20 17 48 53 48 62 0 4 21 27 46 51 24 24 51
57 60 75 28 59 80 136 101 149 7 4 13 14 13 21 0 8 7 16 15 20 8 3 15 10 15
16 0 12 58 91 75 102 21 14 75 68 75 76 0 5 12 23 27 40 29 35 44 60 66 108 8
17 20 34 25 38 6 4 22 31 36 60 14 30 32 56 41 60 8 3 15 12 15 21 0 21 28 75
49 94 10 9 23 34 30 55 8 22 22 48 31 59 10 10 21 31 25 45 3 14 13 42 21 61
8 20 15 37 14 39 -1 2 8 12 19 21 12 10 21 26 21 34 0 9 11 24 25 33 14 9 23
20 20 24 -3 4 3 18 13 31 10 13 24 53 31 89 12 61 65 199 81 210 14 10 30 49
30 75 0 14 4 24 9 21 5 -3 11 7 14 23 3 16 20 52 37 81 17 29 29 55 26 58 -3
2 3 17 14 31 10 15 22 39 25 54 4 14 13 31 21 38 8 6 14 28 14 49 0 20 11 59
25 86 14 27 25 54 25 61 0 6 6 18 13 25 8 7 16 25 19 38 4 14 16 57 28 95 12
39 24 82 27 98 3 15 9 27 13 27 4 0 11 21 15 48 8 61 25 111 47 141 10 13 18
37 18 54 0 17 9 49 19 71 42 88 55 122 58 155 2 18 14 57 27 85 13 28 29 83
36 121 7 39 16 75 20 80 4 6 11 26 15 45 16 84 67 287 76 303 10 19 16 60 23
162 8 111 55 322 75 334 10 7 -3 101 -16 126 -5 9 -5 42 0 78 8 55 7 68 -12
109 -42 92 -48 220 -21 455 4 43 4 88 -1 106 -11 38 -11 37 -1 37 8 -1 37 -64
46 -101 5 -21 15 -29 48 -37 38 -10 48 -8 97 15 30 15 71 43 91 62 21 20 46
41 56 48 11 6 18 16 17 21 -2 6 12 16 30 22 17 6 56 33 86 60 30 28 58 50 63
50 4 0 8 7 8 15 0 8 4 15 9 15 5 0 34 25 66 55 31 30 61 55 66 55 5 0 9 5 9
10 0 6 3 9 8 9 26 -4 43 4 54 28 7 15 29 38 48 50 19 13 43 30 52 38 10 8 25
12 33 9 9 -4 23 4 36 20 11 15 37 35 57 46 21 10 31 19 24 20 -7 0 -10 5 -7
10 4 6 11 8 16 5 5 -3 14 -1 21 4 7 6 29 23 48 38 70 57 109 83 123 83 8 0 22
9 32 20 10 11 27 22 39 26 11 3 30 14 41 24 32 28 124 90 134 90 5 0 28 23 51
50 23 28 48 50 54 50 7 0 26 16 42 35 16 19 34 35 40 35 6 0 19 9 29 20 10 11
24 20 31 20 8 0 21 11 30 25 9 14 36 37 60 51 23 14 59 43 78 64 20 22 47 42
62 46 14 4 28 14 32 23 3 9 25 35 49 59 24 24 43 46 43 51 0 10 107 121 117
121 8 0 37 40 38 52 0 4 10 16 22 28 13 11 25 31 29 45 4 15 11 22 20 18 8 -3
14 1 14 8 0 15 13 30 114 130 36 37 66 70 66 75 0 5 14 18 30 29 16 11 30 26
30 33 0 7 6 15 14 18 8 3 19 19 25 35 5 16 16 29 24 29 13 0 57 32 57 42 0 7
98 108 105 108 11 0 115 108 115 119 0 6 5 11 10 11 6 0 38 30 73 67 34 37 97
102 141 144 45 44 76 81 72 88 -4 6 0 11 8 11 9 0 16 5 16 10 0 6 33 43 74 84
40 40 77 83 81 94 3 12 12 22 20 22 7 0 20 15 30 33 34 65 44 81 59 89 9 5 16
16 16 23 0 8 4 15 8 15 5 0 19 19 32 43 13 23 34 50 47 60 13 10 23 23 23 28
0 6 13 24 30 42 16 18 30 37 30 43 0 6 10 20 23 31 29 27 57 61 57 71 0 11 79
82 91 82 5 0 15 16 23 35 9 20 29 43 46 53 16 9 30 22 30 28 0 6 11 21 25 34
14 13 25 31 25 40 0 8 9 23 20 33 11 9 17 23 14 32 -4 8 -1 15 6 15 12 0 105
88 105 100 1 13 31 58 62 95 47 56 50 59 57 81 3 10 16 30 28 45 28 31 43 53
66 99 9 19 23 39 30 43 6 4 12 14 12 22 0 13 29 75 40 85 17 15 50 70 50 83 0
7 9 24 20 37 11 13 20 29 20 37 0 7 4 13 9 13 5 0 18 20 29 43 20 41 104 166
157 232 14 17 25 36 25 43 0 6 5 12 10 12 6 0 10 9 10 19 0 11 5 23 10 26 6 4
17 23 26 43 8 20 25 46 37 57 12 11 31 36 41 55 11 19 25 39 33 43 7 4 13 16
13 25 0 9 18 43 40 76 22 32 40 65 40 73 0 14 29 73 41 83 15 13 58 98 52 103
-3 4 2 7 12 7 10 0 16 3 12 6 -3 3 6 26 20 51 13 25 22 47 19 50 -3 3 3 18 14
33 11 15 17 30 13 34 -4 3 3 16 15 29 11 12 24 36 28 52 4 17 13 39 20 50 8
11 14 29 14 40 0 12 11 32 25 45 31 30 55 75 55 107 0 13 6 26 14 29 16 6 57
88 76 154 8 25 20 59 29 75 8 17 15 33 16 37 0 4 5 12 12 19 6 6 9 18 6 25 -3
8 -1 14 4 14 5 0 15 17 22 38 8 20 19 44 26 52 14 18 45 80 45 91 0 4 13 27
29 51 16 24 32 62 36 86 4 23 11 42 16 42 5 0 9 9 9 20 0 10 6 23 14 27 19 11
43 62 51 108 12 73 37 170 47 182 5 7 7 21 3 32 -3 11 1 46 10 79 8 33 15 73
15 89 0 17 7 45 16 63 9 18 19 64 22 102 4 57 2 72 -13 88 -28 31 -113 81
-120 70 -3 -6 -15 -10 -25 -10 -11 0 -24 -9 -30 -20 -6 -11 -17 -20 -24 -20
-20 0 -46 -34 -46 -61 0 -16 -12 -33 -35 -49 -19 -14 -48 -44 -65 -67 -17 -24
-34 -42 -38 -40 -4 1 -17 -7 -28 -18 -12 -11 -38 -35 -58 -53 -20 -18 -36 -39
-36 -47 0 -8 -3 -14 -7 -13 -13 4 -53 -26 -53 -38 0 -6 -21 -29 -47 -50 -27
-22 -84 -74 -128 -117 -43 -43 -89 -80 -102 -83 -27 -7 -93 -65 -93 -82 0 -7
-7 -12 -16 -12 -16 0 -84 -44 -120 -78 -11 -11 -40 -29 -65 -40 -24 -11 -56
-31 -70 -45 -14 -14 -41 -32 -59 -42 -18 -9 -45 -29 -60 -45 -15 -15 -47 -41
-71 -56 -24 -16 -52 -39 -62 -51 -10 -13 -25 -23 -32 -23 -8 0 -18 -6 -22 -13
-4 -7 -26 -24 -48 -39 -22 -14 -52 -37 -67 -50 -15 -14 -45 -33 -68 -43 -22
-10 -40 -24 -40 -31 0 -8 -19 -26 -42 -40 -24 -15 -48 -34 -54 -43 -7 -9 -43
-32 -80 -51 -38 -19 -77 -43 -88 -52 -11 -10 -26 -18 -33 -18 -7 0 -13 -4 -13
-10 0 -5 -5 -10 -12 -10 -6 0 -26 -11 -45 -26 -18 -14 -48 -30 -66 -36 -56
-19 -222 -101 -230 -115 -4 -7 -12 -13 -18 -13 -5 0 -36 -18 -68 -40 -32 -22
-74 -47 -94 -55 -19 -8 -50 -28 -68 -45 -19 -16 -42 -33 -53 -36 -25 -8 -130
-75 -134 -86 -2 -4 -10 -8 -17 -8 -7 0 -15 -4 -17 -9 -1 -5 -33 -23 -70 -40
-36 -17 -74 -41 -85 -53 -24 -31 -119 -98 -138 -98 -22 0 -132 -60 -162 -88
-14 -13 -34 -25 -44 -27 -10 -2 -44 -21 -76 -43 -32 -22 -74 -43 -93 -47 -37
-7 -110 -50 -110 -64 0 -4 -21 -16 -47 -26 -27 -10 -55 -23 -63 -30 -8 -6 -35
-21 -60 -32 -25 -12 -54 -30 -64 -42 -11 -12 -26 -21 -34 -21 -20 0 -105 -40
-114 -54 -4 -6 -11 -11 -15 -11 -17 0 -73 -28 -73 -36 0 -5 -6 -9 -14 -9 -8 0
-47 -16 -87 -36 -130 -63 -143 -69 -150 -67 -4 1 -15 -7 -24 -17 -10 -11 -25
-20 -34 -20 -9 0 -27 -9 -41 -20 -14 -11 -31 -20 -38 -20 -7 0 -28 -11 -47
-25 -18 -14 -37 -25 -41 -23 -5 1 -23 -5 -40 -15 -18 -9 -53 -21 -79 -27 -27
-6 -60 -19 -74 -29 -14 -10 -48 -21 -74 -24 -27 -4 -58 -14 -70 -22 -12 -8
-36 -15 -53 -15 -17 0 -37 -7 -44 -15 -7 -9 -19 -14 -26 -11 -7 3 -29 -4 -50
-15 -21 -10 -44 -19 -52 -19 -7 0 -29 -12 -47 -26 -19 -14 -39 -23 -45 -19 -7
4 -33 -3 -58 -15 -56 -27 -80 -37 -108 -45 -12 -3 -34 -17 -48 -30 -14 -13
-42 -27 -61 -31 -19 -3 -35 -10 -35 -14 0 -5 -17 -14 -37 -21 -21 -6 -47 -16
-58 -22 -11 -6 -33 -13 -50 -15 -16 -2 -37 -10 -46 -18 -8 -8 -21 -14 -27 -14
-7 0 -12 -5 -12 -10 0 -6 -6 -10 -12 -8 -18 3 -128 -50 -128 -62 0 -5 -11 -10
-24 -10 -13 0 -29 -6 -35 -14 -7 -8 -25 -17 -40 -21 -16 -3 -43 -17 -62 -31
-18 -13 -46 -24 -61 -24 -16 0 -36 -4 -46 -9 -9 -5 -38 -18 -64 -28 -27 -10
-48 -21 -48 -25 0 -3 -13 -9 -30 -13 -16 -4 -30 -11 -30 -16 0 -5 -6 -9 -14
-9 -8 0 -16 -4 -18 -8 -5 -13 -65 -52 -81 -52 -8 0 -20 -7 -27 -15 -7 -8 -21
-15 -30 -15 -10 0 -21 -6 -23 -12 -3 -7 -6 -4 -6 8 -1 11 -12 35 -26 54 -14
19 -25 41 -25 50 0 9 -13 29 -30 43 -16 15 -30 33 -30 41 0 7 -6 19 -14 25 -8
7 -23 31 -34 54 -12 23 -32 55 -46 71 -14 16 -28 37 -31 47 -4 11 -10 19 -13
19 -4 0 -18 20 -32 45 -16 28 -31 45 -43 45 -10 0 -21 9 -24 20 -3 10 -15 26
-28 34 -12 8 -39 41 -60 73 -21 32 -50 72 -64 89 -84 101 -115 134 -125 134
-6 1 -54 41 -106 90 -52 50 -99 90 -105 90 -5 0 -26 16 -45 35 -20 20 -52 44
-71 53 -23 11 -33 23 -31 35 4 24 40 59 52 52 6 -4 10 -2 10 3 0 10 74 62 89
62 18 0 166 97 176 116 6 10 17 20 25 22 8 2 22 11 31 21 8 10 33 28 55 40 44
24 52 29 149 91 39 24 72 48 73 52 2 4 9 8 16 8 7 0 23 9 36 20 13 11 26 20
29 20 12 0 131 117 131 128 0 7 5 12 10 12 15 0 80 61 80 75 0 12 56 66 97 94
12 8 19 19 17 25 -6 15 53 49 73 42 11 -4 14 -2 9 9 -3 9 2 22 12 30 9 8 42
37 72 66 30 28 65 58 78 67 12 8 22 20 22 26 0 7 14 28 31 47 17 19 42 50 55
69 46 66 89 133 89 139 1 12 40 67 77 108 21 24 38 47 38 52 0 5 13 22 28 38
26 26 42 52 47 79 2 6 10 27 18 45 9 19 16 50 15 70 0 20 7 50 16 67 9 17 16
39 16 49 0 10 7 31 15 47 8 15 15 40 15 55 0 15 9 34 20 44 12 10 18 22 15 27
-3 6 -1 10 4 10 6 0 11 6 11 14 0 8 7 16 15 20 8 3 15 15 15 26 0 11 4 20 9
20 5 0 13 9 16 20 4 11 11 17 17 14 6 -4 8 -2 5 3 -4 6 4 31 18 55 14 23 25
53 25 65 0 12 4 23 9 25 5 2 11 17 14 33 7 44 25 85 37 85 5 0 10 15 10 33 0
33 16 85 38 124 7 12 12 28 12 37 0 8 4 16 9 18 12 4 16 106 6 131 -4 9 -11
17 -16 17 -4 0 -35 16 -68 35 -66 39 -64 39 -108 19z m5323 -691 c-2 -10 -12
-47 -21 -83 -10 -36 -33 -98 -51 -137 -19 -40 -34 -79 -34 -87 0 -8 -6 -16
-12 -19 -7 -3 -21 -20 -30 -38 -51 -103 -68 -142 -68 -155 0 -8 -4 -14 -8 -14
-5 0 -15 -22 -22 -50 -7 -27 -17 -50 -21 -50 -10 0 -58 -104 -65 -142 -5 -23
-44 -97 -55 -104 -5 -3 -9 -12 -9 -20 0 -18 -58 -142 -71 -150 -5 -3 -8 -11
-7 -17 4 -19 -26 -77 -39 -77 -7 0 -12 -3 -11 -7 1 -5 -4 -21 -10 -36 -7 -16
-12 -33 -12 -38 0 -5 -9 -19 -20 -31 -11 -12 -20 -28 -20 -35 0 -8 -8 -26 -19
-41 -37 -54 -55 -87 -53 -95 3 -11 -64 -151 -80 -168 -8 -8 -23 -36 -33 -62
-10 -27 -29 -56 -42 -64 -13 -8 -23 -22 -23 -29 0 -8 -3 -14 -8 -14 -11 0 -44
-65 -41 -81 2 -8 -8 -26 -21 -41 -14 -14 -41 -56 -60 -93 -19 -37 -44 -79 -57
-93 -13 -15 -23 -32 -23 -38 0 -7 -7 -14 -15 -18 -8 -3 -21 -18 -28 -33 -6
-15 -21 -35 -31 -44 -11 -9 -21 -26 -23 -39 -2 -13 -7 -27 -11 -30 -5 -3 -19
-26 -31 -53 -13 -26 -32 -52 -42 -58 -10 -5 -19 -16 -19 -23 0 -8 -6 -16 -14
-19 -7 -3 -16 -18 -19 -34 -4 -15 -20 -43 -37 -62 -16 -18 -30 -40 -30 -47 0
-8 -4 -14 -10 -14 -5 0 -10 -9 -10 -20 0 -24 -31 -90 -42 -90 -4 0 -8 -6 -8
-14 0 -7 -22 -37 -50 -65 -27 -28 -50 -54 -50 -57 0 -3 -13 -19 -30 -37 -16
-18 -30 -42 -30 -54 0 -12 -9 -27 -20 -33 -11 -6 -20 -18 -20 -26 0 -23 -37
-72 -60 -79 -11 -4 -20 -15 -20 -26 0 -10 -5 -19 -11 -19 -6 0 -9 -5 -7 -12 2
-6 -4 -20 -14 -30 -10 -10 -18 -27 -18 -38 0 -11 -7 -23 -15 -26 -8 -4 -15
-11 -15 -16 0 -11 -50 -58 -61 -58 -9 0 -99 -87 -99 -96 0 -5 -13 -16 -29 -25
-16 -10 -29 -23 -28 -30 1 -35 -6 -46 -48 -79 -24 -19 -44 -40 -45 -45 0 -6
-20 -33 -44 -60 -24 -28 -46 -60 -50 -72 -4 -13 -11 -23 -16 -23 -5 0 -16 -13
-25 -30 -9 -16 -22 -30 -30 -30 -8 0 -15 -7 -15 -15 0 -9 -7 -18 -15 -21 -8
-4 -15 -13 -15 -20 0 -16 -45 -88 -71 -115 -9 -9 -22 -30 -30 -47 -12 -27 -32
-41 -64 -46 -5 0 -15 -17 -21 -36 -7 -21 -22 -40 -38 -48 -15 -8 -30 -21 -33
-30 -8 -23 -78 -89 -125 -118 -25 -16 -38 -32 -38 -46 0 -19 -92 -118 -110
-118 -4 0 -13 -12 -21 -27 -17 -34 -47 -63 -66 -63 -7 0 -12 -3 -11 -7 3 -15
-14 -43 -26 -43 -14 0 -42 -31 -50 -57 -4 -11 -19 -26 -34 -33 -38 -20 -72
-51 -72 -67 0 -8 -4 -12 -8 -9 -4 2 -32 -22 -62 -55 -29 -32 -59 -59 -67 -59
-7 0 -13 -5 -13 -11 0 -6 -18 -27 -40 -46 -22 -20 -40 -41 -40 -47 0 -7 -13
-25 -30 -41 -16 -15 -27 -31 -25 -35 3 -5 -22 -36 -55 -70 -33 -34 -60 -66
-60 -69 0 -11 -156 -171 -167 -171 -11 0 -103 -90 -103 -100 0 -5 -11 -11 -24
-14 -13 -3 -40 -24 -60 -46 -20 -22 -40 -40 -44 -40 -4 0 -35 -29 -69 -65 -34
-36 -65 -65 -71 -65 -5 0 -12 -7 -16 -15 -3 -8 -9 -15 -13 -14 -27 4 -43 -3
-43 -20 0 -13 -9 -21 -30 -26 -16 -4 -30 -10 -30 -15 0 -5 -10 -12 -22 -16
-13 -3 -36 -21 -53 -39 -16 -18 -50 -43 -75 -56 -25 -13 -54 -32 -64 -41 -11
-10 -23 -18 -28 -18 -12 0 -98 -63 -98 -73 0 -4 -4 -6 -9 -3 -15 10 -40 -5
-34 -20 3 -8 0 -14 -7 -14 -6 0 -42 -20 -79 -45 -37 -25 -72 -45 -78 -45 -6 0
-32 -20 -57 -46 -25 -25 -50 -43 -55 -40 -8 6 -101 -78 -101 -91 0 -5 -14 -17
-30 -29 -50 -34 -120 -104 -120 -119 0 -8 -16 -22 -35 -31 -19 -9 -35 -20 -35
-25 0 -5 -7 -9 -15 -9 -9 0 -29 -13 -45 -30 -16 -16 -33 -30 -38 -30 -5 0 -19
-9 -32 -20 -13 -11 -31 -20 -42 -20 -10 0 -18 -4 -18 -10 0 -5 -6 -10 -13 -10
-8 0 -25 -16 -38 -36 -13 -20 -37 -44 -52 -53 -24 -14 -29 -14 -37 -1 -5 8 -7
38 -3 65 10 81 1 227 -15 249 -5 6 -12 79 -15 161 -4 83 -11 166 -17 185 -5
19 -10 78 -10 130 0 52 -7 120 -15 150 -8 30 -15 92 -15 138 0 46 -5 92 -10
103 -6 11 -13 63 -15 117 -3 101 -6 126 -24 202 -6 25 -11 69 -11 98 0 29 -5
62 -10 72 -6 10 -15 54 -20 97 -6 43 -15 92 -20 108 -13 44 -42 232 -44 285
-1 25 -9 60 -18 77 -9 18 -24 65 -34 105 -9 40 -23 87 -30 103 -12 29 -22 65
-28 96 -6 38 -31 97 -52 122 -13 15 -21 34 -18 41 3 8 1 17 -5 21 -6 3 -11 16
-11 28 0 13 -7 32 -15 43 -8 12 -12 24 -8 27 3 3 -4 22 -15 40 -11 19 -23 49
-27 66 -4 17 -10 31 -15 31 -4 0 -10 8 -14 18 -3 9 -14 29 -23 44 -38 57 -74
123 -80 147 -3 14 -16 40 -29 56 -36 48 -40 81 -13 96 13 7 38 12 56 11 18 -1
35 2 37 7 7 10 54 2 62 -10 5 -8 78 15 100 33 7 5 23 11 35 13 61 12 79 17 79
24 0 5 38 27 85 50 47 24 87 47 91 52 3 5 14 9 24 9 11 0 34 8 53 19 18 10 47
22 64 25 18 4 37 14 44 22 6 8 22 14 35 14 13 0 24 5 24 10 0 6 7 10 15 10 20
0 85 32 85 42 0 7 62 39 85 44 6 1 15 3 20 4 6 1 14 2 18 1 10 -2 65 28 92 50
11 9 38 19 60 21 22 3 61 20 87 37 25 17 55 31 67 31 12 0 21 5 21 10 0 6 16
10 35 10 38 0 105 24 116 41 6 11 52 24 129 39 25 4 69 18 98 29 29 12 64 21
77 21 15 0 40 14 62 35 20 19 40 32 45 29 5 -4 17 1 26 10 26 25 91 66 105 66
7 0 17 4 22 9 6 6 26 12 47 14 20 2 49 12 65 23 15 10 55 31 88 46 33 14 61
31 63 37 2 6 14 11 26 11 23 0 55 19 96 56 14 12 43 25 65 28 22 4 44 11 49
16 6 6 18 10 28 10 10 0 18 4 18 10 0 5 11 12 25 16 14 3 25 12 25 20 0 8 9
14 21 14 24 0 52 14 82 40 12 11 27 20 32 22 6 1 18 9 28 18 9 9 30 22 45 29
79 36 161 81 181 99 18 17 59 34 86 36 11 1 38 16 60 33 22 18 72 48 110 67
39 19 84 44 100 55 17 12 36 21 43 21 7 0 34 16 59 35 25 19 52 35 59 35 7 0
23 10 36 23 13 12 37 31 53 41 17 11 34 25 38 33 5 8 18 18 30 24 12 5 36 18
52 29 17 11 39 24 50 30 37 19 71 43 187 132 20 15 45 28 55 28 11 0 51 23 90
50 39 28 75 50 80 50 4 0 13 8 20 18 8 14 20 18 41 14 24 -3 37 2 61 27 17 17
37 31 44 31 8 0 20 6 27 14 6 8 18 12 25 10 7 -3 18 4 25 15 6 12 18 21 27 21
9 0 38 18 65 41 26 22 52 37 58 34 5 -3 10 -2 10 3 0 6 19 19 43 30 23 11 52
30 64 41 12 12 27 21 34 21 22 0 67 40 73 66 6 22 11 25 32 21 19 -3 35 3 59
24 18 16 37 29 42 29 6 0 25 16 44 36 19 19 53 49 77 65 23 17 42 37 42 45 0
8 8 18 17 21 10 4 28 17 41 30 13 13 34 23 47 23 13 0 25 3 27 8 2 4 30 25 63
46 33 22 72 51 87 64 30 27 60 46 101 63 15 6 27 15 27 20 0 5 11 15 25 21 14
6 25 16 25 22 0 6 18 20 40 30 22 11 40 23 40 28 0 4 7 8 15 8 9 0 18 7 21 15
4 8 12 15 20 15 8 0 14 5 14 10 0 6 6 10 13 10 7 0 26 16 41 35 16 19 34 35
41 35 16 0 47 35 38 43 -3 4 1 7 10 7 10 0 17 7 17 15 0 8 6 15 13 15 15 1 87
66 87 80 0 6 3 10 8 10 4 0 32 23 62 50 56 51 96 66 86 33z m-5507 -6787 c-9
-8 -10 -7 -5 7 3 10 7 24 7 30 1 7 3 4 6 -7 3 -10 -1 -23 -8 -30z"/>
</g>
</svg>
