<?xml version="1.0" standalone="no"?>
<!DOCTYPE svg PUBLIC "-//W3C//DTD SVG 20010904//EN"
 "http://www.w3.org/TR/2001/REC-SVG-20010904/DTD/svg10.dtd">
<svg version="1.0" xmlns="http://www.w3.org/2000/svg"
 width="1955.203641pt" height="2690.648449pt" viewBox="0 0 1955.203641 2690.648449"
 preserveAspectRatio="xMidYMid meet">
<metadata>
Created by potrace 1.15, written by Peter Selinger 2001-2017
</metadata>
<g transform="translate(-218.259566,2900.865588) scale(0.100000,-0.100000)"
fill="#000000" stroke="none">
<path d="M11711 28994 c-24 -7 -85 -18 -135 -23 -134 -15 -196 -26 -241 -46
-22 -10 -44 -17 -49 -16 -4 1 -13 -2 -20 -7 -15 -13 -117 -37 -139 -33 -10 1
-24 -2 -30 -7 -7 -6 -52 -9 -101 -7 -73 3 -92 7 -110 24 -28 26 -80 27 -138 3
-24 -11 -68 -22 -98 -26 -30 -4 -85 -21 -121 -37 -37 -16 -74 -29 -82 -29 -8
0 -27 -12 -43 -27 -16 -15 -37 -26 -47 -25 -9 2 -24 -4 -33 -12 -8 -9 -41 -33
-72 -53 -31 -21 -76 -57 -99 -80 -22 -24 -46 -43 -52 -43 -6 0 -16 -9 -23 -20
-7 -11 -18 -20 -25 -20 -7 0 -13 -4 -13 -10 0 -5 -16 -17 -35 -26 -19 -9 -35
-20 -35 -25 0 -5 -7 -9 -15 -9 -25 0 -85 -34 -152 -86 -34 -27 -83 -65 -109
-83 -25 -19 -53 -45 -61 -58 -9 -13 -20 -23 -27 -23 -6 0 -34 -22 -63 -48 -90
-83 -145 -127 -172 -138 -14 -6 -96 -80 -181 -165 -170 -169 -224 -217 -267
-239 -15 -8 -37 -23 -48 -33 -11 -10 -37 -28 -58 -40 -20 -11 -36 -25 -34 -30
4 -14 -60 -75 -99 -93 -21 -10 -34 -24 -34 -35 0 -11 -3 -19 -7 -19 -5 0 -39
-30 -78 -66 -38 -36 -82 -73 -97 -82 -16 -9 -28 -20 -28 -24 0 -11 -80 -88
-91 -88 -6 0 -21 -11 -34 -24 -13 -13 -32 -30 -43 -38 -10 -7 -41 -41 -69 -75
-28 -34 -53 -60 -55 -58 -2 3 -29 -20 -58 -50 -30 -30 -57 -55 -61 -55 -4 0
-21 -12 -37 -27 -16 -16 -44 -40 -63 -55 -82 -65 -128 -104 -180 -152 -30 -28
-67 -58 -82 -66 -14 -8 -63 -51 -110 -95 -46 -44 -98 -92 -116 -107 -17 -15
-31 -30 -31 -33 0 -11 -186 -197 -231 -232 -27 -20 -49 -43 -49 -51 0 -7 -15
-19 -34 -27 -19 -8 -36 -19 -38 -25 -4 -13 -77 -95 -150 -171 -32 -32 -58 -63
-58 -67 0 -5 -11 -15 -25 -22 -14 -7 -25 -21 -25 -30 0 -9 -11 -22 -25 -28
-14 -6 -25 -18 -25 -25 0 -8 -9 -22 -20 -32 -11 -10 -39 -45 -62 -78 -24 -33
-51 -67 -60 -76 -71 -65 -138 -143 -138 -158 0 -5 -16 -27 -35 -49 -52 -58
-55 -62 -55 -73 0 -5 -26 -45 -58 -88 -76 -102 -122 -172 -122 -183 0 -5 -8
-15 -18 -22 -9 -7 -30 -33 -46 -58 -16 -25 -35 -52 -42 -60 -26 -28 -94 -119
-94 -126 0 -3 -20 -28 -44 -56 -24 -28 -53 -67 -63 -87 -10 -20 -24 -44 -32
-53 -8 -10 -12 -18 -9 -18 3 0 -10 -17 -28 -37 -19 -20 -34 -45 -34 -54 0 -10
-4 -19 -8 -21 -15 -6 -140 -199 -174 -268 -7 -14 -18 -31 -25 -38 -7 -7 -13
-20 -13 -28 0 -8 -4 -14 -9 -14 -5 0 -14 -15 -21 -34 -6 -18 -22 -44 -35 -56
-14 -13 -25 -34 -25 -46 0 -12 -6 -29 -13 -36 -7 -7 -36 -52 -65 -99 -28 -48
-59 -92 -67 -99 -8 -7 -15 -18 -15 -24 0 -6 -18 -47 -40 -91 -22 -44 -40 -85
-40 -91 0 -7 -7 -15 -16 -18 -9 -3 -14 -12 -11 -20 3 -7 -5 -26 -19 -42 -13
-16 -23 -37 -24 -47 0 -19 -88 -170 -102 -175 -4 -2 -8 -12 -8 -23 0 -22 -50
-119 -62 -119 -4 0 -8 -7 -8 -15 0 -8 -4 -15 -9 -15 -5 0 -13 -14 -16 -31 -4
-18 -20 -52 -36 -77 -16 -25 -26 -48 -24 -53 3 -4 1 -10 -5 -14 -5 -3 -10 -13
-10 -21 0 -9 -13 -34 -28 -57 -16 -23 -35 -58 -42 -77 -8 -19 -20 -41 -27 -48
-7 -7 -13 -20 -13 -28 0 -8 -4 -14 -10 -14 -5 0 -10 -4 -10 -10 0 -5 -15 -31
-34 -57 -19 -27 -34 -50 -34 -53 1 -8 -55 -100 -75 -122 -9 -12 -17 -26 -17
-31 0 -6 -6 -18 -14 -26 -38 -43 -156 -281 -156 -315 0 -7 -7 -19 -15 -26 -9
-7 -13 -15 -11 -18 3 -2 -7 -23 -22 -46 -29 -42 -41 -68 -62 -123 -7 -18 -16
-33 -21 -33 -5 0 -9 -9 -9 -19 0 -11 -7 -27 -16 -35 -9 -9 -20 -32 -25 -51 -5
-19 -15 -40 -22 -47 -21 -23 -44 -72 -52 -108 -9 -48 -28 -100 -35 -100 -11 0
-30 -49 -30 -75 0 -14 -4 -25 -9 -25 -10 0 -27 -39 -23 -52 1 -4 -9 -24 -23
-44 -14 -20 -25 -43 -25 -51 0 -8 -13 -40 -29 -71 -60 -117 -111 -228 -111
-241 0 -8 -11 -29 -25 -47 -14 -18 -25 -36 -25 -39 0 -8 -28 -74 -40 -95 -13
-22 -51 -101 -63 -130 -21 -52 -32 -75 -43 -85 -7 -5 -14 -30 -17 -55 -3 -24
-11 -46 -16 -48 -6 -2 -11 -13 -11 -25 0 -18 -48 -154 -71 -199 -5 -10 -9 -25
-9 -33 0 -9 -9 -34 -21 -56 -11 -23 -18 -47 -15 -55 3 -8 -1 -14 -9 -14 -8 0
-12 -6 -9 -14 3 -8 -1 -28 -9 -43 -25 -48 -35 -76 -48 -133 -7 -30 -18 -62
-23 -70 -24 -33 -34 -58 -41 -99 -4 -24 -14 -60 -23 -80 -9 -20 -19 -61 -23
-91 -19 -128 -39 -233 -47 -243 -5 -7 -15 -37 -22 -67 -7 -30 -16 -62 -20 -70
-16 -31 -31 -107 -30 -145 0 -23 -6 -57 -15 -78 -8 -20 -15 -49 -15 -65 0 -25
-14 -82 -54 -222 -7 -25 -17 -44 -23 -43 -5 1 -15 -26 -22 -60 -13 -62 -35
-134 -52 -172 -5 -11 -16 -56 -24 -100 -8 -44 -21 -109 -29 -145 -7 -36 -12
-68 -9 -72 2 -5 -1 -8 -6 -8 -6 0 -11 -8 -11 -17 0 -10 -7 -26 -14 -36 -8 -10
-12 -27 -9 -38 3 -10 0 -25 -6 -33 -6 -7 -8 -27 -5 -44 4 -20 0 -42 -11 -64
-37 -73 -46 -121 -51 -261 -2 -78 -10 -167 -16 -197 -6 -30 -13 -68 -14 -85
-5 -57 -32 -170 -55 -230 -13 -33 -24 -62 -24 -65 -4 -23 -18 -50 -26 -50 -5
0 -9 -15 -9 -32 0 -33 -13 -120 -22 -148 -25 -69 -58 -212 -58 -245 0 -13 -6
-44 -14 -67 -7 -24 -19 -62 -26 -85 -7 -24 -16 -43 -20 -43 -4 0 -10 -12 -13
-27 -22 -106 -31 -140 -39 -158 -5 -12 -11 -52 -13 -90 -2 -39 -10 -115 -19
-170 -9 -55 -16 -112 -16 -127 0 -16 -3 -28 -8 -28 -4 0 -15 -28 -24 -62 -8
-35 -21 -83 -28 -108 -6 -25 -18 -88 -25 -140 -8 -52 -19 -104 -24 -115 -9
-20 -24 -70 -26 -90 -1 -5 -4 -19 -8 -30 -3 -11 -9 -51 -12 -89 -2 -38 -10
-75 -16 -82 -6 -7 -8 -18 -4 -23 3 -6 2 -19 -4 -28 -5 -10 -14 -74 -20 -143
-6 -69 -13 -138 -15 -155 -2 -16 -8 -66 -12 -110 -4 -44 -9 -82 -9 -85 -20
-77 -25 -226 -13 -389 7 -104 7 -163 -1 -215 -14 -95 -30 -299 -35 -471 -3
-77 -10 -196 -17 -265 -12 -127 -7 -299 10 -400 10 -54 23 -181 23 -210 -1 -8
-3 -70 -7 -137 -5 -101 -2 -142 16 -234 20 -105 20 -120 8 -228 -7 -64 -13
-177 -13 -251 0 -154 11 -437 18 -449 3 -4 5 -39 6 -77 3 -200 15 -311 45
-414 36 -122 46 -170 55 -280 9 -108 26 -201 52 -295 7 -24 11 -105 10 -200
-2 -164 15 -276 54 -363 8 -18 13 -36 11 -40 -3 -4 4 -41 14 -82 14 -56 19
-109 19 -208 0 -114 3 -138 18 -160 11 -15 32 -65 48 -112 16 -47 34 -90 42
-96 7 -7 12 -16 10 -20 -4 -14 24 -124 34 -130 4 -3 8 -17 8 -31 0 -15 8 -36
18 -47 23 -26 62 -117 62 -145 0 -12 6 -21 14 -21 8 0 33 -39 57 -88 24 -48
49 -93 56 -100 7 -7 13 -22 13 -32 0 -11 6 -23 13 -27 7 -4 19 -35 26 -68 7
-33 18 -71 23 -85 6 -14 12 -41 15 -60 2 -19 10 -40 18 -46 8 -6 15 -18 15
-26 0 -24 24 -68 38 -68 7 0 10 -4 7 -10 -3 -5 0 -10 8 -10 9 0 17 -14 21 -37
11 -65 58 -182 81 -205 12 -13 25 -34 28 -48 3 -14 24 -55 46 -91 22 -36 43
-77 46 -91 4 -14 16 -34 28 -45 98 -92 177 -182 177 -202 0 -7 8 -21 17 -30
10 -9 25 -30 34 -46 9 -17 21 -29 27 -28 7 2 12 -5 12 -14 0 -9 7 -25 17 -35
9 -10 20 -39 25 -66 4 -26 10 -54 12 -62 3 -8 5 -18 5 -23 1 -4 12 -13 26 -19
15 -6 37 -34 53 -65 15 -30 35 -63 44 -73 10 -11 18 -24 18 -30 0 -5 5 -10 10
-10 6 0 10 -7 10 -15 0 -8 13 -24 29 -36 16 -12 33 -38 40 -60 7 -22 16 -37
21 -34 6 4 10 0 10 -8 0 -7 12 -24 26 -38 14 -13 32 -38 41 -57 8 -18 42 -60
74 -94 32 -34 56 -65 53 -70 -3 -4 11 -25 31 -46 19 -22 35 -42 35 -46 0 -10
60 -68 97 -94 17 -12 34 -30 37 -40 3 -9 16 -22 28 -27 12 -6 26 -19 32 -30
14 -25 58 -65 72 -65 16 0 44 -34 44 -54 0 -16 26 -53 119 -167 13 -17 26 -28
28 -25 10 9 83 -75 83 -95 0 -10 7 -19 15 -19 8 0 15 -4 15 -10 0 -5 6 -10 13
-11 12 0 73 -77 84 -105 3 -8 11 -14 18 -14 8 0 16 -9 20 -19 3 -11 12 -22 20
-25 8 -3 15 -12 15 -21 0 -8 3 -15 8 -15 12 0 118 -103 131 -128 7 -13 18 -22
24 -19 23 8 71 -28 79 -61 6 -22 15 -32 28 -32 13 0 27 -14 39 -38 20 -39 33
-51 94 -92 20 -14 39 -32 42 -42 3 -9 30 -39 60 -67 30 -27 55 -55 55 -60 0
-6 5 -11 10 -11 6 0 10 -5 10 -10 0 -6 16 -25 36 -43 78 -70 184 -176 184
-184 0 -10 37 -43 48 -43 4 0 29 -20 56 -45 27 -25 52 -45 55 -45 3 0 26 -21
50 -46 24 -24 59 -51 77 -59 35 -14 132 -89 147 -113 5 -7 12 -10 17 -7 10 6
39 -17 125 -97 27 -27 55 -48 61 -48 6 0 19 -9 29 -20 10 -11 20 -18 23 -16 2
3 29 -15 59 -39 30 -25 61 -45 68 -45 7 0 18 -7 25 -15 7 -8 21 -13 34 -10 14
4 31 -4 51 -23 17 -16 45 -33 63 -40 32 -11 83 -42 69 -42 -4 0 1 -9 10 -19 9
-11 20 -18 24 -15 11 7 89 -34 89 -46 0 -6 7 -10 15 -10 8 0 15 -4 15 -9 0 -5
13 -11 30 -14 16 -4 39 -16 50 -27 11 -11 22 -19 26 -19 20 4 106 -52 139 -91
22 -26 46 -45 53 -42 7 2 22 -5 33 -17 11 -11 36 -30 57 -41 20 -11 51 -29 67
-40 17 -10 36 -19 44 -19 7 -1 26 -12 43 -26 16 -14 36 -25 44 -25 8 0 14 -4
14 -10 0 -5 14 -8 31 -6 19 2 32 -1 36 -10 3 -8 9 -14 14 -14 17 0 109 -44
109 -52 0 -4 6 -5 14 -2 7 3 20 -2 29 -10 9 -9 25 -16 37 -16 12 0 36 -6 53
-14 18 -8 70 -27 117 -41 100 -32 182 -66 192 -80 4 -5 10 -6 14 -2 4 4 17 1
29 -7 12 -8 67 -29 121 -46 54 -17 122 -40 149 -51 28 -10 66 -21 85 -25 19
-3 51 -12 70 -19 19 -8 56 -16 82 -20 25 -3 52 -13 58 -20 7 -8 18 -15 24 -15
15 0 96 -38 116 -55 8 -7 24 -15 35 -18 11 -3 47 -15 79 -26 33 -12 68 -21 78
-21 11 0 26 -7 34 -15 9 -8 31 -15 50 -15 19 0 49 -6 67 -13 18 -8 38 -12 45
-9 7 2 39 -5 70 -16 53 -19 220 -51 352 -67 30 -4 60 -11 65 -16 6 -4 65 -13
130 -18 66 -5 154 -17 195 -25 41 -9 104 -16 139 -16 82 0 223 -18 280 -36 25
-8 63 -14 86 -14 38 0 76 -8 130 -29 59 -23 89 -29 104 -22 9 4 39 6 66 4 82
-5 254 -7 355 -3 52 2 120 0 151 -4 42 -6 62 -5 85 7 16 8 45 14 64 12 19 -1
76 -6 125 -10 56 -4 128 -2 190 5 55 7 123 14 150 15 96 5 190 18 202 27 6 5
38 8 70 7 32 -1 96 6 143 15 94 18 160 21 160 7 0 -16 36 -19 55 -5 11 8 43
14 74 14 31 0 73 5 94 11 21 5 73 11 115 13 42 1 86 7 97 13 22 12 136 28 177
24 14 -1 29 2 33 8 3 6 21 11 40 11 18 0 62 9 97 20 34 11 77 20 95 20 17 0
35 4 38 10 3 5 19 10 35 10 16 0 32 5 35 10 4 6 15 8 26 5 10 -4 24 -3 31 1
14 9 26 11 123 18 86 7 237 35 250 47 5 5 30 9 56 9 26 0 50 4 53 9 6 10 97
41 119 41 8 0 29 7 47 17 19 9 55 18 82 21 27 2 51 9 54 13 3 5 16 9 30 9 36
0 160 36 186 54 12 9 32 16 45 16 12 0 53 11 91 25 38 14 77 25 86 25 9 0 16
4 16 8 0 4 15 9 33 10 17 1 48 10 67 19 19 9 49 17 65 18 17 0 41 8 55 17 14
9 37 20 53 23 15 4 30 11 32 16 3 4 12 6 20 3 8 -3 22 1 30 10 9 9 27 16 40
16 13 0 27 5 30 10 3 6 14 10 24 10 32 0 146 41 167 61 11 10 32 19 47 19 14
0 30 7 35 16 5 9 15 14 23 12 8 -3 19 2 25 10 6 8 20 16 30 17 23 1 135 44
149 57 5 4 19 8 31 8 12 0 27 7 34 15 7 8 19 15 26 15 8 0 14 5 14 10 0 6 12
10 26 10 14 0 40 7 57 16 58 31 67 34 82 34 8 0 15 5 15 10 0 6 11 10 25 10
14 0 25 5 25 10 0 6 6 10 13 10 18 0 67 24 67 33 0 4 9 7 20 7 11 0 20 4 20 9
0 8 23 20 98 52 17 8 32 18 32 22 0 5 6 7 12 5 7 -3 21 3 30 12 26 24 112 65
129 62 4 -1 17 10 29 23 13 14 31 25 40 25 9 0 31 11 50 25 19 14 43 25 55 25
12 0 32 11 45 25 13 14 33 25 46 25 25 0 96 28 104 41 3 5 15 10 25 11 11 2
43 16 70 32 115 66 138 76 156 71 11 -4 19 -2 19 3 0 10 178 105 220 117 14 4
44 21 67 36 23 16 46 29 51 29 5 0 21 11 36 25 14 13 26 22 26 19 0 -6 80 46
108 70 15 13 22 15 22 6 0 -10 5 -9 18 3 10 10 24 17 30 17 6 0 23 16 38 35
19 25 34 35 53 35 16 0 37 10 51 25 13 13 46 36 74 51 28 14 58 32 67 40 8 8
21 14 27 14 7 0 12 4 12 9 0 5 8 12 18 15 10 4 35 22 56 41 21 19 45 35 53 35
8 0 11 5 8 10 -3 6 0 10 8 10 7 0 33 18 56 40 23 22 63 50 88 62 28 13 59 39
79 67 19 25 55 62 80 81 25 19 64 52 88 73 24 20 49 37 56 37 7 0 25 10 41 23
75 58 88 66 113 73 15 3 55 34 89 68 132 132 319 333 343 369 15 22 31 36 39
34 7 -3 55 36 108 89 52 52 100 94 105 94 5 0 15 14 22 30 7 17 16 30 21 30 4
0 11 10 15 22 11 34 68 117 81 117 6 1 14 10 18 20 3 11 14 22 23 25 26 9 109
90 116 114 4 12 11 22 16 22 14 0 90 111 90 131 0 10 9 23 20 29 11 6 20 16
20 23 0 7 19 31 43 54 23 23 43 51 44 63 1 11 20 42 41 68 22 26 54 74 72 107
18 33 35 62 39 65 3 3 17 21 31 40 27 39 26 38 75 98 19 24 35 48 35 53 0 4
13 23 29 41 70 78 121 143 121 153 0 5 11 19 25 29 27 20 99 127 128 191 10
22 29 49 42 61 13 11 27 32 30 47 4 14 13 31 21 38 8 6 14 22 14 34 0 24 76
184 116 242 13 20 24 48 24 64 0 26 14 44 76 96 29 24 54 86 54 132 0 20 4 41
9 46 16 18 61 158 61 189 0 20 8 38 21 50 18 15 20 24 14 71 -5 43 -3 55 10
62 15 9 27 64 40 182 3 24 10 50 16 57 6 8 9 14 5 14 -3 0 6 30 21 68 17 44
29 98 33 156 4 49 13 92 19 96 7 3 17 38 23 76 10 63 76 264 118 359 22 49 39
159 28 179 -4 8 -3 36 2 62 6 27 17 85 25 129 8 44 20 92 26 108 6 15 11 40
11 55 0 15 5 32 10 39 5 7 8 18 6 25 -3 7 1 35 8 63 9 33 11 78 7 135 -4 60
-1 109 11 165 9 47 16 133 17 210 0 72 4 144 9 160 35 132 58 334 66 575 8
243 10 281 18 307 4 11 12 73 18 139 12 123 12 154 6 742 -2 195 1 356 5 359
5 3 8 55 7 117 -2 61 5 170 14 241 9 72 16 175 16 230 0 55 1 114 4 130 2 17
9 62 14 100 6 39 8 84 5 100 -11 71 -14 219 -5 335 5 72 6 149 1 180 -20 129
-24 237 -11 281 7 27 13 114 14 219 3 216 0 274 -24 470 -10 85 -21 193 -24
240 -3 46 -14 110 -25 142 -10 31 -24 112 -29 180 -6 68 -13 130 -16 138 -14
36 -34 123 -34 145 0 14 -4 25 -10 25 -5 0 -10 9 -10 20 0 10 -9 41 -19 67
-10 27 -22 89 -26 138 -6 64 -13 97 -26 114 -11 13 -19 34 -19 47 0 31 -29
115 -46 135 -11 13 -12 22 -4 44 11 28 8 144 -4 163 -3 6 -9 50 -12 98 -6 92
-31 221 -59 314 -10 30 -20 73 -22 95 -3 22 -9 45 -14 51 -6 7 -12 36 -16 65
-3 30 -9 59 -14 64 -4 6 -12 44 -18 85 -22 162 -31 206 -51 245 -11 21 -20 51
-20 65 0 28 -23 108 -40 140 -6 12 -16 49 -21 83 -5 34 -16 85 -24 112 -8 28
-19 71 -26 98 -6 26 -16 47 -20 47 -5 0 -9 6 -9 14 0 17 -49 129 -59 136 -11
7 -41 100 -41 127 0 13 -9 41 -19 61 -11 20 -27 72 -37 115 -9 42 -21 77 -26
77 -4 0 -8 5 -8 12 0 6 -11 34 -24 62 -14 29 -27 65 -31 81 -4 17 -9 37 -12
45 -6 14 -13 65 -15 100 -1 8 -9 27 -19 42 -11 14 -19 36 -19 48 0 12 -13 42
-30 67 -16 24 -30 56 -30 70 0 14 -16 54 -35 89 -19 34 -35 70 -35 79 0 15
-33 95 -64 155 -7 14 -17 38 -20 55 -4 16 -12 33 -18 36 -10 6 -19 36 -61 197
-6 23 -15 42 -19 42 -5 0 -8 9 -8 20 0 21 -18 60 -33 71 -8 5 -13 22 -35 112
-4 15 -20 41 -37 59 -16 17 -31 42 -32 55 -3 37 -34 116 -52 133 -9 8 -17 24
-19 35 -7 54 -12 74 -27 115 -25 66 -38 93 -53 112 -8 10 -12 24 -9 32 3 8 -1
22 -8 33 -8 10 -15 24 -15 32 0 21 -33 91 -42 91 -4 0 -8 8 -8 18 0 11 -9 27
-20 37 -11 10 -20 25 -20 34 0 9 -7 29 -15 45 -8 15 -15 39 -15 53 0 23 -7 42
-45 128 -7 17 -19 51 -25 78 -7 26 -16 47 -20 47 -15 0 -34 66 -44 150 -5 44
-29 133 -37 140 -3 3 -9 21 -13 40 -3 19 -28 76 -54 127 -66 129 -74 144 -100
180 -12 17 -22 37 -22 45 0 8 -16 33 -35 55 -19 23 -35 46 -35 51 0 5 -6 15
-14 21 -7 6 -16 36 -19 67 -3 30 -10 61 -16 68 -6 7 -8 16 -5 19 4 3 -5 20
-19 36 -14 17 -28 45 -32 62 -4 18 -16 42 -27 53 -11 13 -17 29 -14 42 3 12
-4 34 -18 55 -12 19 -26 45 -29 59 -4 14 -18 37 -32 52 -14 15 -25 34 -25 42
0 18 -73 162 -94 185 -9 10 -16 26 -16 37 0 11 -9 30 -20 42 -11 12 -20 28
-20 37 0 8 -9 23 -20 32 -11 10 -20 26 -20 36 0 9 -7 20 -15 23 -8 4 -15 12
-15 18 0 7 -13 39 -28 72 -16 32 -39 86 -52 119 -13 33 -30 66 -37 73 -7 8
-11 17 -8 22 3 5 1 11 -4 15 -6 3 -8 11 -5 18 2 7 -7 24 -21 37 -14 13 -25 28
-25 33 0 6 -7 18 -15 27 -20 23 -75 127 -75 144 0 8 -6 16 -13 19 -8 3 -24 27
-37 54 -12 26 -25 50 -29 53 -15 12 -51 71 -51 84 0 8 -4 18 -10 21 -5 3 -10
14 -10 24 0 27 -37 98 -55 105 -9 3 -14 10 -11 15 9 14 -8 52 -48 104 -20 26
-36 57 -36 70 0 13 -5 28 -12 35 -7 7 -8 12 -3 12 4 0 -1 8 -11 18 -37 34
-114 168 -114 199 0 5 -16 24 -35 42 -20 18 -33 36 -30 41 3 5 -3 15 -15 22
-11 7 -20 18 -20 25 0 7 -9 18 -20 25 -11 7 -20 19 -20 26 0 7 -26 40 -57 73
-32 32 -67 69 -79 82 -29 31 -62 57 -74 57 -6 0 -10 8 -10 18 0 10 -16 33 -35
52 -19 19 -35 37 -35 41 0 10 -34 50 -112 131 -38 38 -68 76 -68 84 0 8 -4 14
-10 14 -5 0 -10 6 -10 13 0 7 -36 50 -80 96 -44 45 -83 93 -86 106 -3 13 -14
27 -24 30 -10 3 -23 18 -28 33 -15 41 -59 85 -77 79 -11 -5 -15 0 -15 18 0 13
-6 28 -14 32 -7 4 -18 18 -25 31 -6 12 -19 22 -27 22 -8 0 -13 4 -10 9 3 5 -1
15 -10 22 -8 7 -21 27 -29 45 -7 18 -34 54 -59 79 -25 25 -46 53 -46 63 0 9
-21 36 -48 60 -85 78 -93 87 -108 115 -8 15 -18 27 -22 27 -21 0 -232 204
-232 224 0 16 -32 46 -48 46 -7 0 -12 4 -12 9 0 5 -25 25 -55 46 -30 20 -55
41 -55 47 0 5 -22 31 -48 57 -27 25 -52 54 -56 64 -3 11 -15 21 -26 24 -11 3
-20 11 -20 18 0 19 -77 85 -100 85 -11 0 -20 7 -20 15 0 18 -122 142 -153 155
-12 6 -31 15 -42 22 -11 6 -26 14 -34 18 -8 3 -19 15 -25 25 -14 24 -125 135
-136 135 -4 0 -23 13 -41 30 -19 16 -30 30 -24 30 5 0 -14 16 -43 35 -28 20
-52 41 -52 49 0 7 -14 24 -32 37 -17 13 -41 34 -52 47 -11 12 -24 22 -30 22
-6 1 -24 21 -39 45 -16 25 -33 45 -39 45 -6 0 -35 21 -64 48 -116 104 -241
208 -319 265 -33 25 -77 61 -98 81 -21 20 -44 36 -50 36 -7 0 -30 16 -52 35
-22 19 -49 38 -59 41 -24 8 -118 81 -129 100 -4 8 -16 14 -26 14 -11 0 -21 7
-24 15 -4 8 -21 21 -39 30 -55 26 -81 43 -118 75 -19 17 -47 36 -62 43 -16 6
-28 15 -28 18 0 4 -11 10 -25 13 -14 4 -25 11 -25 16 0 6 -8 10 -17 10 -25 0
-132 56 -165 86 -15 13 -31 24 -34 24 -3 0 -19 10 -36 21 -16 12 -61 38 -98
58 -38 20 -79 45 -93 57 -13 11 -41 24 -63 27 -46 8 -124 43 -124 57 0 6 -8
10 -19 10 -10 0 -35 14 -56 30 -21 17 -42 30 -46 30 -5 0 -9 7 -9 15 0 8 -11
17 -25 21 -14 3 -36 19 -49 35 -14 16 -31 29 -39 29 -8 0 -26 9 -40 20 -14 11
-30 20 -35 20 -5 0 -15 7 -22 15 -7 9 -21 13 -30 10 -10 -3 -25 1 -33 10 -9 8
-33 15 -54 15 -27 0 -42 6 -51 20 -7 11 -22 20 -35 20 -30 0 -92 23 -114 41
-25 20 -57 35 -132 58 -35 12 -69 25 -75 30 -6 5 -36 12 -66 15 -80 10 -164
28 -175 38 -5 4 -22 8 -38 8 -16 0 -43 6 -60 14 -74 31 -93 38 -141 47 -27 5
-106 12 -175 15 -69 3 -156 12 -193 20 -68 16 -312 15 -337 0 -6 -4 -11 -2
-11 3 0 15 -45 12 -99 -5z m423 -177 c6 -4 32 -6 57 -5 25 1 51 -2 58 -6 24
-15 84 -9 98 10 7 10 13 13 13 7 0 -26 30 -40 87 -42 64 -1 133 -15 203 -39
25 -9 51 -15 58 -14 6 2 12 -2 12 -8 0 -5 12 -10 26 -10 14 0 33 -7 41 -16 10
-10 26 -14 43 -11 17 4 41 -3 69 -19 24 -13 54 -24 66 -24 13 0 40 -9 60 -21
19 -12 54 -25 77 -30 22 -6 52 -19 66 -29 13 -11 33 -20 43 -20 11 0 19 -4 19
-10 0 -11 64 -30 103 -30 15 0 35 -4 45 -10 26 -15 76 -33 85 -31 5 1 22 -10
39 -24 16 -14 38 -25 48 -25 11 0 24 -9 30 -20 6 -11 17 -20 26 -20 8 0 17 -7
20 -15 4 -8 11 -15 18 -15 6 0 31 -19 56 -43 51 -47 111 -72 130 -53 9 8 11 7
8 -4 -5 -25 38 -59 80 -63 27 -3 48 -13 69 -35 17 -18 37 -32 45 -32 9 0 21
-7 28 -15 23 -28 102 -76 134 -82 17 -3 45 -19 62 -35 22 -20 46 -31 75 -35
27 -3 55 -15 74 -32 37 -32 70 -51 89 -51 8 0 27 -13 42 -29 15 -17 31 -28 35
-26 3 3 14 -4 24 -15 10 -11 24 -20 31 -20 7 0 22 -9 33 -21 11 -12 24 -18 29
-15 5 3 15 -1 22 -9 7 -8 16 -15 21 -15 5 0 30 -20 56 -45 26 -24 54 -45 60
-45 7 0 30 -15 50 -34 21 -18 48 -38 61 -45 12 -6 22 -18 22 -25 0 -8 10 -16
23 -19 12 -4 38 -22 57 -41 19 -20 41 -36 47 -36 7 0 26 -13 41 -30 16 -16 34
-30 41 -30 6 0 11 -9 11 -20 0 -13 9 -22 25 -26 14 -3 35 -19 46 -35 24 -34
74 -63 95 -55 9 3 14 0 12 -7 -4 -17 67 -95 114 -127 21 -14 52 -44 70 -67 17
-24 37 -43 44 -43 7 0 24 -11 38 -25 14 -14 29 -25 33 -25 5 0 14 -14 22 -31
7 -17 32 -44 55 -60 22 -15 48 -35 57 -44 9 -8 20 -15 25 -15 5 0 40 -29 77
-65 37 -36 71 -65 76 -65 5 0 12 -11 15 -25 4 -14 14 -29 23 -32 36 -14 243
-201 243 -219 0 -8 41 -44 50 -44 5 0 14 -10 21 -21 13 -25 59 -68 74 -69 6
-1 28 -23 50 -50 22 -27 45 -49 51 -49 5 -1 25 -17 44 -36 19 -19 40 -35 47
-35 7 0 13 -6 13 -12 0 -7 14 -21 30 -30 17 -9 30 -23 30 -31 0 -15 74 -97 88
-97 4 0 12 -10 17 -22 6 -13 20 -27 32 -33 12 -5 24 -18 27 -28 3 -12 9 -16
18 -11 7 4 10 3 5 -1 -9 -10 43 -66 55 -59 4 3 8 -4 8 -15 0 -11 8 -22 18 -25
19 -7 163 -169 166 -189 3 -21 64 -103 96 -131 17 -14 29 -30 26 -34 -3 -5 17
-32 45 -61 27 -28 49 -54 49 -57 0 -8 67 -87 126 -148 28 -29 65 -74 83 -99
19 -25 51 -60 72 -77 22 -17 39 -37 39 -44 0 -15 53 -76 67 -76 5 0 16 -12 23
-26 8 -14 22 -30 32 -35 10 -5 18 -15 18 -22 0 -10 22 -41 59 -82 4 -5 40 -39
80 -75 39 -36 71 -69 71 -74 0 -4 18 -29 39 -55 21 -25 50 -69 63 -96 12 -28
30 -57 38 -65 34 -34 80 -100 80 -114 0 -9 5 -16 10 -16 6 0 10 -13 10 -30 0
-20 5 -30 15 -30 8 0 20 -9 27 -20 7 -11 19 -20 26 -20 8 0 10 -8 6 -24 -4
-17 0 -32 15 -47 12 -13 21 -29 21 -36 0 -22 48 -110 80 -146 16 -19 30 -40
30 -47 0 -21 33 -75 80 -131 16 -20 30 -41 30 -45 0 -5 9 -20 20 -34 11 -14
20 -32 20 -41 0 -9 9 -24 19 -33 11 -10 17 -24 14 -32 -3 -8 0 -14 6 -14 6 0
11 -8 11 -17 0 -28 25 -90 43 -111 9 -10 17 -26 17 -34 0 -19 46 -103 77 -141
13 -16 23 -34 23 -40 0 -7 11 -34 25 -61 13 -27 22 -52 20 -57 -3 -4 4 -13 15
-19 11 -6 20 -17 20 -25 0 -19 21 -58 38 -68 6 -4 12 -19 12 -31 0 -13 6 -26
14 -29 8 -3 17 -20 21 -37 4 -18 14 -40 24 -49 25 -27 42 -61 36 -71 -3 -5 0
-12 7 -17 7 -4 19 -18 26 -30 6 -13 18 -33 25 -45 6 -13 17 -26 22 -30 6 -4 7
-8 3 -8 -11 0 28 -102 43 -111 7 -4 10 -11 6 -15 -4 -4 3 -16 16 -28 12 -12
22 -25 23 -31 1 -18 42 -103 53 -109 6 -4 11 -20 11 -36 0 -16 5 -32 10 -35 6
-3 10 -13 10 -21 0 -16 39 -106 49 -114 7 -6 31 -60 57 -132 9 -27 21 -48 25
-48 5 0 9 -7 9 -15 0 -8 4 -15 9 -15 5 0 12 -16 15 -35 4 -19 11 -35 16 -35 6
0 10 -6 10 -13 0 -8 9 -22 19 -31 11 -10 17 -24 14 -32 -3 -8 -1 -14 5 -14 6
0 16 -15 22 -34 6 -19 17 -37 24 -39 7 -3 21 -36 31 -74 10 -37 22 -72 26 -78
9 -13 31 -91 36 -130 2 -16 8 -31 13 -33 5 -2 12 -20 15 -40 12 -72 28 -137
36 -148 5 -6 6 -13 3 -16 -3 -3 4 -21 15 -39 12 -19 21 -44 21 -56 0 -13 4
-23 9 -23 4 0 14 -20 21 -45 7 -24 19 -50 26 -56 8 -6 14 -20 14 -30 0 -19 20
-70 31 -79 3 -3 9 -18 13 -35 4 -16 16 -47 26 -70 10 -22 18 -44 18 -49 0 -5
4 -12 9 -15 11 -9 33 -49 33 -62 0 -6 6 -25 14 -42 24 -56 75 -191 81 -219 4
-14 15 -35 26 -47 10 -11 19 -31 19 -44 0 -28 25 -93 39 -101 4 -3 9 -17 9
-31 0 -14 8 -36 19 -48 18 -19 32 -55 38 -92 4 -29 19 -72 30 -85 11 -13 31
-71 40 -121 6 -28 33 -86 44 -93 5 -4 8 -13 5 -20 -7 -17 22 -76 37 -76 7 0 9
-9 6 -21 -5 -20 17 -75 87 -224 19 -38 37 -81 41 -95 4 -14 14 -32 22 -41 7
-9 13 -20 12 -25 -1 -5 0 -16 4 -24 3 -8 8 -27 11 -42 3 -15 13 -34 22 -42 8
-9 18 -33 21 -53 3 -21 13 -46 22 -57 9 -10 16 -30 17 -45 1 -32 33 -141 47
-159 5 -7 7 -15 4 -18 -7 -8 12 -76 27 -94 7 -8 23 -53 36 -100 13 -47 32
-107 43 -135 10 -27 27 -79 38 -115 11 -36 28 -83 38 -105 17 -36 55 -176 68
-244 2 -14 16 -53 30 -86 14 -33 30 -78 35 -100 6 -22 20 -69 31 -105 18 -57
27 -111 41 -230 2 -19 11 -64 19 -100 8 -36 20 -92 27 -125 6 -33 16 -73 21
-90 6 -16 15 -48 20 -70 5 -22 21 -73 35 -113 19 -53 26 -98 29 -167 3 -103
23 -234 37 -249 16 -18 9 -65 -12 -78 -11 -7 -20 -18 -20 -25 0 -7 -4 -13 -10
-13 -5 0 -10 -6 -10 -13 0 -7 -11 -29 -25 -48 -13 -20 -33 -70 -44 -110 -11
-41 -33 -102 -50 -137 -17 -34 -31 -68 -31 -75 0 -24 -38 -121 -49 -125 -6 -2
-11 -9 -11 -15 0 -14 -50 -139 -74 -185 -9 -18 -16 -33 -15 -34 1 -2 -7 -24
-18 -49 -12 -26 -24 -62 -28 -80 -4 -19 -13 -41 -20 -49 -7 -8 -18 -33 -25
-55 -7 -22 -16 -44 -21 -50 -5 -5 -9 -16 -9 -26 0 -9 -11 -33 -25 -53 -14 -20
-25 -49 -25 -64 0 -18 -10 -35 -29 -50 -16 -12 -32 -34 -35 -47 -4 -14 -11
-25 -16 -25 -6 0 -10 -7 -10 -16 0 -8 -9 -35 -20 -60 -31 -67 -43 -97 -47
-119 -2 -10 -7 -22 -11 -25 -15 -11 -40 -66 -47 -103 -4 -20 -11 -40 -16 -43
-5 -3 -9 -18 -9 -34 0 -15 -6 -30 -14 -33 -8 -3 -17 -21 -21 -39 -4 -18 -13
-40 -20 -48 -8 -8 -26 -49 -40 -90 -15 -41 -31 -84 -36 -95 -8 -17 -28 -100
-46 -188 -3 -16 -18 -43 -34 -60 -16 -17 -29 -35 -29 -40 0 -4 -13 -35 -30
-69 -16 -33 -30 -68 -30 -78 0 -9 -20 -57 -45 -105 -24 -48 -43 -90 -43 -94 4
-13 -26 -87 -48 -121 -12 -19 -28 -55 -35 -80 -8 -25 -21 -54 -31 -65 -10 -10
-23 -37 -29 -60 -6 -22 -16 -46 -22 -54 -16 -19 -33 -50 -53 -93 -9 -21 -20
-38 -24 -38 -5 0 -11 -14 -15 -30 -4 -17 -20 -45 -36 -63 -31 -33 -81 -122
-73 -130 3 -2 -8 -12 -23 -22 -26 -17 -50 -46 -44 -53 1 -2 -9 -12 -23 -23
-15 -11 -26 -25 -26 -31 0 -17 -31 -48 -48 -48 -8 0 -26 10 -40 23 -78 70
-112 103 -112 113 0 7 -8 14 -18 16 -10 3 -45 38 -78 77 -71 86 -255 271 -264
266 -4 -2 -22 16 -40 40 -19 25 -42 47 -52 51 -10 3 -18 10 -18 16 0 6 -3 8
-6 5 -4 -3 -18 3 -32 13 -13 11 -31 20 -38 20 -7 0 -23 14 -36 30 -12 17 -27
30 -34 30 -16 0 -57 22 -76 40 -9 8 -53 50 -99 94 -124 116 -149 140 -149 147
0 4 -19 27 -42 52 -24 24 -47 51 -53 59 -91 136 -178 247 -193 248 -8 0 -27
14 -44 30 -16 17 -39 35 -49 41 -11 6 -24 21 -29 35 -5 13 -18 24 -28 24 -10
0 -23 5 -30 12 -6 6 -33 14 -58 16 -36 3 -54 -1 -75 -17 -16 -12 -35 -21 -43
-21 -9 0 -39 -21 -68 -46 -90 -77 -99 -84 -114 -84 -8 0 -14 -5 -14 -12 0 -6
-3 -8 -6 -5 -6 6 -74 -55 -74 -67 0 -9 -123 -136 -132 -136 -4 0 -62 -54 -129
-121 -66 -66 -135 -127 -152 -134 -18 -7 -45 -27 -61 -43 -15 -17 -38 -33 -50
-36 -20 -5 -189 -179 -308 -318 -32 -39 -136 -65 -181 -47 -18 7 -34 16 -37
21 -3 4 -16 9 -28 11 -13 2 -31 10 -40 18 -10 8 -29 15 -42 17 -13 1 -31 9
-40 17 -9 8 -26 15 -38 15 -11 0 -24 5 -27 10 -4 6 -10 8 -14 5 -5 -2 -17 2
-27 10 -10 8 -27 15 -36 15 -10 0 -18 5 -18 10 0 6 -7 10 -16 10 -9 0 -12 5
-8 12 4 7 3 8 -4 4 -7 -4 -38 11 -71 34 -33 22 -66 40 -74 40 -8 0 -20 7 -27
15 -7 8 -19 15 -26 15 -8 0 -14 4 -14 9 0 5 -8 12 -17 15 -22 8 -79 40 -95 53
-7 6 -24 14 -38 18 -14 4 -35 17 -47 28 -13 11 -23 17 -23 13 0 -4 -12 2 -26
13 -15 12 -31 21 -37 21 -6 0 -18 6 -26 14 -9 8 -36 25 -61 39 -25 14 -44 30
-43 35 1 5 -3 9 -10 9 -15 1 -80 26 -87 33 -14 16 -109 80 -117 80 -6 0 -18 9
-28 20 -10 11 -26 20 -35 20 -9 0 -29 11 -44 25 -15 14 -37 25 -49 25 -13 0
-30 9 -40 20 -9 11 -27 20 -39 20 -13 0 -36 7 -52 15 -15 8 -34 15 -41 15 -6
0 -26 13 -43 30 -18 16 -40 30 -49 30 -10 0 -29 9 -43 20 -14 11 -31 20 -37
20 -7 0 -13 5 -13 10 0 6 -6 10 -12 10 -7 0 -28 13 -47 29 -19 17 -38 28 -42
25 -4 -2 -14 4 -21 14 -7 10 -28 27 -45 37 -18 11 -33 22 -33 25 0 3 -16 4
-35 2 -49 -6 -130 16 -158 42 -13 12 -44 32 -68 44 -24 11 -56 32 -71 47 -16
14 -28 23 -28 20 0 -3 -11 2 -25 11 -14 9 -25 23 -25 31 0 8 -5 11 -10 8 -6
-3 -13 0 -16 8 -3 9 -20 21 -37 28 -18 7 -36 19 -40 26 -5 7 -12 11 -17 8 -5
-3 -12 0 -15 6 -21 33 -179 74 -320 82 -44 3 -93 11 -109 17 -16 6 -36 8 -44
5 -7 -3 -26 4 -42 15 -15 11 -36 20 -47 20 -10 0 -35 11 -55 25 -20 14 -41 25
-45 25 -4 0 -26 14 -47 30 -22 17 -47 30 -57 30 -10 0 -24 6 -31 14 -8 7 -32
19 -53 27 -22 7 -56 23 -76 36 -20 12 -39 20 -42 17 -6 -7 -42 13 -82 45 -23
19 -37 22 -72 18 -52 -6 -75 -24 -104 -86 -22 -44 -136 -167 -146 -157 -7 7
-63 -75 -63 -91 0 -7 -4 -13 -9 -13 -5 0 -19 -19 -30 -43 -11 -23 -35 -58 -53
-77 -91 -97 -158 -175 -158 -182 0 -4 -7 -8 -15 -8 -8 0 -15 -5 -15 -11 0 -5
-5 -7 -12 -3 -7 5 -9 2 -5 -9 4 -11 2 -14 -9 -10 -7 3 -14 0 -14 -6 0 -6 -7
-11 -15 -11 -8 0 -15 -4 -15 -10 0 -5 -6 -10 -12 -11 -7 0 -35 -27 -63 -59
-58 -68 -194 -210 -202 -210 -3 0 -14 -11 -25 -25 -11 -14 -26 -25 -34 -25 -8
0 -14 -4 -14 -10 0 -5 -7 -10 -15 -10 -8 0 -15 -7 -15 -15 0 -8 -6 -15 -13
-15 -8 0 -24 -11 -36 -24 -13 -13 -33 -27 -44 -30 -12 -3 -26 -15 -32 -28 -5
-12 -21 -28 -35 -35 -38 -19 -60 -36 -60 -48 0 -6 -9 -16 -20 -23 -11 -7 -20
-19 -20 -28 0 -15 -37 -53 -53 -54 -9 0 -117 -113 -117 -122 0 -5 -6 -8 -14
-8 -8 0 -23 -10 -33 -23 -10 -12 -31 -31 -48 -41 -16 -11 -36 -28 -43 -38 -7
-10 -21 -18 -31 -18 -9 0 -31 -13 -48 -30 -29 -29 -33 -30 -92 -24 -33 4 -66
13 -72 20 -6 7 -32 20 -59 29 -26 9 -62 29 -78 45 -17 16 -44 36 -61 45 -17 8
-31 20 -31 25 0 5 -7 7 -15 4 -8 -4 -15 -1 -15 5 0 6 -7 11 -15 11 -8 0 -15 9
-15 20 0 11 -6 20 -14 20 -8 0 -16 7 -20 15 -5 13 -21 23 -106 67 -14 7 -34
22 -45 34 -11 11 -28 24 -37 27 -10 4 -18 13 -18 21 0 8 -8 17 -19 21 -10 3
-33 19 -50 35 -17 17 -34 30 -38 30 -5 0 -19 12 -32 25 -13 14 -27 25 -33 25
-9 0 -60 51 -120 119 -25 28 -33 31 -86 31 -45 0 -63 -5 -80 -20 -23 -22 -28
-45 -12 -55 6 -3 10 -23 10 -43 1 -40 40 -99 58 -88 6 3 12 3 14 -1 4 -11 125
-103 134 -103 4 0 26 -19 48 -42 23 -23 81 -72 131 -109 165 -123 240 -181
243 -190 2 -4 10 -5 18 -2 10 4 12 0 8 -11 -4 -11 0 -16 13 -16 19 0 105 -55
111 -71 2 -5 28 -20 58 -34 30 -14 54 -29 54 -33 0 -4 10 -9 22 -9 13 -1 24
-7 26 -13 2 -5 12 -10 22 -10 9 0 23 -7 30 -15 15 -18 130 -22 130 -4 0 6 8 8
18 5 56 -17 68 -16 89 4 12 11 27 20 33 20 5 0 10 4 10 9 0 5 14 14 30 21 17
7 30 18 30 25 0 12 37 50 49 49 6 0 8 1 60 46 19 17 38 30 43 30 4 0 8 6 8 14
0 8 10 18 22 22 27 8 59 40 92 93 15 23 37 46 50 51 13 5 37 26 52 47 41 56
142 154 163 158 26 5 97 51 113 73 7 10 21 21 31 25 9 4 22 18 27 32 5 14 18
28 27 32 18 6 39 27 95 95 17 20 40 40 52 43 12 4 24 8 29 10 4 1 12 3 17 4 6
0 10 8 10 17 0 10 5 14 16 10 8 -3 13 -2 10 3 -3 5 6 17 21 27 39 28 166 155
181 181 6 13 12 28 12 35 0 7 21 35 45 61 25 26 45 51 45 55 0 4 16 25 35 45
19 20 35 45 35 55 0 10 9 24 20 32 11 8 20 18 20 22 0 13 116 128 128 128 7 0
12 6 12 14 0 29 72 29 115 -1 11 -7 30 -13 43 -13 13 0 21 -4 18 -9 -6 -9 26
-21 60 -21 12 0 25 -7 28 -16 3 -9 12 -14 20 -11 8 3 22 -3 32 -14 9 -10 23
-19 30 -19 15 0 101 -46 125 -66 8 -8 22 -14 31 -14 8 0 48 -12 88 -26 40 -14
96 -28 124 -31 28 -3 56 -9 61 -13 6 -4 46 -15 89 -25 43 -9 93 -25 110 -34
17 -10 36 -16 42 -14 6 2 27 -8 48 -22 20 -14 43 -25 51 -25 8 0 15 -7 15 -15
0 -9 8 -19 18 -22 9 -4 36 -22 60 -40 24 -18 49 -33 55 -33 7 0 21 -11 31 -25
11 -14 29 -25 42 -25 13 0 24 -4 24 -9 0 -5 14 -13 32 -16 17 -4 45 -16 62
-26 17 -10 39 -19 49 -19 9 0 17 -4 17 -9 0 -5 14 -11 30 -15 17 -3 55 -21 85
-41 31 -19 65 -35 76 -35 12 0 35 -15 51 -32 17 -18 34 -33 39 -33 4 0 11 -3
15 -7 4 -5 16 -8 26 -8 10 0 21 -7 24 -15 4 -8 14 -15 24 -15 11 0 22 -5 25
-10 4 -6 10 -8 15 -5 5 3 14 -4 20 -15 9 -16 15 -19 24 -11 10 8 20 6 37 -8
27 -21 97 -43 111 -35 4 3 8 1 8 -4 0 -5 25 -21 55 -36 30 -14 55 -31 55 -36
0 -6 5 -10 12 -10 15 0 122 -53 126 -62 2 -5 8 -8 14 -8 6 0 19 -10 29 -22 11
-11 22 -18 25 -15 3 3 24 -5 45 -19 21 -13 43 -24 49 -24 5 0 10 -4 10 -10 0
-5 6 -10 13 -10 8 0 22 -9 32 -20 10 -11 21 -17 26 -15 4 3 11 0 15 -6 3 -6
25 -20 48 -30 45 -22 78 -41 86 -50 3 -4 16 -10 30 -14 14 -4 32 -13 40 -20 8
-7 34 -20 58 -31 23 -10 42 -23 42 -30 0 -6 12 -15 28 -19 15 -3 35 -13 44
-22 9 -8 22 -13 29 -11 7 2 20 -3 29 -11 39 -37 62 -51 70 -46 6 4 10 2 10 -4
0 -5 14 -12 30 -16 17 -4 30 -11 30 -16 0 -5 7 -9 15 -9 8 0 15 -4 15 -10 0
-5 6 -10 13 -10 6 0 35 -11 62 -25 28 -13 55 -25 61 -25 6 0 17 -6 24 -14 6
-8 18 -12 26 -9 8 3 14 0 14 -6 0 -6 7 -11 15 -11 8 0 15 -4 15 -10 0 -5 9
-10 20 -10 11 0 20 -5 20 -11 0 -5 4 -8 8 -5 17 10 73 -29 94 -65 16 -29 30
-40 55 -45 32 -6 38 -2 160 122 69 71 141 148 160 171 19 23 43 45 54 48 10 4
19 13 19 21 0 8 7 17 15 20 8 4 15 11 15 17 0 17 162 167 188 173 12 4 22 10
22 14 0 4 13 13 30 18 16 6 35 22 41 35 6 13 23 28 39 34 16 6 41 29 57 51 15
23 34 41 41 42 6 0 12 7 12 15 0 8 6 15 13 15 6 0 24 21 39 45 20 34 31 43 44
38 12 -4 15 -3 10 5 -6 11 129 152 146 152 4 0 8 5 8 11 0 15 37 47 64 55 11
4 32 17 45 31 50 49 103 38 185 -39 21 -21 43 -38 48 -38 10 0 38 -25 38 -34
0 -4 38 -51 85 -107 47 -55 85 -104 85 -110 0 -6 4 -7 10 -4 5 3 10 1 10 -5 0
-18 325 -330 344 -330 6 0 27 -13 46 -28 19 -16 50 -37 68 -47 17 -11 32 -23
32 -27 0 -4 7 -8 15 -8 8 0 20 -9 27 -20 7 -11 20 -20 29 -20 13 0 59 -42 127
-116 7 -8 20 -14 28 -14 8 0 13 -4 10 -8 -6 -10 38 -52 54 -52 6 0 9 -3 8 -7
-2 -5 7 -19 19 -33 24 -29 89 -108 118 -145 11 -13 24 -25 29 -25 9 0 48 -41
151 -159 44 -50 67 -69 86 -70 14 -1 29 -4 32 -7 8 -8 134 -13 164 -7 12 3 24
15 27 27 3 12 13 30 23 41 10 11 30 43 44 71 13 28 35 64 47 80 61 80 91 124
116 174 16 30 40 69 53 87 14 18 22 37 18 43 -3 5 -1 10 5 10 6 0 13 8 17 18
3 9 21 50 39 90 19 40 34 77 34 81 0 5 7 14 14 21 16 13 56 90 56 107 0 6 7
16 15 23 8 7 22 38 31 69 9 31 20 61 24 66 4 6 27 59 51 119 23 60 57 134 75
164 18 30 48 95 65 143 17 49 36 89 40 89 5 0 9 11 9 25 0 14 4 33 10 43 5 9
14 37 19 62 5 25 17 68 27 95 9 28 23 69 31 93 8 23 20 48 26 55 22 24 37 57
37 81 0 13 7 29 15 36 8 7 15 24 15 39 0 14 11 46 24 71 13 25 27 68 31 95 10
65 66 183 116 242 8 10 26 52 39 93 13 41 30 84 37 95 6 11 12 25 12 30 0 10
23 67 45 114 6 13 23 36 38 50 21 19 26 32 23 53 -4 20 -1 28 10 28 8 0 17 12
21 28 15 68 34 123 63 185 17 36 31 70 31 74 0 5 9 25 20 45 11 20 25 58 31
85 7 26 15 53 20 58 4 6 18 32 32 59 l25 49 16 -31 c9 -17 16 -44 16 -59 0
-15 18 -79 40 -141 22 -62 40 -123 40 -135 0 -13 7 -50 16 -82 16 -59 21 -95
44 -300 6 -55 18 -138 26 -185 24 -129 41 -289 33 -302 -4 -6 -3 -23 3 -37 25
-64 15 -343 -15 -406 -12 -25 -12 -50 -4 -140 6 -60 10 -173 9 -250 -1 -77 -1
-223 0 -325 0 -102 0 -252 1 -335 0 -134 -22 -359 -38 -386 -14 -22 -23 -584
-17 -1129 1 -102 0 -214 -3 -250 -3 -36 -6 -74 -6 -85 -1 -11 -6 -38 -12 -60
-6 -22 -12 -103 -13 -180 -2 -159 -22 -482 -31 -505 -3 -8 -5 -21 -4 -27 1 -7
-5 -33 -14 -58 -8 -25 -18 -76 -21 -113 -3 -37 -9 -105 -13 -152 -7 -76 -7
-146 -1 -290 4 -83 -16 -208 -41 -265 -5 -11 -14 -49 -19 -85 -22 -148 -40
-278 -46 -330 -8 -82 -32 -186 -53 -233 -31 -70 -41 -100 -46 -140 -3 -21 -10
-47 -15 -57 -6 -10 -10 -34 -10 -52 0 -19 -4 -38 -8 -43 -9 -10 -45 -157 -57
-229 -4 -22 -18 -62 -31 -88 -14 -27 -23 -52 -20 -57 3 -4 -1 -19 -8 -33 -14
-26 -23 -68 -32 -148 -3 -25 -12 -59 -20 -77 -8 -17 -14 -44 -14 -61 0 -25
-33 -118 -70 -197 -22 -45 -40 -110 -40 -140 0 -18 -11 -53 -25 -79 -14 -26
-25 -53 -25 -59 0 -7 -9 -31 -21 -52 -11 -22 -31 -72 -43 -110 -13 -39 -38
-91 -55 -117 -17 -25 -31 -53 -31 -61 0 -9 -6 -20 -12 -24 -18 -11 -38 -49
-38 -70 0 -10 -9 -33 -20 -51 -11 -18 -20 -39 -20 -46 0 -7 -7 -19 -15 -26 -8
-7 -24 -31 -34 -54 -10 -23 -32 -58 -50 -78 -17 -20 -31 -39 -31 -43 0 -4 -16
-25 -35 -48 -19 -22 -35 -47 -35 -55 0 -8 -31 -46 -69 -86 -62 -63 -121 -138
-121 -152 0 -8 -78 -112 -89 -118 -5 -4 -22 -33 -38 -66 -15 -33 -31 -60 -35
-60 -4 0 -17 -19 -29 -42 -12 -24 -28 -47 -35 -51 -8 -4 -14 -14 -14 -22 0 -8
-16 -26 -35 -41 -19 -14 -35 -33 -35 -41 0 -7 -10 -24 -22 -37 -60 -61 -97
-106 -112 -134 -9 -17 -43 -62 -76 -100 -33 -39 -60 -75 -60 -81 0 -6 -6 -11
-13 -11 -7 0 -21 -16 -30 -35 -9 -20 -25 -39 -34 -42 -35 -13 -72 -46 -84 -74
-6 -16 -15 -29 -20 -29 -5 0 -9 -7 -9 -15 0 -8 -6 -15 -12 -15 -15 0 -58 -60
-58 -79 0 -7 -4 -10 -8 -7 -8 5 -62 -36 -62 -47 0 -7 -208 -217 -216 -217 -9
0 -163 -162 -186 -197 -14 -20 -34 -36 -50 -40 -16 -3 -28 -9 -28 -13 0 -14
-80 -90 -94 -90 -8 0 -19 -7 -26 -15 -7 -8 -21 -15 -30 -15 -10 0 -33 -18 -50
-40 -17 -22 -36 -38 -41 -35 -5 4 -19 -3 -31 -14 -12 -12 -27 -21 -34 -21 -7
0 -39 -27 -71 -61 -32 -33 -83 -78 -113 -99 -30 -21 -62 -47 -70 -59 -8 -12
-21 -21 -30 -21 -9 0 -29 -12 -46 -28 -59 -53 -98 -82 -110 -82 -6 0 -14 -7
-18 -15 -3 -8 -11 -15 -17 -15 -7 0 -17 -7 -23 -15 -6 -8 -41 -30 -78 -48 -37
-19 -65 -37 -61 -41 3 -3 -3 -6 -14 -6 -11 0 -30 -11 -43 -25 -13 -14 -30 -25
-38 -25 -9 0 -12 -3 -9 -7 4 -3 -4 -12 -18 -20 -60 -32 -72 -39 -105 -63 -19
-13 -40 -25 -47 -26 -7 -1 -24 -12 -39 -23 -15 -12 -32 -21 -40 -21 -7 0 -14
-5 -16 -12 -2 -6 -13 -12 -24 -13 -11 0 -34 -11 -51 -23 -17 -12 -35 -22 -41
-22 -5 0 -15 -7 -22 -15 -7 -8 -16 -13 -20 -10 -4 3 -13 -2 -20 -9 -6 -8 -24
-18 -40 -21 -15 -3 -36 -15 -46 -26 -9 -10 -22 -19 -29 -19 -6 0 -22 -11 -35
-25 -13 -14 -31 -25 -40 -25 -20 0 -77 -27 -85 -41 -4 -5 -17 -9 -31 -9 -13 0
-24 -4 -24 -10 0 -5 -7 -10 -16 -10 -9 0 -38 -11 -66 -25 -27 -14 -57 -25 -67
-25 -9 0 -33 -11 -53 -25 -20 -14 -46 -25 -57 -25 -12 0 -21 -7 -21 -15 0 -8
-8 -15 -19 -15 -10 0 -24 -7 -31 -15 -7 -8 -20 -15 -29 -15 -9 0 -21 -4 -27
-9 -5 -5 -18 -11 -29 -13 -11 -1 -35 -13 -52 -26 -18 -12 -52 -29 -75 -38 -23
-8 -50 -23 -60 -34 -11 -11 -26 -20 -34 -20 -9 0 -25 -11 -36 -25 -11 -14 -30
-25 -43 -25 -13 0 -30 -6 -37 -12 -13 -13 -86 -49 -91 -46 -1 2 -12 -5 -25
-14 -13 -8 -31 -14 -41 -11 -11 3 -24 -3 -33 -15 -7 -11 -31 -24 -52 -28 -22
-4 -51 -13 -65 -20 -14 -8 -32 -14 -38 -14 -7 0 -13 -5 -13 -11 0 -6 -6 -9
-14 -6 -8 3 -16 3 -18 -1 -3 -7 -90 -52 -101 -52 -3 0 -18 -5 -34 -12 -15 -6
-35 -12 -43 -14 -20 -4 -128 -60 -147 -76 -9 -7 -29 -13 -46 -14 -16 -1 -33
-7 -36 -13 -4 -6 -29 -14 -57 -17 -27 -4 -83 -17 -124 -30 -41 -13 -80 -24
-88 -24 -7 0 -32 -9 -54 -20 -23 -11 -46 -20 -52 -20 -5 0 -17 -6 -25 -13 -14
-12 -90 -36 -131 -41 -16 -3 -55 -18 -106 -42 -18 -9 -38 -14 -46 -13 -7 2
-22 -2 -33 -8 -11 -6 -41 -14 -67 -18 -27 -4 -48 -11 -48 -15 0 -8 -68 -28
-125 -37 -16 -2 -34 -9 -40 -14 -5 -5 -24 -9 -43 -9 -18 0 -41 -7 -49 -16 -11
-11 -26 -14 -49 -10 -19 4 -35 2 -39 -4 -4 -6 -13 -9 -20 -6 -7 2 -27 -4 -44
-15 -17 -10 -47 -19 -66 -19 -18 0 -36 -4 -39 -9 -3 -4 -33 -12 -67 -15 -34
-4 -79 -14 -100 -23 -22 -8 -46 -13 -54 -9 -8 3 -15 0 -15 -6 0 -7 -13 -8 -38
-4 -21 3 -53 1 -72 -4 -18 -5 -50 -10 -69 -11 -38 -2 -134 -25 -163 -40 -10
-5 -36 -9 -57 -9 -22 0 -42 -4 -46 -10 -3 -5 -12 -7 -20 -3 -9 3 -23 -1 -32
-8 -9 -8 -29 -14 -44 -15 -16 -1 -35 -6 -43 -13 -9 -7 -15 -8 -18 -2 -2 7 -34
5 -93 -5 -49 -8 -128 -19 -175 -25 -47 -5 -96 -11 -110 -14 -73 -15 -139 -21
-177 -17 -23 2 -50 1 -60 -3 -18 -8 -34 -10 -158 -19 -81 -6 -95 -9 -112 -19
-7 -5 -17 -5 -23 -2 -5 3 -16 3 -22 -2 -7 -4 -62 -8 -123 -9 -60 -1 -144 -8
-185 -14 -116 -18 -367 -24 -420 -10 -62 16 -160 27 -153 17 2 -4 -24 -5 -59
-2 -135 13 -141 12 -148 -14 -4 -16 -16 -28 -35 -33 -32 -9 -152 -10 -225 -2
-25 3 -58 7 -75 8 -100 11 -152 18 -165 24 -8 3 -33 7 -55 9 -105 8 -127 12
-143 26 -11 9 -41 15 -81 16 -35 1 -69 5 -74 8 -6 4 -31 7 -56 9 -25 1 -82 8
-126 14 -44 6 -118 13 -165 15 -47 2 -105 8 -130 14 -30 7 -46 7 -48 0 -3 -6
-8 -6 -15 0 -15 11 -188 44 -243 46 -23 0 -48 6 -55 12 -8 6 -39 10 -72 8 -31
-2 -55 0 -52 5 6 9 -14 14 -116 30 -75 11 -139 32 -172 55 -12 8 -31 15 -43
15 -12 0 -24 3 -26 8 -5 11 -84 52 -102 52 -8 0 -30 9 -48 20 -18 11 -45 20
-60 20 -15 0 -34 7 -43 16 -9 9 -25 14 -35 11 -11 -3 -23 -1 -26 5 -3 5 -13 7
-21 4 -8 -3 -11 -1 -8 4 4 6 -5 10 -22 9 -15 -1 -45 5 -65 14 -20 8 -38 13
-41 11 -2 -2 -17 2 -33 11 -16 8 -36 15 -45 15 -8 0 -26 11 -39 25 -15 16 -34
25 -55 25 -17 0 -35 4 -40 9 -6 6 -21 12 -35 14 -14 2 -42 12 -64 21 -34 15
-67 23 -129 30 -9 1 -23 8 -29 14 -7 7 -18 12 -25 12 -7 0 -13 5 -13 10 0 6
-8 10 -18 10 -10 0 -23 5 -30 12 -6 6 -20 12 -29 13 -25 3 -47 9 -53 15 -12
12 -51 30 -64 30 -8 0 -22 7 -30 16 -9 8 -24 17 -33 19 -10 2 -38 13 -63 24
-25 11 -57 21 -72 21 -15 0 -33 7 -41 15 -8 8 -17 12 -19 9 -3 -2 -11 2 -18
11 -7 8 -21 15 -32 15 -21 0 -65 25 -89 52 -9 10 -23 18 -31 18 -15 0 -34 14
-91 65 -15 14 -46 33 -67 43 -22 9 -40 23 -40 30 0 9 -6 12 -15 8 -9 -3 -15 0
-15 9 0 7 -10 17 -22 21 -13 4 -30 15 -39 25 -9 11 -26 19 -38 19 -11 0 -21 5
-21 10 0 6 -9 10 -19 10 -11 0 -33 11 -49 25 -16 13 -32 21 -36 18 -4 -4 -9 3
-13 15 -3 12 -16 25 -29 28 -13 3 -28 12 -35 20 -6 8 -15 11 -20 8 -5 -3 -21
4 -35 15 -14 11 -38 22 -54 26 -15 3 -45 22 -65 42 -20 19 -41 36 -48 37 -27
6 -64 25 -75 39 -7 8 -27 21 -45 28 -18 7 -40 20 -49 28 -32 29 -47 41 -55 41
-15 0 -92 67 -85 74 3 4 -1 4 -9 1 -9 -3 -23 3 -34 15 -10 11 -26 20 -36 20
-10 0 -23 9 -29 20 -6 11 -18 20 -26 20 -9 0 -12 5 -8 12 5 8 2 9 -10 5 -11
-5 -30 7 -61 37 -25 23 -42 45 -39 48 3 3 -7 8 -21 12 -14 4 -25 13 -25 20 0
8 -14 17 -30 21 -17 4 -28 11 -24 16 3 5 -9 21 -26 36 -35 29 -46 40 -73 72
-10 12 -22 19 -27 16 -6 -3 -10 -1 -10 5 0 16 -26 40 -44 40 -8 0 -17 9 -21
19 -3 11 -14 23 -25 26 -21 7 -90 80 -90 95 0 6 -7 10 -16 10 -8 0 -13 4 -10
9 8 13 -21 34 -35 25 -8 -4 -9 -3 -5 4 4 7 1 12 -8 12 -8 0 -13 6 -11 12 7 19
-5 32 -57 62 -26 15 -54 40 -61 54 -7 16 -20 26 -29 24 -11 -2 -22 11 -34 38
-10 22 -21 40 -26 40 -4 0 -8 7 -8 15 0 8 -7 15 -16 15 -8 0 -13 4 -10 9 3 5
-20 33 -52 63 -32 30 -57 59 -54 66 2 7 -3 12 -10 12 -8 0 -32 18 -53 40 -21
22 -43 40 -47 40 -13 0 -108 95 -108 108 0 7 -6 12 -12 12 -15 0 -98 85 -98
100 0 6 -19 30 -42 54 -65 66 -121 133 -136 161 -7 14 -16 23 -21 21 -9 -6
-87 79 -105 115 -7 13 -18 23 -25 21 -7 -1 -10 2 -7 7 4 5 -6 19 -20 30 -14
11 -39 40 -55 65 -16 24 -37 47 -45 50 -8 3 -12 10 -9 16 3 5 -1 10 -9 10 -8
0 -20 9 -26 20 -6 11 -14 20 -19 20 -4 0 -35 28 -69 63 -88 89 -98 100 -105
120 -3 9 -11 17 -17 17 -5 0 -10 7 -10 15 0 9 -10 19 -23 24 -12 5 -21 11 -19
15 5 13 1 25 -12 39 -8 7 -16 29 -17 48 -2 19 -6 36 -9 39 -3 3 -16 26 -30 53
-13 26 -28 47 -32 47 -5 0 -8 5 -8 11 0 7 -12 24 -28 40 -36 37 -45 49 -59 82
-7 15 -17 27 -23 27 -5 0 -10 5 -10 10 0 6 -15 25 -33 43 -18 18 -39 52 -46
74 -7 22 -31 60 -52 83 -22 23 -39 46 -39 50 0 4 -16 22 -35 41 -19 19 -35 42
-35 52 0 10 -5 15 -10 12 -6 -4 -17 9 -24 27 -8 18 -25 45 -38 60 -12 15 -40
46 -61 70 -20 24 -58 66 -83 93 -25 28 -52 64 -60 80 -7 17 -18 37 -23 45 -5
8 -16 30 -23 48 -7 17 -16 32 -20 32 -5 0 -8 7 -8 16 0 8 -5 12 -10 9 -6 -3
-10 5 -10 18 0 14 -7 27 -15 31 -8 3 -15 17 -15 31 0 14 -4 25 -10 25 -5 0
-12 11 -16 25 -3 14 -10 25 -16 25 -5 0 -7 4 -4 9 3 4 -1 17 -9 27 -8 10 -15
31 -15 45 0 14 -11 39 -25 55 -14 16 -30 34 -35 41 -6 7 -10 28 -10 48 0 22
-8 44 -20 58 -12 12 -23 33 -26 47 -8 37 -43 131 -59 160 -27 48 -58 115 -57
123 1 4 -5 7 -13 7 -8 0 -15 9 -15 20 0 11 -15 43 -34 70 -19 28 -37 65 -41
82 -7 38 -25 77 -42 96 -7 7 -16 25 -19 40 -4 15 -16 42 -26 60 -11 18 -18 35
-15 38 7 7 -22 105 -35 121 -6 7 -8 20 -4 28 3 9 -1 18 -9 21 -8 4 -15 19 -15
34 0 16 -7 35 -15 44 -8 8 -15 26 -15 40 0 14 -4 26 -9 26 -6 0 -10 37 -10 83
0 97 -5 131 -37 256 -13 51 -24 105 -24 120 0 15 -6 36 -14 46 -14 20 -32 141
-28 180 1 11 5 74 9 141 5 107 3 129 -16 185 -11 35 -25 97 -31 137 -5 39 -15
105 -21 145 -14 94 -19 126 -20 160 -1 15 -6 30 -11 33 -4 3 -8 18 -8 35 0 16
-4 37 -9 47 -6 9 -15 46 -21 82 -7 36 -16 88 -22 115 -5 28 -11 127 -13 220
-1 94 -8 256 -15 360 -8 126 -9 214 -2 260 9 69 8 188 -3 480 -12 332 -15 384
-25 475 -5 52 -12 122 -16 155 -3 33 0 119 7 190 6 72 13 200 15 285 2 85 8
202 15 260 6 58 12 123 11 145 0 22 4 45 8 50 12 15 15 233 4 290 -13 66 2
345 22 404 3 8 7 44 9 80 3 36 7 86 10 111 3 25 7 95 10 155 6 106 18 188 36
230 7 19 43 163 53 215 2 14 7 32 10 40 4 9 13 51 21 95 17 98 61 301 70 323
4 10 13 71 21 137 8 66 16 131 18 145 3 14 8 45 11 70 4 25 13 59 20 75 27 62
34 81 48 125 8 25 18 64 22 87 3 23 12 46 18 52 7 5 14 37 15 71 2 34 8 73 13
87 5 13 9 43 9 67 0 23 4 46 9 52 8 9 32 75 37 104 2 8 7 34 12 58 5 23 7 42
5 42 -2 0 2 7 11 15 19 20 76 167 76 199 0 14 4 27 10 31 5 3 7 12 4 20 -3 7
-1 38 5 67 11 53 26 236 24 293 -1 47 27 217 42 250 7 17 16 46 19 65 14 70
30 135 37 145 3 6 12 35 19 65 6 30 22 91 35 135 12 44 26 102 29 129 3 27 10
54 14 60 5 6 14 36 22 66 7 30 28 82 47 116 20 37 33 75 33 96 0 22 6 38 14
41 9 4 12 14 9 26 -3 12 1 31 9 43 21 32 27 63 16 81 -9 17 6 137 23 172 5 11
16 51 25 90 8 38 19 75 24 80 5 6 14 41 20 78 6 37 15 77 20 89 6 13 14 55 19
93 11 81 36 187 55 230 7 17 18 44 24 60 5 17 13 39 18 50 4 11 8 25 10 30 1
6 12 39 23 74 12 35 18 67 15 72 -3 5 -1 9 5 9 14 0 57 98 65 149 4 24 13 53
21 64 8 12 15 29 15 39 0 10 11 41 24 70 14 29 28 66 31 81 4 15 11 27 16 27
5 0 9 15 9 33 0 21 8 41 19 51 11 10 25 39 31 66 6 27 20 56 30 65 10 9 24 39
30 66 7 27 16 49 21 49 5 0 9 6 9 14 0 7 9 25 21 40 18 23 25 39 28 67 1 3 10
16 21 29 11 13 23 35 26 49 6 29 14 48 72 171 22 47 46 101 53 120 7 19 18 42
25 50 7 8 16 32 19 53 4 21 14 41 21 44 8 3 14 13 14 24 0 10 11 38 25 63 14
25 25 56 25 69 0 25 56 140 71 145 5 2 9 10 9 17 0 18 32 78 48 88 6 4 12 16
12 25 0 21 50 122 71 142 18 18 54 109 45 117 -3 3 3 18 14 33 11 16 20 37 20
49 0 11 15 41 34 66 19 24 47 67 62 95 15 27 31 50 36 50 4 0 8 6 8 13 0 8 9
22 20 32 11 10 20 24 20 32 0 7 9 22 21 34 25 25 50 68 119 209 29 58 56 108
62 111 5 3 8 10 6 15 -1 5 10 33 25 62 15 30 27 62 27 72 0 10 3 20 8 22 12 5
49 62 57 87 4 14 23 48 41 77 19 29 34 56 34 59 0 7 33 76 54 113 7 12 23 34
36 47 16 17 21 32 18 50 -4 18 1 30 16 40 11 8 17 15 12 15 -5 0 -1 9 9 20 10
11 14 20 10 20 -4 0 -1 8 7 18 15 17 48 84 48 97 0 3 7 13 15 21 8 9 15 26 15
39 0 15 7 26 20 30 11 3 20 12 20 19 0 16 35 84 56 107 10 11 14 22 11 25 -4
4 4 15 17 25 13 10 36 44 51 76 43 93 59 123 65 123 3 0 12 14 19 32 8 18 28
52 45 76 17 24 35 51 41 61 5 9 20 30 32 48 13 17 23 37 23 43 0 6 7 13 15 16
8 4 15 10 15 16 0 5 15 29 34 54 19 25 33 51 30 59 -3 7 4 18 15 24 19 11 34
33 64 97 8 17 36 53 61 79 25 27 48 57 52 68 3 11 18 32 33 48 15 15 36 44 46
64 11 19 25 35 32 35 7 0 10 6 7 13 -2 7 6 26 20 42 14 16 33 45 43 64 10 20
23 41 29 46 5 6 31 42 56 80 25 39 55 79 67 89 12 11 21 25 21 33 0 7 9 21 20
30 11 10 20 25 20 35 0 10 4 18 9 18 5 0 12 8 16 18 3 9 30 44 61 77 30 33 74
87 96 119 23 33 61 79 85 103 24 24 43 48 43 53 0 6 5 10 10 10 6 0 15 11 20
24 5 13 22 32 38 42 18 10 28 23 25 31 -3 7 0 13 6 13 6 0 11 7 11 15 0 8 7
15 15 15 8 0 15 5 15 10 0 6 5 10 10 10 6 0 22 11 36 25 14 14 23 25 20 25 -2
0 19 24 47 53 29 29 71 74 95 100 23 26 43 47 45 47 8 0 267 258 267 267 0 5
11 16 25 23 14 7 25 17 25 21 0 11 94 99 113 105 9 3 17 12 17 20 0 8 5 12 10
9 6 -3 10 -1 10 4 0 6 6 11 13 11 6 0 32 19 57 41 25 23 61 53 80 68 37 28 39
30 117 104 28 26 54 47 58 47 10 0 85 63 85 72 0 15 42 56 64 62 11 3 34 26
51 50 16 25 39 50 51 57 12 6 32 24 43 40 12 16 28 29 35 29 7 0 31 18 52 40
22 22 44 40 49 40 6 0 20 16 33 35 12 19 26 35 31 35 5 0 33 23 63 51 29 28
77 72 107 97 80 70 121 114 121 130 0 6 10 17 23 23 12 6 41 32 64 56 23 25
46 43 50 40 5 -3 22 5 38 19 15 13 33 24 40 24 6 0 18 11 25 25 7 14 18 25 25
25 17 0 76 46 68 53 -6 7 36 46 51 47 15 0 116 80 116 91 0 5 14 23 30 39 17
17 28 35 25 40 -4 6 -2 9 3 8 5 -2 40 23 78 55 38 32 89 72 114 90 25 18 46
38 46 45 3 23 4 24 17 13 10 -8 21 -2 47 24 19 19 39 35 45 35 6 0 27 16 46
36 29 30 85 73 158 119 9 6 36 29 61 52 25 24 57 48 73 54 15 6 27 15 27 20 0
5 9 9 20 9 11 0 20 7 20 15 0 14 12 20 33 16 4 -1 10 6 13 14 4 8 12 15 19 15
7 0 32 19 57 43 68 64 166 128 268 173 19 9 44 24 55 35 24 22 225 46 236 28
4 -7 22 -3 50 12 39 20 59 22 184 23 77 1 145 4 151 8 6 4 44 11 83 14 39 4
74 11 77 15 3 5 16 9 29 9 13 0 27 5 30 10 3 6 20 10 36 10 16 0 45 6 63 14
18 8 73 17 122 21 49 4 94 10 99 15 6 4 81 8 169 8 169 1 216 6 217 25 0 7 3
5 6 -3 3 -8 11 -18 17 -23z m-834 -57 c0 -5 -2 -10 -4 -10 -3 0 -8 5 -11 10
-3 6 -1 10 4 10 6 0 11 -4 11 -10z m-850 -90 c0 -5 -10 -10 -22 -10 -19 0 -20
2 -8 10 19 13 30 13 30 0z m49 -11 c-16 -10 -23 -4 -14 10 3 6 11 8 17 5 6 -4
5 -9 -3 -15z m-207 -84 c0 -5 -5 -11 -11 -13 -6 -2 -11 4 -11 13 0 9 5 15 11
13 6 -2 11 -8 11 -13z m-452 -364 c0 -17 -18 -21 -24 -6 -3 9 0 15 9 15 8 0
15 -4 15 -9z m-180 -137 c0 -14 -3 -14 -15 -4 -8 7 -15 14 -15 16 0 2 7 4 15
4 8 0 15 -7 15 -16z m-3795 -4005 c-8 -12 -35 -12 -35 0 0 11 22 20 33 14 4
-2 5 -9 2 -14z"/>
<path d="M7340 22405 c0 -2 7 -8 15 -15 12 -10 15 -10 15 2 0 8 -7 15 -15 15
-8 0 -15 -1 -15 -2z"/>
</g>
</svg>
