<?xml version="1.0" standalone="no"?>
<!DOCTYPE svg PUBLIC "-//W3C//DTD SVG 20010904//EN"
 "http://www.w3.org/TR/2001/REC-SVG-20010904/DTD/svg10.dtd">
<svg version="1.0" xmlns="http://www.w3.org/2000/svg"
 width="2056.181104pt" height="2741.209335pt" viewBox="0 0 2056.181104 2741.209335"
 preserveAspectRatio="xMidYMid meet">
<metadata>
Created by potrace 1.15, written by Peter Selinger 2001-2017
</metadata>
<g transform="translate(-160.481825,2913.728531) scale(0.100000,-0.100000)"
fill="#000000" stroke="none">
<path d="M9790 29128 c-18 -10 -26 -23 -28 -48 -2 -19 -8 -39 -13 -44 -14 -15
-11 -42 6 -56 8 -7 15 -19 15 -27 0 -8 11 -24 25 -35 14 -11 25 -28 25 -39 0
-10 9 -27 20 -36 11 -10 20 -23 20 -30 0 -7 7 -13 15 -13 8 0 15 -8 15 -18 0
-19 39 -81 77 -122 13 -14 23 -29 23 -33 0 -5 7 -6 16 -3 8 3 13 2 9 -3 -9
-16 7 -42 22 -37 8 3 12 2 9 -3 -3 -5 6 -21 19 -35 14 -15 25 -34 25 -42 0 -7
7 -14 15 -14 9 0 32 -19 53 -41 20 -23 52 -57 70 -76 17 -19 32 -39 32 -45 0
-6 7 -5 16 3 15 12 19 10 33 -11 20 -29 55 -70 46 -52 -4 7 0 12 10 12 11 0
14 -6 9 -24 -6 -27 24 -66 51 -66 8 0 15 -7 15 -16 0 -11 5 -14 18 -9 33 13
37 10 34 -24 -2 -26 1 -32 12 -28 19 7 86 -58 86 -84 0 -13 10 -20 35 -25 19
-3 35 -11 35 -16 0 -5 10 -6 23 -3 17 5 19 4 7 -4 -13 -10 -11 -14 10 -31 45
-36 118 -79 124 -73 9 10 46 -28 46 -48 0 -10 9 -20 19 -24 10 -3 21 -15 24
-27 5 -18 9 -19 21 -9 13 11 17 7 30 -21 18 -40 39 -64 86 -99 37 -27 70 -43
83 -41 4 1 7 -5 7 -13 0 -9 12 -20 27 -26 14 -5 32 -17 39 -27 7 -9 16 -17 21
-17 4 -1 18 -6 31 -13 12 -7 28 -10 34 -6 7 4 8 3 4 -4 -4 -7 3 -16 17 -21 14
-6 31 -19 39 -30 8 -12 17 -18 20 -16 6 6 94 -40 175 -92 29 -18 56 -33 60
-33 5 0 14 -9 21 -21 8 -12 19 -18 28 -15 8 3 14 -1 14 -9 0 -17 49 -32 59
-18 11 17 62 21 90 7 24 -13 28 -12 43 9 28 35 22 117 -8 117 -8 0 -14 7 -14
15 0 26 -30 64 -46 58 -8 -3 -23 5 -34 17 -10 12 -24 19 -29 15 -6 -3 -23 5
-38 19 -15 15 -33 26 -40 26 -7 0 -13 5 -13 10 0 6 -8 10 -18 10 -9 0 -23 9
-29 19 -7 11 -26 22 -43 26 -17 4 -43 17 -58 29 -15 12 -52 34 -82 50 -30 16
-62 36 -70 45 -8 9 -27 21 -42 28 -24 11 -51 32 -109 86 -10 9 -21 17 -24 17
-3 0 -11 5 -18 10 -7 6 -25 22 -42 36 -16 14 -61 51 -100 82 -38 31 -84 71
-102 89 -17 18 -35 33 -40 33 -5 0 -23 15 -41 33 -17 17 -48 41 -69 52 -21 11
-44 28 -51 37 -7 10 -19 18 -26 18 -7 0 -22 14 -34 30 -13 17 -29 30 -37 30
-8 0 -15 6 -15 13 0 7 -18 21 -40 31 -23 10 -47 30 -55 47 -9 16 -22 29 -29
29 -7 0 -34 23 -60 50 -26 28 -51 50 -56 50 -5 0 -12 9 -15 20 -4 12 -29 41
-56 67 -27 25 -49 52 -49 59 0 7 -15 29 -32 47 -46 48 -118 134 -118 142 0 4
-20 30 -43 58 -24 29 -47 59 -50 67 -12 27 -32 55 -44 63 -7 4 -13 18 -13 31
0 12 -6 30 -13 40 -17 23 -93 31 -127 14z m70 -104 c0 -8 -4 -14 -9 -14 -11 0
-22 26 -14 34 9 9 23 -3 23 -20z m480 -700 c0 -8 -4 -12 -10 -9 -5 3 -10 10
-10 16 0 5 5 9 10 9 6 0 10 -7 10 -16z m100 -104 c0 -11 -4 -20 -10 -20 -5 0
-10 9 -10 20 0 11 5 20 10 20 6 0 10 -9 10 -20z m320 -234 c0 -11 -19 -15 -25
-6 -3 5 1 10 9 10 9 0 16 -2 16 -4z m34 -12 c3 -8 2 -12 -4 -9 -6 3 -10 10
-10 16 0 14 7 11 14 -7z m361 -193 c3 -5 1 -12 -5 -16 -5 -3 -10 1 -10 9 0 18
6 21 15 7z m-65 -105 c0 -8 -4 -17 -9 -21 -12 -7 -24 12 -16 25 9 15 25 12 25
-4z m300 -80 c0 -2 -8 -10 -17 -17 -16 -13 -17 -12 -4 4 13 16 21 21 21 13z
m120 -16 c0 -5 -4 -10 -10 -10 -5 0 -10 5 -10 10 0 6 5 10 10 10 6 0 10 -4 10
-10z m-200 -30 c0 -5 -4 -10 -10 -10 -5 0 -10 5 -10 10 0 6 5 10 10 10 6 0 10
-4 10 -10z"/>
<path d="M11615 28702 c-12 -9 -24 -24 -28 -32 -4 -8 -13 -23 -19 -33 -11 -14
-10 -23 4 -47 12 -20 13 -30 5 -33 -8 -3 -7 -10 4 -23 9 -10 19 -28 23 -39 3
-11 16 -31 29 -45 13 -14 32 -44 42 -68 13 -28 22 -39 29 -32 5 5 19 10 30 10
21 -1 21 -1 0 -18 -20 -17 -21 -20 -6 -48 8 -16 21 -33 28 -37 8 -4 14 -19 14
-32 0 -14 9 -30 20 -37 11 -7 20 -20 20 -28 0 -9 9 -23 20 -33 11 -9 20 -26
20 -38 0 -14 5 -19 14 -16 9 4 21 -11 36 -41 12 -26 26 -54 31 -62 5 -8 14
-26 19 -40 6 -14 17 -36 25 -50 8 -14 34 -63 57 -108 50 -97 128 -186 213
-244 33 -23 62 -45 63 -50 2 -4 9 -8 16 -8 7 0 21 -9 31 -20 10 -11 24 -20 31
-20 7 0 18 -10 25 -21 9 -18 17 -20 46 -16 27 5 34 3 29 -8 -6 -17 19 -39 34
-30 6 4 10 3 9 -2 -6 -25 13 -39 48 -35 21 3 33 1 30 -5 -6 -10 27 -43 43 -43
5 0 15 -12 22 -27 12 -24 19 -28 58 -28 25 0 50 -4 56 -7 16 -11 78 2 90 18 6
8 14 35 18 60 6 50 -13 94 -43 94 -9 0 -28 11 -43 25 -15 14 -34 25 -43 25 -8
0 -15 3 -15 8 0 13 -69 54 -79 47 -6 -3 -11 1 -11 10 0 8 -11 20 -25 25 -13 5
-32 17 -42 27 -23 23 -72 45 -84 38 -5 -3 -6 1 -3 9 3 9 -3 17 -17 21 -40 13
-156 105 -174 139 -10 18 -31 41 -47 50 -15 10 -28 24 -28 32 0 8 -3 14 -8 14
-4 0 -16 17 -27 38 -11 20 -22 39 -26 42 -8 7 -34 56 -63 122 -14 31 -30 59
-35 62 -5 4 -20 27 -32 54 -13 26 -40 63 -61 82 -21 20 -38 43 -38 53 0 20
-23 59 -57 96 -11 13 -19 30 -16 37 3 7 -8 33 -24 56 -15 24 -35 57 -43 73 -8
17 -21 38 -29 48 -9 10 -16 28 -16 39 0 11 -9 26 -20 32 -11 6 -23 15 -26 20
-4 5 -18 6 -32 2 -14 -3 -29 -2 -32 4 -8 14 -17 12 -40 -8z m58 -127 c4 -8 2
-17 -3 -20 -6 -4 -10 3 -10 14 0 25 6 27 13 6z m121 -250 c-19 -29 -29 -27
-19 4 3 12 13 21 21 21 12 0 12 -4 -2 -25z m61 -154 c3 -5 1 -12 -5 -16 -5 -3
-10 1 -10 9 0 18 6 21 15 7z m65 -25 c0 -3 -4 -8 -10 -11 -5 -3 -10 -1 -10 4
0 6 5 11 10 11 6 0 10 -2 10 -4z m-14 -53 c-10 -10 -19 5 -10 18 6 11 8 11 12
0 2 -7 1 -15 -2 -18z m294 -467 c0 -3 -4 -8 -10 -11 -5 -3 -10 -1 -10 4 0 6 5
11 10 11 6 0 10 -2 10 -4z m217 -113 c-8 -9 -20 -12 -26 -9 -19 12 -12 21 15
23 24 1 25 -1 11 -14z m-17 -53 c0 -5 -5 -10 -11 -10 -5 0 -7 5 -4 10 3 6 8
10 11 10 2 0 4 -4 4 -10z m210 -70 c0 -5 -4 -10 -10 -10 -5 0 -10 5 -10 10 0
6 5 10 10 10 6 0 10 -4 10 -10z m101 -83 c-8 -8 -11 -7 -11 4 0 20 13 34 18
19 3 -7 -1 -17 -7 -23z m-61 -13 c0 -8 -5 -12 -10 -9 -6 4 -8 11 -5 16 9 14
15 11 15 -7z"/>
<path d="M13125 28556 c-25 -20 -29 -30 -27 -58 2 -18 9 -39 15 -47 18 -21 18
-20 37 -282 6 -83 16 -148 25 -165 8 -16 15 -49 15 -73 0 -45 27 -121 43 -121
4 0 5 -5 2 -10 -6 -9 25 -119 46 -165 21 -45 67 -110 77 -108 5 1 13 -9 16
-23 9 -36 51 -75 72 -67 13 5 15 2 9 -16 -8 -26 31 -95 51 -87 8 3 15 -5 19
-22 3 -15 25 -49 49 -77 25 -27 43 -52 41 -56 -3 -3 16 -27 41 -52 25 -26 43
-51 39 -56 -6 -11 55 -61 73 -61 7 0 12 -6 12 -14 0 -8 10 -18 23 -21 12 -4
32 -16 44 -28 20 -18 23 -18 29 -4 3 9 10 15 15 12 4 -3 5 -13 2 -22 -4 -11
-3 -14 6 -9 7 5 20 -1 31 -14 10 -12 23 -19 29 -16 5 4 15 -3 21 -14 6 -11 20
-20 31 -20 11 0 22 -7 25 -15 4 -8 16 -15 29 -15 13 0 25 -7 29 -15 3 -8 11
-15 19 -15 7 0 24 -11 37 -25 13 -14 28 -25 32 -25 5 0 25 -12 44 -26 19 -15
37 -24 41 -20 3 3 14 -1 24 -10 11 -10 27 -14 39 -11 16 4 23 -1 30 -19 6 -14
18 -24 30 -24 11 0 20 -4 20 -9 0 -5 15 -14 34 -21 19 -6 46 -22 61 -35 16
-13 40 -29 54 -36 14 -8 49 -31 77 -51 28 -21 54 -38 57 -38 4 0 15 -8 25 -17
35 -34 57 -49 89 -62 17 -7 39 -21 49 -32 9 -10 22 -19 29 -19 7 0 20 -9 30
-20 10 -11 22 -17 27 -14 5 4 18 -3 29 -15 11 -11 32 -27 47 -35 15 -8 39 -28
55 -45 15 -17 31 -31 36 -31 5 0 25 -16 46 -35 21 -19 53 -41 72 -50 19 -9 37
-23 40 -31 3 -8 12 -14 20 -14 8 0 24 -11 35 -25 11 -14 26 -25 35 -25 8 0 24
-11 35 -25 11 -14 25 -25 32 -25 7 0 34 -16 59 -35 25 -19 51 -35 58 -35 7 0
9 -3 6 -7 -11 -10 33 -52 49 -46 8 3 17 -5 23 -19 5 -14 20 -32 34 -41 13 -8
48 -39 76 -66 29 -28 57 -49 62 -46 5 4 9 0 9 -6 0 -12 176 -189 188 -189 12
0 202 -202 197 -209 -6 -12 22 -34 33 -27 5 3 10 -4 10 -17 1 -12 3 -31 6 -42
2 -11 5 -23 5 -27 1 -5 8 -8 16 -8 8 0 15 -7 15 -16 0 -9 21 -39 46 -67 25
-28 48 -63 51 -79 3 -16 14 -34 24 -41 11 -8 20 -32 25 -65 4 -29 11 -55 15
-58 5 -3 9 -14 9 -24 0 -10 6 -25 13 -32 16 -16 42 -122 33 -136 -3 -6 -2 -13
3 -16 4 -3 16 -45 26 -93 10 -49 22 -92 26 -98 4 -5 10 -28 14 -50 4 -22 13
-51 20 -65 16 -32 45 -164 45 -203 0 -17 4 -44 9 -61 16 -52 31 -139 33 -186
1 -25 6 -48 11 -51 5 -4 11 -36 14 -73 3 -36 9 -66 13 -66 15 0 18 -154 4
-195 -8 -22 -14 -50 -14 -63 0 -13 -5 -33 -12 -45 -11 -22 -20 -52 -42 -147
-7 -30 -18 -64 -24 -75 -14 -26 -27 -93 -24 -126 2 -15 -6 -53 -16 -85 -11
-33 -23 -74 -27 -91 -4 -18 -11 -33 -16 -33 -5 0 -9 -15 -9 -34 0 -19 -4 -37
-9 -40 -4 -3 -6 -17 -4 -30 3 -14 -2 -35 -11 -48 -9 -12 -16 -30 -16 -39 0 -9
-7 -22 -15 -29 -8 -7 -15 -21 -15 -30 0 -10 -4 -20 -9 -22 -4 -1 -20 -41 -35
-88 -15 -47 -38 -96 -50 -110 -13 -14 -35 -50 -50 -80 -15 -30 -35 -68 -43
-85 -8 -16 -20 -41 -27 -55 -54 -110 -90 -167 -145 -228 -31 -36 -103 -130
-117 -153 -6 -10 -41 -47 -77 -81 -37 -35 -67 -67 -67 -71 0 -8 -75 -87 -83
-87 -10 0 -67 -55 -67 -65 0 -10 -162 -175 -173 -175 -6 0 -77 -61 -117 -100
-14 -14 -43 -38 -65 -54 -22 -17 -44 -36 -48 -43 -4 -7 -26 -16 -48 -19 -23
-4 -53 -17 -69 -30 -15 -13 -32 -24 -37 -24 -5 0 -20 -12 -34 -26 -24 -26
-100 -86 -172 -135 -21 -14 -52 -46 -70 -70 -18 -25 -42 -56 -54 -69 -27 -28
-32 -90 -8 -90 8 0 15 -4 15 -10 0 -5 7 -10 15 -10 8 0 15 -6 15 -14 0 -8 14
-17 31 -21 17 -4 33 -14 35 -23 3 -10 10 -24 15 -32 5 -8 12 -22 15 -31 7 -19
65 -42 87 -33 8 3 18 1 22 -5 4 -7 13 -6 28 3 40 25 126 28 187 5 30 -11 71
-24 90 -30 19 -5 44 -14 55 -19 11 -5 31 -12 45 -15 28 -8 67 -24 157 -67 34
-16 72 -30 85 -31 13 -1 29 -7 36 -14 7 -7 27 -13 43 -13 16 0 29 -4 29 -10 0
-5 7 -10 16 -10 8 0 23 -7 31 -16 9 -8 24 -13 34 -11 11 3 19 1 19 -3 0 -5 17
-17 38 -26 20 -9 74 -34 120 -55 45 -22 86 -37 91 -35 5 3 14 -1 21 -8 6 -8
24 -18 40 -21 16 -3 34 -13 41 -21 6 -8 19 -14 29 -14 10 0 21 -7 24 -16 4
-10 13 -13 26 -9 12 4 31 -2 50 -17 18 -13 42 -22 56 -20 17 2 24 -1 24 -13 0
-8 11 -20 24 -25 13 -5 27 -13 30 -18 3 -5 22 -13 41 -16 19 -4 35 -10 35 -14
0 -4 31 -22 69 -40 38 -18 77 -42 87 -53 9 -10 23 -19 30 -19 7 0 17 -6 21
-13 9 -15 123 -87 138 -87 6 0 15 -8 22 -19 6 -10 32 -27 57 -37 25 -11 46
-24 46 -29 0 -6 9 -17 21 -25 26 -19 53 -42 101 -86 20 -19 42 -34 48 -34 6 0
38 -29 72 -65 34 -36 67 -65 73 -65 5 0 23 -13 38 -30 16 -16 34 -30 41 -30 7
0 32 -20 57 -45 24 -24 52 -45 62 -45 10 0 20 -7 23 -15 3 -8 14 -17 24 -20
11 -3 29 -22 40 -41 12 -18 27 -34 34 -34 6 0 31 -20 54 -45 23 -25 51 -45 62
-45 12 0 20 -7 20 -16 0 -16 118 -136 231 -234 80 -69 129 -119 129 -130 0 -5
16 -17 35 -26 19 -9 35 -21 35 -27 0 -12 60 -67 73 -67 4 0 7 -6 7 -13 0 -8
24 -37 53 -65 121 -118 217 -222 217 -235 0 -7 18 -30 40 -51 22 -20 40 -42
40 -47 0 -6 43 -54 95 -107 52 -53 95 -99 95 -104 0 -4 5 -8 10 -8 6 0 10 -6
10 -12 0 -7 12 -27 28 -43 15 -17 36 -46 46 -65 27 -49 80 -119 121 -161 19
-20 47 -60 62 -90 16 -30 40 -70 56 -90 15 -20 27 -40 27 -46 0 -5 17 -26 38
-47 20 -20 45 -44 54 -54 9 -9 37 -35 62 -57 25 -21 46 -45 46 -52 0 -7 12
-20 28 -30 32 -21 43 -31 62 -59 8 -12 34 -43 57 -70 23 -27 52 -62 65 -77 13
-16 29 -34 36 -40 8 -7 28 -26 45 -43 37 -35 64 -47 72 -34 4 6 16 10 28 10
27 1 57 22 57 42 0 8 5 19 11 25 16 16 3 79 -20 102 -10 10 -23 31 -28 47 -6
20 -19 32 -41 39 -21 6 -32 16 -32 27 0 10 -4 18 -9 18 -5 0 -12 9 -16 19 -3
10 -21 29 -39 42 -18 12 -44 38 -57 58 -13 19 -40 51 -60 71 -55 55 -169 188
-169 198 0 5 -7 15 -15 22 -8 7 -12 16 -9 21 3 5 -2 12 -10 15 -9 3 -16 11
-16 16 0 6 -13 24 -30 40 -16 15 -30 33 -30 38 0 6 -7 10 -15 10 -8 0 -15 8
-15 18 0 9 -9 23 -20 30 -11 7 -20 20 -20 30 0 10 -12 29 -26 43 -34 31 -104
125 -104 139 0 5 -4 10 -9 10 -5 0 -13 9 -16 20 -4 11 -20 27 -36 35 -16 9
-29 21 -29 29 0 7 -9 23 -20 36 -11 13 -20 26 -20 29 0 3 -26 34 -58 69 -31
34 -68 78 -82 98 -14 20 -49 60 -77 89 -29 30 -53 57 -53 62 0 10 -63 73 -134
135 -87 75 -186 175 -186 187 0 6 -6 11 -14 11 -19 0 -177 170 -169 183 3 5 1
12 -5 16 -18 11 -113 93 -147 126 -16 16 -38 34 -47 40 -46 27 -170 130 -222
183 -32 33 -83 77 -113 98 -30 22 -87 71 -128 109 -84 81 -146 135 -154 135
-3 0 -31 25 -61 55 -29 30 -58 55 -63 55 -4 0 -25 16 -45 35 -20 19 -42 35
-48 35 -6 0 -18 7 -25 17 -8 9 -33 25 -56 35 -23 10 -45 23 -48 28 -3 6 -13
10 -21 10 -8 0 -25 9 -37 20 -48 43 -113 86 -125 82 -8 -2 -23 5 -35 16 -12
11 -47 32 -77 48 -30 15 -64 35 -75 44 -20 17 -56 38 -105 61 -14 6 -32 15
-40 20 -8 5 -23 12 -32 15 -10 4 -18 10 -18 15 0 5 -7 9 -16 9 -10 0 -41 16
-70 35 -29 19 -58 35 -64 35 -7 0 -33 10 -59 23 -41 21 -87 37 -116 42 -28 4
-145 56 -185 82 -19 13 -41 23 -50 23 -8 0 -28 7 -45 16 -16 8 -49 16 -72 16
-26 0 -43 4 -43 11 0 29 -86 53 -118 33 -14 -9 -32 1 -32 17 -1 7 -24 23 -53
35 -29 13 -62 28 -74 34 -12 6 -28 8 -37 5 -8 -3 -34 4 -58 15 -24 12 -51 25
-61 30 -10 5 -23 6 -29 2 -5 -4 -13 -1 -17 5 -8 13 -55 21 -146 26 -33 2 -66
3 -72 4 -15 1 -18 31 -3 31 5 0 35 27 67 60 31 33 60 60 65 60 4 0 33 17 64
38 30 20 70 45 87 54 18 10 37 24 42 30 6 7 45 40 88 73 43 32 84 67 91 76 7
10 37 34 67 55 29 20 67 50 83 65 15 16 32 29 37 29 5 0 26 17 47 38 22 20 48
44 58 53 10 9 30 32 44 50 27 37 65 75 151 154 57 52 109 110 109 121 0 4 17
27 38 52 20 25 44 56 52 68 8 12 37 50 63 84 27 34 55 78 64 98 8 21 19 44 24
52 4 8 32 62 61 120 29 58 56 107 61 108 4 2 7 9 7 15 0 14 79 176 95 197 7 8
15 34 19 57 3 24 14 57 24 75 10 18 26 69 36 113 10 44 22 88 27 97 5 10 9 26
9 35 0 10 9 42 20 71 11 29 20 66 20 83 0 18 4 48 9 68 5 20 15 63 21 96 7 33
18 76 25 95 8 19 17 51 21 70 3 19 12 42 19 50 19 23 29 68 32 145 1 39 3 79
3 90 2 28 -9 183 -15 225 -3 19 -12 49 -20 65 -7 17 -18 71 -25 120 -21 166
-27 200 -54 280 -14 44 -26 91 -26 105 0 14 -9 43 -19 64 -11 21 -17 44 -14
52 3 8 -2 25 -11 39 -9 13 -16 37 -16 52 0 15 -7 41 -15 57 -8 15 -15 40 -15
55 0 14 -14 67 -30 116 -17 50 -41 119 -52 155 -12 36 -27 72 -34 80 -6 8 -15
29 -18 47 -4 17 -14 34 -22 37 -8 3 -14 12 -14 21 0 8 -4 15 -9 15 -5 0 -20
21 -33 47 -13 26 -35 60 -50 77 -16 17 -28 38 -28 46 0 9 -9 26 -20 38 -11 12
-20 25 -20 29 0 7 -21 29 -87 93 -20 19 -53 51 -73 70 -57 54 -140 123 -164
135 -11 6 -21 16 -21 22 0 16 -141 153 -149 146 -10 -10 -56 39 -56 59 0 10
-11 23 -24 28 -13 5 -25 12 -27 17 -7 15 -148 123 -174 133 -14 5 -25 14 -25
20 0 5 -6 10 -13 10 -7 0 -18 9 -25 20 -7 11 -18 20 -25 20 -6 0 -32 19 -57
42 -25 23 -63 52 -85 64 -36 19 -67 44 -140 110 -13 12 -26 20 -28 17 -3 -2
-19 9 -37 25 -17 16 -44 36 -58 43 -15 7 -43 26 -63 41 -20 15 -41 28 -47 28
-5 0 -17 11 -26 25 -9 14 -25 25 -35 25 -10 0 -29 6 -42 13 -30 15 -122 78
-129 88 -10 13 -102 80 -126 91 -13 6 -24 15 -24 20 0 4 -11 8 -25 8 -14 0
-25 5 -25 10 0 6 -12 16 -27 22 -16 7 -35 17 -43 24 -8 6 -32 17 -52 24 -21 6
-38 16 -38 21 0 5 -16 9 -35 9 -21 0 -37 6 -43 17 -5 9 -19 17 -31 18 -11 1
-31 10 -43 21 -13 11 -41 29 -63 40 -45 21 -120 73 -150 104 -12 11 -24 20
-28 20 -7 0 -64 37 -77 50 -3 3 -17 11 -32 19 -16 8 -28 19 -28 25 0 7 -9 18
-20 26 -11 8 -20 20 -20 26 0 7 -19 32 -42 57 -84 89 -108 119 -127 160 -10
23 -42 69 -70 102 -28 32 -51 64 -51 71 0 6 -10 22 -22 36 -42 47 -49 65 -36
94 11 23 10 28 -12 46 -13 10 -30 31 -38 46 -21 39 -51 133 -52 159 0 12 -4
23 -9 25 -15 5 -27 282 -17 376 7 69 6 90 -7 116 -14 30 -20 34 -68 38 -31 3
-61 1 -71 -6 -14 -8 -20 -8 -26 1 -6 9 -16 6 -37 -11z m110 -536 c3 -5 1 -10
-4 -10 -6 0 -11 5 -11 10 0 6 2 10 4 10 3 0 8 -4 11 -10z m15 -30 c0 -5 -4
-10 -10 -10 -5 0 -10 5 -10 10 0 6 5 10 10 10 6 0 10 -4 10 -10z m777 -1102
c-3 -8 -6 -5 -6 6 -1 11 2 17 5 13 3 -3 4 -12 1 -19z m1718 -1018 c-3 -5 -10
-10 -16 -10 -5 0 -9 5 -9 10 0 6 7 10 16 10 8 0 12 -4 9 -10z m525 -540 c0 -5
-4 -10 -10 -10 -5 0 -10 5 -10 10 0 6 5 10 10 10 6 0 10 -4 10 -10z"/>
<path d="M9898 27675 c-2 -3 -49 -7 -104 -10 -119 -6 -151 -12 -184 -35 -35
-24 -59 -31 -109 -36 -25 -2 -47 -7 -50 -12 -3 -5 -24 -9 -46 -9 -22 -1 -41
-6 -43 -12 -2 -6 -16 -11 -32 -11 -16 0 -41 -11 -57 -24 -15 -12 -46 -31 -68
-41 -22 -10 -47 -26 -56 -34 -43 -43 -89 -81 -98 -81 -4 0 -14 -7 -21 -15 -14
-17 -67 -45 -86 -45 -7 0 -14 -4 -16 -8 -3 -9 -93 -72 -102 -72 -3 0 -26 -16
-52 -35 -25 -19 -50 -33 -54 -30 -5 3 -13 -3 -19 -13 -11 -21 -192 -162 -208
-162 -6 0 -13 -9 -16 -20 -3 -11 -12 -20 -21 -20 -8 0 -26 -10 -39 -22 -29
-28 -105 -90 -123 -101 -31 -18 -179 -175 -228 -242 -16 -22 -42 -53 -58 -68
-30 -29 -78 -101 -99 -147 -6 -14 -15 -32 -20 -40 -5 -8 -13 -25 -19 -37 -5
-13 -13 -23 -17 -23 -5 0 -17 -19 -28 -43 -11 -23 -37 -64 -57 -90 -27 -34
-38 -59 -38 -82 0 -26 -5 -34 -22 -39 -27 -7 -78 -76 -78 -105 0 -11 -9 -25
-20 -31 -11 -6 -23 -23 -26 -38 -8 -33 -27 -71 -79 -161 -14 -24 -25 -50 -25
-57 0 -8 -4 -14 -10 -14 -5 0 -10 -9 -10 -20 0 -12 -9 -33 -20 -48 -11 -15
-29 -54 -40 -87 -11 -32 -25 -62 -31 -66 -9 -5 -24 -50 -34 -104 -2 -11 -13
-38 -24 -60 -12 -21 -21 -46 -21 -55 0 -9 -5 -21 -12 -28 -16 -16 -37 -90 -67
-234 -26 -128 -53 -245 -60 -263 -24 -58 -32 -101 -32 -172 0 -43 -5 -80 -10
-84 -5 -3 -12 -30 -16 -60 -3 -30 -10 -59 -15 -66 -13 -16 -12 -176 1 -298 6
-55 11 -118 10 -140 -1 -22 3 -59 9 -82 5 -23 7 -44 4 -47 -12 -13 -12 -113 2
-208 8 -57 14 -110 14 -118 0 -8 1 -19 2 -25 2 -5 0 -27 -4 -47 -6 -28 -2 -57
18 -120 15 -46 31 -92 36 -103 5 -11 12 -49 15 -85 8 -98 25 -172 46 -202 11
-14 19 -34 19 -45 0 -10 18 -45 40 -78 22 -33 42 -75 46 -93 4 -19 22 -49 41
-68 19 -20 33 -41 30 -48 -4 -10 14 -71 46 -156 3 -8 8 -28 12 -44 9 -41 42
-110 66 -135 11 -11 17 -21 13 -21 -3 0 -1 -7 6 -15 7 -8 10 -21 7 -29 -3 -8
2 -16 14 -19 10 -3 22 -13 26 -23 4 -10 14 -27 22 -37 9 -10 26 -31 38 -45 13
-15 23 -30 23 -34 0 -5 6 -8 13 -8 8 0 24 -11 37 -25 13 -14 28 -25 33 -25 6
0 19 -9 31 -20 69 -66 157 -140 165 -140 6 0 17 -13 26 -30 9 -16 23 -30 32
-30 9 0 13 -3 10 -7 -4 -3 1 -16 11 -27 11 -12 27 -42 38 -67 10 -25 27 -50
38 -55 12 -5 30 -27 40 -50 11 -22 31 -49 46 -59 14 -10 32 -31 40 -48 7 -16
21 -32 31 -34 11 -3 19 -11 19 -17 0 -6 13 -27 30 -46 16 -19 29 -42 30 -50 0
-8 20 -34 44 -56 61 -59 86 -93 86 -118 -1 -24 -69 -76 -100 -76 -10 0 -27 -8
-37 -18 -10 -10 -31 -24 -48 -32 -16 -8 -41 -22 -54 -32 -13 -10 -34 -18 -46
-18 -12 0 -28 -7 -36 -16 -7 -8 -33 -27 -58 -40 -25 -14 -66 -38 -91 -54 -25
-16 -56 -35 -70 -42 -14 -7 -41 -25 -61 -40 -20 -15 -41 -28 -46 -28 -5 0 -20
-12 -34 -26 -13 -14 -39 -32 -56 -39 -18 -8 -33 -19 -33 -26 0 -6 -6 -9 -14
-6 -8 3 -20 -1 -26 -8 -7 -8 -16 -12 -21 -10 -4 3 -26 -10 -47 -30 -22 -19
-44 -35 -49 -35 -5 0 -26 -18 -47 -40 -21 -22 -42 -40 -47 -40 -10 0 -107 -77
-153 -122 -17 -15 -37 -28 -45 -28 -9 0 -37 -19 -62 -43 -78 -72 -114 -101
-144 -117 -15 -8 -42 -28 -59 -44 -17 -16 -45 -38 -63 -50 -17 -12 -53 -47
-78 -79 -26 -31 -51 -57 -55 -57 -4 0 -55 -47 -114 -105 -59 -58 -111 -105
-114 -105 -9 0 -125 -110 -143 -135 -8 -12 -57 -57 -109 -102 -52 -45 -113
-103 -134 -128 -22 -25 -44 -45 -49 -45 -5 0 -28 -19 -51 -42 -23 -24 -69 -69
-101 -100 -33 -31 -65 -62 -72 -70 -26 -30 -102 -98 -109 -98 -4 0 -27 -16
-51 -36 -41 -34 -75 -76 -113 -142 -17 -29 -22 -37 -63 -84 -15 -18 -46 -61
-68 -95 -22 -34 -82 -105 -134 -159 -52 -53 -95 -101 -95 -106 0 -5 -26 -36
-57 -68 -32 -31 -69 -72 -83 -91 -14 -18 -39 -47 -56 -64 -17 -16 -41 -47 -53
-67 -13 -21 -26 -38 -31 -38 -5 0 -11 -9 -15 -20 -3 -11 -23 -37 -43 -59 -20
-22 -48 -54 -62 -72 -14 -19 -39 -49 -56 -69 -17 -19 -42 -57 -54 -84 -12 -28
-35 -63 -51 -79 -16 -16 -29 -33 -29 -38 0 -15 -95 -151 -124 -178 -14 -13
-28 -37 -31 -53 -4 -16 -18 -36 -31 -44 -13 -9 -24 -26 -24 -38 0 -13 -11 -33
-25 -46 -14 -13 -25 -31 -25 -40 0 -8 -8 -23 -17 -31 -38 -34 -93 -101 -93
-115 0 -7 -9 -19 -20 -26 -11 -7 -20 -18 -20 -24 0 -5 -8 -19 -18 -30 -10 -10
-29 -38 -41 -61 -15 -26 -33 -44 -49 -48 -36 -9 -51 -33 -52 -82 0 -23 -4 -45
-10 -48 -16 -10 -12 -45 9 -71 11 -14 17 -33 14 -44 -4 -13 0 -20 10 -20 8 0
17 -6 20 -14 6 -15 57 -28 57 -15 0 5 6 9 13 9 19 0 47 33 47 53 0 9 8 25 18
35 23 25 42 59 42 75 0 8 27 43 60 78 33 35 60 68 60 73 0 13 84 139 104 155
9 7 16 21 16 31 0 10 26 44 58 77 31 32 64 72 72 88 16 31 29 49 69 92 13 15
31 45 41 68 10 23 24 48 33 56 8 9 24 33 35 55 11 21 29 48 41 58 22 20 51 71
51 90 0 6 9 17 20 24 11 7 20 18 20 25 0 13 68 105 117 158 93 100 163 186
163 201 0 9 3 18 8 20 4 2 26 28 49 59 23 31 55 62 72 69 17 7 31 16 31 20 0
14 62 85 80 92 22 8 70 78 111 161 41 85 68 120 111 147 21 13 44 38 52 55 9
17 55 70 104 117 49 47 92 93 95 102 4 9 13 16 22 16 8 0 27 19 42 43 31 49
83 107 96 107 13 0 107 84 107 96 0 6 18 19 40 30 22 10 40 24 40 29 1 15 87
105 100 105 7 0 22 10 34 23 12 12 48 44 79 71 31 27 54 53 51 58 -3 4 0 8 5
8 6 0 20 8 30 18 11 9 26 22 33 28 7 7 28 28 46 48 19 20 42 36 52 36 10 0 33
19 51 43 41 54 170 177 187 177 6 0 12 4 12 8 0 14 69 82 84 82 7 0 46 32 85
70 40 38 81 70 91 70 17 0 70 46 70 61 0 3 20 15 44 27 24 12 63 44 87 70 24
26 47 46 52 44 4 -1 7 2 7 8 0 5 9 10 19 10 10 0 21 7 25 15 3 8 16 20 28 25
28 12 57 31 76 48 7 6 22 12 33 12 10 0 19 4 19 9 0 5 13 12 29 16 16 3 32 13
35 21 3 8 14 14 25 14 11 0 23 5 26 10 3 6 15 10 26 10 10 0 19 5 19 10 0 6 5
10 11 10 6 0 36 23 68 50 32 28 62 50 67 50 5 0 22 14 37 30 16 17 33 30 39
30 6 0 16 8 23 17 7 9 18 17 26 19 34 5 70 25 101 57 27 27 41 33 64 30 22 -3
40 4 73 29 24 18 50 36 57 41 8 4 22 12 32 17 9 6 42 21 72 35 52 25 56 25 95
10 57 -21 80 -19 99 10 10 14 22 23 28 19 8 -5 9 3 5 27 -9 42 -35 94 -64 127
-13 14 -23 29 -23 33 0 13 -64 69 -78 69 -7 0 -12 8 -10 18 2 11 -3 16 -14 14
-10 -2 -18 1 -18 6 0 5 -20 30 -45 54 -25 25 -45 50 -45 55 0 5 -11 15 -25 21
-14 6 -25 20 -25 30 0 10 -19 37 -42 60 -22 23 -46 50 -52 61 -6 10 -32 47
-58 82 -27 34 -48 69 -48 77 0 7 -14 27 -30 44 -17 16 -33 40 -36 54 -3 13 -9
24 -13 24 -4 0 -27 27 -51 61 -25 33 -59 67 -77 76 -18 8 -33 21 -33 27 0 7
-16 18 -35 25 -19 7 -40 21 -46 32 -5 11 -34 35 -62 53 -69 45 -100 79 -134
146 -4 8 -18 27 -31 42 -24 26 -43 56 -58 88 -4 8 -16 27 -26 42 -10 14 -18
39 -18 55 0 16 -6 37 -13 48 -8 11 -19 42 -26 69 -7 27 -21 60 -32 74 -10 14
-19 33 -19 43 0 10 -4 20 -9 23 -5 3 -12 22 -15 41 -4 21 -13 35 -21 35 -9 0
-15 10 -15 23 0 12 -9 41 -20 64 -10 24 -24 68 -29 99 -6 31 -15 62 -20 68 -5
6 -11 31 -14 56 -13 98 -24 157 -40 195 -8 22 -21 87 -27 145 -6 58 -18 142
-26 187 -8 46 -17 147 -20 225 -3 79 -10 211 -16 295 -10 134 -9 158 5 207 10
31 24 81 33 110 10 32 14 69 10 88 -3 18 -1 51 5 73 13 49 38 185 46 244 3 25
12 51 19 59 8 8 14 34 14 63 0 27 5 49 10 49 6 0 10 14 10 31 0 40 20 109 32
109 5 0 8 12 7 28 -3 33 8 69 32 104 11 14 19 40 19 57 0 17 5 31 10 31 6 0
10 11 10 24 0 13 7 26 15 30 8 3 15 17 15 31 0 14 16 48 35 75 19 28 32 50 28
50 -4 0 1 6 12 14 14 10 17 21 12 50 -7 45 2 81 13 50 6 -16 10 -14 31 20 12
22 24 48 24 59 1 10 6 22 11 25 17 13 44 61 44 80 0 11 23 49 50 86 28 37 50
71 50 75 0 5 7 14 15 21 8 7 15 20 15 30 0 9 9 29 20 43 11 14 20 31 20 39 0
7 14 26 30 42 16 16 35 45 41 65 7 20 32 60 56 89 23 30 43 57 43 61 0 4 34
43 75 87 41 43 75 87 75 97 0 9 3 16 8 15 11 -4 112 104 112 120 0 8 6 12 14
9 7 -3 28 8 45 24 18 16 34 29 36 29 2 0 15 11 29 24 15 15 20 27 13 29 -7 2
-9 8 -5 12 4 4 14 2 22 -4 12 -10 16 -8 21 8 3 12 15 21 26 21 10 0 19 6 19
13 0 6 14 18 30 25 19 9 30 21 30 34 0 14 5 18 16 14 16 -6 104 49 104 65 0
15 49 61 59 55 5 -3 16 -1 23 6 19 18 77 48 91 48 7 0 18 9 25 20 7 11 20 20
30 20 9 0 34 16 55 35 21 19 44 35 52 35 8 0 20 8 27 18 7 9 26 24 41 32 16 8
36 27 45 42 9 16 22 26 28 24 7 -3 14 4 17 15 3 12 11 17 20 13 8 -3 21 2 30
10 9 9 23 16 31 16 9 0 25 9 35 19 13 13 27 17 41 14 13 -4 32 2 51 16 16 12
41 20 56 19 16 -1 45 6 65 16 20 10 42 15 47 11 6 -3 11 -2 11 2 0 9 113 33
156 33 15 0 36 7 46 17 17 15 18 15 18 -5 0 -19 4 -20 63 -15 34 3 70 10 81
15 12 7 21 7 25 0 9 -14 97 -26 105 -14 3 5 8 40 10 78 4 63 3 69 -22 88 -14
11 -33 22 -41 24 -27 6 -188 12 -193 7z m2 -129 c0 -3 -4 -8 -10 -11 -5 -3
-10 -1 -10 4 0 6 5 11 10 11 6 0 10 -2 10 -4z m-2638 -2911 c0 -5 -5 -11 -11
-13 -6 -2 -11 4 -11 13 0 9 5 15 11 13 6 -2 11 -8 11 -13z m-72 -851 c0 -8 -5
-12 -10 -9 -6 4 -8 11 -5 16 9 14 15 11 15 -7z m-10 -64 c0 -5 -4 -10 -10 -10
-5 0 -10 5 -10 10 0 6 5 10 10 10 6 0 10 -4 10 -10z"/>
<path d="M9313 25519 c-13 -4 -23 -13 -23 -18 0 -5 -18 -16 -41 -25 -23 -9
-48 -23 -56 -31 -8 -8 -23 -15 -34 -15 -10 0 -19 -6 -19 -14 0 -13 -34 -30
-54 -27 -17 3 -36 -22 -31 -40 4 -11 -2 -25 -14 -36 -12 -10 -21 -21 -21 -26
0 -4 -14 -26 -31 -47 -39 -48 -49 -112 -25 -158 18 -36 75 -82 100 -82 9 0 26
-9 38 -20 23 -21 38 -18 38 8 1 9 7 2 15 -15 8 -18 19 -33 26 -33 6 0 20 -10
31 -22 16 -19 22 -20 40 -9 11 7 17 8 14 3 -3 -6 8 -14 26 -17 18 -4 38 -11
43 -15 6 -4 32 -4 59 0 59 9 92 41 101 98 12 72 15 81 46 112 38 38 49 82 33
135 -6 22 -15 65 -19 95 -7 58 -33 130 -47 130 -4 0 -8 5 -8 10 0 6 -10 22
-23 35 -18 20 -35 26 -82 29 -33 2 -70 0 -82 -5z m-173 -369 c0 -5 -4 -10 -9
-10 -6 0 -13 5 -16 10 -3 6 1 10 9 10 9 0 16 -4 16 -10z"/>
<path d="M13350 25059 c-25 -12 -57 -27 -72 -35 -14 -8 -32 -14 -40 -14 -7 0
-29 -22 -48 -47 -19 -26 -43 -55 -52 -65 -10 -10 -18 -24 -18 -32 0 -7 -6 -19
-14 -25 -21 -18 -29 -95 -15 -159 11 -56 68 -144 97 -149 6 -2 21 -12 33 -24
15 -15 24 -18 33 -10 10 8 20 6 37 -8 36 -27 84 -34 228 -28 8 0 50 36 94 80
l79 79 -4 102 c-3 78 -9 110 -26 141 -11 22 -31 60 -43 85 -13 25 -27 47 -31
48 -4 2 -8 9 -8 15 0 7 -23 24 -50 40 -60 33 -116 35 -180 6z"/>
<path d="M11097 24684 c-4 -4 -19 -8 -34 -10 -43 -4 -117 -26 -124 -37 -4 -5
-19 -7 -33 -3 -15 4 -40 0 -59 -8 -19 -7 -58 -17 -88 -21 -30 -4 -58 -11 -64
-15 -5 -4 -32 -10 -60 -13 -69 -7 -186 -36 -202 -49 -8 -6 -16 -9 -19 -6 -2 3
-30 -1 -62 -10 -31 -8 -78 -17 -104 -19 -27 -3 -48 -9 -48 -15 0 -6 -11 -7
-26 -4 -14 4 -32 2 -40 -4 -7 -7 -39 -13 -71 -13 -42 -2 -62 -7 -71 -19 -7
-10 -22 -18 -32 -18 -10 0 -40 -11 -66 -25 -26 -14 -57 -25 -69 -25 -13 0 -25
-6 -28 -14 -5 -12 -40 -21 -107 -27 -8 -1 -25 -10 -37 -21 -17 -16 -25 -18
-42 -9 -16 9 -24 8 -38 -6 -12 -12 -36 -19 -72 -20 -30 -1 -59 -7 -64 -12 -6
-6 -26 -11 -45 -11 -19 0 -31 -4 -27 -10 3 -5 -4 -10 -15 -10 -12 0 -36 -6
-53 -14 -65 -28 -280 -58 -479 -67 -9 0 -22 -7 -28 -14 -6 -8 -18 -11 -27 -8
-8 3 -19 0 -23 -7 -8 -14 -43 -22 -104 -24 -22 0 -41 -7 -43 -13 -3 -7 -19
-13 -37 -13 -18 0 -57 -7 -87 -17 -30 -9 -64 -15 -76 -15 -12 1 -25 -3 -28 -8
-3 -6 -17 -10 -30 -10 -29 0 -112 -22 -181 -48 -28 -11 -82 -25 -120 -31 -38
-7 -88 -21 -111 -32 -24 -10 -52 -19 -63 -19 -11 0 -20 -4 -20 -10 0 -5 -9
-10 -20 -10 -11 0 -20 -4 -20 -9 0 -13 -39 -25 -73 -23 -19 2 -36 -6 -52 -24
-21 -23 -24 -34 -19 -63 4 -20 10 -40 15 -45 5 -6 9 -25 9 -43 0 -28 4 -33 36
-42 19 -5 42 -7 49 -5 8 4 23 -9 37 -30 13 -20 29 -36 36 -36 6 0 12 -3 12 -8
0 -4 14 -13 30 -21 17 -7 54 -32 83 -55 28 -24 68 -48 88 -55 20 -6 45 -21 54
-31 10 -11 23 -20 30 -20 6 0 24 -13 40 -30 15 -16 40 -32 55 -35 16 -3 36
-15 46 -26 9 -10 25 -19 35 -19 10 0 31 -11 47 -25 17 -14 33 -25 36 -25 3 0
29 -18 58 -40 29 -22 61 -40 71 -40 9 0 17 -4 17 -10 0 -5 9 -10 19 -10 10 0
39 -11 62 -25 24 -14 52 -25 62 -25 11 0 31 -12 46 -27 27 -29 91 -69 91 -58
0 4 20 -10 44 -29 23 -20 48 -36 53 -36 6 0 26 -13 44 -30 19 -16 40 -28 47
-25 7 3 15 -2 19 -11 3 -9 15 -20 27 -25 25 -11 59 -32 66 -40 7 -9 90 -46
192 -86 27 -10 48 -21 48 -25 0 -5 8 -8 19 -8 10 0 24 -7 31 -15 7 -8 19 -15
27 -15 9 0 33 -18 55 -40 31 -31 48 -40 74 -40 18 0 36 -5 39 -10 4 -6 11 -8
16 -4 6 3 18 -1 27 -9 9 -8 42 -22 72 -32 30 -10 67 -24 82 -31 14 -8 33 -14
41 -14 8 0 20 -7 27 -15 7 -8 25 -15 40 -15 16 0 30 -7 34 -15 3 -8 15 -15 26
-15 11 0 20 -7 20 -15 0 -17 29 -34 47 -28 16 6 73 -34 73 -51 0 -7 11 -19 25
-26 14 -7 25 -17 25 -22 0 -4 11 -8 24 -8 13 0 35 -11 48 -25 16 -16 32 -23
42 -19 9 3 16 1 16 -5 0 -6 8 -11 18 -11 10 0 22 -4 27 -9 11 -10 84 -36 103
-36 7 0 22 -13 35 -28 14 -18 40 -32 74 -41 58 -15 54 -17 85 44 29 55 8 150
-32 150 -6 0 -21 11 -34 25 -13 14 -30 25 -39 25 -9 0 -18 4 -21 9 -3 4 -26
14 -51 21 -25 7 -48 17 -51 21 -3 5 -16 9 -29 9 -14 0 -29 9 -35 21 -7 11 -18
18 -25 15 -7 -2 -21 4 -31 15 -9 10 -22 19 -27 19 -6 0 -25 11 -44 26 -49 37
-90 49 -110 33 -14 -12 -18 -11 -27 5 -26 44 -58 74 -106 99 -29 15 -58 27
-65 27 -7 0 -15 3 -17 8 -5 10 -67 42 -84 42 -8 0 -22 4 -32 9 -9 4 -47 22
-85 40 -37 17 -75 40 -84 51 -10 11 -25 20 -34 20 -9 0 -27 8 -40 19 -13 10
-42 24 -64 32 -22 7 -55 22 -73 31 -18 10 -44 18 -58 18 -13 0 -27 7 -30 15
-4 8 -9 13 -13 10 -4 -2 -31 11 -60 30 -29 19 -59 35 -66 35 -7 0 -20 11 -28
24 -9 12 -30 31 -49 41 -62 32 -93 50 -118 68 -13 9 -32 17 -42 17 -10 0 -18
5 -18 11 0 6 -6 9 -14 6 -8 -3 -16 2 -19 14 -3 11 -15 23 -26 26 -12 3 -21 9
-21 14 0 5 -9 9 -19 9 -11 0 -21 3 -23 8 -4 10 -83 52 -97 52 -6 0 -34 16 -63
35 -28 19 -61 38 -74 41 -13 3 -24 9 -24 13 0 3 -15 12 -32 20 -18 8 -47 24
-65 37 -17 13 -36 24 -41 24 -5 0 -12 9 -15 20 -3 12 -14 20 -26 20 -35 0 -91
28 -113 56 -15 18 -28 24 -44 21 -19 -3 -36 9 -83 61 -41 43 -65 62 -76 59 -9
-4 -15 -1 -15 7 0 17 24 38 33 29 4 -3 12 -1 19 4 12 9 163 63 233 83 17 4 50
11 75 14 57 8 123 31 128 44 2 7 14 7 32 2 17 -5 32 -5 35 0 3 4 19 10 37 13
18 2 58 14 88 25 45 17 56 25 58 46 2 14 8 26 13 26 6 0 7 -9 4 -20 -5 -17 -2
-20 24 -20 17 0 31 4 31 10 0 5 10 10 23 10 47 0 63 3 80 18 16 14 19 14 27 2
7 -11 28 -15 75 -15 36 0 65 -3 65 -7 0 -13 49 -9 57 5 4 7 33 19 63 26 30 8
60 17 65 20 6 4 37 15 70 26 33 10 67 25 76 32 9 7 18 11 21 8 3 -3 25 1 49 9
24 8 82 20 128 25 47 6 89 15 95 21 5 5 22 10 36 10 14 0 35 7 46 15 10 8 31
15 46 15 15 0 42 9 60 20 18 11 42 20 53 20 11 0 29 7 39 15 10 8 23 12 28 9
5 -3 14 -2 21 3 17 13 98 35 104 29 3 -3 15 0 27 6 11 7 29 11 40 9 10 -1 22
3 27 10 5 8 23 12 48 10 22 -1 55 2 73 8 18 5 60 17 93 26 118 32 150 43 147
54 -2 10 20 9 88 -2 3 -1 14 3 25 9 11 6 61 19 110 28 50 9 106 21 125 26 19
5 67 14 105 19 50 7 75 16 87 31 9 11 21 20 26 20 16 0 21 24 14 80 -6 48 -10
54 -35 61 -16 4 -34 15 -41 24 -6 9 -15 13 -19 9z m-537 -234 c0 -5 -4 -10
-10 -10 -5 0 -10 5 -10 10 0 6 5 10 10 10 6 0 10 -4 10 -10z m-260 -124 c0 -3
-4 -8 -10 -11 -5 -3 -10 -1 -10 4 0 6 5 11 10 11 6 0 10 -2 10 -4z m-1922
-484 c2 -7 -3 -12 -12 -12 -9 0 -16 7 -16 16 0 17 22 14 28 -4z"/>
<path d="M21430 17694 c0 -8 -6 -14 -13 -14 -18 0 -43 -29 -52 -60 -11 -40
-58 -144 -71 -157 -6 -6 -17 -26 -24 -45 -8 -18 -16 -35 -19 -38 -3 -3 -17
-25 -30 -50 -13 -25 -33 -51 -43 -58 -10 -7 -18 -23 -18 -36 0 -12 -11 -33
-25 -46 -14 -13 -25 -29 -25 -37 0 -7 -11 -20 -25 -29 -14 -9 -23 -20 -20 -24
3 -4 -6 -19 -20 -31 -13 -13 -25 -29 -25 -36 0 -7 -7 -16 -15 -20 -8 -5 -23
-25 -33 -44 -10 -19 -33 -49 -51 -66 -18 -18 -30 -36 -27 -41 3 -5 -15 -33
-39 -61 -25 -29 -45 -56 -45 -61 0 -4 -16 -27 -36 -51 -19 -24 -46 -63 -59
-88 -12 -25 -32 -54 -44 -65 -11 -10 -18 -23 -15 -27 6 -10 -4 -24 -54 -76
-18 -20 -53 -66 -78 -104 -26 -38 -53 -74 -60 -80 -8 -6 -14 -19 -14 -29 0 -9
-31 -53 -70 -96 -38 -43 -70 -87 -70 -97 0 -9 -14 -32 -31 -50 -17 -17 -38
-45 -46 -62 -9 -16 -21 -37 -28 -45 -7 -8 -15 -27 -18 -41 -6 -22 -94 -165
-122 -195 -5 -7 -19 -25 -30 -40 -11 -16 -29 -38 -40 -49 -11 -12 -28 -37 -39
-56 -10 -20 -34 -53 -52 -73 -19 -21 -34 -48 -34 -60 0 -12 -9 -27 -20 -34
-11 -7 -20 -17 -20 -22 0 -14 -140 -218 -167 -244 -13 -11 -23 -27 -23 -34 0
-7 -7 -15 -15 -18 -8 -4 -15 -15 -15 -26 0 -11 -27 -50 -60 -86 -34 -36 -74
-94 -91 -128 -16 -35 -49 -85 -74 -111 -88 -96 -105 -119 -111 -150 -4 -21
-23 -48 -55 -77 -27 -25 -49 -53 -49 -64 0 -10 -13 -31 -30 -47 -16 -16 -30
-34 -30 -39 0 -6 -9 -17 -20 -24 -11 -7 -20 -18 -20 -26 0 -7 -9 -21 -20 -31
-11 -10 -20 -22 -20 -28 0 -13 -74 -102 -142 -169 -31 -32 -66 -77 -77 -100
-11 -24 -45 -69 -75 -102 -31 -32 -56 -62 -56 -67 0 -4 -8 -15 -17 -25 -16
-16 -43 -75 -45 -99 -1 -5 2 -21 6 -33 7 -20 5 -23 -11 -20 -11 2 -29 27 -46
63 -21 45 -37 65 -59 74 -30 14 -38 19 -92 69 -14 12 -27 22 -30 22 -2 0 -19
14 -38 31 -33 31 -130 119 -165 150 -10 9 -34 34 -53 55 -20 22 -49 48 -65 59
-16 11 -33 26 -39 33 -29 37 -94 93 -122 107 -35 16 -89 74 -106 111 -6 13
-18 24 -26 24 -15 0 -132 117 -132 131 0 4 -13 16 -30 26 -16 9 -30 23 -30 29
0 7 -22 35 -50 63 -27 28 -50 56 -50 61 0 6 -11 15 -24 20 -14 5 -33 22 -43
37 -10 15 -35 46 -55 67 -21 22 -38 43 -38 48 0 4 -4 8 -10 8 -10 0 -60 47
-60 57 0 7 -17 25 -84 90 -128 125 -131 128 -176 223 -4 8 -19 16 -34 17 -15
1 -34 7 -41 13 -9 8 -15 8 -20 0 -8 -13 -52 -13 -60 0 -3 6 -12 10 -18 10 -15
0 -87 -120 -87 -143 0 -15 -34 -52 -165 -175 -25 -24 -45 -49 -45 -57 0 -8 -5
-15 -12 -15 -7 0 -24 -11 -38 -25 -166 -164 -291 -277 -320 -292 -19 -10 -38
-23 -42 -29 -5 -7 -32 -28 -60 -47 -29 -19 -72 -55 -95 -80 -37 -39 -115 -98
-172 -132 -10 -6 -26 -18 -36 -28 -10 -11 -36 -30 -57 -43 -21 -14 -41 -31
-45 -39 -3 -8 -14 -15 -25 -15 -13 0 -18 -5 -15 -14 4 -11 1 -13 -10 -9 -11 4
-14 2 -9 -5 8 -13 -20 -45 -79 -87 -22 -16 -49 -38 -60 -48 -11 -10 -42 -30
-68 -43 -29 -15 -56 -39 -69 -60 -14 -24 -26 -34 -37 -31 -34 11 -88 31 -130
50 -25 10 -60 21 -78 24 -18 3 -33 10 -33 14 0 5 -6 9 -13 9 -8 0 -22 9 -32
20 -10 11 -28 20 -39 20 -12 0 -36 9 -54 20 -18 11 -37 20 -43 20 -10 0 -62
22 -145 61 -22 10 -48 19 -57 19 -9 0 -26 9 -37 20 -11 11 -33 23 -49 26 -15
3 -41 17 -57 30 -15 14 -34 22 -42 19 -8 -3 -21 4 -29 15 -8 11 -25 20 -38 20
-14 0 -30 9 -37 21 -13 20 -70 50 -121 63 -16 4 -52 18 -80 31 -28 14 -57 25
-64 25 -7 0 -29 9 -49 21 -21 11 -45 18 -54 16 -10 -2 -23 4 -31 14 -7 11 -23
19 -35 19 -12 0 -33 9 -47 20 -14 11 -33 20 -44 20 -10 0 -31 7 -47 15 -15 8
-35 15 -42 15 -8 0 -14 5 -14 10 0 6 -9 10 -20 10 -10 0 -24 9 -30 20 -6 11
-18 20 -26 20 -9 0 -33 8 -53 18 -105 54 -148 72 -169 72 -12 0 -25 7 -28 15
-4 8 -13 15 -21 15 -8 0 -42 16 -74 35 -33 19 -62 35 -64 35 -3 0 -29 11 -59
25 -30 14 -59 25 -63 25 -5 0 -31 11 -59 24 -27 13 -80 38 -119 55 -38 17 -77
36 -85 41 -17 10 -28 16 -180 85 -58 26 -106 52 -108 57 -2 4 -12 8 -22 8 -10
0 -22 5 -25 11 -7 10 -49 33 -162 87 -26 13 -65 32 -86 43 -22 10 -49 19 -60
19 -12 0 -33 9 -47 20 -14 11 -29 20 -34 20 -5 0 -34 12 -65 27 -59 28 -151
69 -213 96 -21 9 -38 21 -38 27 0 6 -10 8 -24 4 -14 -3 -29 0 -38 9 -7 8 -25
18 -38 22 -14 4 -34 16 -45 26 -12 10 -32 20 -45 22 -13 2 -26 9 -28 15 -2 7
-12 12 -22 12 -10 0 -22 5 -25 10 -3 6 -14 10 -23 10 -9 0 -37 16 -61 35 -64
51 -74 48 -145 -36 -32 -39 -54 -83 -58 -116 -2 -18 -15 -46 -28 -63 -52 -64
-141 -150 -156 -150 -9 0 -32 -18 -51 -40 -20 -22 -42 -40 -49 -40 -8 0 -19
-9 -26 -20 -7 -11 -18 -20 -24 -20 -6 0 -55 -43 -110 -95 -54 -52 -101 -95
-104 -95 -4 0 -19 -20 -35 -46 -27 -42 -54 -69 -121 -119 -14 -11 -46 -39 -71
-63 -25 -23 -63 -52 -85 -65 -22 -12 -51 -28 -64 -35 -12 -7 -38 -29 -56 -48
-18 -20 -45 -42 -60 -50 -25 -13 -107 -84 -178 -154 -14 -14 -52 -45 -84 -70
-33 -25 -64 -54 -70 -65 -6 -11 -28 -39 -48 -62 -21 -24 -38 -47 -38 -51 0 -5
-21 -32 -47 -59 -27 -27 -59 -66 -73 -86 -15 -23 -33 -37 -46 -37 -29 0 -86
20 -106 37 -9 8 -22 12 -27 8 -6 -3 -14 1 -17 9 -3 9 -10 13 -16 10 -5 -3 -18
2 -28 11 -10 9 -31 18 -46 20 -16 1 -30 8 -32 14 -2 6 -10 11 -18 11 -8 0 -14
5 -14 10 0 6 -8 10 -18 10 -10 0 -30 12 -44 28 -50 52 -76 72 -122 92 -26 11
-61 31 -79 44 -18 13 -61 36 -97 51 -36 15 -69 31 -74 36 -6 5 -18 9 -28 9 -9
0 -33 14 -52 31 -20 17 -40 28 -45 25 -5 -3 -11 1 -14 8 -3 8 -24 20 -47 27
-22 7 -45 18 -51 26 -6 7 -18 13 -26 13 -18 0 -63 29 -88 57 -11 13 -28 23
-36 23 -9 0 -29 11 -45 25 -16 14 -37 25 -46 25 -10 0 -23 9 -30 20 -7 11 -21
20 -30 20 -10 0 -18 4 -18 10 0 5 -15 17 -32 26 -18 9 -37 23 -41 30 -4 8 -14
14 -22 14 -7 0 -44 20 -82 45 -37 25 -73 45 -80 45 -6 0 -22 9 -35 20 -30 26
-111 80 -120 80 -4 0 -33 18 -64 40 -32 22 -65 40 -75 40 -9 0 -19 7 -23 15
-3 8 -12 15 -19 15 -8 0 -20 6 -26 14 -7 8 -25 18 -41 21 -16 4 -32 14 -35 23
-5 17 -92 62 -119 62 -8 0 -16 4 -18 9 -1 6 -25 16 -51 23 -31 8 -64 27 -94
55 -25 24 -83 61 -128 83 -45 22 -99 52 -121 68 -21 15 -58 36 -81 46 -24 11
-43 22 -43 26 0 4 -26 20 -58 36 -31 15 -63 34 -70 41 -7 7 -17 13 -21 13 -4
0 -16 9 -28 19 -11 11 -41 29 -67 40 -25 12 -46 26 -46 31 0 6 -7 10 -16 10
-16 0 -93 56 -107 78 -4 6 -13 12 -20 12 -7 0 -29 16 -49 35 -20 19 -41 35
-46 35 -14 0 -62 62 -56 72 13 20 -69 5 -142 -26 -70 -30 -83 -40 -119 -91
-22 -32 -55 -66 -74 -76 -19 -10 -47 -34 -63 -54 -16 -19 -35 -35 -41 -35 -7
0 -25 -12 -42 -27 -16 -15 -55 -47 -87 -70 -32 -24 -74 -58 -95 -78 -20 -19
-41 -35 -46 -35 -5 0 -26 -15 -47 -33 -37 -34 -188 -117 -213 -117 -21 0 -146
-107 -257 -220 -56 -57 -110 -105 -119 -107 -9 -1 -32 -19 -51 -41 -19 -21
-51 -50 -70 -64 -19 -14 -45 -35 -57 -47 -12 -12 -26 -21 -30 -21 -5 0 -26
-16 -48 -35 -22 -19 -46 -35 -53 -35 -8 0 -36 -22 -63 -50 -26 -27 -51 -45
-54 -41 -2 5 -20 12 -39 15 -38 7 -150 104 -195 170 -16 22 -46 50 -67 61 -43
23 -79 57 -122 116 -17 23 -40 48 -52 56 -11 8 -18 19 -15 24 4 5 0 9 -7 9
-17 0 -148 98 -148 111 0 5 -6 9 -14 9 -7 0 -19 7 -26 15 -7 8 -16 12 -21 9
-5 -3 -9 4 -9 14 0 11 -12 28 -27 38 -31 20 -99 80 -153 137 -21 20 -44 37
-53 37 -8 0 -36 16 -61 35 -37 28 -99 62 -121 65 -33 5 -119 85 -109 101 3 5
-3 9 -14 9 -10 0 -27 9 -37 20 -10 11 -23 20 -29 20 -6 0 -27 15 -46 33 -20
17 -47 38 -60 46 -48 26 -109 76 -110 89 0 6 -7 12 -15 12 -8 0 -15 9 -15 21
0 14 -6 19 -18 17 -25 -4 -74 33 -174 133 -48 47 -90 84 -92 81 -3 -3 -9 4
-13 14 -3 10 -39 51 -79 89 -40 39 -77 80 -83 93 -7 12 -18 22 -26 22 -8 0
-15 4 -15 8 0 5 -11 15 -25 22 -14 7 -24 19 -23 26 3 13 -74 74 -92 74 -5 0
-10 4 -10 9 0 10 -105 114 -121 120 -19 6 -79 72 -74 81 9 15 -64 70 -94 70
-25 0 -66 -28 -137 -95 -6 -6 -11 -26 -11 -45 -1 -64 -15 -155 -29 -187 -8
-17 -14 -45 -14 -61 0 -17 -4 -33 -9 -36 -5 -3 -12 -26 -15 -51 -4 -24 -11
-47 -16 -50 -4 -3 -11 -28 -15 -55 -4 -28 -13 -57 -21 -65 -8 -7 -14 -26 -14
-41 0 -30 -21 -106 -31 -114 -3 -3 -9 -34 -13 -70 -11 -124 -23 -207 -30 -219
-4 -6 -8 -78 -8 -159 0 -81 -4 -164 -9 -185 -7 -27 -7 -43 1 -52 8 -10 8 -19
1 -33 -6 -10 -12 -71 -15 -136 -3 -64 -10 -124 -15 -134 -6 -11 -10 -95 -10
-188 -1 -93 -4 -185 -9 -204 -5 -22 -4 -42 2 -52 7 -13 7 -27 -1 -49 -7 -18
-10 -36 -6 -42 6 -10 5 -330 -1 -497 -2 -52 -9 -131 -16 -175 -7 -44 -14 -117
-15 -162 -2 -45 -7 -88 -12 -95 -9 -15 -22 -111 -29 -208 -18 -266 -25 -418
-29 -684 -2 -126 -6 -235 -9 -242 -3 -7 -1 -27 4 -46 9 -36 19 -212 26 -473 5
-164 9 -255 13 -265 1 -3 3 -88 5 -190 8 -445 12 -576 18 -585 4 -6 8 -53 9
-105 1 -52 6 -100 10 -106 5 -6 11 -44 15 -85 4 -41 12 -81 19 -89 7 -8 16
-40 20 -70 19 -157 52 -318 67 -337 6 -7 7 -28 4 -47 -5 -24 -2 -39 9 -49 8
-9 15 -26 15 -39 0 -13 4 -28 9 -34 15 -17 41 -112 35 -129 -4 -10 -1 -21 6
-25 12 -7 25 -61 34 -140 12 -100 21 -140 38 -172 15 -26 19 -47 15 -72 -3
-20 -2 -36 3 -36 5 0 12 -27 16 -60 4 -34 14 -71 24 -83 9 -12 22 -43 30 -70
7 -26 17 -50 21 -53 5 -3 9 -30 9 -60 0 -38 4 -56 14 -60 9 -3 20 -31 26 -62
16 -81 39 -150 56 -167 9 -8 18 -32 21 -52 3 -21 12 -41 19 -46 7 -4 11 -13 8
-20 -6 -16 20 -69 29 -60 4 3 7 1 7 -5 0 -6 5 -23 12 -39 6 -15 12 -34 14 -40
5 -28 39 -110 54 -133 25 -39 40 -79 40 -106 0 -25 15 -57 37 -82 7 -7 13 -19
13 -26 0 -6 9 -29 20 -51 11 -22 20 -49 20 -61 0 -12 11 -38 25 -58 14 -20 27
-47 31 -61 3 -13 12 -26 20 -29 8 -3 14 -19 14 -37 0 -17 8 -39 18 -48 9 -9
25 -32 34 -53 9 -20 26 -39 37 -43 20 -6 22 -16 21 -80 0 -3 13 -32 30 -65 16
-33 30 -66 30 -75 0 -8 4 -23 10 -33 5 -9 16 -33 24 -52 9 -19 36 -73 61 -120
25 -46 45 -90 45 -97 0 -6 6 -16 14 -20 15 -8 109 -143 137 -197 35 -66 58
-123 64 -158 3 -21 11 -38 18 -38 7 0 28 -28 47 -61 19 -34 47 -76 62 -93 15
-17 28 -36 28 -42 0 -7 14 -26 30 -44 17 -18 30 -35 30 -39 0 -4 17 -23 37
-42 57 -51 85 -90 130 -179 10 -19 30 -50 45 -68 16 -18 28 -38 28 -45 0 -7
13 -25 30 -40 17 -16 30 -33 30 -39 0 -5 9 -23 21 -39 11 -16 22 -36 23 -43 1
-8 7 -20 13 -27 6 -8 16 -30 22 -50 7 -21 21 -47 31 -60 11 -12 20 -28 20 -35
0 -24 72 -153 106 -191 19 -20 34 -42 34 -48 0 -7 11 -25 25 -41 13 -15 30
-42 37 -59 15 -36 8 -27 109 -148 45 -53 86 -97 91 -97 4 0 8 -5 8 -10 0 -6 9
-21 20 -33 66 -74 89 -97 98 -97 6 0 14 -9 17 -20 3 -11 26 -41 51 -66 24 -26
44 -49 44 -53 0 -14 127 -140 182 -180 31 -23 59 -49 62 -57 3 -7 15 -14 26
-14 11 0 29 -8 39 -18 37 -32 50 -42 61 -42 5 0 10 -4 10 -9 0 -5 9 -13 20
-16 11 -3 20 -13 20 -20 0 -8 9 -19 20 -25 21 -11 58 -42 112 -92 16 -16 36
-28 44 -28 7 0 16 -10 19 -23 4 -13 20 -28 38 -36 18 -8 46 -28 64 -45 17 -17
52 -49 78 -71 26 -22 83 -75 127 -117 44 -43 85 -78 90 -78 6 0 27 -17 47 -37
35 -37 183 -143 198 -143 5 0 19 -16 32 -35 13 -19 29 -35 35 -35 12 0 96 -78
96 -89 0 -4 12 -14 28 -22 15 -8 33 -22 40 -31 6 -9 25 -19 42 -23 16 -4 32
-15 35 -26 4 -10 13 -19 21 -19 8 0 32 -18 54 -40 25 -25 45 -37 55 -34 8 4
15 1 15 -4 0 -11 85 -72 101 -72 5 0 9 -5 9 -10 0 -6 8 -14 18 -17 19 -8 33
-18 68 -50 13 -11 37 -24 55 -28 23 -5 28 -10 18 -16 -12 -7 -11 -9 1 -8 8 0
56 -21 105 -45 50 -25 108 -53 130 -63 22 -10 67 -36 100 -58 69 -45 125 -75
139 -75 5 0 18 -8 29 -17 18 -17 79 -38 197 -68 30 -8 81 -28 113 -45 32 -16
65 -30 73 -30 8 0 17 -7 20 -15 4 -8 10 -13 14 -10 4 3 41 -15 82 -40 42 -25
80 -45 85 -45 6 0 16 -7 24 -16 8 -10 21 -13 36 -9 16 4 25 1 29 -10 4 -8 14
-15 24 -15 9 0 25 -9 35 -20 10 -11 26 -20 36 -20 10 0 24 -6 31 -14 21 -21
75 -46 98 -46 11 0 29 -9 40 -20 11 -11 29 -20 41 -20 27 0 118 -30 125 -41 3
-5 15 -9 28 -9 13 0 31 -9 41 -20 10 -11 24 -20 32 -20 7 0 13 -4 13 -9 0 -5
11 -12 25 -15 14 -4 25 -11 25 -16 0 -6 7 -10 15 -10 8 0 15 -4 15 -10 0 -5
11 -10 24 -10 13 0 27 -7 30 -16 4 -10 14 -14 26 -11 11 3 23 1 26 -4 3 -5 16
-9 29 -9 13 0 36 -5 52 -12 15 -6 31 -11 35 -10 3 1 12 -5 18 -13 7 -8 22 -15
34 -15 12 0 31 -7 42 -15 10 -8 28 -15 39 -15 11 0 47 -9 80 -19 33 -11 87
-27 120 -37 33 -10 71 -26 85 -35 14 -10 52 -20 85 -24 32 -3 61 -8 65 -10 3
-2 12 0 19 5 8 4 28 2 47 -6 18 -8 50 -14 71 -14 21 0 74 -9 118 -20 44 -11
107 -20 141 -20 33 0 64 -3 68 -7 10 -11 79 -33 103 -33 12 0 24 4 28 9 3 6
18 6 38 0 17 -6 86 -12 152 -14 66 -2 145 -8 175 -14 30 -5 77 -13 104 -16 28
-3 53 -9 56 -15 3 -5 15 -8 25 -6 11 2 47 0 80 -5 169 -25 226 -29 430 -30
169 -1 226 1 242 12 19 11 25 11 41 -4 10 -9 32 -17 48 -17 16 0 47 -5 69 -11
22 -6 58 -13 80 -15 22 -3 45 -10 52 -15 6 -6 26 -8 43 -6 17 3 36 0 43 -7 7
-8 52 -17 100 -21 48 -4 87 -11 87 -16 0 -5 12 -7 28 -6 39 5 138 -8 201 -26
33 -9 80 -14 120 -11 36 2 147 6 246 8 99 3 212 10 250 17 39 7 95 14 125 16
165 10 216 11 232 2 12 -6 37 -5 75 5 38 9 98 13 173 11 71 -1 146 3 195 12
44 8 92 17 106 20 32 6 69 -12 69 -33 0 -12 7 -14 28 -10 80 16 224 22 243 11
4 -3 12 2 19 10 7 8 22 15 35 15 12 0 30 9 41 21 11 12 27 19 40 16 12 -2 32
2 44 8 14 7 37 9 61 5 22 -4 42 -3 45 1 8 13 35 11 53 -5 14 -11 26 -11 81 0
36 8 83 14 105 13 67 -2 188 19 241 42 27 12 61 23 76 24 14 1 40 12 56 24 17
11 35 21 40 21 5 0 16 10 25 23 12 19 22 22 56 19 28 -3 41 0 41 8 0 7 7 10
15 6 9 -3 15 0 15 9 0 8 8 15 18 15 9 0 26 7 36 15 11 8 32 15 47 15 15 0 31
5 34 10 3 6 14 10 24 10 10 0 23 6 29 13 8 9 48 14 138 15 103 1 135 5 163 21
24 12 70 21 134 26 62 4 103 12 112 21 7 8 19 14 25 14 15 0 118 49 125 60 3
4 28 11 57 15 49 7 72 16 108 40 28 20 90 36 110 30 11 -4 20 -2 20 4 0 6 9
11 19 11 11 0 26 8 33 18 8 10 29 18 51 20 21 1 45 8 53 16 7 8 23 12 34 9 14
-4 30 2 45 17 13 12 28 19 33 16 5 -3 18 5 28 19 10 13 31 27 46 30 16 4 35
14 44 23 9 8 28 17 42 18 15 2 32 10 38 19 6 8 18 15 26 15 8 0 24 9 36 20 12
11 29 20 40 20 10 0 22 4 28 8 5 4 27 14 49 21 22 8 47 21 55 30 10 11 37 17
85 19 39 2 72 8 73 13 2 5 9 9 17 9 7 0 18 7 25 15 7 8 25 15 39 15 17 0 42
13 66 35 21 20 44 34 51 31 7 -3 18 2 24 10 7 8 20 14 29 14 10 0 37 13 62 28
24 16 57 32 72 36 15 3 27 11 27 16 0 6 16 10 35 10 23 0 38 6 42 15 6 17 70
48 83 40 4 -2 19 5 32 18 35 31 65 47 87 47 11 0 23 5 26 11 4 6 13 8 21 5 8
-3 11 0 8 9 -4 9 7 20 30 32 20 9 36 20 36 23 0 4 6 7 13 7 6 0 32 10 56 21
25 12 53 22 63 22 10 0 18 4 18 9 0 5 16 15 35 21 19 6 35 16 35 21 0 6 5 7
11 4 5 -4 21 5 33 20 13 15 29 24 35 21 6 -4 11 -2 11 3 0 6 8 11 18 11 9 0
46 27 80 60 35 33 71 60 80 60 9 0 36 20 60 45 24 25 58 51 76 59 18 7 49 30
68 50 19 20 38 36 42 36 8 0 140 102 144 112 2 5 8 8 14 8 5 0 24 11 42 25 18
14 40 25 48 25 8 0 21 11 28 25 7 14 17 25 22 25 4 0 8 6 8 14 0 7 21 36 48
64 26 27 63 70 82 93 19 24 61 69 93 100 31 32 57 60 57 63 0 17 84 121 141
174 37 34 70 74 74 89 3 15 17 40 31 56 13 16 24 35 24 42 0 7 3 15 8 17 4 2
27 36 51 76 24 40 53 81 65 90 28 23 140 152 154 177 6 11 39 48 74 82 113
111 156 154 184 190 16 19 47 54 70 77 22 24 51 59 63 80 13 20 29 43 37 51 8
8 14 17 14 20 -1 12 50 102 64 114 9 8 16 18 16 24 0 5 10 24 23 41 22 29 67
118 67 132 0 3 11 20 25 36 14 16 23 33 21 37 -3 4 8 22 24 40 17 18 30 38 30
45 0 8 7 19 15 26 8 7 15 25 15 39 0 36 40 74 66 64 17 -6 17 -5 5 10 -11 14
-11 18 2 23 8 3 18 17 22 32 3 14 20 44 36 66 16 22 29 45 29 50 0 6 18 31 40
55 22 25 51 64 65 87 14 24 52 71 85 106 33 34 60 66 60 70 0 5 12 22 28 39
15 16 34 42 42 57 8 15 29 45 45 67 17 22 33 44 37 50 4 5 23 29 42 51 20 23
36 47 36 53 0 6 4 11 9 11 5 0 24 25 41 55 17 30 36 55 41 55 5 0 17 18 26 40
10 22 21 40 26 40 5 0 15 7 23 15 9 8 12 15 9 15 -4 0 4 19 18 43 13 23 37 67
53 97 15 30 40 74 56 97 15 23 28 44 28 48 0 8 41 65 66 91 12 13 25 43 28 68
4 25 11 46 17 46 5 0 9 9 9 20 0 11 4 28 9 38 31 60 71 153 81 187 7 22 20 58
30 80 10 22 23 54 30 71 6 17 27 46 46 65 19 18 34 38 34 43 0 6 17 47 38 91
21 44 46 109 56 145 34 127 40 141 61 164 25 27 53 110 65 194 4 33 16 72 25
86 12 17 15 36 12 56 -4 16 -2 32 4 36 6 3 8 12 5 20 -3 7 -1 16 4 19 6 4 10
24 10 45 0 21 5 42 10 45 6 3 10 21 10 39 0 18 8 48 17 66 10 22 16 55 15 92
-1 32 2 58 7 58 14 0 40 120 51 235 12 127 36 281 47 297 3 7 5 33 4 58 -1 26
7 116 18 201 15 124 17 180 11 289 -9 161 -3 503 11 615 5 44 12 111 14 149 3
38 13 94 24 125 10 31 27 92 36 136 10 44 23 87 30 95 27 33 43 239 50 635 2
160 9 257 25 355 11 74 25 178 30 230 10 116 19 158 37 187 8 12 12 27 8 33
-10 16 16 252 30 275 8 12 15 76 19 169 4 82 9 152 11 157 13 20 16 274 5 379
-18 176 -29 371 -35 630 -3 129 -10 286 -15 349 -6 62 -8 122 -4 133 3 10 1
25 -6 32 -13 17 -23 307 -11 339 18 46 -12 304 -46 407 -8 25 -16 65 -18 90
-2 25 -4 45 -5 45 -3 0 -10 90 -14 180 -6 113 -22 260 -30 274 -12 19 -37 110
-41 149 -2 19 -10 41 -18 50 -8 10 -17 37 -20 62 -25 185 -36 242 -54 281 -12
24 -24 55 -28 69 -6 25 -15 49 -40 105 -8 17 -17 46 -21 65 -3 19 -9 39 -12
45 -7 11 -7 14 -22 125 -6 47 -18 102 -26 123 -7 20 -14 52 -14 70 0 37 -32
111 -53 123 -20 13 -37 48 -37 81 0 23 -7 31 -38 45 -52 23 -122 30 -122 12z
m120 -170 c0 -17 -22 -14 -28 4 -2 7 3 12 12 12 9 0 16 -7 16 -16z m-40 -186
c12 -31 34 -140 31 -156 -1 -8 3 -20 9 -27 6 -8 10 -22 9 -32 -1 -10 3 -37 10
-61 6 -23 9 -47 6 -53 -4 -5 -3 -15 3 -22 35 -46 125 -350 123 -417 -1 -32 18
-130 30 -152 5 -10 9 -25 9 -33 0 -9 7 -30 17 -48 9 -18 17 -55 19 -84 1 -29
5 -56 8 -62 3 -5 3 -16 0 -24 -3 -9 -1 -24 5 -35 14 -25 33 -218 32 -319 -1
-81 2 -97 34 -243 9 -41 21 -95 26 -120 21 -100 36 -305 34 -465 -2 -93 2
-192 7 -220 5 -27 12 -126 15 -220 7 -206 6 -197 5 -265 -2 -114 5 -258 16
-320 16 -95 23 -381 11 -421 -9 -28 -21 -231 -33 -540 -1 -26 -7 -53 -13 -60
-6 -8 -14 -45 -18 -84 -13 -138 -32 -260 -56 -354 -10 -40 -16 -77 -13 -82 3
-5 1 -33 -5 -62 -6 -28 -13 -113 -16 -187 -2 -74 -8 -196 -14 -270 -5 -74 -13
-207 -17 -295 -3 -90 -14 -202 -25 -255 -11 -52 -22 -115 -25 -140 -2 -25 -11
-67 -19 -95 -8 -27 -23 -113 -34 -190 -11 -77 -23 -162 -27 -190 -4 -27 -8
-144 -9 -260 -5 -414 -7 -472 -21 -610 -8 -77 -20 -156 -26 -175 -6 -19 -11
-47 -10 -63 1 -15 -4 -57 -13 -93 -8 -36 -15 -89 -15 -117 0 -29 -5 -70 -11
-92 -6 -22 -15 -62 -20 -90 -5 -27 -17 -84 -25 -125 -9 -41 -18 -88 -20 -105
-2 -16 -8 -39 -13 -50 -36 -80 -61 -150 -61 -171 0 -14 -11 -46 -25 -73 -13
-27 -22 -51 -19 -54 4 -3 -1 -16 -10 -29 -10 -14 -16 -43 -16 -79 0 -41 -4
-58 -15 -63 -8 -3 -15 -14 -15 -24 0 -11 -9 -31 -20 -45 -11 -14 -20 -36 -20
-49 0 -14 -3 -27 -6 -31 -3 -3 -19 -41 -34 -84 -26 -76 -51 -128 -90 -188 -22
-35 -50 -93 -50 -106 0 -5 -4 -9 -8 -9 -11 0 -54 -102 -79 -185 -9 -33 -30
-80 -45 -105 -15 -25 -32 -55 -37 -67 -5 -11 -15 -24 -20 -28 -6 -3 -11 -15
-11 -27 0 -11 -13 -36 -30 -55 -16 -18 -30 -40 -30 -48 0 -7 -10 -26 -23 -42
-13 -15 -38 -58 -57 -95 -18 -38 -37 -68 -42 -68 -4 0 -8 -6 -8 -14 0 -8 -11
-34 -25 -57 -14 -24 -25 -51 -25 -59 0 -9 -9 -23 -20 -33 -11 -9 -20 -23 -20
-30 0 -7 -19 -34 -42 -60 -47 -50 -47 -50 -98 -120 -19 -26 -67 -88 -107 -136
-39 -48 -83 -109 -97 -135 -14 -26 -39 -61 -55 -78 -16 -17 -42 -50 -57 -74
-16 -24 -31 -44 -36 -44 -4 0 -15 -14 -23 -31 -9 -16 -35 -49 -59 -72 -23 -23
-57 -73 -75 -111 -18 -38 -43 -83 -55 -100 -13 -17 -37 -61 -54 -98 -17 -36
-36 -69 -41 -72 -5 -4 -12 -20 -16 -37 -4 -17 -13 -33 -21 -36 -8 -3 -14 -11
-14 -18 0 -7 -17 -34 -38 -61 -21 -27 -48 -70 -60 -96 -12 -26 -48 -74 -79
-106 -35 -36 -74 -90 -98 -137 -24 -46 -48 -80 -61 -85 -12 -5 -45 -36 -75
-71 -73 -83 -218 -229 -228 -229 -14 0 -124 -119 -180 -193 -52 -70 -123 -191
-119 -205 2 -4 -16 -33 -40 -64 -23 -31 -42 -62 -42 -69 0 -12 -94 -134 -113
-146 -7 -5 -28 -30 -47 -58 -45 -65 -104 -125 -122 -125 -8 0 -21 -12 -29 -27
-14 -29 -218 -233 -232 -233 -5 0 -33 -20 -61 -45 -29 -25 -57 -45 -62 -45 -5
0 -28 -18 -51 -40 -23 -23 -57 -47 -76 -55 -18 -8 -45 -30 -58 -49 -13 -20
-32 -38 -41 -41 -9 -3 -49 -30 -90 -60 -40 -30 -92 -64 -116 -77 -68 -36 -81
-44 -99 -61 -10 -8 -21 -16 -26 -16 -41 -1 -81 -18 -101 -42 -14 -16 -30 -29
-36 -29 -11 0 -86 -47 -108 -68 -15 -13 -117 -62 -131 -62 -5 0 -12 -7 -15
-15 -3 -9 -11 -15 -18 -13 -7 1 -39 -15 -70 -35 -31 -20 -61 -37 -65 -37 -5 0
-20 -11 -33 -23 -27 -25 -64 -38 -115 -40 -16 -1 -32 -5 -35 -8 -7 -9 -183
-98 -193 -98 -1 0 -19 -7 -39 -16 -21 -8 -38 -12 -38 -9 0 4 -8 0 -17 -8 -26
-23 -86 -52 -100 -50 -7 2 -23 -4 -35 -12 -13 -8 -54 -26 -93 -41 -38 -15 -77
-33 -85 -40 -8 -7 -21 -10 -27 -8 -7 3 -13 0 -13 -5 0 -6 -8 -8 -19 -5 -12 3
-24 -3 -33 -16 -8 -12 -17 -19 -19 -16 -13 13 -115 -27 -140 -55 -16 -18 -38
-30 -52 -30 -14 0 -30 -7 -37 -15 -7 -8 -18 -15 -24 -15 -6 0 -33 -11 -61 -25
-27 -13 -61 -24 -75 -25 -25 0 -99 -22 -157 -47 -17 -7 -44 -13 -60 -13 -48 0
-68 -10 -91 -44 -21 -31 -65 -52 -99 -47 -7 1 -27 -6 -45 -16 -18 -9 -42 -18
-53 -20 -51 -6 -64 -10 -79 -22 -8 -7 -20 -10 -26 -6 -6 4 -16 3 -23 -2 -7 -5
-25 -8 -42 -6 -51 5 -97 3 -114 -6 -9 -5 -54 -14 -101 -21 -74 -12 -130 -32
-165 -60 -6 -5 -29 -9 -52 -8 -27 0 -52 -7 -71 -20 -16 -12 -48 -24 -70 -28
-23 -4 -40 -10 -37 -14 3 -4 -13 -10 -34 -14 -21 -3 -50 -15 -64 -26 -14 -11
-39 -20 -56 -20 -17 0 -31 -4 -31 -9 0 -12 -21 -19 -98 -31 -36 -6 -71 -15
-77 -19 -15 -12 -65 -20 -65 -10 0 14 -54 11 -69 -3 -11 -10 -14 -10 -18 -1
-3 9 -18 11 -48 6 -24 -3 -52 -2 -62 2 -26 12 -37 12 -50 2 -7 -5 -22 -7 -33
-4 -11 3 -46 -1 -78 -8 -58 -14 -248 -21 -291 -11 -13 3 -38 -1 -55 -9 -18 -8
-63 -14 -108 -14 -42 1 -86 -2 -97 -6 -12 -3 -25 -3 -31 0 -6 3 -52 6 -103 6
-50 -1 -153 -1 -227 -1 -143 0 -194 -6 -184 -21 3 -5 -10 -9 -29 -9 -18 0 -37
-3 -41 -7 -4 -5 -34 -6 -67 -5 -33 2 -65 -1 -72 -6 -14 -12 -88 -19 -103 -10
-5 4 -29 2 -53 -3 -23 -5 -46 -7 -50 -4 -15 9 -345 -16 -358 -27 -9 -7 -19 -6
-37 6 -14 9 -32 13 -41 10 -8 -4 -22 -1 -30 6 -12 10 -66 17 -191 23 -17 1
-37 7 -45 14 -17 14 -90 8 -100 -9 -4 -6 -9 -2 -14 11 -5 18 -14 21 -59 21
-37 0 -61 6 -77 19 -21 16 -54 23 -219 47 -14 2 -61 6 -105 9 -44 3 -88 8 -97
11 -10 3 -26 1 -36 -5 -11 -6 -22 -8 -24 -6 -3 3 -110 7 -239 10 -241 6 -289
8 -305 17 -5 2 -28 4 -51 4 -24 -1 -43 2 -43 7 0 4 -40 7 -89 7 -50 0 -92 4
-95 8 -3 5 -45 14 -93 21 -48 7 -101 15 -118 18 -80 14 -115 15 -115 3 0 -9
-7 -8 -23 3 -14 9 -59 18 -108 22 -95 7 -194 23 -224 36 -11 5 -75 16 -142 24
-67 9 -134 22 -150 30 -15 8 -42 15 -60 15 -17 0 -35 4 -38 10 -3 5 -19 10
-36 10 -16 0 -29 5 -29 12 0 6 -3 9 -6 5 -4 -3 -27 4 -53 17 -25 13 -68 28
-96 35 -27 6 -72 21 -100 32 -84 36 -89 38 -135 50 -25 7 -57 21 -72 31 -14
10 -30 18 -36 18 -18 0 -74 32 -79 46 -3 8 -16 14 -28 14 -13 0 -27 5 -30 10
-8 13 -89 50 -109 50 -9 0 -30 9 -48 20 -18 11 -43 20 -55 20 -12 0 -25 5 -28
10 -3 6 -14 10 -24 10 -10 0 -30 9 -44 20 -14 11 -34 20 -45 20 -11 0 -23 7
-26 16 -3 9 -13 14 -20 11 -8 -3 -16 -3 -18 1 -2 4 -25 18 -53 32 -27 14 -56
30 -63 37 -7 7 -22 13 -31 13 -10 0 -24 7 -31 15 -7 8 -18 15 -25 15 -7 0 -18
7 -25 15 -7 8 -16 12 -21 9 -5 -3 -16 2 -25 10 -8 9 -24 16 -33 16 -10 0 -25
9 -33 21 -14 22 -77 49 -114 49 -12 0 -27 6 -33 14 -7 8 -42 17 -81 21 -39 4
-67 11 -64 16 3 5 -6 9 -19 9 -14 0 -30 7 -37 15 -7 8 -23 15 -37 15 -13 0
-26 6 -29 14 -3 8 -24 18 -46 21 -22 4 -54 20 -73 36 -18 16 -47 32 -64 35
-17 4 -31 10 -31 14 0 4 -11 11 -25 14 -14 4 -25 11 -25 16 0 5 -6 7 -13 5 -7
-3 -30 4 -52 15 -21 11 -45 20 -52 20 -8 0 -16 6 -19 14 -3 8 -17 16 -32 19
-15 3 -38 16 -51 28 -14 13 -32 24 -42 24 -10 1 -50 27 -89 59 -39 32 -77 55
-84 53 -8 -3 -26 11 -42 32 -15 21 -40 43 -54 50 -52 24 -88 47 -121 78 -19
18 -38 33 -42 33 -10 0 -30 17 -69 58 -17 17 -35 32 -40 32 -5 0 -23 13 -39
30 -17 16 -33 29 -37 27 -4 -1 -31 21 -61 50 -30 29 -57 51 -60 48 -4 -2 -24
12 -46 31 -22 19 -43 34 -46 34 -6 0 -52 40 -92 80 -11 11 -122 119 -172 169
-12 11 -33 23 -48 26 -15 4 -27 11 -27 15 0 15 -64 70 -82 70 -10 0 -18 7 -18
15 0 9 -13 24 -30 33 -16 9 -30 22 -30 27 0 6 -13 18 -28 27 -15 9 -50 39 -77
66 -28 27 -63 56 -80 65 -16 8 -47 32 -68 52 -21 19 -42 33 -47 30 -6 -4 -10
1 -10 9 0 9 -3 16 -8 16 -9 0 -106 79 -110 90 -2 4 -43 50 -92 101 -50 51 -90
97 -90 102 0 13 -92 107 -105 107 -6 0 -18 12 -26 28 -8 15 -25 38 -39 52 -39
40 -70 79 -70 89 0 5 -3 11 -8 13 -14 6 -99 113 -115 144 -9 17 -23 36 -31 43
-9 8 -16 20 -16 27 0 8 -14 30 -32 49 -33 36 -48 60 -72 111 -8 17 -22 36 -30
44 -9 7 -16 19 -16 26 0 7 -9 29 -20 49 -11 20 -20 42 -20 49 0 7 -7 19 -15
26 -8 7 -13 16 -10 20 3 5 2 10 -3 12 -4 1 -20 33 -36 70 -15 38 -32 68 -37
68 -5 0 -13 10 -18 23 -13 33 -71 117 -81 117 -5 0 -11 9 -15 20 -3 11 -21 38
-40 60 -19 22 -37 50 -41 62 -4 12 -17 31 -30 41 -13 10 -24 27 -24 38 0 11
-27 48 -60 82 -33 34 -63 73 -66 87 -3 14 -14 43 -25 66 -10 23 -19 45 -19 50
0 5 -11 19 -24 31 -13 13 -33 42 -45 65 -12 24 -25 50 -31 58 -5 8 -16 31 -25
50 -19 46 -36 72 -57 87 -9 7 -24 33 -34 58 -9 25 -21 45 -25 45 -5 0 -9 7 -9
15 0 8 -8 23 -17 33 -29 30 -103 165 -103 187 0 13 -37 88 -63 126 -10 15 -27
53 -38 85 -28 80 -52 134 -59 134 -9 0 -30 47 -30 67 0 9 -8 26 -19 37 -10 12
-26 47 -36 79 -10 32 -21 59 -24 62 -13 7 -121 234 -121 253 0 5 -6 15 -14 22
-8 6 -12 18 -9 26 3 8 -6 31 -19 52 -40 60 -68 119 -68 144 0 13 -12 55 -26
93 -14 39 -33 95 -41 125 -8 30 -26 67 -40 82 -17 17 -27 42 -30 72 -3 25 -10
46 -14 46 -5 0 -9 10 -9 23 0 12 -7 32 -15 45 -9 12 -17 35 -18 52 -1 16 -8
30 -14 30 -9 0 -13 16 -13 45 0 56 0 56 -11 77 -5 10 -14 44 -20 75 -6 32 -17
78 -26 103 -9 25 -17 56 -19 70 -1 14 -8 44 -13 68 -6 23 -16 61 -22 85 -5 23
-15 67 -20 97 -5 30 -14 59 -18 65 -8 9 -13 32 -26 110 -3 16 -10 34 -15 39
-6 6 -10 20 -10 32 0 12 -7 27 -15 34 -13 11 -21 47 -29 135 -2 22 -6 47 -9
55 -22 61 -55 236 -87 465 -6 44 -15 94 -20 110 -5 17 -8 86 -7 155 2 69 0
199 -4 290 -5 91 -11 284 -14 430 -4 146 -9 268 -11 271 -2 3 1 50 5 105 6 73
5 120 -6 179 -13 77 -13 345 0 850 4 136 20 339 31 380 3 11 7 49 10 85 5 71
24 226 31 250 6 23 19 267 17 340 0 35 4 70 9 77 6 7 8 16 5 22 -14 22 -14
342 -1 556 21 333 26 444 31 690 3 121 9 256 14 300 10 105 73 378 94 410 9
14 16 31 14 38 -1 6 6 37 17 67 10 30 20 66 21 80 2 14 10 52 17 85 12 53 16
60 37 60 16 0 29 -9 37 -25 7 -14 13 -21 13 -17 0 11 72 -46 125 -98 23 -22
60 -57 83 -79 23 -21 42 -42 42 -47 0 -5 16 -15 35 -23 19 -8 35 -22 35 -30 0
-9 6 -16 14 -16 8 0 24 -20 36 -45 12 -24 36 -53 53 -64 31 -19 58 -45 147
-138 36 -38 123 -108 131 -106 5 2 25 -13 45 -32 20 -19 42 -35 50 -35 8 0 14
-4 14 -9 0 -15 64 -76 77 -73 7 2 13 -1 13 -7 0 -5 23 -24 50 -42 28 -18 50
-35 50 -39 0 -4 18 -12 40 -19 22 -7 46 -21 53 -31 6 -11 19 -20 27 -20 8 0
24 -11 34 -25 10 -14 26 -25 35 -25 9 0 22 -9 29 -21 8 -12 19 -18 28 -15 8 3
14 1 14 -4 0 -5 33 -35 72 -66 40 -32 84 -68 97 -81 13 -13 27 -23 32 -23 5 0
29 -20 53 -45 25 -25 50 -45 55 -45 5 0 29 -18 52 -40 24 -22 47 -40 51 -40 4
0 8 -7 8 -15 0 -8 4 -15 10 -15 10 0 46 -35 118 -113 23 -26 48 -47 54 -47 16
0 58 -41 58 -57 0 -7 4 -13 10 -13 5 0 24 -23 42 -50 18 -28 38 -48 45 -46 13
5 93 -67 93 -84 0 -5 7 -7 15 -3 10 3 15 1 13 -8 -2 -7 5 -15 15 -17 10 -2 39
-26 65 -54 26 -28 56 -60 67 -72 11 -11 20 -23 20 -26 5 -46 62 -82 113 -72
32 7 78 55 67 71 -3 5 -1 12 5 16 5 3 10 17 10 31 0 37 16 61 45 68 13 3 32
20 40 36 9 17 24 30 34 30 9 0 28 12 42 26 13 14 39 32 58 40 18 8 48 27 66
43 18 16 37 30 42 32 13 6 89 102 96 121 4 11 12 15 22 12 11 -5 18 0 22 15 3
11 10 21 17 21 16 1 51 32 65 58 9 16 18 21 32 17 10 -4 19 -2 19 4 0 6 22 33
49 60 27 27 50 54 52 60 2 6 14 12 27 14 13 2 27 8 30 13 8 11 39 30 67 43 11
5 28 18 39 30 10 11 23 18 29 14 5 -3 16 2 23 12 8 10 16 16 19 13 12 -11 144
75 209 137 24 22 73 63 110 90 37 28 86 65 109 82 23 18 51 37 62 42 11 5 40
28 64 50 24 23 46 41 50 41 4 0 15 16 25 35 11 19 22 35 25 35 3 0 18 -11 33
-25 15 -14 29 -25 32 -25 3 0 19 -13 36 -30 17 -16 38 -30 48 -30 9 0 28 -12
41 -25 12 -14 27 -23 31 -20 5 3 15 -3 22 -13 13 -18 40 -34 103 -63 17 -8 37
-22 45 -31 16 -18 131 -78 149 -78 6 0 11 -7 11 -15 0 -8 7 -16 15 -16 24 -2
28 -4 63 -22 17 -10 32 -21 32 -26 0 -5 10 -11 23 -15 13 -3 40 -17 60 -31 21
-13 49 -28 62 -31 14 -3 25 -13 25 -21 0 -8 5 -11 10 -8 6 3 29 -9 53 -28 23
-18 61 -40 85 -47 24 -8 49 -21 55 -29 7 -9 28 -25 47 -35 19 -11 38 -24 42
-30 4 -6 20 -10 36 -8 18 2 34 -4 47 -17 10 -12 26 -21 35 -21 10 0 23 -7 30
-14 6 -8 28 -20 47 -27 20 -6 51 -26 71 -45 19 -18 48 -36 64 -39 17 -4 25
-11 21 -18 -4 -6 0 -8 9 -4 10 3 25 -4 39 -19 12 -13 30 -24 39 -24 9 0 34
-18 55 -40 21 -22 47 -40 57 -40 10 0 18 -5 18 -11 0 -5 15 -16 34 -24 19 -8
37 -19 40 -24 3 -4 29 -20 58 -35 82 -41 110 -59 135 -85 13 -13 32 -25 42
-26 11 -1 35 -13 54 -28 20 -15 40 -27 46 -27 6 0 11 -5 11 -11 0 -5 5 -7 10
-4 6 3 13 -1 16 -9 3 -9 14 -16 23 -16 9 0 27 -9 41 -20 14 -11 30 -20 35 -20
6 0 16 -9 23 -20 7 -11 19 -20 28 -20 23 0 139 -57 172 -84 15 -14 44 -27 65
-31 20 -4 42 -14 48 -22 16 -18 63 -43 84 -43 8 0 34 -18 58 -40 57 -54 134
-110 152 -110 8 0 15 -5 15 -11 0 -6 7 -9 15 -5 8 3 18 0 22 -7 11 -17 75 -47
86 -40 5 3 15 -4 22 -15 8 -10 29 -25 47 -32 44 -18 98 -69 91 -87 -15 -39 66
-52 201 -33 76 11 98 25 126 81 10 19 26 42 35 49 10 8 21 25 26 37 5 13 12
23 16 22 20 -3 33 2 33 12 0 7 15 27 34 45 18 18 42 53 52 78 11 26 32 57 49
69 16 12 42 34 59 50 16 15 34 27 40 27 6 0 21 15 33 33 30 43 158 174 207
212 22 17 46 29 53 27 7 -2 13 2 13 9 0 10 23 34 67 69 7 6 16 10 21 10 5 0
17 9 27 20 10 12 25 19 34 18 15 -3 71 43 71 59 0 6 10 15 23 20 14 7 28 26
35 50 7 22 21 48 32 58 11 10 20 24 20 31 0 6 24 28 53 47 28 19 72 56 97 81
25 25 51 46 57 46 13 0 77 45 142 97 43 36 141 132 205 203 28 30 59 60 71 66
11 6 19 16 17 23 -5 25 19 51 48 51 17 0 30 -4 30 -10 0 -5 24 -17 54 -25 30
-9 65 -24 78 -33 30 -23 66 -39 103 -47 17 -3 67 -24 112 -46 46 -22 86 -40
90 -41 5 -1 14 -8 21 -15 12 -12 34 -18 55 -14 4 1 18 -10 31 -24 13 -14 32
-25 42 -25 11 0 41 -11 68 -25 27 -13 53 -22 57 -20 4 3 12 -2 19 -10 7 -8 18
-15 25 -15 6 0 20 -9 30 -20 10 -11 24 -20 32 -20 7 0 13 -4 13 -9 0 -7 31
-21 43 -19 1 0 26 -14 55 -31 30 -17 59 -31 65 -30 30 4 45 -3 56 -23 13 -26
54 -48 86 -48 12 0 30 -9 40 -20 10 -11 24 -20 31 -20 7 0 25 -6 41 -14 83
-43 170 -78 190 -78 13 0 23 -4 23 -8 0 -13 100 -71 111 -65 5 4 9 1 9 -4 0
-6 9 -11 19 -11 11 0 26 -6 33 -13 18 -18 77 -47 97 -47 9 0 25 -7 35 -15 11
-8 28 -15 37 -15 10 0 24 -7 32 -14 8 -8 26 -17 40 -18 15 -2 29 -7 33 -11 4
-4 16 -7 26 -7 10 0 18 -4 18 -10 0 -5 16 -12 35 -16 19 -3 35 -10 35 -15 0
-5 6 -9 14 -9 7 0 19 -7 26 -15 19 -23 76 -47 97 -41 13 3 24 -4 38 -27 15
-24 29 -33 53 -35 18 -2 42 -12 53 -23 10 -10 32 -19 48 -19 16 0 34 -7 41
-15 7 -9 15 -13 18 -11 2 3 21 -6 41 -19 19 -14 41 -25 48 -25 8 0 21 -4 31
-9 32 -17 125 -51 138 -51 8 0 14 -4 14 -9 0 -5 8 -11 18 -15 9 -3 31 -14 47
-24 17 -9 48 -23 70 -31 22 -7 47 -20 56 -28 9 -7 27 -16 39 -18 13 -3 26 -8
29 -13 3 -5 24 -17 46 -26 22 -10 67 -31 101 -47 33 -16 67 -29 75 -29 8 0 19
-8 26 -18 6 -10 33 -27 59 -37 27 -10 56 -24 65 -31 8 -8 28 -14 43 -14 15 0
42 -11 60 -25 25 -19 45 -25 84 -25 41 0 53 -4 62 -20 7 -14 21 -20 44 -20 19
0 47 -7 62 -15 16 -8 41 -15 57 -15 15 0 27 -4 27 -10 0 -5 7 -10 15 -10 8 0
15 -5 15 -11 0 -6 7 -8 16 -5 10 4 30 -4 50 -19 42 -32 77 -32 119 1 33 25 34
28 31 84 l-4 58 61 51 c34 27 102 91 152 141 49 49 98 93 108 96 10 3 31 18
47 32 17 15 62 52 100 82 39 30 90 71 114 90 23 19 55 44 70 55 15 11 40 30
54 42 15 13 32 23 37 23 6 0 23 14 39 30 16 17 33 29 38 28 10 -4 118 98 118
111 0 4 21 30 48 59 26 28 52 59 58 69 6 10 16 18 23 18 6 0 65 54 131 120
205 205 210 209 232 160 6 -14 15 -25 20 -25 6 0 36 -27 69 -60 32 -33 66 -60
74 -60 8 0 29 -22 46 -50 17 -27 37 -50 44 -50 7 0 26 -20 42 -45 15 -25 32
-45 36 -45 11 0 37 -27 92 -94 26 -33 66 -80 89 -104 22 -24 45 -51 50 -60 5
-9 33 -40 63 -70 29 -30 53 -58 53 -63 0 -5 17 -23 37 -41 20 -18 57 -53 83
-78 41 -39 75 -70 188 -168 69 -60 182 -173 182 -182 0 -5 8 -10 19 -10 10 0
26 -12 36 -26 9 -14 19 -23 22 -20 3 3 18 -8 33 -24 16 -17 31 -30 34 -30 4 0
28 -22 55 -49 27 -27 58 -52 69 -55 11 -4 23 -13 26 -21 3 -9 18 -15 35 -15
21 0 38 -10 61 -36 21 -25 46 -40 78 -49 46 -12 48 -11 66 13 11 14 19 39 18
58 -1 32 0 33 31 27 18 -3 38 -13 45 -22 7 -9 19 -15 27 -13 19 4 95 80 95 95
0 21 71 127 85 127 7 0 28 30 45 66 18 36 38 68 44 70 6 2 23 29 36 59 14 30
30 55 37 55 6 0 15 9 18 20 3 11 12 20 20 20 15 0 75 71 75 89 0 13 118 131
131 131 5 0 9 9 9 19 0 10 12 32 28 49 34 37 82 125 82 152 0 11 28 48 63 83
34 35 71 81 82 102 11 22 34 58 52 81 18 23 33 44 33 48 0 6 56 89 92 135 10
13 18 32 18 42 0 11 6 19 13 20 15 0 46 39 78 99 13 25 29 48 35 52 6 4 26 37
44 74 18 36 50 83 72 104 21 22 38 43 38 48 0 8 105 151 119 162 18 15 51 72
46 80 -4 6 1 13 10 16 9 4 25 23 36 43 11 20 28 50 39 66 22 33 40 72 40 85 0
5 3 10 8 12 4 2 18 23 31 48 14 25 45 65 69 90 25 25 58 72 74 105 40 83 52
102 80 133 32 36 78 105 78 119 0 6 6 13 14 16 8 3 28 33 45 66 17 33 43 80
58 103 37 58 50 79 64 106 7 12 16 22 21 22 4 0 8 6 8 13 0 8 11 19 24 27 14
7 27 24 31 38 3 14 22 43 41 65 19 23 34 46 34 52 0 7 9 20 21 31 12 10 28 32
36 49 9 16 28 41 42 54 14 14 26 30 26 36 0 6 13 24 28 39 15 15 27 33 27 41
0 8 20 36 45 62 41 44 86 105 162 221 31 47 49 53 63 20z"/>
</g>
</svg>
