<?xml version="1.0" standalone="no"?>
<!DOCTYPE svg PUBLIC "-//W3C//DTD SVG 20010904//EN"
 "http://www.w3.org/TR/2001/REC-SVG-20010904/DTD/svg10.dtd">
<svg version="1.0" xmlns="http://www.w3.org/2000/svg"
 width="2547.043651pt" height="2576.374164pt" viewBox="0 0 2547.043651 2576.374164"
 preserveAspectRatio="xMidYMid meet">
<metadata>
Created by potrace 1.15, written by Peter Selinger 2001-2017
</metadata>
<g transform="translate(-188.497148,2754.975534) scale(0.100000,-0.100000)"
fill="#000000" stroke="none">
<path d="M14940 27539 c-52 -12 -320 -18 -320 -6 0 5 -10 6 -22 2 -13 -4 -50
-6 -83 -6 -33 1 -93 -5 -134 -14 -40 -8 -94 -18 -119 -21 -25 -3 -53 -9 -63
-15 -10 -5 -29 -9 -44 -9 -15 0 -24 -4 -20 -10 4 -6 -3 -6 -21 0 -16 6 -31 7
-38 1 -6 -5 -27 -11 -46 -14 -73 -12 -100 -20 -100 -27 0 -12 -79 -17 -83 -5
-2 6 -9 5 -19 -3 -14 -11 -32 -13 -128 -12 -87 1 -188 1 -205 0 -71 -4 -91 -6
-101 -13 -7 -4 -40 -5 -75 -3 -65 4 -139 -10 -139 -26 0 -5 -6 -8 -12 -6 -7 1
-23 -3 -36 -10 -12 -7 -41 -14 -62 -15 -23 -1 -40 -6 -40 -13 0 -16 -46 -28
-91 -25 -26 2 -38 -2 -42 -13 -4 -9 -18 -16 -32 -16 -14 0 -25 -5 -25 -11 0
-5 -4 -8 -9 -5 -5 3 -30 -6 -56 -19 -26 -14 -66 -27 -88 -29 -23 -2 -44 -5
-47 -6 -3 -1 -9 -2 -13 -1 -5 1 -20 -5 -35 -13 -34 -19 -147 -39 -171 -31 -11
3 -22 1 -26 -5 -3 -5 -15 -10 -26 -10 -10 0 -19 -5 -19 -12 0 -6 -3 -8 -7 -5
-3 4 -12 2 -19 -4 -7 -6 -30 -12 -51 -13 -21 -1 -43 -4 -48 -8 -6 -3 -33 -6
-62 -7 -31 0 -64 -8 -85 -20 -18 -10 -66 -24 -105 -31 -40 -6 -73 -16 -73 -22
0 -6 -10 -8 -21 -5 -12 3 -31 0 -43 -8 -12 -8 -50 -16 -84 -19 -64 -6 -146
-29 -169 -48 -7 -6 -19 -8 -28 -5 -8 4 -27 0 -42 -8 -15 -8 -35 -15 -43 -15
-8 0 -30 -9 -47 -20 -19 -11 -33 -15 -33 -9 0 18 -91 4 -102 -15 -5 -8 -25
-18 -46 -21 -20 -4 -60 -17 -89 -31 -28 -13 -59 -24 -67 -24 -8 0 -18 -4 -21
-10 -3 -5 -17 -10 -30 -10 -13 0 -27 -4 -30 -10 -3 -5 -17 -10 -31 -10 -13 0
-24 -4 -24 -10 0 -5 -8 -10 -18 -10 -10 0 -24 -8 -31 -18 -11 -15 -23 -18 -62
-14 -41 4 -49 2 -49 -12 0 -12 -6 -16 -17 -12 -28 8 -173 -39 -173 -56 0 -4
-15 -8 -34 -8 -19 0 -38 -5 -41 -11 -4 -6 -13 -8 -20 -5 -8 3 -19 -2 -25 -10
-7 -8 -21 -14 -31 -14 -13 0 -17 -5 -12 -17 6 -16 4 -16 -9 -5 -14 11 -18 10
-26 -4 -6 -11 -12 -13 -16 -6 -4 6 -13 9 -21 6 -8 -4 -12 -10 -9 -15 3 -5 -3
-9 -13 -9 -10 0 -31 -7 -47 -15 -15 -8 -35 -15 -42 -15 -8 0 -14 -3 -14 -8 0
-10 -54 -37 -102 -52 -21 -6 -38 -18 -38 -26 0 -15 -30 -30 -76 -38 -15 -3
-34 -12 -44 -21 -9 -8 -21 -15 -26 -15 -16 0 -64 -24 -64 -32 0 -5 -12 -8 -26
-8 -15 0 -35 -10 -46 -22 -11 -13 -23 -23 -26 -24 -35 -2 -127 -40 -146 -59
-14 -14 -32 -25 -40 -25 -8 0 -30 -8 -48 -19 -18 -10 -58 -27 -88 -37 -64 -21
-82 -32 -73 -46 3 -6 0 -9 -8 -6 -14 5 -127 -44 -138 -59 -11 -16 -108 -73
-123 -73 -8 0 -23 -9 -33 -20 -10 -11 -24 -20 -32 -20 -7 0 -13 -5 -13 -11 0
-15 -31 -38 -51 -39 -9 0 -28 -9 -42 -20 -14 -11 -31 -20 -39 -20 -7 0 -19 -9
-26 -20 -7 -11 -19 -20 -27 -20 -8 0 -15 -7 -15 -16 0 -8 -5 -12 -10 -9 -17
11 -70 -18 -70 -38 0 -12 -10 -20 -30 -24 -17 -3 -35 -14 -41 -25 -6 -11 -24
-24 -40 -30 -16 -5 -29 -16 -29 -24 0 -8 -9 -14 -20 -14 -11 0 -20 -5 -20 -10
0 -6 -8 -14 -17 -17 -33 -12 -81 -54 -107 -93 -14 -22 -33 -40 -42 -40 -8 0
-27 -13 -41 -30 -13 -16 -32 -30 -40 -30 -8 0 -35 -20 -60 -45 -24 -25 -49
-45 -56 -45 -7 0 -17 -10 -22 -22 -7 -15 -20 -23 -40 -25 -16 -1 -35 -9 -41
-18 -6 -8 -16 -15 -22 -15 -6 0 -27 -9 -46 -21 -19 -11 -40 -18 -46 -14 -5 3
-10 1 -10 -5 0 -6 -4 -8 -10 -5 -14 9 -13 -8 2 -23 9 -9 7 -12 -11 -12 -12 0
-30 -9 -39 -20 -21 -25 -169 -110 -193 -110 -16 0 -60 -32 -104 -77 -11 -12
-33 -25 -47 -28 -15 -4 -29 -13 -32 -21 -3 -8 -17 -14 -31 -14 -14 0 -25 -6
-25 -13 0 -12 -64 -47 -85 -47 -4 0 -23 -13 -42 -30 -18 -16 -38 -30 -43 -30
-5 0 -11 -8 -14 -18 -4 -11 -19 -25 -34 -32 -33 -17 -72 -50 -72 -62 0 -17
-70 -78 -90 -78 -13 0 -20 -7 -20 -20 0 -11 -4 -20 -10 -20 -6 0 -18 -8 -28
-18 -10 -10 -36 -26 -57 -36 -22 -11 -64 -36 -94 -57 -30 -22 -58 -39 -63 -39
-4 0 -24 -18 -44 -39 -21 -24 -41 -38 -50 -34 -10 4 -12 0 -7 -13 4 -12 3 -15
-6 -10 -8 5 -20 0 -32 -13 -11 -12 -24 -21 -29 -21 -6 0 -10 -7 -10 -15 0 -9
-9 -15 -25 -15 -17 0 -48 -22 -100 -72 -41 -40 -75 -78 -75 -85 0 -7 -6 -13
-13 -13 -15 0 -52 -26 -76 -54 -31 -36 -96 -96 -104 -96 -10 0 -21 -11 -71
-72 -21 -26 -46 -50 -57 -53 -10 -4 -19 -13 -19 -20 0 -8 -9 -19 -20 -25 -15
-8 -19 -17 -14 -34 4 -18 0 -25 -23 -35 -28 -12 -83 -80 -83 -104 0 -12 -41
-40 -92 -64 -16 -6 -28 -16 -28 -22 0 -5 -14 -25 -30 -43 -17 -18 -33 -43 -36
-55 -3 -12 -18 -28 -33 -34 -16 -7 -35 -28 -44 -48 -17 -38 -117 -151 -133
-151 -11 0 -64 -58 -64 -69 0 -4 -10 -13 -22 -20 -25 -13 -88 -93 -88 -111 0
-6 -11 -15 -25 -20 -14 -5 -25 -14 -25 -20 0 -5 -6 -10 -14 -10 -8 0 -20 -13
-27 -29 -9 -20 -23 -31 -42 -35 -23 -5 -27 -10 -22 -25 4 -14 0 -23 -15 -31
-29 -16 -60 -47 -60 -62 -1 -17 -20 -40 -45 -54 -11 -7 -19 -19 -17 -28 2 -9
-4 -16 -13 -16 -8 0 -15 -5 -15 -11 0 -6 -18 -27 -40 -48 -22 -20 -40 -42 -40
-48 0 -5 -16 -30 -35 -54 -19 -24 -37 -57 -41 -72 -3 -16 -13 -31 -22 -34 -24
-9 -32 -23 -32 -56 0 -26 -41 -73 -122 -143 -23 -20 -48 -54 -48 -65 0 -7 -8
-19 -18 -28 -9 -9 -28 -35 -40 -59 -13 -24 -35 -55 -49 -70 -13 -14 -27 -39
-30 -54 -3 -15 -12 -28 -19 -28 -8 0 -14 -5 -14 -10 0 -6 -13 -24 -30 -42 -17
-17 -30 -37 -30 -45 0 -13 -85 -103 -97 -103 -8 0 -33 -29 -33 -38 0 -5 -6
-15 -14 -21 -8 -7 -13 -19 -12 -29 2 -9 -10 -23 -28 -33 -18 -10 -30 -23 -28
-33 3 -17 -40 -66 -57 -66 -6 0 -17 -12 -25 -27 -8 -16 -26 -39 -40 -52 -14
-14 -26 -30 -26 -37 0 -7 -16 -16 -35 -20 -20 -3 -35 -12 -35 -20 0 -8 -9 -19
-20 -26 -11 -7 -20 -21 -20 -31 0 -10 -9 -21 -21 -25 -18 -7 -19 -10 -5 -21
14 -12 14 -16 1 -42 -8 -15 -15 -34 -15 -42 0 -7 -6 -19 -12 -25 -7 -7 -13
-16 -14 -20 -3 -28 -18 -61 -30 -66 -7 -3 -11 -12 -8 -21 4 -9 1 -15 -7 -15
-27 -1 -69 -48 -69 -77 0 -19 -10 -36 -30 -53 -17 -14 -30 -34 -30 -48 0 -12
-4 -30 -9 -40 -5 -9 -15 -36 -21 -59 -9 -31 -19 -43 -37 -48 -16 -4 -23 -11
-20 -19 3 -8 -3 -16 -15 -19 -13 -4 -19 -11 -15 -20 3 -8 -1 -23 -8 -34 -8
-10 -15 -25 -15 -33 0 -8 -15 -31 -33 -51 -18 -20 -31 -41 -29 -48 2 -7 -5
-15 -17 -18 -12 -3 -24 -16 -27 -28 -3 -13 -14 -31 -25 -41 -10 -9 -19 -25
-19 -34 0 -10 -7 -23 -15 -30 -8 -7 -15 -18 -15 -24 0 -6 -9 -17 -21 -24 -13
-8 -18 -19 -14 -31 3 -10 -1 -24 -10 -31 -8 -7 -15 -19 -15 -26 0 -8 -4 -14
-10 -14 -5 0 -13 -12 -16 -27 -4 -16 -16 -43 -26 -61 -10 -18 -18 -42 -18 -53
0 -13 -8 -23 -21 -26 -12 -4 -18 -11 -15 -20 3 -8 -9 -29 -28 -49 -30 -31 -86
-128 -86 -149 0 -4 -11 -21 -25 -37 -17 -20 -23 -37 -20 -49 4 -11 0 -26 -9
-35 -9 -8 -16 -26 -16 -40 0 -13 -4 -24 -10 -24 -5 0 -10 -10 -10 -23 0 -12
-9 -28 -21 -35 -13 -8 -18 -19 -15 -29 4 -10 -3 -27 -19 -43 -20 -20 -28 -42
-32 -84 -3 -31 -12 -61 -19 -67 -8 -6 -14 -24 -14 -40 0 -16 -4 -29 -10 -29
-5 0 -10 -10 -10 -23 0 -13 -4 -27 -8 -32 -5 -6 -15 -36 -22 -68 -7 -31 -19
-62 -27 -68 -7 -6 -10 -15 -7 -20 2 -5 -5 -30 -17 -56 -12 -26 -22 -60 -21
-74 1 -15 -4 -32 -12 -38 -8 -7 -12 -19 -9 -27 3 -8 -4 -25 -15 -37 -11 -12
-23 -38 -27 -57 -4 -19 -11 -40 -16 -46 -5 -6 -13 -44 -18 -84 -5 -40 -13 -76
-18 -79 -4 -3 -9 -28 -11 -56 -1 -31 -8 -54 -18 -62 -9 -6 -13 -17 -9 -23 4
-6 -7 -29 -24 -50 -17 -21 -31 -43 -31 -47 0 -5 -12 -21 -26 -36 -17 -18 -23
-34 -19 -47 7 -23 -30 -64 -48 -53 -9 5 -9 3 -1 -8 13 -16 1 -59 -16 -59 -6 0
-8 -5 -5 -10 4 -6 2 -16 -3 -23 -6 -7 -11 -15 -11 -19 -2 -11 -11 -40 -22 -66
-5 -13 -9 -32 -9 -42 0 -11 -4 -20 -10 -20 -14 0 -31 -71 -33 -143 -2 -34 -6
-67 -10 -74 -4 -6 -3 -14 3 -18 15 -10 12 -25 -6 -25 -12 0 -14 -7 -9 -30 5
-21 0 -43 -16 -75 -19 -37 -21 -50 -12 -65 10 -14 9 -21 -1 -29 -21 -17 -33
-114 -40 -331 -7 -182 -12 -220 -35 -265 -12 -21 -21 -57 -21 -80 0 -22 -7
-49 -15 -59 -8 -11 -15 -28 -15 -37 0 -10 -5 -19 -12 -21 -6 -2 -11 -24 -11
-51 1 -26 -3 -47 -8 -47 -5 0 -9 -12 -9 -28 0 -15 -4 -43 -10 -61 -6 -23 -6
-39 1 -47 7 -8 7 -14 -1 -19 -5 -3 -10 -15 -10 -26 0 -10 -4 -19 -10 -19 -5 0
-10 -16 -10 -35 0 -20 -7 -47 -16 -60 -9 -14 -14 -31 -11 -40 4 -8 2 -17 -3
-20 -6 -4 -10 -15 -10 -26 0 -10 -6 -19 -13 -19 -8 0 -12 -16 -11 -50 0 -28
-3 -53 -8 -56 -4 -3 -8 -14 -8 -25 0 -10 -4 -19 -10 -19 -5 0 -10 -13 -10 -30
0 -16 -6 -49 -14 -72 -8 -24 -17 -97 -21 -163 -3 -66 -8 -121 -11 -124 -2 -2
1 -10 6 -16 13 -15 14 -46 4 -110 -9 -57 -9 -71 -4 -140 4 -42 1 -51 -15 -60
-13 -6 -19 -18 -17 -32 2 -13 -1 -23 -6 -23 -11 0 -13 -88 -1 -95 8 -6 3 -84
-8 -115 -3 -8 -7 -40 -9 -70 -2 -30 -6 -67 -9 -82 -2 -15 0 -30 5 -33 5 -3 -2
-25 -17 -48 -15 -23 -28 -61 -30 -85 -2 -24 -9 -54 -16 -65 -13 -25 -16 -47
-20 -162 -2 -44 -6 -86 -11 -93 -4 -7 -3 -18 2 -25 14 -17 13 -81 -2 -152 -16
-71 -14 -174 3 -184 6 -4 9 -15 5 -24 -3 -9 -2 -22 3 -29 4 -7 9 -22 9 -33 1
-11 5 -53 8 -93 3 -40 10 -80 14 -89 5 -9 7 -24 5 -34 -3 -11 0 -19 7 -19 7 0
10 -7 6 -16 -3 -9 -3 -21 1 -27 4 -6 5 -32 4 -58 -1 -30 4 -60 15 -81 10 -18
16 -50 15 -70 -1 -22 3 -38 9 -38 6 0 8 -5 5 -10 -4 -6 0 -21 7 -33 8 -12 15
-35 16 -51 1 -16 7 -35 13 -42 9 -10 8 -22 -1 -44 -9 -22 -9 -34 -2 -43 6 -7
12 -36 14 -65 2 -28 8 -54 15 -56 13 -5 7 -114 -8 -131 -12 -13 -11 -52 2 -60
6 -5 4 -12 -8 -21 -17 -13 -17 -15 0 -28 9 -7 17 -21 17 -30 0 -9 5 -16 11
-16 6 0 9 -9 6 -19 -3 -11 1 -22 8 -25 7 -2 16 -22 20 -43 5 -21 9 -43 11 -50
1 -6 9 -22 17 -34 17 -24 14 -75 -9 -126 -13 -28 -20 -93 -27 -233 -1 -25 -5
-50 -9 -56 -9 -14 0 -24 21 -24 12 0 16 -11 17 -49 0 -31 8 -62 22 -85 12 -21
22 -54 22 -75 0 -22 6 -44 15 -51 10 -8 15 -31 15 -64 0 -35 6 -59 20 -76 11
-14 20 -32 20 -41 0 -9 7 -30 15 -45 8 -16 15 -39 15 -50 0 -12 9 -33 20 -47
11 -14 23 -40 26 -59 3 -18 8 -40 11 -48 4 -8 7 -19 7 -25 1 -5 8 -23 15 -40
23 -52 29 -69 42 -130 7 -33 17 -63 22 -66 5 -4 11 -28 14 -55 3 -29 15 -62
29 -81 13 -17 24 -41 24 -52 0 -12 5 -21 10 -21 6 0 10 -13 10 -29 0 -17 5
-33 10 -36 6 -3 10 -15 10 -26 0 -11 7 -19 16 -19 8 0 13 -4 10 -9 -3 -5 1
-14 9 -21 9 -7 13 -20 10 -29 -3 -10 2 -26 10 -37 8 -10 15 -27 15 -37 0 -10
16 -33 35 -51 29 -28 35 -40 35 -74 0 -42 17 -92 31 -92 21 0 39 -35 39 -75 0
-30 6 -50 19 -62 10 -10 21 -30 25 -46 3 -15 11 -27 16 -27 6 0 10 -22 10 -49
0 -35 4 -51 16 -55 8 -3 12 -11 9 -17 -4 -5 0 -18 8 -27 8 -9 19 -37 25 -62
11 -50 44 -142 53 -150 3 -3 9 -26 13 -51 5 -35 13 -49 31 -59 14 -7 25 -19
25 -25 0 -7 7 -18 15 -25 8 -7 15 -23 15 -36 0 -14 8 -25 20 -29 11 -4 18 -11
14 -16 -3 -6 1 -18 10 -28 9 -10 15 -26 14 -37 -3 -27 13 -94 22 -94 5 0 14
-17 20 -37 7 -21 26 -66 43 -101 17 -35 30 -70 30 -79 0 -9 9 -25 19 -35 10
-10 16 -23 13 -27 -2 -5 2 -14 10 -21 8 -7 15 -19 15 -26 0 -8 11 -31 24 -52
14 -20 28 -50 32 -65 5 -21 11 -26 25 -22 16 5 19 1 19 -24 0 -16 4 -32 10
-36 5 -3 6 -13 3 -22 -4 -11 -3 -14 5 -9 8 5 12 -1 12 -18 0 -14 4 -26 8 -26
5 0 7 -13 4 -30 -3 -18 0 -30 7 -30 6 0 11 -9 11 -20 0 -21 16 -55 38 -78 6
-7 12 -20 12 -28 0 -7 9 -19 20 -26 11 -7 20 -19 20 -26 0 -8 8 -26 18 -40 10
-15 22 -35 25 -45 4 -10 20 -25 37 -35 16 -9 30 -22 30 -29 0 -19 34 -87 47
-96 7 -4 13 -14 13 -21 0 -7 14 -25 30 -40 17 -15 28 -31 25 -36 -3 -5 3 -24
14 -44 11 -19 23 -51 27 -70 3 -20 10 -39 15 -42 5 -3 9 -14 9 -24 0 -10 8
-25 18 -32 19 -14 52 -77 52 -100 0 -8 9 -23 20 -33 11 -10 20 -23 20 -30 0
-6 8 -20 18 -31 10 -10 21 -26 25 -34 17 -35 65 -107 93 -142 12 -15 25 -41
29 -58 4 -16 15 -36 24 -42 10 -7 21 -23 25 -35 4 -13 12 -23 17 -23 5 0 9 -6
9 -14 0 -17 32 -80 43 -84 4 -2 7 -9 7 -15 0 -6 6 -18 13 -26 7 -9 19 -33 26
-55 7 -21 19 -45 27 -55 53 -61 74 -90 74 -103 0 -8 11 -24 25 -36 14 -13 25
-33 25 -47 0 -16 6 -25 15 -25 9 0 15 -10 15 -26 0 -14 11 -40 25 -58 14 -18
25 -44 25 -58 0 -14 9 -33 20 -43 11 -10 20 -25 20 -34 0 -9 11 -29 25 -45 14
-17 24 -35 21 -41 -2 -7 6 -24 19 -38 14 -14 27 -36 30 -50 4 -13 26 -44 51
-68 27 -28 44 -53 44 -68 0 -13 3 -22 6 -18 8 8 54 -34 54 -50 0 -7 5 -13 10
-13 6 0 10 -6 10 -12 1 -7 21 -35 45 -62 25 -28 45 -56 45 -63 0 -8 7 -16 15
-19 8 -4 15 -14 15 -24 0 -10 11 -27 25 -37 13 -10 39 -44 58 -75 19 -32 37
-55 41 -51 3 3 6 0 6 -9 0 -8 11 -25 25 -38 14 -13 25 -30 25 -38 0 -14 56
-72 70 -72 4 0 11 -8 14 -17 14 -38 35 -65 75 -94 22 -17 48 -45 56 -63 20
-42 102 -129 115 -121 6 3 10 1 10 -6 0 -11 95 -110 135 -139 22 -16 65 -74
65 -87 0 -4 15 -25 33 -45 17 -21 48 -56 67 -78 19 -23 50 -58 67 -78 18 -20
33 -40 33 -44 0 -4 16 -22 35 -41 19 -19 35 -39 35 -44 0 -15 80 -93 94 -93
15 0 67 -48 82 -75 6 -11 18 -20 27 -20 8 0 34 -19 56 -42 31 -31 46 -40 62
-36 19 5 21 3 17 -20 -4 -19 -1 -27 9 -27 7 0 23 -20 35 -45 12 -25 26 -45 32
-45 17 0 77 -52 86 -75 5 -12 21 -26 36 -29 16 -4 34 -16 41 -26 7 -10 31 -29
53 -41 22 -13 40 -27 40 -31 0 -5 4 -7 9 -4 5 3 25 -5 45 -19 20 -14 46 -25
56 -25 11 0 20 -4 20 -8 0 -11 148 -122 164 -122 7 0 25 -10 39 -23 67 -57 82
-65 101 -55 14 8 17 7 12 -1 -11 -17 11 -40 32 -34 10 2 33 -11 57 -32 23 -20
47 -34 57 -31 9 2 27 -7 39 -20 12 -13 28 -24 36 -24 7 0 13 -7 13 -15 0 -8
20 -24 45 -35 25 -11 45 -25 45 -30 0 -6 13 -10 28 -10 16 0 37 -8 48 -19 11
-10 31 -22 45 -26 25 -7 68 -25 135 -56 22 -10 45 -19 51 -19 6 0 27 -14 48
-30 21 -17 45 -28 53 -25 7 3 26 -4 42 -15 15 -11 37 -20 48 -20 12 0 24 -5
27 -10 3 -6 14 -10 25 -10 10 0 20 -7 24 -15 3 -8 17 -15 31 -15 14 0 25 -4
25 -9 0 -5 13 -14 30 -21 16 -7 30 -16 30 -21 0 -5 11 -11 25 -15 13 -3 29
-12 36 -20 6 -8 15 -11 20 -8 5 2 28 -4 51 -14 39 -18 90 -33 103 -32 14 2 66
-36 71 -52 3 -10 16 -21 29 -24 13 -3 26 -12 29 -20 3 -8 12 -14 19 -14 8 0
20 -7 27 -15 7 -8 17 -12 22 -9 6 4 20 -5 32 -18 11 -14 34 -28 50 -32 17 -4
43 -17 60 -29 40 -29 67 -45 87 -53 8 -3 23 -18 32 -34 17 -29 49 -46 65 -36
5 3 19 -6 30 -19 15 -18 32 -25 56 -25 21 0 36 -6 40 -15 3 -8 12 -12 21 -9 8
3 15 1 15 -5 0 -6 7 -11 15 -11 8 0 22 -11 31 -25 9 -14 21 -25 28 -25 12 0
107 -49 116 -59 18 -22 84 -62 112 -68 18 -3 37 -12 41 -20 4 -7 16 -13 26
-13 10 0 30 -9 43 -20 14 -10 28 -17 30 -14 10 9 58 -19 63 -37 5 -14 11 -16
30 -9 18 7 27 4 41 -11 9 -10 24 -19 32 -19 7 0 26 -8 40 -19 15 -10 44 -21
65 -25 20 -4 37 -11 37 -16 0 -6 11 -10 24 -10 28 0 76 -40 76 -63 0 -11 11
-15 43 -15 54 1 107 -11 107 -24 0 -6 7 -8 15 -4 9 3 15 0 15 -9 0 -8 5 -15
12 -15 6 0 19 -6 27 -13 9 -7 52 -23 96 -36 44 -12 86 -30 93 -39 7 -9 22 -16
33 -14 10 2 30 -5 43 -15 22 -18 80 -38 181 -63 22 -5 52 -21 67 -35 15 -14
32 -25 38 -25 6 0 8 -5 5 -10 -3 -6 4 -10 18 -10 13 0 34 -11 47 -25 13 -14
33 -25 45 -25 12 0 34 -13 50 -30 19 -19 39 -30 57 -30 15 0 28 -4 28 -10 0
-5 9 -10 19 -10 11 0 22 -4 25 -8 3 -5 19 -7 36 -4 17 2 40 -2 53 -11 13 -8
35 -13 50 -10 16 3 27 1 27 -6 0 -6 7 -11 16 -11 16 0 54 -36 54 -50 0 -9 55
-23 95 -24 17 -1 48 -12 70 -25 22 -13 55 -25 73 -26 32 -2 48 -14 163 -118
17 -15 35 -24 41 -21 6 4 16 1 22 -7 15 -20 54 -36 101 -44 22 -4 48 -14 57
-22 15 -14 20 -14 34 -2 21 17 54 13 70 -8 7 -11 29 -16 70 -17 45 -1 59 -4
59 -16 0 -19 36 -30 53 -17 8 7 18 5 30 -7 21 -18 42 -21 42 -6 0 7 51 9 140
7 114 -2 142 -5 156 -19 15 -15 19 -15 41 -1 22 14 42 15 186 4 89 -7 174 -17
189 -21 44 -14 63 9 62 72 -1 29 -6 77 -12 106 -8 40 -8 67 1 105 6 29 12 81
13 117 1 36 5 78 9 93 6 21 1 41 -19 79 -25 47 -26 56 -20 147 9 125 9 96 0
406 -4 149 -11 271 -15 273 -4 1 -5 24 -1 49 4 26 3 62 -2 80 -5 19 -6 48 -3
64 4 16 2 35 -3 42 -11 15 -29 227 -37 442 -4 88 -10 183 -16 210 -22 119 -24
210 -16 710 4 270 3 405 -5 440 -13 58 -15 396 -3 470 15 90 4 504 -16 628 -6
37 -8 74 -6 82 3 7 2 28 -3 47 -10 38 -19 170 -26 373 -3 77 -6 160 -8 185 -2
25 -6 103 -10 175 -4 71 -12 138 -18 149 -6 11 -11 54 -12 96 -1 41 -5 81 -10
88 -4 8 -4 18 0 22 5 5 6 46 2 92 -4 46 -8 170 -9 275 0 106 -5 193 -9 193 -5
0 -9 28 -9 63 0 34 -4 123 -8 197 -4 74 -7 203 -7 285 1 83 2 219 3 303 1 84
-2 164 -5 178 -3 13 -3 32 2 41 4 10 6 42 5 71 -2 32 2 59 10 68 8 10 13 45
14 87 1 40 6 90 12 112 6 22 15 69 18 104 4 35 14 79 21 97 10 24 12 49 6 94
-7 47 -5 67 6 88 8 15 16 52 18 82 8 104 3 692 -6 716 -5 13 -21 26 -35 30
-14 3 -34 17 -44 30 -10 13 -25 24 -33 24 -8 0 -19 5 -25 11 -9 9 -30 9 -85 1
-46 -8 -87 -9 -110 -3 -20 5 -40 6 -43 3 -8 -8 -92 -19 -260 -34 -131 -12
-411 -15 -625 -7 -94 3 -117 1 -127 -11 -11 -13 -14 -13 -22 0 -8 12 -20 12
-88 1 -43 -7 -125 -14 -183 -16 -58 -2 -168 -9 -245 -15 -130 -10 -510 -22
-770 -24 -60 -1 -114 -4 -120 -7 -5 -3 -23 -4 -40 -3 -16 1 -60 3 -98 4 -74 3
-69 -2 -81 84 -3 21 -15 49 -27 62 -22 23 -27 63 -14 104 3 10 -1 32 -9 49 -9
16 -15 51 -15 78 3 115 -5 255 -15 259 -7 3 -12 42 -14 96 -1 51 -8 98 -14
106 -7 8 -11 47 -11 98 1 46 -3 86 -8 90 -5 3 -6 10 -2 17 4 6 6 28 4 48 -1
21 3 40 9 44 8 5 7 12 -2 22 -8 10 -14 48 -15 92 -3 77 -6 104 -16 131 -3 8
-8 47 -11 85 -3 39 -10 102 -16 142 -21 157 -14 542 16 833 3 30 7 73 9 95 2
22 7 54 10 71 4 18 2 41 -4 52 -6 10 -7 23 -3 27 4 3 8 61 8 128 1 67 3 177 4
244 1 67 -1 126 -4 132 -4 6 -5 15 -2 19 11 19 9 196 -2 200 -17 5 -15 29 3
39 12 7 13 16 5 43 -5 19 -9 62 -8 97 1 34 -4 68 -10 76 -8 10 -9 30 -2 73 6
32 10 82 11 109 1 58 21 121 38 117 7 -1 22 3 34 10 16 10 88 13 269 13 135 0
246 -2 246 -5 -1 -17 4 -20 20 -11 11 6 33 6 53 2 19 -4 45 -4 58 0 12 5 73
11 134 13 62 3 125 9 140 15 35 14 54 14 59 2 3 -9 196 -18 543 -26 55 -1 105
1 110 5 19 15 200 30 425 36 627 16 673 19 726 45 46 22 65 24 81 8 9 -9 28
-9 75 1 50 11 70 21 99 51 21 22 47 39 65 41 40 4 59 43 38 76 -9 13 -15 42
-14 65 1 23 1 81 1 130 -1 70 -4 87 -16 87 -17 0 -20 11 -5 26 13 13 15 335 2
360 -6 11 -7 26 -2 34 4 8 4 67 -1 130 -4 63 -10 172 -12 242 -3 70 -8 132
-12 139 -4 6 -2 15 5 19 9 6 9 28 0 101 -8 67 -8 137 0 248 5 84 7 157 4 162
-3 6 -1 16 6 24 8 10 8 19 0 34 -8 15 -8 27 0 42 7 12 10 56 9 105 -2 48 1 88
7 92 11 8 12 72 1 90 -5 7 -4 18 1 25 6 7 13 26 15 42 3 19 10 29 18 27 8 -2
4 7 -9 21 -18 19 -20 26 -9 30 9 3 15 21 15 52 1 25 4 50 7 54 9 16 17 112 16
213 0 54 4 100 9 103 6 4 8 58 5 133 -6 129 7 294 23 316 5 6 12 33 16 60 3
27 11 55 17 63 7 8 9 29 5 53 -4 24 -2 49 5 61 7 15 8 24 1 31 -7 7 -7 19 -1
35 5 13 9 45 10 71 0 26 7 72 15 102 8 30 15 66 17 80 2 14 11 42 20 64 9 21
17 44 17 52 0 7 5 16 10 19 6 3 10 28 10 55 0 27 5 52 10 55 6 4 7 11 4 17 -4
6 -1 13 5 17 7 4 13 32 15 62 3 54 17 102 33 112 5 3 10 22 11 42 2 21 14 52
27 69 16 21 21 36 15 42 -9 9 16 93 33 110 4 4 7 18 7 32 0 13 6 45 14 71 13
41 43 144 61 209 4 13 2 22 -4 22 -6 0 -11 5 -11 11 0 5 4 8 9 4 10 -5 25 12
26 30 1 6 4 17 7 25 4 8 9 36 13 63 4 29 14 55 28 67 11 11 23 33 25 48 2 15
11 35 20 45 8 10 17 27 19 37 2 11 4 28 6 39 2 10 11 30 20 44 9 15 17 34 17
43 0 9 14 34 31 55 17 22 28 46 25 54 -3 8 -1 15 3 15 12 0 61 88 61 109 0 9
16 34 36 55 19 22 33 45 30 51 -2 7 16 33 40 59 24 26 44 56 44 66 0 10 16 32
35 49 19 17 35 34 35 39 0 5 9 19 20 32 11 13 20 31 20 42 0 10 4 18 9 18 5 0
12 8 15 18 4 9 20 33 37 52 17 19 37 47 45 63 8 15 19 27 24 27 6 0 10 8 10
18 0 9 13 32 28 51 37 46 174 186 181 186 4 0 17 10 31 23 13 12 44 32 69 44
25 12 51 29 57 37 7 9 73 79 148 156 75 77 136 145 136 150 0 6 16 24 35 40
19 17 49 42 67 57 17 15 40 30 50 34 10 3 18 12 18 20 0 8 6 14 13 13 32 -4
55 3 75 21 12 12 22 18 22 14 0 -3 8 4 18 15 11 14 29 23 50 23 18 1 36 6 40
12 4 6 32 24 62 39 30 15 69 36 85 46 17 10 42 21 56 24 14 4 37 17 50 29 39
36 79 59 89 53 6 -4 25 10 44 29 24 26 42 36 64 36 30 0 55 10 103 43 15 10
43 18 63 19 20 1 39 5 42 10 3 4 17 8 32 8 33 0 98 22 114 38 7 7 29 12 49 12
20 0 42 7 49 15 7 8 19 15 26 15 8 0 28 14 46 30 17 17 41 30 52 30 12 0 32 7
44 16 13 9 31 13 42 9 14 -5 20 -2 20 9 0 10 9 16 25 16 14 0 34 9 45 20 25
25 52 27 43 3 -5 -15 -3 -16 8 -5 7 6 26 12 41 12 15 0 28 5 28 10 0 6 18 10
41 10 22 0 49 5 59 10 11 6 39 11 62 13 24 1 49 7 55 14 7 6 22 9 32 6 11 -3
51 4 88 15 38 11 115 23 173 26 160 9 222 16 254 26 16 6 51 10 77 10 26 0 50
4 54 9 7 12 118 2 126 -11 9 -14 14 -14 31 -1 10 8 34 11 69 8 87 -7 189 -8
264 -1 74 7 175 34 175 46 0 5 26 8 58 8 297 0 464 5 557 17 135 17 296 10
340 -15 21 -12 37 -15 53 -9 14 6 31 5 43 -2 18 -9 337 -4 348 6 2 3 12 0 22
-6 42 -22 346 -14 404 11 60 26 239 38 305 20 19 -6 55 -10 78 -10 24 0 58 -6
75 -14 18 -8 57 -17 87 -20 120 -12 160 -29 160 -66 0 -10 7 -21 16 -24 10 -4
13 -13 9 -26 -3 -11 -2 -20 3 -20 5 0 19 -8 30 -19 17 -14 22 -29 21 -67 -1
-27 -4 -60 -8 -74 -4 -14 -3 -40 2 -59 6 -22 5 -37 -2 -44 -6 -6 -11 -24 -11
-40 0 -15 -4 -37 -10 -47 -5 -10 -12 -49 -15 -87 -3 -37 -10 -102 -15 -143 -6
-41 -9 -122 -8 -180 1 -59 -2 -111 -6 -118 -3 -6 -9 -55 -12 -109 -3 -54 -10
-100 -15 -101 -5 -2 -6 -8 -3 -14 6 -9 8 -257 4 -446 -1 -49 3 -89 9 -96 8 -9
10 -50 8 -115 -2 -56 0 -104 4 -107 13 -8 11 -31 -4 -46 -8 -8 -14 -35 -13
-68 0 -30 -4 -66 -8 -80 -11 -32 -26 -135 -27 -180 -1 -19 -6 -44 -12 -55 -12
-23 -18 -93 -8 -100 4 -2 4 -34 1 -72 -4 -37 -5 -115 -3 -173 5 -125 12 -476
14 -645 0 -81 -3 -121 -11 -123 -13 -5 -167 23 -222 40 -21 6 -38 15 -38 20 0
5 -9 7 -20 3 -15 -5 -23 0 -31 19 -9 20 -19 25 -44 24 -17 -1 -38 3 -46 8 -20
12 -109 22 -109 12 0 -4 -24 -8 -52 -8 -29 0 -72 -5 -95 -10 -25 -6 -67 -6
-101 -2 -42 6 -65 5 -76 -4 -9 -6 -42 -15 -72 -19 -31 -4 -71 -13 -90 -21 -19
-8 -34 -12 -34 -9 0 3 -17 -2 -37 -9 -21 -8 -86 -16 -144 -19 -58 -3 -115 -9
-125 -15 -12 -6 -41 -6 -84 0 -73 10 -303 4 -455 -12 -55 -6 -127 -13 -160
-16 -33 -2 -71 -9 -85 -14 -14 -5 -47 -12 -75 -14 -91 -9 -190 -33 -223 -53
-19 -12 -42 -18 -53 -16 -12 3 -19 0 -19 -8 0 -13 -104 -61 -163 -75 -15 -3
-32 -15 -38 -25 -5 -11 -18 -19 -29 -19 -26 0 -171 -115 -311 -246 -20 -19
-41 -34 -47 -34 -6 0 -24 -16 -39 -36 -15 -19 -46 -44 -68 -54 -38 -18 -75
-51 -75 -68 0 -4 -9 -13 -20 -20 -11 -7 -20 -19 -20 -27 0 -8 -4 -15 -8 -15
-5 0 -15 -12 -23 -27 -8 -16 -22 -34 -32 -42 -10 -7 -16 -20 -13 -28 4 -9 -1
-17 -11 -20 -19 -5 -73 -82 -73 -104 0 -8 -7 -22 -15 -33 -8 -10 -19 -44 -26
-75 -6 -31 -16 -59 -23 -63 -6 -4 -12 -17 -12 -28 -1 -23 -18 -84 -38 -135 -6
-16 -10 -34 -8 -38 1 -4 -4 -18 -13 -30 -8 -12 -15 -38 -15 -58 0 -20 -7 -42
-15 -49 -8 -7 -13 -15 -11 -19 6 -10 -15 -104 -26 -118 -5 -6 -12 -38 -15 -70
-3 -32 -12 -67 -19 -78 -8 -11 -14 -29 -14 -41 0 -12 -7 -39 -16 -59 -15 -37
-23 -104 -30 -255 -7 -174 -14 -248 -24 -300 -7 -31 -9 -75 -5 -100 4 -25 9
-63 11 -85 2 -22 8 -76 14 -120 6 -44 11 -111 11 -150 1 -38 4 -74 7 -80 10
-16 10 -177 0 -204 -7 -19 -1 -122 16 -291 1 -14 10 -41 18 -60 21 -46 31
-104 29 -164 -1 -30 3 -52 11 -57 9 -6 13 -71 14 -254 2 -226 4 -248 21 -261
10 -7 26 -14 36 -14 9 0 26 -5 37 -12 15 -10 26 -10 53 0 18 7 41 12 51 12 10
0 24 6 31 14 16 16 149 41 165 31 6 -3 36 -1 66 5 45 10 62 9 81 -1 19 -10 26
-10 32 -1 12 20 90 27 216 21 157 -8 221 -15 270 -28 22 -6 55 -11 74 -11 19
0 42 -7 51 -15 18 -16 140 -37 140 -24 0 16 76 28 195 33 66 2 132 7 148 11
19 5 27 3 27 -6 0 -9 13 -14 38 -15 38 -2 66 -7 92 -17 45 -18 161 -23 490
-21 209 1 379 -3 397 -8 42 -12 330 -17 362 -6 14 5 28 5 34 -1 5 -5 21 -6 36
-2 42 12 121 1 121 -15 0 -12 4 -12 20 -4 11 6 32 10 47 8 15 -1 38 2 51 6 17
6 22 4 22 -11 0 -12 3 -14 8 -6 4 7 28 11 57 9 l50 -2 3 -55 c2 -29 -1 -70 -7
-89 -5 -19 -14 -70 -20 -113 -6 -43 -16 -88 -23 -100 -7 -12 -11 -26 -9 -32 6
-19 -22 -150 -36 -166 -7 -8 -13 -24 -13 -34 0 -19 -18 -95 -46 -191 -7 -28
-14 -63 -14 -78 0 -15 -5 -37 -12 -49 -6 -12 -11 -35 -10 -50 1 -15 -4 -38
-13 -50 -8 -12 -15 -36 -15 -54 0 -20 -8 -41 -20 -53 -12 -12 -20 -33 -20 -52
0 -17 -7 -39 -15 -48 -9 -10 -25 -50 -36 -91 -11 -40 -24 -78 -29 -84 -4 -5
-11 -32 -14 -60 -6 -44 -18 -99 -33 -145 -3 -8 -6 -35 -8 -60 -4 -71 -16 -171
-26 -220 -5 -25 -16 -88 -24 -140 -9 -52 -20 -102 -25 -112 -5 -9 -10 -35 -12
-58 -1 -22 -8 -46 -15 -52 -7 -6 -13 -20 -13 -32 0 -12 -16 -61 -35 -109 -18
-48 -31 -95 -28 -103 3 -8 1 -20 -5 -27 -24 -28 -54 -151 -57 -229 -1 -46 -8
-99 -14 -118 -6 -19 -11 -56 -11 -82 0 -48 -16 -138 -31 -173 -4 -11 -13 -51
-19 -90 -31 -187 -38 -222 -50 -247 -12 -26 -18 -28 -74 -30 -102 -3 -122 -5
-152 -13 -16 -5 -38 -10 -49 -12 -31 -5 -304 -14 -365 -12 -206 8 -487 -7
-540 -28 -23 -10 -55 -12 -205 -18 -143 -5 -166 -6 -187 -5 -7 1 -60 -4 -118
-10 -73 -7 -132 -7 -195 0 -84 10 -154 8 -215 -5 -14 -3 -72 -7 -130 -10 -225
-8 -360 -23 -388 -41 -38 -26 -51 -25 -68 1 -19 29 -36 33 -94 23 -101 -18
-134 -55 -127 -141 3 -37 11 -53 44 -85 38 -38 40 -43 45 -118 4 -44 6 -176 6
-294 0 -118 4 -223 7 -233 4 -9 4 -34 1 -55 -8 -44 -9 -74 -8 -207 1 -55 1
-116 0 -135 -3 -74 6 -255 12 -265 7 -9 3 -72 -16 -292 -5 -56 -3 -87 4 -96
15 -17 17 -118 8 -282 -11 -182 -12 -282 -4 -337 4 -26 9 -111 12 -190 11
-291 25 -480 37 -494 8 -10 9 -25 0 -58 -17 -68 -15 -325 3 -345 11 -12 12
-27 6 -61 -11 -56 -12 -219 -1 -283 4 -26 4 -71 0 -99 -5 -29 -4 -58 1 -68 6
-11 5 -21 -1 -27 -7 -7 -12 -158 -16 -429 -8 -748 -7 -1004 7 -1028 9 -17 9
-33 1 -60 -5 -21 -8 -43 -6 -49 7 -22 18 -250 17 -347 -4 -327 -4 -345 20
-422 6 -20 8 -51 5 -70 -4 -29 2 -86 18 -158 12 -56 9 -235 -4 -259 -9 -17
-10 -29 -3 -45 6 -11 14 -41 18 -66 10 -63 13 -600 4 -626 -18 -47 -10 -509
12 -714 6 -58 12 -150 14 -205 2 -55 6 -173 9 -263 3 -89 2 -184 -2 -210 -5
-26 -7 -71 -5 -99 3 -43 7 -53 22 -53 11 0 25 -8 32 -19 15 -22 71 -32 112
-20 16 5 46 9 65 10 20 2 43 6 52 10 9 5 30 4 48 -1 19 -5 33 -5 37 1 3 6 12
8 20 5 7 -3 16 -1 19 5 4 5 12 9 18 7 23 -4 77 14 85 27 4 8 28 16 52 19 71 8
114 18 130 31 8 7 46 15 85 19 38 4 77 14 86 22 8 7 21 14 27 14 7 0 12 5 12
10 0 6 6 10 14 10 8 0 16 6 18 12 3 7 18 11 36 10 18 -1 43 5 56 14 18 11 30
13 43 6 13 -7 25 -7 38 1 11 6 47 12 80 14 33 2 83 10 110 18 68 21 149 36
208 40 26 2 54 9 62 15 8 7 15 9 15 5 0 -4 15 4 33 18 18 14 54 28 80 32 34 5
53 15 69 35 12 15 27 26 34 23 14 -5 124 25 141 39 7 6 49 12 93 13 45 2 87 8
94 14 7 6 15 9 18 6 3 -3 45 4 93 16 49 11 96 18 107 16 10 -3 18 0 18 7 0 7
6 13 13 14 49 6 108 21 120 30 8 7 17 9 20 5 4 -3 7 -2 7 4 0 6 28 13 62 17
43 4 67 12 80 26 10 11 30 20 43 20 13 0 27 5 30 11 4 5 17 14 28 20 12 5 29
13 37 17 40 23 136 71 244 122 21 10 44 16 51 14 7 -3 15 2 18 10 4 9 18 16
33 16 14 0 54 15 87 33 34 18 69 32 77 30 9 -2 31 12 50 32 19 19 40 35 47 35
7 0 13 5 13 10 0 6 6 10 13 10 8 0 27 11 43 25 16 14 40 28 54 32 14 3 36 15
50 25 51 39 101 68 117 68 9 0 27 9 39 21 12 11 38 22 59 25 20 2 44 11 52 19
8 8 23 15 34 15 10 0 19 4 19 9 0 5 15 16 34 25 19 9 44 28 54 41 11 14 26 25
34 25 8 0 32 18 53 40 21 22 48 40 58 40 11 0 30 11 43 25 13 14 26 25 30 25
5 0 19 10 33 23 15 13 45 30 69 37 23 7 40 15 37 18 -8 8 45 32 71 32 12 0 26
5 29 10 3 6 14 10 24 10 23 0 75 26 91 45 7 8 19 15 26 15 8 0 14 4 14 9 0 5
13 11 30 14 16 4 37 15 46 26 9 11 22 17 29 15 6 -3 18 2 25 11 7 8 18 15 25
15 7 0 36 16 65 35 29 19 59 35 69 35 9 0 31 16 48 35 18 19 39 35 48 35 18 0
85 40 103 63 7 8 31 18 52 22 31 5 41 12 49 36 5 16 15 29 20 29 12 0 194 150
224 183 9 11 17 25 17 32 0 13 86 95 99 95 10 0 71 76 71 88 0 5 11 19 25 32
14 13 25 33 25 45 0 15 11 26 40 39 43 19 90 62 90 83 0 7 4 13 10 13 5 0 35
25 66 55 32 30 62 55 68 55 6 0 21 16 34 36 12 19 34 39 47 44 14 5 37 31 52
60 17 29 35 50 45 50 10 0 25 11 34 25 9 14 20 25 25 25 16 0 79 68 79 84 0
20 39 56 62 56 21 0 98 78 98 100 0 21 68 96 84 92 7 -1 21 9 30 23 9 14 25
25 36 25 11 0 20 3 20 8 0 15 88 104 106 106 11 2 29 17 41 35 39 57 68 91 78
91 6 0 21 15 34 33 14 17 55 61 91 97 37 36 73 75 79 88 6 12 18 22 26 22 8 0
15 7 15 15 0 8 4 15 8 15 5 0 29 18 53 41 24 23 54 45 67 50 12 5 28 21 35 36
6 16 20 37 29 48 51 58 78 94 78 102 0 5 19 29 43 54 38 40 116 133 142 167 6
8 20 25 33 38 12 14 22 29 22 34 0 6 7 10 15 10 8 0 26 17 39 38 13 20 32 45
42 55 71 66 174 170 174 173 0 3 19 30 43 61 73 97 99 137 109 164 5 15 23 38
40 50 28 22 136 141 191 212 12 15 32 38 45 51 12 13 34 45 48 71 14 27 38 64
55 84 16 19 29 44 29 53 0 27 20 58 71 109 26 25 50 56 53 67 4 12 20 31 36
42 16 11 31 33 35 49 3 15 21 43 40 61 19 19 35 39 35 46 0 7 14 17 30 23 17
5 30 14 30 19 0 5 11 15 25 22 14 7 25 18 25 24 1 14 46 66 58 66 16 0 59 55
87 113 16 31 32 57 35 57 4 0 13 20 19 45 6 25 16 45 21 45 6 0 10 5 10 12 0
6 11 25 24 42 13 17 26 41 30 54 11 32 87 166 97 170 5 2 9 8 9 14 0 6 14 27
30 48 17 21 30 41 30 44 0 4 17 30 38 59 54 76 112 179 112 203 0 5 9 20 20
34 11 14 20 34 20 45 0 11 7 30 15 42 8 12 19 52 24 89 7 44 16 73 27 81 9 7
18 25 19 40 1 15 12 46 24 68 11 22 21 44 21 48 0 5 11 22 25 39 14 16 25 36
25 44 0 14 20 55 31 64 13 10 49 81 49 95 0 8 4 15 9 15 5 0 12 15 16 33 4 17
13 46 20 62 7 17 15 48 18 70 3 22 13 58 23 80 10 25 16 60 15 92 -1 29 1 58
5 65 4 7 9 23 10 36 2 13 10 34 18 47 9 13 19 43 22 67 4 24 10 48 14 53 4 6
15 36 24 67 10 32 21 60 26 63 4 3 11 33 15 66 4 34 16 77 27 95 11 19 18 40
15 48 -3 8 1 22 8 33 8 10 15 32 15 48 0 17 4 35 9 40 5 6 11 28 14 50 13 96
31 171 43 186 9 10 12 27 8 45 -4 22 0 34 15 48 12 11 21 24 21 30 0 6 6 22
13 36 7 14 19 45 27 70 7 25 17 49 22 55 4 5 8 27 8 50 0 45 23 173 40 225 6
19 13 44 15 55 3 11 8 34 11 50 3 17 10 35 14 40 9 11 29 95 41 170 4 28 10
61 13 75 2 14 10 59 17 100 7 41 16 77 21 80 4 3 17 46 29 95 12 50 25 98 30
107 5 10 9 40 9 68 0 27 7 70 16 96 9 26 14 58 11 72 -3 14 4 43 14 66 10 23
19 59 19 80 0 22 9 58 20 80 21 46 44 169 35 196 -3 10 0 20 8 23 12 5 29 65
32 117 1 8 5 70 9 137 4 68 12 125 17 128 4 3 6 27 4 52 -4 33 -1 51 11 64 9
10 15 35 15 65 -1 60 8 154 16 174 4 8 7 17 8 20 1 3 4 12 7 20 22 58 38 294
31 460 -6 127 3 546 11 559 14 22 15 72 3 92 -8 13 -8 31 1 67 13 56 6 316
-10 345 -5 10 -6 28 -2 40 15 47 17 116 8 267 -4 79 -14 152 -45 352 -12 71
-11 79 6 98 18 20 18 21 -3 36 -14 10 -22 26 -22 44 0 16 -4 31 -9 34 -5 3 -9
26 -9 52 -1 31 -7 50 -18 59 -15 11 -16 16 -4 44 8 21 10 45 5 74 -4 23 -9 85
-10 137 0 52 -5 103 -9 113 -5 10 -4 37 2 60 13 57 12 95 -3 100 -11 5 -24 42
-86 244 -23 77 -39 204 -43 353 -1 63 -5 122 -8 130 -3 8 -14 60 -23 115 -9
55 -24 115 -32 133 -8 19 -12 44 -9 57 3 13 1 27 -4 30 -6 4 -8 10 -6 14 7 11
-23 143 -36 159 -7 7 -15 41 -19 74 -4 38 -14 68 -27 81 -11 12 -23 38 -27 57
-11 50 -13 153 -5 169 5 9 -2 30 -16 53 -13 21 -24 49 -24 63 0 14 -4 25 -10
25 -5 0 -10 11 -10 24 0 14 -13 51 -30 83 -16 31 -30 61 -30 66 0 4 -10 21
-22 37 -17 23 -19 32 -9 44 8 10 9 16 1 21 -5 3 -10 17 -10 31 0 14 -5 35 -12
47 -6 12 -12 53 -13 92 -3 77 -13 144 -25 160 -13 17 -18 98 -7 116 9 14 5 22
-21 44 -19 16 -32 36 -32 50 0 12 -9 34 -20 48 -12 15 -26 52 -31 84 -6 32
-15 72 -20 89 -5 17 -9 49 -9 72 0 22 -4 44 -10 47 -5 3 -10 28 -10 56 0 27
-4 49 -10 49 -5 0 -10 9 -10 19 0 11 -4 23 -10 26 -5 3 -10 15 -10 25 0 10 -6
31 -14 47 -8 15 -22 48 -31 73 -30 79 -59 133 -93 169 -29 29 -33 39 -27 65
10 44 8 68 -7 77 -7 4 -9 11 -5 15 13 14 -16 34 -48 34 -41 0 -56 18 -63 78
-3 26 -9 50 -14 53 -5 3 -11 23 -15 45 -3 21 -14 49 -24 62 -11 14 -20 51 -25
99 -6 70 -10 80 -40 110 -19 18 -34 38 -34 45 -1 17 -24 48 -36 48 -5 0 -18
28 -28 63 -10 34 -23 68 -30 76 -6 8 -12 27 -13 43 -2 15 -4 40 -5 56 -2 15
-11 35 -20 45 -10 9 -18 23 -18 31 0 7 -9 16 -20 19 -12 3 -20 14 -20 25 0 11
-13 34 -30 52 -16 18 -30 35 -30 38 0 4 -7 26 -16 49 -12 29 -23 43 -35 43
-12 0 -19 7 -19 19 0 10 -7 32 -15 47 -8 16 -15 39 -15 52 0 13 -6 22 -16 22
-8 0 -13 4 -10 9 3 5 -2 8 -12 7 -13 -1 -16 6 -14 32 2 17 -1 32 -7 32 -6 0
-15 19 -22 42 -10 41 -59 100 -89 110 -8 2 -15 12 -15 20 0 15 -61 88 -87 105
-7 4 -18 17 -24 28 -6 11 -20 24 -32 30 -12 5 -22 17 -22 26 0 19 -41 49 -65
49 -9 0 -13 5 -10 11 4 6 -13 32 -38 57 -25 26 -73 76 -107 111 -33 35 -72 86
-86 113 -16 32 -30 48 -39 44 -20 -7 -38 20 -37 54 0 17 -5 30 -11 30 -11 1
-87 108 -87 122 0 3 -20 28 -45 54 -25 27 -45 55 -45 62 0 6 -4 12 -9 12 -10
0 -27 39 -23 53 1 4 -3 6 -10 5 -6 -2 -16 6 -22 18 -10 19 -34 42 -110 105
-16 13 -34 30 -40 37 -6 7 -19 21 -29 30 -9 9 -27 28 -40 41 -12 14 -30 32
-40 40 -10 9 -46 44 -81 79 -35 34 -69 62 -75 62 -16 0 -71 60 -71 78 0 15
-32 48 -65 68 -10 6 -23 19 -29 30 -15 25 -28 35 -43 29 -7 -2 -13 2 -13 10 0
8 -12 20 -27 27 -18 9 -31 25 -38 50 -13 47 -100 151 -190 226 -15 13 -15 16
2 34 18 20 18 20 -23 14 -39 -7 -42 -6 -62 28 -12 20 -28 36 -35 36 -8 0 -20
7 -27 15 -7 8 -16 12 -21 9 -5 -3 -9 6 -9 19 0 24 -13 36 -93 83 -10 7 -33 26
-51 43 -17 17 -36 31 -40 31 -4 0 -40 29 -78 65 -39 36 -76 65 -82 65 -6 0
-24 18 -39 40 -16 22 -33 40 -38 40 -5 0 -14 12 -19 26 -6 14 -19 28 -30 31
-11 3 -20 10 -20 17 -1 12 -63 46 -85 46 -8 0 -17 11 -21 25 -4 16 -13 25 -25
25 -10 0 -19 5 -19 10 0 6 -12 10 -26 10 -16 0 -41 14 -67 40 -23 22 -54 52
-69 66 -16 15 -28 33 -28 40 0 8 -6 14 -13 14 -7 0 -29 18 -47 40 -18 22 -40
40 -47 40 -7 0 -13 4 -13 10 0 19 -72 90 -91 90 -11 0 -23 10 -29 24 -11 31
-112 132 -139 141 -12 4 -21 15 -21 26 0 13 -10 24 -30 30 -16 6 -30 15 -30
20 0 5 -5 9 -10 9 -6 0 -28 11 -50 25 -22 14 -45 25 -52 25 -6 0 -26 15 -43
33 -17 17 -55 52 -84 77 -86 74 -131 122 -131 142 0 5 -19 17 -42 27 -24 10
-54 30 -67 45 -14 14 -32 26 -42 26 -10 0 -21 5 -24 10 -3 6 -14 10 -24 10 -9
0 -30 20 -45 45 -16 25 -35 45 -42 45 -8 0 -23 9 -34 20 -11 11 -27 20 -36 20
-9 0 -14 6 -11 13 5 14 -101 107 -121 107 -6 0 -18 7 -27 16 -22 22 -84 64
-94 64 -5 0 -11 9 -14 20 -4 16 -14 20 -46 20 -23 0 -41 4 -41 8 0 15 -79 92
-95 92 -8 0 -30 16 -47 36 -18 20 -41 40 -52 45 -12 6 -41 21 -66 34 -26 14
-54 21 -67 18 -18 -4 -23 -1 -23 16 0 17 -6 21 -29 21 -17 0 -33 5 -36 10 -4
6 -11 8 -16 4 -6 -3 -21 5 -35 19 -14 14 -40 33 -59 42 -19 9 -35 20 -35 25 0
4 -9 6 -20 3 -13 -4 -29 2 -43 15 -12 11 -51 34 -87 51 -69 33 -102 57 -112
81 -7 18 -37 33 -94 49 -22 6 -50 21 -62 33 -12 13 -38 40 -57 61 -19 20 -43
37 -53 37 -10 0 -27 9 -37 20 -10 11 -26 20 -35 20 -9 0 -20 4 -25 9 -6 5 -30
11 -55 12 -25 2 -56 9 -70 16 -14 7 -38 15 -54 18 -15 3 -26 9 -22 12 6 7 -52
63 -66 63 -5 0 -31 16 -59 35 -29 20 -64 35 -79 35 -16 0 -35 7 -44 15 -8 8
-22 15 -30 15 -9 0 -16 6 -16 13 0 8 -31 17 -92 25 -51 7 -95 18 -99 24 -4 6
-11 8 -17 4 -6 -3 -17 2 -24 12 -7 10 -27 19 -45 20 -23 2 -47 16 -85 52 -41
39 -64 52 -106 62 -30 6 -56 18 -59 25 -3 7 -13 13 -23 13 -10 0 -31 5 -47 12
-15 6 -37 13 -48 15 -74 11 -96 16 -101 24 -3 5 -34 9 -68 9 -39 0 -82 7 -112
19 -27 11 -76 27 -109 36 -156 43 -201 57 -217 65 -10 6 -34 10 -53 10 -19 0
-35 3 -35 8 0 4 -25 8 -56 9 -31 2 -70 9 -87 18 -16 8 -38 15 -47 15 -9 0 -35
9 -59 21 -24 11 -74 23 -112 26 -38 3 -69 9 -69 14 0 4 -19 10 -42 14 -24 4
-50 13 -58 20 -8 7 -46 15 -83 18 -38 3 -74 10 -80 15 -7 5 -24 12 -39 16 -16
3 -28 10 -28 15 0 4 -28 9 -62 10 -34 1 -68 7 -75 12 -7 6 -30 9 -50 7 -27 -3
-46 1 -65 15 -15 11 -35 17 -46 15 -21 -6 -111 21 -134 39 -7 5 -26 9 -43 8
-16 0 -37 5 -47 13 -9 7 -31 15 -50 16 -18 2 -43 8 -54 14 -12 6 -63 14 -115
17 -123 7 -139 9 -139 16 0 8 -69 23 -88 20 -8 -1 -19 3 -26 9 -8 5 -21 7 -30
4 -10 -4 -25 1 -36 11 -11 10 -39 20 -62 22 -55 6 -92 11 -98 13 -3 1 -15 1
-26 1 -12 -1 -24 5 -28 14 -3 10 -12 15 -21 11 -8 -3 -17 -1 -20 4 -3 4 -25 8
-50 8 -43 -1 -92 16 -107 36 -3 5 -23 8 -45 7 -97 -6 -193 -5 -193 2 0 8 -33
2 -103 -19 -45 -14 -113 -25 -147 -24 -61 1 -96 -3 -107 -12 -9 -7 -17 -5 -30
7 -12 13 -28 16 -59 12 -23 -2 -47 0 -52 5 -5 5 -36 11 -68 12 -33 2 -72 8
-87 14 -33 14 -91 16 -83 3 3 -5 -4 -11 -17 -15 -35 -9 -47 -7 -47 9 0 17 0
17 -50 4z m190 -13 c0 -3 -4 -8 -10 -11 -5 -3 -10 -1 -10 4 0 6 5 11 10 11 6
0 10 -2 10 -4z m-40 -156 c0 -5 -4 -10 -10 -10 -5 0 -10 5 -10 10 0 6 5 10 10
10 6 0 10 -4 10 -10z m935 0 c-3 -5 -11 -10 -16 -10 -6 0 -7 5 -4 10 3 6 11
10 16 10 6 0 7 -4 4 -10z m-2755 -10 c0 -5 -5 -10 -11 -10 -5 0 -7 5 -4 10 3
6 8 10 11 10 2 0 4 -4 4 -10z m586 -2 c4 -5 -1 -8 -12 -8 -10 0 -30 -3 -44 -7
-21 -5 -23 -4 -13 8 13 16 56 19 69 7z m1009 -8 c3 -5 15 -10 26 -10 10 0 19
-5 19 -11 0 -7 10 -9 27 -5 17 5 29 3 34 -6 7 -10 9 -10 9 0 0 6 7 12 15 12 8
0 15 4 15 10 0 11 59 2 78 -13 8 -6 12 -6 12 2 0 7 4 10 9 6 6 -3 70 -8 143
-11 157 -6 186 -8 195 -17 13 -14 71 -7 77 9 4 11 10 13 19 7 19 -15 158 -9
171 8 19 24 241 28 305 5 24 -9 59 -16 78 -16 20 0 42 -8 55 -19 20 -20 100
-43 144 -43 13 0 24 -4 24 -8 0 -12 74 -18 88 -7 9 7 12 4 12 -13 0 -20 4 -22
33 -17 26 4 36 1 46 -14 6 -11 20 -19 29 -17 9 1 23 -1 31 -6 16 -10 53 -16
139 -21 35 -2 70 -9 78 -16 11 -9 18 -8 31 2 13 11 17 11 20 2 3 -7 20 -13 38
-13 19 0 37 -4 40 -10 3 -5 16 -10 28 -10 29 0 117 -32 117 -42 0 -4 16 -8 35
-8 20 0 50 -8 68 -17 34 -18 113 -33 187 -37 25 -2 57 -10 70 -18 14 -9 55
-18 93 -21 37 -2 74 -10 82 -17 8 -6 19 -9 24 -6 5 4 12 2 16 -4 3 -5 31 -8
61 -7 40 3 54 0 54 -10 0 -8 13 -13 35 -13 19 0 35 -4 35 -8 0 -10 110 -42
144 -42 14 0 27 -4 31 -9 5 -9 78 -27 143 -35 18 -3 47 -9 65 -15 17 -6 54
-12 81 -15 26 -2 51 -8 55 -14 3 -6 23 -13 44 -17 20 -4 37 -11 37 -16 0 -5
17 -9 38 -9 21 0 43 -5 48 -10 6 -6 32 -12 58 -14 26 -2 53 -9 59 -15 6 -6 18
-11 27 -11 8 0 28 -7 43 -15 15 -8 25 -10 22 -5 -12 19 14 10 34 -11 11 -12
24 -18 30 -15 12 8 95 -12 135 -32 16 -8 50 -16 75 -18 63 -6 104 -15 117 -28
45 -42 105 -76 135 -76 10 0 20 -4 23 -9 3 -5 18 -12 33 -16 15 -3 30 -10 33
-13 19 -25 70 -40 125 -37 37 2 54 1 45 -5 -12 -8 -12 -10 2 -15 9 -4 22 -5
29 -4 8 1 36 -7 62 -19 27 -12 57 -22 67 -22 9 0 23 -7 30 -15 7 -8 17 -15 23
-15 5 0 30 -16 53 -36 24 -19 44 -33 44 -29 0 7 109 -51 130 -70 9 -8 24 -14
35 -14 47 -1 85 -15 111 -42 15 -16 38 -29 50 -29 13 0 43 -19 69 -42 53 -48
82 -67 106 -68 9 0 19 -7 23 -15 3 -8 17 -15 30 -15 18 0 24 -4 20 -15 -4 -9
0 -15 10 -15 9 0 16 -4 16 -10 0 -5 7 -10 16 -10 9 0 25 -11 36 -25 11 -14 25
-25 32 -25 7 0 21 -9 31 -20 10 -11 26 -20 35 -20 10 0 23 -7 30 -15 14 -17
73 -47 86 -44 14 3 48 -13 60 -30 6 -8 18 -12 28 -8 9 4 15 3 11 -2 -3 -5 8
-15 25 -23 16 -7 30 -16 30 -20 0 -5 6 -8 13 -8 21 0 77 -30 77 -41 0 -5 7 -9
15 -9 8 0 32 -9 52 -20 21 -11 43 -20 49 -20 6 0 20 -11 32 -25 12 -14 29 -25
37 -25 8 0 15 -5 15 -11 0 -5 14 -15 30 -20 17 -6 30 -15 30 -20 0 -6 15 -16
33 -24 17 -7 52 -33 77 -57 25 -25 64 -57 87 -72 23 -16 45 -37 48 -47 4 -11
11 -19 17 -19 5 0 23 -11 40 -25 16 -14 38 -25 48 -25 13 0 17 -5 14 -15 -4
-10 0 -15 12 -15 11 0 51 -30 89 -65 39 -36 74 -65 78 -65 4 0 20 -11 35 -25
15 -14 30 -25 35 -25 4 0 32 -18 62 -40 30 -22 59 -40 64 -40 6 0 8 -7 5 -15
-4 -10 0 -15 11 -15 10 0 31 -12 46 -27 16 -16 37 -35 47 -44 9 -9 24 -25 34
-35 9 -10 30 -31 47 -46 17 -15 31 -34 31 -41 0 -7 10 -13 21 -14 12 -1 30
-11 41 -22 10 -12 25 -21 34 -21 8 0 17 -7 21 -16 3 -8 12 -13 19 -10 8 3 23
-8 36 -24 12 -17 30 -30 40 -30 10 0 18 -4 18 -10 0 -5 6 -10 13 -10 6 0 34
-23 61 -50 27 -28 52 -50 57 -50 5 0 9 -9 9 -20 0 -12 7 -20 18 -20 9 0 25
-15 35 -32 10 -18 49 -67 87 -108 39 -41 70 -78 70 -82 0 -5 6 -8 13 -8 16 0
126 -72 158 -103 13 -13 37 -27 53 -31 15 -4 38 -19 50 -33 11 -14 35 -39 51
-55 17 -16 50 -49 75 -72 25 -24 62 -56 84 -70 50 -34 156 -132 156 -146 0 -5
8 -10 18 -10 19 0 101 -55 115 -77 4 -7 13 -13 18 -13 6 0 16 -6 23 -12 45
-44 87 -78 95 -78 6 0 19 -19 30 -42 11 -24 29 -49 40 -56 12 -7 21 -18 21
-26 0 -8 16 -28 35 -45 19 -17 35 -33 35 -36 0 -3 25 -30 56 -60 30 -30 53
-59 49 -64 -3 -6 8 -17 25 -26 16 -8 33 -27 36 -40 3 -14 12 -25 19 -25 7 0
28 -16 47 -35 20 -22 40 -34 50 -31 14 3 16 0 9 -13 -11 -20 -4 -34 26 -50 13
-6 26 -23 29 -36 3 -14 10 -23 14 -20 4 3 13 -2 20 -10 7 -8 19 -15 26 -15 8
0 20 -11 26 -25 6 -14 16 -25 22 -25 16 -1 110 -90 125 -119 7 -13 29 -38 48
-55 33 -28 66 -62 190 -188 24 -24 54 -52 68 -63 14 -11 25 -24 25 -28 0 -5
11 -23 24 -40 13 -18 31 -50 41 -72 9 -22 27 -51 40 -65 14 -14 35 -46 48 -71
12 -25 39 -60 59 -78 21 -18 40 -42 44 -54 4 -12 19 -33 34 -47 14 -14 30 -33
33 -42 4 -10 13 -18 21 -18 8 0 18 -9 21 -20 3 -11 11 -20 16 -20 14 0 46 -35
54 -59 3 -12 12 -21 19 -21 7 0 33 -25 57 -55 24 -30 49 -55 56 -55 7 0 13 -6
13 -14 0 -14 61 -86 73 -86 10 0 77 -72 77 -82 0 -6 15 -28 34 -49 19 -22 39
-60 45 -85 6 -25 18 -47 26 -50 8 -4 15 -13 15 -22 0 -8 15 -28 32 -42 27 -23
30 -30 20 -42 -10 -12 -8 -18 9 -33 11 -11 27 -35 37 -54 9 -20 27 -44 40 -55
15 -12 21 -24 17 -37 -4 -12 2 -30 15 -47 29 -36 50 -88 50 -123 0 -16 5 -29
10 -29 6 0 10 -8 10 -18 0 -11 9 -27 20 -37 11 -10 20 -28 20 -40 0 -13 7 -28
15 -35 8 -7 15 -23 15 -36 0 -13 5 -24 10 -24 6 0 10 -6 10 -14 0 -18 51 -96
62 -96 5 0 7 -4 3 -9 -3 -5 -1 -12 5 -16 5 -3 10 -14 10 -25 0 -10 6 -20 14
-23 10 -4 14 -20 13 -51 -1 -32 4 -51 18 -66 12 -14 18 -33 17 -56 -3 -44 14
-108 34 -128 8 -9 18 -33 21 -53 4 -23 18 -48 35 -65 18 -16 26 -32 22 -42 -4
-10 0 -18 10 -22 9 -3 16 -13 16 -22 0 -8 8 -24 17 -34 10 -11 17 -34 16 -53
-1 -19 3 -38 8 -41 6 -3 5 -11 -2 -20 -9 -11 -5 -20 19 -44 19 -19 28 -36 25
-48 -3 -14 2 -21 19 -27 13 -4 27 -7 32 -6 16 3 56 -30 56 -46 0 -9 4 -30 10
-47 5 -17 19 -85 31 -151 11 -66 25 -124 29 -129 5 -5 5 -17 0 -26 -6 -11 -6
-29 0 -46 5 -16 12 -50 15 -76 4 -27 10 -48 15 -48 5 0 20 -11 33 -25 19 -21
27 -49 41 -143 10 -64 22 -137 28 -162 5 -25 14 -76 20 -115 5 -38 15 -76 21
-84 13 -15 38 -79 39 -99 1 -7 11 -23 22 -35 12 -13 27 -47 34 -77 6 -30 13
-60 15 -66 2 -7 9 -19 15 -27 9 -10 11 -31 6 -66 -4 -33 -3 -51 4 -51 6 0 13
-26 17 -57 3 -32 10 -76 15 -98 6 -22 12 -56 14 -75 4 -33 35 -148 57 -215 28
-82 55 -229 69 -380 7 -66 17 -126 23 -133 7 -9 8 -19 1 -30 -16 -29 -7 -197
13 -252 3 -8 7 -26 9 -40 2 -14 8 -26 14 -28 5 -2 10 -14 10 -26 0 -12 4 -26
8 -31 5 -6 17 -44 27 -85 10 -41 24 -87 31 -102 8 -15 14 -49 14 -77 0 -27 5
-53 10 -56 6 -4 8 -35 5 -79 -3 -45 -1 -84 6 -102 13 -33 18 -154 7 -154 -14
0 -8 -98 8 -145 8 -25 12 -55 8 -67 -3 -12 -1 -24 6 -28 6 -4 14 -36 17 -71 2
-35 8 -73 13 -84 4 -11 13 -82 20 -157 6 -75 13 -156 16 -180 16 -168 22 -568
10 -783 -4 -71 -11 -233 -16 -360 -5 -126 -10 -241 -11 -255 -1 -14 1 -51 4
-82 3 -32 2 -58 -2 -58 -5 0 -9 -42 -10 -92 0 -51 -5 -109 -11 -128 -5 -19
-10 -47 -10 -62 0 -16 -4 -28 -8 -28 -8 0 -32 -162 -32 -212 0 -16 -4 -28 -10
-28 -5 0 -10 -18 -10 -39 0 -22 -5 -43 -11 -47 -7 -4 -9 -25 -5 -58 4 -33 2
-60 -7 -76 -7 -14 -14 -65 -15 -114 -2 -49 -6 -94 -9 -99 -3 -6 -7 -39 -9 -75
-1 -35 -6 -67 -12 -71 -6 -3 -10 -27 -9 -53 2 -35 -3 -52 -19 -70 -15 -17 -22
-38 -23 -78 -1 -30 -6 -57 -10 -60 -19 -12 -31 -52 -30 -97 0 -26 -4 -73 -11
-103 -6 -30 -15 -83 -21 -118 -5 -34 -23 -86 -38 -115 -16 -28 -26 -58 -24
-65 8 -21 -16 -143 -37 -187 -10 -22 -21 -73 -25 -113 -7 -83 -19 -122 -52
-174 -23 -38 -25 -55 -23 -194 1 -47 -2 -63 -14 -67 -9 -4 -16 -17 -16 -30 0
-25 -31 -129 -48 -163 -5 -11 -16 -32 -24 -49 -9 -16 -18 -42 -22 -57 -3 -16
-11 -28 -16 -28 -6 0 -10 -29 -10 -64 0 -46 -5 -69 -16 -81 -9 -9 -18 -37 -20
-64 -2 -27 -10 -68 -19 -92 -8 -24 -15 -65 -15 -90 0 -29 -6 -51 -15 -59 -22
-18 -45 -70 -51 -114 -2 -22 -10 -46 -17 -54 -6 -8 -10 -28 -9 -46 3 -25 -20
-101 -55 -186 -3 -8 -7 -30 -9 -49 -2 -19 -7 -37 -11 -40 -18 -13 -43 -121
-43 -184 0 -53 -3 -67 -15 -67 -15 0 -21 -16 -28 -88 -3 -23 -13 -55 -23 -70
-10 -15 -24 -40 -30 -57 -7 -16 -18 -46 -25 -65 -8 -19 -29 -62 -47 -95 -18
-33 -37 -78 -41 -100 -11 -55 -28 -95 -41 -95 -5 0 -10 -6 -10 -13 0 -7 -9
-29 -20 -50 -11 -20 -20 -44 -20 -52 0 -14 -39 -121 -63 -172 -6 -13 -17 -23
-24 -23 -15 0 -43 -57 -43 -87 0 -10 -9 -24 -20 -31 -11 -7 -20 -21 -20 -32 0
-11 -4 -20 -10 -20 -5 0 -10 -6 -10 -13 0 -7 -8 -22 -18 -33 -9 -10 -29 -44
-44 -74 -14 -31 -36 -64 -47 -74 -12 -11 -21 -25 -21 -33 0 -7 -8 -21 -18 -31
-10 -10 -28 -42 -41 -72 -13 -30 -30 -64 -37 -75 -8 -11 -14 -25 -14 -32 0
-19 -53 -92 -67 -93 -7 0 -13 -9 -13 -21 0 -24 -56 -99 -74 -99 -7 0 -24 -19
-39 -43 -15 -23 -36 -49 -47 -57 -11 -8 -20 -18 -20 -22 0 -10 -28 -44 -62
-76 -15 -13 -30 -38 -34 -55 -7 -35 -27 -59 -45 -55 -7 2 -17 -6 -23 -17 -12
-22 -28 -41 -87 -105 -21 -23 -39 -48 -39 -55 0 -7 -9 -15 -20 -18 -13 -3 -20
-14 -20 -30 0 -16 -15 -41 -41 -68 -22 -23 -43 -55 -46 -71 -3 -16 -23 -45
-44 -65 -22 -21 -39 -45 -39 -55 0 -10 -6 -18 -13 -18 -14 0 -62 -58 -62 -75
0 -15 -99 -115 -113 -115 -7 0 -12 -9 -12 -19 0 -11 -16 -32 -35 -47 -25 -18
-35 -34 -35 -53 0 -15 -9 -33 -20 -41 -11 -8 -20 -20 -20 -27 0 -6 -7 -16 -15
-20 -8 -5 -25 -28 -37 -52 -13 -24 -32 -49 -43 -55 -29 -17 -45 -29 -63 -50
-42 -49 -129 -134 -145 -143 -10 -5 -24 -27 -32 -49 -7 -21 -21 -43 -32 -49
-10 -5 -22 -16 -26 -23 -12 -18 -166 -200 -204 -240 -18 -19 -35 -43 -38 -53
-4 -11 -31 -45 -62 -77 -30 -31 -59 -67 -64 -80 -5 -13 -13 -21 -18 -17 -12 7
-151 -133 -151 -151 0 -8 -5 -14 -12 -14 -12 0 -108 -97 -108 -109 0 -4 -11
-18 -25 -31 -14 -13 -25 -29 -25 -36 0 -6 -20 -27 -45 -45 -24 -19 -45 -38
-45 -44 0 -10 -84 -99 -112 -120 -7 -5 -26 -17 -43 -25 -36 -18 -79 -59 -88
-82 -3 -10 -11 -18 -17 -18 -5 0 -10 -7 -10 -15 0 -8 -3 -15 -7 -15 -5 0 -17
-14 -28 -30 -11 -16 -25 -30 -30 -30 -6 0 -29 -17 -52 -37 -23 -21 -51 -44
-62 -52 -11 -8 -22 -23 -24 -33 -3 -10 -13 -21 -23 -25 -9 -3 -38 -28 -64 -55
-25 -26 -50 -48 -54 -48 -4 0 -13 -6 -20 -13 -8 -6 -25 -22 -40 -34 -14 -13
-26 -30 -26 -38 0 -8 -4 -15 -8 -15 -12 0 -92 -75 -92 -86 0 -13 -55 -69 -130
-134 -80 -69 -107 -97 -128 -132 -9 -16 -21 -28 -26 -28 -14 0 -116 -102 -116
-115 0 -18 -202 -222 -227 -229 -12 -4 -34 -21 -50 -39 -16 -18 -41 -40 -56
-50 -15 -9 -27 -24 -27 -32 0 -9 -10 -15 -22 -15 -13 -1 -39 -14 -58 -30 -19
-17 -40 -30 -47 -30 -7 0 -13 -4 -13 -10 0 -5 -6 -10 -13 -10 -8 0 -24 -9 -37
-20 -13 -11 -34 -20 -47 -20 -12 0 -23 -4 -23 -9 0 -5 -15 -16 -32 -26 -57
-29 -79 -42 -91 -54 -6 -6 -21 -11 -32 -11 -12 0 -30 -9 -40 -20 -22 -24 -71
-50 -96 -50 -10 0 -21 -5 -24 -10 -3 -6 -14 -10 -25 -10 -10 0 -21 -7 -24 -16
-4 -11 -13 -14 -31 -10 -18 5 -30 1 -42 -14 -10 -11 -25 -20 -33 -20 -9 0 -22
-6 -28 -13 -13 -12 -17 -13 -46 -16 -7 0 -24 -12 -37 -24 -13 -13 -36 -27 -51
-31 -16 -3 -28 -10 -28 -15 0 -4 -20 -21 -45 -37 -25 -15 -45 -36 -45 -45 0
-10 -15 -23 -37 -32 -21 -9 -57 -34 -80 -56 -36 -34 -48 -40 -81 -38 -25 1
-45 -5 -56 -16 -10 -9 -26 -17 -35 -17 -10 0 -24 -7 -31 -15 -7 -8 -20 -15
-29 -15 -9 0 -31 -9 -49 -20 -18 -11 -46 -20 -62 -20 -17 0 -34 -8 -42 -19 -8
-11 -26 -25 -41 -32 -15 -7 -27 -19 -27 -27 0 -9 -3 -12 -6 -9 -4 4 -22 -7
-41 -23 -18 -17 -39 -30 -47 -30 -7 0 -30 -13 -52 -30 -21 -16 -42 -30 -47
-30 -4 0 -25 -11 -47 -25 -22 -14 -46 -25 -54 -25 -7 0 -21 -11 -30 -24 -13
-21 -21 -24 -50 -19 -25 4 -47 -2 -83 -20 -69 -36 -105 -48 -146 -50 -21 -1
-37 -6 -37 -10 0 -4 -16 -15 -35 -23 -19 -8 -41 -23 -47 -34 -7 -11 -18 -20
-25 -20 -7 0 -29 -9 -49 -21 -20 -11 -43 -18 -51 -15 -7 3 -16 -1 -19 -9 -4
-8 -14 -15 -23 -15 -9 0 -32 -10 -51 -21 -40 -25 -79 -38 -135 -45 -21 -3 -50
-11 -65 -19 -14 -7 -52 -19 -85 -25 -33 -7 -64 -15 -70 -18 -5 -4 -46 -8 -90
-10 -44 -2 -81 -8 -83 -13 -2 -5 -21 -9 -41 -9 -21 0 -41 -3 -45 -7 -3 -4 -14
-8 -24 -9 -67 -9 -97 -16 -102 -22 -18 -25 -94 -62 -126 -62 -22 0 -46 -7 -57
-18 -10 -9 -29 -18 -41 -18 -76 -6 -186 -30 -186 -41 0 -8 -13 -13 -33 -13
-19 0 -37 -3 -40 -6 -4 -4 -46 -8 -94 -10 -48 -2 -89 -8 -92 -12 -12 -16 -90
-39 -114 -35 -17 3 -37 -3 -56 -16 -16 -12 -41 -21 -54 -21 -14 0 -29 -5 -32
-10 -4 -6 -14 -10 -23 -9 -26 4 -94 -11 -127 -28 -59 -31 -64 -33 -80 -27 -9
4 -21 -1 -29 -11 -8 -12 -31 -18 -71 -22 -33 -2 -65 -9 -72 -15 -7 -6 -22 -8
-33 -5 -10 3 -24 -1 -30 -8 -7 -8 -35 -13 -75 -13 -35 0 -69 -3 -75 -7 -5 -3
-10 2 -10 13 0 10 -3 22 -7 26 -5 4 -8 67 -9 139 0 165 -11 388 -24 532 -12
132 -21 381 -21 604 0 120 4 182 16 232 14 55 15 75 5 103 -7 21 -9 58 -5 93
4 32 2 92 -4 133 -6 41 -13 172 -16 290 -3 118 -7 233 -10 255 -2 22 -7 85
-10 140 -6 121 -11 169 -25 246 -6 32 -10 147 -9 256 1 212 -5 306 -23 366 -9
29 -8 56 4 125 11 56 13 91 6 99 -10 12 -12 291 -2 317 3 9 1 23 -6 31 -6 8
-9 18 -6 23 3 5 2 103 -3 218 -7 173 -6 214 6 237 11 22 12 44 6 95 -4 37 -5
90 -1 117 4 28 8 107 7 178 0 90 3 127 12 127 8 0 9 13 4 43 -4 23 -9 141 -11
262 -4 192 -9 351 -18 595 -2 36 -8 84 -15 108 -7 24 -10 51 -6 61 7 24 7 419
0 566 -4 66 -8 233 -9 370 -1 138 -4 255 -6 260 -2 6 -1 44 2 85 4 41 4 93 0
115 -5 27 -3 49 6 69 11 20 11 30 3 35 -13 8 -17 338 -12 846 4 304 3 368 -3
423 l-7 62 46 0 c25 0 45 5 45 10 0 6 16 10 35 10 19 0 35 4 35 9 0 5 23 7 53
4 28 -3 79 0 112 7 33 6 98 13 145 16 47 2 97 9 113 15 15 7 41 9 58 5 18 -3
37 -2 43 2 6 5 61 5 121 0 61 -5 130 -6 155 -3 25 3 119 7 210 8 91 1 170 5
175 8 6 4 55 7 109 8 55 1 105 6 111 11 6 5 42 9 80 10 128 3 180 6 202 14 14
4 34 1 53 -9 23 -12 35 -13 51 -5 14 8 24 8 33 1 13 -11 259 -8 331 3 17 3 64
8 105 11 41 3 104 10 140 14 95 12 112 12 124 -4 9 -11 21 -12 70 -2 52 11 61
16 69 42 6 16 16 36 24 43 14 14 9 52 -8 63 -20 12 33 295 67 361 17 31 18 58
3 58 -6 0 -8 8 -5 18 5 18 25 208 31 305 3 31 9 66 15 76 5 11 10 38 10 61 0
23 7 54 15 68 40 70 135 409 130 464 -1 21 4 41 15 53 13 15 20 45 24 110 10
141 12 159 18 175 12 28 48 216 48 248 0 17 10 48 21 69 36 64 56 135 49 171
-5 21 -4 32 4 32 18 0 32 32 35 80 1 24 6 47 10 50 9 6 23 37 28 64 2 11 8 25
13 31 8 10 25 102 33 182 1 18 11 39 21 46 15 11 16 17 6 39 -10 21 -9 30 3
49 9 13 19 50 22 82 4 31 10 57 14 57 4 0 7 12 8 28 5 73 16 139 27 162 7 14
19 51 26 83 7 31 17 57 22 57 4 0 8 37 8 83 0 53 5 92 15 111 8 15 15 39 15
52 0 13 9 29 20 36 11 7 20 23 20 35 0 12 5 25 10 28 15 9 12 42 -5 49 -8 3
-15 14 -15 24 0 22 -16 38 -45 44 -11 2 -25 14 -31 26 -22 44 -31 46 -55 13
-15 -21 -31 -31 -48 -31 -14 0 -44 -7 -66 -14 -30 -11 -43 -11 -54 -3 -17 14
-68 16 -201 5 -151 -13 -400 -19 -413 -11 -7 4 -18 8 -27 9 -8 1 -44 6 -80 11
-36 5 -150 7 -255 4 -363 -11 -465 -6 -610 34 -97 26 -410 51 -421 34 -3 -5
-17 -6 -33 -3 -15 3 -55 -1 -87 -9 -65 -16 -193 -15 -264 2 -123 30 -484 49
-525 28 -11 -6 -47 -12 -80 -13 -33 -1 -97 -5 -143 -8 -102 -6 -136 4 -129 39
2 14 0 28 -4 31 -5 3 -7 53 -4 111 4 83 2 110 -9 122 -9 10 -18 59 -25 121 -5
58 -18 124 -27 145 -9 22 -19 56 -21 75 -2 19 -7 42 -10 50 -3 8 -5 55 -3 103
1 54 -3 93 -10 102 -8 10 -8 18 1 33 10 16 10 52 0 179 -7 87 -12 174 -12 194
1 19 -5 96 -13 170 -9 88 -11 151 -6 184 12 67 12 202 1 209 -10 7 7 86 19 86
5 0 6 9 3 20 -3 11 -1 20 5 20 6 0 13 26 17 58 3 31 10 65 15 74 5 10 7 23 4
31 -3 8 2 20 11 27 17 14 20 46 5 55 -16 10 -12 33 9 52 15 14 20 31 19 72 0
29 5 58 11 64 6 6 11 21 11 33 0 13 5 26 10 29 6 3 10 13 10 22 0 9 7 25 16
35 10 10 21 41 25 69 5 28 15 59 24 69 8 9 15 31 15 48 0 18 5 32 11 32 7 0
10 14 7 37 -4 31 0 41 18 56 13 10 26 33 30 53 3 19 10 36 14 39 5 3 11 23 15
46 4 24 14 43 23 47 21 8 51 43 52 59 0 7 12 26 28 42 15 17 43 51 62 75 19
25 40 45 47 45 7 1 45 30 85 65 40 34 86 74 101 87 16 13 43 39 60 58 18 18
43 37 55 42 13 5 26 18 29 29 3 11 11 20 18 20 7 0 24 11 39 25 15 14 39 31
54 39 15 8 42 28 60 45 18 17 39 28 46 25 8 -3 17 -1 21 5 3 6 15 11 27 11 11
0 32 6 46 14 41 21 90 36 167 53 39 8 74 18 79 23 4 5 23 6 41 3 21 -3 41 1
57 11 26 17 116 27 231 26 34 -1 68 5 80 13 17 10 42 12 101 7 68 -6 98 -4
148 9 4 1 15 4 24 8 9 3 20 0 24 -7 9 -14 100 -32 100 -19 0 4 23 5 52 3 49
-3 197 12 228 23 8 3 31 7 51 8 20 2 46 11 57 20 11 10 35 19 54 20 87 5 184
19 195 27 7 6 19 8 27 5 7 -3 42 -2 77 2 35 5 105 4 154 -1 50 -5 98 -9 107
-9 9 0 22 -7 29 -15 6 -8 22 -14 34 -14 12 0 28 -7 35 -15 7 -8 17 -15 22 -15
10 0 66 -23 99 -40 9 -5 36 -11 60 -15 61 -8 99 -14 135 -21 35 -7 96 20 128
55 11 12 24 21 30 21 18 1 56 37 56 54 0 8 -5 18 -11 22 -6 3 -8 16 -5 28 4
15 -1 26 -14 34 -12 7 -20 23 -20 40 0 15 -4 32 -10 38 -6 6 -6 31 0 70 6 36
6 72 1 91 -5 18 -6 47 -1 67 4 20 4 38 -2 44 -7 7 -7 27 0 59 10 50 5 141 -8
158 -8 11 -4 270 5 285 3 6 -1 20 -9 32 -11 15 -12 26 -5 40 10 18 18 88 24
209 1 26 6 53 10 60 5 7 9 36 11 64 1 29 8 65 16 81 9 18 14 52 12 89 -2 33 2
65 8 73 7 8 8 16 2 20 -5 4 -9 64 -9 134 0 71 -3 128 -6 128 -14 0 -17 85 -5
109 8 14 11 37 8 51 -6 31 -7 81 -3 140 2 25 0 93 -3 152 -4 61 -2 126 4 152
5 25 13 130 16 233 3 105 10 193 16 200 6 7 7 28 4 47 -5 27 -3 37 10 44 17
10 29 119 29 282 0 46 5 80 13 88 6 7 13 39 14 70 1 31 2 68 3 82 0 14 4 35 9
47 4 13 4 28 0 34 -6 10 -7 33 -4 119 1 8 -3 31 -7 50 -7 27 -14 36 -33 38
-51 6 -70 13 -70 26 0 8 -6 13 -12 12 -19 -2 -68 -55 -68 -71 0 -20 -47 -30
-65 -15 -8 6 -27 14 -42 16 -48 8 -185 24 -253 30 -36 3 -87 13 -113 21 -27 9
-64 13 -86 10 -21 -2 -45 -1 -53 4 -11 6 -20 4 -28 -6 -9 -10 -32 -15 -74 -15
-36 0 -73 -7 -91 -16 -34 -18 -93 -20 -298 -12 -75 3 -139 2 -142 -2 -2 -4
-28 -3 -56 1 -28 5 -59 4 -68 0 -28 -15 -119 -9 -138 9 -12 10 -39 16 -82 18
-34 1 -68 5 -75 9 -6 4 -31 8 -56 10 -25 1 -74 4 -109 6 -35 3 -101 1 -145 -3
-136 -14 -260 -17 -284 -9 -38 14 -330 15 -344 1 -7 -7 -20 -12 -30 -12 -10 0
-29 -6 -41 -14 -28 -19 -273 -35 -462 -32 -112 2 -144 0 -157 -12 -14 -12 -21
-12 -32 -3 -11 9 -20 10 -35 2 -11 -6 -37 -11 -58 -11 -21 0 -63 -6 -93 -14
-34 -9 -59 -11 -64 -5 -14 12 -50 11 -63 -2 -6 -6 -35 -12 -65 -14 -29 -1 -60
-5 -68 -8 -19 -9 -160 -28 -221 -30 -26 -2 -54 -8 -62 -16 -9 -7 -40 -16 -69
-21 -29 -5 -73 -14 -98 -20 -25 -6 -65 -13 -90 -17 -25 -3 -57 -14 -72 -24
-14 -11 -34 -19 -43 -19 -9 0 -31 -11 -48 -24 -18 -14 -45 -28 -62 -32 -16 -3
-41 -16 -55 -28 -19 -17 -40 -23 -85 -25 -46 -2 -62 -7 -73 -22 -10 -15 -21
-19 -37 -15 -13 3 -25 2 -27 -3 -2 -5 -20 -12 -41 -15 -21 -3 -47 -11 -57 -16
-10 -6 -37 -10 -59 -10 -29 0 -44 -6 -55 -21 -8 -12 -19 -18 -24 -15 -6 3 -12
0 -15 -8 -5 -12 -21 -17 -95 -32 -7 -1 -32 -21 -55 -43 -25 -25 -60 -46 -88
-54 -25 -8 -71 -30 -101 -50 -30 -21 -61 -37 -69 -37 -8 0 -19 -10 -24 -22 -8
-17 -20 -24 -50 -26 -22 -2 -45 -8 -52 -14 -20 -16 -86 -48 -101 -48 -7 0 -24
-11 -38 -25 -14 -14 -35 -25 -48 -25 -26 0 -76 -45 -171 -154 -33 -38 -81 -91
-106 -117 -26 -27 -49 -55 -53 -64 -3 -8 -12 -12 -20 -9 -9 4 -25 -8 -43 -33
-40 -55 -149 -153 -184 -165 -16 -5 -29 -14 -29 -19 0 -5 -9 -9 -19 -9 -11 0
-26 -6 -33 -12 -20 -18 -50 -38 -70 -44 -9 -3 -22 -19 -28 -35 -7 -16 -18 -33
-24 -37 -16 -11 -76 -89 -76 -101 0 -5 -5 -11 -11 -13 -5 -2 -11 -20 -12 -40
-1 -27 -8 -41 -24 -49 -12 -7 -40 -40 -62 -74 -23 -35 -55 -78 -72 -96 -18
-19 -38 -48 -45 -64 -7 -17 -35 -55 -62 -84 -28 -30 -48 -60 -45 -66 2 -7 0
-16 -6 -20 -6 -3 -11 -18 -11 -33 0 -19 -7 -30 -22 -37 -13 -6 -24 -18 -26
-29 -2 -10 -18 -33 -35 -50 -18 -17 -32 -36 -33 -41 -3 -22 -17 -55 -24 -55
-7 0 -17 -27 -20 -52 -1 -4 -14 -31 -30 -60 -16 -29 -35 -64 -41 -78 -6 -14
-15 -33 -20 -43 -6 -10 -7 -23 -3 -29 4 -6 1 -16 -7 -22 -17 -14 -39 -51 -39
-67 0 -11 -48 -79 -65 -91 -6 -5 -4 -12 5 -18 13 -8 13 -13 1 -31 -7 -12 -15
-45 -17 -73 -2 -28 -15 -82 -28 -120 -14 -38 -23 -73 -20 -77 2 -4 -5 -24 -16
-44 -11 -19 -20 -43 -20 -53 0 -9 -7 -26 -15 -36 -8 -11 -15 -30 -15 -42 0
-12 -8 -32 -19 -45 -10 -13 -18 -39 -19 -57 0 -19 -8 -45 -18 -59 -9 -15 -17
-44 -17 -65 0 -21 -6 -43 -13 -49 -10 -8 -11 -15 -4 -24 8 -9 8 -15 0 -20 -5
-3 -10 -19 -10 -34 0 -16 -7 -44 -15 -64 -8 -19 -15 -52 -16 -73 -1 -22 -6
-43 -10 -49 -4 -5 -10 -29 -14 -52 -4 -24 -14 -47 -22 -52 -10 -5 -14 -15 -10
-25 7 -17 -22 -76 -37 -76 -5 0 -3 -6 3 -14 8 -10 9 -21 3 -33 -14 -28 -28
-165 -32 -326 -2 -48 -7 -90 -11 -93 -5 -3 -9 -16 -9 -30 0 -13 -4 -24 -9 -24
-20 0 -54 -298 -41 -357 5 -19 4 -49 -1 -66 -5 -18 -10 -106 -10 -197 -1 -122
-7 -202 -25 -307 -13 -78 -23 -175 -23 -215 1 -40 -4 -85 -9 -99 -6 -15 -8
-30 -5 -33 3 -3 7 -42 8 -86 2 -45 6 -84 9 -87 11 -12 6 -46 -10 -64 -19 -22
-32 -113 -22 -159 8 -37 4 -78 -14 -147 -7 -27 -7 -48 -1 -55 10 -14 10 -25
-1 -50 -4 -10 -5 -43 -2 -75 4 -32 8 -108 11 -170 2 -62 8 -121 14 -131 6 -12
5 -51 -5 -121 -11 -80 -12 -107 -2 -124 14 -25 15 -34 23 -262 11 -299 8 -325
-41 -364 -19 -15 -41 -21 -78 -21 -29 0 -57 -5 -64 -12 -9 -9 -18 -8 -37 2
-21 11 -30 12 -45 2 -12 -7 -76 -14 -159 -17 -77 -2 -148 -8 -158 -14 -51 -26
-117 -33 -321 -32 -117 0 -217 3 -222 6 -4 3 -51 -6 -104 -20 -53 -14 -116
-25 -139 -24 -23 1 -82 1 -132 1 -49 0 -110 1 -135 3 -96 7 -398 5 -453 -3
-85 -13 -696 -7 -730 7 -16 6 -38 11 -51 11 -12 0 -27 5 -34 12 -9 9 -22 6
-56 -12 -25 -12 -52 -20 -61 -16 -9 3 -25 1 -36 -4 -16 -9 -21 -7 -29 16 l-10
26 -21 -26 c-11 -15 -26 -25 -32 -24 -19 3 -61 -13 -78 -31 -30 -32 -34 -151
-4 -151 8 0 11 -15 7 -50 -2 -27 -1 -50 4 -50 9 0 17 -139 16 -274 -1 -56 3
-83 14 -93 13 -13 21 -97 16 -158 -1 -11 -2 -69 -3 -129 0 -77 3 -111 12 -117
9 -5 10 -14 3 -31 -6 -13 -9 -66 -8 -118 1 -52 -3 -115 -8 -140 -6 -25 -12
-101 -15 -170 -9 -258 -13 -317 -23 -409 -8 -65 -8 -97 -1 -104 7 -7 7 -15 -1
-24 -12 -14 -13 -65 -7 -406 3 -153 8 -230 15 -235 7 -4 11 -38 9 -92 -1 -47
2 -93 7 -102 4 -9 10 -56 12 -105 2 -48 8 -89 13 -90 5 -2 7 -41 6 -88 -1 -48
2 -87 8 -91 6 -3 8 -27 3 -60 -4 -36 -2 -59 5 -68 20 -24 33 -214 18 -273 -7
-25 -5 -32 8 -35 13 -3 16 -28 20 -176 2 -127 7 -179 18 -195 7 -12 15 -42 15
-67 2 -32 8 -49 22 -60 11 -8 21 -27 22 -42 2 -19 8 -28 20 -28 9 0 19 -4 23
-10 3 -6 15 -6 30 0 19 7 25 6 30 -10 9 -29 61 -83 81 -86 11 -1 38 -5 60 -9
26 -4 44 -3 48 3 4 6 13 9 22 5 8 -3 24 3 34 12 15 14 30 17 68 12 27 -3 54
-1 59 4 10 10 46 12 158 10 39 -1 104 3 145 8 41 6 100 10 130 9 114 -4 355 4
366 13 6 5 26 4 47 -2 22 -6 44 -6 54 -1 10 5 24 7 31 5 7 -3 20 -1 30 3 9 5
40 9 67 10 28 1 75 4 105 7 71 8 335 11 346 5 13 -8 148 -3 161 5 6 4 15 3 18
-3 4 -7 37 -8 93 -5 48 4 98 6 112 5 27 -2 44 -2 255 5 224 7 286 12 298 24
22 22 61 12 80 -20 9 -17 17 -36 17 -44 0 -7 6 -17 13 -23 9 -8 13 -38 12 -99
-1 -48 2 -93 7 -99 4 -6 3 -37 -4 -68 -8 -43 -8 -60 0 -65 8 -5 9 -24 2 -68
-6 -34 -9 -76 -9 -95 3 -67 -14 -244 -26 -268 -7 -14 -13 -56 -14 -95 -2 -70
-18 -201 -25 -214 -3 -4 -7 -53 -11 -111 -4 -57 -9 -113 -11 -124 -2 -12 -4
-105 -4 -208 0 -104 -4 -188 -9 -188 -5 0 -9 -24 -9 -52 0 -29 0 -61 0 -70 0
-10 1 -48 1 -85 1 -38 1 -115 0 -173 -2 -122 11 -395 26 -525 12 -110 31 -418
31 -500 0 -34 4 -65 9 -70 11 -13 21 -193 10 -197 -4 -2 -8 -37 -8 -78 0 -82
1 -95 22 -250 8 -58 14 -116 14 -130 0 -14 5 -54 11 -90 6 -36 12 -112 13
-170 2 -58 6 -118 10 -133 5 -18 4 -36 -3 -47 -9 -14 -9 -24 0 -42 7 -13 12
-36 12 -53 -1 -16 0 -95 1 -175 1 -80 -2 -230 -6 -335 -5 -104 -8 -199 -7
-210 0 -11 2 -93 4 -182 2 -112 7 -164 15 -167 8 -3 8 -16 1 -48 -5 -24 -7
-65 -4 -93 9 -70 9 -176 1 -265 -11 -134 -16 -442 -7 -454 5 -6 12 -57 15
-114 4 -57 12 -115 19 -130 9 -19 11 -46 7 -87 -4 -33 -4 -64 0 -70 3 -5 7
-44 7 -85 1 -41 2 -92 2 -112 1 -20 7 -76 13 -125 6 -48 13 -110 14 -138 1
-27 6 -88 11 -135 4 -47 7 -267 5 -490 -3 -409 -4 -511 -1 -552 4 -82 -1 -116
-23 -136 -21 -20 -31 -21 -202 -18 -99 1 -191 -2 -205 -7 -42 -15 -110 -17
-110 -3 0 9 -21 15 -57 19 -32 3 -59 11 -61 17 -2 5 -10 10 -17 10 -8 0 -30 8
-50 17 -25 12 -41 14 -52 7 -23 -14 -170 1 -192 20 -10 9 -21 16 -25 16 -4 0
-34 27 -67 61 -32 33 -63 58 -68 55 -5 -3 -12 1 -15 9 -5 13 -10 14 -27 5 -24
-13 -49 -7 -49 13 0 16 -62 47 -95 47 -13 0 -26 4 -29 9 -3 5 -36 24 -73 42
-38 19 -70 37 -73 40 -3 4 -32 10 -65 14 -91 9 -102 13 -108 35 -5 18 -30 26
-61 21 -5 -1 -20 8 -33 21 -14 13 -28 22 -31 21 -4 -2 -7 0 -8 5 -4 35 -15 41
-59 27 -42 -12 -45 -12 -60 11 -8 13 -28 26 -43 30 -37 8 -92 35 -120 58 -15
13 -35 19 -58 18 -26 -2 -41 3 -54 18 -9 11 -29 20 -43 20 -13 0 -27 7 -31 15
-3 8 -12 12 -20 9 -9 -3 -25 5 -39 20 -18 20 -34 26 -65 26 -27 0 -42 5 -46
16 -4 11 -14 14 -34 9 -21 -4 -33 -1 -47 15 -10 11 -26 20 -35 20 -10 0 -20 7
-24 15 -3 8 -12 15 -19 15 -8 0 -20 6 -27 14 -6 8 -17 13 -24 10 -8 -3 -16 2
-19 10 -4 9 -17 16 -31 16 -14 0 -28 5 -31 10 -3 6 -19 10 -34 10 -15 0 -38 9
-51 20 -13 11 -37 20 -55 20 -18 0 -38 7 -45 15 -7 8 -21 15 -31 15 -11 0 -19
4 -19 10 0 5 -24 9 -56 7 -43 -1 -58 2 -68 16 -7 9 -21 17 -30 17 -9 0 -24 8
-35 18 -41 37 -66 52 -92 52 -19 0 -30 6 -34 20 -4 12 -25 26 -55 37 -29 10
-51 25 -53 35 -3 11 -14 18 -29 18 -14 0 -35 11 -48 25 -12 13 -25 24 -29 23
-10 -2 -45 15 -59 29 -7 7 -22 13 -32 13 -9 0 -29 15 -43 33 -20 26 -34 34
-59 35 -18 0 -34 6 -36 11 -2 6 -11 11 -19 11 -9 0 -26 10 -39 23 -49 47 -69
61 -85 62 -9 1 -24 9 -34 18 -9 9 -29 17 -45 17 -22 0 -30 6 -39 30 -7 21 -17
30 -31 30 -12 0 -38 16 -58 35 -22 21 -44 34 -54 31 -10 -2 -21 0 -24 5 -3 5
-15 9 -27 9 -13 0 -26 9 -32 22 -6 12 -18 23 -29 24 -10 1 -23 7 -29 13 -6 6
-22 11 -35 11 -13 0 -48 11 -78 25 -30 14 -59 25 -64 25 -5 0 -21 16 -36 35
-14 19 -33 35 -41 35 -8 0 -32 14 -53 30 -24 19 -49 30 -69 30 -19 0 -34 6
-37 15 -4 10 -13 13 -25 10 -11 -4 -19 -2 -19 3 0 8 -67 25 -108 27 -7 0 -16
5 -20 10 -6 9 -56 37 -157 89 -22 11 -46 26 -53 33 -13 13 -26 17 -48 14 -7
-1 -22 10 -35 24 -13 13 -29 25 -35 25 -19 0 -78 33 -94 52 -8 11 -22 20 -30
22 -8 1 -31 12 -50 24 -19 12 -43 22 -52 22 -10 0 -31 14 -46 30 -16 17 -34
30 -39 30 -6 0 -16 7 -23 15 -7 8 -20 15 -29 15 -21 0 -71 51 -71 72 0 13 -6
14 -34 8 -28 -6 -39 -3 -62 16 -16 13 -34 23 -40 24 -6 0 -17 7 -24 15 -7 8
-20 15 -29 15 -9 0 -22 9 -29 20 -7 11 -17 20 -23 20 -6 0 -28 14 -49 30 -21
17 -43 30 -50 30 -6 0 -9 4 -6 9 9 13 -14 28 -67 43 -46 13 -74 43 -93 100 -3
9 -19 22 -35 28 -16 7 -29 16 -29 20 0 15 -125 137 -146 144 -12 4 -24 16 -27
26 -3 13 -14 20 -28 20 -25 0 -59 26 -59 45 0 6 -25 29 -55 50 -31 21 -60 46
-66 57 -5 10 -14 18 -19 18 -15 0 -50 33 -50 47 0 7 -9 18 -20 25 -11 7 -20
20 -20 29 0 8 -13 25 -30 37 -16 13 -30 31 -30 42 0 11 -7 20 -15 20 -8 0 -15
5 -15 11 0 14 -37 63 -78 103 -17 18 -32 38 -32 44 0 7 -6 12 -14 12 -7 0 -21
15 -29 33 -19 39 -53 77 -90 102 -14 9 -29 25 -32 36 -4 10 -15 19 -26 19 -10
0 -19 6 -19 14 0 7 -21 31 -48 52 -55 44 -92 86 -85 97 2 4 -18 29 -44 55 -27
27 -47 54 -45 60 2 7 -2 12 -10 12 -18 1 -95 75 -103 100 -3 11 -17 32 -29 48
-13 15 -26 37 -30 50 -4 12 -14 22 -22 22 -8 0 -14 7 -14 15 0 8 -4 15 -10 15
-5 0 -10 7 -10 15 0 8 -4 15 -10 15 -5 0 -10 9 -10 20 0 11 -7 20 -15 20 -8 0
-15 7 -15 15 0 8 -8 15 -19 15 -12 0 -20 9 -24 29 -4 16 -13 35 -22 43 -53 46
-75 70 -75 82 0 7 -7 19 -15 26 -8 7 -15 19 -15 26 0 8 -4 14 -9 14 -5 0 -28
39 -52 86 -24 48 -50 89 -56 91 -7 3 -13 11 -13 19 0 8 -9 22 -20 31 -11 10
-20 22 -20 27 0 5 -6 17 -14 25 -14 15 -51 110 -63 160 -3 13 -21 37 -39 54
-19 16 -34 36 -34 46 0 9 -14 32 -30 51 -16 19 -30 40 -30 46 0 6 -7 18 -16
25 -9 7 -20 24 -25 37 -5 13 -18 26 -29 29 -11 3 -22 17 -26 36 -3 17 -10 38
-14 47 -23 49 -39 88 -45 108 -3 12 -11 22 -16 22 -5 0 -9 9 -9 19 0 11 -9 26
-20 34 -11 8 -25 28 -31 45 -8 24 -17 32 -36 32 -19 0 -23 4 -18 19 3 11 -1
25 -10 34 -8 9 -15 20 -15 26 0 6 -5 11 -11 11 -6 0 -8 9 -4 22 6 17 4 20 -9
15 -11 -5 -16 -1 -16 13 0 11 -5 20 -10 20 -6 0 -13 8 -17 18 -3 9 -20 29 -36
44 -16 15 -26 32 -22 38 4 6 -3 27 -14 46 -12 19 -21 44 -21 55 0 10 -4 19 -9
19 -5 0 -16 20 -24 45 -9 24 -29 59 -46 77 -17 18 -31 40 -31 49 0 9 -3 19 -7
23 -11 11 -43 99 -43 119 0 10 -8 17 -20 17 -13 0 -20 7 -20 20 0 11 -5 20
-11 20 -6 0 -9 7 -5 15 3 8 2 15 -3 15 -14 0 -61 74 -61 96 0 11 -9 27 -20 37
-11 9 -20 24 -20 32 0 8 -4 15 -9 15 -5 0 -13 9 -16 20 -3 11 -13 20 -20 20
-8 0 -17 11 -21 25 -3 13 -15 27 -25 30 -16 5 -18 13 -13 39 4 23 1 38 -10 49
-9 8 -16 23 -16 33 0 10 -7 25 -16 35 -8 9 -16 26 -17 38 -1 11 -7 21 -14 21
-7 0 -13 6 -13 13 0 7 -9 18 -19 24 -16 10 -18 18 -11 43 5 18 5 30 -1 30 -5
0 -9 8 -9 18 0 10 -9 25 -20 35 -11 9 -21 26 -21 37 -2 33 -3 36 -21 54 -20
20 -24 31 -7 20 8 -5 8 -1 0 14 -6 12 -16 24 -22 28 -6 3 -8 17 -5 30 6 23 -2
30 -28 25 -5 -1 -6 5 -3 12 8 20 -19 94 -43 119 -11 12 -20 34 -20 49 0 15 -5
31 -10 34 -6 4 -17 22 -25 41 -9 23 -19 33 -26 28 -9 -5 -10 1 -5 20 4 18 2
26 -6 26 -20 0 -37 34 -40 82 -3 51 -16 81 -57 125 -25 28 -29 38 -24 70 5 31
4 35 -11 30 -13 -5 -15 -2 -10 18 4 15 2 25 -5 25 -11 0 -39 57 -46 94 -3 10
-10 25 -17 33 -18 22 -38 83 -38 118 0 19 -8 36 -20 45 -20 14 -29 37 -10 25
6 -3 10 1 10 9 0 9 -7 16 -15 16 -9 0 -15 9 -15 25 0 14 -4 25 -10 25 -5 0
-10 8 -10 19 0 10 -7 24 -14 31 -8 6 -20 28 -27 48 -7 20 -20 52 -31 70 -10
18 -18 39 -18 47 0 8 -4 15 -9 15 -4 0 -11 18 -14 41 -3 22 -12 48 -21 58 -9
10 -16 27 -16 39 0 12 -4 22 -10 22 -5 0 -10 9 -10 19 0 11 -7 26 -15 35 -8 8
-15 24 -15 36 0 26 -18 61 -38 76 -8 6 -16 27 -17 47 -1 20 -8 43 -14 51 -6 8
-14 25 -16 37 -3 13 -11 29 -18 34 -8 6 -17 34 -20 64 -3 29 -11 59 -17 66 -6
7 -8 20 -4 29 3 9 2 22 -4 29 -5 6 -15 28 -21 49 -7 20 -18 39 -25 41 -8 3
-14 22 -14 48 -1 23 -6 47 -11 52 -6 6 -11 20 -11 32 0 11 -11 33 -24 48 -21
24 -23 33 -15 56 6 18 6 43 0 72 -8 33 -7 46 2 54 23 18 11 92 -20 123 -8 8
-12 35 -12 68 1 30 -4 60 -11 69 -10 12 -10 18 -1 29 13 16 5 82 -10 92 -5 3
-9 16 -9 28 0 13 -7 37 -15 52 -8 16 -15 43 -15 59 0 17 -5 36 -11 42 -7 7 -8
17 -1 30 9 17 7 58 -5 93 -3 8 -7 37 -9 63 -2 27 -10 59 -16 70 -7 12 -11 34
-9 48 1 14 -5 31 -13 39 -9 7 -16 23 -16 35 0 13 -5 25 -11 27 -6 2 -10 30
-10 68 3 209 2 229 -8 249 -5 9 -11 46 -12 82 -2 43 -9 73 -22 92 -10 15 -15
27 -12 27 4 0 0 11 -9 25 -14 21 -19 70 -16 135 1 8 -6 47 -14 85 -26 113 -30
166 -15 176 11 6 11 15 2 41 -6 18 -14 56 -18 83 -3 28 -13 64 -20 81 -20 42
-20 321 -1 352 3 5 5 52 4 105 -1 53 1 99 5 103 4 4 7 20 7 36 0 15 5 28 11
28 6 0 8 9 4 20 -4 12 -2 26 3 33 5 7 13 38 16 69 4 32 12 60 17 64 6 3 8 11
6 18 -2 6 0 22 6 36 6 14 11 107 12 207 1 110 5 186 12 195 6 7 11 20 12 28 3
35 12 194 17 308 4 73 11 122 17 122 5 0 3 8 -6 18 -20 21 -23 72 -5 72 8 0 9
3 1 11 -11 11 6 75 23 88 5 3 10 25 11 49 0 25 8 51 18 62 9 10 14 23 10 29
-3 6 1 25 9 43 8 18 18 56 21 83 6 55 12 79 25 110 18 42 40 154 40 206 0 30
4 59 9 65 5 5 11 23 12 39 2 17 9 38 17 47 8 9 11 21 8 26 -3 6 4 32 16 59 12
26 21 63 19 81 -1 18 2 38 7 45 10 12 29 211 25 257 -2 14 4 41 11 61 11 27
12 46 4 84 -8 39 -7 53 5 74 8 14 18 58 22 96 4 39 13 77 20 85 7 8 13 33 14
55 0 22 3 54 6 70 11 68 25 127 32 138 4 7 9 22 10 33 2 12 15 43 28 68 14 26
25 54 25 62 0 16 18 51 38 72 7 8 16 27 19 43 3 16 14 31 24 34 18 6 38 69 25
82 -3 3 3 12 13 20 11 7 23 28 26 46 4 17 11 37 15 42 4 6 13 27 19 48 7 20
16 37 20 37 4 0 15 35 25 78 10 42 24 94 32 115 8 20 14 50 14 66 0 16 4 31 9
33 5 2 11 12 13 23 1 11 11 29 20 39 10 10 15 23 12 28 -3 5 -1 14 4 21 5 7
12 31 15 55 3 24 12 51 20 60 9 9 19 31 23 47 4 17 11 35 16 41 4 6 10 33 12
60 2 27 9 50 15 52 6 2 11 13 11 25 1 12 9 40 20 62 11 22 19 48 20 57 0 9 5
20 11 23 6 4 8 13 5 21 -3 7 -1 16 5 19 5 4 8 12 7 18 -2 7 6 26 18 42 11 17
26 49 32 71 7 23 19 45 27 48 8 3 15 16 15 29 0 14 7 30 15 37 8 7 15 18 15
25 0 7 7 18 15 25 8 7 15 27 15 44 0 20 7 36 20 44 11 7 20 20 20 30 0 9 9 23
20 30 11 7 20 18 20 25 1 23 59 130 90 163 17 19 29 38 26 43 -3 5 4 21 15 35
12 15 19 30 15 33 -3 3 1 15 9 27 8 11 15 27 15 35 0 7 7 19 15 25 8 6 20 34
27 61 12 46 48 95 70 95 5 0 7 8 3 18 -6 21 29 72 50 72 17 0 26 51 12 70 -9
12 -9 13 3 2 12 -10 21 -5 52 29 21 23 39 49 40 58 0 9 2 21 2 26 1 6 14 23
29 39 15 16 27 35 27 42 0 8 9 19 20 26 14 9 20 24 20 47 0 21 7 40 20 51 12
10 20 22 18 26 -4 15 14 58 32 79 9 11 23 35 31 53 8 17 20 32 26 32 7 0 13 4
13 9 0 4 11 25 25 46 15 20 24 39 21 42 -2 3 9 27 25 55 16 27 31 58 32 68 2
11 14 28 28 39 44 37 69 65 69 79 0 5 11 15 25 22 13 7 36 30 51 52 15 21 32
38 38 38 13 0 46 36 46 50 0 6 4 18 9 28 27 53 33 71 26 83 -5 8 -4 10 4 5 17
-11 75 34 62 47 -17 17 -13 27 8 27 30 0 51 11 51 26 0 8 7 17 15 20 8 4 15
12 15 20 0 8 6 14 13 14 15 1 80 87 75 102 -2 6 9 23 24 39 15 15 28 35 28 44
0 9 13 28 30 42 16 13 30 29 30 34 0 6 12 21 27 35 17 16 26 34 25 52 0 22 4
28 20 28 21 -1 26 5 51 62 8 19 25 39 38 46 13 7 23 17 22 23 -1 6 7 19 17 28
11 10 20 24 20 32 0 8 9 23 20 35 11 12 20 30 20 41 0 10 9 21 20 24 11 3 20
11 20 18 0 6 9 20 20 30 11 10 20 24 20 32 0 7 5 13 10 13 6 0 15 12 20 26 6
14 15 22 20 19 10 -6 49 32 50 49 0 5 16 31 35 57 19 27 35 54 35 59 0 6 7 10
15 10 8 0 16 6 16 13 1 6 2 19 3 27 0 8 11 16 23 18 13 2 30 16 39 31 9 15 26
31 38 37 11 5 22 19 24 32 2 12 7 22 11 22 11 0 91 80 91 91 0 6 7 9 15 5 8
-3 15 -1 15 4 0 6 15 24 33 41 17 17 27 28 20 25 -7 -4 -9 1 -6 14 4 14 11 19
22 15 16 -5 36 10 69 49 6 8 12 18 12 21 0 3 15 23 34 43 54 58 76 89 69 96
-3 3 1 6 10 6 8 0 26 19 39 43 13 23 37 49 54 57 17 9 29 21 27 27 -2 6 19 34
47 63 28 28 48 55 45 60 -3 6 0 7 8 5 16 -7 57 27 57 47 0 9 19 33 41 54 69
65 73 70 90 101 9 17 42 49 73 72 31 23 56 45 56 50 0 13 43 57 63 64 9 4 17
13 17 21 0 8 10 18 23 21 12 4 54 38 92 75 39 38 82 72 98 76 15 3 32 15 38
25 5 11 14 17 19 14 5 -3 15 4 23 15 8 12 20 18 30 15 10 -4 17 1 21 13 4 11
18 23 31 26 14 3 41 23 62 44 21 21 44 37 51 34 7 -2 12 5 12 16 0 14 7 19 31
20 19 0 39 10 54 26 13 14 27 26 30 26 12 0 90 63 87 71 -1 5 4 9 12 9 7 0 19
7 26 15 6 8 15 14 18 13 22 -2 34 5 44 30 6 15 11 30 10 34 -3 12 34 45 58 53
17 6 19 9 9 16 -10 6 -9 9 6 14 64 21 93 41 105 73 8 23 15 31 22 24 14 -14
37 -4 65 26 12 13 26 21 30 19 11 -7 73 47 73 62 0 6 5 11 11 11 6 0 9 9 6 20
-6 23 5 25 34 8 17 -11 22 -10 33 5 7 9 20 17 29 17 9 0 24 11 33 25 9 13 24
27 34 30 11 3 17 12 14 19 -3 8 4 13 23 13 16 0 40 6 55 14 14 8 57 31 94 52
38 20 73 37 79 37 6 0 23 19 39 43 16 23 26 34 23 25 -5 -15 -3 -15 26 2 18
11 39 23 47 27 8 3 18 12 23 19 4 7 27 20 52 30 25 9 45 23 45 31 0 8 5 11 10
8 16 -10 24 23 10 40 -10 12 -5 15 29 21 31 5 52 18 88 55 26 27 53 49 59 49
6 0 17 7 24 15 10 12 10 18 0 30 -10 12 -10 15 2 15 8 0 20 -6 27 -12 11 -11
13 -10 8 5 -6 15 -3 17 12 12 13 -4 29 3 47 20 15 14 35 25 45 25 23 0 54 30
64 59 5 17 15 21 45 21 32 0 39 4 44 25 5 18 15 27 36 32 19 3 30 12 30 22 0
9 15 22 33 30 51 22 58 30 46 54 -10 17 -9 19 6 14 9 -4 23 -1 31 8 8 8 20 12
28 9 7 -3 19 2 26 11 7 8 20 15 30 15 10 0 23 6 30 14 6 8 18 12 25 9 15 -5
45 18 45 36 0 6 12 14 28 17 15 4 36 15 47 25 27 24 94 52 111 45 7 -3 20 1
28 9 8 8 20 15 26 15 7 0 23 9 37 20 14 11 36 20 50 20 13 0 26 7 29 15 4 9
19 15 36 15 17 0 37 8 46 19 10 10 40 24 67 31 28 6 64 22 82 36 17 13 36 24
41 24 5 0 15 7 23 16 8 10 21 13 36 9 13 -3 23 -1 23 4 0 5 29 23 65 40 36 18
65 36 65 41 0 6 10 10 23 10 13 0 32 8 43 18 10 9 25 17 32 18 38 3 41 5 35
20 -4 10 -1 15 8 13 23 -4 89 34 87 49 -2 8 3 17 10 19 6 3 12 -3 12 -12 0 -9
3 -15 8 -13 4 2 21 10 37 17 38 16 80 38 125 64 63 36 85 47 98 47 6 0 12 5
12 10 0 6 12 10 26 10 20 0 25 4 20 16 -6 17 4 16 45 0 12 -5 18 0 23 16 4 13
10 18 12 12 4 -9 18 -8 52 3 26 8 68 14 94 14 32 0 48 4 52 14 3 8 18 15 33
15 31 1 63 21 63 39 0 8 8 10 20 6 17 -5 60 8 112 36 10 5 27 9 38 9 11 0 20
4 20 10 0 5 7 7 15 4 8 -4 22 -1 30 6 9 7 32 14 52 16 20 2 41 8 47 14 5 5 18
10 29 10 10 0 16 4 13 9 -3 5 2 8 12 7 11 -1 16 5 14 16 -1 9 2 19 8 23 5 3
10 -1 10 -9 0 -27 81 -21 112 7 22 21 27 22 36 8 10 -14 11 -14 11 2 1 9 9 17
19 17 10 0 23 5 28 10 6 6 45 12 87 14 42 2 82 8 89 12 13 8 32 11 110 17 20
1 40 6 44 10 4 4 16 7 26 7 10 0 18 5 18 10 0 6 9 10 20 10 11 0 23 7 26 15 5
12 9 12 30 -2 14 -9 24 -11 24 -4 0 5 7 8 15 4 9 -3 21 1 28 10 7 8 32 18 57
21 24 4 47 12 51 17 3 6 27 12 52 14 57 3 72 12 57 30 -10 12 -5 13 23 8 20
-3 69 2 111 11 42 10 80 15 86 11 5 -3 22 1 37 8 15 8 44 18 63 22 65 14 140
46 140 61 0 8 5 14 11 14 6 0 8 -7 5 -16 -5 -12 1 -12 27 5 19 11 37 18 40 14
4 -3 15 1 25 10 11 10 40 17 80 19 37 2 64 8 67 16 5 13 35 17 35 4 0 -4 10
-13 22 -21 18 -11 22 -11 30 4 5 9 19 15 31 14 12 -1 43 8 69 20 34 16 56 21
78 16 19 -4 36 -2 45 5 10 8 37 11 77 8 36 -3 85 1 114 8 36 9 62 10 85 4 24
-7 35 -6 42 3 5 7 10 8 13 2 6 -14 157 -10 162 4 2 6 20 11 40 11 21 0 50 7
66 15 15 8 41 15 56 15 16 0 30 5 32 11 2 5 11 11 20 13 10 1 21 5 24 9 4 4
24 7 45 7 21 0 48 4 61 9 13 5 58 10 99 12 40 1 79 7 86 12 7 5 87 9 177 9 93
-1 168 3 171 9 8 12 42 12 50 -1z m-1295 -30 c0 -5 -4 -10 -10 -10 -5 0 -10 5
-10 10 0 6 5 10 10 10 6 0 10 -4 10 -10z m-842 -217 c-4 -22 -22 -20 -26 1 -2
10 3 16 13 16 10 0 15 -7 13 -17z m-188 -27 c0 -3 -4 -8 -10 -11 -5 -3 -10 -1
-10 4 0 6 5 11 10 11 6 0 10 -2 10 -4z m120 -31 c0 -8 -7 -15 -15 -15 -8 0
-15 7 -15 15 0 8 7 15 15 15 8 0 15 -7 15 -15z m-180 -55 c0 -5 -7 -10 -15
-10 -8 0 -15 5 -15 10 0 6 7 10 15 10 8 0 15 -4 15 -10z m-320 -60 c0 -5 -2
-10 -4 -10 -3 0 -8 5 -11 10 -3 6 -1 10 4 10 6 0 11 -4 11 -10z m-432 -101
c-2 -6 -8 -10 -13 -10 -5 0 -11 4 -13 10 -2 6 4 11 13 11 9 0 15 -5 13 -11z
m-708 -159 c0 -5 -2 -10 -4 -10 -3 0 -8 5 -11 10 -3 6 -1 10 4 10 6 0 11 -4
11 -10z m8040 -66 c0 -2 -7 -4 -15 -4 -8 0 -15 4 -15 10 0 5 7 7 15 4 8 -4 15
-8 15 -10z m-8580 -234 c0 -5 -6 -10 -14 -10 -8 0 -18 5 -21 10 -3 6 3 10 14
10 12 0 21 -4 21 -10z m-445 -220 c-3 -5 -13 -10 -21 -10 -8 0 -14 5 -14 10 0
6 9 10 21 10 11 0 17 -4 14 -10z m-507 -182 c-6 -18 -28 -21 -28 -4 0 9 7 16
16 16 9 0 14 -5 12 -12z m-273 -137 c-3 -6 -13 -11 -21 -11 -8 0 -14 -4 -14
-10 0 -5 -4 -10 -10 -10 -18 0 -10 15 17 32 29 17 40 17 28 -1z m-145 -36 c0
-2 -10 -9 -22 -15 -22 -11 -22 -10 -4 4 21 17 26 19 26 11z m40 -66 c0 -5 -4
-9 -10 -9 -5 0 -10 7 -10 16 0 8 5 12 10 9 6 -3 10 -10 10 -16z m-193 -41 c-3
-8 -6 -5 -6 6 -1 11 2 17 5 13 3 -3 4 -12 1 -19z m63 -48 c0 -5 -4 -10 -10
-10 -5 0 -10 5 -10 10 0 6 5 10 10 10 6 0 10 -4 10 -10z m-170 -58 c0 -15 -2
-15 -10 -2 -13 20 -13 33 0 25 6 -3 10 -14 10 -23z m-105 -90 c3 -8 3 -17 0
-20 -3 -3 -5 0 -5 6 0 7 -11 12 -25 12 -14 0 -25 4 -25 9 0 15 49 9 55 -7z
m-2030 -1472 c-3 -5 -10 -10 -16 -10 -5 0 -9 5 -9 10 0 6 7 10 16 10 8 0 12
-4 9 -10z m19515 -4264 c0 -3 -4 -8 -10 -11 -5 -3 -10 -1 -10 4 0 6 5 11 10
11 6 0 10 -2 10 -4z m-24080 -4276 c0 -5 -4 -10 -10 -10 -5 0 -10 5 -10 10 0
6 5 10 10 10 6 0 10 -4 10 -10z m720 -5405 c0 -8 -4 -15 -10 -15 -5 0 -10 7
-10 15 0 8 5 15 10 15 6 0 10 -7 10 -15z m230 -535 c0 -5 -5 -10 -11 -10 -5 0
-7 5 -4 10 3 6 8 10 11 10 2 0 4 -4 4 -10z"/>
</g>
</svg>
