<?xml version="1.0" standalone="no"?>
<!DOCTYPE svg PUBLIC "-//W3C//DTD SVG 20010904//EN"
 "http://www.w3.org/TR/2001/REC-SVG-20010904/DTD/svg10.dtd">
<svg version="1.0" xmlns="http://www.w3.org/2000/svg"
 width="807.324534pt" height="700.060262pt" viewBox="0 0 807.324534 700.060262"
 preserveAspectRatio="xMidYMid meet">
<metadata>
Created by potrace 1.16, written by Peter Selinger 2001-2019
</metadata>
<g transform="translate(-157.010884,847.350744) scale(0.100000,-0.100000)"
fill="#fff" stroke="none">
<path d="M6930 8470 c-154 -6 -240 -20 -240 -39 0 -5 -14 -11 -30 -15 -20 -4
-34 -14 -40 -31 -9 -23 -69 -68 -95 -71 -5 0 -16 -2 -22 -2 -7 -1 -13 -8 -13
-16 0 -13 -132 -96 -154 -96 -7 0 -27 -11 -46 -25 -19 -14 -41 -25 -49 -25 -8
0 -24 -8 -35 -19 -25 -22 -112 -52 -131 -45 -7 3 -18 -4 -24 -15 -6 -11 -38
-47 -71 -79 -33 -32 -60 -66 -60 -74 0 -9 -11 -30 -24 -46 -15 -17 -23 -36
-20 -48 3 -12 -4 -28 -20 -43 -19 -18 -24 -30 -19 -52 3 -18 0 -35 -8 -45 -9
-11 -14 -46 -15 -100 0 -46 -5 -89 -10 -96 -23 -31 -33 -65 -21 -77 6 -6 7
-11 3 -11 -15 0 -45 45 -46 69 0 13 -9 39 -21 57 -11 19 -18 34 -15 34 8 0
-40 94 -57 111 -16 17 -107 167 -107 177 0 5 -13 21 -30 37 -16 15 -27 32 -24
37 4 5 -3 16 -15 24 -12 8 -21 21 -21 27 0 17 -218 227 -236 227 -8 0 -33 17
-57 39 -23 21 -69 52 -103 69 -33 17 -66 37 -73 46 -8 9 -20 16 -27 16 -7 0
-43 14 -79 30 -36 17 -71 30 -78 30 -7 0 -18 5 -25 12 -8 8 -68 12 -194 13
-185 1 -366 -18 -483 -50 -50 -14 -119 -19 -371 -27 -71 -3 -137 -8 -145 -13
-21 -14 -140 -27 -264 -30 -149 -3 -399 -24 -460 -37 -27 -6 -57 -12 -66 -13
-9 -1 -28 -9 -42 -18 -15 -9 -38 -17 -52 -17 -14 0 -33 -4 -43 -9 -43 -23 -92
-41 -110 -41 -11 0 -33 -7 -48 -15 -16 -8 -40 -15 -54 -15 -14 0 -36 -11 -50
-25 -44 -43 -97 -85 -108 -85 -6 0 -21 -14 -34 -31 -13 -17 -41 -47 -63 -67
-22 -21 -52 -49 -66 -64 -15 -16 -31 -28 -36 -28 -4 0 -20 -15 -35 -33 -14
-19 -43 -42 -63 -51 -20 -10 -39 -26 -43 -35 -4 -10 -20 -35 -37 -55 -16 -21
-39 -49 -50 -64 -32 -42 -117 -223 -120 -254 -1 -16 -5 -31 -9 -35 -3 -3 -6
-16 -6 -28 0 -13 -7 -28 -14 -35 -8 -6 -20 -36 -26 -66 -6 -29 -16 -56 -21
-59 -5 -4 -9 -19 -9 -35 0 -17 -7 -33 -17 -38 -12 -7 -18 -26 -20 -62 -1 -29
-7 -69 -12 -89 -6 -20 -10 -89 -11 -153 0 -64 -5 -138 -10 -165 -6 -26 -10
-79 -9 -118 1 -38 2 -77 1 -85 -3 -130 -2 -252 3 -280 8 -40 7 -152 -1 -193
-3 -15 0 -34 6 -42 8 -10 10 -30 6 -55 -5 -29 -2 -47 10 -65 9 -14 14 -28 11
-32 -4 -3 0 -18 9 -32 11 -19 13 -36 7 -66 -6 -28 -5 -52 5 -80 18 -49 22 -75
27 -189 4 -76 8 -91 26 -104 15 -10 19 -21 14 -39 -7 -31 11 -89 30 -97 9 -3
15 -18 15 -35 0 -36 31 -111 54 -130 9 -7 16 -18 16 -23 0 -6 11 -23 25 -40
14 -16 25 -35 25 -41 0 -7 16 -25 35 -40 19 -15 35 -37 35 -48 0 -11 8 -23 17
-26 10 -4 45 -33 77 -65 33 -32 64 -58 68 -58 7 0 107 -75 130 -98 5 -4 32
-35 60 -69 29 -35 60 -63 68 -63 21 0 40 -20 40 -42 0 -10 4 -18 9 -18 5 0 11
-10 13 -22 2 -15 13 -26 33 -33 40 -13 75 -45 75 -67 0 -10 18 -31 40 -46 21
-15 39 -32 40 -37 0 -6 13 -16 29 -22 22 -8 30 -18 33 -39 2 -16 8 -28 15 -27
7 2 22 -15 33 -37 11 -22 27 -40 35 -40 8 0 15 -5 15 -11 0 -17 62 -89 77 -89
7 0 13 -7 13 -15 0 -8 6 -15 13 -15 32 0 76 -32 82 -59 7 -31 65 -91 88 -91 8
0 22 -9 31 -19 10 -11 28 -21 40 -23 16 -2 22 -11 24 -37 4 -37 26 -66 42 -56
6 4 18 1 26 -6 14 -12 14 -14 -2 -26 -10 -7 -16 -14 -13 -16 30 -22 59 -35 59
-27 0 5 7 10 15 10 8 0 15 -7 15 -15 0 -18 89 -115 105 -115 7 0 18 -7 25 -15
7 -8 17 -12 22 -9 5 3 12 -3 15 -15 3 -14 13 -21 29 -21 13 0 24 -4 24 -10 0
-5 14 -10 30 -10 34 0 90 -36 90 -57 0 -7 6 -13 14 -13 8 0 16 -10 18 -22 2
-15 10 -23 23 -24 30 -2 65 -15 65 -25 0 -16 82 -89 100 -89 10 0 25 -11 33
-23 9 -13 29 -30 46 -36 20 -9 32 -22 36 -40 5 -25 36 -53 125 -112 39 -26 75
-61 95 -92 9 -15 25 -26 34 -25 10 2 17 -5 19 -19 2 -13 8 -23 14 -23 15 0 78
-62 78 -76 0 -6 13 -17 29 -24 20 -8 27 -17 24 -29 -6 -23 41 -71 69 -71 17 0
19 -3 10 -9 -19 -12 26 -54 51 -47 12 3 21 -5 31 -27 18 -44 49 -69 93 -76 31
-5 38 -11 43 -36 9 -43 32 -75 58 -81 13 -4 22 -14 22 -25 0 -14 9 -21 30 -26
17 -3 30 -9 30 -14 0 -16 32 -39 56 -39 20 0 24 -5 24 -29 0 -38 67 -121 97
-121 18 0 22 -5 20 -22 -1 -17 3 -23 18 -23 33 -1 48 -14 34 -31 -9 -11 -7
-15 7 -20 39 -12 49 -22 50 -50 2 -51 4 -54 28 -64 17 -6 26 -18 28 -37 2 -21
9 -29 26 -31 16 -3 29 -16 40 -40 18 -39 104 -136 135 -153 42 -23 112 27 107
77 -4 36 0 44 23 44 27 0 78 51 102 102 9 18 27 51 40 73 13 22 30 51 37 64 7
13 22 29 33 35 10 6 25 17 33 24 11 10 9 12 -10 12 -20 1 -18 6 26 45 30 28
46 51 42 60 -3 8 0 20 7 27 18 19 67 86 67 91 0 8 81 127 91 132 5 4 9 15 9
26 0 10 4 19 8 19 17 0 52 38 52 56 0 11 27 48 60 82 33 35 60 71 60 80 0 10
14 26 30 37 16 11 30 28 30 38 0 11 14 32 30 47 17 15 30 31 30 35 0 18 114
130 149 145 30 14 44 30 66 75 27 53 52 84 122 145 29 26 60 68 61 83 0 17 56
67 73 67 10 0 37 25 61 55 23 30 46 55 50 55 5 0 8 6 8 13 0 16 41 57 57 57 6
0 13 7 17 15 3 8 14 15 25 15 11 0 26 10 32 23 14 26 105 114 184 177 31 25
69 57 84 71 15 14 43 31 62 38 19 7 51 21 71 32 20 10 44 19 53 19 9 0 25 16
37 35 11 20 35 42 52 49 18 7 52 32 77 54 24 23 56 44 71 47 14 4 33 17 42 30
8 13 29 26 46 30 17 4 34 13 37 21 8 21 74 58 100 56 13 -1 23 3 23 8 0 6 7
10 15 10 9 0 21 5 28 10 27 24 216 129 243 136 15 4 53 33 84 64 31 31 69 60
85 64 16 4 42 18 57 31 16 14 46 29 67 35 76 20 184 94 286 196 17 18 49 41
71 52 40 20 59 39 127 125 42 53 92 88 113 80 7 -3 27 5 43 17 28 19 41 37 73
100 18 36 49 75 56 73 4 -2 7 5 7 15 0 9 3 22 6 27 6 9 44 77 73 130 6 11 16
27 22 35 7 8 22 40 34 70 12 30 28 69 36 85 7 17 15 42 19 57 3 15 13 35 23
45 25 25 51 108 56 178 2 33 5 62 7 65 1 3 3 10 4 15 0 6 10 28 22 50 13 26
19 52 16 75 -4 27 0 40 16 54 16 14 18 23 10 43 -5 14 -6 35 -2 47 14 40 23
435 10 443 -4 2 -7 16 -6 31 1 59 -11 120 -36 181 -15 36 -28 88 -30 120 -4
66 -12 104 -31 148 -8 17 -14 35 -14 41 0 5 -7 15 -15 22 -8 7 -15 29 -15 49
0 26 -12 54 -45 103 -24 36 -47 79 -51 94 -6 25 -156 214 -176 222 -4 2 -8 11
-8 19 0 17 -13 32 -97 118 -75 75 -145 139 -175 158 -15 9 -33 29 -40 44 -7
15 -22 29 -33 31 -11 2 -39 19 -62 38 -23 19 -46 34 -52 34 -6 0 -18 11 -27
25 -9 14 -21 25 -27 25 -5 0 -34 18 -63 40 -29 22 -57 40 -62 40 -5 0 -15 6
-22 14 -6 8 -21 16 -33 18 -13 2 -21 9 -19 18 2 8 1 12 -3 8 -4 -4 -34 6 -66
22 -32 17 -67 30 -78 30 -11 0 -32 6 -48 14 -36 18 -95 36 -117 36 -10 0 -29
9 -43 20 -14 11 -34 20 -43 20 -10 0 -37 11 -61 24 -24 14 -65 28 -92 31 -26
4 -50 11 -53 16 -3 5 -22 9 -43 9 -22 0 -44 6 -51 15 -7 8 -23 15 -37 15 -13
0 -33 4 -43 10 -63 33 -433 52 -790 40z m-2 -128 c5 -17 -27 -27 -41 -13 -9 9
-8 14 3 21 18 11 32 8 38 -8z m412 -48 c177 -6 356 -24 395 -40 22 -9 49 -20
60 -25 11 -4 40 -12 65 -18 42 -9 112 -31 171 -53 15 -5 31 -20 37 -33 13 -28
48 -50 57 -35 9 14 115 -10 172 -39 10 -4 37 -18 60 -30 23 -12 46 -22 50 -23
5 0 18 -4 31 -9 13 -5 29 -9 37 -9 7 0 27 -11 43 -25 17 -14 34 -25 40 -25 5
0 17 -11 26 -25 9 -14 23 -25 30 -25 8 0 34 -18 57 -40 24 -22 47 -40 51 -40
5 0 30 -19 56 -43 26 -24 61 -49 77 -56 17 -7 54 -43 85 -83 30 -39 63 -76 73
-82 10 -6 25 -26 34 -45 9 -19 24 -36 34 -38 17 -5 39 -43 39 -69 0 -24 49
-94 73 -103 13 -5 29 -16 36 -25 7 -9 20 -16 28 -16 12 0 12 -3 -1 -22 -14
-20 -14 -22 7 -33 12 -6 22 -20 23 -32 1 -12 15 -39 32 -61 21 -27 29 -45 25
-60 -3 -13 -1 -22 6 -22 6 0 11 -16 11 -35 0 -23 5 -35 14 -35 8 0 13 -11 14
-27 1 -53 15 -133 23 -139 5 -3 9 -20 9 -38 0 -18 7 -53 16 -79 11 -34 13 -51
5 -66 -8 -14 -8 -22 0 -27 7 -4 9 -24 6 -55 -3 -27 -2 -51 4 -54 5 -4 7 -10 4
-14 -2 -5 -7 -69 -10 -142 -7 -161 -9 -187 -18 -196 -4 -3 -4 -22 -1 -40 4
-21 2 -39 -6 -48 -7 -9 -14 -37 -16 -63 -5 -60 -10 -73 -26 -67 -9 4 -14 -8
-15 -41 -1 -26 -9 -57 -18 -70 -8 -12 -12 -30 -9 -39 4 -8 2 -21 -4 -28 -6 -6
-13 -29 -17 -50 -4 -21 -18 -50 -31 -64 -13 -14 -25 -33 -26 -42 0 -9 -2 -29
-3 -46 -1 -16 -7 -31 -14 -33 -6 -2 -11 -16 -11 -31 0 -15 -9 -36 -19 -45 -10
-9 -17 -25 -14 -35 3 -12 -8 -28 -36 -50 -23 -18 -38 -37 -35 -42 10 -17 -5
-59 -21 -59 -8 0 -15 -5 -15 -11 0 -14 -279 -293 -303 -302 -9 -3 -22 -17 -28
-31 -6 -13 -22 -27 -35 -30 -13 -4 -28 -15 -34 -26 -7 -13 -21 -20 -39 -20
-20 0 -37 -11 -61 -40 -18 -22 -41 -40 -51 -40 -9 0 -19 -9 -22 -20 -3 -13
-14 -20 -31 -20 -36 0 -70 -18 -81 -43 -6 -12 -21 -24 -35 -27 -22 -4 -75 -34
-90 -50 -3 -3 -11 -6 -19 -8 -18 -4 -93 -56 -110 -75 -16 -20 -125 -77 -146
-77 -8 0 -15 -7 -15 -16 0 -8 -17 -22 -37 -30 -21 -8 -56 -24 -79 -34 -23 -11
-47 -20 -55 -20 -8 0 -23 -7 -33 -15 -11 -8 -28 -15 -38 -15 -10 0 -18 -4 -18
-10 0 -5 -15 -16 -32 -24 -43 -19 -78 -50 -78 -69 0 -15 -28 -27 -63 -27 -20
0 -77 -39 -77 -52 0 -12 -52 -57 -66 -58 -6 0 -24 -12 -40 -27 -16 -15 -56
-40 -89 -56 -33 -16 -68 -36 -78 -44 -20 -18 -50 -37 -87 -53 -30 -14 -100
-80 -100 -95 0 -15 -53 -65 -68 -65 -7 0 -17 -11 -22 -25 -5 -14 -18 -28 -27
-32 -10 -3 -31 -20 -48 -37 -16 -18 -41 -41 -55 -52 -14 -11 -30 -29 -36 -39
-6 -11 -21 -21 -33 -23 -11 -2 -21 -9 -21 -17 0 -7 -15 -23 -33 -34 -35 -21
-87 -75 -87 -90 0 -16 -65 -80 -93 -90 -15 -6 -32 -22 -37 -36 -16 -41 -110
-141 -143 -151 -25 -8 -66 -54 -67 -74 0 -18 -40 -63 -76 -86 -16 -11 -23 -23
-19 -34 3 -11 -2 -20 -18 -27 -12 -6 -35 -29 -50 -52 -15 -22 -39 -59 -54 -82
-15 -22 -43 -59 -62 -82 -20 -23 -45 -58 -55 -77 -11 -19 -29 -45 -40 -57 -29
-30 -41 -46 -56 -73 -7 -13 -22 -33 -32 -44 -11 -12 -24 -31 -29 -43 -5 -13
-15 -23 -23 -23 -15 0 -26 -21 -26 -49 0 -10 -10 -27 -22 -39 -13 -11 -32 -38
-43 -59 -11 -21 -25 -42 -32 -46 -7 -4 -13 -14 -13 -21 0 -8 -7 -16 -15 -20
-8 -3 -15 -12 -15 -20 0 -7 -7 -16 -15 -20 -8 -3 -15 -12 -15 -20 0 -9 -9 -20
-20 -26 -11 -6 -20 -19 -20 -29 0 -11 -17 -34 -37 -52 -21 -18 -38 -36 -38
-40 0 -5 -17 -24 -38 -44 l-38 -36 -70 72 c-38 40 -69 76 -69 81 0 4 -13 14
-30 23 -16 9 -30 22 -30 29 0 8 -11 21 -25 30 -14 9 -25 23 -25 32 0 8 -13 20
-30 25 -16 6 -30 14 -30 19 0 8 -111 121 -154 157 -14 11 -31 33 -38 48 -6 15
-29 35 -50 46 -21 11 -38 26 -38 33 0 13 -240 266 -253 266 -25 0 -191 148
-262 233 -16 20 -34 37 -38 37 -10 0 -100 76 -211 178 -44 39 -88 72 -98 72
-10 0 -27 14 -38 32 -10 17 -28 37 -39 42 -10 6 -57 46 -103 88 -122 113 -120
112 -140 113 -10 1 -29 11 -41 23 -13 12 -33 22 -45 22 -12 0 -39 16 -61 35
-21 19 -43 35 -49 35 -6 0 -20 13 -32 30 -12 17 -27 30 -33 30 -18 0 -87 67
-87 84 0 8 -21 32 -46 53 -25 21 -52 50 -60 66 -8 15 -19 27 -25 27 -19 0 -71
45 -80 69 -5 13 -12 21 -16 18 -6 -7 -233 222 -233 235 0 5 -11 13 -25 18 -14
5 -25 16 -25 25 0 8 -57 73 -127 145 -71 71 -153 157 -183 191 -81 92 -261
268 -290 283 -54 30 -150 162 -150 207 0 7 -17 37 -37 68 -21 31 -36 60 -35
66 2 5 -3 14 -11 20 -8 5 -17 28 -21 50 -4 22 -11 45 -15 50 -14 18 -42 117
-48 169 -3 28 -10 56 -14 62 -9 11 -22 171 -22 254 1 25 1 74 2 110 0 36 -2
117 -4 180 -3 63 -5 124 -6 135 0 16 0 207 1 350 0 45 10 87 27 113 8 13 12
29 10 36 -3 7 -1 36 5 65 8 45 7 56 -8 72 -13 15 -15 22 -6 31 7 7 12 21 12
33 0 11 6 29 14 40 7 11 17 53 21 93 4 39 11 75 16 78 5 3 9 16 9 30 0 14 11
40 23 57 13 18 24 41 25 52 2 43 17 81 49 126 18 25 33 52 33 58 0 7 11 29 25
49 14 20 25 46 25 57 0 24 97 145 116 145 19 0 78 54 136 124 45 54 70 76 157
144 16 12 35 22 41 22 7 0 24 8 38 19 15 10 46 21 69 24 25 3 76 24 120 50 69
40 90 47 173 57 52 7 103 16 114 22 10 5 22 6 27 1 14 -14 150 -5 198 12 24 8
67 15 95 15 89 0 329 21 381 34 32 7 79 10 129 6 43 -4 97 -4 119 1 22 4 47 5
54 2 7 -3 21 -2 31 2 9 4 53 8 97 9 44 1 107 10 140 19 44 13 115 19 265 23
181 5 207 4 219 -10 7 -9 22 -16 32 -16 10 0 21 -4 24 -10 3 -5 15 -10 25 -10
10 0 32 -13 48 -30 17 -17 41 -30 55 -30 13 0 32 -9 41 -19 10 -11 31 -23 46
-26 16 -3 36 -17 44 -31 9 -13 21 -24 27 -24 10 0 69 -54 69 -63 0 -2 34 -38
75 -79 41 -42 75 -81 75 -88 0 -16 50 -100 77 -130 13 -14 31 -42 40 -62 9
-21 20 -38 25 -38 4 0 8 -9 8 -19 0 -11 4 -21 8 -23 18 -7 72 -130 72 -164 0
-22 6 -37 16 -41 8 -3 27 -31 42 -62 15 -31 35 -67 44 -81 10 -14 25 -54 34
-89 9 -36 25 -77 36 -92 21 -28 21 -31 5 -263 -2 -36 29 -61 43 -35 7 12 18
15 42 10 30 -6 53 -31 28 -31 -6 0 -9 -4 -6 -9 9 -14 58 0 92 25 41 31 51 82
24 132 -11 20 -17 44 -14 54 3 10 2 23 -2 29 -13 22 -12 133 1 160 12 22 22
221 13 269 -4 25 14 130 23 136 5 3 9 25 9 49 0 24 4 46 9 49 5 3 6 26 4 50
-5 38 -1 53 26 96 17 28 32 62 33 75 2 17 12 28 33 37 16 6 40 23 53 36 15 16
31 23 50 21 33 -4 52 7 52 28 0 27 41 63 71 63 14 0 32 7 39 15 7 9 19 14 25
11 13 -5 65 39 65 54 0 6 6 10 14 10 8 0 34 10 58 21 23 12 58 29 76 38 19 9
38 23 43 32 4 9 20 20 34 23 14 4 25 10 25 15 0 16 96 42 147 41 82 -2 245 11
303 25 30 8 69 11 85 8 17 -4 68 -8 115 -9z m1850 -964 c0 -5 -4 -10 -9 -10
-6 0 -13 5 -16 10 -3 6 1 10 9 10 9 0 16 -4 16 -10z"/>
</g>
</svg>
