<?xml version="1.0" encoding="UTF-8" standalone="no"?>
<svg
   width="395.54099pt"
   height="167.812pt"
   viewBox="0 0 395.54099 167.812"
   version="1.1"
   id="svg71"
   sodipodi:docname="logo.svg"
   inkscape:version="1.1 (c4e8f9e, 2021-05-24)"
   xmlns:inkscape="http://www.inkscape.org/namespaces/inkscape"
   xmlns:sodipodi="http://sodipodi.sourceforge.net/DTD/sodipodi-0.dtd"
   xmlns:xlink="http://www.w3.org/1999/xlink"
   xmlns="http://www.w3.org/2000/svg"
   xmlns:svg="http://www.w3.org/2000/svg">
  <sodipodi:namedview
     id="namedview73"
     pagecolor="#ffffff"
     bordercolor="#666666"
     borderopacity="1.0"
     inkscape:pageshadow="2"
     inkscape:pageopacity="0.0"
     inkscape:pagecheckerboard="0"
     inkscape:document-units="pt"
     showgrid="false"
     fit-margin-top="0"
     fit-margin-left="0"
     fit-margin-right="0"
     fit-margin-bottom="0"
     inkscape:zoom="1.875"
     inkscape:cx="266.13333"
     inkscape:cy="102.93333"
     inkscape:window-width="1382"
     inkscape:window-height="847"
     inkscape:window-x="58"
     inkscape:window-y="25"
     inkscape:window-maximized="1"
     inkscape:current-layer="svg71" />
  <defs
     id="defs39">
    <symbol
       overflow="visible"
       id="a">
      <path
         fill="#343434"
         d="m 34.203,-91.047 c 0,1 -0.078,2.328 -0.234,3.984 a 176.266,176.266 0 0 1 -0.375,3.813 l 0.156,2.406 c 0,0.594 -0.125,0.969 -0.375,1.125 -0.25,0.149 -0.727,0.219 -1.422,0.219 L 24,-79.953 l -10.953,0.61 c -1.5,0 -2.25,-1.102 -2.25,-3.313 l 0.156,-2.39 c 0.195,-1.102 0.395,-3.005 0.594,-5.704 0.3,-3.695 0.726,-6.172 1.281,-7.422 0.55,-1.25 1.828,-2.07 3.828,-2.469 2,-0.406 5.75,-0.609 11.25,-0.609 h 4.5 c 0.594,0.305 1.04,1.508 1.344,3.61 0.3,2.093 0.453,4.292 0.453,6.593 z m -4.5,-7.5 c -0.805,0 -1.828,0.453 -3.078,1.36 -1.25,0.898 -2.93,2.242 -5.031,4.03 -0.293,0.305 -1.063,1.009 -2.313,2.11 -1.25,1.094 -2.277,1.793 -3.078,2.094 v 0.61 c 0.695,-0.5 3.395,-1.4 8.094,-2.704 3.601,-0.906 5.406,-1.504 5.406,-1.797 z M 14.25,-82.344 c 2.5,0 5.473,-0.82 8.922,-2.469 3.445,-1.656 5.223,-3.332 5.328,-5.03 -1.105,0 -2.23,0.198 -3.375,0.593 -1.148,0.398 -1.969,0.7 -2.469,0.906 -0.906,0.2 -2.164,0.45 -3.765,0.75 -1.594,0.293 -2.766,0.813 -3.516,1.563 -0.75,0.75 -1.125,1.98 -1.125,3.687 z m 15.453,-5.406 c -0.105,0.7 -0.61,1.324 -1.515,1.875 -0.899,0.555 -1.446,1.027 -1.641,1.422 l 3.156,0.61 z m 2.703,18.906 c 0.395,0 0.692,1.375 0.89,4.125 0.196,2.75 0.298,5.024 0.298,6.813 l -0.438,31.062 V 3.453 c -0.21,0.8 -0.61,2 -1.203,3.594 -1.2,3.906 -2.101,7.055 -2.703,9.453 a 29.286,29.286 0 0 0 -0.906,7.203 l 0.156,2.39 c -0.5,5.802 -1.828,9.579 -3.984,11.329 -2.149,1.75 -4.47,2.797 -6.97,3.14 -2.5,0.352 -4.198,0.583 -5.093,0.688 L 4.5,41.844 c -0.7,0 -1.547,-0.074 -2.547,-0.219 -1,-0.148 -1.851,-0.324 -2.547,-0.531 -1,-0.2 -1.5,-1.594 -1.5,-4.188 l 0.14,-2.562 c 0,-1.899 0.481,-3.422 1.438,-4.578 0.946,-1.149 2.368,-2.32 4.266,-3.516 1.602,-1.105 2.781,-2.086 3.531,-2.938 0.75,-0.843 1.125,-1.917 1.125,-3.218 0,-1.5 -0.105,-3.75 -0.312,-6.75 -0.2,-3 -0.297,-5.297 -0.297,-6.89 C 7.797,-0.148 8.145,-8 8.844,-17.094 9.445,-27.695 9.75,-35.551 9.75,-40.656 v -1.797 c 0,-2 -0.25,-3.75 -0.75,-5.25 v -17.39 c 0,-1.5 2.125,-2.65 6.375,-3.454 4.25,-0.8 7.523,-1.203 9.828,-1.203 3,0 5.399,0.305 7.203,0.906 z m -3.156,2.39 c -1,0 -2.527,1.079 -4.578,3.235 a 111.347,111.347 0 0 0 -5.485,6.14 410.548,410.548 0 0 0 -2.984,3.673 l 1.203,0.156 c 2.5,0 6.196,-2.445 11.094,-7.344 l 0.75,-0.61 z m -5.703,0.907 c 0,-0.195 -0.152,-0.297 -0.453,-0.297 -1.793,0 -3.543,0.5 -5.25,1.5 -1.7,1 -2.7,2.45 -3,4.344 5.8,-3.3 8.703,-5.148 8.703,-5.547 z m -8.39,0.89 c -1.907,0 -2.86,0.403 -2.86,1.204 0,0.2 0.047,0.574 0.14,1.125 0.102,0.555 0.258,0.93 0.47,1.125 1.093,-1.5 2.39,-2.598 3.89,-3.297 -0.305,-0.102 -0.852,-0.156 -1.64,-0.156 z M 13.656,-54 a 23.479,23.479 0 0 1 3.75,-4.047 C 19,-59.453 20.194,-60.703 21,-61.797 l -5.547,3.14 c -0.105,-0.093 -0.308,-0.14 -0.61,-0.14 -0.5,0 -0.85,0.375 -1.046,1.125 -0.2,0.75 -0.297,1.422 -0.297,2.016 z m 8.687,4.203 c 1.406,-0.406 3.054,-1.234 4.953,-2.484 1.906,-1.25 2.86,-2.375 2.86,-3.375 0,-1.196 -0.204,-2.047 -0.61,-2.547 -1.305,1 -2.305,1.902 -3,2.703 -0.7,0.805 -1.422,1.73 -2.172,2.781 a 96.127,96.127 0 0 0 -2.031,2.922 z m 3.453,-0.453 c -1,0.105 -1.805,0.336 -2.406,0.688 -0.594,0.343 -1.293,0.867 -2.094,1.562 -0.7,0.7 -1.375,1.227 -2.031,1.578 -0.649,0.344 -1.57,0.516 -2.766,0.516 0,-0.895 0.172,-1.942 0.516,-3.14 0.351,-1.196 0.53,-1.946 0.53,-2.25 0,-0.602 -0.35,-0.907 -1.046,-0.907 -0.605,0 -1.105,0.055 -1.5,0.156 -0.805,0 -1.25,-0.25 -1.344,-0.75 -0.21,0.594 -0.386,1.344 -0.531,2.25 -0.148,0.899 -0.219,1.649 -0.219,2.25 0,0.594 0.098,1.371 0.297,2.328 0.195,0.95 0.348,1.672 0.453,2.172 l -0.156,3.594 c 4.695,-2.195 8.797,-5.547 12.297,-10.047 z m 3.906,3.906 c 0.195,-0.601 0.297,-1.707 0.297,-3.312 -0.898,0 -2.219,0.703 -3.969,2.11 a 46.784,46.784 0 0 0 -4.953,4.577 c -1.555,1.649 -2.328,2.668 -2.328,3.063 0.395,-0.29 0.895,-0.586 1.5,-0.89 0.602,-0.302 1.254,-0.65 1.953,-1.048 4.8,-2.5 7.3,-4 7.5,-4.5 z m -9,12.89 c 0.395,-0.093 1.067,-0.487 2.016,-1.187 A 77.622,77.622 0 0 1 24.594,-36 c 0.406,-0.395 1.082,-0.79 2.031,-1.188 0.945,-0.406 1.617,-0.93 2.016,-1.578 0.406,-0.656 0.609,-1.882 0.609,-3.687 H 28.5 c -0.305,0 -1.383,0.5 -3.234,1.5 -1.844,1 -3.118,1.805 -3.813,2.406 0,2.805 -0.25,4.5 -0.75,5.094 z m -0.906,-4.5 -0.594,0.157 c -0.2,0 -0.402,-0.047 -0.61,-0.14 -0.198,-0.102 -0.343,-0.157 -0.437,-0.157 -0.605,0.2 -1.508,0.574 -2.703,1.125 -1.2,0.543 -1.797,0.867 -1.797,0.969 v 4.5 h 0.594 z m 2.11,11.11 c 0.593,-0.207 1.585,-0.508 2.984,-0.906 1.406,-0.395 2.554,-0.895 3.453,-1.5 0.906,-0.602 1.36,-1.352 1.36,-2.25 0,-0.3 -0.079,-0.75 -0.235,-1.344 a 7.543,7.543 0 0 1 -0.219,-1.812 c -2.105,0.906 -3.883,2.011 -5.328,3.312 -1.45,1.293 -2.602,2.492 -3.453,3.594 -0.844,1.105 -1.418,1.805 -1.719,2.094 l -0.594,0.61 c 1,0 1.82,-0.274 2.469,-0.829 0.645,-0.55 1.07,-0.875 1.281,-0.969 z m -5.704,-2.703 H 12.75 c 0,5.805 0.3,10.102 0.906,12.89 0.395,-0.093 0.914,-0.363 1.563,-0.812 0.656,-0.457 0.984,-0.883 0.984,-1.281 0.195,-0.195 1.117,-0.867 2.766,-2.016 1.656,-1.156 2.781,-2.132 3.375,-2.937 l -0.14,-0.594 c -0.5,0.094 -1.556,0.418 -3.157,0.969 -1.594,0.555 -2.89,0.828 -3.89,0.828 -0.712,0 -1.063,-0.445 -1.063,-1.344 0,-1.101 0.426,-2.129 1.281,-3.078 0.852,-0.945 2.078,-2.023 3.672,-3.234 1.8,-1.395 3.004,-2.492 3.61,-3.297 h -0.75 z M 20.703,-18 c 0.094,-0.3 1.29,-0.75 3.594,-1.344 2.8,-0.601 4.203,-1.207 4.203,-1.812 v -5.25 c 0,-0.094 -0.078,-0.188 -0.234,-0.282 -0.149,-0.101 -0.266,-0.156 -0.36,-0.156 -0.906,0 -1.734,0.375 -2.484,1.125 -0.75,0.75 -1.574,1.774 -2.469,3.063 -1.2,1.605 -1.95,2.558 -2.25,2.86 l -3.906,3.89 z m -7.36,4.656 c 0,1.793 0.102,3.09 0.313,3.89 0,0.5 -0.402,2.852 -1.203,7.048 l -0.61,3.312 c 0.302,-0.804 1.052,-1.625 2.25,-2.469 a 97.138,97.138 0 0 1 3.829,-2.562 122.437,122.437 0 0 1 2.781,-1.719 c 3.3,-2 5,-3.203 5.094,-3.61 -1.094,0 -1.969,0.153 -2.625,0.454 -0.649,0.305 -1.371,0.75 -2.172,1.344 -1.305,1.304 -2.902,1.953 -4.797,1.953 V -7.5 c 0.3,-0.395 0.828,-0.992 1.578,-1.797 0.75,-0.8 1.52,-1.504 2.313,-2.11 1.206,-1.194 2.11,-2.393 2.703,-3.593 0.101,-0.195 0.328,-0.594 0.672,-1.188 0.351,-0.601 0.726,-1.207 1.125,-1.812 L 14.25,-13.344 Z M 26.548,-12 c 0.195,0.2 0.445,0.297 0.75,0.297 0.8,0 1.203,-1.445 1.203,-4.344 V -18 c -1.805,1.5 -3.5,3.402 -5.094,5.703 -0.304,0.399 -0.656,0.871 -1.062,1.422 -0.399,0.555 -0.946,1.23 -1.64,2.031 z m 0.61,8.25 c 0.394,0 0.816,-0.172 1.265,-0.516 0.445,-0.351 0.723,-0.582 0.828,-0.687 l -0.75,-3.89 c -1.105,0 -5.406,2.796 -12.906,8.39 2,0 4.273,-0.57 6.828,-1.719 2.55,-1.156 4.129,-1.879 4.734,-2.172 z M 11.702,1.656 c -0.5,2.5 -0.75,4.196 -0.75,5.094 0.594,-0.605 1.14,-0.906 1.64,-0.906 L 13.342,6 c 0.602,0 1.352,-0.652 2.25,-1.953 0.708,-1 2.313,-1.95 4.813,-2.844 a 248.56,248.56 0 0 0 2.766,-1.281 c 0.945,-0.445 1.672,-1.02 2.172,-1.719 -1.2,0.399 -2.7,1.047 -4.5,1.953 -1.793,0.895 -3.266,1.567 -4.422,2.016 -1.149,0.445 -2.274,0.672 -3.375,0.672 -0.899,0 -1.344,-0.399 -1.344,-1.188 z m 13.047,3.14 c 1.8,0 3,-0.554 3.594,-1.655 0.601,-1.094 0.906,-2.743 0.906,-4.938 -2.398,1 -5.2,2.473 -8.406,4.422 -3.2,1.945 -5.399,3.723 -6.594,5.328 L 24,5.406 23.25,4.656 c 0.3,0.094 0.8,0.14 1.5,0.14 z M 24,6.75 c -0.5,0 -2.902,0.695 -7.203,2.094 -4.305,1.406 -6.453,2.304 -6.453,2.703 0.101,0.3 0.304,0.8 0.61,1.5 0.3,0.695 0.55,1.148 0.75,1.36 0.194,-0.212 0.741,-0.563 1.64,-1.063 0.906,-0.5 2.156,-1.25 3.75,-2.25 l 7.5,-4.344 z m 2.547,5.094 c 0.8,-0.793 1.328,-1.793 1.578,-3 0.25,-1.2 0.375,-1.899 0.375,-2.094 a 84.243,84.243 0 0 1 -8.094,4.5 l -5.562,3.156 1.656,0.14 c 1.102,0 2.953,-0.546 5.547,-1.64 2,-0.804 3.3,-1.203 3.906,-1.203 z m -3.453,2.406 c 0,0.195 -1.153,0.52 -3.453,0.969 -2.293,0.457 -4.266,1.035 -5.922,1.734 -1.649,0.695 -2.469,1.742 -2.469,3.14 0,0.708 0.05,1.259 0.156,1.657 0.79,0 2.035,-0.578 3.735,-1.734 1.707,-1.149 2.71,-1.82 3.015,-2.016 3.196,-2.105 5.145,-3.305 5.844,-3.594 z m -6.297,6.594 c 1.406,0 3.18,-0.574 5.328,-1.719 2.145,-1.148 3.219,-2.324 3.219,-3.531 z m -1.203,6.453 c 0.406,-0.094 1.457,-0.293 3.156,-0.594 1.695,-0.305 3.117,-0.855 4.266,-1.656 1.156,-0.805 1.734,-1.852 1.734,-3.14 l -0.156,-1.5 C 22,21 18.828,22.644 15.078,25.343 c -3.75,2.707 -5.726,4.11 -5.922,4.203 0.196,0 0.297,0.098 0.297,0.297 0.594,-0.2 1.54,-0.547 2.844,-1.047 1.3,-0.5 2.398,-1 3.297,-1.5 z m -14.25,8.25 c 0,1.3 0.347,2.125 1.047,2.469 0.707,0.351 1.812,0.53 3.312,0.53 0.895,0 2.895,-1.35 6,-4.046 2.195,-1.805 3.695,-2.902 4.5,-3.297 2.195,-1.105 3.695,-1.953 4.5,-2.547 -2,0 -5.277,0.797 -9.828,2.39 -4.555,1.602 -7.73,3.102 -9.531,4.5 z m 10.5,1.36 c 3.406,0 6.254,-0.5 8.547,-1.5 2.3,-1 3.703,-3.25 4.203,-6.75 l -11.547,6.437 c -0.805,0 -1.203,0.601 -1.203,1.812 z M 4.797,29.703 c -0.899,0 -1.649,0.598 -2.25,1.797 l 3.297,-1.344 z m 0,0"
         id="path9" />
    </symbol>
    <symbol
       overflow="visible"
       id="b">
      <path
         fill="#343434"
         d="m 78,-14.703 c 0,2.105 0.3,5.156 0.906,9.156 0.094,0.805 0.239,2.133 0.438,3.984 0.207,1.844 0.312,3.461 0.312,4.86 0,1.695 -2.75,2.547 -8.25,2.547 -2.906,0 -4.86,-0.047 -5.86,-0.14 h -3.452 c -0.5,-0.5 -1.852,-0.852 -4.047,-1.048 -2.094,-0.21 -3.543,-0.511 -4.344,-0.906 -0.406,0 -1.508,0.398 -3.297,1.203 -2.21,1.195 -3.914,1.848 -5.11,1.953 L 31.796,6.453 30.453,5.703 C 23.348,3.203 18.07,-1.445 14.625,-8.25 11.175,-15.05 9,-22.375 8.094,-30.219 7.195,-38.07 6.75,-47.149 6.75,-57.453 c 0,-3.695 0.098,-6.594 0.297,-8.688 0.195,-2.101 0.648,-3.804 1.36,-5.109 h 18.75 l 1.937,0.75 c 0.707,0.305 1.062,1.5 1.062,3.594 0,1.406 -0.152,3.062 -0.453,4.969 -0.305,1.898 -0.508,3.14 -0.61,3.734 -0.698,3.305 -1.046,5.855 -1.046,7.656 0,3.594 0.348,7.945 1.047,13.047 l 0.61,5.703 c 0.194,2.899 1.171,5.824 2.921,8.781 1.75,2.95 3.797,5.371 6.14,7.266 2.352,1.898 4.583,2.844 6.688,2.844 1.094,0 2.016,-0.196 2.766,-0.594 0.75,-0.395 1.375,-0.594 1.875,-0.594 0.8,0 1.55,0.102 2.25,0.297 1.5,0 2.625,-0.773 3.375,-2.328 0.75,-1.55 1.125,-3.227 1.125,-5.031 0,-1.395 -0.399,-3.692 -1.188,-6.89 -1,-3.407 -1.5,-6.36 -1.5,-8.86 l 0.14,-6.438 -0.75,-23.25 c 0,-1.707 0.15,-3.11 0.454,-4.203 0.3,-1.101 0.953,-1.656 1.953,-1.656 2,0.2 5.77,0.672 11.313,1.422 5.55,0.75 8.328,1.375 8.328,1.875 0,2 -0.2,4.902 -0.594,8.703 -0.5,3.2 -0.75,6.152 -0.75,8.86 0,2.698 0.148,5.495 0.453,8.39 0.195,3.605 0.297,6.308 0.297,8.11 l 3.156,18.296 z M 57.594,-64.656 a 81.093,81.093 0 0 0 2.547,-0.89 c 1.101,-0.407 1.957,-0.755 2.562,-1.048 l 0.594,-1.656 h -3.14 c 0,0.805 -0.856,1.203 -2.563,1.203 z m -32.39,-0.14 c 0,0.593 -1.903,2.593 -5.704,6 -3.805,3.398 -6.402,5.296 -7.797,5.702 h 1.203 l 10.344,-2.562 c 1.895,0 2.844,-4.098 2.844,-12.297 h -3 c 0,0.605 0.32,1.183 0.968,1.734 0.657,0.543 1.036,1.016 1.141,1.422 z m -12.907,2.093 h 0.61 c 0.5,-0.3 1.546,-1.05 3.14,-2.25 a 735.953,735.953 0 0 1 4.047,-3 h -7.797 z m 52.953,-4.64 -1.953,1.937 2.703,0.156 c 2.895,0 4.797,-0.695 5.703,-2.094 z m 4.656,3.296 c -1.406,0 -3.586,0.328 -6.531,0.984 -2.95,0.649 -4.875,1.368 -5.781,2.157 l 0.61,5.25 c 0.694,-1.094 2.644,-2.54 5.843,-4.344 3,-1.695 4.953,-3.047 5.86,-4.047 z m -57,3.89 c -0.5,0.407 -0.75,1.11 -0.75,2.11 l 0.14,2.39 c 1.5,-0.788 3.126,-1.863 4.876,-3.218 1.75,-1.352 3.125,-2.629 4.125,-3.828 -1.2,0 -2.852,0.402 -4.953,1.203 -2.094,0.805 -3.242,1.25 -3.438,1.344 z m 57.438,3.75 c 0.707,-1.195 1.16,-3.144 1.36,-5.843 -0.806,0 -2.454,0.95 -4.954,2.844 L 63.297,-57 h 6.61 z m -11.25,7.954 c 1,-0.5 2.5,-1.445 4.5,-2.844 2,-1.406 3.398,-2.656 4.203,-3.75 -1.594,0 -3.14,0.152 -4.64,0.453 -0.5,0 -1.278,0.074 -2.329,0.219 a 21.017,21.017 0 0 1 -2.922,0.219 c -0.105,0.21 -0.156,0.71 -0.156,1.5 0,2.304 0.445,3.703 1.344,4.203 z m 11.25,-6.594 c -0.899,1 -2.149,2.047 -3.75,3.14 -2,1.407 -3.297,2.512 -3.89,3.313 1.3,0 2.597,-0.148 3.89,-0.453 1.601,-0.195 2.851,-0.297 3.75,-0.297 z m -58.047,8.39 c 0.906,-0.288 1.957,-0.96 3.156,-2.015 1.195,-1.05 2.219,-2.078 3.063,-3.078 0.851,-1 1.379,-1.695 1.578,-2.094 -0.293,0.2 -0.84,0.375 -1.64,0.532 -0.806,0.148 -1.356,0.265 -1.657,0.359 -0.305,0.105 -0.953,0.281 -1.953,0.531 -1,0.25 -1.778,0.527 -2.328,0.828 -0.543,0.293 -0.813,0.64 -0.813,1.047 z m 1.953,3.313 c 3.8,-2.406 7.203,-3.906 10.203,-4.5 v -6 c -2.305,1 -4.805,3.047 -7.5,6.14 -1.7,1.907 -3.047,3.259 -4.047,4.048 z m 43.344,5.094 0.61,0.156 c 1.093,0 3.14,-1.472 6.14,-4.422 3,-2.957 4.601,-4.535 4.812,-4.734 -0.105,-0.102 -0.383,-0.227 -0.828,-0.375 -0.45,-0.145 -0.824,-0.219 -1.125,-0.219 -0.906,0 -1.683,0.43 -2.328,1.282 -0.648,0.843 -1.469,1.265 -2.469,1.265 -0.21,0 -0.414,-0.172 -0.61,-0.516 -0.198,-0.351 -0.448,-0.582 -0.75,-0.687 -0.398,-0.102 -0.968,-0.203 -1.718,-0.297 -0.75,-0.101 -1.125,-0.254 -1.125,-0.453 z m -44.688,-3.297 v 4.64 c 1.5,-1.394 3.547,-3.19 6.14,-5.39 2.602,-2.195 4.407,-3.648 5.407,-4.36 -0.7,0 -2.652,0.903 -5.86,2.704 -3,1.605 -4.698,2.406 -5.093,2.406 v -0.61 z m 57.75,3 c 0,-0.906 -0.054,-2.254 -0.156,-4.047 -0.105,-1.8 -0.305,-2.953 -0.594,-3.453 -0.906,1.594 -2.558,3.344 -4.953,5.25 a 26.504,26.504 0 0 0 -3.453,3.14 c 0.602,0 1.531,-0.07 2.781,-0.218 1.25,-0.145 1.973,-0.367 2.172,-0.672 z M 25.203,-39 v -4.953 l -0.75,-0.75 c -1.105,1.305 -2.558,2.508 -4.36,3.61 -3.198,2.093 -5.148,4.093 -5.843,6 z m -1.953,2.094 c -0.898,0 -2.844,0.605 -5.844,1.812 -3,1.2 -4.5,2.094 -4.5,2.688 v 5.703 c 0.196,-1.094 0.969,-2.192 2.313,-3.297 1.351,-1.102 3.129,-2.3 5.328,-3.594 2.195,-1.406 3.5,-2.304 3.906,-2.703 z m 44.547,0 c -1.2,0 -3.125,0.304 -5.781,0.906 -2.649,0.605 -3.97,1.258 -3.97,1.953 l 0.75,4.203 c 1,-0.5 2.876,-1.55 5.626,-3.156 2.75,-1.602 4.125,-2.703 4.125,-3.297 a 0.515,0.515 0 0 0 -0.234,-0.453 0.894,0.894 0 0 0 -0.516,-0.156 z m -6.297,7.812 c 0.395,-0.101 1.547,-0.254 3.453,-0.453 4.094,-0.5 6.14,-1.05 6.14,-1.656 v -4.64 c -0.292,0 -1.937,1.027 -4.937,3.077 -3,2.043 -4.554,3.266 -4.656,3.672 z m -35.703,1.797 c -0.399,1.305 -1.047,2.383 -1.953,3.235 -0.899,0.843 -2.043,1.765 -3.438,2.765 -2.5,1.899 -4.105,3.547 -4.812,4.953 0.5,-0.101 1,-0.304 1.5,-0.61 0.5,-0.3 0.851,-0.5 1.062,-0.593 l 3.594,-1.203 c 0.602,-0.195 1.852,-0.617 3.75,-1.266 1.895,-0.656 2.844,-1.132 2.844,-1.437 -0.2,-2.195 -0.996,-5.297 -2.39,-9.297 a 18.688,18.688 0 0 1 -1.048,-3 c -0.804,0 -2.703,1.25 -5.703,3.75 -3,2.5 -4.5,4.102 -4.5,4.797 0.5,0 1.649,-0.399 3.453,-1.203 2.395,-1.094 4.29,-1.64 5.688,-1.64 1.207,0 1.86,0.25 1.953,0.75 z m 42.75,-1.36 c -1.5,0 -3.402,0.153 -5.703,0.454 -2.293,0.305 -3.438,0.758 -3.438,1.36 0,0.292 0.223,1.116 0.672,2.468 0.445,1.355 0.672,2.328 0.672,2.922 2,-0.895 3.973,-1.969 5.922,-3.219 1.945,-1.25 3.422,-2.523 4.422,-3.828 z m -55.64,6.907 c 0,0.305 0.195,0.855 0.593,1.656 0.395,0.793 0.645,1.438 0.75,1.938 1.195,-1.5 2.695,-2.946 4.5,-4.344 1.8,-1.395 3.5,-2.547 5.094,-3.453 L 24,-27.297 c -2.7,0.899 -5.227,1.824 -7.578,2.781 -2.344,0.95 -3.516,1.871 -3.516,2.766 z m 33,13.797 c -0.712,0.906 -2.313,2.36 -4.813,4.36 -1.5,1.093 -2.68,2.042 -3.532,2.843 -0.843,0.8 -1.515,1.648 -2.015,2.547 1,-0.5 2.773,-1.45 5.328,-2.844 2.55,-1.406 5.078,-2.805 7.578,-4.203 0.594,-0.395 2.742,-1.895 6.453,-4.5 1.696,-1.602 3.446,-2.906 5.25,-3.906 0.895,-0.594 1.992,-1.14 3.297,-1.64 1.695,-0.802 3.094,-1.552 4.188,-2.25 a 8.586,8.586 0 0 0 2.703,-2.704 c -0.793,0.105 -1.742,0.156 -2.844,0.156 -0.805,0 -1.203,-0.05 -1.203,-0.156 0,-0.3 0.848,-0.676 2.547,-1.125 1.707,-0.445 3.16,-0.723 4.36,-0.828 0,-1.5 -0.25,-3 -0.75,-4.5 l -8.11,5.25 v 1.953 c -1.594,0 -2.969,0.375 -4.125,1.125 -1.149,0.75 -1.82,1.875 -2.016,3.375 -1.105,1.5 -2.508,2.703 -4.203,3.61 a 46.323,46.323 0 0 1 -4.875,2.25 c -1.555,0.593 -2.625,0.992 -3.219,1.187 z m 9.437,2.406 c 0.3,0.399 0.726,0.672 1.281,0.828 0.55,0.149 0.973,0.297 1.266,0.453 0.3,0.149 0.453,0.516 0.453,1.11 0.406,-0.196 1.082,-0.594 2.031,-1.188 a 17.52,17.52 0 0 1 2.922,-1.5 c 0.5,-0.3 2.348,-1.398 5.547,-3.297 3.207,-1.906 5.008,-3.207 5.406,-3.906 -1.105,0 -2.758,0.2 -4.953,0.594 -2.399,0.406 -4.399,0.61 -6,0.61 0.195,-0.802 1.945,-1.407 5.25,-1.813 1.8,-0.29 3.226,-0.633 4.281,-1.031 1.05,-0.407 1.578,-0.958 1.578,-1.657 0,-1.3 -0.203,-2.351 -0.61,-3.156 -3.804,1.898 -7.132,3.922 -9.984,6.078 -2.843,2.149 -5.667,4.774 -8.468,7.875 z m -24.75,-13.5 c -1.399,0 -2.844,0.477 -4.344,1.422 -1.5,0.95 -2.7,2.074 -3.594,3.375 0.395,-0.195 1.344,-0.617 2.844,-1.266 1.5,-0.656 2.723,-1.28 3.672,-1.875 0.945,-0.601 1.422,-1.156 1.422,-1.656 z m -13.797,6.594 c 0.406,0 1.555,-0.75 3.453,-2.25 1.895,-1.5 3.297,-2.649 4.203,-3.453 l -4.203,1.36 c 0,0.198 -0.402,0.6 -1.203,1.202 -0.805,0.594 -1.75,1.043 -2.844,1.344 v 1.797 z m 3.297,3.906 c 1.207,-1.101 3.008,-2.305 5.406,-3.61 3,-1.788 5.098,-3.335 6.297,-4.64 h -0.75 l -13.64,6.297 c 0.195,0.2 0.44,0.602 0.734,1.203 0.3,0.594 0.703,0.89 1.203,0.89 z m 14.86,-4.5 c 0,-0.3 -0.126,-0.726 -0.376,-1.281 -0.25,-0.55 -0.375,-0.973 -0.375,-1.266 -1.406,0.5 -3.762,1.824 -7.062,3.969 -3.293,2.148 -5.04,3.824 -5.235,5.031 0.094,0.094 0.239,0.14 0.438,0.14 0.3,0 0.625,-0.222 0.968,-0.671 0.352,-0.445 0.583,-0.723 0.688,-0.828 z m -4.5,15.594 c 0.694,0 2.741,-1.602 6.14,-4.797 a 68.183,68.183 0 0 1 4.36,-3.969 c 1.5,-1.25 2.694,-2.023 3.593,-2.328 A 0.98,0.98 0 0 0 44.094,-9 1.309,1.309 0 0 0 43.5,-9.156 c 0,0.105 -2.2,1.355 -6.594,3.75 L 33,-3.296 32.25,-4.046 c -0.5,1 -1.95,1.901 -4.344,2.702 A 3.05,3.05 0 0 0 27.375,-1.719 0.758,0.758 0 0 1 27,-2.406 c 0,-0.594 0.422,-1.239 1.266,-1.938 0.851,-0.707 2.082,-1.508 3.687,-2.406 1.8,-1 3.203,-1.922 4.203,-2.766 1,-0.851 1.5,-1.629 1.5,-2.328 h -2.11 L 28.5,-8.25 20.703,-4.047 c 1.594,2.594 4.844,4.79 9.75,6.594 z M 74.25,-10.5 c -1.398,0.898 -2.523,1.871 -3.375,2.922 -0.855,1.055 -1.633,1.828 -2.328,2.328 -0.7,0.5 -1.852,1.152 -3.453,1.953 -2,1 -3.45,1.852 -4.344,2.547 1.195,0 2.469,-0.273 3.813,-0.828 1.351,-0.55 3.132,-1.426 5.343,-2.625 0.5,-0.195 1.297,-0.594 2.39,-1.188 1.102,-0.601 2.005,-1.004 2.704,-1.203 z M 41.406,-9.156 C 41.196,-9.352 40.914,-9.5 40.563,-9.594 40.219,-9.695 39.945,-9.75 39.75,-9.75 c -0.898,0 -2.172,0.703 -3.828,2.11 -1.649,1.397 -2.622,2.194 -2.922,2.39 1.3,0 3.05,-0.75 5.25,-2.25 1.395,-0.8 2.445,-1.352 3.156,-1.656 z m 2.547,11.703 c 0,-0.899 0.348,-1.719 1.047,-2.469 0.695,-0.75 1.645,-1.578 2.844,-2.484 1.5,-1.196 2.351,-1.946 2.562,-2.25 L 35.546,3.156 C 33.242,3.852 32.094,4.25 32.094,4.344 l 3.453,-0.14 c 1.5,0 2.598,0.046 3.297,0.14 L 42.297,4.5 c 1.101,0 1.851,-0.25 2.25,-0.75 -0.399,-0.2 -0.594,-0.602 -0.594,-1.203 z m 21.75,0.61 c 3.8,0 7.098,-0.204 9.89,-0.61 0,-2.094 -0.226,-3.738 -0.671,-4.938 -0.45,-1.207 -0.672,-1.96 -0.672,-2.265 l -12.156,5.86 c -0.399,0 -0.797,0.097 -1.203,0.296 -0.399,0.195 -0.641,0.297 -0.735,0.297 1,0.906 2.848,1.36 5.547,1.36 z M 47.093,1.344 c 1.802,0 3.477,-0.477 5.032,-1.422 1.55,-0.945 2.328,-2.27 2.328,-3.969 h -1.5 c -0.5,0 -1.605,0.805 -3.312,2.406 -1.7,1.594 -2.547,2.586 -2.547,2.985 z m 0,0"
         id="path12" />
    </symbol>
    <symbol
       overflow="visible"
       id="c">
      <path
         fill="#343434"
         d="m 77.844,-26.25 c 0.101,1.898 0.254,4.074 0.453,6.531 0.195,2.45 0.348,4.274 0.453,5.469 0.695,5.605 1.047,10.453 1.047,14.547 0,2.101 -0.45,3.156 -1.344,3.156 -1.5,0 -3.555,-0.101 -6.156,-0.297 C 69.492,2.946 67.395,2.844 66,2.844 c -0.7,0 -1.797,0.097 -3.297,0.297 -1.5,0.207 -2.703,0.312 -3.61,0.312 -0.292,0 -0.59,-0.078 -0.89,-0.234 C 57.898,3.07 57.75,2.945 57.75,2.844 v -26.547 c -0.605,-1.094 -0.96,-2.613 -1.063,-4.563 -0.093,-1.957 -0.187,-3.234 -0.28,-3.828 -0.805,-3.601 -1.731,-6.828 -2.782,-9.672 -1.055,-2.851 -2.48,-5.68 -4.281,-8.484 -1.594,-2.5 -5.446,-3.75 -11.547,-3.75 -1.7,0 -2.899,0.875 -3.594,2.625 -0.7,1.75 -1.047,3.68 -1.047,5.781 0,0.5 0.297,0.824 0.89,0.969 0.602,0.148 1.005,0.324 1.204,0.531 0,0.2 -0.203,0.547 -0.61,1.047 -0.398,0.5 -0.695,0.95 -0.89,1.344 0,0.805 0.098,1.633 0.297,2.484 0.195,0.844 0.348,1.617 0.453,2.313 0.395,2 0.594,3.203 0.594,3.61 v 2.546 c 0.101,1.805 0.226,4.281 0.375,7.438 0.156,3.148 0.234,5.617 0.234,7.406 v 1.062 c 0,5.094 -0.152,9.196 -0.453,12.297 -0.305,3.094 -1,4.64 -2.094,4.64 l -4.812,-0.14 c -2.2,-0.2 -3.844,-0.297 -4.938,-0.297 -2.21,0 -4.562,0.223 -7.062,0.672 C 13.844,2.773 12.547,3 12.454,3 10.954,3 10.024,2.695 9.672,2.094 9.328,1.5 9.156,-0.046 9.156,-2.546 V -7.5 c 0,-1.5 0.145,-4.195 0.438,-8.094 0.207,-1.8 0.312,-3.203 0.312,-4.203 0,-0.195 -0.078,-0.445 -0.234,-0.75 -0.149,-0.3 -0.274,-0.504 -0.375,-0.61 v -45.14 l 1.203,-7.36 c 6.3,0 11.05,-0.195 14.25,-0.593 0.195,0.7 0.395,1.797 0.594,3.297 0.207,1.5 0.36,2.453 0.453,2.86 2.5,-1.708 5.547,-3.259 9.14,-4.657 3.602,-1.395 6.907,-2.094 9.907,-2.094 9.5,0 16.597,2.227 21.297,6.672 4.707,4.45 7.757,9.977 9.156,16.578 1.406,6.594 2.253,15.044 2.547,25.344 z M 46.5,-71.703 c -2.305,0 -5.73,0.777 -10.281,2.328 -4.543,1.555 -7.418,2.68 -8.625,3.375 2.8,-0.3 5.25,-0.75 7.343,-1.344 a 264.51,264.51 0 0 1 3.766,-1.062 c 4.195,-1.196 7.848,-1.895 10.953,-2.094 a 21.097,21.097 0 0 0 -1.593,-0.672 16.206,16.206 0 0 0 -1.563,-0.531 z m -33.156,2.11 c 0,0.593 -0.074,1.515 -0.219,2.765 -0.148,1.25 -0.219,2.328 -0.219,3.234 0,1.899 0.297,3.149 0.89,3.75 1.407,-0.601 2.958,-1.601 4.657,-3 1.695,-1.406 2.895,-2.36 3.594,-2.86 v -0.75 c -0.594,0.2 -1.695,0.653 -3.297,1.36 -1.605,0.7 -2.656,1.047 -3.156,1.047 -0.2,0 -0.352,-0.07 -0.453,-0.219 A 1.01,1.01 0 0 1 15,-64.796 c 0,-0.5 2,-2.099 6,-4.798 z M 57,-67.5 c -0.398,-0.602 -0.773,-1.004 -1.125,-1.203 C 55.52,-68.898 54.992,-69 54.297,-69 a 10.25,10.25 0 0 0 -3.531,0.984 c -1.149,0.543 -2.07,1.313 -2.766,2.313 2.395,-1.195 5.395,-1.797 9,-1.797 z m -26.406,3.156 c -0.594,1.2 -1.89,2.7 -3.89,4.5 l 1.343,0.594 c -0.094,-0.602 1.656,-1.629 5.25,-3.078 3.601,-1.445 5.851,-2.172 6.75,-2.172 0.906,0 2.055,-0.375 3.453,-1.125 a 23.882,23.882 0 0 0 3.906,-2.625 c -2.105,0 -4.086,0.352 -5.937,1.047 a 58.022,58.022 0 0 0 -5.328,2.328 c -1.7,0.855 -2.899,1.43 -3.594,1.719 L 32.094,-63 c 0,-0.102 -0.227,-0.281 -0.672,-0.531 -0.45,-0.25 -0.727,-0.52 -0.828,-0.813 z m 11.25,6.594 c 0,0 0.176,-0.07 0.531,-0.219 0.352,-0.156 0.531,-0.383 0.531,-0.687 3.29,-0.5 6.711,-1.297 10.266,-2.39 A 640.31,640.31 0 0 0 59.406,-63 l 4.188,-1.344 c -1.5,-0.906 -3.25,-1.36 -5.25,-1.36 l -7.344,3 c -1,0.407 -2.68,1.06 -5.031,1.954 -2.344,0.898 -4.016,1.398 -5.016,1.5 0,0.305 0.098,0.633 0.297,0.984 0.195,0.344 0.395,0.516 0.594,0.516 z m -12.89,1.797 c 0.3,0 2.898,-0.973 7.796,-2.922 4.895,-1.945 8.645,-3.57 11.25,-4.875 l -1.047,-0.156 c -2.2,0 -5.574,0.93 -10.125,2.781 -4.555,1.855 -7.48,3.578 -8.781,5.172 z m -3,-6.594 c -1,0 -3.306,0.977 -6.907,2.922 -3.594,1.95 -5.39,3.172 -5.39,3.672 0,0.406 0.046,0.61 0.14,0.61 a 3.425,3.425 0 0 1 1.953,-0.61 l 10.203,-5.844 z m 41.546,2.703 c -0.2,-0.8 -0.45,-1.328 -0.75,-1.578 -0.305,-0.25 -0.703,-0.375 -1.203,-0.375 -0.805,0 -1.902,0.375 -3.297,1.125 -1.398,0.75 -2.094,1.477 -2.094,2.172 0.696,0 1.844,-0.195 3.438,-0.594 1.3,-0.5 2.601,-0.75 3.906,-0.75 z m -22.047,2.547 c 0.3,0.7 1,1.227 2.094,1.578 1.101,0.344 1.754,0.617 1.953,0.813 l 8.25,-5.547 -0.75,-0.14 c -0.605,0 -2.531,0.448 -5.781,1.343 -3.25,0.898 -5.172,1.547 -5.766,1.953 z m 7.047,3.75 c 0,1.399 0.445,2.094 1.344,2.094 0.207,0 2.285,-0.922 6.234,-2.766 3.945,-1.851 5.973,-2.879 6.078,-3.078 h -4.5 c -0.5,0 -1.652,0.5 -3.453,1.5 a 21.58,21.58 0 0 1 -2.86,1.578 c -1,0.45 -1.948,0.672 -2.843,0.672 z m -29.703,-3 c -0.2,0.094 -1.852,0.64 -4.953,1.64 -3.094,1 -4.64,1.75 -4.64,2.25 v 3.157 c 0.194,-0.3 1.644,-1.328 4.343,-3.078 2.695,-1.75 4.898,-3.07 6.61,-3.969 l -0.75,-0.156 z m 40.656,4.203 c 1.594,0 3.113,-0.273 4.563,-0.828 1.457,-0.55 2.187,-1.379 2.187,-2.484 -1.5,0 -3.18,0.25 -5.031,0.75 -1.844,0.5 -3.016,1.25 -3.516,2.25 0.395,0.21 0.992,0.312 1.797,0.312 z m -50.25,25.5 c 0,1.293 0.399,1.938 1.203,1.938 0.395,0 2.344,-0.77 5.844,-2.313 3.5,-1.55 5.398,-2.531 5.703,-2.937 -1.2,0 -2.902,0.5 -5.11,1.5 -2.198,0.804 -3.698,1.203 -4.5,1.203 -0.398,0 -0.593,-0.5 -0.593,-1.5 l 13.656,-7.64 0.438,-0.61 c -1.399,0.2 -3.149,0.7 -5.25,1.5 -3.094,1.105 -5.543,1.656 -7.344,1.656 -0.105,0 -0.281,-0.047 -0.531,-0.14 -0.25,-0.102 -0.375,-0.258 -0.375,-0.47 0,-1.093 0.398,-1.913 1.203,-2.468 0.8,-0.55 2.004,-1.078 3.61,-1.578 2.288,-0.594 3.738,-1.39 4.343,-2.39 -1.105,0 -2.656,0.398 -4.656,1.187 -2,0.906 -3.7,1.36 -5.094,1.36 -0.898,0 -1.344,-0.204 -1.344,-0.61 0,-0.594 2.348,-2.313 7.047,-5.157 4.695,-2.851 7.348,-4.382 7.953,-4.593 -1.21,0 -2.465,0.304 -3.765,0.906 -1.293,0.605 -2.04,0.953 -2.235,1.047 C 21,-45.648 19.098,-45 17.703,-45 c -0.406,0 -0.762,-0.125 -1.062,-0.375 -0.293,-0.25 -0.438,-0.473 -0.438,-0.672 0.094,-0.101 1.04,-0.676 2.844,-1.719 1.8,-1.05 5.254,-2.93 10.36,-5.64 L 29.844,-54 c -1.399,0 -2.746,0.25 -4.047,0.75 C 24.492,-52.75 22.895,-52 21,-51 a 59.618,59.618 0 0 1 -3.61,1.813 c -1.292,0.593 -2.492,0.937 -3.593,1.03 0,3.106 -0.102,6.856 -0.297,11.25 -0.2,4.212 -0.297,7.563 -0.297,10.063 z m 41.844,-20.86 c 0,0.606 0.445,1.81 1.344,3.61 0.906,1.793 1.554,2.793 1.953,3 l 11.703,-5.86 c -0.305,0 -1.652,0.306 -4.047,0.907 -3,0.7 -4.805,1.047 -5.406,1.047 -0.2,0 -0.477,-0.172 -0.828,-0.516 A 6.394,6.394 0 0 1 58.953,-46.5 c 0,-0.195 0.598,-0.719 1.797,-1.563 a 25.615,25.615 0 0 1 4.047,-2.328 c 1.5,-0.707 2.8,-1.062 3.906,-1.062 l 0.594,-0.594 c -1.805,0 -4.633,0.527 -8.484,1.578 -3.844,1.043 -5.766,1.965 -5.766,2.766 z m 16.36,-2.546 c -0.305,0 -1.434,0.352 -3.391,1.047 -1.95,0.7 -3.47,1.351 -4.563,1.953 0.895,0 2.344,-0.273 4.344,-0.828 2,-0.55 3.203,-1.024 3.61,-1.422 z m 1.187,6.156 c 0,-0.707 -0.399,-1.062 -1.188,-1.062 -0.304,0 -2.054,0.703 -5.25,2.11 0.696,0 1.942,-0.071 3.735,-0.22 1.8,-0.156 2.703,-0.43 2.703,-0.828 z M 25.5,-42.906 c 0.3,0 0.828,-0.196 1.578,-0.594 0.75,-0.395 1.274,-0.645 1.578,-0.75 V -45 c -2,0.5 -3.304,1.152 -3.906,1.953 z m 33.453,4.062 c 0,1.5 0.348,2.25 1.047,2.25 0.8,0 2.098,-0.426 3.89,-1.281 1.801,-0.852 2.907,-1.379 3.313,-1.578 1.5,-0.895 2.649,-1.442 3.453,-1.64 v -0.75 c -1.906,0 -4.336,0.304 -7.281,0.906 -2.95,0.593 -4.422,1.292 -4.422,2.093 z M 30.297,-40.5 29.703,-40.656 c -0.906,0 -2.512,0.554 -4.812,1.656 -2.293,1.105 -3.438,1.703 -3.438,1.797 1.094,0 2.586,-0.172 4.485,-0.516 1.906,-0.351 3.062,-0.832 3.468,-1.437 z m 44.25,1.047 c -1.399,0 -2.824,0.25 -4.281,0.75 -1.45,0.5 -2.371,1.203 -2.766,2.11 h 7.047 z m -14.25,5.406 c 0.906,2.5 1.36,8.102 1.36,16.797 l 9,-4.5 0.75,-0.594 c -0.606,0 -1.587,0.102 -2.938,0.297 -1.344,0.2 -2.418,0.297 -3.219,0.297 -0.7,0 -1.047,-0.398 -1.047,-1.203 0,-0.195 0.07,-0.445 0.219,-0.75 0.156,-0.3 0.281,-0.5 0.375,-0.594 l 8.406,-5.11 h -10.36 a 13.072,13.072 0 0 0 -0.374,-1.265 4.05,4.05 0 0 1 -0.219,-1.281 c 0,-0.395 0.547,-0.692 1.64,-0.89 a 32.768,32.768 0 0 0 3.157,-0.75 c 1,-0.302 1.75,-0.907 2.25,-1.813 z m -32.547,2.39 c 0.5,0 1.023,-0.25 1.578,-0.75 0.55,-0.5 0.828,-1.046 0.828,-1.64 -0.605,0 -3.258,1 -7.953,3 z m 45.453,-2.39 c -2.105,1 -4.703,1.852 -7.797,2.547 l 2.39,0.156 c 3.602,0 5.407,-0.25 5.407,-0.75 z m -42.61,4.344 -12.296,4.656 2.25,0.14 c 1.406,0 3.406,-0.394 6,-1.187 a 35.305,35.305 0 0 0 2.172,-0.453 c 0.851,-0.195 1.476,-0.297 1.875,-0.297 z M 72.298,-24 c 1.406,0 2.11,-0.3 2.11,-0.906 -0.106,-0.29 -0.31,-0.633 -0.61,-1.032 -0.305,-0.406 -0.5,-0.707 -0.594,-0.906 -0.7,0.2 -1.527,0.574 -2.484,1.125 -0.95,0.543 -1.621,1.016 -2.016,1.422 0.195,0 0.57,0.055 1.125,0.156 0.55,0.094 1.375,0.141 2.469,0.141 z M 17.25,-9.453 A 0.911,0.911 0 0 1 16.5,-9.828 c -0.2,-0.25 -0.297,-0.473 -0.297,-0.672 0,-0.102 0.922,-0.727 2.766,-1.875 1.851,-1.145 5.726,-3.172 11.625,-6.078 l 0.61,-0.75 -10.954,3.297 c -0.7,0 -1.5,0.105 -2.406,0.312 -0.899,0.2 -1.594,0.297 -2.094,0.297 -0.898,0 -1.344,-0.203 -1.344,-0.61 0,-0.394 0.25,-0.866 0.75,-1.421 0.5,-0.55 0.895,-0.926 1.188,-1.125 l 9.61,-5.25 c 0.093,0.105 0.241,0.156 0.452,0.156 0.395,0 0.692,-0.25 0.89,-0.75 -1.093,0 -2.57,0.227 -4.421,0.672 -1.855,0.45 -3.078,0.727 -3.672,0.828 -2.406,0.7 -4.008,1.047 -4.797,1.047 l -0.61,1.953 V -6 l 10.954,-4.656 v -0.89 c -1.2,0 -2.398,0.35 -3.594,1.046 -0.21,0.105 -0.715,0.309 -1.515,0.61 a 6.852,6.852 0 0 1 -2.391,0.437 z m 2.25,-8.39 3,-0.61 c 5.895,-1.195 8.844,-2.195 8.844,-3 0,-1.5 -0.5,-2.25 -1.5,-2.25 l -9.594,5.25 z m 54.156,-2.704 c -0.906,0 -1.96,0.25 -3.156,0.75 -0.305,0.094 -0.758,0.246 -1.36,0.453 -0.593,0.2 -1.195,0.297 -1.796,0.297 0,0.305 0.097,0.578 0.297,0.828 0.207,0.25 0.41,0.375 0.609,0.375 3.602,0 5.406,-0.898 5.406,-2.703 z m 0.297,3.297 c -1.605,0.5 -4.406,1.102 -8.406,1.797 -2.594,0.305 -3.89,0.605 -3.89,0.906 L 62.25,-3 c 2.695,-2.695 6.797,-5.047 12.297,-7.047 v -0.61 c -1,0.106 -4.25,0.712 -9.75,1.813 h -0.594 v -1.812 c 0.8,-0.696 2.3,-1.696 4.5,-3 1.895,-1.094 3.395,-2.094 4.5,-3 0.094,0 0.344,-0.196 0.75,-0.594 z m -48,4.203 c 0.5,0 1.57,-0.273 3.219,-0.828 1.656,-0.55 2.484,-0.875 2.484,-0.969 l -0.453,-1.812 c -0.7,0.406 -1.726,1.039 -3.078,1.89 -1.355,0.844 -2.078,1.418 -2.172,1.72 z M 74.547,-13.5 c -1.094,0 -2.219,0.18 -3.375,0.531 -1.149,0.344 -1.969,0.867 -2.469,1.563 0.594,-0.196 1.488,-0.317 2.688,-0.36 A 42.935,42.935 0 0 0 74.547,-12 Z m -54.89,7.344 c 3.394,0 6.19,-0.32 8.39,-0.969 2.195,-0.645 3.297,-2.117 3.297,-4.422 -0.399,0 -0.649,0.047 -0.75,0.14 -1,0.5 -2.399,1.055 -4.188,1.657 -1.605,0.5 -2.96,1 -4.062,1.5 -1.094,0.5 -2.242,1.2 -3.438,2.094 z m 55.64,-1.64 c -1.805,0 -3.758,0.476 -5.86,1.421 -2.093,0.95 -3.64,2.074 -4.64,3.375 a 26.52,26.52 0 0 0 4.953,-0.453 47.345,47.345 0 0 1 2.547,-0.297 33.035,33.035 0 0 1 3,-0.156 z m -45.89,6 c 0.195,0 0.519,-0.25 0.968,-0.75 0.445,-0.5 0.723,-0.9 0.828,-1.204 0,-0.8 -0.203,-1.328 -0.61,-1.578 -0.398,-0.25 -0.945,-0.375 -1.64,-0.375 h -0.906 c -1,0 -3.477,0.5 -7.422,1.5 -3.95,1 -6.227,1.805 -6.828,2.406 z m 35.39,3 c 0.906,0 1.906,-0.056 3,-0.157 1.101,-0.094 1.953,-0.195 2.547,-0.297 1.8,-0.305 3.601,-0.453 5.406,-0.453 l -0.453,-0.89 H 62.25 l 1.656,1.64 c 0.196,0.101 0.492,0.156 0.89,0.156 z m 0,0"
         id="path15" />
    </symbol>
    <symbol
       overflow="visible"
       id="d">
      <path
         fill="#343434"
         d="m 10.5,-88.047 c 0,-1.406 -0.102,-3.707 -0.297,-6.906 l -0.156,-4.64 c 0,-1.102 0.55,-1.958 1.656,-2.563 h 10.953 c 1.79,0 2.91,0.93 3.36,2.781 0.457,1.855 0.734,4.531 0.828,8.031 0,2.293 0.101,3.64 0.312,4.047 0,0.805 -0.027,1.48 -0.078,2.031 -0.055,0.543 -0.23,0.965 -0.531,1.266 l -2.25,-0.156 c -1.5,0 -2.5,0.25 -3,0.75 -0.594,-0.5 -2.195,-0.75 -4.797,-0.75 L 11.703,-84 10.343,-85.203 Z M 16.203,-99 c -1.805,0 -2.703,0.5 -2.703,1.5 0,0.805 0.25,1.652 0.75,2.547 l 3.906,-3.89 z m 4.953,0.156 c -0.804,0 -1.508,0.555 -2.11,1.656 -0.593,1.094 -0.89,2.043 -0.89,2.844 v 0.75 c 0.79,-0.207 1.785,-0.582 2.985,-1.125 1.207,-0.55 1.96,-1.031 2.265,-1.437 0,-0.5 -0.23,-1.07 -0.687,-1.719 -0.45,-0.645 -0.969,-0.969 -1.563,-0.969 z m -6.453,6 c 0,0.094 0.195,0.344 0.594,0.75 0.406,0 0.707,-0.25 0.906,-0.75 0.195,-0.5 0.297,-1.05 0.297,-1.656 -0.398,0 -0.797,0.18 -1.203,0.531 -0.399,0.344 -0.594,0.719 -0.594,1.125 z m 7.953,0.438 a 8.434,8.434 0 0 0 -0.453,-0.36 4.635,4.635 0 0 1 -0.453,-0.39 c -0.5,0.21 -1.5,0.636 -3,1.281 -1.5,0.648 -2.805,1.121 -3.906,1.422 v 2.703 h 7.812 z m 4.047,62.86 c 0,2.198 0.098,4.573 0.297,7.124 0.195,2.555 0.348,4.375 0.453,5.469 0.695,5.805 1.047,11.258 1.047,16.36 0,0.593 -0.152,1.163 -0.453,1.718 -0.305,0.55 -0.703,0.828 -1.203,0.828 -2.399,0 -5.399,-0.101 -9,-0.297 C 14.25,1.446 11.102,1.344 8.406,1.344 7.602,1.05 7.203,0.602 7.203,0 c 0,-0.395 0.098,-0.816 0.297,-1.266 0.195,-0.457 0.297,-0.882 0.297,-1.28 0,-1.102 0.348,-5.657 1.047,-13.657 0.707,-8 1.207,-13.348 1.5,-16.047 l -0.75,-7.047 c 0,-3.3 0.148,-7.351 0.453,-12.156 0.195,-2 0.297,-3.348 0.297,-4.047 0,-2.395 -0.399,-5.844 -1.188,-10.344 0.5,-0.3 0.75,-0.601 0.75,-0.906 0,-0.3 -0.277,-0.676 -0.828,-1.125 -0.555,-0.445 -0.828,-0.77 -0.828,-0.969 0.395,-0.406 0.867,-0.957 1.422,-1.656 0.55,-0.695 1.203,-1.195 1.953,-1.5 0.75,-0.3 1.82,-0.453 3.219,-0.453 h 10.36 c 0.894,0 1.468,0.777 1.718,2.328 0.25,1.555 0.426,3.93 0.531,7.125 0,2.5 0.149,4.75 0.453,6.75 l -0.312,6.75 c -0.594,7.805 -0.89,14.453 -0.89,19.953 z M 12.156,-69 c 0.094,0.7 0.313,1.727 0.656,3.078 0.352,1.344 0.735,2.016 1.141,2.016 0.695,0 2.145,-0.895 4.344,-2.688 0.195,-0.207 0.723,-0.633 1.578,-1.281 0.852,-0.645 1.531,-1.02 2.031,-1.125 z m 11.094,1.656 c -0.805,0 -2.43,0.903 -4.875,2.703 -2.45,1.793 -3.824,2.891 -4.125,3.297 1.5,-0.3 3.348,-0.773 5.547,-1.422 2.195,-0.656 3.348,-1.035 3.453,-1.14 z m -9.297,12 c 1.8,0 4.899,-2.398 9.297,-7.203 -2,0.399 -4.18,0.969 -6.531,1.719 -2.344,0.75 -3.57,1.43 -3.672,2.031 0,2.305 0.3,3.453 0.906,3.453 z M 24,-60.156 c -3,1.105 -5.805,3.308 -8.406,6.61 l 7.656,-2.704 c 0.5,-0.102 0.75,-1.05 0.75,-2.844 z m -10.656,11.25 c 1.406,0 2.957,-0.5 4.656,-1.5 1.695,-1 3,-2.047 3.906,-3.14 L 21,-53.704 c -1.7,0 -3.402,0.453 -5.11,1.36 -1.699,0.898 -2.546,2.042 -2.546,3.437 z M 24,-52.344 c -1.898,0.7 -3.898,1.649 -6,2.844 -2.105,1.2 -3.605,2.45 -4.5,3.75 h 0.75 c 0.195,-0.195 1.395,-0.57 3.594,-1.125 2.207,-0.55 4.008,-0.828 5.406,-0.828 z m -10.5,8.39 c 0,1.5 0.023,2.68 0.078,3.532 0.05,0.844 0.274,1.418 0.672,1.719 0.895,-1.094 2.445,-2.29 4.656,-3.594 2.094,-1.101 3.54,-2.254 4.344,-3.453 l -0.906,-0.156 c -1,0 -2.555,0.304 -4.657,0.906 -2.093,0.605 -3.492,0.953 -4.187,1.047 z m 3.906,5.86 c 0.895,-0.101 2.04,-0.281 3.438,-0.531 1.406,-0.25 2.457,-0.473 3.156,-0.672 -0.7,-1.195 -1.547,-1.797 -2.547,-1.797 -0.906,0 -1.808,0.43 -2.703,1.282 -0.898,0.843 -1.344,1.417 -1.344,1.718 z m -3.156,1.344 c -0.398,0.398 -0.648,1.172 -0.75,2.328 a 38.436,38.436 0 0 0 -0.156,3.516 h 0.906 c 0.602,0 2.05,-0.77 4.344,-2.313 2.3,-1.55 3.851,-2.726 4.656,-3.531 a 4.816,4.816 0 0 0 -0.61,-0.453 c -0.292,-0.195 -0.538,-0.297 -0.734,-0.297 -0.5,0 -1.43,0.227 -2.781,0.672 -1.355,0.45 -2.328,0.672 -2.922,0.672 -0.305,-0.094 -0.656,-0.211 -1.062,-0.36 -0.399,-0.156 -0.696,-0.234 -0.891,-0.234 z m 1.953,7.797 c 2.3,0 4.274,-0.5 5.922,-1.5 1.645,-1 2.469,-2.445 2.469,-4.344 l -8.39,5.094 -0.61,0.61 z m 4.5,-0.14 c -4.605,1.898 -7.156,2.995 -7.656,3.296 l 0.453,1.953 c 3.3,-1.3 5.703,-3.05 7.203,-5.25 z m -6.61,8.687 c 6.708,0 10.063,-2.696 10.063,-8.094 -1,0 -2.93,1.203 -5.781,3.61 -2.855,2.398 -4.281,3.89 -4.281,4.484 z m 6.61,0.312 c -0.906,0.094 -2.414,0.371 -4.515,0.828 -2.094,0.45 -3.141,0.871 -3.141,1.266 v 4.5 c 0.195,-0.102 1.394,-0.926 3.594,-2.469 2.207,-1.55 3.96,-2.879 5.265,-3.984 z m -5.86,8.688 c 1.208,0 2.708,-0.297 4.5,-0.89 1.802,-0.602 3.102,-1.005 3.907,-1.204 l 0.156,-3.156 c 0,-0.895 -0.25,-1.344 -0.75,-1.344 -0.304,0.305 -1.406,1.105 -3.312,2.406 -1.899,1.293 -3.399,2.438 -4.5,3.438 z m -2.687,4.36 c 0,0.804 0.047,1.25 0.14,1.343 0.802,-1.3 2.024,-2.375 3.673,-3.219 1.656,-0.851 2.582,-1.328 2.781,-1.422 l -0.594,-0.61 c -0.605,0.306 -1.433,0.634 -2.484,0.985 -1.055,0.344 -1.902,0.746 -2.547,1.203 -0.648,0.45 -0.969,1.024 -0.969,1.72 z m 11.094,-3.907 c -0.5,1 -2.102,2.152 -4.797,3.453 -2.605,1.105 -4.406,2.355 -5.406,3.75 1.3,0 3.55,-0.422 6.75,-1.266 3.195,-0.851 4.797,-1.68 4.797,-2.484 z M 21,-1.797 c 1.395,0 2.469,-0.172 3.219,-0.516 0.75,-0.351 1.125,-1.18 1.125,-2.484 -1.293,0 -2.418,0.18 -3.375,0.531 -0.95,0.344 -2.024,0.918 -3.219,1.72 1,0.5 1.75,0.75 2.25,0.75 z m 0,0"
         id="path18" />
    </symbol>
    <symbol
       overflow="visible"
       id="e">
      <path
         fill="#343434"
         d="m 78,-45.75 a 49.792,49.792 0 0 1 3.75,19.047 c 0,5.406 -0.828,9.836 -2.484,13.281 -1.649,3.45 -4.07,6.297 -7.266,8.547 -3.2,2.25 -7.45,4.375 -12.75,6.375 -0.805,0.3 -1.781,0.703 -2.938,1.203 -1.148,0.5 -2.195,0.848 -3.14,1.047 -0.95,0.195 -2.074,0.297 -3.375,0.297 -4.094,0 -7.969,-0.555 -11.625,-1.656 -3.649,-1.094 -7.82,-2.692 -12.516,-4.797 -0.71,-0.29 -2.136,-0.813 -4.281,-1.563 -2.148,-0.75 -3.969,-1.523 -5.469,-2.328 -1.804,-0.906 -3.703,-2.754 -5.703,-5.547 -2,-2.8 -3.703,-5.8 -5.11,-9 C 3.696,-24.05 3,-26.704 3,-28.797 c 0,-5 0.57,-8.973 1.719,-11.922 1.156,-2.957 3.43,-7.082 6.828,-12.375 5.3,-10.406 15.148,-16.554 29.547,-18.453 h 2.562 c 1.395,0 2.766,0.18 4.11,0.531 1.351,0.344 2.68,0.766 3.984,1.266 l 4.203,1.344 c 6,1.5 10.5,3.98 13.5,7.437 3,3.45 5.848,8.524 8.547,15.219 z M 45.75,-67.203 c -0.898,0 -1.344,0.902 -1.344,2.703 0,0.2 0.07,0.352 0.219,0.453 0.145,0.094 0.27,0.14 0.375,0.14 l 7.047,-1.187 c -0.805,-0.601 -1.805,-1.101 -3,-1.5 -1.2,-0.406 -2.297,-0.61 -3.297,-0.61 z m -11.094,0.156 c -4.605,0.805 -7.855,2.102 -9.75,3.89 2,0 3.946,-0.269 5.844,-0.812 1.895,-0.55 3.195,-1.578 3.906,-3.078 z m -12.75,17.25 c -2.71,0.305 -4.937,0.73 -6.687,1.281 -1.75,0.543 -3.024,1.465 -3.813,2.766 4.395,-2.195 8.844,-3.297 13.344,-3.297 0.895,0 1.395,0.25 1.5,0.75 -0.305,0.2 -0.605,0.602 -0.906,1.203 -0.293,0.594 -0.64,1.043 -1.047,1.344 l -10.344,3.906 0.75,0.594 c 1,-0.195 2.399,-0.395 4.203,-0.594 2.29,-0.3 4.086,-0.773 5.39,-1.422 1.302,-0.656 2.4,-1.93 3.298,-3.828 0,-1.3 1.023,-2.875 3.078,-4.718 2.05,-1.852 4.426,-3.477 7.125,-4.876 2.695,-1.406 4.898,-2.109 6.61,-2.109 0.5,0.305 1.519,0.758 3.062,1.36 1.55,0.593 2.676,0.89 3.375,0.89 0.406,0 1.484,-0.672 3.234,-2.016 1.75,-1.351 2.82,-2.28 3.219,-2.78 0.101,0 0.351,-0.204 0.75,-0.61 h -1.953 c 0,-0.5 0.148,-0.895 0.453,-1.188 0.3,-0.3 0.8,-0.554 1.5,-0.765 -0.094,-0.094 -0.293,-0.211 -0.594,-0.36 -0.305,-0.156 -0.555,-0.234 -0.75,-0.234 -0.105,0.105 -0.558,0.383 -1.36,0.828 -0.792,0.45 -1.187,0.824 -1.187,1.125 0.094,0 0.211,0.125 0.36,0.375 0.156,0.25 0.234,0.477 0.234,0.672 0,1.305 -1.95,1.953 -5.844,1.953 h -1.062 c -0.594,0 -0.89,-0.148 -0.89,-0.453 l 1.952,-2.547 c -3.304,0.805 -8.203,2.652 -14.703,5.547 -3,1.398 -5.203,2.344 -6.61,2.844 -0.792,0.304 -1.312,0.683 -1.562,1.14 -0.25,0.45 -0.43,0.996 -0.531,1.641 -0.105,0.648 -0.305,1.023 -0.594,1.125 z m 2.39,-10.797 c -1.593,0 -3.194,0.602 -4.796,1.797 a 15.271,15.271 0 0 0 -3.984,4.422 c -1.043,1.75 -1.563,3.324 -1.563,4.719 l 6.453,-1.797 c 0.196,-0.5 0.492,-1.047 0.89,-1.64 0.407,-0.602 0.755,-0.958 1.048,-1.063 l 11.703,-4.64 -0.14,-0.61 c 0,-0.696 0.374,-1.219 1.124,-1.563 0.75,-0.351 1.875,-0.68 3.375,-0.984 0.196,0 0.742,-0.098 1.64,-0.297 0.907,-0.195 1.505,-0.5 1.798,-0.906 l -0.75,-0.14 c -1.594,0 -3.39,0.452 -5.39,1.358 -2,0.899 -3.102,1.391 -3.298,1.485 h -1.062 c -0.899,0 -1.496,0.152 -1.797,0.453 l 0.61,0.75 -1.657,0.453 v -1.797 h -0.594 c -0.105,0.094 -1.008,0.871 -2.703,2.328 -1.7,1.45 -4.152,2.172 -7.36,2.172 0.5,-0.707 1.274,-1.312 2.329,-1.812 1.05,-0.5 1.676,-0.797 1.875,-0.89 1.601,-0.5 2.555,-1.099 2.86,-1.798 z M 64.5,-60.906 c 0,-0.696 -0.7,-1.047 -2.094,-1.047 -0.804,0 -2.008,0.555 -3.61,1.656 -1.593,1.094 -2.745,2.043 -3.452,2.844 h 0.61 c 3.3,-1.195 5.523,-2.047 6.671,-2.547 1.145,-0.5 1.77,-0.8 1.875,-0.906 z m 2.25,1.953 -6.156,4.797 -0.438,-0.14 c -0.304,0 -0.781,0.25 -1.437,0.75 -0.649,0.5 -1.32,0.75 -2.016,0.75 0.3,-0.5 1.348,-1.4 3.14,-2.704 1.802,-1.3 2.704,-2 2.704,-2.094 l -0.14,-0.453 c -3.212,1.2 -5.387,2.047 -6.532,2.547 -1.148,0.5 -1.773,0.805 -1.875,0.906 0,0.2 0.695,1.297 2.094,3.297 1.3,1.7 2.101,2.899 2.406,3.594 1.102,-0.8 2.578,-1.723 4.422,-2.766 1.851,-1.05 2.976,-1.578 3.375,-1.578 v 1.344 c -0.5,0 -1.152,0.305 -1.953,0.906 -0.793,0.594 -1.438,1.14 -1.938,1.64 -0.5,0.5 -0.804,0.856 -0.906,1.063 0.8,-0.207 1.973,-0.562 3.516,-1.062 1.55,-0.5 2.879,-1 3.984,-1.5 0,-0.094 0.07,-0.211 0.219,-0.36 0.156,-0.156 0.281,-0.234 0.375,-0.234 0.8,0 1.453,0.2 1.953,0.594 0.101,-0.196 0.156,-0.492 0.156,-0.89 0,-0.907 -0.68,-1.43 -2.031,-1.579 -1.344,-0.145 -2.07,-0.27 -2.172,-0.375 0,-0.195 0.07,-0.469 0.219,-0.813 0.156,-0.351 0.332,-0.882 0.531,-1.593 -0.398,0 -1.094,0.25 -2.094,0.75 -1,0.5 -1.804,0.75 -2.406,0.75 l -1.344,-0.14 5.844,-2.548 z m -4.344,34.203 c 3.094,-2.3 5.692,-3.898 7.797,-4.797 l -0.906,-0.156 c -0.7,0 -1.922,0.328 -3.672,0.984 -1.75,0.649 -2.824,0.969 -3.219,0.969 -0.21,0 -0.367,-0.125 -0.468,-0.375 -0.094,-0.25 -0.141,-0.426 -0.141,-0.531 0,-0.696 0.422,-1.442 1.266,-2.235 0.851,-0.8 2.082,-1.754 3.687,-2.859 2,-1.602 3.148,-2.55 3.453,-2.844 h -0.61 l -8.39,3.14 c -0.2,0.106 -0.527,1.434 -0.984,3.985 -0.45,2.543 -1.024,4.215 -1.719,5.016 -2.7,3 -4.148,4.5 -4.344,4.5 h -0.75 c 1.594,-1.094 2.64,-2.664 3.14,-4.719 0.5,-2.05 0.75,-4.379 0.75,-6.984 0,-2.196 -0.327,-4.922 -0.983,-8.172 -0.649,-3.25 -1.668,-6.145 -3.063,-8.688 -1.398,-2.55 -3.094,-3.976 -5.094,-4.28 -0.804,0.5 -1.453,0.75 -1.953,0.75 -0.605,0 -1.383,-0.349 -2.328,-1.048 -0.95,-0.707 -1.727,-1.062 -2.328,-1.062 -1.5,0 -3.227,0.75 -5.172,2.25 a 22.47,22.47 0 0 0 -4.953,5.25 c -1.344,2 -2.016,3.652 -2.016,4.953 l 0.14,1.5 c 0,0.406 -0.226,1.262 -0.671,2.562 -0.45,1.293 -0.672,2.891 -0.672,4.797 0,4.899 1.348,8.946 4.047,12.14 2.695,3.2 6.445,4.798 11.25,4.798 6.195,0 11.645,-2.848 16.344,-8.547 -0.399,0.7 -0.594,1.351 -0.594,1.953 z M 73.5,-45.156 v -1.797 c 0,-1 -0.402,-1.5 -1.203,-1.5 -0.805,0.406 -2.055,0.984 -3.75,1.734 -1.7,0.75 -3.2,1.555 -4.5,2.407 a 15.352,15.352 0 0 0 -3.453,3.062 c 0.8,-0.102 1.726,-0.379 2.781,-0.828 1.05,-0.445 1.773,-0.77 2.172,-0.969 2.601,-1.5 4.805,-2.25 6.61,-2.25 z m -63.453,1.36 c -0.399,0.398 -0.594,1.046 -0.594,1.952 0.695,-0.3 2.297,-0.926 4.797,-1.875 2.5,-0.957 4.55,-1.883 6.156,-2.781 -0.906,0 -2.484,0.305 -4.734,0.906 -2.25,0.594 -4.125,1.196 -5.625,1.797 z m 64.656,0.452 c -0.305,0.094 -0.828,0.293 -1.578,0.594 -0.75,0.305 -1.277,0.605 -1.578,0.906 -0.305,0.293 -1.578,1.117 -3.828,2.469 -2.25,1.355 -3.824,2.281 -4.719,2.781 l -0.594,0.75 12.297,-4.203 z m -13.797,5.547 c 1.29,0 3.008,-0.797 5.157,-2.39 2.156,-1.602 3.535,-2.61 4.14,-3.016 H 69 c -0.2,0 -2.602,1.055 -7.203,3.156 -0.594,0.305 -0.89,1.055 -0.89,2.25 z m -42.156,-2.86 c -3.605,0 -6.383,0.329 -8.328,0.985 -1.95,0.649 -2.922,2.274 -2.922,4.875 2.5,-0.695 5.523,-1.695 9.078,-3 3.55,-1.3 5.926,-2.203 7.125,-2.703 l -3.906,-0.156 z M 19.203,-36 c 0.895,0 1.992,-0.195 3.297,-0.594 1.3,-0.406 1.953,-0.957 1.953,-1.656 l -0.156,-0.453 c -0.305,0.305 -1.133,0.656 -2.485,1.062 -1.343,0.399 -2.667,0.891 -3.968,1.485 z m 56.25,-1.953 c -0.7,0 -2.851,1.5 -6.453,4.5 a 49.637,49.637 0 0 1 -3.906,3.156 c 2.101,-0.406 4.476,-1.379 7.125,-2.922 2.656,-1.55 3.984,-3.129 3.984,-4.734 z m -68.703,9 c 0,0.7 0.05,1.101 0.156,1.203 1.696,-1 4.094,-2 7.188,-3 4,-1.3 6.851,-2.648 8.562,-4.047 -2.71,0 -6.039,0.5 -9.984,1.5 -3.95,1 -5.922,2.45 -5.922,4.344 z m 17.547,-3.89 c -0.805,0.593 -3,1.445 -6.594,2.546 -0.5,0.2 -1.578,0.602 -3.234,1.203 -1.649,0.594 -2.899,1.121 -3.75,1.578 -0.844,0.45 -1.266,0.82 -1.266,1.11 1.3,-0.395 3,-0.692 5.094,-0.89 3,-0.407 5.297,-0.958 6.89,-1.657 1.602,-0.695 2.555,-1.992 2.86,-3.89 z M 78,-29.548 77.406,-32.251 c -0.71,0 -1.386,0.328 -2.031,0.984 a 34.35,34.35 0 0 1 -2.031,1.875 c -0.7,0.594 -1.746,1.141 -3.14,1.641 v 0.75 c 1.593,-1.102 3.538,-1.754 5.843,-1.953 z m 0,1.203 c -2.105,1.793 -5.453,3.793 -10.047,6 -3.605,1.899 -5.855,3.149 -6.75,3.75 L 58.5,-17.25 h 0.75 c 0.8,0 3.578,-0.973 8.328,-2.922 4.75,-1.945 8.024,-3.375 9.828,-4.281 0.29,-0.094 0.461,-0.363 0.516,-0.813 0.05,-0.457 0.078,-0.937 0.078,-1.437 z m -69.906,4.189 c 0,0.605 0.097,1.031 0.297,1.281 0.207,0.25 0.562,0.375 1.062,0.375 1.195,0 4.098,-1.098 8.703,-3.297 0.594,-0.3 1.14,-0.55 1.64,-0.75 0.5,-0.195 0.9,-0.348 1.204,-0.453 v -0.75 l -0.594,0.156 -3.61,0.89 c -4.198,0.806 -7.1,1.653 -8.702,2.548 z M 24,-26.546 c -1.105,0.398 -3.133,1.12 -6.078,2.171 -2.95,1.055 -4.477,1.68 -4.578,1.875 h 1.062 c 1.5,0 3.625,-0.223 6.375,-0.672 2.75,-0.445 4.125,-1.07 4.125,-1.875 0,-0.3 -0.105,-0.625 -0.312,-0.969 -0.2,-0.351 -0.399,-0.53 -0.594,-0.53 z M 12.297,-18 c 0.406,0 2.305,-0.625 5.703,-1.875 3.395,-1.25 5.695,-2.125 6.906,-2.625 -4.5,0 -9.203,0.852 -14.11,2.547 0.102,0.406 0.302,0.836 0.595,1.281 0.3,0.45 0.601,0.672 0.906,0.672 z m 51.453,-4.5 c -1.398,0.105 -3.148,0.73 -5.25,1.875 -2.105,1.148 -3.156,2.422 -3.156,3.828 0.3,-0.3 0.875,-0.676 1.718,-1.125 0.852,-0.445 1.485,-0.82 1.891,-1.125 0.395,-0.3 1.242,-0.8 2.547,-1.5 1.3,-0.695 2.05,-1.348 2.25,-1.953 z m 5.844,10.344 c 2.3,-0.79 4.203,-1.91 5.703,-3.36 1.5,-1.457 2.25,-3.234 2.25,-5.328 -0.899,0 -3.649,1.574 -8.25,4.719 -4.594,3.148 -7.746,5.371 -9.453,6.672 h 1.36 l 8.39,-3.89 z M 16.5,-17.25 c 4.195,0 7.895,-0.648 11.094,-1.953 0,-0.195 -0.102,-0.469 -0.297,-0.813 -0.2,-0.351 -0.399,-0.53 -0.594,-0.53 l -6.906,1.952 -1.5,-0.156 c -1.305,0 -1.953,0.352 -1.953,1.047 z m 31.656,7.797 c 0.5,0.105 0.75,0.558 0.75,1.36 v 0.437 l -5.703,2.562 c 2.695,0 5.219,-0.472 7.563,-1.422 2.351,-0.957 4.78,-2.382 7.28,-4.28 1.102,-0.802 3.602,-2.454 7.5,-4.954 3.802,-2.395 6.255,-3.992 7.36,-4.797 -1.71,0 -3.414,0.352 -5.11,1.047 -1.698,0.7 -3.698,1.75 -6,3.156 -2.198,1.293 -4.073,2.293 -5.624,3 -1.555,0.7 -3.125,1.047 -4.719,1.047 v -1.36 c -0.7,0 -2.027,0.356 -3.984,1.063 -1.95,0.7 -2.969,1.297 -3.063,1.797 0,-0.101 -1,-0.476 -3,-1.125 -2,-0.656 -3.203,-0.984 -3.61,-0.984 0,1.21 0.821,1.914 2.47,2.11 1.656,0.198 2.535,0.296 2.64,0.296 0,0.305 -1.25,1.055 -3.75,2.25 -2,1 -3.105,1.652 -3.312,1.953 3.101,-0.8 5.004,-1.254 5.703,-1.36 a 83.146,83.146 0 0 0 6.61,-1.796 z m -32.86,-2.703 c 0.907,0 2.88,-0.625 5.923,-1.875 3.05,-1.25 4.726,-2.172 5.031,-2.766 l -1.344,-0.453 c -4.605,1.398 -8.406,2.094 -11.406,2.094 0,0.5 0.172,1.105 0.516,1.812 0.351,0.7 0.78,1.094 1.28,1.188 z m 15.454,-3.297 c -0.7,0 -1.547,0.125 -2.547,0.375 -1,0.25 -1.5,0.476 -1.5,0.672 0,0.304 0.445,0.453 1.344,0.453 0.695,0 1.57,-0.098 2.625,-0.297 1.05,-0.195 1.726,-0.348 2.031,-0.453 -0.605,-0.5 -1.258,-0.75 -1.953,-0.75 z m -0.156,4.5 3.453,0.156 c 0.3,0 0.703,-0.25 1.203,-0.75 0.5,-0.5 0.75,-1.05 0.75,-1.656 z m 37.062,5.86 c 1.29,-0.602 2.813,-1.704 4.563,-3.298 1.75,-1.601 2.625,-2.957 2.625,-4.062 l -0.14,-0.453 c -2.407,1.5 -5.31,2.875 -8.704,4.125 -3.398,1.25 -5.398,1.875 -6,1.875 -1.105,1.105 -3.156,2.258 -6.156,3.453 a 25.22,25.22 0 0 0 -3.297,1.515 16.152,16.152 0 0 0 -3,2.094 c 0.101,0.094 0.3,0.211 0.594,0.36 0.3,0.156 0.554,0.234 0.765,0.234 0.5,0 1.645,-0.25 3.438,-0.75 2.601,-0.8 4.406,-1.203 5.406,-1.203 0.195,0.105 3.5,-1.192 9.906,-3.89 z m -50.406,-5.11 c 0.5,0.805 1.172,1.383 2.016,1.734 0.851,0.344 1.879,0.617 3.078,0.813 l 7.812,-4.5 -0.906,-0.297 z m 5.844,3.297 c 0,0.304 0.75,0.683 2.25,1.14 1.5,0.45 2.601,0.672 3.312,0.672 a 153.37,153.37 0 0 0 3.438,-1.281 36.966,36.966 0 0 0 4.875,-2.25 c 1.55,-0.852 2.328,-1.578 2.328,-2.172 -2.399,1.399 -6.047,2.399 -10.953,3 -0.594,0.094 -1.446,0.219 -2.547,0.375 -1.094,0.149 -1.996,0.32 -2.703,0.516 z M 31.5,-3.75 c 0,0.398 0.348,0.594 1.047,0.594 0.906,0 2.332,-0.473 4.281,-1.422 1.945,-0.945 3.223,-1.52 3.828,-1.719 z m 5.703,2.547 c 2,0.5 3.848,0.75 5.547,0.75 0.5,0 1.945,-0.547 4.344,-1.64 2.406,-1.102 4.304,-2.102 5.703,-3 0.101,0 0.203,-0.071 0.297,-0.22 0.101,-0.156 0.207,-0.234 0.312,-0.234 -2.5,0 -5.23,0.402 -8.187,1.203 -2.95,0.793 -5.621,1.84 -8.016,3.14 z m 0,0"
         id="path21" />
    </symbol>
    <symbol
       overflow="visible"
       id="f">
      <path
         fill="#343434"
         d="m 8.547,2.094 c 0,-0.293 0.223,-2.012 0.672,-5.156 0.457,-3.157 0.687,-5.688 0.687,-7.594 0,-2.594 -0.105,-6.192 -0.312,-10.797 -0.2,-5.594 -0.297,-11.692 -0.297,-18.297 L 9,-46.047 c -0.7,-9.8 -1.047,-17.148 -1.047,-22.047 0,-0.406 0.27,-0.86 0.813,-1.36 0.55,-0.5 1.18,-0.75 1.89,-0.75 0.395,0 1.664,0.126 3.813,0.376 2.156,0.25 4.332,0.375 6.531,0.375 3.3,0 5.25,-0.047 5.844,-0.14 1.601,0.398 2.68,0.921 3.234,1.577 0.55,0.649 1.176,1.871 1.875,3.672 0.395,0.399 0.594,0.594 0.594,0.594 0.195,0 0.445,-0.07 0.75,-0.219 0.3,-0.156 0.504,-0.281 0.61,-0.375 l 18.75,-5.25 c 2.593,0 3.89,0.7 3.89,2.094 a 155.617,155.617 0 0 0 -0.75,5.172 85.377,85.377 0 0 1 -0.594,3.984 c -0.406,3.2 -0.762,5.477 -1.062,6.828 -0.293,1.344 -0.688,2.016 -1.188,2.016 -0.7,0 -1.7,-0.25 -3,-0.75 C 48.648,-50.75 47.5,-51 46.5,-51 c -3.2,0 -6.172,1.078 -8.922,3.234 -2.75,2.149 -4.125,4.82 -4.125,8.016 0,0.7 -0.152,2.277 -0.453,4.734 -0.305,2.45 -0.453,5.82 -0.453,10.11 0,5.304 0.25,10.906 0.75,16.812 0.5,2.7 0.75,5.996 0.75,9.89 0,3.696 -0.5,5.548 -1.5,5.548 H 17.094 L 9.906,5.547 C 9.696,5.347 9.414,4.875 9.062,4.125 8.719,3.375 8.547,2.695 8.547,2.094 Z m 3.297,-67.5 c 0,1.21 0.203,2.21 0.61,3 0.5,0.605 0.796,1.605 0.89,3 2.601,-0.79 3.804,-1.14 3.61,-1.047 3.5,-1 6.222,-1.922 8.171,-2.766 1.945,-0.851 2.922,-1.832 2.922,-2.937 0,-0.395 -0.297,-0.594 -0.89,-0.594 -1.712,0 -4.165,0.2 -7.36,0.594 -3,0.5 -5.652,0.75 -7.953,0.75 z m 31.812,4.062 c 0,0.899 -1.078,1.946 -3.234,3.14 -2.149,1.2 -3.274,1.852 -3.375,1.954 l 0.75,0.297 13.5,-7.203 c 0.101,0 0.555,-0.848 1.36,-2.547 v -0.594 c -4.712,0.305 -8.61,1.555 -11.704,3.75 0.195,0 0.547,0.027 1.047,0.078 0.5,0.043 0.898,0.14 1.203,0.297 0.3,0.149 0.453,0.422 0.453,0.828 z m -5.86,-0.61 c -2.593,0.907 -4.495,2.06 -5.702,3.454 -1.2,1.398 -2.047,2.7 -2.547,3.906 -0.5,1.2 -0.852,1.844 -1.047,1.938 l 3.297,-2.844 c 3.906,-3.5 6.11,-5.398 6.61,-5.703 a 1.947,1.947 0 0 1 -0.313,-0.36 2.172,2.172 0 0 0 -0.297,-0.39 z m -19.952,8.25 c 0.906,-0.3 2.332,-0.722 4.281,-1.265 1.945,-0.55 3.422,-1.3 4.422,-2.25 1,-0.957 1.5,-2.332 1.5,-4.125 -1.399,1.094 -4.747,2.294 -10.047,3.594 -2.805,0.7 -4.402,1.2 -4.797,1.5 z m 8.25,2.25 c -7.594,3 -11.89,6 -12.89,9 l 2.546,0.157 c 8.195,0 13.195,-0.898 15,-2.703 1.102,-1.102 1.852,-1.906 2.25,-2.406 0.8,-1 1.55,-1.797 2.25,-2.39 0.695,-0.602 1.75,-1.157 3.156,-1.657 0.696,-0.3 1.617,-0.5 2.766,-0.594 1.156,-0.101 1.93,-0.156 2.328,-0.156 2.3,-0.094 4.05,-0.317 5.25,-0.672 1.195,-0.352 1.848,-1.176 1.953,-2.469 l 0.14,-4.812 c -1.292,0 -3.917,0.98 -7.874,2.937 -3.95,1.95 -6.574,3.469 -7.875,4.563 v -0.75 c -0.793,0.105 -1.742,0.906 -2.844,2.406 -1.2,1.2 -2.172,2.074 -2.922,2.625 -0.75,0.555 -1.625,0.828 -2.625,0.828 -1,0 -1.5,-0.348 -1.5,-1.047 0,-0.101 0.297,-0.43 0.89,-0.984 0.602,-0.55 1.005,-0.973 1.204,-1.266 0,-0.406 -0.402,-0.61 -1.203,-0.61 z m -13.64,1.5 c 0,0.407 0.097,0.934 0.296,1.579 0.195,0.648 0.348,1.121 0.453,1.422 l 11.094,-6.297 c -0.399,0 -1.496,0.352 -3.297,1.047 -1.805,0.7 -2.805,1.047 -3,1.047 -1.2,0 -2.375,0.18 -3.531,0.531 -1.149,0.355 -1.82,0.578 -2.016,0.672 z m 0.75,21.61 c 0,0.899 0.124,1.946 0.374,3.14 0.25,1.2 0.375,2.2 0.375,3 1,0 1.848,-0.171 2.547,-0.515 0.695,-0.351 1.598,-0.93 2.703,-1.734 1.195,-0.895 2.195,-1.492 3,-1.797 h -0.61 l -6.437,0.75 c -0.5,-0.5 -0.75,-0.898 -0.75,-1.203 0.094,-0.594 2.29,-2.344 6.594,-5.25 l 4.5,-3.453 c -1,0.21 -1.95,0.312 -2.844,0.312 -1.5,0 -2.652,-0.05 -3.453,-0.156 l -4.047,-0.156 c 0.094,-0.895 1.192,-1.942 3.297,-3.14 l -0.75,-0.61 c 2.5,-0.196 4.672,-0.52 6.516,-0.969 1.851,-0.445 3.332,-1.223 4.437,-2.328 -1.406,0 -4.61,0.601 -9.61,1.797 -2.593,0.605 -3.944,0.906 -4.046,0.906 -0.7,0 -1.102,-0.05 -1.203,-0.156 -0.399,4.406 -0.594,8.261 -0.594,11.562 z m 15.89,-11.703 c -1.899,0 -4.594,0.95 -8.094,2.844 l 4.344,0.156 c 1.207,0 2.133,-0.195 2.781,-0.594 0.645,-0.406 0.969,-1.207 0.969,-2.406 z m -1.64,26.703 c 0,0.7 -0.403,1.324 -1.204,1.875 -0.805,0.543 -1.902,1.168 -3.297,1.875 -0.305,0.2 -0.855,0.5 -1.656,0.906 -0.805,0.399 -1.352,0.793 -1.64,1.188 C 20.55,-7.602 22,-7.879 24,-8.328 c 2,-0.445 3.348,-0.82 4.047,-1.125 l 0.61,-3.297 V -31.5 l -0.61,-3.156 a 114.338,114.338 0 0 0 -4.64,3.39 c -1.5,1.149 -2.555,1.918 -3.157,2.313 h 4.5 c 0.5,0 0.75,0.5 0.75,1.5 0,0.805 -0.5,1.578 -1.5,2.328 -1,0.75 -2.352,1.574 -4.047,2.469 -2.105,0.906 -3.308,1.656 -3.61,2.25 1,0 2.4,-0.098 4.204,-0.297 1.406,-0.3 2.86,-0.453 4.36,-0.453 1.593,0 2.39,0.453 2.39,1.36 0,0.898 -0.602,1.718 -1.797,2.468 -1.2,0.75 -2.602,1.5 -4.203,2.25 -1.594,0.75 -2.793,1.328 -3.594,1.734 v 0.594 c 1,-0.5 2.27,-0.922 3.813,-1.266 1.55,-0.351 2.879,-0.53 3.984,-0.53 0.8,0 1.328,0.077 1.578,0.233 0.25,0.149 0.375,0.47 0.375,0.97 z m -4.5,-6.453 c -0.7,0 -2.403,0.25 -5.11,0.75 -2.7,0.5 -4.047,1.047 -4.047,1.64 0,0.407 0.172,0.985 0.515,1.735 0.352,0.75 0.833,1.125 1.438,1.125 0.3,0 1.773,-0.723 4.422,-2.172 2.656,-1.457 3.984,-2.285 3.984,-2.484 a 3.731,3.731 0 0 0 -0.531,-0.36 c -0.25,-0.156 -0.477,-0.234 -0.672,-0.234 z m -9.751,20.25 c 0,2.195 3.546,3.297 10.64,3.297 l 5.562,-0.156 v -7.938 c 0,-0.207 -0.105,-0.457 -0.312,-0.75 -0.2,-0.3 -0.399,-0.453 -0.594,-0.453 -0.398,0 -0.844,0.125 -1.344,0.375 -0.5,0.25 -0.855,0.527 -1.062,0.828 0.207,0 0.457,0.125 0.75,0.375 0.3,0.25 0.453,0.477 0.453,0.672 0,0.5 -0.055,0.953 -0.156,1.36 -0.094,0.398 -0.141,0.695 -0.141,0.89 l -2.25,0.594 c -1.398,0 -2.922,0.2 -4.578,0.594 -1.649,0.406 -2.922,0.707 -3.828,0.906 -1.094,0 -1.696,-0.25 -1.797,-0.75 0.601,-0.8 1.406,-1.473 2.406,-2.016 1,-0.55 2,-1.031 3,-1.437 1.594,-0.696 2.766,-1.242 3.516,-1.64 0.75,-0.407 1.426,-1.056 2.031,-1.954 -1.5,0.305 -4.102,0.703 -7.797,1.203 l -2.25,-0.156 c 0,-0.895 0.348,-1.64 1.047,-2.234 0.695,-0.602 1.645,-1.258 2.844,-1.97 1.3,-0.695 2.254,-1.394 2.86,-2.093 l -7.657,1.344 c -0.305,0 -0.578,1.5 -0.828,4.5 -0.25,3 -0.422,5.203 -0.516,6.61 z m 0,0"
         id="path24" />
    </symbol>
    <symbol
       overflow="visible"
       id="g">
      <path
         fill="#343434"
         d="m 7.328,-8.297 c 1.363,0.23 2.336,0.586 2.922,1.063 0.164,0.398 0.25,0.808 0.25,1.234 v 0.922 c 0,1.855 -1.059,3.203 -3.172,4.047 L 6.5,-0.688 c -0.95,0 -1.86,-0.859 -2.734,-2.578 v -0.343 c 0,-1.957 0.304,-3.164 0.921,-3.625 1.27,-0.707 2.149,-1.063 2.641,-1.063 z m 0,0"
         id="path27" />
    </symbol>
    <symbol
       overflow="visible"
       id="h">
      <path
         fill="#343434"
         d="m 14.984,-35.453 h 2.25 c 1.07,0 2.832,0.46 5.282,1.375 0.875,0 2.304,0.586 4.297,1.75 h 0.343 c 0.477,0 1.551,-0.91 3.219,-2.734 0.383,0 1.066,0.636 2.047,1.906 0.488,0.23 1.008,0.652 1.562,1.265 v 0.203 c -2.574,2.805 -3.859,4.368 -3.859,4.688 -1.2,4.063 -1.996,6.34 -2.39,6.828 -0.782,0.918 -2,1.715 -3.657,2.39 -1.992,1.993 -3.765,2.985 -5.328,2.985 l -2.094,0.094 -4.406,-0.438 h -0.828 c -0.324,0 -0.809,1.485 -1.453,4.454 L 10.5,-10.5 h 0.25 c 0.645,0 1.406,-0.29 2.281,-0.875 l 1.625,-0.094 h 2.735 c 4.32,0 7.882,0.406 10.687,1.219 0.29,0.262 1.285,0.766 2.985,1.516 l 2.343,1.656 c 1.75,1.5 2.852,2.883 3.313,4.14 1.656,3.227 2.484,5.915 2.484,8.063 0,1.664 -1.32,3.766 -3.953,6.297 l -4.094,2.937 c -2.187,1.364 -4.777,2.047 -7.765,2.047 l -1.907,0.25 c -8.043,0 -13.48,-1.633 -16.312,-4.89 C 3.055,10.46 2,8.82 2,6.844 1.219,5.469 0.828,3.578 0.828,1.172 L 0.641,-0.344 0.828,-1.219 h 0.25 c 0.125,-0.75 0.129,-1.035 0.016,-0.86 -0.117,0.18 -0.203,0.009 -0.266,-0.515 0.133,-0.875 0.985,-2.437 2.547,-4.687 1.719,-1.657 2.578,-2.599 2.578,-2.829 0.457,-3.813 0.8,-6.141 1.031,-6.985 -1.136,-2.207 -1.703,-4.062 -1.703,-5.562 l -0.11,-1.125 c 0,-0.75 0.298,-2.164 0.891,-4.25 0.415,-0.414 1.375,-1.633 2.875,-3.657 2.376,-2.507 4.391,-3.765 6.047,-3.765 z m -4.828,10.062 v 0.344 c 0.688,3.418 1.192,5.125 1.516,5.125 1.07,1.043 2,1.649 2.781,1.813 3.813,-0.332 7.067,-2.27 9.766,-5.813 0.351,-0.625 0.531,-1.113 0.531,-1.469 v -1.03 c 0,-0.782 -0.54,-1.884 -1.61,-3.313 -2.437,-1.04 -4.132,-1.563 -5.078,-1.563 -2.21,0 -4.257,0.914 -6.14,2.735 -1.18,1.46 -1.766,2.515 -1.766,3.171 z m 7.172,19.578 0.063,0.094 v 0.157 l -1.078,0.187 -1.47,-0.188 -5.03,0.094 c -2.055,1.887 -3.079,3.219 -3.079,4 l -0.437,0.438 v 0.11 c 0.363,4.655 0.82,7.468 1.375,8.437 0.062,0.226 0.89,0.914 2.484,2.062 0,0.352 1.332,0.89 4,1.61 4.102,0.613 7.41,0.921 9.922,0.921 C 27.461,11.492 29.77,10.535 31,9.234 33.219,6.922 34.328,5.063 34.328,3.656 V 3.328 c 0,-0.855 -0.883,-2.371 -2.64,-4.547 -0.262,-0.582 -0.946,-1.203 -2.047,-1.86 l -6,-2.39 -4.25,-0.093 L 19.438,-6 19.391,-6.063 h -0.782 c -0.593,0 -1.023,0.086 -1.28,0.25 z m 0,0"
         id="path30" />
    </symbol>
    <symbol
       overflow="visible"
       id="i">
      <path
         fill="#343434"
         d="m 6.156,-33.64 4.64,1.515 c 0.095,0.75 0.368,1.496 0.829,2.234 l 0.094,0.688 c -0.387,2.773 -0.485,8.793 -0.297,18.062 0,1.344 0.52,2.211 1.562,2.594 l 0.5,1.125 c 0,0.293 1.508,0.54 4.532,0.734 h 0.25 c 0.906,0 2.078,-1.023 3.515,-3.078 1.133,-1.132 1.848,-1.984 2.14,-2.546 h 0.345 v -0.438 l -0.094,-0.344 c 0.226,-0.383 0.422,-0.984 0.578,-1.797 l 0.11,-0.046 v -0.641 l 1.218,-12.89 v -1.173 l -0.203,-0.687 v -0.094 c 0.52,-0.351 0.781,-0.922 0.781,-1.703 0,-0.426 0.164,-0.688 0.5,-0.781 l 1.563,0.781 h 1.5 c 1.789,0 3.078,0.39 3.86,1.172 v 0.281 c 0.132,0.563 0.25,0.844 0.343,0.844 0.164,0.219 0.281,0.59 0.344,1.11 l -0.688,8.452 0.11,0.094 v 0.11 c -0.305,0.875 -0.618,3.609 -0.938,8.203 v 1.953 c 0,2.96 0.129,4.437 0.39,4.437 h 0.297 c 0.907,0 2.208,-0.195 3.907,-0.593 0.258,0.042 0.664,0.324 1.218,0.843 -0.167,4.032 -0.43,6.047 -0.78,6.047 L 37.5,0.25 35.453,0.438 27.937,0.25 c -0.398,0 -0.789,-0.91 -1.171,-2.734 -0.305,-0.258 -0.453,-0.54 -0.453,-0.844 l 0.109,-0.625 h -0.203 c -0.356,0 -1.688,0.601 -4,1.797 -0.137,0.304 -1.7,0.992 -4.688,2.062 -0.75,0.383 -1.664,0.723 -2.734,1.016 C 14.109,0.535 13.02,0.145 11.53,-0.25 8.695,-3.04 6.953,-5.531 6.297,-7.719 5.16,-9.344 4.594,-12.89 4.594,-18.359 l 0.734,-7.953 v -0.157 c 0,-0.156 -1.547,-0.46 -4.64,-0.922 -0.293,-0.425 -0.438,-1.55 -0.438,-3.375 0,-1.238 0.223,-1.859 0.672,-1.859 0,-0.52 1.742,-0.86 5.234,-1.016 z m 0,0"
         id="path33" />
    </symbol>
    <symbol
       overflow="visible"
       id="j">
      <path
         fill="#343434"
         d="m 26.375,-31.64 c 1.75,0 3.227,1.257 4.438,3.765 0.257,0 0.582,0.293 0.968,0.875 l 0.938,5.031 c -0.399,0.524 -1.602,0.782 -3.61,0.782 h -0.687 c -1.7,-0.227 -2.547,-0.801 -2.547,-1.72 0,-0.644 -0.523,-1.503 -1.563,-2.577 -0.125,-0.227 -1.085,-0.344 -2.875,-0.344 -1.792,0 -3.875,0.453 -6.25,1.36 -1.624,1.667 -2.765,3.07 -3.421,4.202 0.32,8.211 0.437,13.059 0.343,14.547 0,0.399 0.274,0.594 0.829,0.594 h 1.656 c 0.719,0.031 1.078,0.148 1.078,0.344 v 0.093 l 0.25,0.922 L 15.766,0 15.375,0.531 12.203,0.828 H 11.922 L 10.547,1.266 C 5.367,1.109 2.78,0.914 2.78,0.687 1.874,0.687 1.42,0.281 1.42,-0.531 1.315,-1.156 1.265,-2.004 1.265,-3.078 c 0,-0.844 0.879,-1.41 2.64,-1.703 0,-0.364 0.602,-0.547 1.813,-0.547 L 5.952,-5.375 V -5.469 L 5.516,-24.03 c 0,-1.133 -0.278,-1.703 -0.829,-1.703 H 4.25 c -0.555,0 -1.465,0.23 -2.734,0.687 L 1.422,-25.14 v -0.156 c 0,-0.094 0.176,-0.207 0.531,-0.344 v -0.093 c -0.46,0 -0.687,-1.286 -0.687,-3.86 -0.063,0 -0.125,-0.39 -0.188,-1.172 1.852,-1.425 3.738,-2.14 5.656,-2.14 h 1.72 c 0.581,0 1.718,0.226 3.405,0.672 l 0.11,0.25 c -0.43,0.554 -0.64,1.011 -0.64,1.375 v 0.437 c 3.644,-1.664 8.66,-2.156 15.046,-1.469 z m 0,0"
         id="path36" />
    </symbol>
  </defs>
  <use
     xlink:href="#a"
     x="28"
     y="125"
     id="use41"
     width="100%"
     height="100%"
     transform="translate(-25.906,-22.844)" />
  <use
     xlink:href="#b"
     x="70.449997"
     y="125"
     id="use43"
     width="100%"
     height="100%"
     transform="translate(-25.906,-22.844)" />
  <use
     xlink:href="#c"
     x="156.10001"
     y="125"
     id="use45"
     width="100%"
     height="100%"
     transform="translate(-25.906,-22.844)" />
  <use
     xlink:href="#d"
     x="242.05"
     y="125"
     id="use47"
     width="100%"
     height="100%"
     transform="translate(-25.906,-22.844)" />
  <use
     xlink:href="#e"
     x="278.79999"
     y="125"
     id="use49"
     width="100%"
     height="100%"
     transform="translate(-25.906,-22.844)" />
  <use
     xlink:href="#f"
     x="364.89999"
     y="125"
     id="use51"
     width="100%"
     height="100%"
     transform="translate(-25.906,-22.844)" />
  <g
     id="g57"
     transform="translate(-25.906,-22.844)">
    <use
       xlink:href="#g"
       x="241"
       y="174"
       id="use53"
       width="100%"
       height="100%" />
    <use
       xlink:href="#h"
       x="254.86501"
       y="174"
       id="use55"
       width="100%"
       height="100%" />
  </g>
  <g
     id="g61"
     transform="translate(-25.906,-22.844)">
    <use
       xlink:href="#i"
       x="289.17999"
       y="174"
       id="use59"
       width="100%"
       height="100%" />
  </g>
  <g
     id="g65"
     transform="translate(-25.906,-22.844)">
    <use
       xlink:href="#j"
       x="329.14499"
       y="174"
       id="use63"
       width="100%"
       height="100%" />
  </g>
  <g
     id="g69"
     transform="translate(-25.906,-22.844)">
    <use
       xlink:href="#i"
       x="363.01001"
       y="174"
       id="use67"
       width="100%"
       height="100%" />
  </g>
</svg>
