<svg xmlns="http://www.w3.org/2000/svg" xmlns:xlink="http://www.w3.org/1999/xlink" width="600" height="200pt" viewBox="0 0 450 200"><defs><symbol overflow="visible" id="a"><path fill="#343434" d="M34.203-91.047c0 1-.078 2.328-.234 3.984a176.266 176.266 0 01-.375 3.813l.156 2.406c0 .594-.125.969-.375 1.125-.25.149-.727.219-1.422.219L24-79.953l-10.953.61c-1.5 0-2.25-1.102-2.25-3.313l.156-2.39c.195-1.102.395-3.005.594-5.704.3-3.695.726-6.172 1.281-7.422.55-1.25 1.828-2.07 3.828-2.469 2-.406 5.75-.609 11.25-.609h4.5c.594.305 1.04 1.508 1.344 3.61.3 2.093.453 4.292.453 6.593zm-4.5-7.5c-.805 0-1.828.453-3.078 1.36-1.25.898-2.93 2.242-5.031 4.03-.293.305-1.063 1.009-2.313 2.11-1.25 1.094-2.277 1.793-3.078 2.094v.61c.695-.5 3.395-1.4 8.094-2.704 3.601-.906 5.406-1.504 5.406-1.797zM14.25-82.344c2.5 0 5.473-.82 8.922-2.469 3.445-1.656 5.223-3.332 5.328-5.03-1.105 0-2.23.198-3.375.593-1.148.398-1.969.7-2.469.906-.906.2-2.164.45-3.765.75-1.594.293-2.766.813-3.516 1.563s-1.125 1.98-1.125 3.687zm15.453-5.406c-.105.7-.61 1.324-1.515 1.875-.899.555-1.446 1.027-1.641 1.422l3.156.61zm2.703 18.906c.395 0 .692 1.375.89 4.125.196 2.75.298 5.024.298 6.813l-.438 31.062V3.453c-.21.8-.61 2-1.203 3.594-1.2 3.906-2.101 7.055-2.703 9.453a29.286 29.286 0 00-.906 7.203l.156 2.39c-.5 5.802-1.828 9.579-3.984 11.329-2.149 1.75-4.47 2.797-6.97 3.14-2.5.352-4.198.583-5.093.688l-7.953.594c-.7 0-1.547-.074-2.547-.219-1-.148-1.851-.324-2.547-.531-1-.2-1.5-1.594-1.5-4.188l.14-2.562c0-1.899.481-3.422 1.438-4.578.946-1.149 2.368-2.32 4.266-3.516 1.602-1.105 2.781-2.086 3.531-2.938.75-.843 1.125-1.917 1.125-3.218 0-1.5-.105-3.75-.312-6.75-.2-3-.297-5.297-.297-6.89 0-6.602.348-14.454 1.047-23.548.601-10.601.906-18.457.906-23.562v-1.797c0-2-.25-3.75-.75-5.25v-17.39c0-1.5 2.125-2.65 6.375-3.454 4.25-.8 7.523-1.203 9.828-1.203 3 0 5.399.305 7.203.906zm-3.156 2.39c-1 0-2.527 1.079-4.578 3.235a111.347 111.347 0 00-5.485 6.14 410.548 410.548 0 00-2.984 3.673l1.203.156c2.5 0 6.196-2.445 11.094-7.344l.75-.61zm-5.703.907c0-.195-.152-.297-.453-.297-1.793 0-3.543.5-5.25 1.5-1.7 1-2.7 2.45-3 4.344 5.8-3.3 8.703-5.148 8.703-5.547zm-8.39.89c-1.907 0-2.86.403-2.86 1.204 0 .2.047.574.14 1.125.102.555.258.93.47 1.125 1.093-1.5 2.39-2.598 3.89-3.297-.305-.102-.852-.156-1.64-.156zM13.656-54a23.479 23.479 0 013.75-4.047C19-59.453 20.194-60.703 21-61.797l-5.547 3.14c-.105-.093-.308-.14-.61-.14-.5 0-.85.375-1.046 1.125-.2.75-.297 1.422-.297 2.016zm8.687 4.203c1.406-.406 3.054-1.234 4.953-2.484 1.906-1.25 2.86-2.375 2.86-3.375 0-1.196-.204-2.047-.61-2.547-1.305 1-2.305 1.902-3 2.703-.7.805-1.422 1.73-2.172 2.781a96.127 96.127 0 00-2.031 2.922zm3.453-.453c-1 .105-1.805.336-2.406.688-.594.343-1.293.867-2.094 1.562-.7.7-1.375 1.227-2.031 1.578-.649.344-1.57.516-2.766.516 0-.895.172-1.942.516-3.14.351-1.196.53-1.946.53-2.25 0-.602-.35-.907-1.046-.907-.605 0-1.105.055-1.5.156-.805 0-1.25-.25-1.344-.75-.21.594-.386 1.344-.531 2.25-.148.899-.219 1.649-.219 2.25 0 .594.098 1.371.297 2.328.195.95.348 1.672.453 2.172l-.156 3.594c4.695-2.195 8.797-5.547 12.297-10.047zm3.906 3.906c.195-.601.297-1.707.297-3.312-.898 0-2.219.703-3.969 2.11a46.784 46.784 0 00-4.953 4.577c-1.555 1.649-2.328 2.668-2.328 3.063.395-.29.895-.586 1.5-.89.602-.302 1.254-.65 1.953-1.048 4.8-2.5 7.3-4 7.5-4.5zm-9 12.89c.395-.093 1.067-.487 2.016-1.187A77.622 77.622 0 0124.594-36c.406-.395 1.082-.79 2.031-1.188.945-.406 1.617-.93 2.016-1.578.406-.656.609-1.882.609-3.687h-.75c-.305 0-1.383.5-3.234 1.5-1.844 1-3.118 1.805-3.813 2.406 0 2.805-.25 4.5-.75 5.094zm-.906-4.5l-.594.157c-.2 0-.402-.047-.61-.14-.198-.102-.343-.157-.437-.157-.605.2-1.508.574-2.703 1.125-1.2.543-1.797.867-1.797.969v4.5h.594zm2.11 11.11c.593-.207 1.585-.508 2.984-.906 1.406-.395 2.554-.895 3.453-1.5.906-.602 1.36-1.352 1.36-2.25 0-.3-.079-.75-.235-1.344a7.543 7.543 0 01-.219-1.812c-2.105.906-3.883 2.011-5.328 3.312-1.45 1.293-2.602 2.492-3.453 3.594-.844 1.105-1.418 1.805-1.719 2.094l-.594.61c1 0 1.82-.274 2.469-.829.645-.55 1.07-.875 1.281-.969zm-5.704-2.703H12.75c0 5.805.3 10.102.906 12.89.395-.093.914-.363 1.563-.812.656-.457.984-.883.984-1.281.195-.195 1.117-.867 2.766-2.016 1.656-1.156 2.781-2.132 3.375-2.937l-.14-.594c-.5.094-1.556.418-3.157.969-1.594.555-2.89.828-3.89.828-.712 0-1.063-.445-1.063-1.344 0-1.101.426-2.129 1.281-3.078.852-.945 2.078-2.023 3.672-3.234 1.8-1.395 3.004-2.492 3.61-3.297h-.75zM20.703-18c.094-.3 1.29-.75 3.594-1.344 2.8-.601 4.203-1.207 4.203-1.812v-5.25c0-.094-.078-.188-.234-.282-.149-.101-.266-.156-.36-.156-.906 0-1.734.375-2.484 1.125s-1.574 1.774-2.469 3.063c-1.2 1.605-1.95 2.558-2.25 2.86l-3.906 3.89zm-7.36 4.656c0 1.793.102 3.09.313 3.89 0 .5-.402 2.852-1.203 7.048l-.61 3.312c.302-.804 1.052-1.625 2.25-2.469a97.138 97.138 0 013.829-2.562 122.437 122.437 0 012.781-1.719c3.3-2 5-3.203 5.094-3.61-1.094 0-1.969.153-2.625.454-.649.305-1.371.75-2.172 1.344-1.305 1.304-2.902 1.953-4.797 1.953V-7.5c.3-.395.828-.992 1.578-1.797.75-.8 1.52-1.504 2.313-2.11C21.3-12.601 22.204-13.8 22.797-15c.101-.195.328-.594.672-1.188.351-.601.726-1.207 1.125-1.812L14.25-13.344zM26.548-12c.195.2.445.297.75.297.8 0 1.203-1.445 1.203-4.344V-18c-1.805 1.5-3.5 3.402-5.094 5.703-.304.399-.656.871-1.062 1.422-.399.555-.946 1.23-1.64 2.031zm.61 8.25c.394 0 .816-.172 1.265-.516.445-.351.723-.582.828-.687l-.75-3.89c-1.105 0-5.406 2.796-12.906 8.39 2 0 4.273-.57 6.828-1.719 2.55-1.156 4.129-1.879 4.734-2.172zM11.702 1.656c-.5 2.5-.75 4.196-.75 5.094.594-.605 1.14-.906 1.64-.906l.75.156c.602 0 1.352-.652 2.25-1.953.708-1 2.313-1.95 4.813-2.844a248.56 248.56 0 002.766-1.281c.945-.445 1.672-1.02 2.172-1.719-1.2.399-2.7 1.047-4.5 1.953-1.793.895-3.266 1.567-4.422 2.016-1.149.445-2.274.672-3.375.672-.899 0-1.344-.399-1.344-1.188zm13.047 3.14c1.8 0 3-.554 3.594-1.655.601-1.094.906-2.743.906-4.938-2.398 1-5.2 2.473-8.406 4.422-3.2 1.945-5.399 3.723-6.594 5.328L24 5.406l-.75-.75c.3.094.8.14 1.5.14zM24 6.75c-.5 0-2.902.695-7.203 2.094-4.305 1.406-6.453 2.304-6.453 2.703.101.3.304.8.61 1.5.3.695.55 1.148.75 1.36.194-.212.741-.563 1.64-1.063.906-.5 2.156-1.25 3.75-2.25l7.5-4.344zm2.547 5.094c.8-.793 1.328-1.793 1.578-3 .25-1.2.375-1.899.375-2.094a84.243 84.243 0 01-8.094 4.5l-5.562 3.156 1.656.14c1.102 0 2.953-.546 5.547-1.64 2-.804 3.3-1.203 3.906-1.203zm-3.453 2.406c0 .195-1.153.52-3.453.969-2.293.457-4.266 1.035-5.922 1.734-1.649.695-2.469 1.742-2.469 3.14 0 .708.05 1.259.156 1.657.79 0 2.035-.578 3.735-1.734 1.707-1.149 2.71-1.82 3.015-2.016 3.196-2.105 5.145-3.305 5.844-3.594zm-6.297 6.594c1.406 0 3.18-.574 5.328-1.719 2.145-1.148 3.219-2.324 3.219-3.531zm-1.203 6.453c.406-.094 1.457-.293 3.156-.594 1.695-.305 3.117-.855 4.266-1.656 1.156-.805 1.734-1.852 1.734-3.14l-.156-1.5C22 21 18.828 22.644 15.078 25.343c-3.75 2.707-5.726 4.11-5.922 4.203.196 0 .297.098.297.297.594-.2 1.54-.547 2.844-1.047 1.3-.5 2.398-1 3.297-1.5zm-14.25 8.25c0 1.3.347 2.125 1.047 2.469.707.351 1.812.53 3.312.53.895 0 2.895-1.35 6-4.046 2.195-1.805 3.695-2.902 4.5-3.297 2.195-1.105 3.695-1.953 4.5-2.547-2 0-5.277.797-9.828 2.39-4.555 1.602-7.73 3.102-9.531 4.5zm10.5 1.36c3.406 0 6.254-.5 8.547-1.5 2.3-1 3.703-3.25 4.203-6.75l-11.547 6.437c-.805 0-1.203.601-1.203 1.812zm-7.047-7.204c-.899 0-1.649.598-2.25 1.797l3.297-1.344zm0 0"/></symbol><symbol overflow="visible" id="b"><path fill="#343434" d="M78-14.703c0 2.105.3 5.156.906 9.156.094.805.239 2.133.438 3.984.207 1.844.312 3.461.312 4.86 0 1.695-2.75 2.547-8.25 2.547-2.906 0-4.86-.047-5.86-.14h-3.452c-.5-.5-1.852-.852-4.047-1.048-2.094-.21-3.543-.511-4.344-.906-.406 0-1.508.398-3.297 1.203-2.21 1.195-3.914 1.848-5.11 1.953l-13.5-.453-1.343-.75C23.348 3.203 18.07-1.445 14.625-8.25 11.175-15.05 9-22.375 8.094-30.219 7.195-38.07 6.75-47.149 6.75-57.453c0-3.695.098-6.594.297-8.688.195-2.101.648-3.804 1.36-5.109h18.75l1.937.75c.707.305 1.062 1.5 1.062 3.594 0 1.406-.152 3.062-.453 4.969-.305 1.898-.508 3.14-.61 3.734-.698 3.305-1.046 5.855-1.046 7.656 0 3.594.348 7.945 1.047 13.047l.61 5.703c.194 2.899 1.171 5.824 2.921 8.781 1.75 2.95 3.797 5.371 6.14 7.266 2.352 1.898 4.583 2.844 6.688 2.844 1.094 0 2.016-.196 2.766-.594.75-.395 1.375-.594 1.875-.594.8 0 1.55.102 2.25.297 1.5 0 2.625-.773 3.375-2.328.75-1.55 1.125-3.227 1.125-5.031 0-1.395-.399-3.692-1.188-6.89-1-3.407-1.5-6.36-1.5-8.86l.14-6.438-.75-23.25c0-1.707.15-3.11.454-4.203.3-1.101.953-1.656 1.953-1.656 2 .2 5.77.672 11.313 1.422 5.55.75 8.328 1.375 8.328 1.875 0 2-.2 4.902-.594 8.703-.5 3.2-.75 6.152-.75 8.86 0 2.698.148 5.495.453 8.39.195 3.605.297 6.308.297 8.11l3.156 18.296zM57.594-64.656a81.093 81.093 0 002.547-.89c1.101-.407 1.957-.755 2.562-1.048l.594-1.656h-3.14c0 .805-.856 1.203-2.563 1.203zm-32.39-.14c0 .593-1.903 2.593-5.704 6-3.805 3.398-6.402 5.296-7.797 5.702h1.203l10.344-2.562c1.895 0 2.844-4.098 2.844-12.297h-3c0 .605.32 1.183.968 1.734.657.543 1.036 1.016 1.141 1.422zm-12.907 2.093h.61c.5-.3 1.546-1.05 3.14-2.25a735.953 735.953 0 014.047-3h-7.797zm52.953-4.64l-1.953 1.937L66-65.25c2.895 0 4.797-.695 5.703-2.094zm4.656 3.296c-1.406 0-3.586.328-6.531.984-2.95.649-4.875 1.368-5.781 2.157l.61 5.25c.694-1.094 2.644-2.54 5.843-4.344 3-1.695 4.953-3.047 5.86-4.047zm-57 3.89c-.5.407-.75 1.11-.75 2.11l.14 2.39c1.5-.788 3.126-1.863 4.876-3.218 1.75-1.352 3.125-2.629 4.125-3.828-1.2 0-2.852.402-4.953 1.203-2.094.805-3.242 1.25-3.438 1.344zm57.438 3.75c.707-1.195 1.16-3.144 1.36-5.843-.806 0-2.454.95-4.954 2.844L63.297-57h6.61zm-11.25 7.954c1-.5 2.5-1.445 4.5-2.844 2-1.406 3.398-2.656 4.203-3.75-1.594 0-3.14.152-4.64.453-.5 0-1.278.074-2.329.219a21.017 21.017 0 01-2.922.219c-.105.21-.156.71-.156 1.5 0 2.304.445 3.703 1.344 4.203zm11.25-6.594c-.899 1-2.149 2.047-3.75 3.14-2 1.407-3.297 2.512-3.89 3.313 1.3 0 2.597-.148 3.89-.453 1.601-.195 2.851-.297 3.75-.297zm-58.047 8.39c.906-.288 1.957-.96 3.156-2.015 1.195-1.05 2.219-2.078 3.063-3.078.851-1 1.379-1.695 1.578-2.094-.293.2-.84.375-1.64.532-.806.148-1.356.265-1.657.359-.305.105-.953.281-1.953.531s-1.778.527-2.328.828c-.543.293-.813.64-.813 1.047zm1.953 3.313c3.8-2.406 7.203-3.906 10.203-4.5v-6c-2.305 1-4.805 3.047-7.5 6.14-1.7 1.907-3.047 3.259-4.047 4.048zm43.344 5.094l.61.156c1.093 0 3.14-1.472 6.14-4.422 3-2.957 4.601-4.535 4.812-4.734-.105-.102-.383-.227-.828-.375-.45-.145-.824-.219-1.125-.219-.906 0-1.683.43-2.328 1.282-.648.843-1.469 1.265-2.469 1.265-.21 0-.414-.172-.61-.516-.198-.351-.448-.582-.75-.687-.398-.102-.968-.203-1.718-.297-.75-.101-1.125-.254-1.125-.453zm-44.688-3.297v4.64c1.5-1.394 3.547-3.19 6.14-5.39 2.602-2.195 4.407-3.648 5.407-4.36-.7 0-2.652.903-5.86 2.704-3 1.605-4.698 2.406-5.093 2.406v-.61zm57.75 3c0-.906-.054-2.254-.156-4.047-.105-1.8-.305-2.953-.594-3.453-.906 1.594-2.558 3.344-4.953 5.25a26.504 26.504 0 00-3.453 3.14c.602 0 1.531-.07 2.781-.218 1.25-.145 1.973-.367 2.172-.672zM25.203-39v-4.953l-.75-.75c-1.105 1.305-2.558 2.508-4.36 3.61-3.198 2.093-5.148 4.093-5.843 6zm-1.953 2.094c-.898 0-2.844.605-5.844 1.812-3 1.2-4.5 2.094-4.5 2.688v5.703c.196-1.094.969-2.192 2.313-3.297 1.351-1.102 3.129-2.3 5.328-3.594 2.195-1.406 3.5-2.304 3.906-2.703zm44.547 0c-1.2 0-3.125.304-5.781.906-2.649.605-3.97 1.258-3.97 1.953l.75 4.203c1-.5 2.876-1.55 5.626-3.156 2.75-1.602 4.125-2.703 4.125-3.297a.515.515 0 00-.234-.453.894.894 0 00-.516-.156zM61.5-29.094c.395-.101 1.547-.254 3.453-.453 4.094-.5 6.14-1.05 6.14-1.656v-4.64c-.292 0-1.937 1.027-4.937 3.077-3 2.043-4.554 3.266-4.656 3.672zm-35.703 1.797c-.399 1.305-1.047 2.383-1.953 3.235-.899.843-2.043 1.765-3.438 2.765-2.5 1.899-4.105 3.547-4.812 4.953.5-.101 1-.304 1.5-.61.5-.3.851-.5 1.062-.593l3.594-1.203c.602-.195 1.852-.617 3.75-1.266 1.895-.656 2.844-1.132 2.844-1.437-.2-2.195-.996-5.297-2.39-9.297a18.688 18.688 0 01-1.048-3c-.804 0-2.703 1.25-5.703 3.75-3 2.5-4.5 4.102-4.5 4.797.5 0 1.649-.399 3.453-1.203 2.395-1.094 4.29-1.64 5.688-1.64 1.207 0 1.86.25 1.953.75zm42.75-1.36c-1.5 0-3.402.153-5.703.454-2.293.305-3.438.758-3.438 1.36 0 .292.223 1.116.672 2.468.445 1.355.672 2.328.672 2.922 2-.895 3.973-1.969 5.922-3.219 1.945-1.25 3.422-2.523 4.422-3.828zm-55.64 6.907c0 .305.195.855.593 1.656.395.793.645 1.438.75 1.938 1.195-1.5 2.695-2.946 4.5-4.344 1.8-1.395 3.5-2.547 5.094-3.453L24-27.297c-2.7.899-5.227 1.824-7.578 2.781-2.344.95-3.516 1.871-3.516 2.766zm33 13.797c-.712.906-2.313 2.36-4.813 4.36-1.5 1.093-2.68 2.042-3.532 2.843-.843.8-1.515 1.648-2.015 2.547 1-.5 2.773-1.45 5.328-2.844 2.55-1.406 5.078-2.805 7.578-4.203.594-.395 2.742-1.895 6.453-4.5 1.696-1.602 3.446-2.906 5.25-3.906.895-.594 1.992-1.14 3.297-1.64 1.695-.802 3.094-1.552 4.188-2.25a8.586 8.586 0 002.703-2.704c-.793.105-1.742.156-2.844.156-.805 0-1.203-.05-1.203-.156 0-.3.848-.676 2.547-1.125 1.707-.445 3.16-.723 4.36-.828 0-1.5-.25-3-.75-4.5l-8.11 5.25v1.953c-1.594 0-2.969.375-4.125 1.125-1.149.75-1.82 1.875-2.016 3.375-1.105 1.5-2.508 2.703-4.203 3.61a46.323 46.323 0 01-4.875 2.25c-1.555.593-2.625.992-3.219 1.187zm9.437 2.406c.3.399.726.672 1.281.828.55.149.973.297 1.266.453.3.149.453.516.453 1.11.406-.196 1.082-.594 2.031-1.188a17.52 17.52 0 012.922-1.5c.5-.3 2.348-1.398 5.547-3.297 3.207-1.906 5.008-3.207 5.406-3.906-1.105 0-2.758.2-4.953.594-2.399.406-4.399.61-6 .61.195-.802 1.945-1.407 5.25-1.813 1.8-.29 3.226-.633 4.281-1.031 1.05-.407 1.578-.958 1.578-1.657 0-1.3-.203-2.351-.61-3.156-3.804 1.898-7.132 3.922-9.984 6.078-2.843 2.149-5.667 4.774-8.468 7.875zm-24.75-13.5c-1.399 0-2.844.477-4.344 1.422-1.5.95-2.7 2.074-3.594 3.375.395-.195 1.344-.617 2.844-1.266 1.5-.656 2.723-1.28 3.672-1.875.945-.601 1.422-1.156 1.422-1.656zm-13.797 6.594c.406 0 1.555-.75 3.453-2.25 1.895-1.5 3.297-2.649 4.203-3.453l-4.203 1.36c0 .198-.402.6-1.203 1.202-.805.594-1.75 1.043-2.844 1.344v1.797zm3.297 3.906c1.207-1.101 3.008-2.305 5.406-3.61 3-1.788 5.098-3.335 6.297-4.64h-.75L17.407-10.5c.195.2.44.602.734 1.203.3.594.703.89 1.203.89zm14.86-4.5c0-.3-.126-.726-.376-1.281-.25-.55-.375-.973-.375-1.266-1.406.5-3.762 1.824-7.062 3.969-3.293 2.148-5.04 3.824-5.235 5.031.094.094.239.14.438.14.3 0 .625-.222.968-.671.352-.445.583-.723.688-.828zm-4.5 15.594c.694 0 2.741-1.602 6.14-4.797a68.183 68.183 0 014.36-3.969c1.5-1.25 2.694-2.023 3.593-2.328A.98.98 0 0044.094-9a1.309 1.309 0 00-.594-.156c0 .105-2.2 1.355-6.594 3.75L33-3.296l-.75-.75c-.5 1-1.95 1.901-4.344 2.702a3.05 3.05 0 00-.531-.375.758.758 0 01-.375-.687c0-.594.422-1.239 1.266-1.938.851-.707 2.082-1.508 3.687-2.406 1.8-1 3.203-1.922 4.203-2.766 1-.851 1.5-1.629 1.5-2.328h-2.11L28.5-8.25l-7.797 4.203c1.594 2.594 4.844 4.79 9.75 6.594zM74.25-10.5c-1.398.898-2.523 1.871-3.375 2.922-.855 1.055-1.633 1.828-2.328 2.328-.7.5-1.852 1.152-3.453 1.953-2 1-3.45 1.852-4.344 2.547 1.195 0 2.469-.273 3.813-.828 1.351-.55 3.132-1.426 5.343-2.625.5-.195 1.297-.594 2.39-1.188 1.102-.601 2.005-1.004 2.704-1.203zM41.406-9.156c-.21-.196-.492-.344-.843-.438-.344-.101-.618-.156-.813-.156-.898 0-2.172.703-3.828 2.11C34.273-6.243 33.3-5.446 33-5.25c1.3 0 3.05-.75 5.25-2.25 1.395-.8 2.445-1.352 3.156-1.656zm2.547 11.703c0-.899.348-1.719 1.047-2.469.695-.75 1.645-1.578 2.844-2.484 1.5-1.196 2.351-1.946 2.562-2.25l-14.86 7.812c-2.304.696-3.452 1.094-3.452 1.188l3.453-.14c1.5 0 2.598.046 3.297.14l3.453.156c1.101 0 1.851-.25 2.25-.75-.399-.2-.594-.602-.594-1.203zm21.75.61c3.8 0 7.098-.204 9.89-.61 0-2.094-.226-3.738-.671-4.938-.45-1.207-.672-1.96-.672-2.265l-12.156 5.86c-.399 0-.797.097-1.203.296-.399.195-.641.297-.735.297 1 .906 2.848 1.36 5.547 1.36zm-18.61-1.813c1.802 0 3.477-.477 5.032-1.422 1.55-.945 2.328-2.27 2.328-3.969h-1.5c-.5 0-1.605.805-3.312 2.406-1.7 1.594-2.547 2.586-2.547 2.985zm0 0"/></symbol><symbol overflow="visible" id="c"><path fill="#343434" d="M77.844-26.25c.101 1.898.254 4.074.453 6.531.195 2.45.348 4.274.453 5.469.695 5.605 1.047 10.453 1.047 14.547 0 2.101-.45 3.156-1.344 3.156-1.5 0-3.555-.101-6.156-.297-2.805-.21-4.902-.312-6.297-.312-.7 0-1.797.097-3.297.297-1.5.207-2.703.312-3.61.312-.292 0-.59-.078-.89-.234-.305-.149-.453-.274-.453-.375v-26.547c-.605-1.094-.96-2.613-1.063-4.563-.093-1.957-.187-3.234-.28-3.828-.805-3.601-1.731-6.828-2.782-9.672-1.055-2.851-2.48-5.68-4.281-8.484C47.75-52.75 43.898-54 37.797-54c-1.7 0-2.899.875-3.594 2.625-.7 1.75-1.047 3.68-1.047 5.781 0 .5.297.824.89.969.602.148 1.005.324 1.204.531 0 .2-.203.547-.61 1.047-.398.5-.695.95-.89 1.344 0 .805.098 1.633.297 2.484.195.844.348 1.617.453 2.313.395 2 .594 3.203.594 3.61v2.546c.101 1.805.226 4.281.375 7.438.156 3.148.234 5.617.234 7.406v1.062c0 5.094-.152 9.196-.453 12.297-.305 3.094-1 4.64-2.094 4.64l-4.812-.14c-2.2-.2-3.844-.297-4.938-.297-2.21 0-4.562.223-7.062.672-2.5.445-3.797.672-3.89.672-1.5 0-2.43-.305-2.782-.906-.344-.594-.516-2.14-.516-4.64V-7.5c0-1.5.145-4.195.438-8.094.207-1.8.312-3.203.312-4.203 0-.195-.078-.445-.234-.75-.149-.3-.274-.504-.375-.61v-45.14l1.203-7.36c6.3 0 11.05-.195 14.25-.593.195.7.395 1.797.594 3.297.207 1.5.36 2.453.453 2.86 2.5-1.708 5.547-3.259 9.14-4.657 3.602-1.395 6.907-2.094 9.907-2.094 9.5 0 16.597 2.227 21.297 6.672 4.707 4.45 7.757 9.977 9.156 16.578C76.703-45 77.55-36.55 77.844-26.25zM46.5-71.703c-2.305 0-5.73.777-10.281 2.328-4.543 1.555-7.418 2.68-8.625 3.375 2.8-.3 5.25-.75 7.343-1.344a264.51 264.51 0 013.766-1.062c4.195-1.196 7.848-1.895 10.953-2.094a21.097 21.097 0 00-1.593-.672 16.206 16.206 0 00-1.563-.531zm-33.156 2.11c0 .593-.074 1.515-.219 2.765-.148 1.25-.219 2.328-.219 3.234 0 1.899.297 3.149.89 3.75 1.407-.601 2.958-1.601 4.657-3 1.695-1.406 2.895-2.36 3.594-2.86v-.75c-.594.2-1.695.653-3.297 1.36-1.605.7-2.656 1.047-3.156 1.047-.2 0-.352-.07-.453-.219a1.01 1.01 0 01-.141-.53c0-.5 2-2.099 6-4.798zM57-67.5c-.398-.602-.773-1.004-1.125-1.203-.355-.195-.883-.297-1.578-.297a10.25 10.25 0 00-3.531.984c-1.149.543-2.07 1.313-2.766 2.313 2.395-1.195 5.395-1.797 9-1.797zm-26.406 3.156c-.594 1.2-1.89 2.7-3.89 4.5l1.343.594c-.094-.602 1.656-1.629 5.25-3.078 3.601-1.445 5.851-2.172 6.75-2.172.906 0 2.055-.375 3.453-1.125a23.882 23.882 0 003.906-2.625c-2.105 0-4.086.352-5.937 1.047a58.022 58.022 0 00-5.328 2.328c-1.7.855-2.899 1.43-3.594 1.719l-.453.156c0-.102-.227-.281-.672-.531-.45-.25-.727-.52-.828-.813zm11.25 6.594s.176-.07.531-.219c.352-.156.531-.383.531-.687 3.29-.5 6.711-1.297 10.266-2.39A640.31 640.31 0 0059.406-63l4.188-1.344c-1.5-.906-3.25-1.36-5.25-1.36l-7.344 3c-1 .407-2.68 1.06-5.031 1.954-2.344.898-4.016 1.398-5.016 1.5 0 .305.098.633.297.984.195.344.395.516.594.516zm-12.89 1.797c.3 0 2.898-.973 7.796-2.922 4.895-1.945 8.645-3.57 11.25-4.875l-1.047-.156c-2.2 0-5.574.93-10.125 2.781-4.555 1.855-7.48 3.578-8.781 5.172zm-3-6.594c-1 0-3.306.977-6.907 2.922-3.594 1.95-5.39 3.172-5.39 3.672 0 .406.046.61.14.61a3.425 3.425 0 011.953-.61l10.203-5.844zM67.5-59.844c-.2-.8-.45-1.328-.75-1.578-.305-.25-.703-.375-1.203-.375-.805 0-1.902.375-3.297 1.125-1.398.75-2.094 1.477-2.094 2.172.696 0 1.844-.195 3.438-.594 1.3-.5 2.601-.75 3.906-.75zm-22.047 2.547c.3.7 1 1.227 2.094 1.578 1.101.344 1.754.617 1.953.813l8.25-5.547-.75-.14c-.605 0-2.531.448-5.781 1.343-3.25.898-5.172 1.547-5.766 1.953zm7.047 3.75c0 1.399.445 2.094 1.344 2.094.207 0 2.285-.922 6.234-2.766 3.945-1.851 5.973-2.879 6.078-3.078h-4.5c-.5 0-1.652.5-3.453 1.5a21.58 21.58 0 01-2.86 1.578c-1 .45-1.948.672-2.843.672zm-29.703-3c-.2.094-1.852.64-4.953 1.64-3.094 1-4.64 1.75-4.64 2.25v3.157c.194-.3 1.644-1.328 4.343-3.078 2.695-1.75 4.898-3.07 6.61-3.969l-.75-.156zm40.656 4.203c1.594 0 3.113-.273 4.563-.828 1.457-.55 2.187-1.379 2.187-2.484-1.5 0-3.18.25-5.031.75-1.844.5-3.016 1.25-3.516 2.25.395.21.992.312 1.797.312zm-50.25 25.5c0 1.293.399 1.938 1.203 1.938.395 0 2.344-.77 5.844-2.313 3.5-1.55 5.398-2.531 5.703-2.937-1.2 0-2.902.5-5.11 1.5-2.198.804-3.698 1.203-4.5 1.203-.398 0-.593-.5-.593-1.5l13.656-7.64.438-.61c-1.399.2-3.149.7-5.25 1.5-3.094 1.105-5.543 1.656-7.344 1.656-.105 0-.281-.047-.531-.14-.25-.102-.375-.258-.375-.47 0-1.093.398-1.913 1.203-2.468.8-.55 2.004-1.078 3.61-1.578 2.288-.594 3.738-1.39 4.343-2.39-1.105 0-2.656.398-4.656 1.187-2 .906-3.7 1.36-5.094 1.36-.898 0-1.344-.204-1.344-.61 0-.594 2.348-2.313 7.047-5.157 4.695-2.851 7.348-4.382 7.953-4.593-1.21 0-2.465.304-3.765.906-1.293.605-2.04.953-2.235 1.047C21-45.648 19.098-45 17.703-45c-.406 0-.762-.125-1.062-.375-.293-.25-.438-.473-.438-.672.094-.101 1.04-.676 2.844-1.719 1.8-1.05 5.254-2.93 10.36-5.64l.437-.594c-1.399 0-2.746.25-4.047.75C24.492-52.75 22.895-52 21-51a59.618 59.618 0 01-3.61 1.813c-1.292.593-2.492.937-3.593 1.03 0 3.106-.102 6.856-.297 11.25-.2 4.212-.297 7.563-.297 10.063zm41.844-20.86c0 .606.445 1.81 1.344 3.61.906 1.793 1.554 2.793 1.953 3l11.703-5.86c-.305 0-1.652.306-4.047.907-3 .7-4.805 1.047-5.406 1.047-.2 0-.477-.172-.828-.516a6.394 6.394 0 01-.813-.984c0-.195.598-.719 1.797-1.563a25.615 25.615 0 014.047-2.328c1.5-.707 2.8-1.062 3.906-1.062l.594-.594c-1.805 0-4.633.527-8.484 1.578-3.844 1.043-5.766 1.965-5.766 2.766zm16.36-2.546c-.305 0-1.434.352-3.391 1.047-1.95.7-3.47 1.351-4.563 1.953.895 0 2.344-.273 4.344-.828 2-.55 3.203-1.024 3.61-1.422zm1.187 6.156c0-.707-.399-1.062-1.188-1.062-.304 0-2.054.703-5.25 2.11.696 0 1.942-.071 3.735-.22 1.8-.156 2.703-.43 2.703-.828zM25.5-42.906c.3 0 .828-.196 1.578-.594.75-.395 1.274-.645 1.578-.75V-45c-2 .5-3.304 1.152-3.906 1.953zm33.453 4.062c0 1.5.348 2.25 1.047 2.25.8 0 2.098-.426 3.89-1.281 1.801-.852 2.907-1.379 3.313-1.578 1.5-.895 2.649-1.442 3.453-1.64v-.75c-1.906 0-4.336.304-7.281.906-2.95.593-4.422 1.292-4.422 2.093zM30.297-40.5l-.594-.156c-.906 0-2.512.554-4.812 1.656-2.293 1.105-3.438 1.703-3.438 1.797 1.094 0 2.586-.172 4.485-.516 1.906-.351 3.062-.832 3.468-1.437zm44.25 1.047c-1.399 0-2.824.25-4.281.75-1.45.5-2.371 1.203-2.766 2.11h7.047zm-14.25 5.406c.906 2.5 1.36 8.102 1.36 16.797l9-4.5.75-.594c-.606 0-1.587.102-2.938.297-1.344.2-2.418.297-3.219.297-.7 0-1.047-.398-1.047-1.203 0-.195.07-.445.219-.75.156-.3.281-.5.375-.594l8.406-5.11h-10.36a13.072 13.072 0 00-.374-1.265 4.05 4.05 0 01-.219-1.281c0-.395.547-.692 1.64-.89a32.768 32.768 0 003.157-.75c1-.302 1.75-.907 2.25-1.813zm-32.547 2.39c.5 0 1.023-.25 1.578-.75.55-.5.828-1.046.828-1.64-.605 0-3.258 1-7.953 3zm45.453-2.39c-2.105 1-4.703 1.852-7.797 2.547l2.39.156c3.602 0 5.407-.25 5.407-.75zm-42.61 4.344l-12.296 4.656 2.25.14c1.406 0 3.406-.394 6-1.187a35.305 35.305 0 002.172-.453c.851-.195 1.476-.297 1.875-.297zM72.298-24c1.406 0 2.11-.3 2.11-.906-.106-.29-.31-.633-.61-1.032-.305-.406-.5-.707-.594-.906-.7.2-1.527.574-2.484 1.125-.95.543-1.621 1.016-2.016 1.422.195 0 .57.055 1.125.156.55.094 1.375.141 2.469.141zM17.25-9.453a.911.911 0 01-.75-.375c-.2-.25-.297-.473-.297-.672 0-.102.922-.727 2.766-1.875 1.851-1.145 5.726-3.172 11.625-6.078l.61-.75-10.954 3.297c-.7 0-1.5.105-2.406.312-.899.2-1.594.297-2.094.297-.898 0-1.344-.203-1.344-.61 0-.394.25-.866.75-1.421.5-.55.895-.926 1.188-1.125l9.61-5.25c.093.105.241.156.452.156.395 0 .692-.25.89-.75-1.093 0-2.57.227-4.421.672-1.855.45-3.078.727-3.672.828-2.406.7-4.008 1.047-4.797 1.047l-.61 1.953V-6l10.954-4.656v-.89c-1.2 0-2.398.35-3.594 1.046-.21.105-.715.309-1.515.61a6.852 6.852 0 01-2.391.437zm2.25-8.39l3-.61c5.895-1.195 8.844-2.195 8.844-3 0-1.5-.5-2.25-1.5-2.25l-9.594 5.25zm54.156-2.704c-.906 0-1.96.25-3.156.75-.305.094-.758.246-1.36.453-.593.2-1.195.297-1.796.297 0 .305.097.578.297.828.207.25.41.375.609.375 3.602 0 5.406-.898 5.406-2.703zm.297 3.297c-1.605.5-4.406 1.102-8.406 1.797-2.594.305-3.89.605-3.89.906L62.25-3c2.695-2.695 6.797-5.047 12.297-7.047v-.61c-1 .106-4.25.712-9.75 1.813h-.594v-1.812c.8-.696 2.3-1.696 4.5-3 1.895-1.094 3.395-2.094 4.5-3 .094 0 .344-.196.75-.594zm-48 4.203c.5 0 1.57-.273 3.219-.828 1.656-.55 2.484-.875 2.484-.969l-.453-1.812c-.7.406-1.726 1.039-3.078 1.89-1.355.844-2.078 1.418-2.172 1.72zm48.594-.453c-1.094 0-2.219.18-3.375.531-1.149.344-1.969.867-2.469 1.563.594-.196 1.488-.317 2.688-.36A42.935 42.935 0 0074.547-12zm-54.89 7.344c3.394 0 6.19-.32 8.39-.969 2.195-.645 3.297-2.117 3.297-4.422-.399 0-.649.047-.75.14-1 .5-2.399 1.055-4.188 1.657-1.605.5-2.96 1-4.062 1.5-1.094.5-2.242 1.2-3.438 2.094zm55.64-1.64c-1.805 0-3.758.476-5.86 1.421-2.093.95-3.64 2.074-4.64 3.375a26.52 26.52 0 004.953-.453 47.345 47.345 0 012.547-.297 33.035 33.035 0 013-.156zm-45.89 6c.195 0 .519-.25.968-.75.445-.5.723-.9.828-1.204 0-.8-.203-1.328-.61-1.578-.398-.25-.945-.375-1.64-.375h-.906c-1 0-3.477.5-7.422 1.5-3.95 1-6.227 1.805-6.828 2.406zm35.39 3c.906 0 1.906-.056 3-.157C68.898.953 69.75.852 70.344.75c1.8-.305 3.601-.453 5.406-.453l-.453-.89H62.25l1.656 1.64c.196.101.492.156.89.156zm0 0"/></symbol><symbol overflow="visible" id="d"><path fill="#343434" d="M10.5-88.047c0-1.406-.102-3.707-.297-6.906l-.156-4.64c0-1.102.55-1.958 1.656-2.563h10.953c1.79 0 2.91.93 3.36 2.781.457 1.855.734 4.531.828 8.031 0 2.293.101 3.64.312 4.047 0 .805-.027 1.48-.078 2.031-.055.543-.23.965-.531 1.266l-2.25-.156c-1.5 0-2.5.25-3 .75-.594-.5-2.195-.75-4.797-.75L11.703-84l-1.36-1.203zM16.203-99c-1.805 0-2.703.5-2.703 1.5 0 .805.25 1.652.75 2.547l3.906-3.89zm4.953.156c-.804 0-1.508.555-2.11 1.656-.593 1.094-.89 2.043-.89 2.844v.75c.79-.207 1.785-.582 2.985-1.125 1.207-.55 1.96-1.031 2.265-1.437 0-.5-.23-1.07-.687-1.719-.45-.645-.969-.969-1.563-.969zm-6.453 6c0 .094.195.344.594.75.406 0 .707-.25.906-.75.195-.5.297-1.05.297-1.656-.398 0-.797.18-1.203.531-.399.344-.594.719-.594 1.125zm7.953.438a8.434 8.434 0 00-.453-.36 4.635 4.635 0 01-.453-.39c-.5.21-1.5.636-3 1.281-1.5.648-2.805 1.121-3.906 1.422v2.703h7.812zm4.047 62.86c0 2.198.098 4.573.297 7.124.195 2.555.348 4.375.453 5.469.695 5.805 1.047 11.258 1.047 16.36 0 .593-.152 1.163-.453 1.718-.305.55-.703.828-1.203.828-2.399 0-5.399-.101-9-.297-3.594-.21-6.742-.312-9.438-.312C7.602 1.05 7.203.602 7.203 0c0-.395.098-.816.297-1.266.195-.457.297-.882.297-1.28 0-1.102.348-5.657 1.047-13.657.707-8 1.207-13.348 1.5-16.047l-.75-7.047c0-3.3.148-7.351.453-12.156.195-2 .297-3.348.297-4.047 0-2.395-.399-5.844-1.188-10.344.5-.3.75-.601.75-.906 0-.3-.277-.676-.828-1.125-.555-.445-.828-.77-.828-.969.395-.406.867-.957 1.422-1.656.55-.695 1.203-1.195 1.953-1.5.75-.3 1.82-.453 3.219-.453h10.36c.894 0 1.468.777 1.718 2.328.25 1.555.426 3.93.531 7.125 0 2.5.149 4.75.453 6.75l-.312 6.75c-.594 7.805-.89 14.453-.89 19.953zM12.156-69c.094.7.313 1.727.656 3.078.352 1.344.735 2.016 1.141 2.016.695 0 2.145-.895 4.344-2.688.195-.207.723-.633 1.578-1.281.852-.645 1.531-1.02 2.031-1.125zm11.094 1.656c-.805 0-2.43.903-4.875 2.703-2.45 1.793-3.824 2.891-4.125 3.297 1.5-.3 3.348-.773 5.547-1.422 2.195-.656 3.348-1.035 3.453-1.14zm-9.297 12c1.8 0 4.899-2.398 9.297-7.203-2 .399-4.18.969-6.531 1.719-2.344.75-3.57 1.43-3.672 2.031 0 2.305.3 3.453.906 3.453zM24-60.156c-3 1.105-5.805 3.308-8.406 6.61l7.656-2.704c.5-.102.75-1.05.75-2.844zm-10.656 11.25c1.406 0 2.957-.5 4.656-1.5 1.695-1 3-2.047 3.906-3.14L21-53.704c-1.7 0-3.402.453-5.11 1.36-1.699.898-2.546 2.042-2.546 3.437zM24-52.344c-1.898.7-3.898 1.649-6 2.844-2.105 1.2-3.605 2.45-4.5 3.75h.75c.195-.195 1.395-.57 3.594-1.125 2.207-.55 4.008-.828 5.406-.828zm-10.5 8.39c0 1.5.023 2.68.078 3.532.05.844.274 1.418.672 1.719.895-1.094 2.445-2.29 4.656-3.594 2.094-1.101 3.54-2.254 4.344-3.453l-.906-.156c-1 0-2.555.304-4.657.906-2.093.605-3.492.953-4.187 1.047zm3.906 5.86c.895-.101 2.04-.281 3.438-.531 1.406-.25 2.457-.473 3.156-.672-.7-1.195-1.547-1.797-2.547-1.797-.906 0-1.808.43-2.703 1.282-.898.843-1.344 1.417-1.344 1.718zM14.25-36.75c-.398.398-.648 1.172-.75 2.328a38.436 38.436 0 00-.156 3.516h.906c.602 0 2.05-.77 4.344-2.313 2.3-1.55 3.851-2.726 4.656-3.531a4.816 4.816 0 00-.61-.453c-.292-.195-.538-.297-.734-.297-.5 0-1.43.227-2.781.672-1.355.45-2.328.672-2.922.672-.305-.094-.656-.211-1.062-.36-.399-.156-.696-.234-.891-.234zm1.953 7.797c2.3 0 4.274-.5 5.922-1.5 1.645-1 2.469-2.445 2.469-4.344l-8.39 5.094-.61.61zm4.5-.14c-4.605 1.898-7.156 2.995-7.656 3.296l.453 1.953c3.3-1.3 5.703-3.05 7.203-5.25zm-6.61 8.687c6.708 0 10.063-2.696 10.063-8.094-1 0-2.93 1.203-5.781 3.61-2.855 2.398-4.281 3.89-4.281 4.484zm6.61.312c-.906.094-2.414.371-4.515.828-2.094.45-3.141.871-3.141 1.266v4.5c.195-.102 1.394-.926 3.594-2.469 2.207-1.55 3.96-2.879 5.265-3.984zm-5.86 8.688c1.208 0 2.708-.297 4.5-.89 1.802-.602 3.102-1.005 3.907-1.204l.156-3.156c0-.895-.25-1.344-.75-1.344-.304.305-1.406 1.105-3.312 2.406-1.899 1.293-3.399 2.438-4.5 3.438zm-2.687 4.36c0 .804.047 1.25.14 1.343.802-1.3 2.024-2.375 3.673-3.219 1.656-.851 2.582-1.328 2.781-1.422l-.594-.61c-.605.306-1.433.634-2.484.985-1.055.344-1.902.746-2.547 1.203-.648.45-.969 1.024-.969 1.72zm11.094-3.907c-.5 1-2.102 2.152-4.797 3.453-2.605 1.105-4.406 2.355-5.406 3.75 1.3 0 3.55-.422 6.75-1.266 3.195-.851 4.797-1.68 4.797-2.484zM21-1.797c1.395 0 2.469-.172 3.219-.516.75-.351 1.125-1.18 1.125-2.484-1.293 0-2.418.18-3.375.531-.95.344-2.024.918-3.219 1.72 1 .5 1.75.75 2.25.75zm0 0"/></symbol><symbol overflow="visible" id="e"><path fill="#343434" d="M78-45.75a49.792 49.792 0 013.75 19.047c0 5.406-.828 9.836-2.484 13.281-1.649 3.45-4.07 6.297-7.266 8.547C68.8-2.625 64.55-.5 59.25 1.5c-.805.3-1.781.703-2.938 1.203-1.148.5-2.195.848-3.14 1.047-.95.195-2.074.297-3.375.297-4.094 0-7.969-.555-11.625-1.656-3.649-1.094-7.82-2.692-12.516-4.797-.71-.29-2.136-.813-4.281-1.563-2.148-.75-3.969-1.523-5.469-2.328-1.804-.906-3.703-2.754-5.703-5.547-2-2.8-3.703-5.8-5.11-9C3.696-24.05 3-26.704 3-28.797c0-5 .57-8.973 1.719-11.922 1.156-2.957 3.43-7.082 6.828-12.375 5.3-10.406 15.148-16.554 29.547-18.453h2.562c1.395 0 2.766.18 4.11.531 1.351.344 2.68.766 3.984 1.266l4.203 1.344c6 1.5 10.5 3.98 13.5 7.437 3 3.45 5.848 8.524 8.547 15.219zM45.75-67.203c-.898 0-1.344.902-1.344 2.703 0 .2.07.352.219.453.145.094.27.14.375.14l7.047-1.187c-.805-.601-1.805-1.101-3-1.5-1.2-.406-2.297-.61-3.297-.61zm-11.094.156c-4.605.805-7.855 2.102-9.75 3.89 2 0 3.946-.269 5.844-.812 1.895-.55 3.195-1.578 3.906-3.078zm-12.75 17.25c-2.71.305-4.937.73-6.687 1.281-1.75.543-3.024 1.465-3.813 2.766 4.395-2.195 8.844-3.297 13.344-3.297.895 0 1.395.25 1.5.75-.305.2-.605.602-.906 1.203-.293.594-.64 1.043-1.047 1.344l-10.344 3.906.75.594c1-.195 2.399-.395 4.203-.594 2.29-.3 4.086-.773 5.39-1.422 1.302-.656 2.4-1.93 3.298-3.828 0-1.3 1.023-2.875 3.078-4.718 2.05-1.852 4.426-3.477 7.125-4.876 2.695-1.406 4.898-2.109 6.61-2.109.5.305 1.519.758 3.062 1.36 1.55.593 2.676.89 3.375.89.406 0 1.484-.672 3.234-2.016 1.75-1.351 2.82-2.28 3.219-2.78.101 0 .351-.204.75-.61h-1.953c0-.5.148-.895.453-1.188.3-.3.8-.554 1.5-.765-.094-.094-.293-.211-.594-.36-.305-.156-.555-.234-.75-.234-.105.105-.558.383-1.36.828-.792.45-1.187.824-1.187 1.125.094 0 .211.125.36.375.156.25.234.477.234.672 0 1.305-1.95 1.953-5.844 1.953h-1.062c-.594 0-.89-.148-.89-.453l1.952-2.547c-3.304.805-8.203 2.652-14.703 5.547-3 1.398-5.203 2.344-6.61 2.844-.792.304-1.312.683-1.562 1.14-.25.45-.43.996-.531 1.641-.105.648-.305 1.023-.594 1.125zm2.39-10.797c-1.593 0-3.194.602-4.796 1.797a15.271 15.271 0 00-3.984 4.422c-1.043 1.75-1.563 3.324-1.563 4.719l6.453-1.797c.196-.5.492-1.047.89-1.64.407-.602.755-.958 1.048-1.063l11.703-4.64-.14-.61c0-.696.374-1.219 1.124-1.563.75-.351 1.875-.68 3.375-.984.196 0 .742-.098 1.64-.297.907-.195 1.505-.5 1.798-.906l-.75-.14c-1.594 0-3.39.452-5.39 1.358-2 .899-3.102 1.391-3.298 1.485h-1.062c-.899 0-1.496.152-1.797.453l.61.75-1.657.453v-1.797h-.594c-.105.094-1.008.871-2.703 2.328-1.7 1.45-4.152 2.172-7.36 2.172.5-.707 1.274-1.312 2.329-1.812 1.05-.5 1.676-.797 1.875-.89 1.601-.5 2.555-1.099 2.86-1.798zm40.204-.312c0-.696-.7-1.047-2.094-1.047-.804 0-2.008.555-3.61 1.656-1.593 1.094-2.745 2.043-3.452 2.844h.61c3.3-1.195 5.523-2.047 6.671-2.547 1.145-.5 1.77-.8 1.875-.906zm2.25 1.953l-6.156 4.797-.438-.14c-.304 0-.781.25-1.437.75-.649.5-1.32.75-2.016.75.3-.5 1.348-1.4 3.14-2.704 1.802-1.3 2.704-2 2.704-2.094l-.14-.453c-3.212 1.2-5.387 2.047-6.532 2.547-1.148.5-1.773.805-1.875.906 0 .2.695 1.297 2.094 3.297 1.3 1.7 2.101 2.899 2.406 3.594 1.102-.8 2.578-1.723 4.422-2.766 1.851-1.05 2.976-1.578 3.375-1.578v1.344c-.5 0-1.152.305-1.953.906-.793.594-1.438 1.14-1.938 1.64s-.804.856-.906 1.063c.8-.207 1.973-.562 3.516-1.062 1.55-.5 2.879-1 3.984-1.5 0-.094.07-.211.219-.36.156-.156.281-.234.375-.234.8 0 1.453.2 1.953.594.101-.196.156-.492.156-.89 0-.907-.68-1.43-2.031-1.579-1.344-.145-2.07-.27-2.172-.375 0-.195.07-.469.219-.813.156-.351.332-.882.531-1.593-.398 0-1.094.25-2.094.75-1 .5-1.804.75-2.406.75l-1.344-.14 5.844-2.548zM62.406-24.75c3.094-2.3 5.692-3.898 7.797-4.797l-.906-.156c-.7 0-1.922.328-3.672.984-1.75.649-2.824.969-3.219.969-.21 0-.367-.125-.468-.375-.094-.25-.141-.426-.141-.531 0-.696.422-1.442 1.266-2.235.851-.8 2.082-1.754 3.687-2.859 2-1.602 3.148-2.55 3.453-2.844h-.61l-8.39 3.14c-.2.106-.527 1.434-.984 3.985-.45 2.543-1.024 4.215-1.719 5.016-2.7 3-4.148 4.5-4.344 4.5h-.75c1.594-1.094 2.64-2.664 3.14-4.719.5-2.05.75-4.379.75-6.984 0-2.196-.327-4.922-.983-8.172-.649-3.25-1.668-6.145-3.063-8.688-1.398-2.55-3.094-3.976-5.094-4.28-.804.5-1.453.75-1.953.75-.605 0-1.383-.349-2.328-1.048-.95-.707-1.727-1.062-2.328-1.062-1.5 0-3.227.75-5.172 2.25a22.47 22.47 0 00-4.953 5.25c-1.344 2-2.016 3.652-2.016 4.953l.14 1.5c0 .406-.226 1.262-.671 2.562-.45 1.293-.672 2.891-.672 4.797 0 4.899 1.348 8.946 4.047 12.14 2.695 3.2 6.445 4.798 11.25 4.798 6.195 0 11.645-2.848 16.344-8.547-.399.7-.594 1.351-.594 1.953zM73.5-45.156v-1.797c0-1-.402-1.5-1.203-1.5-.805.406-2.055.984-3.75 1.734-1.7.75-3.2 1.555-4.5 2.407a15.352 15.352 0 00-3.453 3.062c.8-.102 1.726-.379 2.781-.828 1.05-.445 1.773-.77 2.172-.969 2.601-1.5 4.805-2.25 6.61-2.25zm-63.453 1.36c-.399.398-.594 1.046-.594 1.952.695-.3 2.297-.926 4.797-1.875 2.5-.957 4.55-1.883 6.156-2.781-.906 0-2.484.305-4.734.906-2.25.594-4.125 1.196-5.625 1.797zm64.656.452c-.305.094-.828.293-1.578.594-.75.305-1.277.605-1.578.906-.305.293-1.578 1.117-3.828 2.469-2.25 1.355-3.824 2.281-4.719 2.781l-.594.75 12.297-4.203zm-13.797 5.547c1.29 0 3.008-.797 5.157-2.39 2.156-1.602 3.535-2.61 4.14-3.016H69c-.2 0-2.602 1.055-7.203 3.156-.594.305-.89 1.055-.89 2.25zm-42.156-2.86c-3.605 0-6.383.329-8.328.985-1.95.649-2.922 2.274-2.922 4.875 2.5-.695 5.523-1.695 9.078-3 3.55-1.3 5.926-2.203 7.125-2.703l-3.906-.156zM19.203-36c.895 0 1.992-.195 3.297-.594 1.3-.406 1.953-.957 1.953-1.656l-.156-.453c-.305.305-1.133.656-2.485 1.062-1.343.399-2.667.891-3.968 1.485zm56.25-1.953c-.7 0-2.851 1.5-6.453 4.5a49.637 49.637 0 01-3.906 3.156c2.101-.406 4.476-1.379 7.125-2.922 2.656-1.55 3.984-3.129 3.984-4.734zm-68.703 9c0 .7.05 1.101.156 1.203 1.696-1 4.094-2 7.188-3 4-1.3 6.851-2.648 8.562-4.047-2.71 0-6.039.5-9.984 1.5-3.95 1-5.922 2.45-5.922 4.344zm17.547-3.89c-.805.593-3 1.445-6.594 2.546-.5.2-1.578.602-3.234 1.203-1.649.594-2.899 1.121-3.75 1.578-.844.45-1.266.82-1.266 1.11 1.3-.395 3-.692 5.094-.89 3-.407 5.297-.958 6.89-1.657 1.602-.695 2.555-1.992 2.86-3.89zM78-29.548l-.594-2.703c-.71 0-1.386.328-2.031.984a34.35 34.35 0 01-2.031 1.875c-.7.594-1.746 1.141-3.14 1.641v.75c1.593-1.102 3.538-1.754 5.843-1.953zm0 1.203c-2.105 1.793-5.453 3.793-10.047 6-3.605 1.899-5.855 3.149-6.75 3.75L58.5-17.25h.75c.8 0 3.578-.973 8.328-2.922 4.75-1.945 8.024-3.375 9.828-4.281.29-.094.461-.363.516-.813.05-.457.078-.937.078-1.437zM8.094-24.156c0 .605.097 1.031.297 1.281.207.25.562.375 1.062.375 1.195 0 4.098-1.098 8.703-3.297.594-.3 1.14-.55 1.64-.75.5-.195.9-.348 1.204-.453v-.75l-.594.156-3.61.89c-4.198.806-7.1 1.653-8.702 2.548zM24-26.546c-1.105.398-3.133 1.12-6.078 2.171-2.95 1.055-4.477 1.68-4.578 1.875h1.062c1.5 0 3.625-.223 6.375-.672 2.75-.445 4.125-1.07 4.125-1.875 0-.3-.105-.625-.312-.969-.2-.351-.399-.53-.594-.53zM12.297-18c.406 0 2.305-.625 5.703-1.875 3.395-1.25 5.695-2.125 6.906-2.625-4.5 0-9.203.852-14.11 2.547.102.406.302.836.595 1.281.3.45.601.672.906.672zm51.453-4.5c-1.398.105-3.148.73-5.25 1.875-2.105 1.148-3.156 2.422-3.156 3.828.3-.3.875-.676 1.718-1.125.852-.445 1.485-.82 1.891-1.125.395-.3 1.242-.8 2.547-1.5 1.3-.695 2.05-1.348 2.25-1.953zm5.844 10.344c2.3-.79 4.203-1.91 5.703-3.36 1.5-1.457 2.25-3.234 2.25-5.328-.899 0-3.649 1.574-8.25 4.719-4.594 3.148-7.746 5.371-9.453 6.672h1.36l8.39-3.89zM16.5-17.25c4.195 0 7.895-.648 11.094-1.953 0-.195-.102-.469-.297-.813-.2-.351-.399-.53-.594-.53l-6.906 1.952-1.5-.156c-1.305 0-1.953.352-1.953 1.047zm31.656 7.797c.5.105.75.558.75 1.36v.437l-5.703 2.562c2.695 0 5.219-.472 7.563-1.422 2.351-.957 4.78-2.382 7.28-4.28 1.102-.802 3.602-2.454 7.5-4.954 3.802-2.395 6.255-3.992 7.36-4.797-1.71 0-3.414.352-5.11 1.047-1.698.7-3.698 1.75-6 3.156-2.198 1.293-4.073 2.293-5.624 3-1.555.7-3.125 1.047-4.719 1.047v-1.36c-.7 0-2.027.356-3.984 1.063-1.95.7-2.969 1.297-3.063 1.797 0-.101-1-.476-3-1.125-2-.656-3.203-.984-3.61-.984 0 1.21.821 1.914 2.47 2.11 1.656.198 2.535.296 2.64.296 0 .305-1.25 1.055-3.75 2.25-2 1-3.105 1.652-3.312 1.953 3.101-.8 5.004-1.254 5.703-1.36a83.146 83.146 0 006.61-1.796zm-32.86-2.703c.907 0 2.88-.625 5.923-1.875 3.05-1.25 4.726-2.172 5.031-2.766l-1.344-.453c-4.605 1.398-8.406 2.094-11.406 2.094 0 .5.172 1.105.516 1.812.351.7.78 1.094 1.28 1.188zm15.454-3.297c-.7 0-1.547.125-2.547.375-1 .25-1.5.476-1.5.672 0 .304.445.453 1.344.453.695 0 1.57-.098 2.625-.297 1.05-.195 1.726-.348 2.031-.453-.605-.5-1.258-.75-1.953-.75zm-.156 4.5l3.453.156c.3 0 .703-.25 1.203-.75.5-.5.75-1.05.75-1.656zm37.062 5.86c1.29-.602 2.813-1.704 4.563-3.298 1.75-1.601 2.625-2.957 2.625-4.062l-.14-.453c-2.407 1.5-5.31 2.875-8.704 4.125-3.398 1.25-5.398 1.875-6 1.875-1.105 1.105-3.156 2.258-6.156 3.453a25.22 25.22 0 00-3.297 1.515 16.152 16.152 0 00-3 2.094c.101.094.3.211.594.36.3.156.554.234.765.234.5 0 1.645-.25 3.438-.75 2.601-.8 4.406-1.203 5.406-1.203.195.105 3.5-1.192 9.906-3.89zm-50.406-5.11c.5.805 1.172 1.383 2.016 1.734.851.344 1.879.617 3.078.813l7.812-4.5-.906-.297zm5.844 3.297c0 .304.75.683 2.25 1.14 1.5.45 2.601.672 3.312.672a153.37 153.37 0 003.438-1.281 36.966 36.966 0 004.875-2.25c1.55-.852 2.328-1.578 2.328-2.172-2.399 1.399-6.047 2.399-10.953 3-.594.094-1.446.219-2.547.375-1.094.149-1.996.32-2.703.516zM31.5-3.75c0 .398.348.594 1.047.594.906 0 2.332-.473 4.281-1.422 1.945-.945 3.223-1.52 3.828-1.719zm5.703 2.547c2 .5 3.848.75 5.547.75.5 0 1.945-.547 4.344-1.64 2.406-1.102 4.304-2.102 5.703-3 .101 0 .203-.071.297-.22.101-.156.207-.234.312-.234-2.5 0-5.23.402-8.187 1.203-2.95.793-5.621 1.84-8.016 3.14zm0 0"/></symbol><symbol overflow="visible" id="f"><path fill="#343434" d="M8.547 2.094c0-.293.223-2.012.672-5.156.457-3.157.687-5.688.687-7.594 0-2.594-.105-6.192-.312-10.797-.2-5.594-.297-11.692-.297-18.297L9-46.047c-.7-9.8-1.047-17.148-1.047-22.047 0-.406.27-.86.813-1.36.55-.5 1.18-.75 1.89-.75.395 0 1.664.126 3.813.376 2.156.25 4.332.375 6.531.375 3.3 0 5.25-.047 5.844-.14 1.601.398 2.68.921 3.234 1.577.55.649 1.176 1.871 1.875 3.672.395.399.594.594.594.594.195 0 .445-.07.75-.219.3-.156.504-.281.61-.375l18.75-5.25c2.593 0 3.89.7 3.89 2.094a155.617 155.617 0 00-.75 5.172 85.377 85.377 0 01-.594 3.984c-.406 3.2-.762 5.477-1.062 6.828-.293 1.344-.688 2.016-1.188 2.016-.7 0-1.7-.25-3-.75-1.305-.5-2.453-.75-3.453-.75-3.2 0-6.172 1.078-8.922 3.234-2.75 2.149-4.125 4.82-4.125 8.016 0 .7-.152 2.277-.453 4.734-.305 2.45-.453 5.82-.453 10.11 0 5.304.25 10.906.75 16.812.5 2.7.75 5.996.75 9.89 0 3.696-.5 5.548-1.5 5.548H17.094L9.906 5.547c-.21-.2-.492-.672-.844-1.422-.343-.75-.515-1.43-.515-2.031zm3.297-67.5c0 1.21.203 2.21.61 3 .5.605.796 1.605.89 3 2.601-.79 3.804-1.14 3.61-1.047 3.5-1 6.222-1.922 8.171-2.766 1.945-.851 2.922-1.832 2.922-2.937 0-.395-.297-.594-.89-.594-1.712 0-4.165.2-7.36.594-3 .5-5.652.75-7.953.75zm31.812 4.062c0 .899-1.078 1.946-3.234 3.14-2.149 1.2-3.274 1.852-3.375 1.954l.75.297 13.5-7.203c.101 0 .555-.848 1.36-2.547v-.594c-4.712.305-8.61 1.555-11.704 3.75.195 0 .547.027 1.047.078.5.043.898.14 1.203.297.3.149.453.422.453.828zm-5.86-.61c-2.593.907-4.495 2.06-5.702 3.454-1.2 1.398-2.047 2.7-2.547 3.906-.5 1.2-.852 1.844-1.047 1.938l3.297-2.844c3.906-3.5 6.11-5.398 6.61-5.703a1.947 1.947 0 01-.313-.36 2.172 2.172 0 00-.297-.39zm-19.952 8.25c.906-.3 2.332-.722 4.281-1.265 1.945-.55 3.422-1.3 4.422-2.25 1-.957 1.5-2.332 1.5-4.125C26.648-60.25 23.3-59.05 18-57.75c-2.805.7-4.402 1.2-4.797 1.5zm8.25 2.25c-7.594 3-11.89 6-12.89 9l2.546.157c8.195 0 13.195-.898 15-2.703 1.102-1.102 1.852-1.906 2.25-2.406.8-1 1.55-1.797 2.25-2.39.695-.602 1.75-1.157 3.156-1.657.696-.3 1.617-.5 2.766-.594 1.156-.101 1.93-.156 2.328-.156 2.3-.094 4.05-.317 5.25-.672 1.195-.352 1.848-1.176 1.953-2.469l.14-4.812c-1.292 0-3.917.98-7.874 2.937-3.95 1.95-6.574 3.469-7.875 4.563v-.75c-.793.105-1.742.906-2.844 2.406-1.2 1.2-2.172 2.074-2.922 2.625-.75.555-1.625.828-2.625.828s-1.5-.348-1.5-1.047c0-.101.297-.43.89-.984.602-.55 1.005-.973 1.204-1.266 0-.406-.402-.61-1.203-.61zm-13.64 1.5c0 .407.097.934.296 1.579.195.648.348 1.121.453 1.422l11.094-6.297c-.399 0-1.496.352-3.297 1.047-1.805.7-2.805 1.047-3 1.047-1.2 0-2.375.18-3.531.531-1.149.355-1.82.578-2.016.672zm.75 21.61c0 .899.124 1.946.374 3.14.25 1.2.375 2.2.375 3 1 0 1.848-.171 2.547-.515.695-.351 1.598-.93 2.703-1.734 1.195-.895 2.195-1.492 3-1.797h-.61l-6.437.75c-.5-.5-.75-.898-.75-1.203.094-.594 2.29-2.344 6.594-5.25l4.5-3.453c-1 .21-1.95.312-2.844.312-1.5 0-2.652-.05-3.453-.156l-4.047-.156c.094-.895 1.192-1.942 3.297-3.14l-.75-.61c2.5-.196 4.672-.52 6.516-.969 1.851-.445 3.332-1.223 4.437-2.328-1.406 0-4.61.601-9.61 1.797-2.593.605-3.944.906-4.046.906-.7 0-1.102-.05-1.203-.156-.399 4.406-.594 8.261-.594 11.562zm15.89-11.703c-1.899 0-4.594.95-8.094 2.844l4.344.156c1.207 0 2.133-.195 2.781-.594.645-.406.969-1.207.969-2.406zm-1.64 26.703c0 .7-.403 1.324-1.204 1.875-.805.543-1.902 1.168-3.297 1.875-.305.2-.855.5-1.656.906-.805.399-1.352.793-1.64 1.188C20.55-7.602 22-7.879 24-8.328c2-.445 3.348-.82 4.047-1.125l.61-3.297V-31.5l-.61-3.156a114.338 114.338 0 00-4.64 3.39c-1.5 1.149-2.555 1.918-3.157 2.313h4.5c.5 0 .75.5.75 1.5 0 .805-.5 1.578-1.5 2.328-1 .75-2.352 1.574-4.047 2.469-2.105.906-3.308 1.656-3.61 2.25 1 0 2.4-.098 4.204-.297 1.406-.3 2.86-.453 4.36-.453 1.593 0 2.39.453 2.39 1.36 0 .898-.602 1.718-1.797 2.468-1.2.75-2.602 1.5-4.203 2.25-1.594.75-2.793 1.328-3.594 1.734v.594c1-.5 2.27-.922 3.813-1.266 1.55-.351 2.879-.53 3.984-.53.8 0 1.328.077 1.578.233.25.149.375.47.375.97zm-4.5-6.453c-.7 0-2.403.25-5.11.75-2.7.5-4.047 1.047-4.047 1.64 0 .407.172.985.515 1.735.352.75.833 1.125 1.438 1.125.3 0 1.773-.723 4.422-2.172 2.656-1.457 3.984-2.285 3.984-2.484a3.731 3.731 0 00-.531-.36c-.25-.156-.477-.234-.672-.234zM13.203.453c0 2.195 3.546 3.297 10.64 3.297l5.562-.156v-7.938c0-.207-.105-.457-.312-.75-.2-.3-.399-.453-.594-.453-.398 0-.844.125-1.344.375-.5.25-.855.527-1.062.828.207 0 .457.125.75.375.3.25.453.477.453.672 0 .5-.055.953-.156 1.36-.094.398-.141.695-.141.89l-2.25.594c-1.398 0-2.922.2-4.578.594-1.649.406-2.922.707-3.828.906-1.094 0-1.696-.25-1.797-.75.601-.8 1.406-1.473 2.406-2.016 1-.55 2-1.031 3-1.437 1.594-.696 2.766-1.242 3.516-1.64.75-.407 1.426-1.056 2.031-1.954-1.5.305-4.102.703-7.797 1.203l-2.25-.156c0-.895.348-1.64 1.047-2.234.695-.602 1.645-1.258 2.844-1.97 1.3-.695 2.254-1.394 2.86-2.093l-7.657 1.344c-.305 0-.578 1.5-.828 4.5s-.422 5.203-.516 6.61zm0 0"/></symbol><symbol overflow="visible" id="g"><path fill="#343434" d="M7.328-8.297c1.363.23 2.336.586 2.922 1.063.164.398.25.808.25 1.234v.922c0 1.855-1.059 3.203-3.172 4.047L6.5-.688c-.95 0-1.86-.859-2.734-2.578v-.343c0-1.957.304-3.164.921-3.625 1.27-.707 2.149-1.063 2.641-1.063zm0 0"/></symbol><symbol overflow="visible" id="h"><path fill="#343434" d="M14.984-35.453h2.25c1.07 0 2.832.46 5.282 1.375.875 0 2.304.586 4.297 1.75h.343c.477 0 1.551-.91 3.219-2.734.383 0 1.066.636 2.047 1.906.488.23 1.008.652 1.562 1.265v.203C31.41-28.883 30.125-27.32 30.125-27c-1.2 4.063-1.996 6.34-2.39 6.828-.782.918-2 1.715-3.657 2.39-1.992 1.993-3.765 2.985-5.328 2.985l-2.094.094-4.406-.438h-.828c-.324 0-.809 1.485-1.453 4.454l.531.187h.25c.645 0 1.406-.29 2.281-.875l1.625-.094h2.735c4.32 0 7.882.406 10.687 1.219.29.262 1.285.766 2.985 1.516l2.343 1.656c1.75 1.5 2.852 2.883 3.313 4.14 1.656 3.227 2.484 5.915 2.484 8.063 0 1.664-1.32 3.766-3.953 6.297l-4.094 2.937c-2.187 1.364-4.777 2.047-7.765 2.047l-1.907.25c-8.043 0-13.48-1.633-16.312-4.89C3.055 10.46 2 8.82 2 6.844 1.219 5.469.828 3.578.828 1.172L.641-.344l.187-.875h.25c.125-.75.129-1.035.016-.86-.117.18-.203.009-.266-.515.133-.875.985-2.437 2.547-4.687C5.094-8.938 5.953-9.88 5.953-10.11c.457-3.813.8-6.141 1.031-6.985-1.136-2.207-1.703-4.062-1.703-5.562l-.11-1.125c0-.75.298-2.164.891-4.25.415-.414 1.375-1.633 2.875-3.657 2.376-2.507 4.391-3.765 6.047-3.765zm-4.828 10.062v.344c.688 3.418 1.192 5.125 1.516 5.125 1.07 1.043 2 1.649 2.781 1.813 3.813-.332 7.067-2.27 9.766-5.813.351-.625.531-1.113.531-1.469v-1.03c0-.782-.54-1.884-1.61-3.313-2.437-1.04-4.132-1.563-5.078-1.563-2.21 0-4.257.914-6.14 2.735-1.18 1.46-1.766 2.515-1.766 3.171zm7.172 19.578l.063.094v.157l-1.078.187-1.47-.188-5.03.094c-2.055 1.887-3.079 3.219-3.079 4l-.437.438v.11c.363 4.655.82 7.468 1.375 8.437.062.226.89.914 2.484 2.062 0 .352 1.332.89 4 1.61 4.102.613 7.41.921 9.922.921 3.383-.617 5.692-1.574 6.922-2.875 2.219-2.312 3.328-4.171 3.328-5.578v-.328c0-.855-.883-2.371-2.64-4.547-.262-.582-.946-1.203-2.047-1.86l-6-2.39-4.25-.093.047-.438-.047-.063h-.782c-.593 0-1.023.086-1.28.25zm0 0"/></symbol><symbol overflow="visible" id="i"><path fill="#343434" d="M6.156-33.64l4.64 1.515c.095.75.368 1.496.829 2.234l.094.688c-.387 2.773-.485 8.793-.297 18.062 0 1.344.52 2.211 1.562 2.594l.5 1.125c0 .293 1.508.54 4.532.734h.25c.906 0 2.078-1.023 3.515-3.078 1.133-1.132 1.848-1.984 2.14-2.546h.345v-.438l-.094-.344c.226-.383.422-.984.578-1.797l.11-.046v-.641l1.218-12.89v-1.173l-.203-.687v-.094c.52-.351.781-.922.781-1.703 0-.426.164-.688.5-.781l1.563.781h1.5c1.789 0 3.078.39 3.86 1.172v.281c.132.563.25.844.343.844.164.219.281.59.344 1.11l-.688 8.452.11.094v.11c-.305.875-.618 3.609-.938 8.203v1.953c0 2.96.129 4.437.39 4.437h.297c.907 0 2.208-.195 3.907-.593.258.042.664.324 1.218.843-.167 4.032-.43 6.047-.78 6.047L37.5.25l-2.047.188L27.937.25c-.398 0-.789-.91-1.171-2.734-.305-.258-.453-.54-.453-.844l.109-.625h-.203c-.356 0-1.688.601-4 1.797-.137.304-1.7.992-4.688 2.062-.75.383-1.664.723-2.734 1.016C14.109.535 13.02.145 11.53-.25 8.695-3.04 6.953-5.531 6.297-7.719 5.16-9.344 4.594-12.89 4.594-18.359l.734-7.953v-.157c0-.156-1.547-.46-4.64-.922-.293-.425-.438-1.55-.438-3.375 0-1.238.223-1.859.672-1.859 0-.52 1.742-.86 5.234-1.016zm0 0"/></symbol><symbol overflow="visible" id="j"><path fill="#343434" d="M26.375-31.64c1.75 0 3.227 1.257 4.438 3.765.257 0 .582.293.968.875l.938 5.031c-.399.524-1.602.782-3.61.782h-.687c-1.7-.227-2.547-.801-2.547-1.72 0-.644-.523-1.503-1.563-2.577-.125-.227-1.085-.344-2.875-.344-1.792 0-3.875.453-6.25 1.36-1.624 1.667-2.765 3.07-3.421 4.202.32 8.211.437 13.059.343 14.547 0 .399.274.594.829.594h1.656c.719.031 1.078.148 1.078.344v.093l.25.922L15.766 0l-.391.531-3.172.297h-.281l-1.375.438C5.367 1.109 2.78.914 2.78.687c-.906 0-1.36-.406-1.36-1.218-.105-.625-.155-1.473-.155-2.547 0-.844.879-1.41 2.64-1.703 0-.364.602-.547 1.813-.547l.234-.047v-.094L5.516-24.03c0-1.133-.278-1.703-.829-1.703H4.25c-.555 0-1.465.23-2.734.687l-.094-.094v-.156c0-.094.176-.207.531-.344v-.093c-.46 0-.687-1.286-.687-3.86-.063 0-.125-.39-.188-1.172 1.852-1.425 3.738-2.14 5.656-2.14h1.72c.581 0 1.718.226 3.405.672l.11.25c-.43.554-.64 1.011-.64 1.375v.437c3.644-1.664 8.66-2.156 15.046-1.469zm0 0"/></symbol></defs><use xlink:href="#a" x="28" y="125"/><use xlink:href="#b" x="70.45" y="125"/><use xlink:href="#c" x="156.1" y="125"/><use xlink:href="#d" x="242.05" y="125"/><use xlink:href="#e" x="278.8" y="125"/><use xlink:href="#f" x="364.9" y="125"/><g><use xlink:href="#g" x="241" y="174"/><use xlink:href="#h" x="254.865" y="174"/></g><g><use xlink:href="#i" x="289.18" y="174"/></g><g><use xlink:href="#j" x="329.145" y="174"/></g><g><use xlink:href="#i" x="363.01" y="174"/></g></svg>
