<?xml version="1.0" standalone="no"?>
<!DOCTYPE svg PUBLIC "-//W3C//DTD SVG 20010904//EN"
 "http://www.w3.org/TR/2001/REC-SVG-20010904/DTD/svg10.dtd">
<svg version="1.0" xmlns="http://www.w3.org/2000/svg"
 width="701.794646pt" height="622.694220pt" viewBox="0 0 701.794646 622.694220"
 preserveAspectRatio="xMidYMid meet">
<metadata>
Created by potrace 1.16, written by Peter Selinger 2001-2019
</metadata>
<g transform="translate(-43.336369,683.936225) scale(0.100000,-0.100000)"
fill="#343434" stroke="none">
<path d="M1250 6831 c-56 -11 -120 -52 -153 -98 l-29 -41 13 -69 c11 -52 21
-77 48 -106 34 -37 34 -38 23 -90 -28 -133 -42 -231 -42 -294 0 -112 12 -107
-246 -90 -204 14 -313 11 -376 -9 -10 -3 -28 -24 -39 -46 -18 -36 -19 -46 -10
-108 6 -38 11 -196 11 -352 0 -156 4 -321 10 -368 15 -143 35 -557 33 -710 -5
-425 -2 -579 11 -748 32 -399 38 -1790 10 -2255 -5 -88 -5 -88 26 -118 27 -28
35 -30 68 -24 80 15 226 16 412 4 246 -17 289 -16 372 5 58 14 128 17 532 17
289 0 478 4 499 11 38 12 774 26 1033 20 l181 -5 -4 -61 c-3 -33 1 -117 7
-186 7 -69 15 -177 20 -240 9 -139 22 -199 46 -217 23 -17 84 -17 109 0 15 9
54 11 165 5 80 -4 231 -10 335 -13 105 -2 273 -9 375 -15 292 -17 940 -24
1001 -11 29 7 181 18 338 26 157 8 330 18 384 21 60 4 130 2 185 -6 68 -9 153
-10 385 -1 164 6 306 15 317 21 34 18 42 49 45 173 2 67 8 183 13 257 13 163
9 538 -8 710 -24 254 -26 297 -19 390 4 52 8 156 8 231 1 75 5 215 11 310 14
256 33 769 34 964 2 203 29 671 51 879 l16 149 -35 51 c-20 29 -66 90 -103
136 -73 91 -182 247 -225 320 -14 25 -38 56 -53 70 -15 14 -36 47 -47 73 -32
73 -54 81 -228 79 -88 -1 -178 5 -229 13 -63 11 -173 15 -443 15 -297 0 -360
2 -364 14 -9 23 25 166 56 235 24 56 33 67 65 78 121 42 167 159 111 284 -40
91 -102 109 -226 66 -73 -25 -103 -58 -114 -127 -7 -43 7 -115 24 -125 18 -11
11 -74 -15 -136 -14 -33 -35 -110 -46 -172 -12 -61 -24 -115 -28 -119 -4 -4
-45 -14 -91 -23 -101 -17 -520 -20 -700 -5 -63 6 -166 11 -229 13 l-114 3 -2
129 c-1 72 -7 142 -13 157 -7 18 -9 57 -5 106 5 72 4 81 -16 101 -25 25 -64
27 -132 5 -41 -14 -75 -16 -187 -10 -265 12 -353 19 -358 27 -2 4 9 43 25 86
16 43 32 89 36 103 14 52 57 131 73 136 9 3 31 11 47 18 17 8 42 18 57 24 19
8 32 26 48 69 19 52 21 64 10 110 -16 73 -34 91 -110 109 -75 17 -114 13 -182
-22 -84 -43 -107 -108 -67 -191 26 -55 19 -101 -43 -268 -6 -16 -23 -65 -38
-109 l-27 -79 -234 1 c-129 0 -322 5 -429 12 -107 6 -352 10 -545 9 -192 -1
-366 -3 -385 -3 -19 0 -123 6 -231 14 -155 11 -221 11 -314 2 -65 -6 -122 -9
-126 -6 -12 7 -11 127 0 173 5 20 18 83 27 140 16 94 20 104 43 113 69 26 97
48 123 94 15 27 28 64 28 82 0 44 -41 122 -93 177 -46 48 -64 52 -147 36z m54
-183 c17 -25 13 -38 -13 -38 -24 0 -45 25 -37 45 8 22 32 18 50 -7z m2546
-147 c0 -6 -5 -13 -10 -16 -15 -9 -43 3 -35 15 8 13 45 13 45 1z m1966 -482
c10 -17 -13 -36 -27 -22 -12 12 -4 33 11 33 5 0 12 -5 16 -11z m-4861 -140
c50 -5 95 -11 102 -14 17 -6 4 -45 -29 -83 -51 -60 -32 -141 38 -158 42 -11
173 3 199 20 50 33 44 105 -11 138 -25 15 -34 26 -32 42 3 18 13 22 78 30 86
11 379 11 520 2 91 -7 175 -8 650 -6 184 0 364 -5 765 -24 44 -2 106 1 137 7
42 8 64 7 83 -1 l25 -12 -17 -42 c-21 -55 -31 -68 -54 -68 -31 0 -59 -36 -59
-75 0 -42 22 -90 45 -99 27 -10 170 -7 204 5 55 19 69 83 27 122 l-25 23 20
59 c11 33 26 66 33 74 16 15 101 16 406 4 l184 -8 11 -55 c15 -84 13 -1069 -4
-1255 -9 -97 -11 -194 -6 -275 7 -134 10 -357 7 -695 0 -115 2 -264 6 -330 4
-66 4 -194 0 -285 -5 -91 -9 -399 -10 -685 0 -286 -4 -564 -7 -618 l-6 -98
-125 -6 c-69 -4 -147 -6 -175 -6 -27 0 -311 3 -630 7 -397 4 -631 3 -740 -5
-88 -6 -387 -14 -665 -18 -416 -5 -509 -9 -530 -21 -30 -17 -308 -17 -405 1
-33 6 -104 12 -158 14 -59 1 -103 7 -110 14 -9 9 -11 99 -8 349 9 714 -1 1585
-21 1838 -7 88 -13 320 -13 519 0 198 -4 398 -8 445 -4 47 -11 164 -17 260 -5
96 -13 229 -17 295 -4 66 -7 246 -7 400 l-1 280 115 5 c63 3 122 4 130 2 8 -2
56 -8 105 -13z m5541 -544 c52 -9 132 -18 177 -20 45 -2 83 -4 84 -5 1 0 -2
-11 -7 -25 -10 -26 -35 -402 -33 -487 2 -59 16 -86 51 -93 15 -4 52 -19 83
-36 31 -16 67 -29 80 -29 13 0 58 -9 99 -20 45 -12 108 -20 157 -20 45 0 84
-3 86 -7 7 -14 -22 -513 -39 -648 -9 -80 -14 -188 -12 -280 3 -170 -6 -532
-21 -865 -23 -495 -32 -741 -27 -757 3 -10 12 -119 20 -243 9 -124 18 -247 21
-273 6 -72 -14 -519 -28 -616 -12 -81 -14 -85 -42 -93 -17 -4 -158 -7 -315 -7
-157 1 -348 2 -425 2 -150 1 -451 -15 -680 -35 -83 -8 -262 -12 -440 -10 -479
4 -1424 51 -1450 72 -7 6 -15 45 -18 88 -4 42 -11 118 -17 167 -13 98 -18 245
-10 250 3 2 131 6 284 9 304 6 319 9 333 64 4 15 6 43 5 62 -6 175 -8 1201 -1
1365 5 131 4 302 -2 455 -6 135 -9 281 -7 325 6 142 2 486 -6 610 -6 87 -5
146 5 215 10 67 14 209 14 485 l0 390 70 0 c39 1 122 -3 185 -7 152 -12 722
-11 782 0 26 5 49 7 51 5 3 -2 -3 -30 -13 -61 -17 -54 -20 -57 -56 -63 -20 -4
-43 -15 -51 -25 -16 -23 -17 -85 0 -107 23 -31 104 -57 178 -57 61 0 73 3 94
25 32 31 32 66 -2 106 l-27 32 22 63 c12 34 22 69 22 76 0 36 17 38 377 38
269 0 376 -4 449 -15z m435 -141 c8 -9 32 -45 54 -79 81 -128 141 -212 202
-281 34 -40 59 -75 56 -78 -13 -12 -90 -5 -161 14 -39 11 -84 20 -100 20 -16
0 -43 13 -64 30 l-36 30 -1 103 c0 56 3 137 6 180 5 79 16 94 44 61z"/>
<path d="M1809 4665 c-3 -2 -128 -9 -279 -15 -151 -6 -290 -13 -308 -16 -93
-15 -98 -137 -6 -160 14 -4 58 -4 97 0 40 3 133 8 207 11 74 3 189 10 254 16
87 7 169 7 310 -2 105 -6 362 -13 571 -15 209 -2 475 -6 590 -9 258 -8 329 -2
361 30 32 33 32 78 -2 112 -23 23 -30 25 -72 17 -99 -17 -1279 4 -1482 26 -89
10 -233 13 -241 5z"/>
<path d="M1495 3930 c-33 -4 -102 -8 -153 -9 -104 -1 -148 -17 -158 -55 -9
-37 4 -63 42 -87 34 -21 42 -21 162 -14 70 5 201 9 292 9 218 1 809 -22 884
-33 116 -19 415 -24 521 -10 55 8 192 14 305 15 113 0 211 1 217 2 16 2 43 54
43 82 0 11 -12 32 -26 47 l-25 25 -232 -6 c-128 -3 -329 -9 -447 -12 -163 -4
-250 -2 -359 10 -79 9 -200 16 -270 16 -69 1 -187 5 -261 10 -208 14 -468 19
-535 10z"/>
<path d="M3525 3065 c-27 -11 -236 -36 -370 -46 -82 -5 -181 -14 -220 -19 -38
-6 -167 -15 -285 -21 -118 -5 -271 -16 -340 -24 -69 -8 -209 -17 -311 -20
-102 -3 -211 -10 -242 -15 -35 -5 -137 -5 -263 1 -138 6 -212 6 -225 -1 -45
-25 -53 -97 -14 -136 l25 -25 247 4 c288 4 659 22 788 38 50 6 185 15 300 19
116 5 253 15 305 23 52 8 155 18 229 22 74 3 175 13 225 20 50 8 127 17 171
21 94 8 125 30 125 89 0 51 -28 75 -87 74 -27 0 -52 -2 -58 -4z"/>
<path d="M3598 2374 c-9 -8 -327 -24 -563 -29 -121 -2 -227 -8 -250 -15 -29
-9 -235 -13 -737 -15 -621 -2 -700 -4 -722 -18 -49 -33 -46 -96 7 -124 29 -15
79 -16 512 -14 807 3 967 6 999 19 18 8 103 14 230 16 231 4 481 15 544 22 24
3 52 14 63 25 26 26 26 92 -1 119 -18 18 -69 27 -82 14z"/>
<path d="M6469 4215 c-26 -25 -1520 -41 -1619 -16 -65 15 -78 14 -105 -14 -26
-26 -33 -72 -15 -105 23 -43 52 -45 665 -42 577 3 1169 17 1200 28 19 8 45 55
45 84 0 11 -11 32 -25 45 -20 21 -34 25 -83 25 -32 0 -61 -2 -63 -5z"/>
<path d="M6477 3414 c-49 -26 -231 -36 -752 -39 -373 -2 -541 -7 -624 -18 -81
-10 -122 -12 -146 -4 -79 24 -153 -62 -115 -133 17 -32 61 -40 177 -29 252 23
400 29 778 34 481 7 725 19 765 40 27 14 50 58 50 97 0 29 -45 68 -77 68 -15
-1 -40 -8 -56 -16z"/>
<path d="M5215 2382 c-1 -2 -76 -4 -166 -6 -130 -2 -171 -6 -196 -20 -54 -28
-57 -103 -5 -130 20 -10 57 -12 142 -9 874 30 1348 31 1486 1 62 -13 89 -1
110 47 20 48 18 72 -10 100 l-23 23 -667 -1 c-367 -1 -669 -3 -671 -5z"/>
</g>
</svg>
