<?xml version="1.0" standalone="no"?>
<!DOCTYPE svg PUBLIC "-//W3C//DTD SVG 20010904//EN"
 "http://www.w3.org/TR/2001/REC-SVG-20010904/DTD/svg10.dtd">
<svg version="1.0" xmlns="http://www.w3.org/2000/svg"
 width="2887.747244pt" height="2562.262299pt" viewBox="0 0 2887.747244 2562.262299"
 preserveAspectRatio="xMidYMid meet">
<metadata>
Created by potrace 1.15, written by Peter Selinger 2001-2017
</metadata>
<g transform="translate(-203.496452,2838.874593) scale(0.100000,-0.100000)"
fill="#000000" stroke="none">
<path d="M5425 28369 c-30 -16 -49 -20 -82 -15 -31 4 -43 2 -43 -7 0 -8 -18
-12 -53 -13 -54 -1 -167 -45 -167 -65 0 -6 -4 -8 -9 -4 -14 8 -61 -16 -61 -32
0 -8 -11 -13 -29 -13 -23 0 -39 -13 -87 -70 -32 -38 -61 -70 -65 -70 -4 0 -12
-13 -17 -29 -6 -16 -24 -37 -41 -47 -17 -10 -31 -24 -31 -30 0 -7 -6 -14 -13
-17 -20 -8 -20 -94 0 -102 14 -5 14 -8 -3 -20 -18 -14 -18 -16 -1 -29 9 -7 17
-25 17 -39 0 -13 7 -27 15 -31 8 -3 15 -16 15 -28 0 -13 7 -43 15 -68 8 -25
17 -66 20 -93 4 -26 11 -45 16 -41 5 3 15 -8 22 -24 11 -26 109 -112 128 -112
4 0 10 -15 13 -32 4 -23 17 -40 41 -55 19 -13 39 -23 44 -23 5 0 8 -11 6 -25
-1 -14 1 -28 6 -31 5 -2 6 -17 4 -32 -3 -15 -7 -43 -8 -62 -2 -20 -6 -40 -9
-45 -6 -10 -12 -56 -8 -65 7 -18 6 -56 -2 -61 -4 -3 -9 -29 -9 -57 -1 -29 -6
-52 -10 -52 -5 0 -9 -13 -9 -28 0 -15 -5 -33 -10 -38 -6 -6 -12 -35 -14 -65
-1 -30 -8 -64 -15 -77 -7 -13 -11 -35 -10 -50 1 -15 -1 -35 -5 -44 -4 -9 -5
-21 -3 -25 3 -5 2 -15 -3 -23 -5 -8 -4 -22 2 -33 6 -12 6 -22 1 -26 -10 -6
-26 -97 -24 -136 0 -11 -8 -61 -20 -111 -11 -50 -21 -102 -23 -115 -1 -13 -5
-31 -9 -39 -10 -24 -29 -149 -37 -240 -4 -47 -10 -93 -15 -103 -4 -9 -3 -23 3
-30 5 -6 8 -32 6 -56 -2 -23 1 -52 7 -63 8 -16 8 -23 -2 -29 -11 -6 -11 -11
-2 -20 9 -9 9 -18 -2 -40 -10 -18 -11 -30 -5 -34 9 -6 7 -27 -7 -79 -4 -15 -1
-18 16 -13 11 3 21 1 21 -4 0 -5 -7 -9 -15 -9 -10 0 -17 -14 -21 -40 -4 -22
-10 -43 -15 -46 -4 -2 -6 -11 -3 -19 4 -8 -6 -35 -21 -60 -15 -26 -24 -53 -20
-64 3 -10 -1 -31 -10 -47 -8 -16 -15 -36 -16 -44 0 -10 -2 -11 -6 -2 -7 17
-100 16 -152 -3 -34 -12 -41 -12 -41 0 0 13 -54 32 -75 26 -26 -7 -321 8 -450
23 -22 3 -66 8 -97 11 -31 4 -62 4 -69 0 -18 -12 -91 -14 -132 -3 -55 13 -185
19 -192 8 -3 -6 -15 -6 -31 0 -14 6 -38 10 -54 10 -16 0 -31 4 -35 10 -3 5
-34 9 -68 9 -34 0 -88 4 -119 9 -37 5 -61 5 -67 -1 -7 -7 -24 -6 -51 2 -25 7
-46 8 -57 3 -30 -15 -236 -7 -264 10 -24 15 -99 18 -129 5 -8 -3 -55 -11 -105
-16 -73 -8 -93 -7 -105 4 -16 14 -60 10 -60 -5 0 -10 -50 -18 -160 -28 -89 -7
-110 -14 -110 -36 0 -7 -9 -25 -20 -39 -11 -14 -22 -40 -24 -58 -1 -18 -10
-37 -18 -43 -26 -19 -42 -57 -28 -66 7 -4 9 -13 5 -19 -4 -7 -2 -17 3 -24 9
-11 20 -96 27 -203 1 -23 5 -46 7 -50 6 -10 12 -169 11 -301 0 -51 4 -93 9
-93 5 0 7 -4 4 -9 -3 -4 -1 -23 4 -41 5 -19 6 -38 1 -44 -4 -6 -7 -41 -6 -78
1 -38 -1 -68 -4 -68 -4 0 -7 -43 -7 -95 -1 -74 2 -95 12 -95 15 0 18 -12 7
-24 -14 -13 -17 -90 -13 -286 2 -132 -6 -339 -14 -347 -2 -3 2 -19 9 -36 9
-21 10 -40 3 -61 -12 -41 -13 -105 -1 -117 4 -4 6 -39 3 -76 -4 -43 -2 -71 4
-75 8 -5 8 -10 0 -18 -13 -13 -7 -139 7 -157 6 -6 6 -13 2 -16 -10 -6 -10
-248 0 -264 4 -6 2 -15 -3 -18 -7 -4 -8 -19 -4 -38 7 -31 9 -83 18 -379 3
-108 7 -143 20 -163 12 -18 14 -30 7 -39 -6 -8 -7 -25 0 -51 9 -40 14 -78 23
-208 3 -37 8 -72 11 -77 3 -5 1 -12 -5 -15 -8 -5 -8 -11 -1 -19 6 -7 12 -62
14 -122 2 -60 6 -114 9 -119 3 -6 5 -44 4 -85 -1 -41 1 -104 6 -140 4 -36 10
-132 13 -215 3 -82 7 -160 10 -173 3 -13 0 -38 -6 -56 -7 -20 -9 -41 -4 -52 5
-11 7 -23 6 -28 -1 -4 3 -14 10 -22 6 -8 9 -23 6 -34 -3 -11 -1 -23 4 -26 5
-3 6 -10 3 -16 -9 -14 -8 -228 1 -250 5 -12 3 -18 -6 -18 -11 0 -11 -2 1 -10
12 -7 15 -35 17 -127 1 -65 2 -118 3 -118 1 0 3 -29 4 -65 l2 -65 40 -5 c25
-3 34 -8 26 -13 -7 -5 -21 -5 -32 -2 -13 4 -20 2 -21 -7 -4 -46 -4 -155 0
-162 5 -11 8 -30 15 -86 2 -19 7 -42 11 -51 3 -10 2 -20 -4 -23 -7 -4 -7 -15
-1 -31 5 -14 5 -27 1 -30 -12 -7 9 -66 28 -81 12 -9 11 -12 -4 -18 -15 -6 -17
-15 -11 -76 5 -49 3 -81 -6 -107 -10 -29 -10 -37 0 -40 6 -3 10 -9 6 -14 -4
-7 -14 -167 -15 -249 -1 -8 -5 -28 -11 -43 -8 -20 -8 -39 1 -67 9 -31 9 -44
-1 -60 -11 -17 -11 -22 1 -30 12 -7 13 -13 3 -35 -16 -34 -15 -62 1 -68 9 -3
8 -11 -5 -33 -12 -21 -14 -34 -7 -47 6 -9 6 -17 2 -17 -4 0 -2 -4 5 -8 10 -7
10 -15 2 -37 -6 -16 -9 -62 -6 -105 2 -42 0 -83 -4 -90 -5 -8 -4 -22 2 -34 8
-15 8 -21 -1 -24 -6 -2 -8 -8 -5 -13 3 -6 1 -16 -5 -23 -8 -10 -8 -16 3 -25
11 -9 11 -20 0 -69 -7 -31 -15 -106 -18 -167 -3 -60 -8 -134 -12 -162 -4 -36
-3 -58 6 -68 6 -8 9 -18 6 -23 -3 -5 -6 -46 -7 -92 -1 -59 2 -85 12 -90 10 -7
10 -14 1 -35 -9 -20 -10 -31 -2 -40 7 -9 8 -21 3 -32 -9 -18 -9 -133 1 -258 3
-38 8 -132 11 -207 2 -75 5 -141 6 -145 1 -4 0 -12 -1 -18 -3 -14 1 -191 6
-245 2 -25 5 -81 7 -125 2 -44 7 -87 10 -95 11 -25 14 -160 5 -166 -5 -3 -5
-11 0 -17 10 -12 21 -132 28 -292 2 -49 4 -92 5 -95 1 -3 0 -31 -1 -62 -1 -46
1 -58 13 -58 12 0 13 -7 7 -34 -5 -24 -4 -36 5 -39 8 -4 10 -23 7 -61 -3 -39
-1 -56 7 -56 8 0 9 -5 3 -16 -5 -9 -6 -35 -2 -58 4 -22 9 -75 10 -116 4 -110
6 -136 12 -146 4 -5 2 -29 -2 -54 -5 -25 -7 -101 -5 -170 2 -69 0 -129 -4
-135 -9 -15 -7 -525 2 -528 5 -1 4 -28 -2 -59 -6 -32 -8 -139 -6 -245 6 -329
6 -443 0 -452 -3 -5 -1 -12 4 -16 11 -6 6 -369 -5 -386 -3 -5 0 -17 7 -25 14
-17 15 -63 19 -494 1 -129 -2 -243 -5 -253 -4 -9 -2 -24 5 -32 8 -10 11 -31 6
-61 -6 -50 10 -182 26 -201 5 -7 8 -22 7 -35 -2 -13 0 -28 3 -34 4 -5 10 -127
13 -270 4 -142 11 -264 16 -270 5 -6 7 -13 4 -15 -2 -3 -7 -85 -10 -184 -3
-99 -7 -222 -9 -273 -3 -73 -1 -95 10 -99 11 -4 11 -11 -2 -41 -12 -27 -16
-69 -15 -159 1 -77 -3 -123 -9 -123 -6 0 -8 -10 -5 -23 9 -34 9 -524 1 -758
-5 -150 -4 -209 4 -214 7 -4 7 -11 2 -18 -12 -16 -35 -195 -29 -227 2 -14 1
-52 -4 -85 -5 -35 -4 -64 1 -71 6 -6 8 -13 5 -16 -11 -10 -16 -143 -20 -448
-2 -173 -6 -367 -9 -430 -6 -111 -7 -133 -5 -202 1 -18 -4 -67 -9 -108 -7 -49
-8 -88 -1 -112 5 -21 7 -59 4 -85 -3 -26 -4 -73 -3 -103 1 -30 2 -84 2 -120 1
-36 4 -69 8 -75 3 -5 6 -58 6 -116 0 -62 5 -120 12 -141 11 -29 11 -53 2 -120
-10 -73 -17 -302 -14 -443 2 -58 -26 -193 -44 -215 -7 -8 -14 -17 -16 -20 -1
-3 5 -16 15 -30 9 -13 17 -37 17 -51 0 -22 6 -29 29 -34 20 -4 31 -13 33 -28
2 -17 14 -25 48 -33 48 -12 75 -4 110 35 11 11 36 17 90 20 41 2 81 8 88 14 9
7 16 7 24 -1 8 -8 16 -7 28 0 14 9 29 7 62 -5 55 -21 75 -21 96 -1 12 13 27
15 66 10 27 -3 54 -2 60 3 6 5 40 5 76 -1 36 -5 82 -7 102 -5 21 3 40 2 42 -2
6 -10 224 -12 230 -2 6 9 96 7 231 -4 44 -3 107 -8 140 -10 73 -5 123 -13 150
-25 18 -8 72 -13 220 -21 28 -1 129 -2 225 0 180 2 333 -3 348 -12 4 -3 59 -9
122 -12 63 -4 122 -11 130 -15 13 -6 130 -14 180 -12 54 2 274 44 319 61 30
11 57 19 59 16 3 -2 12 0 21 4 9 5 43 12 76 16 33 3 62 9 65 13 3 4 14 8 25 9
11 2 63 9 115 17 136 21 266 29 410 27 335 -4 674 -3 755 4 50 5 97 8 105 8
63 -1 291 -16 362 -24 48 -6 91 -8 96 -5 7 4 58 6 167 6 11 0 93 0 183 0 89 0
166 -1 171 -4 4 -3 36 -1 72 4 51 8 66 7 74 -4 8 -10 16 -11 28 -5 9 6 92 12
185 15 92 3 187 9 212 13 25 4 65 7 90 5 113 -7 324 -9 420 -4 58 3 112 3 120
-1 22 -10 447 -22 462 -13 7 5 36 10 63 12 28 2 55 8 62 13 6 6 28 7 47 3 30
-5 36 -3 36 11 0 11 5 15 14 12 8 -3 17 -3 20 0 3 4 16 8 29 9 12 1 65 7 117
13 52 7 145 14 205 17 61 3 144 7 185 9 41 2 174 6 295 9 267 6 445 15 456 22
10 6 61 6 614 -2 553 -8 820 -7 990 0 77 4 179 8 226 10 47 1 90 5 95 8 5 4
45 3 89 0 44 -4 98 -4 120 0 37 6 119 5 475 -7 245 -9 606 -17 635 -15 17 1
37 2 45 1 14 0 128 1 175 2 11 0 52 -2 90 -6 39 -3 117 -9 175 -12 181 -9 253
-13 322 -19 40 -4 69 -2 73 4 3 6 16 8 28 5 47 -10 332 -13 384 -4 30 6 62 7
71 4 27 -10 128 -14 467 -19 302 -4 327 -3 450 19 72 13 151 23 175 23 25 0
53 3 63 7 9 4 37 4 62 1 27 -5 45 -3 45 3 0 15 226 -4 236 -20 3 -5 26 -9 52
-9 26 0 61 -4 77 -8 18 -5 71 -4 130 3 89 10 233 13 260 6 6 -2 26 -3 46 -2
32 1 42 8 77 54 48 64 52 81 28 126 -18 33 -18 35 3 76 24 48 27 93 8 101 -10
3 -12 18 -6 57 4 34 3 59 -5 72 -20 34 -39 102 -31 114 4 7 1 18 -5 26 -10 12
-10 18 0 29 8 11 12 80 13 230 1 119 6 216 10 216 5 0 6 4 2 9 -3 6 -8 117
-11 248 -6 285 -6 280 1 368 3 39 7 120 9 180 5 154 13 252 20 264 3 5 -2 17
-11 27 -16 15 -18 37 -17 153 0 75 1 147 2 161 1 14 1 43 1 65 0 73 10 289 17
346 3 30 1 89 -6 130 -6 40 -13 166 -16 279 -2 113 -6 223 -9 245 -15 118 -33
485 -24 485 4 0 10 33 13 73 3 39 8 88 10 107 2 19 7 77 11 129 3 51 10 103
14 114 4 11 4 40 -1 63 -6 26 -5 63 0 95 6 29 7 62 3 73 -4 12 -6 48 -4 81 1
32 -2 62 -8 65 -11 7 -14 545 -4 610 3 19 8 123 11 230 3 107 9 238 14 290 4
52 6 104 4 115 -9 41 -6 244 5 335 30 270 46 658 27 689 -4 6 -9 30 -11 53 -3
24 -10 95 -16 158 -6 63 -13 327 -16 585 -2 259 -6 488 -8 510 -2 22 -6 85 -9
140 -3 55 -12 143 -21 195 -16 93 -28 226 -27 285 1 74 13 251 18 265 6 15 12
85 18 200 3 63 12 144 21 205 5 33 18 346 17 410 0 22 -5 60 -10 85 -6 27 -7
51 -1 61 5 10 5 47 0 90 -5 40 -6 80 -2 88 10 23 7 133 -4 151 -5 8 -8 65 -6
125 5 135 6 323 3 390 -1 28 -2 59 -1 70 1 38 -10 120 -25 184 -9 37 -13 83
-9 108 3 26 1 48 -6 57 -8 10 -13 112 -17 337 -8 488 -5 596 23 804 4 33 8
103 8 155 0 64 4 99 13 109 7 7 12 23 11 35 -1 11 1 29 6 39 4 9 5 27 2 39 -4
12 -2 27 2 32 5 6 6 31 2 56 -4 29 -2 54 6 71 10 20 11 34 3 55 -8 21 -7 36 5
66 8 22 15 69 15 108 0 38 4 72 10 75 5 3 9 16 9 28 0 12 2 74 6 137 6 94 9
514 5 570 -1 8 1 73 4 143 2 76 0 141 -6 160 -6 18 -12 146 -13 292 -2 143 -8
314 -13 380 -5 66 -7 145 -5 176 5 55 5 57 -23 66 l-29 10 28 6 c15 4 27 15
28 25 5 76 5 123 -1 127 -4 3 -6 67 -5 142 2 81 -1 140 -7 144 -9 6 -13 174
-8 461 2 175 -2 202 -31 193 -15 -5 -19 -1 -19 19 0 28 9 33 28 14 18 -18 20
-8 12 51 -8 66 -4 167 9 218 10 39 15 140 28 538 12 340 4 476 -31 557 -10 23
-13 49 -9 68 5 29 -15 121 -38 175 -5 11 -11 51 -14 89 -6 78 -9 84 -29 67
-26 -22 -29 7 -3 31 30 29 39 65 27 108 -7 25 -6 36 3 42 12 7 14 105 6 278
-2 36 0 75 5 87 6 19 3 23 -20 29 -16 4 -47 8 -71 8 -24 1 -43 4 -43 9 0 4 -9
7 -20 7 -13 0 -20 -7 -20 -19 0 -40 -62 -61 -227 -75 -17 -1 -38 -8 -46 -14
-8 -7 -65 -14 -138 -17 -67 -3 -131 -7 -141 -11 -10 -3 -18 -1 -18 5 0 11
-121 5 -189 -10 -30 -7 -47 -6 -57 2 -7 6 -18 8 -24 4 -6 -4 -17 -1 -25 5 -10
8 -24 9 -42 4 -29 -8 -52 -10 -158 -12 -74 -1 -107 -2 -142 -3 -16 -1 -62 2
-105 5 -69 7 -77 6 -81 -11 -4 -14 -5 -14 -6 5 -1 17 -7 22 -29 22 -15 0 -32
4 -38 9 -14 13 -83 21 -90 10 -3 -6 -11 -6 -17 -2 -7 5 -25 10 -42 12 -16 2
-35 7 -42 12 -7 7 -14 6 -18 0 -3 -7 -30 -9 -68 -5 -114 9 -391 22 -460 20
-37 0 -67 2 -67 7 0 10 -78 9 -84 -2 -3 -4 -17 -6 -31 -3 -21 4 -24 2 -18 -14
5 -15 4 -17 -8 -8 -9 7 -86 12 -219 13 -113 2 -206 4 -208 6 -6 5 32 120 40
123 5 2 8 16 8 30 0 39 38 164 52 173 7 4 10 11 6 14 -3 4 -2 21 3 38 7 25 6
33 -9 41 -15 9 -14 11 8 16 20 5 27 15 35 50 6 25 18 63 28 84 9 21 16 44 16
50 -3 14 7 40 38 102 17 35 23 59 18 74 -6 19 -4 21 15 15 19 -6 21 -4 15 13
-3 13 2 38 15 63 11 24 18 51 15 60 -3 10 1 19 10 23 9 3 15 18 15 35 0 16 5
31 11 33 5 2 12 15 13 28 3 24 13 60 43 147 8 24 12 52 8 63 -3 11 -2 20 3 20
12 0 29 42 38 93 5 30 9 35 20 26 11 -9 14 -8 14 4 0 8 4 17 10 19 5 2 14 25
19 52 5 27 13 51 19 55 6 3 24 46 41 96 17 49 35 91 41 93 5 2 7 15 4 29 -5
18 -3 24 5 19 10 -7 15 13 14 67 0 9 4 17 9 17 4 0 17 9 29 21 l21 21 22 -21
c16 -15 25 -18 33 -10 8 8 17 8 31 0 28 -15 35 -14 29 3 -4 10 -1 13 9 9 7 -3
14 -12 14 -20 0 -11 6 -8 21 8 l21 24 -5 -23 c-4 -19 -2 -22 14 -17 20 7 62
13 92 14 11 1 17 9 17 24 0 20 5 23 30 21 24 -2 30 2 30 17 0 17 5 19 34 14
20 -4 36 -2 41 4 3 6 11 9 16 6 5 -4 12 1 15 9 3 9 15 16 25 16 24 0 89 65 89
89 0 10 7 21 15 25 8 3 15 12 15 19 0 8 7 20 15 27 8 7 15 20 15 30 0 9 7 32
16 50 26 51 35 100 18 100 -21 0 -17 20 8 47 17 18 19 26 10 35 -7 7 -12 21
-12 33 0 11 -7 29 -15 39 -8 10 -12 23 -9 27 2 5 7 31 10 59 3 37 1 50 -8 50
-17 0 -40 37 -28 45 10 6 -14 70 -27 70 -4 0 -14 4 -22 9 -20 13 -152 46 -183
46 -16 0 -28 5 -28 10 0 6 -13 10 -28 10 -16 0 -53 7 -83 16 -70 22 -196 22
-235 1 -16 -9 -40 -18 -54 -21 -14 -3 -40 -19 -58 -36 -27 -24 -42 -30 -80
-31 -26 0 -59 -8 -73 -17 -118 -77 -177 -130 -202 -184 -10 -20 -21 -40 -26
-43 -15 -8 2 -115 28 -180 5 -11 14 -33 20 -48 9 -22 16 -27 31 -22 16 5 20 2
20 -18 0 -28 33 -100 43 -92 4 3 5 2 2 -1 -8 -12 29 -65 42 -60 7 3 14 -7 18
-24 4 -17 20 -39 36 -51 37 -26 37 -39 1 -39 -22 0 -31 -7 -45 -37 -16 -35
-15 -39 1 -68 20 -33 14 -83 -13 -105 -8 -7 -15 -25 -15 -41 0 -16 -4 -29 -10
-29 -5 0 -10 -11 -10 -24 0 -14 -4 -28 -10 -31 -5 -3 -10 -16 -10 -29 0 -13
-9 -31 -19 -40 -25 -23 -54 -82 -58 -120 -2 -16 -8 -35 -14 -42 -6 -7 -8 -18
-5 -23 4 -5 2 -12 -3 -15 -14 -9 -42 -112 -35 -130 3 -8 -3 -25 -14 -36 -21
-22 -36 -71 -33 -106 1 -11 -5 -27 -13 -34 -23 -18 -20 -50 4 -50 12 0 20 -7
20 -16 0 -9 -6 -14 -13 -11 -24 9 -40 -8 -32 -34 9 -27 7 -35 -7 -31 -14 4
-38 -24 -38 -45 0 -10 -9 -29 -20 -43 -11 -14 -20 -36 -20 -49 0 -13 -14 -50
-31 -82 -18 -33 -29 -62 -26 -65 3 -3 -1 -24 -9 -46 -8 -22 -14 -51 -14 -63 0
-13 -7 -26 -16 -29 -21 -8 -7 -28 16 -21 13 4 19 -1 23 -22 7 -36 2 -40 -19
-14 -17 19 -19 19 -36 4 -20 -18 -24 -39 -8 -45 7 -2 1 -22 -13 -48 -13 -25
-22 -51 -19 -58 2 -7 -4 -22 -14 -33 -16 -17 -16 -22 -4 -30 11 -8 12 -12 3
-16 -7 -2 -13 -18 -13 -34 0 -17 -11 -47 -25 -67 -14 -20 -25 -48 -25 -62 0
-14 -7 -35 -15 -46 -8 -12 -13 -23 -10 -25 3 -4 -104 -2 -115 1 -14 5 -76 -3
-83 -10 -5 -4 -25 -3 -44 2 -26 7 -38 6 -43 -2 -6 -9 -13 -9 -28 -1 -11 6 -29
11 -40 11 -11 0 -31 9 -45 20 -22 17 -26 18 -37 5 -11 -13 -14 -13 -25 1 -7
10 -17 14 -24 10 -6 -4 -17 -3 -24 3 -15 12 -244 24 -251 12 -3 -4 -54 -8
-113 -9 -59 -1 -128 -6 -153 -13 -25 -6 -65 -13 -90 -16 -24 -3 -50 -13 -57
-22 -10 -13 -15 -14 -32 -3 -25 15 -34 15 -26 2 13 -21 -39 -11 -110 22 -11 5
-48 10 -81 12 -34 2 -66 6 -73 10 -6 4 -24 5 -39 1 -15 -3 -50 -6 -77 -7 -28
0 -60 -4 -73 -9 -15 -6 -31 -5 -44 2 -17 9 -24 8 -32 -2 -7 -9 -29 -14 -59
-13 -39 1 -52 -4 -67 -23 -22 -28 -34 -30 -25 -3 5 15 2 20 -12 21 -10 1 -47
2 -83 4 -36 1 -96 8 -135 14 -38 6 -122 18 -185 25 -63 8 -128 17 -145 21 -31
7 -297 10 -445 6 -47 -2 -98 0 -113 4 -18 5 -38 3 -53 -6 -20 -10 -27 -10 -33
-1 -4 6 -47 16 -97 22 -96 11 -311 30 -322 29 -4 -1 -9 -1 -12 0 -3 1 -77 4
-165 7 -146 4 -193 5 -265 3 -14 -1 -79 4 -145 10 -66 7 -140 13 -165 15 -25
1 -66 6 -91 10 -38 6 -48 4 -53 -9 -3 -10 -13 -14 -23 -11 -30 9 -120 8 -488
-9 -116 -5 -329 -12 -583 -20 -98 -3 -161 -1 -173 6 -15 7 -24 7 -34 -1 -14
-11 -106 -10 -115 1 -3 4 -28 3 -56 -1 -50 -8 -180 -5 -241 5 -17 3 -34 1 -38
-5 -4 -6 -12 -7 -24 -1 -21 12 -400 9 -419 -3 -17 -10 -294 -12 -310 -2 -7 4
-12 2 -12 -4 0 -8 -9 -10 -25 -6 -14 4 -59 8 -101 11 -41 2 -79 7 -84 10 -4 3
-55 7 -111 11 -57 3 -111 8 -119 11 -8 3 -28 7 -45 9 -66 7 -111 17 -124 28
-9 7 -15 7 -18 1 -4 -13 -218 -8 -244 6 -14 7 -24 7 -33 0 -8 -7 -50 -7 -126
-1 -63 6 -128 10 -143 10 -16 0 -33 3 -39 6 -6 4 -79 8 -162 9 -83 1 -158 5
-166 8 -13 5 -245 3 -245 -2 0 -1 -34 -3 -75 -5 -41 -2 -88 -8 -105 -14 -32
-12 -287 -34 -369 -33 -27 1 -54 -3 -61 -9 -7 -5 -32 -10 -56 -9 -95 1 -154
-3 -159 -10 -8 -11 -50 -11 -50 1 0 7 -14 8 -38 4 -22 -3 -42 -3 -45 0 -11 11
-102 11 -109 0 -6 -8 -11 -7 -17 2 -5 8 -30 14 -62 16 l-54 2 3 64 c2 36 8 73
13 82 5 9 9 34 9 56 0 23 6 45 15 52 19 16 20 44 1 37 -11 -4 -12 2 -4 36 6
23 10 49 9 57 0 8 -1 33 0 55 2 93 2 114 -1 185 -3 91 -7 110 -25 110 -8 0
-17 5 -21 11 -4 7 4 10 22 7 31 -3 33 2 34 97 0 22 6 59 12 83 9 36 8 45 -6
61 -15 16 -15 18 6 17 17 -1 23 5 23 21 0 12 4 25 8 29 11 11 8 92 -3 99 -6 4
-1 14 12 25 19 15 20 20 9 34 -10 12 -11 19 -2 30 6 8 11 18 9 22 -3 15 14 98
22 109 5 6 10 29 12 52 3 23 9 47 15 55 5 7 10 39 10 71 1 82 11 127 28 127
18 0 20 17 3 23 -10 4 -10 7 0 18 6 7 12 28 12 45 0 18 5 36 11 40 6 3 8 17 5
29 -3 13 -1 25 4 27 5 2 12 30 14 63 2 33 4 60 5 60 1 0 3 27 6 59 2 33 9 62
16 67 9 5 13 25 11 56 l-2 48 36 3 c20 1 43 -3 50 -9 14 -11 35 -10 134 7 19
3 40 10 47 15 7 6 12 6 15 0 4 -13 97 31 156 73 24 17 53 31 65 31 15 0 25 9
32 30 6 17 22 48 38 70 15 22 27 47 27 56 0 13 6 16 22 11 17 -4 20 -2 15 12
-4 10 0 30 8 45 8 16 11 31 8 35 -4 3 3 17 15 29 30 32 44 177 20 205 -9 9
-18 34 -22 55 -5 25 -17 44 -36 59 -17 12 -30 28 -30 35 0 7 -4 13 -10 13 -5
0 -7 6 -4 14 3 8 1 17 -5 21 -6 3 -11 13 -11 21 0 15 -86 125 -102 132 -5 2
-8 10 -8 18 0 8 -7 17 -15 20 -8 4 -15 10 -15 15 0 14 -52 69 -64 69 -20 0
-87 77 -81 93 5 11 -7 19 -41 31 -61 21 -71 20 -119 -5z m-255 -184 c0 -8 -9
-15 -20 -15 -11 0 -20 7 -20 15 0 8 9 15 20 15 11 0 20 -7 20 -15z m418 -26
c-2 -6 -8 -10 -13 -10 -5 0 -11 4 -13 10 -2 6 4 11 13 11 9 0 15 -5 13 -11z
m-172 -14 c10 -8 34 -15 52 -15 17 0 32 -4 32 -9 0 -5 8 -12 18 -15 46 -16
162 -158 162 -199 0 -10 9 -28 21 -40 12 -13 19 -31 16 -43 -2 -13 3 -27 14
-35 9 -7 20 -27 24 -46 3 -18 10 -33 15 -33 15 0 12 -17 -5 -34 -8 -8 -12 -22
-9 -30 4 -10 -4 -26 -20 -43 -14 -14 -26 -33 -26 -41 0 -25 -50 -102 -66 -102
-18 0 -75 -37 -86 -56 -5 -8 -22 -10 -46 -7 -23 3 -53 -1 -77 -11 -25 -11 -41
-13 -43 -6 -2 5 -14 10 -26 10 -12 0 -30 6 -41 14 -11 7 -36 16 -56 20 -52 9
-119 44 -119 61 0 8 -5 15 -11 15 -6 0 -22 14 -36 30 -13 17 -31 30 -38 30 -8
0 -16 9 -20 19 -3 11 -17 27 -31 36 -20 13 -24 22 -20 41 4 14 0 37 -9 54 -8
16 -15 43 -15 60 0 17 -5 30 -12 30 -8 0 -9 3 -3 8 6 4 17 16 25 26 14 18 13
18 -8 12 -18 -6 -22 -4 -22 13 0 11 6 26 13 33 6 7 17 27 22 43 8 23 16 29 34
27 19 -3 22 0 16 17 -4 15 -1 23 10 27 9 4 21 17 26 30 4 13 15 24 22 24 8 0
20 11 27 25 10 18 24 26 59 31 25 3 60 12 76 19 62 28 132 32 161 10z m204
-65 c0 -5 -5 -10 -11 -10 -5 0 -7 5 -4 10 3 6 8 10 11 10 2 0 4 -4 4 -10z
m167 -66 c-3 -3 -12 -4 -19 -1 -8 3 -5 6 6 6 11 1 17 -2 13 -5z m43 -464 c0
-5 -12 -10 -26 -10 -14 0 -23 4 -19 10 3 6 15 10 26 10 10 0 19 -4 19 -10z
m10175 -9 c3 -5 1 -12 -5 -16 -5 -3 -10 1 -10 9 0 18 6 21 15 7z m39 -30 c7
-10 -33 -23 -47 -14 -10 6 11 23 30 23 6 0 14 -4 17 -9z m-331 -15 c4 -10 1
-13 -9 -9 -15 6 -19 23 -5 23 5 0 11 -7 14 -14z m487 9 c0 -2 -9 -9 -20 -15
-16 -9 -20 -8 -20 5 0 8 9 15 20 15 11 0 20 -2 20 -5z m-78 -20 c-1 -5 -10
-10 -20 -11 -62 -4 -76 -6 -57 -11 11 -3 25 -9 31 -14 19 -16 72 -17 78 -3 4
9 21 14 48 13 24 0 37 -3 29 -6 -9 -4 0 -17 29 -44 23 -22 47 -39 52 -39 5 0
7 -9 3 -20 -3 -10 -1 -29 5 -41 16 -28 16 -126 1 -162 -6 -16 -9 -32 -6 -37 7
-11 -23 -80 -35 -80 -6 0 -10 -7 -10 -15 0 -8 -4 -15 -9 -15 -5 0 -11 -11 -15
-23 -3 -15 -20 -30 -46 -42 -41 -18 -66 -47 -56 -64 9 -13 -25 -23 -39 -11
-12 10 -55 0 -108 -26 -28 -14 -29 -13 -40 15 -9 25 -18 30 -56 36 -24 4 -55
13 -67 22 -13 8 -29 11 -35 7 -7 -4 -9 -3 -6 3 4 6 -12 16 -39 23 -24 7 -49
21 -55 31 -15 30 -90 100 -99 94 -5 -3 -7 5 -5 17 4 25 -46 90 -66 86 -6 -2
-14 3 -16 10 -3 6 2 12 11 12 16 0 20 14 16 58 -1 16 5 25 19 29 16 4 20 11
15 25 -4 14 -3 18 6 13 6 -4 23 3 38 17 15 13 52 32 82 43 30 10 68 29 83 42
16 12 37 23 48 23 10 0 19 4 19 10 0 5 -7 7 -15 4 -8 -4 -15 -1 -15 5 0 15 37
14 42 -1 4 -10 10 -10 32 0 33 15 63 16 68 2 2 -7 15 -5 35 5 18 9 42 18 54
20 12 2 24 7 27 10 10 9 47 1 44 -10z m-452 -5 c0 -5 -9 -10 -21 -10 -11 0
-17 5 -14 10 3 6 13 10 21 10 8 0 14 -4 14 -10z m590 0 c0 -5 -4 -10 -9 -10
-6 0 -13 5 -16 10 -3 6 1 10 9 10 9 0 16 -4 16 -10z m185 -41 c-4 -5 -16 -9
-28 -9 -21 1 -21 1 -3 15 20 15 41 11 31 -6z m-10647 -84 c-8 -8 -58 5 -58 15
0 15 35 17 49 4 8 -8 12 -16 9 -19z m9826 26 c3 -5 -1 -11 -9 -15 -9 -3 -15 0
-15 9 0 16 16 20 24 6z m-9874 -43 c0 -17 -28 -7 -33 11 -4 17 -2 18 14 8 10
-6 19 -15 19 -19z m-470 -38 c0 -5 -7 -10 -16 -10 -8 0 -12 5 -9 10 3 6 10 10
16 10 5 0 9 -4 9 -10z m344 -6 c13 -5 14 -9 5 -20 -15 -18 -39 -18 -39 -1 0
12 9 27 16 27 1 0 10 -3 18 -6z m116 -4 c0 -5 -7 -10 -16 -10 -8 0 -12 5 -9
10 3 6 10 10 16 10 5 0 9 -4 9 -10z m-500 -60 c0 -5 -7 -10 -16 -10 -8 0 -12
5 -9 10 3 6 10 10 16 10 5 0 9 -4 9 -10z m135 0 c3 -5 -1 -10 -10 -10 -9 0
-13 5 -10 10 3 6 8 10 10 10 2 0 7 -4 10 -10z m178 -14 c3 -8 0 -17 -8 -19
-17 -7 -25 1 -18 19 7 18 19 18 26 0z m57 -6 c0 -5 -5 -10 -11 -10 -5 0 -7 5
-4 10 3 6 8 10 11 10 2 0 4 -4 4 -10z m-438 -22 c-6 -6 -15 -8 -19 -4 -4 4 -1
11 7 16 19 12 27 3 12 -12z m10345 -140 c-3 -8 -6 -5 -6 6 -1 11 2 17 5 13 3
-3 4 -12 1 -19z m-10272 2 c-3 -5 -13 -10 -21 -10 -8 0 -14 5 -14 10 0 6 9 10
21 10 11 0 17 -4 14 -10z m11200 -20 c20 -9 7 -15 -22 -11 -8 1 -10 -5 -6 -16
7 -17 6 -17 -11 -1 -29 30 -5 47 39 28z m-11205 -40 c0 -5 -13 -10 -30 -10
-16 0 -30 5 -30 10 0 6 14 10 30 10 17 0 30 -4 30 -10z m-80 -4 c0 -2 -7 -6
-15 -10 -8 -3 -15 -1 -15 4 0 6 7 10 15 10 8 0 15 -2 15 -4z m11150 -26 c-8
-5 -17 -7 -19 -4 -3 3 1 9 9 14 8 5 17 7 19 4 3 -3 -1 -9 -9 -14z m-11100 -20
c0 -5 -6 -10 -14 -10 -8 0 -18 5 -21 10 -3 6 3 10 14 10 12 0 21 -4 21 -10z
m11137 -62 c-3 -8 -6 -5 -6 6 -1 11 2 17 5 13 3 -3 4 -12 1 -19z m-37 -33 c0
-14 -6 -25 -13 -25 -8 0 -28 -7 -46 -16 -17 -9 -39 -13 -47 -10 -10 4 -18 -1
-21 -14 -6 -22 -28 -27 -37 -7 -3 8 -9 6 -20 -7 -9 -11 -16 -17 -16 -14 0 4
-3 13 -6 22 -4 11 0 16 13 16 11 0 28 9 38 20 13 14 22 17 35 10 14 -7 19 -5
23 10 4 16 11 19 36 14 23 -5 32 -2 37 10 9 24 24 19 24 -9z m-365 -5 c-3 -5
-10 -10 -16 -10 -5 0 -9 5 -9 10 0 6 7 10 16 10 8 0 12 -4 9 -10z m-10811 -40
c-10 -4 -21 -6 -24 -3 -8 7 24 22 34 16 5 -4 1 -10 -10 -13z m10892 -26 c-3
-9 -6 -18 -6 -20 0 -3 -4 -3 -10 1 -11 7 -2 35 12 35 6 0 7 -7 4 -16z m-10826
-14 c0 -5 -7 -10 -16 -10 -8 0 -12 5 -9 10 3 6 10 10 16 10 5 0 9 -4 9 -10z
m10560 -45 c0 -8 -4 -15 -10 -15 -5 0 -7 7 -4 15 4 8 8 15 10 15 2 0 4 -7 4
-15z m-112 -16 c-2 -6 -8 -10 -13 -10 -5 0 -11 4 -13 10 -2 6 4 11 13 11 9 0
15 -5 13 -11z m412 1 c0 -5 -7 -7 -15 -4 -8 4 -15 8 -15 10 0 2 7 4 15 4 8 0
15 -4 15 -10z m-10896 -25 c-4 -9 -19 -15 -37 -15 -44 0 -19 20 35 29 4 0 5
-6 2 -14z m-44 -71 c0 -2 -7 -4 -15 -4 -8 0 -15 4 -15 10 0 5 7 7 15 4 8 -4
15 -8 15 -10z m10530 -3 c0 -6 -4 -13 -10 -16 -5 -3 -10 1 -10 9 0 9 5 16 10
16 6 0 10 -4 10 -9z m35 -1 c3 -5 -1 -10 -10 -10 -9 0 -13 5 -10 10 3 6 8 10
10 10 2 0 7 -4 10 -10z m-2 -32 c2 -7 -10 -21 -27 -31 -17 -10 -23 -16 -13
-13 12 4 17 0 17 -14 0 -20 -15 -25 -44 -14 -24 9 -19 32 12 59 30 27 48 31
55 13z m-10538 -78 c4 -6 -5 -10 -19 -10 -14 0 -26 5 -26 10 0 6 9 10 19 10
11 0 23 -4 26 -10z m10500 -20 c4 -6 -5 -10 -19 -10 -14 0 -26 5 -26 10 0 6 9
10 19 10 11 0 23 -4 26 -10z m-105 -10 c0 -5 -4 -10 -10 -10 -5 0 -10 5 -10
10 0 6 5 10 10 10 6 0 10 -4 10 -10z m-10430 -35 c-7 -8 -17 -15 -23 -15 -6 0
-2 7 9 15 25 19 30 19 14 0z m10501 -48 c-13 -13 -26 -3 -16 12 3 6 11 8 17 5
6 -4 6 -10 -1 -17z m-67 -39 c-3 -4 -9 -8 -15 -8 -5 0 -9 4 -9 8 0 5 7 9 15 9
8 0 12 -4 9 -9z m-10474 -8 c0 -5 -7 -10 -15 -10 -8 0 -15 5 -15 10 0 6 7 10
15 10 8 0 15 -4 15 -10z m10 -80 c12 -8 11 -10 -7 -10 -12 0 -25 5 -28 10 -8
13 15 13 35 0z m10460 -29 c0 -11 -39 -25 -47 -18 -3 3 -2 10 2 16 8 13 45 15
45 2z m-10460 -31 c0 -5 -4 -10 -10 -10 -5 0 -10 5 -10 10 0 6 5 10 10 10 6 0
10 -4 10 -10z m10420 -11 c0 -5 -7 -9 -15 -9 -8 0 -15 -6 -15 -13 0 -8 -9 -22
-20 -32 -11 -10 -20 -13 -20 -7 0 7 5 12 11 12 6 0 10 12 9 28 -1 15 -2 30 -1
33 2 10 51 -2 51 -12z m-10415 -41 c-19 -11 -30 -5 -21 11 4 6 14 7 22 4 15
-5 14 -7 -1 -15z m-40 -8 c-3 -5 -11 -10 -16 -10 -6 0 -7 5 -4 10 3 6 11 10
16 10 6 0 7 -4 4 -10z m10382 -125 c-4 -8 -11 -15 -17 -15 -14 0 -13 27 3 33
16 6 21 1 14 -18z m-42 -4 c3 -5 1 -12 -5 -16 -5 -3 -10 1 -10 9 0 18 6 21 15
7z m-10355 -11 c0 -5 -7 -10 -15 -10 -8 0 -15 5 -15 10 0 6 7 10 15 10 8 0 15
-4 15 -10z m10470 -10 c0 -5 -2 -10 -4 -10 -3 0 -8 5 -11 10 -3 6 -1 10 4 10
6 0 11 -4 11 -10z m-10517 -37 c-7 -2 -19 -2 -25 0 -7 3 -2 5 12 5 14 0 19 -2
13 -5z m10387 -39 c0 -8 -4 -12 -10 -9 -5 3 -10 10 -10 16 0 5 5 9 10 9 6 0
10 -7 10 -16z m40 6 c0 -5 -4 -10 -10 -10 -5 0 -10 5 -10 10 0 6 5 10 10 10 6
0 10 -4 10 -10z m-36 -109 c3 -5 0 -11 -8 -14 -15 -6 -26 1 -26 15 0 11 27 10
34 -1z m-10449 -31 c-3 -5 -13 -10 -21 -10 -8 0 -12 5 -9 10 3 6 13 10 21 10
8 0 12 -4 9 -10z m10435 -30 c0 -5 -7 -10 -15 -10 -8 0 -15 -7 -15 -15 0 -17
-16 -20 -25 -4 -8 11 22 38 43 39 6 0 12 -4 12 -10z m13 -40 c-5 -19 -23 -29
-23 -12 0 7 20 32 26 32 1 0 0 -9 -3 -20z m-10373 -70 c0 -5 -11 -10 -25 -10
-14 0 -25 5 -25 10 0 6 11 10 25 10 14 0 25 -4 25 -10z m10260 6 c0 -2 -7 -9
-15 -16 -12 -10 -15 -10 -15 4 0 9 7 16 15 16 8 0 15 -2 15 -4z m40 -26 c0 -5
-7 -10 -15 -10 -8 0 -15 5 -15 10 0 6 7 10 15 10 8 0 15 -4 15 -10z m-46 -62
c3 -13 1 -27 -3 -31 -11 -11 -35 29 -26 43 10 17 22 11 29 -12z m-10266 -76
c2 -7 -3 -12 -12 -12 -9 0 -16 7 -16 16 0 17 22 14 28 -4z m-13 -102 c4 -6 -7
-10 -24 -10 -17 0 -31 5 -31 10 0 6 11 10 24 10 14 0 28 -4 31 -10z m-65 -284
c0 -3 -4 -8 -10 -11 -5 -3 -10 -1 -10 4 0 6 5 11 10 11 6 0 10 -2 10 -4z m20
-46 c0 -5 -4 -10 -10 -10 -5 0 -10 5 -10 10 0 6 5 10 10 10 6 0 10 -4 10 -10z
m-1680 -60 c0 -5 -7 -10 -15 -10 -8 0 -15 5 -15 10 0 6 7 10 15 10 8 0 15 -4
15 -10z m1656 -25 c-21 -16 -32 -13 -21 4 3 6 14 11 23 11 15 -1 15 -2 -2 -15z
m1074 -15 c0 -5 -5 -10 -11 -10 -5 0 -7 5 -4 10 3 6 8 10 11 10 2 0 4 -4 4
-10z m9080 -10 c0 -5 -4 -10 -10 -10 -5 0 -10 5 -10 10 0 6 5 10 10 10 6 0 10
-4 10 -10z m-12400 -10 c0 -5 7 -10 16 -10 8 0 12 -4 9 -10 -10 -17 -34 -11
-45 10 -9 16 -8 20 5 20 8 0 15 -4 15 -10z m144 -5 c3 -9 0 -15 -9 -15 -16 0
-27 14 -18 24 10 10 21 7 27 -9z m196 5 c0 -5 8 -10 19 -10 10 0 24 -7 31 -15
10 -12 5 -12 -34 1 -45 15 -62 34 -31 34 8 0 15 -4 15 -10z m82 -12 c-7 -7
-12 -8 -12 -2 0 14 12 26 19 19 2 -3 -1 -11 -7 -17z m-706 -8 c0 -22 -13 -25
-36 -10 -13 9 -13 11 0 20 23 15 36 12 36 -10z m351 14 c-3 -3 -12 -4 -19 -1
-8 3 -5 6 6 6 11 1 17 -2 13 -5z m143 -4 c0 -5 -9 -10 -19 -10 -11 0 -23 5
-26 10 -4 6 5 10 19 10 14 0 26 -4 26 -10z m630 0 c0 -5 -4 -10 -10 -10 -5 0
-10 5 -10 10 0 6 5 10 10 10 6 0 10 -4 10 -10z m82 -12 c-6 -6 -19 -7 -29 -3
-17 7 -17 8 2 15 24 9 41 2 27 -12z m778 12 c0 -5 -7 -10 -15 -10 -8 0 -15 5
-15 10 0 6 7 10 15 10 8 0 15 -4 15 -10z m-1443 -6 c-3 -3 -12 -4 -19 -1 -8 3
-5 6 6 6 11 1 17 -2 13 -5z m2553 2 c0 -11 -19 -15 -25 -6 -3 5 1 10 9 10 9 0
16 -2 16 -4z m-1300 -22 c0 -9 -5 -14 -12 -12 -18 6 -21 28 -4 28 9 0 16 -7
16 -16z m315 -3 c-3 -6 -14 -11 -23 -11 -15 1 -15 2 2 15 21 16 32 13 21 -4z
m-1048 -6 c-16 -12 -8 -13 68 -14 47 0 92 -4 98 -8 7 -4 21 -9 32 -10 11 -1
33 -5 49 -9 26 -6 29 -5 23 15 -3 11 -1 19 4 15 5 -3 9 -11 9 -17 0 -19 51
-34 84 -26 15 4 38 4 49 0 12 -4 85 -9 162 -9 77 -1 171 -6 208 -12 37 -7 74
-10 81 -7 8 3 17 3 20 0 3 -3 20 -7 38 -8 217 -14 261 -15 272 -6 7 6 18 6 25
1 8 -4 20 -6 28 -3 17 7 44 -28 33 -42 -4 -5 -11 -50 -16 -100 -4 -49 -9 -94
-9 -100 -1 -5 -5 -21 -9 -34 -4 -12 -4 -27 1 -32 6 -6 4 -34 -4 -72 -7 -34
-13 -74 -13 -89 0 -15 -7 -48 -16 -74 -9 -26 -17 -71 -18 -100 -1 -29 -5 -56
-8 -60 -4 -3 -4 -12 -1 -20 4 -10 -3 -14 -20 -14 -14 0 -28 4 -31 9 -13 20
-126 -7 -126 -30 0 -4 9 -11 20 -14 28 -9 16 -23 -15 -18 -19 4 -27 0 -34 -19
-5 -13 -16 -30 -25 -37 -15 -13 -15 -24 -2 -126 2 -15 13 -22 47 -27 24 -4 45
-12 47 -18 2 -5 13 -10 24 -10 11 0 33 -8 48 -17 25 -14 35 -15 85 -4 32 7 61
9 66 4 9 -9 224 8 235 20 4 4 29 7 56 7 68 0 130 17 163 46 15 13 32 24 38 24
5 0 7 7 3 15 -3 8 -1 27 5 42 8 23 6 30 -23 60 -17 18 -40 33 -49 33 -10 0
-21 5 -24 10 -9 15 -61 12 -102 -5 -28 -12 -38 -13 -44 -3 -6 9 -13 9 -31 1
-13 -6 -41 -14 -62 -18 -32 -5 -38 -4 -29 7 6 7 13 40 16 73 3 33 10 79 15
103 5 23 5 42 1 42 -12 0 -12 37 0 44 5 3 7 61 6 128 -2 68 1 131 7 141 5 10
11 37 13 60 8 88 16 138 25 163 10 25 11 25 78 19 37 -4 71 -10 76 -13 11 -6
52 -11 131 -15 33 -2 65 -6 71 -9 6 -4 74 -7 152 -7 138 0 148 2 143 32 0 4 6
7 15 7 8 0 13 -3 11 -7 -7 -11 95 -10 111 0 7 5 10 17 7 28 -4 10 -2 19 3 19
5 0 12 -9 15 -21 4 -17 12 -20 39 -18 18 2 36 8 40 13 3 5 46 11 95 12 195 6
312 12 321 18 15 9 388 -3 447 -14 28 -5 78 -11 112 -13 35 -2 66 -7 70 -10
14 -15 82 -7 92 11 9 16 10 16 16 0 7 -17 56 -26 54 -10 -3 17 2 23 13 16 7
-5 19 -9 28 -10 95 -11 166 -16 275 -20 169 -6 179 -7 185 -15 5 -8 208 -30
308 -34 34 -2 70 -6 79 -9 9 -4 27 1 40 9 17 12 28 13 37 6 7 -6 45 -13 85
-15 63 -5 74 -3 89 14 16 19 69 29 58 11 -3 -5 1 -11 9 -15 8 -3 17 -1 20 4 3
4 -1 10 -7 13 -24 8 -1 18 26 11 23 -5 25 -9 14 -23 -11 -14 -11 -14 4 -3 15
12 134 25 203 22 17 0 80 -3 140 -5 61 -2 131 -6 157 -7 35 -2 49 1 54 12 5
13 7 13 18 -2 11 -14 19 -16 47 -8 44 13 49 13 49 -4 0 -20 26 -27 55 -16 14
5 30 8 37 6 35 -11 128 -15 128 -6 0 5 -7 10 -15 10 -8 0 -15 7 -15 15 0 22
17 18 42 -10 18 -21 28 -25 62 -20 21 2 43 10 47 17 6 10 12 8 22 -6 13 -18
20 -19 83 -9 38 6 88 9 112 8 34 -2 42 0 38 11 -6 17 -2 17 44 4 25 -7 36 -7
42 3 6 9 8 9 8 -1 0 -8 9 -12 23 -10 12 2 21 9 20 16 -2 6 0 11 5 11 20 -3 32
2 26 12 -10 16 38 0 52 -17 13 -16 49 -19 39 -4 -4 6 7 10 24 10 17 0 31 -4
31 -10 0 -14 43 -13 57 1 9 9 19 9 41 0 18 -8 37 -9 53 -3 13 5 58 8 99 6 41
-2 91 1 110 5 19 4 52 4 72 1 22 -4 39 -3 41 3 2 6 10 6 23 -1 11 -6 52 -9 91
-9 59 2 75 6 88 22 16 20 16 20 12 -2 -5 -22 -3 -22 82 -21 47 1 129 -3 181
-8 52 -5 120 -7 150 -4 30 3 114 2 185 -1 72 -3 140 -2 151 2 12 4 26 3 32 -3
6 -6 27 -7 52 -3 38 6 41 9 36 31 -4 14 -2 24 4 24 10 0 14 -21 11 -47 -1 -10
20 -13 78 -13 44 0 103 -5 132 -11 39 -9 53 -8 59 1 6 9 13 9 31 -3 13 -9 41
-15 61 -15 20 0 41 -3 47 -6 5 -4 12 -2 15 3 3 5 24 5 48 0 24 -4 73 -8 111
-9 41 0 67 -4 67 -11 0 -6 7 -3 16 5 8 9 26 16 39 16 13 0 25 6 28 13 3 9 9 7
24 -5 11 -10 27 -18 36 -18 11 0 15 6 11 18 -5 16 -5 16 8 0 15 -18 104 -23
124 -7 11 9 74 6 93 -5 6 -4 16 -4 21 -1 6 3 10 2 10 -3 0 -5 32 -10 71 -11
39 -1 77 -5 83 -9 6 -4 18 -7 26 -7 8 -1 51 -5 95 -10 44 -4 96 -9 115 -10 20
0 41 -4 48 -9 17 -10 84 4 104 22 16 14 18 13 18 -1 0 -13 10 -16 54 -15 30 1
53 6 50 10 -10 16 7 30 21 18 21 -17 125 -26 125 -10 0 9 12 10 43 6 106 -15
159 -17 152 -7 -8 13 1 14 23 2 35 -19 178 -34 314 -33 54 0 83 5 102 17 14 9
30 14 36 10 5 -3 10 1 10 9 0 17 16 22 22 6 5 -15 66 19 71 41 3 10 12 19 21
19 19 0 21 -11 4 -28 -16 -16 6 -23 78 -25 40 -1 58 2 57 10 -1 6 4 17 12 23
12 10 15 10 15 -2 0 -8 6 -15 13 -16 6 0 24 -3 40 -6 19 -5 27 -2 27 8 0 8 10
14 25 14 18 0 25 -6 25 -21 0 -18 5 -19 44 -14 35 5 49 2 70 -14 17 -13 46
-22 79 -25 28 -2 76 -6 106 -9 33 -3 59 -1 67 6 11 9 19 8 34 -6 19 -17 20
-17 30 9 5 15 10 32 10 37 0 5 5 9 10 9 6 0 10 -7 10 -15 0 -8 -5 -15 -12 -15
-9 0 -9 -3 0 -12 14 -14 16 -68 3 -68 -13 0 -34 -64 -22 -68 10 -3 7 -17 -9
-57 -5 -11 -11 -38 -14 -59 -5 -34 -34 -107 -67 -168 -5 -10 -9 -25 -9 -33 0
-8 -4 -15 -8 -15 -4 0 -14 -21 -21 -47 -8 -27 -20 -55 -27 -64 -8 -9 -21 -40
-30 -70 -9 -30 -23 -62 -31 -71 -10 -11 -14 -30 -11 -55 3 -26 0 -41 -10 -49
-8 -6 -18 -28 -21 -50 -5 -29 -11 -38 -23 -36 -22 4 -26 -5 -33 -73 -6 -68
-12 -77 -30 -51 -8 10 -18 15 -23 12 -6 -3 -12 -1 -14 5 -2 6 -15 12 -28 13
-21 1 -25 6 -23 29 1 15 -1 28 -5 28 -22 4 -142 4 -142 -1 -7 -68 -5 -184 4
-212 9 -30 20 -42 63 -64 29 -14 53 -31 53 -38 0 -6 5 -4 10 5 8 13 18 15 52
9 24 -5 46 -6 49 -4 4 2 53 4 109 5 57 0 122 6 144 12 23 7 64 10 91 7 28 -3
61 -2 73 2 13 5 40 9 60 10 33 1 39 6 56 40 22 47 13 101 -19 106 -11 2 -27
10 -36 18 -10 9 -27 12 -47 8 -18 -4 -32 -3 -32 2 0 10 -61 9 -101 -1 -36 -9
-47 12 -15 27 27 11 34 32 16 43 -13 8 -13 62 0 70 6 4 8 10 5 15 -3 5 1 26
10 46 8 20 15 53 15 73 0 20 7 49 15 64 8 15 11 35 8 44 -4 10 -2 14 7 11 21
-7 63 85 58 127 -3 26 0 34 10 32 8 -1 17 4 19 11 3 6 -2 12 -11 12 -9 0 -16
5 -16 10 0 6 9 10 21 10 13 0 23 10 30 30 6 17 14 30 19 30 4 0 10 22 14 50 4
27 11 52 16 55 6 4 8 10 5 15 -3 5 4 33 15 62 11 29 20 65 20 80 0 15 5 30 10
33 6 3 10 28 10 54 l0 47 52 11 c33 6 62 7 79 1 15 -5 49 -5 85 1 32 5 64 5
69 1 6 -4 24 -6 40 -3 44 6 48 6 78 -2 15 -4 27 -3 27 2 0 5 37 8 83 7 59 -1
89 2 106 13 20 13 25 13 32 2 6 -11 13 -11 26 -3 10 6 35 9 56 6 22 -2 50 1
63 8 17 10 27 10 37 2 7 -6 65 -14 128 -17 63 -3 127 -8 143 -11 21 -5 31 -2
38 10 9 16 12 16 34 -5 22 -21 28 -22 67 -12 28 8 44 8 48 1 4 -5 16 -7 27 -4
11 4 23 2 27 -4 9 -15 47 -12 72 5 19 13 22 13 27 0 3 -8 16 -15 30 -15 14 0
27 -4 30 -9 3 -5 28 -7 56 -6 27 2 50 0 50 -4 0 -4 19 -5 41 -3 24 3 36 7 29
12 -9 5 -9 9 -1 14 15 10 33 -3 27 -20 -3 -7 -1 -16 4 -19 6 -4 10 1 10 9 0 9
5 16 10 16 6 0 10 -7 10 -15 0 -20 13 -19 34 4 17 19 56 18 56 -1 0 -6 7 -5
15 2 10 9 15 9 15 1 0 -7 24 -11 68 -11 57 0 69 3 80 20 7 12 17 18 22 15 6
-4 8 -10 5 -14 -6 -11 87 -23 97 -13 5 5 27 6 48 2 22 -4 37 -4 35 1 -3 4 4
11 16 14 13 4 24 2 29 -5 4 -6 23 -11 41 -10 19 1 36 1 39 0 3 -1 30 -4 60 -5
30 -2 64 -5 75 -7 14 -2 21 3 23 20 2 12 8 20 13 16 5 -3 7 -9 5 -13 -3 -4 11
-13 30 -19 33 -10 35 -9 29 11 -4 13 -3 17 2 11 10 -14 223 -10 232 4 8 12 55
37 47 24 -3 -6 11 -8 39 -4 l45 5 -6 -127 c-3 -70 -3 -135 1 -144 3 -9 8 -62
10 -117 4 -115 19 -179 41 -171 12 5 12 2 -1 -18 -8 -12 -12 -25 -9 -29 10
-10 33 -156 39 -242 2 -44 7 -96 10 -116 4 -23 2 -39 -7 -47 -10 -8 -14 -56
-17 -194 -1 -100 -6 -214 -11 -253 -4 -39 -4 -74 1 -79 11 -13 12 -79 0 -92
-14 -15 -31 -203 -26 -294 9 -191 7 -450 -3 -517 -5 -29 -5 -94 -1 -145 15
-180 24 -364 23 -488 -1 -69 -1 -179 -1 -245 0 -66 -1 -144 -2 -174 -1 -29 3
-58 8 -65 11 -13 18 -107 9 -122 -3 -5 -2 -88 3 -184 13 -240 17 -331 18 -358
1 -15 5 -21 13 -16 8 5 9 2 3 -12 -16 -35 -26 -362 -12 -371 9 -5 3 -152 -12
-283 -5 -44 -4 -80 1 -87 6 -7 5 -19 -1 -32 -6 -11 -11 -44 -11 -74 0 -29 -3
-57 -6 -60 -4 -4 -8 -23 -10 -44 -4 -56 -10 -107 -23 -213 -7 -52 -14 -131
-16 -175 -3 -44 -5 -80 -6 -80 0 0 -2 -45 -4 -100 -5 -150 -26 -365 -39 -405
-7 -22 -9 -54 -4 -85 6 -41 5 -97 -4 -180 0 -5 3 -93 7 -195 11 -260 11 -253
3 -271 -4 -9 -4 -19 -1 -23 7 -7 7 -5 22 -251 5 -93 12 -178 15 -187 3 -10 9
-26 12 -35 4 -10 6 -65 5 -123 -3 -181 0 -263 10 -282 6 -12 6 -18 -1 -18 -5
0 -10 -22 -10 -50 0 -27 4 -50 10 -50 15 0 7 -74 -10 -86 -11 -10 -12 -15 -2
-27 9 -10 14 -87 18 -267 3 -138 9 -272 14 -298 4 -25 6 -55 3 -66 -2 -12 -6
-41 -7 -66 -12 -182 -20 -257 -28 -267 -6 -7 -8 -22 -5 -32 3 -11 -1 -71 -8
-133 -7 -62 -11 -125 -8 -140 3 -16 0 -40 -6 -55 -14 -34 -21 -312 -9 -320 5
-3 8 -40 7 -82 -1 -42 0 -83 4 -91 3 -8 8 -89 11 -180 3 -91 9 -212 13 -270
10 -128 9 -239 -1 -301 -5 -28 -3 -62 4 -87 8 -32 8 -52 -1 -82 -10 -31 -10
-45 0 -63 7 -14 10 -46 7 -87 -5 -64 11 -430 21 -460 18 -58 20 -464 2 -562
-5 -31 -11 -200 -14 -375 -3 -294 -9 -462 -19 -588 -3 -27 -7 -124 -10 -215
-4 -91 -10 -230 -15 -309 -5 -80 -5 -154 -1 -166 4 -12 4 -41 0 -66 -5 -24 -5
-73 -1 -109 5 -36 6 -80 4 -98 -3 -18 0 -39 7 -47 9 -11 10 -43 5 -122 -4 -66
-3 -118 3 -134 6 -15 7 -30 2 -35 -9 -10 -20 -109 -24 -224 -2 -41 -9 -88 -15
-105 -7 -16 -11 -56 -11 -90 1 -33 -1 -108 -3 -167 -3 -60 -1 -108 4 -108 4 0
8 -19 8 -42 -1 -86 11 -194 24 -215 4 -7 7 -72 7 -145 0 -73 2 -171 5 -218 11
-217 5 -502 -14 -680 -12 -118 -11 -302 2 -311 11 -8 12 -105 2 -214 -3 -44
-8 -102 -10 -130 -9 -138 -14 -221 -14 -235 1 -63 9 -145 20 -197 10 -51 10
-69 -1 -102 -10 -30 -10 -44 -2 -54 7 -8 10 -16 7 -19 -9 -9 -17 -158 -20
-418 -2 -146 -8 -312 -14 -370 -6 -64 -6 -111 0 -121 5 -10 9 -31 9 -48 0 -20
7 -34 20 -41 32 -17 25 -40 -12 -40 -48 -1 -176 -9 -228 -15 -123 -15 -150
-16 -191 -4 -54 16 -215 23 -329 14 -25 -2 -110 -6 -190 -10 -80 -4 -153 -11
-162 -16 -9 -5 -41 -9 -70 -9 -29 0 -84 -5 -123 -11 -108 -16 -485 -13 -513 5
-4 2 -101 5 -217 7 -115 1 -246 7 -291 12 -45 6 -90 7 -100 3 -32 -13 -196
-13 -254 0 -30 7 -100 12 -156 12 -55 0 -110 3 -122 6 -14 5 -22 3 -22 -4 0
-12 -69 -9 -138 5 -18 4 -38 3 -45 -2 -11 -9 -43 -9 -227 2 -153 9 -202 10
-207 2 -5 -9 -166 -2 -182 8 -17 10 -156 7 -239 -5 -60 -8 -78 -7 -102 5 -33
17 -141 20 -170 5 -13 -7 -21 -7 -25 0 -6 9 -44 12 -115 9 -8 0 -58 -2 -110
-4 -52 -2 -149 -6 -215 -10 -66 -3 -275 -8 -465 -11 -189 -3 -346 -7 -348 -9
-2 -2 -14 0 -27 5 -12 5 -119 12 -236 15 -118 4 -222 11 -233 17 -12 7 -21 7
-25 0 -4 -6 -91 -10 -221 -9 -118 0 -251 -3 -295 -7 -44 -3 -125 -9 -180 -12
-122 -8 -149 -10 -155 -14 -3 -1 -95 -4 -205 -6 -110 -2 -222 -6 -250 -8 -27
-3 -93 -6 -145 -6 -52 -1 -120 -5 -150 -10 -71 -12 -122 -19 -190 -26 -30 -3
-73 -7 -95 -9 -84 -8 -221 -32 -245 -42 -16 -6 -36 -7 -55 -1 -16 5 -73 8
-125 7 -52 -1 -158 -2 -235 -2 -77 0 -203 -2 -280 -3 -240 -5 -268 -6 -360 -4
-97 2 -172 -7 -181 -22 -3 -5 -12 -4 -20 3 -15 13 -184 28 -209 19 -9 -3 -94
-4 -188 -3 -252 4 -267 4 -437 3 -85 -1 -166 3 -180 8 -14 5 -104 10 -200 11
-96 0 -206 3 -245 5 -44 3 -72 1 -76 -6 -4 -7 -40 -10 -90 -10 -46 1 -109 1
-139 0 -30 -1 -176 -1 -324 0 -148 1 -274 -2 -280 -7 -6 -4 -51 -12 -101 -15
-49 -4 -94 -11 -100 -15 -11 -9 -102 -22 -153 -22 -25 0 -35 -6 -42 -23 -8
-22 -13 -23 -72 -20 -34 1 -67 -1 -73 -5 -5 -5 -32 -12 -60 -16 -27 -4 -61
-13 -75 -20 -14 -7 -75 -16 -135 -20 -136 -8 -114 -9 -220 10 -53 10 -140 17
-213 17 -67 0 -124 4 -127 8 -3 4 -14 6 -25 3 -11 -3 -27 0 -35 7 -19 16 -272
16 -322 1 -20 -6 -35 -6 -38 0 -4 5 -41 9 -84 9 -43 0 -81 3 -85 7 -4 4 -22 9
-39 10 -133 10 -187 16 -187 23 0 4 -19 8 -42 8 -52 0 -119 11 -133 22 -17 13
-88 24 -143 22 -29 -1 -71 2 -92 7 -22 5 -57 5 -78 1 -20 -5 -72 -11 -114 -14
-43 -2 -83 -8 -88 -11 -6 -4 -17 -1 -25 5 -8 7 -47 13 -87 15 -40 2 -97 8
-127 14 -73 15 -128 14 -138 -3 -6 -10 -36 -15 -104 -18 -60 -2 -103 -9 -113
-17 -9 -7 -16 -12 -17 -10 0 2 -2 66 -4 142 -3 76 -7 142 -10 147 -3 5 1 96 9
202 18 246 18 258 7 258 -5 0 -9 37 -10 82 0 46 -3 108 -6 138 -3 30 -7 89 -9
130 -2 41 -4 75 -5 75 -2 0 -3 213 -1 355 0 69 6 170 12 225 13 123 13 331 1
365 -5 14 -8 61 -7 105 2 44 5 175 7 291 2 116 7 215 10 221 4 6 8 79 11 163
2 83 8 156 13 161 6 6 7 30 2 62 -5 29 -5 65 -1 82 6 22 8 690 2 750 -1 6 2
60 5 120 3 61 7 160 9 220 2 61 7 118 11 128 4 11 3 17 -5 17 -8 0 -10 9 -5
28 4 15 9 108 12 207 3 99 5 191 6 205 2 57 -9 155 -17 162 -5 3 -4 19 4 37 9
24 10 34 1 45 -7 8 -8 17 -3 20 13 8 5 215 -9 232 -9 11 -8 18 5 33 17 18 17
20 -2 30 -14 7 -18 18 -14 41 2 16 -1 36 -7 44 -7 8 -11 40 -10 73 2 32 -1
105 -5 163 -9 131 -19 521 -18 738 0 89 -3 162 -8 162 -4 0 -10 21 -14 47 -4
33 -2 51 8 62 13 14 12 23 -3 68 -10 29 -14 54 -8 56 5 1 8 39 6 82 -3 86 -2
165 1 398 2 108 -1 152 -11 163 -10 12 -10 17 -1 23 7 4 12 23 12 42 -1 19 0
41 0 49 1 8 -1 52 -3 98 -2 45 -1 85 3 87 8 5 5 104 -4 112 -12 12 -5 61 9 67
19 7 19 26 0 26 -16 0 -16 13 6 139 5 30 5 59 1 63 -5 5 -4 36 0 71 12 79 12
84 10 135 -2 32 -6 42 -19 43 -15 1 -16 2 -2 6 12 3 18 21 23 71 9 100 7 152
-5 152 -7 0 -9 12 -5 33 3 18 2 57 -4 87 -5 30 -12 84 -14 120 -3 36 -9 84
-14 108 -5 23 -7 42 -4 42 2 0 -1 6 -7 14 -15 18 -20 155 -6 160 6 2 6 8 -1
15 -13 14 -6 110 8 129 7 8 7 12 -1 12 -8 0 -11 20 -8 67 6 78 -9 194 -24 204
-7 4 -5 8 4 12 12 5 13 14 6 46 -5 23 -8 44 -7 48 1 5 -3 31 -9 58 -6 28 -11
59 -11 70 -1 47 -13 188 -17 194 -2 4 -7 59 -10 122 -4 62 -9 118 -12 123 -11
16 -6 95 6 110 7 8 10 29 7 48 -10 60 -17 209 -20 423 -3 184 -1 211 13 222
14 11 14 14 1 22 -11 8 -15 31 -17 86 -1 42 -6 82 -13 90 -8 10 -8 15 4 22 19
11 27 174 8 181 -9 3 -8 9 2 25 12 19 17 153 18 427 0 8 2 22 5 30 3 8 6 52 7
98 1 66 -2 81 -13 77 -10 -4 -10 1 3 19 9 14 12 27 7 31 -11 6 -3 157 9 169 5
5 6 22 3 37 -3 16 -1 35 5 42 7 8 7 18 2 27 -5 8 -6 19 -2 24 3 6 7 55 8 109
2 54 6 106 9 116 3 11 0 25 -8 32 -9 10 -13 40 -12 104 1 50 -1 95 -4 100 -6
11 -6 8 -21 135 -6 52 -12 124 -13 160 -1 36 -6 68 -12 72 -5 4 -8 21 -7 38 2
17 -1 37 -8 45 -6 7 -7 15 -3 18 4 3 7 36 5 74 -2 37 -5 115 -7 173 -11 305
-16 389 -24 440 -6 30 -13 145 -17 255 -3 110 -8 216 -10 235 -2 19 -6 78 -9
130 -4 52 -9 98 -12 104 -4 5 -5 47 -4 93 1 46 -2 89 -6 95 -13 22 -15 128 -3
144 9 9 9 18 2 27 -5 6 -10 46 -10 88 0 42 -5 93 -12 113 -6 20 -8 45 -4 54
14 32 13 63 -2 69 -12 4 -14 14 -10 38 5 22 2 35 -6 38 -9 4 -7 11 8 24 24 22
27 51 5 49 -22 -1 -26 40 -7 69 21 32 21 75 0 75 -10 0 -13 6 -10 18 4 10 0
27 -8 37 -10 15 -11 23 -2 37 6 10 16 18 22 18 19 0 22 -34 6 -50 -12 -10 -12
-15 -3 -18 19 -6 28 8 34 54 l5 41 -36 1 c-45 2 -60 15 -41 38 12 14 12 18 0
22 -10 3 -11 6 -1 12 8 5 14 35 16 74 2 53 0 68 -12 73 -12 4 -15 18 -12 57 2
41 0 50 -12 48 -11 -3 -11 1 3 16 21 23 22 48 1 60 -15 8 -14 11 4 28 16 15
19 28 16 59 -3 22 -6 66 -8 98 -1 32 -7 62 -13 68 -8 8 -6 16 7 29 14 14 17
28 13 62 -4 23 -12 49 -20 56 -12 12 -11 16 3 26 18 14 18 19 11 181 -7 144
-9 158 -22 168 -7 5 -7 10 0 15 14 10 17 92 4 108 -6 7 -7 19 -3 25 4 7 6 35
5 63 -1 28 -3 72 -4 99 -1 33 -6 47 -16 47 -11 0 -10 4 3 19 16 17 28 90 27
156 -3 121 0 258 4 266 4 5 -4 9 -16 9 -20 0 -21 1 -7 18 18 19 8 62 -14 62
-8 1 -5 6 6 15 19 14 19 15 1 35 -13 14 -15 24 -9 28 20 13 36 54 30 77 -3 13
-1 36 4 51 8 20 7 31 -2 43 -10 11 -13 51 -12 136 2 158 12 227 36 243 17 13
17 15 -7 59 -14 25 -25 46 -23 47 2 0 13 7 25 14 13 6 33 12 45 12 13 0 29 4
37 9 9 6 24 5 38 -2 19 -8 31 -7 56 6 24 12 58 17 132 17 55 0 156 2 225 5
263 11 271 11 281 -2 8 -9 16 -10 31 -2 14 8 24 7 36 -3 11 -9 14 -10 8 0 -5
9 18 12 103 12 92 0 111 3 111 15 0 9 9 15 23 15 21 -1 21 -1 4 -15z m198 4
c11 -17 0 -20 -21 -4 -17 13 -17 14 -2 15 9 0 20 -5 23 -11z m-1108 -5 c-3 -3
-12 -4 -19 -1 -8 3 -5 6 6 6 11 1 17 -2 13 -5z m1350 -10 c-3 -3 -12 -4 -19
-1 -8 3 -5 6 6 6 11 1 17 -2 13 -5z m-1677 -14 c0 -5 -6 -10 -14 -10 -8 0 -18
5 -21 10 -3 6 3 10 14 10 12 0 21 -4 21 -10z m2380 -16 c0 -2 -7 -4 -15 -4 -8
0 -15 4 -15 10 0 5 7 7 15 4 8 -4 15 -8 15 -10z m1280 6 c0 -5 -5 -10 -11 -10
-5 0 -7 5 -4 10 3 6 8 10 11 10 2 0 4 -4 4 -10z m337 -16 c2 -7 -7 -11 -21
-11 -17 0 -23 4 -19 14 6 16 34 14 40 -3z m-1647 -8 c0 -3 -4 -8 -10 -11 -5
-3 -10 -1 -10 4 0 6 5 11 10 11 6 0 10 -2 10 -4z m2340 -31 c0 -10 -7 -14 -22
-11 -13 3 -41 5 -63 7 l-40 2 40 7 c67 12 85 11 85 -5z m353 1 c7 -16 -1 -26
-20 -26 -7 0 -13 9 -13 20 0 23 25 27 33 6z m-308 -6 c8 -13 -5 -13 -25 0 -13
8 -13 10 2 10 9 0 20 -4 23 -10z m185 0 c0 -5 -4 -10 -10 -10 -5 0 -10 5 -10
10 0 6 5 10 10 10 6 0 10 -4 10 -10z m70 -5 c-14 -17 -46 -20 -55 -6 -5 9 15
16 54 20 11 1 11 -2 1 -14z m3837 9 c-3 -3 -12 -4 -19 -1 -8 3 -5 6 6 6 11 1
17 -2 13 -5z m4138 -4 c3 -6 -1 -7 -9 -4 -18 7 -21 14 -7 14 6 0 13 -4 16 -10z
m-10297 -15 c3 -3 -15 -5 -41 -5 -25 0 -49 5 -52 11 -7 10 82 5 93 -6z m937 5
c3 -5 -1 -10 -10 -10 -9 0 -13 5 -10 10 3 6 8 10 10 10 2 0 7 -4 10 -10z
m-465 -21 c0 -5 -12 -9 -27 -9 -27 1 -27 1 -9 15 19 14 36 12 36 -6z m2095 11
c3 -5 1 -10 -4 -10 -6 0 -11 5 -11 10 0 6 2 10 4 10 3 0 8 -4 11 -10z m3066
-13 c-13 -13 -26 -3 -16 12 3 6 11 8 17 5 6 -4 6 -10 -1 -17z m337 -11 c2 -19
0 -26 -7 -21 -6 3 -9 11 -5 16 3 5 0 17 -8 26 -11 14 -11 16 2 11 8 -2 16 -17
18 -32z m-833 14 c3 -5 -3 -10 -14 -10 -12 0 -21 5 -21 10 0 6 6 10 14 10 8 0
18 -4 21 -10z m905 0 c0 -5 -2 -10 -4 -10 -3 0 -8 5 -11 10 -3 6 -1 10 4 10 6
0 11 -4 11 -10z m-3185 -19 c0 -8 -4 -16 -10 -18 -16 -5 -38 14 -30 26 9 16
40 9 40 -8z m2960 9 c3 -5 1 -10 -4 -10 -6 0 -11 5 -11 10 0 6 2 10 4 10 3 0
8 -4 11 -10z m615 0 c0 -5 -11 -10 -24 -10 -14 0 -28 5 -31 10 -4 6 7 10 24
10 17 0 31 -4 31 -10z m-3492 -23 c2 -10 -3 -17 -11 -17 -16 0 -30 24 -19 34
10 10 27 1 30 -17z m902 13 c0 -13 -20 -13 -40 0 -12 8 -9 10 13 10 15 0 27
-4 27 -10z m1205 0 c3 -5 -3 -10 -14 -10 -12 0 -21 5 -21 10 0 6 6 10 14 10 8
0 18 -4 21 -10z m5270 -10 c0 -7 -6 -15 -12 -17 -8 -3 -13 4 -13 17 0 13 5 20
13 18 6 -3 12 -11 12 -18z m2865 10 c0 -5 -7 -10 -16 -10 -8 0 -12 5 -9 10 3
6 10 10 16 10 5 0 9 -4 9 -10z m-10150 -14 c0 -22 -27 -27 -33 -5 -4 14 0 19
14 19 10 0 19 -6 19 -14z m7595 4 c3 -5 -1 -10 -10 -10 -9 0 -13 5 -10 10 3 6
8 10 10 10 2 0 7 -4 10 -10z m-6060 -10 c3 -5 -1 -10 -9 -10 -8 0 -18 5 -21
10 -3 6 1 10 9 10 8 0 18 -4 21 -10z m-295 -10 c0 -13 -20 -13 -40 0 -12 8 -9
10 13 10 15 0 27 -4 27 -10z m5037 -12 c-3 -8 -6 -5 -6 6 -1 11 2 17 5 13 3
-3 4 -12 1 -19z m1123 8 c0 -3 -4 -8 -10 -11 -5 -3 -10 -1 -10 4 0 6 5 11 10
11 6 0 10 -2 10 -4z m-1335 -26 c-3 -5 -10 -10 -16 -10 -5 0 -9 5 -9 10 0 6 7
10 16 10 8 0 12 -4 9 -10z m195 -5 c0 -8 -4 -15 -10 -15 -5 0 -10 7 -10 15 0
8 5 15 10 15 6 0 10 -7 10 -15z m3861 -8 c-13 -13 -26 -3 -16 12 3 6 11 8 17
5 6 -4 6 -10 -1 -17z m-4766 3 c-3 -5 -13 -10 -21 -10 -8 0 -14 5 -14 10 0 6
9 10 21 10 11 0 17 -4 14 -10z m666 -3 c-1 -12 -15 -9 -19 4 -3 6 1 10 8 8 6
-3 11 -8 11 -12z m399 3 c0 -5 -2 -10 -4 -10 -3 0 -8 5 -11 10 -3 6 -1 10 4
10 6 0 11 -4 11 -10z m350 0 c0 -5 -7 -10 -15 -10 -8 0 -15 5 -15 10 0 6 7 10
15 10 8 0 15 -4 15 -10z m560 -5 c0 -8 -4 -15 -10 -15 -5 0 -10 7 -10 15 0 8
5 15 10 15 6 0 10 -7 10 -15z m885 5 c3 -5 -3 -10 -14 -10 -12 0 -21 5 -21 10
0 6 6 10 14 10 8 0 18 -4 21 -10z m-1175 -4 c0 -3 -4 -8 -10 -11 -5 -3 -10 -1
-10 4 0 6 5 11 10 11 6 0 10 -2 10 -4z m530 -5 c0 -17 -18 -21 -24 -6 -3 9 0
15 9 15 8 0 15 -4 15 -9z m2067 3 c-3 -3 -12 -4 -19 -1 -8 3 -5 6 6 6 11 1 17
-2 13 -5z m586 -30 c-3 -8 -9 -14 -15 -14 -5 0 -7 -4 -3 -9 3 -5 0 -13 -6 -16
-18 -11 -19 -1 -4 29 8 15 12 33 8 40 -4 6 0 5 9 -2 9 -8 14 -20 11 -28z
m-4473 16 c0 -5 -2 -10 -4 -10 -3 0 -8 5 -11 10 -3 6 -1 10 4 10 6 0 11 -4 11
-10z m120 0 c0 -5 -4 -10 -10 -10 -5 0 -10 5 -10 10 0 6 5 10 10 10 6 0 10 -4
10 -10z m1280 -6 c0 -8 -4 -12 -10 -9 -5 3 -10 10 -10 16 0 5 5 9 10 9 6 0 10
-7 10 -16z m580 6 c0 -5 -4 -10 -10 -10 -5 0 -10 5 -10 10 0 6 5 10 10 10 6 0
10 -4 10 -10z m-1055 -18 c-3 -3 -11 0 -18 7 -9 10 -8 11 6 5 10 -3 15 -9 12
-12z m440 8 c3 -5 1 -10 -4 -10 -6 0 -11 5 -11 10 0 6 2 10 4 10 3 0 8 -4 11
-10z m-1135 -10 c0 -5 -4 -10 -10 -10 -5 0 -10 5 -10 10 0 6 5 10 10 10 6 0
10 -4 10 -10z m745 0 c3 -5 -1 -10 -9 -10 -8 0 -18 5 -21 10 -3 6 1 10 9 10 8
0 18 -4 21 -10z m2430 -10 c-10 -11 -22 -17 -27 -14 -12 8 11 34 30 34 13 0
12 -3 -3 -20z m991 -15 c-3 -9 -11 -13 -16 -10 -8 5 -7 11 1 21 14 18 24 11
15 -11z m74 -65 c0 -5 -9 -10 -20 -10 -11 0 -20 5 -20 10 0 6 9 10 20 10 11 0
20 -4 20 -10z m-15940 -136 c0 -15 -10 -17 -34 -8 -24 9 -19 19 9 20 15 1 25
-3 25 -12z m15920 -43 c0 -6 -4 -13 -10 -16 -5 -3 -10 1 -10 9 0 9 5 16 10 16
6 0 10 -4 10 -9z m-13350 -59 c0 -15 -11 -21 -27 -15 -12 5 -12 7 -1 14 17 11
28 11 28 1z m95 -12 c9 -14 -24 -25 -37 -12 -6 6 -17 8 -24 5 -8 -3 -14 0 -14
6 0 14 67 15 75 1z m10125 -20 c0 -5 -7 -10 -16 -10 -8 0 -12 5 -9 10 3 6 10
10 16 10 5 0 9 -4 9 -10z m3150 -50 c0 -5 -4 -10 -10 -10 -5 0 -10 5 -10 10 0
6 5 10 10 10 6 0 10 -4 10 -10z m-13285 -110 c-3 -5 -10 -10 -16 -10 -5 0 -9
5 -9 10 0 6 7 10 16 10 8 0 12 -4 9 -10z m30 -211 c-10 -15 -25 -10 -19 6 4 8
10 12 15 9 5 -3 7 -10 4 -15z m130 -9 c-4 -6 19 -10 62 -11 47 0 62 -3 48 -9
-30 -13 -99 -12 -113 2 -15 15 -15 28 -1 28 5 0 7 -4 4 -10z m-338 -6 c-3 -3
-12 -4 -19 -1 -8 3 -5 6 6 6 11 1 17 -2 13 -5z m103 -2 c0 -4 -16 -8 -35 -9
-19 -1 -32 3 -29 8 7 11 64 12 64 1z m60 -2 c0 -5 -5 -10 -11 -10 -5 0 -7 5
-4 10 3 6 8 10 11 10 2 0 4 -4 4 -10z m13370 -30 c0 -5 -4 -10 -10 -10 -5 0
-10 5 -10 10 0 6 5 10 10 10 6 0 10 -4 10 -10z m-13180 -20 c0 -5 -4 -10 -10
-10 -5 0 -10 5 -10 10 0 6 5 10 10 10 6 0 10 -4 10 -10z m-380 -40 c0 -5 -4
-10 -10 -10 -5 0 -10 5 -10 10 0 6 5 10 10 10 6 0 10 -4 10 -10z m13536 -281
c5 -8 9 -8 14 1 4 7 13 9 19 6 21 -13 11 -23 -24 -24 -25 -1 -35 3 -35 13 0
18 16 20 26 4z m-3876 -53 c0 -3 -4 -8 -10 -11 -5 -3 -10 -1 -10 4 0 6 5 11
10 11 6 0 10 -2 10 -4z m520 -44 c0 -5 -7 -9 -15 -9 -8 0 -15 4 -15 9 0 4 7 8
15 8 8 0 15 -4 15 -8z m-314 -29 c-10 -10 -19 5 -10 18 6 11 8 11 12 0 2 -7 1
-15 -2 -18z m-12226 -127 c0 -3 -4 -8 -10 -11 -5 -3 -10 -1 -10 4 0 6 5 11 10
11 6 0 10 -2 10 -4z m15867 -162 c-3 -3 -12 -4 -19 -1 -8 3 -5 6 6 6 11 1 17
-2 13 -5z m-15917 -224 c0 -5 -7 -10 -16 -10 -8 0 -12 5 -9 10 3 6 10 10 16
10 5 0 9 -4 9 -10z m-80 -500 c0 -5 -4 -10 -10 -10 -5 0 -10 5 -10 10 0 6 5
10 10 10 6 0 10 -4 10 -10z m16030 -204 c0 -3 -4 -8 -10 -11 -5 -3 -10 -1 -10
4 0 6 5 11 10 11 6 0 10 -2 10 -4z m10 -184 c0 -13 -39 -46 -46 -40 -3 4 3 16
13 27 18 22 33 27 33 13z m30 -402 c0 -5 -4 -10 -10 -10 -5 0 -10 5 -10 10 0
6 5 10 10 10 6 0 10 -4 10 -10z m-60 -194 c-25 -15 -45 -12 -35 5 4 5 18 9 33
9 l27 -1 -25 -13z m53 -73 c-7 -2 -21 -2 -30 0 -10 3 -4 5 12 5 17 0 24 -2 18
-5z m-15953 -327 c0 -3 -4 -8 -10 -11 -5 -3 -10 -1 -10 4 0 6 5 11 10 11 6 0
10 -2 10 -4z m15900 -266 c0 -5 -2 -10 -4 -10 -3 0 -8 5 -11 10 -3 6 -1 10 4
10 6 0 11 -4 11 -10z m-15795 -440 c3 -5 -3 -10 -15 -10 -12 0 -18 5 -15 10 3
6 10 10 15 10 5 0 12 -4 15 -10z m62 -706 c-3 -3 -12 -4 -19 -1 -8 3 -5 6 6 6
11 1 17 -2 13 -5z m33 -598 c0 -3 -4 -8 -10 -11 -5 -3 -10 -1 -10 4 0 6 5 11
10 11 6 0 10 -2 10 -4z m15600 -65 c0 -10 -30 -24 -37 -17 -3 3 -2 9 2 15 8
13 35 15 35 2z m-15677 -28 c-7 -2 -19 -2 -25 0 -7 3 -2 5 12 5 14 0 19 -2 13
-5z m-10 -790 c-7 -2 -19 -2 -25 0 -7 3 -2 5 12 5 14 0 19 -2 13 -5z m-8 -183
c4 -6 -6 -10 -22 -9 -25 0 -26 1 -8 9 11 5 21 9 22 9 1 1 5 -3 8 -9z m82 -76
c-3 -3 -12 -4 -19 -1 -8 3 -5 6 6 6 11 1 17 -2 13 -5z m-27 -158 c0 -11 -19
-15 -25 -6 -3 5 1 10 9 10 9 0 16 -2 16 -4z m20 -156 c0 -5 -5 -10 -11 -10 -5
0 -7 5 -4 10 3 6 8 10 11 10 2 0 4 -4 4 -10z m0 -160 c0 -5 -4 -10 -10 -10 -5
0 -10 5 -10 10 0 6 5 10 10 10 6 0 10 -4 10 -10z m-75 -30 c3 -5 -3 -10 -14
-10 -11 0 -23 5 -26 10 -3 6 3 10 14 10 11 0 23 -4 26 -10z m130 -1529 c-7
-12 -65 -11 -65 1 0 4 16 8 36 8 19 0 33 -4 29 -9z m-85 -15 c0 -2 -7 -6 -15
-10 -8 -3 -15 -1 -15 4 0 6 7 10 15 10 8 0 15 -2 15 -4z m26 -983 c-10 -10
-19 5 -10 18 6 11 8 11 12 0 2 -7 1 -15 -2 -18z m34 -1623 c0 -5 -4 -10 -10
-10 -5 0 -10 5 -10 10 0 6 5 10 10 10 6 0 10 -4 10 -10z m197 -2132 c-3 -8 -6
-5 -6 6 -1 11 2 17 5 13 3 -3 4 -12 1 -19z m-175 -1960 c-7 -7 -12 -8 -12 -2
0 14 12 26 19 19 2 -3 -1 -11 -7 -17z m43 -1248 c3 -5 1 -10 -4 -10 -6 0 -11
5 -11 10 0 6 2 10 4 10 3 0 8 -4 11 -10z"/>
<path d="M14360 24640 c0 -5 5 -10 10 -10 6 0 10 5 10 10 0 6 -4 10 -10 10 -5
0 -10 -4 -10 -10z"/>
<path d="M2340 22210 c-13 -8 -12 -10 3 -10 9 0 17 5 17 10 0 12 -1 12 -20 0z"/>
<path d="M2345 22150 c-3 -5 1 -10 9 -10 9 0 16 5 16 10 0 6 -4 10 -9 10 -6 0
-13 -4 -16 -10z"/>
<path d="M2329 22098 c0 -7 -2 -23 -5 -35 -3 -18 1 -23 16 -23 13 0 20 7 20
19 0 11 5 23 11 27 8 4 7 9 -2 15 -20 13 -39 11 -40 -3z"/>
<path d="M8015 19298 c-33 -5 -88 -7 -122 -5 -47 4 -63 1 -63 -8 0 -23 -32
-26 -55 -5 -23 21 -99 28 -110 10 -3 -6 -32 -9 -64 -9 -33 1 -65 -2 -72 -7 -8
-5 -39 -9 -69 -10 -194 -2 -307 -8 -317 -16 -7 -6 -20 -8 -28 -4 -20 7 -46 -4
-38 -16 4 -7 -12 -9 -46 -6 -28 3 -54 1 -58 -4 -3 -6 -44 -7 -103 -3 -54 4
-104 4 -111 -1 -12 -7 -103 -14 -196 -13 -29 0 -53 -4 -53 -10 0 -6 -11 -6
-32 1 -18 6 -64 10 -103 9 -43 0 -77 5 -90 13 -16 10 -26 11 -40 3 -11 -6 -61
-9 -113 -8 -65 1 -98 -2 -109 -11 -12 -10 -61 -13 -183 -13 -143 0 -171 -2
-186 -17 -15 -13 -31 -15 -74 -11 -58 7 -141 6 -201 -1 -20 -2 -67 2 -104 10
-74 16 -111 11 -128 -17 -8 -14 -14 -15 -24 -7 -15 12 -59 -5 -79 -32 -14 -17
-26 -104 -17 -125 3 -8 17 -15 33 -15 15 0 42 -8 61 -17 21 -11 73 -21 134
-26 55 -4 116 -10 135 -13 55 -8 71 -7 143 6 50 10 67 17 63 27 -4 10 1 12 20
7 16 -4 31 -1 42 9 10 9 26 16 37 16 11 0 83 2 160 5 86 2 181 -1 245 -10 58
-7 106 -10 108 -5 1 4 14 6 27 3 14 -2 33 -1 42 3 21 7 142 18 193 16 19 0 74
4 123 9 59 7 94 7 106 0 14 -7 20 -6 24 3 3 9 28 11 92 7 48 -3 89 -1 92 3 2
4 30 7 61 7 31 -1 91 4 132 10 95 13 120 16 310 25 85 4 160 11 165 15 6 5
107 7 225 5 118 -1 220 0 227 2 6 3 9 11 6 19 -4 11 2 13 28 8 19 -4 41 -10
50 -15 9 -4 29 -4 45 1 25 7 26 8 7 9 -13 1 -23 6 -23 11 0 11 37 9 57 -3 7
-4 24 -5 39 -1 16 4 29 2 34 -6 6 -9 13 -9 28 -1 25 13 69 14 76 2 4 -5 0 -12
-6 -14 -32 -13 23 -26 112 -26 97 1 176 -5 220 -15 14 -3 105 -8 203 -10 97
-3 182 -8 187 -11 5 -3 18 -1 29 5 12 6 22 6 26 1 3 -5 44 -10 90 -10 72 0 85
2 85 16 0 14 2 14 19 -1 11 -10 25 -15 31 -11 7 4 15 3 19 -2 3 -6 34 -13 68
-16 59 -5 62 -4 52 14 -7 15 -6 19 6 19 8 0 15 -6 15 -14 0 -13 55 -30 69 -22
4 3 32 6 62 7 30 1 66 6 81 10 15 4 30 3 33 -2 4 -5 57 -8 119 -8 62 1 119 -2
126 -6 21 -13 94 -6 106 10 15 20 27 19 22 -2 -3 -13 1 -18 16 -19 12 0 56 -3
99 -7 50 -5 77 -4 77 3 0 5 7 10 15 10 8 0 15 -4 15 -10 0 -16 49 -23 66 -9
12 10 15 10 12 -2 -4 -16 18 -19 177 -18 112 0 130 3 120 20 -4 5 -1 9 4 9 6
0 11 -4 11 -9 0 -9 193 -7 208 3 18 11 225 26 275 20 48 -7 51 -6 38 10 -8 9
-11 20 -7 24 4 4 13 0 19 -8 13 -16 33 -23 57 -21 8 1 25 1 38 1 12 0 22 5 22
10 0 6 5 10 10 10 6 0 10 -7 10 -16 0 -15 10 -14 59 4 9 4 12 1 7 -7 -6 -9 5
-12 41 -12 26 0 97 -1 156 -3 94 -3 108 -2 102 12 -4 11 -2 12 7 5 23 -18 101
-33 114 -22 8 6 32 8 59 4 34 -6 45 -4 43 5 -4 18 18 23 33 7 16 -15 139 -15
224 1 36 7 52 6 57 -2 5 -7 34 -10 79 -9 40 1 78 -1 83 -6 18 -14 83 -20 94
-9 7 7 17 6 30 -1 32 -17 45 -14 39 10 -3 13 -1 19 6 16 7 -2 11 -11 9 -19 -2
-12 8 -14 54 -10 45 4 55 2 49 -8 -5 -9 -4 -11 3 -6 7 4 17 4 23 0 20 -12 91
-15 84 -4 -3 5 -1 10 4 10 6 0 11 -6 11 -14 0 -9 16 -17 43 -22 58 -10 215 -7
255 5 26 8 34 7 38 -4 5 -11 28 -13 122 -9 65 3 154 5 200 5 64 -1 84 2 88 14
4 10 11 12 22 6 21 -11 132 -20 132 -11 0 12 132 20 145 10 7 -6 80 -11 164
-13 83 -1 151 -6 151 -10 0 -10 71 2 84 14 6 5 18 1 30 -9 11 -9 16 -11 12 -4
-9 14 3 15 102 2 47 -6 91 -6 125 1 28 5 91 12 140 14 71 4 95 10 127 30 22
14 44 25 49 25 5 0 13 25 17 56 6 51 4 58 -18 81 -34 34 -120 43 -149 17 -11
-10 -27 -19 -37 -20 -9 -2 -39 -6 -67 -10 -27 -4 -60 -14 -73 -22 -12 -8 -39
-14 -60 -13 -121 4 -213 3 -255 -1 -26 -2 -50 -1 -53 4 -3 5 -13 3 -22 -4 -9
-7 -13 -8 -10 -3 7 12 -108 19 -126 8 -18 -12 -80 -3 -92 13 -12 15 -94 20
-94 5 0 -5 -9 -11 -20 -14 -11 -3 -20 -1 -20 5 0 9 -159 4 -250 -8 -68 -9
-450 -11 -450 -3 0 13 -46 11 -92 -3 -30 -9 -41 -9 -47 0 -4 7 -29 12 -57 11
-65 0 -158 14 -175 27 -8 6 -32 11 -54 11 -22 1 -41 5 -42 10 -6 16 -121 8
-142 -11 -13 -12 -20 -14 -23 -5 -2 6 -28 14 -58 17 -30 2 -61 9 -67 14 -7 6
-20 8 -29 4 -8 -3 -28 1 -44 9 -39 20 -87 19 -98 -1 -9 -16 -11 -16 -33 0 -24
16 -70 22 -82 10 -4 -4 -53 -9 -109 -10 -57 -2 -146 -6 -198 -10 -52 -3 -99
-5 -105 -4 -5 0 -46 3 -90 6 -44 3 -90 10 -102 16 -16 8 -36 8 -66 2 -23 -6
-55 -7 -70 -3 -16 4 -40 4 -55 -1 -47 -14 -152 -21 -152 -9 0 7 -29 9 -92 4
-108 -7 -378 -17 -425 -16 -18 1 -33 -4 -33 -9 0 -13 -39 -13 -80 1 -22 8 -34
8 -39 1 -8 -14 -32 -17 -55 -7 -13 6 -21 4 -24 -3 -5 -15 -22 -16 -22 -1 0 24
-28 34 -100 35 -41 0 -97 1 -125 2 -27 1 -57 2 -65 2 -8 0 -71 5 -140 11 -138
13 -235 16 -445 10 -77 -2 -147 -1 -155 2 -13 5 -156 12 -398 20 -34 1 -62 6
-62 11 0 4 -42 5 -95 1 -51 -4 -100 -3 -107 2 -7 4 -40 9 -73 9 -59 2 -173 14
-290 33 -33 5 -79 6 -102 4 -29 -4 -43 -2 -43 6 0 7 -13 9 -39 5 -24 -4 -41
-2 -45 5 -8 12 -7 12 -91 -1z m3940 -178 c3 -5 1 -10 -4 -10 -6 0 -11 5 -11
10 0 6 2 10 4 10 3 0 8 -4 11 -10z m-3465 -34 c0 -11 -19 -15 -25 -6 -3 5 1
10 9 10 9 0 16 -2 16 -4z m2403 -6 c8 0 8 -3 1 -10 -12 -12 -44 -3 -44 12 0 6
7 7 16 4 9 -3 21 -6 27 -6z m3977 0 c0 -5 -5 -10 -11 -10 -5 0 -7 5 -4 10 3 6
8 10 11 10 2 0 4 -4 4 -10z m-2285 -30 c3 -5 1 -10 -4 -10 -6 0 -11 5 -11 10
0 6 2 10 4 10 3 0 8 -4 11 -10z m-6221 -35 c-4 -8 -11 -15 -16 -15 -6 0 -5 6
2 15 7 8 14 15 16 15 2 0 1 -7 -2 -15z m4441 -25 c3 -5 1 -10 -4 -10 -6 0 -11
5 -11 10 0 6 2 10 4 10 3 0 8 -4 11 -10z m3870 -20 c-3 -5 -11 -10 -16 -10 -6
0 -7 5 -4 10 3 6 11 10 16 10 6 0 7 -4 4 -10z m-1585 -10 c0 -5 -5 -10 -11
-10 -5 0 -7 5 -4 10 3 6 8 10 11 10 2 0 4 -4 4 -10z m900 0 c0 -5 -9 -10 -21
-10 -11 0 -17 5 -14 10 3 6 13 10 21 10 8 0 14 -4 14 -10z m-8505 -10 c3 -5 1
-10 -4 -10 -6 0 -11 5 -11 10 0 6 2 10 4 10 3 0 8 -4 11 -10z m9045 0 c0 -5
-5 -10 -11 -10 -5 0 -7 5 -4 10 3 6 8 10 11 10 2 0 4 -4 4 -10z"/>
<path d="M7173 16259 c-5 -5 -117 -11 -249 -14 -398 -9 -429 -10 -441 -18 -6
-4 -73 -9 -148 -11 -75 -3 -142 -9 -148 -14 -7 -5 -45 -10 -86 -11 -41 -1 -92
-6 -115 -11 -23 -5 -70 -10 -106 -10 -37 0 -71 -5 -77 -11 -16 -16 -161 -19
-174 -3 -11 14 -35 9 -60 -13 -20 -17 -128 0 -146 24 -9 11 -22 13 -51 8 -25
-4 -42 -2 -47 4 -3 6 -21 11 -39 11 -27 0 -32 -4 -32 -22 1 -16 -10 -27 -41
-42 -24 -12 -43 -26 -43 -33 0 -22 31 -43 63 -43 42 0 77 -10 77 -22 0 -5 -4
-7 -10 -3 -5 3 -18 0 -28 -6 -15 -10 -17 -16 -8 -35 14 -30 69 -57 85 -41 9 9
16 9 30 0 15 -10 20 -9 25 2 7 19 114 20 159 2 38 -16 146 -14 232 3 67 13
196 28 295 35 82 5 142 13 194 25 23 5 88 12 146 15 138 8 166 13 186 32 14
15 17 15 25 1 7 -12 34 -15 146 -17 76 -1 143 -1 148 -1 219 3 494 -4 515 -13
8 -4 78 -9 155 -11 279 -9 372 -15 467 -31 59 -9 152 -15 235 -15 76 1 160 -4
188 -10 27 -6 66 -10 85 -9 20 2 40 0 45 -3 19 -10 223 -9 230 2 3 6 11 7 17
4 5 -4 54 -6 107 -5 53 1 103 1 111 0 8 -1 94 -2 190 -3 96 0 180 -4 186 -8 5
-4 27 -3 47 2 21 4 81 5 135 2 117 -8 139 -6 145 16 4 15 5 15 6 -1 1 -14 10
-17 63 -16 35 1 75 5 91 10 21 6 32 4 46 -10 13 -13 24 -15 51 -8 18 5 42 6
52 4 11 -3 21 0 24 8 4 10 11 10 37 -3 34 -17 69 -22 165 -21 34 0 62 -4 62
-8 0 -5 24 -6 54 -3 35 4 54 2 53 -4 -1 -6 29 -13 68 -17 39 -4 97 -10 130
-14 33 -5 96 -9 140 -9 44 -1 83 -5 87 -10 3 -5 62 -13 130 -18 67 -4 134 -10
148 -13 24 -5 229 -18 260 -16 79 4 109 7 116 14 12 12 36 8 28 -5 -5 -8 0 -9
14 -6 12 4 24 2 27 -3 3 -4 19 -6 35 -2 17 3 36 0 44 -6 10 -8 21 -9 33 -3 10
5 59 8 108 7 50 -1 104 2 121 7 20 5 42 5 59 -2 27 -10 493 -13 605 -4 25 2
99 5 165 7 66 2 129 8 140 14 29 16 122 34 140 27 8 -4 21 -2 28 4 7 6 42 9
79 7 50 -3 70 0 79 11 11 14 30 15 174 14 83 0 130 2 139 8 11 6 247 14 346
10 30 -1 133 -1 229 -1 133 1 176 4 183 15 7 10 11 10 15 1 2 -8 23 -13 46
-13 23 0 71 -5 107 -10 36 -5 94 -11 130 -15 36 -3 106 -10 155 -15 132 -14
152 -11 175 28 11 18 20 39 20 47 0 8 9 20 20 27 27 17 25 30 -10 56 -16 13
-30 29 -30 37 0 8 -3 14 -7 13 -5 -1 -20 2 -36 6 -16 5 -32 4 -40 -2 -12 -10
-203 -10 -327 1 -36 3 -114 9 -174 12 -61 3 -113 8 -117 11 -4 2 -10 0 -13 -5
-3 -4 -58 -8 -122 -7 -64 0 -118 -2 -120 -5 -2 -3 -27 -2 -55 2 -31 5 -71 4
-101 -2 -28 -6 -62 -9 -78 -6 -15 3 -48 0 -73 -8 -36 -11 -61 -11 -116 -3 -39
6 -78 7 -88 3 -10 -4 -52 -9 -93 -11 -41 -2 -99 -9 -127 -15 -29 -6 -62 -7
-73 -4 -12 4 -27 1 -35 -5 -8 -7 -34 -11 -57 -9 -24 1 -55 -1 -71 -5 -17 -5
-32 -4 -41 3 -11 10 -27 9 -67 -3 -29 -9 -67 -16 -84 -16 -17 0 -36 -5 -41
-10 -7 -7 -63 -11 -140 -11 -73 0 -131 -4 -135 -10 -4 -6 -15 -6 -31 0 -26 10
-133 7 -169 -4 -10 -3 -44 -1 -76 5 -32 5 -129 11 -214 11 -86 1 -162 5 -170
9 -7 5 -21 5 -30 0 -9 -5 -30 -10 -45 -11 -35 -1 -283 8 -414 16 -52 3 -159 7
-238 10 -78 2 -148 7 -155 12 -6 4 -26 6 -43 4 -18 -1 -35 2 -39 8 -4 7 -50
11 -119 11 -62 0 -115 3 -119 6 -3 3 -39 8 -79 10 -40 3 -86 9 -103 14 -16 5
-57 9 -90 10 -112 0 -219 10 -225 20 -4 6 -22 11 -41 11 -19 1 -86 3 -149 6
-63 2 -144 4 -180 3 -192 -5 -332 -5 -335 0 -2 3 -108 4 -237 3 -128 -2 -240
0 -248 3 -30 12 -288 16 -294 5 -8 -13 -56 -15 -56 -2 0 5 -27 8 -60 6 -36 -2
-70 3 -87 12 -20 10 -74 14 -218 15 -124 1 -208 6 -243 14 -29 8 -56 13 -60
13 -4 -1 -9 0 -12 1 -17 6 -72 11 -205 15 -234 8 -527 31 -556 43 -16 6 -30 7
-36 1z m-253 -195 c0 -2 -7 -4 -15 -4 -8 0 -15 4 -15 10 0 5 7 7 15 4 8 -4 15
-8 15 -10z m940 -14 c0 -5 -4 -10 -10 -10 -5 0 -10 5 -10 10 0 6 5 10 10 10 6
0 10 -4 10 -10z m145 -30 c3 -5 1 -10 -4 -10 -6 0 -11 5 -11 10 0 6 2 10 4 10
3 0 8 -4 11 -10z m1004 -50 c-14 -9 -29 -4 -29 10 0 12 34 18 39 7 2 -5 -3
-13 -10 -17z m3421 -130 c0 -5 -4 -10 -10 -10 -5 0 -10 5 -10 10 0 6 5 10 10
10 6 0 10 -4 10 -10z m-975 -10 c-3 -5 -11 -10 -16 -10 -6 0 -7 5 -4 10 3 6
11 10 16 10 6 0 7 -4 4 -10z"/>
<path d="M14890 12604 c-41 -6 -86 -16 -100 -22 -14 -5 -52 -10 -84 -11 -32 0
-63 -5 -70 -10 -14 -12 -118 -17 -135 -7 -6 4 -17 3 -24 -3 -7 -5 -44 -13 -82
-17 -39 -3 -95 -14 -125 -24 -30 -10 -91 -21 -135 -25 -44 -4 -90 -11 -103
-16 -22 -8 -196 -28 -297 -34 -27 -1 -63 -8 -78 -14 -16 -6 -39 -8 -52 -5 -13
3 -29 3 -35 -1 -6 -4 -41 -9 -78 -10 -362 -19 -476 -27 -488 -36 -6 -5 -18 -7
-27 -3 -8 3 -18 1 -21 -5 -7 -11 -64 -4 -82 10 -6 5 -39 4 -74 -2 -36 -6 -73
-8 -84 -5 -11 3 -54 0 -96 -6 -76 -12 -85 -12 -155 -10 -22 1 -58 0 -80 -3
-22 -2 -58 -6 -80 -8 -70 -8 -125 -19 -131 -28 -3 -5 -30 -9 -60 -9 -31 0 -64
-5 -76 -11 -14 -8 -28 -7 -49 2 -23 9 -33 9 -42 0 -6 -6 -39 -11 -73 -11 -35
0 -66 -4 -69 -10 -3 -5 -24 -10 -46 -10 -22 0 -70 -5 -107 -10 -75 -11 -166
-20 -257 -25 -33 -2 -89 -6 -125 -9 -36 -3 -100 -1 -142 5 -52 6 -84 7 -96 0
-23 -12 -76 -14 -209 -6 -65 4 -103 2 -108 -4 -3 -6 -24 -8 -50 -4 -25 3 -45
2 -45 -3 0 -5 -60 -8 -133 -6 -203 5 -357 2 -412 -10 -27 -6 -90 -12 -139 -14
-48 -3 -132 -15 -185 -27 -53 -13 -109 -24 -125 -25 -17 -1 -32 -6 -35 -10 -3
-4 -33 -8 -66 -8 -33 0 -78 -5 -99 -12 -22 -6 -124 -11 -235 -11 -108 0 -214
-4 -236 -7 -22 -4 -94 -8 -160 -9 -66 -1 -124 -3 -130 -5 -17 -5 -166 -10
-280 -10 -256 1 -381 -3 -490 -15 -33 -3 -114 -7 -180 -9 -66 -1 -133 -8 -148
-14 -16 -7 -53 -12 -83 -12 -30 0 -54 -3 -54 -8 0 -4 -26 -8 -58 -8 -32 0 -73
-8 -90 -17 -19 -9 -34 -12 -38 -6 -3 6 -11 5 -20 -2 -8 -7 -36 -12 -62 -11
-26 1 -130 2 -232 4 -102 2 -191 7 -198 11 -7 5 -59 11 -115 14 -56 3 -131 7
-167 8 -68 4 -139 4 -528 2 -212 -2 -235 0 -246 16 -16 21 -39 22 -56 2 -12
-14 -15 -13 -32 5 -19 20 -72 28 -82 12 -3 -5 -19 -7 -36 -4 -25 4 -38 -2 -66
-29 -19 -18 -34 -40 -34 -50 0 -9 -7 -22 -15 -29 -29 -24 -11 -70 26 -70 9 0
16 -7 15 -16 -2 -24 69 -61 107 -57 129 15 144 15 207 9 89 -10 296 -8 358 3
34 7 66 9 71 6 5 -3 22 0 37 6 16 5 30 6 31 2 3 -7 149 -9 173 -3 3 1 29 1 58
0 34 -1 52 3 52 10 0 9 4 9 15 0 9 -7 44 -14 78 -14 34 -1 68 -5 75 -9 6 -5
32 -5 57 -1 25 3 53 3 62 -1 28 -12 201 -16 208 -5 9 14 47 12 68 -4 13 -10
29 -11 65 -4 26 5 72 11 102 12 48 3 161 23 225 40 34 9 106 17 200 22 50 2
115 9 145 14 30 5 195 12 365 15 171 3 369 8 440 11 136 7 424 15 483 14 9 -1
51 1 92 4 271 16 289 18 310 31 5 3 47 6 91 7 62 0 91 5 117 20 23 13 37 16
42 9 4 -8 25 -8 71 -1 263 41 380 52 624 55 88 2 216 6 285 10 133 8 430 9
437 2 2 -3 36 -2 76 1 40 3 126 6 193 7 66 1 144 8 172 15 28 6 55 9 61 6 5
-4 29 0 53 8 24 8 84 17 133 20 115 9 143 13 295 42 69 14 148 26 175 28 28 3
50 5 50 6 0 2 40 6 143 16 45 4 82 11 82 15 0 13 58 11 65 -1 4 -6 10 -8 15
-5 4 3 117 7 251 10 241 6 301 9 369 19 45 7 134 13 295 21 71 4 134 10 140
15 5 4 21 8 35 8 42 0 174 13 190 19 8 4 40 8 71 9 31 2 69 8 83 14 37 14 133
13 142 -2 5 -8 10 -7 18 4 16 22 216 62 296 59 19 -1 78 6 130 14 52 9 142 17
200 19 110 2 174 17 184 41 3 8 12 15 19 15 15 0 37 61 37 103 0 50 -101 72
-230 51z m-9060 -794 c0 -5 -7 -10 -16 -10 -8 0 -12 5 -9 10 3 6 10 10 16 10
5 0 9 -4 9 -10z"/>
<path d="M15120 9708 c-101 -30 -110 -31 -110 -19 0 7 -5 9 -11 6 -6 -4 -31
-9 -57 -11 -26 -2 -60 -6 -77 -9 -105 -16 -149 -19 -220 -15 -77 5 -492 -5
-565 -14 -19 -2 -64 -7 -100 -10 -36 -4 -104 -13 -153 -21 -48 -8 -103 -15
-122 -15 -19 0 -55 -7 -80 -15 -39 -14 -76 -14 -302 -4 -142 6 -310 10 -373 8
-63 -1 -196 -4 -295 -5 -99 -1 -187 -2 -195 -3 -8 0 -105 -1 -215 -1 -110 1
-229 -4 -265 -9 -36 -5 -83 -13 -105 -16 -22 -3 -44 -11 -50 -19 -7 -9 -19
-10 -39 -5 -17 5 -35 5 -40 0 -6 -5 -24 -9 -41 -9 -38 -1 -56 -5 -75 -17 -8
-5 -39 -8 -68 -6 -29 1 -58 -1 -65 -7 -31 -25 -157 -36 -457 -40 -52 0 -108
-1 -125 -1 -16 -1 -70 3 -120 9 -49 5 -115 12 -145 16 -62 6 -177 15 -200 14
-8 0 -120 -2 -247 -4 -128 -3 -248 -8 -265 -12 -18 -4 -44 -9 -58 -10 -95 -7
-180 -17 -210 -24 -19 -5 -58 -10 -85 -10 -28 0 -59 0 -70 -1 -11 -1 -74 -2
-140 -3 -66 -1 -129 -7 -141 -14 -15 -8 -24 -8 -32 0 -7 7 -135 11 -381 13
-316 3 -371 1 -371 -11 0 -16 -12 -18 -26 -5 -10 11 -179 17 -204 8 -24 -9
-110 -13 -112 -5 -4 9 -221 14 -235 5 -7 -4 -22 -3 -34 4 -17 8 -23 8 -29 -2
-7 -10 -14 -10 -39 1 -17 7 -37 10 -46 6 -8 -3 -15 -2 -15 3 0 11 -164 0 -172
-12 -4 -8 -10 -8 -20 0 -7 6 -44 11 -83 12 -133 3 -230 9 -275 15 -65 10 -291
13 -296 4 -7 -11 -44 -10 -44 0 0 5 -60 10 -132 11 -73 1 -171 6 -218 10 -53
6 -89 5 -97 0 -10 -9 -112 -12 -277 -9 -26 0 -54 -4 -61 -10 -11 -9 -18 -5
-30 14 -14 20 -26 26 -54 26 -20 0 -41 -4 -47 -8 -16 -13 -77 -30 -113 -30
-18 -1 -39 -6 -44 -11 -6 -6 -20 -11 -31 -11 -37 0 -85 -37 -94 -72 -8 -31 -7
-34 26 -51 18 -10 36 -16 39 -13 3 3 17 -3 30 -14 13 -10 31 -16 39 -13 8 3
24 -1 37 -9 31 -20 115 -40 130 -31 24 16 96 30 106 20 5 -5 11 -5 15 2 4 6
18 11 32 11 13 0 24 5 24 10 0 6 7 10 15 10 8 0 15 -5 15 -11 0 -6 11 -8 28
-5 29 6 235 20 292 19 411 -5 1065 -25 1245 -39 44 -3 89 -5 100 -5 11 0 65 0
120 0 154 -2 221 -1 343 5 61 4 112 2 112 -2 0 -5 33 -4 73 1 39 5 122 9 182
8 128 -2 116 -2 617 -2 229 0 429 5 490 11 57 7 153 12 213 12 61 0 113 5 116
10 6 10 435 14 574 5 105 -6 441 -17 600 -19 104 -2 160 2 217 16 42 10 82 15
88 11 6 -4 17 -1 25 5 8 6 19 9 25 5 6 -4 22 1 36 9 18 13 36 15 74 10 36 -5
59 -2 83 9 46 22 216 55 322 62 71 4 364 8 468 5 35 0 48 0 75 1 63 4 619 2
758 -2 110 -3 155 -1 166 8 9 8 53 13 117 14 73 2 104 6 108 15 3 9 12 10 27
4 29 -11 127 -11 141 -1 5 5 46 12 90 17 44 4 91 9 105 10 14 2 203 6 420 9
413 6 439 7 480 19 14 4 54 10 90 14 l64 7 19 50 c34 91 33 96 -28 146 -19 15
-25 15 -85 -3z"/>
<path d="M24330 25721 c0 -6 -8 -11 -17 -11 -10 -1 -36 -9 -58 -20 -22 -11
-45 -19 -50 -20 -6 0 -17 -6 -23 -12 -7 -7 -25 -14 -40 -15 -51 -4 -79 -10
-93 -18 -7 -5 -25 -10 -38 -11 -14 -2 -27 -8 -29 -13 -2 -5 -9 -8 -17 -5 -7 3
-16 1 -19 -4 -3 -5 -16 -7 -29 -5 -20 4 -31 -5 -61 -46 -21 -28 -49 -54 -62
-57 -13 -3 -24 -12 -24 -19 0 -6 -11 -25 -25 -41 -17 -19 -25 -42 -26 -69 -4
-104 -6 -122 -17 -148 -7 -16 -12 -41 -12 -57 0 -29 34 -149 51 -182 5 -10 9
-25 9 -33 0 -8 7 -15 15 -15 8 0 15 -6 15 -14 0 -8 6 -16 14 -19 8 -3 16 -16
18 -29 2 -13 8 -22 14 -21 6 1 25 -15 43 -37 l31 -39 -21 -88 c-12 -48 -22
-97 -24 -108 -5 -43 -18 -100 -24 -110 -3 -5 -7 -32 -8 -59 -1 -27 -6 -53 -12
-59 -6 -6 -11 -24 -11 -39 0 -16 -4 -36 -9 -46 -5 -9 -16 -33 -25 -53 -9 -20
-22 -42 -31 -49 -12 -10 -31 -58 -40 -100 0 -3 -6 -14 -12 -25 -6 -11 -14 -37
-18 -58 -4 -20 -11 -37 -16 -37 -5 0 -9 -9 -9 -19 0 -11 -5 -23 -10 -26 -6 -4
-10 -14 -8 -23 1 -10 -1 -22 -4 -28 -4 -6 -12 -51 -18 -100 -5 -49 -14 -103
-19 -120 -5 -17 -12 -60 -16 -95 -7 -64 -19 -115 -38 -156 -5 -11 -6 -26 -3
-32 4 -6 0 -26 -9 -44 -8 -18 -17 -53 -19 -77 -3 -25 -7 -56 -11 -70 -3 -14
-7 -37 -10 -52 -2 -14 -8 -34 -13 -45 -5 -10 -12 -54 -14 -99 -2 -44 -8 -87
-13 -94 -5 -8 -8 -31 -6 -50 1 -21 -3 -41 -11 -47 -7 -6 -58 -16 -113 -22 -98
-10 -120 -13 -260 -31 -38 -4 -92 -11 -120 -14 -27 -3 -81 -13 -120 -22 -38
-9 -91 -18 -118 -20 -26 -2 -57 -9 -68 -15 -12 -6 -58 -13 -103 -15 -128 -7
-140 -9 -163 -22 -17 -10 -28 -10 -44 -2 -15 9 -24 8 -37 -2 -13 -11 -14 -11
-8 1 7 11 1 12 -33 6 -26 -4 -47 -3 -55 4 -26 21 -174 29 -326 16 -52 -4 -160
-8 -240 -9 -80 -1 -151 -5 -158 -10 -7 -4 -19 -3 -27 4 -9 7 -26 9 -45 5 -16
-4 -84 -8 -150 -10 -66 -2 -125 -7 -131 -11 -6 -3 -14 -3 -18 2 -3 5 -25 14
-48 20 -35 9 -44 8 -57 -5 -12 -11 -16 -12 -16 -2 0 10 -13 11 -59 6 -40 -4
-61 -3 -66 5 -7 12 -93 11 -101 -1 -5 -8 -40 -2 -71 13 -18 9 -27 8 -41 -5
-23 -21 -32 -21 -32 -3 0 10 -15 15 -51 18 -27 1 -53 0 -57 -4 -13 -12 -106
-15 -170 -6 -59 9 -64 8 -82 -14 -11 -13 -19 -18 -20 -12 0 6 -18 14 -40 18
-22 3 -61 13 -86 22 -32 11 -49 12 -53 5 -8 -12 -152 -7 -221 8 -25 5 -78 8
-119 6 -44 -2 -90 2 -112 10 -29 11 -52 11 -109 2 -49 -7 -74 -8 -78 0 -8 11
1 11 -295 21 -139 4 -220 11 -225 18 -10 16 -80 16 -112 -1 -15 -8 -30 -11
-34 -8 -11 12 -40 12 -52 2 -7 -6 -27 -8 -46 -5 -18 3 -73 8 -123 11 -86 4
-90 4 -117 -22 -26 -25 -38 -63 -20 -63 4 0 13 -14 21 -31 17 -39 87 -85 106
-69 27 22 225 -3 263 -33 20 -16 93 -14 147 3 28 9 69 16 93 15 23 -1 42 3 42
8 0 5 6 4 14 -2 9 -8 50 -10 125 -8 88 4 111 2 111 -9 0 -7 16 -16 38 -19 20
-4 45 -9 55 -12 13 -3 20 2 24 16 7 27 23 27 23 1 0 -15 7 -20 28 -21 70 -4
89 -6 115 -12 28 -8 74 13 60 26 -3 4 -1 7 5 7 5 0 12 -5 14 -12 3 -8 29 -11
79 -10 41 1 97 -3 124 -8 28 -6 86 -12 130 -14 44 -3 101 -7 126 -11 35 -6 49
-4 60 7 9 10 23 13 44 9 16 -4 83 -6 148 -5 104 1 122 4 148 23 21 16 29 18
29 8 0 -11 27 -16 113 -22 61 -4 128 -9 147 -10 19 -2 40 1 46 6 13 10 36 9
45 -3 3 -5 49 -9 102 -10 53 -1 97 -5 97 -8 0 -6 206 -4 380 5 69 3 166 6 215
6 107 -1 139 5 128 22 -5 9 -3 9 8 1 25 -19 63 -23 89 -9 14 7 31 10 40 5 8
-4 37 -10 65 -14 44 -6 52 -4 68 16 17 21 18 22 15 3 -3 -18 3 -20 52 -21 30
0 61 4 68 9 8 7 18 5 30 -5 13 -12 39 -14 117 -12 55 2 100 4 100 5 0 1 23 3
50 5 28 2 77 8 110 14 33 6 84 12 113 14 29 2 56 7 59 10 4 3 16 6 29 6 12 0
34 7 50 15 17 8 32 11 37 6 11 -11 36 -3 56 17 8 7 24 11 36 8 12 -3 30 1 41
9 20 15 38 20 31 8 -3 -5 38 -7 91 -6 53 0 98 5 99 10 2 5 21 7 43 5 39 -4 40
-5 36 -39 -6 -45 -26 -131 -37 -161 -5 -13 -9 -36 -9 -52 0 -17 -4 -30 -10
-30 -5 0 -10 -18 -10 -41 0 -27 -10 -60 -30 -96 -16 -30 -30 -63 -30 -73 0
-10 -4 -22 -10 -25 -5 -3 -10 -15 -10 -26 0 -11 -7 -31 -16 -44 -9 -13 -13
-29 -10 -34 4 -6 -5 -33 -19 -60 -14 -28 -25 -67 -25 -87 0 -21 -6 -42 -15
-48 -8 -7 -16 -32 -17 -62 -2 -29 -6 -50 -10 -48 -10 6 -48 -46 -48 -66 0 -9
-9 -25 -19 -34 -16 -15 -18 -22 -9 -42 10 -20 8 -28 -10 -44 -25 -24 -32 -25
-32 -5 0 8 -3 14 -7 13 -5 -1 -19 4 -32 11 -13 7 -36 11 -51 7 -22 -4 -29 -1
-33 14 -3 12 -14 20 -25 20 -12 0 -24 5 -27 10 -11 17 -66 11 -93 -11 -23 -18
-27 -28 -28 -80 0 -33 3 -62 8 -65 5 -3 6 -9 3 -14 -13 -22 16 -50 50 -50 20
0 43 -4 53 -9 30 -16 121 -33 133 -25 9 5 10 2 6 -9 -5 -13 -1 -17 15 -17 12
0 29 -7 38 -15 11 -10 48 -17 116 -21 54 -3 100 -9 102 -14 2 -6 10 -6 20 -1
9 5 55 9 102 10 109 2 143 8 169 32 39 37 14 119 -36 119 -16 0 -27 7 -30 19
-3 11 -11 17 -18 15 -7 -3 -22 -1 -33 5 -12 6 -22 7 -28 1 -5 -5 -28 -11 -49
-13 -22 -2 -53 -8 -70 -12 l-30 -8 24 27 c14 14 32 26 41 26 16 0 40 18 40 31
0 4 -16 3 -36 -3 -44 -12 -51 -6 -34 29 15 30 17 38 26 98 4 22 11 46 18 54 6
8 11 26 12 41 1 16 9 43 18 61 9 17 16 47 16 66 0 18 5 42 10 53 6 11 15 29
20 40 6 11 10 29 10 39 0 11 5 23 10 26 6 3 10 18 10 33 0 27 18 86 33 109 4
7 13 10 20 7 10 -3 12 5 9 31 -3 23 1 42 11 53 18 20 25 62 13 80 -7 12 -1 35
24 97 5 11 11 36 14 55 4 19 8 45 10 57 2 13 14 38 25 56 11 19 18 36 15 40
-3 3 3 14 13 24 12 12 32 18 63 18 29 -1 49 5 57 15 8 9 12 10 13 3 0 -15 237
-11 267 5 11 6 24 8 28 4 3 -4 34 -8 68 -9 34 -1 73 -3 87 -3 14 -1 63 -1 111
-1 47 1 100 -4 118 -9 18 -5 46 -7 62 -3 17 3 35 0 44 -7 12 -10 18 -10 30 0
11 9 19 9 28 2 10 -8 28 -7 67 3 38 10 56 11 61 3 4 -6 23 -9 43 -6 20 2 36 0
36 -4 0 -11 48 -10 55 2 3 5 15 6 29 0 27 -10 280 -5 298 6 7 4 31 7 55 5 23
-1 47 1 54 4 11 8 74 8 280 5 101 -2 133 0 159 14 40 19 40 19 40 2 0 -9 18
-16 55 -21 30 -3 57 -10 60 -15 3 -5 18 -5 33 -1 23 6 187 7 187 1 0 -8 214
-9 237 -1 16 6 27 7 24 2 -6 -9 561 -7 571 2 3 4 11 3 17 -1 12 -10 167 -38
256 -48 98 -10 107 -12 127 -22 11 -6 57 -13 102 -16 101 -6 229 -25 256 -38
13 -6 30 -5 47 1 18 7 28 7 30 0 4 -13 290 -17 525 -7 95 4 175 3 178 -2 3 -4
23 -6 45 -3 23 3 46 1 54 -6 7 -6 20 -9 29 -5 23 8 30 -12 13 -38 -19 -29 -73
-183 -80 -227 -2 -18 -9 -38 -15 -44 -6 -6 -11 -23 -11 -38 0 -15 -7 -32 -16
-40 -8 -7 -13 -21 -11 -30 3 -10 -1 -23 -8 -29 -18 -15 -24 -69 -30 -265 -4
-107 -10 -172 -17 -176 -6 -4 -8 -19 -5 -37 3 -16 2 -45 -3 -63 -4 -19 -10
-56 -13 -82 -4 -38 -2 -47 9 -43 8 3 14 1 14 -3 0 -5 -5 -11 -10 -13 -15 -5
-32 -129 -20 -143 6 -7 8 -14 5 -16 -6 -7 -7 -164 0 -302 3 -72 1 -126 -5
-137 -6 -11 -12 -39 -14 -62 -2 -24 -11 -63 -21 -88 -16 -44 -19 -144 -4 -165
13 -18 13 -159 1 -163 -7 -2 -12 -16 -12 -31 0 -15 -3 -31 -7 -35 -12 -11 -9
-70 5 -84 6 -7 12 -27 12 -43 0 -18 5 -29 14 -29 11 0 12 -7 4 -34 -6 -19 -8
-43 -4 -53 4 -10 7 -20 6 -23 -2 -7 33 -19 62 -19 15 -1 43 6 61 15 33 16 35
15 75 -10 23 -14 45 -26 50 -26 5 0 17 -9 27 -20 10 -11 20 -18 23 -15 3 3 12
-4 19 -15 8 -11 31 -29 51 -39 20 -11 49 -31 64 -45 15 -14 30 -26 34 -26 4 0
15 -6 23 -13 9 -8 41 -24 71 -36 30 -13 61 -28 69 -35 12 -10 88 -14 278 -15
23 0 55 -7 70 -14 16 -8 53 -20 83 -27 30 -7 60 -16 65 -20 6 -4 27 -10 49
-13 21 -3 47 -14 58 -24 16 -15 21 -15 28 -3 7 12 12 12 22 2 6 -6 27 -12 44
-12 18 0 36 -5 40 -11 3 -6 15 -9 25 -6 11 3 50 -2 87 -10 51 -12 152 -16 432
-18 201 -2 373 -4 383 -4 13 -1 17 -10 17 -35 0 -19 5 -38 10 -41 13 -8 13
-95 -1 -95 -6 0 -1 -13 10 -28 12 -17 16 -33 11 -38 -5 -5 -11 -40 -14 -79 -7
-99 -33 -244 -46 -260 -8 -10 -9 -36 -5 -82 13 -124 7 -457 -9 -504 -3 -8 -7
-69 -10 -137 -3 -68 -9 -128 -13 -135 -4 -6 -8 -102 -10 -212 -2 -110 -10
-252 -18 -315 -9 -63 -18 -209 -21 -325 -3 -115 -10 -218 -15 -227 -6 -11 -5
-27 3 -43 9 -21 9 -28 -1 -35 -10 -5 -11 -16 -6 -36 12 -45 14 -108 4 -120 -5
-7 -9 -29 -8 -50 2 -73 -13 -209 -26 -239 -7 -16 -12 -54 -12 -83 1 -28 -1
-52 -5 -52 -5 0 -8 -11 -8 -24 0 -14 -5 -28 -11 -31 -6 -4 -8 -14 -5 -22 3 -8
2 -33 -3 -56 -6 -23 -12 -67 -15 -97 -3 -30 -8 -68 -12 -85 -10 -58 -12 -169
-2 -195 11 -29 17 -135 23 -403 3 -104 6 -191 9 -195 2 -4 0 -32 -4 -62 -4
-32 -4 -60 2 -67 15 -18 10 -302 -7 -403 -3 -19 -8 -64 -11 -100 -2 -36 -6
-78 -8 -95 -25 -193 -28 -256 -22 -439 17 -520 12 -781 -16 -831 -8 -14 -22
-296 -18 -360 0 -5 4 -53 9 -106 7 -90 6 -373 -3 -387 -2 -4 -4 -41 -5 -82 0
-41 -6 -111 -12 -155 -7 -44 -13 -125 -15 -180 -1 -55 -5 -131 -8 -170 -2 -38
-7 -141 -10 -228 -3 -86 -11 -228 -17 -315 -12 -169 -14 -209 -24 -462 -3 -91
-6 -169 -7 -175 0 -5 1 -113 1 -240 1 -126 -1 -270 -5 -320 -3 -49 -6 -125 -5
-169 1 -43 -3 -102 -8 -130 -6 -28 -13 -134 -16 -236 -3 -102 -8 -246 -11
-320 -12 -324 -12 -392 -3 -510 12 -144 43 -437 63 -590 8 -58 14 -171 15
-252 1 -153 14 -310 30 -365 5 -17 7 -34 4 -37 -10 -10 5 -284 16 -301 4 -5 7
-139 6 -297 0 -210 3 -289 11 -292 7 -3 14 -22 18 -43 3 -21 10 -67 16 -103
20 -123 27 -247 19 -361 -9 -136 -26 -287 -41 -349 -16 -71 -14 -378 4 -405 6
-10 2 -301 -6 -380 -2 -22 -8 -51 -14 -65 -5 -14 -7 -29 -5 -34 10 -16 9 -191
0 -211 -6 -10 -9 -60 -9 -110 1 -77 -5 -157 -23 -290 -2 -16 -8 -68 -13 -115
-5 -47 -14 -105 -21 -130 -9 -38 -36 -270 -39 -350 -3 -58 -15 -126 -23 -135
-12 -12 -12 -52 0 -60 6 -3 10 -13 10 -23 0 -9 3 -36 7 -59 6 -38 4 -43 -12
-44 -11 -1 -50 -3 -89 -5 -38 -2 -89 -9 -112 -15 -23 -6 -47 -9 -55 -6 -7 2
-22 0 -33 -6 -24 -13 -31 -14 -170 -25 -60 -5 -118 -13 -128 -17 -9 -4 -23 -3
-30 3 -7 6 -29 7 -57 2 -24 -4 -67 -6 -95 -3 -27 2 -84 0 -125 -5 -41 -5 -79
-6 -85 -2 -11 9 -100 5 -126 -5 -10 -3 -19 -2 -22 2 -6 10 -261 8 -293 -2 -12
-4 -25 -2 -28 4 -5 7 -15 7 -32 1 -14 -6 -30 -7 -35 -4 -6 3 -16 0 -24 -6 -9
-8 -25 -9 -42 -5 -53 15 -65 15 -106 2 -30 -10 -90 -13 -207 -11 -195 4 -475
20 -489 28 -5 4 -12 2 -15 -2 -3 -5 -29 -10 -58 -11 -28 -1 -54 -4 -56 -6 -3
-3 -11 0 -18 6 -7 5 -54 13 -106 16 -51 3 -98 9 -104 14 -16 13 -221 18 -234
5 -8 -8 -13 -7 -19 2 -5 8 -32 12 -82 12 -41 0 -96 3 -124 6 -27 3 -84 8 -125
11 -41 3 -83 9 -93 14 -9 6 -22 7 -28 4 -10 -7 -151 -16 -226 -15 -23 1 -44
-4 -48 -10 -4 -6 -21 -11 -38 -11 -115 0 -194 -5 -204 -12 -6 -4 -47 -10 -90
-13 -43 -3 -94 -7 -113 -9 -19 -2 -62 -7 -95 -10 -33 -3 -80 -7 -105 -10 -25
-3 -58 -4 -75 -3 -53 3 -89 1 -125 -7 -29 -6 -116 -12 -200 -14 -8 -1 -26 -1
-40 -2 -14 -1 -32 -1 -40 -1 -8 0 -73 0 -145 0 -71 0 -147 0 -167 1 -21 0 -50
-4 -64 -9 -18 -7 -31 -7 -40 1 -7 6 -18 8 -23 5 -6 -4 -105 -7 -221 -7 -115
-1 -213 -5 -216 -10 -3 -5 -22 -9 -42 -9 -43 0 -230 -20 -252 -27 -8 -3 -52
-4 -97 -3 -53 1 -83 -3 -83 -9 0 -6 -20 -10 -47 -10 -27 0 -93 -2 -148 -6 -55
-4 -120 -7 -144 -6 -25 0 -50 -4 -57 -10 -6 -5 -32 -11 -56 -13 -25 -2 -55 -9
-67 -16 -15 -7 -40 -9 -71 -5 -33 4 -57 2 -76 -7 -20 -10 -56 -13 -114 -11
-127 4 -132 4 -145 -7 -7 -6 -15 -6 -22 1 -14 14 -258 13 -285 -2 -16 -9 -23
-8 -29 2 -5 10 -35 15 -103 17 -53 2 -149 9 -214 16 -93 10 -121 11 -137 1
-11 -7 -29 -10 -40 -8 -43 12 -164 14 -184 4 -15 -8 -30 -8 -58 2 -30 10 -45
10 -73 0 -41 -14 -90 -17 -90 -4 0 4 -12 6 -26 3 -14 -2 -29 0 -33 6 -7 12
-235 24 -246 14 -10 -10 -185 -9 -185 1 0 8 -605 2 -619 -7 -4 -3 -58 -2 -120
2 -62 4 -114 5 -117 1 -4 -7 -90 -3 -239 12 -55 6 -116 11 -137 12 -20 1 -39
5 -43 9 -4 4 -18 2 -32 -3 -16 -6 -30 -6 -37 0 -7 6 -42 8 -79 7 -37 -2 -70 0
-73 5 -3 5 -23 6 -44 3 -21 -4 -60 -1 -87 5 -34 9 -62 9 -93 2 -29 -6 -48 -6
-56 0 -8 7 -14 6 -17 -3 -3 -10 -9 -10 -23 -2 -11 6 -46 12 -79 12 -33 1 -112
6 -175 11 -63 5 -126 9 -140 9 -14 0 -34 3 -46 7 -14 4 -27 1 -38 -11 -17 -16
-20 -16 -45 -1 -28 16 -124 18 -149 4 -5 -4 -12 -1 -14 5 -3 9 -37 15 -99 20
-52 4 -116 11 -142 16 -30 6 -50 5 -54 -1 -3 -6 -8 -6 -12 1 -9 15 -204 28
-316 22 -55 -3 -105 -2 -112 3 -7 5 -17 6 -23 2 -7 -4 -78 -7 -158 -7 -81 0
-164 -4 -185 -8 -29 -6 -40 -5 -44 6 -4 10 -10 11 -23 4 -15 -8 -83 -7 -175 2
-5 1 -27 -2 -47 -6 -21 -4 -39 -2 -42 3 -8 12 -106 3 -120 -10 -16 -14 -46
-10 -46 6 0 12 -15 15 -73 15 -40 0 -77 4 -83 9 -8 9 -92 19 -189 24 -22 1
-46 6 -53 10 -7 5 -47 8 -90 8 -91 -2 -207 4 -268 14 -30 4 -44 3 -44 -5 0
-15 -123 -11 -171 5 -19 7 -62 15 -95 19 -32 3 -84 11 -114 16 -30 6 -72 11
-92 10 -20 0 -39 4 -43 10 -3 5 -17 10 -31 10 -14 0 -22 4 -19 10 4 6 -20 9
-64 8 -46 -2 -75 2 -83 10 -9 9 -14 59 -15 170 -5 420 -15 528 -64 692 -12 41
-22 103 -23 138 -1 34 -5 62 -11 62 -5 0 -10 26 -10 57 -1 152 -9 350 -16 363
-10 21 -41 297 -38 340 2 20 -1 41 -5 48 -13 21 -17 132 -5 153 5 11 20 24 32
28 18 7 21 15 18 52 -1 24 -8 50 -14 58 -14 16 -59 36 -72 30 -5 -2 -35 -3
-65 -4 -51 0 -56 -2 -69 -30 -8 -16 -16 -59 -17 -95 -2 -36 -6 -90 -9 -121 -3
-30 -3 -58 1 -61 8 -9 18 -100 18 -175 0 -35 4 -63 8 -63 4 0 8 -20 8 -44 0
-25 5 -48 11 -52 7 -4 9 -25 7 -56 -3 -27 -1 -51 3 -54 13 -7 11 -152 -1 -159
-6 -4 -8 -11 -4 -16 3 -6 8 -60 11 -122 4 -102 34 -267 53 -292 9 -12 17 -55
30 -153 6 -40 14 -81 20 -91 5 -10 6 -22 2 -26 -4 -4 -8 -26 -8 -48 -1 -23 -4
-73 -8 -112 -3 -38 -8 -113 -10 -165 -3 -52 -8 -105 -11 -116 -4 -12 -2 -25 3
-28 6 -3 8 -23 5 -44 -6 -44 32 -181 55 -199 10 -8 16 -30 16 -61 1 -27 7 -56
14 -65 9 -10 11 -27 7 -47 -8 -34 16 -72 65 -102 63 -38 144 13 167 104 8 28
16 54 18 57 3 2 56 -5 118 -17 62 -12 126 -22 143 -22 17 0 39 -8 50 -18 16
-15 26 -17 59 -9 22 5 51 9 65 8 14 0 117 -2 230 -4 113 -2 207 -5 210 -6 3 0
59 -3 125 -6 234 -10 291 -14 308 -21 9 -3 24 -3 33 0 9 4 22 0 28 -8 14 -17
158 -35 281 -35 50 0 95 -1 100 -2 6 0 66 0 135 2 367 9 820 2 837 -13 9 -7
13 -7 13 1 0 14 116 15 125 0 4 -6 42 -8 105 -5 53 3 101 2 105 -2 3 -4 61 -8
128 -9 122 -1 481 -21 547 -29 19 -3 103 -6 187 -9 174 -4 395 -21 468 -36 60
-12 515 -22 532 -11 7 4 42 5 78 2 37 -3 69 -2 71 2 8 12 286 5 312 -8 18 -9
31 -9 53 -1 24 9 32 9 38 -2 6 -9 11 -10 15 -2 9 15 86 14 86 0 0 -8 4 -8 15
1 17 14 225 23 225 9 0 -6 26 -9 58 -9 66 2 136 -5 151 -14 5 -4 12 -2 16 3 3
6 28 8 58 5 72 -8 288 -11 292 -4 5 8 289 -2 355 -13 49 -9 300 -15 305 -8 1
3 86 5 187 3 207 -4 194 -4 308 2 81 5 224 27 390 60 41 9 100 15 131 14 31 0
62 3 70 8 15 9 19 10 149 19 52 3 112 11 133 16 21 6 59 9 85 8 26 -1 99 3
162 9 63 6 261 14 440 17 545 10 650 14 672 26 15 8 22 8 28 0 4 -8 25 -9 66
-4 32 3 76 7 97 7 20 1 37 5 37 9 0 5 25 5 55 2 49 -7 55 -5 56 11 0 11 3 14
6 6 6 -14 86 -16 112 -2 11 5 31 6 48 1 17 -5 78 -5 139 1 60 5 167 12 237 17
72 4 132 12 135 18 4 6 35 11 68 11 34 -1 66 2 70 4 15 9 109 8 142 -1 21 -6
34 -6 38 1 4 6 21 7 43 3 54 -10 92 -12 457 -29 33 -2 69 -8 80 -14 12 -6 43
-11 70 -11 52 -1 87 -4 199 -20 39 -5 89 -8 113 -6 23 1 45 -1 48 -6 7 -12 73
-2 92 13 13 11 14 11 8 0 -7 -11 22 -12 160 -7 93 3 180 5 194 4 44 -3 63 -2
175 5 61 3 148 8 195 11 47 2 106 8 132 13 25 5 51 6 57 3 6 -4 91 -7 188 -6
98 1 182 -1 187 -3 11 -6 236 -4 312 3 140 13 259 27 267 32 5 3 102 7 215 8
l207 3 15 30 c8 17 25 35 37 41 24 11 42 86 25 103 -6 6 -8 17 -5 25 4 9 -2
16 -16 20 -11 3 -21 11 -21 18 0 19 30 47 45 41 8 -3 14 8 18 32 3 20 6 44 8
52 3 10 -3 14 -17 13 -23 -3 -34 19 -34 70 0 15 -4 27 -10 27 -5 0 -10 23 -10
50 0 28 3 50 8 50 4 0 9 37 10 82 2 46 5 94 7 108 2 14 11 66 20 115 29 170
36 220 40 320 3 55 9 159 14 230 5 72 8 155 8 185 -1 65 10 212 23 325 5 44
10 114 11 155 1 41 6 87 10 102 4 15 4 30 -1 33 -4 3 -10 22 -13 42 -2 21 -7
48 -10 60 -8 31 -10 185 -3 203 3 8 7 67 10 130 3 63 9 129 15 145 33 97 33
399 1 625 -20 135 -30 312 -30 527 0 34 -4 64 -9 67 -5 3 -9 51 -10 107 -1 56
-6 122 -11 148 -4 25 -12 109 -15 186 -4 77 -11 145 -15 150 -5 6 -8 21 -8 35
0 130 -9 377 -15 387 -4 6 -9 57 -12 113 -3 59 -11 114 -19 133 -16 34 -22
116 -31 452 -4 131 -2 223 5 265 12 67 18 173 25 410 2 74 9 176 15 225 6 50
7 115 4 145 -4 30 -7 57 -7 60 1 3 4 49 7 102 3 53 9 103 12 112 3 8 3 20 -1
26 -7 11 -9 609 -3 720 2 36 7 70 10 75 3 6 4 48 3 95 -2 47 1 104 6 128 5 23
11 100 14 170 6 199 15 354 22 392 6 35 14 255 13 338 -1 23 5 70 11 105 7 34
13 154 15 267 1 113 5 293 9 400 4 107 6 218 5 245 -1 28 -2 55 -1 60 0 6 3
58 5 118 3 59 7 111 10 116 7 10 22 230 18 251 -9 47 -7 497 2 509 9 12 8 13
-3 7 -11 -7 -12 11 -7 105 3 63 11 143 16 179 5 36 12 101 15 145 2 44 7 98 9
120 29 252 28 600 -4 890 -13 119 -21 497 -10 510 4 5 11 35 14 65 3 30 7 73
10 95 2 22 8 51 13 65 9 23 30 189 39 315 2 28 8 79 14 115 10 66 13 348 4
386 -3 12 -1 24 4 28 5 3 7 66 4 156 -3 98 -1 154 6 163 6 7 7 18 2 27 -5 7
-4 24 2 39 5 14 12 68 15 119 3 50 10 92 16 92 6 0 8 21 4 53 -3 29 -1 61 5
70 6 12 6 22 -2 32 -6 8 -8 19 -4 26 4 6 6 41 5 78 -1 36 -2 72 -1 79 1 16 1
58 -1 80 -2 20 10 236 16 302 3 25 7 79 11 120 4 41 11 83 15 92 6 10 5 19 -1
23 -13 8 -13 122 0 130 6 4 8 10 5 15 -3 5 4 28 15 51 12 22 19 46 17 52 -2 7
0 46 4 87 5 41 9 112 10 158 1 45 5 85 9 87 4 2 6 35 5 72 -2 52 1 70 14 80
11 9 13 15 5 20 -7 5 -13 52 -15 125 -4 115 -4 117 23 145 24 25 25 30 12 47
-8 11 -14 28 -14 38 0 11 -7 18 -20 18 -13 0 -22 9 -26 28 -10 43 -28 82 -39
82 -5 0 -18 14 -27 30 -9 17 -24 30 -33 30 -9 0 -15 9 -15 23 0 13 -9 33 -20
45 -11 12 -20 25 -20 31 0 5 -13 21 -30 34 -16 14 -30 33 -30 41 0 9 -9 21
-20 28 -11 7 -20 20 -20 29 0 9 -18 29 -40 44 -22 15 -40 35 -40 45 0 9 -11
29 -25 44 -14 15 -25 31 -25 36 0 5 -20 30 -45 56 -25 25 -45 54 -45 64 0 10
-10 20 -22 24 -18 4 -59 51 -76 87 -1 3 -23 28 -48 55 -26 27 -60 69 -77 94
-17 25 -41 55 -54 67 -13 12 -23 26 -23 31 0 5 -9 17 -20 27 -11 10 -20 23
-20 29 0 12 -107 172 -144 216 -25 30 -46 66 -46 79 0 6 -23 33 -51 61 -28 28
-55 66 -60 84 -10 34 -61 96 -80 96 -6 0 -8 7 -5 16 4 10 -5 26 -22 43 -15 16
-26 33 -24 39 5 15 -30 61 -47 62 -10 0 -11 3 -2 14 8 10 9 16 1 21 -5 3 -10
14 -10 23 0 10 -12 25 -27 34 -17 10 -28 25 -28 40 0 14 -9 27 -22 33 -14 6
-23 19 -23 31 0 21 -66 130 -118 193 -48 59 -195 193 -224 204 -12 4 -18 13
-14 22 3 8 -2 21 -10 29 -8 9 -14 21 -12 28 3 14 -15 67 -38 110 -8 14 -14 35
-14 46 0 11 -7 22 -15 26 -8 3 -15 14 -15 24 0 10 -3 22 -7 26 -4 4 -8 23 -9
42 -1 41 -19 57 -91 81 -29 9 -53 20 -53 24 0 15 -71 22 -98 10 -21 -10 -27
-10 -34 3 -7 13 -13 13 -53 -1 -33 -11 -49 -12 -59 -4 -14 12 -243 24 -250 13
-2 -4 -49 -6 -103 -5 -54 2 -105 0 -113 -3 -14 -6 -110 -11 -305 -17 -44 -2
-97 0 -117 4 -29 5 -38 3 -38 -7 0 -19 -10 -18 -25 2 -9 13 -16 14 -31 6 -13
-7 -26 -7 -35 -1 -7 5 -26 9 -41 9 -14 0 -28 6 -30 12 -3 9 -35 13 -100 14
-68 2 -105 7 -129 19 -18 10 -47 19 -65 20 -19 2 -39 7 -45 11 -7 4 -39 9 -73
11 -34 2 -81 8 -106 14 -25 5 -83 8 -130 7 -47 -1 -155 -1 -240 -1 -85 1 -220
0 -300 0 -80 -1 -176 2 -215 6 -139 16 -708 23 -746 9 -14 -6 -37 -5 -57 0
-22 6 -44 6 -61 -1 -14 -5 -68 -13 -120 -17 -72 -5 -95 -3 -101 7 -6 9 -12 10
-22 2 -7 -6 -50 -10 -101 -8 -48 1 -90 -1 -92 -4 -2 -4 -43 -4 -91 0 -49 3
-105 3 -125 -1 -20 -4 -54 -1 -76 5 -23 7 -47 9 -55 4 -16 -11 -219 1 -235 13
-6 5 -14 5 -16 1 -5 -9 -171 -7 -193 1 -7 3 -20 -1 -29 -8 -11 -8 -44 -11 -92
-9 -50 2 -81 -1 -91 -9 -13 -10 -14 -10 -8 0 11 18 -78 16 -94 -3 -9 -11 -17
-12 -32 -4 -11 6 -29 8 -40 6 -18 -5 -19 -1 -16 52 3 31 7 62 11 68 4 6 14 43
22 83 8 40 23 80 33 89 14 13 17 36 19 116 1 55 7 109 12 120 16 32 41 126 41
155 0 14 7 36 16 48 9 14 16 49 18 95 4 83 14 145 27 153 5 3 9 18 9 34 0 28
14 70 46 133 8 16 14 34 14 40 0 7 7 26 16 42 9 17 17 37 18 45 4 24 24 68 35
75 6 3 11 13 11 22 0 8 9 28 20 43 11 16 23 43 26 62 4 18 13 41 22 50 9 11
12 24 7 35 -11 25 -12 46 -2 60 4 6 7 26 6 45 -6 77 1 117 24 144 l24 27 142
-2 c134 -2 143 0 148 18 5 20 33 38 33 21 0 -15 67 -12 82 3 7 8 55 48 106 91
64 53 92 83 92 98 0 12 12 40 28 62 15 21 33 62 40 90 42 165 50 244 28 290
-9 19 -16 42 -16 53 0 10 -7 27 -15 37 -8 11 -15 28 -15 37 0 10 -6 22 -13 26
-13 9 -67 111 -67 129 0 21 -25 64 -38 64 -7 0 -10 5 -7 10 3 6 0 10 -8 10 -7
0 -32 17 -54 39 -36 33 -49 39 -100 44 -32 3 -68 8 -80 12 -15 5 -23 3 -23 -4z
m54 -201 c-4 -17 -2 -36 5 -43 6 -8 8 -16 5 -20 -3 -3 -1 -13 4 -23 7 -12 24
-19 52 -20 45 -2 60 -15 60 -51 0 -13 4 -23 8 -23 4 0 16 -15 27 -32 16 -26
20 -52 20 -120 0 -56 -4 -91 -12 -99 -7 -7 -13 -25 -13 -40 0 -15 -4 -31 -10
-34 -5 -3 -10 -14 -10 -24 0 -10 -11 -35 -25 -55 -14 -20 -25 -43 -25 -51 0
-8 -9 -15 -19 -15 -11 0 -26 -9 -35 -21 -12 -17 -116 -75 -116 -65 0 2 -18 0
-40 -4 -26 -5 -46 -3 -57 5 -10 7 -35 18 -57 25 -21 7 -47 21 -57 31 -11 11
-26 19 -33 19 -15 0 -34 29 -57 83 -6 15 -15 27 -19 27 -5 0 -12 9 -15 21 -4
11 -19 25 -34 30 -26 9 -27 10 -29 115 -2 66 1 111 8 119 6 7 10 17 8 21 -4
15 13 54 23 54 5 0 9 4 9 10 0 18 43 60 63 60 10 0 26 8 35 19 10 10 44 26 77
34 106 28 159 47 215 77 47 26 50 25 44 -10z m246 -180 c0 -5 -4 -10 -10 -10
-5 0 -10 5 -10 10 0 6 5 10 10 10 6 0 10 -4 10 -10z m-1013 -1972 c-3 -8 -6
-5 -6 6 -1 11 2 17 5 13 3 -3 4 -12 1 -19z m-5117 -818 c0 -5 -7 -10 -15 -10
-8 0 -15 5 -15 10 0 6 7 10 15 10 8 0 15 -4 15 -10z m4170 -44 c0 -3 -4 -8
-10 -11 -5 -3 -10 -1 -10 4 0 6 5 11 10 11 6 0 10 -2 10 -4z m-3085 -26 c3 -6
-4 -10 -17 -10 -18 0 -20 2 -8 10 19 12 18 12 25 0z m9125 -60 c0 -5 -4 -10
-10 -10 -5 0 -10 5 -10 10 0 6 5 10 10 10 6 0 10 -4 10 -10z m131 -102 c15
-26 25 -48 23 -51 -3 -3 6 -22 21 -42 14 -21 25 -44 25 -51 0 -8 4 -14 9 -14
5 0 12 -11 15 -25 3 -13 16 -33 27 -44 11 -10 28 -34 37 -52 9 -19 30 -40 45
-47 16 -8 31 -21 34 -29 4 -9 24 -32 45 -51 21 -19 38 -40 38 -48 0 -7 11 -16
23 -20 13 -3 30 -18 38 -33 45 -89 55 -107 67 -114 6 -4 12 -13 12 -19 0 -6
18 -38 40 -71 22 -33 39 -64 38 -69 -2 -5 13 -27 33 -49 19 -21 48 -63 62 -94
15 -30 36 -59 46 -65 11 -5 22 -23 26 -39 4 -20 11 -28 21 -24 8 3 14 -1 14
-10 0 -8 14 -27 30 -40 17 -14 30 -32 30 -39 0 -8 8 -23 18 -34 10 -10 26 -35
35 -54 10 -19 27 -48 37 -65 11 -16 24 -40 29 -52 6 -12 19 -28 31 -35 11 -7
20 -19 20 -27 0 -15 65 -100 87 -114 7 -4 13 -17 13 -27 0 -11 4 -20 9 -20 6
0 16 -11 23 -24 28 -51 91 -127 102 -123 6 3 12 -6 12 -18 2 -31 34 -77 50
-71 7 3 11 0 8 -8 -2 -6 11 -25 31 -41 19 -17 35 -35 35 -40 0 -18 99 -115
116 -115 10 0 15 -3 11 -6 -15 -15 87 -139 105 -128 7 5 9 2 5 -9 -4 -10 5
-26 22 -44 42 -41 151 -181 151 -193 0 -12 52 -94 63 -98 4 -2 7 -11 7 -20 0
-9 7 -26 15 -36 34 -45 6 -97 -55 -103 -74 -7 -204 -24 -211 -28 -4 -3 -20 0
-35 5 -18 7 -29 7 -33 1 -5 -8 -93 -14 -161 -11 -8 1 -83 2 -166 4 -82 1 -155
6 -162 10 -6 4 -29 6 -51 5 -22 -2 -46 3 -54 9 -8 7 -21 10 -30 6 -8 -3 -18
-1 -21 5 -4 6 -20 8 -36 4 -19 -3 -39 0 -55 11 -14 9 -25 13 -25 9 0 -4 -6 0
-12 9 -7 9 -43 21 -80 28 -38 7 -68 16 -68 21 0 5 -18 9 -40 9 -25 0 -43 5
-46 14 -3 7 -17 13 -32 14 -15 0 -52 5 -82 11 -30 7 -82 12 -114 12 -33 0 -67
4 -77 9 -12 7 -21 5 -30 -6 -11 -14 -13 -14 -21 0 -5 9 -17 16 -27 16 -11 0
-21 7 -25 15 -3 8 -12 15 -21 15 -8 0 -15 7 -15 15 0 9 -9 15 -25 15 -14 0
-29 8 -35 20 -6 11 -22 23 -35 26 -14 3 -25 10 -25 15 0 5 -7 9 -15 9 -9 0
-18 7 -21 15 -4 8 -11 15 -18 15 -14 0 -96 76 -96 90 0 5 -9 10 -20 10 -17 0
-19 5 -14 25 5 21 3 25 -15 25 -12 0 -21 5 -21 10 0 6 5 10 10 10 6 0 10 5 10
11 0 6 -7 9 -15 5 -21 -8 -33 20 -39 89 -3 33 -8 76 -12 96 -3 22 -2 39 5 43
7 5 7 12 -1 25 -7 11 -8 25 -2 37 4 11 9 37 11 59 4 68 8 93 16 101 4 4 7 20
7 35 0 15 5 31 11 35 6 3 9 14 6 24 -2 9 0 24 5 33 5 10 5 24 -1 34 -5 10 -11
47 -14 83 -2 36 -8 73 -12 84 -5 10 -3 21 3 25 10 6 10 32 -2 286 -2 55 0 105
5 111 4 5 9 40 10 77 1 37 6 70 10 73 5 3 9 19 9 35 0 17 5 40 11 51 9 16 8
23 -2 29 -8 5 -9 9 -3 9 7 0 10 33 10 96 -1 53 1 97 5 100 3 2 9 31 13 63 4
33 11 63 16 66 6 4 10 19 10 34 0 16 7 42 15 57 8 16 12 37 9 47 -3 10 0 25 7
33 7 8 22 34 34 57 56 109 92 160 110 154 5 -2 22 -24 36 -49z m1812 -3803
c-3 -9 -8 -14 -10 -11 -3 3 -2 9 2 15 9 16 15 13 8 -4z m78 -158 c-13 -13 -26
-3 -16 12 3 6 11 8 17 5 6 -4 6 -10 -1 -17z m-18 -184 c-7 -2 -19 -2 -25 0 -7
3 -2 5 12 5 14 0 19 -2 13 -5z"/>
<path d="M27115 17404 c-16 -7 -55 -13 -87 -14 -35 0 -58 -5 -60 -12 -3 -8
-23 -12 -57 -10 -44 2 -52 -1 -47 -13 4 -13 -9 -15 -82 -16 -48 -1 -114 -2
-147 -4 -247 -10 -350 -17 -357 -22 -10 -5 -250 -5 -303 0 -17 2 -56 -2 -87
-8 -38 -7 -59 -8 -61 -1 -2 6 -9 6 -17 1 -22 -14 -48 -17 -145 -19 -49 -1 -98
-6 -108 -10 -11 -5 -34 -4 -54 2 -23 7 -44 7 -62 1 -17 -6 -49 -6 -82 -1 -30
4 -72 7 -94 5 -22 -1 -80 -4 -130 -7 -49 -2 -100 -8 -112 -11 -14 -5 -23 -3
-23 4 0 12 -36 15 -44 3 -4 -7 -102 -6 -196 2 -25 2 -153 4 -285 4 -132 1
-251 1 -265 2 -14 1 -88 1 -165 -1 -147 -2 -521 -2 -567 0 -15 1 -30 5 -32 10
-3 4 -29 5 -58 3 -29 -2 -62 -4 -73 -4 -46 1 -140 1 -295 1 -91 0 -177 2 -192
6 -15 4 -42 2 -60 -4 -33 -11 -652 -24 -662 -14 -3 3 -55 6 -116 6 -60 0 -110
4 -110 9 0 11 -34 10 -46 -2 -7 -7 -26 -7 -60 0 -28 5 -112 7 -194 5 -80 -3
-176 -7 -215 -8 -38 -2 -75 -5 -80 -9 -6 -3 -66 -5 -133 -4 -68 1 -126 -2
-129 -7 -3 -5 -29 -6 -58 -2 -32 4 -56 2 -59 -4 -4 -6 -57 -8 -139 -4 -186 7
-182 7 -201 22 -10 8 -48 15 -94 18 -104 5 -165 13 -176 24 -6 5 -33 9 -61 9
-28 0 -56 5 -61 10 -13 13 -44 19 -107 22 -37 2 -51 -2 -58 -15 -6 -9 -17 -17
-25 -17 -16 0 -44 -56 -44 -88 0 -10 19 -35 41 -56 40 -35 72 -46 139 -47 41
-1 163 -20 189 -30 13 -6 56 -12 95 -15 39 -3 74 -8 77 -10 9 -5 293 -17 434
-18 61 0 144 5 185 11 41 7 116 17 165 24 50 6 94 13 98 16 4 2 65 6 135 9 70
2 132 4 137 5 47 2 287 -14 397 -27 129 -14 163 -15 428 -2 14 1 34 -2 44 -7
16 -7 18 -5 13 9 -6 14 -3 17 10 12 24 -10 184 -8 275 3 42 5 123 5 180 1 57
-4 153 -6 213 -4 61 2 117 3 125 3 8 -1 49 -2 90 -4 252 -11 698 -4 723 12 4
3 68 4 140 2 73 -1 155 -2 184 -1 28 1 54 -1 56 -5 6 -9 623 -9 737 0 155 12
278 18 380 18 58 0 133 4 167 8 37 4 67 3 72 -2 6 -6 34 -5 73 1 35 6 135 12
223 13 329 5 394 6 535 13 153 8 234 17 365 41 44 8 119 14 168 15 72 0 87 -3
87 -16 0 -12 8 -14 48 -9 96 13 150 43 137 77 -3 8 -1 27 5 43 9 23 8 30 -5
37 -8 5 -15 18 -15 29 0 19 -6 20 -95 17 -52 -2 -95 0 -95 3 0 12 -155 6 -185
-7z"/>
<path d="M27246 14101 c-4 -6 -11 -9 -16 -6 -4 3 -24 -11 -44 -30 -20 -19 -40
-35 -45 -35 -5 0 -11 -4 -13 -9 -4 -13 -48 -21 -138 -26 -41 -3 -89 -9 -107
-14 -17 -5 -34 -7 -36 -5 -3 3 -52 -6 -109 -21 -96 -23 -107 -24 -135 -10 -24
12 -45 13 -109 6 -43 -5 -88 -9 -99 -9 -11 0 -49 -5 -85 -11 -36 -6 -123 -13
-195 -17 -71 -3 -156 -9 -188 -13 -32 -4 -60 -5 -62 -1 -2 4 -28 3 -57 -1 -29
-5 -64 -7 -78 -4 -14 3 -54 1 -90 -4 -41 -5 -69 -5 -77 1 -7 6 -24 6 -45 0
-18 -5 -57 -8 -85 -6 -29 1 -53 -1 -53 -5 0 -4 -51 -6 -112 -4 -260 8 -365 9
-395 2 -18 -4 -36 -2 -42 4 -7 7 -16 6 -28 -6 -12 -10 -23 -13 -34 -7 -15 9
-26 9 -254 8 -71 0 -154 2 -182 5 -29 3 -55 2 -58 -4 -4 -5 -11 -7 -16 -3 -5
3 -65 8 -132 10 -67 3 -157 7 -200 10 -53 4 -83 2 -92 -6 -9 -7 -22 -9 -32 -4
-10 4 -72 8 -138 9 -66 0 -126 4 -132 8 -7 5 -17 5 -23 2 -30 -19 -339 -23
-350 -5 -6 9 -9 9 -15 0 -5 -8 -26 -9 -71 -5 -43 5 -64 4 -64 -3 0 -6 -10 -9
-22 -6 -54 12 -228 20 -363 15 -16 0 -50 -1 -75 -1 -66 0 -114 -5 -126 -12 -6
-4 -51 -8 -100 -9 -49 -1 -96 -7 -105 -13 -12 -8 -68 -10 -175 -8 -199 5 -203
5 -239 -3 -16 -4 -39 -8 -51 -9 -11 -1 -24 -5 -30 -9 -5 -3 -15 -3 -21 1 -10
7 -47 5 -253 -14 -36 -3 -69 -9 -75 -14 -5 -4 -62 -11 -125 -14 -163 -8 -244
-20 -267 -38 -6 -5 -23 -6 -37 -2 -14 3 -34 3 -43 -1 -17 -7 -80 -7 -114 -1
-98 19 -141 31 -150 42 -14 17 -79 19 -79 3 0 -7 -10 -9 -26 -5 -20 5 -27 3
-31 -14 -3 -11 -12 -20 -19 -20 -8 0 -14 -8 -14 -18 0 -23 -19 -42 -42 -42
-21 0 -23 -18 -6 -71 10 -34 17 -41 52 -50 23 -6 51 -17 63 -25 25 -16 92 -16
112 0 9 7 73 12 170 13 197 2 353 10 411 22 25 5 48 7 52 5 4 -3 27 0 50 7 43
11 231 46 298 55 19 3 76 6 125 7 50 2 95 6 101 10 6 3 44 2 85 -2 41 -5 79
-5 84 -1 6 3 50 6 98 4 48 -1 104 2 123 6 19 4 34 4 34 -1 0 -5 16 -9 35 -9
19 0 35 4 35 8 0 5 26 8 58 8 31 -1 104 3 162 7 58 5 141 11 185 13 70 3 201
11 245 13 8 1 110 1 225 -1 189 -1 707 0 745 2 79 5 363 12 390 10 133 -8 848
-12 1055 -4 99 3 268 8 375 10 326 6 385 9 395 15 19 12 280 29 528 34 83 1
197 8 252 14 55 7 141 17 190 22 66 8 100 17 127 35 21 13 43 24 51 24 24 0
48 41 50 86 1 24 5 44 10 44 12 0 7 54 -6 72 -16 21 -131 36 -141 19z"/>
<path d="M25520 9787 c-3 -2 -72 -8 -155 -12 -82 -4 -170 -9 -195 -13 -25 -3
-241 -6 -480 -8 -239 -1 -482 -6 -540 -11 -99 -8 -202 -8 -610 2 -96 2 -236 3
-310 3 -453 -2 -675 3 -714 18 -10 4 -34 2 -54 -4 -19 -6 -39 -9 -44 -6 -37
23 -448 20 -543 -4 -22 -6 -65 -11 -95 -11 -71 0 -220 -11 -243 -17 -10 -3
-50 -7 -90 -9 -102 -4 -409 -15 -427 -15 -157 -1 -153 -1 -180 25 l-27 25 -18
-20 c-21 -24 -53 -26 -61 -5 -7 17 -50 20 -59 4 -15 -23 -118 -43 -212 -40
-23 1 -33 -4 -33 -14 0 -8 -6 -15 -13 -15 -19 0 -77 -59 -72 -73 2 -7 6 -24 9
-39 4 -17 13 -28 23 -28 8 0 23 -8 32 -17 21 -23 75 -42 92 -33 18 10 284 30
404 32 107 1 218 -10 262 -25 27 -9 39 -6 88 17 34 17 66 26 81 23 13 -2 27 0
30 5 3 5 13 7 21 4 9 -4 21 -2 27 2 6 5 88 12 181 16 257 10 347 16 382 26 20
5 35 5 39 -1 3 -5 17 -6 31 -3 18 5 24 3 19 -5 -4 -6 -3 -11 3 -11 5 0 11 5
13 12 8 22 375 9 389 -14 6 -10 9 -9 14 2 6 16 30 17 225 4 58 -4 170 -7 250
-6 136 0 198 4 490 32 63 6 145 9 181 6 37 -2 70 -2 73 1 7 8 145 7 153 -1 3
-3 14 -1 24 4 10 6 20 6 23 2 6 -9 214 -16 381 -12 66 2 175 3 242 4 67 1 125
4 129 8 4 4 14 3 21 -4 11 -9 16 -9 23 2 7 12 39 14 177 10 92 -2 197 -4 233
-3 176 4 307 10 321 17 10 4 20 3 24 -3 3 -6 11 -8 17 -5 6 4 124 8 262 10
138 2 256 4 261 4 24 4 194 -8 204 -14 6 -4 43 -9 83 -12 40 -3 91 -9 113 -14
22 -5 99 -10 170 -11 72 -1 183 -2 247 -3 79 -1 121 -5 129 -13 7 -7 28 -13
45 -13 41 0 130 -19 169 -35 17 -7 48 -15 70 -17 36 -3 42 1 73 41 24 32 32
51 27 68 -4 16 -1 25 11 30 8 3 19 15 23 26 10 26 -15 77 -37 77 -10 0 -22 8
-29 19 -10 15 -18 17 -52 11 -22 -4 -47 -12 -54 -19 -8 -6 -16 -9 -19 -6 -6 7
-232 17 -434 20 -89 1 -166 5 -172 9 -5 3 -90 9 -188 12 -176 7 -203 7 -294 5
-25 -1 -126 -1 -225 0 -99 0 -196 0 -215 -1 -19 -1 -53 2 -75 5 -22 4 -42 5
-45 2z"/>
</g>
</svg>
