<?xml version="1.0" standalone="no"?>
<!DOCTYPE svg PUBLIC "-//W3C//DTD SVG 20010904//EN"
 "http://www.w3.org/TR/2001/REC-SVG-20010904/DTD/svg10.dtd">
<svg version="1.0" xmlns="http://www.w3.org/2000/svg"
 width="952.000000pt" height="1339.063130pt" viewBox="0 0 952.000000 1339.063130"
 preserveAspectRatio="xMidYMid meet">
<metadata>
Created by potrace 1.15, written by Peter Selinger 2001-2017
</metadata>
<g transform="translate(-214.000000,1362.536656) scale(0.100000,-0.100000)"
fill="#343434" stroke="none">
<path d="M3035 13619 c-184 -19 -201 -23 -261 -64 -31 -22 -74 -47 -94 -56
-43 -20 -107 -74 -129 -110 -9 -15 -64 -69 -122 -122 -102 -92 -169 -175 -169
-210 0 -9 -27 -37 -60 -62 -53 -41 -60 -50 -60 -81 0 -24 8 -43 25 -59 32 -33
39 -32 80 10 37 36 87 52 131 41 34 -9 150 -128 170 -174 10 -24 13 -49 9 -72
-4 -19 -8 -46 -9 -60 -4 -35 -33 -89 -68 -127 -17 -17 -27 -36 -23 -42 3 -6
-19 -35 -52 -66 l-58 -54 29 -30 c37 -39 61 -39 117 -2 60 40 147 58 189 41
55 -23 140 -153 140 -213 0 -19 7 -40 15 -47 8 -7 15 -22 15 -34 0 -12 7 -31
15 -43 8 -12 15 -39 14 -60 0 -21 7 -63 16 -93 9 -30 19 -81 22 -112 4 -47 10
-60 30 -74 31 -20 83 -12 109 17 16 18 17 24 5 52 -8 18 -17 68 -22 112 -8 78
-7 81 20 120 32 46 51 96 51 134 0 15 4 31 9 36 5 6 14 28 21 49 7 21 30 62
51 90 22 28 42 67 45 86 20 109 167 268 280 304 50 16 65 16 116 6 32 -7 61
-17 64 -22 3 -4 -4 -24 -16 -44 -16 -26 -20 -43 -16 -68 8 -43 43 -60 171 -81
113 -19 165 -33 165 -44 0 -5 -16 -38 -35 -74 -19 -36 -35 -75 -35 -85 0 -11
-7 -25 -15 -32 -8 -7 -15 -26 -15 -42 0 -16 -11 -51 -25 -78 -14 -27 -25 -64
-25 -81 0 -32 -9 -68 -36 -139 -7 -19 -15 -60 -18 -90 -4 -30 -9 -68 -12 -85
-13 -65 -15 -149 -5 -192 7 -25 16 -84 21 -132 13 -114 32 -211 48 -239 8 -13
10 -36 6 -57 -4 -25 1 -48 19 -89 14 -31 24 -56 22 -56 -3 0 6 -24 19 -52 28
-64 112 -195 164 -255 123 -143 160 -181 203 -204 25 -14 73 -49 106 -76 36
-30 82 -57 114 -67 30 -10 74 -33 98 -52 24 -19 69 -41 100 -50 31 -9 76 -23
101 -31 25 -9 87 -21 138 -28 100 -14 137 -33 126 -67 -3 -11 -7 -56 -8 -101
-2 -68 -7 -91 -30 -134 -32 -61 -31 -89 5 -115 23 -17 31 -18 65 -8 33 10 56
8 139 -9 55 -12 145 -31 200 -42 171 -35 492 -22 536 22 25 25 24 50 -5 123
-13 34 -26 80 -30 104 -6 37 -3 46 19 68 23 23 32 25 69 20 106 -16 388 87
519 189 64 50 217 219 217 239 0 7 7 19 15 26 8 7 20 31 27 54 7 22 20 56 30
74 10 18 18 47 18 65 0 18 7 46 16 62 21 41 54 181 54 232 0 23 4 52 9 65 17
43 32 133 36 213 1 44 9 107 17 140 9 43 13 121 11 270 -1 116 -2 240 -2 277
0 68 -21 182 -46 248 -8 19 -28 71 -46 115 -17 44 -37 94 -43 110 -6 17 -20
43 -30 58 -19 27 -19 28 4 52 13 13 39 30 59 36 20 6 50 20 67 30 48 29 66 24
114 -35 25 -30 59 -62 75 -72 17 -9 43 -30 59 -46 17 -15 33 -28 38 -28 4 0
16 -17 27 -37 11 -21 28 -47 38 -59 26 -29 57 -84 81 -144 6 -14 22 -51 36
-84 14 -32 26 -65 26 -73 0 -7 8 -30 19 -51 10 -20 24 -74 30 -119 11 -76 10
-85 -9 -122 -26 -52 -25 -65 6 -90 36 -28 89 -27 128 3 37 27 168 87 243 110
110 34 323 -1 375 -61 25 -29 36 -75 25 -106 -19 -56 47 -86 113 -52 23 12 30
23 31 48 5 138 10 206 18 227 11 30 22 110 27 205 2 39 6 117 9 174 3 58 12
133 21 167 11 46 14 91 10 171 -13 249 -31 326 -118 487 -11 22 -82 190 -108
259 -22 56 -101 147 -174 198 -51 36 -170 89 -201 89 -9 0 -34 9 -57 21 -36
18 -58 21 -207 21 -308 1 -381 -4 -430 -30 -25 -13 -63 -39 -86 -58 -24 -19
-64 -42 -90 -50 -42 -15 -135 -94 -135 -116 0 -4 -15 -31 -34 -60 -37 -58 -90
-108 -112 -108 -8 0 -36 -19 -62 -43 -26 -24 -63 -54 -82 -67 -45 -31 -119
-92 -186 -154 l-53 -48 -90 46 c-107 55 -222 96 -273 96 -20 0 -49 5 -65 11
-15 6 -84 19 -153 30 -131 20 -197 37 -249 64 -21 10 -43 14 -66 9 -23 -4 -54
1 -97 16 -58 20 -74 21 -208 15 -138 -7 -303 -31 -364 -54 -15 -6 -44 -11 -64
-11 -30 0 -58 -15 -142 -73 -58 -40 -116 -83 -130 -96 -14 -13 -43 -30 -65
-38 -79 -29 -80 -29 -122 26 -21 28 -55 72 -75 97 -21 25 -38 51 -38 59 0 13
-75 55 -97 55 -15 0 -103 98 -116 130 -6 14 -26 43 -45 65 -18 22 -45 55 -60
73 -15 18 -54 51 -86 75 -213 151 -265 177 -359 177 -35 0 -70 9 -116 31 -73
35 -126 41 -246 28z m119 -134 c28 -3 61 -12 75 -19 14 -8 62 -19 106 -26 126
-19 130 -21 339 -165 67 -47 121 -98 158 -154 17 -25 43 -59 57 -76 15 -16 34
-47 44 -67 l17 -38 -31 -35 c-21 -23 -29 -42 -26 -55 3 -14 -3 -27 -21 -41
-15 -11 -34 -35 -42 -52 -21 -45 -60 -48 -104 -9 -28 25 -46 31 -103 36 -123
11 -166 -1 -268 -78 -111 -84 -145 -115 -145 -135 0 -8 -9 -24 -20 -36 -11
-12 -27 -52 -34 -89 -8 -37 -21 -75 -30 -85 -8 -9 -31 -52 -51 -96 -20 -44
-46 -96 -56 -116 -10 -20 -19 -48 -19 -63 0 -14 -3 -26 -6 -26 -17 0 -44 23
-44 38 0 9 -9 31 -20 47 -11 17 -20 38 -20 48 0 33 -38 92 -92 143 -62 59 -76
67 -143 83 -61 15 -69 26 -43 61 10 15 24 44 29 66 6 21 14 56 20 77 6 25 6
51 0 75 -6 20 -13 55 -16 76 -8 49 -89 133 -193 200 -39 26 -73 50 -76 55 -11
17 52 91 135 157 96 77 149 134 149 158 0 10 21 25 55 40 29 14 82 41 117 62
87 51 141 58 302 39z m4628 -96 c93 -17 160 -44 230 -91 39 -27 118 -111 118
-125 0 -6 9 -21 19 -34 31 -40 141 -264 141 -288 0 -12 6 -32 14 -44 8 -12 19
-62 26 -112 6 -49 16 -102 21 -116 16 -40 19 -74 19 -192 0 -63 -5 -117 -11
-130 -7 -12 -13 -75 -14 -147 -4 -203 -16 -333 -33 -352 -19 -23 -29 -22 -84
2 -30 13 -65 19 -104 19 -33 -1 -72 4 -87 10 -60 24 -195 6 -336 -43 -54 -20
-76 -9 -85 41 -16 97 -25 141 -39 178 -52 141 -68 180 -96 225 -17 27 -37 66
-46 85 -22 53 -99 139 -177 197 -37 28 -68 55 -68 60 0 5 -20 31 -45 57 -29
31 -45 57 -45 74 0 14 -17 46 -39 75 -40 50 -81 119 -81 135 0 5 -11 23 -25
41 -13 18 -32 55 -41 83 l-16 50 31 65 c36 75 59 98 156 160 168 107 203 122
295 128 164 12 303 8 402 -11z m-2475 -443 c29 -8 76 -28 106 -45 37 -21 68
-31 96 -31 23 0 54 -6 69 -14 39 -19 114 -35 217 -45 106 -10 246 -43 330 -79
51 -21 138 -62 351 -164 77 -37 264 -250 264 -301 0 -9 4 -18 9 -21 14 -9 77
-174 96 -252 14 -57 15 -76 5 -94 -17 -32 -69 -49 -157 -52 -73 -2 -85 1 -158
36 -44 20 -87 44 -96 52 -9 8 -46 23 -82 33 -36 11 -83 33 -104 49 -39 30
-133 72 -162 72 -9 0 -58 16 -110 35 -52 20 -112 38 -133 42 -22 3 -55 16 -74
29 -19 14 -52 33 -72 43 -43 22 -130 110 -159 161 -12 19 -24 51 -28 70 -10
46 -68 142 -106 174 -17 14 -42 26 -56 26 -54 0 -123 -81 -123 -143 0 -35 -56
-137 -93 -169 -63 -55 -254 -156 -347 -183 -14 -4 -37 -16 -52 -27 -15 -10
-52 -25 -82 -33 -47 -12 -211 -90 -390 -184 -32 -17 -66 -31 -74 -31 -8 0 -32
-15 -52 -34 -24 -21 -65 -43 -109 -57 -66 -21 -72 -22 -88 -7 -14 15 -14 25
-4 80 6 35 20 83 30 108 11 25 29 72 41 105 33 93 104 231 162 316 66 95 72
103 106 144 59 71 76 85 132 106 69 26 150 72 175 99 36 40 187 117 243 124
30 4 79 16 109 28 36 13 67 18 90 15 32 -6 72 0 173 23 49 11 49 11 107 -4z
m1507 -8 c9 -12 16 -28 16 -34 0 -6 20 -48 45 -93 25 -45 45 -91 45 -102 0
-37 -139 -149 -184 -149 -12 0 -55 28 -97 63 -42 34 -88 71 -104 82 -44 32
-30 66 53 119 37 24 92 65 122 89 62 52 82 56 104 25z m-2712 -78 c14 -11 33
-39 43 -62 9 -24 20 -45 24 -48 4 -3 15 -21 24 -41 l17 -36 -65 -70 -65 -70
-97 2 c-112 1 -149 14 -138 48 4 12 9 34 12 49 3 17 13 28 29 32 14 4 28 14
31 24 7 17 42 67 105 150 37 48 45 50 80 22z m1333 -516 c86 -166 197 -244
485 -339 179 -59 252 -88 311 -125 25 -15 61 -31 80 -35 41 -9 123 -49 165
-81 59 -45 108 -56 247 -52 105 2 129 0 137 -12 6 -9 7 -65 3 -135 -3 -66 -5
-133 -4 -150 5 -60 3 -81 -13 -155 -9 -41 -16 -90 -16 -107 0 -18 -4 -52 -10
-75 -12 -53 -30 -147 -41 -213 -16 -99 -28 -155 -36 -167 -4 -7 -9 -20 -10
-28 -1 -8 -24 -65 -50 -127 -80 -188 -181 -287 -379 -375 -43 -20 -95 -39
-114 -42 -20 -3 -69 -18 -110 -34 -66 -24 -89 -27 -190 -27 -71 0 -144 7 -190
17 -41 9 -113 22 -160 28 -97 13 -122 19 -239 55 -46 14 -112 28 -145 31 -34
3 -81 12 -106 19 -25 7 -75 16 -112 19 -37 3 -84 14 -105 24 -21 11 -57 23
-80 27 -23 3 -61 19 -85 34 -45 29 -105 61 -200 106 -57 28 -208 141 -208 156
0 7 -33 49 -116 144 -43 50 -113 167 -125 210 -6 22 -22 61 -35 86 -17 35 -26
77 -35 166 -6 65 -15 125 -19 133 -4 8 -11 71 -15 140 -4 69 -12 134 -17 144
-15 29 10 42 92 49 74 6 184 49 226 88 11 11 59 39 105 63 237 122 328 164
479 222 213 80 301 121 349 161 74 62 154 154 177 202 34 75 50 69 109 -45z
m-119 -2310 c55 -15 120 -33 146 -40 26 -7 80 -16 120 -19 98 -8 214 -33 227
-48 9 -11 16 -35 37 -122 9 -36 -18 -56 -96 -71 -102 -19 -169 -18 -237 5 -32
11 -80 23 -108 27 -27 4 -72 15 -98 25 -26 11 -61 19 -77 19 -64 0 -70 15 -46
107 9 35 11 65 6 90 -15 63 -12 64 126 27z"/>
<path d="M5885 11845 c-47 -17 -85 -57 -85 -89 0 -12 7 -43 16 -69 19 -57 62
-87 123 -87 74 0 93 23 106 128 7 61 -3 85 -48 112 -38 23 -58 24 -112 5z"/>
<path d="M4686 11714 c-25 -14 -28 -20 -22 -53 4 -25 1 -44 -9 -58 -13 -18
-11 -24 15 -60 39 -53 78 -70 129 -54 48 14 57 25 65 81 3 25 9 61 12 82 5 31
2 39 -20 53 -37 24 -134 30 -170 9z"/>
<path d="M6133 11253 c-6 -4 -24 -39 -39 -76 -15 -37 -43 -85 -61 -107 -18
-21 -33 -47 -33 -57 0 -30 -108 -125 -190 -165 -105 -52 -202 -91 -290 -117
-41 -12 -100 -30 -130 -40 -46 -15 -69 -16 -140 -9 -47 4 -98 12 -114 18 -16
5 -42 10 -58 10 -50 0 -138 30 -171 59 -18 15 -58 47 -89 70 -32 24 -60 51
-63 62 -14 44 -115 66 -135 30 -17 -33 -11 -89 14 -129 52 -82 404 -258 477
-239 11 3 45 -1 75 -9 74 -19 119 -18 187 6 31 11 68 20 81 20 79 0 293 69
371 120 22 14 61 32 86 39 85 24 165 118 288 339 55 99 61 130 32 156 -21 19
-80 31 -98 19z"/>
<path d="M9830 10605 c-168 -21 -404 -29 -490 -16 -110 17 -191 -3 -279 -70
-37 -27 -87 -56 -112 -64 -51 -17 -182 -111 -207 -147 -9 -13 -40 -49 -69 -81
-29 -32 -53 -62 -53 -67 0 -4 -16 -27 -35 -50 -19 -23 -35 -47 -35 -54 0 -7
-13 -33 -29 -58 -16 -25 -32 -56 -36 -69 -5 -13 -26 -61 -48 -107 -88 -185
-137 -364 -143 -522 -1 -36 -6 -99 -11 -140 -13 -112 -9 -390 6 -418 7 -13 10
-30 7 -38 -3 -8 1 -44 10 -80 8 -36 12 -69 9 -74 -11 -18 67 -309 101 -372 8
-14 14 -33 14 -43 0 -9 7 -29 15 -45 8 -15 17 -55 21 -87 11 -107 182 -376
285 -448 14 -10 43 -45 65 -78 21 -33 78 -96 127 -140 48 -44 87 -88 87 -98 0
-20 -84 -89 -109 -89 -9 0 -31 -9 -49 -20 -48 -29 -86 -25 -167 20 -40 22 -90
46 -111 54 -22 7 -77 35 -124 61 -142 81 -343 185 -357 185 -5 1 -42 26 -83
56 -41 30 -88 62 -104 72 -16 9 -47 32 -70 50 -22 17 -69 45 -104 62 -71 33
-108 60 -202 141 -36 31 -80 64 -98 73 -45 23 -48 39 -18 79 14 19 26 38 26
44 0 6 18 31 41 56 56 64 151 267 143 306 -4 17 -2 44 4 60 13 36 -5 61 -41
61 -28 0 -97 -49 -97 -69 0 -8 -6 -33 -14 -56 -8 -22 -22 -67 -32 -100 -9 -33
-29 -74 -43 -90 -14 -17 -46 -61 -71 -98 -26 -38 -55 -70 -67 -73 -34 -9 -106
19 -205 81 -56 35 -131 70 -205 95 -65 23 -124 47 -133 54 -20 18 -252 136
-266 136 -7 0 -17 6 -23 14 -9 11 -2 26 39 72 27 31 50 61 50 65 0 13 90 111
133 145 43 35 77 81 77 106 0 28 -40 58 -77 58 -30 0 -46 -12 -128 -97 -52
-53 -98 -105 -101 -117 -11 -35 -113 -155 -137 -161 -21 -6 -111 23 -204 66
-23 10 -52 19 -65 19 -13 0 -48 12 -78 26 -67 31 -166 60 -290 85 -180 35
-195 39 -250 54 -30 8 -111 18 -180 21 -137 6 -166 16 -175 62 -24 117 -64
182 -176 281 -111 99 -128 105 -243 91 -128 -15 -176 -31 -350 -115 -146 -70
-154 -76 -169 -114 -9 -22 -26 -45 -37 -51 -11 -6 -20 -16 -20 -23 0 -7 -8
-22 -19 -33 -10 -11 -30 -39 -45 -62 -22 -35 -31 -42 -59 -42 -72 1 -204 -17
-241 -33 -21 -9 -56 -33 -77 -51 -21 -19 -50 -41 -66 -49 -43 -22 -203 -51
-215 -39 -15 15 38 80 81 100 25 12 42 31 57 63 33 68 191 210 364 326 41 28
107 80 145 115 39 35 104 89 145 120 104 76 170 141 170 165 0 28 -28 49 -74
56 -37 6 -42 4 -80 -39 -23 -26 -68 -65 -101 -87 -33 -23 -78 -57 -100 -77
-22 -20 -53 -44 -69 -54 -15 -10 -54 -42 -86 -71 -32 -30 -73 -61 -92 -71
-102 -52 -231 -169 -302 -274 -21 -30 -64 -80 -95 -110 -37 -35 -69 -79 -89
-121 -18 -36 -32 -69 -32 -72 0 -4 -14 -29 -32 -56 -22 -32 -56 -64 -107 -97
-42 -27 -99 -71 -127 -99 -29 -27 -75 -71 -102 -97 -50 -47 -108 -123 -169
-223 -27 -43 -35 -71 -44 -147 -15 -125 -16 -277 -1 -368 22 -139 28 -165 49
-205 51 -97 98 -260 121 -420 4 -27 11 -55 15 -62 4 -6 10 -31 13 -55 3 -24
11 -61 19 -83 7 -22 17 -56 20 -75 4 -19 14 -45 22 -58 9 -15 12 -34 8 -52 -4
-16 1 -54 10 -87 9 -32 22 -75 28 -96 8 -30 8 -46 -2 -70 -14 -34 -41 -114
-63 -187 -10 -36 -22 -50 -59 -72 -41 -26 -51 -28 -105 -22 -45 6 -65 14 -86
35 -36 35 -35 50 3 93 16 19 34 50 39 67 8 28 6 37 -11 55 -27 29 -71 39 -100
24 -24 -14 -109 -186 -109 -223 0 -33 28 -67 93 -111 48 -33 63 -38 151 -47
115 -13 166 -4 232 42 42 29 84 91 84 123 0 16 21 69 47 118 21 41 27 241 8
278 -8 15 -19 52 -24 81 -20 109 -39 185 -61 239 -22 55 -27 78 -33 176 -2 28
-8 64 -14 80 -6 16 -23 74 -38 129 -15 55 -39 125 -55 155 -42 81 -59 149 -67
268 -8 118 -8 128 -4 252 5 128 17 164 72 225 27 29 49 57 49 61 0 5 35 43 78
85 42 41 83 88 90 103 9 20 18 26 34 24 20 -3 23 -13 40 -138 11 -74 21 -156
23 -182 2 -26 8 -56 14 -67 6 -11 11 -33 11 -48 0 -16 22 -74 50 -129 27 -54
49 -103 49 -109 -3 -29 4 -48 39 -98 38 -57 126 -137 150 -137 8 0 28 6 45 14
18 7 59 23 92 36 82 32 210 103 263 147 24 19 66 46 93 60 28 13 69 41 92 62
23 21 59 46 80 55 45 18 72 40 186 149 81 77 164 127 211 127 10 0 31 -15 45
-34 20 -26 37 -36 68 -41 63 -11 143 -64 238 -158 46 -46 111 -101 144 -122
33 -21 90 -66 127 -101 45 -42 84 -69 123 -83 89 -34 137 -61 185 -106 40 -37
237 -145 264 -145 5 0 21 -11 35 -24 15 -13 53 -38 86 -54 56 -28 87 -37 225
-63 126 -25 278 -67 307 -86 30 -20 63 -11 107 28 19 16 92 59 163 94 105 52
143 78 213 142 47 43 100 89 118 101 17 13 32 29 32 37 0 7 24 42 54 77 29 35
57 73 60 85 4 12 19 28 33 35 14 7 40 41 60 78 59 109 106 175 129 178 23 3
83 -34 194 -118 36 -27 99 -70 140 -94 41 -25 84 -52 95 -61 10 -8 25 -15 31
-15 7 0 21 -10 31 -22 57 -69 188 -156 281 -187 35 -11 91 -39 125 -62 34 -22
109 -64 167 -92 58 -28 125 -64 149 -80 24 -17 67 -39 94 -49 82 -31 107 -53
107 -96 0 -20 10 -57 22 -82 15 -31 22 -69 24 -125 2 -73 7 -117 32 -302 6
-45 15 -70 33 -89 28 -30 171 -134 214 -156 17 -8 65 -34 108 -56 43 -23 88
-42 101 -42 12 0 51 -12 87 -26 80 -33 193 -64 238 -64 46 0 163 -21 178 -32
8 -7 7 -16 -4 -37 -16 -27 -15 -28 34 -92 28 -35 62 -89 77 -119 46 -92 96
-220 96 -243 0 -12 12 -49 26 -82 15 -33 30 -80 34 -105 5 -25 20 -79 33 -120
30 -88 47 -161 47 -195 0 -13 6 -39 14 -57 8 -18 19 -67 25 -108 6 -41 18
-106 26 -145 9 -38 21 -104 26 -145 5 -41 15 -97 23 -125 33 -120 47 -564 25
-781 -9 -86 -9 -126 0 -172 8 -42 9 -74 2 -104 -5 -24 -12 -82 -15 -130 -4
-48 -10 -97 -15 -110 -9 -24 -32 -234 -51 -463 -12 -156 -13 -160 -38 -241
-30 -100 -54 -203 -57 -248 -3 -40 -12 -78 -53 -216 -13 -47 -28 -103 -32
-125 -15 -81 -82 -221 -139 -292 -14 -17 -44 -56 -65 -85 -72 -98 -261 -232
-352 -249 -50 -9 -62 -8 -123 16 -40 15 -81 39 -100 59 -38 39 -181 243 -212
301 -12 22 -29 49 -39 60 -9 11 -44 67 -77 125 -132 231 -148 257 -182 296
-44 51 -75 100 -141 229 -40 78 -64 112 -110 153 -69 61 -113 121 -164 216
-47 89 -107 156 -139 156 -30 0 -122 73 -164 132 -73 100 -231 240 -313 276
-30 13 -68 34 -85 46 -16 13 -41 29 -54 36 -44 23 -185 71 -235 80 -45 9 -63
18 -154 85 -18 13 -73 40 -122 60 -118 50 -134 65 -126 123 4 28 2 50 -5 59
-8 9 -12 82 -12 226 0 221 8 333 25 343 14 9 146 40 247 59 88 16 136 29 250
65 36 11 77 20 93 20 48 0 297 85 453 155 28 12 79 32 115 45 74 26 117 49
178 97 53 43 56 79 11 147 -18 26 -36 68 -40 92 -5 25 -18 57 -29 71 -11 14
-20 37 -20 52 0 14 -12 46 -26 71 -26 44 -74 169 -74 191 0 6 -17 30 -37 54
-44 50 -108 173 -122 234 -5 24 -25 68 -44 99 -19 32 -47 82 -62 112 -15 30
-35 66 -45 80 -10 14 -30 63 -45 110 -15 47 -43 113 -62 148 -19 34 -43 88
-54 119 -10 31 -23 61 -28 67 -4 6 -14 29 -20 51 -16 53 -47 129 -77 186 -13
26 -24 58 -24 71 0 16 -14 36 -44 60 -67 57 -78 128 -64 419 7 151 -2 247 -25
264 -20 14 -95 11 -110 -4 -8 -8 -7 -30 1 -73 8 -42 11 -132 8 -273 -4 -182
-3 -214 12 -242 15 -30 15 -35 -4 -80 -15 -38 -37 -62 -102 -113 -45 -36 -96
-80 -113 -98 -17 -18 -35 -32 -40 -32 -4 0 -48 -26 -96 -57 -48 -31 -106 -62
-128 -69 -22 -6 -69 -25 -105 -42 -36 -16 -88 -37 -117 -46 -28 -10 -62 -26
-75 -36 -13 -10 -42 -21 -64 -25 -83 -14 -231 -45 -264 -55 -19 -6 -89 -20
-155 -33 -100 -18 -155 -22 -325 -22 -200 1 -207 1 -285 29 -44 16 -89 35
-100 42 -11 7 -54 16 -95 20 -90 8 -154 32 -229 84 -31 22 -80 47 -108 55 -76
23 -93 51 -105 178 -5 56 -14 116 -20 132 -6 17 -11 71 -10 120 0 50 -6 162
-14 250 -8 88 -14 178 -13 200 0 22 -4 67 -11 100 -7 33 -13 86 -14 117 -4
101 -66 138 -136 79 -34 -28 -35 -30 -21 -62 7 -19 16 -56 20 -84 4 -27 10
-56 15 -63 5 -8 10 -46 11 -85 2 -40 8 -115 14 -168 7 -54 16 -168 21 -255 5
-88 14 -186 20 -219 8 -43 8 -80 1 -133 -11 -70 -10 -74 16 -121 27 -48 27
-49 10 -85 -9 -20 -17 -47 -17 -59 0 -12 -24 -71 -54 -132 -30 -60 -62 -135
-71 -165 -10 -30 -26 -73 -36 -96 -11 -23 -19 -45 -19 -49 0 -7 -13 -37 -65
-150 -22 -47 -46 -116 -55 -162 -5 -22 -23 -63 -39 -90 -17 -27 -37 -66 -46
-86 -8 -20 -40 -75 -71 -123 -66 -102 -94 -164 -94 -207 0 -18 -7 -52 -16 -77
-9 -25 -16 -66 -15 -92 0 -30 -6 -60 -18 -80 -11 -18 -22 -47 -26 -64 -5 -27
-2 -35 22 -54 23 -18 37 -21 79 -17 50 5 53 4 90 -34 51 -53 103 -76 199 -88
142 -19 238 -42 355 -83 109 -39 123 -41 275 -49 165 -8 257 -21 311 -44 31
-13 32 -15 40 -101 10 -111 12 -175 11 -289 -2 -178 3 -218 25 -242 70 -74
143 39 105 161 -14 42 -16 88 -14 245 4 222 1 217 96 208 31 -2 128 -1 215 4
94 5 166 4 176 -1 23 -12 32 -84 36 -281 3 -169 15 -222 53 -234 26 -8 75 20
92 52 11 20 10 36 -4 91 -16 64 -17 83 -17 217 0 33 -3 77 -6 98 -6 36 -4 38
33 53 26 12 55 15 95 11 32 -3 73 -1 91 3 17 5 117 14 220 20 143 8 192 8 203
0 11 -10 14 -58 15 -234 4 -368 1 -419 -19 -434 -11 -9 -28 -11 -47 -6 -16 4
-233 7 -482 6 -383 0 -455 -3 -480 -16 -43 -21 -136 -56 -152 -56 -34 0 -239
-110 -291 -156 -36 -32 -185 -127 -250 -159 -73 -37 -167 -112 -228 -183 -27
-31 -84 -118 -127 -192 -111 -191 -171 -288 -210 -340 -36 -48 -165 -293 -165
-313 0 -20 -80 -170 -109 -203 -14 -17 -38 -53 -53 -80 -15 -27 -83 -110 -151
-184 -128 -140 -240 -229 -315 -250 -20 -5 -92 -10 -160 -10 -101 0 -129 3
-160 19 -20 10 -57 24 -82 31 -45 12 -80 35 -80 52 0 6 -27 40 -60 76 -106
117 -151 237 -154 401 -1 116 -1 116 31 161 18 25 60 86 94 137 54 81 74 101
158 160 53 37 107 74 121 81 13 7 38 22 55 32 30 18 91 34 258 64 124 23 372
110 427 149 25 17 68 44 95 58 30 15 63 43 82 70 18 24 53 68 79 96 25 29 56
73 69 99 44 87 58 320 22 363 -15 17 -84 168 -111 242 -21 58 -90 124 -177
169 -37 19 -114 64 -170 99 -113 71 -176 94 -299 111 -174 24 -313 13 -425
-32 -27 -11 -84 -33 -125 -48 -41 -15 -89 -34 -106 -43 -83 -43 -139 -120
-128 -176 12 -60 34 -62 159 -17 124 45 259 28 374 -48 39 -26 80 -59 91 -73
33 -42 73 -181 67 -234 -7 -61 -45 -175 -63 -190 -8 -7 -36 -43 -61 -82 -54
-79 -199 -214 -240 -222 -16 -3 -53 -12 -83 -20 -30 -8 -80 -19 -110 -26 -30
-6 -73 -20 -96 -30 -22 -10 -45 -19 -51 -19 -21 0 -109 -44 -164 -82 -168
-114 -283 -302 -319 -518 -5 -30 -14 -71 -20 -90 -5 -19 -10 -55 -10 -80 0
-77 31 -393 42 -425 5 -16 14 -46 18 -65 4 -19 13 -48 18 -65 6 -16 16 -55 23
-85 6 -30 20 -80 31 -110 17 -49 32 -101 57 -197 5 -17 25 -67 45 -110 21 -43
45 -96 55 -118 10 -22 44 -93 77 -158 65 -131 87 -153 229 -228 39 -20 101
-53 139 -73 69 -37 69 -37 185 -35 173 2 216 13 313 75 127 81 152 102 308
256 80 79 174 168 209 198 60 52 88 88 221 284 59 87 171 203 320 331 52 44
115 107 141 140 60 77 119 164 119 177 0 5 18 39 40 76 22 36 45 85 51 107 9
31 35 64 118 146 l108 106 99 31 c130 40 211 60 454 115 83 18 130 21 370 23
207 1 287 -2 324 -12 27 -8 84 -14 125 -14 47 0 99 -8 136 -19 61 -20 213 -94
263 -129 15 -10 54 -31 86 -46 33 -15 78 -40 100 -57 174 -127 365 -258 426
-292 17 -9 37 -30 43 -46 8 -22 28 -38 74 -61 53 -27 86 -57 196 -176 135
-148 147 -166 247 -374 48 -99 67 -127 150 -216 52 -56 100 -108 107 -116 17
-17 122 -114 202 -183 54 -47 305 -211 390 -255 13 -6 62 -37 108 -68 106 -71
134 -86 203 -111 138 -49 374 -72 478 -45 29 8 74 14 101 14 43 0 162 32 186
50 6 5 42 16 80 25 39 9 78 19 87 21 10 3 35 20 57 37 97 80 144 112 207 146
49 26 70 43 74 61 6 23 35 65 155 226 25 33 45 68 45 77 0 8 11 28 24 44 34
41 46 68 46 103 0 28 14 69 55 165 7 17 16 46 20 65 4 19 19 57 32 84 42 83
92 290 93 379 0 32 4 66 10 76 5 10 11 81 13 157 2 77 11 202 20 279 8 77 15
178 15 225 -1 56 4 99 15 127 16 41 65 401 68 498 1 28 -1 79 -5 115 -3 36 -8
146 -11 245 -3 99 -10 191 -15 205 -4 14 -11 75 -14 136 -6 116 -30 280 -47
324 -5 14 -16 81 -23 150 -16 141 -26 189 -49 242 -22 51 -41 188 -34 251 4
41 -1 66 -24 124 -16 39 -29 80 -29 90 0 10 -14 47 -30 81 -17 35 -30 75 -30
88 0 14 -6 40 -14 59 -8 19 -22 62 -31 96 -8 35 -29 88 -45 118 -17 30 -30 63
-30 73 0 17 -10 44 -62 173 -26 65 -47 137 -58 205 -7 37 -17 60 -31 71 -27
20 -19 35 25 43 54 10 131 85 145 141 10 39 9 51 -9 90 -11 24 -20 58 -20 76
0 19 -13 52 -30 79 -21 33 -33 68 -40 120 -9 64 -16 80 -44 110 -18 19 -40 47
-47 62 -57 112 -93 174 -118 206 -16 20 -55 85 -86 143 -49 94 -55 111 -49
147 5 34 3 42 -17 56 -13 9 -33 16 -45 16 -11 0 -36 11 -55 25 -107 78 -213
113 -404 134 -72 8 -106 29 -147 90 -17 25 -48 66 -68 91 -54 67 -190 276
-190 292 0 8 -20 47 -45 88 -59 99 -67 140 -57 270 10 120 26 161 86 223 80
83 212 107 393 72 43 -8 103 -15 133 -15 120 1 373 59 478 111 105 52 245 181
290 268 16 31 36 70 45 86 9 17 18 37 21 46 6 21 106 54 138 46 13 -4 52 -24
86 -46 52 -34 66 -50 95 -108 19 -37 38 -79 42 -93 4 -14 17 -38 27 -53 25
-35 45 -109 53 -195 3 -37 11 -84 17 -105 11 -36 10 -39 -25 -71 -40 -37 -52
-69 -44 -127 3 -22 1 -52 -4 -67 -5 -15 -22 -66 -38 -114 -28 -82 -29 -87 -12
-102 22 -20 42 -20 86 -2 46 20 56 42 71 170 21 171 25 186 40 186 21 0 135
-135 168 -198 19 -37 48 -48 85 -32 24 10 61 64 61 89 0 5 -19 21 -42 36 -116
76 -217 213 -218 295 0 19 -5 53 -11 75 -6 22 -14 65 -19 96 -4 31 -19 80 -34
108 -14 29 -26 59 -26 66 0 46 -45 125 -107 191 -103 107 -145 134 -209 134
-64 0 -84 7 -84 29 0 10 15 62 34 117 19 54 39 137 45 184 6 47 15 110 21 140
14 74 15 243 1 268 -6 11 -11 36 -11 56 0 20 -14 61 -35 100 -19 37 -35 77
-35 91 0 14 -18 45 -42 74 -24 27 -74 87 -113 132 -48 57 -83 88 -113 101 -24
11 -59 30 -77 43 -27 18 -59 25 -152 35 -65 6 -158 18 -208 26 -135 21 -278
24 -395 9z m385 -146 c28 -6 95 -10 150 -11 160 0 190 -13 298 -131 86 -92
109 -124 171 -239 40 -74 59 -168 53 -273 -3 -49 -10 -101 -16 -115 -6 -14
-17 -84 -25 -156 -13 -131 -19 -149 -82 -264 -41 -76 -34 -74 -221 -73 -108 0
-179 4 -198 12 -16 7 -72 23 -123 37 -52 14 -116 35 -141 48 -68 32 -278 196
-335 260 -27 31 -58 58 -68 62 -12 3 -30 29 -44 59 -28 65 -55 83 -92 64 -14
-8 -31 -29 -39 -46 -12 -31 -11 -37 18 -88 31 -56 106 -131 217 -218 34 -27
62 -53 62 -58 0 -5 14 -16 30 -24 17 -9 54 -34 83 -55 29 -22 68 -47 87 -56
19 -8 55 -26 80 -39 25 -12 79 -29 120 -35 41 -7 93 -21 114 -31 52 -25 81
-29 212 -33 61 -2 116 -6 121 -9 15 -9 -40 -119 -83 -167 -20 -22 -61 -54 -92
-71 -146 -81 -242 -127 -292 -140 -63 -15 -274 -17 -390 -3 -102 12 -201 2
-296 -32 -71 -26 -86 -36 -151 -104 -54 -56 -73 -82 -73 -103 0 -16 -5 -38
-11 -49 -16 -29 -21 -241 -8 -303 6 -27 32 -95 59 -150 26 -55 57 -121 68
-147 11 -26 55 -98 98 -160 43 -62 91 -132 107 -155 15 -24 32 -43 37 -43 4 0
19 -20 33 -45 26 -46 53 -81 153 -198 33 -40 73 -97 88 -127 32 -68 63 -117
96 -156 14 -16 36 -51 50 -77 l25 -48 -23 -19 c-15 -12 -47 -20 -100 -25 -42
-4 -92 -11 -111 -16 -48 -12 -279 8 -308 27 -14 9 -23 25 -23 40 0 14 -11 45
-25 68 -14 24 -32 70 -41 102 -20 79 -52 130 -116 187 -149 134 -202 186 -233
227 -19 25 -45 52 -60 60 -14 8 -46 42 -70 75 -24 34 -59 75 -77 91 -109 98
-250 283 -267 351 -7 27 -16 62 -21 79 -6 17 -10 44 -10 60 0 16 -7 39 -15 52
-9 12 -29 72 -44 134 -16 62 -36 140 -46 173 -49 172 -67 331 -66 585 1 219
11 334 35 415 8 28 22 81 32 119 9 38 30 95 46 125 16 31 45 85 63 121 19 36
32 74 29 85 -4 19 20 60 114 193 21 29 73 84 117 123 44 39 89 78 100 88 11
10 31 22 44 26 14 4 58 34 99 66 41 33 91 63 111 69 58 15 202 15 230 0 18 -9
47 -11 110 -5 47 4 140 9 206 11 66 2 140 8 165 13 50 11 227 5 305 -10z
m-5591 -1484 c5 -38 8 -122 8 -185 -2 -90 2 -125 17 -165 28 -74 77 -153 154
-246 68 -83 75 -99 58 -141 -5 -13 -12 -34 -15 -48 -4 -14 -22 -43 -41 -64
-31 -35 -43 -41 -98 -48 -112 -16 -130 -11 -214 56 -23 19 -72 45 -110 60 -56
21 -81 39 -140 99 -39 39 -75 81 -81 93 -6 11 -20 65 -31 120 -26 131 -20 199
23 260 100 140 110 149 227 209 131 67 152 74 199 72 l35 -2 9 -70z m219 -33
c67 -68 91 -127 61 -149 -23 -17 -101 -17 -134 0 -23 12 -25 18 -26 92 0 44 2
88 4 98 6 31 37 18 95 -41z m13 -307 c9 -23 -16 -76 -34 -73 -9 2 -22 18 -29
36 -12 31 -12 33 9 42 34 13 48 12 54 -5z m469 -21 c32 -3 65 -9 71 -15 17
-14 138 -33 194 -31 48 2 104 -17 235 -78 44 -21 109 -45 145 -54 84 -21 220
-74 242 -95 17 -15 16 -19 -12 -61 -17 -25 -30 -50 -30 -56 0 -6 -10 -24 -22
-40 -21 -26 -35 -63 -58 -154 -4 -19 -16 -55 -25 -79 -8 -24 -13 -52 -10 -62
4 -12 1 -21 -7 -24 -18 -7 -162 58 -202 91 -33 27 -105 76 -173 119 -24 15
-68 30 -105 36 -39 6 -93 24 -142 50 -76 39 -82 40 -190 43 -141 4 -226 37
-226 87 0 10 -18 39 -40 64 -22 25 -40 49 -40 53 0 4 -16 24 -35 45 -63 68
-68 104 -8 57 40 -31 59 -25 101 33 53 71 60 75 122 80 53 4 88 3 215 -9z
m-1333 -80 c3 -62 -4 -84 -31 -84 -17 0 -25 -7 -94 -81 -30 -34 -37 -37 -77
-32 -56 5 -110 -24 -110 -60 0 -25 50 -82 81 -92 32 -11 169 56 231 113 35 32
65 24 98 -25 46 -69 74 -91 203 -163 20 -11 37 -27 37 -34 0 -8 -28 -35 -63
-59 -35 -25 -75 -60 -89 -79 -14 -18 -59 -55 -99 -83 -41 -27 -101 -69 -134
-92 -33 -24 -76 -48 -96 -53 -25 -7 -57 -31 -96 -70 -34 -35 -75 -67 -100 -76
-24 -9 -64 -27 -90 -40 -49 -25 -129 -32 -162 -15 -10 6 -35 52 -56 103 -21
51 -49 108 -62 127 -13 18 -23 42 -23 53 0 10 -6 31 -14 46 -7 15 -16 61 -19
102 -3 41 -9 93 -13 115 -10 58 -7 170 6 226 10 42 18 53 65 84 29 19 77 47
107 61 29 14 62 30 72 36 11 6 42 10 70 9 56 -1 130 29 147 60 20 38 88 64
184 69 50 3 97 2 107 -2 11 -6 17 -24 20 -64z m2455 -270 c71 -30 158 -75 210
-108 52 -33 186 -86 217 -86 20 0 112 -48 157 -83 19 -14 60 -37 92 -51 66
-29 78 -48 50 -79 -11 -12 -38 -53 -59 -92 -21 -38 -58 -89 -81 -112 -23 -24
-48 -54 -56 -69 -20 -39 -140 -174 -154 -174 -7 0 -13 -4 -13 -8 0 -5 -21 -24
-47 -42 -27 -18 -63 -47 -81 -64 -32 -30 -75 -54 -250 -142 l-93 -47 -67 18
c-107 27 -144 34 -193 35 -83 0 -198 37 -299 95 -53 30 -104 55 -113 55 -9 0
-22 8 -29 19 -7 10 -35 30 -63 45 -27 15 -88 51 -135 80 -47 30 -101 59 -121
65 -65 20 -123 59 -176 119 -28 33 -77 76 -108 96 -58 39 -235 202 -235 217 0
5 19 21 43 35 23 15 60 45 82 66 70 69 80 71 194 48 55 -11 128 -20 163 -20
53 0 70 -5 107 -30 24 -16 76 -39 115 -51 39 -12 96 -30 127 -39 32 -10 109
-53 178 -99 130 -86 273 -161 308 -161 41 0 61 57 33 92 -18 22 -17 23 16 60
30 34 34 44 34 94 0 48 8 73 61 180 78 159 100 175 186 138z m3672 -1059 c42
-21 117 -110 125 -146 16 -84 -4 -191 -37 -197 -22 -4 -63 31 -84 73 -8 17
-25 40 -36 53 -42 46 -141 228 -133 247 5 15 118 -5 165 -30z m-946 -105 c74
-52 84 -65 120 -148 73 -169 57 -218 -58 -178 -85 30 -192 56 -228 56 -28 0
-46 8 -74 34 l-37 33 17 58 c17 61 27 72 96 106 24 12 53 33 64 46 27 31 50
29 100 -7z m1287 -378 c5 -19 30 -66 57 -105 48 -71 62 -100 89 -192 8 -27 19
-58 24 -67 26 -46 50 -128 50 -169 0 -57 -15 -71 -95 -95 -52 -15 -109 -17
-415 -19 -339 -1 -359 0 -435 21 -44 13 -120 26 -170 29 -56 4 -104 14 -127
25 -20 10 -56 24 -80 30 -23 6 -93 36 -154 65 -91 44 -126 68 -193 131 -75 70
-83 81 -78 108 2 17 1 71 -2 119 -4 64 -3 91 6 99 12 10 66 0 203 -37 30 -8
84 -15 121 -15 39 0 94 -9 134 -21 47 -14 88 -20 138 -18 40 2 93 -3 120 -9
122 -31 135 -32 178 -17 23 8 67 15 98 15 31 0 68 6 83 14 15 8 52 22 83 31
92 26 183 82 222 136 18 26 39 50 46 52 17 7 85 -72 97 -111z m-3110 -179 c16
-27 30 -54 30 -60 0 -7 29 -86 65 -175 36 -88 65 -172 65 -184 0 -13 14 -38
30 -56 17 -18 30 -38 30 -45 0 -7 4 -21 9 -31 5 -9 19 -42 31 -72 12 -30 28
-66 35 -80 8 -14 26 -46 40 -72 14 -26 25 -57 25 -69 0 -11 8 -33 18 -47 11
-15 33 -58 51 -97 18 -38 40 -83 48 -100 65 -122 102 -204 103 -224 0 -13 16
-53 35 -88 19 -35 35 -68 35 -74 0 -6 11 -25 24 -42 13 -18 34 -66 46 -107 12
-41 26 -79 31 -84 14 -15 11 -44 -8 -72 -17 -27 -64 -54 -128 -74 -22 -7 -107
-38 -190 -70 -82 -31 -186 -66 -230 -78 -44 -12 -139 -38 -211 -57 -72 -20
-157 -40 -190 -46 -32 -5 -90 -16 -129 -24 -191 -43 -449 -60 -1050 -72 -555
-10 -548 -11 -810 33 -55 9 -129 18 -165 19 -97 4 -159 14 -215 36 -87 33
-274 86 -409 115 -54 12 -94 28 -130 52 -28 19 -62 38 -76 42 -22 6 -25 12
-24 46 5 132 27 226 73 300 67 110 141 241 156 279 10 22 26 59 36 83 11 23
19 51 19 61 0 10 11 44 25 75 14 31 25 62 25 68 0 16 47 136 70 179 11 20 20
45 20 55 0 17 34 95 59 134 26 41 81 175 81 197 0 32 15 60 40 73 16 8 32 5
74 -15 30 -14 64 -34 77 -44 56 -43 140 -73 218 -78 89 -5 128 -14 231 -55 67
-28 86 -31 180 -31 369 1 533 17 705 67 282 83 399 126 460 170 16 11 53 31
80 42 139 60 207 93 261 129 74 49 228 166 232 177 7 17 34 38 48 38 8 0 27
-21 44 -47z m3172 -601 c4 -4 23 -56 42 -114 19 -58 46 -129 60 -157 14 -27
26 -56 26 -62 0 -13 37 -103 80 -194 15 -33 33 -85 40 -115 20 -92 40 -147 60
-165 12 -10 20 -31 20 -48 0 -16 13 -71 29 -121 16 -50 32 -125 36 -166 9
-100 32 -235 49 -285 8 -22 17 -87 20 -145 5 -90 25 -209 44 -260 21 -57 35
-159 42 -312 4 -98 12 -190 18 -205 31 -82 38 -474 13 -683 -18 -152 -32 -243
-42 -270 -5 -14 -11 -59 -13 -100 -3 -41 -14 -176 -25 -300 -11 -124 -22 -281
-25 -350 -8 -153 -20 -259 -39 -325 -26 -90 -127 -367 -142 -388 -8 -12 -15
-34 -15 -50 0 -34 -35 -103 -89 -177 -22 -30 -54 -80 -70 -110 -48 -92 -267
-285 -361 -320 -30 -12 -68 -27 -85 -34 -16 -8 -55 -19 -85 -26 -30 -7 -105
-28 -166 -46 -100 -30 -125 -34 -229 -34 -167 0 -252 20 -394 91 -64 32 -145
78 -181 103 -36 24 -128 85 -205 134 -172 111 -243 168 -310 252 -29 36 -83
99 -121 140 -38 41 -78 89 -89 105 -10 17 -35 50 -56 75 -21 25 -54 79 -73
120 -19 42 -44 84 -56 95 -12 11 -29 33 -37 48 -27 53 -121 166 -225 272 -80
82 -122 116 -186 151 -45 25 -115 74 -155 110 -40 35 -110 88 -157 116 -47 28
-128 82 -181 119 -53 38 -114 76 -135 85 -21 8 -84 37 -139 64 -130 64 -255
100 -350 100 -43 0 -90 7 -116 16 -37 14 -94 17 -359 18 -297 1 -321 0 -420
-23 -58 -12 -121 -31 -140 -40 -51 -25 -220 -69 -313 -81 -79 -11 -145 -53
-271 -175 -101 -97 -136 -147 -136 -195 0 -11 -18 -40 -40 -64 -22 -24 -40
-46 -40 -50 0 -4 -17 -33 -39 -64 -21 -31 -53 -80 -70 -108 -32 -52 -107 -128
-196 -197 -27 -21 -83 -70 -125 -110 -64 -61 -86 -91 -134 -182 -67 -129 -72
-136 -151 -199 -33 -27 -85 -71 -115 -100 -30 -28 -89 -79 -131 -113 -42 -34
-89 -77 -104 -95 -67 -83 -184 -192 -223 -210 -23 -10 -82 -24 -131 -29 -79
-10 -98 -9 -169 10 -98 25 -222 91 -276 146 -72 73 -136 156 -136 176 0 11 -8
36 -18 57 -10 20 -31 78 -46 127 -15 50 -34 103 -42 118 -8 16 -14 39 -14 51
0 12 -14 43 -30 69 -17 26 -30 56 -30 66 0 11 -14 72 -31 137 -17 66 -35 151
-39 189 -4 39 -15 126 -25 195 -20 147 -15 224 22 355 43 150 80 208 213 331
89 82 177 126 300 149 127 23 157 33 246 75 87 42 159 109 222 206 48 74 94
141 120 174 25 31 77 177 88 247 7 47 -37 200 -78 268 -41 71 -141 160 -217
196 -39 18 -71 38 -71 44 0 5 14 16 31 24 26 11 47 12 113 3 44 -7 118 -16
163 -21 99 -11 170 -41 310 -134 165 -111 210 -159 253 -274 11 -30 30 -67 41
-83 46 -62 31 -244 -26 -312 -14 -17 -35 -48 -46 -69 -18 -37 -170 -169 -194
-169 -6 0 -35 -13 -65 -28 -51 -27 -130 -54 -273 -96 -32 -10 -88 -19 -125
-21 -66 -3 -174 -36 -257 -78 -105 -53 -268 -194 -314 -274 -19 -32 -59 -91
-88 -130 -82 -111 -87 -126 -87 -288 l0 -140 36 -65 c20 -36 41 -82 47 -102 7
-20 22 -43 34 -51 23 -15 50 -52 103 -140 16 -27 40 -62 53 -78 77 -97 320
-158 486 -122 39 8 89 19 113 24 41 8 108 41 167 82 60 42 184 161 204 196 11
20 40 55 65 78 24 23 57 63 72 90 15 26 39 62 54 78 50 55 110 154 171 279 33
68 75 141 93 163 18 21 47 65 66 97 18 33 53 83 77 113 41 50 64 98 82 169 13
48 35 88 98 176 78 108 143 165 246 216 47 23 116 65 153 94 61 46 214 133
359 202 45 22 143 54 232 76 17 4 127 3 245 -2 117 -5 344 -10 503 -11 l290
-2 180 -92 c99 -51 205 -101 235 -112 101 -34 242 -103 320 -155 138 -91 260
-187 275 -216 19 -37 74 -90 153 -147 37 -26 65 -55 68 -69 4 -13 21 -37 39
-52 18 -15 43 -47 55 -72 26 -52 60 -95 148 -189 35 -36 78 -93 96 -126 71
-130 91 -162 125 -202 61 -71 76 -95 121 -187 24 -48 62 -114 85 -145 23 -31
53 -76 65 -101 13 -25 42 -70 65 -100 23 -30 50 -69 59 -87 58 -114 184 -250
264 -285 62 -28 214 -43 283 -29 71 15 243 121 322 199 102 99 225 309 257
435 11 45 34 125 50 177 31 103 60 253 60 313 0 20 9 54 20 74 11 21 20 49 20
63 0 14 5 41 10 60 17 58 40 230 40 310 1 41 8 109 17 150 8 41 19 118 23 170
4 52 13 145 19 205 13 123 23 418 21 660 -1 88 3 180 9 205 10 46 8 70 -24
245 -8 44 -21 119 -29 167 -8 48 -18 93 -23 100 -4 7 -11 42 -14 78 -4 36 -17
108 -28 160 -12 52 -26 118 -30 145 -5 28 -15 68 -21 90 -6 22 -17 65 -25 95
-15 60 -49 166 -71 217 -7 18 -16 56 -20 85 -4 29 -18 82 -31 118 -14 36 -30
91 -37 123 -9 38 -23 68 -43 90 -34 36 -87 152 -78 167 8 13 595 4 607 -8z"/>
<path d="M10170 10083 c-32 -17 -35 -22 -38 -70 -3 -45 1 -55 28 -86 17 -20
51 -43 75 -53 42 -15 46 -15 70 0 14 9 25 26 25 37 0 11 5 29 10 40 14 26 -10
98 -42 122 -36 27 -87 31 -128 10z"/>
<path d="M6704 9813 c-12 -2 -30 -13 -40 -24 -24 -26 -10 -50 40 -66 20 -7 60
-24 90 -38 29 -14 58 -25 65 -25 6 0 53 -20 104 -44 51 -25 117 -53 147 -64
258 -92 262 -94 331 -162 60 -60 67 -71 87 -145 13 -44 28 -96 34 -117 6 -22
8 -61 3 -100 -11 -103 -10 -144 4 -162 20 -24 75 -20 107 7 24 21 28 32 32
108 3 46 5 95 4 109 -4 83 -11 130 -25 165 -8 22 -26 69 -38 103 -20 54 -36
75 -105 142 -88 83 -134 106 -234 120 -60 8 -153 42 -264 94 -138 66 -292 110
-342 99z"/>
<path d="M6105 2358 c-26 -23 -26 -25 -27 -168 -1 -145 8 -406 17 -490 2 -25
7 -114 11 -197 7 -169 4 -178 -52 -148 -34 17 -83 19 -117 4 -35 -16 -127 14
-167 54 -48 48 -57 73 -64 177 -3 52 -13 120 -21 150 -8 30 -19 138 -25 240
-17 309 -46 372 -147 311 -40 -25 -51 -69 -30 -120 29 -70 38 -117 41 -206 4
-98 12 -168 27 -230 18 -74 35 -260 29 -332 -5 -72 -6 -73 -54 -116 -48 -42
-58 -58 -145 -234 -58 -119 -92 -256 -108 -438 -5 -68 -4 -74 18 -91 13 -11
41 -38 64 -61 27 -28 52 -44 77 -48 34 -7 40 -4 86 44 29 29 58 51 70 51 72 0
293 130 321 187 6 13 28 42 49 65 21 24 64 80 97 126 34 48 65 82 75 82 19 0
64 -53 80 -94 23 -62 261 -195 501 -280 70 -24 141 -52 159 -61 69 -36 126
-45 301 -50 167 -5 178 -4 203 16 47 37 35 69 -61 174 -36 38 -71 82 -79 98
-9 16 -34 54 -58 85 -39 52 -62 96 -155 294 -24 50 -48 81 -95 123 l-63 56 -6
82 c-4 45 -13 147 -21 227 -15 157 -12 462 5 506 5 15 6 49 3 76 -11 84 -63
110 -133 67 -32 -20 -33 -21 -27 -72 10 -79 21 -513 18 -677 l-2 -145 -30 -27
c-16 -15 -54 -34 -84 -43 -66 -19 -280 -27 -301 -11 -20 15 -55 322 -60 521
-3 88 -7 227 -9 309 -3 82 0 160 5 174 21 56 -63 85 -116 40z m-270 -1109 c41
-15 82 -23 130 -23 39 -1 75 -4 81 -8 22 -15 -11 -115 -53 -162 -21 -24 -53
-68 -71 -98 -48 -80 -216 -250 -280 -282 -78 -39 -188 -77 -205 -70 -8 3 -17
13 -20 23 -9 34 31 235 57 286 14 28 43 89 64 136 30 64 56 103 108 158 77 82
79 83 189 40z m501 -54 c65 -35 178 -33 359 6 116 24 109 25 160 -27 45 -47
82 -113 122 -217 10 -27 33 -66 50 -87 18 -21 42 -59 53 -85 11 -26 36 -65 55
-88 19 -22 35 -44 35 -49 0 -41 -184 -27 -309 23 -42 17 -123 49 -181 71 -116
45 -300 143 -342 182 -58 55 -128 184 -128 238 0 18 45 58 66 58 7 0 34 -11
60 -25z"/>
</g>
</svg>
