<?xml version="1.0" encoding="UTF-8" standalone="no"?>
<svg
   width="100"
   height="100"
   viewBox="0 0 100 100"
   version="1.1"
   xml:space="preserve"
   style="clip-rule:evenodd;fill-rule:evenodd;stroke-linejoin:round;stroke-miterlimit:1.41421"
   id="svg29"
   sodipodi:docname="adina.svg"
   inkscape:version="1.1 (c4e8f9e, 2021-05-24)"
   xmlns:inkscape="http://www.inkscape.org/namespaces/inkscape"
   xmlns:sodipodi="http://sodipodi.sourceforge.net/DTD/sodipodi-0.dtd"
   xmlns="http://www.w3.org/2000/svg"
   xmlns:svg="http://www.w3.org/2000/svg"><defs
   id="defs33" /><sodipodi:namedview
   id="namedview31"
   pagecolor="#ffeb3b"
   bordercolor="#666666"
   borderopacity="1.0"
   inkscape:pageshadow="2"
   inkscape:pageopacity="0"
   inkscape:pagecheckerboard="0"
   showgrid="false"
   inkscape:zoom="4"
   inkscape:cx="43.25"
   inkscape:cy="48.75"
   inkscape:window-width="1382"
   inkscape:window-height="847"
   inkscape:window-x="58"
   inkscape:window-y="25"
   inkscape:window-maximized="1"
   inkscape:current-layer="svg29"
   fit-margin-top="0"
   fit-margin-left="0"
   fit-margin-right="0"
   fit-margin-bottom="0" />
            
            
            
            
            <rect
   style="fill:#ffeb3b;fill-opacity:1;stroke-width:1.02171"
   id="rect277"
   width="100"
   height="100"
   x="0"
   y="0" /><g
   id="g239"
   transform="translate(0,28.2588)"><g
     transform="translate(1.25,-27.0088)"
     id="g11">
                <path
   d="m 9.78,35.52 0.405,7.335 c 0,1.53 -0.225,2.745 -0.675,3.645 -0.45,0.9 -1.215,1.575 -2.295,2.025 1.14,0.39 1.92,0.983 2.34,1.777 0.42,0.795 0.63,2.018 0.63,3.668 L 9.69,61.89 c 0,1.17 0.142,2.025 0.427,2.565 0.286,0.54 0.803,0.81 1.553,0.81 0.75,0 1.425,-0.075 2.025,-0.225 l 0.45,3.42 c -1.26,0.27 -2.445,0.405 -3.555,0.405 -1.83,0 -3.247,-0.51 -4.253,-1.53 C 5.332,66.315 4.83,64.92 4.83,63.15 L 5.325,54.555 C 5.325,53.295 5.152,52.29 4.807,51.54 4.463,50.79 3.69,50.34 2.49,50.19 v -3.33 c 1.23,-0.15 2.018,-0.585 2.362,-1.305 0.345,-0.72 0.518,-1.83 0.518,-3.33 L 5.01,34.62 c 0,-1.83 0.48,-3.255 1.44,-4.275 0.96,-1.02 2.37,-1.53 4.23,-1.53 1.2,0 2.4,0.15 3.6,0.45 l -0.45,3.33 c -0.84,-0.15 -1.44,-0.225 -1.8,-0.225 -0.93,0 -1.537,0.232 -1.823,0.697 C 9.922,33.533 9.78,34.35 9.78,35.52 Z"
   style="fill:currentColor;fill-rule:nonzero"
   id="path9" />
            </g><g
     transform="translate(1.25,-27.0088)"
     id="g15">
                <path
   d="M 20.175,56.13 V 42.315 h -3.87 v -3.78 h 3.87 v -1.71 c 0,-2.94 0.675,-5.055 2.025,-6.345 1.26,-1.23 3.105,-1.845 5.535,-1.845 2.43,0 4.59,0.525 6.48,1.575 l -1.305,3.6 c -1.44,-0.75 -2.79,-1.125 -4.05,-1.125 -1.26,0 -2.13,0.308 -2.61,0.922 -0.48,0.615 -0.72,1.553 -0.72,2.813 v 2.115 h 6.66 v 3.78 H 25.53 V 57.39 l 3.78,0.18 v 3.6 H 17.385 v -3.42 l 1.485,-0.135 c 0.45,-0.06 0.78,-0.187 0.99,-0.383 0.21,-0.195 0.315,-0.562 0.315,-1.102 z"
   style="fill:currentColor;fill-rule:nonzero"
   id="path13" />
            </g><g
     transform="translate(1.25,-27.0088)"
     id="g19">
                <path
   d="m 46.86,56.4 -2.745,-3.6 -3.735,4.635 2.115,0.135 v 3.6 h -9.36 V 57.615 L 34.53,57.48 c 0.69,-0.09 1.29,-0.45 1.8,-1.08 L 41.505,49.92 35.97,42.27 33.675,42 V 38.535 H 44.16 v 3.555 l -1.305,0.09 c -0.36,0.03 -0.592,0.165 -0.697,0.405 -0.106,0.24 -0.053,0.495 0.157,0.765 l 2.565,3.42 3.465,-4.5 -1.845,-0.135 v -3.6 h 9.135 v 3.51 l -1.35,0.09 c -0.63,0.03 -1.23,0.405 -1.8,1.125 l -4.95,6.255 5.895,7.83 2.295,0.27 v 3.555 h -10.71 v -3.555 l 1.395,-0.09 c 0.39,-0.03 0.623,-0.158 0.697,-0.383 C 47.182,56.918 47.1,56.67 46.86,56.4 Z"
   style="fill:currentColor;fill-rule:nonzero"
   id="path17" />
            </g><g
     transform="translate(1.25,-27.0088)"
     id="g23">
                <path
   d="m 71.7,38.535 h 9.495 v 3.51 l -1.395,0.09 c -0.6,0.06 -1.005,0.42 -1.215,1.08 L 72.78,61.17 h -6.885 l -6.3,-17.91 c -0.15,-0.42 -0.308,-0.705 -0.473,-0.855 -0.164,-0.15 -0.442,-0.24 -0.832,-0.27 l -1.305,-0.09 v -3.51 H 67.56 v 3.6 l -2.745,0.135 4.635,14.805 h 0.09 L 74.04,42.27 71.7,42.135 Z"
   style="fill:currentColor;fill-rule:nonzero"
   id="path21" />
            </g><g
     transform="translate(1.25,-27.0088)"
     id="g27">
                <path
   d="m 87.81,61.89 -0.495,-7.92 c 0,-1.65 0.21,-2.873 0.63,-3.668 0.42,-0.794 1.2,-1.387 2.34,-1.777 C 89.205,48.075 88.44,47.4 87.99,46.5 87.54,45.6 87.315,44.385 87.315,42.855 L 87.72,35.52 c 0,-1.17 -0.142,-1.987 -0.427,-2.453 C 87.007,32.602 86.4,32.37 85.47,32.37 c -0.36,0 -0.96,0.075 -1.8,0.225 l -0.45,-3.33 c 1.2,-0.3 2.4,-0.45 3.6,-0.45 1.86,0 3.27,0.51 4.23,1.53 0.96,1.02 1.44,2.445 1.44,4.275 l -0.36,7.605 c 0,1.5 0.173,2.61 0.518,3.33 0.344,0.72 1.132,1.155 2.362,1.305 v 3.33 c -1.2,0.15 -1.973,0.6 -2.317,1.35 -0.345,0.75 -0.518,1.755 -0.518,3.015 l 0.495,8.595 c 0,1.77 -0.502,3.165 -1.507,4.185 -1.006,1.02 -2.423,1.53 -4.253,1.53 -1.11,0 -2.295,-0.135 -3.555,-0.405 l 0.45,-3.42 c 0.6,0.15 1.275,0.225 2.025,0.225 0.75,0 1.267,-0.27 1.553,-0.81 0.285,-0.54 0.427,-1.395 0.427,-2.565 z"
   style="fill:currentColor;fill-rule:nonzero"
   id="path25" />
            </g></g>
          </svg>
