<?xml version="1.0" encoding="UTF-8" standalone="no"?>
<svg
   id="Layer_1"
   x="0px"
   y="0px"
   viewBox="0 0 167.7 96.1"
   xml:space="preserve"
   version="1.1"
   sodipodi:docname="ajtyvit.svg"
   width="167.7"
   height="96.099998"
   inkscape:version="1.1.2 (b8e25be8, 2022-02-05)"
   xmlns:inkscape="http://www.inkscape.org/namespaces/inkscape"
   xmlns:sodipodi="http://sodipodi.sourceforge.net/DTD/sodipodi-0.dtd"
   xmlns="http://www.w3.org/2000/svg"
   xmlns:svg="http://www.w3.org/2000/svg"><defs
   id="defs839" /><sodipodi:namedview
   id="namedview837"
   pagecolor="#ffffff"
   bordercolor="#666666"
   borderopacity="1.0"
   inkscape:pageshadow="2"
   inkscape:pageopacity="0.0"
   inkscape:pagecheckerboard="0"
   showgrid="false"
   fit-margin-top="0"
   fit-margin-left="0"
   fit-margin-right="0"
   fit-margin-bottom="0"
   inkscape:zoom="4.9739854"
   inkscape:cx="84.137762"
   inkscape:cy="48.05"
   inkscape:window-width="1377"
   inkscape:window-height="847"
   inkscape:window-x="63"
   inkscape:window-y="25"
   inkscape:window-maximized="1"
   inkscape:current-layer="Layer_1" />
<style
   type="text/css"
   id="style824">
	.st0{fill:#1C3997;}
	.st1{fill:#FFFFFF;}
	.st2{fill:#F9596D;}
</style>
<g
   id="g834">
	<polygon
   class="st0"
   points="14.2,81.9 14.2,96.1 167.7,96.1 167.7,0 0,0 0,81.9 "
   id="polygon826" />
	<g
   id="g832">
		<path
   class="st1"
   d="m 91.9,33.4 h -1.8 v 12 c 0,0.6 0,1.2 -0.1,1.8 0,0.6 -0.2,1.2 -0.4,1.7 -0.2,0.5 -0.6,0.9 -1.1,1.2 -0.5,0.3 -1.1,0.5 -2,0.5 0,0 0,0 0,0 v 4.6 c 0,0 0,0 0,0 3,0 5.2,-0.7 6.6,-2.2 1.4,-1.4 2.2,-3.7 2.2,-6.9 V 31.6 h -3.4 z m 17.6,12.7 v -1.7 h 1.8 v -2.8 c 0,0 0,0 0,0 -0.9,0 -1.5,-0.2 -2,-0.5 -0.5,-0.3 -0.8,-0.7 -1.1,-1.2 -0.2,-0.5 -0.4,-1.1 -0.4,-1.7 0,-0.6 -0.1,-1.2 -0.1,-1.8 v -4.8 h 3.6 v -2.9 h -3.6 v -5.2 h -3.4 v 1.8 h -1.8 v 11.9 c 0,3.1 0.7,5.4 2.2,6.9 1.1,1.1 2.7,1.8 4.8,2 z m -23,-14.5 h -4.9 v 0.9 c -1.9,-0.7 -2.5,-0.9 -4.3,-0.9 -1,0 -1.9,0.2 -2.8,0.6 -0.9,0.4 -1.6,0.9 -2.2,1.6 -0.6,0.7 -1.1,1.4 -1.4,2.3 -0.3,0.9 -0.5,1.8 -0.5,2.8 0,1.1 0.2,2 0.5,2.9 0.3,0.9 0.8,1.7 1.5,2.3 0.7,0.6 1.4,1.2 2.2,1.5 0.8,0.4 1.8,0.5 2.8,0.5 1.8,0 3,-0.4 4.2,-1.3 v 1.3 h 3.1 v -1.8 h 1.8 z m -4.9,8.7 c -0.2,0.4 -0.4,0.8 -0.8,1.1 -0.3,0.3 -0.7,0.6 -1.1,0.8 -0.4,0.2 -0.9,0.3 -1.4,0.3 -0.5,0 -1,-0.1 -1.4,-0.3 -0.4,-0.2 -0.8,-0.4 -1.1,-0.8 -0.3,-0.3 -0.6,-0.7 -0.7,-1.1 -0.2,-0.4 -0.3,-0.9 -0.3,-1.4 0,-0.5 0.1,-0.9 0.3,-1.4 0.2,-0.4 0.4,-0.8 0.7,-1.1 0.3,-0.3 0.7,-0.6 1.1,-0.8 0.4,-0.2 0.9,-0.3 1.4,-0.3 0.5,0 1,0.1 1.4,0.3 0.4,0.2 0.8,0.4 1.1,0.8 0.3,0.3 0.6,0.7 0.8,1.1 0.2,0.4 0.3,0.9 0.3,1.4 0,0.5 -0.1,1 -0.3,1.4 z m 46.9,19.5 h -1.8 v 12.8 h 5.2 V 58 h -3.4 z M 108,66.9 104.3,58 h -2.9 v 1.8 h -1.8 l 5.7,12.8 h 5.2 L 117.1,58 h -5.4 z m 17.7,-35.3 -3.6,7 -3.7,-7 h -2.8 v 1.8 h -1.9 l 5.6,10.1 -6.2,11.6 h 5.5 L 131.1,31.6 Z M 144.3,58 v -2.9 h -3.6 v -5.2 h -3.4 v 1.8 h -1.8 v 11.9 c 0,3.1 0.7,5.4 2.2,6.9 1.1,1.1 2.8,1.8 4.9,2.1 v -1.7 h 1.8 V 68 c 0,0 0,0 0,0 -0.9,0 -1.5,-0.2 -2,-0.5 -0.5,-0.3 -0.8,-0.7 -1.1,-1.2 -0.2,-0.5 -0.4,-1.1 -0.4,-1.7 0,-0.6 -0.1,-1.2 -0.1,-1.8 V 58 Z"
   id="path828" />
		<path
   class="st2"
   d="m 91.9,25.3 h -1.8 v 3.4 h 5.2 v -5.2 h -3.4 z m 36.6,24.6 v 1.8 h -1.8 v 3.4 h 5.2 v -5.2 z"
   id="path830" />
	</g>
</g>
</svg>
