<?xml version="1.0" encoding="UTF-8" standalone="no"?>
<svg
   id="Sheet-9"
   viewBox="0 0 1260.6767 186.87302"
   version="1.1"
   sodipodi:docname="ataccama.svg"
   width="1260.6768"
   height="186.87302"
   inkscape:version="1.1.2 (b8e25be8, 2022-02-05)"
   xmlns:inkscape="http://www.inkscape.org/namespaces/inkscape"
   xmlns:sodipodi="http://sodipodi.sourceforge.net/DTD/sodipodi-0.dtd"
   xmlns:xlink="http://www.w3.org/1999/xlink"
   xmlns="http://www.w3.org/2000/svg"
   xmlns:svg="http://www.w3.org/2000/svg"
   xmlns:rdf="http://www.w3.org/1999/02/22-rdf-syntax-ns#"
   xmlns:cc="http://creativecommons.org/ns#"
   xmlns:dc="http://purl.org/dc/elements/1.1/">
  <sodipodi:namedview
     id="namedview857"
     pagecolor="#ffffff"
     bordercolor="#666666"
     borderopacity="1.0"
     inkscape:pageshadow="2"
     inkscape:pageopacity="0.0"
     inkscape:pagecheckerboard="0"
     showgrid="false"
     fit-margin-top="0"
     fit-margin-left="0"
     fit-margin-right="0"
     fit-margin-bottom="0"
     inkscape:zoom="0.80179938"
     inkscape:cx="634.19854"
     inkscape:cy="93.539608"
     inkscape:window-width="1377"
     inkscape:window-height="847"
     inkscape:window-x="63"
     inkscape:window-y="25"
     inkscape:window-maximized="1"
     inkscape:current-layer="Sheet-9" />
  <defs
     id="defs832">
    <style
       id="style824">.cls-1{fill:#330229;}.cls-2{fill:url(#New_Gradient_Swatch_copy_5);}.cls-3{fill:url(#New_Gradient_Swatch_copy_5-2);}</style>
    <linearGradient
       id="New_Gradient_Swatch_copy_5"
       x1="105.5742"
       y1="120.76167"
       x2="302.73956"
       y2="277.52432"
       gradientUnits="userSpaceOnUse">
      <stop
         offset="0"
         stop-color="#64519d"
         id="stop826" />
      <stop
         offset="1"
         stop-color="#d30b6c"
         id="stop828" />
    </linearGradient>
    <linearGradient
       id="New_Gradient_Swatch_copy_5-2"
       x1="148.32535"
       y1="66.99218"
       x2="345.49072"
       y2="223.75482"
       xlink:href="#New_Gradient_Swatch_copy_5"
       gradientTransform="translate(-86.24889,-86.24887)" />
    <linearGradient
       inkscape:collect="always"
       xlink:href="#New_Gradient_Swatch_copy_5"
       id="linearGradient941"
       gradientUnits="userSpaceOnUse"
       x1="105.5742"
       y1="120.76167"
       x2="302.73956"
       y2="277.52432"
       gradientTransform="translate(-86.24889,-86.24887)" />
  </defs>
  <title
     id="title834">ataccama-full-horizontal</title>
  <path
     class="cls-1"
     d="m 400.74389,40.10202 h 27.5004 v 106.59049 h -27.5004 V 134.1148 q -12.366,15.56374 -34.7485,15.56214 -21.31955,0 -36.56035,-16.30824 -15.24429,-16.30826 -15.2425,-39.97144 0,-23.66319 15.2425,-39.97143 15.23894,-16.30824 36.56035,-16.30825 22.384,0 34.7485,15.56214 z m -50.73693,74.93311 q 8.31412,8.42425 21.10488,8.42087 12.79077,0 21.21154,-8.42087 8.4189,-8.4189 8.42051,-21.63784 0,-13.21554 -8.42051,-21.63784 -8.424,-8.4189 -21.21154,-8.42051 -12.79075,0 -21.10488,8.42051 -8.31411,8.42427 -8.314,21.63784 -3e-5,13.22034 8.314,21.63784 z"
     id="path836" />
  <path
     class="cls-1"
     d="m 508.84875,66.53667 h -24.08948 v 44.34159 q 0,5.546 2.77146,8.1007 2.76789,2.55832 8.10088,2.87795 a 118.84225,118.84225 0 0 0 13.21714,-0.10648 v 24.94208 q -28.35477,3.19774 -39.97143,-5.3296 -11.62149,-8.524 -11.61827,-30.48465 V 66.53667 H 438.71231 V 40.10202 h 18.54674 V 18.57066 l 27.50022,-8.314 v 29.84538 h 24.08948 z"
     id="path838" />
  <path
     class="cls-1"
     d="m 600.57033,40.10202 h 27.5004 v 106.59049 h -27.5004 V 134.1148 q -12.366,15.56374 -34.7485,15.56214 -21.31954,0 -36.56035,-16.30824 -15.24429,-16.30826 -15.2425,-39.97144 0,-23.66319 15.2425,-39.97143 15.23894,-16.30824 36.56035,-16.30825 22.384,0 34.7485,15.56214 z m -50.73693,74.93311 q 8.31413,8.42425 21.10488,8.42087 12.79077,0 21.21154,-8.42087 8.4189,-8.4189 8.42051,-21.63784 0,-13.21554 -8.42051,-21.63784 -8.424,-8.4189 -21.21154,-8.42051 -12.79076,0 -21.10488,8.42051 -8.31411,8.42427 -8.314,21.63784 -3e-5,13.22034 8.314,21.63784 z"
     id="path840" />
  <path
     class="cls-1"
     d="m 694.05159,149.67694 q -24.09279,0 -40.18458,-16.20176 -16.0984,-16.19836 -16.0951,-40.07792 0,-23.87277 16.0951,-40.07792 16.09358,-16.19837 40.18458,-16.20176 a 55.255,55.255 0 0 1 28.35317,7.46144 49.63516,49.63516 0 0 1 19.39935,20.03878 l -23.663,13.857 a 24.14356,24.14356 0 0 0 -9.69976,-10.44587 28.19647,28.19647 0 0 0 -14.60288,-3.83738 q -12.366,0 -20.46525,8.20755 -8.10427,8.20878 -8.10088,20.99821 0,12.58092 8.10088,20.78525 8.09917,8.2088 20.46525,8.20754 a 29.22451,29.22451 0 0 0 14.816,-3.7309 23.48477,23.48477 0 0 0 9.69976,-10.339 l 23.87634,13.64327 a 53.36161,53.36161 0 0 1 -19.82581,20.14562 54.66784,54.66784 0 0 1 -28.35317,7.56785 z"
     id="path842" />
  <path
     class="cls-1"
     d="m 801.73391,149.67694 q -24.09279,0 -40.18458,-16.20176 -16.0984,-16.19836 -16.0951,-40.07792 0,-23.87277 16.0951,-40.07792 16.09357,-16.19837 40.18458,-16.20176 a 55.255,55.255 0 0 1 28.35316,7.46144 49.63512,49.63512 0 0 1 19.39934,20.03878 l -23.663,13.857 a 24.14362,24.14362 0 0 0 -9.69976,-10.44587 28.19649,28.19649 0 0 0 -14.60288,-3.83738 q -12.366,0 -20.46526,8.20755 -8.10426,8.20878 -8.10087,20.99821 0,12.58092 8.10087,20.78525 8.09919,8.2088 20.46526,8.20754 a 29.22454,29.22454 0 0 0 14.816,-3.7309 23.48469,23.48469 0 0 0 9.69975,-10.339 l 23.87634,13.64327 a 53.36146,53.36146 0 0 1 -19.82575,20.14555 54.66778,54.66778 0 0 1 -28.3532,7.56792 z"
     id="path844" />
  <path
     class="cls-1"
     d="m 940.05381,40.10202 h 27.5002 v 106.59049 h -27.5002 V 134.1148 q -12.3665,15.56374 -34.74868,15.56214 -21.31955,0 -36.56035,-16.30824 -15.24429,-16.30826 -15.2425,-39.97144 0,-23.66319 15.2425,-39.97143 15.23892,-16.30824 36.56035,-16.30825 22.38428,0 34.74868,15.56214 z m -50.73711,74.93311 q 8.31411,8.42425 21.10488,8.42087 12.79073,0 21.21133,-8.42087 8.4189,-8.4189 8.4209,-21.63784 0,-13.21554 -8.4209,-21.63784 -8.4237,-8.4189 -21.21133,-8.42051 -12.79077,0 -21.10488,8.42051 -8.31413,8.42427 -8.314,21.63784 -3e-5,13.22034 8.314,21.63784 z"
     id="path846" />
  <path
     class="cls-1"
     d="m 1097.5769,37.11758 q 18.3316,0 29.3122,11.93809 10.9772,11.94147 10.979,31.97721 v 65.65963 h -27.5006 V 82.9514 q 0,-9.59328 -4.69,-14.92252 -4.6916,-5.3262 -13.217,-5.32959 -9.3831,0 -14.603,6.18219 -5.226,6.1854 -5.2228,17.9073 v 59.90373 h -27.5006 V 82.9514 q 0,-9.59328 -4.69,-14.92252 -4.6915,-5.3262 -13.217,-5.32959 -9.1687,0 -14.603,6.18219 -5.4361,6.1854 -5.4361,17.9073 v 59.90373 H 979.68781 V 40.10202 h 27.50029 v 11.29881 q 9.5933,-14.28 29.632,-14.28325 19.6111,0 28.9928,15.34917 10.6573,-15.34935 31.764,-15.34917 z"
     id="path848" />
  <path
     class="cls-1"
     d="m 1233.1766,40.10202 h 27.5002 v 106.59049 h -27.5002 V 134.1148 q -12.3665,15.56374 -34.7487,15.56214 -21.3198,0 -36.5603,-16.30824 -15.2443,-16.30826 -15.2424,-39.97144 0,-23.66319 15.2424,-39.97143 15.2389,-16.30824 36.5603,-16.30825 22.3843,0 34.7487,15.56214 z m -50.7371,74.93311 q 8.3138,8.42425 21.1047,8.42087 12.791,0 21.2115,-8.42087 8.4189,-8.4189 8.4209,-21.63784 0,-13.21554 -8.4209,-21.63784 -8.4237,-8.4189 -21.2115,-8.42051 -12.7905,0 -21.1047,8.42051 -8.3139,8.42427 -8.314,21.63784 -1e-4,13.22034 8.314,21.63784 z"
     id="path850" />
  <path
     class="cls-2"
     d="m 159.66335,159.92002 q -27.21136,26.95287 -66.22708,26.953 -39.02152,0 -66.22707,-26.953 Q -0.00214983,132.96748 1.6986056e-7,93.43651 1.6986056e-7,53.90963 27.2092,26.953 54.41475,1.3e-4 93.43627,0 q 39.01508,0 66.22708,26.953 27.2049,26.95254 27.2092,66.48351 0,39.53268 -27.2092,66.48351 z M 56.08741,131.94043 q 15.01651,14.89033 37.34886,14.8883 22.33213,0 37.34887,-14.8883 15.01651,-14.88421 15.01674,-38.50392 0,-23.6139 -15.01674,-38.50413 -15.01651,-14.88421 -37.34887,-14.88809 -22.33212,0 -37.34886,14.88809 -15.01653,14.89033 -15.01674,38.50413 0,23.61971 15.01674,38.50392 z"
     id="path852"
     style="fill:url(#linearGradient941)" />
  <rect
     class="cls-3"
     x="183.27876"
     y="3.5938196"
     width="41.071098"
     height="179.68538"
     id="rect854"
     style="fill:url(#New_Gradient_Swatch_copy_5-2)" />
  <metadata
     id="metadata939">
    <rdf:RDF>
      <cc:Work
         rdf:about="">
        <dc:title>ataccama-full-horizontal</dc:title>
      </cc:Work>
    </rdf:RDF>
  </metadata>
</svg>
