<?xml version="1.0" encoding="UTF-8"?>
<svg id="Layer_3" width="200" enable-background="new 0 0 1920 1080" version="1.0" viewBox="460 427.15 1e3 200.05" xml:space="preserve" xmlns="http://www.w3.org/2000/svg">
<style type="text/css">
	.st0{fill:#1428C8;}
</style>

<path class="st0" d="m489.01 539.08c6.59 0 12 1.06 16.48 2.77 0.66 0.26 0.66 1.06 0.4 1.58l-2.24 5.01c-0.26 0.53-0.92 0.66-1.58 0.4-5.54-1.85-8.57-1.98-12.66-1.98-11.47 0-19.91 7.52-19.91 23.08 0 16.88 10.29 23.08 19.91 23.08 5.27 0 7.78-0.53 13.32-2.37 0.66-0.26 1.32-0.13 1.58 0.4l2.24 5.01c0.26 0.66 0.26 1.32-0.4 1.58-4.75 2.24-10.42 3.3-17.14 3.3-18.86 0-29.01-12.79-29.01-30.99 0-18.08 9.89-30.87 29.01-30.87z"/>
<path class="st0" d="m564.6 593.28c6.99 0 11.21-0.92 16.75-3.43 0.66-0.26 1.19 0 1.45 0.53l1.98 4.88c0.26 0.53 0.26 1.06-0.4 1.32-6.33 3.03-11.34 4.35-19.39 4.35-18.33 0-27.69-10.95-27.69-30.59 0-20.7 11.08-31.25 26.11-31.25 15.3 0 24 9.36 24 29.01v3.3c0 0.92-0.4 1.58-1.45 1.58h-39.3c0.4 12.78 7.12 20.3 17.94 20.3zm-1.06-46.95c-7.38 0-15.69 5.14-16.88 19.52h31.52c0-15.3-7.38-19.52-14.64-19.52z"/>
<path class="st0" d="m618.45 590.37c0.26-0.66 0.92-0.79 1.71-0.53 6.86 2.37 13.45 3.43 18.99 3.43 9.36 0 15.69-3.03 15.69-7.78 0-6.07-7.25-8.97-15.16-11.87-9.89-3.69-20.84-7.52-20.84-18.86 0-12.13 13.19-15.69 25.72-15.69 7.25 0 14.24 1.06 18.2 2.37 0.66 0.26 0.92 0.92 0.66 1.58l-1.58 5.14c-0.26 0.79-0.79 0.92-1.45 0.79-3.69-1.06-10.81-2.37-17.41-2.37-7.78 0-14.9 1.85-14.9 7.91 0 5.41 7.12 8.31 15.03 11.47 9.89 3.96 20.97 8.18 20.97 18.33 0 12.79-12.27 16.62-24.66 16.62-8.97 0-17.93-1.85-22.16-3.82-0.79-0.4-0.79-0.92-0.66-1.45l1.85-5.27z"/>
<path class="st0" d="m734.15 540.79c0.79-0.66 1.06-0.79 2.11-0.79h8.7c0.79 0 1.58 1.19 0.66 1.98l-28.88 25.32 31.38 30.73c0.79 0.79 0.4 1.98-0.79 1.98h-9.1c-0.92 0-1.45-0.26-2.24-1.06l-29.93-30.2v30.07c0 0.79-0.4 1.19-1.19 1.19h-6.72c-0.79 0-1.19-0.4-1.19-1.19v-92.84c0-0.79 0.4-1.19 1.19-1.19h6.72c0.79 0 1.19 0.39 1.19 1.19v60.27l28.09-25.46z"/>
<path class="st0" d="m799.61 600.92c-19.12 0-25.32-12.92-25.32-30.99s6.2-30.86 25.32-30.86 25.19 12.79 25.19 30.86-6.07 30.99-25.19 30.99zm0-54.99c-10.28 0-15.82 8.18-15.82 24 0 15.96 5.54 24.13 15.82 24.13 10.29 0 15.69-8.04 15.69-24.13 0-15.95-5.4-24-15.69-24z"/>
<path class="st0" d="m869.88 593.28c0-4.88 2.77-7.78 7.65-7.78s7.65 2.9 7.65 7.78-2.77 7.65-7.65 7.65c-4.88-0.01-7.65-2.78-7.65-7.65z"/>
<path class="st0" d="m970.6 505.98c0-0.79 0.4-1.19 1.18-1.19h6.73c0.79 0 1.19 0.39 1.19 1.19v92.84c0 0.79-0.4 1.19-1.19 1.19h-4.49c-0.66 0-0.92-0.26-1.06-0.92l-1.06-4.35c-6.33 4.35-12.13 6.2-17.8 6.2-16.09 0-23.87-11.47-23.87-30.86 0-19.12 8.18-30.99 25.32-30.99 5.54 0 10.55 1.98 15.04 5.28v-38.39zm-13.84 87.03c4.62 0 9.89-1.58 13.85-4.09v-37.85c-4.09-2.64-9.23-4.48-13.85-4.48-10.29 0-17.01 8.04-17.01 23.6-0.01 16.76 6.72 22.82 17.01 22.82z"/>
<path class="st0" d="m1370.2 559.91c0-7.78-3.96-12.27-11.87-12.27h-19.25c-0.66 0-1.19-0.4-1.19-1.05v-5.41c0-0.79 0.53-1.19 1.19-1.19h20.57c12.39 0 19.65 7.25 19.65 19.65v39.16c0 0.79-0.4 1.19-1.19 1.19h-4.49c-0.66 0-0.92-0.26-1.06-0.92l-1.06-4.22c-9.62 4.22-15.03 6.07-23.21 6.07-10.29 0-15.96-6.73-15.96-16.75 0-14.51 8.97-18.99 24.66-18.99h13.19v-5.27zm-14.38 12.4c-9.23 0-14.11 3.3-14.11 11.21 0 5.67 2.64 10.02 8.44 10.02s12.66-1.98 20.05-4.48v-16.75h-14.38z"/>
<path class="st0" d="m1404.8 512.44c-0.79 0-1.19-0.4-1.19-1.06v-5.41c0-0.79 0.4-1.19 1.19-1.19h30.33c0.79 0 1.19 0.39 1.19 1.19v74.11c0 7.78 3.95 12.26 11.87 12.26h10.68c0.79 0 1.19 0.4 1.19 1.06v5.41c0 0.79-0.4 1.19-1.19 1.19h-12c-12.4 0-19.65-7.25-19.65-19.65v-67.91h-22.42z"/>
<path class="st0" d="m1137.5 540h-4.35c-0.79 0-1.06 0.26-1.19 0.92l-1.06 4.35c-5.41-4.09-11.08-6.2-16.88-6.2-17.14 0-24.66 11.87-24.66 30.99 0 19.39 7.26 30.86 23.34 30.86 5.41 0 11.87-1.98 16.88-5.67v11.99c0 7.78-4.09 12.27-12 12.27h-19.24c-0.79 0-1.19 0.4-1.19 1.06v5.41c0 0.79 0.4 1.19 1.19 1.19h20.69c12.4 0 19.65-7.25 19.65-19.65v-66.33c0.01-0.79-0.39-1.19-1.18-1.19zm-22.29 53.01c-10.28 0-16.35-6.07-16.35-22.81 0-15.56 6.07-23.6 16.35-23.6 4.62 0 10.42 1.84 14.38 4.48v37.85c-3.83 2.5-9.76 4.08-14.38 4.08z"/>
<path class="st0" d="m1010.9 547.65c-0.79 0-1.19-0.4-1.19-1.19v-5.28c0-0.79 0.4-1.19 1.19-1.19h32.04c0.79 0 1.19 0.4 1.19 1.19v50.11c0 0.79 0.26 1.06 0.92 1.06h19.91c0.79 0 1.19 0.4 1.19 1.19v5.27c0 0.79-0.4 1.19-1.19 1.19h-54.07c-0.79 0-1.19-0.4-1.19-1.19v-5.27c0-0.79 0.4-1.19 1.19-1.19h23.21c0.66 0 0.92-0.26 0.92-1.06v-43.65h-24.12z"/>
<path class="st0" d="m1030.3 474.44c0-4.88 2.77-7.78 7.65-7.78s7.65 2.9 7.65 7.78-2.77 7.65-7.65 7.65-7.65-2.77-7.65-7.65z"/>
<path class="st0" d="m1171 547.65c-0.79 0-1.19-0.4-1.19-1.19v-5.28c0-0.79 0.4-1.19 1.19-1.19h32.04c0.79 0 1.19 0.4 1.19 1.19v50.11c0 0.79 0.26 1.06 0.92 1.06h19.91c0.79 0 1.19 0.4 1.19 1.19v5.27c0 0.79-0.4 1.19-1.19 1.19h-54.07c-0.79 0-1.19-0.4-1.19-1.19v-5.27c0-0.79 0.4-1.19 1.19-1.19h23.21c0.66 0 0.92-0.26 0.92-1.06v-43.65h-24.12z"/>
<path class="st0" d="m1190.4 474.44c0-4.88 2.77-7.78 7.65-7.78s7.65 2.9 7.65 7.78-2.77 7.65-7.65 7.65-7.65-2.77-7.65-7.65z"/>
<path class="st0" d="m1273.7 547.65h27.03c0.79 0 1.19-0.4 1.19-1.05v-5.41c0-0.79-0.4-1.19-1.19-1.19h-27.03v-20.79c0-0.79-0.4-1.19-1.19-1.19h-6.73c-0.79 0-1.18 0.39-1.18 1.19v20.79h-17.93c-0.79 0-1.19 0.4-1.19 1.19v5.41c0 0.66 0.4 1.05 1.19 1.05h17.93v32.7c0 12.4 7.26 19.65 19.65 19.65h16.48c0.79 0 1.19-0.4 1.19-1.19v-5.41c0-0.66-0.4-1.06-1.19-1.06h-15.03c-7.91 0-12-4.48-12-12.26v-32.43z"/>
<path class="st0" d="m494.88 454.17-27.75-25c-0.8-0.67-0.27-2 0.8-2h8.72c0.54 0 0.86 0.11 1.2 0.4l29.09 26.6-29.09 26.6c-0.34 0.29-0.67 0.4-1.2 0.4h-8.72c-1.07 0-1.61-1.34-0.8-2l27.75-25z"/>

</svg>
