<?xml version="1.0" encoding="UTF-8" standalone="no"?>
<svg
   viewBox="0 0 312.3 71.999999"
   version="1.1"
   id="svg29"
   sodipodi:docname="codeac.svg"
   width="312.29999"
   height="72"
   inkscape:version="1.2.1 (9c6d41e, 2022-07-14)"
   xmlns:inkscape="http://www.inkscape.org/namespaces/inkscape"
   xmlns:sodipodi="http://sodipodi.sourceforge.net/DTD/sodipodi-0.dtd"
   xmlns="http://www.w3.org/2000/svg"
   xmlns:svg="http://www.w3.org/2000/svg">
  <sodipodi:namedview
     id="namedview31"
     pagecolor="#ffffff"
     bordercolor="#666666"
     borderopacity="1.0"
     inkscape:showpageshadow="2"
     inkscape:pageopacity="0.0"
     inkscape:pagecheckerboard="0"
     inkscape:deskcolor="#d1d1d1"
     showgrid="false"
     inkscape:zoom="3.2759578"
     inkscape:cx="156.29017"
     inkscape:cy="36.477882"
     inkscape:window-width="684"
     inkscape:window-height="480"
     inkscape:window-x="63"
     inkscape:window-y="25"
     inkscape:window-maximized="0"
     inkscape:current-layer="svg29" />
  <defs
     id="defs11">
    <style
       id="style9">.codeac{fill:#005096;}</style>
  </defs>
  <path
     d="M 78.6,42.58 A 19.22,19.22 0 0 1 85.33,31 a 20.19,20.19 0 0 1 13,-4.3 c 7,0 12.42,3.75 14.64,9.57 L 105,39.52 c -1.11,-3.05 -4,-5 -7.77,-5 a 9.42,9.42 0 0 0 -6.52,2.64 11.8,11.8 0 0 0 -3.6,6.31 13.36,13.36 0 0 0 -0.28,2.36 C 86.86,50.55 90,54 95,54 a 10.58,10.58 0 0 0 8.4,-4.71 l 7.35,3.95 c -3.61,5.48 -9.5,8.67 -16.72,8.67 -9.36,0 -15.81,-6.45 -15.81,-15.4 a 18.87,18.87 0 0 1 0.38,-3.93 z"
     id="path13" />
  <path
     d="m 115.57,42.58 a 19.24,19.24 0 0 1 6.8,-11.52 19.6,19.6 0 0 1 12.83,-4.37 c 9.3,0 15.8,6.52 15.8,15.31 a 19,19 0 0 1 -0.35,3.75 c -1.8,9.57 -9.71,16.09 -19.7,16.09 -9.22,0 -15.67,-6.59 -15.67,-15.54 a 20,20 0 0 1 0.29,-3.72 z m 26.85,0.07 c 0,-4.79 -3.19,-8.12 -8.26,-8.12 a 9.6,9.6 0 0 0 -6.59,2.57 11,11 0 0 0 -3.67,6.38 14,14 0 0 0 -0.21,2.36 c 0,4.78 3.19,8.11 8.18,8.11 4.99,0 9.3,-3.88 10.34,-9 a 13.94,13.94 0 0 0 0.21,-2.3 z"
     id="path15" />
  <path
     d="M 155.8,42.58 A 19.84,19.84 0 0 1 162.25,31 18.24,18.24 0 0 1 174.46,26.7 c 4.51,0 8.6,1.53 10.82,3.75 l 3.95,-20.26 h 8.47 l -9.85,50.64 h -8.47 l 0.42,-2.15 a 15,15 0 0 1 -9.43,3.19 c -8.54,0 -15,-6.8 -15,-15.47 a 18.07,18.07 0 0 1 0.43,-3.82 z m 26.84,0.07 c 0,-4.79 -3.19,-8.12 -8.25,-8.12 a 9.65,9.65 0 0 0 -6.66,2.57 11.17,11.17 0 0 0 -3.61,6.38 13.93,13.93 0 0 0 -0.2,2.36 c 0,4.78 3.19,8.11 8.18,8.11 4.99,0 9.29,-3.88 10.34,-9 a 15,15 0 0 0 0.2,-2.3 z"
     id="path17" />
  <path
     d="m 230.15,47.36 h -23.93 c 0.21,4.09 2.29,6.73 6.66,6.73 a 10.5,10.5 0 0 0 8.53,-4.72 l 7,4 c -3.4,5.48 -9.57,8.46 -16.16,8.46 -8.6,0 -14.64,-7 -14.64,-15.33 A 23.19,23.19 0 0 1 198,43 c 1.8,-9.64 9.29,-16.3 18.87,-16.3 8.67,0 14.35,6.59 14.35,14.64 a 18.22,18.22 0 0 1 -1.07,6.02 z m -7.28,-6.93 a 6,6 0 0 0 -6.45,-6 9.16,9.16 0 0 0 -8.88,6 z"
     id="path19" />
  <path
     d="m 235.77,42.58 a 19.84,19.84 0 0 1 6.45,-11.58 18.24,18.24 0 0 1 12.21,-4.3 17.6,17.6 0 0 1 10.82,3.75 l 0.55,-2.71 h 8.47 l -6.46,33.09 h -8.46 l 0.42,-2.15 a 15,15 0 0 1 -9.43,3.19 c -8.54,0 -15,-6.8 -15,-15.47 a 18.07,18.07 0 0 1 0.43,-3.82 z m 26.84,0.07 c 0,-4.79 -3.19,-8.12 -8.25,-8.12 a 9.6,9.6 0 0 0 -6.59,2.57 11.1,11.1 0 0 0 -3.68,6.38 14,14 0 0 0 -0.21,2.36 c 0,4.78 3.2,8.11 8.19,8.11 4.99,0 9.29,-3.88 10.33,-9 a 13.94,13.94 0 0 0 0.21,-2.3 z"
     id="path21" />
  <path
     d="m 277.94,42.58 a 19.12,19.12 0 0 1 6.73,-11.58 20.15,20.15 0 0 1 13,-4.3 c 7,0 12.41,3.75 14.63,9.57 l -7.9,3.26 c -1.11,-3.05 -4,-5 -7.77,-5 a 9.39,9.39 0 0 0 -6.52,2.64 11.75,11.75 0 0 0 -3.61,6.31 13.36,13.36 0 0 0 -0.28,2.36 c 0,4.71 3.12,8.11 8.12,8.11 a 10.57,10.57 0 0 0 8.39,-4.71 l 7.35,3.95 c -3.6,5.48 -9.5,8.67 -16.71,8.67 -9.37,0 -15.82,-6.45 -15.82,-15.4 a 18.22,18.22 0 0 1 0.39,-3.88 z"
     id="path23" />
  <polygon
     class="codeac"
     points="49.81,19.14 49.81,7.61 42.51,11.01 46.68,11.01 46.68,17.68 "
     id="polygon25" />
  <path
     class="codeac"
     d="M 68.71,21.23 56.24,9.61 V 7.2 L 49.05,0 43.27,2.71 h -0.09 l -1,2.05 L 32.5,4.73 23,0.33 h -5.16 l -2.33,5 v 9.61 l -3,3 -2.65,-0.27 v 4.71 L 0,27 v 7.53 l 2.52,5.39 2.1,0.21 2.56,5.47 5.67,0.49 5.15,5.1 2.1,2.09 L 38.94,72 h 9.39 L 78.19,21.23 Z M 18.81,6 20,3.39 h 3.7 L 29.15,6 22.69,9 21,5.33 h -1.24 v 5.35 l -1,1 z M 41.53,57.88 33.68,50 H 21.24 L 14.47,43.09 9.18,42.64 8.18,40.4 H 18.85 L 24.27,35 17,38.39 4.59,37.1 3.06,33.81 V 30.52 L 6,30.83 7,33.25 v 0 L 8.08,35.77 13.25,30.6 9.15,31 8.05,28.3 5,28 l 12.42,-5.8 0.68,0.07 2.73,5.85 9.13,0.8 4.04,-8.78 -4,-0.4 -2.64,5.64 v -5.91 l -11,-1.16 5.73,-5.72 10.4,-4.81 8.32,0.06 -2.44,5.26 h 2.2 L 44,5.73 l 4.39,-2.05 4.8,4.79 v 12 l 3.05,1.42 v -8 l 11.09,9.35 z"
     id="path27" />
</svg>
