<?xml version="1.0" encoding="UTF-8" standalone="no"?>
<svg xmlns:dc="http://purl.org/dc/elements/1.1/" xmlns:cc="http://creativecommons.org/ns#" xmlns:rdf="http://www.w3.org/1999/02/22-rdf-syntax-ns#" xmlns:svg="http://www.w3.org/2000/svg" xmlns="http://www.w3.org/2000/svg" xmlns:sodipodi="http://sodipodi.sourceforge.net/DTD/sodipodi-0.dtd" xmlns:inkscape="http://www.inkscape.org/namespaces/inkscape" width="10000" height="2482" version="1.1" id="svg8" sodipodi:docname="coreskill-rubik.merged.svg" inkscape:export-filename="H:\Google Drive\CoreSkill\logo\coreskill-rubik.merged.png" inkscape:export-xdpi="11.52" inkscape:export-ydpi="11.52" inkscape:version="0.92.2 (5c3e80d, 2017-08-06)">
  <metadata id="metadata14">
    <rdf:RDF>
      <cc:Work rdf:about="">
        <dc:format>image/svg+xml</dc:format>
        <dc:type rdf:resource="http://purl.org/dc/dcmitype/StillImage"/>
      </cc:Work>
    </rdf:RDF>
  </metadata>
  <defs id="defs12"/>
  <sodipodi:namedview pagecolor="#ffffff" bordercolor="#666666" borderopacity="1" objecttolerance="10" gridtolerance="10" guidetolerance="10" inkscape:pageopacity="0" inkscape:pageshadow="2" inkscape:window-width="640" inkscape:window-height="480" id="namedview10" showgrid="false" inkscape:zoom="0.075623605" inkscape:cx="3113.9096" inkscape:cy="2004.5055" inkscape:current-layer="svg8"/>
  <path fill="#fff829" d="M0 0h10000v2446H0z" id="path2"/>
  <path fill="#db3f02" d="M1155 1C812 1 534 80 321 239 107 397 0 633 0 948v586c0 321 105 560 314 716 209 154 489 231 841 231 272 0 501-47 686-140 166 93 376 140 629 140 160 0 303-19 428-56 15 13 35 21 57 22h655c48-1 90-41 93-93v-304c43 78 101 147 173 207 184 149 420 224 707 224 243 0 443-43 600-129 180 86 404 129 673 129a1972 1972 0 0 0 383-34h603c48-1 90-41 93-93v-340c23-39 41-79 54-121l298 495c25 39 61 59 107 59h793c47-1 90-41 93-93V748c-1-47-40-90-93-93h-848c-44 0-77 20-100 59l-304 496V94c0-47-40-90-93-93h-603c-25 1-48 12-65 29-99-19-205-29-318-29-315 0-570 73-765 220a694 694 0 0 0-274 415 1397 1397 0 0 0-520 19h-108a792 792 0 0 0-537 214V748c-1-47-41-90-94-93h-603c-23 0-44 10-61 26-126-40-267-60-424-60-66 0-129 4-189 11-29-94-74-178-137-252C1933 127 1603 1 1155 1zm6432 0c-47 1-90 40-93 93v337c1 47 40 90 93 93h583c47-1 90-41 93-93V94c-1-47-41-90-93-93zm843 0c-47 1-90 40-93 93v2260c0 47 40 90 93 93h617c47-1 90-41 93-93V94c-1-47-40-90-93-93zm860 0c-47 1-90 40-93 93v2260c1 47 40 90 93 93h617c47-1 90-41 93-93V94c-1-47-40-90-93-93zM1151 673c129 0 215 62 259 186 13 39 28 65 45 79 18 14 45 21 82 21h82a748 748 0 0 0-148 475v99c-8 3-14 7-20 11-16 14-30 40-41 79-41 124-128 186-259 186-170 0-255-93-255-279V952c0-186 85-279 255-279zm4702 0c73 0 132 19 176 58 36 33 75 52 117 57v140l-76-11c-147-18-248-39-303-62-53-23-80-51-80-86 0-64 55-96 166-96zm-1267 430c92 0 138 69 138 207v14h-276v-14c0-138 46-207 138-207zm-2116 69c57 0 98 17 121 52 23 34 34 95 34 182v290c0 87-11 148-34 182-23 35-64 52-121 52s-98-16-121-48c-23-33-34-95-34-186v-52a1009 1009 0 0 0 0-57v-181c0-87 11-148 34-182 23-35 64-52 121-52zm3099 360l122 19c172 23 289 46 351 69 62 21 93 52 93 93 0 64-86 96-258 96-103 0-185-23-245-69-24-19-47-34-69-45 4-11 6-22 6-34v-129zm-1121 222h295c1 42 5 83 14 122-29 8-56 25-81 50-37 37-68 56-93 56-90 0-135-70-135-211z" id="path4"/>
  <path fill="#b33402" d="M2281 632c-210 24-387 90-531 199-51 38-94 81-131 128h621c21 0 39-7 52-21 16-16 24-34 24-55 0-90-12-174-35-251zm-744 891c-27 0-49 3-66 10v135c0 264 89 466 268 606 32 25 66 47 102 67a946 946 0 0 0 303-239 738 738 0 0 0 171-458v-57c-3-15-10-28-23-39a63 63 0 0 0-52-25zm1357-842a99 99 0 0 0-32 67v1606c1 27 14 54 36 71 116-34 217-85 303-151 179-140 269-342 269-606v-234c0-262-93-463-279-603a982 982 0 0 0-297-150zm1403-26a963 963 0 0 0-414 204 757 757 0 0 0-279 609v166c0 159 33 298 99 416v-513c5-48 24-86 59-113 37-30 86-45 148-45h445a89 89 0 0 0 65-28c19-18 28-40 28-65V748c0-25-9-47-28-65a90 90 0 0 0-65-28zm520-19c-11 50-16 102-16 157 0 397 256 643 768 739-6-260-89-475-252-646a835 835 0 0 0-500-250zm2 1036c-21 0-39 8-55 24a67 67 0 0 0-21 51v7h733a96 96 0 0 0 87-59c-32-15-61-23-89-23zm-22 199c-14 0-27 2-40 5a663 663 0 0 0 282 391c44 32 92 60 144 85 30-16 59-34 86-54 170-121 255-238 255-351 0-51-25-76-76-76zM6174 30a99 99 0 0 0-28 64v694l27 2h690c18 0 34-7 48-21 16-16 24-34 24-55 0-167-101-328-303-482-129-99-281-166-458-202zm-28 898v1426c1 46 38 88 90 93 178-35 332-97 461-186a786 786 0 0 0 238-247v-212l54 90c21-65 32-134 32-207 0-236-73-412-220-527-134-108-352-185-655-230zm1424-273c-48 1-90 41-93 93v1606c0 47 40 90 93 93h548a80 80 0 0 0 58-25c16-16 24-33 24-51 0-21-4-38-14-52l-558-858 472-671c12-16 18-35 18-55 0-21-9-39-25-55a76 76 0 0 0-58-25z" style="mix-blend-mode:multiply" id="path6"/>
</svg>