<?xml version="1.0" encoding="UTF-8" standalone="no"?>
<svg
   width="175.11328pt"
   height="49.375pt"
   viewBox="0 0 175.11328 49.374998"
   version="1.2"
   id="svg837"
   sodipodi:docname="credo_rgb.svg"
   inkscape:version="1.1 (c4e8f9e, 2021-05-24)"
   xmlns:inkscape="http://www.inkscape.org/namespaces/inkscape"
   xmlns:sodipodi="http://sodipodi.sourceforge.net/DTD/sodipodi-0.dtd"
   xmlns="http://www.w3.org/2000/svg"
   xmlns:svg="http://www.w3.org/2000/svg">
  <defs
     id="defs841" />
  <sodipodi:namedview
     id="namedview839"
     pagecolor="#ffffff"
     bordercolor="#666666"
     borderopacity="1.0"
     inkscape:pageshadow="2"
     inkscape:pageopacity="0.0"
     inkscape:pagecheckerboard="0"
     inkscape:document-units="pt"
     showgrid="false"
     fit-margin-top="0"
     fit-margin-left="0"
     fit-margin-right="0"
     fit-margin-bottom="0"
     inkscape:zoom="0.21024124"
     inkscape:cx="123.66746"
     inkscape:cy="28.538645"
     inkscape:window-width="1382"
     inkscape:window-height="847"
     inkscape:window-x="58"
     inkscape:window-y="25"
     inkscape:window-maximized="1"
     inkscape:current-layer="svg837" />
  <g
     id="surface16805"
     transform="translate(-333.26562,-273.11719)">
    <path
       style="fill:#000000;fill-opacity:1;fill-rule:nonzero;stroke:none"
       d="m 333.26562,299.02344 v -0.4961 c 0,-13.07422 8.74219,-22.50781 20.6875,-22.50781 9.17188,0 16.92969,4.87109 17.85547,14.42969 h -5.29687 c -1.10547,-6.72266 -4.98438,-10.17578 -12.4961,-10.17578 -9.11328,0 -15.20703,7.09375 -15.20703,18.19531 v 0.49219 c 0,11.22656 5.66407,18.00781 15.14453,18.00781 7.20313,0 12.19141,-3.63672 13.29688,-10.79297 h 4.98828 c -1.53906,10.17969 -8.55859,15.17188 -18.41016,15.17188 -12.74218,0 -20.5625,-8.75782 -20.5625,-22.32422"
       id="path824" />
    <path
       style="fill:#000000;fill-opacity:1;fill-rule:nonzero;stroke:none"
       d="m 378.14844,288.53906 h 5.10937 v 5.79688 c 2.03125,-3.63672 4.80078,-6.16797 10.58985,-6.35157 v 4.8086 c -6.46485,0.30859 -10.58985,2.34375 -10.58985,10.30078 v 17.69922 h -5.10937 z m 0,0"
       id="path826" />
    <path
       style="fill:#000000;fill-opacity:1;fill-rule:nonzero;stroke:none"
       d="m 420.44531,301.55078 c -0.49609,-6.66016 -3.9414,-9.3125 -9.23828,-9.3125 -5.23437,0 -8.74219,3.57813 -9.60547,9.3125 z m -24.32031,3.45313 v -0.49219 c 0,-9.7461 6.21484,-16.52735 15.08203,-16.52735 7.44922,0 14.46875,4.5 14.46875,16.03516 v 1.66406 h -24.25781 c 0.24609,7.33985 3.7539,11.41016 10.34375,11.41016 4.98828,0 7.8789,-1.85156 8.55859,-5.60938 h 5.10938 c -1.10547,6.47266 -6.46485,9.86329 -13.73047,9.86329 -9.10938,0 -15.57422,-6.41407 -15.57422,-16.34375"
       id="path828" />
    <path
       style="fill:#000000;fill-opacity:1;fill-rule:nonzero;stroke:none"
       d="m 454.98047,304.88281 v -0.49609 c 0,-8.26172 -3.9375,-12.14844 -10.21875,-12.14844 -6.40625,0 -10.22266,4.50391 -10.22266,12.33594 v 0.49219 c 0,8.14062 4.3711,12.02734 9.79297,12.02734 5.96875,0 10.64844,-3.94531 10.64844,-12.21094 m -25.73438,0.4336 v -0.4961 c 0,-9.86719 6.15625,-16.83594 15.02344,-16.83594 5.35547,0 8.67969,2.58985 10.52734,5.73438 v -20.60156 h 5.10938 v 47.67578 h -5.10938 v -5.55078 c -1.84765,3.14843 -6.33984,6.10547 -11.01953,6.10547 -8.4375,0 -14.53125,-5.98047 -14.53125,-16.03125"
       id="path830" />
    <path
       style="fill:#000000;fill-opacity:1;fill-rule:nonzero;stroke:none"
       d="m 500.49609,317.59766 c 0,-2.22266 1.78516,-3.94922 3.94141,-3.94922 2.15625,0 3.94141,1.72656 3.94141,3.94922 0,2.21875 -1.78516,3.94531 -3.94141,3.94531 -2.15625,0 -3.94141,-1.72656 -3.94141,-3.94531"
       id="path832" />
    <path
       style="fill:#f37f1e;fill-opacity:1;fill-rule:nonzero;stroke:none"
       d="m 492.44531,305.60156 v -0.4375 c 0,-7.51953 -4.16015,-18.83203 -10.60937,-18.83203 -6.51953,0 -10.61328,11.3125 -10.61328,18.76953 v 0.5 c 0,7.39453 4.03515,12.24219 10.61328,12.24219 6.51172,0 10.60937,-4.91016 10.60937,-12.24219 m -26.55859,0 v -0.5 c 0,-9.75781 6.76562,-24.07422 15.94922,-24.07422 9.17968,0 15.9414,14.25391 15.9414,24.01172 v 0.5 c 0,9.82031 -6.66015,16.95313 -15.90625,16.95313 -9.24218,0 -15.98437,-7.38282 -15.98437,-16.89063"
       id="path834" />
  </g>
</svg>
