<?xml version="1.0" encoding="UTF-8"?>
<!-- Generator: Adobe Illustrator 16.0.3, SVG Export Plug-In . SVG Version: 6.00 Build 0)  -->
<!DOCTYPE svg PUBLIC "-//W3C//DTD SVG 1.1//EN" "http://www.w3.org/Graphics/SVG/1.1/DTD/svg11.dtd">
<svg version="1.1" id="Vrstva_1" xmlns="http://www.w3.org/2000/svg" xmlns:xlink="http://www.w3.org/1999/xlink" x="0px" y="0px" width="100px" height="79px" viewBox="0 0 100 79" enable-background="new 0 0 100 79" xml:space="preserve">
<g id="logo_1_">
	<path id="text" fill="#003366" d="M23.689,59.631c0,6.121,5.022,7.174,8.69,7.941c1.98,0.416,3.545,0.744,3.545,1.684   c0,0.984-1.902,1.334-3.684,1.334c-2.704,0-5.575-0.566-7.877-1.555l-0.441-0.191v6.953l0.243,0.059   c3.379,0.801,6.272,1.143,9.676,1.143c3.503,0,11.652-0.814,11.652-8.361c0-6.105-5.054-7.105-8.744-7.836   c-1.951-0.387-3.492-0.691-3.492-1.582c0-1.115,1.778-1.264,3.518-1.264c2.298,0,4.647,0.408,6.794,1.184l0.425,0.152V52.43   l-0.251-0.053c-2.534-0.535-5.292-0.832-7.768-0.832C27.823,51.545,23.689,54.266,23.689,59.631z M46.227,64.271   c0,8.207,4.694,12.727,13.22,12.727c8.589,0,13.319-4.52,13.319-12.727c0-8.088-4.854-12.727-13.319-12.727   C51.045,51.545,46.227,56.184,46.227,64.271z M56.195,64.271c0-4.191,1.094-6.316,3.251-6.316c2.919,0,3.311,3.607,3.351,6.322   c-0.039,3.049-0.334,6.313-3.351,6.313C57.259,70.59,56.195,68.523,56.195,64.271z M74.652,51.959h-0.316v24.627h13.819   c5.135,0,9.886-0.846,9.886-6.986c0-2.213-1.667-4.707-4.497-5.545c2.757-1.016,4.064-2.896,4.064-5.867   c0-4.018-2.955-6.229-8.319-6.229H74.652z M85.455,66.721c2.114,0,3.018,0.635,3.018,2.123c0,2.002-2.361,2.158-3.085,2.158   c0,0-1.543,0-2.017,0c0-0.516,0-3.766,0-4.281C83.849,66.721,85.455,66.721,85.455,66.721z M85.488,57.129   c1.825,0,2.751,0.68,2.751,2.021c0,1.641-1.604,1.986-2.951,1.986c0,0-1.45,0-1.917,0c0-0.51,0-3.498,0-4.008   C83.851,57.129,85.488,57.129,85.488,57.129z M9.253,47.57l-2.784,2.557l0.207,0.176c0.072,0.063,1.631,1.365,4.172,2.059   c-5.584,1.654-8.889,5.914-8.889,11.566c0,8.016,5.433,12.996,14.179,12.996c2.879,0,5.679-0.744,6.469-0.973l0.175-0.051v-6.885   l-0.323,0.115c-1.744,0.625-3.254,0.914-4.754,0.914c-3.836,0-6.126-2.234-6.126-5.98c0-3.561,2.463-5.773,6.427-5.773   c1.5,0,2.997,0.424,4.392,0.883l0.317,0.104v-6.859l-0.672-0.127c-1.2-0.225-2.209-0.41-3.279-0.529   c1.932-0.857,3.212-2.025,3.843-2.703l0.183-0.197l-1.069-0.811l-0.149,0.162c-0.02,0.023-2.017,2.164-5.721,2.127   c-3.931-0.039-6.224-2.719-6.246-2.746l-0.163-0.195L9.253,47.57z"/>
	<path id="plavec" fill="#0099CC" d="M34.215,18.182c0-8.935,7.244-16.179,16.18-16.179s16.18,7.244,16.18,16.179   s-7.244,16.179-16.18,16.179S34.215,27.117,34.215,18.182z M62.328,31.271c-3.083,3.342-8.519,6.685-15.493,6.685   c-5.411,0-10.07-2.104-13.034-4.441c-17.664,1.854-30.8,4.481-30.8,4.481v7.153l93.616-0.01l0.009-14.748   C96.626,30.391,80.652,30.292,62.328,31.271z"/>
</g>
</svg>