<?xml version="1.0" encoding="UTF-8" standalone="no"?>
<svg
   xmlns:dc="http://purl.org/dc/elements/1.1/"
   xmlns:cc="http://creativecommons.org/ns#"
   xmlns:rdf="http://www.w3.org/1999/02/22-rdf-syntax-ns#"
   xmlns:svg="http://www.w3.org/2000/svg"
   xmlns="http://www.w3.org/2000/svg"
   xmlns:sodipodi="http://sodipodi.sourceforge.net/DTD/sodipodi-0.dtd"
   xmlns:inkscape="http://www.inkscape.org/namespaces/inkscape"
   version="1.1"
   id="svg2"
   xml:space="preserve"
   width="335.67999"
   height="228.8"
   viewBox="0 0 335.67999 228.8"
   sodipodi:docname="CyberMagnolia_vector.eps"><metadata
     id="metadata8"><rdf:RDF><cc:Work
         rdf:about=""><dc:format>image/svg+xml</dc:format><dc:type
           rdf:resource="http://purl.org/dc/dcmitype/StillImage" /></cc:Work></rdf:RDF></metadata><defs
     id="defs6"><linearGradient
       x1="76.264999"
       y1="115.391"
       x2="175.49001"
       y2="115.391"
       gradientUnits="userSpaceOnUse"
       gradientTransform="scale(10)"
       spreadMethod="pad"
       id="linearGradient44"><stop
         style="stop-opacity:1;stop-color:#ff3e89"
         offset="0"
         id="stop40" /><stop
         style="stop-opacity:1;stop-color:#00c2cb"
         offset="1"
         id="stop42" /></linearGradient></defs><sodipodi:namedview
     pagecolor="#ffffff"
     bordercolor="#666666"
     borderopacity="1"
     objecttolerance="10"
     gridtolerance="10"
     guidetolerance="10"
     inkscape:pageopacity="0"
     inkscape:pageshadow="2"
     inkscape:window-width="640"
     inkscape:window-height="480"
     id="namedview4" /><g
     id="g10"
     inkscape:groupmode="layer"
     inkscape:label="ink_ext_XXXXXX"
     transform="matrix(1.3333333,0,0,-1.3333333,0,228.8)"><g
       id="g12"
       transform="scale(0.1)"><path
         d="m 129.422,204.199 c -37.4532,0 -68.3907,12.449 -92.8009,37.332 C 12.2109,266.422 0,297.121 0,333.621 c 0,36.738 12.2109,67.488 36.6211,92.258 24.4102,24.769 55.3477,37.152 92.8009,37.152 22.508,0 43.308,-5.269 62.387,-15.82 19.082,-10.551 33.961,-24.832 44.621,-42.84 L 194.121,379.84 c -6.16,11.14 -14.93,19.851 -26.312,26.129 -11.368,6.281 -24.168,9.422 -38.387,9.422 -24.184,0 -43.6837,-7.582 -58.4923,-22.75 -14.8086,-15.172 -22.2188,-34.852 -22.2188,-59.02 0,-23.941 7.4102,-43.5 22.2188,-58.672 14.8086,-15.168 34.3083,-22.75 58.4923,-22.75 14.219,0 27.078,3.141 38.566,9.422 11.5,6.277 20.211,14.867 26.133,25.777 L 236.43,262.871 C 225.77,244.852 210.949,230.57 191.988,220.02 173.031,209.48 152.172,204.199 129.422,204.199"
         style="fill:#37404e;fill-opacity:1;fill-rule:nonzero;stroke:none"
         id="path14" /><path
         d="m 383.27,386.949 h 49.058 L 367.52,208.891 c -9.239,-25.379 -21.5,-43.832 -36.77,-55.34 -15.262,-11.5 -34.262,-16.66 -56.988,-15.481 v 42.668 c 12.328,-0.238 22.109,2.371 29.34,7.821 7.218,5.453 12.968,14.222 17.238,26.312 l -72.891,172.078 h 50.129 l 46.363,-119.488 39.329,119.488"
         style="fill:#37404e;fill-opacity:1;fill-rule:nonzero;stroke:none"
         id="path16" /><path
         d="m 557.48,391.93 c 23.942,0 44.379,-9.071 61.329,-27.2 16.953,-18.14 25.421,-40.359 25.421,-66.671 0,-26.309 -8.468,-48.528 -25.421,-66.661 -16.95,-18.128 -37.387,-27.199 -61.329,-27.199 -24.89,0 -44.082,8.653 -57.601,25.961 V 209.18 H 454.02 v 248.871 h 45.859 v -92.082 c 13.519,17.301 32.711,25.961 57.601,25.961 z M 513.75,261.98 c 9.238,-9.371 20.98,-14.05 35.199,-14.05 14.223,0 26.012,4.679 35.371,14.05 9.371,9.36 14.051,21.391 14.051,36.079 0,14.703 -4.68,26.73 -14.051,36.089 -9.359,9.364 -21.148,14.043 -35.371,14.043 -14.219,0 -25.961,-4.679 -35.199,-14.043 -9.238,-9.359 -13.871,-21.386 -13.871,-36.089 0,-14.688 4.633,-26.719 13.871,-36.079"
         style="fill:#37404e;fill-opacity:1;fill-rule:nonzero;stroke:none"
         id="path18" /><path
         d="m 715.34,279.219 c 6.16,-22.278 22.871,-33.418 50.129,-33.418 17.543,0 30.812,5.929 39.82,17.777 l 36.981,-21.34 c -17.54,-25.359 -43.379,-38.039 -77.508,-38.039 -29.391,0 -52.981,8.891 -70.75,26.672 -17.782,17.77 -26.672,40.168 -26.672,67.188 0,26.793 8.769,49.132 26.308,67.019 17.543,17.902 40.063,26.852 67.551,26.852 26.082,0 47.59,-9.008 64.531,-27.032 16.95,-18.007 25.43,-40.289 25.43,-66.839 0,-5.918 -0.601,-12.2 -1.781,-18.84 z m -0.711,35.551 h 90.66 c -2.609,12.089 -8,21.101 -16.18,27.019 -8.168,5.93 -17.48,8.891 -27.91,8.891 -12.32,0 -22.508,-3.141 -30.57,-9.418 -8.059,-6.282 -13.391,-15.114 -16,-26.492"
         style="fill:#37404e;fill-opacity:1;fill-rule:nonzero;stroke:none"
         id="path20" /><path
         d="m 929.02,356.371 c 4.261,11.379 11.32,19.91 21.152,25.598 9.84,5.691 20.797,8.531 32.887,8.531 v -51.191 c -13.989,1.652 -26.489,-1.188 -37.508,-8.539 -11.02,-7.348 -16.531,-19.551 -16.531,-36.622 V 209.18 h -45.872 v 177.769 h 45.872 v -30.578"
         style="fill:#37404e;fill-opacity:1;fill-rule:nonzero;stroke:none"
         id="path22" /><path
         d="M 1255.4,458.051 V 209.18 h -48.71 v 161.41 l -70.18,-115.461 -5.73,-0.199 -69.86,115.05 v -160.8 h -49.06 v 248.871 h 50.48 l 71.37,-117.512 71,117.512 h 50.69"
         style="fill:#37404e;fill-opacity:1;fill-rule:nonzero;stroke:none"
         id="path24" /><path
         d="m 1434.59,386.949 h 45.87 V 209.18 h -45.87 v 20.98 c -13.75,-17.308 -33.06,-25.961 -57.95,-25.961 -23.7,0 -44.03,9.071 -60.98,27.199 -16.94,18.133 -25.42,40.352 -25.42,66.661 0,26.312 8.48,48.531 25.42,66.671 16.95,18.129 37.28,27.2 60.98,27.2 24.89,0 44.2,-8.66 57.95,-25.961 z M 1349.97,261.98 c 9.25,-9.371 20.98,-14.05 35.2,-14.05 14.22,0 26.01,4.679 35.38,14.05 9.36,9.36 14.04,21.391 14.04,36.079 0,14.703 -4.68,26.73 -14.04,36.089 -9.37,9.364 -21.16,14.043 -35.38,14.043 -14.22,0 -25.95,-4.679 -35.2,-14.043 -9.24,-9.359 -13.86,-21.386 -13.86,-36.089 0,-14.688 4.62,-26.719 13.86,-36.079"
         style="fill:#37404e;fill-opacity:1;fill-rule:nonzero;stroke:none"
         id="path26" /><path
         d="m 1658.22,386.949 h 44.8 V 217.711 c 0,-27.492 -9.07,-48.473 -27.2,-62.93 -18.13,-14.461 -40,-21.691 -65.59,-21.691 -19.2,0 -36.09,3.68 -50.67,11.031 -14.57,7.34 -25.77,18.129 -33.6,32.348 l 39.11,22.402 c 9.01,-16.59 24.53,-24.891 46.58,-24.891 14.46,0 25.83,3.79 34.13,11.379 8.3,7.582 12.44,18.371 12.44,32.352 v 19.199 c -13.51,-18.012 -32.47,-27.019 -56.88,-27.019 -25.13,0 -46.16,8.828 -63.11,26.488 -16.95,17.66 -25.42,39.172 -25.42,64.531 0,25.121 8.53,46.57 25.6,64.352 17.06,17.777 38.04,26.668 62.93,26.668 24.41,0 43.37,-9.008 56.88,-27.032 z m -85.5,-121.058 c 9.36,-9.129 21.27,-13.692 35.73,-13.692 14.46,0 26.37,4.563 35.73,13.692 9.36,9.121 14.04,20.8 14.04,35.019 0,13.981 -4.68,25.539 -14.04,34.66 -9.36,9.129 -21.27,13.692 -35.73,13.692 -14.46,0 -26.37,-4.563 -35.73,-13.692 -9.37,-9.121 -14.05,-20.679 -14.05,-34.66 0,-14.219 4.68,-25.898 14.05,-35.019"
         style="fill:#37404e;fill-opacity:1;fill-rule:nonzero;stroke:none"
         id="path28" /><path
         d="m 1843.46,391.93 c 19.43,0 35.49,-6.52 48.17,-19.559 12.68,-13.043 19.02,-31.051 19.02,-54.043 V 209.18 h -45.86 v 103.461 c 0,11.847 -3.2,20.918 -9.6,27.199 -6.4,6.281 -14.93,9.422 -25.6,9.422 -11.85,0 -21.33,-3.672 -28.44,-11.024 -7.11,-7.347 -10.67,-18.367 -10.67,-33.066 V 209.18 h -45.86 v 177.769 h 45.86 v -19.91 c 11.14,16.59 28.8,24.891 52.98,24.891"
         style="fill:#37404e;fill-opacity:1;fill-rule:nonzero;stroke:none"
         id="path30" /><path
         d="m 2101.22,231.398 c -18.25,-18.128 -40.53,-27.199 -66.84,-27.199 -26.31,0 -48.53,9.071 -66.66,27.199 -18.13,18.133 -27.2,40.352 -27.2,66.661 0,26.312 9.07,48.531 27.2,66.671 18.13,18.129 40.35,27.2 66.66,27.2 26.31,0 48.59,-9.071 66.84,-27.2 18.25,-18.14 27.38,-40.359 27.38,-66.671 0,-26.309 -9.13,-48.528 -27.38,-66.661 z m -101.15,31.473 c 9.13,-9.25 20.56,-13.871 34.31,-13.871 13.75,0 25.24,4.621 34.49,13.871 9.24,9.238 13.86,20.969 13.86,35.188 0,14.222 -4.62,25.961 -13.86,35.203 -9.25,9.25 -20.74,13.867 -34.49,13.867 -13.75,0 -25.18,-4.617 -34.31,-13.867 -9.12,-9.242 -13.69,-20.981 -13.69,-35.203 0,-14.219 4.57,-25.95 13.69,-35.188"
         style="fill:#37404e;fill-opacity:1;fill-rule:nonzero;stroke:none"
         id="path32" /><path
         d="m 2160.95,209.18 v 259.539 h 45.87 V 209.18 h -45.87"
         style="fill:#37404e;fill-opacity:1;fill-rule:nonzero;stroke:none"
         id="path34" /><path
         d="m 2271.52,408.281 c -7.58,0 -14.16,2.778 -19.73,8.348 -5.57,5.57 -8.35,12.152 -8.35,19.742 0,7.578 2.78,14.219 8.35,19.91 5.57,5.688 12.15,8.528 19.73,8.528 7.83,0 14.52,-2.84 20.09,-8.528 5.57,-5.691 8.36,-12.332 8.36,-19.91 0,-7.59 -2.79,-14.172 -8.36,-19.742 -5.57,-5.57 -12.26,-8.348 -20.09,-8.348 z M 2248.77,209.18 v 177.769 h 45.86 V 209.18 h -45.86"
         style="fill:#37404e;fill-opacity:1;fill-rule:nonzero;stroke:none"
         id="path36" /><path
         d="m 2471.69,386.949 h 45.87 V 209.18 h -45.87 v 20.98 c -13.75,-17.308 -33.06,-25.961 -57.95,-25.961 -23.7,0 -44.03,9.071 -60.98,27.199 -16.94,18.133 -25.42,40.352 -25.42,66.661 0,26.312 8.48,48.531 25.42,66.671 16.95,18.129 37.28,27.2 60.98,27.2 24.89,0 44.2,-8.66 57.95,-25.961 z M 2387.07,261.98 c 9.25,-9.371 20.98,-14.05 35.2,-14.05 14.22,0 26.02,4.679 35.38,14.05 9.36,9.36 14.04,21.391 14.04,36.079 0,14.703 -4.68,26.73 -14.04,36.089 -9.36,9.364 -21.16,14.043 -35.38,14.043 -14.22,0 -25.95,-4.679 -35.2,-14.043 -9.24,-9.359 -13.86,-21.386 -13.86,-36.089 0,-14.688 4.62,-26.719 13.86,-36.079"
         style="fill:#37404e;fill-opacity:1;fill-rule:nonzero;stroke:none"
         id="path38" /><path
         d="m 1057.74,1496.44 c 0.02,15.59 1.74,31.8 5.9,48.19 15.23,59.96 61.85,124.46 181.56,165.64 3.28,1.13 10.48,5.76 10.48,5.76 l 10.49,-5.76 c 119.7,-41.18 164.99,-105.3 181.55,-165.64 4.18,-15.2 6.11,-30.31 6.45,-44.93 13.51,7.77 28.41,14.39 44.69,18.98 59.53,16.79 138.71,8.67 234.23,-74.41 2.62,-2.28 11.25,-6.45 11.25,-6.45 l -0.77,-11.71 c 24.19,-124.26 -8.7,-195.54 -52.67,-240.05 -11.08,-11.22 -23.2,-20.45 -35.69,-28.05 13.49,-7.81 26.67,-17.41 38.78,-29.21 44.31,-43.16 76.86,-115.79 52.68,-240.05 -0.67,-3.41 -0.2,-12.211 -0.2,-12.211 l -10.29,-5.949 c -95.52,-83.078 -173.69,-90.238 -234.23,-74.41 -13.99,3.66 -26.97,8.91 -38.93,15.172 -1.07,0.097 -2.14,0.25 -3.21,0.457 -0.11,-15.2 -1.85,-30.989 -5.9,-46.938 -15.22,-59.949 -61.85,-124.461 -181.55,-165.641 -3.29,-1.128 -10.77,-7.449 -10.77,-7.449 l -10.2,7.449 c -119.71,41.18 -165,105.301 -181.56,165.641 -4.17,15.199 -6.11,30.32 -6.44,44.93 -13.51,-7.77 -28.42,-14.391 -44.69,-18.981 -59.54,-16.789 -138.712,-8.672 -234.231,74.41 -2.617,2.282 -12.481,5.02 -12.481,5.02 l 1.992,13.141 c -24.179,124.259 8.7,195.539 52.68,240.049 7.512,7.61 15.5,14.3 23.77,20.19 1.73,3.89 4.269,7.47 7.558,10.45 -11.957,7.32 -23.617,16.09 -34.429,26.62 -44.297,43.16 -76.86,115.79 -52.668,240.05 0.66,3.41 -0.821,13.56 -0.821,13.56 l 11.301,4.6 c 95.52,83.08 173.699,90.24 234.229,74.41 15.26,-3.99 29.31,-9.86 42.14,-16.88 z m 237.67,-529.241 c -2.77,-0.551 -5.56,-1.039 -8.37,-1.461 V 786.59 c 0,-17.301 -14.05,-31.352 -31.36,-31.352 -17.3,0 -31.35,14.051 -31.35,31.352 v 179.93 c -0.62,0.109 -1.23,0.218 -1.85,0.332 -20.01,-56.922 -57.5,-79.063 -57.5,-79.063 -6.57,-4.211 -14.29,-5.711 -21.66,-4.578 -1.92,-2.633 -4.03,-5.422 -6.33,-8.332 -8.44,-24.379 -15.43,-58.899 -6.37,-94.57 11.12,-43.789 47.51,-87.188 131.25,-118.231 83.75,31.043 120.14,74.442 131.26,118.231 9.27,36.511 1.73,71.832 -6.98,96.293 -2.73,3.41 -5.23,6.679 -7.48,9.757 -8.7,-2.757 -18.38,-1.64 -26.37,3.481 0,0 -36.74,21.699 -56.89,77.359 z M 934.262,1115.02 c -21.063,-6.46 -44.371,-17.53 -63.84,-36.5 -32.371,-31.53 -51.75,-84.739 -36.762,-172.782 68.75,-57.008 124.531,-66.828 168.01,-54.558 5.5,1.55 27.08,12.308 32.54,16.761 20.5,16.719 32.59,38.969 31.17,61.52 -0.86,13.551 -6.13,26.629 -17.01,34.609 -12.83,9.399 -31.85,10.852 -56.761,3.371 L 951.34,944.199 c -14.981,-8.648 -34.18,-3.508 -42.828,11.481 -8.653,14.98 -3.512,34.179 11.476,42.832 l 40.262,23.248 c 18.922,17.83 27.191,35.03 25.461,50.85 -1.473,13.4 -10.16,24.51 -21.473,32.03 -8.707,5.79 -19.136,9.53 -29.976,10.38 z m 715.968,-31.14 c -6.11,5.96 -28.35,20.22 -34.01,22.55 -32.83,13.47 -50.28,10.71 -69.09,-1.79 -5.03,-3.35 -10.02,-6.99 -13.14,-12.05 -3.61,-5.87 -7.1,-15.07 -8.54,-23.18 -2.82,-15.86 8.01,-31.01 25.67,-47.65 l 40.26,-23.248 c 14.99,-8.653 20.13,-27.852 11.48,-42.832 -8.66,-14.989 -27.85,-20.129 -42.84,-11.481 l -40.26,23.242 c -24.5,7.348 -43.31,6.079 -56.13,-2.921 -5.04,-4.219 -9.22,-9.02 -12.35,-14.532 -3.13,-6.25 -4.84,-13.316 -5.29,-20.527 -0.72,-11.449 1.72,-23.449 7.43,-33.973 16.36,-15.679 38.29,-31.258 65.56,-38.949 43.48,-12.269 99.26,-2.449 168.01,54.563 14.99,88.039 -4.39,141.248 -36.76,172.778 z m -484.82,17.39 c -59.32,53.33 -108.44,58.32 -134.95,55.54 16.28,-79.59 54.7,-146.39 115.56,-200.232 15.66,21.563 35.93,66.612 19.39,144.692 z m 311.31,18.28 c 4.03,12.74 7.41,25.84 10.15,39.31 -26.5,2.78 -75.65,-2.18 -135,-55.54 -16.53,-78.04 3.72,-123.082 19.37,-144.648 10.48,9.289 20.3,18.957 29.47,29.019 6.69,6.508 12.49,13.509 17.52,20.699 18.73,23.91 34.08,49.77 46.03,77.59 4.55,10.58 9.03,21.77 12.46,33.57 z m -120.86,121.92 c -22.93,-15.22 -51.99,-29.21 -88.82,-40.24 -2.92,-0.87 -5.95,-1.31 -8.99,-1.31 h -2.37 c -3.04,0 -6.07,0.44 -8.99,1.31 -36.03,10.79 -64.62,24.42 -87.3,39.25 -10.56,-12.33 -18.84,-26.65 -24.21,-42.31 24.64,-12.24 51.32,-30.42 79.3,-56.83 2.22,-2.09 4.11,-4.49 5.64,-7.12 l 1.18,-2.05 c 1.52,-2.64 2.65,-5.48 3.35,-8.45 8.69,-36.61 11.18,-68.2 9.67,-95.28 7.7,-1.42 15.63,-2.16 23.73,-2.16 8.56,0 16.92,0.82 25.02,2.41 -1.72,27.45 0.68,59.64 9.56,97.08 0.7,2.97 1.83,5.81 3.35,8.45 l 1.19,2.05 c 1.52,2.63 3.42,5.03 5.63,7.12 27.37,25.83 53.48,43.78 77.69,56.02 -5.53,15.6 -13.96,29.84 -24.63,42.06 z m -278.56,158.68 c -16.89,19.51 -43.3,42.82 -78.722,52.81 -43.476,12.27 -99.258,2.45 -168.008,-54.56 -14.992,-88.04 4.391,-141.25 36.75,-172.78 26.989,-26.29 61.352,-37.41 86.879,-42.1 3.352,0.51 6.563,0.94 9.59,1.3 1.57,9.62 7.57,18.17 16.531,22.81 0,0 37.15,20.96 95.43,10.59 0.53,1.55 1.08,3.09 1.65,4.62 l -157.412,90.88 c -14.988,8.66 -20.129,27.85 -11.476,42.84 8.648,14.98 27.847,20.13 42.828,11.47 l 157.12,-90.71 c 1.15,1.41 2.32,2.81 3.5,4.19 -39.32,45.8 -39.76,89.37 -39.76,89.37 -0.38,8.39 2.61,16.35 7.96,22.34 -0.94,2.2 -1.9,4.51 -2.86,6.93 z m 484.74,-210.93 c 25.34,4.87 58.74,16.08 85.1,41.76 32.36,31.53 51.75,84.74 36.75,172.78 -68.75,57.01 -124.52,66.83 -168.01,54.56 -36.26,-10.22 -63.07,-34.41 -79.9,-54.19 -1.29,-3.32 -2.59,-6.46 -3.86,-9.4 6.26,-6.12 9.83,-14.74 9.41,-23.85 0,0 -0.43,-42.7 -38.59,-87.99 1.07,-1.22 2.13,-2.46 3.17,-3.72 l 153.91,88.86 c 14.99,8.66 34.18,3.51 42.84,-11.47 8.65,-14.99 3.51,-34.18 -11.48,-42.84 l -153.52,-88.63 c 0.65,-1.71 1.28,-3.42 1.89,-5.15 59.29,11.14 97.21,-10.26 97.21,-10.26 7.85,-4.06 13.42,-11.12 15.74,-19.26 2.93,-0.33 6.05,-0.73 9.34,-1.2 z m -189.59,163.65 c -77.07,25.7 -154.13,25.83 -231.19,0.04 10.85,-24.34 39.72,-64.43 115.61,-89.14 75.84,24.7 104.73,64.76 115.58,89.1 z m 18.65,146.71 c -0.34,9.65 -1.61,19.59 -4.16,29.62 -11.12,43.79 -47.51,87.18 -131.26,118.22 -83.74,-31.04 -120.13,-74.43 -131.25,-118.22 -2.55,-10.03 -3.83,-19.97 -4.16,-29.62 0.35,-2.33 0.44,-4.74 0.24,-7.19 -0.13,-1.56 -0.19,-3.11 -0.19,-4.65 0.11,-2.57 0.27,-5.11 0.5,-7.62 2.77,-20.75 16.73,-37.43 33.73,-45.87 12.16,-6.03 26.13,-8.01 38.47,-2.57 14.56,6.41 25.32,22.16 31.31,47.47 v 46.49 c 0,17.31 14.05,31.36 31.35,31.36 17.31,0 31.36,-14.05 31.36,-31.36 v -46.49 c 5.99,-25.31 16.75,-41.06 31.31,-47.47 12.34,-5.44 26.31,-3.46 38.47,2.57 17,8.44 30.96,25.12 33.73,45.87 0.22,2.51 0.39,5.05 0.5,7.62 0,1.54 -0.06,3.09 -0.19,4.65 -0.2,2.45 -0.11,4.86 0.24,7.19"
         style="fill:url(#linearGradient44);fill-opacity:1;fill-rule:evenodd;stroke:none"
         id="path46" /><path
         d="m 294.629,21.1289 16.16,52.1016 h 10.981 l 16.16,-52.1016 18.23,52.1016 h 13.149 L 344.039,0.828125 H 331.922 L 316.691,50.4414 h -0.832 L 300.641,0.828125 H 288.52 L 263.238,73.2305 h 13.16 l 18.231,-52.1016"
         style="fill:#37404e;fill-opacity:1;fill-rule:nonzero;stroke:none"
         id="path48" /><path
         d="m 452.23,56.1406 c -4.941,5.1094 -11,7.668 -18.179,7.668 -7.18,0 -13.242,-2.5586 -18.18,-7.668 -4.941,-5.1093 -7.402,-11.3125 -7.402,-18.5898 0,-7.2891 2.461,-13.4805 7.402,-18.5899 4.938,-5.1093 11,-7.6718 18.18,-7.6718 7.179,0 13.238,2.5625 18.179,7.6718 4.942,5.1094 7.411,11.3008 7.411,18.5899 0,7.2773 -2.469,13.4805 -7.411,18.5898 z m 8.961,-45.3203 C 453.871,3.67969 444.82,0.101563 434.051,0.101563 c -10.77,0 -19.821,3.578127 -27.141,10.718737 -7.32,7.1485 -10.98,16.0586 -10.98,26.7305 0,10.668 3.66,19.5781 10.98,26.7187 7.32,7.1524 16.371,10.7188 27.141,10.7188 10.769,0 19.82,-3.5664 27.14,-10.7188 7.321,-7.1406 10.981,-16.0507 10.981,-26.7187 0,-10.6719 -3.66,-19.582 -10.981,-26.7305"
         style="fill:#37404e;fill-opacity:1;fill-rule:nonzero;stroke:none"
         id="path50" /><path
         d="M 520.539,0.828125 H 508.32 V 73.2305 h 19.059 l 21.859,-45.4688 21.852,45.4688 h 18.961 V 0.828125 H 577.82 V 57.3789 L 552.551,7.14844 h -6.84 L 520.539,57.3789 V 0.828125"
         style="fill:#37404e;fill-opacity:1;fill-rule:nonzero;stroke:none"
         id="path52" /><path
         d="M 681.719,73.2305 V 61.7383 h -38.641 v -19.168 h 34.703 V 31.6992 H 643.078 V 12.3281 h 39.883 V 0.828125 H 630.859 V 73.2305 h 50.86"
         style="fill:#37404e;fill-opacity:1;fill-rule:nonzero;stroke:none"
         id="path54" /><path
         d="M 773.602,73.2305 H 785.82 V 0.828125 H 772.559 L 731.539,53.6602 V 0.828125 H 719.32 V 73.2305 h 12.219 l 42.063,-54.0703 v 54.0703"
         style="fill:#37404e;fill-opacity:1;fill-rule:nonzero;stroke:none"
         id="path56" /><path
         d="m 824.559,47.75 v 25.4805 h 8.082 V 47.75 h -8.082"
         style="fill:#37404e;fill-opacity:1;fill-rule:nonzero;stroke:none"
         id="path58" /><path
         d="m 893.289,63.6992 c -3.559,0 -6.48,-0.7187 -8.758,-2.1679 -2.281,-1.4532 -3.422,-3.6407 -3.422,-6.5821 0,-2.9297 1.141,-5.1797 3.422,-6.7304 2.278,-1.5586 7.129,-3.2305 14.559,-5.0274 7.422,-1.793 13.012,-4.3125 16.781,-7.5625 3.758,-3.2383 5.641,-8.0273 5.641,-14.3398 0,-6.3203 -2.383,-11.44926 -7.153,-15.39066 C 909.602,1.96875 903.352,0 895.621,0 884.289,0 874.238,3.89844 865.469,11.6992 l 7.672,9.2227 c 7.32,-6.3516 14.91,-9.5313 22.789,-9.5313 3.929,0 7.058,0.8477 9.371,2.5391 2.308,1.6914 3.469,3.9414 3.469,6.7305 0,2.8007 -1.09,4.9804 -3.258,6.5312 -2.184,1.5469 -5.922,2.9688 -11.242,4.25 -5.321,1.2695 -9.36,2.4492 -12.122,3.5195 -2.757,1.0704 -5.207,2.4688 -7.347,4.1875 -4.289,3.25 -6.43,8.2227 -6.43,14.9219 0,6.6992 2.438,11.8594 7.309,15.4883 4.871,3.6211 10.89,5.4297 18.07,5.4297 4.629,0 9.219,-0.7578 13.781,-2.2695 4.559,-1.5196 8.489,-3.6602 11.809,-6.4297 l -6.531,-9.2188 c -2.137,1.9414 -5.039,3.5313 -8.7,4.7695 -3.66,1.2383 -7.269,1.8594 -10.82,1.8594"
         style="fill:#37404e;fill-opacity:1;fill-rule:nonzero;stroke:none"
         id="path60" /><path
         d="M 1033.8,62.0508 V 0.828125 h -12.23 V 62.0508 h -21.961 v 11.1797 h 56.151 V 62.0508 h -21.96"
         style="fill:#37404e;fill-opacity:1;fill-rule:nonzero;stroke:none"
         id="path62" /><path
         d="M 1140.59,73.2305 V 61.7383 h -38.64 v -19.168 h 34.7 V 31.6992 h -34.7 V 12.3281 h 39.88 V 0.828125 h -52.1 V 73.2305 h 50.86"
         style="fill:#37404e;fill-opacity:1;fill-rule:nonzero;stroke:none"
         id="path64" /><path
         d="m 1211.23,11.9102 c 4.22,0 7.84,0.7109 10.88,2.1289 3.04,1.4101 6.21,3.6718 9.53,6.7812 l 7.87,-8.082 C 1231.85,4.25 1222.54,0 1211.6,0 c -10.95,0 -20.03,3.51953 -27.25,10.5703 -7.21,7.0391 -10.82,15.9492 -10.82,26.7188 0,10.7695 3.68,19.75 11.03,26.9297 7.36,7.1796 16.64,10.7695 27.86,10.7695 11.23,0 20.6,-4.1367 28.13,-12.4297 l -7.77,-8.4883 c -3.45,3.3086 -6.72,5.6289 -9.79,6.9414 -3.07,1.3086 -6.68,1.9688 -10.82,1.9688 -7.32,0 -13.47,-2.3711 -18.44,-7.1016 -4.97,-4.7305 -7.46,-10.7695 -7.46,-18.1172 0,-7.3633 2.47,-13.5 7.41,-18.4414 4.93,-4.9414 10.79,-7.4101 17.55,-7.4101"
         style="fill:#37404e;fill-opacity:1;fill-rule:nonzero;stroke:none"
         id="path66" /><path
         d="M 1275.14,0.828125 V 73.2305 h 12.23 V 41.8516 h 35.94 v 31.3789 h 12.22 V 0.828125 h -12.22 V 30.4492 h -35.94 V 0.828125 h -12.23"
         style="fill:#37404e;fill-opacity:1;fill-rule:nonzero;stroke:none"
         id="path68" /><path
         d="m 1458.49,11.9102 c 4.21,0 7.83,0.7109 10.87,2.1289 3.04,1.4101 6.22,3.6718 9.53,6.7812 l 7.87,-8.082 C 1479.1,4.25 1469.79,0 1458.85,0 c -10.95,0 -20.03,3.51953 -27.24,10.5703 -7.22,7.0391 -10.83,15.9492 -10.83,26.7188 0,10.7695 3.68,19.75 11.03,26.9297 7.36,7.1796 16.65,10.7695 27.87,10.7695 11.22,0 20.59,-4.1367 28.12,-12.4297 l -7.77,-8.4883 c -3.45,3.3086 -6.71,5.6289 -9.79,6.9414 -3.07,1.3086 -6.68,1.9688 -10.82,1.9688 -7.32,0 -13.47,-2.3711 -18.44,-7.1016 -4.97,-4.7305 -7.46,-10.7695 -7.46,-18.1172 0,-7.3633 2.47,-13.5 7.41,-18.4414 4.94,-4.9414 10.79,-7.4101 17.56,-7.4101"
         style="fill:#37404e;fill-opacity:1;fill-rule:nonzero;stroke:none"
         id="path70" /><path
         d="m 1572.48,56.1406 c -4.94,5.1094 -11,7.668 -18.18,7.668 -7.18,0 -13.24,-2.5586 -18.18,-7.668 -4.94,-5.1093 -7.41,-11.3125 -7.41,-18.5898 0,-7.2891 2.47,-13.4805 7.41,-18.5899 4.94,-5.1093 11,-7.6718 18.18,-7.6718 7.18,0 13.24,2.5625 18.18,7.6718 4.94,5.1094 7.4,11.3008 7.4,18.5899 0,7.2773 -2.46,13.4805 -7.4,18.5898 z m 8.96,-45.3203 c -7.32,-7.14061 -16.37,-10.718737 -27.14,-10.718737 -10.77,0 -19.82,3.578127 -27.14,10.718737 -7.32,7.1485 -10.98,16.0586 -10.98,26.7305 0,10.668 3.66,19.5781 10.98,26.7187 7.32,7.1524 16.37,10.7188 27.14,10.7188 10.77,0 19.82,-3.5664 27.14,-10.7188 7.32,-7.1406 10.98,-16.0507 10.98,-26.7187 0,-10.6719 -3.66,-19.582 -10.98,-26.7305"
         style="fill:#37404e;fill-opacity:1;fill-rule:nonzero;stroke:none"
         id="path72" /><path
         d="M 1628.57,0.828125 V 73.2305 h 12.22 V 12.4297 h 33.04 V 0.828125 h -45.26"
         style="fill:#37404e;fill-opacity:1;fill-rule:nonzero;stroke:none"
         id="path74" /><path
         d="M 1707.91,0.828125 V 73.2305 h 12.23 V 12.4297 h 33.04 V 0.828125 h -45.27"
         style="fill:#37404e;fill-opacity:1;fill-rule:nonzero;stroke:none"
         id="path76" /><path
         d="M 1838.12,73.2305 V 61.7383 h -38.64 v -19.168 h 34.7 V 31.6992 h -34.7 V 12.3281 h 39.88 V 0.828125 h -52.1 V 73.2305 h 50.86"
         style="fill:#37404e;fill-opacity:1;fill-rule:nonzero;stroke:none"
         id="path78" /><path
         d="m 1908.76,11.9102 c 4.21,0 7.84,0.7109 10.88,2.1289 3.04,1.4101 6.21,3.6718 9.53,6.7812 l 7.87,-8.082 C 1929.37,4.25 1920.07,0 1909.12,0 c -10.94,0 -20.02,3.51953 -27.24,10.5703 -7.22,7.0391 -10.82,15.9492 -10.82,26.7188 0,10.7695 3.67,19.75 11.03,26.9297 7.35,7.1796 16.64,10.7695 27.86,10.7695 11.22,0 20.6,-4.1367 28.12,-12.4297 l -7.76,-8.4883 c -3.46,3.3086 -6.72,5.6289 -9.79,6.9414 -3.08,1.3086 -6.68,1.9688 -10.83,1.9688 -7.32,0 -13.46,-2.3711 -18.43,-7.1016 -4.98,-4.7305 -7.46,-10.7695 -7.46,-18.1172 0,-7.3633 2.47,-13.5 7.4,-18.4414 4.94,-4.9414 10.79,-7.4101 17.56,-7.4101"
         style="fill:#37404e;fill-opacity:1;fill-rule:nonzero;stroke:none"
         id="path80" /><path
         d="M 2000.02,62.0508 V 0.828125 h -12.23 V 62.0508 h -21.96 v 11.1797 h 56.15 V 62.0508 h -21.96"
         style="fill:#37404e;fill-opacity:1;fill-rule:nonzero;stroke:none"
         id="path82" /><path
         d="m 2055.95,73.2305 h 12.22 V 0.828125 h -12.22 V 73.2305"
         style="fill:#37404e;fill-opacity:1;fill-rule:nonzero;stroke:none"
         id="path84" /><path
         d="m 2142.03,0.828125 h -13.67 L 2099.25,73.2305 h 13.67 l 22.27,-54.0703 22.27,54.0703 h 13.68 L 2142.03,0.828125"
         style="fill:#37404e;fill-opacity:1;fill-rule:nonzero;stroke:none"
         id="path86" /><path
         d="M 2253.07,73.2305 V 61.7383 h -38.64 v -19.168 h 34.7 V 31.6992 h -34.7 V 12.3281 h 39.88 V 0.828125 h -52.1 V 73.2305 h 50.86"
         style="fill:#37404e;fill-opacity:1;fill-rule:nonzero;stroke:none"
         id="path88" /></g></g></svg>
