<?xml version="1.0" encoding="UTF-8" standalone="no"?>
<!-- Generator: Adobe Illustrator 16.0.3, SVG Export Plug-In . SVG Version: 6.00 Build 0)  -->

<svg
   version="1.1"
   id="Layer_1"
   x="0px"
   y="0px"
   width="160.00046"
   height="46.658165"
   viewBox="0 0 160.00046 46.658165"
   enable-background="new 0 0 200 200"
   xml:space="preserve"
   sodipodi:docname="czechitas.svg"
   inkscape:version="1.1.1 (c3084ef, 2021-09-22)"
   xmlns:inkscape="http://www.inkscape.org/namespaces/inkscape"
   xmlns:sodipodi="http://sodipodi.sourceforge.net/DTD/sodipodi-0.dtd"
   xmlns="http://www.w3.org/2000/svg"
   xmlns:svg="http://www.w3.org/2000/svg"
   xmlns:rdf="http://www.w3.org/1999/02/22-rdf-syntax-ns#"
   xmlns:cc="http://creativecommons.org/ns#"
   xmlns:dc="http://purl.org/dc/elements/1.1/"><defs
   id="defs857" /><sodipodi:namedview
   id="namedview855"
   pagecolor="#ffffff"
   bordercolor="#666666"
   borderopacity="1.0"
   inkscape:pageshadow="2"
   inkscape:pageopacity="0.0"
   inkscape:pagecheckerboard="0"
   showgrid="false"
   fit-margin-top="0"
   fit-margin-left="0"
   fit-margin-right="0"
   fit-margin-bottom="0"
   inkscape:zoom="2.39"
   inkscape:cx="80.753138"
   inkscape:cy="23.430962"
   inkscape:window-width="1382"
   inkscape:window-height="847"
   inkscape:window-x="58"
   inkscape:window-y="25"
   inkscape:window-maximized="1"
   inkscape:current-layer="Layer_1" />
<title
   id="title824">Artboard 1</title>
<g
   id="g852"
   transform="translate(-19.999429,-76.670835)">
	<path
   fill="#eb008b"
   d="m 22.378,93.846 c -2.734,2.188 -3.176,6.176 -0.988,8.909 0.244,0.305 0.515,0.585 0.809,0.84 v 0 c 1.532,-1.158 2.468,-2.939 2.552,-4.857 0.029,-0.801 0,-1.741 -0.352,-2.291 -0.352,-0.55 -1.447,-1.627 -2.021,-2.601 m -0.169,1.534 c 0.405,0.569 1.139,0.999 1.346,1.591 0.186,0.556 0.263,1.142 0.227,1.728 -0.058,1.332 -0.604,2.595 -1.534,3.548 -0.861,-1.016 -1.318,-2.313 -1.284,-3.645 0.042,-1.18 0.477,-2.313 1.234,-3.218"
   id="path826" />
	<path
   fill="#eb008b"
   d="m 46.599,90.218 c -0.446,-0.387 -0.78,-0.887 -0.965,-1.448 -0.121,-0.578 0.048,-1.398 0,-2.099 1.17,0.198 2.24,0.783 3.039,1.661 0.895,0.991 1.393,2.277 1.399,3.613 -1.331,-0.118 -2.568,-0.726 -3.474,-1.708 m 2.789,-2.556 c -1.206,-1.37 -2.962,-2.127 -4.786,-2.065 h -0.096 c 0.212,1.105 0.086,2.576 0.155,3.304 0.067,0.729 0.675,1.37 1.215,1.931 1.229,1.326 2.962,2.071 4.771,2.05 h 0.323 c 0.278,-1.903 -0.308,-3.831 -1.597,-5.258"
   id="path828" />
	<path
   fill="#eb008b"
   d="m 39.584,84.02 c -1.442,-0.833 -2.692,-1.963 -3.667,-3.314 l -0.125,-0.174 0.044,-0.207 c 0.137,-0.665 0.204,-1.339 0.202,-2.018 3.077,1.098 5.435,3.614 6.333,6.754 -0.973,-0.202 -1.909,-0.56 -2.769,-1.056 m -10.196,4.901 c -1.652,1.536 -3.554,2.779 -5.624,3.676 -2.656,-4.876 -0.854,-10.981 4.021,-13.636 2.215,-1.208 4.804,-1.536 7.251,-0.923 0.166,3.344 -1.991,7.525 -5.648,10.883 m 13.99,-3.652 C 42.034,79.308 36.11,75.59 30.163,76.952 c -5.948,1.362 -9.665,7.286 -8.303,13.232 0.221,0.962 0.568,1.89 1.035,2.759 v 0 l 0.053,0.092 0.082,0.14 0.347,0.612 c 2.588,4.043 7.501,5.936 12.132,4.674 v -0.993 c -4.228,1.256 -8.78,-0.391 -11.225,-4.063 2.127,-0.934 4.083,-2.218 5.789,-3.796 2.218,-1.967 3.965,-4.406 5.113,-7.139 l 0.29,-0.724 0.521,0.58 c 0.906,1 1.964,1.852 3.135,2.523 1.07,0.62 2.247,1.037 3.468,1.229 0.703,3.905 -0.972,7.855 -4.269,10.063 l 0.14,0.125 0.594,0.541 c 3.411,-2.383 5.166,-6.502 4.52,-10.613 z"
   id="path830" />
	<path
   fill="#2b388f"
   d="m 36.401,98.188 v -2.563 l 0.516,0.483 0.593,0.541 0.121,0.106 0.632,0.574 14.954,13.588 -7.236,1.5 4.038,7.873 -3.319,1.808 -4.056,-8.297 -6.243,5.233 z M 35.499,96.62 v 24.34 l 6.84,-5.735 3.965,8.104 4.959,-2.677 -3.902,-7.623 7.756,-1.614 L 39.054,96.806 38.46,96.267 38.33,96.136 37.78,95.653 35.523,93.599 Z"
   id="path832" />
	<path
   fill="#2b388f"
   d="m 70.867,97.762 h -0.145 c -0.359,-0.549 -0.895,-0.962 -1.52,-1.166 -0.858,-0.317 -1.768,-0.469 -2.682,-0.444 -1.106,-0.008 -2.171,0.426 -2.957,1.206 -0.815,0.74 -1.275,1.792 -1.264,2.895 -0.058,1.247 0.357,2.473 1.163,3.429 0.791,0.879 1.935,1.358 3.116,1.308 1.991,0 3.35,-0.481 4.077,-1.448 h 0.144 v 1.78 c 0.003,0.932 -0.467,1.801 -1.249,2.307 -0.987,0.643 -2.151,0.959 -3.329,0.901 -2.082,0.03 -4.09,-0.77 -5.581,-2.224 -1.524,-1.41 -2.375,-3.401 -2.339,-5.476 -0.051,-2.166 0.765,-4.265 2.267,-5.826 1.512,-1.59 3.54,-2.383 6.083,-2.383 1.091,-0.042 2.163,0.298 3.03,0.965 0.75,0.556 1.192,1.436 1.191,2.369 z"
   id="path834" />
	<path
   fill="#2b388f"
   d="m 84.885,106.455 c -0.012,0.485 -0.238,0.943 -0.617,1.249 -0.365,0.353 -0.852,0.554 -1.36,0.559 h -7.555 c -0.697,0.05 -1.39,-0.144 -1.963,-0.545 -0.449,-0.361 -0.7,-0.914 -0.675,-1.49 0,-1.146 0.785,-2.562 2.354,-4.25 l 3.902,-4.249 c 0.502,-0.535 0.946,-1.12 1.326,-1.747 h -7.612 v -1.176 c -0.009,-0.558 0.233,-1.088 0.661,-1.448 0.541,-0.417 1.215,-0.62 1.896,-0.575 h 7.034 c 0.664,-0.054 1.323,0.163 1.824,0.604 0.374,0.361 0.586,0.859 0.588,1.379 0,1.286 -0.659,2.654 -1.978,4.105 l -3.859,4.192 c -0.55,0.59 -1.035,1.235 -1.447,1.929 h 7.521 z"
   id="path836" />
	<path
   fill="#2b388f"
   d="m 96.506,97.98 c 0.042,-0.672 -0.248,-1.321 -0.776,-1.736 -0.634,-0.426 -1.39,-0.631 -2.152,-0.589 -0.864,-0.022 -1.695,0.33 -2.281,0.965 -0.6,0.633 -0.945,1.467 -0.965,2.34 l -0.029,0.51 h 1.722 c 1.782,0 2.973,-0.109 3.575,-0.327 0.534,-0.13 0.91,-0.611 0.906,-1.163 m 3.618,0.482 c 0,1.396 -0.56,2.371 -1.679,2.927 -1.119,0.556 -2.988,0.821 -5.605,0.791 h -2.509 c 0.122,0.935 0.633,1.774 1.409,2.311 0.856,0.6 1.883,0.907 2.928,0.873 2.106,0 3.685,-0.482 4.737,-1.447 h 0.145 v 1.206 c 0,2.335 -1.865,3.502 -5.596,3.502 -1.988,0.008 -3.897,-0.778 -5.306,-2.18 -1.529,-1.452 -2.366,-3.489 -2.297,-5.597 0,-2.543 0.703,-4.582 2.108,-6.116 1.4,-1.526 3.396,-2.365 5.465,-2.296 1.606,-0.022 3.161,0.574 4.341,1.664 1.225,1.105 1.897,2.694 1.838,4.341"
   id="path838" />
	<path
   fill="#2b388f"
   d="m 114.393,97.762 h -0.141 c -0.355,-0.545 -0.886,-0.956 -1.504,-1.161 -0.859,-0.317 -1.771,-0.469 -2.687,-0.444 -1.106,-0.008 -2.171,0.426 -2.958,1.206 -0.814,0.74 -1.274,1.794 -1.263,2.895 -0.058,1.247 0.356,2.474 1.162,3.428 0.791,0.881 1.935,1.359 3.117,1.309 1.989,0 3.349,-0.482 4.075,-1.448 h 0.146 v 1.78 c -0.004,0.934 -0.481,1.802 -1.271,2.302 -0.984,0.644 -2.151,0.959 -3.327,0.901 -2.082,0.03 -4.091,-0.77 -5.582,-2.224 -1.527,-1.414 -2.379,-3.413 -2.339,-5.495 -0.051,-2.165 0.765,-4.263 2.267,-5.826 1.512,-1.589 3.541,-2.383 6.088,-2.383 1.091,-0.041 2.162,0.299 3.03,0.965 0.75,0.556 1.192,1.435 1.191,2.369 z"
   id="path840" />
	<path
   fill="#2b388f"
   d="m 130.727,108.264 h -1.263 c -0.709,0.043 -1.403,-0.2 -1.931,-0.675 -0.497,-0.515 -0.755,-1.216 -0.704,-1.931 v -6.29 c 0,-1.206 -0.283,-2.095 -0.849,-2.667 -0.589,-0.583 -1.396,-0.895 -2.225,-0.859 -0.739,0.009 -1.441,0.333 -1.93,0.888 -0.565,0.595 -0.85,1.512 -0.85,2.754 v 8.779 h -1.263 c -1.76,0 -2.64,-0.861 -2.64,-2.585 V 87.599 h 1.206 c 0.748,-0.056 1.487,0.186 2.055,0.675 0.478,0.473 0.734,1.123 0.704,1.795 v 4.418 c 0.362,-0.58 0.846,-1.074 1.419,-1.447 0.563,-0.404 1.237,-0.624 1.93,-0.631 2.01,0 3.569,0.583 4.68,1.751 1.109,1.167 1.664,2.841 1.664,5.021 z"
   id="path842" />
	<path
   fill="#eb008b"
   d="m 140.978,106.084 c 0.059,0.639 -0.132,1.277 -0.53,1.778 -0.497,0.413 -1.139,0.61 -1.779,0.546 -1.492,0 -2.638,-0.412 -3.436,-1.235 -0.797,-0.824 -1.194,-2.02 -1.191,-3.589 V 93.111 h 1.091 c 1.837,0 2.755,0.965 2.755,2.894 v 7.236 c -0.065,0.581 0.128,1.164 0.531,1.591 0.541,0.348 1.183,0.504 1.823,0.444 h 0.719 z M 137.547,87.85 c 0.438,0.407 0.682,0.98 0.677,1.577 -0.019,1.244 -1.024,2.249 -2.268,2.267 -0.598,0.007 -1.17,-0.238 -1.577,-0.676 -0.43,-0.418 -0.668,-0.993 -0.661,-1.591 0.011,-1.232 1.006,-2.228 2.238,-2.238 0.599,-0.006 1.173,0.233 1.591,0.661"
   id="path844" />
	<path
   fill="#eb008b"
   d="m 142.613,93.397 c -0.023,-0.573 0.053,-1.146 0.227,-1.693 0.219,-0.506 0.521,-0.972 0.894,-1.379 0.611,-0.707 1.213,-1.061 1.808,-1.061 h 0.888 v 3.501 h 5.369 v 1.578 c -0.009,0.485 -0.223,0.945 -0.588,1.263 -0.468,0.407 -1.075,0.614 -1.693,0.575 h -3.073 v 6.058 c 0,1.855 0.814,2.784 2.44,2.784 0.961,0.063 1.92,-0.125 2.784,-0.551 h 0.145 v 1.38 c 0.031,0.737 -0.297,1.442 -0.879,1.896 -0.736,0.504 -1.621,0.748 -2.512,0.689 -1.93,0 -3.377,-0.499 -4.342,-1.495 -0.965,-0.998 -1.447,-2.414 -1.447,-4.25 z"
   id="path846" />
	<path
   fill="#2b388f"
   d="m 162.348,103.015 v -1.495 h -1.381 c -1.398,0 -2.372,0.154 -2.928,0.482 -0.539,0.29 -0.863,0.865 -0.829,1.477 -0.025,0.561 0.238,1.097 0.699,1.419 0.59,0.36 1.278,0.529 1.967,0.481 1.646,0 2.467,-0.794 2.467,-2.383 m 3.761,-0.029 c 0.053,1.504 -0.544,2.956 -1.635,3.989 -1.146,1.056 -2.664,1.612 -4.221,1.549 h -0.772 c -1.599,0.074 -3.176,-0.406 -4.461,-1.36 -1.113,-0.829 -1.76,-2.143 -1.738,-3.531 -0.039,-1.416 0.649,-2.754 1.824,-3.544 1.212,-0.872 3.168,-1.307 5.865,-1.307 h 1.337 V 98.56 c 0,-1.07 -0.26,-1.813 -0.776,-2.224 -0.517,-0.41 -1.365,-0.617 -2.558,-0.617 -1.063,-0.035 -2.125,0.151 -3.115,0.544 -0.674,0.268 -1.272,0.691 -1.751,1.234 h -0.145 v -1.229 c 0.029,-1.043 0.542,-2.015 1.385,-2.629 0.938,-0.766 2.345,-1.147 4.22,-1.147 0.846,-0.012 1.688,0.104 2.5,0.341 0.749,0.231 1.445,0.608 2.052,1.104 0.663,0.582 1.162,1.329 1.445,2.166 0.375,1.07 0.556,2.197 0.531,3.329 z"
   id="path848" />
	<path
   fill="#2b388f"
   d="m 179.993,103.388 c 0.08,1.479 -0.541,2.909 -1.679,3.858 -1.122,0.896 -2.716,1.346 -4.78,1.346 -1.242,0.041 -2.467,-0.277 -3.531,-0.916 -0.966,-0.611 -1.447,-1.318 -1.447,-2.122 v -1.737 h 0.145 c 0.574,0.483 1.245,0.836 1.968,1.033 0.866,0.283 1.772,0.428 2.684,0.429 1.875,0 2.813,-0.563 2.813,-1.692 0.006,-0.448 -0.245,-0.861 -0.648,-1.063 -0.816,-0.349 -1.685,-0.562 -2.57,-0.632 -1.646,-0.228 -2.865,-0.677 -3.656,-1.346 -0.804,-0.684 -1.245,-1.7 -1.197,-2.754 -0.003,-1.482 0.674,-2.884 1.839,-3.801 1.336,-1.081 3.021,-1.637 4.736,-1.563 1.608,0 2.833,0.333 3.677,1.002 0.763,0.521 1.232,1.373 1.264,2.297 v 1.447 h -0.146 c -0.52,-0.489 -1.149,-0.843 -1.837,-1.033 -0.834,-0.271 -1.705,-0.407 -2.581,-0.405 -2.068,0 -3.101,0.574 -3.097,1.722 -0.01,0.393 0.223,0.751 0.582,0.907 0.81,0.31 1.654,0.518 2.513,0.618 3.29,0.533 4.937,1.997 4.937,4.388"
   id="path850" />
</g>
<metadata
   id="metadata939"><rdf:RDF><cc:Work
       rdf:about=""><dc:title>Artboard 1</dc:title></cc:Work></rdf:RDF></metadata></svg>
