<?xml version="1.0" encoding="UTF-8"?>
<!DOCTYPE svg PUBLIC "-//W3C//DTD SVG 1.1//EN" "http://www.w3.org/Graphics/SVG/1.1/DTD/svg11.dtd">
<!-- Creator: CorelDRAW 2020 (64-Bit) -->
<svg xmlns="http://www.w3.org/2000/svg" xml:space="preserve" width="131.289mm" height="39.9999mm" version="1.1" style="shape-rendering:geometricPrecision; text-rendering:geometricPrecision; image-rendering:optimizeQuality; fill-rule:evenodd; clip-rule:evenodd"
viewBox="0 0 7176.77 2186.54"
 xmlns:xlink="http://www.w3.org/1999/xlink"
 xmlns:xodm="http://www.corel.com/coreldraw/odm/2003">
 <defs>
  <style type="text/css">
   <![CDATA[
    .fil1 {fill:#3F3F3F;fill-rule:nonzero}
    .fil0 {fill:#084A86;fill-rule:nonzero}
   ]]>
  </style>
 </defs>
 <g id="Vrstva_x0020_1">
  <metadata id="CorelCorpID_0Corel-Layer"/>
  <path class="fil0" d="M2757.34 296.96c-33.94,-33.96 -50.88,-75.07 -50.88,-123.01 0,-47.96 16.91,-89.06 50.88,-123.04 33.94,-33.98 74.99,-50.91 122.92,-50.91 47.88,0 88.94,16.93 122.9,50.91 33.96,33.98 50.89,75.08 50.89,123.04 0,47.94 -16.95,89.03 -50.89,123.01 -33.96,33.98 -75.02,50.93 -122.9,50.93 -47.92,0 -88.98,-16.97 -122.92,-50.93zm-204.13 130.13l446.72 0c59.55,0 89.33,59.61 89.33,177.87l0 760.07c0,103.15 71.43,155.18 190.56,155.18l0 22.73 -726.61 0 0 -22.73c119.1,0 178.67,-51.84 178.67,-155.18l0 -760.07c0,-103.31 -59.57,-155.15 -178.67,-155.15l0 -22.72zm-827.44 -1.16c34.88,0 59.12,21.44 72.76,64.31 2.2,2.01 3.78,3.01 4.65,3.01 77.05,-52.24 151.53,-78.37 223.08,-78.37 168.77,0 304.15,50.77 405.8,151.94 101.61,101.54 152.25,241.35 152.25,419.77 0,178.07 -50.27,317.53 -151.15,418.3 -100.91,100.81 -236.63,151.2 -406.9,151.2 -71.54,0 -143.1,-23.9 -214.63,-71.72l0 560.82c0,100.35 57.23,119.28 171.7,119.28l0 22.08 -686.83 0 0 -22.08c114.49,0 171.72,-19.21 171.72,-119.66l0 -1445.97c0,-100.43 -57.23,-150.84 -171.72,-150.84l0 -22.07 429.28 0zm515.11 560.66c0,-244.28 -8.45,-386.65 -25.66,-426.76 -34.5,-82.04 -97.25,-122.88 -188.97,-122.88 -74.47,0 -147.5,26.49 -219.03,79.84 2.68,24.09 4.16,49.1 4.37,75.36 2.73,287.55 0.03,576.53 0.03,864.26 70.08,51.89 141.62,77.62 214.63,77.62 93.18,0 155.93,-40.83 188.97,-122.87 17.22,-45.99 25.66,-187.27 25.66,-424.57zm-1758.8 -285.33l0 663.93c0,103.13 57.18,155.17 171.56,155.17l0 22.73 -653.65 0 0 -22.88c92.63,-9.34 138.97,-60.63 138.97,-153.61l0 -761.49c0,-79.31 -33.72,-128.28 -101.13,-146.78l0 -31.08 358.47 0c34.86,0 59.08,22.05 72.69,66.13 2.21,2.06 3.77,3.11 4.65,3.11 77,-53.74 151.4,-80.61 222.89,-80.61 371.72,0 557.57,137.21 557.57,411.01l0 539.49c0,93.48 47.01,145.04 141.03,153.82l0 22.88 -655.71 0 0 -22.73c114.37,0 171.57,-51.85 171.57,-155.17l0 -516.33c0,-273.64 -71.49,-410.27 -214.46,-410.27 -74.42,0 -147.37,27.26 -218.85,82.13 2.69,24.78 4.15,50.51 4.35,77.52 0.27,34.3 0.05,68.7 0.05,103.02zm3378.61 -701.25l0 2186.54 -72.72 0 0 -2186.54 72.72 0z"/>
  <path class="fil1" d="M4403.01 974.11l0 -667.06 229.79 0c51.88,0 91.46,3.1 118.79,9.47 38.2,8.85 70.81,24.84 97.83,47.83 35.25,29.81 61.47,67.7 78.87,113.97 17.55,46.28 26.25,99.22 26.25,158.69 0,50.62 -5.9,95.5 -17.71,134.62 -11.8,39.13 -27.01,71.59 -45.49,97.2 -18.65,25.62 -38.82,45.81 -60.88,60.41 -21.89,14.74 -48.44,25.93 -79.49,33.54 -31.22,7.6 -66.94,11.34 -107.29,11.34l-240.67 0zm88.5 -78.26l142.24 0c43.93,0 78.41,-4.03 103.4,-12.27 24.99,-8.23 44.87,-19.72 59.78,-34.63 20.81,-20.96 37.12,-49.22 48.75,-84.62 11.65,-35.4 17.57,-78.25 17.57,-128.72 0,-69.87 -11.51,-123.59 -34.32,-161.17 -22.83,-37.58 -50.62,-62.74 -83.38,-75.46 -23.6,-9.17 -61.63,-13.68 -114.13,-13.68l-139.91 0 0 510.55zm545.57 -495.64l0 -93.16 82 0 0 93.16 -82 0zm0 573.9l0 -483.53 82 0 0 483.53 -82 0zm163.45 40.06l79.18 11.18c3.26,24.53 12.57,42.39 27.79,53.72 20.36,15.06 48.15,22.67 83.38,22.67 37.89,0 67.24,-7.61 87.89,-22.67 20.64,-15.05 34.62,-36.33 41.93,-63.51 4.18,-16.61 6.21,-51.55 5.9,-104.81 -35.87,42.23 -80.43,63.36 -133.85,63.36 -66.45,0 -118,-23.92 -154.35,-71.89 -36.49,-47.83 -54.65,-105.27 -54.65,-172.2 0,-46.11 8.39,-88.66 25.01,-127.63 16.61,-38.98 40.83,-68.95 72.51,-90.22 31.68,-21.26 68.94,-31.83 111.79,-31.83 56.99,0 104.04,23.29 141.01,69.87l0 -59.62 75.44 0 0 417.53c0,75.3 -7.6,128.56 -22.97,159.93 -15.21,31.37 -39.61,56.21 -72.66,74.38 -33.25,18.16 -74.07,27.33 -122.51,27.33 -57.62,0 -104.04,-12.89 -139.45,-38.82 -35.56,-25.77 -52.64,-64.75 -51.39,-116.76zm67.07 -290.06c0,63.2 12.57,109.32 37.73,138.36 25.3,29.03 56.83,43.63 94.7,43.63 37.74,0 69.27,-14.44 94.88,-43.32 25.47,-28.88 38.2,-74.22 38.2,-136.02 0,-59 -13.19,-103.56 -39.44,-133.54 -26.24,-29.97 -57.93,-44.87 -94.87,-44.87 -36.49,0 -67.38,14.75 -93.01,44.26 -25.47,29.5 -38.2,73.29 -38.2,131.5zm437.67 -323.9l0 -93.16 81.98 0 0 93.16 -81.98 0zm0 573.9l0 -483.53 81.98 0 0 483.53 -81.98 0zm-1306 904.12l0 -667.06 88.51 0 0 330.74 331.36 -330.74 119.54 0 -279.8 270.49 291.93 396.57 -116.46 0 -237.41 -336.64 -109.17 105.59 0 231.05 -88.51 0zm555.67 -241.76c0,-89.28 24.83,-155.43 74.69,-198.43 41.46,-35.72 92.23,-53.58 152.01,-53.58 66.3,0 120.64,21.74 162.88,65.21 42.07,43.32 63.19,103.42 63.19,179.97 0,62.1 -9.31,110.86 -27.94,146.42 -18.63,35.55 -45.8,63.19 -81.54,82.91 -35.54,19.72 -74.51,29.5 -116.59,29.5 -67.71,0 -122.35,-21.59 -164.13,-64.91 -41.77,-43.32 -62.57,-105.74 -62.57,-187.1zm83.84 0.15c0,61.81 13.5,108.08 40.54,138.67 27.17,30.74 61.17,46.11 102.32,46.11 40.67,0 74.53,-15.38 101.71,-46.27 27.01,-30.9 40.52,-77.95 40.52,-141.14 0,-59.63 -13.66,-104.82 -40.83,-135.4 -27.19,-30.75 -61.03,-46.12 -101.4,-46.12 -41.15,0 -75.15,15.21 -102.32,45.8 -27.04,30.59 -40.54,76.7 -40.54,138.35zm752.41 181.05c-30.45,25.94 -59.78,44.1 -87.9,54.81 -28.1,10.73 -58.22,16 -90.52,16 -53.11,0 -93.96,-12.88 -122.51,-38.82 -28.56,-25.78 -42.85,-58.85 -42.85,-99.07 0,-23.6 5.44,-45.18 16.14,-64.74 10.88,-19.56 24.99,-35.09 42.39,-46.9 17.55,-11.8 37.1,-20.81 59.01,-26.86 16.14,-4.19 40.52,-8.23 72.97,-12.27 66.14,-7.76 115.07,-17.24 146.27,-28.11 0.31,-11.17 0.46,-18.32 0.46,-21.27 0,-33.22 -7.75,-56.68 -23.3,-70.34 -20.96,-18.48 -52.16,-27.64 -93.47,-27.64 -38.66,0 -67.23,6.83 -85.54,20.34 -18.48,13.51 -31.99,37.42 -40.84,71.89l-80.13 -11.18c7.31,-34.31 19.26,-62.11 36.02,-83.23 16.78,-21.12 41,-37.26 72.66,-48.75 31.53,-11.34 68.32,-17.08 109.94,-17.08 41.3,0 74.99,4.82 100.93,14.6 25.78,9.78 44.87,21.89 56.99,36.64 12.11,14.75 20.65,33.39 25.63,55.9 2.64,13.97 4.03,39.13 4.03,75.3l0 108.69c0,75.93 1.72,123.91 5.13,144.25 3.26,20.34 10.09,39.75 20.03,58.38l-85.72 0c-8.23,-17.24 -13.52,-37.42 -15.83,-60.56zm-6.54 -181.67c-29.81,12.11 -74.53,22.36 -134.14,30.74 -33.86,4.82 -57.78,10.25 -71.76,16.3 -13.96,6.06 -24.69,14.91 -32.28,26.4 -7.61,11.64 -11.49,24.53 -11.49,38.82 0,21.58 8.23,39.75 24.84,54.19 16.62,14.44 40.84,21.74 72.68,21.74 31.51,0 59.61,-6.83 84.31,-20.65 24.53,-13.67 42.7,-32.45 54.19,-56.21 8.85,-18.48 13.19,-45.65 13.19,-81.51l0.46 -29.81zm178.52 242.23l0 -667.06 81.97 0 0 667.06 -81.97 0zm180.36 -573.89l0 -93.16 82 0 0 93.16 -82 0zm0 573.89l0 -483.52 82 0 0 483.52 -82 0zm494.33 -177.01l80.13 11.18c-8.85,55.12 -31.2,98.13 -67.38,129.35 -36.18,31.21 -80.77,46.74 -133.39,46.74 -65.99,0 -119.1,-21.59 -159.15,-64.75 -40.23,-43.16 -60.26,-104.97 -60.26,-185.4 0,-52.16 8.72,-97.66 25.94,-136.8 17.24,-38.98 43.49,-68.32 78.89,-87.72 35.25,-19.56 73.59,-29.35 115.2,-29.35 52.32,0 95.34,13.2 128.57,39.75 33.38,26.56 54.82,64.28 64.14,113.04l-79.2 12.11c-7.59,-32.45 -20.96,-56.83 -40.36,-73.29 -19.26,-16.3 -42.56,-24.54 -69.89,-24.54 -41.3,0 -74.84,14.75 -100.76,44.26 -25.78,29.66 -38.67,76.24 -38.67,140.21 0,64.9 12.42,111.95 37.26,141.3 25.01,29.34 57.45,44.1 97.37,44.1 32.3,0 59.16,-9.78 80.59,-29.5 21.58,-19.57 35.24,-49.85 40.98,-90.69zm451.33 20.49l84.79 11.19c-13.21,49.22 -37.89,87.57 -73.92,114.74 -36.02,27.18 -82,40.84 -138.06,40.84 -70.48,0 -126.39,-21.73 -167.68,-65.21 -41.3,-43.33 -61.96,-104.35 -61.96,-182.77 0,-81.04 20.81,-144.09 62.57,-188.8 41.77,-44.88 95.96,-67.24 162.56,-67.24 64.45,0 117.07,21.89 157.92,65.84 40.84,43.95 61.33,105.74 61.33,185.4 0,4.8 -0.16,12.11 -0.46,21.74l-360.08 0c3.1,52.95 18.01,93.63 45.03,121.74 26.86,28.1 60.55,42.23 100.76,42.23 29.99,0 55.6,-7.92 76.72,-23.76 21.27,-15.84 38.05,-41.15 50.47,-75.93zm-268.3 -131.36l269.22 0c-3.55,-40.69 -13.96,-71.12 -30.89,-91.46 -25.94,-31.52 -59.78,-47.36 -101.24,-47.36 -37.56,0 -69.09,12.58 -94.7,37.73 -25.47,25.15 -39.61,58.85 -42.39,101.08z"/>
 </g>
</svg>
