<?xml version="1.0" encoding="UTF-8" standalone="no"?>
<svg
   viewBox="0 0 115.83014 17.019961"
   version="1.1"
   id="svg160"
   sodipodi:docname="dnanexus.svg"
   width="115.83015"
   height="17.01996"
   inkscape:version="1.2.2 (b0a84865, 2022-12-01)"
   xmlns:inkscape="http://www.inkscape.org/namespaces/inkscape"
   xmlns:sodipodi="http://sodipodi.sourceforge.net/DTD/sodipodi-0.dtd"
   xmlns="http://www.w3.org/2000/svg"
   xmlns:svg="http://www.w3.org/2000/svg"
   xmlns:rdf="http://www.w3.org/1999/02/22-rdf-syntax-ns#"
   xmlns:cc="http://creativecommons.org/ns#"
   xmlns:dc="http://purl.org/dc/elements/1.1/">
  <sodipodi:namedview
     id="namedview162"
     pagecolor="#ffffff"
     bordercolor="#666666"
     borderopacity="1.0"
     inkscape:showpageshadow="2"
     inkscape:pageopacity="0.0"
     inkscape:pagecheckerboard="0"
     inkscape:deskcolor="#d1d1d1"
     showgrid="false"
     inkscape:zoom="9.9283431"
     inkscape:cx="57.915001"
     inkscape:cy="8.561348"
     inkscape:window-width="1378"
     inkscape:window-height="847"
     inkscape:window-x="62"
     inkscape:window-y="25"
     inkscape:window-maximized="1"
     inkscape:current-layer="svg160" />
  <defs
     id="defs134">
    <style
       id="style132">.cls-1{fill:#221f1f;}.cls-2{fill:#28aae1;}</style>
  </defs>
  <title
     id="title136">logo_DNAnexus</title>
  <g
     id="Layer_2"
     data-name="Layer 2"
     transform="translate(0,4.4817738e-4)">
    <g
       id="Layer_1-2"
       data-name="Layer 1">
      <path
         class="cls-1"
         d="M 15.14,8.34 A 8.9,8.9 0 0 1 14.52,11.68 7.74,7.74 0 0 1 12.76,14.32 7.88,7.88 0 0 1 10,16.06 9.63,9.63 0 0 1 6.45,16.69 H 0 V 0 H 6.48 A 9.63,9.63 0 0 1 10,0.63 8.18,8.18 0 0 1 12.73,2.37 7.74,7.74 0 0 1 14.52,5 8.85,8.85 0 0 1 15.14,8.34 Z m -4,0 A 7.43,7.43 0 0 0 10.82,6.1 4.86,4.86 0 0 0 9.9,4.42 4.05,4.05 0 0 0 8.46,3.35 5,5 0 0 0 6.46,2.98 H 3.89 v 10.73 h 2.59 a 5,5 0 0 0 2,-0.37 4.17,4.17 0 0 0 1.48,-1.07 4.82,4.82 0 0 0 0.92,-1.69 7.39,7.39 0 0 0 0.3,-2.24 z"
         id="path138" />
      <path
         class="cls-1"
         d="m 31.08,0 v 16.69 h -2 a 1.67,1.67 0 0 1 -0.75,-0.15 1.85,1.85 0 0 1 -0.6,-0.49 l -7.87,-10 q 0,0.45 0.06,0.87 c 0,0.28 0,0.54 0,0.78 v 9 h -3.4 V 0 h 2 0.48 a 1.4,1.4 0 0 1 0.31,0.09 0.87,0.87 0 0 1 0.26,0.18 3.11,3.11 0 0 1 0.29,0.31 l 7.93,10 c 0,-0.32 -0.06,-0.63 -0.08,-0.94 -0.02,-0.31 0,-0.58 0,-0.85 V 0 Z"
         id="path140" />
      <path
         class="cls-1"
         d="m 66.05,11.21 a 4,4 0 0 0 1,2.26 3.22,3.22 0 0 0 2.31,0.85 4.2,4.2 0 0 0 1.25,-0.17 6.21,6.21 0 0 0 0.92,-0.39 l 0.73,-0.38 a 1.39,1.39 0 0 1 0.64,-0.17 0.73,0.73 0 0 1 0.63,0.31 l 1,1.27 a 5.38,5.38 0 0 1 -1.23,1.07 6.65,6.65 0 0 1 -1.4,0.67 7.56,7.56 0 0 1 -1.46,0.35 11.65,11.65 0 0 1 -1.42,0.09 A 7.14,7.14 0 0 1 66.46,16.52 5.8,5.8 0 0 1 64.39,15.19 6.27,6.27 0 0 1 63.07,13 8.38,8.38 0 0 1 62.56,10 7.16,7.16 0 0 1 63,7.45 a 5.93,5.93 0 0 1 1.26,-2.06 6,6 0 0 1 2,-1.39 7,7 0 0 1 5,-0.12 5.13,5.13 0 0 1 1.83,1.17 5.28,5.28 0 0 1 1.2,1.87 7.1,7.1 0 0 1 0.42,2.53 3.87,3.87 0 0 1 0,0.65 1.9,1.9 0 0 1 -0.61,1.11 z M 71.56,8.69 A 3.58,3.58 0 0 0 71.42,7.69 2.42,2.42 0 0 0 71,6.77 2.27,2.27 0 0 0 70.21,6.17 2.76,2.76 0 0 0 69,6 a 2.65,2.65 0 0 0 -2,0.71 3.66,3.66 0 0 0 -0.93,2 z"
         id="path142" />
      <path
         class="cls-1"
         d="m 100.54,3.69 v 13.09 h -2.16 a 0.8,0.8 0 0 1 -0.86,-0.61 l -0.23,-0.91 a 8.7,8.7 0 0 1 -0.81,0.69 4.62,4.62 0 0 1 -0.9,0.55 5.44,5.44 0 0 1 -1,0.36 5.68,5.68 0 0 1 -1.2,0.12 4.77,4.77 0 0 1 -1.9,-0.36 4,4 0 0 1 -1.39,-1 A 4.7,4.7 0 0 1 89.21,14 6.71,6.71 0 0 1 88.92,12 V 3.69 h 3.51 V 12 a 2.54,2.54 0 0 0 0.5,1.69 1.82,1.82 0 0 0 1.49,0.6 A 3,3 0 0 0 95.8,14 5.12,5.12 0 0 0 97,13.1 V 3.69 Z"
         id="path144" />
      <path
         class="cls-1"
         d="m 111,6.38 a 1.08,1.08 0 0 1 -0.28,0.31 0.76,0.76 0 0 1 -0.4,0.1 1.25,1.25 0 0 1 -0.52,-0.13 l -0.6,-0.27 a 6.5,6.5 0 0 0 -0.76,-0.28 3.6,3.6 0 0 0 -1,-0.12 2.12,2.12 0 0 0 -1.32,0.35 1.09,1.09 0 0 0 -0.47,0.92 0.9,0.9 0 0 0 0.27,0.66 2.36,2.36 0 0 0 0.7,0.46 9.31,9.31 0 0 0 1,0.37 l 1.15,0.37 c 0.39,0.14 0.77,0.29 1.15,0.47 a 4,4 0 0 1 1,0.67 3.24,3.24 0 0 1 0.71,1 3.19,3.19 0 0 1 0.26,1.37 4.29,4.29 0 0 1 -0.35,1.76 3.77,3.77 0 0 1 -1,1.39 4.87,4.87 0 0 1 -1.67,0.91 8,8 0 0 1 -3.65,0.21 7.29,7.29 0 0 1 -1.26,-0.34 8.7,8.7 0 0 1 -1.11,-0.51 5.41,5.41 0 0 1 -0.91,-0.64 l 0.82,-1.31 a 1,1 0 0 1 0.89,-0.48 1.08,1.08 0 0 1 0.58,0.16 l 0.6,0.34 a 4.79,4.79 0 0 0 0.78,0.34 3.28,3.28 0 0 0 1.12,0.16 2.9,2.9 0 0 0 0.88,-0.11 1.88,1.88 0 0 0 0.6,-0.31 1.19,1.19 0 0 0 0.33,-0.45 1.26,1.26 0 0 0 0.11,-0.51 1,1 0 0 0 -0.27,-0.71 2.37,2.37 0 0 0 -0.71,-0.47 6.92,6.92 0 0 0 -1,-0.37 c -0.38,-0.11 -0.77,-0.23 -1.17,-0.37 a 8.75,8.75 0 0 1 -1.15,-0.48 3.78,3.78 0 0 1 -1,-0.71 3.27,3.27 0 0 1 -0.72,-1 3.81,3.81 0 0 1 -0.27,-1.51 3.87,3.87 0 0 1 0.31,-1.62 3.79,3.79 0 0 1 1,-1.29 4.72,4.72 0 0 1 1.58,-0.89 6.64,6.64 0 0 1 2.19,-0.33 6.88,6.88 0 0 1 2.54,0.46 5.48,5.48 0 0 1 1.88,1.2 z"
         id="path146" />
      <path
         class="cls-1"
         d="m 115.83,5.13 a 1.73,1.73 0 0 1 -0.11,0.63 1.43,1.43 0 0 1 -0.31,0.47 1.34,1.34 0 0 1 -0.45,0.29 1.39,1.39 0 0 1 -0.53,0.1 1.4,1.4 0 0 1 -0.54,-0.1 1.34,1.34 0 0 1 -0.45,-0.29 1.43,1.43 0 0 1 -0.31,-0.47 1.83,1.83 0 0 1 0,-1.25 1.43,1.43 0 0 1 0.31,-0.47 1.2,1.2 0 0 1 0.45,-0.29 1.4,1.4 0 0 1 0.54,-0.1 1.39,1.39 0 0 1 0.53,0.1 1.2,1.2 0 0 1 0.45,0.29 1.43,1.43 0 0 1 0.31,0.47 1.71,1.71 0 0 1 0.11,0.62 z m -0.3,0 a 1.53,1.53 0 0 0 -0.08,-0.49 1.26,1.26 0 0 0 -0.23,-0.39 1.09,1.09 0 0 0 -0.35,-0.24 1,1 0 0 0 -0.44,-0.09 1.1,1.1 0 0 0 -0.8,0.33 1.26,1.26 0 0 0 -0.23,0.39 1.53,1.53 0 0 0 -0.08,0.49 1.54,1.54 0 0 0 0.08,0.5 1.1,1.1 0 0 0 0.23,0.38 1,1 0 0 0 0.35,0.25 1.1,1.1 0 0 0 0.45,0.09 1,1 0 0 0 0.44,-0.09 1,1 0 0 0 0.35,-0.25 1.1,1.1 0 0 0 0.23,-0.38 1.54,1.54 0 0 0 0.08,-0.5 z m -0.7,0.82 A 2.5,2.5 0 0 0 114.62,5.6 l -0.2,-0.26 h -0.28 V 6 h -0.29 V 4.36 h 0.23 0.23 a 0.9,0.9 0 0 1 0.54,0.13 0.46,0.46 0 0 1 0.18,0.4 0.38,0.38 0 0 1 -0.08,0.26 0.49,0.49 0 0 1 -0.22,0.18 l 0.09,0.12 c 0,0 0.07,0.11 0.11,0.17 l 0.12,0.19 0.1,0.19 z M 114.14,5.1 h 0.16 a 1,1 0 0 0 0.31,0 0.22,0.22 0 0 0 0.12,-0.22 0.21,0.21 0 0 0 -0.12,-0.21 0.61,0.61 0 0 0 -0.28,-0.06 h -0.19 z"
         id="path148" />
      <path
         class="cls-1"
         d="m 60.76,6.46 a 4.39,4.39 0 0 0 -0.86,-1.58 3.85,3.85 0 0 0 -1.38,-1 4.77,4.77 0 0 0 -1.9,-0.37 5.66,5.66 0 0 0 -1.2,0.13 4.82,4.82 0 0 0 -1,0.36 6,6 0 0 0 -0.9,0.54 10.5,10.5 0 0 0 -0.82,0.7 L 52.49,4.33 A 0.86,0.86 0 0 0 51.61,3.72 h -2.19 v 10.75 l 0.9,2.31 h 2.61 V 7.37 a 4.79,4.79 0 0 1 1.23,-0.89 3.11,3.11 0 0 1 1.38,-0.32 1.83,1.83 0 0 1 1.5,0.61 2.53,2.53 0 0 1 0.51,1.69 v 8.32 H 61 V 8.46 a 6.67,6.67 0 0 0 -0.24,-2 z"
         id="path150" />
      <path
         class="cls-1"
         d="m 80.69,10.68 c 2.4,1.3 3.12,3.25 3.14,6.1 h 3.35 c -0.08,-4.15 -3.89,-6.4 -5,-7 C 79.67,8.32 79,6.52 79,3.82 V 3.69 h -3.39 v 0.13 c 0,3.39 3.32,5.91 5.08,6.86 z"
         id="path152" />
      <path
         class="cls-2"
         d="m 79.23,16.78 c 0,-3.4 2.17,-5 4,-6 a 8.36,8.36 0 0 0 4.28,-7 V 3.69 h -3.35 v 0.13 c 0,3 -1.82,4.29 -4,5.54 a 8.89,8.89 0 0 0 -4.27,7.42 z"
         id="path154" />
      <path
         class="cls-1"
         d="m 41.39,0 h -4 L 31,16.69 h 3 a 1.27,1.27 0 0 0 0.81,-0.26 1.3,1.3 0 0 0 0.45,-0.58 l 1,-2.91 0.36,-1.07 h 5.63 l 0.35,1.07 1,2.91 a 1.41,1.41 0 0 0 0.47,0.6 1.3,1.3 0 0 0 0.81,0.24 h 3 z M 39,4.73 c 0.13,-0.4 0.26,-0.83 0.37,-1.29 0.13,0.45 0.26,0.88 0.39,1.27 0.13,0.39 0.25,0.74 0.37,1 L 41.31,9.2 H 37.5 l 1.17,-3.47 c 0.11,-0.26 0.23,-0.6 0.33,-1 z"
         id="path156" />
    </g>
  </g>
  <metadata
     id="metadata281">
    <rdf:RDF>
      <cc:Work
         rdf:about="">
        <dc:title>logo_DNAnexus</dc:title>
      </cc:Work>
    </rdf:RDF>
  </metadata>
</svg>
