<?xml version="1.0" encoding="UTF-8" standalone="no"?>
<svg
   xmlns:serif="http://www.serif.com/"
   xmlns:dc="http://purl.org/dc/elements/1.1/"
   xmlns:cc="http://creativecommons.org/ns#"
   xmlns:rdf="http://www.w3.org/1999/02/22-rdf-syntax-ns#"
   xmlns:svg="http://www.w3.org/2000/svg"
   xmlns="http://www.w3.org/2000/svg"
   xmlns:sodipodi="http://sodipodi.sourceforge.net/DTD/sodipodi-0.dtd"
   xmlns:inkscape="http://www.inkscape.org/namespaces/inkscape"
   width="675.35101"
   height="144"
   viewBox="0 0 675.35101 144"
   version="1.1"
   xml:space="preserve"
   style="clip-rule:evenodd;fill-rule:evenodd;stroke-linejoin:round;stroke-miterlimit:2"
   id="svg852"
   sodipodi:docname="dobrysef.svg"
   inkscape:version="1.0.2 (e86c8708, 2021-01-15)"><metadata
     id="metadata858"><rdf:RDF><cc:Work
         rdf:about=""><dc:format>image/svg+xml</dc:format><dc:type
           rdf:resource="http://purl.org/dc/dcmitype/StillImage" /><dc:title></dc:title></cc:Work></rdf:RDF></metadata><defs
     id="defs856" /><sodipodi:namedview
     pagecolor="#ffffff"
     bordercolor="#666666"
     borderopacity="1"
     objecttolerance="10"
     gridtolerance="10"
     guidetolerance="10"
     inkscape:pageopacity="0"
     inkscape:pageshadow="2"
     inkscape:window-width="1382"
     inkscape:window-height="847"
     id="namedview854"
     showgrid="false"
     fit-margin-top="0"
     fit-margin-left="0"
     fit-margin-right="0"
     fit-margin-bottom="0"
     inkscape:zoom="1.0532544"
     inkscape:cx="337.833"
     inkscape:cy="72.072"
     inkscape:window-x="58"
     inkscape:window-y="25"
     inkscape:window-maximized="1"
     inkscape:current-layer="svg852" /><path
     id="Dobry-sef"
     serif:id="Dobry sef"
     d="M 12.726,108 32.273,16.383 53.578,13.57 36.281,94.289 c 2.625,1.922 5.367,2.883 8.226,2.883 2.86,0 5.532,-0.891 8.016,-2.672 2.484,-1.781 4.746,-4.207 6.785,-7.277 2.039,-3.07 3.856,-6.668 5.449,-10.793 1.594,-4.125 2.942,-8.543 4.043,-13.254 1.102,-4.711 1.934,-9.563 2.496,-14.555 0.563,-4.992 0.844,-9.926 0.844,-14.801 0,-4.875 -0.504,-9.035 -1.512,-12.48 C 69.621,17.895 68.191,15.082 66.339,12.903 64.488,10.723 62.273,9.129 59.695,8.121 57.117,7.113 54.257,6.61 51.117,6.61 45.773,6.61 40.804,7.406 36.21,9 c -4.593,1.594 -8.578,3.903 -11.953,6.926 -3.375,3.023 -6.023,6.691 -7.945,11.004 -1.922,4.312 -2.883,9.211 -2.883,14.695 0,1.828 0.106,3.317 0.317,4.465 0.211,1.148 0.433,2.063 0.668,2.742 0.234,0.68 0.457,1.207 0.668,1.582 0.21,0.375 0.316,0.703 0.316,0.985 -4.828,0 -8.602,-1.008 -11.32,-3.024 C 1.359,46.36 0,42.914 0,38.039 0,34.758 0.644,31.535 1.933,28.371 3.222,25.207 5.039,22.219 7.382,19.406 9.726,16.594 12.539,14.004 15.82,11.637 19.101,9.27 22.722,7.219 26.683,5.485 30.644,3.75 34.898,2.403 39.445,1.442 43.992,0.481 48.703,0 53.578,0 c 4.64,0 8.812,0.516 12.515,1.547 3.703,1.031 6.985,2.473 9.844,4.324 2.859,1.852 5.309,4.055 7.348,6.61 2.039,2.554 3.703,5.367 4.992,8.437 1.289,3.07 2.238,6.352 2.848,9.844 0.609,3.492 0.914,7.066 0.914,10.723 0,5.484 -0.493,10.992 -1.477,16.523 -0.984,5.531 -2.355,10.828 -4.113,15.891 -1.758,5.062 -3.867,9.785 -6.328,14.168 -2.461,4.382 -5.168,8.191 -8.121,11.425 -2.954,3.235 -6.106,5.778 -9.458,7.629 -3.351,1.852 -6.808,2.778 -10.371,2.778 -2.812,0 -5.671,-0.61 -8.578,-1.829 -2.906,-1.218 -5.906,-3.164 -9,-5.835 L 33.398,108 Z"
     style="fill-rule:nonzero" /><path
     d="m 175.57,53.297 c -2.813,2.953 -6.445,5.461 -10.899,7.523 -4.453,2.063 -9.328,3.54 -14.625,4.43 -0.562,6.656 -1.839,12.656 -3.832,18 -1.992,5.344 -4.511,9.891 -7.558,13.641 -3.047,3.75 -6.539,6.633 -10.477,8.648 -3.937,2.016 -8.109,3.024 -12.515,3.024 -3.329,0 -6.411,-0.41 -9.247,-1.231 -2.835,-0.82 -5.273,-2.133 -7.312,-3.937 -2.039,-1.805 -3.633,-4.149 -4.781,-7.032 -1.149,-2.882 -1.723,-6.386 -1.723,-10.511 0,-2.813 0.293,-6.012 0.879,-9.598 0.586,-3.586 1.523,-7.277 2.812,-11.074 1.29,-3.797 2.954,-7.512 4.993,-11.145 2.039,-3.632 4.523,-6.879 7.453,-9.738 2.929,-2.859 6.316,-5.168 10.16,-6.926 3.844,-1.758 8.227,-2.636 13.148,-2.636 12.329,0 18.493,7.664 18.493,22.992 v 0.14 c 0.234,0.094 0.457,0.141 0.668,0.141 h 0.878 c 1.688,0 3.504,-0.246 5.45,-0.738 1.945,-0.492 3.902,-1.137 5.871,-1.934 1.969,-0.797 3.89,-1.723 5.765,-2.777 1.875,-1.055 3.586,-2.121 5.133,-3.199 z m -37.477,12.375 c -1.5,-0.375 -2.519,-1.113 -3.058,-2.215 -0.539,-1.101 -0.809,-2.379 -0.809,-3.832 0,-2.015 0.41,-3.668 1.231,-4.957 0.82,-1.289 1.91,-2.238 3.269,-2.848 -0.094,-1.546 -0.258,-2.847 -0.492,-3.902 -0.234,-1.055 -0.563,-1.922 -0.984,-2.601 -0.422,-0.68 -0.95,-1.161 -1.583,-1.442 -0.632,-0.281 -1.441,-0.422 -2.425,-0.422 -1.735,0 -3.399,0.668 -4.992,2.004 -1.594,1.336 -3.106,3.106 -4.536,5.309 -1.429,2.203 -2.742,4.722 -3.937,7.558 -1.195,2.836 -2.215,5.754 -3.059,8.754 -0.843,3 -1.5,5.965 -1.968,8.895 -0.469,2.93 -0.704,5.59 -0.704,7.98 0,2.391 0.129,4.336 0.387,5.836 0.258,1.5 0.68,2.684 1.266,3.551 0.586,0.867 1.347,1.465 2.285,1.793 0.937,0.328 2.086,0.492 3.445,0.492 1.735,0 3.481,-0.773 5.238,-2.32 1.758,-1.547 3.387,-3.656 4.887,-6.328 1.5,-2.672 2.824,-5.836 3.973,-9.492 1.148,-3.657 2.004,-7.594 2.566,-11.813 z"
     style="fill-rule:nonzero"
     id="path834" /><path
     d="m 173.25,10.055 21.304,-2.883 -6.89,32.414 c 1.453,-0.891 2.753,-1.605 3.902,-2.144 1.148,-0.539 2.191,-0.95 3.129,-1.231 0.937,-0.281 1.793,-0.457 2.566,-0.527 0.774,-0.071 1.512,-0.106 2.215,-0.106 2.531,0 4.84,0.422 6.926,1.266 2.086,0.844 3.879,2.238 5.379,4.184 1.5,1.945 2.66,4.488 3.48,7.628 0.821,3.141 1.231,6.985 1.231,11.532 0,2.812 -0.27,5.965 -0.809,9.457 -0.539,3.492 -1.418,7.043 -2.637,10.652 -1.218,3.609 -2.836,7.125 -4.851,10.547 -2.016,3.422 -4.477,6.469 -7.383,9.141 -2.906,2.671 -6.328,4.816 -10.266,6.433 -3.937,1.617 -8.461,2.426 -13.57,2.426 -6.656,0 -11.672,-1.617 -15.047,-4.852 -3.375,-3.234 -5.062,-7.757 -5.062,-13.57 0,-1.359 0.07,-2.73 0.211,-4.113 0.14,-1.383 0.398,-2.754 0.773,-4.114 z m 4.64,74.883 c -0.281,1.218 -0.422,2.32 -0.422,3.304 0,4.453 2.532,6.68 7.594,6.68 1.547,0 3.047,-0.527 4.5,-1.582 1.453,-1.055 2.801,-2.461 4.043,-4.219 1.242,-1.758 2.379,-3.82 3.41,-6.187 1.031,-2.367 1.91,-4.852 2.637,-7.453 0.726,-2.602 1.289,-5.262 1.687,-7.981 0.399,-2.719 0.598,-5.344 0.598,-7.875 0,-1.734 -0.152,-3.433 -0.457,-5.097 -0.305,-1.665 -0.773,-3.153 -1.406,-4.465 -0.633,-1.313 -1.43,-2.356 -2.391,-3.129 -0.961,-0.774 -2.098,-1.16 -3.41,-1.16 -0.516,0 -1.172,0.035 -1.969,0.105 -0.797,0.07 -1.617,0.211 -2.461,0.422 -0.843,0.211 -1.629,0.48 -2.355,0.809 -0.727,0.328 -1.301,0.75 -1.723,1.265 z"
     style="fill-rule:nonzero"
     id="path836" /><path
     d="m 216.281,108 15.258,-72 h 20.742 l -1.828,8.93 c 1.265,-1.125 2.554,-2.227 3.867,-3.305 1.312,-1.078 2.683,-2.027 4.113,-2.847 1.43,-0.821 2.918,-1.489 4.465,-2.004 1.547,-0.516 3.187,-0.774 4.922,-0.774 1.64,0 3.082,0.305 4.324,0.914 1.242,0.61 2.285,1.406 3.129,2.391 0.844,0.984 1.477,2.133 1.898,3.445 0.422,1.313 0.633,2.672 0.633,4.078 0,1.266 -0.211,2.52 -0.633,3.762 -0.421,1.242 -1.066,2.355 -1.933,3.34 -0.867,0.984 -1.957,1.793 -3.27,2.426 -1.312,0.632 -2.836,0.949 -4.57,0.949 -1.359,0 -2.402,-0.235 -3.129,-0.703 -0.727,-0.469 -1.277,-1.055 -1.652,-1.758 -0.375,-0.703 -0.645,-1.465 -0.809,-2.285 -0.164,-0.821 -0.34,-1.582 -0.527,-2.285 -0.188,-0.704 -0.434,-1.289 -0.739,-1.758 -0.304,-0.469 -0.808,-0.703 -1.511,-0.703 -2.203,0 -4.055,0.504 -5.555,1.511 -1.5,1.008 -3.141,2.332 -4.922,3.973 L 237.023,108 Z"
     style="fill-rule:nonzero"
     id="path838" /><path
     d="m 324.281,119.531 c -1.031,5.157 -2.52,9.329 -4.465,12.516 -1.945,3.188 -4.113,5.672 -6.504,7.453 -2.391,1.781 -4.887,2.977 -7.488,3.586 -2.602,0.609 -5.098,0.914 -7.489,0.914 -2.203,0 -4.277,-0.293 -6.222,-0.879 -1.946,-0.586 -3.645,-1.453 -5.098,-2.601 -1.453,-1.149 -2.613,-2.602 -3.48,-4.36 -0.868,-1.757 -1.301,-3.808 -1.301,-6.152 0,-3 0.715,-5.648 2.144,-7.945 1.43,-2.297 3.27,-4.301 5.52,-6.012 2.25,-1.711 4.769,-3.176 7.559,-4.395 2.789,-1.218 5.543,-2.25 8.261,-3.093 l 1.758,-7.735 c -1.547,1.688 -3.094,3.059 -4.641,4.114 -1.546,1.054 -3.046,1.863 -4.5,2.425 -1.453,0.563 -2.859,0.95 -4.218,1.161 -1.36,0.21 -2.672,0.316 -3.938,0.316 -2.156,0 -4.172,-0.328 -6.047,-0.984 -1.875,-0.657 -3.504,-1.688 -4.886,-3.094 -1.383,-1.406 -2.473,-3.188 -3.27,-5.344 -0.797,-2.156 -1.195,-4.758 -1.195,-7.805 0,-1.312 0.094,-2.754 0.281,-4.324 0.188,-1.57 0.469,-3.269 0.844,-5.098 L 285.679,36 h 20.742 l -10.336,48.938 c -0.281,1.218 -0.421,2.437 -0.421,3.656 0,0.844 0.07,1.641 0.211,2.391 0.14,0.75 0.375,1.418 0.703,2.003 0.328,0.586 0.761,1.055 1.3,1.407 0.539,0.351 1.231,0.527 2.075,0.527 1.312,0 2.543,-0.293 3.691,-0.879 1.148,-0.586 2.191,-1.406 3.129,-2.461 0.937,-1.054 1.769,-2.308 2.496,-3.762 0.727,-1.453 1.371,-3.023 1.934,-4.71 L 321.257,36 H 342 l -14.274,66.797 c 2.203,-0.75 4.195,-1.652 5.977,-2.707 1.781,-1.055 3.41,-2.391 4.886,-4.008 1.477,-1.617 2.813,-3.551 4.008,-5.801 1.195,-2.25 2.285,-4.945 3.27,-8.086 h 6.047 c -1.454,4.782 -3.176,8.766 -5.168,11.954 -1.993,3.187 -4.114,5.8 -6.364,7.839 -2.25,2.04 -4.57,3.598 -6.961,4.676 -2.39,1.078 -4.711,1.899 -6.961,2.461 z m -20.039,-3.726 c -1.875,0.703 -3.657,1.465 -5.344,2.285 -1.688,0.82 -3.176,1.723 -4.465,2.707 -1.289,0.984 -2.32,2.074 -3.094,3.27 -0.773,1.195 -1.16,2.519 -1.16,3.972 0,0.516 0.094,1.055 0.281,1.617 0.188,0.563 0.481,1.079 0.879,1.547 0.399,0.469 0.903,0.844 1.512,1.125 0.609,0.282 1.336,0.422 2.18,0.422 1.5,0 3.035,-1.043 4.605,-3.129 1.571,-2.086 2.824,-5.308 3.762,-9.668 z M 310.148,27.211 323.296,0 h 15.118 l -17.438,27.211 z"
     style="fill-rule:nonzero"
     id="path840" /><path
     d="m 440.859,82.195 c -3.75,4.36 -7.512,7.958 -11.285,10.793 -3.774,2.836 -7.348,5.239 -10.723,7.207 -1.5,1.594 -3.176,2.942 -5.027,4.043 -1.852,1.102 -3.774,1.993 -5.766,2.672 -1.992,0.68 -4.008,1.172 -6.047,1.477 -2.039,0.305 -3.972,0.457 -5.801,0.457 -3.609,0 -6.738,-0.551 -9.386,-1.652 -2.649,-1.102 -4.84,-2.532 -6.574,-4.289 -1.735,-1.758 -3.012,-3.727 -3.833,-5.907 -0.82,-2.179 -1.23,-4.371 -1.23,-6.574 0,-1.687 0.223,-3.246 0.668,-4.676 0.445,-1.429 1.02,-2.707 1.723,-3.832 0.703,-1.125 1.511,-2.097 2.425,-2.918 0.914,-0.82 1.864,-1.465 2.848,-1.933 4.031,-7.219 7.43,-14.356 10.195,-21.41 2.766,-7.055 5.274,-14.145 7.524,-21.27 l 21.305,-2.813 c 0.281,6.235 0.55,11.637 0.808,16.208 0.258,4.57 0.504,8.531 0.738,11.882 0.235,3.352 0.446,6.2 0.633,8.543 0.188,2.344 0.363,4.418 0.528,6.223 0.164,1.805 0.281,3.445 0.351,4.922 0.07,1.476 0.106,3.012 0.106,4.605 0,1.078 -0.036,2.063 -0.106,2.953 -0.07,0.891 -0.223,1.735 -0.457,2.532 2.109,-1.219 4.02,-2.426 5.731,-3.621 1.71,-1.196 3.246,-2.403 4.605,-3.622 z m -58.008,5.204 c 0,3.375 0.668,5.894 2.004,7.558 1.336,1.664 3.598,2.496 6.785,2.496 1.594,0 3.141,-0.222 4.641,-0.668 1.5,-0.445 2.836,-1.195 4.008,-2.25 1.171,-1.054 2.109,-2.425 2.812,-4.113 0.703,-1.687 1.055,-3.797 1.055,-6.328 0,-1.219 -0.035,-2.402 -0.106,-3.551 -0.07,-1.148 -0.152,-2.367 -0.246,-3.656 -0.094,-1.289 -0.222,-2.731 -0.387,-4.324 -0.164,-1.594 -0.351,-3.446 -0.562,-5.555 -0.211,-2.109 -0.434,-4.547 -0.668,-7.313 -0.234,-2.765 -0.492,-6 -0.773,-9.703 -1.454,4.688 -3.164,9.235 -5.133,13.641 -1.969,4.406 -4.149,8.93 -6.539,13.57 0.937,0.516 1.722,1.172 2.355,1.969 0.633,0.797 0.949,1.805 0.949,3.023 0,0.891 -0.14,1.758 -0.421,2.602 -0.282,0.844 -0.704,1.606 -1.266,2.285 -0.563,0.68 -1.231,1.219 -2.004,1.617 -0.773,0.399 -1.652,0.598 -2.637,0.598 -0.797,0 -1.547,-0.117 -2.25,-0.352 -0.703,-0.234 -1.242,-0.75 -1.617,-1.546 z m 28.547,-60.188 h -3.023 L 399.726,0 h 4.57 L 412.945,11.531 435.585,0 h 6.329 z"
     style="fill-rule:nonzero"
     id="path842" /><path
     d="m 493.171,82.195 c -2.015,3.375 -4.324,6.657 -6.925,9.844 -2.602,3.188 -5.532,6.024 -8.789,8.508 -3.258,2.484 -6.868,4.488 -10.829,6.012 -3.961,1.523 -8.308,2.285 -13.043,2.285 -3.421,0 -6.515,-0.434 -9.281,-1.301 -2.765,-0.867 -5.133,-2.215 -7.101,-4.043 -1.969,-1.828 -3.481,-4.183 -4.536,-7.066 -1.054,-2.883 -1.582,-6.364 -1.582,-10.442 0,-2.765 0.282,-5.953 0.844,-9.562 0.563,-3.61 1.453,-7.313 2.672,-11.11 1.219,-3.796 2.836,-7.523 4.852,-11.179 2.015,-3.656 4.453,-6.926 7.312,-9.809 2.86,-2.883 6.211,-5.203 10.055,-6.961 3.844,-1.758 8.226,-2.636 13.148,-2.636 3.235,0 5.871,0.386 7.91,1.16 2.039,0.773 3.657,1.793 4.852,3.058 1.195,1.266 2.016,2.731 2.461,4.395 0.445,1.664 0.668,3.387 0.668,5.168 0,4.172 -0.914,8.051 -2.742,11.637 -1.828,3.585 -4.278,6.714 -7.348,9.386 -3.07,2.672 -6.598,4.828 -10.582,6.469 -3.984,1.641 -8.133,2.602 -12.445,2.883 -0.094,1.078 -0.176,2.097 -0.246,3.058 -0.071,0.961 -0.106,1.864 -0.106,2.707 0,2.438 0.223,4.442 0.668,6.012 0.445,1.57 1.102,2.801 1.969,3.692 0.867,0.89 1.945,1.511 3.234,1.863 1.289,0.351 2.801,0.527 4.535,0.527 2.86,0 5.45,-0.375 7.77,-1.125 2.32,-0.75 4.488,-1.781 6.504,-3.094 2.015,-1.312 3.926,-2.859 5.73,-4.64 1.805,-1.781 3.621,-3.68 5.45,-5.696 z M 453.867,72 c 2.718,-0.187 5.343,-0.961 7.875,-2.32 2.531,-1.36 4.758,-3.129 6.679,-5.309 1.922,-2.179 3.457,-4.664 4.606,-7.453 1.148,-2.789 1.723,-5.683 1.723,-8.683 0,-1.782 -0.258,-3.211 -0.774,-4.29 -0.516,-1.078 -1.453,-1.617 -2.812,-1.617 -1.829,0 -3.622,0.879 -5.379,2.637 -1.758,1.758 -3.41,4.043 -4.957,6.855 -1.547,2.813 -2.918,5.989 -4.114,9.528 -1.195,3.539 -2.144,7.09 -2.847,10.652 z M 465.117,27.211 478.265,0 h 15.117 l -17.437,27.211 z"
     style="fill-rule:nonzero"
     id="path844" /><path
     d="m 500.484,24.61 c 1.031,-5.157 2.543,-9.329 4.535,-12.516 1.992,-3.188 4.207,-5.672 6.645,-7.453 2.437,-1.781 4.968,-2.977 7.593,-3.586 2.625,-0.61 5.11,-0.914 7.453,-0.914 2.157,0 4.254,0.375 6.293,1.125 2.039,0.75 3.844,1.804 5.414,3.164 1.571,1.359 2.836,2.988 3.797,4.887 0.961,1.898 1.442,4.019 1.442,6.363 0,2.25 -0.141,4.219 -0.422,5.906 h -6.75 c 0.094,-0.797 0.164,-1.476 0.211,-2.039 0.047,-0.562 0.07,-1.172 0.07,-1.828 0,-1.641 -0.551,-2.871 -1.652,-3.691 -1.102,-0.821 -2.379,-1.231 -3.832,-1.231 -0.75,0 -1.606,0.164 -2.567,0.492 -0.961,0.328 -1.922,0.926 -2.882,1.793 -0.961,0.867 -1.852,2.074 -2.672,3.621 -0.821,1.547 -1.465,3.516 -1.934,5.907 L 518.765,36 h 10.547 l -1.055,5.766 H 517.64 l -16.594,77.765 c -1.031,5.157 -2.519,9.329 -4.464,12.516 -1.946,3.188 -4.102,5.672 -6.469,7.453 -2.367,1.781 -4.84,2.977 -7.418,3.586 -2.578,0.609 -5.039,0.914 -7.383,0.914 -2.156,0 -4.254,-0.375 -6.293,-1.125 -2.039,-0.75 -3.855,-1.805 -5.449,-3.164 -1.594,-1.359 -2.871,-2.988 -3.832,-4.887 -0.961,-1.898 -1.442,-4.019 -1.442,-6.363 0,-3.328 0.645,-6.129 1.934,-8.402 1.289,-2.274 3.059,-4.219 5.309,-5.836 2.25,-1.617 4.875,-2.988 7.875,-4.113 3,-1.125 6.211,-2.204 9.632,-3.235 z m -18.422,86.976 c -2.25,0.75 -4.348,1.582 -6.293,2.496 -1.945,0.914 -3.621,1.969 -5.027,3.164 -1.407,1.196 -2.508,2.543 -3.305,4.043 -0.797,1.5 -1.195,3.211 -1.195,5.133 0,0.563 0.14,1.125 0.422,1.688 0.281,0.562 0.679,1.066 1.195,1.511 0.516,0.446 1.125,0.821 1.828,1.125 0.703,0.305 1.477,0.457 2.32,0.457 0.75,0 1.512,-0.175 2.285,-0.527 0.774,-0.352 1.524,-0.961 2.25,-1.828 0.727,-0.867 1.395,-2.028 2.004,-3.481 0.61,-1.453 1.149,-3.257 1.618,-5.414 z"
     style="fill-rule:nonzero"
     id="path846" /><path
     d="m 554.062,97.172 c 0,1.594 -0.305,3.082 -0.914,4.465 -0.609,1.383 -1.441,2.59 -2.496,3.621 -1.055,1.031 -2.274,1.84 -3.656,2.426 -1.383,0.586 -2.871,0.879 -4.465,0.879 -1.594,0 -3.082,-0.293 -4.465,-0.879 -1.383,-0.586 -2.59,-1.395 -3.621,-2.426 -1.031,-1.031 -1.84,-2.238 -2.426,-3.621 -0.586,-1.383 -0.879,-2.871 -0.879,-4.465 0,-1.594 0.293,-3.082 0.879,-4.465 0.586,-1.383 1.395,-2.59 2.426,-3.621 1.031,-1.031 2.238,-1.851 3.621,-2.461 1.383,-0.609 2.871,-0.914 4.465,-0.914 1.594,0 3.082,0.305 4.465,0.914 1.382,0.61 2.601,1.43 3.656,2.461 1.055,1.031 1.887,2.238 2.496,3.621 0.609,1.383 0.914,2.871 0.914,4.465 z"
     style="fill-rule:nonzero"
     id="path848" /><path
     d="M 613.687,108 650.46,43.805 h -5.203 c -1.125,0 -2.168,0.023 -3.129,0.07 -0.961,0.047 -1.804,0.141 -2.531,0.281 -0.726,0.141 -1.289,0.364 -1.687,0.668 -0.399,0.305 -0.598,0.715 -0.598,1.231 0,0.234 0.082,0.375 0.246,0.422 0.164,0.047 0.352,0.14 0.563,0.281 0.211,0.141 0.398,0.375 0.562,0.703 0.164,0.328 0.246,0.914 0.246,1.758 0,1.359 -0.222,2.519 -0.668,3.48 -0.445,0.961 -1.043,1.746 -1.793,2.356 -0.75,0.609 -1.582,1.066 -2.496,1.371 -0.914,0.305 -1.863,0.457 -2.847,0.457 -0.844,0 -1.653,-0.141 -2.426,-0.422 -0.774,-0.281 -1.477,-0.68 -2.11,-1.195 -0.632,-0.516 -1.136,-1.172 -1.511,-1.969 -0.375,-0.797 -0.563,-1.711 -0.563,-2.742 0,-1.453 0.387,-3.035 1.16,-4.746 0.774,-1.711 1.875,-3.293 3.305,-4.746 1.43,-1.453 3.176,-2.66 5.238,-3.621 C 636.281,36.481 638.625,36 641.25,36 h 34.101 l -35.297,60.891 c 1.313,0 2.543,0.094 3.692,0.281 1.148,0.188 2.25,0.387 3.304,0.598 1.055,0.211 2.075,0.41 3.059,0.597 0.984,0.188 2.016,0.282 3.094,0.282 1.125,0 2.097,-0.258 2.918,-0.774 0.82,-0.515 1.371,-1.5 1.652,-2.953 -0.938,-0.094 -1.629,-0.422 -2.074,-0.984 -0.446,-0.563 -0.668,-1.243 -0.668,-2.039 0,-0.704 0.176,-1.418 0.527,-2.145 0.352,-0.726 0.856,-1.383 1.512,-1.969 0.656,-0.586 1.488,-1.078 2.496,-1.476 1.008,-0.399 2.191,-0.598 3.551,-0.598 2.203,0 3.808,0.668 4.816,2.004 1.008,1.336 1.512,2.965 1.512,4.887 0,1.64 -0.399,3.375 -1.195,5.203 -0.797,1.828 -1.946,3.492 -3.446,4.992 -1.5,1.5 -3.34,2.742 -5.519,3.727 -2.18,0.984 -4.653,1.476 -7.418,1.476 z m -4.711,-20.461 c -0.75,4.172 -1.922,7.617 -3.516,10.336 -1.593,2.719 -3.492,4.899 -5.695,6.539 -2.203,1.641 -4.652,2.789 -7.348,3.446 -2.695,0.656 -5.496,0.984 -8.402,0.984 -3.328,0 -6.363,-0.434 -9.105,-1.301 -2.743,-0.867 -5.086,-2.215 -7.032,-4.043 -1.945,-1.828 -3.457,-4.183 -4.535,-7.066 -1.078,-2.883 -1.617,-6.364 -1.617,-10.442 0,-2.765 0.281,-5.964 0.844,-9.597 0.562,-3.633 1.465,-7.348 2.707,-11.145 1.242,-3.797 2.859,-7.523 4.851,-11.18 1.993,-3.656 4.418,-6.914 7.278,-9.773 2.859,-2.859 6.199,-5.168 10.019,-6.926 3.821,-1.758 8.168,-2.636 13.043,-2.636 3.141,0 5.742,0.375 7.805,1.125 2.062,0.75 3.703,1.757 4.922,3.023 1.219,1.266 2.062,2.695 2.531,4.289 0.469,1.594 0.703,3.234 0.703,4.922 0,1.828 -0.211,3.398 -0.633,4.711 -0.421,1.312 -0.984,2.379 -1.687,3.199 -0.703,0.82 -1.512,1.43 -2.426,1.828 -0.914,0.399 -1.863,0.598 -2.848,0.598 -1.781,0 -3.468,-0.563 -5.062,-1.688 0.562,-1.5 0.996,-2.953 1.301,-4.359 0.304,-1.406 0.457,-2.789 0.457,-4.148 0,-1.735 -0.317,-3.153 -0.949,-4.254 -0.633,-1.102 -1.629,-1.653 -2.989,-1.653 -1.547,0 -3.07,0.692 -4.57,2.075 -1.5,1.382 -2.941,3.199 -4.324,5.449 -1.383,2.25 -2.66,4.828 -3.832,7.734 -1.172,2.906 -2.192,5.883 -3.059,8.93 -0.867,3.047 -1.547,6.047 -2.039,9 -0.492,2.953 -0.738,5.625 -0.738,8.015 0,2.25 0.211,4.149 0.633,5.696 0.421,1.547 1.019,2.777 1.793,3.691 0.773,0.914 1.687,1.57 2.742,1.969 1.054,0.398 2.215,0.598 3.48,0.598 1.406,0 2.883,-0.235 4.43,-0.704 1.547,-0.468 3.094,-1.089 4.641,-1.863 1.546,-0.773 3.023,-1.629 4.429,-2.566 1.406,-0.938 2.672,-1.875 3.797,-2.813 z"
     style="fill-rule:nonzero"
     id="path850" /></svg>
