<?xml version="1.0" encoding="UTF-8" standalone="no"?>
<svg
   width="1116.5715"
   height="427.58035"
   viewBox="0 0 1116.5715 427.58035"
   version="1.1"
   xml:space="preserve"
   style="clip-rule:evenodd;fill-rule:evenodd;stroke-linejoin:round;stroke-miterlimit:2"
   id="svg123"
   sodipodi:docname="edhouse.svg"
   inkscape:version="1.2.1 (9c6d41e, 2022-07-14)"
   xmlns:inkscape="http://www.inkscape.org/namespaces/inkscape"
   xmlns:sodipodi="http://sodipodi.sourceforge.net/DTD/sodipodi-0.dtd"
   xmlns="http://www.w3.org/2000/svg"
   xmlns:svg="http://www.w3.org/2000/svg"
   xmlns:serif="http://www.serif.com/"><sodipodi:namedview
   id="namedview125"
   pagecolor="#ffffff"
   bordercolor="#666666"
   borderopacity="1.0"
   inkscape:showpageshadow="2"
   inkscape:pageopacity="0.0"
   inkscape:pagecheckerboard="0"
   inkscape:deskcolor="#d1d1d1"
   showgrid="false"
   inkscape:zoom="0.29064039"
   inkscape:cx="562.55085"
   inkscape:cy="216.76271"
   inkscape:window-width="1377"
   inkscape:window-height="847"
   inkscape:window-x="63"
   inkscape:window-y="25"
   inkscape:window-maximized="1"
   inkscape:current-layer="svg123" />
    <g
   id="Layer-1"
   serif:id="Layer 1"
   transform="matrix(4.16667,0,0,4.16667,-203.44202,-192.24098)">
        <g
   transform="translate(154.561,108.329)"
   id="g11">
            <path
   d="m 0,-1.365 c 0,0.804 -0.18,1.407 -0.542,1.795 -0.361,0.39 -0.857,0.58 -1.49,0.58 H -16.39 c 0,1.01 0.118,1.922 0.35,2.732 0.246,0.824 0.623,1.518 1.139,2.096 0.523,0.569 1.19,1.009 2.013,1.307 0.821,0.3 1.805,0.454 2.95,0.454 1.165,0 2.185,-0.091 3.061,-0.254 0.884,-0.171 1.652,-0.351 2.293,-0.56 0.64,-0.195 1.172,-0.387 1.596,-0.55 0.425,-0.171 0.768,-0.251 1.03,-0.251 0.162,0 0.296,0.024 0.396,0.087 0.109,0.064 0.199,0.173 0.272,0.336 0.061,0.154 0.118,0.378 0.144,0.677 0.027,0.288 0.036,0.65 0.036,1.092 0,0.387 -0.009,0.72 -0.026,0.993 -0.02,0.269 -0.047,0.504 -0.083,0.704 -0.027,0.189 -0.081,0.351 -0.152,0.487 -0.074,0.136 -0.163,0.26 -0.281,0.379 -0.117,0.126 -0.424,0.298 -0.938,0.504 -0.514,0.209 -1.164,0.415 -1.958,0.623 -0.796,0.199 -1.698,0.381 -2.718,0.523 -1.027,0.156 -2.12,0.228 -3.285,0.228 -2.094,0 -3.935,-0.264 -5.515,-0.795 -1.57,-0.525 -2.888,-1.326 -3.953,-2.4 -1.056,-1.076 -1.841,-2.438 -2.365,-4.071 -0.513,-1.643 -0.776,-3.566 -0.776,-5.769 0,-2.092 0.271,-3.989 0.822,-5.668 0.541,-1.686 1.337,-3.112 2.373,-4.287 1.047,-1.172 2.312,-2.065 3.801,-2.68 1.49,-0.623 3.167,-0.929 5.035,-0.929 1.976,0 3.665,0.289 5.065,0.875 1.397,0.578 2.553,1.39 3.448,2.419 0.901,1.03 1.559,2.248 1.984,3.666 C -0.208,-5.615 0,-4.082 0,-2.429 Z m -6.454,-1.904 c 0.054,-1.867 -0.317,-3.34 -1.119,-4.405 -0.803,-1.064 -2.039,-1.598 -3.718,-1.598 -0.847,0 -1.58,0.155 -2.203,0.47 -0.631,0.316 -1.147,0.75 -1.56,1.282 -0.416,0.541 -0.732,1.174 -0.958,1.905 -0.217,0.731 -0.342,1.516 -0.378,2.346 z"
   style="fill:#939598;fill-rule:nonzero"
   id="path9" />
        </g>
        <g
   transform="translate(181.926,85.1251)"
   id="g15">
            <path
   d="m 0,34.312 c 0,0.2 -0.046,0.363 -0.137,0.498 -0.089,0.125 -0.234,0.234 -0.451,0.324 -0.206,0.09 -0.497,0.154 -0.858,0.19 -0.36,0.035 -0.802,0.052 -1.334,0.052 -0.559,0 -1.022,-0.017 -1.372,-0.052 -0.352,-0.036 -0.641,-0.1 -0.867,-0.19 -0.215,-0.09 -0.379,-0.199 -0.468,-0.324 -0.1,-0.135 -0.146,-0.298 -0.146,-0.498 v -2.616 c -1.218,1.308 -2.489,2.319 -3.826,3.042 -1.327,0.722 -2.808,1.083 -4.424,1.083 -1.804,0 -3.32,-0.343 -4.566,-1.039 -1.237,-0.694 -2.256,-1.635 -3.042,-2.816 -0.786,-1.182 -1.353,-2.563 -1.705,-4.142 -0.353,-1.581 -0.524,-3.241 -0.524,-4.982 0,-2.102 0.225,-3.991 0.668,-5.661 0.451,-1.677 1.11,-3.104 1.976,-4.285 0.858,-1.183 1.941,-2.085 3.223,-2.719 1.291,-0.64 2.77,-0.955 4.439,-0.955 1.33,0 2.53,0.27 3.601,0.801 1.075,0.543 2.139,1.329 3.196,2.376 V -0.372 c 0,-0.182 0.053,-0.336 0.144,-0.479 0.1,-0.145 0.28,-0.261 0.532,-0.361 0.254,-0.09 0.597,-0.173 1.023,-0.226 0.423,-0.044 0.955,-0.071 1.606,-0.071 0.658,0 1.19,0.027 1.614,0.071 0.424,0.053 0.76,0.136 1.001,0.226 0.256,0.1 0.424,0.216 0.534,0.361 C -0.054,-0.708 0,-0.554 0,-0.372 Z M -6.617,18.555 c -0.948,-1.201 -1.859,-2.114 -2.734,-2.745 -0.877,-0.641 -1.787,-0.959 -2.733,-0.959 -0.868,0 -1.61,0.221 -2.241,0.653 -0.622,0.433 -1.128,1.01 -1.508,1.733 -0.377,0.721 -0.657,1.525 -0.847,2.419 -0.179,0.893 -0.272,1.805 -0.272,2.732 0,0.984 0.082,1.95 0.236,2.882 0.163,0.938 0.415,1.767 0.786,2.5 0.36,0.73 0.84,1.316 1.433,1.761 0.606,0.44 1.364,0.657 2.275,0.657 0.461,0 0.904,-0.063 1.338,-0.199 0.432,-0.127 0.874,-0.343 1.324,-0.641 0.444,-0.307 0.911,-0.694 1.382,-1.183 0.479,-0.478 1.001,-1.075 1.561,-1.786 z"
   style="fill:#939598;fill-rule:nonzero"
   id="path13" />
        </g>
        <g
   transform="translate(210.654,84.5981)"
   id="g19">
            <path
   d="m 0,34.839 c 0,0.182 -0.057,0.335 -0.154,0.47 -0.11,0.125 -0.289,0.244 -0.533,0.326 -0.245,0.09 -0.588,0.153 -1.02,0.199 -0.434,0.045 -0.967,0.069 -1.598,0.069 -0.652,0 -1.191,-0.024 -1.625,-0.069 -0.433,-0.046 -0.777,-0.109 -1.019,-0.199 -0.244,-0.082 -0.426,-0.201 -0.531,-0.326 -0.102,-0.135 -0.155,-0.288 -0.155,-0.47 V 21.382 c 0,-1.145 -0.082,-2.041 -0.252,-2.699 -0.174,-0.648 -0.408,-1.208 -0.734,-1.677 -0.316,-0.462 -0.723,-0.823 -1.227,-1.085 -0.496,-0.252 -1.082,-0.378 -1.759,-0.378 -0.838,0 -1.698,0.306 -2.565,0.921 -0.857,0.623 -1.76,1.517 -2.696,2.698 v 15.677 c 0,0.182 -0.048,0.335 -0.155,0.47 -0.108,0.125 -0.288,0.244 -0.54,0.326 -0.263,0.09 -0.597,0.153 -1.021,0.199 -0.426,0.045 -0.957,0.069 -1.615,0.069 -0.652,0 -1.194,-0.024 -1.608,-0.069 -0.424,-0.046 -0.766,-0.109 -1.017,-0.199 -0.264,-0.082 -0.446,-0.201 -0.543,-0.326 -0.11,-0.135 -0.165,-0.288 -0.165,-0.47 V 0.072 c 0,-0.179 0.055,-0.334 0.165,-0.477 0.097,-0.144 0.279,-0.263 0.543,-0.352 0.251,-0.101 0.593,-0.172 1.017,-0.225 0.414,-0.056 0.956,-0.082 1.608,-0.082 0.658,0 1.189,0.026 1.615,0.082 0.424,0.053 0.758,0.124 1.021,0.225 0.252,0.089 0.432,0.208 0.54,0.352 0.107,0.143 0.155,0.298 0.155,0.477 v 13.034 c 1.143,-1.129 2.319,-1.968 3.509,-2.527 1.183,-0.551 2.429,-0.83 3.711,-0.83 1.607,0 2.959,0.263 4.062,0.795 1.1,0.53 1.994,1.253 2.67,2.165 0.676,0.919 1.166,1.986 1.463,3.212 C -0.148,17.15 0,18.631 0,20.381 Z"
   style="fill:#939598;fill-rule:nonzero"
   id="path17" />
        </g>
        <g
   transform="translate(240.551,107.886)"
   id="g23">
            <path
   d="m 0,-0.479 c 0,2.012 -0.27,3.845 -0.793,5.504 -0.535,1.653 -1.336,3.089 -2.41,4.279 -1.072,1.201 -2.42,2.131 -4.045,2.781 -1.623,0.65 -3.518,0.975 -5.686,0.975 -2.093,0 -3.916,-0.29 -5.468,-0.868 -1.553,-0.584 -2.842,-1.436 -3.864,-2.545 -1.017,-1.11 -1.777,-2.472 -2.275,-4.097 -0.496,-1.617 -0.738,-3.466 -0.738,-5.551 0,-2.013 0.269,-3.846 0.802,-5.514 0.541,-1.661 1.346,-3.088 2.42,-4.278 1.082,-1.192 2.418,-2.111 4.036,-2.762 1.615,-0.658 3.5,-0.984 5.677,-0.984 2.112,0 3.942,0.289 5.496,0.856 1.551,0.579 2.832,1.419 3.844,2.529 1.02,1.11 1.768,2.483 2.266,4.096 C -0.252,-4.433 0,-2.575 0,-0.479 m -6.848,0.271 c 0,-1.164 -0.089,-2.24 -0.281,-3.214 -0.182,-0.983 -0.496,-1.83 -0.937,-2.553 -0.444,-0.723 -1.03,-1.293 -1.764,-1.688 -0.729,-0.406 -1.65,-0.614 -2.758,-0.614 -0.986,0 -1.853,0.178 -2.592,0.54 -0.74,0.362 -1.345,0.895 -1.824,1.59 -0.478,0.695 -0.83,1.533 -1.072,2.508 -0.236,0.984 -0.352,2.094 -0.352,3.351 0,1.162 0.088,2.228 0.287,3.212 0.192,0.973 0.504,1.822 0.938,2.553 0.433,0.721 1.019,1.281 1.762,1.678 0.742,0.398 1.652,0.596 2.744,0.596 1.009,0 1.877,-0.19 2.625,-0.548 0.742,-0.362 1.345,-0.885 1.824,-1.572 0.469,-0.686 0.822,-1.517 1.055,-2.499 0.226,-0.977 0.345,-2.095 0.345,-3.34"
   style="fill:#939598;fill-rule:nonzero"
   id="path21" />
        </g>
        <g
   transform="translate(267.699,96.3081)"
   id="g27">
            <path
   d="m 0,23.129 c 0,0.182 -0.045,0.335 -0.135,0.47 -0.09,0.125 -0.242,0.244 -0.461,0.326 -0.224,0.09 -0.513,0.153 -0.875,0.199 -0.361,0.045 -0.812,0.069 -1.361,0.069 -0.582,0 -1.057,-0.024 -1.42,-0.069 -0.359,-0.046 -0.641,-0.109 -0.855,-0.199 -0.209,-0.082 -0.364,-0.201 -0.454,-0.326 -0.08,-0.135 -0.125,-0.288 -0.125,-0.47 v -2.717 c -1.308,1.409 -2.636,2.465 -3.98,3.168 -1.355,0.704 -2.744,1.058 -4.188,1.058 -1.625,0 -2.988,-0.264 -4.087,-0.795 -1.102,-0.526 -1.998,-1.246 -2.674,-2.166 -0.676,-0.91 -1.164,-1.979 -1.455,-3.187 -0.285,-1.209 -0.432,-2.705 -0.432,-4.504 v -14.44 c 0,-0.171 0.047,-0.334 0.147,-0.46 0.089,-0.135 0.269,-0.246 0.525,-0.335 0.258,-0.089 0.601,-0.152 1.025,-0.198 0.434,-0.045 0.967,-0.062 1.608,-0.062 0.65,0 1.189,0.017 1.605,0.062 0.424,0.046 0.766,0.109 1.022,0.198 0.261,0.089 0.441,0.2 0.541,0.335 0.107,0.126 0.162,0.289 0.162,0.46 v 13.329 c 0,1.229 0.082,2.176 0.236,2.825 0.16,0.652 0.406,1.211 0.731,1.681 0.322,0.469 0.74,0.83 1.234,1.082 0.508,0.263 1.094,0.389 1.76,0.389 0.851,0 1.697,-0.309 2.556,-0.929 0.858,-0.613 1.768,-1.516 2.733,-2.698 V -0.454 c 0,-0.171 0.055,-0.334 0.146,-0.46 0.1,-0.135 0.28,-0.246 0.532,-0.335 0.253,-0.089 0.597,-0.152 1.021,-0.198 0.424,-0.045 0.955,-0.062 1.604,-0.062 0.66,0 1.193,0.017 1.617,0.062 0.424,0.046 0.76,0.109 1.004,0.198 0.252,0.089 0.423,0.2 0.533,0.335 0.105,0.126 0.16,0.289 0.16,0.46 z"
   style="fill:#939598;fill-rule:nonzero"
   id="path25" />
        </g>
        <g
   transform="translate(290.504,102.514)"
   id="g31">
            <path
   d="m 0,10.265 c 0,1.343 -0.252,2.518 -0.756,3.544 -0.498,1.021 -1.211,1.879 -2.123,2.565 -0.92,0.684 -2.002,1.201 -3.258,1.544 -1.246,0.343 -2.607,0.514 -4.072,0.514 -0.881,0 -1.723,-0.064 -2.525,-0.199 -0.803,-0.126 -1.516,-0.298 -2.149,-0.497 -0.64,-0.207 -1.162,-0.413 -1.588,-0.624 -0.424,-0.216 -0.73,-0.412 -0.929,-0.594 -0.188,-0.19 -0.342,-0.479 -0.452,-0.876 -0.099,-0.396 -0.154,-0.984 -0.154,-1.76 0,-0.506 0.02,-0.922 0.055,-1.226 0.035,-0.308 0.09,-0.553 0.152,-0.742 0.074,-0.178 0.164,-0.306 0.274,-0.37 0.099,-0.064 0.232,-0.091 0.394,-0.091 0.19,0 0.479,0.11 0.86,0.334 0.378,0.218 0.847,0.462 1.416,0.721 0.56,0.263 1.218,0.516 1.968,0.743 0.75,0.235 1.596,0.343 2.545,0.343 0.604,0 1.139,-0.063 1.608,-0.18 0.457,-0.128 0.865,-0.3 1.207,-0.534 0.353,-0.224 0.605,-0.515 0.785,-0.875 0.172,-0.352 0.262,-0.756 0.262,-1.211 0,-0.529 -0.163,-0.983 -0.487,-1.362 C -7.293,9.054 -7.725,8.719 -8.266,8.439 -8.799,8.159 -9.404,7.888 -10.09,7.646 -10.77,7.401 -11.461,7.12 -12.174,6.825 c -0.713,-0.299 -1.41,-0.643 -2.094,-1.031 -0.677,-0.388 -1.283,-0.864 -1.824,-1.425 -0.533,-0.568 -0.965,-1.246 -1.289,-2.041 -0.326,-0.794 -0.486,-1.74 -0.486,-2.853 0,-1.126 0.217,-2.163 0.656,-3.102 0.441,-0.948 1.076,-1.753 1.906,-2.429 0.819,-0.667 1.83,-1.181 3.02,-1.551 1.195,-0.371 2.531,-0.56 4.008,-0.56 0.74,0 1.465,0.052 2.16,0.161 0.693,0.102 1.326,0.235 1.887,0.399 0.566,0.152 1.037,0.326 1.423,0.511 0.389,0.182 0.668,0.347 0.84,0.473 0.162,0.133 0.28,0.269 0.354,0.397 0.07,0.135 0.125,0.296 0.162,0.478 0.037,0.189 0.062,0.415 0.09,0.686 0.027,0.28 0.045,0.613 0.045,1.019 0,0.48 -0.018,0.865 -0.045,1.164 -0.028,0.299 -0.075,0.541 -0.137,0.714 -0.053,0.18 -0.145,0.298 -0.244,0.361 -0.106,0.063 -0.233,0.089 -0.369,0.089 -0.162,0 -0.407,-0.089 -0.741,-0.28 -0.341,-0.178 -0.755,-0.378 -1.261,-0.595 -0.498,-0.207 -1.084,-0.406 -1.744,-0.595 -0.659,-0.181 -1.416,-0.272 -2.254,-0.272 -0.606,0 -1.121,0.055 -1.565,0.18 -0.439,0.127 -0.803,0.3 -1.082,0.533 -0.289,0.227 -0.498,0.497 -0.64,0.803 -0.135,0.307 -0.207,0.643 -0.207,0.993 0,0.542 0.16,1.005 0.503,1.372 0.332,0.371 0.768,0.696 1.321,0.984 0.549,0.279 1.162,0.542 1.865,0.796 0.697,0.244 1.4,0.513 2.113,0.803 0.713,0.288 1.418,0.631 2.114,1.02 0.695,0.388 1.316,0.857 1.869,1.426 0.539,0.559 0.982,1.235 1.316,2.022 C -0.172,8.259 0,9.189 0,10.265"
   style="fill:#939598;fill-rule:nonzero"
   id="path29" />
        </g>
        <g
   transform="translate(316.803,108.329)"
   id="g35">
            <path
   d="m 0,-1.365 c 0,0.804 -0.18,1.407 -0.541,1.795 -0.361,0.39 -0.857,0.58 -1.486,0.58 h -14.364 c 0,1.01 0.12,1.922 0.352,2.732 0.246,0.824 0.625,1.518 1.139,2.096 0.523,0.569 1.191,1.009 2.013,1.307 0.823,0.3 1.805,0.454 2.951,0.454 1.166,0 2.184,-0.091 3.059,-0.254 0.887,-0.171 1.652,-0.351 2.293,-0.56 0.641,-0.195 1.174,-0.387 1.596,-0.55 0.424,-0.171 0.769,-0.251 1.031,-0.251 0.162,0 0.299,0.024 0.398,0.087 0.106,0.064 0.196,0.173 0.27,0.336 0.062,0.154 0.117,0.378 0.143,0.677 0.029,0.288 0.037,0.65 0.037,1.092 0,0.387 -0.008,0.72 -0.026,0.993 -0.017,0.269 -0.047,0.504 -0.082,0.704 -0.025,0.189 -0.082,0.351 -0.152,0.487 -0.074,0.136 -0.164,0.26 -0.281,0.379 -0.118,0.126 -0.424,0.298 -0.938,0.504 -0.516,0.209 -1.166,0.415 -1.961,0.623 -0.795,0.199 -1.695,0.381 -2.715,0.523 -1.031,0.156 -2.123,0.228 -3.285,0.228 -2.097,0 -3.935,-0.264 -5.513,-0.795 -1.573,-0.525 -2.891,-1.326 -3.958,-2.4 -1.054,-1.076 -1.837,-2.438 -2.361,-4.071 -0.515,-1.643 -0.777,-3.566 -0.777,-5.769 0,-2.092 0.271,-3.989 0.822,-5.668 0.541,-1.686 1.334,-3.112 2.373,-4.287 1.047,-1.172 2.311,-2.065 3.799,-2.68 1.49,-0.623 3.168,-0.929 5.035,-0.929 1.979,0 3.666,0.289 5.065,0.875 1.398,0.578 2.554,1.39 3.449,2.419 0.902,1.03 1.56,2.248 1.984,3.666 C -0.207,-5.615 0,-4.082 0,-2.429 Z m -6.453,-1.904 c 0.057,-1.867 -0.315,-3.34 -1.115,-4.405 -0.807,-1.064 -2.041,-1.598 -3.721,-1.598 -0.85,0 -1.578,0.155 -2.203,0.47 -0.631,0.316 -1.147,0.75 -1.563,1.282 -0.416,0.541 -0.73,1.174 -0.955,1.905 -0.217,0.731 -0.344,1.516 -0.381,2.346 z"
   style="fill:#939598;fill-rule:nonzero"
   id="path33" />
        </g>
        <g
   transform="matrix(82.8206,-49.4015,-50.8975,-85.3287,40.1697,97.9237)"
   id="g39">
            <path
   d="M 0.333,0.363 C 0.279,0.318 0.251,0.154 0.252,-0.028 c 0.002,-0.213 0.045,-0.443 0.124,-0.456 0.112,-0.02 0.298,0.088 0.421,0.198 0.104,0.092 0.168,0.19 0.138,0.244 C 0.893,0.036 0.761,0.149 0.632,0.236 0.6,0.258 0.568,0.278 0.537,0.296 0.442,0.351 0.359,0.384 0.333,0.363 Z M 0.42,0.234 C 0.441,0.255 0.53,0.213 0.617,0.154 0.704,0.096 0.793,0.02 0.819,-0.032 0.838,-0.068 0.79,-0.13 0.719,-0.184 0.64,-0.246 0.53,-0.299 0.465,-0.284 0.424,-0.276 0.397,-0.19 0.387,-0.072 0.441,-0.054 0.502,-0.013 0.493,0.008 0.482,0.035 0.427,0.077 0.383,0.101 0.386,0.149 0.39,0.204 0.42,0.234 Z"
   style="fill:url(#_Linear1);fill-rule:nonzero"
   id="path37" />
        </g>
        <g
   transform="translate(145.362,139.153)"
   id="g43">
            <path
   d="M 0,3.776 C 0,4.198 -0.078,4.577 -0.234,4.907 -0.39,5.237 -0.612,5.516 -0.9,5.743 -1.188,5.969 -1.532,6.141 -1.93,6.256 -2.328,6.374 -2.767,6.432 -3.244,6.432 -3.539,6.432 -3.819,6.409 -4.084,6.364 -4.352,6.317 -4.591,6.26 -4.801,6.188 -5.013,6.118 -5.193,6.046 -5.34,5.967 -5.486,5.893 -5.593,5.823 -5.661,5.762 -5.728,5.702 -5.777,5.614 -5.808,5.505 -5.838,5.393 -5.854,5.247 -5.854,5.053 -5.854,4.936 -5.848,4.84 -5.835,4.758 -5.824,4.682 -5.808,4.616 -5.789,4.567 -5.771,4.516 -5.745,4.481 -5.712,4.462 -5.677,4.44 -5.64,4.43 -5.597,4.43 c 0.068,0 0.167,0.041 0.3,0.121 0.131,0.084 0.293,0.176 0.485,0.274 0.194,0.097 0.422,0.187 0.686,0.269 0.263,0.084 0.566,0.127 0.91,0.127 0.257,0 0.489,-0.029 0.698,-0.084 0.208,-0.056 0.389,-0.136 0.542,-0.244 0.153,-0.107 0.271,-0.242 0.354,-0.408 0.082,-0.168 0.124,-0.361 0.124,-0.588 0,-0.234 -0.06,-0.43 -0.179,-0.588 C -1.797,3.149 -1.955,3.008 -2.15,2.885 -2.347,2.764 -2.567,2.655 -2.813,2.559 -3.057,2.464 -3.31,2.364 -3.57,2.258 -3.831,2.159 -4.084,2.04 -4.333,1.905 -4.581,1.776 -4.803,1.614 -4.999,1.425 -5.195,1.234 -5.353,1.008 -5.473,0.743 -5.592,0.481 -5.651,0.166 -5.651,-0.202 c 0,-0.325 0.062,-0.638 0.188,-0.933 0.125,-0.297 0.313,-0.558 0.565,-0.782 0.251,-0.223 0.565,-0.403 0.942,-0.536 0.376,-0.136 0.816,-0.203 1.319,-0.203 0.221,0 0.441,0.017 0.661,0.056 0.222,0.035 0.42,0.081 0.598,0.136 0.177,0.057 0.329,0.115 0.455,0.179 0.125,0.067 0.22,0.123 0.284,0.171 0.065,0.05 0.108,0.092 0.129,0.131 0.021,0.035 0.037,0.076 0.046,0.122 0.009,0.045 0.018,0.102 0.027,0.172 0.01,0.065 0.014,0.148 0.014,0.247 0,0.102 -0.004,0.193 -0.014,0.27 -0.009,0.076 -0.024,0.14 -0.045,0.189 -0.022,0.05 -0.048,0.085 -0.079,0.105 -0.031,0.022 -0.064,0.032 -0.101,0.032 -0.055,0 -0.134,-0.033 -0.238,-0.102 -0.105,-0.066 -0.24,-0.138 -0.405,-0.215 -0.166,-0.075 -0.36,-0.148 -0.584,-0.215 -0.223,-0.067 -0.479,-0.102 -0.767,-0.102 -0.258,0 -0.484,0.028 -0.679,0.089 -0.197,0.057 -0.357,0.138 -0.484,0.248 -0.125,0.106 -0.221,0.234 -0.284,0.38 -0.065,0.148 -0.097,0.305 -0.097,0.477 0,0.24 0.061,0.441 0.184,0.603 0.122,0.163 0.282,0.304 0.477,0.426 0.196,0.122 0.42,0.235 0.672,0.333 0.251,0.098 0.506,0.2 0.767,0.301 0.261,0.106 0.517,0.221 0.772,0.35 0.254,0.129 0.479,0.285 0.676,0.469 C -0.457,2.38 -0.298,2.6 -0.18,2.858 -0.06,3.116 0,3.421 0,3.776"
   style="fill:#939598;fill-rule:nonzero"
   id="path41" />
        </g>
        <g
   transform="translate(153.652,141.026)"
   id="g47">
            <path
   d="m 0,0.03 c 0,-0.449 -0.043,-0.872 -0.126,-1.268 -0.083,-0.399 -0.221,-0.75 -0.413,-1.049 -0.191,-0.299 -0.452,-0.537 -0.779,-0.712 -0.328,-0.175 -0.736,-0.263 -1.224,-0.263 -0.451,0 -0.839,0.082 -1.164,0.24 -0.324,0.159 -0.592,0.384 -0.802,0.676 -0.21,0.291 -0.366,0.635 -0.468,1.034 -0.102,0.397 -0.153,0.833 -0.153,1.303 0,0.455 0.042,0.881 0.126,1.277 0.083,0.399 0.222,0.748 0.416,1.043 0.195,0.297 0.457,0.533 0.784,0.709 0.328,0.174 0.736,0.262 1.224,0.262 0.446,0 0.831,-0.078 1.159,-0.238 0.328,-0.16 0.597,-0.381 0.807,-0.672 0.21,-0.289 0.365,-0.631 0.464,-1.03 C -0.051,0.946 0,0.507 0,0.03 M 1.57,-0.074 C 1.57,0.602 1.481,1.223 1.304,1.79 1.126,2.356 0.862,2.844 0.509,3.253 0.157,3.667 -0.284,3.985 -0.814,4.216 -1.344,4.444 -1.958,4.559 -2.657,4.559 -3.337,4.559 -3.929,4.458 -4.435,4.257 -4.94,4.055 -5.362,3.76 -5.698,3.374 -6.036,2.987 -6.286,2.518 -6.453,1.967 -6.617,1.417 -6.7,0.792 -6.7,0.092 c 0,-0.672 0.087,-1.292 0.262,-1.859 0.174,-0.567 0.438,-1.055 0.79,-1.467 0.353,-0.408 0.792,-0.728 1.319,-0.955 0.527,-0.226 1.142,-0.34 1.847,-0.34 0.68,0 1.273,0.101 1.778,0.305 0.506,0.199 0.927,0.493 1.264,0.882 0.337,0.385 0.59,0.854 0.757,1.404 0.169,0.552 0.253,1.174 0.253,1.864"
   style="fill:#939598;fill-rule:nonzero"
   id="path45" />
        </g>
        <g
   transform="translate(159.376,140.18)"
   id="g51">
            <path
   d="M 0,-2.249 V 5.002 C 0,5.051 -0.012,5.09 -0.037,5.126 -0.062,5.161 -0.102,5.188 -0.161,5.211 -0.219,5.237 -0.297,5.254 -0.395,5.268 -0.493,5.28 -0.615,5.286 -0.762,5.286 -0.909,5.286 -1.033,5.28 -1.13,5.268 -1.229,5.254 -1.307,5.237 -1.364,5.211 -1.423,5.188 -1.464,5.161 -1.489,5.126 -1.513,5.09 -1.526,5.051 -1.526,5.002 v -7.251 h -1.167 c -0.098,0 -0.172,-0.05 -0.221,-0.147 -0.048,-0.099 -0.073,-0.258 -0.073,-0.479 0,-0.115 0.007,-0.213 0.019,-0.293 0.011,-0.082 0.03,-0.146 0.054,-0.198 0.025,-0.052 0.057,-0.09 0.094,-0.111 0.036,-0.021 0.078,-0.031 0.127,-0.031 h 1.167 v -0.854 c 0,-0.577 0.054,-1.072 0.162,-1.485 0.107,-0.413 0.269,-0.753 0.487,-1.014 0.217,-0.266 0.493,-0.459 0.826,-0.586 0.335,-0.125 0.727,-0.189 1.181,-0.189 0.227,0 0.447,0.025 0.662,0.071 0.214,0.045 0.367,0.087 0.46,0.129 0.091,0.038 0.156,0.078 0.192,0.114 0.037,0.036 0.066,0.084 0.088,0.141 0.021,0.06 0.037,0.13 0.046,0.211 0.009,0.083 0.014,0.185 0.014,0.301 0,0.115 -0.005,0.209 -0.014,0.279 -0.009,0.071 -0.023,0.127 -0.042,0.17 -0.018,0.044 -0.04,0.073 -0.064,0.088 C 2.447,-6.117 2.42,-6.109 2.39,-6.109 2.34,-6.109 2.285,-6.124 2.224,-6.152 2.163,-6.18 2.085,-6.209 1.995,-6.242 1.902,-6.277 1.793,-6.308 1.668,-6.333 1.542,-6.361 1.397,-6.375 1.232,-6.375 c -0.227,0 -0.419,0.035 -0.575,0.107 -0.157,0.074 -0.283,0.191 -0.381,0.348 -0.098,0.155 -0.17,0.357 -0.216,0.606 -0.046,0.248 -0.069,0.548 -0.069,0.906 v 0.9 h 3.732 v -1.969 c 0,-0.042 0.011,-0.081 0.036,-0.119 0.023,-0.036 0.064,-0.069 0.119,-0.095 0.055,-0.029 0.131,-0.047 0.229,-0.062 0.098,-0.01 0.225,-0.017 0.378,-0.017 0.146,0 0.269,0.007 0.367,0.017 0.098,0.015 0.174,0.033 0.231,0.062 0.054,0.026 0.094,0.059 0.118,0.095 0.025,0.038 0.037,0.077 0.037,0.119 v 1.969 h 2.114 c 0.048,0 0.093,0.01 0.133,0.031 0.04,0.021 0.072,0.059 0.097,0.111 0.023,0.052 0.044,0.116 0.06,0.198 0.016,0.08 0.023,0.178 0.023,0.293 0,0.221 -0.029,0.38 -0.083,0.479 -0.056,0.097 -0.129,0.147 -0.221,0.147 H 5.238 v 4.611 c 0,0.572 0.083,1.002 0.248,1.293 0.165,0.289 0.469,0.437 0.91,0.437 0.135,0 0.259,-0.013 0.372,-0.043 C 6.881,4.022 6.98,3.995 7.067,3.963 7.152,3.93 7.228,3.903 7.292,3.874 7.356,3.846 7.41,3.833 7.453,3.833 c 0.036,0 0.067,0.009 0.092,0.025 0.024,0.014 0.044,0.043 0.06,0.086 0.014,0.043 0.027,0.101 0.042,0.176 0.011,0.074 0.018,0.164 0.018,0.273 0,0.178 -0.015,0.32 -0.042,0.424 C 7.595,4.92 7.557,4.999 7.509,5.047 7.459,5.096 7.389,5.141 7.296,5.184 7.205,5.227 7.096,5.262 6.97,5.29 6.845,5.317 6.71,5.34 6.566,5.36 6.422,5.376 6.282,5.387 6.148,5.387 5.712,5.387 5.342,5.331 5.036,5.215 4.73,5.104 4.479,4.932 4.283,4.7 4.086,4.473 3.944,4.18 3.855,3.829 3.766,3.475 3.723,3.063 3.723,2.583 v -4.832 z"
   style="fill:#939598;fill-rule:nonzero"
   id="path49" />
        </g>
        <g
   transform="translate(180.613,145.199)"
   id="g55">
            <path
   d="m 0,-8.307 c 0,0.043 -0.005,0.095 -0.018,0.156 -0.012,0.061 -0.035,0.138 -0.062,0.23 l -2.437,7.858 c -0.017,0.068 -0.047,0.121 -0.087,0.166 -0.039,0.041 -0.095,0.076 -0.165,0.101 -0.07,0.022 -0.168,0.039 -0.291,0.049 -0.122,0.01 -0.276,0.014 -0.459,0.014 -0.19,0 -0.349,-0.006 -0.479,-0.018 C -4.124,0.235 -4.229,0.218 -4.304,0.193 -4.381,0.169 -4.438,0.136 -4.474,0.091 -4.512,0.05 -4.539,-0.003 -4.558,-0.063 l -1.736,-6.003 -0.018,-0.081 -0.018,0.081 -1.609,6.003 c -0.018,0.068 -0.046,0.121 -0.088,0.166 -0.039,0.041 -0.098,0.076 -0.179,0.101 -0.081,0.022 -0.182,0.039 -0.308,0.049 -0.126,0.01 -0.28,0.014 -0.462,0.014 -0.192,0 -0.347,-0.006 -0.465,-0.018 C -9.561,0.235 -9.658,0.218 -9.736,0.193 -9.813,0.169 -9.869,0.136 -9.906,0.091 -9.942,0.05 -9.97,-0.003 -9.988,-0.063 l -2.417,-7.858 c -0.03,-0.092 -0.053,-0.169 -0.065,-0.23 -0.012,-0.061 -0.018,-0.113 -0.018,-0.156 0,-0.056 0.011,-0.1 0.035,-0.133 0.025,-0.035 0.067,-0.063 0.127,-0.084 0.057,-0.021 0.136,-0.035 0.235,-0.042 0.097,-0.003 0.216,-0.008 0.356,-0.008 0.172,0 0.31,0.005 0.413,0.015 0.106,0.007 0.186,0.024 0.24,0.046 0.055,0.021 0.095,0.052 0.121,0.09 0.023,0.041 0.045,0.089 0.063,0.144 l 1.996,6.819 0.017,0.08 0.018,-0.08 1.829,-6.819 c 0.012,-0.055 0.033,-0.103 0.059,-0.144 0.028,-0.038 0.068,-0.069 0.125,-0.09 0.055,-0.022 0.129,-0.039 0.223,-0.046 0.097,-0.01 0.221,-0.015 0.375,-0.015 0.147,0 0.266,0.005 0.36,0.015 0.097,0.007 0.172,0.024 0.228,0.046 0.053,0.021 0.095,0.049 0.12,0.087 0.024,0.035 0.041,0.079 0.053,0.128 l 1.976,6.838 0.018,0.08 0.011,-0.08 1.966,-6.819 c 0.012,-0.055 0.033,-0.103 0.059,-0.144 0.028,-0.038 0.071,-0.069 0.128,-0.09 0.059,-0.022 0.14,-0.039 0.24,-0.046 0.101,-0.01 0.231,-0.015 0.39,-0.015 0.147,0 0.266,0.005 0.353,0.008 0.09,0.007 0.162,0.024 0.212,0.047 0.053,0.025 0.089,0.053 0.11,0.082 C -0.011,-8.405 0,-8.363 0,-8.307"
   style="fill:#939598;fill-rule:nonzero"
   id="path53" />
        </g>
        <g
   transform="translate(187.011,140.67)"
   id="g59">
            <path
   d="m 0,0.741 h -1.297 c -0.416,0 -0.778,0.037 -1.084,0.107 -0.306,0.073 -0.56,0.174 -0.763,0.315 -0.201,0.135 -0.35,0.301 -0.446,0.494 -0.095,0.195 -0.142,0.416 -0.142,0.666 0,0.43 0.137,0.772 0.409,1.025 0.272,0.254 0.654,0.381 1.144,0.381 0.399,0 0.768,-0.099 1.108,-0.302 C -0.73,3.223 -0.375,2.915 0,2.499 Z M 1.507,4.52 C 1.507,4.593 1.482,4.649 1.434,4.686 1.384,4.721 1.315,4.751 1.23,4.768 1.145,4.786 1.021,4.796 0.854,4.796 0.695,4.796 0.569,4.786 0.473,4.768 0.378,4.751 0.31,4.721 0.266,4.686 0.222,4.649 0.201,4.593 0.201,4.52 V 3.694 C -0.16,4.079 -0.562,4.38 -1.007,4.593 -1.451,4.807 -1.92,4.915 -2.417,4.915 -2.852,4.915 -3.247,4.86 -3.597,4.745 -3.951,4.632 -4.252,4.47 -4.499,4.253 -4.747,4.04 -4.94,3.776 -5.078,3.462 -5.214,3.149 -5.285,2.798 -5.285,2.397 -5.285,1.932 -5.19,1.528 -5,1.182 c 0.189,-0.339 0.463,-0.625 0.818,-0.853 0.355,-0.226 0.791,-0.396 1.306,-0.51 0.515,-0.114 1.092,-0.17 1.736,-0.17 H 0 v -0.644 c 0,-0.318 -0.033,-0.598 -0.102,-0.844 -0.067,-0.245 -0.176,-0.45 -0.327,-0.612 -0.149,-0.162 -0.343,-0.284 -0.583,-0.367 -0.238,-0.083 -0.531,-0.123 -0.882,-0.123 -0.373,0 -0.709,0.043 -1.006,0.133 -0.298,0.088 -0.557,0.185 -0.781,0.294 -0.224,0.106 -0.41,0.205 -0.561,0.295 -0.15,0.086 -0.261,0.131 -0.335,0.131 -0.049,0 -0.091,-0.01 -0.128,-0.038 -0.037,-0.022 -0.068,-0.058 -0.096,-0.108 -0.029,-0.049 -0.05,-0.111 -0.06,-0.19 -0.014,-0.077 -0.019,-0.16 -0.019,-0.251 0,-0.154 0.01,-0.275 0.033,-0.364 0.021,-0.088 0.074,-0.172 0.154,-0.253 0.084,-0.08 0.226,-0.173 0.429,-0.279 0.201,-0.108 0.434,-0.207 0.698,-0.295 0.263,-0.089 0.552,-0.163 0.863,-0.221 0.314,-0.058 0.628,-0.087 0.947,-0.087 0.595,0 1.1,0.068 1.516,0.204 0.417,0.132 0.755,0.332 1.011,0.591 0.257,0.262 0.445,0.585 0.561,0.97 0.115,0.385 0.175,0.837 0.175,1.352 z"
   style="fill:#939598;fill-rule:nonzero"
   id="path57" />
        </g>
        <g
   transform="translate(196.136,144.511)"
   id="g63">
            <path
   d="m 0,-7.059 c 0,0.135 -0.004,0.249 -0.011,0.34 -0.006,0.092 -0.017,0.165 -0.035,0.218 -0.019,0.052 -0.042,0.091 -0.07,0.118 -0.028,0.028 -0.067,0.042 -0.115,0.042 -0.049,0 -0.108,-0.014 -0.178,-0.042 -0.07,-0.027 -0.151,-0.055 -0.238,-0.083 -0.09,-0.027 -0.19,-0.053 -0.3,-0.077 -0.111,-0.026 -0.23,-0.037 -0.359,-0.037 -0.154,0 -0.302,0.03 -0.451,0.093 -0.146,0.059 -0.303,0.16 -0.463,0.301 -0.163,0.143 -0.332,0.328 -0.511,0.562 -0.176,0.233 -0.373,0.518 -0.588,0.855 v 5.441 c 0,0.049 -0.01,0.088 -0.035,0.123 -0.025,0.035 -0.065,0.063 -0.122,0.086 -0.053,0.025 -0.13,0.043 -0.228,0.057 -0.098,0.011 -0.225,0.017 -0.377,0.017 -0.147,0 -0.271,-0.006 -0.367,-0.017 C -4.548,0.924 -4.625,0.906 -4.683,0.881 -4.74,0.858 -4.78,0.83 -4.804,0.795 -4.824,0.76 -4.835,0.721 -4.835,0.672 v -8.273 c 0,-0.049 0.011,-0.091 0.028,-0.122 0.018,-0.035 0.056,-0.066 0.111,-0.093 0.053,-0.028 0.124,-0.048 0.211,-0.055 0.084,-0.009 0.199,-0.014 0.339,-0.014 0.135,0 0.248,0.005 0.336,0.014 0.088,0.007 0.159,0.027 0.207,0.055 0.049,0.027 0.084,0.058 0.106,0.093 0.02,0.031 0.031,0.073 0.031,0.122 v 1.204 c 0.228,-0.33 0.442,-0.6 0.641,-0.808 0.197,-0.209 0.385,-0.371 0.563,-0.492 0.179,-0.119 0.354,-0.202 0.529,-0.247 0.175,-0.048 0.349,-0.07 0.529,-0.07 0.08,0 0.17,0.004 0.271,0.014 0.1,0.008 0.206,0.027 0.317,0.049 0.11,0.027 0.21,0.052 0.297,0.084 0.091,0.032 0.152,0.061 0.189,0.091 0.037,0.031 0.062,0.06 0.074,0.088 0.012,0.027 0.024,0.063 0.032,0.105 0.009,0.045 0.017,0.107 0.018,0.188 C -0.001,-7.31 0,-7.198 0,-7.059"
   style="fill:#939598;fill-rule:nonzero"
   id="path61" />
        </g>
        <g
   transform="translate(203.148,141.846)"
   id="g67">
            <path
   d="m 0,-1.61 c 0.018,-0.795 -0.16,-1.42 -0.533,-1.873 -0.373,-0.453 -0.926,-0.679 -1.66,-0.679 -0.375,0 -0.705,0.07 -0.991,0.209 -0.283,0.141 -0.519,0.33 -0.711,0.561 -0.191,0.234 -0.337,0.504 -0.443,0.814 -0.105,0.31 -0.164,0.631 -0.176,0.968 z m 1.523,0.451 c 0,0.24 -0.058,0.41 -0.179,0.511 -0.119,0.1 -0.256,0.151 -0.41,0.151 h -5.448 c 0,0.459 0.047,0.873 0.139,1.24 0.094,0.367 0.246,0.684 0.463,0.949 0.215,0.262 0.494,0.465 0.84,0.606 0.343,0.138 0.765,0.209 1.265,0.209 0.393,0 0.745,-0.032 1.051,-0.094 C -0.447,2.348 -0.182,2.276 0.045,2.194 0.27,2.116 0.455,2.044 0.598,1.979 0.742,1.915 0.852,1.884 0.928,1.884 c 0.041,0 0.08,0.009 0.113,0.031 C 1.074,1.936 1.102,1.97 1.119,2.013 1.137,2.056 1.15,2.114 1.162,2.192 1.17,2.268 1.176,2.36 1.176,2.472 1.176,2.554 1.172,2.618 1.166,2.679 1.16,2.735 1.15,2.788 1.145,2.835 1.133,2.882 1.119,2.921 1.098,2.958 1.076,2.995 1.047,3.03 1.016,3.063 0.98,3.098 0.881,3.153 0.715,3.229 0.551,3.306 0.336,3.382 0.072,3.456 -0.191,3.528 -0.496,3.595 -0.842,3.651 -1.187,3.71 -1.559,3.739 -1.949,3.739 -2.631,3.739 -3.225,3.645 -3.736,3.456 -4.248,3.265 -4.678,2.983 -5.027,2.608 -5.379,2.235 -5.641,1.768 -5.818,1.204 -5.996,0.641 -6.086,-0.015 -6.086,-0.763 c 0,-0.71 0.094,-1.35 0.277,-1.917 0.184,-0.565 0.448,-1.048 0.795,-1.442 0.346,-0.395 0.764,-0.699 1.254,-0.91 0.489,-0.212 1.039,-0.317 1.645,-0.317 0.65,0 1.203,0.105 1.66,0.311 0.455,0.21 0.83,0.49 1.125,0.842 0.293,0.353 0.51,0.766 0.648,1.241 0.137,0.475 0.205,0.981 0.205,1.52 z"
   style="fill:#939598;fill-rule:nonzero"
   id="path65" />
        </g>
        <g
   transform="translate(216.795,138.867)"
   id="g71">
            <path
   d="m 0,0.497 c -0.412,-0.507 -0.811,-0.896 -1.191,-1.162 -0.383,-0.267 -0.784,-0.399 -1.202,-0.399 -0.384,0 -0.712,0.09 -0.98,0.274 -0.273,0.184 -0.49,0.426 -0.658,0.726 -0.17,0.302 -0.291,0.641 -0.367,1.02 -0.077,0.381 -0.116,0.767 -0.116,1.159 0,0.416 0.032,0.824 0.096,1.22 0.066,0.401 0.178,0.754 0.334,1.063 0.162,0.31 0.373,0.558 0.637,0.744 0.261,0.186 0.593,0.281 0.992,0.281 0.201,0 0.396,-0.029 0.582,-0.084 C -1.686,5.287 -1.494,5.193 -1.299,5.066 -1.102,4.937 -0.896,4.767 -0.682,4.562 -0.467,4.359 -0.24,4.107 0,3.806 Z M 1.523,6.316 C 1.523,6.365 1.514,6.408 1.49,6.443 1.469,6.48 1.434,6.507 1.381,6.529 1.33,6.552 1.26,6.568 1.176,6.581 1.088,6.593 0.984,6.599 0.861,6.599 0.734,6.599 0.625,6.593 0.539,6.581 0.455,6.568 0.385,6.552 0.328,6.529 0.273,6.507 0.234,6.48 0.209,6.443 0.186,6.408 0.172,6.365 0.172,6.316 V 5.22 c -0.436,0.473 -0.887,0.84 -1.354,1.104 -0.47,0.263 -0.982,0.394 -1.539,0.394 -0.607,0 -1.125,-0.117 -1.554,-0.353 C -4.705,6.13 -5.053,5.812 -5.318,5.408 -5.586,5.007 -5.779,4.537 -5.902,3.996 -6.023,3.451 -6.086,2.88 -6.086,2.279 c 0,-0.711 0.078,-1.352 0.231,-1.926 0.152,-0.57 0.378,-1.06 0.679,-1.463 0.301,-0.406 0.672,-0.718 1.117,-0.934 0.446,-0.218 0.955,-0.326 1.539,-0.326 0.485,0 0.926,0.105 1.329,0.317 0.4,0.211 0.798,0.523 1.191,0.933 v -4.807 c 0,-0.041 0.01,-0.085 0.029,-0.123 0.024,-0.042 0.065,-0.071 0.125,-0.093 0.063,-0.022 0.139,-0.04 0.233,-0.054 0.097,-0.017 0.218,-0.024 0.365,-0.024 0.154,0 0.277,0.007 0.377,0.024 0.098,0.014 0.174,0.032 0.228,0.054 0.057,0.022 0.098,0.051 0.127,0.093 0.026,0.038 0.039,0.082 0.039,0.123 z"
   style="fill:#939598;fill-rule:nonzero"
   id="path69" />
        </g>
        <g
   transform="translate(226.654,141.846)"
   id="g75">
            <path
   d="m 0,-1.61 c 0.018,-0.795 -0.16,-1.42 -0.533,-1.873 -0.371,-0.453 -0.926,-0.679 -1.658,-0.679 -0.377,0 -0.705,0.07 -0.989,0.209 -0.285,0.141 -0.521,0.33 -0.713,0.561 -0.191,0.234 -0.339,0.504 -0.443,0.814 -0.105,0.31 -0.164,0.631 -0.176,0.968 z m 1.523,0.451 c 0,0.24 -0.058,0.41 -0.177,0.511 -0.121,0.1 -0.258,0.151 -0.412,0.151 h -5.446 c 0,0.459 0.045,0.873 0.137,1.24 0.094,0.367 0.248,0.684 0.463,0.949 0.215,0.262 0.496,0.465 0.84,0.606 0.343,0.138 0.767,0.209 1.263,0.209 0.395,0 0.747,-0.032 1.055,-0.094 C -0.447,2.348 -0.182,2.276 0.043,2.194 0.27,2.116 0.453,2.044 0.598,1.979 0.744,1.915 0.854,1.884 0.926,1.884 0.969,1.884 1.008,1.893 1.041,1.915 1.076,1.936 1.1,1.97 1.119,2.013 1.139,2.056 1.154,2.114 1.162,2.192 1.17,2.268 1.176,2.36 1.176,2.472 1.176,2.554 1.174,2.618 1.168,2.679 1.16,2.735 1.154,2.788 1.143,2.835 1.133,2.882 1.119,2.921 1.098,2.958 1.076,2.995 1.049,3.03 1.014,3.063 0.982,3.098 0.883,3.153 0.715,3.229 0.551,3.306 0.336,3.382 0.072,3.456 -0.191,3.528 -0.496,3.595 -0.842,3.651 -1.189,3.71 -1.557,3.739 -1.949,3.739 -2.629,3.739 -3.225,3.645 -3.736,3.456 -4.248,3.265 -4.68,2.983 -5.027,2.608 -5.377,2.235 -5.641,1.768 -5.816,1.204 c -0.18,-0.563 -0.268,-1.219 -0.268,-1.967 0,-0.71 0.092,-1.35 0.275,-1.917 0.184,-0.565 0.448,-1.048 0.795,-1.442 0.346,-0.395 0.766,-0.699 1.256,-0.91 0.488,-0.212 1.037,-0.317 1.643,-0.317 0.65,0 1.203,0.105 1.66,0.311 0.457,0.21 0.832,0.49 1.125,0.842 0.293,0.353 0.512,0.766 0.648,1.241 0.137,0.475 0.205,0.981 0.205,1.52 z"
   style="fill:#939598;fill-rule:nonzero"
   id="path73" />
        </g>
        <g
   transform="translate(237.176,145.199)"
   id="g79">
            <path
   d="m 0,-8.307 c 0,0.024 0,0.05 -0.004,0.078 -0.004,0.026 -0.008,0.058 -0.014,0.087 -0.007,0.031 -0.013,0.064 -0.025,0.102 -0.006,0.036 -0.018,0.077 -0.031,0.119 l -2.822,7.858 C -2.92,0.005 -2.951,0.058 -2.99,0.103 -3.031,0.144 -3.092,0.179 -3.17,0.204 -3.248,0.226 -3.352,0.243 -3.473,0.253 -3.596,0.263 -3.75,0.267 -3.932,0.267 -4.117,0.267 -4.271,0.261 -4.395,0.249 -4.516,0.235 -4.613,0.218 -4.691,0.193 -4.768,0.169 -4.828,0.136 -4.869,0.091 -4.914,0.05 -4.947,-0.003 -4.971,-0.063 l -2.81,-7.858 c -0.026,-0.074 -0.047,-0.137 -0.061,-0.193 -0.017,-0.056 -0.025,-0.096 -0.029,-0.125 -0.002,-0.025 -0.004,-0.05 -0.004,-0.068 0,-0.049 0.012,-0.091 0.037,-0.13 0.024,-0.034 0.067,-0.066 0.123,-0.087 0.059,-0.021 0.135,-0.035 0.231,-0.042 0.093,-0.003 0.213,-0.008 0.353,-0.008 0.178,0 0.32,0.005 0.426,0.015 0.109,0.007 0.191,0.024 0.25,0.049 0.059,0.025 0.1,0.057 0.129,0.092 0.027,0.038 0.053,0.084 0.076,0.139 l 2.336,6.819 0.035,0.11 0.027,-0.11 2.307,-6.819 c 0.014,-0.055 0.035,-0.101 0.065,-0.139 0.031,-0.035 0.076,-0.067 0.134,-0.092 0.057,-0.025 0.139,-0.042 0.241,-0.049 0.099,-0.01 0.234,-0.015 0.398,-0.015 0.141,0 0.258,0.005 0.35,0.008 0.091,0.007 0.162,0.024 0.214,0.047 0.053,0.025 0.09,0.055 0.112,0.088 C -0.01,-8.398 0,-8.356 0,-8.307"
   style="fill:#939598;fill-rule:nonzero"
   id="path77" />
        </g>
        <g
   transform="translate(244.244,141.846)"
   id="g83">
            <path
   d="m 0,-1.61 c 0.018,-0.795 -0.16,-1.42 -0.533,-1.873 -0.373,-0.453 -0.926,-0.679 -1.658,-0.679 -0.377,0 -0.707,0.07 -0.993,0.209 -0.281,0.141 -0.519,0.33 -0.711,0.561 -0.191,0.234 -0.337,0.504 -0.443,0.814 -0.105,0.31 -0.162,0.631 -0.176,0.968 z m 1.525,0.451 c 0,0.24 -0.06,0.41 -0.181,0.511 -0.119,0.1 -0.256,0.151 -0.41,0.151 h -5.448 c 0,0.459 0.047,0.873 0.139,1.24 0.094,0.367 0.248,0.684 0.463,0.949 0.215,0.262 0.494,0.465 0.84,0.606 0.343,0.138 0.767,0.209 1.265,0.209 0.395,0 0.745,-0.032 1.053,-0.094 C -0.447,2.348 -0.182,2.276 0.045,2.194 0.27,2.116 0.455,2.044 0.598,1.979 0.742,1.915 0.852,1.884 0.928,1.884 c 0.041,0 0.08,0.009 0.113,0.031 C 1.074,1.936 1.104,1.97 1.119,2.013 1.139,2.056 1.15,2.114 1.162,2.192 1.17,2.268 1.176,2.36 1.176,2.472 1.176,2.554 1.172,2.618 1.164,2.679 1.16,2.735 1.15,2.788 1.145,2.835 1.135,2.882 1.119,2.921 1.098,2.958 1.076,2.995 1.049,3.03 1.016,3.063 0.98,3.098 0.883,3.153 0.715,3.229 0.551,3.306 0.336,3.382 0.074,3.456 -0.191,3.528 -0.496,3.595 -0.842,3.651 -1.187,3.71 -1.559,3.739 -1.949,3.739 -2.629,3.739 -3.225,3.645 -3.736,3.456 -4.246,3.265 -4.678,2.983 -5.027,2.608 -5.377,2.235 -5.641,1.768 -5.818,1.204 -5.996,0.641 -6.084,-0.015 -6.084,-0.763 c 0,-0.71 0.092,-1.35 0.277,-1.917 0.182,-0.565 0.446,-1.048 0.793,-1.442 0.348,-0.395 0.764,-0.699 1.254,-0.91 0.49,-0.212 1.039,-0.317 1.645,-0.317 0.65,0 1.203,0.105 1.66,0.311 0.455,0.21 0.83,0.49 1.125,0.842 0.295,0.353 0.51,0.766 0.648,1.241 0.137,0.475 0.207,0.981 0.207,1.52 z"
   style="fill:#939598;fill-rule:nonzero"
   id="path81" />
        </g>
        <g
   transform="translate(249.592,132.894)"
   id="g87">
            <path
   d="m 0,12.289 c 0,0.049 -0.014,0.088 -0.037,0.123 -0.024,0.035 -0.063,0.063 -0.119,0.086 -0.057,0.025 -0.133,0.043 -0.231,0.057 -0.097,0.011 -0.224,0.017 -0.375,0.017 -0.148,0 -0.271,-0.006 -0.367,-0.017 -0.101,-0.014 -0.18,-0.032 -0.236,-0.057 -0.059,-0.023 -0.096,-0.051 -0.119,-0.086 -0.022,-0.035 -0.034,-0.074 -0.034,-0.123 V 0.011 c 0,-0.05 0.012,-0.095 0.034,-0.13 0.023,-0.038 0.06,-0.066 0.119,-0.091 0.056,-0.024 0.135,-0.043 0.236,-0.056 0.096,-0.011 0.219,-0.017 0.367,-0.017 0.151,0 0.278,0.006 0.375,0.017 0.098,0.013 0.174,0.032 0.231,0.056 0.056,0.025 0.095,0.053 0.119,0.091 C -0.014,-0.084 0,-0.039 0,0.011 Z"
   style="fill:#939598;fill-rule:nonzero"
   id="path85" />
        </g>
        <g
   transform="translate(258.516,141.026)"
   id="g91">
            <path
   d="m 0,0.03 c 0,-0.449 -0.043,-0.872 -0.127,-1.268 -0.082,-0.399 -0.221,-0.75 -0.41,-1.049 -0.193,-0.299 -0.453,-0.537 -0.781,-0.712 -0.328,-0.175 -0.735,-0.263 -1.225,-0.263 -0.449,0 -0.838,0.082 -1.164,0.24 -0.322,0.159 -0.592,0.384 -0.801,0.676 -0.211,0.291 -0.367,0.635 -0.469,1.034 -0.103,0.397 -0.152,0.833 -0.152,1.303 0,0.455 0.041,0.881 0.125,1.277 0.084,0.399 0.223,0.748 0.418,1.043 0.193,0.297 0.457,0.533 0.781,0.709 0.33,0.174 0.737,0.262 1.227,0.262 0.443,0 0.83,-0.078 1.158,-0.238 0.328,-0.16 0.598,-0.381 0.807,-0.672 C -0.402,2.083 -0.248,1.741 -0.15,1.342 -0.051,0.946 0,0.507 0,0.03 M 1.57,-0.074 C 1.57,0.602 1.48,1.223 1.303,1.79 1.125,2.356 0.861,2.844 0.51,3.253 0.156,3.667 -0.285,3.985 -0.814,4.216 -1.342,4.444 -1.959,4.559 -2.656,4.559 -3.338,4.559 -3.93,4.458 -4.434,4.257 -4.939,4.055 -5.361,3.76 -5.699,3.374 -6.035,2.987 -6.287,2.518 -6.453,1.967 -6.617,1.417 -6.699,0.792 -6.699,0.092 c 0,-0.672 0.088,-1.292 0.26,-1.859 0.175,-0.567 0.439,-1.055 0.789,-1.467 0.355,-0.408 0.795,-0.728 1.32,-0.955 0.527,-0.226 1.142,-0.34 1.848,-0.34 0.679,0 1.271,0.101 1.777,0.305 0.506,0.199 0.926,0.493 1.266,0.882 0.335,0.385 0.589,0.854 0.755,1.404 0.17,0.552 0.254,1.174 0.254,1.864"
   style="fill:#939598;fill-rule:nonzero"
   id="path89" />
        </g>
        <g
   transform="translate(268.357,144.163)"
   id="g95">
            <path
   d="M 0,-3.072 C 0,-3.492 -0.033,-3.903 -0.098,-4.299 -0.164,-4.694 -0.273,-5.043 -0.43,-5.35 -0.588,-5.656 -0.799,-5.902 -1.064,-6.086 -1.33,-6.27 -1.66,-6.36 -2.053,-6.36 c -0.197,0 -0.392,0.028 -0.584,0.087 -0.189,0.056 -0.384,0.149 -0.58,0.276 -0.199,0.124 -0.406,0.289 -0.621,0.494 -0.215,0.207 -0.443,0.46 -0.685,0.761 v 3.287 c 0.419,0.51 0.816,0.899 1.193,1.168 0.375,0.27 0.771,0.403 1.184,0.403 0.382,0 0.71,-0.09 0.984,-0.274 0.275,-0.185 0.498,-0.43 0.668,-0.734 0.17,-0.307 0.293,-0.651 0.373,-1.03 C -0.043,-2.302 0,-2.685 0,-3.072 m 1.57,-0.174 c 0,0.723 -0.078,1.373 -0.232,1.947 C 1.18,-0.72 0.951,-0.234 0.646,0.168 0.342,0.571 -0.031,0.879 -0.479,1.096 -0.926,1.313 -1.439,1.422 -2.014,1.422 -2.258,1.422 -2.486,1.397 -2.693,1.348 -2.902,1.299 -3.105,1.223 -3.305,1.119 -3.504,1.016 -3.701,0.883 -3.896,0.725 -4.092,0.565 -4.303,0.379 -4.523,0.162 v 4.137 c 0,0.051 -0.01,0.092 -0.036,0.129 -0.023,0.037 -0.064,0.068 -0.119,0.092 -0.054,0.025 -0.133,0.043 -0.23,0.054 -0.098,0.012 -0.225,0.02 -0.375,0.02 -0.149,0 -0.272,-0.008 -0.369,-0.02 C -5.752,4.563 -5.828,4.545 -5.887,4.52 -5.943,4.496 -5.984,4.465 -6.008,4.428 -6.029,4.391 -6.039,4.35 -6.039,4.299 V -7.253 c 0,-0.057 0.01,-0.099 0.029,-0.134 0.016,-0.032 0.055,-0.061 0.11,-0.087 0.054,-0.024 0.125,-0.042 0.211,-0.049 0.085,-0.009 0.189,-0.014 0.312,-0.014 0.129,0 0.234,0.005 0.318,0.014 0.08,0.007 0.151,0.025 0.207,0.049 0.055,0.026 0.094,0.055 0.114,0.087 0.023,0.035 0.033,0.077 0.033,0.134 v 1.114 c 0.25,-0.26 0.492,-0.482 0.725,-0.673 0.232,-0.188 0.468,-0.345 0.703,-0.472 0.236,-0.126 0.478,-0.221 0.726,-0.286 0.248,-0.064 0.51,-0.096 0.787,-0.096 0.598,0 1.11,0.115 1.534,0.349 0.421,0.232 0.767,0.551 1.033,0.957 0.267,0.402 0.461,0.872 0.584,1.411 0.121,0.535 0.183,1.102 0.183,1.703"
   style="fill:#939598;fill-rule:nonzero"
   id="path93" />
        </g>
        <g
   transform="translate(284.475,136.78)"
   id="g99">
            <path
   d="M 0,8.403 C 0,8.452 -0.012,8.491 -0.037,8.526 -0.061,8.561 -0.102,8.589 -0.156,8.612 -0.211,8.637 -0.287,8.655 -0.385,8.669 -0.482,8.68 -0.605,8.686 -0.752,8.686 -0.906,8.686 -1.033,8.68 -1.131,8.669 -1.229,8.655 -1.305,8.637 -1.365,8.612 -1.422,8.589 -1.463,8.561 -1.488,8.526 -1.512,8.491 -1.525,8.452 -1.525,8.403 V 3.375 C -1.525,3.026 -1.555,2.706 -1.617,2.42 -1.678,2.131 -1.775,1.885 -1.91,1.674 -2.045,1.467 -2.217,1.307 -2.426,1.197 -2.635,1.085 -2.879,1.03 -3.16,1.03 c -0.35,0 -0.701,0.136 -1.053,0.407 -0.351,0.269 -0.74,0.664 -1.162,1.184 v 5.782 c 0,0.049 -0.012,0.088 -0.037,0.123 C -5.436,8.561 -5.479,8.589 -5.537,8.612 -5.594,8.637 -5.672,8.655 -5.771,8.669 -5.867,8.68 -5.992,8.686 -6.139,8.686 -6.279,8.686 -6.398,8.68 -6.5,8.669 -6.602,8.655 -6.682,8.637 -6.74,8.612 -6.797,8.589 -6.838,8.561 -6.859,8.526 -6.883,8.491 -6.893,8.452 -6.893,8.403 V 3.375 C -6.893,3.026 -6.926,2.706 -6.992,2.42 -7.061,2.131 -7.162,1.885 -7.295,1.674 -7.432,1.467 -7.6,1.307 -7.807,1.197 -8.012,1.085 -8.254,1.03 -8.535,1.03 c -0.35,0 -0.703,0.136 -1.059,0.407 -0.355,0.269 -0.74,0.664 -1.156,1.184 v 5.782 c 0,0.049 -0.016,0.088 -0.039,0.123 -0.024,0.035 -0.063,0.063 -0.119,0.086 -0.053,0.025 -0.131,0.043 -0.229,0.057 -0.099,0.011 -0.224,0.017 -0.377,0.017 -0.146,0 -0.269,-0.006 -0.367,-0.017 -0.098,-0.014 -0.178,-0.032 -0.234,-0.057 -0.061,-0.023 -0.098,-0.051 -0.119,-0.086 -0.022,-0.035 -0.034,-0.074 -0.034,-0.123 V 0.13 c 0,-0.049 0.008,-0.091 0.028,-0.122 0.019,-0.035 0.054,-0.066 0.111,-0.093 0.057,-0.028 0.125,-0.048 0.211,-0.054 0.086,-0.01 0.197,-0.015 0.34,-0.015 0.135,0 0.246,0.005 0.334,0.015 0.092,0.006 0.158,0.026 0.209,0.054 0.047,0.027 0.084,0.058 0.103,0.093 0.024,0.031 0.036,0.073 0.036,0.122 v 1.094 c 0.464,-0.52 0.916,-0.902 1.353,-1.143 0.438,-0.243 0.881,-0.364 1.328,-0.364 0.342,0 0.651,0.041 0.922,0.119 0.275,0.08 0.514,0.192 0.723,0.336 0.209,0.144 0.386,0.314 0.533,0.515 0.148,0.199 0.269,0.421 0.369,0.665 0.273,-0.299 0.537,-0.553 0.785,-0.763 0.248,-0.206 0.487,-0.375 0.717,-0.504 0.228,-0.13 0.451,-0.224 0.67,-0.281 0.217,-0.059 0.437,-0.087 0.658,-0.087 0.531,0 0.981,0.094 1.34,0.279 0.361,0.189 0.654,0.439 0.879,0.75 0.224,0.313 0.383,0.679 0.476,1.1 C -0.047,2.264 0,2.706 0,3.173 Z"
   style="fill:#939598;fill-rule:nonzero"
   id="path97" />
        </g>
        <g
   transform="translate(292.775,141.846)"
   id="g103">
            <path
   d="m 0,-1.61 c 0.016,-0.795 -0.16,-1.42 -0.533,-1.873 -0.373,-0.453 -0.926,-0.679 -1.66,-0.679 -0.375,0 -0.705,0.07 -0.989,0.209 -0.283,0.141 -0.521,0.33 -0.713,0.561 -0.189,0.234 -0.339,0.504 -0.443,0.814 -0.105,0.31 -0.164,0.631 -0.176,0.968 z m 1.523,0.451 c 0,0.24 -0.06,0.41 -0.177,0.511 -0.121,0.1 -0.26,0.151 -0.414,0.151 h -5.446 c 0,0.459 0.047,0.873 0.139,1.24 0.092,0.367 0.246,0.684 0.461,0.949 0.215,0.262 0.496,0.465 0.842,0.606 0.343,0.138 0.765,0.209 1.261,0.209 0.397,0 0.747,-0.032 1.055,-0.094 C -0.447,2.348 -0.182,2.276 0.043,2.194 0.268,2.116 0.451,2.044 0.598,1.979 0.742,1.915 0.852,1.884 0.926,1.884 c 0.043,0 0.08,0.009 0.115,0.031 C 1.076,1.936 1.1,1.97 1.119,2.013 1.139,2.056 1.152,2.114 1.16,2.192 1.17,2.268 1.176,2.36 1.176,2.472 1.176,2.554 1.172,2.618 1.166,2.679 1.16,2.735 1.152,2.788 1.141,2.835 1.133,2.882 1.117,2.921 1.096,2.958 1.076,2.995 1.047,3.03 1.014,3.063 0.98,3.098 0.881,3.153 0.715,3.229 0.551,3.306 0.334,3.382 0.072,3.456 -0.191,3.528 -0.496,3.595 -0.844,3.651 -1.189,3.71 -1.557,3.739 -1.949,3.739 -2.631,3.739 -3.227,3.645 -3.738,3.456 -4.25,3.265 -4.68,2.983 -5.029,2.608 -5.377,2.235 -5.641,1.768 -5.818,1.204 -5.996,0.641 -6.086,-0.015 -6.086,-0.763 c 0,-0.71 0.092,-1.35 0.275,-1.917 0.186,-0.565 0.45,-1.048 0.795,-1.442 0.346,-0.395 0.766,-0.699 1.256,-0.91 0.49,-0.212 1.037,-0.317 1.643,-0.317 0.65,0 1.203,0.105 1.66,0.311 0.457,0.21 0.832,0.49 1.127,0.842 0.293,0.353 0.51,0.766 0.646,1.241 0.139,0.475 0.207,0.981 0.207,1.52 z"
   style="fill:#939598;fill-rule:nonzero"
   id="path101" />
        </g>
        <g
   transform="translate(303.728,136.78)"
   id="g107">
            <path
   d="M 0,8.403 C 0,8.452 -0.014,8.491 -0.037,8.526 -0.062,8.561 -0.102,8.589 -0.156,8.612 -0.213,8.637 -0.289,8.655 -0.389,8.669 -0.484,8.68 -0.609,8.686 -0.754,8.686 -0.908,8.686 -1.033,8.68 -1.131,8.669 -1.229,8.655 -1.305,8.637 -1.359,8.612 -1.416,8.589 -1.455,8.561 -1.48,8.526 -1.504,8.491 -1.516,8.452 -1.516,8.403 V 3.558 C -1.516,3.087 -1.553,2.706 -1.627,2.42 -1.699,2.131 -1.809,1.885 -1.949,1.674 -2.09,1.467 -2.271,1.307 -2.496,1.197 -2.719,1.085 -2.977,1.03 -3.271,1.03 c -0.381,0 -0.76,0.136 -1.141,0.407 -0.379,0.269 -0.777,0.664 -1.195,1.184 v 5.782 c 0,0.049 -0.01,0.088 -0.036,0.123 C -5.666,8.561 -5.707,8.589 -5.764,8.612 -5.818,8.637 -5.895,8.655 -5.992,8.669 -6.09,8.68 -6.217,8.686 -6.369,8.686 -6.516,8.686 -6.639,8.68 -6.736,8.669 -6.836,8.655 -6.914,8.637 -6.971,8.612 -7.029,8.589 -7.068,8.561 -7.092,8.526 -7.113,8.491 -7.123,8.452 -7.123,8.403 V 0.13 c 0,-0.049 0.01,-0.091 0.027,-0.122 0.018,-0.035 0.057,-0.066 0.112,-0.093 0.054,-0.028 0.125,-0.048 0.211,-0.054 0.084,-0.01 0.199,-0.015 0.339,-0.015 0.135,0 0.248,0.005 0.336,0.015 0.088,0.006 0.159,0.026 0.207,0.054 0.049,0.027 0.084,0.058 0.106,0.093 0.021,0.031 0.031,0.073 0.031,0.122 v 1.094 c 0.465,-0.52 0.932,-0.902 1.393,-1.143 0.463,-0.243 0.929,-0.364 1.4,-0.364 0.555,0 1.016,0.094 1.395,0.279 0.377,0.189 0.679,0.439 0.912,0.75 0.234,0.313 0.4,0.679 0.502,1.1 C -0.051,2.264 0,2.768 0,3.357 Z"
   style="fill:#939598;fill-rule:nonzero"
   id="path105" />
        </g>
        <g
   transform="translate(310.619,135.404)"
   id="g111">
            <path
   d="m 0,9.169 c 0,0.178 -0.012,0.32 -0.037,0.424 -0.024,0.103 -0.061,0.181 -0.109,0.23 -0.049,0.049 -0.124,0.094 -0.221,0.137 -0.098,0.043 -0.211,0.078 -0.336,0.105 -0.125,0.028 -0.26,0.051 -0.401,0.071 -0.138,0.015 -0.281,0.027 -0.421,0.027 -0.428,0 -0.795,-0.057 -1.102,-0.172 C -2.934,9.88 -3.186,9.708 -3.381,9.476 -3.578,9.249 -3.719,8.956 -3.809,8.605 -3.896,8.251 -3.941,7.839 -3.941,7.358 V 2.527 h -1.161 c -0.089,0 -0.164,-0.05 -0.22,-0.148 -0.053,-0.098 -0.08,-0.257 -0.08,-0.478 0,-0.115 0.007,-0.213 0.021,-0.293 0.016,-0.082 0.035,-0.147 0.059,-0.198 0.025,-0.052 0.058,-0.09 0.099,-0.111 0.039,-0.021 0.084,-0.031 0.133,-0.031 h 1.149 v -1.969 c 0,-0.042 0.009,-0.081 0.031,-0.119 0.021,-0.036 0.062,-0.069 0.119,-0.095 0.059,-0.029 0.137,-0.047 0.234,-0.062 0.098,-0.01 0.221,-0.017 0.368,-0.017 0.154,0 0.279,0.007 0.378,0.017 0.098,0.015 0.174,0.033 0.229,0.062 0.055,0.026 0.096,0.059 0.119,0.095 0.025,0.038 0.037,0.077 0.037,0.119 v 1.969 h 2.123 c 0.049,0 0.094,0.01 0.129,0.031 0.037,0.021 0.07,0.059 0.096,0.111 0.029,0.051 0.047,0.116 0.06,0.198 C -0.008,1.688 0,1.786 0,1.901 0,2.122 -0.027,2.281 -0.082,2.379 -0.137,2.477 -0.209,2.527 -0.303,2.527 h -2.123 v 4.611 c 0,0.572 0.084,1.002 0.252,1.293 0.17,0.289 0.471,0.437 0.906,0.437 0.141,0 0.268,-0.013 0.377,-0.043 0.112,-0.027 0.207,-0.054 0.293,-0.086 0.088,-0.033 0.161,-0.06 0.221,-0.09 0.063,-0.027 0.119,-0.041 0.168,-0.041 0.029,0 0.059,0.01 0.086,0.026 0.027,0.014 0.049,0.043 0.064,0.086 0.016,0.043 0.028,0.101 0.041,0.176 C -0.008,8.97 0,9.06 0,9.169"
   style="fill:#939598;fill-rule:nonzero"
   id="path109" />
        </g>
    </g>
    <defs
   id="defs121">
        <linearGradient
   id="_Linear1"
   x1="0"
   y1="0"
   x2="1"
   y2="0"
   gradientUnits="userSpaceOnUse"
   gradientTransform="matrix(1,0,0,-1,0,-0.119852)"><stop
     offset="0"
     style="stop-color:rgb(0,166,80);stop-opacity:1"
     id="stop114" /><stop
     offset="0.11"
     style="stop-color:rgb(78,184,72);stop-opacity:1"
     id="stop116" /><stop
     offset="1"
     style="stop-color:rgb(166,206,56);stop-opacity:1"
     id="stop118" /></linearGradient>
    </defs>
</svg>
