<svg width="810" height="197" viewBox="0 0 810 197" fill="none" xmlns="http://www.w3.org/2000/svg">
<path fill-rule="evenodd" clip-rule="evenodd" d="M117.987 129.062C117.987 136.275 123.837 140.568 133.987 140.568C143.969 140.568 148.788 135.76 148.788 126.313V117.385H140.53C122.973 117.385 117.987 121.503 117.987 129.062Z" fill="#1A1919"/>
<path fill-rule="evenodd" clip-rule="evenodd" d="M100.961 0.484711C45.2884 0.484711 0.149658 36.2956 0.149658 80.4722V116.289C0.149658 160.465 45.2884 196.282 100.961 196.282C156.634 196.282 201.761 160.465 201.761 116.289V80.4722C201.761 36.2956 156.634 0.484711 100.961 0.484711ZM68.2374 118.987H58.255V157.741H48.9666C41.5633 157.741 35.024 152.075 35.024 144V82.7867C35.024 63.8921 43.8037 40.232 70.1757 34.3724C96.8709 28.4404 104.337 41.4946 104.337 41.4946C104.337 41.4946 87.634 41.2665 74.5472 51.4775C67.0961 57.2894 58.5166 70.1054 58.255 84.6788V102.683C74.7345 105.838 87.926 100.364 91.8173 98.6338L92.4848 98.5495C92.4848 98.5495 91.3031 118.987 68.2374 118.987ZM171.331 126.141C171.331 145.72 156.879 159.285 136.227 159.285H131.579C109.552 159.285 94.4065 146.923 94.4065 129.921C94.4065 113.435 106.453 100.9 140.53 100.9H148.615V99.6939C148.615 86.6433 142.421 77.3688 128.651 77.3688C111.959 77.3688 102.67 83.7223 99.2251 88.0169H98.3666V80.6335C98.3666 70.329 107.661 57.9666 132.095 57.9666C152.747 57.9666 171.331 72.9074 171.331 104.846V126.141Z" fill="#1A1919"/>
<path fill-rule="evenodd" clip-rule="evenodd" d="M293.072 70.2019H264.115V93.709H298.011V99.3796C298.011 105.463 293.209 108.783 288.953 108.783H264.801C264.801 136.3 264.801 149.161 264.801 149.161H256.978C250.117 149.161 246 145.565 246 138.099V69.0954C246 57.3412 250.665 54.4375 261.645 54.4375H303.776C303.776 54.9901 303.776 60.3844 303.776 60.3844C303.776 64.8076 300.481 70.2019 293.072 70.2019ZM348.13 116.362H341.532C327.511 116.362 323.524 119.678 323.524 125.757C323.524 131.562 328.199 135.016 336.309 135.016C344.281 135.016 348.13 131.148 348.13 123.547V116.362ZM338.095 150.08H334.383C316.789 150.08 304.693 140.131 304.693 126.449C304.693 113.182 314.315 103.095 341.532 103.095H347.993V102.127C347.993 91.6258 343.044 88.4452 332.048 88.4452C318.713 88.4452 311.291 93.5599 308.542 97.014H307.855V91.0709C307.855 82.781 315.277 72.8304 334.797 72.8304C351.291 72.8304 366.137 80.5681 366.137 106.273V123.409C366.137 139.163 354.591 150.08 338.095 150.08ZM393.134 62.1771V106.822C400.354 97.3941 407.435 87.8277 416.042 79.6478C420.486 75.4885 424.928 74.7947 430.899 74.7947H441.59V75.4885C436.314 79.9248 418.957 99.6115 411.184 109.456C417.153 116.804 422.985 124.43 429.648 131.223C436.453 138.017 439.507 139.403 444.088 140.93C442.145 146.891 439.091 150.08 431.454 150.08C427.289 150.08 422.429 148.139 419.236 144.949C409.656 135.106 401.325 124.014 393.134 113.06V149.525L387.164 149.663C378.557 149.803 374.39 145.227 374.39 136.492V49.8393H380.361C389.386 49.8393 393.134 54.9681 393.134 62.1771ZM454.955 63.2624C457.431 60.3427 460.734 58.1161 463.622 58.1161H467.886V75.0804H493.61V82.7285C493.61 86.622 490.172 91.6281 482.605 91.6281H467.886V120.967C467.886 130.699 472.15 134.455 479.579 134.455C485.494 134.455 490.034 133.619 492.923 131.813H493.61V138.486C493.61 146.134 488.107 151 477.378 151C458.67 151 449.59 140.711 449.59 123.191V78.1405C449.59 70.7702 450.966 67.9894 454.955 63.2624ZM535.473 151C517.204 151 502.78 138.832 502.78 117.122V74.6696H506.215C516.791 74.6696 521.462 79.2337 521.462 87.9446V115.325C521.462 129.014 528.056 134.545 536.435 134.545C543.991 134.545 549.348 129.29 549.348 116.568V74.6696H552.646C563.359 74.6696 567.893 79.2337 567.893 87.9446V115.877C567.893 139.108 557.041 151 535.473 151ZM622.223 92.5681C619.453 91.4609 616.265 90.3538 611.415 90.3538C603.098 90.3538 598.523 94.9194 598.523 106.266V149.161H593.397C585.081 149.161 579.815 145.01 579.815 137.261V102.946C579.815 88.0012 587.715 73.75 607.395 73.75C618.898 73.75 622.917 80.2522 622.917 85.9264V92.5681H622.223ZM659.227 89.4617C648.538 89.4617 643.126 98.3326 643.126 110.668C643.126 125.499 648.538 134.369 660.89 134.369C671.717 134.369 676.992 125.499 676.992 113.301C676.992 98.3326 671.439 89.4617 659.227 89.4617ZM660.89 72.8304C683.375 72.8304 696.283 90.8477 696.283 110.668C696.283 133.121 683.375 151 659.227 151C636.742 151 623.834 133.121 623.834 113.301C623.834 90.8477 636.742 72.8304 660.89 72.8304ZM728.366 151C714.041 151 706.189 142.788 706.189 127.616C706.189 123.301 706.189 76.8128 706.189 76.8128H711.424C719.686 76.8128 724.647 81.265 724.647 90.7312V125.807C724.647 133.322 727.815 135.688 735.941 135.688H739.385V139.725C739.385 147.799 736.218 151 728.366 151ZM715.28 69.8522C709.357 69.8522 704.537 64.8411 704.537 58.8566C704.537 52.8708 709.357 48 715.28 48C721.203 48 726.161 52.8708 726.161 58.8566C726.161 64.8411 721.203 69.8522 715.28 69.8522ZM773.169 88.6718C763.754 88.6718 757.662 97.7931 757.662 109.818C757.662 125.295 765.692 135.384 776.353 135.384C786.738 135.384 791.308 127.645 791.308 114.102C791.308 95.4448 783.139 88.6718 773.169 88.6718ZM774.137 151C754.477 151 739.385 133.863 739.385 113.41C739.385 88.9479 751.293 73.0562 773.029 73.0562C780.508 73.0562 788.677 78.3079 791.585 84.8034V49.8393H797.261C806.123 49.8393 810 54.9515 810 62.4135V114.93C810 136.628 799.754 151 774.137 151Z" fill="#1A1919"/>
</svg>
