<?xml version="1.0" encoding="UTF-8" standalone="no"?>
<svg
   data-name="logo - full"
   viewBox="0 0 185.64076 67.51642"
   version="1.1"
   id="svg865"
   sodipodi:docname="frontendisti.svg"
   width="185.64076"
   height="67.516418"
   inkscape:version="1.1 (c4e8f9e, 2021-05-24)"
   xmlns:inkscape="http://www.inkscape.org/namespaces/inkscape"
   xmlns:sodipodi="http://sodipodi.sourceforge.net/DTD/sodipodi-0.dtd"
   xmlns="http://www.w3.org/2000/svg"
   xmlns:svg="http://www.w3.org/2000/svg"
   xmlns:rdf="http://www.w3.org/1999/02/22-rdf-syntax-ns#"
   xmlns:cc="http://creativecommons.org/ns#"
   xmlns:dc="http://purl.org/dc/elements/1.1/">
  <metadata
     id="metadata871">
    <rdf:RDF>
      <cc:Work
         rdf:about="">
        <dc:format>image/svg+xml</dc:format>
        <dc:type
           rdf:resource="http://purl.org/dc/dcmitype/StillImage" />
      </cc:Work>
    </rdf:RDF>
  </metadata>
  <defs
     id="defs869" />
  <sodipodi:namedview
     pagecolor="#ffffff"
     bordercolor="#666666"
     borderopacity="1"
     objecttolerance="10"
     gridtolerance="10"
     guidetolerance="10"
     inkscape:pageopacity="0"
     inkscape:pageshadow="2"
     inkscape:window-width="1382"
     inkscape:window-height="847"
     id="namedview867"
     showgrid="false"
     fit-margin-top="0"
     fit-margin-left="0"
     fit-margin-right="0"
     fit-margin-bottom="0"
     inkscape:zoom="8.6292571"
     inkscape:cx="118.78195"
     inkscape:cy="36.735491"
     inkscape:window-x="58"
     inkscape:window-y="25"
     inkscape:window-maximized="1"
     inkscape:current-layer="svg865"
     inkscape:pagecheckerboard="0"
     scale-x="1"
     units="mm" />
  <path
     fill="#1c1300"
     d="m 62.9865,6.13575 q 0,1.89675 0.1215,3.0667502 H 62.1855 A 13.5945,13.5945 0 0 0 59.769,2.781 5.6385,5.6385 0 0 0 55.269,0.927 h -1.32975 a 5.7915,5.7915 0 0 0 -1.8135,0.20025 1.22175,1.22175 0 0 0 -0.7695,0.78525 6.42375,6.42375 0 0 0 -0.2025,1.87875 V 13.9635 h 1.41075 a 3.71925,3.71925 0 0 0 3.249,-1.575 9.80325,9.80325 0 0 0 1.54575,-3.75075 h 0.9315 c -0.0855,1.1250003 -0.1215,2.39175 -0.1215,3.798 v 1.93275 c 0,1.37475 0.0765,3.28275 0.24075,5.73525 h -0.9495 q -0.846,-5.3325 -4.91625,-5.328 H 51.1335 V 24.057 a 6.0435,6.0435 0 0 0 0.342,2.362501 1.764,1.764 0 0 0 1.20825,0.98775 12.12525,12.12525 0 0 0 2.76075,0.288 v 0.8865 q -4.95,-0.1215 -7.37325,-0.1215 -2.00925,0 -5.076,0.081 l -1.28925,0.0405 v -0.81 a 6.91425,6.91425 0 0 0 1.953,-0.31725 1.413,1.413 0 0 0 0.846,-0.9315 7.81875,7.81875 0 0 0 0.225,-2.220751 V 4.27725 A 7.81875,7.81875 0 0 0 44.505,2.0565 1.40625,1.40625 0 0 0 43.659,1.1295 7.236,7.236 0 0 0 41.706,0.801 V 0 q 4.3515,0.1125 13.13325,0.1215 c 3.94875,0 6.75,-0.045 8.4195,-0.1215 A 82.59975,82.59975 0 0 0 62.9865,6.13575 Z"
     data-name="Path 24"
     id="path833"
     style="stroke-width:2.25" />
  <path
     fill="#1c1300"
     d="m 81.7605,8.23725 a 3.93525,3.93525 0 0 1 0.927,2.628 3.47625,3.47625 0 0 1 -0.86625,2.4435 2.9385,2.9385 0 0 1 -2.277,0.94725 A 3.186,3.186 0 0 1 77.3685,13.55175 2.3895,2.3895 0 0 1 76.563,11.673 3.663,3.663 0 0 1 78.336,8.523 1.899,1.899 0 0 0 77.85225,8.478 2.03625,2.03625 0 0 0 77.20875,8.5635 3.825,3.825 0 0 0 74.61,10.4175 5.9535,5.9535 0 0 0 73.54125,13.73175 v 10.6965 a 3.15,3.15 0 0 0 0.9,2.583001 4.5765,4.5765 0 0 0 2.88,0.73125 v 0.846 a 7.767,7.767 0 0 1 -0.927,-0.045 c -2.7405,-0.0765 -4.5675,-0.1215 -5.47875,-0.1215 -0.7245,0 -2.376,0.045 -4.95,0.1215 a 5.96475,5.96475 0 0 1 -0.8055,0.045 v -0.846 a 2.62575,2.62575 0 0 0 2.025,-0.63 A 3.447,3.447 0 0 0 67.74975,24.831 V 12.11625 A 4.99725,4.99725 0 0 0 67.185,9.4162502 2.22525,2.22525 0 0 0 65.16,8.57025 v -0.8505 c 0.855,0.081 1.692,0.1215 2.4975,0.1215 A 25.24725,25.24725 0 0 0 73.539,7.2765 V 11.034 A 6.84,6.84 0 0 1 75.75525,8.22825 5.35275,5.35275 0 0 1 79.01775,7.155 3.402,3.402 0 0 1 81.7605,8.23725 Z"
     data-name="Path 25"
     id="path835"
     style="stroke-width:2.25" />
  <path
     fill="#1c1300"
     d="m 101.05875,9.7920003 a 14.67675,14.67675 0 0 1 0,16.7355007 11.30625,11.30625 0 0 1 -14.48325,0 14.5845,14.5845 0 0 1 0,-16.7355007 11.25,11.25 0 0 1 14.48325,0 z M 91.04625,10.467 a 21.627,21.627 0 0 0 -1.02825,7.6905 21.39075,21.39075 0 0 0 1.02825,7.67025 c 0.675,1.671751 1.602,2.508751 2.76075,2.508751 1.15875,0 2.106,-0.83025 2.77875,-2.475001 a 21.86775,21.86775 0 0 0 1.008,-7.695 21.6,21.6 0 0 0 -1.02825,-7.71075 Q 95.53725,7.956 93.80475,7.95375 c -1.15425,0 -2.07225,0.8415002 -2.75625,2.5245 z"
     data-name="Path 26"
     id="path837"
     style="stroke-width:2.25" />
  <path
     fill="#1c1300"
     d="m 125.59725,8.72325 a 4.40325,4.40325 0 0 1 0.9675,1.98 14.82975,14.82975 0 0 1 0.288,3.27375 v 10.8585 a 3.35025,3.35025 0 0 0 0.585,2.281501 2.63475,2.63475 0 0 0 1.9935,0.63 v 0.846 a 183.21075,183.21075 0 0 0 -5.319,-0.1665 c -0.81,0 -2.55375,0.06075 -5.238,0.1665 v -0.846 a 2.025,2.025 0 0 0 1.692,-0.63 A 3.93525,3.93525 0 0 0 121.05,24.8355 V 12.2805 A 4.6755,4.6755 0 0 0 120.5055,9.7785003 2.151,2.151 0 0 0 118.54575,8.9325002 3.6,3.6 0 0 0 115.731,10.2825 4.9275,4.9275 0 0 0 114.5565,13.617 v 11.22075 a 3.89475,3.89475 0 0 0 0.48375,2.281501 2.025,2.025 0 0 0 1.692,0.63 v 0.846 a 151.2945,151.2945 0 0 0 -4.9905,-0.1665 c -0.81,0 -2.664,0.06075 -5.56425,0.1665 v -0.846 a 2.62575,2.62575 0 0 0 2.025,-0.63 3.447,3.447 0 0 0 0.56475,-2.281501 V 12.123 A 4.99725,4.99725 0 0 0 108.2025,9.4230002 2.22525,2.22525 0 0 0 106.1775,8.577 V 7.7265 c 0.86175,0.081 1.6965,0.1215 2.4975,0.1215 a 25.218,25.218 0 0 0 5.8815,-0.56475 v 3.636 a 6.6825,6.6825 0 0 1 6.61275,-3.7575 5.58225,5.58225 0 0 1 4.428,1.5615 z"
     data-name="Path 27"
     id="path839"
     style="stroke-width:2.25" />
  <path
     fill="#1c1300"
     d="m 139.10175,7.71075 h 4.75875 v 0.81 h -4.75875 V 24.8265 a 2.7,2.7 0 0 0 0.423,1.716751 1.674,1.674 0 0 0 1.35,0.504 q 1.737,0 2.745,-2.423251 l 0.675,0.36675 a 5.55975,5.55975 0 0 1 -5.51475,4.155751 5.46075,5.46075 0 0 1 -4.03425,-1.37475 4.32,4.32 0 0 1 -1.1475,-2.115001 15.79725,15.79725 0 0 1 -0.3015,-3.49425 V 8.5185 h -3.375 v -0.81 h 3.375 v -5.328 a 12.32325,12.32325 0 0 0 5.8005,-1.28925 z"
     data-name="Path 28"
     id="path841"
     style="stroke-width:2.25" />
  <path
     fill="#1c1300"
     d="m 49.69125,66.928501 q -2.74275,-0.12825 -9.225,-0.1215 -8.775,0 -13.13325,0.1215 v -0.81 a 7.101,7.101 0 0 0 1.953,-0.31725 1.413,1.413 0 0 0 0.846,-0.9315 7.8255,7.8255 0 0 0 0.225,-2.22075 v -20.025 a 7.8255,7.8255 0 0 0 -0.225,-2.22075 1.38375,1.38375 0 0 0 -0.846,-0.927 7.038,7.038 0 0 0 -1.953,-0.3285 v -0.79425 q 4.3515,0.1215 13.13325,0.1215 5.922,0 8.4195,-0.1215 -0.27225,3.35475 -0.27675,5.97375 a 22.64175,22.64175 0 0 0 0.1215,2.7495 h -0.92925 a 11.457,11.457 0 0 0 -2.17575,-6.05925 5.6835,5.6835 0 0 0 -4.4325,-1.737 h -1.647 a 5.81625,5.81625 0 0 0 -1.818,0.207 1.215,1.215 0 0 0 -0.765,0.78525 6.40575,6.40575 0 0 0 -0.2025,1.87875 v 10.0125 h 1.28925 a 3.717,3.717 0 0 0 3.249,-1.575 9.8415,9.8415 0 0 0 1.54575,-3.753 h 0.9315 a 50.76,50.76 0 0 0 -0.1215,3.79125 v 1.9395 c 0,1.37025 0.0765,3.28275 0.24075,5.73525 h -0.9315 q -0.846,-5.3325 -4.91625,-5.3325 h -1.28925 v 10.17225 a 6.408,6.408 0 0 0 0.2025,1.87875 1.224,1.224 0 0 0 0.765,0.78975 6.039,6.039 0 0 0 1.818,0.19575 h 1.96875 a 5.91075,5.91075 0 0 0 4.617,-1.953 13.122,13.122 0 0 0 2.475,-6.642 h 0.9225 c -0.0765,0.9 -0.1215,2.025 -0.1215,3.3885 a 53.88525,53.88525 0 0 0 0.28575,6.129 z"
     data-name="Path 29"
     id="path843"
     style="stroke-width:2.25" />
  <path
     fill="#1c1300"
     d="m 71.8875,47.074501 a 4.34925,4.34925 0 0 1 0.9675,1.98 14.73075,14.73075 0 0 1 0.288,3.26925 v 10.8585 a 3.3885,3.3885 0 0 0 0.57825,2.2815 2.6505,2.6505 0 0 0 1.9935,0.6255 v 0.8505 a 161.11125,161.11125 0 0 0 -5.319,-0.162 c -0.8055,0 -2.55375,0.0495 -5.238,0.162 v -0.8505 a 2.025,2.025 0 0 0 1.692,-0.6255 3.906,3.906 0 0 0 0.48375,-2.2815 v -12.555 a 4.68675,4.68675 0 0 0 -0.5445,-2.502 2.142,2.142 0 0 0 -1.953,-0.8505 3.5865,3.5865 0 0 0 -2.81925,1.35 4.914,4.914 0 0 0 -1.16775,3.32325 v 11.22525 a 3.90825,3.90825 0 0 0 0.48375,2.2815 2.025,2.025 0 0 0 1.692,0.6255 v 0.8505 a 135.49725,135.49725 0 0 0 -4.995,-0.162 c -0.8055,0 -2.6595,0.0495 -5.55975,0.162 v -0.8505 a 2.62575,2.62575 0 0 0 2.025,-0.6255 3.456,3.456 0 0 0 0.56475,-2.2815 v -12.71475 a 4.986,4.986 0 0 0 -0.56475,-2.7 2.25,2.25 0 0 0 -2.025,-0.8505 v -0.846 c 0.855,0.081 1.692,0.1215 2.4975,0.1215 a 25.2495,25.2495 0 0 0 5.8815,-0.56475 v 3.6315 a 6.68475,6.68475 0 0 1 6.60825,-3.75075 5.571,5.571 0 0 1 4.43025,1.575 z"
     data-name="Path 30"
     id="path845"
     style="stroke-width:2.25" />
  <path
     fill="#1c1300"
     d="m 97.596,65.198251 a 2.25,2.25 0 0 0 2.025,0.846 v 0.8505 a 25.776,25.776 0 0 0 -2.4975,-0.1215 25.24725,25.24725 0 0 0 -5.8815,0.56475 v -3.4695 a 5.1615,5.1615 0 0 1 -5.238,3.6315 7.3395,7.3395 0 0 1 -6.02325,-2.76525 12.9015,12.9015 0 0 1 -2.196,-8.325 14.06475,14.06475 0 0 1 1.1475,-5.9985 8.2305,8.2305 0 0 1 3.18375,-3.672 8.75475,8.75475 0 0 1 4.653,-1.233 6.0525,6.0525 0 0 1 4.473,1.53675 v -6.86475 a 4.83075,4.83075 0 0 0 -0.585,-2.7 2.25,2.25 0 0 0 -1.9935,-0.8505 v -0.85275 c 0.855,0.081 1.692,0.1215 2.4975,0.1215 a 25.848,25.848 0 0 0 5.8815,-0.56475 v 27.16875 a 4.986,4.986 0 0 0 0.5535,2.69775 z m -7.59375,-0.40275 a 4.14225,4.14225 0 0 0 1.2285,-2.6235 v -14.13 a 3.4245,3.4245 0 0 0 -2.94075,-1.37025 3.62475,3.62475 0 0 0 -3.303,2.4615 17.47575,17.47575 0 0 0 -1.125,7.3485 18.15975,18.15975 0 0 0 0.94725,7.101 3.1005,3.1005 0 0 0 2.8395,2.18025 3.34125,3.34125 0 0 0 2.3535,-0.963 z"
     data-name="Path 31"
     id="path847"
     style="stroke-width:2.25" />
  <path
     fill="#1c1300"
     d="m 109.683,63.180001 a 3.35925,3.35925 0 0 0 0.585,2.2815 2.6505,2.6505 0 0 0 1.9935,0.6255 v 0.846 a 168.6285,168.6285 0 0 0 -5.35725,-0.15525 c -0.837,0 -2.7,0.0495 -5.60025,0.15525 v -0.846 a 2.628,2.628 0 0 0 2.025,-0.6255 3.456,3.456 0 0 0 0.56475,-2.2815 v -12.7215 a 5.01075,5.01075 0 0 0 -0.56475,-2.7 2.25,2.25 0 0 0 -2.025,-0.846 v -0.846 c 0.86175,0.081 1.692,0.1215 2.4975,0.1215 a 25.23825,25.23825 0 0 0 5.8815,-0.56475 z m -0.4635,-26.70525 a 3.12975,3.12975 0 0 1 0,4.563 4.75875,4.75875 0 0 1 -5.3595,0 3.12975,3.12975 0 0 1 0,-4.563 4.75875,4.75875 0 0 1 5.3595,0 z"
     data-name="Path 32"
     id="path849"
     style="stroke-width:2.25" />
  <path
     fill="#1c1300"
     d="m 124.78725,45.882001 a 6.7185,6.7185 0 0 1 1.97325,0.87075 1.3275,1.3275 0 0 0 0.7245,0.27675 0.738,0.738 0 0 0 0.6255,-0.378 2.547,2.547 0 0 0 0.342,-1.11375 h 0.846 q -0.1665,2.05425 -0.162,7.1055 h -0.846 a 10.215,10.215 0 0 0 -1.59075,-4.46175 4.05,4.05 0 0 0 -3.56625,-1.8 2.925,2.925 0 0 0 -1.9935,0.69075 2.376,2.376 0 0 0 -0.78525,1.8945 3.348,3.348 0 0 0 0.927,2.367 20.63925,20.63925 0 0 0 2.90025,2.403 l 1.16775,0.846 a 21.08475,21.08475 0 0 1 3.627,3.30975 5.6025,5.6025 0 0 1 1.16775,3.636 5.1165,5.1165 0 0 1 -1.02825,3.15 6.46425,6.46425 0 0 1 -2.76075,2.09925 9.83475,9.83475 0 0 1 -3.825,0.7245 7.875,7.875 0 0 1 -3.78675,-0.846 20.061,20.061 0 0 0 -1.854,-0.8505 0.6165,0.6165 0 0 0 -0.70425,0.261 2.7855,2.7855 0 0 0 -0.4635,1.15425 h -0.846 q 0.1575,-2.304 0.162,-8.073 h 0.846 q 0.801,7.425 5.43825,7.425 a 2.97,2.97 0 0 0 1.9935,-0.70425 2.7,2.7 0 0 0 0.82575,-2.16 4.02525,4.02525 0 0 0 -0.504,-2.025 6.3495,6.3495 0 0 0 -1.269,-1.575 62.505,62.505 0 0 0 -2.29725,-1.899 q -1.8135,-1.45125 -2.76075,-2.34225 a 8.1945,8.1945 0 0 1 -1.611,-2.09925 5.517,5.517 0 0 1 -0.675,-2.7 4.79025,4.79025 0 0 1 2.025,-4.07475 8.0055,8.0055 0 0 1 4.91625,-1.49625 9.84375,9.84375 0 0 1 2.8215,0.38475 z"
     data-name="Path 33"
     id="path851"
     style="stroke-width:2.25" />
  <path
     fill="#1c1300"
     d="m 140.79375,46.068751 h 4.74975 v 0.801 h -4.74975 v 16.317 a 2.637,2.637 0 0 0 0.423,1.71225 1.638,1.638 0 0 0 1.35,0.504 q 1.737,0 2.745,-2.42325 l 0.69075,0.36225 a 5.57775,5.57775 0 0 1 -5.52375,4.16025 5.47875,5.47875 0 0 1 -4.03425,-1.37025 4.4235,4.4235 0 0 1 -1.1475,-2.1195 16.16625,16.16625 0 0 1 -0.3015,-3.49425 v -13.6485 h -3.375 v -0.801 h 3.375 v -5.3325 a 12.339,12.339 0 0 0 5.81175,-1.28925 z"
     data-name="Path 34"
     id="path853"
     style="stroke-width:2.25" />
  <path
     fill="#1c1300"
     d="m 155.16899,63.180001 a 3.3885,3.3885 0 0 0 0.57825,2.2815 2.6505,2.6505 0 0 0 1.9935,0.6255 v 0.846 a 167.58,167.58 0 0 0 -5.35275,-0.15525 c -0.83699,0 -2.69999,0.0495 -5.60024,0.15525 v -0.846 a 2.62125,2.62125 0 0 0 2.00925,-0.6255 3.4515,3.4515 0 0 0 0.56925,-2.2815 v -12.7215 a 5.00175,5.00175 0 0 0 -0.56925,-2.7 2.25,2.25 0 0 0 -2.00925,-0.846 v -0.846 c 0.85725,0.081 1.692,0.1215 2.493,0.1215 a 25.28775,25.28775 0 0 0 5.88824,-0.56475 z m -0.46348,-26.70525 a 3.15,3.15 0 0 1 0,4.563 4.76775,4.76775 0 0 1 -5.36401,0 3.15,3.15 0 0 1 0,-4.563 4.76775,4.76775 0 0 1 5.36401,0 z"
     data-name="Path 35"
     id="path855"
     style="stroke-width:2.25" />
  <path
     fill="#1c1300"
     d="m 0,33.025501 v 0.6435 h 0.32175 a 4.07025,4.07025 0 0 1 3.02625,1.575 10.2105,10.2105 0 0 1 1.45125,4.653 79.35525,79.35525 0 0 1 0.4185,9.4635 24.975,24.975 0 0 0 1.35,9.225 8.20575,8.20575 0 0 0 4.3515,4.617 21.096,21.096 0 0 0 8.34525,1.32525 v -1.224 a 4.635,4.635 0 0 1 -3.05775,-0.936 6.43275,6.43275 0 0 1 -1.32525,-3.717 77.92875,77.92875 0 0 1 -0.387,-9.3015 q 0,-7.875 -3.4155,-11.43225 a 17.8425,17.8425 0 0 0 -9.28575,-4.84425 l 0.261,-0.06525 z"
     data-name="Path 36"
     id="path857"
     style="stroke-width:2.25" />
  <path
     fill="#1c1300"
     d="m 183.58199,33.025501 0.26101,0.06525 a 17.8245,17.8245 0 0 0 -9.28575,4.84425 q -3.4155,3.5505 -3.4155,11.43225 a 79.34625,79.34625 0 0 1 -0.3825,9.3015 6.543,6.543 0 0 1 -1.32524,3.717 4.67775,4.67775 0 0 1 -3.06676,0.936 v 1.224 a 21.132,21.132 0 0 0 8.35425,-1.32525 8.23725,8.23725 0 0 0 4.3515,-4.617 25.08975,25.08975 0 0 0 1.35001,-9.225 79.569,79.569 0 0 1 0.41399,-9.4635 10.33425,10.33425 0 0 1 1.45126,-4.653 4.07925,4.07925 0 0 1 3.03075,-1.575 h 0.32175 v -0.6615 z"
     data-name="Path 37"
     id="path859"
     style="stroke-width:2.25" />
  <path
     fill="#1c1300"
     d="m 18.657,7.86375 a 23.54625,23.54625 0 0 0 -1.35,8.94825 80.028,80.028 0 0 1 -0.4185,9.524251 10.19025,10.19025 0 0 1 -1.45125,4.653 3.84525,3.84525 0 0 1 -3.02625,1.5165 h -0.32175 v 0.51975 H 14.157 a 17.775,17.775 0 0 0 9.02475,-4.74975 Q 26.595,24.75675 26.59725,16.81425 a 74.07675,74.07675 0 0 1 0.387,-9.0135 6.408,6.408 0 0 1 1.35,-3.7125 4.536,4.536 0 0 1 3.02625,-0.972 v -1.224 a 20.33775,20.33775 0 0 0 -8.325,1.3905 8.44425,8.44425 0 0 0 -4.3785,4.581 z"
     data-name="Path 38"
     id="path861"
     style="stroke-width:2.25" />
  <path
     fill="#1c1300"
     d="m 170.20575,30.989251 a 10.31625,10.31625 0 0 1 -1.45126,-4.653 A 79.7625,79.7625 0 0 1 168.3315,16.812 23.5665,23.5665 0 0 0 166.98149,7.86375 8.478,8.478 0 0 0 162.60074,3.2805 20.37825,20.37825 0 0 0 154.27574,1.89 v 1.224 a 4.55175,4.55175 0 0 1 3.03075,0.972 6.44625,6.44625 0 0 1 1.35,3.7125 74.358,74.358 0 0 1 0.3825,9.0135 q 0,7.94025 3.4245,11.461501 a 17.74125,17.74125 0 0 0 9.02475,4.74975 h 2.0655 v -0.51975 h -0.32175 a 3.85425,3.85425 0 0 1 -3.02624,-1.51425 z"
     data-name="Path 39"
     id="path863"
     style="stroke-width:2.25" />
</svg>
