<?xml version="1.0" encoding="UTF-8" standalone="no"?>
<svg
   xmlns:dc="http://purl.org/dc/elements/1.1/"
   xmlns:cc="http://creativecommons.org/ns#"
   xmlns:rdf="http://www.w3.org/1999/02/22-rdf-syntax-ns#"
   xmlns:svg="http://www.w3.org/2000/svg"
   xmlns="http://www.w3.org/2000/svg"
   xmlns:sodipodi="http://sodipodi.sourceforge.net/DTD/sodipodi-0.dtd"
   xmlns:inkscape="http://www.inkscape.org/namespaces/inkscape"
   data-name="logo - full"
   viewBox="0 0 82.507002 30.007298"
   version="1.1"
   id="svg865"
   sodipodi:docname="frontendisti.svg"
   width="82.507004"
   height="30.007298"
   inkscape:version="1.0.2 (e86c8708, 2021-01-15)">
  <metadata
     id="metadata871">
    <rdf:RDF>
      <cc:Work
         rdf:about="">
        <dc:format>image/svg+xml</dc:format>
        <dc:type
           rdf:resource="http://purl.org/dc/dcmitype/StillImage" />
        <dc:title></dc:title>
      </cc:Work>
    </rdf:RDF>
  </metadata>
  <defs
     id="defs869" />
  <sodipodi:namedview
     pagecolor="#ffffff"
     bordercolor="#666666"
     borderopacity="1"
     objecttolerance="10"
     gridtolerance="10"
     guidetolerance="10"
     inkscape:pageopacity="0"
     inkscape:pageshadow="2"
     inkscape:window-width="1382"
     inkscape:window-height="847"
     id="namedview867"
     showgrid="false"
     fit-margin-top="0"
     fit-margin-left="0"
     fit-margin-right="0"
     fit-margin-bottom="0"
     inkscape:zoom="8.6292571"
     inkscape:cx="41.255"
     inkscape:cy="15.001"
     inkscape:window-x="58"
     inkscape:window-y="25"
     inkscape:window-maximized="1"
     inkscape:current-layer="svg865" />
  <path
     fill="#1c1300"
     d="m 27.994,2.727 q 0,0.843 0.054,1.363 h -0.41 a 6.042,6.042 0 0 0 -1.074,-2.854 2.506,2.506 0 0 0 -2,-0.824 h -0.591 a 2.574,2.574 0 0 0 -0.806,0.089 0.543,0.543 0 0 0 -0.342,0.349 2.855,2.855 0 0 0 -0.09,0.835 v 4.521 h 0.627 a 1.653,1.653 0 0 0 1.444,-0.7 4.357,4.357 0 0 0 0.687,-1.667 h 0.414 c -0.038,0.5 -0.054,1.063 -0.054,1.688 v 0.859 c 0,0.611 0.034,1.459 0.107,2.549 H 25.538 Q 25.162,6.565 23.353,6.567 h -0.627 v 4.125 a 2.686,2.686 0 0 0 0.152,1.05 0.784,0.784 0 0 0 0.537,0.439 5.389,5.389 0 0 0 1.227,0.128 v 0.394 q -2.2,-0.054 -3.277,-0.054 -0.893,0 -2.256,0.036 l -0.573,0.018 v -0.36 a 3.073,3.073 0 0 0 0.868,-0.141 0.628,0.628 0 0 0 0.376,-0.414 3.475,3.475 0 0 0 0.1,-0.987 v -8.9 A 3.475,3.475 0 0 0 19.78,0.914 0.625,0.625 0 0 0 19.404,0.502 3.216,3.216 0 0 0 18.536,0.356 V 0 q 1.934,0.05 5.837,0.054 c 1.755,0 3,-0.02 3.742,-0.054 a 36.711,36.711 0 0 0 -0.121,2.727 z"
     data-name="Path 24"
     id="path833" />
  <path
     fill="#1c1300"
     d="M 36.338,3.661 A 1.749,1.749 0 0 1 36.75,4.829 1.545,1.545 0 0 1 36.365,5.915 1.306,1.306 0 0 1 35.353,6.336 1.416,1.416 0 0 1 34.386,6.023 1.062,1.062 0 0 1 34.028,5.188 1.628,1.628 0 0 1 34.816,3.788 0.844,0.844 0 0 0 34.601,3.768 0.905,0.905 0 0 0 34.315,3.806 1.7,1.7 0 0 0 33.16,4.63 2.646,2.646 0 0 0 32.685,6.103 v 4.754 a 1.4,1.4 0 0 0 0.4,1.148 2.034,2.034 0 0 0 1.28,0.325 v 0.376 a 3.452,3.452 0 0 1 -0.412,-0.02 c -1.218,-0.034 -2.03,-0.054 -2.435,-0.054 -0.322,0 -1.056,0.02 -2.2,0.054 a 2.651,2.651 0 0 1 -0.358,0.02 V 12.33 a 1.167,1.167 0 0 0 0.9,-0.28 1.532,1.532 0 0 0 0.251,-1.014 V 5.385 A 2.221,2.221 0 0 0 29.86,4.185 0.989,0.989 0 0 0 28.96,3.809 V 3.431 c 0.38,0.036 0.752,0.054 1.11,0.054 a 11.221,11.221 0 0 0 2.614,-0.251 v 1.67 a 3.04,3.04 0 0 1 0.985,-1.247 2.379,2.379 0 0 1 1.45,-0.477 1.512,1.512 0 0 1 1.219,0.481 z"
     data-name="Path 25"
     id="path835" />
  <path
     fill="#1c1300"
     d="m 44.915,4.352 a 6.523,6.523 0 0 1 0,7.438 5.025,5.025 0 0 1 -6.437,0 6.482,6.482 0 0 1 0,-7.438 5,5 0 0 1 6.437,0 z m -4.45,0.3 a 9.612,9.612 0 0 0 -0.457,3.418 9.507,9.507 0 0 0 0.457,3.409 c 0.3,0.743 0.712,1.115 1.227,1.115 0.515,0 0.936,-0.369 1.235,-1.1 A 9.719,9.719 0 0 0 43.375,8.074 9.6,9.6 0 0 0 42.918,4.647 Q 42.461,3.536 41.691,3.535 c -0.513,0 -0.921,0.374 -1.225,1.122 z"
     data-name="Path 26"
     id="path837" />
  <path
     fill="#1c1300"
     d="m 55.821,3.877 a 1.957,1.957 0 0 1 0.43,0.88 6.591,6.591 0 0 1 0.128,1.455 v 4.826 a 1.489,1.489 0 0 0 0.26,1.014 1.171,1.171 0 0 0 0.886,0.28 v 0.376 a 81.427,81.427 0 0 0 -2.364,-0.074 c -0.36,0 -1.135,0.027 -2.328,0.074 v -0.376 a 0.9,0.9 0 0 0 0.752,-0.28 1.749,1.749 0 0 0 0.215,-1.014 V 5.458 A 2.078,2.078 0 0 0 53.558,4.346 0.956,0.956 0 0 0 52.687,3.97 1.6,1.6 0 0 0 51.436,4.57 2.19,2.19 0 0 0 50.914,6.052 v 4.987 a 1.731,1.731 0 0 0 0.215,1.014 0.9,0.9 0 0 0 0.752,0.28 v 0.376 a 67.242,67.242 0 0 0 -2.218,-0.074 c -0.36,0 -1.184,0.027 -2.473,0.074 v -0.376 a 1.167,1.167 0 0 0 0.9,-0.28 1.532,1.532 0 0 0 0.251,-1.014 V 5.388 A 2.221,2.221 0 0 0 48.09,4.188 0.989,0.989 0 0 0 47.19,3.812 V 3.434 c 0.383,0.036 0.754,0.054 1.11,0.054 a 11.208,11.208 0 0 0 2.614,-0.251 v 1.616 a 2.97,2.97 0 0 1 2.939,-1.67 2.481,2.481 0 0 1 1.968,0.694 z"
     data-name="Path 27"
     id="path839" />
  <path
     fill="#1c1300"
     d="m 61.823,3.427 h 2.115 v 0.36 h -2.115 v 7.247 a 1.2,1.2 0 0 0 0.188,0.763 0.744,0.744 0 0 0 0.6,0.224 q 0.772,0 1.22,-1.077 l 0.3,0.163 A 2.471,2.471 0 0 1 61.68,12.954 2.427,2.427 0 0 1 59.887,12.343 1.92,1.92 0 0 1 59.377,11.403 7.021,7.021 0 0 1 59.243,9.85 V 3.786 h -1.5 v -0.36 h 1.5 V 1.058 a 5.477,5.477 0 0 0 2.578,-0.573 z"
     data-name="Path 28"
     id="path841" />
  <path
     fill="#1c1300"
     d="m 22.085,29.746 q -1.219,-0.057 -4.1,-0.054 -3.9,0 -5.837,0.054 v -0.36 a 3.156,3.156 0 0 0 0.868,-0.141 0.628,0.628 0 0 0 0.376,-0.414 3.478,3.478 0 0 0 0.1,-0.987 v -8.9 a 3.478,3.478 0 0 0 -0.1,-0.987 0.615,0.615 0 0 0 -0.376,-0.412 3.128,3.128 0 0 0 -0.868,-0.146 v -0.353 q 1.934,0.054 5.837,0.054 2.632,0 3.742,-0.054 -0.121,1.491 -0.123,2.655 a 10.063,10.063 0 0 0 0.054,1.222 h -0.413 a 5.092,5.092 0 0 0 -0.967,-2.693 2.526,2.526 0 0 0 -1.97,-0.772 h -0.732 a 2.585,2.585 0 0 0 -0.808,0.092 0.54,0.54 0 0 0 -0.34,0.349 2.847,2.847 0 0 0 -0.09,0.835 v 4.45 h 0.573 a 1.652,1.652 0 0 0 1.444,-0.7 4.374,4.374 0 0 0 0.687,-1.668 h 0.414 a 22.56,22.56 0 0 0 -0.054,1.685 v 0.862 c 0,0.609 0.034,1.459 0.107,2.549 h -0.414 q -0.376,-2.37 -2.185,-2.37 h -0.573 v 4.521 a 2.848,2.848 0 0 0 0.09,0.835 0.544,0.544 0 0 0 0.34,0.351 2.684,2.684 0 0 0 0.808,0.087 h 0.875 a 2.627,2.627 0 0 0 2.052,-0.868 5.832,5.832 0 0 0 1.1,-2.952 h 0.41 c -0.034,0.4 -0.054,0.9 -0.054,1.506 a 23.949,23.949 0 0 0 0.127,2.724 z"
     data-name="Path 29"
     id="path843" />
  <path
     fill="#1c1300"
     d="m 31.95,20.922 a 1.933,1.933 0 0 1 0.43,0.88 6.547,6.547 0 0 1 0.128,1.453 v 4.826 a 1.506,1.506 0 0 0 0.257,1.014 1.178,1.178 0 0 0 0.886,0.278 v 0.378 a 71.605,71.605 0 0 0 -2.364,-0.072 c -0.358,0 -1.135,0.022 -2.328,0.072 v -0.378 a 0.9,0.9 0 0 0 0.752,-0.278 1.736,1.736 0 0 0 0.215,-1.014 v -5.58 a 2.083,2.083 0 0 0 -0.242,-1.112 0.952,0.952 0 0 0 -0.868,-0.378 1.594,1.594 0 0 0 -1.253,0.6 2.184,2.184 0 0 0 -0.519,1.477 v 4.989 a 1.737,1.737 0 0 0 0.215,1.014 0.9,0.9 0 0 0 0.752,0.278 v 0.378 a 60.221,60.221 0 0 0 -2.22,-0.072 c -0.358,0 -1.182,0.022 -2.471,0.072 v -0.378 a 1.167,1.167 0 0 0 0.9,-0.278 1.536,1.536 0 0 0 0.251,-1.014 v -5.651 a 2.216,2.216 0 0 0 -0.251,-1.2 1,1 0 0 0 -0.9,-0.378 v -0.376 c 0.38,0.036 0.752,0.054 1.11,0.054 a 11.222,11.222 0 0 0 2.614,-0.251 v 1.614 a 2.971,2.971 0 0 1 2.937,-1.667 2.476,2.476 0 0 1 1.969,0.7 z"
     data-name="Path 30"
     id="path845" />
  <path
     fill="#1c1300"
     d="m 43.376,28.977 a 1,1 0 0 0 0.9,0.376 v 0.378 a 11.456,11.456 0 0 0 -1.11,-0.054 11.221,11.221 0 0 0 -2.614,0.251 V 28.386 A 2.294,2.294 0 0 1 38.224,30 a 3.262,3.262 0 0 1 -2.677,-1.229 5.734,5.734 0 0 1 -0.976,-3.7 6.251,6.251 0 0 1 0.51,-2.666 3.658,3.658 0 0 1 1.415,-1.632 3.891,3.891 0 0 1 2.068,-0.548 2.69,2.69 0 0 1 1.988,0.683 v -3.051 a 2.147,2.147 0 0 0 -0.26,-1.2 1,1 0 0 0 -0.886,-0.378 V 15.9 c 0.38,0.036 0.752,0.054 1.11,0.054 a 11.488,11.488 0 0 0 2.614,-0.251 v 12.075 a 2.216,2.216 0 0 0 0.246,1.199 z m -3.375,-0.179 a 1.841,1.841 0 0 0 0.546,-1.166 v -6.28 a 1.522,1.522 0 0 0 -1.307,-0.609 1.611,1.611 0 0 0 -1.468,1.094 7.767,7.767 0 0 0 -0.5,3.266 8.071,8.071 0 0 0 0.421,3.156 1.378,1.378 0 0 0 1.262,0.969 1.485,1.485 0 0 0 1.046,-0.428 z"
     data-name="Path 31"
     id="path847" />
  <path
     fill="#1c1300"
     d="m 48.748,28.08 a 1.493,1.493 0 0 0 0.26,1.014 1.178,1.178 0 0 0 0.886,0.278 v 0.376 a 74.946,74.946 0 0 0 -2.381,-0.069 c -0.372,0 -1.2,0.022 -2.489,0.069 v -0.376 a 1.168,1.168 0 0 0 0.9,-0.278 1.536,1.536 0 0 0 0.251,-1.014 v -5.654 a 2.227,2.227 0 0 0 -0.251,-1.2 1,1 0 0 0 -0.9,-0.376 v -0.376 c 0.383,0.036 0.752,0.054 1.11,0.054 a 11.217,11.217 0 0 0 2.614,-0.251 z M 48.542,16.211 a 1.391,1.391 0 0 1 0,2.028 2.115,2.115 0 0 1 -2.382,0 1.391,1.391 0 0 1 0,-2.028 2.115,2.115 0 0 1 2.382,0 z"
     data-name="Path 32"
     id="path849" />
  <path
     fill="#1c1300"
     d="m 55.461,20.392 a 2.986,2.986 0 0 1 0.877,0.387 0.59,0.59 0 0 0 0.322,0.123 0.328,0.328 0 0 0 0.278,-0.168 1.132,1.132 0 0 0 0.152,-0.495 h 0.376 q -0.074,0.913 -0.072,3.158 h -0.376 a 4.54,4.54 0 0 0 -0.707,-1.983 1.8,1.8 0 0 0 -1.585,-0.8 1.3,1.3 0 0 0 -0.886,0.307 1.056,1.056 0 0 0 -0.349,0.842 1.488,1.488 0 0 0 0.412,1.052 9.173,9.173 0 0 0 1.289,1.068 l 0.519,0.376 a 9.371,9.371 0 0 1 1.612,1.471 2.49,2.49 0 0 1 0.519,1.616 2.274,2.274 0 0 1 -0.457,1.4 2.873,2.873 0 0 1 -1.227,0.933 4.371,4.371 0 0 1 -1.7,0.322 3.5,3.5 0 0 1 -1.683,-0.376 8.916,8.916 0 0 0 -0.824,-0.378 0.274,0.274 0 0 0 -0.313,0.116 1.238,1.238 0 0 0 -0.206,0.513 h -0.376 q 0.07,-1.024 0.072,-3.588 h 0.376 q 0.356,3.3 2.417,3.3 a 1.32,1.32 0 0 0 0.886,-0.313 1.2,1.2 0 0 0 0.367,-0.96 1.789,1.789 0 0 0 -0.224,-0.9 2.822,2.822 0 0 0 -0.564,-0.7 27.78,27.78 0 0 0 -1.021,-0.844 Q 52.559,25.226 52.138,24.83 a 3.642,3.642 0 0 1 -0.716,-0.933 2.452,2.452 0 0 1 -0.3,-1.2 2.129,2.129 0 0 1 0.9,-1.811 3.558,3.558 0 0 1 2.185,-0.665 4.375,4.375 0 0 1 1.254,0.171 z"
     data-name="Path 33"
     id="path851" />
  <path
     fill="#1c1300"
     d="m 62.575,20.475 h 2.111 v 0.356 h -2.111 v 7.252 a 1.172,1.172 0 0 0 0.188,0.761 0.728,0.728 0 0 0 0.6,0.224 q 0.772,0 1.22,-1.077 l 0.307,0.161 a 2.479,2.479 0 0 1 -2.455,1.849 2.435,2.435 0 0 1 -1.793,-0.609 1.966,1.966 0 0 1 -0.51,-0.942 7.185,7.185 0 0 1 -0.134,-1.553 v -6.066 h -1.5 v -0.356 h 1.5 v -2.37 a 5.484,5.484 0 0 0 2.583,-0.573 z"
     data-name="Path 34"
     id="path853" />
  <path
     fill="#1c1300"
     d="m 68.964,28.08 a 1.506,1.506 0 0 0 0.257,1.014 1.178,1.178 0 0 0 0.886,0.278 v 0.376 a 74.48,74.48 0 0 0 -2.379,-0.069 c -0.372,0 -1.2,0.022 -2.489,0.069 v -0.376 a 1.165,1.165 0 0 0 0.893,-0.278 1.534,1.534 0 0 0 0.253,-1.014 v -5.654 a 2.223,2.223 0 0 0 -0.253,-1.2 1,1 0 0 0 -0.893,-0.376 v -0.376 c 0.381,0.036 0.752,0.054 1.108,0.054 a 11.239,11.239 0 0 0 2.617,-0.251 z M 68.758,16.211 a 1.4,1.4 0 0 1 0,2.028 2.119,2.119 0 0 1 -2.384,0 1.4,1.4 0 0 1 0,-2.028 2.119,2.119 0 0 1 2.384,0 z"
     data-name="Path 35"
     id="path855" />
  <path
     fill="#1c1300"
     d="m 0,14.678 v 0.286 h 0.143 a 1.809,1.809 0 0 1 1.345,0.7 4.538,4.538 0 0 1 0.645,2.068 35.269,35.269 0 0 1 0.186,4.206 11.1,11.1 0 0 0 0.6,4.1 3.647,3.647 0 0 0 1.934,2.052 9.376,9.376 0 0 0 3.709,0.589 V 28.135 A 2.06,2.06 0 0 1 7.203,27.719 2.859,2.859 0 0 1 6.614,26.067 34.635,34.635 0 0 1 6.442,21.933 q 0,-3.5 -1.518,-5.081 A 7.93,7.93 0 0 0 0.797,14.699 L 0.913,14.67 Z"
     data-name="Path 36"
     id="path857" />
  <path
     fill="#1c1300"
     d="m 81.592,14.678 0.116,0.029 a 7.922,7.922 0 0 0 -4.127,2.153 q -1.518,1.578 -1.518,5.081 a 35.265,35.265 0 0 1 -0.17,4.134 2.908,2.908 0 0 1 -0.589,1.652 2.079,2.079 0 0 1 -1.363,0.416 v 0.544 a 9.392,9.392 0 0 0 3.713,-0.589 3.661,3.661 0 0 0 1.934,-2.052 11.151,11.151 0 0 0 0.6,-4.1 35.364,35.364 0 0 1 0.184,-4.206 4.593,4.593 0 0 1 0.645,-2.068 1.813,1.813 0 0 1 1.347,-0.7 h 0.143 v -0.294 z"
     data-name="Path 37"
     id="path859" />
  <path
     fill="#1c1300"
     d="m 8.292,3.495 a 10.465,10.465 0 0 0 -0.6,3.977 35.568,35.568 0 0 1 -0.186,4.233 4.529,4.529 0 0 1 -0.645,2.068 1.709,1.709 0 0 1 -1.345,0.674 H 5.373 v 0.231 h 0.919 a 7.9,7.9 0 0 0 4.011,-2.111 q 1.517,-1.564 1.518,-5.094 a 32.923,32.923 0 0 1 0.172,-4.006 2.848,2.848 0 0 1 0.6,-1.65 2.016,2.016 0 0 1 1.345,-0.432 V 0.841 a 9.039,9.039 0 0 0 -3.7,0.618 3.753,3.753 0 0 0 -1.946,2.036 z"
     data-name="Path 38"
     id="path861" />
  <path
     fill="#1c1300"
     d="M 75.647,13.773 A 4.585,4.585 0 0 1 75.002,11.705 35.45,35.45 0 0 1 74.814,7.472 10.474,10.474 0 0 0 74.214,3.495 3.768,3.768 0 0 0 72.267,1.458 9.057,9.057 0 0 0 68.567,0.84 v 0.544 a 2.023,2.023 0 0 1 1.347,0.432 2.865,2.865 0 0 1 0.6,1.65 33.048,33.048 0 0 1 0.17,4.006 q 0,3.529 1.522,5.094 a 7.885,7.885 0 0 0 4.011,2.111 h 0.918 v -0.231 h -0.143 a 1.713,1.713 0 0 1 -1.345,-0.673 z"
     data-name="Path 39"
     id="path863" />
</svg>
