<?xml version="1.0" encoding="UTF-8"?>
<svg id="uuid-1bde7fb1-d04c-4547-8329-d1beb39a000c" width="1063.1" height="175.54" data-name="Vrstva 1" version="1.1" viewBox="0 0 1063.1 175.54" xmlns="http://www.w3.org/2000/svg">
 <defs id="defs134">
  <style id="style132">.uuid-76527886-ccc3-4000-8b45-ad77c3684e44 {
        fill: #e54200;
      }

      .uuid-96bbd035-2589-45af-b6c5-c97753e0fe77 {
        fill: #3b2578;
      }

      .uuid-026f726d-7915-406e-a624-c4e0c79602dd {
        fill: #24211d;
      }

      .uuid-c37149df-592c-4dc8-8b54-ec7550591c8b {
        fill: #009c48;
      }</style>
 </defs>
 <path id="path136" class="uuid-c37149df-592c-4dc8-8b54-ec7550591c8b" d="m13.64 117.73c-4.2 2.1-9.45 1.05-12.59-3.15-2.1-5.26-1.05-10.52 3.15-12.62 11.54-7.36 24.14-10.51 36.73-10.51 26.24 0 52.47 12.61 66.12 37.84 6.3 10.51 9.45 24.18 9.45 36.79 0 5.26-4.2 9.46-9.45 9.46s-9.45-4.2-9.45-9.46c0-9.46-2.1-19.97-6.3-28.38-10.49-17.87-30.43-28.38-49.32-27.33-10.49 0-19.94 2.1-28.34 7.36z"/>
 <path id="path138" class="uuid-96bbd035-2589-45af-b6c5-c97753e0fe77" d="m97.6 9.46c0-5.26 4.2-9.46 9.45-9.46 4.2 0 8.4 4.2 8.4 9.46 0 12.61-2.1 25.23-8.4 36.79-12.59 23.12-37.78 38.89-65.07 38.89-13.64 0-26.24-4.2-36.73-10.51-5.25-2.1-6.3-7.36-4.2-12.61 3.15-4.2 8.4-5.26 12.59-3.15 8.4 4.2 17.84 7.36 28.34 7.36 20.99 0 38.83-11.56 48.28-28.38 5.25-9.46 7.35-18.92 7.35-28.38z"/>
 <path id="path140" class="uuid-76527886-ccc3-4000-8b45-ad77c3684e44" d="m149.02 135.59c4.2 3.15 6.3 8.41 3.15 13.66-2.1 4.2-8.4 5.26-12.59 3.15-11.54-7.36-20.99-15.77-27.29-27.33-13.64-22.07-14.69-51.5 0-75.68 6.3-10.51 15.74-19.97 27.29-26.28 4.2-3.15 9.45-1.05 12.59 3.15 2.1 4.2 1.05 10.51-3.15 12.61-8.4 5.26-15.74 11.56-20.99 19.97-10.49 17.87-9.45 39.94 0 56.76 5.25 8.41 12.59 15.77 20.99 19.97z"/>
 <path id="path142" class="uuid-026f726d-7915-406e-a624-c4e0c79602dd" d="m245.57 65.17c-4.2-6.31-8.4-10.51-13.64-13.66-6.3-3.15-11.54-4.2-18.89-4.2-11.54 0-20.99 3.15-28.34 11.56-7.35 7.36-10.49 17.87-10.49 29.43 0 6.31 1.05 11.56 3.15 15.77 2.1 5.26 4.2 9.46 8.4 13.66 3.15 3.15 7.35 6.31 12.59 8.41 4.2 2.1 9.45 3.15 14.69 3.15 10.49 0 18.89-3.15 25.19-9.46s10.49-14.72 10.49-24.18h-32.53v-7.36h41.98v1.05c0 14.72-4.2 26.28-12.59 34.69-8.4 8.41-18.89 12.61-33.58 12.61-13.64 0-25.19-4.2-33.58-13.66-8.4-8.41-13.64-21.02-13.64-34.69 0-7.36 1.05-13.66 4.2-18.92 2.1-6.31 5.25-11.56 9.45-15.77 4.2-5.26 9.45-8.41 14.69-10.51 5.25-3.15 11.54-4.2 18.89-4.2 9.45 0 17.84 2.1 24.14 5.26s11.54 8.41 15.74 14.72l-6.3 6.31zm29.39 69.37v-93.55h8.4v85.14h32.53v8.41zm65.07-38.89h32.53l-15.74-40.99zm-24.14 38.89 40.93-96.7 38.83 96.7h-8.4l-12.59-31.53h-37.78l-11.54 31.53zm90.25 0v-96.7l66.12 76.73v-73.58h7.35v95.65l-65.07-77.78v75.68zm171.06-76.73c-4.2-3.15-9.45-6.31-13.64-8.41-5.25-2.1-10.49-3.15-15.74-3.15-11.54 0-20.99 4.2-29.39 11.56-7.35 7.36-10.49 17.87-10.49 30.48 0 5.26 1.05 11.56 2.1 15.77 2.1 5.26 5.25 9.46 8.4 13.66 4.2 3.15 8.4 6.31 13.64 8.41 4.2 2.1 9.45 3.15 14.69 3.15s10.49-1.05 15.74-3.15 9.45-4.2 14.69-8.41v10.51c-5.25 2.1-9.45 4.2-14.69 6.31-5.25 1.05-10.49 2.1-14.69 2.1-7.35 0-13.64-1.05-19.94-3.15-6.3-3.15-11.54-6.31-15.74-10.51s-7.35-9.46-10.49-15.77c-2.1-6.31-3.15-12.61-3.15-18.92 0-7.36 1.05-13.66 4.2-19.97 2.1-6.31 5.25-11.56 9.45-15.77 5.25-4.2 10.49-7.36 15.74-9.46 6.3-3.15 12.59-4.2 19.94-4.2 5.25 0 10.49 1.05 15.74 3.15 5.25 1.05 9.45 4.2 13.64 7.36v8.41zm18.89 76.73v-93.55h45.13v8.41h-36.73v28.38h36.73v8.41h-36.73v39.94h36.73v8.41zm145.88 3.15-32.53-74.63-7.35 71.48h-8.4l12.59-96.7 35.68 81.99 36.73-81.99 11.54 96.7h-8.4l-7.35-71.48-32.53 74.63zm66.12-3.15v-93.55h46.18v8.41h-37.78v28.38h37.78v8.41h-37.78v39.94h37.78v8.41zm74.51-7.36h12.59c9.45 0 15.74-1.05 19.94-2.1s7.35-3.15 10.49-5.26c3.15-4.2 6.3-8.41 8.4-13.66 2.1-5.26 3.15-11.56 3.15-18.92 0-6.31-1.05-12.61-3.15-17.87-2.1-6.31-5.25-10.51-8.4-13.66s-7.35-4.2-11.54-5.26c-4.2-2.1-11.54-2.1-22.04-2.1h-9.45v78.83zm-8.4 7.36v-93.55h14.69c12.59 0 22.04 1.05 27.29 2.1s10.49 3.15 13.64 6.31c5.25 4.2 9.45 9.46 12.59 15.77 2.1 7.36 4.2 14.72 4.2 23.12 0 7.36-2.1 14.72-4.2 22.07-3.15 6.31-7.35 11.56-11.54 14.72-4.2 3.15-9.45 6.31-14.69 7.36-4.2 1.05-12.59 2.1-24.14 2.1zm90.25 0v-93.55h8.4v93.55zm43.03-38.89h32.53l-15.74-40.99zm-24.14 38.89 40.93-96.7 38.83 96.7h-8.4l-12.59-31.53h-37.78l-11.54 31.53z"/>
</svg>
