<?xml version="1.0" encoding="UTF-8" standalone="no"?>
<svg
   version="1.1"
   x="0px"
   y="0px"
   viewBox="0 0 567.98999 92.940004"
   xml:space="preserve"
   id="svg66"
   sodipodi:docname="grafana.svg"
   width="567.98999"
   height="92.940002"
   inkscape:version="1.1 (c4e8f9e, 2021-05-24)"
   xmlns:inkscape="http://www.inkscape.org/namespaces/inkscape"
   xmlns:sodipodi="http://sodipodi.sourceforge.net/DTD/sodipodi-0.dtd"
   xmlns="http://www.w3.org/2000/svg"
   xmlns:svg="http://www.w3.org/2000/svg"><defs
   id="defs70" /><sodipodi:namedview
   id="namedview68"
   pagecolor="#ffffff"
   bordercolor="#666666"
   borderopacity="1.0"
   inkscape:pageshadow="2"
   inkscape:pageopacity="0.0"
   inkscape:pagecheckerboard="0"
   showgrid="false"
   fit-margin-top="0"
   fit-margin-left="0"
   fit-margin-right="0"
   fit-margin-bottom="0"
   inkscape:zoom="2.028169"
   inkscape:cx="514.75"
   inkscape:cy="88.75"
   inkscape:window-width="1382"
   inkscape:window-height="847"
   inkscape:window-x="58"
   inkscape:window-y="25"
   inkscape:window-maximized="1"
   inkscape:current-layer="svg66" />
<style
   type="text/css"
   id="style9">
	.st0{fill:#0a0a0a;}
	.st1{fill:url(#SVGID_1_);}
	.st2{fill:url(#SVGID_2_);}
	.st3{fill:url(#SVGID_3_);}
	.st4{fill:url(#SVGID_4_);}
	.st5{fill:url(#SVGID_5_);}
</style>
<g
   id="g64">
	<g
   id="g25">
		<path
   class="st0"
   d="m 160.69,50.13 c -0.64,16.22 -13.42,28.85 -29.33,28.85 -16.78,0 -29.25,-13.58 -29.25,-29.97 0,-16.54 13.51,-30.13 29.97,-30.13 7.43,0 14.7,3.2 20.86,8.95 l -4.79,5.91 c -4.71,-4.08 -10.39,-6.87 -16.06,-6.87 -12.07,0 -21.97,9.91 -21.97,22.13 0,12.39 9.35,21.98 21.26,21.98 10.71,0 19.1,-7.83 20.78,-17.9 h -24.29 v -7.11 h 32.84 v 4.16 z"
   id="path11" />
		<path
   class="st0"
   d="m 188.57,46.22 h -4.48 c -4.94,0 -8.95,4.01 -8.95,8.95 V 78.5 h -7.99 V 38.55 h 6.55 v 3.36 c 2.16,-2.16 5.59,-3.36 9.43,-3.36 h 8.63 z"
   id="path13" />
		<path
   class="st0"
   d="m 232.12,78.5 h -6.79 v -5.03 c -5.25,5.13 -13.54,7.59 -21.93,3.91 -6.22,-2.73 -10.85,-8.4 -12.08,-15.09 -2.38,-12.92 7.56,-24.38 20.26,-24.38 5.35,0 10.15,2.16 13.66,5.67 v -5.03 h 6.87 V 78.5 Z m -8.18,-17.1 c 1.89,-8.12 -4.26,-15.5 -12.28,-15.5 -6.95,0 -12.55,5.67 -12.55,12.55 0,7.77 6.83,13.79 14.78,12.43 4.9,-0.84 8.93,-4.64 10.05,-9.48 z"
   id="path15" />
		<path
   class="st0"
   d="m 248.22,36.31 v 2.24 h 12.71 v 7.03 H 248.22 V 78.5 h -7.91 V 36.55 c 0,-8.79 6.31,-13.98 14.22,-13.98 h 9.59 l -3.2,7.51 h -6.39 c -3.51,0 -6.31,2.79 -6.31,6.23 z"
   id="path17" />
		<path
   class="st0"
   d="m 303.28,78.5 h -6.79 v -5.03 c -5.25,5.13 -13.54,7.59 -21.93,3.91 -6.22,-2.73 -10.85,-8.4 -12.08,-15.09 -2.38,-12.92 7.56,-24.38 20.26,-24.38 5.35,0 10.15,2.16 13.66,5.67 v -5.03 h 6.87 V 78.5 Z m -8.17,-17.1 c 1.89,-8.12 -4.26,-15.5 -12.28,-15.5 -6.95,0 -12.55,5.67 -12.55,12.55 0,7.77 6.83,13.79 14.78,12.43 4.9,-0.84 8.92,-4.64 10.05,-9.48 z"
   id="path19" />
		<path
   class="st0"
   d="M 345.96,54.85 V 78.5 h -7.99 V 54.85 c 0,-4.95 -4.08,-8.95 -8.95,-8.95 -5.03,0 -9.03,4 -9.03,8.95 V 78.5 H 312 V 38.55 h 6.63 v 3.44 c 2.88,-2.56 6.71,-4.07 10.71,-4.07 9.27,-0.01 16.62,7.58 16.62,16.93 z"
   id="path21" />
		<path
   class="st0"
   d="m 392.95,78.5 h -6.79 v -5.03 c -5.25,5.13 -13.54,7.59 -21.93,3.91 -6.22,-2.73 -10.85,-8.4 -12.08,-15.09 -2.38,-12.92 7.56,-24.38 20.26,-24.38 5.35,0 10.15,2.16 13.66,5.67 v -5.03 h 6.87 V 78.5 Z m -8.17,-17.1 c 1.89,-8.12 -4.26,-15.5 -12.28,-15.5 -6.95,0 -12.55,5.67 -12.55,12.55 0,7.77 6.83,13.79 14.78,12.43 4.9,-0.84 8.92,-4.64 10.05,-9.48 z"
   id="path23" />
	</g>
	<g
   id="g55">
		<linearGradient
   id="SVGID_1_"
   gradientUnits="userSpaceOnUse"
   x1="432.5303"
   y1="105.7252"
   x2="432.5303"
   y2="21.687799">
			<stop
   offset="0"
   style="stop-color:#FFF100"
   id="stop27" />
			<stop
   offset="1"
   style="stop-color:#F05A28"
   id="stop29" />
		</linearGradient>
		<path
   class="st1"
   d="M 447.6,78.5 H 417.46 V 19.02 h 8.04 v 51.36 h 22.1 z"
   id="path32"
   style="fill:url(#SVGID_1_)" />
		<linearGradient
   id="SVGID_2_"
   gradientUnits="userSpaceOnUse"
   x1="469.66199"
   y1="105.7252"
   x2="469.66199"
   y2="21.687799">
			<stop
   offset="0"
   style="stop-color:#FFF100"
   id="stop34" />
			<stop
   offset="1"
   style="stop-color:#F05A28"
   id="stop36" />
		</linearGradient>
		<path
   class="st2"
   d="m 490.36,78.5 h -6.83 v -5.06 c -3.54,3.46 -8.44,5.71 -13.82,5.71 -11.49,0 -20.74,-9.32 -20.74,-20.82 0,-11.33 9.24,-20.66 20.74,-20.66 5.39,0 10.21,2.17 13.74,5.71 v -5.06 h 6.91 z m -7.88,-20.18 c 0,-6.91 -5.63,-12.62 -12.7,-12.62 -6.99,0 -12.62,5.71 -12.62,12.62 0,7.07 5.63,12.7 12.62,12.7 7.08,0 12.7,-5.62 12.7,-12.7 z"
   id="path39"
   style="fill:url(#SVGID_2_)" />
		<linearGradient
   id="SVGID_3_"
   gradientUnits="userSpaceOnUse"
   x1="517.80487"
   y1="105.7252"
   x2="517.80487"
   y2="21.687799">
			<stop
   offset="0"
   style="stop-color:#FFF100"
   id="stop41" />
			<stop
   offset="1"
   style="stop-color:#F05A28"
   id="stop43" />
		</linearGradient>
		<path
   class="st3"
   d="m 538.5,58.4 c 0,11.41 -9.32,20.74 -20.73,20.74 -5.39,0 -10.37,-2.25 -13.91,-5.71 v 5.06 h -6.75 V 22.24 h 7.96 v 20.25 c 3.3,-2.97 7.8,-4.82 12.7,-4.82 11.41,0 20.73,9.24 20.73,20.73 z m -8.2,0 c 0,-6.99 -5.71,-12.62 -12.62,-12.62 -6.91,0 -12.62,5.63 -12.62,12.62 0,6.91 5.71,12.54 12.62,12.54 6.91,0 12.62,-5.62 12.62,-12.54 z"
   id="path46"
   style="fill:url(#SVGID_3_)" />
		<linearGradient
   id="SVGID_4_"
   gradientUnits="userSpaceOnUse"
   x1="554.37482"
   y1="105.7252"
   x2="554.37482"
   y2="21.687799">
			<stop
   offset="0"
   style="stop-color:#FFF100"
   id="stop48" />
			<stop
   offset="1"
   style="stop-color:#F05A28"
   id="stop50" />
		</linearGradient>
		<path
   class="st4"
   d="m 565.99,41.2 -3.54,5.87 c -1.69,-1.04 -4.58,-2.65 -7.8,-2.65 -3.05,0 -5.79,1.53 -5.79,4.02 0,2.73 3.13,3.78 7.07,5.22 6.43,2.25 12.06,6.59 12.06,13.18 0,6.67 -5.71,12.3 -13.9,12.3 -4.98,0 -9.97,-2.01 -13.34,-4.1 l 3.14,-6.67 c 2.33,1.37 6.67,3.05 9.97,3.05 4.02,0 5.79,-2.41 5.79,-4.74 0,-2.73 -2.49,-4.26 -8.04,-6.43 -4.02,-1.61 -10.53,-4.26 -10.53,-11.41 0,-6.67 5.71,-11.17 13.34,-11.17 4.5,0 8.19,1.52 11.57,3.53 z"
   id="path53"
   style="fill:url(#SVGID_4_)" />
	</g>
	<linearGradient
   id="SVGID_5_"
   gradientUnits="userSpaceOnUse"
   x1="42.774601"
   y1="113.8217"
   x2="42.774601"
   y2="28.9256">
		<stop
   offset="0"
   style="stop-color:#FFF100"
   id="stop57" />
		<stop
   offset="1"
   style="stop-color:#F05A28"
   id="stop59" />
	</linearGradient>
	<path
   class="st5"
   d="M 85.43,41 C 85.29,39.44 85.02,37.64 84.5,35.65 83.98,33.67 83.21,31.5 82.1,29.24 80.97,27 79.5,24.66 77.6,22.4 c -0.74,-0.89 -1.55,-1.76 -2.43,-2.62 1.31,-5.2 -1.59,-9.7 -1.59,-9.7 -5,-0.31 -8.18,1.55 -9.36,2.41 -0.2,-0.08 -0.39,-0.17 -0.59,-0.25 C 62.78,11.89 61.9,11.57 61,11.29 60.1,11.01 59.18,10.75 58.24,10.52 57.3,10.3 56.34,10.11 55.37,9.96 55.2,9.93 55.03,9.91 54.86,9.89 52.68,2.91 46.41,0 46.41,0 39.43,4.43 38.1,10.63 38.1,10.63 c 0,0 -0.03,0.14 -0.07,0.37 -0.39,0.11 -0.77,0.22 -1.16,0.34 -0.54,0.16 -1.06,0.36 -1.6,0.55 -0.53,0.21 -1.06,0.41 -1.59,0.64 -1.05,0.45 -2.1,0.96 -3.12,1.53 -0.99,0.56 -1.96,1.17 -2.91,1.83 -0.14,-0.06 -0.24,-0.11 -0.24,-0.11 -9.67,-3.69 -18.26,0.75 -18.26,0.75 -0.78,10.29 3.86,16.77 4.78,17.94 -0.23,0.64 -0.44,1.28 -0.64,1.93 -0.72,2.33 -1.25,4.72 -1.58,7.2 -0.05,0.35 -0.09,0.71 -0.13,1.07 C 2.65,49.08 0,58.13 0,58.13 c 7.46,8.58 16.15,9.11 16.15,9.11 0.01,-0.01 0.02,-0.01 0.02,-0.02 1.11,1.97 2.39,3.85 3.82,5.6 0.6,0.73 1.24,1.44 1.89,2.12 -2.72,7.77 0.38,14.25 0.38,14.25 8.3,0.31 13.76,-3.63 14.9,-4.54 0.83,0.28 1.66,0.53 2.51,0.75 2.55,0.66 5.16,1.04 7.77,1.16 0.65,0.03 1.3,0.04 1.96,0.04 h 0.32 l 0.21,-0.01 0.41,-0.01 0.41,-0.02 0.01,0.01 c 3.91,5.58 10.79,6.37 10.79,6.37 4.89,-5.16 5.17,-10.27 5.17,-11.38 v 0 c 0,0 0,-0.04 0,-0.07 0,-0.09 0,-0.16 0,-0.16 0,0 0,0 0,0 0,-0.08 -0.01,-0.15 -0.01,-0.24 1.03,-0.72 2.01,-1.49 2.93,-2.32 1.96,-1.77 3.67,-3.79 5.09,-5.96 0.13,-0.2 0.26,-0.41 0.39,-0.62 5.54,0.32 9.44,-3.43 9.44,-3.43 -0.92,-5.77 -4.21,-8.58 -4.89,-9.12 v 0 c 0,0 -0.03,-0.02 -0.07,-0.05 -0.04,-0.03 -0.06,-0.05 -0.06,-0.05 0,0 0,0 0,0 -0.04,-0.02 -0.08,-0.05 -0.12,-0.08 0.03,-0.35 0.06,-0.69 0.08,-1.04 0.04,-0.62 0.06,-1.24 0.06,-1.86 V 56.1 55.87 55.75 c 0,-0.16 0,-0.1 0,-0.16 L 79.54,55.2 79.51,54.68 C 79.5,54.5 79.49,54.34 79.47,54.18 79.46,54.02 79.44,53.86 79.42,53.7 L 79.36,53.22 79.29,52.74 C 79.2,52.11 79.07,51.48 78.93,50.85 78.35,48.36 77.38,46 76.1,43.88 c -1.28,-2.12 -2.88,-4 -4.67,-5.58 -1.8,-1.59 -3.81,-2.86 -5.92,-3.81 -2.11,-0.95 -4.33,-1.56 -6.54,-1.84 -1.1,-0.14 -2.21,-0.2 -3.3,-0.19 l -0.41,0.01 h -0.1 c -0.03,0 -0.15,0 -0.14,0 l -0.17,0.01 -0.4,0.03 c -0.15,0.01 -0.31,0.02 -0.45,0.04 -0.56,0.05 -1.12,0.13 -1.66,0.24 -2.19,0.41 -4.26,1.2 -6.09,2.29 -1.82,1.09 -3.41,2.46 -4.7,4 -1.29,1.55 -2.29,3.26 -2.98,5.03 -0.69,1.77 -1.07,3.6 -1.18,5.38 -0.03,0.44 -0.04,0.89 -0.03,1.32 0,0.11 0,0.22 0.01,0.33 l 0.01,0.36 c 0.02,0.21 0.03,0.43 0.05,0.64 0.09,0.9 0.25,1.76 0.49,2.6 0.48,1.66 1.25,3.17 2.21,4.45 0.95,1.28 2.09,2.34 3.3,3.17 1.21,0.83 2.5,1.42 3.78,1.79 1.28,0.38 2.55,0.54 3.75,0.54 0.15,0 0.3,0 0.45,-0.01 0.08,0 0.16,-0.01 0.24,-0.01 0.08,0 0.16,-0.01 0.24,-0.01 0.13,-0.01 0.25,-0.03 0.38,-0.04 0.03,0 0.07,-0.01 0.11,-0.01 l 0.12,-0.02 c 0.08,-0.01 0.15,-0.02 0.23,-0.03 0.16,-0.02 0.29,-0.05 0.44,-0.08 0.14,-0.03 0.28,-0.05 0.42,-0.09 0.28,-0.06 0.54,-0.14 0.8,-0.23 0.52,-0.17 1.01,-0.38 1.47,-0.61 0.46,-0.24 0.88,-0.5 1.27,-0.77 0.11,-0.08 0.22,-0.16 0.33,-0.25 0.42,-0.33 0.49,-0.94 0.15,-1.35 -0.29,-0.36 -0.8,-0.45 -1.2,-0.23 -0.1,0.05 -0.2,0.11 -0.3,0.16 -0.35,0.17 -0.71,0.32 -1.1,0.45 -0.39,0.12 -0.79,0.22 -1.21,0.3 -0.21,0.03 -0.42,0.06 -0.64,0.08 -0.11,0.01 -0.22,0.02 -0.32,0.02 -0.11,0 -0.22,0.01 -0.32,0.01 -0.1,0 -0.21,0 -0.31,-0.01 -0.13,-0.01 -0.26,-0.01 -0.39,-0.02 0,0 -0.07,0 -0.01,0 h -0.04 l -0.09,-0.01 c -0.06,-0.01 -0.12,-0.01 -0.17,-0.02 -0.12,-0.01 -0.23,-0.03 -0.35,-0.04 -0.94,-0.13 -1.89,-0.4 -2.8,-0.82 -0.92,-0.41 -1.8,-0.99 -2.59,-1.7 -0.79,-0.71 -1.48,-1.57 -2.02,-2.54 -0.54,-0.97 -0.92,-2.04 -1.1,-3.17 -0.09,-0.56 -0.13,-1.15 -0.11,-1.72 0.01,-0.16 0.01,-0.31 0.02,-0.47 0,0.04 0,-0.02 0,-0.03 v -0.06 l 0.01,-0.12 c 0.01,-0.08 0.01,-0.15 0.02,-0.23 0.03,-0.31 0.08,-0.62 0.13,-0.93 0.43,-2.46 1.66,-4.86 3.57,-6.68 0.48,-0.45 0.99,-0.88 1.54,-1.25 0.55,-0.38 1.13,-0.71 1.73,-0.99 0.61,-0.28 1.24,-0.51 1.89,-0.68 0.65,-0.17 1.32,-0.29 1.99,-0.35 0.34,-0.03 0.68,-0.04 1.02,-0.04 0.09,0 0.16,0 0.23,0 l 0.28,0.01 0.17,0.01 c 0.07,0 0,0 0.03,0 h 0.07 l 0.28,0.02 c 0.73,0.06 1.46,0.16 2.18,0.33 1.44,0.32 2.84,0.85 4.15,1.57 2.61,1.45 4.84,3.71 6.2,6.44 0.69,1.36 1.17,2.82 1.41,4.33 0.06,0.38 0.1,0.76 0.13,1.14 l 0.02,0.29 0.01,0.29 c 0.01,0.1 0.01,0.19 0.01,0.29 0,0.1 0.01,0.2 0,0.27 v 0.25 l -0.01,0.28 c -0.01,0.19 -0.02,0.49 -0.03,0.68 -0.03,0.42 -0.07,0.83 -0.12,1.25 -0.05,0.41 -0.12,0.82 -0.19,1.23 -0.08,0.41 -0.17,0.81 -0.27,1.21 -0.2,0.8 -0.46,1.6 -0.77,2.37 -0.61,1.55 -1.43,3.02 -2.41,4.38 -1.97,2.71 -4.66,4.92 -7.72,6.32 -1.53,0.69 -3.15,1.2 -4.8,1.47 -0.83,0.14 -1.67,0.22 -2.51,0.25 l -0.16,0.01 h -0.13 -0.27 -0.41 -0.21 c 0.11,0 -0.02,0 -0.01,0 h -0.08 c -0.45,-0.01 -0.9,-0.03 -1.35,-0.07 -1.8,-0.13 -3.57,-0.45 -5.29,-0.95 -1.72,-0.5 -3.39,-1.17 -4.97,-2.01 -3.16,-1.69 -5.98,-4 -8.19,-6.79 -1.11,-1.39 -2.08,-2.88 -2.88,-4.45 -0.8,-1.57 -1.43,-3.22 -1.9,-4.9 -0.46,-1.69 -0.75,-3.41 -0.86,-5.15 l -0.02,-0.33 -0.01,-0.08 v -0.07 -0.14 l -0.01,-0.29 v -0.07 -0.1 -0.2 l -0.01,-0.4 V 48.7 c 0,0.01 0,0.01 0,-0.03 v -0.16 c 0,-0.21 0.01,-0.42 0.01,-0.64 0.03,-0.86 0.1,-1.74 0.22,-2.62 0.11,-0.88 0.26,-1.77 0.44,-2.65 0.18,-0.88 0.4,-1.75 0.64,-2.6 0.49,-1.71 1.1,-3.37 1.83,-4.94 1.45,-3.14 3.35,-5.91 5.64,-8.13 0.57,-0.56 1.16,-1.09 1.78,-1.58 0.61,-0.49 1.25,-0.95 1.91,-1.38 0.65,-0.43 1.33,-0.83 2.03,-1.19 0.34,-0.19 0.7,-0.35 1.05,-0.52 0.18,-0.08 0.36,-0.16 0.54,-0.24 0.18,-0.08 0.36,-0.16 0.54,-0.23 0.72,-0.31 1.47,-0.56 2.22,-0.8 0.19,-0.06 0.38,-0.11 0.57,-0.17 0.19,-0.06 0.38,-0.1 0.57,-0.16 0.38,-0.11 0.77,-0.2 1.15,-0.29 0.19,-0.05 0.39,-0.09 0.58,-0.13 0.19,-0.04 0.39,-0.08 0.58,-0.12 0.2,-0.04 0.39,-0.07 0.59,-0.11 l 0.29,-0.05 0.29,-0.04 c 0.2,-0.03 0.39,-0.06 0.59,-0.09 0.22,-0.04 0.44,-0.05 0.66,-0.09 0.18,-0.02 0.48,-0.06 0.66,-0.08 0.14,-0.01 0.28,-0.03 0.42,-0.04 l 0.28,-0.03 0.14,-0.01 0.16,-0.01 c 0.22,-0.01 0.44,-0.03 0.67,-0.04 l 0.33,-0.02 c 0,0 0.12,0 0.02,0 h 0.07 l 0.14,-0.01 c 0.19,-0.01 0.38,-0.02 0.57,-0.03 0.75,-0.02 1.5,-0.02 2.25,0 1.49,0.06 2.95,0.22 4.37,0.49 2.84,0.53 5.51,1.44 7.93,2.64 2.42,1.18 4.59,2.64 6.47,4.22 0.12,0.1 0.23,0.2 0.35,0.3 0.11,0.1 0.23,0.2 0.34,0.3 0.23,0.2 0.45,0.41 0.67,0.61 0.22,0.2 0.43,0.41 0.64,0.62 0.21,0.21 0.42,0.42 0.61,0.63 0.8,0.85 1.54,1.7 2.2,2.56 1.34,1.72 2.41,3.46 3.26,5.1 0.05,0.1 0.11,0.2 0.16,0.31 0.05,0.1 0.1,0.2 0.15,0.31 0.1,0.2 0.2,0.4 0.29,0.6 0.09,0.2 0.19,0.4 0.27,0.59 0.09,0.2 0.17,0.39 0.25,0.58 0.32,0.77 0.61,1.5 0.84,2.19 0.39,1.11 0.68,2.12 0.9,3 0.09,0.35 0.42,0.58 0.78,0.55 0.37,-0.03 0.66,-0.34 0.67,-0.71 -0.06,-1 -0.08,-2.1 -0.19,-3.36 z"
   id="path62"
   style="fill:url(#SVGID_5_)" />
</g>
</svg>
