<?xml version="1.0" encoding="UTF-8" standalone="no"?>
<!-- Created with Inkscape (http://www.inkscape.org/) -->

<svg
   version="1.1"
   id="svg2"
   xml:space="preserve"
   width="2405.3652"
   height="513.46442"
   viewBox="0 0 2405.3652 513.46444"
   sodipodi:docname="green_fox_logo_final.svg"
   inkscape:version="1.2.2 (b0a84865, 2022-12-01)"
   xmlns:inkscape="http://www.inkscape.org/namespaces/inkscape"
   xmlns:sodipodi="http://sodipodi.sourceforge.net/DTD/sodipodi-0.dtd"
   xmlns="http://www.w3.org/2000/svg"
   xmlns:svg="http://www.w3.org/2000/svg"><defs
     id="defs6"><clipPath
       clipPathUnits="userSpaceOnUse"
       id="clipPath16"><path
         d="M 0,1000 H 2160 V 0 H 0 Z"
         id="path14" /></clipPath></defs><sodipodi:namedview
     id="namedview4"
     pagecolor="#ffffff"
     bordercolor="#666666"
     borderopacity="1.0"
     inkscape:pageshadow="2"
     inkscape:pageopacity="0.0"
     inkscape:pagecheckerboard="0"
     inkscape:showpageshadow="2"
     inkscape:deskcolor="#d1d1d1"
     showgrid="false"
     inkscape:zoom="0.17700001"
     inkscape:cx="1197.74"
     inkscape:cy="259.88699"
     inkscape:window-width="1371"
     inkscape:window-height="847"
     inkscape:window-x="69"
     inkscape:window-y="25"
     inkscape:window-maximized="1"
     inkscape:current-layer="g8" /><g
     id="g8"
     inkscape:groupmode="layer"
     inkscape:label="green_fox_logo_final(1)"
     transform="matrix(1.3333333,0,0,-1.3333333,-234.80679,920.44852)"><g
       id="g10"><g
         id="g12"
         clip-path="url(#clipPath16)"><g
           id="g18"
           transform="translate(755.3501,486.8291)"><path
             d="m 0,0 h 30.799 v -44.399 c 0,-22.4 -11.199,-35.2 -32.799,-35.2 -21.6,0 -32.8,12.8 -32.8,35.2 v 72.798 c 0,22.4 11.2,35.2 32.8,35.2 21.6,0 32.799,-12.8 32.799,-35.2 V 14.8 H 10 v 15 c 0,9.999 -4.4,13.8 -11.4,13.8 -7,0 -11.4,-3.801 -11.4,-13.8 v -75.6 c 0,-10 4.4,-13.599 11.4,-13.599 7,0 11.4,3.599 11.4,13.599 V -20 H 0 Z"
             style="fill:#3c3c3b;fill-opacity:1;fill-rule:nonzero;stroke:none"
             id="path20" /></g><g
           id="g22"
           transform="translate(822.3501,528.8281)"><path
             d="m 0,0 v -42.999 h 8.6 c 8.2,0 13.2,3.6 13.2,14.8 v 13.8 C 21.8,-4.399 18.4,0 10.6,0 Z m 24,-119.998 c -1.2,3.6 -2,5.8 -2,17.2 v 21.999 c 0,13 -4.4,17.8 -14.4,17.8 H 0 v -56.999 H -22 V 20 H 11.2 C 34,20 43.799,9.4 43.799,-12.199 v -11 c 0,-14.401 -4.6,-23.8 -14.4,-28.4 11,-4.6 14.601,-15.2 14.601,-29.799 v -21.6 c 0,-6.8 0.199,-11.8 2.399,-17 z"
             style="fill:#3c3c3b;fill-opacity:1;fill-rule:nonzero;stroke:none"
             id="path24" /></g><g
           id="g26"
           transform="translate(902.7485,489.8291)"><path
             d="M 0,0 H 30.2 V -20 H 0 v -40.999 h 38 v -20 H -22 V 58.999 h 60 v -20 H 0 Z"
             style="fill:#3c3c3b;fill-opacity:1;fill-rule:nonzero;stroke:none"
             id="path28" /></g><g
           id="g30"
           transform="translate(976.3477,489.8291)"><path
             d="M 0,0 H 30.2 V -20 H 0 v -40.999 h 38 v -20 H -22 V 58.999 h 60 v -20 H 0 Z"
             style="fill:#3c3c3b;fill-opacity:1;fill-rule:nonzero;stroke:none"
             id="path32" /></g><g
           id="g34"
           transform="translate(1047.5469,510.2285)"><path
             d="M 0,0 V -101.398 H -19.8 V 38.6 H 7.8 L 30.399,-45.199 V 38.6 h 19.6 v -139.998 h -22.6 z"
             style="fill:#3c3c3b;fill-opacity:1;fill-rule:nonzero;stroke:none"
             id="path36" /></g><g
           id="g38"
           transform="translate(1166.3438,486.6289)"><path
             d="M 0,0 H 28.4 V -20 H 0 V -77.799 H -21.999 V 62.199 H 36.2 v -20 H 0 Z"
             style="fill:#3c3c3b;fill-opacity:1;fill-rule:nonzero;stroke:none"
             id="path40" /></g><g
           id="g42"
           transform="translate(1233.3438,441.0293)"><path
             d="m 0,0 c 0,-10 4.399,-13.8 11.399,-13.8 6.999,0 11.4,3.8 11.4,13.8 v 75.6 c 0,9.999 -4.401,13.799 -11.4,13.799 C 4.399,89.399 0,85.599 0,75.6 Z m -22,74.199 c 0,22.4 11.799,35.199 33.399,35.199 21.6,0 33.4,-12.799 33.4,-35.199 V 1.4 c 0,-22.399 -11.8,-35.199 -33.4,-35.199 -21.6,0 -33.399,12.8 -33.399,35.199 z"
             style="fill:#3c3c3b;fill-opacity:1;fill-rule:nonzero;stroke:none"
             id="path44" /></g><g
           id="g46"
           transform="translate(1362.7422,548.8281)"><path
             d="m 0,0 -23,-67.999 24.6,-71.999 h -23.2 l -18,55.399 -18.2,-55.399 H -78.399 L -53.8,-67.999 -76.799,0 H -54 l 16.6,-51.6 17,51.6 z"
             style="fill:#3c3c3b;fill-opacity:1;fill-rule:nonzero;stroke:none"
             id="path48" /></g><g
           id="g50"
           transform="translate(1427.3398,453.2295)"><path
             d="M 0,0 H 21.2 L 10.601,70.799 Z M 50.199,-44.399 H 28 L 24.2,-19 H -2.799 L -6.6,-44.399 h -20.199 l 22.4,139.998 h 32.2 z"
             style="fill:#3c3c3b;fill-opacity:1;fill-rule:nonzero;stroke:none"
             id="path52" /></g><g
           id="g54"
           transform="translate(1551.5391,461.0293)"><path
             d="m 0,0 v -18.6 c 0,-22.399 -11.199,-35.199 -32.799,-35.199 -21.599,0 -32.801,12.8 -32.801,35.199 v 72.799 c 0,22.4 11.202,35.199 32.801,35.199 C -11.199,89.398 0,76.599 0,54.199 V 40.6 h -20.8 v 15 c 0,9.999 -4.399,13.799 -11.399,13.799 -7,0 -11.401,-3.8 -11.401,-13.799 V -20 c 0,-10 4.401,-13.6 11.401,-13.6 7,0 11.399,3.6 11.399,13.6 V 0 Z"
             style="fill:#3c3c3b;fill-opacity:1;fill-rule:nonzero;stroke:none"
             id="path56" /></g><g
           id="g58"
           transform="translate(1585.9375,453.2295)"><path
             d="M 0,0 H 21.199 L 10.6,70.799 Z m 50.199,-44.399 h -22.2 L 24.199,-19 h -27 l -3.8,-25.399 H -26.8 L -4.4,95.599 h 32.199 z"
             style="fill:#3c3c3b;fill-opacity:1;fill-rule:nonzero;stroke:none"
             id="path60" /></g><g
           id="g62"
           transform="translate(1668.3359,528.8281)"><path
             d="m 0,0 v -99.998 h 12.4 c 7,0 11.2,3.6 11.2,13.6 V -13.6 C 23.6,-3.6 19.4,0 12.4,0 Z m -21.999,20 h 34.8 C 34.8,20 45.6,7.8 45.6,-14.6 v -70.798 c 0,-22.4 -10.8,-34.6 -32.799,-34.6 h -34.8 z"
             style="fill:#3c3c3b;fill-opacity:1;fill-rule:nonzero;stroke:none"
             id="path64" /></g><g
           id="g66"
           transform="translate(1749.9336,489.8291)"><path
             d="M 0,0 H 30.2 V -20 H 0 v -40.999 h 38 v -20 H -21.999 V 58.999 H 38 v -20 H 0 Z"
             style="fill:#3c3c3b;fill-opacity:1;fill-rule:nonzero;stroke:none"
             id="path68" /></g><g
           id="g70"
           transform="translate(1848.1328,449.4297)"><path
             d="M 0,0 15,99.398 H 45.6 V -40.6 H 24.8 V 59.799 L 9.6,-40.6 H -11.199 L -27.6,58.398 V -40.6 H -46.799 V 99.398 h 30.6 z"
             style="fill:#3c3c3b;fill-opacity:1;fill-rule:nonzero;stroke:none"
             id="path72" /></g><g
           id="g74"
           transform="translate(1930.3301,455.2295)"><path
             d="m 0,0 -27.8,93.599 h 23 L 12,29.8 28.799,93.599 h 21 L 22,0 V -46.399 H 0 Z"
             style="fill:#3c3c3b;fill-opacity:1;fill-rule:nonzero;stroke:none"
             id="path76" /></g><g
           id="g78"
           transform="translate(414.7183,520.4531)"><path
             d="m 0,0 c 0,-6.097 -4.178,-11.038 -9.331,-11.038 -5.153,0 -9.326,4.941 -9.326,11.038 0,6.095 4.173,11.04 9.326,11.04 C -4.178,11.037 0,6.095 0,0"
             style="fill:#3cb878;fill-opacity:1;fill-rule:nonzero;stroke:none"
             id="path80" /></g><g
           id="g82"
           transform="translate(283.0835,520.4531)"><path
             d="m 0,0 c 0,-6.097 -4.178,-11.038 -9.331,-11.038 -5.154,0 -9.327,4.941 -9.327,11.038 0,6.097 4.173,11.04 9.327,11.04 C -4.178,11.039 0,6.097 0,0"
             style="fill:#007335;fill-opacity:1;fill-rule:nonzero;stroke:none"
             id="path84" /></g><g
           id="g86"
           transform="translate(429.8604,539.042)"><path
             d="M 0,0 C 0,-54.981 -49.675,-36.942 -49.675,-36.942 -50.815,14.735 0,0 0,0 m 10.532,-29.301 c 16.52,13.923 31.504,24.518 40.473,26.224 l 20.129,20.129 c -7.178,9.048 -15.616,17.15 -25.04,24.325 -0.11,0.083 -0.216,0.17 -0.326,0.254 -8.36,6.329 -17.496,11.925 -27.227,16.786 0.001,0.004 0.001,0.007 0.002,0.01 9.983,50.729 42.664,90.395 43.892,91.871 0.023,0.029 0.039,0.048 0.039,0.048 -76.129,8.999 -108.292,-48.461 -117.614,-70.115 -0.135,0.019 -0.269,0.04 -0.404,0.057 -11.794,1.538 -23.78,2.307 -35.766,2.307 v -186.991 c 0.007,0 0.014,0.001 0.021,0.001 h 0.008 c 0.008,0 0.016,10e-4 0.025,10e-4 h 0.003 c 6.188,-0.022 11.929,-1.744 16.998,-4.527 h 10e-4 c 0.05,-0.027 0.101,-0.054 0.151,-0.081 0.516,-0.286 1.024,-0.586 1.524,-0.895 6.515,6.959 48.239,51.206 83.111,80.596"
             style="fill:#3cb878;fill-opacity:1;fill-rule:nonzero;stroke:none"
             id="path88" /></g><g
           id="g90"
           transform="translate(296.9141,502.0996)"><path
             d="M 0,0 C 0,0 -49.675,-18.039 -49.675,36.942 -49.675,36.942 1.143,51.678 0,0 m 5.466,117.174 c -9.322,21.651 -41.485,79.113 -117.615,70.114 0,0 0.016,-0.018 0.04,-0.048 1.208,-1.452 32.884,-39.898 43.401,-89.477 0.001,-0.001 0.001,-0.001 0.001,-0.002 0.168,-0.793 0.331,-1.589 0.488,-2.388 0.002,-0.009 0.004,-0.019 0.006,-0.027 -9.859,-4.926 -19.099,-10.612 -27.55,-17.04 -9.426,-7.169 -17.87,-15.266 -25.046,-24.312 l 20.181,-20.181 c 8.973,-1.739 23.921,-12.309 40.402,-26.199 34.89,-29.403 76.649,-73.69 83.137,-80.62 -3.39,-2.108 -6.407,-4.741 -8.92,-7.802 l 0.018,-0.017 c 2.905,3.543 6.482,6.516 10.536,8.765 0.034,0.018 0.069,0.037 0.102,0.054 5.066,2.792 10.806,4.522 16.989,4.553 v 186.99 c -12.124,0 -24.246,-0.791 -36.17,-2.363"
             style="fill:#007335;fill-opacity:1;fill-rule:nonzero;stroke:none"
             id="path92" /></g><g
           id="g94"
           transform="translate(357.2817,429.1445)"><path
             d="M 0,0 C -0.004,-0.004 -0.009,-0.009 -0.012,-0.013 3.383,-2.117 6.407,-4.747 8.927,-7.806 L 7.582,-9.151 7.597,-9.167 c 0,0 0.478,0.478 1.361,1.361 C 6.434,-4.741 3.404,-2.106 0,0"
             style="fill:#f6f3cf;fill-opacity:1;fill-rule:nonzero;stroke:none"
             id="path96" /></g><g
           id="g98"
           transform="translate(357.2695,429.1318)"><path
             d="m 0,0 c -0.507,0.314 -1.021,0.617 -1.544,0.908 -0.05,0.028 -0.101,0.054 -0.151,0.081 h -10e-4 c -5.07,2.783 -10.809,4.505 -16.998,4.528 h -0.003 c -0.009,0 -0.017,-0.001 -0.025,-0.001 h -0.008 c -0.007,0 -0.015,-0.001 -0.021,-0.001 C -24.934,5.483 -30.675,3.754 -35.74,0.962 v 0 c -0.034,-0.018 -0.068,-0.036 -0.102,-0.054 -0.544,-0.302 -1.077,-0.619 -1.603,-0.946 -3.397,-2.112 -6.418,-4.751 -8.934,-7.819 l 1.333,-1.332 26.264,-26.264 v -0.061 l 0.031,0.031 0.029,-0.031 v 0.061 L 7.594,-9.139 8.939,-7.793 C 6.419,-4.734 3.396,-2.104 0,0"
             style="fill:#3c3c3b;fill-opacity:1;fill-rule:nonzero;stroke:none"
             id="path100" /></g><g
           id="g102"
           transform="translate(448.4033,597.4687)"><path
             d="m 0,0 c -0.001,-0.003 -0.001,-0.006 -0.002,-0.01 9.731,-4.861 18.867,-10.457 27.227,-16.786 0.11,-0.084 0.216,-0.171 0.326,-0.254 9.149,20.507 15.844,59.214 16.38,108.969 0,0 -0.015,-0.019 -0.039,-0.048 C 42.665,90.396 9.983,50.729 0,0"
             style="fill:#3c3c3b;fill-opacity:1;fill-rule:nonzero;stroke:none"
             id="path104" /></g><g
           id="g106"
           transform="translate(448.4033,597.4687)"><path
             d="M 0,0 C 9.983,50.729 42.665,90.396 43.892,91.871 42.664,90.396 9.983,50.729 0,0"
             style="fill:#3c3c3b;fill-opacity:1;fill-rule:nonzero;stroke:none"
             id="path108" /></g><g
           id="g110"
           transform="translate(228.6953,597.4727)"><path
             d="m 0,0 c -0.157,0.799 -0.32,1.595 -0.488,2.388 0,10e-4 0,10e-4 -0.001,0.002 -10.517,49.58 -42.194,88.026 -43.402,89.477 -0.024,0.029 -0.039,0.048 -0.039,0.048 0.536,-49.766 7.234,-88.477 16.386,-108.982 8.451,6.428 17.69,12.114 27.55,17.04 C 0.003,-0.019 0.001,-0.009 0,0"
             style="fill:#3c3c3b;fill-opacity:1;fill-rule:nonzero;stroke:none"
             id="path112" /></g><g
           id="g114"
           transform="translate(184.8047,689.3398)"><path
             d="M 0,0 C 1.208,-1.451 32.885,-39.897 43.402,-89.478 32.885,-39.898 1.208,-1.452 0,0"
             style="fill:#3c3c3b;fill-opacity:1;fill-rule:nonzero;stroke:none"
             id="path116" /></g><g
           id="g118"
           transform="translate(228.2075,599.8604)"><path
             d="M 0,0 C 0.168,-0.793 0.331,-1.589 0.488,-2.388 0.331,-1.589 0.168,-0.793 0,0"
             style="fill:#3c3c3b;fill-opacity:1;fill-rule:nonzero;stroke:none"
             id="path120" /></g><g
           id="g122"
           transform="translate(338.5479,393.6787)"><path
             d="M 0,0 V -0.061 L -0.03,-0.03 -0.061,-0.061 V 0 l -26.263,26.264 -0.006,-0.006 c 0,0 -45.879,45.88 -81.05,81.051 -10.418,-18.132 -16.376,-39.153 -16.376,-61.564 0,-68.35 55.408,-123.759 123.757,-123.759 H 0.002 V 0.002 Z"
             style="fill:#007335;fill-opacity:1;fill-rule:nonzero;stroke:none"
             id="path124" /></g><g
           id="g126"
           transform="translate(524.394,465.248)"><path
             d="m 0,0 c -0.677,21.906 12.78,48.868 12.78,48.868 -15.341,0.723 -30.744,-5.037 -43.909,-12.372 21.35,45.211 86.038,78.657 86.038,78.657 0,0 73.264,-70.829 -11.46,-151.125 C 51.405,-1.277 39.617,28.43 39.617,28.43 26.59,7.073 0,0 0,0"
             style="fill:#f6f3cf;fill-opacity:1;fill-rule:nonzero;stroke:none"
             id="path128" /></g><g
           id="g130"
           transform="translate(564.0107,493.6777)"><path
             d="m 0,0 c -13.026,-21.356 -39.617,-28.43 -39.617,-28.43 -0.676,21.907 12.78,48.868 12.78,48.868 -15.34,0.723 -30.744,-5.037 -43.909,-12.372 -1.809,-3.828 -3.402,-7.708 -4.525,-11.69 -5.249,-18.676 -14.283,-37.12 -26.454,-52.349 -0.372,-27.305 -9.582,-52.473 -24.906,-72.773 29.72,2.373 67.836,14.685 112.493,49.029 6.666,5.135 12.608,10.244 17.971,15.316 C 11.789,-29.707 0,0 0,0"
             style="fill:#3cb878;fill-opacity:1;fill-rule:nonzero;stroke:none"
             id="path132" /></g><g
           id="g134"
           transform="translate(445.9165,501.0146)"><path
             d="m 0,0 c -35.17,-35.17 -81.038,-81.037 -81.038,-81.037 l -0.015,0.016 -26.313,-26.313 v -78.016 c 40.381,0 76.241,19.344 98.829,49.267 15.325,20.3 24.535,45.468 24.906,72.773 0.008,0.573 0.022,1.144 0.022,1.719 C 16.391,-39.168 10.427,-18.139 0,0"
             style="fill:#3cb878;fill-opacity:1;fill-rule:nonzero;stroke:none"
             id="path136" /></g><g
           id="g138"
           transform="translate(440.3921,509.7412)"><path
             d="m 0,0 c -34.872,-29.391 -76.596,-73.638 -83.11,-80.597 3.403,-2.106 6.433,-4.741 8.958,-7.805 3.811,3.81 15.292,15.292 29.721,29.721 L 40.473,26.224 C 31.504,24.518 16.521,13.923 0,0"
             style="fill:#f6f3cf;fill-opacity:1;fill-rule:nonzero;stroke:none"
             id="path140" /></g><g
           id="g142"
           transform="translate(319.8247,429.0937)"><path
             d="m 0,0 c -6.487,6.93 -48.247,51.217 -83.137,80.62 -16.48,13.89 -31.429,24.46 -40.402,26.198 L -8.919,-7.802 C -6.406,-4.741 -3.39,-2.108 0,0"
             style="fill:#d5d2b1;fill-opacity:1;fill-rule:nonzero;stroke:none"
             id="path144" /></g><g
           id="g146"
           transform="translate(290.8843,346.0391)"><path
             d="m 0,0 c -22.531,0 -40.805,-18.267 -40.805,-40.801 h 81.61 C 40.805,-18.267 22.53,0 0,0"
             style="fill:#3c3c3b;fill-opacity:1;fill-rule:nonzero;stroke:none"
             id="path148" /></g><g
           id="g150"
           transform="translate(385.1909,346.0391)"><path
             d="M 0,0 C -22.534,0 -40.806,-18.267 -40.806,-40.801 H 40.797 C 40.797,-18.267 22.539,0 0,0"
             style="fill:#3c3c3b;fill-opacity:1;fill-rule:nonzero;stroke:none"
             id="path152" /></g></g></g></g></svg>
