<?xml version="1.0" encoding="UTF-8" standalone="no"?>
<svg
   width="243.6588"
   height="48.859375"
   viewBox="0 0 243.6588 48.859375"
   fill="none"
   version="1.1"
   id="svg21"
   sodipodi:docname="heroine.svg"
   inkscape:version="1.3 (0e150ed, 2023-07-21)"
   xmlns:inkscape="http://www.inkscape.org/namespaces/inkscape"
   xmlns:sodipodi="http://sodipodi.sourceforge.net/DTD/sodipodi-0.dtd"
   xmlns="http://www.w3.org/2000/svg"
   xmlns:svg="http://www.w3.org/2000/svg">
  <sodipodi:namedview
     id="namedview21"
     pagecolor="#ffffff"
     bordercolor="#666666"
     borderopacity="1.0"
     inkscape:showpageshadow="2"
     inkscape:pageopacity="0.0"
     inkscape:pagecheckerboard="0"
     inkscape:deskcolor="#d1d1d1"
     inkscape:zoom="2.7663934"
     inkscape:cx="121.45778"
     inkscape:cy="24.4"
     inkscape:window-width="1376"
     inkscape:window-height="847"
     inkscape:window-x="69"
     inkscape:window-y="25"
     inkscape:window-maximized="1"
     inkscape:current-layer="svg21" />
  <g
     clip-path="url(#clip0_3138_1451)"
     id="g21"
     transform="translate(-0.28125,-0.140625)">
    <path
       d="m 243.65,36.8202 c -0.28,-0.0704 -0.421,0.5632 -0.421,0.5632 -2.244,7.4627 -9.889,9.7156 -13.746,9.7156 -5.821,0 -8.416,-5.6322 -8.837,-10.2788 -0.351,-2.8865 -0.281,-4.6465 -0.141,-7.6738 0,-0.4928 0.351,-0.4928 0.562,-0.4928 h 20.128 c 1.613,0 2.385,-0.7041 2.385,-3.1681 0,-7.2515 -9.047,-12.1796 -15.851,-12.1796 -10.38,0 -17.814,8.6594 -17.814,17.8821 0,10.138 8.627,17.6006 17.814,17.6006 8.978,0 14.518,-5.8434 16.131,-11.4052 0,0.0704 0.281,-0.4224 -0.21,-0.5632 z m -23.074,-9.6451 c 0,-1.1264 0.07,-2.3937 0.14,-3.8721 0.491,-5.2098 2.455,-9.2227 6.943,-9.2227 3.226,0 4.84,2.2529 5.471,5.8434 0.421,2.3232 0.561,4.9281 0.561,7.1106 0,0.4928 -0.421,0.6336 -0.631,0.6336 h -11.923 c -0.281,0 -0.561,0 -0.561,-0.4928 z m -25.53,20.9095 h 8.487 V 25.7671 c 0,-9.5043 -7.575,-12.602 -12.975,-12.602 -5.401,0 -7.925,2.1824 -9.398,4.5057 h -0.211 v -3.1681 c 0,-0.2112 -0.14,-0.4224 -0.701,-0.4224 h -11.643 c -0.49,0 -0.631,0.0704 -0.631,0.4224 0,0.352 0.141,0.4224 0.631,0.4224 h 3.297 c 0.701,0 0.771,0.704 0.771,3.0273 v 30.0618 h 8.417 V 20.6277 c 0,-2.0417 2.314,-6.5474 7.574,-6.5474 3.226,0 6.312,1.3376 6.312,6.7586 V 48.0846 Z M 162.153,5.13919 c 0,-2.81609 -2.174,-4.998565 -4.909,-4.998565 -2.736,0 -4.98,2.182475 -4.98,4.998565 0,2.81609 2.244,4.92811 4.98,4.92811 2.735,-0.07035 4.909,-2.11202 4.909,-4.92811 z m -1.052,9.01151 h -11.853 c -0.491,0 -0.631,0.0704 -0.631,0.4224 0,0.352 0.14,0.4224 0.631,0.4224 h 3.297 c 0.701,0 0.771,0.704 0.771,3.0273 v 30.0618 h 8.416 V 14.5027 c 0,-0.2112 -0.07,-0.352 -0.631,-0.352 z M 144.76,30.6952 c 0,-0.2112 0,-0.4224 0,-0.6336 0,-0.0704 0,-0.2112 0,-0.2816 -0.281,-6.6178 -4.209,-12.7428 -11.783,-15.4885 -0.912,-0.352 -1.824,-0.5632 -2.735,-0.7744 0,0 -0.491,-0.1408 -0.561,0.2112 -0.071,0.352 0.21,0.4224 0.21,0.4224 0.982,0.2112 1.683,0.4928 2.805,0.8448 3.647,1.3377 4.699,3.8017 4.629,6.6882 0,1.6193 -0.421,3.3793 -0.841,5.1394 -1.263,4.5761 -3.016,9.4339 -4.98,13.7284 -0.281,0.7041 -0.631,1.3377 -0.982,2.0417 0,0 -2.104,4.2242 -3.507,6.6882 h 0.421 c 7.575,0.0704 13.536,-4.8577 16.131,-12.1092 0.421,-1.1264 0.702,-2.3232 0.912,-3.4497 v -0.0704 c 0.07,-0.4928 0.14,-0.9856 0.21,-1.4784 0,-0.1408 0,-0.2112 0,-0.352 0.071,-0.4225 0.071,-0.7745 0.071,-1.1265 z M 123.228,19.7125 c 0,0 2.104,-4.2242 3.507,-6.6883 h -0.421 c -7.575,-0.0704 -13.536,4.8578 -16.131,12.1092 -0.631,1.6897 -0.982,3.3794 -1.122,4.9986 0,0.1408 0,0.352 0,0.4928 0,0.352 0,0.6336 0,0.9857 0,0.2816 0,0.6336 0,0.9152 0,0.1408 0,0.352 0,0.4928 0.421,6.4066 4.348,12.25 11.712,14.9253 0.912,0.352 1.824,0.5632 2.736,0.7744 0,0 0.491,0.1408 0.631,-0.2112 0.14,-0.352 -0.281,-0.4224 -0.281,-0.4224 -0.982,-0.2112 -1.683,-0.4928 -2.805,-0.8448 -1.403,-0.4928 -2.455,-1.1969 -3.156,-2.0417 v -0.0704 c -2.104,-2.4641 -1.613,-6.0546 -0.561,-9.6451 1.262,-4.5762 3.016,-9.4339 4.979,-13.7285 0.211,-0.704 0.561,-1.408 0.912,-2.0416 z m -16.482,-0.4224 c 0,-4.013 -3.787,-6.125 -7.0833,-6.125 -3.5068,0 -6.4524,1.8304 -7.9253,4.7873 h -0.1402 v -3.3793 c 0,-0.2112 -0.0702,-0.4224 -0.7014,-0.4224 H 79.2534 c -0.491,0 -0.6312,0.0704 -0.6312,0.4224 0,0.352 0.1402,0.4224 0.6312,0.4224 h 3.2963 c 0.7014,0 0.7715,0.704 0.7715,3.0273 v 30.0618 h 8.4162 V 21.0501 c 0,-3.6609 3.4366,-6.8994 6.4524,-6.8994 0.7715,0 1.543,0.4928 1.543,1.3376 0,1.4785 -2.104,1.6897 -2.104,4.2946 0,2.6049 2.104,4.2945 4.4182,4.2945 2.595,0 4.699,-1.9009 4.699,-4.7873 z M 76.1674,37.4538 c 0,0 0.2104,-0.4928 -0.2805,-0.6336 -0.2806,-0.0704 -0.4208,0.5632 -0.4208,0.5632 -2.2444,7.4627 -9.8891,9.7156 -13.7465,9.7156 -5.8212,0 -8.4162,-5.6322 -8.837,-10.2788 -0.3507,-2.8865 -0.2806,-4.6465 -0.1403,-7.6738 0,-0.4928 0.3507,-0.4928 0.5611,-0.4928 h 20.1288 c 1.6131,0 2.3845,-0.7041 2.3845,-3.1681 0,-7.2515 -9.0474,-12.1796 -15.8505,-12.1796 -10.38,0 -17.8143,8.6594 -17.8143,17.8821 0,10.138 8.6266,17.6006 17.8143,17.6006 9.0474,0.0704 14.5881,-5.773 16.2012,-11.3348 z M 52.8124,27.1751 c 0,-1.1264 0.0702,-2.3937 0.1403,-3.8721 0.491,-5.2098 2.4547,-9.2227 6.9434,-9.2227 3.2262,0 4.8393,2.2529 5.4705,5.8434 0.4208,2.3232 0.5611,4.9281 0.5611,7.1106 0,0.4928 -0.4208,0.6336 -0.6312,0.6336 h -11.923 c -0.2104,0 -0.5611,0 -0.5611,-0.4928 z m -25.459,20.9095 h 8.4162 V 25.7671 c 0,-9.5043 -7.4343,-12.602 -12.9049,-12.602 -5.4004,0 -7.8551,2.1824 -9.3279,4.4353 H 13.4666 V 1.90068 c 0,-0.2112 -0.0701,-0.42241 -0.6312,-0.42241 H 0.912466 c -0.490946,0 -0.631216,0.0704 -0.631216,0.42241 0,0.35201 0.14027,0.42242 0.631216,0.42242 H 4.20882 c 0.70135,0 0.77148,0.70402 0.77148,3.0273 v 42.7342 h 8.4162 V 20.6981 c 0,-2.0417 2.3145,-6.5474 7.5746,-6.5474 3.2262,0 6.3122,1.3376 6.3122,6.7586 z"
       fill="#121212"
       id="path1" />
    <path
       d="m 167.904,8.51839 2.665,-3.2385 h -2.524 V 4.43506 h 3.717 v 0.84483 l -2.525,3.1681 h 2.665 l -0.14,0.84483 h -3.858 z"
       fill="#121212"
       id="path2" />
    <path
       d="M 172.604,10.7009 V 6.54716 c 0,-0.28161 0,-0.56322 0,-0.84483 h 0.981 c 0,0.0704 0.071,0.35201 0.071,0.42241 0.14,-0.28161 0.49,-0.56322 1.052,-0.56322 0.841,0 1.472,0.70403 1.472,1.83046 0,1.26724 -0.701,1.97127 -1.543,1.97127 -0.491,0 -0.771,-0.21121 -0.911,-0.42242 v 1.68967 z m 1.753,-4.29455 c -0.561,0 -0.772,0.35201 -0.772,1.12644 0,0.70402 0.211,1.12643 0.702,1.12643 0.561,0 0.771,-0.42241 0.771,-1.12643 0.07,-0.77443 -0.21,-1.12644 -0.701,-1.12644 z"
       fill="#121212"
       id="path3" />
    <path
       d="m 180.178,8.23701 c 0,0.35201 0,0.70403 0,1.05604 h -0.982 c 0,-0.07041 0,-0.28161 0,-0.42242 -0.211,0.35202 -0.561,0.49282 -0.982,0.49282 -0.702,0 -1.193,-0.42241 -1.193,-1.33764 V 5.63213 h 0.982 V 7.8146 c 0,0.42241 0.141,0.70402 0.561,0.70402 0.421,0 0.632,-0.28161 0.632,-0.98563 V 5.63213 h 0.982 z m -2.455,-3.66092 c 0,-0.42241 0.28,-0.70402 0.841,-0.70402 0.562,0 0.842,0.28161 0.842,0.70402 0,0.42242 -0.351,0.70403 -0.842,0.70403 -0.561,0 -0.841,-0.28161 -0.841,-0.70403 z m 1.192,0 c 0,-0.1408 -0.14,-0.35201 -0.351,-0.35201 -0.21,0 -0.35,0.14081 -0.35,0.28161 0,0.14081 0.07,0.28161 0.35,0.28161 0.281,0 0.351,-0.0704 0.351,-0.21121 z"
       fill="#121212"
       id="path4" />
    <path
       d="m 181.931,8.23681 c 0.07,0.28161 0.281,0.42241 0.702,0.42241 0.35,0 0.491,-0.1408 0.491,-0.35201 0,-0.2112 -0.141,-0.35201 -0.702,-0.42241 -1.192,-0.28161 -1.402,-0.63362 -1.402,-1.19684 0,-0.56322 0.35,-1.12644 1.472,-1.12644 1.123,0 1.473,0.63362 1.473,1.12644 h -0.912 c 0,-0.1408 -0.14,-0.35201 -0.561,-0.35201 -0.35,0 -0.42,0.1408 -0.42,0.28161 0,0.2112 0.14,0.28161 0.701,0.42241 1.192,0.28161 1.403,0.70402 1.403,1.19684 0,0.63362 -0.491,1.12644 -1.543,1.12644 -1.123,0 -1.543,-0.56322 -1.613,-1.19684 z"
       fill="#121212"
       id="path5" />
    <path
       d="m 188.313,7.46239 c 0,1.12643 -0.631,1.90086 -1.823,1.90086 -1.122,0 -1.754,-0.77443 -1.754,-1.90086 0,-1.12644 0.702,-1.90087 1.824,-1.90087 1.052,0 1.753,0.77443 1.753,1.90087 z m -2.525,0 c 0,0.70402 0.281,1.12643 0.772,1.12643 0.491,0 0.771,-0.42241 0.771,-1.12643 0,-0.77443 -0.28,-1.12644 -0.771,-1.12644 -0.491,0 -0.772,0.35201 -0.772,1.12644 z"
       fill="#121212"
       id="path6" />
    <path
       d="m 189.156,4.15381 h 0.982 v 1.90086 c 0.14,-0.21121 0.421,-0.49282 1.052,-0.49282 0.982,0 1.473,0.84483 1.473,1.83046 0,1.05604 -0.561,1.97127 -1.543,1.97127 -0.561,0 -0.772,-0.14081 -0.982,-0.42242 0,0.14081 0,0.28161 -0.07,0.35202 h -0.982 c 0,-0.42242 0,-0.77443 0,-1.19684 V 4.15381 Z m 1.753,2.25287 c -0.561,0 -0.771,0.35201 -0.771,1.12644 0,0.63362 0.21,1.05603 0.771,1.05603 0.491,0 0.772,-0.42241 0.772,-1.12643 0,-0.63362 -0.21,-1.05604 -0.772,-1.05604 z"
       fill="#121212"
       id="path7" />
    <path
       d="m 196.73,8.23721 c 0,0.35201 0,0.70402 0,1.05603 h -0.982 c 0,-0.0704 0,-0.2816 0,-0.42241 -0.21,0.35201 -0.561,0.49282 -0.981,0.49282 -0.702,0 -1.193,-0.42242 -1.193,-1.33765 V 5.63232 h 0.982 V 7.8148 c 0,0.42241 0.14,0.70402 0.561,0.70402 0.421,0 0.631,-0.28161 0.631,-0.98563 V 5.63232 h 0.982 z"
       fill="#121212"
       id="path8" />
    <path
       d="m 198.764,5.63226 v 3.59051 c 0,1.05603 -0.211,1.54883 -1.192,1.54883 -0.071,0 -0.211,0 -0.281,0 V 9.9972 h 0.07 c 0.351,0 0.421,-0.14081 0.421,-0.49282 V 5.63226 Z M 197.782,5.06904 V 4.15381 h 0.982 v 0.91523 z"
       fill="#121212"
       id="path9" />
    <path
       d="m 200.657,7.67399 c 0,0.42241 0.211,0.91523 0.702,0.91523 0.421,0 0.561,-0.1408 0.631,-0.35201 h 0.982 c -0.14,0.42241 -0.561,1.19684 -1.683,1.19684 -1.193,0 -1.684,-0.91523 -1.684,-1.83046 0,-1.12644 0.562,-1.97127 1.754,-1.97127 1.262,0 1.683,0.91523 1.683,1.83046 0,0.14081 0,0.21121 0,0.28161 z m 1.403,-0.56322 c 0,-0.42241 -0.21,-0.77442 -0.701,-0.77442 -0.491,0 -0.702,0.35201 -0.702,0.77442 z"
       fill="#121212"
       id="path10" />
    <path
       d="m 205.637,6.54716 c 0,-0.28161 0,-0.63363 0,-0.91523 h 0.982 c 0,0.0704 0,0.35201 0.07,0.49281 0.14,-0.21121 0.421,-0.56322 1.052,-0.56322 0.701,0 1.192,0.49282 1.192,1.40805 v 2.32328 h -0.982 V 7.11037 c 0,-0.42241 -0.14,-0.70402 -0.561,-0.70402 -0.421,0 -0.631,0.21121 -0.631,0.91523 v 2.04167 h -0.982 V 6.54716 Z"
       fill="#121212"
       id="path11" />
    <path
       d="m 210.757,7.67399 c 0,0.42241 0.211,0.91523 0.701,0.91523 0.421,0 0.562,-0.1408 0.632,-0.35201 h 0.982 c -0.141,0.42241 -0.562,1.19684 -1.684,1.19684 -1.192,0 -1.683,-0.91523 -1.683,-1.83046 0,-1.12644 0.561,-1.97127 1.753,-1.97127 1.263,0 1.684,0.91523 1.684,1.83046 0,0.14081 0,0.21121 0,0.28161 z m 1.403,-0.56322 c 0,-0.42241 -0.211,-0.77442 -0.702,-0.77442 -0.49,0 -0.701,0.35201 -0.701,0.77442 z"
       fill="#121212"
       id="path12" />
    <path
       d="m 213.773,8.51882 1.824,-2.11207 h -1.683 V 5.63232 h 2.875 v 0.77443 l -1.753,2.04167 h 1.894 l -0.141,0.77442 h -2.945 V 8.51882 Z"
       fill="#121212"
       id="path13" />
    <path
       d="m 220.576,8.37804 c 0,0.35201 0,0.84482 0.07,0.91523 h -0.982 c 0,-0.07041 -0.07,-0.28161 -0.07,-0.35201 -0.141,0.2112 -0.351,0.42241 -1.052,0.42241 -0.842,0 -1.263,-0.56322 -1.263,-1.12644 0,-0.84483 0.632,-1.19684 1.754,-1.19684 h 0.491 v -0.2112 c 0,-0.28161 -0.07,-0.49282 -0.561,-0.49282 -0.421,0 -0.491,0.21121 -0.562,0.42241 h -0.981 c 0.07,-0.63362 0.42,-1.19684 1.543,-1.19684 0.981,0 1.472,0.35202 1.472,1.26725 v 1.54885 z m -0.982,-0.70403 h -0.421 c -0.631,0 -0.842,0.21121 -0.842,0.56322 0,0.28161 0.141,0.49282 0.561,0.49282 0.632,0 0.702,-0.42242 0.702,-0.91523 z m 0.982,-3.59051 -1.123,1.05603 h -0.841 l 0.771,-1.05603 z"
       fill="#121212"
       id="path14" />
    <path
       d="m 222.259,5.63232 c 0.351,1.26725 0.631,2.32328 0.701,2.74569 0.141,-0.56321 0.491,-1.68965 0.772,-2.74569 h 0.982 l -1.263,3.66092 h -1.052 l -1.192,-3.66092 z"
       fill="#121212"
       id="path15" />
    <path
       d="M 225.346,5.06904 V 4.15381 h 0.982 v 0.91523 z m 0,0.56322 h 0.982 v 3.66092 h -0.982 z"
       fill="#121212"
       id="path16" />
    <path
       d="m 228.15,8.23681 c 0.07,0.28161 0.28,0.42241 0.701,0.42241 0.351,0 0.491,-0.1408 0.491,-0.35201 0,-0.2112 -0.14,-0.35201 -0.701,-0.42241 -1.192,-0.28161 -1.403,-0.63362 -1.403,-1.19684 0,-0.56322 0.351,-1.12644 1.473,-1.12644 1.122,0 1.473,0.63362 1.473,1.12644 h -0.982 c 0,-0.1408 -0.14,-0.35201 -0.561,-0.35201 -0.351,0 -0.421,0.1408 -0.421,0.28161 0,0.2112 0.14,0.28161 0.701,0.42241 1.193,0.28161 1.403,0.70402 1.403,1.19684 0,0.63362 -0.491,1.12644 -1.543,1.12644 -1.122,0 -1.543,-0.56322 -1.613,-1.19684 z"
       fill="#121212"
       id="path17" />
    <path
       d="M 231.096,9.29318 V 4.15381 h 0.982 v 5.13937 z"
       fill="#121212"
       id="path18" />
    <path
       d="m 236.567,7.46239 c 0,1.12643 -0.631,1.90086 -1.823,1.90086 -1.123,0 -1.754,-0.77443 -1.754,-1.90086 0,-1.12644 0.702,-1.90087 1.824,-1.90087 1.052,0 1.753,0.77443 1.753,1.90087 z m -2.595,0 c 0,0.70402 0.281,1.12643 0.772,1.12643 0.491,0 0.771,-0.42241 0.771,-1.12643 0,-0.77443 -0.28,-1.12644 -0.771,-1.12644 -0.421,0 -0.772,0.35201 -0.772,1.12644 z"
       fill="#121212"
       id="path19" />
    <path
       d="m 238.179,8.23681 c 0.07,0.28161 0.281,0.42241 0.702,0.42241 0.35,0 0.49,-0.1408 0.49,-0.35201 0,-0.2112 -0.14,-0.35201 -0.701,-0.42241 -1.192,-0.28161 -1.403,-0.63362 -1.403,-1.19684 0,-0.56322 0.351,-1.12644 1.473,-1.12644 1.122,0 1.473,0.63362 1.473,1.12644 h -0.982 c 0,-0.1408 -0.14,-0.35201 -0.561,-0.35201 -0.351,0 -0.421,0.1408 -0.421,0.28161 0,0.2112 0.141,0.28161 0.702,0.42241 1.192,0.28161 1.402,0.70402 1.402,1.19684 0,0.63362 -0.491,1.12644 -1.543,1.12644 -1.122,0 -1.543,-0.56322 -1.613,-1.19684 z"
       fill="#121212"
       id="path20" />
    <path
       d="m 240.775,5.63212 h 0.561 V 4.64648 h 0.982 v 0.98564 h 0.702 v 0.77442 h -0.702 V 8.237 c 0,0.28161 0.07,0.35201 0.351,0.35201 0.07,0 0.14,0 0.21,0 v 0.70403 c -0.21,0.0704 -0.491,0.0704 -0.701,0.0704 -0.701,0 -0.912,-0.35201 -0.912,-0.98563 V 6.40654 h -0.561 V 5.63212 Z"
       fill="#121212"
       id="path21" />
  </g>
  <defs
     id="defs21">
    <clipPath
       id="clip0_3138_1451">
      <rect
         width="244"
         height="49"
         fill="#ffffff"
         id="rect21"
         x="0"
         y="0" />
    </clipPath>
  </defs>
</svg>
