<?xml version="1.0" encoding="UTF-8" standalone="no"?>
<svg
   viewBox="0 0 2028.5 209.5"
   version="1.1"
   id="svg828"
   sodipodi:docname="holkyzmarketingu.svg"
   width="2028.5"
   height="209.5"
   inkscape:version="1.1 (c4e8f9e, 2021-05-24)"
   xmlns:inkscape="http://www.inkscape.org/namespaces/inkscape"
   xmlns:sodipodi="http://sodipodi.sourceforge.net/DTD/sodipodi-0.dtd"
   xmlns="http://www.w3.org/2000/svg"
   xmlns:svg="http://www.w3.org/2000/svg">
  <defs
     id="defs832" />
  <sodipodi:namedview
     id="namedview830"
     pagecolor="#ffffff"
     bordercolor="#666666"
     borderopacity="1.0"
     inkscape:pageshadow="2"
     inkscape:pageopacity="0.0"
     inkscape:pagecheckerboard="0"
     showgrid="false"
     fit-margin-top="0"
     fit-margin-left="0"
     fit-margin-right="0"
     fit-margin-bottom="0"
     inkscape:zoom="0.5625"
     inkscape:cx="625.77778"
     inkscape:cy="80"
     inkscape:window-width="1382"
     inkscape:window-height="847"
     inkscape:window-x="58"
     inkscape:window-y="25"
     inkscape:window-maximized="1"
     inkscape:current-layer="svg828" />
  <path
     fill="#363636"
     d="M 494.8,0 A 107.8,107.8 0 0 1 466.4,3 C 462,3 457.6,2.8 453,2.4 v 4.5 c 5.7,0 9.6,1.6 11.6,4.8 2,3 3,7.7 3,14.2 v 122.9 c 0,6 -1.1,10.1 -3.4,12.3 -2.2,2.1 -5.9,3.2 -11.2,3.2 v 4.5 l 12.3,-0.4 a 320,320 0 0 1 32.3,0 l 11.9,0.4 v -4.5 c -5.4,0 -9.2,-1 -11.5,-3.2 -2.1,-2.2 -3.2,-6.3 -3.2,-12.3 z m 70.9,0 a 107.8,107.8 0 0 1 -28.5,3 c -4.3,0 -8.7,-0.2 -13.3,-0.6 v 4.5 c 5.6,0 9.4,1.6 11.4,4.8 2.1,3 3.2,7.7 3.2,14.2 v 122.9 c 0,6 -1.1,10.1 -3.4,12.3 -2.2,2.1 -6,3.2 -11.2,3.2 v 4.5 l 12.3,-0.4 a 320,320 0 0 1 42.9,0.4 v -4.5 c -5,0 -8.4,-1 -10.4,-3.2 -2,-2.2 -3,-6.3 -3,-12.3 v -37 c 2.7,0 5,0.5 6.7,1.4 1.8,0.9 3.8,2.9 5.8,6 l 22.4,37.8 c 1.4,2.1 1.6,4 0.4,5.4 -1,1.3 -2.9,2 -5.8,2 v 4.4 l 11.4,-0.4 a 272.1,272.1 0 0 1 36,0.4 v -4.5 c -2.7,-0.7 -5,-2 -6.8,-3.9 -1.8,-2 -3.6,-4.4 -5.7,-7.3 l -37,-58 18,-18.7 a 51,51 0 0 1 12,-9.7 c 4,-2.5 8.1,-4.1 12.4,-5 v -4.3 a 179.6,179.6 0 0 1 -14.8,0.8 h -8.2 a 408,408 0 0 1 -25,-0.8 v 4.3 c 4.8,0.3 8.8,1.4 11.8,3.2 3.2,1.8 4.7,4.3 4.5,7.6 0,3.3 -2.3,7.3 -7,12 l -16.3,16.2 a 21.2,21.2 0 0 1 -7,4.8 c -2,0.9 -4.7,1.5 -8,1.8 z m 756,0 a 107.8,107.8 0 0 1 -28.5,3 c -4.3,0 -8.7,-0.2 -13.3,-0.6 v 4.5 c 5.6,0 9.4,1.6 11.4,4.8 2.1,3 3.2,7.7 3.2,14.2 v 122.9 c 0,6 -1.1,10.1 -3.4,12.3 -2.2,2.1 -6,3.2 -11.2,3.2 v 4.5 l 12.2,-0.4 a 320,320 0 0 1 43,0.4 v -4.5 c -5,0 -8.4,-1 -10.4,-3.2 -2,-2.2 -3,-6.3 -3,-12.3 v -37 c 2.7,0 5,0.5 6.7,1.4 1.8,0.9 3.8,2.9 5.8,6 l 22.4,37.8 c 1.4,2.1 1.6,4 0.4,5.4 -1,1.3 -3,2 -5.8,2 v 4.4 l 11.4,-0.4 a 272.1,272.1 0 0 1 36,0.4 v -4.5 c -2.7,-0.7 -5,-2 -6.9,-3.9 -1.7,-2 -3.5,-4.4 -5.6,-7.3 l -37,-58 18,-18.7 a 51,51 0 0 1 12,-9.7 c 4,-2.5 8.1,-4.1 12.4,-5 v -4.3 a 179.6,179.6 0 0 1 -14.8,0.8 h -8.2 a 408,408 0 0 1 -25,-0.8 v 4.3 c 4.8,0.3 8.8,1.4 11.8,3.2 3.2,1.8 4.7,4.3 4.5,7.6 0,3.3 -2.3,7.3 -7,12 l -16.2,16.2 a 21.2,21.2 0 0 1 -7,4.8 c -2,0.9 -4.7,1.5 -8,1.8 z m 282.4,2.4 c -5.2,0 -9.4,1.4 -12.7,4.3 -3.3,2.9 -5,6.7 -5,11.4 0,4.8 1.7,8.6 5,11.5 3.3,2.8 7.5,4.3 12.7,4.3 5.2,0 9.4,-1.5 12.7,-4.3 3.3,-2.9 5,-6.7 5,-11.5 0,-4.7 -1.7,-8.5 -5,-11.4 A 18.7,18.7 0 0 0 1604.1,2.4 Z M 167.6,16.2 v 4.3 c 4.8,0.2 8.3,0.7 10.6,1.7 2.5,0.9 4,2.6 4.8,5.2 a 38,38 0 0 1 1.2,11.7 V 146 c 0,5.2 -0.4,9 -1.2,11.6 a 7.2,7.2 0 0 1 -4.8,5.2 c -2.3,0.9 -5.8,1.4 -10.6,1.7 v 4.3 a 709.3,709.3 0 0 1 62.7,0 v -4.3 a 41,41 0 0 1 -10.5,-1.7 7.8,7.8 0 0 1 -4.7,-5.2 c -0.9,-2.6 -1.3,-6.4 -1.3,-11.6 V 94.2 h 61.4 V 146 c 0,5.2 -0.4,9 -1.3,11.6 a 7.2,7.2 0 0 1 -4.7,5.2 c -2.3,0.9 -5.8,1.4 -10.6,1.7 v 4.3 a 690,690 0 0 1 62.7,0 v -4.3 a 41,41 0 0 1 -10.5,-1.7 7.8,7.8 0 0 1 -4.8,-5.2 c -0.8,-2.6 -1.2,-6.4 -1.2,-11.6 V 39 c 0,-5.3 0.4,-9.1 1.2,-11.6 a 7.8,7.8 0 0 1 4.8,-5.2 c 2.4,-1 6,-1.5 10.6,-1.7 v -4.3 a 793.6,793.6 0 0 1 -62.8,0 v 4.3 c 4.8,0.2 8.3,0.7 10.6,1.7 2.4,0.9 4,2.6 4.7,5.2 a 38,38 0 0 1 1.3,11.7 V 89.9 H 213.8 V 39.1 c 0,-5.4 0.4,-9.2 1.3,-11.7 a 7.8,7.8 0 0 1 4.7,-5.2 c 2.5,-1 6,-1.5 10.6,-1.7 v -4.3 a 1002,1002 0 0 1 -49,0.4 z m 698.3,0 v 4.3 c 4.7,0.2 8.2,0.7 10.5,1.7 2.5,0.9 4,2.6 4.8,5.2 a 38,38 0 0 1 1.3,11.7 v 99.6 c 0,6.3 -0.5,11.2 -1.3,14.8 -0.7,3.6 -2.3,6.2 -4.8,7.8 a 24.1,24.1 0 0 1 -10.5,3.2 v 4.3 a 264.3,264.3 0 0 1 31.5,-0.4 c 4.3,0 7.8,0.1 10.5,0.4 v -4.3 c -6,-0.6 -10.6,-1.6 -13.6,-3.2 a 12.2,12.2 0 0 1 -5.6,-8.2 c -0.8,-3.9 -1.3,-9.3 -1.3,-16.2 V 30 l 57,139.5 h 3.4 l 52,-136.6 v 113 c 0,5.3 -0.5,9.1 -1.3,11.7 a 7.8,7.8 0 0 1 -5.2,5.2 c -2.5,0.9 -6.1,1.4 -11,1.7 v 4.3 a 735.1,735.1 0 0 1 63.6,0 v -4.3 a 41,41 0 0 1 -10.6,-1.7 7.8,7.8 0 0 1 -4.7,-5.2 c -0.9,-2.6 -1.3,-6.4 -1.3,-11.6 V 39 c 0,-5.3 0.3,-9.1 1,-11.6 a 7.8,7.8 0 0 1 5,-5.2 c 2.5,-1 6,-1.5 10.6,-1.7 v -4.3 a 1099.6,1099.6 0 0 1 -31.7,0.7 h -13.6 l -42,110.9 -44.7,-111.6 a 1606.6,1606.6 0 0 1 -28.8,0.7 264.4,264.4 0 0 1 -19.2,-0.7 z m 678.5,5.8 c -4,1.9 -8.2,3.3 -12.7,4.1 -4.5,0.9 -9.3,1.4 -14.4,1.5 v 30 h -19 v 4.3 h 19 v 72.8 a 89,89 0 0 0 1.5,18.3 26,26 0 0 0 6.4,11.8 c 2.5,2.3 5.3,4 8.7,5.2 3.4,1.3 7.6,2 12.5,2 8.1,0 14.5,-2.3 19,-7 a 43,43 0 0 0 10,-17.6 l -3.8,-1.7 a 33.3,33.3 0 0 1 -7.3,12.7 13.3,13.3 0 0 1 -9.1,3.6 10,10 0 0 1 -8,-3.2 c -1.8,-2.2 -2.8,-5.8 -2.8,-11 V 61.9 h 27.6 v -4.2 h -27.6 z m 338.3,30.2 c -5.4,0 -10.6,1.9 -15.5,5.6 -2.7,2 -5,4.4 -7,7 a 50.3,50.3 0 0 0 -32,-10.4 50.7,50.7 0 0 0 -29.5,8.2 c -7.8,5.4 -11.7,14.1 -11.7,26 0,11.8 4,20.5 11.7,26.1 6,4.1 13,6.7 21.1,7.7 a 60.6,60.6 0 0 0 -15.3,10.4 20.5,20.5 0 0 0 -7,15.1 c 0,4.6 1.4,8.2 4,10.8 2.6,2.6 6,4.5 10.3,5.6 4.5,1.2 9.4,1.7 14.7,1.7 h 14.2 c 9.6,0 16,1.5 19.2,4.6 3.3,3 5,6.7 5,11.2 a 19,19 0 0 1 -5,13.3 29.5,29.5 0 0 1 -13.2,8 59.2,59.2 0 0 1 -17.9,2.6 c -9.4,0 -17,-1.7 -22.8,-5.2 -5.6,-3.3 -8.4,-8 -8.4,-14.2 0,-3 0.7,-5.9 2.1,-8.6 a 16,16 0 0 1 6.3,-6.5 l -1.5,-3.4 a 40.5,40.5 0 0 0 -17.7,8.1 c -4,3.6 -6,7.7 -6,12.3 0,4.8 2,8.7 6,11.7 4,3.1 9.5,5.5 16.4,7 6.9,1.7 14.6,2.5 23,2.5 14,0 25.4,-1.9 34.3,-5.6 a 45,45 0 0 0 20.3,-14.5 31.2,31.2 0 0 0 6.7,-19.2 c 0,-9.9 -3.8,-17 -11.4,-21.1 a 54.4,54.4 0 0 0 -27.6,-6.5 h -24.4 c -6.3,0 -9.5,-2.3 -9.5,-6.9 0,-3.3 1.4,-6 4.1,-8.2 2.2,-1.6 4.5,-3 7,-4.5 h 2.5 c 11.6,0 21.4,-2.7 29.3,-8.2 8,-5.6 11.9,-14.3 11.9,-26 0,-8.5 -2,-15.4 -6,-20.6 1.4,-2.2 3,-4.2 4.7,-5.8 2.2,-2 5.3,-4 9.3,-5.8 a 24.3,24.3 0 0 0 -2.4,11.2 c 0.3,3.5 1.4,6 3.4,7.8 2,1.6 4.3,2.4 6.7,2.4 2.7,0 5.3,-1 7.6,-3 2.3,-2 3.4,-5.2 3.4,-9.5 0,-4.2 -1.2,-7.4 -3.7,-9.7 a 13.1,13.1 0 0 0 -9.7,-3.5 z M 389.6,54.4 c -10,0 -18.8,2 -26.5,6 a 41.4,41.4 0 0 0 -18.3,18.8 c -4.5,8.6 -6.7,20 -6.7,34 0,14.1 2.2,25.5 6.7,34 a 41.4,41.4 0 0 0 18.3,18.8 58.5,58.5 0 0 0 26.5,5.9 c 10,0 18.7,-2 26.3,-5.9 a 41.4,41.4 0 0 0 18.3,-18.7 c 4.6,-8.6 7,-20 7,-34 0,-14.2 -2.4,-25.5 -7,-34.1 A 41.4,41.4 0 0 0 415.9,60.4 c -7.6,-4 -16.4,-6 -26.3,-6 z m 732,0 c -6.6,0 -12.7,0.7 -18.3,2.1 a 43.8,43.8 0 0 0 -22.1,13.2 c -2,2.6 -3,5.9 -3,9.9 0,4 1.2,7.5 3.7,10.5 2.4,3 6,4.6 10.8,4.6 4.4,0 8,-1.2 11,-3.7 3,-2.6 4.5,-6.1 4.5,-10.6 a 15.5,15.5 0 0 0 -11.9,-15.5 16,16 0 0 1 8.2,-5 c 3.3,-0.8 6.5,-1.2 9.5,-1.2 4,0 7.3,0.8 10,2.3 2.6,1.5 4.7,3.7 6,6.7 1.4,2.9 2.1,6.6 2.1,11.2 v 15.8 c 0,3.3 -1.4,6 -4.3,8.2 a 52,52 0 0 1 -11,5.6 1036,1036 0 0 0 -14.2,5.1 c -5,1.8 -9.9,3.9 -14.5,6.3 a 32.5,32.5 0 0 0 -11,9.7 24.3,24.3 0 0 0 -4.3,14.9 27,27 0 0 0 6.5,18.5 c 4.3,4.9 11.2,7.3 20.7,7.3 6.7,0 12.8,-1.3 18.3,-4 a 36.4,36.4 0 0 0 14,-14 c 0.2,4.7 1.6,9 4.3,12.7 2.8,3.5 8.2,5.3 16.4,5.3 4.9,0 9,-0.7 12.5,-2.1 3.5,-1.4 6.8,-3.4 10,-5.8 l -2.4,-3.7 c -1.3,1 -2.6,2 -4,2.8 a 8,8 0 0 1 -4.4,1.3 c -2,0 -3.5,-0.7 -4.4,-2.2 -0.7,-1.5 -1,-4.1 -1,-7.7 v -59 c 0,-7.1 -0.5,-13 -1.5,-18 -1,-5 -3.3,-9 -6.7,-12.3 a 27.2,27.2 0 0 0 -12.5,-7 59.7,59.7 0 0 0 -16.8,-2.2 z m 131.6,0 c -4.6,0 -9,1.1 -13,3.4 -3.9,2.2 -7.2,5 -10.1,8.4 -2.7,3.5 -5,7.2 -6.7,11.2 V 55 a 106.7,106.7 0 0 1 -28.4,3 c -4.4,0 -8.8,-0.2 -13.4,-0.6 v 4.5 c 5.6,0 9.4,1.6 11.4,4.8 2.2,3 3.3,7.7 3.3,14.2 v 67.8 c 0,6 -1.2,10.1 -3.5,12.3 -2.2,2.1 -5.9,3.2 -11.2,3.2 v 4.5 l 12.3,-0.4 a 328.3,328.3 0 0 1 36.2,0 l 14.4,0.4 v -4.5 c -6.9,0 -12.1,-1.1 -15.7,-3.4 -3.6,-2.5 -5.4,-7.2 -5.4,-14.3 V 93.4 a 37.8,37.8 0 0 1 11,-26 c 3.5,-3.7 7.5,-5.7 12,-6.1 2,-0.3 3.9,0 5.5,0.8 a 23.8,23.8 0 0 0 -6.3,5.8 15.3,15.3 0 0 0 -2.6,9.1 c 0,4 1.4,7.2 4.1,9.5 2.8,2.3 6.3,3.4 10.6,3.4 4.6,0 8.3,-1.5 11,-4.7 a 17,17 0 0 0 4.3,-11.9 20,20 0 0 0 -2.2,-9 17.6,17.6 0 0 0 -6.6,-7.1 19.8,19.8 0 0 0 -11,-2.8 z m 200.8,0 a 47.5,47.5 0 0 0 -44.8,27.3 c -4.3,8.9 -6.5,19.8 -6.5,33 0,12.3 2.1,22.8 6.3,31.4 4.2,8.5 10,14.9 17.5,19.2 a 50.8,50.8 0 0 0 46,1.7 42.5,42.5 0 0 0 14.1,-12 c 3.7,-5 6.4,-10.1 8,-15.2 l -4.1,-1.7 c -4,7.5 -8.7,12.5 -14,15.1 a 35.6,35.6 0 0 1 -15.3,3.7 c -5,0 -9.7,-1.5 -14.3,-4.5 -4.6,-3 -8.3,-7.8 -11.2,-14.3 a 60.7,60.7 0 0 1 -4.3,-24.6 v -6.4 l 0.5,-5 h 62.7 c 0,-16.6 -3.6,-28.8 -10.8,-36.4 A 39,39 0 0 0 1454,54.3 Z m 271.2,0 a 44,44 0 0 0 -20.7,5 c -6.3,3.2 -11.3,9 -14.9,17.2 V 55 a 106.7,106.7 0 0 1 -28.5,3 c -4.3,0 -8.7,-0.2 -13.3,-0.6 v 4.5 c 5.6,0 9.4,1.6 11.4,4.8 2.2,3 3.2,7.7 3.2,14.2 v 67.8 c 0,6 -1.1,10.1 -3.4,12.3 -2.2,2.1 -5.9,3.2 -11.2,3.2 v 4.5 l 12.3,-0.4 a 307.6,307.6 0 0 1 42,0.4 v -4.5 c -4.6,0 -7.8,-1 -9.7,-3.2 -1.9,-2.2 -2.8,-6.3 -2.8,-12.3 v -56 c 0,-8.5 2.3,-15.6 6.9,-21.2 a 21.4,21.4 0 0 1 17.5,-8.6 c 4,0 7,1 9.2,2.8 2.2,1.7 3.6,4.2 4.3,7.3 0.8,3 1.1,6.5 1.1,10.4 v 65.3 c 0,6 -1,10.1 -2.8,12.3 -1.8,2.1 -5,3.2 -9.7,3.2 v 4.5 l 11.2,-0.4 a 272.2,272.2 0 0 1 31,0 l 12.1,0.4 v -4.5 c -5.3,0 -9,-1 -11.4,-3.2 -2.1,-2.2 -3.2,-6.3 -3.2,-12.3 v -58 c 0,-7.3 -0.6,-13.2 -1.7,-17.5 a 22.4,22.4 0 0 0 -14.5,-16.6 36.4,36.4 0 0 0 -14.4,-2.3 z m -106,0.6 a 106.7,106.7 0 0 1 -28.4,3 c -4.4,0 -8.8,-0.2 -13.4,-0.6 v 4.5 c 5.6,0 9.4,1.6 11.4,4.8 2.2,3 3.2,7.8 3.2,14.4 v 67.6 c 0,6 -1.1,10.1 -3.4,12.3 -2.2,2.1 -5.9,3.2 -11.2,3.2 v 4.5 l 12.3,-0.4 a 307.6,307.6 0 0 1 32.3,0 l 11.9,0.4 v -4.5 c -5.4,0 -9.2,-1 -11.5,-3.2 -2.1,-2.2 -3.2,-6.3 -3.2,-12.3 z m 329.7,0 a 106.7,106.7 0 0 1 -28.4,3 c -4.3,0 -8.8,-0.2 -13.4,-0.6 v 4.5 c 5.6,0 9.4,1.6 11.4,4.8 2.2,3 3.3,7.7 3.3,14.2 v 54.5 c 0,7 0.5,12.8 1.5,17.3 1,4.4 2.7,8 5.2,10.7 2.3,2.6 5.3,4.6 9,6 a 41.9,41.9 0 0 0 34.3,-2.6 35,35 0 0 0 14.9,-17 v 21.6 c 4,-1.1 8.4,-2 13.1,-2.4 a 174.3,174.3 0 0 1 28.7,0 v -4.5 c -5.5,0 -9.3,-1.5 -11.4,-4.5 -2.2,-3.2 -3.3,-8 -3.3,-14.4 V 55 a 106.7,106.7 0 0 1 -28.4,3 c -4.3,0 -8.8,-0.2 -13.4,-0.6 v 4.5 c 5.6,0 9.4,1.6 11.4,4.8 2.2,3 3.3,7.7 3.3,14.2 v 52.8 c 0,8.3 -2.3,15.4 -7,21.1 -4.4,5.6 -10,8.4 -16.7,8.4 -4,0 -7,-0.8 -9.1,-2.6 -2,-1.8 -3.4,-4.3 -4.1,-7.3 -0.6,-3 -0.9,-6.5 -0.9,-10.3 z m -1098.4,1.5 -22,0.9 a 1188.9,1188.9 0 0 1 -63.3,-0.7 c 0.3,4.3 0.6,9.8 0.7,16.4 l 0.2,25 h 4.8 c 0.7,-9.3 2.4,-16.6 5.1,-22 a 26,26 0 0 1 11.2,-11.6 c 4.8,-2.4 10.1,-3.7 16,-3.7 h 16 l -57,109.1 22,-0.9 a 1188.6,1188.6 0 0 1 63.4,0.7 1187.5,1187.5 0 0 1 -0.9,-41.4 h -4.5 a 50.2,50.2 0 0 1 -5.6,22 29.4,29.4 0 0 1 -11.9,11.9 33.7,33.7 0 0 1 -15.3,3.4 h -15.5 z m -210,0.9 v 4.5 c 1.5,0 3.5,0.7 6,2 2.4,1.2 5,4.6 7.7,10 l 43.4,100.8 -5,13.6 c -2,6 -4.7,10.2 -8,13 -3.3,2.7 -7,4 -11.2,4 l -1.7,-0.1 -2,-0.3 c 3,-1.1 5.2,-2.8 6.7,-5 a 12,12 0 0 0 2.4,-7.3 c 0,-4.1 -1.4,-7.3 -4,-9.4 -2.7,-2 -6,-3 -10.2,-3 -4.8,0 -8.5,1.2 -11.2,3.6 a 12.4,12.4 0 0 0 -4.1,9.7 c 0,3.7 1,6.8 3,9 2.2,2.4 4.7,4 7.8,5.2 3.1,1.2 6.4,1.8 9.7,1.8 3.7,0 7,-0.5 10,-1.3 a 20,20 0 0 0 8,-4.1 c 3.7,-3 6.8,-8.1 9.3,-15.3 l 8.2,-21.8 32,-87.5 a 37.6,37.6 0 0 1 6.6,-13 c 2.5,-2.4 5,-4 7.8,-4.5 v -4.5 a 177.1,177.1 0 0 1 -26,0.6 256,256 0 0 1 -10.2,-0.6 V 62 c 7,0.4 11.8,3 14.4,7.6 2.6,4.6 2,11.9 -1.5,22 l -18,48.6 -26.2,-64 c -1.9,-4.7 -2.4,-8 -1.7,-9.9 0.8,-2 2.6,-3.2 5.2,-3.6 2.5,-0.5 5.5,-0.7 8.8,-0.7 v -4.5 l -14,0.8 a 261,261 0 0 1 -42,-0.8 z m 1187.7,0.8 c 4.3,0 7.7,2.3 10.1,6.7 a 50.3,50.3 0 0 1 4,23.7 c 0,11.5 -1.4,19.5 -4,24 -2.4,4.3 -5.8,6.4 -10.1,6.4 -4.3,0 -7.8,-2.1 -10.3,-6.4 a 54.5,54.5 0 0 1 -3.7,-24 53,53 0 0 1 3.7,-23.7 c 2.5,-4.4 6,-6.7 10.3,-6.7 z M 389.6,58.7 c 6.6,0 12,4.3 16.4,13 4.3,8.4 6.4,22.3 6.4,41.5 0,19.3 -2.1,33.1 -6.4,41.6 -4.3,8.5 -9.8,12.7 -16.4,12.7 -6.8,0 -12.3,-4.2 -16.6,-12.7 -4.2,-8.5 -6.3,-22.3 -6.3,-41.6 0,-19.2 2.1,-33.1 6.3,-41.6 4.3,-8.6 9.8,-13 16.6,-13 z M 1453,58.9 c 4,0 7.2,1.8 9.7,5.4 2.6,3.6 4.4,8.4 5.6,14.4 a 83.6,83.6 0 0 1 1.3,19.4 h -38.4 c 1.1,-13.6 3.6,-23.4 7.4,-29.5 4,-6.5 8.8,-9.7 14.3,-9.7 z m -321,44.6 v 43.6 c -2.6,4 -5.4,6.9 -8.4,8.6 -3,1.7 -6.1,2.6 -9.3,2.6 -4.3,0 -7.9,-1.5 -10.7,-4.3 -2.8,-3 -4.1,-7.4 -4.1,-13.6 a 25,25 0 0 1 3.8,-14.9 c 2.8,-3.6 6,-6.5 9.5,-8.6 3.8,-2.3 7.4,-4.4 11,-6.3 a 21,21 0 0 0 8.2,-7 z"
     id="path824" />
  <path
     fill="#e71862"
     d="m 19.8,54.1 -6,23.7 h 133.7 l 6,-23.7 z M 6,108 0,131.7 h 133.7 l 6,-23.7 z M 55.2,17.2 16.5,168.7 H 40.2 L 79,17.2 Z m 58,0 -38.7,151.5 H 98.2 L 137,17.2 Z"
     id="path826" />
</svg>
