<svg xmlns="http://www.w3.org/2000/svg" viewBox="0 0 2048 216">
  <path fill="#363636" d="M504.6 3.3a107.8 107.8 0 01-28.4 3c-4.4 0-8.8-.2-13.4-.6v4.5c5.7 0 9.6 1.6 11.6 4.8 2 3 3 7.7 3 14.2v122.9c0 6-1.1 10.1-3.4 12.3-2.2 2.1-5.9 3.2-11.2 3.2v4.5l12.3-.4a320 320 0 0132.3 0l11.9.4v-4.5c-5.4 0-9.2-1-11.5-3.2-2.1-2.2-3.2-6.3-3.2-12.3zm70.9 0a107.8 107.8 0 01-28.5 3c-4.3 0-8.7-.2-13.3-.6v4.5c5.6 0 9.4 1.6 11.4 4.8 2.1 3 3.2 7.7 3.2 14.2v122.9c0 6-1.1 10.1-3.4 12.3-2.2 2.1-6 3.2-11.2 3.2v4.5l12.3-.4a320 320 0 0142.9.4v-4.5c-5 0-8.4-1-10.4-3.2s-3-6.3-3-12.3v-37c2.7 0 5 .5 6.7 1.4 1.8.9 3.8 2.9 5.8 6l22.4 37.8c1.4 2.1 1.6 4 .4 5.4-1 1.3-2.9 2-5.8 2v4.4l11.4-.4a272.1 272.1 0 0136 .4v-4.5c-2.7-.7-5-2-6.8-3.9-1.8-2-3.6-4.4-5.7-7.3l-37-58 18-18.7a51 51 0 0112-9.7c4-2.5 8.1-4.1 12.4-5v-4.3a179.6 179.6 0 01-14.8.8h-8.2a408 408 0 01-25-.8V65c4.8.3 8.8 1.4 11.8 3.2 3.2 1.8 4.7 4.3 4.5 7.6 0 3.3-2.3 7.3-7 12L590.3 104a21.2 21.2 0 01-7 4.8c-2 .9-4.7 1.5-8 1.8zm756 0a107.8 107.8 0 01-28.5 3c-4.3 0-8.7-.2-13.3-.6v4.5c5.6 0 9.4 1.6 11.4 4.8 2.1 3 3.2 7.7 3.2 14.2v122.9c0 6-1.1 10.1-3.4 12.3-2.2 2.1-6 3.2-11.2 3.2v4.5l12.2-.4a320 320 0 0143 .4v-4.5c-5 0-8.4-1-10.4-3.2s-3-6.3-3-12.3v-37c2.7 0 5 .5 6.7 1.4 1.8.9 3.8 2.9 5.8 6l22.4 37.8c1.4 2.1 1.6 4 .4 5.4-1 1.3-3 2-5.8 2v4.4l11.4-.4a272.1 272.1 0 0136 .4v-4.5c-2.7-.7-5-2-6.9-3.9-1.7-2-3.5-4.4-5.6-7.3l-37-58 18-18.7a51 51 0 0112-9.7c4-2.5 8.1-4.1 12.4-5v-4.3a179.6 179.6 0 01-14.8.8h-8.2a408 408 0 01-25-.8V65c4.8.3 8.8 1.4 11.8 3.2 3.2 1.8 4.7 4.3 4.5 7.6 0 3.3-2.3 7.3-7 12l-16.2 16.2a21.2 21.2 0 01-7 4.8c-2 .9-4.7 1.5-8 1.8zm282.4 2.4c-5.2 0-9.4 1.4-12.7 4.3-3.3 2.9-5 6.7-5 11.4 0 4.8 1.7 8.6 5 11.5 3.3 2.8 7.5 4.3 12.7 4.3s9.4-1.5 12.7-4.3c3.3-2.9 5-6.7 5-11.5 0-4.7-1.7-8.5-5-11.4a18.7 18.7 0 00-12.7-4.3zM177.4 19.5v4.3c4.8.2 8.3.7 10.6 1.7 2.5.9 4 2.6 4.8 5.2a38 38 0 011.2 11.7v106.9c0 5.2-.4 9-1.2 11.6a7.2 7.2 0 01-4.8 5.2c-2.3.9-5.8 1.4-10.6 1.7v4.3a709.3 709.3 0 0162.7 0v-4.3a41 41 0 01-10.5-1.7 7.8 7.8 0 01-4.7-5.2c-.9-2.6-1.3-6.4-1.3-11.6V97.5H285v51.8c0 5.2-.4 9-1.3 11.6a7.2 7.2 0 01-4.7 5.2c-2.3.9-5.8 1.4-10.6 1.7v4.3a690 690 0 0162.7 0v-4.3a41 41 0 01-10.5-1.7 7.8 7.8 0 01-4.8-5.2c-.8-2.6-1.2-6.4-1.2-11.6v-107c0-5.3.4-9.1 1.2-11.6a7.8 7.8 0 014.8-5.2c2.4-1 6-1.5 10.6-1.7v-4.3a793.6 793.6 0 01-62.8 0v4.3c4.8.2 8.3.7 10.6 1.7 2.4.9 4 2.6 4.7 5.2a38 38 0 011.3 11.7v50.8h-61.4V42.4c0-5.4.4-9.2 1.3-11.7a7.8 7.8 0 014.7-5.2c2.5-1 6-1.5 10.6-1.7v-4.3a1002 1002 0 01-49 .4l-13.8-.4zm698.3 0v4.3c4.7.2 8.2.7 10.5 1.7 2.5.9 4 2.6 4.8 5.2a38 38 0 011.3 11.7V142c0 6.3-.5 11.2-1.3 14.8-.7 3.6-2.3 6.2-4.8 7.8a24.1 24.1 0 01-10.5 3.2v4.3a264.3 264.3 0 0131.5-.4c4.3 0 7.8.1 10.5.4v-4.3c-6-.6-10.6-1.6-13.6-3.2a12.2 12.2 0 01-5.6-8.2c-.8-3.9-1.3-9.3-1.3-16.2V33.3l57 139.5h3.4l52-136.6v113c0 5.3-.5 9.1-1.3 11.7a7.8 7.8 0 01-5.2 5.2c-2.5.9-6.1 1.4-11 1.7v4.3a735.1 735.1 0 0163.6 0v-4.3a41 41 0 01-10.6-1.7 7.8 7.8 0 01-4.7-5.2c-.9-2.6-1.3-6.4-1.3-11.6v-107c0-5.3.3-9.1 1-11.6a7.8 7.8 0 015-5.2c2.5-1 6-1.5 10.6-1.7v-4.3a1099.6 1099.6 0 01-31.7.7h-13.6l-42 110.9-44.7-111.6a1606.6 1606.6 0 01-28.8.7 264.4 264.4 0 01-19.2-.7zm678.5 5.8c-4 1.9-8.2 3.3-12.7 4.1-4.5.9-9.3 1.4-14.4 1.5v30h-19v4.3h19V138a89 89 0 001.5 18.3 26 26 0 006.4 11.8c2.5 2.3 5.3 4 8.7 5.2 3.4 1.3 7.6 2 12.5 2 8.1 0 14.5-2.3 19-7a43 43 0 0010-17.6l-3.8-1.7a33.3 33.3 0 01-7.3 12.7 13.3 13.3 0 01-9.1 3.6 10 10 0 01-8-3.2c-1.8-2.2-2.8-5.8-2.8-11V65.2h27.6V61h-27.6zm338.3 30.2c-5.4 0-10.6 1.9-15.5 5.6-2.7 2-5 4.4-7 7a50.3 50.3 0 00-32-10.4 50.7 50.7 0 00-29.5 8.2c-7.8 5.4-11.7 14.1-11.7 26 0 11.8 4 20.5 11.7 26.1 6 4.1 13 6.7 21.1 7.7a60.6 60.6 0 00-15.3 10.4 20.5 20.5 0 00-7 15.1c0 4.6 1.4 8.2 4 10.8 2.6 2.6 6 4.5 10.3 5.6 4.5 1.2 9.4 1.7 14.7 1.7h14.2c9.6 0 16 1.5 19.2 4.6 3.3 3 5 6.7 5 11.2a19 19 0 01-5 13.3 29.5 29.5 0 01-13.2 8 59.2 59.2 0 01-17.9 2.6c-9.4 0-17-1.7-22.8-5.2-5.6-3.3-8.4-8-8.4-14.2 0-3 .7-5.9 2.1-8.6a16 16 0 016.3-6.5l-1.5-3.4a40.5 40.5 0 00-17.7 8.1c-4 3.6-6 7.7-6 12.3 0 4.8 2 8.7 6 11.7 4 3.1 9.5 5.5 16.4 7 6.9 1.7 14.6 2.5 23 2.5 14 0 25.4-1.9 34.3-5.6a45 45 0 0020.3-14.5 31.2 31.2 0 006.7-19.2c0-9.9-3.8-17-11.4-21.1a54.4 54.4 0 00-27.6-6.5h-24.4c-6.3 0-9.5-2.3-9.5-6.9 0-3.3 1.4-6 4.1-8.2 2.2-1.6 4.5-3 7-4.5h2.5c11.6 0 21.4-2.7 29.3-8.2 8-5.6 11.9-14.3 11.9-26 0-8.5-2-15.4-6-20.6 1.4-2.2 3-4.2 4.7-5.8 2.2-2 5.3-4 9.3-5.8a24.3 24.3 0 00-2.4 11.2c.3 3.5 1.4 6 3.4 7.8 2 1.6 4.3 2.4 6.7 2.4 2.7 0 5.3-1 7.6-3s3.4-5.2 3.4-9.5c0-4.2-1.2-7.4-3.7-9.7a13.1 13.1 0 00-9.7-3.5zM399.4 57.7c-10 0-18.8 2-26.5 6a41.4 41.4 0 00-18.3 18.8c-4.5 8.6-6.7 20-6.7 34 0 14.1 2.2 25.5 6.7 34a41.4 41.4 0 0018.3 18.8 58.5 58.5 0 0026.5 5.9c10 0 18.7-2 26.3-5.9a41.4 41.4 0 0018.3-18.7c4.6-8.6 7-20 7-34 0-14.2-2.4-25.5-7-34.1a41.4 41.4 0 00-18.3-18.8c-7.6-4-16.4-6-26.3-6zm732 0c-6.6 0-12.7.7-18.3 2.1A43.8 43.8 0 001091 73c-2 2.6-3 5.9-3 9.9s1.2 7.5 3.7 10.5c2.4 3 6 4.6 10.8 4.6 4.4 0 8-1.2 11-3.7 3-2.6 4.5-6.1 4.5-10.6a15.5 15.5 0 00-11.9-15.5 16 16 0 018.2-5c3.3-.8 6.5-1.2 9.5-1.2 4 0 7.3.8 10 2.3 2.6 1.5 4.7 3.7 6 6.7 1.4 2.9 2.1 6.6 2.1 11.2V98c0 3.3-1.4 6-4.3 8.2a52 52 0 01-11 5.6 1036 1036 0 00-14.2 5.1c-5 1.8-9.9 3.9-14.5 6.3a32.5 32.5 0 00-11 9.7 24.3 24.3 0 00-4.3 14.9 27 27 0 006.5 18.5c4.3 4.9 11.2 7.3 20.7 7.3 6.7 0 12.8-1.3 18.3-4a36.4 36.4 0 0014-14c.2 4.7 1.6 9 4.3 12.7 2.8 3.5 8.2 5.3 16.4 5.3 4.9 0 9-.7 12.5-2.1 3.5-1.4 6.8-3.4 10-5.8l-2.4-3.7c-1.3 1-2.6 2-4 2.8a8 8 0 01-4.4 1.3c-2 0-3.5-.7-4.4-2.2-.7-1.5-1-4.1-1-7.7v-59c0-7.1-.5-13-1.5-18s-3.3-9-6.7-12.3a27.2 27.2 0 00-12.5-7 59.7 59.7 0 00-16.8-2.2zm131.6 0c-4.6 0-9 1.1-13 3.4-3.9 2.2-7.2 5-10.1 8.4-2.7 3.5-5 7.2-6.7 11.2V58.3a106.7 106.7 0 01-28.4 3c-4.4 0-8.8-.2-13.4-.6v4.5c5.6 0 9.4 1.6 11.4 4.8 2.2 3 3.3 7.7 3.3 14.2V152c0 6-1.2 10.1-3.5 12.3-2.2 2.1-5.9 3.2-11.2 3.2v4.5l12.3-.4a328.3 328.3 0 0136.2 0l14.4.4v-4.5c-6.9 0-12.1-1.1-15.7-3.4-3.6-2.5-5.4-7.2-5.4-14.3V96.7a37.8 37.8 0 0111-26c3.5-3.7 7.5-5.7 12-6.1 2-.3 3.9 0 5.5.8a23.8 23.8 0 00-6.3 5.8 15.3 15.3 0 00-2.6 9.1c0 4 1.4 7.2 4.1 9.5 2.8 2.3 6.3 3.4 10.6 3.4 4.6 0 8.3-1.5 11-4.7a17 17 0 004.3-11.9 20 20 0 00-2.2-9 17.6 17.6 0 00-6.6-7.1 19.8 19.8 0 00-11-2.8zm200.8 0A47.5 47.5 0 001419 85c-4.3 8.9-6.5 19.8-6.5 33 0 12.3 2.1 22.8 6.3 31.4 4.2 8.5 10 14.9 17.5 19.2a50.8 50.8 0 0046 1.7 42.5 42.5 0 0014.1-12c3.7-5 6.4-10.1 8-15.2l-4.1-1.7c-4 7.5-8.7 12.5-14 15.1a35.6 35.6 0 01-15.3 3.7c-5 0-9.7-1.5-14.3-4.5-4.6-3-8.3-7.8-11.2-14.3a60.7 60.7 0 01-4.3-24.6v-6.4l.5-5h62.7c0-16.6-3.6-28.8-10.8-36.4a39 39 0 00-29.8-11.4zm271.2 0a44 44 0 00-20.7 5c-6.3 3.2-11.3 9-14.9 17.2V58.3a106.7 106.7 0 01-28.5 3c-4.3 0-8.7-.2-13.3-.6v4.5c5.6 0 9.4 1.6 11.4 4.8 2.2 3 3.2 7.7 3.2 14.2V152c0 6-1.1 10.1-3.4 12.3-2.2 2.1-5.9 3.2-11.2 3.2v4.5l12.3-.4a307.6 307.6 0 0142 .4v-4.5c-4.6 0-7.8-1-9.7-3.2-1.9-2.2-2.8-6.3-2.8-12.3V96c0-8.5 2.3-15.6 6.9-21.2a21.4 21.4 0 0117.5-8.6c4 0 7 1 9.2 2.8 2.2 1.7 3.6 4.2 4.3 7.3.8 3 1.1 6.5 1.1 10.4V152c0 6-1 10.1-2.8 12.3-1.8 2.1-5 3.2-9.7 3.2v4.5l11.2-.4a272.2 272.2 0 0131 0l12.1.4v-4.5c-5.3 0-9-1-11.4-3.2-2.1-2.2-3.2-6.3-3.2-12.3V94c0-7.3-.6-13.2-1.7-17.5a22.4 22.4 0 00-14.5-16.6 36.4 36.4 0 00-14.4-2.3zm-106 .6a106.7 106.7 0 01-28.4 3c-4.4 0-8.8-.2-13.4-.6v4.5c5.6 0 9.4 1.6 11.4 4.8 2.2 3 3.2 7.8 3.2 14.4V152c0 6-1.1 10.1-3.4 12.3-2.2 2.1-5.9 3.2-11.2 3.2v4.5l12.3-.4a307.6 307.6 0 0132.3 0l11.9.4v-4.5c-5.4 0-9.2-1-11.5-3.2-2.1-2.2-3.2-6.3-3.2-12.3zm329.7 0a106.7 106.7 0 01-28.4 3c-4.3 0-8.8-.2-13.4-.6v4.5c5.6 0 9.4 1.6 11.4 4.8 2.2 3 3.3 7.7 3.3 14.2v54.5c0 7 .5 12.8 1.5 17.3 1 4.4 2.7 8 5.2 10.7 2.3 2.6 5.3 4.6 9 6a41.9 41.9 0 0034.3-2.6 35 35 0 0014.9-17v21.6c4-1.1 8.4-2 13.1-2.4a174.3 174.3 0 0128.7 0v-4.5c-5.5 0-9.3-1.5-11.4-4.5-2.2-3.2-3.3-8-3.3-14.4V58.3a106.7 106.7 0 01-28.4 3c-4.3 0-8.8-.2-13.4-.6v4.5c5.6 0 9.4 1.6 11.4 4.8 2.2 3 3.3 7.7 3.3 14.2V137c0 8.3-2.3 15.4-7 21.1-4.4 5.6-10 8.4-16.7 8.4-4 0-7-.8-9.1-2.6-2-1.8-3.4-4.3-4.1-7.3-.6-3-.9-6.5-.9-10.3zM860.3 59.8l-22 .9A1188.9 1188.9 0 01775 60c.3 4.3.6 9.8.7 16.4l.2 25h4.8c.7-9.3 2.4-16.6 5.1-22A26 26 0 01797 67.8c4.8-2.4 10.1-3.7 16-3.7h16L772 173.2l22-.9a1188.6 1188.6 0 0163.4.7 1187.5 1187.5 0 01-.9-41.4H852a50.2 50.2 0 01-5.6 22 29.4 29.4 0 01-11.9 11.9 33.7 33.7 0 01-15.3 3.4h-15.5zm-210 .9v4.5c1.5 0 3.5.7 6 2 2.4 1.2 5 4.6 7.7 10L707.4 178l-5 13.6c-2 6-4.7 10.2-8 13-3.3 2.7-7 4-11.2 4l-1.7-.1-2-.3c3-1.1 5.2-2.8 6.7-5a12 12 0 002.4-7.3c0-4.1-1.4-7.3-4-9.4-2.7-2-6-3-10.2-3-4.8 0-8.5 1.2-11.2 3.6a12.4 12.4 0 00-4.1 9.7c0 3.7 1 6.8 3 9 2.2 2.4 4.7 4 7.8 5.2 3.1 1.2 6.4 1.8 9.7 1.8 3.7 0 7-.5 10-1.3a20 20 0 008-4.1c3.7-3 6.8-8.1 9.3-15.3l8.2-21.8 32-87.5a37.6 37.6 0 016.6-13c2.5-2.4 5-4 7.8-4.5v-4.5a177.1 177.1 0 01-26 .6 256 256 0 01-10.2-.6v4.5c7 .4 11.8 3 14.4 7.6 2.6 4.6 2 11.9-1.5 22l-18 48.6-26.2-64c-1.9-4.7-2.4-8-1.7-9.9.8-2 2.6-3.2 5.2-3.6 2.5-.5 5.5-.7 8.8-.7v-4.5l-14 .8a261 261 0 01-42-.8zm1187.7.8c4.3 0 7.7 2.3 10.1 6.7a50.3 50.3 0 014 23.7c0 11.5-1.4 19.5-4 24-2.4 4.3-5.8 6.4-10.1 6.4s-7.8-2.1-10.3-6.4a54.5 54.5 0 01-3.7-24 53 53 0 013.7-23.7c2.5-4.4 6-6.7 10.3-6.7zM399.4 62c6.6 0 12 4.3 16.4 13 4.3 8.4 6.4 22.3 6.4 41.5 0 19.3-2.1 33.1-6.4 41.6-4.3 8.5-9.8 12.7-16.4 12.7-6.8 0-12.3-4.2-16.6-12.7-4.2-8.5-6.3-22.3-6.3-41.6 0-19.2 2.1-33.1 6.3-41.6 4.3-8.6 9.8-13 16.6-13zm1063.4.2c4 0 7.2 1.8 9.7 5.4 2.6 3.6 4.4 8.4 5.6 14.4a83.6 83.6 0 011.3 19.4H1441c1.1-13.6 3.6-23.4 7.4-29.5 4-6.5 8.8-9.7 14.3-9.7zm-321 44.6v43.6c-2.6 4-5.4 6.9-8.4 8.6-3 1.7-6.1 2.6-9.3 2.6-4.3 0-7.9-1.5-10.7-4.3-2.8-3-4.1-7.4-4.1-13.6a25 25 0 013.8-14.9c2.8-3.6 6-6.5 9.5-8.6 3.8-2.3 7.4-4.4 11-6.3a21 21 0 008.2-7z"/>
  <path fill="#e71862" d="M29.6 57.4l-6 23.7h133.7l6-23.7zm-13.8 53.9l-6 23.7h133.7l6-23.7zM65 20.5L26.3 172H50L88.8 20.5zm58 0L84.3 172H108l38.8-151.5z"/>
</svg>
