<?xml version="1.0" encoding="UTF-8" standalone="no"?>
<!-- Created with Inkscape (http://www.inkscape.org/) -->

<svg
   version="1.1"
   id="svg9"
   width="500.35745"
   height="161.1032"
   viewBox="0 0 500.35745 161.10319"
   sodipodi:docname="HB_logo_zakladni-endorsement-RGB.svg"
   inkscape:version="1.2.1 (9c6d41e, 2022-07-14)"
   xmlns:inkscape="http://www.inkscape.org/namespaces/inkscape"
   xmlns:sodipodi="http://sodipodi.sourceforge.net/DTD/sodipodi-0.dtd"
   xmlns="http://www.w3.org/2000/svg"
   xmlns:svg="http://www.w3.org/2000/svg">
  <defs
     id="defs13">
    <clipPath
       clipPathUnits="userSpaceOnUse"
       id="clipPath29">
      <path
         d="M 0,177.725 H 450.115 V 0 H 0 Z"
         id="path27" />
    </clipPath>
    <clipPath
       clipPathUnits="userSpaceOnUse"
       id="clipPath115">
      <path
         d="M 0,177.725 H 450.115 V 0 H 0 Z"
         id="path113" />
    </clipPath>
  </defs>
  <sodipodi:namedview
     id="namedview11"
     pagecolor="#ffffff"
     bordercolor="#666666"
     borderopacity="1.0"
     inkscape:showpageshadow="2"
     inkscape:pageopacity="0.0"
     inkscape:pagecheckerboard="0"
     inkscape:deskcolor="#d1d1d1"
     showgrid="false"
     inkscape:zoom="0.99592061"
     inkscape:cx="250.52198"
     inkscape:cy="85.348169"
     inkscape:window-width="1377"
     inkscape:window-height="847"
     inkscape:window-x="63"
     inkscape:window-y="25"
     inkscape:window-maximized="1"
     inkscape:current-layer="g17">
    <inkscape:page
       x="0"
       y="0"
       id="page15"
       width="500.35745"
       height="161.1032" />
  </sodipodi:namedview>
  <g
     id="g17"
     inkscape:groupmode="layer"
     inkscape:label="Page 1"
     transform="matrix(1.3333333,0,0,-1.3333333,-49.898532,202.99933)">
    <g
       id="g19"
       transform="translate(146.4097,102.5006)">
      <path
         d="m 0,0 h -10.696 l 0.77,10.716 h -5.295 l -1.711,-26.102 h 5.295 l 0.734,11.123 h 10.696 l -0.732,-11.123 h 5.21 L 5.945,10.716 H 0.732 Z"
         style="fill:#344079;fill-opacity:1;fill-rule:nonzero;stroke:none"
         id="path21" />
    </g>
    <g
       id="g23">
      <g
         id="g25"
         clip-path="url(#clipPath29)">
        <g
           id="g31"
           transform="translate(167.5083,97.2238)">
          <path
             d="m 0,0 c -0.216,-3.955 -1.763,-6.133 -4.354,-6.133 -1.55,0 -2.156,0.772 -2.156,2.753 0,0.37 0.074,1.187 0.165,2.226 0.241,2.738 0.605,6.877 0.281,9.47 l -0.035,0.287 h -4.735 l 0.052,-0.372 c 0.457,-3.326 0.03,-8.156 -0.2,-10.749 -0.075,-0.856 -0.128,-1.473 -0.128,-1.766 0,-3.99 2.046,-6.278 5.616,-6.278 1.851,0 3.638,0.742 5.026,2.062 l -0.101,-1.516 c -0.24,-3.784 -1.769,-5.473 -4.965,-5.473 -1.483,0 -2.273,0.073 -4.03,0.52 l -0.379,0.095 -0.249,-3.942 0.263,-0.065 c 1.866,-0.475 2.616,-0.545 4.231,-0.545 6.691,0 9.454,2.734 9.85,9.749 L 5.146,8.603 H 0.462 L 0,0"
             style="fill:#344079;fill-opacity:1;fill-rule:nonzero;stroke:none"
             id="path33" />
        </g>
        <g
           id="g35"
           transform="translate(186.9488,101.8912)">
          <path
             d="m 0,0 c 1.861,0 2.931,-1.572 2.931,-4.315 0,-3.648 -2.048,-6.403 -4.763,-6.403 -1.148,0 -2.142,0.448 -2.882,1.301 l 0.197,3.237 C -4.285,-2.427 -2.512,0 0,0 m 1.057,4.427 c -2.138,0 -3.794,-0.684 -5.409,-2.266 -0.052,0.679 -0.136,1.011 -0.301,1.544 l -0.071,0.232 h -4.727 l 0.099,-0.406 c 0.231,-0.935 0.521,-2.975 0.437,-4.584 l -1.319,-23.041 h 4.842 l 0.595,10.163 c 1.032,-0.774 2.2,-1.097 3.861,-1.097 5.332,0 8.912,4.685 8.912,11.66 0,4.663 -2.78,7.795 -6.919,7.795"
             style="fill:#344079;fill-opacity:1;fill-rule:nonzero;stroke:none"
             id="path37" />
        </g>
        <g
           id="g39"
           transform="translate(206.8462,102.0133)">
          <path
             d="m 0,0 c 2.403,0 3.785,-1.781 3.785,-4.888 0,-3.741 -1.741,-6.159 -4.436,-6.159 -2.378,0 -3.743,1.737 -3.743,4.766 C -4.394,-2.348 -2.752,0 0,0 m 0.202,4.305 c -5.948,0 -9.643,-4.041 -9.643,-10.548 0,-5.61 3.354,-9.233 8.545,-9.233 6.014,0 9.604,3.99 9.604,10.67 0,5.705 -3.179,9.111 -8.506,9.111"
             style="fill:#344079;fill-opacity:1;fill-rule:nonzero;stroke:none"
             id="path41" />
        </g>
        <g
           id="g43"
           transform="translate(225.3677,110.3834)">
          <path
             d="m 0,0 h -4.684 l -0.243,-4.557 h -2.56 l -0.246,-3.777 h 2.563 l -0.626,-9.828 c -0.103,-1.717 0.305,-3.074 1.213,-4.042 0.973,-1.032 2.468,-1.556 4.445,-1.556 1.74,0 3.227,0.418 4.416,1.244 l 0.132,0.092 0.2,4.133 -0.521,-0.311 c -1.406,-0.836 -2.426,-1.226 -3.213,-1.226 -0.623,0 -1.067,0.153 -1.362,0.463 -0.368,0.39 -0.526,1.087 -0.466,2.066 l 0.51,8.965 h 5.286 l 0.293,3.777 H -0.206 L 0,0"
             style="fill:#344079;fill-opacity:1;fill-rule:nonzero;stroke:none"
             id="path45" />
        </g>
        <g
           id="g47"
           transform="translate(238.5562,97.903)">
          <path
             d="m 0,0 c -0.349,0 -0.562,0 -0.915,0.036 0.542,2.361 2.39,4.36 4.09,4.36 1.047,0 1.866,-0.777 1.866,-1.767 C 5.041,1.056 3.015,0 0,0 m 3.578,8.331 c -5.568,0 -9.768,-4.763 -9.768,-11.076 0,-5.292 3.087,-8.58 8.059,-8.58 2.186,0 3.93,0.501 6.025,1.73 l 0.154,0.091 0.15,4.42 -0.525,-0.344 c -1.867,-1.218 -3.64,-1.836 -5.271,-1.836 -2.103,0 -3.412,1.285 -3.637,3.549 0.06,-0.005 0.115,-0.011 0.167,-0.015 0.314,-0.024 0.561,-0.042 0.864,-0.042 6.13,0 10.092,2.625 10.092,6.69 0,3.339 -2.419,5.413 -6.31,5.413"
             style="fill:#344079;fill-opacity:1;fill-rule:nonzero;stroke:none"
             id="path49" />
        </g>
        <g
           id="g51"
           transform="translate(280.2144,106.3185)">
          <path
             d="m 0,0 c -2.136,0 -4.277,-0.939 -5.865,-2.54 -0.103,0.785 -0.184,1.123 -0.415,1.824 l -0.074,0.225 h -4.738 l 0.122,-0.419 c 0.352,-1.191 0.477,-2.552 0.477,-5.203 0,-1.005 -0.685,-12.628 -0.695,-12.745 l -0.017,-0.346 h 4.72 l 0.587,9.25 c 0.243,3.668 2.444,5.649 4.394,5.649 0.667,0 1.317,-0.285 1.783,-0.783 0.501,-0.535 0.751,-1.271 0.7,-2.078 L 0.306,-19.204 h 4.887 l 0.67,12.623 C 5.966,-4.621 5.412,-2.945 4.268,-1.74 3.202,-0.617 1.687,0 0,0"
             style="fill:#344079;fill-opacity:1;fill-rule:nonzero;stroke:none"
             id="path53" />
        </g>
        <g
           id="g55"
           transform="translate(321.314,91.0045)">
          <path
             d="m 0,0 c -1.145,0 -1.559,0.104 -2.473,0.67 l 0.003,0.028 c 0.19,2.75 0.355,5.126 0.674,5.98 0.483,2.737 2.435,4.168 4.115,4.168 1.945,0 2.892,-1.33 2.892,-4.067 C 5.211,2.599 3.213,0 0,0 m 3.251,15.272 c -2.072,0 -3.715,-0.621 -5.103,-1.946 l 0.777,11.716 H -5.8 l -1.619,-27.528 0.19,-0.095 c 2.131,-1.096 4.75,-1.723 7.187,-1.723 6.063,0 10.136,4.767 10.136,11.863 0,4.758 -2.62,7.713 -6.843,7.713"
             style="fill:#344079;fill-opacity:1;fill-rule:nonzero;stroke:none"
             id="path57" />
        </g>
        <g
           id="g59"
           transform="translate(341.6177,91.2535)">
          <path
             d="m 0,0 c -1.756,0 -2.726,1.239 -2.726,3.49 0,4.225 2.222,7.063 5.531,7.063 0.726,0 1.38,-0.055 2.303,-0.321 L 4.838,6.06 C 4.616,2.662 2.491,0 0,0 m 9.744,14.064 c -2.394,0.778 -3.816,0.916 -5.92,0.916 -7.188,0 -11.478,-4.326 -11.478,-11.57 0,-4.986 2.511,-7.963 6.718,-7.963 2.214,0 4.314,0.921 5.772,2.496 0.074,-0.98 0.247,-1.782 0.255,-1.825 L 5.148,-4.139 H 9.632 L 9.56,-3.751 C 9.29,-2.314 9.162,-0.633 9.195,0.968 l 0.789,13.017 -0.24,0.079"
             style="fill:#344079;fill-opacity:1;fill-rule:nonzero;stroke:none"
             id="path61" />
        </g>
        <g
           id="g63"
           transform="translate(366.8785,106.3185)">
          <path
             d="m 0,0 c -2.135,0 -4.282,-0.939 -5.872,-2.541 -0.099,0.768 -0.178,1.111 -0.409,1.824 l -0.073,0.226 h -4.749 l 0.124,-0.419 c 0.353,-1.186 0.478,-2.547 0.478,-5.203 0,-1.005 -0.687,-12.628 -0.693,-12.745 l -0.022,-0.346 h 4.723 l 0.588,9.249 c 0.248,3.669 2.448,5.65 4.396,5.65 0.668,0 1.318,-0.285 1.784,-0.782 0.501,-0.535 0.751,-1.271 0.702,-2.079 L 0.306,-19.204 H 5.191 L 5.86,-6.581 C 5.961,-4.618 5.41,-2.944 4.264,-1.738 3.199,-0.617 1.685,0 0,0"
             style="fill:#344079;fill-opacity:1;fill-rule:nonzero;stroke:none"
             id="path65" />
        </g>
        <g
           id="g67"
           transform="translate(390.2076,92.2662)">
          <path
             d="m 0,0 -3.897,5.621 9.753,7.94 h -7.145 l -6.667,-5.81 0.95,15.907 h -4.723 l -1.709,-28.809 h 4.724 l 0.491,8.505 3.006,-4.386 c 1.062,-1.522 2.029,-2.913 2.764,-3.979 l 0.099,-0.14 H 3.931 L 3.482,-4.615 C 2.451,-3.389 1.021,-1.49 0,0"
             style="fill:#344079;fill-opacity:1;fill-rule:nonzero;stroke:none"
             id="path69" />
        </g>
        <g
           id="g71"
           transform="translate(402.7076,91.2535)">
          <path
             d="m 0,0 c -1.761,0 -2.732,1.239 -2.732,3.49 0,4.225 2.224,7.063 5.534,7.063 0.724,0 1.377,-0.055 2.304,-0.321 L 4.837,6.06 C 4.611,2.662 2.487,0 0,0 m 9.195,0.968 0.788,13.017 -0.239,0.079 c -2.402,0.778 -3.823,0.916 -5.923,0.916 -7.185,0 -11.475,-4.326 -11.475,-11.57 0,-4.986 2.509,-7.963 6.714,-7.963 2.214,0 4.315,0.921 5.772,2.496 0.074,-0.98 0.246,-1.78 0.255,-1.825 L 5.143,-4.139 H 9.625 L 9.554,-3.753 C 9.288,-2.314 9.158,-0.631 9.195,0.968"
             style="fill:#344079;fill-opacity:1;fill-rule:nonzero;stroke:none"
             id="path73" />
        </g>
        <g
           id="g75"
           transform="translate(260.7584,101.8502)">
          <path
             d="M 0,0 C 1.348,0 2.225,-0.32 3.681,-1.036 L 4.057,-1.221 4.974,3.176 4.739,3.285 c -1.274,0.6 -2.607,1.141 -4.86,1.141 -6.005,0 -9.886,-4.251 -9.886,-10.831 0,-5.393 3.181,-8.744 8.297,-8.744 2.07,0 3.866,0.458 5.648,1.437 l 0.17,0.094 v 4.63 L 3.611,-9.293 c -1.818,-1.117 -3.09,-1.553 -4.547,-1.553 -2.558,0 -4.025,1.679 -4.025,4.607 C -4.961,-2.508 -2.969,0 0,0"
             style="fill:#344079;fill-opacity:1;fill-rule:nonzero;stroke:none"
             id="path77" />
        </g>
        <g
           id="g79"
           transform="translate(261.2047,111.0939)">
          <path
             d="m 0,0 -2.984,2.578 h -4.158 l 4.445,-5.866 h 5.13 L 7.714,2.578 H 3.458 Z"
             style="fill:#344079;fill-opacity:1;fill-rule:nonzero;stroke:none"
             id="path81" />
        </g>
        <g
           id="g83"
           transform="translate(291.357,107.8058)">
          <path
             d="m 0,0 h 3.877 l 6.292,5.826 H 3.484 Z"
             style="fill:#344079;fill-opacity:1;fill-rule:nonzero;stroke:none"
             id="path85" />
        </g>
        <g
           id="g87"
           transform="translate(290.4078,87.1149)">
          <path
             d="M 0,0 H 4.807 L 5.775,18.713 H 1.014 Z"
             style="fill:#344079;fill-opacity:1;fill-rule:nonzero;stroke:none"
             id="path89" />
        </g>
        <g
           id="g91"
           transform="translate(117.6939,87.442)">
          <path
             d="m 0,0 h -40.117 c -1.813,0 -3.289,-1.484 -3.289,-3.315 0,-1.831 1.476,-3.318 3.289,-3.318 H 0 c 1.814,0 3.29,1.487 3.29,3.318 C 3.29,-1.484 1.814,0 0,0"
             style="fill:#93b83f;fill-opacity:1;fill-rule:nonzero;stroke:none"
             id="path93" />
        </g>
        <g
           id="g95"
           transform="translate(123.9859,124.2115)">
          <path
             d="m 0,0 c 0,0 -35.997,27.632 -36.522,28.038 -0.249,-0.164 -48.525,-31.548 -48.53,-31.548 -0.732,-0.475 -1.244,-1.215 -1.428,-2.079 -0.055,-0.236 -0.082,-0.477 -0.082,-0.714 0,-0.628 0.181,-1.247 0.528,-1.791 0.478,-0.744 1.209,-1.258 2.067,-1.442 0.858,-0.191 1.74,-0.026 2.478,0.453 l 44.188,28.725 c 0,0 0.228,0.151 0.47,0.135 0.207,-0.008 0.368,-0.124 0.368,-0.124 L -3.988,-5.276 c 1.444,-1.105 3.513,-0.825 4.613,0.621 0.446,0.603 0.67,1.311 0.67,2.009 C 1.295,-1.641 0.85,-0.653 0,0"
             style="fill:#93b83f;fill-opacity:1;fill-rule:nonzero;stroke:none"
             id="path97" />
        </g>
        <g
           id="g99"
           transform="translate(89.6998,121.5895)">
          <path
             d="m 0,0 c 3.103,0 5.622,2.536 5.622,5.667 0,3.13 -2.519,5.668 -5.622,5.668 -3.099,0 -5.617,-2.538 -5.617,-5.668 C -5.617,2.536 -3.099,0 0,0"
             style="fill:#344079;fill-opacity:1;fill-rule:nonzero;stroke:none"
             id="path101" />
        </g>
        <g
           id="g103"
           transform="translate(98.2173,111.0992)">
          <path
             d="m 0,0 c -0.088,0.093 -0.143,0.261 -0.143,0.424 0,0.35 0.368,0.508 0.785,0.659 0.736,0.264 2.869,1.345 4.541,2.594 0.874,0.656 1.644,1.552 1.644,3.028 0,2.077 -1.71,3.525 -3.593,3.525 C 2.198,10.23 1.28,9.55 0.052,8.782 -1.823,7.614 -4.505,6.181 -8.604,6.181 c -4.71,0 -8.905,1.9 -11.489,3.648 -2.127,1.442 -3.375,2.795 -4.977,2.795 -2.337,0 -3.505,-2.031 -3.505,-3.522 0,-1.164 0.569,-2.15 1.293,-2.749 1.673,-1.389 3.58,-2.494 5.299,-3.485 0.234,-0.133 0.327,-0.298 0.327,-0.453 0,-0.251 -0.166,-0.409 -0.384,-0.532 -6.774,-3.969 -11.796,-8.567 -18.993,-20.641 -0.333,-0.555 -0.5,-1.182 -0.5,-1.815 0,-1.629 1.186,-3.536 3.433,-3.536 1.16,0 2.317,0.597 2.946,1.709 8.768,15.562 18.004,20.359 23.569,20.359 4.646,0 9.171,-4.128 12.715,-11.794 0.603,-1.307 1.901,-2.044 3.243,-2.044 2.078,0 3.446,1.933 3.446,3.536 C 7.819,-10.073 3.24,-2.805 0,0"
             style="fill:#344079;fill-opacity:1;fill-rule:nonzero;stroke:none"
             id="path105" />
        </g>
      </g>
    </g>
    <path
       d="m 37.425,63.271 h 375.267 v 1.712 H 37.425 Z"
       style="fill:#868686;fill-opacity:1;fill-rule:nonzero;stroke:none"
       id="path107" />
    <g
       id="g109">
      <g
         id="g111"
         clip-path="url(#clipPath115)">
        <g
           id="g117"
           transform="translate(87.0298,32.1959)">
          <path
             d="m 0,0 c -0.808,-0.375 -2.431,-0.751 -4.511,-0.751 -4.815,0 -8.441,2.816 -8.441,7.995 0,4.947 3.626,8.299 8.924,8.299 2.126,0 3.472,-0.42 4.052,-0.701 l -0.528,-1.667 c -0.838,0.378 -2.03,0.657 -3.451,0.657 -4.001,0 -6.666,-2.366 -6.666,-6.516 0,-3.868 2.408,-6.355 6.567,-6.355 1.342,0 2.712,0.26 3.597,0.657 z m -5.451,16.2 -2.658,2.673 h 1.873 l 1.622,-1.641 h 0.052 l 1.598,1.641 h 1.822 L -3.75,16.2 Z"
             style="fill:#868686;fill-opacity:1;fill-rule:nonzero;stroke:none"
             id="path119" />
        </g>
        <g
           id="g121"
           transform="translate(90.3013,47.483)">
          <path
             d="m 0,0 v -15.803 h 9.507 v 1.712 H 2.208 V 0 Z"
             style="fill:#868686;fill-opacity:1;fill-rule:nonzero;stroke:none"
             id="path123" />
        </g>
        <g
           id="g125"
           transform="translate(102.7759,47.483)">
          <path
             d="m 0,0 v -15.803 h 9.605 v 1.712 H 2.208 v 5.698 h 6.637 v 1.687 H 2.208 v 4.994 H 9.223 V 0 Z"
             style="fill:#868686;fill-opacity:1;fill-rule:nonzero;stroke:none"
             id="path127" />
        </g>
        <g
           id="g129"
           transform="translate(115.7525,31.6813)">
          <path
             d="M 0,0 V 15.8 H 2.408 L 7.887,7.807 C 9.151,5.955 10.139,4.29 10.951,2.672 l 0.047,0.022 c -0.2,2.112 -0.252,4.034 -0.252,6.496 v 6.61 h 2.08 V 0 h -2.23 L 5.17,8.017 C 3.981,9.775 2.843,11.581 1.979,13.293 L 1.901,13.268 C 2.027,11.277 2.08,9.378 2.08,6.752 V 0 Z"
             style="fill:#868686;fill-opacity:1;fill-rule:nonzero;stroke:none"
             id="path131" />
        </g>
        <g
           id="g133"
           transform="translate(138.5201,34.1666)">
          <path
             d="m 0,0 c 0.985,-0.563 2.431,-1.032 3.954,-1.032 2.253,0 3.571,1.101 3.571,2.697 0,1.477 -0.911,2.319 -3.22,3.139 -2.786,0.917 -4.51,2.253 -4.51,4.478 0,2.462 2.206,4.292 5.525,4.292 1.746,0 3.018,-0.375 3.777,-0.775 L 8.489,11.134 c -0.555,0.282 -1.697,0.751 -3.246,0.751 -2.331,0 -3.216,-1.289 -3.216,-2.366 0,-1.48 1.038,-2.206 3.395,-3.048 2.89,-1.033 4.361,-2.322 4.361,-4.643 0,-2.438 -1.954,-4.548 -5.982,-4.548 -1.648,0 -3.446,0.446 -4.362,1.008 z"
             style="fill:#868686;fill-opacity:1;fill-rule:nonzero;stroke:none"
             id="path135" />
        </g>
        <g
           id="g137"
           transform="translate(151.8277,47.4821)">
          <path
             d="M 0,0 H 2.206 V -7.619 H 2.28 c 0.454,0.609 0.911,1.173 1.343,1.688 L 8.845,0 h 2.739 L 5.399,-6.706 12.063,-15.8 H 9.452 L 3.828,-8.039 2.206,-9.775 V -15.8 H 0 Z"
             style="fill:#868686;fill-opacity:1;fill-rule:nonzero;stroke:none"
             id="path139" />
        </g>
        <g
           id="g141"
           transform="translate(168.2808,47.4821)">
          <path
             d="m 0,0 v -9.354 c 0,-3.539 1.697,-5.041 3.977,-5.041 2.534,0 4.157,1.549 4.157,5.041 V 0 h 2.229 v -9.213 c 0,-4.853 -2.763,-6.847 -6.466,-6.847 -3.495,0 -6.132,1.853 -6.132,6.753 V 0 Z"
             style="fill:#868686;fill-opacity:1;fill-rule:nonzero;stroke:none"
             id="path143" />
        </g>
        <g
           id="g145"
           transform="translate(182.981,47.2955)">
          <path
             d="m 0,0 c 1.067,0.162 2.458,0.304 4.236,0.304 2.176,0 3.777,-0.47 4.789,-1.312 0.936,-0.751 1.492,-1.899 1.492,-3.307 0,-1.43 -0.454,-2.554 -1.319,-3.376 -1.164,-1.149 -3.065,-1.735 -5.217,-1.735 -0.657,0 -1.269,0.026 -1.775,0.141 v -6.33 H 0 Z m 2.206,-7.62 c 0.482,-0.118 1.089,-0.163 1.822,-0.163 2.665,0 4.288,1.195 4.288,3.374 0,2.087 -1.6,3.095 -4.031,3.095 -0.961,0 -1.699,-0.07 -2.079,-0.164 z"
             style="fill:#868686;fill-opacity:1;fill-rule:nonzero;stroke:none"
             id="path147" />
        </g>
        <path
           d="m 196.975,31.679 h 2.205 v 15.803 h -2.205 z"
           style="fill:#868686;fill-opacity:1;fill-rule:nonzero;stroke:none"
           id="path149" />
        <g
           id="g151"
           transform="translate(203.5425,31.6813)">
          <path
             d="M 0,0 V 15.8 H 2.408 L 7.882,7.807 C 9.148,5.955 10.139,4.29 10.946,2.672 l 0.052,0.022 C 10.799,4.806 10.746,6.728 10.746,9.19 v 6.61 h 2.075 V 0 h -2.23 L 5.17,8.017 C 3.977,9.775 2.838,11.581 1.979,13.293 L 1.896,13.268 C 2.028,11.277 2.075,9.378 2.075,6.752 V 0 Z"
             style="fill:#868686;fill-opacity:1;fill-rule:nonzero;stroke:none"
             id="path153" />
        </g>
        <g
           id="g155"
           transform="translate(224.357,31.6813)">
          <path
             d="M 0,0 V 6.705 L -5.399,15.8 h 2.509 l 2.409,-4.36 C 0.178,10.245 0.682,9.284 1.215,8.183 h 0.052 c 0.481,1.029 1.059,2.062 1.719,3.257 l 2.46,4.36 H 7.955 L 2.23,6.728 V 0 Z"
             style="fill:#868686;fill-opacity:1;fill-rule:nonzero;stroke:none"
             id="path157" />
        </g>
        <g
           id="g159"
           transform="translate(252.5933,32.1959)">
          <path
             d="m 0,0 c -0.812,-0.375 -2.436,-0.751 -4.515,-0.751 -4.813,0 -8.437,2.816 -8.437,7.995 0,4.947 3.624,8.299 8.919,8.299 2.132,0 3.472,-0.42 4.055,-0.701 l -0.531,-1.667 c -0.837,0.378 -2.03,0.657 -3.445,0.657 -4.006,0 -6.666,-2.366 -6.666,-6.516 0,-3.868 2.408,-6.355 6.562,-6.355 1.344,0 2.712,0.26 3.601,0.657 z m -5.451,16.2 -2.657,2.673 h 1.872 l 1.623,-1.641 h 0.051 l 1.593,1.641 h 1.828 L -3.754,16.2 Z"
             style="fill:#868686;fill-opacity:1;fill-rule:nonzero;stroke:none"
             id="path161" />
        </g>
        <g
           id="g163"
           transform="translate(255.5611,34.1666)">
          <path
             d="m 0,0 c 0.986,-0.563 2.431,-1.032 3.955,-1.032 2.252,0 3.571,1.101 3.571,2.697 0,1.477 -0.911,2.319 -3.22,3.139 -2.786,0.917 -4.51,2.253 -4.51,4.478 0,2.462 2.205,4.292 5.524,4.292 1.746,0 3.019,-0.375 3.777,-0.775 L 8.489,11.134 c -0.555,0.282 -1.696,0.751 -3.245,0.751 -2.332,0 -3.216,-1.289 -3.216,-2.366 0,-1.48 1.037,-2.206 3.394,-3.048 2.89,-1.033 4.361,-2.322 4.361,-4.643 0,-2.438 -1.953,-4.548 -5.981,-4.548 -1.648,0 -3.446,0.446 -4.363,1.008 z"
             style="fill:#868686;fill-opacity:1;fill-rule:nonzero;stroke:none"
             id="path165" />
        </g>
        <g
           id="g167"
           transform="translate(283.4664,39.7457)">
          <path
             d="m 0,0 c 0,-5.438 -3.571,-8.323 -7.934,-8.323 -4.509,0 -7.678,3.235 -7.678,8.019 0,5.017 3.377,8.299 7.933,8.299 C -3.016,7.995 0,4.688 0,0 m -13.251,-0.257 c 0,-3.376 1.977,-6.401 5.446,-6.401 3.5,0 5.476,2.978 5.476,6.564 0,3.142 -1.775,6.425 -5.448,6.425 -3.651,0 -5.474,-3.12 -5.474,-6.588"
             style="fill:#868686;fill-opacity:1;fill-rule:nonzero;stroke:none"
             id="path169" />
        </g>
        <g
           id="g171"
           transform="translate(286.8414,47.2721)">
          <path
             d="m 0,0 c 0.963,0.187 2.487,0.328 4.028,0.328 2.208,0 3.628,-0.35 4.691,-1.151 0.886,-0.608 1.42,-1.546 1.42,-2.788 0,-1.525 -1.089,-2.861 -2.89,-3.471 v -0.044 c 1.622,-0.376 3.524,-1.62 3.524,-3.964 0,-1.361 -0.583,-2.391 -1.445,-3.164 -1.19,-1.008 -3.116,-1.477 -5.907,-1.477 -1.52,0 -2.683,0.093 -3.421,0.188 z m 2.205,-6.472 h 2.001 c 2.334,0 3.702,1.126 3.702,2.651 0,1.849 -1.518,2.578 -3.749,2.578 -1.013,0 -1.598,-0.071 -1.954,-0.141 z m 0,-7.572 c 0.43,-0.069 1.067,-0.094 1.853,-0.094 2.28,0 4.383,0.773 4.383,3.073 0,2.156 -2.004,3.047 -4.413,3.047 H 2.205 Z"
             style="fill:#868686;fill-opacity:1;fill-rule:nonzero;stroke:none"
             id="path173" />
        </g>
      </g>
    </g>
  </g>
</svg>
