<?xml version="1.0" encoding="UTF-8" standalone="no"?>
<svg
   xmlns:dc="http://purl.org/dc/elements/1.1/"
   xmlns:cc="http://creativecommons.org/ns#"
   xmlns:rdf="http://www.w3.org/1999/02/22-rdf-syntax-ns#"
   xmlns:svg="http://www.w3.org/2000/svg"
   xmlns="http://www.w3.org/2000/svg"
   xmlns:sodipodi="http://sodipodi.sourceforge.net/DTD/sodipodi-0.dtd"
   xmlns:inkscape="http://www.inkscape.org/namespaces/inkscape"
   width="708.59998"
   height="263.24042"
   viewBox="0 0 708.59998 263.24042"
   version="1.1"
   id="svg855"
   sodipodi:docname="inuits.svg"
   inkscape:version="1.0.2 (e86c8708, 2021-01-15)">
  <metadata
     id="metadata859">
    <rdf:RDF>
      <cc:Work
         rdf:about="">
        <dc:format>image/svg+xml</dc:format>
        <dc:type
           rdf:resource="http://purl.org/dc/dcmitype/StillImage" />
        <dc:title>Group 2</dc:title>
      </cc:Work>
    </rdf:RDF>
  </metadata>
  <sodipodi:namedview
     pagecolor="#ffffff"
     bordercolor="#666666"
     borderopacity="1"
     objecttolerance="10"
     gridtolerance="10"
     guidetolerance="10"
     inkscape:pageopacity="0"
     inkscape:pageshadow="2"
     inkscape:window-width="1382"
     inkscape:window-height="847"
     id="namedview857"
     showgrid="false"
     fit-margin-top="0"
     fit-margin-left="0"
     fit-margin-right="0"
     fit-margin-bottom="0"
     inkscape:zoom="1.0028169"
     inkscape:cx="354.4"
     inkscape:cy="131.6"
     inkscape:window-x="58"
     inkscape:window-y="25"
     inkscape:window-maximized="1"
     inkscape:current-layer="svg855" />
  <!-- Generator: Sketch 45.1 (43504) - http://www.bohemiancoding.com/sketch -->
  <title
     id="title833">Group 2</title>
  <desc
     id="desc835">Created with Sketch.</desc>
  <defs
     id="defs837" />
  <g
     id="Page-1"
     stroke="none"
     stroke-width="1"
     fill="none"
     fill-rule="evenodd"
     transform="translate(-0.6,-0.9)">
    <g
       id="inuits">
      <g
         id="Group">
        <g
           id="Group-2">
          <path
             d="M 40.4,190.9 V 99.5 L 8.4,114 0.6,96.5 60.1,69.2 H 61 V 191 H 40.4 Z m 9.4,-138 c -14.9,0 -26.4,-11 -26.4,-26 0,-14.9 11.5,-26 26.4,-26 14.9,0 26.4,11 26.4,26 0,14.9 -11.5,26 -26.4,26 z m 0,-37 c -6.4,0 -11,4.6 -11,11 0,6.4 4.6,11 11,11 6.4,0 11,-4.6 11,-11 0,-6.4 -4.6,-11 -11,-11 z"
             id="Shape"
             fill="#11a7c9"
             fill-rule="nonzero" />
          <path
             d="m 120.3,110.3 c -1.4,4.8 -1.8,10.6 -1.8,19.8 V 191 H 97.8 v -65.2 c 0,-7.8 0.5,-13.1 1.4,-17.5 5.1,-24.4 24.1,-40.4 55.6,-40.4 31.5,0 50.5,16.1 55.6,40.4 0.9,4.4 1.4,9.6 1.4,17.5 V 191 h -20.7 v -60.9 c 0,-9.2 -0.5,-14.9 -1.8,-19.8 -4.1,-14 -14.7,-22.5 -34.5,-22.5 -19.8,0 -30.4,8.5 -34.5,22.5 z"
             id="path840"
             fill="#11a7c9"
             fill-rule="nonzero" />
          <path
             d="m 337,149.8 c 1.4,-4.8 1.8,-10.6 1.8,-19.8 V 69.1 h 20.7 v 65.2 c 0,7.8 -0.5,13.1 -1.4,17.5 -5.1,24.4 -24.1,40.4 -55.6,40.4 -31.5,0 -50.5,-16 -55.5,-40.3 -0.9,-4.4 -1.4,-9.6 -1.4,-17.5 V 69.2 h 20.7 v 60.9 c 0,9.2 0.5,14.9 1.8,19.8 4.1,14 14.7,22.5 34.5,22.5 19.7,-0.1 30.3,-8.6 34.4,-22.6 z"
             id="path842"
             fill="#11a7c9"
             fill-rule="nonzero" />
          <path
             d="M 425.2,190.9 V 99.5 L 393.3,114 385.5,96.5 445,69.2 h 0.9 V 191 h -20.7 z m 9.4,-138 c -14.9,0 -26.4,-11 -26.4,-26 0,-14.9 11.5,-26 26.4,-26 14.9,0 26.4,11 26.4,26 0,14.9 -11.5,26 -26.4,26 z m 0,-37 c -6.4,0 -11,4.6 -11,11 0,6.4 4.6,11 11,11 6.4,0 11,-4.6 11,-11 0,-6.4 -4.6,-11 -11,-11 z"
             id="path844"
             fill="#11a7c9"
             fill-rule="nonzero" />
          <path
             d="M 510.8,88.5 H 470.1 V 69.2 H 579 V 88.5 H 531.4 V 139 c 0,8 0.7,13.8 2.5,18.6 3.9,9.9 12.9,14.7 27.6,14.7 5.3,0 11.9,-0.7 18.4,-2.3 l 4.6,19.3 c -7.8,2.1 -16.1,3 -24.8,3 -24.4,0 -39.5,-10.6 -45.7,-27.3 -2.1,-5.7 -3.2,-12.2 -3.2,-21.1 z"
             id="path846"
             fill="#11a7c9"
             fill-rule="nonzero" />
          <path
             d="m 661.9,171.6 c 10.8,0 16.8,-1.6 20.4,-4.1 3.9,-2.8 5.5,-6.9 5.5,-12.2 0,-6 -1.8,-10.6 -7.1,-13.3 -3.7,-1.8 -9.2,-3 -19.5,-3 h -11.5 c -13.6,0 -21.4,-1.6 -27.3,-4.6 -11.3,-5.7 -17.2,-16.3 -17.2,-29.4 0,-13.8 6.4,-24.8 17.7,-30.8 6.2,-3.2 13.8,-5.1 26.2,-5.1 h 55.1 v 19.3 h -56.3 c -7.6,0 -12.4,1.1 -15.9,3.7 -3.7,2.5 -5.5,6.7 -5.5,11.9 0,6 2.5,10.3 7.1,12.9 3.2,1.8 7.6,2.8 16.1,2.8 h 12.4 c 14.7,0 22.5,1.6 28.7,4.6 12.4,6 18.4,17.5 18.4,31 0,10.3 -3.9,19.3 -11.5,25.7 -7.4,6.2 -18.1,9.9 -35.6,9.9 h -55.4 v -19.3 z"
             id="path848"
             fill="#11a7c9"
             fill-rule="nonzero" />
          <path
             d="m 30.609429,249.95782 c 0,4.10028 -1.296618,7.48908 -3.889893,10.1665 -2.593274,2.67742 -5.962951,4.01611 -10.109131,4.01611 -4.11558,0 -7.4584828,-1.33869 -10.0288081,-4.01611 -2.5703254,-2.67742 -3.8554688,-6.06622 -3.8554688,-10.1665 v -6.0127 c 0,-4.08498 1.2813186,-7.46996 3.8439942,-10.15503 2.5626755,-2.68507 5.9017537,-4.02759 10.0173337,-4.02759 4.14618,0 7.519681,1.34252 10.120606,4.02759 2.600924,2.68507 3.901367,6.07005 3.901367,10.15503 z m -6.701172,-6.0586 c 0,-2.60092 -0.650221,-4.73518 -1.950684,-6.40283 -1.300462,-1.66765 -3.090483,-2.50146 -5.370117,-2.50146 -2.279633,0 -4.046706,0.82998 -5.301269,2.48999 -1.254564,1.66 -1.8818362,3.79808 -1.8818362,6.4143 v 6.0586 c 0,2.64682 0.6349222,4.80402 1.9047852,6.47168 1.269863,1.66765 3.036935,2.50146 5.301269,2.50146 2.294934,0 4.084955,-0.83381 5.370118,-2.50146 1.285162,-1.66766 1.927734,-3.82486 1.927734,-6.47168 z m 22.634766,7.64209 v 12.11719 h -6.701172 v -33.41406 h 13.310547 c 3.840188,0 6.861805,0.97915 9.064941,2.9375 2.203136,1.95834 3.304688,4.53628 3.304688,7.73388 0,3.19761 -1.101552,5.7679 -3.304688,7.71094 -2.203136,1.94304 -5.224753,2.91455 -9.064941,2.91455 z m 0,-5.16357 h 6.609375 c 1.866545,0 3.281733,-0.5087 4.245605,-1.52613 0.963872,-1.01742 1.445801,-2.31403 1.445801,-3.88989 0,-1.60645 -0.478104,-2.93367 -1.434326,-3.98169 -0.956223,-1.04802 -2.375235,-1.57202 -4.25708,-1.57202 H 46.543023 Z M 94.995659,248.971 H 81.15728 v 9.54687 h 16.1792 v 5.14063 H 74.456109 v -33.41406 h 22.834472 v 5.16357 H 81.15728 v 8.39942 h 13.838379 z m 37.459961,14.6875 h -6.67822 l -13.49414,-22.83447 -0.1377,0.023 v 22.81152 h -6.70117 v -33.41406 h 6.70117 l 13.49414,22.81152 0.1377,-0.023 v -22.78857 h 6.67822 z m 44.00732,-8.7207 c 0,-1.28517 -0.45515,-2.31787 -1.36547,-3.09815 -0.91033,-0.78028 -2.50528,-1.51464 -4.78492,-2.20312 -3.97788,-1.14747 -6.9842,-2.50911 -9.01904,-4.08496 -2.03484,-1.57586 -3.05225,-3.73306 -3.05225,-6.47168 0,-2.73862 1.16658,-4.97615 3.49976,-6.71265 2.33318,-1.7365 5.31273,-2.60474 8.93872,-2.60474 3.67189,0 6.66291,0.97534 8.97315,2.92603 2.31023,1.95069 3.42708,4.35651 3.35058,7.21753 l -0.0459,0.13769 h -6.49463 c 0,-1.54525 -0.51635,-2.79597 -1.54907,-3.75219 -1.03272,-0.95623 -2.48233,-1.43433 -4.34888,-1.43433 -1.79004,0 -3.17463,0.39778 -4.1538,1.19336 -0.97918,0.79558 -1.46875,1.81298 -1.46875,3.05225 0,1.13216 0.524,2.0616 1.57202,2.78833 1.04802,0.72672 2.85716,1.49552 5.42749,2.30639 3.68719,1.02507 6.47932,2.37906 8.37646,4.06201 1.89715,1.68295 2.84571,3.89371 2.84571,6.63233 0,2.86101 -1.12833,5.11767 -3.38501,6.77002 -2.25669,1.65235 -5.23623,2.47851 -8.93872,2.47851 -3.6413,0 -6.81591,-0.93708 -9.52393,-2.81128 -2.70802,-1.87419 -4.02376,-4.50185 -3.94727,-7.88305 l 0.0459,-0.1377 h 6.51758 c 0,1.98894 0.60815,3.44621 1.82446,4.37183 1.21632,0.92562 2.91072,1.38843 5.08326,1.38843 1.82064,0 3.21288,-0.37484 4.17675,-1.12452 0.96388,-0.74967 1.4458,-1.75178 1.4458,-3.00634 z m 42.64649,-4.97998 c 0,4.10028 -1.29662,7.48908 -3.88989,10.1665 -2.59328,2.67742 -5.96296,4.01611 -10.10914,4.01611 -4.11558,0 -7.45848,-1.33869 -10.0288,-4.01611 -2.57033,-2.67742 -3.85547,-6.06622 -3.85547,-10.1665 v -6.0127 c 0,-4.08498 1.28132,-7.46996 3.84399,-10.15503 2.56268,-2.68507 5.90176,-4.02759 10.01734,-4.02759 4.14618,0 7.51968,1.34252 10.1206,4.02759 2.60093,2.68507 3.90137,6.07005 3.90137,10.15503 z m -6.70117,-6.0586 c 0,-2.60092 -0.65022,-4.73518 -1.95069,-6.40283 -1.30046,-1.66765 -3.09048,-2.50146 -5.37011,-2.50146 -2.27964,0 -4.04671,0.82998 -5.30127,2.48999 -1.25457,1.66 -1.88184,3.79808 -1.88184,6.4143 v 6.0586 c 0,2.64682 0.63492,4.80402 1.90479,6.47168 1.26986,1.66765 3.03693,2.50146 5.30126,2.50146 2.29494,0 4.08496,-0.83381 5.37012,-2.50146 1.28516,-1.66766 1.92774,-3.82486 1.92774,-6.47168 z m 42.37109,-13.65478 v 22.16894 c 0,3.74839 -1.23925,6.63997 -3.71777,8.67481 -2.47853,2.03484 -5.72199,3.05224 -9.73047,3.05224 -3.99318,0 -7.21752,-1.0174 -9.6731,-3.05224 -2.45558,-2.03484 -3.68335,-4.92642 -3.68335,-8.67481 v -22.16894 h 6.72412 v 22.16894 c 0,2.20314 0.58903,3.85164 1.76709,4.94556 1.17807,1.09392 2.7998,1.64087 4.86524,1.64087 2.09604,0 3.74071,-0.54313 4.93408,-1.6294 1.19337,-1.08626 1.79004,-2.73859 1.79004,-4.95703 v -22.16894 z m 16.55322,20.05761 v 13.35645 h -6.70117 v -33.41406 h 12.59912 c 3.80959,0 6.78914,0.86823 8.93872,2.60473 2.14959,1.7365 3.22437,4.15762 3.22437,7.26343 0,1.72885 -0.45133,3.21289 -1.35401,4.45215 -0.90267,1.23926 -2.22606,2.24137 -3.97021,3.00635 1.97364,0.58138 3.39265,1.55289 4.25708,2.91455 0.86442,1.36166 1.29663,3.04458 1.29663,5.04883 v 2.45556 c 0,0.93328 0.12622,1.90861 0.37866,2.92603 0.25245,1.01742 0.68465,1.77091 1.29663,2.2605 v 0.48193 h -6.90771 c -0.61198,-0.48959 -1.00977,-1.3081 -1.19336,-2.45557 -0.18359,-1.14746 -0.27539,-2.23371 -0.27539,-3.25879 v -2.36377 c 0,-1.66765 -0.45516,-2.96426 -1.36548,-3.88989 -0.91032,-0.92562 -2.19164,-1.38843 -3.84399,-1.38843 z m 0,-5.16357 h 5.78321 c 1.88184,0 3.28556,-0.39778 4.21118,-1.19336 0.92562,-0.79558 1.38843,-1.97362 1.38843,-3.53418 0,-1.52995 -0.46281,-2.74625 -1.38843,-3.64892 -0.92562,-0.90268 -2.29109,-1.35401 -4.09644,-1.35401 h -5.89795 z m 53.59326,7.16016 0.0459,0.13769 c 0.0612,3.5954 -1.03653,6.4449 -3.29321,8.54859 -2.25668,2.10368 -5.38922,3.15551 -9.3977,3.15551 -4.02379,0 -7.29019,-1.29279 -9.79932,-3.87841 -2.50913,-2.58563 -3.76367,-5.91323 -3.76367,-9.98292 v -6.63232 c 0,-4.05438 1.22394,-7.38198 3.67187,-9.98291 2.44793,-2.60092 5.63019,-3.90137 9.54688,-3.90137 4.13088,0 7.35903,1.05948 9.68457,3.17847 2.32553,2.11899 3.45768,5.00674 3.39648,8.66333 l -0.0459,0.1377 h -6.51757 c 0,-2.20314 -0.52783,-3.88989 -1.5835,-5.06031 -1.05567,-1.17041 -2.70035,-1.75561 -4.93408,-1.75561 -2.00424,0 -3.59537,0.81469 -4.77344,2.44409 -1.17807,1.6294 -1.76709,3.70629 -1.76709,6.23071 v 6.67822 c 0,2.55503 0.61962,4.64721 1.85889,6.27662 1.23926,1.6294 2.91454,2.44409 5.02588,2.44409 2.09603,0 3.64509,-0.56225 4.64721,-1.68677 1.00212,-1.12452 1.50318,-2.79597 1.50318,-5.0144 z m 29.35889,-3.32764 h -13.83838 v 9.54687 h 16.1792 v 5.14063 h -22.88037 v -33.41406 h 22.83447 v 5.16357 h -16.1333 v 8.39942 h 13.83838 z m 33.26709,14.6875 h -6.70117 v -33.41406 h 6.70117 z m 37.68945,0 h -6.67822 l -13.49414,-22.83447 -0.13769,0.023 v 22.81152 h -6.70118 v -33.41406 h 6.70118 l 13.49414,22.81152 0.13769,-0.023 v -22.78857 h 6.67822 z m 37.27637,0 h -6.67822 l -13.49414,-22.83447 -0.1377,0.023 v 22.81152 h -6.70117 v -33.41406 h 6.70117 l 13.49414,22.81152 0.1377,-0.023 v -22.78857 h 6.67822 z m 37.13867,-13.70068 c 0,4.10028 -1.29661,7.48908 -3.88989,10.1665 -2.59327,2.67742 -5.96295,4.01611 -10.10913,4.01611 -4.11558,0 -7.45848,-1.33869 -10.02881,-4.01611 -2.57032,-2.67742 -3.85547,-6.06622 -3.85547,-10.1665 v -6.0127 c 0,-4.08498 1.28132,-7.46996 3.844,-10.15503 2.56267,-2.68507 5.90175,-4.02759 10.01733,-4.02759 4.14618,0 7.51968,1.34252 10.12061,4.02759 2.60092,2.68507 3.90136,6.07005 3.90136,10.15503 z m -6.70117,-6.0586 c 0,-2.60092 -0.65022,-4.73518 -1.95068,-6.40283 -1.30046,-1.66765 -3.09048,-2.50146 -5.37012,-2.50146 -2.27963,0 -4.04671,0.82998 -5.30127,2.48999 -1.25456,1.66 -1.88183,3.79808 -1.88183,6.4143 v 6.0586 c 0,2.64682 0.63492,4.80402 1.90478,6.47168 1.26986,1.66765 3.03694,2.50146 5.30127,2.50146 2.29493,0 4.08495,-0.83381 5.37012,-2.50146 1.28516,-1.66766 1.92773,-3.82486 1.92773,-6.47168 z m 26.69678,10.87793 0.41308,1.81299 h 0.1377 l 0.39014,-1.76709 7.2749,-24.57861 h 7.06836 l -11.35986,33.41406 h -6.88477 l -11.33691,-33.41406 h 7.06836 z m 37.25342,1.67529 h -11.72705 l -2.27198,7.20606 h -6.77002 l 11.49756,-33.41406 h 6.86182 l 11.45166,33.41406 h -6.77002 z m -10.07471,-5.25537 h 8.42236 l -4.13086,-13.12695 h -0.13769 z m 49.32471,-15.78906 h -9.45508 v 28.25049 h -6.70117 v -28.25049 h -9.40918 v -5.16357 h 25.56543 z m 33.85693,14.54981 c 0,4.10028 -1.29662,7.48908 -3.88989,10.1665 -2.59328,2.67742 -5.96295,4.01611 -10.10913,4.01611 -4.11558,0 -7.45849,-1.33869 -10.02881,-4.01611 -2.57033,-2.67742 -3.85547,-6.06622 -3.85547,-10.1665 v -6.0127 c 0,-4.08498 1.28132,-7.46996 3.84399,-10.15503 2.56268,-2.68507 5.90176,-4.02759 10.01734,-4.02759 4.14618,0 7.51968,1.34252 10.1206,4.02759 2.60093,2.68507 3.90137,6.07005 3.90137,10.15503 z m -6.70117,-6.0586 c 0,-2.60092 -0.65022,-4.73518 -1.95068,-6.40283 -1.30047,-1.66765 -3.09049,-2.50146 -5.37012,-2.50146 -2.27964,0 -4.04671,0.82998 -5.30127,2.48999 -1.25457,1.66 -1.88184,3.79808 -1.88184,6.4143 v 6.0586 c 0,2.64682 0.63492,4.80402 1.90479,6.47168 1.26986,1.66765 3.03693,2.50146 5.30127,2.50146 2.29493,0 4.08495,-0.83381 5.37012,-2.50146 1.28516,-1.66766 1.92773,-3.82486 1.92773,-6.47168 z m 22.63477,6.40283 v 13.35645 h -6.70118 v -33.41406 h 12.59912 c 3.80959,0 6.78914,0.86823 8.93872,2.60473 2.14959,1.7365 3.22437,4.15762 3.22437,7.26343 0,1.72885 -0.45133,3.21289 -1.354,4.45215 -0.90268,1.23926 -2.22607,2.24137 -3.97022,3.00635 1.97364,0.58138 3.39266,1.55289 4.25708,2.91455 0.86443,1.36166 1.29663,3.04458 1.29663,5.04883 v 2.45556 c 0,0.93328 0.12622,1.90861 0.37866,2.92603 0.25245,1.01742 0.68465,1.77091 1.29663,2.2605 v 0.48193 h -6.90771 c -0.61198,-0.48959 -1.00977,-1.3081 -1.19336,-2.45557 -0.18359,-1.14746 -0.27539,-2.23371 -0.27539,-3.25879 v -2.36377 c 0,-1.66765 -0.45515,-2.96426 -1.36548,-3.88989 -0.91032,-0.92562 -2.19164,-1.38843 -3.84399,-1.38843 z m 0,-5.16357 h 5.7832 c 1.88184,0 3.28556,-0.39778 4.21118,-1.19336 0.92562,-0.79558 1.38843,-1.97362 1.38843,-3.53418 0,-1.52995 -0.46281,-2.74625 -1.38843,-3.64892 -0.92562,-0.90268 -2.29109,-1.35401 -4.09644,-1.35401 h -5.89794 z m 46.41015,9.79932 c 0,-1.28517 -0.45515,-2.31787 -1.36548,-3.09815 -0.91032,-0.78028 -2.50528,-1.51464 -4.78491,-2.20312 -3.97788,-1.14747 -6.9842,-2.50911 -9.01904,-4.08496 -2.03484,-1.57586 -3.05225,-3.73306 -3.05225,-6.47168 0,-2.73862 1.16657,-4.97615 3.49976,-6.71265 2.33318,-1.7365 5.31272,-2.60474 8.93872,-2.60474 3.67189,0 6.66291,0.97534 8.97314,2.92603 2.31023,1.95069 3.42709,4.35651 3.35059,7.21753 l -0.0459,0.13769 h -6.49463 c 0,-1.54525 -0.51635,-2.79597 -1.54907,-3.75219 -1.03272,-0.95623 -2.48233,-1.43433 -4.34888,-1.43433 -1.79005,0 -3.17464,0.39778 -4.15381,1.19336 -0.97917,0.79558 -1.46875,1.81298 -1.46875,3.05225 0,1.13216 0.52401,2.0616 1.57202,2.78833 1.04802,0.72672 2.85717,1.49552 5.42749,2.30639 3.6872,1.02507 6.47933,2.37906 8.37647,4.06201 1.89714,1.68295 2.8457,3.89371 2.8457,6.63233 0,2.86101 -1.12832,5.11767 -3.38501,6.77002 -2.25668,1.65235 -5.23623,2.47851 -8.93872,2.47851 -3.64129,0 -6.8159,-0.93708 -9.52392,-2.81128 -2.70803,-1.87419 -4.02377,-4.50185 -3.94727,-7.88305 l 0.0459,-0.1377 h 6.51758 c 0,1.98894 0.60815,3.44621 1.82446,4.37183 1.21632,0.92562 2.91072,1.38843 5.08325,1.38843 1.82065,0 3.21289,-0.37484 4.17676,-1.12452 0.96387,-0.74967 1.4458,-1.75178 1.4458,-3.00634 z"
             id="OPEN-SOURCE-INNOVATORS"
             fill="#41a7c9" />
        </g>
      </g>
    </g>
  </g>
</svg>
