<?xml version="1.0" encoding="UTF-8" standalone="no"?>
<!-- Generator: Adobe Illustrator 16.0.0, SVG Export Plug-In . SVG Version: 6.00 Build 0)  -->

<svg
   version="1.1"
   id="Vrstva_1"
   x="0px"
   y="0px"
   width="1604.401"
   height="371.18399"
   viewBox="0 0 1604.401 371.18399"
   enable-background="new 0 0 1604.402 370.453"
   xml:space="preserve"
   sodipodi:docname="itnetwork-CZ-logo-blue-claim.svg"
   inkscape:version="1.3.2 (091e20e, 2023-11-25)"
   xmlns:inkscape="http://www.inkscape.org/namespaces/inkscape"
   xmlns:sodipodi="http://sodipodi.sourceforge.net/DTD/sodipodi-0.dtd"
   xmlns="http://www.w3.org/2000/svg"
   xmlns:svg="http://www.w3.org/2000/svg"><defs
   id="defs25" /><sodipodi:namedview
   id="namedview25"
   pagecolor="#ffffff"
   bordercolor="#666666"
   borderopacity="1.0"
   inkscape:showpageshadow="2"
   inkscape:pageopacity="0.0"
   inkscape:pagecheckerboard="0"
   inkscape:deskcolor="#d1d1d1"
   inkscape:zoom="0.44377906"
   inkscape:cx="802.20099"
   inkscape:cy="185.90332"
   inkscape:window-width="1368"
   inkscape:window-height="847"
   inkscape:window-x="73"
   inkscape:window-y="25"
   inkscape:window-maximized="1"
   inkscape:current-layer="Vrstva_1" />
<g
   id="g20">
	<path
   fill="#00386b"
   d="m 588.6,118.354 c 7.665,8.686 11.5,20.628 11.5,35.824 v 65.949 h -34.807 v -61.879 c 0,-7.598 -2.004,-13.535 -6.005,-17.81 -4.004,-4.275 -9.331,-6.412 -15.979,-6.412 -7.057,0 -12.653,2.239 -16.792,6.717 -4.142,4.479 -6.208,10.858 -6.208,19.134 v 60.25 h -34.807 v -113.58 h 34.807 v 20.763 c 3.257,-6.784 8.106,-12.144 14.555,-16.081 6.442,-3.934 14.01,-5.902 22.694,-5.902 13.027,0 23.374,4.345 31.042,13.027 z"
   id="path1" />
	<path
   fill="#00386b"
   d="m 813.414,190.206 v 29.922 h -15.672 c -13.301,0 -23.646,-3.288 -31.041,-9.872 -7.397,-6.58 -11.094,-17.47 -11.094,-32.669 V 135.859 H 740.34 v -29.312 h 15.267 V 78.662 h 34.807 v 27.886 h 22.797 v 29.312 h -22.797 v 42.338 c 0,4.478 0.916,7.601 2.748,9.362 1.832,1.766 4.917,2.646 9.262,2.646 z"
   id="path2" />
	<path
   fill="#00386b"
   d="m 999.048,106.548 -29.106,113.58 h -38.88 l -20.559,-76.127 -20.762,76.127 h -38.877 l -29.107,-113.58 h 34.807 l 15.063,81.826 21.17,-81.826 h 37.045 l 21.779,82.03 15.063,-82.03 z"
   id="path3" />
	<path
   fill="#00386b"
   d="m 1095.019,112.145 c 8.886,4.682 15.877,11.434 20.966,20.253 5.088,8.823 7.633,19.134 7.633,30.939 0,11.805 -2.545,22.12 -7.633,30.938 -5.089,8.822 -12.08,15.572 -20.966,20.254 -8.891,4.682 -18.965,7.021 -30.227,7.021 -11.266,0 -21.373,-2.341 -30.33,-7.021 -8.955,-4.682 -15.979,-11.432 -21.065,-20.254 -5.091,-8.818 -7.634,-19.133 -7.634,-30.938 0,-11.805 2.543,-22.116 7.634,-30.939 5.088,-8.819 12.11,-15.571 21.065,-20.253 8.957,-4.682 19.064,-7.022 30.33,-7.022 11.262,0 21.336,2.341 30.227,7.022 z M 1048,142.474 c -4.549,4.818 -6.82,11.773 -6.82,20.863 0,9.093 2.271,16.014 6.82,20.762 4.545,4.752 10.143,7.125 16.793,7.125 6.646,0 12.211,-2.373 16.688,-7.125 4.479,-4.748 6.718,-11.669 6.718,-20.762 0,-9.09 -2.238,-16.045 -6.718,-20.863 -4.479,-4.815 -10.043,-7.227 -16.688,-7.227 -6.651,10e-4 -12.249,2.412 -16.793,7.227 z"
   id="path4" />
	<path
   fill="#00386b"
   d="m 1193.33,111.433 c 6.852,-4.071 14.281,-6.106 22.289,-6.106 v 37.249 h -9.976 c -9.229,0 -16.385,1.969 -21.473,5.903 -5.09,3.937 -7.633,10.584 -7.633,19.948 v 51.7 h -34.808 v -113.58 h 34.808 v 21.373 c 4.341,-6.92 9.939,-12.416 16.793,-16.487 z"
   id="path5" />
	<path
   fill="#00386b"
   d="m 1299.072,220.128 -33.992,-48.241 v 48.241 h -34.807 V 69.503 h 34.807 v 82.64 l 33.992,-45.595 h 40.914 l -45.799,56.79 46.815,56.79 z"
   id="path6" />
	<path
   fill="#00386b"
   d="m 1484.308,117.234 c 9.904,8.075 16.146,19.169 18.728,33.28 h -36.844 c -1.087,-4.885 -3.326,-8.683 -6.718,-11.398 -3.393,-2.713 -7.668,-4.071 -12.821,-4.071 -6.107,0 -11.13,2.411 -15.063,7.226 -3.938,4.818 -5.904,11.841 -5.904,21.067 0,9.229 1.968,16.252 5.904,21.067 3.934,4.817 8.955,7.226 15.063,7.226 5.153,0 9.43,-1.354 12.821,-4.07 3.392,-2.712 5.631,-6.514 6.718,-11.397 h 36.844 c -2.58,14.114 -8.822,25.208 -18.728,33.278 -9.907,8.076 -22.188,12.111 -36.842,12.111 -11.129,0 -21.002,-2.341 -29.617,-7.021 -8.619,-4.682 -15.366,-11.432 -20.252,-20.254 -4.887,-8.818 -7.328,-19.133 -7.328,-30.938 0,-11.939 2.406,-22.288 7.226,-31.041 4.815,-8.752 11.567,-15.47 20.254,-20.151 8.682,-4.682 18.59,-7.022 29.719,-7.022 14.653,-0.003 26.932,4.037 36.84,12.108 z"
   id="path7" />
	<path
   fill="#00386b"
   d="m 1551.884,191.02 h 52.517 v 29.107 h -90.578 v -27.479 l 48.852,-57.197 h -48.037 v -28.904 h 87.729 v 27.479 z"
   id="path8" />
	<path
   fill="#00386b"
   d="m 730.979,160.285 c 0,-10.855 -2.341,-20.457 -7.021,-28.803 -4.682,-8.345 -11.297,-14.823 -19.846,-19.438 -8.549,-4.611 -18.456,-6.921 -29.719,-6.921 -11.129,0 -21.035,2.341 -29.719,7.022 -8.686,4.682 -15.438,11.399 -20.253,20.151 -4.817,8.753 -7.226,19.102 -7.226,31.041 0,11.806 2.441,22.12 7.328,30.938 4.885,8.822 11.634,15.572 20.253,20.254 8.614,4.682 18.486,7.021 29.615,7.021 9.496,0 18.115,-1.797 25.852,-5.394 7.733,-3.595 14.111,-8.55 19.133,-14.859 5.019,-6.31 8.275,-13.466 9.771,-21.475 h -36.843 c -1.088,4.071 -3.326,7.397 -6.718,9.975 -3.394,2.579 -7.668,3.867 -12.823,3.867 -6.105,0 -11.128,-1.864 -15.063,-5.599 -3.938,-3.729 -6.106,-9.872 -6.514,-18.42 h 78.772 c 0.681,-3.387 1.021,-6.51 1.021,-9.36 z m -56.585,-27.683 c 6.106,0 11.228,1.867 15.367,5.598 2.951,2.663 4.795,6.292 5.572,10.853 h -42.98 c 1.142,-4.463 3.184,-8.059 6.164,-10.75 4.204,-3.799 9.497,-5.701 15.877,-5.701 z"
   id="path9" />
	<path
   fill="#00386b"
   d="m 91.596,15.994 h 78.512 c 50.588,0 91.596,41.01 91.596,91.597 v 81.419 c 0,50.59 -41.008,91.598 -91.596,91.598 H 91.596 C 41.01,280.605 0,239.598 0,189.01 V 107.591 C 0,57.004 41.01,15.994 91.596,15.994 Z"
   id="path10" />
	<path
   fill="#00386b"
   d="m 831.138,296.902 v 44.131 c 0,7.234 1.599,12.572 4.799,16.014 3.197,3.442 7.615,5.166 13.25,5.166 5.563,0 9.912,-1.738 13.039,-5.219 3.132,-3.475 4.697,-8.796 4.697,-15.961 v -44.131 h 9.492 v 44.131 c 0,10.018 -2.488,17.543 -7.457,22.586 -4.977,5.045 -11.635,7.564 -19.979,7.564 -8.277,0 -14.904,-2.521 -19.873,-7.564 -4.976,-5.043 -7.464,-12.568 -7.464,-22.586 v -44.131 z"
   id="path11" />
	<path
   fill="#00386b"
   d="m 934.63,318.29 c 4.799,3.896 7.756,9.112 8.867,15.647 h -10.014 c -0.699,-4.103 -2.593,-7.318 -5.688,-9.65 -3.096,-2.327 -6.938,-3.495 -11.526,-3.495 -3.339,0 -6.384,0.767 -9.128,2.296 -2.75,1.531 -4.959,3.877 -6.627,7.043 -1.67,3.166 -2.506,7.078 -2.506,11.738 0,4.658 0.836,8.57 2.506,11.734 1.668,3.168 3.877,5.514 6.627,7.043 2.744,1.528 5.789,2.295 9.128,2.295 4.588,0 8.432,-1.183 11.526,-3.549 3.096,-2.361 4.988,-5.597 5.688,-9.699 h 10.014 c -1.111,6.606 -4.068,11.839 -8.867,15.701 -4.799,3.859 -10.852,5.789 -18.152,5.789 -5.495,0 -10.366,-1.185 -14.604,-3.547 -4.244,-2.365 -7.564,-5.755 -9.965,-10.174 -2.398,-4.417 -3.601,-9.613 -3.601,-15.595 0,-5.982 1.201,-11.199 3.601,-15.65 2.399,-4.45 5.721,-7.858 9.965,-10.223 4.238,-2.365 9.109,-3.55 14.604,-3.55 7.301,10e-4 13.354,1.949 18.152,5.846 m -4.277,-19.927 -14.396,8.658 -14.502,-8.658 v -6.678 l 14.502,8.764 14.396,-8.764 z"
   id="path12" />
	<path
   fill="#00386b"
   d="m 978.759,296.484 -22.223,12.207 v -6.779 l 22.223,-13.148 z m -12.416,73.969 h -9.596 v -57.275 h 9.596 z"
   id="path13" />
	<path
   fill="#00386b"
   d="m 1069.054,318.654 c 4.068,4.277 6.103,10.451 6.103,18.52 v 33.281 h -9.494 v -32.447 c 0,-5.633 -1.371,-9.945 -4.119,-12.938 -2.748,-2.989 -6.521,-4.486 -11.32,-4.486 -5.008,0 -9.024,1.652 -12.049,4.957 -3.022,3.303 -4.539,8.154 -4.539,14.553 v 30.361 h -9.493 v -32.447 c 0,-5.633 -1.394,-9.945 -4.175,-12.938 -2.782,-2.989 -6.537,-4.486 -11.266,-4.486 -5.078,0 -9.127,1.652 -12.156,4.957 -3.022,3.303 -4.535,8.155 -4.535,14.553 v 30.361 h -9.493 v -57.277 h 9.493 v 13.041 c 1.392,-4.52 3.873,-7.979 7.457,-10.38 3.584,-2.399 7.703,-3.601 12.365,-3.601 4.867,0 9.092,1.234 12.676,3.703 3.58,2.471 6.136,6.104 7.666,10.902 1.601,-4.658 4.277,-8.26 8.031,-10.798 3.76,-2.539 8,-3.809 12.729,-3.809 6.678,0.002 12.051,2.143 16.119,6.418"
   id="path14" />
	<path
   fill="#00386b"
   d="m 1142.132,343.85 h -45.799 c 0.209,6.539 2.068,11.441 5.582,14.711 3.508,3.268 7.807,4.902 12.885,4.902 4.59,0 8.433,-1.165 11.527,-3.495 3.096,-2.329 4.99,-5.438 5.688,-9.336 h 10.117 c -0.693,3.964 -2.24,7.511 -4.643,10.64 -2.4,3.131 -5.51,5.565 -9.336,7.305 -3.828,1.738 -8.14,2.607 -12.937,2.607 -5.496,0 -10.365,-1.185 -14.606,-3.547 -4.242,-2.365 -7.563,-5.755 -9.962,-10.174 -2.399,-4.417 -3.6,-9.613 -3.6,-15.595 0,-5.982 1.199,-11.199 3.6,-15.65 2.398,-4.45 5.72,-7.858 9.962,-10.223 4.241,-2.365 9.11,-3.55 14.606,-3.55 5.563,0 10.41,1.185 14.556,3.55 4.137,2.362 7.301,5.528 9.487,9.491 2.195,3.966 3.289,8.348 3.289,13.146 0,2.02 -0.136,3.757 -0.416,5.218 m -11.265,-15.232 c -1.604,-2.853 -3.793,-4.974 -6.572,-6.364 -2.783,-1.391 -5.807,-2.086 -9.076,-2.086 -5.217,0 -9.6,1.616 -13.145,4.852 -3.552,3.231 -5.462,7.98 -5.74,14.239 h 36.619 c 0.209,-4.243 -0.487,-7.788 -2.086,-10.641"
   id="path15" />
	<path
   fill="#00386b"
   d="m 1227.054,318.654 c 4.105,4.277 6.156,10.451 6.156,18.52 v 33.281 h -9.494 v -32.447 c 0,-5.703 -1.461,-10.084 -4.381,-13.145 -2.92,-3.062 -6.887,-4.59 -11.895,-4.59 -5.216,0 -9.392,1.686 -12.519,5.059 -3.131,3.375 -4.694,8.292 -4.694,14.762 v 30.361 h -9.494 v -57.277 h 9.494 v 13.563 c 1.461,-4.66 4.055,-8.244 7.772,-10.747 3.719,-2.504 8.014,-3.756 12.885,-3.756 6.678,0 12.067,2.141 16.17,6.416"
   id="path16" />
	<path
   fill="#00386b"
   d="m 1285.425,316.619 c 3.861,2.783 6.558,6.505 8.084,11.164 V 313.18 h 9.494 v 57.273 h -9.494 V 355.85 c -1.526,4.658 -4.223,8.379 -8.084,11.161 -3.858,2.781 -8.572,4.173 -14.137,4.173 -5.076,0 -9.596,-1.184 -13.563,-3.547 -3.966,-2.365 -7.076,-5.754 -9.337,-10.173 -2.264,-4.417 -3.393,-9.614 -3.393,-15.595 0,-5.981 1.129,-11.199 3.393,-15.65 2.261,-4.451 5.371,-7.859 9.337,-10.223 3.967,-2.365 8.485,-3.551 13.563,-3.551 5.565,0 10.278,1.394 14.137,4.174 m -25.455,9.861 c -3.514,3.719 -5.27,8.852 -5.27,15.389 0,6.538 1.756,11.668 5.27,15.386 3.51,3.722 8.189,5.583 14.031,5.583 3.756,0 7.111,-0.869 10.066,-2.607 2.955,-1.738 5.27,-4.188 6.938,-7.356 1.668,-3.163 2.502,-6.831 2.502,-11.004 0,-4.177 -0.834,-7.861 -2.502,-11.062 -1.67,-3.199 -3.983,-5.647 -6.938,-7.354 -2.955,-1.701 -6.312,-2.556 -10.066,-2.556 -5.841,-10e-4 -10.522,1.861 -14.031,5.581 m 31.246,-29.996 -22.221,12.209 v -6.783 l 22.221,-13.145 z"
   id="path17" />
	<path
   fill="#00386b"
   d="m 1335.867,315.525 c 3.614,-2.191 7.93,-3.285 12.938,-3.285 v 10.324 h -2.922 c -5.356,0 -9.738,1.375 -13.145,4.123 -3.408,2.748 -5.111,7.287 -5.111,13.614 v 30.15 h -9.494 v -57.274 h 9.494 v 11.58 c 1.876,-3.964 4.624,-7.041 8.24,-9.232"
   id="path18" />
	<path
   fill="#00386b"
   d="m 1398.931,315.996 c 4.349,2.363 7.754,5.771 10.228,10.222 2.467,4.452 3.703,9.669 3.703,15.651 0,5.98 -1.236,11.178 -3.703,15.595 -2.474,4.417 -5.879,7.81 -10.228,10.173 -4.348,2.365 -9.268,3.547 -14.762,3.547 -5.494,0 -10.416,-1.182 -14.764,-3.547 -4.349,-2.363 -7.771,-5.756 -10.275,-10.173 -2.504,-4.417 -3.756,-9.614 -3.756,-15.595 0,-5.982 1.252,-11.199 3.756,-15.651 2.504,-4.45 5.928,-7.858 10.275,-10.222 4.348,-2.365 9.27,-3.551 14.764,-3.551 5.494,0 10.414,1.186 14.762,3.551 m -24.203,7.092 c -2.887,1.533 -5.217,3.879 -6.989,7.043 -1.771,3.166 -2.662,7.078 -2.662,11.738 0,4.591 0.891,8.465 2.662,11.631 1.772,3.166 4.104,5.512 6.989,7.043 2.885,1.531 6.033,2.295 9.441,2.295 3.406,0 6.555,-0.764 9.439,-2.295 2.887,-1.531 5.219,-3.877 6.991,-7.043 1.773,-3.166 2.658,-7.04 2.658,-11.631 0,-4.66 -0.885,-8.572 -2.658,-11.738 -1.772,-3.164 -4.104,-5.51 -6.991,-7.043 -2.886,-1.529 -6.033,-2.296 -9.439,-2.296 -3.408,0 -6.556,0.767 -9.441,2.296"
   id="path19" />
	<path
   fill="#00386b"
   d="m 1462.884,316.621 c 3.859,2.781 6.556,6.504 8.082,11.164 V 293.25 h 9.494 v 77.205 h -9.494 v -14.607 c -1.526,4.658 -4.223,8.383 -8.082,11.162 -3.858,2.783 -8.576,4.172 -14.139,4.172 -5.076,0 -9.596,-1.18 -13.563,-3.543 -3.965,-2.365 -7.075,-5.756 -9.338,-10.176 -2.26,-4.414 -3.391,-9.611 -3.391,-15.595 0,-5.981 1.131,-11.199 3.391,-15.65 2.263,-4.45 5.373,-7.858 9.338,-10.224 3.968,-2.365 8.486,-3.546 13.563,-3.546 5.563,0 10.28,1.39 14.139,4.173 m -25.457,9.858 c -3.514,3.722 -5.27,8.853 -5.27,15.39 0,6.538 1.756,11.668 5.27,15.388 3.512,3.723 8.189,5.581 14.031,5.581 3.758,0 7.111,-0.868 10.068,-2.608 2.955,-1.735 5.268,-4.188 6.938,-7.354 1.668,-3.164 2.5,-6.832 2.5,-11.005 0,-4.174 -0.832,-7.858 -2.5,-11.061 -1.672,-3.197 -3.983,-5.649 -6.938,-7.354 -2.957,-1.704 -6.312,-2.557 -10.068,-2.557 -5.841,-0.003 -10.52,1.861 -14.031,5.58"
   id="path20" />
	<rect
   x="1521.251"
   y="296.69101"
   fill="#00386b"
   width="17.841999"
   height="73.762001"
   id="rect20" />
	<polygon
   fill="#00386b"
   points="1584.369,310.881 1584.369,370.453 1566.427,370.453 1566.427,310.881 1546.604,310.881 1546.604,296.693 1604.4,296.693 1604.4,310.881 "
   id="polygon20" />
</g>
<g
   id="g25">
	<path
   fill="#ef6534"
   d="m 345.264,61.463 c 3.798,-3.461 8.819,-5.19 15.063,-5.19 6.24,0 11.262,1.729 15.063,5.19 3.797,3.46 5.699,7.836 5.699,13.129 0,5.158 -1.902,9.465 -5.699,12.925 -3.801,3.46 -8.822,5.19 -15.063,5.19 -6.244,0 -11.266,-1.73 -15.063,-5.19 -3.8,-3.46 -5.698,-7.767 -5.698,-12.925 -0.002,-5.293 1.897,-9.669 5.698,-13.129 z m 32.364,45.085 v 113.58 h -34.807 v -113.58 z"
   id="path21" />
	<path
   fill="#ef6534"
   d="m 465.964,190.206 v 29.922 h -15.673 c -13.301,0 -23.646,-3.288 -31.041,-9.872 -7.397,-6.58 -11.094,-17.47 -11.094,-32.669 V 135.859 H 392.89 v -29.312 h 15.267 V 78.662 h 34.807 v 27.886 h 22.798 v 29.312 h -22.798 v 42.338 c 0,4.478 0.916,7.601 2.748,9.362 1.832,1.766 4.917,2.646 9.262,2.646 z"
   id="path22" />
	<path
   fill="#ef6534"
   d="m 1354.96,216.686 c -3.336,-3.266 -5.006,-7.404 -5.006,-12.41 0,-5.145 1.633,-9.315 4.902,-12.517 3.266,-3.196 7.334,-4.798 12.202,-4.798 4.865,0 8.935,1.602 12.201,4.798 3.269,3.2 4.902,7.372 4.902,12.517 0,5.006 -1.668,9.146 -5.006,12.41 -3.338,3.27 -7.373,4.901 -12.099,4.901 -4.726,0.001 -8.758,-1.632 -12.096,-4.901 z"
   id="path23" />
	<path
   fill="#ef6534"
   d="m 130.85,41.875 c 0,0 9.232,10e-4 19.371,2.413 5.9,-8.114 13.664,-21.433 21.34,-30.803 C 159.93,0 130.85,0 130.85,0 c 0,0 -29.078,0 -40.709,13.485 7.678,9.37 15.441,22.688 21.34,30.802 10.138,-2.411 19.369,-2.412 19.369,-2.412 z"
   id="path24" />
	<path
   fill="#ef6534"
   d="m 146.596,60.893 c -8.613,-1.641 -15.746,-1.644 -15.746,-1.644 0,0 -7.133,0.005 -15.744,1.646 l -24.965,137.48 40.709,51.697 40.711,-51.697 z"
   id="path25" />
</g>
</svg>
