<svg width="140" height="39" viewBox="0 0 140 39" fill="none" xmlns="http://www.w3.org/2000/svg">
<path fill-rule="evenodd" clip-rule="evenodd" d="M10.53 0H0L21.988 38.0843L27.2421 28.9839L10.53 0ZM30.264 23.7497L35.1583 15.2726L26.3521 0H16.57L30.264 23.7497ZM43.9759 2.1827e-06L38.1802 10.0384L32.3921 0L43.9759 2.1827e-06ZM10.4319 27.9657L16.2688 38.0754H4.59512L10.4319 27.9657ZM55.6961 33.3389C56.3338 32.6909 56.6527 31.8162 56.6527 30.7147V11.7946H52.635V30.0667C52.635 30.7147 52.3374 31.0387 51.7422 31.0387H49V34.3432H53.1452C54.2081 34.3432 55.0584 34.0084 55.6961 33.3389ZM52.6031 5.12074C52.0717 5.6391 51.806 6.30864 51.806 7.12938C51.806 7.95011 52.0717 8.61966 52.6031 9.13802C53.1558 9.65638 53.8361 9.91556 54.6438 9.91556C55.4516 9.91556 56.1212 9.65638 56.6527 9.13802C57.2054 8.61966 57.4817 7.95011 57.4817 7.12938C57.4817 6.30864 57.2054 5.6391 56.6527 5.12074C56.1212 4.60238 55.4516 4.3432 54.6438 4.3432C53.8361 4.3432 53.1558 4.60238 52.6031 5.12074ZM60.2618 15.3583C59.6028 16.611 59.2733 18.0581 59.2733 19.6996C59.2733 21.341 59.6134 22.8205 60.2937 24.138C60.9739 25.4555 61.9305 26.4814 63.1634 27.2158C64.3963 27.9501 65.81 28.3173 67.4043 28.3173C68.7647 28.3173 69.9233 28.1013 70.8799 27.6693C71.8577 27.2158 72.6017 26.7298 73.1119 26.2115C73.6433 25.6715 74.1535 25.0559 74.6424 24.3648L71.4219 22.3562C70.5079 23.9976 69.1686 24.8184 67.4043 24.8184C66.2989 24.8184 65.3742 24.462 64.6302 23.7492C63.8862 23.0365 63.4716 22.151 63.3866 21.0927H74.8975V19.57C74.8975 17.9285 74.5787 16.4922 73.9409 15.2611C73.3032 14.0084 72.3998 13.0473 71.2306 12.3778C70.0614 11.6866 68.7222 11.341 67.213 11.341C65.6824 11.341 64.3113 11.6974 63.0996 12.4102C61.888 13.1013 60.942 14.084 60.2618 15.3583ZM69.6682 15.7471C70.3272 16.3518 70.7098 17.1834 70.8161 18.2417H63.4185C63.5461 17.1834 63.9287 16.3518 64.5664 15.7471C65.2041 15.1423 66.0757 14.84 67.1811 14.84C68.2014 14.84 69.0305 15.1423 69.6682 15.7471ZM75.5736 11.7946H79.5275V6.8054H83.5451V11.7946H87.8816V15.0991H83.5451V23.5873C83.5451 24.2352 83.8427 24.5592 84.4379 24.5592H87.499V27.8637H83.0349C81.9721 27.8637 81.1218 27.5397 80.4841 26.8918C79.8463 26.2223 79.5275 25.3367 79.5275 24.2352V15.0991H75.5736V11.7946ZM97.0957 24.4296L93.1737 11.7946H88.8372L94.2898 27.8637H100.221L105.673 11.7946H101.337L97.4146 24.4296H97.0957ZM106.262 19.6996C106.262 18.0581 106.591 16.611 107.25 15.3583C107.93 14.084 108.876 13.1013 110.088 12.4102C111.3 11.6974 112.671 11.341 114.201 11.341C115.711 11.341 117.05 11.6866 118.219 12.3778C119.388 13.0473 120.292 14.0084 120.929 15.2611C121.567 16.4922 121.886 17.9285 121.886 19.57V21.0927H110.375C110.46 22.151 110.875 23.0365 111.619 23.7492C112.363 24.462 113.287 24.8184 114.393 24.8184C116.157 24.8184 117.496 23.9976 118.41 22.3562L121.631 24.3648C121.142 25.0559 120.632 25.6715 120.1 26.2115C119.59 26.7298 118.846 27.2158 117.868 27.6693C116.912 28.1013 115.753 28.3173 114.393 28.3173C112.798 28.3173 111.385 27.9501 110.152 27.2158C108.919 26.4814 107.962 25.4555 107.282 24.138C106.602 22.8205 106.262 21.341 106.262 19.6996ZM117.805 18.2417C117.698 17.1834 117.316 16.3518 116.657 15.7471C116.019 15.1423 115.19 14.84 114.17 14.84C113.064 14.84 112.193 15.1423 111.555 15.7471C110.917 16.3518 110.534 17.1834 110.407 18.2417H117.805ZM124.503 15.3583C123.781 16.6326 123.419 18.1229 123.419 19.8292C123.419 21.5354 123.781 23.0365 124.503 24.3324C125.226 25.6067 126.215 26.5894 127.469 27.2806C128.723 27.9717 130.137 28.3173 131.71 28.3173C133.283 28.3173 134.696 27.9717 135.95 27.2806C137.205 26.5894 138.193 25.6067 138.916 24.3324C139.639 23.0365 140 21.5354 140 19.8292C140 18.1229 139.639 16.6326 138.916 15.3583C138.193 14.0624 137.205 13.0689 135.95 12.3778C134.696 11.6866 133.283 11.341 131.71 11.341C130.137 11.341 128.723 11.6866 127.469 12.3778C126.215 13.0689 125.226 14.0624 124.503 15.3583ZM128.617 23.4577C127.83 22.5721 127.437 21.3626 127.437 19.8292C127.437 18.2957 127.83 17.097 128.617 16.233C129.403 15.3475 130.434 14.9048 131.71 14.9048C132.985 14.9048 134.016 15.3475 134.803 16.233C135.589 17.097 135.982 18.2957 135.982 19.8292C135.982 21.3626 135.589 22.5721 134.803 23.4577C134.016 24.3216 132.985 24.7536 131.71 24.7536C130.434 24.7536 129.403 24.3216 128.617 23.4577Z" fill="#6279F0"/>
</svg>