<?xml version="1.0" encoding="UTF-8" standalone="no"?>
<svg
   width="362.88525"
   height="98.715927"
   viewBox="0 0 362.88525 98.715927"
   fill="none"
   version="1.1"
   id="svg826"
   sodipodi:docname="jetveo.svg"
   inkscape:version="1.1.2 (b8e25be8, 2022-02-05)"
   xmlns:inkscape="http://www.inkscape.org/namespaces/inkscape"
   xmlns:sodipodi="http://sodipodi.sourceforge.net/DTD/sodipodi-0.dtd"
   xmlns="http://www.w3.org/2000/svg"
   xmlns:svg="http://www.w3.org/2000/svg">
  <defs
     id="defs830" />
  <sodipodi:namedview
     id="namedview828"
     pagecolor="#ffffff"
     bordercolor="#666666"
     borderopacity="1.0"
     inkscape:pageshadow="2"
     inkscape:pageopacity="0.0"
     inkscape:pagecheckerboard="0"
     showgrid="false"
     fit-margin-top="0"
     fit-margin-left="0"
     fit-margin-right="0"
     fit-margin-bottom="0"
     inkscape:zoom="2.2477936"
     inkscape:cx="232.45017"
     inkscape:cy="113.88946"
     inkscape:window-width="1377"
     inkscape:window-height="847"
     inkscape:window-x="63"
     inkscape:window-y="25"
     inkscape:window-maximized="1"
     inkscape:current-layer="svg826" />
  <path
     fill-rule="evenodd"
     clip-rule="evenodd"
     d="M 27.294154,0 H 0 L 56.993717,98.715927 70.612541,75.127352 Z M 78.445419,61.560109 91.131628,39.58715 68.305627,0 H 42.950059 Z M 113.98717,5.6576398e-6 98.964504,26.019907 83.961533,0 Z M 27.039875,72.48814 42.169337,98.692859 H 11.910723 Z M 144.36637,86.415673 c 1.65295,-1.67964 2.47955,-3.946895 2.47955,-6.802023 V 30.572043 H 136.43189 V 77.93401 c 0,1.67964 -0.7714,2.519459 -2.31417,2.519459 h -7.10789 v 8.565388 h 10.74451 c 2.75508,0 4.95909,-0.867814 6.61203,-2.603184 z m -8.01718,-73.142524 c -1.3774,1.343609 -2.0661,3.079082 -2.0661,5.20647 0,2.127363 0.6887,3.862862 2.0661,5.206469 1.43263,1.343609 3.19599,2.015413 5.28958,2.015413 2.09386,0 3.82948,-0.671804 5.20715,-2.015413 1.43261,-1.343607 2.14879,-3.079106 2.14879,-5.206469 0,-2.127388 -0.71618,-3.862861 -2.14879,-5.20647 -1.37767,-1.343608 -3.11329,-2.015412 -5.20715,-2.015412 -2.09359,0 -3.85695,0.671804 -5.28958,2.015412 z m 19.85164,26.536138 c -1.70814,3.247046 -2.56222,6.997983 -2.56222,11.252812 0,4.254571 0.88155,8.089491 2.64491,11.504498 1.7631,3.41501 4.24265,6.074182 7.43838,7.977773 3.19572,1.903333 6.86008,2.85513 10.99256,2.85513 3.52622,0 6.52935,-0.55988 9.00888,-1.67964 2.5345,-1.17549 4.46297,-2.435221 5.78543,-3.778674 1.37741,-1.399699 2.69987,-2.995358 3.96711,-4.786714 l -8.34765,-5.206367 c -2.36912,4.25457 -5.84064,6.382115 -10.41377,6.382115 -2.86523,0 -5.26209,-0.923802 -7.19057,-2.771407 -1.92848,-1.847344 -3.00313,-4.142594 -3.22345,-6.885747 h 29.83667 V 50.72617 c 0,-4.254829 -0.82633,-7.977771 -2.47953,-11.16883 -1.65295,-3.247044 -3.9946,-5.73825 -7.0252,-7.47362 -3.03061,-1.791616 -6.50188,-2.687425 -10.41378,-2.687425 -3.96736,0 -7.52131,0.923802 -10.66208,2.771408 -3.14051,1.791355 -5.59258,4.338552 -7.35569,7.641584 z m 24.38175,1.007784 c 1.70815,1.567405 2.69986,3.722944 2.97539,6.466096 h -19.17485 c 0.33075,-2.743152 1.32245,-4.898691 2.9754,-6.466096 1.65295,-1.567665 3.91216,-2.351237 6.7774,-2.351237 2.64465,0 4.79371,0.783572 6.44666,2.351237 z m 15.30701,-10.245028 h 10.24866 V 17.639851 h 10.41377 v 12.932192 h 11.24036 v 8.565387 h -11.24036 v 22.001734 c 0,1.67938 0.77141,2.519201 2.31418,2.519201 h 7.93448 v 8.565385 h -11.57111 c -2.75482,0 -4.95885,-0.839819 -6.61178,-2.519201 -1.6532,-1.735368 -2.47954,-4.030876 -2.47954,-6.886005 V 39.13743 h -10.24866 z m 55.78609,32.750392 -10.16596,-32.750392 h -11.24037 l 14.13333,41.651707 h 15.3739 l 14.13178,-41.651707 h -11.23908 l -10.16699,32.750392 z m 23.75939,-12.260336 c 0,-4.254829 0.85278,-8.005766 2.56094,-11.252812 1.76258,-3.303032 4.21464,-5.850229 7.3562,-7.641584 3.14155,-1.847606 6.69524,-2.771408 10.66105,-2.771408 3.91398,0 7.38471,0.895809 10.4148,2.687425 3.03008,1.73537 5.3733,4.226576 7.02441,7.47362 1.65372,3.191059 2.48059,6.914001 2.48059,11.16883 v 3.946896 h -29.83694 c 0.22033,2.743153 1.29603,5.038403 3.2245,6.885747 1.92848,1.847605 4.3235,2.771407 7.19031,2.771407 4.57236,0 8.04308,-2.127545 10.41221,-6.382115 l 8.34894,5.206367 c -1.2675,1.791356 -2.58944,3.387015 -3.96839,4.786714 -1.32194,1.343453 -3.25041,2.603184 -5.78544,3.778674 -2.47799,1.11976 -5.48216,1.67964 -9.00732,1.67964 -4.13431,0 -7.79686,-0.951797 -10.99283,-2.85513 -3.19598,-1.903591 -5.67657,-4.562763 -7.43914,-7.977773 -1.76259,-3.415007 -2.64389,-7.249927 -2.64389,-11.504498 z m 29.91989,-3.778932 c -0.27734,-2.743152 -1.2675,-4.898691 -2.97565,-6.466096 -1.65372,-1.567665 -3.80253,-2.351237 -6.4464,-2.351237 -2.8668,0 -5.12446,0.783572 -6.77818,2.351237 -1.65372,1.567405 -2.64648,3.722944 -2.97566,6.466096 z m 17.36147,-7.47388 c -1.87146,3.303034 -2.80976,7.165947 -2.80976,11.58874 0,4.422535 0.9383,8.313442 2.80976,11.672463 1.87405,3.303032 4.43758,5.850228 7.68799,7.641844 3.25042,1.791357 6.91555,2.687166 10.99281,2.687166 4.0773,0 7.73983,-0.895809 10.99026,-2.687166 3.253,-1.791616 5.81393,-4.338812 7.68796,-7.641844 1.87405,-3.359021 2.80979,-7.249928 2.80979,-11.672463 0,-4.422793 -0.93574,-8.285706 -2.80979,-11.58874 -1.87403,-3.35902 -4.43496,-5.934209 -7.68796,-7.725567 -3.25043,-1.791616 -6.91296,-2.687425 -10.99026,-2.687425 -4.07726,0 -7.74239,0.895809 -10.99281,2.687425 -3.25041,1.791358 -5.81394,4.366547 -7.68799,7.725567 z m 10.66364,20.993947 c -2.03993,-2.295507 -3.05861,-5.430577 -3.05861,-9.405207 0,-3.974889 1.01868,-7.081965 3.05861,-9.321486 2.03733,-2.295247 4.70973,-3.442743 8.01716,-3.442743 3.30486,0 5.97725,1.147496 8.01719,3.442743 2.03733,2.239521 3.056,5.346597 3.056,9.321486 0,3.97463 -1.01867,7.1097 -3.056,9.405207 -2.03994,2.239261 -4.71233,3.359021 -8.01719,3.359021 -3.30743,0 -5.97983,-1.11976 -8.01716,-3.359021 z"
     fill="#6279f0"
     id="path824"
     style="stroke-width:2.59204" />
</svg>
