<svg xmlns="http://www.w3.org/2000/svg" viewBox="0 0 512 126">
  <path fill="#0a66c2" d="M503.5 108.5a8.5 8.5 0 10.1 0h-.1m0 16a7.4 7.4 0 117.3-7.6v.2a7.3 7.3 0 01-7.1 7.4h-.2M471 106.2h-18.4V77.4c0-6.8 0-15.7-9.5-15.7-9.6 0-11 7.5-11 15.2v29.3h-18.4V47h17.6v8.1h.2a19.3 19.3 0 0117.5-9.5c18.6 0 22 12.2 22 28.2zM393 39a10.7 10.7 0 1110.6-10.7A10.7 10.7 0 01392.9 39m9.2 67.2h-18.4V47h18.4zM480.1.6H374.6a9 9 0 00-9.2 9v106a9 9 0 009.2 9h105.7a9 9 0 009.2-9V9.5a9 9 0 00-9.2-9M315.3 61.4c-9.2 0-14.7 6.2-14.7 15.1 0 9 5.5 15 14.7 15s14.7-6 14.7-15-5.5-15-14.7-15m31.7 44.8h-17v-7.9h-.2a23.1 23.1 0 01-18.3 9.4c-17.6 0-29.3-12.8-29.3-30.8 0-16.6 10.3-31.7 27.3-31.7 7.6 0 14.7 2 18.8 7.8h.3V18.9H347zm-88.4-36.5a11 11 0 00-11.2-11.2 12.3 12.3 0 00-13 11.2zM274.2 96a32.4 32.4 0 01-25.1 11.8c-18.4 0-33.1-12.2-33.1-31.2s14.7-31.3 33-31.3c17.3 0 28 12.3 28 31.3v5.7h-42.6a13.7 13.7 0 0013.8 11.5 15.7 15.7 0 0013.1-7.2zM91.6 47h17.6v8.1h.2a19.3 19.3 0 0117.4-9.5c18.7 0 22.1 12.2 22.1 28.1v32.5h-18.4V77.4c0-6.8 0-15.7-9.5-15.7-9.6 0-11 7.5-11 15.2v29.3H91.5zM158.2 19h18.4v52.2L197.4 47H220l-24.2 27.4 23.6 31.8h-23L176.8 77h-.2v29.2h-18.4zM63 47h18.4v59.2H63zm9.2-29.4a10.7 10.7 0 11-10.7 10.7 10.7 10.7 0 0110.7-10.7M0 19h19.1v69.7h35.4v17.6H0zm504.8 98.6a2.3 2.3 0 002.3-2.4c0-1.7-1-2.6-3.2-2.6h-3.4v9h1.3v-3.9h1.6l2.5 4h1.4l-2.7-4zm-1.5-.9h-1.5v-3h2c.9 0 2 .1 2 1.4 0 1.5-1.1 1.6-2.5 1.6"/>
</svg>
