<?xml version="1.0" encoding="UTF-8" standalone="no"?>
<svg
   xmlns:dc="http://purl.org/dc/elements/1.1/"
   xmlns:cc="http://creativecommons.org/ns#"
   xmlns:rdf="http://www.w3.org/1999/02/22-rdf-syntax-ns#"
   xmlns:svg="http://www.w3.org/2000/svg"
   xmlns="http://www.w3.org/2000/svg"
   xmlns:sodipodi="http://sodipodi.sourceforge.net/DTD/sodipodi-0.dtd"
   xmlns:inkscape="http://www.inkscape.org/namespaces/inkscape"
   viewBox="0 0 335.53021 116.87931"
   version="1.1"
   id="svg854"
   sodipodi:docname="lynt.svg"
   width="335.53021"
   height="116.87931"
   inkscape:version="1.0.2 (e86c8708, 2021-01-15)">
  <metadata
     id="metadata858">
    <rdf:RDF>
      <cc:Work
         rdf:about="">
        <dc:format>image/svg+xml</dc:format>
        <dc:type
           rdf:resource="http://purl.org/dc/dcmitype/StillImage" />
        <dc:title></dc:title>
      </cc:Work>
    </rdf:RDF>
  </metadata>
  <sodipodi:namedview
     pagecolor="#ffffff"
     bordercolor="#666666"
     borderopacity="1"
     objecttolerance="10"
     gridtolerance="10"
     guidetolerance="10"
     inkscape:pageopacity="0"
     inkscape:pageshadow="2"
     inkscape:window-width="1382"
     inkscape:window-height="847"
     id="namedview856"
     showgrid="false"
     fit-margin-top="0"
     fit-margin-left="0"
     fit-margin-right="0"
     fit-margin-bottom="0"
     inkscape:zoom="2.0571079"
     inkscape:cx="166.1629"
     inkscape:cy="58.41954"
     inkscape:window-x="58"
     inkscape:window-y="25"
     inkscape:window-maximized="1"
     inkscape:current-layer="svg854" />
  <defs
     id="defs836">
    <clipPath
       id="a"
       clipPathUnits="userSpaceOnUse">
      <path
         d="M 0,94.521 H 259.588 V 0 H 0 Z"
         id="path833" />
    </clipPath>
  </defs>
  <path
     d="m 281.72501,60.930515 c 1.74666,0 3.83999,-0.379999 6.28132,-1.143998 v 7.423982 c -2.48666,1.111997 -5.53999,1.667996 -9.15864,1.667996 -3.99066,0 -6.89599,-1.007998 -8.71732,-3.025326 -1.81732,-2.015995 -2.72932,-5.042654 -2.72932,-9.075977 V 39.149236 h -4.77599 V 34.93058 l 5.49599,-3.335992 2.87732,-7.719981 h 6.37865 v 7.783981 H 287.613 v 7.490648 h -10.23598 v 17.627956 c 0,1.418663 0.39733,2.465327 1.192,3.139992 0.79466,0.675998 1.84933,1.013331 3.15599,1.013331 m -24.57327,7.294648 h -9.97331 v -21.35728 c 0,-2.637327 -0.46933,-4.617322 -1.40933,-5.937318 -0.936,-1.318664 -2.43066,-1.977329 -4.47865,-1.977329 -2.79333,0 -4.81066,0.931998 -6.05199,2.795993 -1.24266,1.863996 -1.86266,4.954654 -1.86266,9.271977 v 17.203957 h -9.97864 V 31.658588 h 7.62398 l 1.34,4.677321 h 0.55733 c 1.11199,-1.765329 2.64266,-3.101325 4.59599,-4.006656 1.94799,-0.903998 4.16932,-1.35733 6.65465,-1.35733 4.25065,0 7.47598,1.150664 9.67997,3.450658 2.2,2.301327 3.30266,5.619986 3.30266,9.959975 z M 180.27193,31.658588 h 10.92397 l 6.89732,20.573282 c 0.58933,1.787995 0.992,3.902657 1.21333,6.343984 h 0.196 a 27.706597,27.706597 0 0 1 1.404,-6.343984 l 6.76931,-20.573282 h 10.69598 l -15.46663,41.243897 c -1.42,3.814657 -3.44399,6.67065 -6.07199,8.567978 -2.62666,1.897329 -5.69332,2.845326 -9.20531,2.845326 -1.71999,0 -3.41199,-0.186666 -5.06665,-0.554665 v -7.91598 c 1.196,0.282666 2.50666,0.423999 3.92399,0.423999 1.76666,0 3.30932,-0.537332 4.62665,-1.617329 1.31734,-1.078664 2.348,-2.709327 3.09066,-4.890655 l 0.58934,-1.799995 z M 152.34,68.225163 V 20.407949 h 10.13864 v 39.442568 h 19.39595 v 8.374646 z"
     fill="#565759"
     id="path838"
     style="stroke-width:1.33333" />
  <path
     d="m 59.601564,12.10397 a 48.930544,48.930544 0 0 1 6.990649,-3.0746593 39.635901,39.635901 0 0 1 8.16398,-1.953328 28.479929,28.479929 0 0 1 8.821311,0.219999 22.306611,22.306611 0 0 1 4.259989,1.342663 18.257288,18.257288 0 0 1 3.799991,2.3226613 c 1.14933,0.919998 2.170663,2.067995 3.010663,3.270659 l 0.35466,0.514665 0.17333,0.257333 0.132,0.241332 0.512,0.938665 c 0.15867,0.346666 0.31334,0.693331 0.46934,1.035997 0.15733,0.346666 0.26666,0.719998 0.39999,1.074664 0.492,1.442663 0.80934,2.966659 0.96934,4.535989 0.14266,1.555996 0.11466,3.154659 -0.0187,4.753321 -0.12933,1.582663 -0.42267,3.178659 -0.804,4.757322 -0.36267,1.559996 -2.19466,6.766649 -2.85333,8.579978 l 0.728,3.106659 4.43332,-0.869331 c 0.50267,-1.22133 1.208003,-3.766657 1.610673,-5.049321 a 42.56656,42.56656 0 0 0 1.34666,-5.38532 c 0.332,-1.851995 0.54533,-3.730657 0.57333,-5.613319 0.04,-1.906662 -0.0773,-3.817324 -0.408,-5.679986 a 24.15994,24.15994 0 0 0 -1.64799,-5.423986 c -0.20667,-0.425332 -0.38267,-0.862665 -0.61333,-1.266664 -0.230673,-0.406665 -0.460003,-0.811998 -0.693343,-1.215997 -0.25999,-0.403999 -0.54133,-0.799998 -0.81466,-1.19733 l -0.208,-0.291999 -0.2,-0.237333 -0.4,-0.479999 c -1.216,-1.4253293 -2.54399,-2.6186603 -4.02932,-3.5733243 A 20.847948,20.847948 0 0 0 88.966824,5.5279857 25.326603,25.326603 0 0 0 84.04017,4.5599886 c -3.295992,-0.2799993 -6.494651,0.034667 -9.48131,0.6773316 -5.973318,1.3213305 -11.042639,3.7879905 -15.239962,6.2933178 -0.239999,0.148 -0.466665,0.295999 -0.697331,0.441332 0.175999,0.122667 0.351999,0.253333 0.523998,0.386666 0.153333,-0.08267 0.302666,-0.169333 0.457332,-0.253333"
     fill="#515152"
     id="path840"
     style="stroke-width:1.33333" />
  <path
     d="m 35.790957,85.399787 a 5.0333207,5.0333207 0 0 1 4.443989,-5.503986 4.9306543,4.9306543 0 0 1 5.450653,4.418655 5.0266541,5.0266541 0 0 1 -4.443989,5.498653 4.9279877,4.9279877 0 0 1 -5.450653,-4.413322 m 18.386621,1.999995 c 0.226666,-0.966664 0.330665,-1.953329 0.365332,-2.939993 a 15.278628,15.278628 0 0 0 -0.306666,-2.943993 24.15994,24.15994 0 0 0 5.621319,-4.654655 c -0.637331,-1.557329 -1.433329,-3.047992 -2.435993,-4.390655 -2.587994,0.265332 -5.030655,0.950664 -7.215982,2.011995 -0.710665,-0.683999 -1.53333,-1.25333 -2.383994,-1.751996 -0.853332,-0.501332 -1.773329,-0.879998 -2.713327,-1.19733 a 23.377275,23.377275 0 0 0 -1.20933,-7.106649 c -1.674663,-0.248 -3.373325,-0.237333 -5.053321,-0.076 a 21.426613,21.426613 0 0 0 -1.934662,7.186649 c -0.946664,0.319999 -1.874662,0.698665 -2.73466,1.202663 -0.861331,0.505332 -1.693329,1.066664 -2.417327,1.755996 -2.075995,-1.150664 -4.357322,-1.970662 -6.821316,-2.46666 -1.066664,1.315996 -1.933329,2.785326 -2.64666,4.319989 a 21.026614,21.026614 0 0 0 5.295986,5.18932 c -0.229332,0.967998 -0.325332,1.953329 -0.359999,2.945326 0.01067,0.982664 0.09333,1.969328 0.301333,2.939993 a 24.006607,24.006607 0 0 0 -5.619986,4.655988 c 0.634665,1.557329 1.434663,3.049326 2.438661,4.39199 2.58666,-0.26667 5.02532,-0.95467 7.218648,-2.015996 0.709332,0.685332 1.526663,1.251996 2.379994,1.750666 0.851998,0.50266 1.773329,0.88399 2.71066,1.19999 0.03067,2.32666 0.425332,4.76266 1.211997,7.10532 1.678663,0.24667 3.371992,0.23733 5.055987,0.08 a 21.553279,21.553279 0 0 0 1.930662,-7.19198 c 0.943998,-0.312 1.875996,-0.69733 2.73866,-1.19733 0.857331,-0.504 1.691996,-1.072001 2.417327,-1.759999 2.074662,1.154659 4.354656,1.973329 6.815983,2.470659 1.065331,-1.316 1.933329,-2.787992 2.64666,-4.325321 a 20.959948,20.959948 0 0 0 -5.295986,-5.187987"
     fill="#ee991f"
     fill-rule="evenodd"
     id="path842"
     style="stroke-width:1.33333" />
  <path
     d="M 23.76832,83.226459 A 60.373182,60.373182 0 0 1 19.637664,81.183797 47.095882,47.095882 0 0 1 13.04568,76.867808 C 10.933686,75.209146 8.915024,73.28515 7.241695,71.067823 6.809696,70.527824 6.449697,69.934492 6.064365,69.363827 5.719032,68.771828 5.3617,68.177163 5.075034,67.558498 4.483035,66.326501 4.001703,65.035838 3.73637,63.714508 a 13.650633,13.650633 0 0 1 -0.213332,-3.96799 c 0.04,-0.364 0.06,-0.791998 0.139999,-1.061331 0.072,-0.307999 0.1,-0.594665 0.198666,-0.917331 0.09867,-0.319999 0.18,-0.641332 0.282666,-0.959998 l 0.358666,-0.937331 c 1.070664,-2.479994 2.885326,-4.694655 5.118654,-6.58665 0.805331,-0.679998 1.662663,-1.315997 2.563994,-1.919995 h -0.0027 l 1.574663,-4.421322 -3.725324,-0.805332 a 34.863913,34.863913 0 0 0 -3.923991,3.473325 c -2.421327,2.50666 -4.3613219,5.506653 -5.37998605,8.805311 l -0.3279991,1.247997 c -0.090667,0.418666 -0.153333,0.845331 -0.2279995,1.262664 -0.076,0.413332 -0.096,0.891997 -0.1386663,1.327996 -0.053333,0.477332 -0.026667,0.810665 -0.029333,1.197331 0.012,1.719995 0.2853327,3.359991 0.7639981,4.937321 0.48533215,1.571996 1.19733035,3.030659 2.01199495,4.373322 0.3999989,0.678665 0.8666639,1.306663 1.3159969,1.929329 0.483998,0.599998 0.94933,1.207997 1.470663,1.751995 2.023994,2.266661 4.330655,4.070657 6.631983,5.638653 3.886657,2.599993 7.84398,4.438655 11.573304,5.869318 -0.0067,-0.133333 -0.016,-0.266666 -0.01733,-0.399999 0.0013,-0.110666 0.008,-0.214666 0.01333,-0.325332 m 78.006473,9.166644 c -0.75333,-3.710658 -1.993323,-7.009316 -3.314653,-9.913309 a 4.6026552,4.6026552 0 0 1 -0.28934,0.310666 c 0.51067,1.26533 0.98667,2.599993 1.40667,3.99999 0.546663,1.806662 0.981333,3.733324 1.250663,5.733319 0.27733,1.997328 0.32133,4.091991 0.116,6.182651 a 21.219947,21.219947 0 0 1 -0.60666,3.11066 c -0.844003,3.05066 -2.140003,5.90265 -4.914663,7.70398 -1.87999,1.22 -4.126658,2.27466 -6.36532,2.65599 -2.753326,0.47334 -5.643985,0.21734 -8.382645,-0.20266 -2.817327,-0.43734 -5.702653,-1.25867 -8.623979,-2.304 -1.493329,-0.56533 -3.011992,-1.16133 -4.506655,-1.86933 a 68.938494,68.938494 0 0 1 -4.598655,-2.31199 c -0.759998,-0.43467 -1.546663,-0.85733 -2.301328,-1.32933 l -1.167997,-0.69467 -1.154664,-0.73333 c -0.786664,-0.48533 -4.578655,-2.77599 -4.959987,-3.05332 l -4.590655,0.6 -0.797332,3.46665 c 0.459999,0.32667 1.839996,1.436 2.310661,1.74267 0.923998,0.61999 1.823995,1.25066 2.761326,1.82266 1.803996,1.17733 3.673325,2.21199 5.527987,3.18266 1.829328,0.93333 3.647991,1.79999 5.486653,2.54666 1.790662,0.74133 3.607991,1.34533 5.387986,1.90399 3.471991,1.024 6.91065,1.688 10.259974,1.872 a 32.323919,32.323919 0 0 0 4.773322,-0.0533 c 1.526663,-0.13067 3.017326,-0.37067 4.453322,-0.76534 1.407997,-0.37333 2.76266,-0.86799 4.034657,-1.51199 a 17.863955,17.863955 0 0 0 3.450659,-2.28 c 0.25333,-0.22666 0.51733,-0.43333 0.75333,-0.67333 0.24,-0.24 0.47334,-0.476 0.704,-0.716 0.232,-0.26 0.456,-0.528 0.68,-0.79066 l 0.16133,-0.2 0.13334,-0.18133 0.25733,-0.36134 a 16.226626,16.226626 0 0 0 1.862663,-3.36932 c 0.46933,-1.164 0.80533,-2.348 1.04,-3.52399 0.21333,-1.17733 0.32266,-2.344 0.36133,-3.48666 a 29.702592,29.702592 0 0 0 -0.59867,-6.509317"
     fill="#515152"
     id="path844"
     style="stroke-width:1.33333" />
  <path
     d="m 86.60283,69.110494 a 6.4386506,6.4386506 0 1 1 0.633332,-9.082644 6.4399839,6.4399839 0 0 1 -0.633332,9.082644 m 15.9173,-2.76266 c 2.31199,-0.461332 4.49332,-1.138663 6.74265,-2.039995 -0.016,-1.335996 -0.096,-2.679993 -0.31867,-3.997323 -2.35066,-0.693331 -4.69865,-1.123997 -7.07065,-1.287997 -0.19866,-0.861331 -0.55333,-1.679995 -0.86533,-2.50666 -0.36267,-0.801331 -0.74266,-1.605329 -1.197333,-2.363994 a 37.965238,37.965238 0 0 0 4.249323,-5.613319 c -0.79866,-1.069331 -1.64799,-2.099995 -2.60666,-3.03466 -2.275993,0.786665 -4.499993,1.890662 -6.466653,3.106659 -0.688,-0.555998 -1.43599,-1.042664 -2.178659,-1.517329 -0.777332,-0.422666 -1.53733,-0.882665 -2.363994,-1.199997 0.271999,-2.315994 0.323999,-4.679988 0.142666,-7.037316 -1.266664,-0.446665 -2.589327,-0.690665 -3.89999,-0.949331 -1.391997,2.074662 -2.522661,4.11999 -3.406658,6.342651 -0.879998,-0.04267 -1.766663,-0.04 -2.64666,0.06 -0.887998,0.02533 -1.753329,0.253333 -2.629327,0.382666 a 38.999902,38.999902 0 0 0 -4.013324,-5.779986 c -1.26133,0.466665 -2.527993,0.922664 -3.709324,1.565329 0.04933,2.422661 0.403999,4.842655 0.962665,7.113316 -0.759998,0.451999 -1.407997,1.066664 -2.118662,1.594663 -0.618665,0.630665 -1.315996,1.18533 -1.869328,1.879995 -2.079995,-0.947998 -4.366656,-1.775996 -6.649317,-2.319994 a 25.48927,25.48927 0 0 0 -2.103995,3.431991 33.977248,33.977248 0 0 0 4.951988,5.182654 c -0.248,0.847998 -0.595999,1.673329 -0.741332,2.549327 a 16.922624,16.922624 0 0 0 -0.425332,2.613327 c -2.317328,0.453332 -4.493322,1.13733 -6.743983,2.035995 0.01333,1.335996 0.09333,2.678659 0.319999,3.99999 a 32.469252,32.469252 0 0 0 7.066649,1.283996 c 0.201333,0.863998 0.550665,1.679996 0.863998,2.506661 0.365332,0.802664 0.743998,1.610662 1.199997,2.36266 a 38.319904,38.319904 0 0 0 -4.253323,5.61332 c 0.805332,1.071997 1.650663,2.105328 2.607994,3.042659 a 33.418583,33.418583 0 0 0 6.47065,-3.110659 c 0.687998,0.558665 1.43333,1.043997 2.174661,1.514663 0.775999,0.422665 1.53733,0.885331 2.363995,1.199997 a 36.599908,36.599908 0 0 0 -0.14,7.039982 c 1.266663,0.447999 2.58666,0.691998 3.898657,0.953331 1.387996,-2.079995 2.521327,-4.125323 3.403991,-6.346651 a 17.077291,17.077291 0 0 0 2.65066,-0.06 c 0.883998,-0.024 1.747996,-0.254667 2.62666,-0.386666 a 39.125236,39.125236 0 0 0 4.01599,5.785319 c 1.257331,-0.467999 2.525328,-0.925331 3.707988,-1.56533 a 32.458586,32.458586 0 0 0 -0.96533,-7.117315 c 0.76,-0.449332 1.408,-1.062664 2.11733,-1.590663 0.624,-0.630665 1.32,-1.187997 1.87066,-1.879995 2.08133,0.945331 4.366663,1.773329 6.649323,2.322661 a 26.167935,26.167935 0 0 0 2.10666,-3.434658 33.871915,33.871915 0 0 0 -4.95199,-5.183988 c 0.248,-0.850664 0.59333,-1.675995 0.744,-2.547993 0.21333,-0.861331 0.34133,-1.733329 0.42667,-2.613327"
     fill="#7fc52c"
     fill-rule="evenodd"
     id="path846"
     style="stroke-width:1.33333" />
  <path
     d="m 40.153613,37.51324 a 7.7933138,7.7933138 0 0 1 -9.395977,-5.763986 7.7959805,7.7959805 0 1 1 9.395977,5.762652 m 20.810614,1.154664 c 0.24,-0.786664 0.531999,-1.554663 0.718665,-2.351994 0.156,-0.807998 0.386666,-1.597329 0.478666,-2.413327 a 45.746552,45.746552 0 0 0 6.177318,-1.42533 c 0.03867,-1.162664 0.084,-2.337327 0.03333,-3.499991 a 40.730565,40.730565 0 0 0 -6.159985,-1.911995 l -0.453332,-2.425328 -0.693332,-2.36266 a 45.323887,45.323887 0 0 0 4.782655,-4.122657 C 65.428216,17.062624 64.808218,16.06396 64.277552,15.023963 A 40.010567,40.010567 0 0 0 57.925568,16.20396 C 57.472236,15.518628 56.906904,14.91463 56.404239,14.270631 55.874907,13.641299 55.266908,13.087968 54.700243,12.497302 A 45.050554,45.050554 0 0 0 57.014904,6.6013167 C 56.145573,5.8239857 55.132242,5.2373202 54.182911,4.5679885 a 40.0359,40.0359 0 0 0 -5.066654,4.0093232 c -0.721332,-0.390666 -1.494663,-0.673332 -2.239994,-1.011997 -0.759999,-0.3 -1.55333,-0.517332 -2.327995,-0.777332 A 44.803888,44.803888 0 0 0 43.87627,0.4839987 C 42.74294,0.2039994 41.569609,0.1519996 40.420279,0 a 39.830567,39.830567 0 0 0 -2.627994,5.9213187 c -0.821331,-0.024 -1.631996,0.109333 -2.44666,0.155999 -0.815998,0.064 -1.610663,0.274666 -2.414661,0.406666 C 31.8843,4.6119884 30.73097,2.9239926 29.416306,1.2066636 c -1.123997,0.2933326 -2.199994,0.7346648 -3.271992,1.1826637 -0.064,2.1559946 0.104,4.3733224 0.409333,6.4706504 -0.737332,0.359999 -1.41733,0.818665 -2.094662,1.2759973 -0.698665,0.429332 -1.315996,0.966664 -1.950662,1.483996 a 41.526563,41.526563 0 0 0 -5.563986,-3.0359923 23.551941,23.551941 0 0 0 -2.33866,2.5786603 37.875905,37.875905 0 0 0 3.367991,5.542653 c -0.487999,0.661332 -0.873331,1.382663 -1.26133,2.106661 -0.426666,0.702665 -0.717332,1.46933 -1.045331,2.222661 -2.106661,-0.199999 -4.193323,-0.225332 -6.325317,-0.106666 -0.386666,1.099997 -0.650665,2.235994 -0.879998,3.379991 a 37.733239,37.733239 0 0 0 5.539986,3.349325 c -0.124,0.810665 -0.129333,1.631996 -0.136,2.454661 -0.04533,0.823998 0.04,1.641329 0.113333,2.457327 a 42.113228,42.113228 0 0 0 -5.641319,2.863993 c 0.193333,1.150664 0.430666,2.285328 0.789332,3.395992 a 37.082574,37.082574 0 0 0 6.443984,0.386665 c 0.305332,0.759998 0.597331,1.52933 1.011997,2.239995 0.377332,0.733331 0.754665,1.458663 1.231997,2.127994 -1.30933,1.599996 -2.601327,3.377325 -3.671991,5.179987 0.738665,0.901331 1.439996,1.839996 2.283994,2.641327 2.070662,-0.746665 3.997324,-1.599996 5.873319,-2.67066 0.633332,0.519999 1.242664,1.074664 1.939995,1.507996 0.670665,0.466666 1.342663,0.939998 2.074662,1.307997 -0.421333,2.031995 -0.741332,4.19999 -0.858665,6.302651 1.066664,0.462665 2.119995,0.954664 3.238659,1.279997 a 37.542573,37.542573 0 0 0 3.969323,-5.105321 c 0.799998,0.174666 1.593329,0.374666 2.409327,0.441332 0.813332,0.09867 1.62533,0.204 2.445328,0.186667 a 43.443891,43.443891 0 0 0 2.165328,5.986651 c 1.155997,-0.111999 2.327994,-0.135999 3.458658,-0.381332 0.551998,-2.159995 0.951997,-4.210656 1.138663,-6.373317 0.775998,-0.248 1.579996,-0.417333 2.337328,-0.735999 0.750665,-0.325332 1.531996,-0.573332 2.250661,-0.966664 a 46.086551,46.086551 0 0 0 4.686655,4.306656 c 0.973331,-0.630665 1.962662,-1.25333 2.887993,-1.958662 a 41.026564,41.026564 0 0 0 -1.939996,-6.179984 c 0.570666,-0.583999 1.177331,-1.137331 1.719996,-1.750663 0.511999,-0.637331 1.073331,-1.23733 1.538663,-1.913328 a 45.985218,45.985218 0 0 0 6.131985,1.627996 c 0.567998,-1.010664 1.159997,-2.019995 1.646662,-3.075993 -1.453329,-1.686662 -2.947992,-3.202658 -4.577322,-4.573321"
     fill="#e23937"
     fill-rule="evenodd"
     id="path848"
     style="stroke-width:1.33333" />
  <path
     d="m 335.53021,94.262431 c 0,1.882659 -0.68133,3.350659 -2.04799,4.405319 -1.36667,1.05333 -3.21866,1.58 -5.55999,1.58 -2.53599,0 -4.48932,-0.328 -5.85332,-0.98133 v -2.4 a 15.557294,15.557294 0 0 0 2.86666,0.88 c 1.03333,0.21334 2.06133,0.32 3.07199,0.32 1.66,0 2.90933,-0.316 3.74666,-0.94266 0.84,-0.63067 1.25866,-1.50533 1.25866,-2.626663 0,-0.743998 -0.14666,-1.34933 -0.448,-1.821328 -0.29333,-0.474666 -0.79333,-0.911998 -1.48932,-1.310664 -0.69867,-0.399999 -1.76,-0.853331 -3.184,-1.358663 -1.99066,-0.714665 -3.41332,-1.55733 -4.26665,-2.533327 -0.85333,-0.975998 -1.276,-2.247994 -1.276,-3.818657 0,-1.647996 0.61333,-2.959993 1.85333,-3.93599 1.24266,-0.977331 2.87866,-1.463997 4.91732,-1.463997 2.12799,0 4.08399,0.390666 5.87065,1.170664 l -0.77733,2.166661 c -1.76533,-0.742665 -3.48132,-1.111997 -5.15199,-1.111997 -1.31466,0 -2.34399,0.281333 -3.08399,0.847998 -0.744,0.566665 -1.112,1.350663 -1.112,2.354661 0,0.741331 0.13334,1.34933 0.40934,1.823995 0.272,0.471999 0.73199,0.906665 1.38133,1.299997 0.65066,0.397332 1.63999,0.831998 2.97732,1.311997 2.24533,0.799998 3.78666,1.655995 4.63066,2.573327 0.84399,0.919997 1.26666,2.106661 1.26666,3.570657 M 318.59559,99.95575 H 306.66895 V 78.563804 h 11.92664 v 2.207994 h -9.43731 v 6.893316 h 8.86531 v 2.194662 h -8.86665 v 7.871984 h 9.43865 z M 301.91563,81.622463 c -1.61866,-0.762665 -3.23733,-1.142664 -4.85866,-1.142664 -2.35066,0 -4.20665,0.781331 -5.56532,2.346661 -1.36133,1.567996 -2.04399,3.710657 -2.04399,6.431984 0,2.799993 0.66,4.962654 1.96933,6.489316 1.31199,1.52666 3.18266,2.28933 5.61332,2.28933 1.48933,0 3.19466,-0.26667 5.10398,-0.804 v 2.17866 c -1.48266,0.556 -3.31065,0.836 -5.48532,0.836 -3.15199,0 -5.58265,-0.95733 -7.29331,-2.86666 -1.71466,-1.91466 -2.56933,-4.630655 -2.56933,-8.151979 0,-2.205328 0.41067,-4.137323 1.23733,-5.794653 0.82133,-1.657329 2.01333,-2.935992 3.56933,-3.833323 1.55599,-0.897332 3.38666,-1.346664 5.49598,-1.346664 2.24,0 4.20266,0.410666 5.87999,1.229331 z m -22.26128,-3.058659 h 2.48533 V 99.95575 h -2.48533 z m -5.93332,0 h 2.67866 l -7.71065,21.391946 h -2.45866 L 258.5624,78.563804 h 2.636 l 4.91465,13.839965 a 39.495901,39.495901 0 0 1 1.34666,4.639991 38.813236,38.813236 0 0 1 1.37333,-4.726657 z m -28.30126,10.359974 h 3.40799 c 1.75466,0 3.04266,-0.350666 3.86266,-1.047997 0.81866,-0.697332 1.22933,-1.743996 1.22933,-3.138659 0,-1.41333 -0.41733,-2.434661 -1.25067,-3.058659 -0.83333,-0.623999 -2.17066,-0.935998 -4.01732,-0.935998 h -3.23199 z m 0,2.134661 v 8.897311 h -2.48666 V 78.563804 h 5.86665 c 2.62399,0 4.55999,0.499999 5.81332,1.503996 1.25333,1.006664 1.88533,2.519994 1.88533,4.537322 0,2.827993 -1.43733,4.739988 -4.30399,5.735986 l 5.80798,9.614642 h -2.94132 l -5.17999,-8.897311 z m -6.77998,8.897311 H 226.71448 V 78.563804 h 11.92531 v 2.207994 h -9.43998 v 6.893316 h 8.86664 v 2.194662 h -8.86664 v 7.871984 h 9.43998 z m -15.9613,-5.693319 c 0,1.882659 -0.68133,3.350659 -2.04799,4.405319 -1.36667,1.05333 -3.21866,1.58 -5.56132,1.58 -2.536,0 -4.48399,-0.328 -5.85065,-0.98133 v -2.4 a 15.621294,15.621294 0 0 0 2.86666,0.88 15.159962,15.159962 0 0 0 3.07599,0.32 c 1.65599,0 2.90532,-0.316 3.74399,-0.94266 0.83733,-0.63067 1.25866,-1.50533 1.25866,-2.626663 0,-0.743998 -0.15066,-1.34933 -0.444,-1.821328 -0.30133,-0.474666 -0.79733,-0.911998 -1.49599,-1.310664 -0.69867,-0.399999 -1.76,-0.853331 -3.17999,-1.358663 -1.99067,-0.714665 -3.41333,-1.55733 -4.26666,-2.533327 -0.85333,-0.975998 -1.28,-2.247994 -1.28,-3.818657 0,-1.647996 0.61867,-2.959993 1.85733,-3.93599 1.23733,-0.977331 2.87599,-1.463997 4.91866,-1.463997 2.12266,0 4.07865,0.390666 5.86531,1.170664 l -0.77466,2.166661 c -1.76533,-0.742665 -3.48399,-1.111997 -5.14932,-1.111997 -1.32,0 -2.34933,0.281333 -3.08933,0.847998 -0.74266,0.566665 -1.11199,1.350663 -1.11199,2.354661 0,0.741331 0.13333,1.34933 0.40933,1.823995 0.27333,0.471999 0.73333,0.906665 1.38133,1.299997 0.64933,0.397332 1.64266,0.831998 2.97599,1.311997 2.24666,0.799998 3.78932,1.655995 4.63599,2.573327 0.844,0.919997 1.26266,2.106661 1.26266,3.570657"
     fill="#828383"
     id="path850"
     style="stroke-width:1.33333" />
</svg>
