<?xml version="1.0" encoding="UTF-8" standalone="no"?>
<svg
   width="199.98334"
   viewBox="20.27 266.98 600.00001 36.2795"
   version="1.1"
   id="svg19"
   sodipodi:docname="marieclaire.svg"
   height="36.279499"
   inkscape:version="1.1 (c4e8f9e, 2021-05-24)"
   xmlns:inkscape="http://www.inkscape.org/namespaces/inkscape"
   xmlns:sodipodi="http://sodipodi.sourceforge.net/DTD/sodipodi-0.dtd"
   xmlns="http://www.w3.org/2000/svg"
   xmlns:svg="http://www.w3.org/2000/svg">
  <defs
     id="defs23" />
  <sodipodi:namedview
     id="namedview21"
     pagecolor="#ffffff"
     bordercolor="#666666"
     borderopacity="1.0"
     inkscape:pageshadow="2"
     inkscape:pageopacity="0.0"
     inkscape:pagecheckerboard="0"
     showgrid="false"
     fit-margin-top="0"
     fit-margin-left="0"
     fit-margin-right="0"
     fit-margin-bottom="0"
     inkscape:zoom="4.5922117"
     inkscape:cx="108.55336"
     inkscape:cy="40.503359"
     inkscape:window-width="1382"
     inkscape:window-height="847"
     inkscape:window-x="58"
     inkscape:window-y="25"
     inkscape:window-maximized="0"
     inkscape:current-layer="svg19" />
  <g
     id="g17"
     transform="translate(-0.03,-36.293584)">
    <g
       id="g15">
      <path
         fill="#343434"
         id="Fill-1"
         d="m 236.7,308.9 v 64.8 h 23.5 v -77.4 l -23.5,12.6" />
      <path
         fill="#343434"
         id="Fill-2"
         d="m 260.7,276.3 c -0.9,-2.5 -2.8,-5 -5.1,-6.6 -5.4,-3.2 -13,-2.3 -17.2,2.1 -3.1,2.9 -4.6,7.8 -3.8,12.5 0.6,4.4 4.2,7.9 7.2,9.3 5,2 12.4,1.6 16.9,-4 2.6,-3.2 3.5,-8.8 2,-13.3 v 0" />
      <path
         fill="#343434"
         id="Fill-3"
         d="m 119.5,308.9 c -1.2,-4.8 -5.3,-9 -10,-10.1 -10.8,-2.7 -20.7,1.5 -26.3,11 l -0.5,0.9 -0.4,-1 C 79.5,302.6 75,298.7 69,298.1 59,296.5 51.3,300.4 43.9,310.4 L 43,311.7 V 297 c -1.4,0.7 -22.7,11.6 -22.7,11.6 v 65.1 H 43 v -48.8 c 0,-3.8 3.8,-7.2 7.6,-7 3.5,0.1 7.1,3.5 7.1,7 0,0 0,47.8 0,48.7 h 23.7 c 0,-0.9 0,-48.7 0,-48.7 0,-3.9 4.1,-7.2 8,-7 3.5,0.2 6.9,3.5 6.9,7 v 48.7 h 23.9 v -56.4 c 0,-2.2 0,-5.6 -0.7,-8.3" />
      <path
         fill="#343434"
         id="Fill-4"
         d="m 186,364.6 c -2,-0.2 -2.6,-4.5 -2.6,-4.5 0,0 -4.3,-25.7 -4.3,-25.7 0,0 -1,-5 -1,-5 -1.1,-5.3 -2.1,-10.9 -4.2,-16 -6.7,-15.4 -25.7,-18 -39.8,-13.8 -2.3,0.7 -4.4,1.8 -4.4,1.8 v 9.6 c 5.8,-2.5 11.4,-2.7 16,-0.5 5.9,2.9 7.6,10.2 7.9,13.2 0,0.1 0.5,3.4 0.5,3.4 -6.9,1 -15.4,2.7 -21.7,7.2 -7,5 -10.7,13 -9.9,21.3 0.3,8.9 7.1,15.9 13.7,18.4 8.8,3.1 20.9,2.6 28.1,-5.7 0,0 0.9,-1 0.9,-1 l 2,2 c 5.2,5.5 11,5.3 17.6,5.1 l 3.5,-0.1 v -9.4 c 0.1,0 -2.2,-0.3 -2.3,-0.3 z m -30.2,-26.2 4.3,20.8 c -11,12.8 -29.3,-9.6 -4.3,-20.8 z" />
      <path
         fill="#343434"
         id="Fill-5"
         d="m 231,296.4 c -10.4,0 -16,12 -16.1,12.2 l -1,2.3 v -1.5 -13.1 l -23.1,12.6 v 65 H 214 v -41.6 l 0.1,-1.6 c 0.2,-3.4 0.4,-7 2,-10 3.5,-6.7 11.5,-6.6 17.1,-5.8 l 4.1,-17.5 c 0,0.1 -2.6,-1 -6.3,-1" />
      <path
         fill="#343434"
         id="Fill-6"
         d="m 561.9,297.5 c 0,0 -2.6,-1.1 -6.3,-1.1 -10.4,0 -16,12 -16.1,12.2 l -1,2.3 v -1.5 -13.1 l -23.1,12.6 v 65 h 23.2 v -41.6 l 0.1,-1.6 c 0.2,-3.4 0.4,-7 2,-10 3.5,-6.7 11.5,-6.6 17.1,-5.8 l 4.1,-17.4" />
      <path
         fill="#343434"
         id="Fill-7"
         d="m 513.2,275.5 c -0.9,-2.5 -2.8,-5 -5.1,-6.6 -5.4,-3.2 -13,-2.3 -17.2,2.1 -3.1,2.9 -4.6,7.8 -3.8,12.5 0.6,4.4 4.2,7.9 7.2,9.3 5,2 12.4,1.6 16.9,-4 2.6,-3.2 3.4,-8.7 2,-13.3 v 0" />
      <path
         fill="#343434"
         id="Fill-8"
         d="m 593.9,364 c -9.2,-0.7 -13.5,-17.6 -13.5,-17.6 l 39.9,-12.9 c 0,0 -0.8,-17.4 -10.4,-26.9 -8.8,-8.7 -22.2,-11.2 -34.5,-6.2 -7.3,2.8 -14.1,10.4 -17.2,19.4 -6.1,17 -2.5,36 9.1,47.3 10.7,10.2 27.3,10 39.2,6.4 0,0 6,-2.6 6,-2.6 v -10.8 c 0,0 -7.2,4.7 -18.6,3.9 z m -14.1,-28.6 c -0.6,-7.3 0.3,-15.1 2,-18.7 1.8,-3.6 3.8,-5.1 6.3,-5.4 10.6,-1.3 11.7,18.1 11.7,18.1 l -20,6 c 0,0.1 0,0 0,0 z" />
      <path
         fill="#343434"
         id="Fill-9"
         d="m 489.1,308.9 v 64.8 h 23.5 v -77.4 l -23.5,12.6" />
      <path
         fill="#343434"
         id="Fill-10"
         d="m 317.6,306.5 c -8.8,-8.7 -22.2,-11.2 -34.5,-6.2 -7.3,2.8 -14.1,10.4 -17.2,19.4 -6.1,17 -2.5,36 9.1,47.3 10.7,10.2 27.3,10 39.2,6.4 0,0 6,-2.6 6,-2.6 V 360 c 0,0 -7.3,4.7 -18.6,3.8 -9.2,-0.7 -13.5,-17.6 -13.5,-17.6 L 328,333.3 c 0,0.1 -0.8,-17.3 -10.4,-26.8 z m -30.1,29 c 0,0 0,-0.1 0,0 -0.6,-7.4 0.3,-15.2 2,-18.8 1.8,-3.6 3.8,-5.1 6.3,-5.4 10.6,-1.3 11.7,18.1 11.7,18.1 z" />
      <path
         fill="#343434"
         id="Fill-11"
         d="m 377.7,361.4 c -6.2,-3.2 -11.3,-7.9 -12,-21.4 -0.8,-15.7 2.4,-26.8 10.8,-30 6.4,-2.4 15.1,2.9 15.1,2.9 l 0.1,-12.7 c 0,0 -12,-5.8 -25.5,-1.5 -12.2,3.9 -20,13.4 -22.8,28.9 -2,11.3 -0.4,23.8 5.2,33.6 6.4,10.6 18.7,16.1 32.6,14.3 3.8,-0.5 11.7,-2.9 11.7,-2.9 l -0.1,-11.8 c 0,-0.1 -8.7,3.9 -15.1,0.6" />
      <path
         fill="#343434"
         id="Fill-12"
         d="m 484.3,363.8 c -2,-0.2 -2.6,-4.5 -2.6,-4.5 0,0 -4.3,-25.7 -4.3,-25.7 0,0 -1,-5 -1,-5 -1.1,-5.3 -2.1,-10.9 -4.2,-16 -6.7,-15.4 -25.7,-18 -39.8,-13.8 -2.3,0.7 -4.4,1.8 -4.4,1.8 v 9.6 c 5.8,-2.5 11.4,-2.7 16,-0.5 5.9,2.9 7.6,10.2 7.9,13.2 0,0.1 0.5,3.4 0.5,3.4 -6.9,1 -15.4,2.7 -21.7,7.2 -7,5 -10.7,13 -9.9,21.3 0.3,8.9 7.1,15.9 13.7,18.4 8.8,3.1 20.9,2.6 28.1,-5.7 0,0 0.9,-1 0.9,-1 l 2,2 c 5.2,5.5 11,5.3 17.6,5.1 l 3.5,-0.1 v -9.4 c 0.1,0.1 -2.2,-0.3 -2.3,-0.3 z m -30.2,-26.1 4.3,20.8 c -11,12.8 -29.3,-9.6 -4.3,-20.8 z" />
      <path
         fill="#343434"
         id="Fill-13"
         d="m 395.2,373.5 h 23.1 V 273 l -23.1,12.4 v 88.1" />
    </g>
  </g>
</svg>
