<?xml version="1.0" encoding="UTF-8"?>
<svg id="svg138" width="163.39" height="34.67" version="1.1" viewBox="0 0 163.39 34.67" xmlns="http://www.w3.org/2000/svg">
 <g id="Layer_2" data-name="Layer 2">
  <g id="Layer_1-2" data-name="Layer 1">
   <g id="Layer_2-2" data-name="Layer 2">
    <g id="Layer_1-2-2" data-name="Layer 1-2">
     <path id="path132" d="m6.89 34.33-2.82-26.12h-4.07v-2.56h6.46l2.54 26.12h1l2.5-26.12h6.5v2.56h-4l-2.9 26.12zm-6.89 0.12v-24.89h2.77l0.13 24.89zm16.06 0 0.12-24.89h2.82v24.89zm6.06 0 3.1-28.8h5.94l0.27 2.58h-4l-1.26 15.51h3l-0.69 2.58h-2.58l-0.85 8.13zm9.14 0-2.26-24.75h2.52l2.65 24.75zm14.52 0-2.65-11h-0.93v-2.59h0.7a2.834 2.834 0 0 0 1.82-0.45 1.9 1.9 0 0 0 0.55-1.51c0-1.09 0.06-7.6 0-8.69a2 2 0 0 0-0.57-1.53 2.689 2.689 0 0 0-1.77-0.45h-0.82v-2.58h0.82a5.778 5.778 0 0 1 3.91 1.08 4.758 4.758 0 0 1 1.3 3.58c0.06 1.71 0.06 7.08 0 8.48q-0.14 3.21-2.31 4.14l2.92 11.52zm-8.44 0v-28.8h2.86v28.8zm12.84-26.22v-2.58h11.61v2.58zm4.39 26.22v-24.93h2.84v24.93zm9.66 0v-28.8h2.86v28.8zm14.91 0-3.8-26.24h-3.9v-2.56h6l3.84 26.21h3.88v2.59zm3.4-4-0.25-24.8h2.86v24.84zm-11.1 4v-24.87h2.56l0.27 24.87zm25.56 0v-13.57h3.63l4.59-15.23h3.08l-8.41 23.74v5.06zm0-15.3v-13.5h3l-0.28 13.5zm8.82 15.3-2.72-9.27 1.65-4.28 4 13.55zm9.51 0.22a5.048 5.048 0 0 1-3.49-1.37 5.567 5.567 0 0 1-1.12-3.73v-19a5.592 5.592 0 0 1 1.12-3.73 5 5 0 0 1 3.49-1.38v2.5a1.808 1.808 0 0 0-1.35 0.74 3.263 3.263 0 0 0-0.38 1.76v19.22a3.349 3.349 0 0 0 0.38 1.8 1.89 1.89 0 0 0 1.35 0.71zm2 0v-2.5a1.82 1.82 0 0 0 1.29-0.72 3.342 3.342 0 0 0 0.4-1.79v-19.22a3.243 3.243 0 0 0-0.4-1.76 1.768 1.768 0 0 0-1.29-0.74v-2.49a4.868 4.868 0 0 1 3.4 1.41 5.648 5.648 0 0 1 1.12 3.69v19a5.61 5.61 0 0 1-1.12 3.69 4.864 4.864 0 0 1-3.42 1.41zm8.72-0.2v-28.82h2.87v28.8zm4.78 0v-2.59h4.77v2.57zm5.92 0 3.1-28.8h5.93l0.22 2.56h-4l-1.26 15.51h3l-0.68 2.58h-2.59l-0.85 8.13zm9.14 0-2.27-24.77h2.52l2.65 24.75zm-4-30.24 3-4.21h2.25l-3.14 4.19zm18.53 30.24-2.65-11h-0.93v-2.61h0.7a2.834 2.834 0 0 0 1.82-0.45 1.9 1.9 0 0 0 0.55-1.51c0-1.09 0.06-7.6 0-8.69a2.081 2.081 0 0 0-0.57-1.53 2.689 2.689 0 0 0-1.77-0.45h-0.82v-2.58h0.82a5.8 5.8 0 0 1 3.91 1.08 4.8 4.8 0 0 1 1.3 3.58c0.06 1.71 0.06 7.08 0 8.48q-0.13 3.24-2.31 4.14l2.92 11.52zm-8.44 0v-28.82h2.86v28.8zm4.22-30.24-2.74-4.23h2l1.6 2.63 1.62-2.63h2l-2.68 4.21z"/>
    </g>
   </g>
  </g>
 </g>
</svg>
