<?xml version="1.0" encoding="UTF-8" standalone="no"?>
<svg
   viewBox="0 0 163.39 34.670107"
   version="1.1"
   id="svg138"
   sodipodi:docname="martinkolar.svg"
   width="163.39"
   height="34.670105"
   inkscape:version="1.2.2 (b0a84865, 2022-12-01)"
   xmlns:inkscape="http://www.inkscape.org/namespaces/inkscape"
   xmlns:sodipodi="http://sodipodi.sourceforge.net/DTD/sodipodi-0.dtd"
   xmlns="http://www.w3.org/2000/svg"
   xmlns:svg="http://www.w3.org/2000/svg">
  <defs
     id="defs142" />
  <sodipodi:namedview
     id="namedview140"
     pagecolor="#ffffff"
     bordercolor="#666666"
     borderopacity="1.0"
     inkscape:showpageshadow="2"
     inkscape:pageopacity="0.0"
     inkscape:pagecheckerboard="0"
     inkscape:deskcolor="#d1d1d1"
     showgrid="false"
     inkscape:zoom="6.8070381"
     inkscape:cx="81.753619"
     inkscape:cy="17.481906"
     inkscape:window-width="1371"
     inkscape:window-height="847"
     inkscape:window-x="69"
     inkscape:window-y="25"
     inkscape:window-maximized="1"
     inkscape:current-layer="svg138" />
  <g
     id="Layer_2"
     data-name="Layer 2">
    <g
       id="Layer_1-2"
       data-name="Layer 1">
      <g
         id="Layer_2-2"
         data-name="Layer 2">
        <g
           id="Layer_1-2-2"
           data-name="Layer 1-2">
          <path
             d="M 6.89,34.33 4.07,8.21 H 0 V 5.65 H 6.46 L 9,31.77 h 1 L 12.5,5.65 H 19 V 8.21 H 15 L 12.1,34.33 Z M 0,34.45 V 9.56 H 2.77 L 2.9,34.45 Z m 16.06,0 0.12,-24.89 H 19 v 24.89 z m 6.06,0 3.1,-28.8 h 5.94 l 0.27,2.58 h -4 l -1.26,15.51 h 3 l -0.69,2.58 H 25.9 l -0.85,8.13 z m 9.14,0 L 29,9.7 h 2.52 l 2.65,24.75 z m 14.52,0 -2.65,-11 H 42.2 v -2.59 h 0.7 a 2.834,2.834 0 0 0 1.82,-0.45 1.9,1.9 0 0 0 0.55,-1.51 c 0,-1.09 0.06,-7.6 0,-8.69 A 2,2 0 0 0 44.7,8.68 2.689,2.689 0 0 0 42.93,8.23 H 42.11 V 5.65 h 0.82 a 5.778,5.778 0 0 1 3.91,1.08 4.758,4.758 0 0 1 1.3,3.58 c 0.06,1.71 0.06,7.08 0,8.48 Q 48,22 45.83,22.93 l 2.92,11.52 z m -8.44,0 V 5.65 h 2.86 v 28.8 z M 50.18,8.23 V 5.65 h 11.61 v 2.58 z m 4.39,26.22 V 9.52 h 2.84 v 24.93 z m 9.66,0 V 5.65 h 2.86 v 28.8 z m 14.91,0 -3.8,-26.24 h -3.9 V 5.65 h 6 l 3.84,26.21 h 3.88 v 2.59 z m 3.4,-4 -0.25,-24.8 h 2.86 v 24.84 z m -11.1,4 V 9.58 H 74 l 0.27,24.87 z m 25.56,0 V 20.88 h 3.63 l 4.59,-15.23 h 3.08 l -8.41,23.74 v 5.06 z m 0,-15.3 V 5.65 h 3 l -0.28,13.5 z m 8.82,15.3 -2.72,-9.27 1.65,-4.28 4,13.55 z m 9.51,0.22 a 5.048,5.048 0 0 1 -3.49,-1.37 5.567,5.567 0 0 1 -1.12,-3.73 v -19 a 5.592,5.592 0 0 1 1.12,-3.73 5,5 0 0 1 3.49,-1.38 v 2.5 a 1.808,1.808 0 0 0 -1.35,0.74 3.263,3.263 0 0 0 -0.38,1.76 v 19.22 a 3.349,3.349 0 0 0 0.38,1.8 1.89,1.89 0 0 0 1.35,0.71 z m 2,0 v -2.5 a 1.82,1.82 0 0 0 1.29,-0.72 3.342,3.342 0 0 0 0.4,-1.79 V 10.44 a 3.243,3.243 0 0 0 -0.4,-1.76 1.768,1.768 0 0 0 -1.29,-0.74 V 5.45 a 4.868,4.868 0 0 1 3.4,1.41 5.648,5.648 0 0 1 1.12,3.69 v 19 a 5.61,5.61 0 0 1 -1.12,3.69 4.864,4.864 0 0 1 -3.42,1.41 z m 8.72,-0.2 V 5.65 h 2.87 v 28.8 z m 4.78,0 v -2.59 h 4.77 v 2.57 z m 5.92,0 3.1,-28.8 h 5.93 L 146,8.23 h -4 l -1.26,15.51 h 3 l -0.68,2.58 h -2.59 l -0.85,8.13 z m 9.14,0 -2.27,-24.77 h 2.52 l 2.65,24.75 z m -4,-30.24 3,-4.21 h 2.25 L 144,4.21 Z m 18.53,30.24 -2.65,-11 h -0.93 v -2.61 h 0.7 a 2.834,2.834 0 0 0 1.82,-0.45 1.9,1.9 0 0 0 0.55,-1.51 c 0,-1.09 0.06,-7.6 0,-8.69 a 2.081,2.081 0 0 0 -0.57,-1.53 2.689,2.689 0 0 0 -1.77,-0.45 h -0.82 V 5.65 h 0.82 a 5.8,5.8 0 0 1 3.91,1.08 4.8,4.8 0 0 1 1.3,3.58 c 0.06,1.71 0.06,7.08 0,8.48 q -0.13,3.24 -2.31,4.14 l 2.92,11.52 z m -8.44,0 V 5.65 h 2.86 v 28.8 z M 156.2,4.23 153.46,0 h 2 l 1.6,2.63 1.62,-2.63 h 2 L 158,4.21 Z"
             id="path132" />
        </g>
      </g>
    </g>
  </g>
</svg>
