<?xml version="1.0" encoding="UTF-8" standalone="no"?>
<svg
   width="999.99872pt"
   height="126.26562pt"
   viewBox="0 0 999.99872 126.26562"
   version="1.1"
   id="svg18"
   sodipodi:docname="MEWS_logo_B_RGB.svg"
   inkscape:version="1.1 (c4e8f9e, 2021-05-24)"
   xmlns:inkscape="http://www.inkscape.org/namespaces/inkscape"
   xmlns:sodipodi="http://sodipodi.sourceforge.net/DTD/sodipodi-0.dtd"
   xmlns="http://www.w3.org/2000/svg"
   xmlns:svg="http://www.w3.org/2000/svg">
  <defs
     id="defs22" />
  <sodipodi:namedview
     id="namedview20"
     pagecolor="#ffffff"
     bordercolor="#666666"
     borderopacity="1.0"
     inkscape:pageshadow="2"
     inkscape:pageopacity="0.0"
     inkscape:pagecheckerboard="0"
     inkscape:document-units="pt"
     showgrid="false"
     fit-margin-top="0"
     fit-margin-left="0"
     fit-margin-right="0"
     fit-margin-bottom="0"
     inkscape:zoom="0.92889222"
     inkscape:cx="388.63497"
     inkscape:cy="83.970991"
     inkscape:window-width="1382"
     inkscape:window-height="847"
     inkscape:window-x="58"
     inkscape:window-y="25"
     inkscape:window-maximized="1"
     inkscape:current-layer="svg18" />
  <g
     id="surface1"
     transform="translate(-1,-1.367188)">
    <path
       style="fill:#000000;fill-opacity:1;fill-rule:nonzero;stroke:none"
       d="M 1000.3086,78.710938 C 996.80859,55.496094 969.02344,54.125 950.63672,53.21875 c 0,0 -75.87891,-2.058594 -83.88281,-2.40625 -7.04297,-0.304687 -15.23438,-1.664062 -16.03516,-9.53125 -0.83984,-8.230469 6.58203,-12.046875 13.33203,-13.472656 13.48047,-2.851563 26.94531,-3.089844 40.30859,-3.089844 29.37891,0 56.40235,3.21875 84.9375,8.4375 l 3.09375,-22.890625 0.0273,-0.164062 c -21.5273,-4.003907 -51.29683,-8.734375 -83.0937,-8.734375 -14.875,0 -28.86328,0.847656 -41.58203,2.519531 -15.02344,1.972656 -31.46875,5.417969 -39.54297,15.992187 -6.85156,8.980469 -7.55469,24.15625 -3.40235,34.507813 7.13672,17.792969 32.42188,18.480469 48.17969,19.195312 0,0 76.32813,2.175782 84.41797,2.539063 7.04297,0.316406 15.23438,1.71875 16.03516,9.820312 0.71484,7.234375 -4.10157,12.476563 -14.06641,14.550784 -13.02344,2.71484 -26.76172,3.07812 -40.10937,3.07812 -32.45313,0 -61.11719,-3.39062 -94.07422,-8.499997 l -2.6875,23.121097 c 21.73828,4.33593 55.1289,9.4414 91.79297,9.4414 0.15234,0 0.30859,0 0.45703,0 13.99218,-0.004 28.10937,-0.008 41.98828,-2.00781 12.24219,-1.76172 25.07812,-4.4375 34.72265,-12.82031 9.49608,-8.25 10.60548,-22.496096 8.85548,-34.093752"
       id="path9" />
    <path
       style="fill:#000000;fill-opacity:1;fill-rule:nonzero;stroke:none"
       d="M 109.11719,96.535156 33.230469,2.21875 H 1 V 126.83203 H 29.503906 V 40.441406 l 63.164063,78.511724 c 8.929691,11.09765 23.937501,11.13671 32.898441,0 l 63.16406,-78.511724 v 86.390624 h 28.5039 V 2.21875 h -32.23046 l -75.88672,94.316406"
       id="path11" />
    <path
       style="fill:#000000;fill-opacity:1;fill-rule:nonzero;stroke:none"
       d="M 455.69141,2.21875 H 289.9375 v 124.61328 h 167.14453 l 4.1875,-25.20312 H 318.44141 V 77.125 H 450.03125 V 51.925781 H 318.44141 V 27.421875 h 137.25 V 2.21875"
       id="path13" />
    <path
       style="fill:#000000;fill-opacity:1;fill-rule:nonzero;stroke:none"
       d="M 730.73828,126.79297 782.73047,2.21875 H 753.30469 L 713.51172,97.574219 666.60937,13.558594 C 662.39453,6.230469 654.58203,1.710938 646.125,1.710938 c -8.45313,0 -16.26563,4.519531 -20.48047,11.847656 L 578.74219,97.574219 538.94922,2.21875 h -29.42578 l 51.99218,124.57422 h 30.25 L 646.125,28.503906 700.48828,126.79297 h 30.25"
       id="path15" />
  </g>
</svg>
