<?xml version="1.0" encoding="UTF-8"?>
<svg id="svg18" width="1e3pt" height="126.27pt" version="1.1" viewBox="0 0 1e3 126.27" xmlns="http://www.w3.org/2000/svg">
 <g id="surface1" transform="translate(-1 -1.3672)">
  <path id="path9" d="m1000.3 78.711c-3.5-23.215-31.285-24.586-49.672-25.492 0 0-75.879-2.0586-83.883-2.4062-7.043-0.30469-15.234-1.6641-16.035-9.5312-0.83984-8.2305 6.582-12.047 13.332-13.473 13.48-2.8516 26.945-3.0898 40.309-3.0898 29.379 0 56.402 3.2188 84.938 8.4375l3.0938-22.891 0.0273-0.16406c-21.527-4.0039-51.297-8.7344-83.094-8.7344-14.875 0-28.863 0.84766-41.582 2.5195-15.023 1.9727-31.469 5.418-39.543 15.992-6.8516 8.9805-7.5547 24.156-3.4024 34.508 7.1367 17.793 32.422 18.48 48.18 19.195 0 0 76.328 2.1758 84.418 2.5391 7.043 0.31641 15.234 1.7188 16.035 9.8203 0.71484 7.2344-4.1016 12.477-14.066 14.551-13.023 2.7148-26.762 3.0781-40.109 3.0781-32.453 0-61.117-3.3906-94.074-8.5l-2.6875 23.121c21.738 4.3359 55.129 9.4414 91.793 9.4414h0.45703c13.992-4e-3 28.109-8e-3 41.988-2.0078 12.242-1.7617 25.078-4.4375 34.723-12.82 9.4961-8.25 10.605-22.496 8.8555-34.094"/>
  <path id="path11" d="m109.12 96.535-75.887-94.316h-32.23v124.61h28.504v-86.391l63.164 78.512c8.9297 11.098 23.938 11.137 32.898 0l63.164-78.512v86.391h28.504v-124.61h-32.23l-75.887 94.316"/>
  <path id="path13" d="m455.69 2.2188h-165.75v124.61h167.14l4.1875-25.203h-142.83v-24.504h131.59v-25.199h-131.59v-24.504h137.25v-25.203"/>
  <path id="path15" d="m730.74 126.79 51.992-124.57h-29.426l-39.793 95.355-46.902-84.016c-4.2148-7.3281-12.027-11.848-20.484-11.848-8.4531 0-16.266 4.5195-20.48 11.848l-46.902 84.016-39.793-95.355h-29.426l51.992 124.57h30.25l54.359-98.289 54.363 98.289h30.25"/>
 </g>
</svg>
