<?xml version="1.0" encoding="UTF-8" standalone="no"?>
<svg
   width="401.89999"
   height="63.799999"
   viewBox="0 0 401.89999 63.799999"
   version="1.1"
   xml:space="preserve"
   style="clip-rule:evenodd;fill-rule:evenodd;stroke-linejoin:round;stroke-miterlimit:2"
   id="svg848"
   sodipodi:docname="motionlab.svg"
   inkscape:version="1.1.2 (b8e25be8, 2022-02-05)"
   xmlns:inkscape="http://www.inkscape.org/namespaces/inkscape"
   xmlns:sodipodi="http://sodipodi.sourceforge.net/DTD/sodipodi-0.dtd"
   xmlns="http://www.w3.org/2000/svg"
   xmlns:svg="http://www.w3.org/2000/svg"><defs
   id="defs852" /><sodipodi:namedview
   id="namedview850"
   pagecolor="#ffffff"
   bordercolor="#666666"
   borderopacity="1.0"
   inkscape:pageshadow="2"
   inkscape:pageopacity="0.0"
   inkscape:pagecheckerboard="0"
   showgrid="false"
   fit-margin-top="0"
   fit-margin-left="0"
   fit-margin-right="0"
   fit-margin-bottom="0"
   inkscape:zoom="0.96940376"
   inkscape:cx="247.05908"
   inkscape:cy="139.26086"
   inkscape:window-width="1377"
   inkscape:window-height="847"
   inkscape:window-x="63"
   inkscape:window-y="25"
   inkscape:window-maximized="1"
   inkscape:current-layer="svg848" />
    <g
   transform="translate(-15.9,-7.0999999)"
   id="g846">
        <g
   id="g838">
            <path
   d="m 15.9,30.9 h 13.6 v 4.7 c 3.7,-3.6 7.9,-5.3 12.5,-5.3 5.7,0 10.1,2.4 13.1,7.2 3.1,-4.9 7.4,-7.3 13.1,-7.3 1.8,0 3.5,0.3 5.1,0.8 1.6,0.5 3,1.4 4.1,2.5 1.2,1.1 2.1,2.6 2.7,4.4 0.7,1.8 1,4 1,6.5 v 25 H 67.5 v -19 c 0,-2 -0.1,-3.6 -0.4,-4.8 -0.3,-1.3 -0.7,-2.2 -1.2,-2.9 -0.5,-0.7 -1.1,-1.2 -1.8,-1.4 -0.7,-0.2 -1.5,-0.4 -2.3,-0.4 -4.4,0 -6.5,3.2 -6.5,9.5 v 19 H 41.6 v -19 c 0,-2 -0.1,-3.6 -0.4,-4.8 -0.3,-1.3 -0.6,-2.3 -1.1,-3 -0.5,-0.8 -1.1,-1.3 -1.8,-1.5 -0.8,-0.3 -1.6,-0.4 -2.6,-0.4 -0.9,0 -1.7,0.1 -2.4,0.4 -0.8,0.3 -1.4,0.7 -2,1.5 -0.6,0.7 -1,1.7 -1.4,3 -0.3,1.3 -0.5,2.9 -0.5,5 v 19 H 15.9 Z"
   style="fill:#fd8f82;fill-rule:nonzero"
   id="path824" />
            <path
   d="M 158.3,42.3 V 69.5 H 144.7 V 42.3 h -4.5 V 30.9 h 4.5 V 19.4 h 13.6 V 31 h 7.7 v 11.3 z"
   style="fill:#fd8f82;fill-rule:nonzero"
   id="path826" />
            <path
   d="m 171.3,16.1 c 0,-1.1 0.2,-2 0.6,-3 0.4,-0.9 1,-1.7 1.7,-2.4 0.7,-0.7 1.5,-1.3 2.4,-1.7 0.9,-0.4 1.9,-0.6 3,-0.6 1.1,0 2,0.2 3,0.6 0.9,0.4 1.7,1 2.4,1.7 0.7,0.7 1.3,1.5 1.7,2.4 0.4,0.9 0.6,1.9 0.6,3 0,1.1 -0.2,2 -0.6,3 -0.4,0.9 -1,1.7 -1.7,2.4 -0.7,0.7 -1.5,1.3 -2.4,1.7 -0.9,0.4 -1.9,0.6 -3,0.6 -1.1,0 -2,-0.2 -3,-0.6 -0.9,-0.4 -1.7,-1 -2.4,-1.7 -0.7,-0.7 -1.3,-1.5 -1.7,-2.4 -0.4,-0.9 -0.6,-1.9 -0.6,-3 z m 14.5,14.8 V 69.4 H 172.2 V 30.9 Z"
   style="fill:#fd8f82;fill-rule:nonzero"
   id="path828" />
            <path
   d="m 247.6,30.9 h 13.6 v 4.9 c 1.9,-2.3 3.7,-3.8 5.6,-4.5 1.9,-0.8 4.1,-1.2 6.7,-1.2 2.7,0 5,0.4 6.9,1.3 1.9,0.9 3.6,2.1 4.9,3.7 1.1,1.3 1.9,2.8 2.3,4.4 0.4,1.6 0.6,3.4 0.6,5.5 V 69.5 H 274.6 V 50 c 0,-1.9 -0.1,-3.4 -0.4,-4.6 -0.3,-1.2 -0.8,-2.1 -1.5,-2.8 -0.6,-0.6 -1.3,-1 -2,-1.3 -0.8,-0.2 -1.6,-0.4 -2.4,-0.4 -2.3,0 -4.1,0.7 -5.3,2.1 -1.2,1.4 -1.8,3.3 -1.8,5.9 v 20.6 h -13.6 z"
   style="fill:#fd8f82;fill-rule:nonzero"
   id="path830" />
            <rect
   x="297.5"
   y="7.0999999"
   width="13.6"
   height="62.299999"
   style="fill:#fd8f82;fill-rule:nonzero"
   id="rect832" />
            <path
   d="m 350,30.9 h 13.8 v 38.5 h -13.7 v -4.3 c -2.9,3.7 -6.8,5.5 -11.8,5.5 -2.8,0 -5.4,-0.5 -7.7,-1.5 -2.4,-1 -4.4,-2.5 -6.2,-4.3 -1.8,-1.9 -3.1,-4 -4.1,-6.5 -1,-2.5 -1.5,-5.2 -1.5,-8.2 0,-2.8 0.5,-5.4 1.4,-7.8 1,-2.5 2.3,-4.6 4,-6.5 1.7,-1.9 3.7,-3.3 6.1,-4.4 2.4,-1.1 5,-1.6 7.8,-1.6 4.8,0 8.8,1.7 11.9,5 z m -17,19.2 c 0,1.3 0.2,2.4 0.7,3.5 0.5,1.1 1.1,2 1.8,2.8 0.8,0.8 1.7,1.4 2.8,1.9 1.1,0.5 2.2,0.7 3.5,0.7 1.2,0 2.3,-0.2 3.4,-0.7 1.1,-0.5 2,-1.1 2.8,-1.9 0.8,-0.8 1.4,-1.7 1.9,-2.8 0.5,-1.1 0.7,-2.2 0.7,-3.4 0,-1.2 -0.2,-2.3 -0.7,-3.4 -0.5,-1.1 -1.1,-2 -1.9,-2.8 -0.8,-0.8 -1.7,-1.4 -2.8,-1.9 -1.1,-0.5 -2.2,-0.7 -3.4,-0.7 -1.3,0 -2.4,0.2 -3.5,0.7 -1.1,0.5 -2,1.1 -2.8,1.9 -0.8,0.8 -1.4,1.7 -1.8,2.7 -0.5,1.1 -0.7,2.2 -0.7,3.4 z"
   style="fill:#fd8f82;fill-rule:nonzero"
   id="path834" />
            <path
   d="m 386.6,7.1 v 27.6 c 3.2,-3.4 7.2,-5 12,-5 2.9,0 5.5,0.5 7.8,1.6 2.4,1.1 4.4,2.5 6.1,4.4 1.7,1.8 3,4 3.9,6.5 1,2.5 1.4,5.1 1.4,7.9 0,2.9 -0.5,5.5 -1.5,8 -1,2.5 -2.3,4.7 -4.1,6.5 -1.8,1.9 -3.8,3.3 -6.2,4.4 -2.4,1.1 -4.9,1.6 -7.7,1.6 -5,0 -9,-1.8 -11.9,-5.5 v 4.3 H 373 V 7.1 Z m 17.1,43.2 c 0,-1.2 -0.2,-2.3 -0.7,-3.4 -0.5,-1.1 -1.1,-2 -1.9,-2.8 -0.8,-0.8 -1.7,-1.4 -2.8,-1.9 -1.1,-0.5 -2.2,-0.7 -3.5,-0.7 -1.2,0 -2.3,0.2 -3.4,0.7 -1.1,0.5 -2,1.1 -2.7,1.9 -0.8,0.8 -1.4,1.7 -1.9,2.8 -0.5,1.1 -0.7,2.2 -0.7,3.4 0,1.2 0.2,2.3 0.7,3.4 0.5,1.1 1.1,2 1.9,2.7 0.8,0.8 1.7,1.4 2.8,1.9 1.1,0.5 2.2,0.7 3.4,0.7 1.2,0 2.3,-0.2 3.4,-0.7 1.1,-0.5 2,-1.1 2.7,-1.9 0.8,-0.8 1.4,-1.7 1.9,-2.8 0.6,-1 0.8,-2.1 0.8,-3.3 z"
   style="fill:#fd8f82;fill-rule:nonzero"
   id="path836" />
        </g>
        <g
   id="g844">
            <path
   d="m 133.4,41.9 c -1.2,-2.5 -2.8,-4.7 -4.8,-6.5 -2.1,-1.8 -4.5,-3.3 -7.4,-4.3 -2.8,-1 -5.9,-1.5 -9.2,-1.5 -3.4,0 -6.4,0.5 -9.3,1.6 -2.8,1.1 -5.3,2.5 -7.3,4.3 -2.1,1.8 -3.7,4 -4.8,6.5 -1.2,2.5 -1.7,5.1 -1.7,8 v 0.5 h 14.3 v -0.4 c 0,-1.2 0.2,-2.3 0.7,-3.4 0.5,-1.1 1.1,-2 1.9,-2.8 0.8,-0.8 1.7,-1.4 2.8,-1.9 1.1,-0.5 2.2,-0.7 3.4,-0.7 1.2,0 2.3,0.2 3.4,0.7 1.1,0.5 2,1.1 2.8,1.9 0.8,0.8 1.4,1.7 1.9,2.8 0.5,1.1 0.7,2.2 0.7,3.4 0,1.3 -0.2,2.4 -0.7,3.5 -0.5,1.1 -1.1,2 -1.9,2.8 -0.8,0.8 -1.7,1.4 -2.8,1.9 -1.1,0.5 -2.2,0.7 -3.4,0.7 h -0.2 v 11.9 c 3.3,0 6.5,-0.5 9.3,-1.5 2.9,-1 5.3,-2.4 7.4,-4.2 2.1,-1.8 3.7,-4 4.8,-6.5 1.2,-2.5 1.8,-5.3 1.8,-8.4 0,-3.1 -0.6,-5.9 -1.7,-8.4 z"
   style="fill:#fd8f82;fill-rule:nonzero"
   id="path840" />
            <path
   d="m 194.9,58.5 c 1.2,2.5 2.8,4.7 4.8,6.5 2.1,1.8 4.5,3.3 7.4,4.3 2.8,1 5.9,1.5 9.2,1.5 3.4,0 6.4,-0.5 9.3,-1.6 2.8,-1.1 5.3,-2.5 7.3,-4.3 2.1,-1.8 3.7,-4 4.8,-6.5 1.2,-2.5 1.7,-5.1 1.7,-8 v -0.5 h -14.3 v 0.4 c 0,1.2 -0.2,2.3 -0.7,3.4 -0.5,1.1 -1.1,2 -1.9,2.8 -0.8,0.8 -1.7,1.4 -2.8,1.9 -1.1,0.5 -2.2,0.7 -3.4,0.7 -1.2,0 -2.3,-0.2 -3.4,-0.7 -1.1,-0.5 -2,-1.1 -2.8,-1.9 -0.8,-0.8 -1.4,-1.7 -1.9,-2.8 -0.5,-1.1 -0.7,-2.2 -0.7,-3.4 0,-1.3 0.2,-2.4 0.7,-3.5 0.5,-1.1 1.1,-2 1.9,-2.8 0.8,-0.8 1.7,-1.4 2.8,-1.9 1.1,-0.5 2.2,-0.7 3.4,-0.7 h 0.2 V 29.5 c -3.3,0 -6.5,0.5 -9.3,1.5 -2.9,1 -5.3,2.4 -7.4,4.2 -2.1,1.8 -3.7,4 -4.8,6.5 -1.2,2.5 -1.8,5.3 -1.8,8.4 0,3.1 0.6,5.9 1.7,8.4 z"
   style="fill:#fd8f82;fill-rule:nonzero"
   id="path842" />
        </g>
    </g>
</svg>
