<?xml version="1.0" encoding="UTF-8" standalone="no"?>
<svg
   width="512"
   height="512"
   viewBox="0 0 512 512"
   fill="none"
   version="1.1"
   id="svg136"
   sodipodi:docname="nelaprovazi.svg"
   inkscape:version="1.2.2 (b0a84865, 2022-12-01)"
   xmlns:inkscape="http://www.inkscape.org/namespaces/inkscape"
   xmlns:sodipodi="http://sodipodi.sourceforge.net/DTD/sodipodi-0.dtd"
   xmlns="http://www.w3.org/2000/svg"
   xmlns:svg="http://www.w3.org/2000/svg">
  <defs
     id="defs140" />
  <sodipodi:namedview
     id="namedview138"
     pagecolor="#ffffff"
     bordercolor="#666666"
     borderopacity="1.0"
     inkscape:showpageshadow="2"
     inkscape:pageopacity="0.0"
     inkscape:pagecheckerboard="0"
     inkscape:deskcolor="#d1d1d1"
     showgrid="false"
     inkscape:zoom="0.4609375"
     inkscape:cx="257.08475"
     inkscape:cy="258.16949"
     inkscape:window-width="1371"
     inkscape:window-height="847"
     inkscape:window-x="69"
     inkscape:window-y="25"
     inkscape:window-maximized="1"
     inkscape:current-layer="svg136" />
  <rect
     width="512"
     height="512"
     rx="80"
     fill="#699fb0"
     id="rect132"
     x="0"
     y="0" />
  <path
     d="m 325.507,347.756 c 0,0.297 0.148,0.445 0.445,0.445 -10.381,29.659 -21.947,52.497 -34.701,68.512 -0.89,0.297 -3.855,2.076 -8.897,5.339 -14.237,3.559 -24.766,-3.263 -31.587,-20.465 -4.449,-5.635 -9.788,-24.617 -16.016,-56.945 -2.966,-52.496 -4.3,-81.858 -4.004,-88.087 l -1.335,-71.626 c -2.669,7.118 -6.525,18.834 -11.567,35.146 -4.745,16.016 -8.601,28.028 -11.566,36.036 0,0.593 0.593,0.889 1.779,0.889 -3.262,10.084 -5.339,18.241 -6.228,24.469 0.296,0 -0.445,1.038 -2.225,3.114 0.297,-0.297 0.445,0.89 0.445,3.559 -16.016,64.36 -24.32,98.912 -24.913,103.658 l -3.114,9.342 c 0.593,0.297 0.889,1.187 0.889,2.67 0,1.779 0.445,2.817 1.335,3.114 -0.89,1.483 -2.224,8.008 -4.004,19.575 2.966,3.262 3.856,6.525 2.669,9.787 -13.05,3.559 -20.909,-5.19 -23.579,-26.248 0,-1.779 2.225,-14.681 6.674,-38.705 l 40.484,-147.701 c 0.297,0 0.593,-0.445 0.89,-1.335 0,-0.889 0.296,-1.334 0.89,-1.334 0.889,-4.449 9.787,-32.922 26.693,-85.418 2.669,1.187 4.448,1.038 5.338,-0.445 0.297,1.187 1.78,2.076 4.449,2.67 2.669,0.889 4.004,2.224 4.004,4.004 0.593,0 0.89,-0.445 0.89,-1.335 0,-0.593 0.445,-0.89 1.334,-0.89 -0.889,1.78 -0.444,2.521 1.335,2.225 -0.297,-0.89 0.89,19.723 3.559,61.838 0,0.297 -0.593,1.038 -1.779,2.225 0,0.593 0.296,1.186 0.889,1.779 0.89,0.593 1.187,1.335 0.89,2.225 -0.593,7.118 -0.593,20.464 0,40.039 -0.593,5.635 -0.593,8.601 0,8.898 l -1.779,3.114 c 2.669,5.042 2.965,11.419 0.889,19.13 1.187,1.186 1.632,3.411 1.335,6.673 -0.297,3.263 -0.148,5.191 0.445,5.784 0.296,0.889 0,1.483 -0.89,1.779 -0.89,0.297 -1.335,0.593 -1.335,0.89 0,0.593 0.445,0.741 1.335,0.445 0.593,-0.297 0.89,-0.297 0.89,0 0.593,17.202 1.483,29.214 2.669,36.035 0,0.89 -0.741,1.335 -2.224,1.335 2.076,4.449 2.817,10.084 2.224,16.906 0,0.296 0.297,0.444 0.89,0.444 l 0.445,0.445 c -0.89,2.373 -0.593,6.08 0.89,11.122 1.483,5.042 1.927,8.75 1.334,11.123 8.898,21.651 12.457,31.735 10.677,30.252 7.712,0 12.161,-3.559 13.347,-10.678 3.262,-2.965 6.97,-8.897 11.122,-17.795 4.152,-9.194 7.86,-15.423 11.122,-18.685 1.186,-1.78 1.186,-2.669 0,-2.669 5.932,-12.754 14.385,-37.074 25.358,-72.961 0.594,-5.635 2.373,-14.385 5.339,-26.248 2.966,-10.974 4.745,-19.723 5.339,-26.248 0,0.889 0.593,0.148 1.779,-2.225 -0.593,-6.525 0.445,-12.605 3.114,-18.24 0.89,1.186 1.335,-2.224 1.335,-10.232 l 3.114,-28.473 c -1.186,0.593 -1.779,4.597 -1.779,12.012 l -4.449,25.358 c 5.042,-62.876 2.966,-103.213 -6.229,-121.0078 -8.304,-4.4489 -14.384,-6.525 -18.24,-6.2284 -2.076,-3.8557 -6.08,-5.1903 -12.012,-4.0039 l -7.118,2.2244 c -3.262,1.4829 -5.19,2.2244 -5.783,2.2244 6.821,-10.3806 15.126,-15.5709 24.913,-15.5709 15.126,9.1942 25.803,18.0919 32.032,26.693 0.296,0.5932 0.741,0.5932 1.334,0 0.297,-0.2966 0.594,-0.2966 0.89,0 0.89,2.3727 1.483,3.559 1.78,3.559 4.152,7.1182 7.711,20.3162 10.677,39.5942 0,4.153 0.445,6.97 1.335,8.453 0.296,61.691 -11.716,130.054 -36.036,205.091 z m 17.351,-233.118 c -0.594,-0.297 -0.445,-0.742 0.445,-1.335 z m 9.787,4.893 0.89,-0.889 -0.89,-1.335 c -0.593,-0.593 -0.89,-1.038 -0.89,-1.335 z m 1.335,7.119 c -1.187,-2.966 -1.632,-4.449 -1.335,-4.449 -0.593,0.593 -0.741,1.483 -0.445,2.669 0.297,1.186 0.89,1.78 1.78,1.78 z m 0.445,0.889 c -0.594,0 -0.89,0.149 -0.89,0.445 0.593,0 0.89,-0.148 0.89,-0.445 z m -9.788,33.367 c -2.966,4.448 -2.966,7.118 0,8.007 0.89,-23.133 0.89,-36.777 0,-40.929 0.297,3.856 0.297,9.343 0,16.461 z m 10.232,-24.469 c -0.593,-0.593 -0.593,-1.78 0,-3.559 0.297,-1.483 -0.148,-2.373 -1.334,-2.669 -0.593,3.559 -0.148,5.635 1.334,6.228 z m -3.559,-1.335 c -0.593,0 -0.889,-0.741 -0.889,-2.224 0.296,-1.483 0,-2.225 -0.89,-2.225 -0.593,0.594 -0.593,1.632 0,3.115 0.593,1.483 1.186,1.927 1.779,1.334 z m -1.334,6.229 c 0.593,-1.187 1.038,-2.373 1.334,-3.559 h -1.779 c 0.89,0.296 1.038,0.889 0.445,1.779 -0.297,1.186 -0.297,1.78 0,1.78 z m 4.893,0.445 c 0,-2.67 -0.148,-3.56 -0.444,-2.67 0,2.373 0.148,3.263 0.444,2.67 z m -5.783,30.696 c 1.483,-0.296 1.78,-2.521 0.89,-6.673 0.89,-6.525 0.89,-14.533 0,-24.023 l -0.445,15.57 c -0.593,6.525 -0.742,11.567 -0.445,15.126 z m 6.228,-28.917 h 1.78 v -1.335 h -1.78 z m -0.445,18.685 c 1.78,-8.304 1.632,-14.384 -0.444,-18.24 -0.297,7.415 -0.149,13.495 0.444,18.24 z M 220.96,154.677 c 0.889,-0.296 1.631,-1.483 2.224,-3.559 -0.593,0 -1.335,1.186 -2.224,3.559 z m 4.449,3.114 c 0.296,-0.296 0.444,-0.741 0.444,-1.334 0.297,-0.89 0,-1.187 -0.889,-0.89 0,1.483 0.148,2.224 0.445,2.224 z m -4.449,-1.779 c -0.89,0.89 -1.335,1.186 -1.335,0.89 0.89,-0.89 1.335,-1.187 1.335,-0.89 z m -2.67,6.673 c 0.594,-1.483 0.742,-2.521 0.445,-3.114 -1.186,3.559 -1.631,5.635 -1.334,6.228 z m 137.024,2.224 c -0.296,-0.296 -0.445,-0.741 -0.445,-1.334 -0.889,-0.297 -1.334,0.296 -1.334,1.779 0.296,1.187 0.741,1.78 1.334,1.78 0,-0.297 0.297,-0.445 0.89,-0.445 l 0.89,-0.445 c -0.593,0 -0.89,-0.296 -0.89,-0.89 0,-0.296 -0.148,-0.445 -0.445,-0.445 z m -139.248,4.894 c 0,-2.373 0.148,-3.411 0.445,-3.114 0,2.076 -0.148,3.114 -0.445,3.114 z m -2.224,4.449 c 0.889,0 1.482,-0.593 1.779,-1.78 0.593,-0.889 0.297,-1.334 -0.89,-1.334 0.297,0.593 0.149,1.038 -0.445,1.334 -0.296,0.594 -0.444,1.187 -0.444,1.78 z m 6.228,-2.224 c 0,-0.297 -0.148,-0.445 -0.445,-0.445 -0.297,0 -0.445,0.148 -0.445,0.445 z m 13.791,4.004 c 1.483,-1.483 1.483,-2.225 0,-2.225 -0.889,1.187 -0.889,1.928 0,2.225 z m 115.225,1.334 c 0,-0.593 0.297,-0.89 0.89,-0.89 0,-1.482 -0.445,-2.372 -1.335,-2.669 0.593,2.669 0.742,3.856 0.445,3.559 z M 167.129,336.634 c 4.449,-14.532 12.16,-41.374 23.134,-80.523 9.491,-34.108 17.498,-60.801 24.023,-80.079 0,-0.594 -0.296,-0.89 -0.889,-0.89 -19.279,59.021 -34.701,112.852 -46.268,161.492 z m 67.622,-150.815 c -0.297,-0.297 -0.445,-1.631 -0.445,-4.004 -0.296,-2.669 -0.593,-4.301 -0.89,-4.894 0,5.932 0.445,8.898 1.335,8.898 z m -17.795,-5.339 c -0.297,0 0.296,-0.445 1.779,-1.334 -1.186,-0.89 -1.779,-0.445 -1.779,1.334 z m 122.787,54.276 c -1.779,2.966 -3.114,7.267 -4.003,12.902 -0.89,6.228 -1.78,10.529 -2.67,12.901 -0.296,2.076 -4.745,18.685 -13.346,49.827 -0.297,0.593 -0.149,1.038 0.445,1.335 0.296,0.593 0.444,1.186 0.444,1.779 h -1.779 l -15.571,37.815 c 0,2.373 0.297,3.856 0.89,4.449 -1.483,0.593 -2.225,1.632 -2.225,3.114 4.746,-3.559 6.822,-7.859 6.229,-12.901 1.483,0.593 2.224,0.741 2.224,0.445 -0.89,-5.635 -0.741,-7.86 0.445,-6.673 -0.297,0.296 0.445,0.444 2.224,0.444 0,-2.965 -0.148,-4.893 -0.444,-5.783 2.372,0 3.114,0.148 2.224,0.445 -1.186,-2.076 -1.631,-3.114 -1.335,-3.114 0.594,0 1.187,-0.149 1.78,-0.445 l 1.335,-0.445 c 0,-1.78 -0.149,-2.966 -0.445,-3.559 2.372,-2.669 4.3,-7.118 5.783,-13.347 1.483,-7.118 2.966,-11.863 4.449,-14.236 0,2.076 2.076,-5.635 6.228,-23.134 0,-2.669 -0.148,-3.559 -0.445,-2.669 0.89,-0.297 1.335,-1.631 1.335,-4.004 0,-2.373 0.742,-3.263 2.225,-2.669 0,-8.601 0.741,-13.94 2.224,-16.016 0.89,-10.084 2.669,-17.054 5.339,-20.91 -0.89,-2.076 -0.89,-5.19 0,-9.342 1.186,-4.746 1.631,-8.305 1.334,-10.677 l 2.669,-5.339 c -0.296,-2.076 -0.148,-6.08 0.445,-12.012 0.89,-6.228 1.038,-10.825 0.445,-13.791 -0.593,6.821 -2.224,16.312 -4.893,28.472 -2.077,10.974 -3.263,20.02 -3.56,27.138 z M 228.078,183.595 c 0.89,-1.187 0.89,-1.78 0,-1.78 -0.89,1.186 -0.89,1.78 0,1.78 z m 123.677,20.909 c 0.297,-0.297 0.297,-1.335 0,-3.114 -0.296,-1.186 0,-2.076 0.89,-2.669 v 1.334 c 0.89,0.297 1.335,0 1.335,-0.89 0,-0.889 -0.445,-1.038 -1.335,-0.444 -0.297,-0.297 -0.297,-1.187 0,-2.67 0.297,-1.186 0.148,-2.076 -0.445,-2.669 l 1.335,-1.78 c 0.593,-0.593 0.89,-1.038 0.89,-1.334 -0.297,-0.593 -0.742,-0.742 -1.335,-0.445 -0.593,0.297 -0.89,0.297 -0.89,0 1.187,-0.593 2.076,-1.928 2.669,-4.004 -1.186,0.297 -1.631,-0.148 -1.334,-1.335 1.186,0 1.779,-0.445 1.779,-1.334 -0.296,0.296 -1.186,0.148 -2.669,-0.445 0.593,-3.559 -0.593,6.228 -3.559,29.362 -1.78,4.152 -2.521,7.415 -2.224,9.788 0.889,-0.297 2.224,-0.149 4.004,0.444 -0.297,0.594 -1.039,-0.296 -2.225,-2.669 v -3.114 c 0.297,0 0.593,0.148 0.89,0.445 0.296,0.296 0.741,0.445 1.335,0.445 0.593,-1.78 0.889,-2.966 0.889,-3.559 -1.483,0 -2.224,-0.149 -2.224,-0.445 2.076,-1.483 2.966,-3.114 2.669,-4.894 -0.593,0 -0.89,0.148 -0.89,0.445 z m -117.894,0.445 c 3.559,-6.228 3.559,-12.457 0,-18.685 v 9.342 c 0.297,3.559 0.297,6.674 0,9.343 z m -19.575,-16.461 c 0.594,0.297 1.038,0.149 1.335,-0.445 0,-0.889 -0.297,-1.186 -0.89,-0.889 z m 5.784,2.67 2.224,-0.445 v -0.89 h -1.779 z m -2.669,2.669 c 0.296,-0.297 0.444,-0.89 0.444,-1.78 0.297,-1.186 0,-1.631 -0.889,-1.334 1.186,2.076 1.334,3.114 0.445,3.114 z m -6.674,7.118 c -0.889,-1.186 -0.741,-1.631 0.445,-1.335 z m 0.445,1.335 c -0.593,0 -0.89,0.148 -0.89,0.445 0.594,0 0.89,-0.149 0.89,-0.445 z m -2.224,5.338 c -1.78,-1.186 -1.631,-1.779 0.445,-1.779 z m 24.468,40.93 c 0,-0.89 0.445,-1.335 1.335,-1.335 -0.297,0.593 -0.593,1.779 -0.89,3.559 -0.296,1.779 -0.593,2.966 -0.889,3.559 1.482,3.262 1.631,5.932 0.444,8.008 2.077,8.304 2.225,15.867 0.445,22.689 1.483,0 2.225,0.148 2.225,0.445 -0.297,0.89 -0.297,2.521 0,4.894 0.296,2.076 0.148,3.707 -0.445,4.893 0.593,2.076 0.89,5.932 0.89,11.567 0,5.635 0.148,9.639 0.444,12.012 -0.593,2.966 -0.296,7.415 0.89,13.347 0.593,5.931 0.742,10.232 0.445,12.901 0.89,1.187 1.335,4.152 1.335,8.898 0.296,4.449 1.038,7.415 2.224,8.897 -2.373,-20.464 -4.449,-56.796 -6.228,-108.996 l 1.334,-4.894 c -1.482,-4.152 -2.076,-10.973 -1.779,-20.464 0.297,-10.084 -0.148,-17.351 -1.335,-21.799 0.593,6.524 0.593,14.087 0,22.689 -0.593,9.194 -0.741,15.57 -0.445,19.13 z m -19.13,-39.15 h 1.335 v -1.335 h -1.335 z m -1.334,0 c 0,-0.593 -0.149,-0.89 -0.445,-0.89 -0.593,0 -0.89,0.297 -0.89,0.89 0.297,-0.297 0.593,-0.297 0.89,0 z m -7.563,8.008 c 0.89,-0.594 1.631,-1.78 2.224,-3.559 0.89,-1.78 0.89,-2.818 0,-3.115 z m 8.008,-0.89 c 0,-0.297 0.148,-0.445 0.445,-0.445 0,-0.89 -0.297,-1.186 -0.89,-0.89 0,0.89 0.148,1.335 0.445,1.335 z m -10.678,10.677 c 0.89,-0.593 1.632,-1.928 2.225,-4.004 0.593,-2.076 0.445,-3.262 -0.445,-3.559 l -0.89,4.004 c -0.593,1.78 -0.89,2.966 -0.89,3.559 z m 141.918,6.228 c 1.483,0 2.076,0.445 1.78,1.335 1.186,-0.296 2.076,-1.335 2.669,-3.114 -1.78,0 -2.669,-0.445 -2.669,-1.335 l 2.224,-6.673 h -1.779 c -0.594,4.449 -1.335,7.711 -2.225,9.787 z m 3.559,-2.224 c 0.593,-0.297 1.187,-1.483 1.78,-3.559 0.296,-1.78 0,-2.818 -0.89,-3.114 0,0.89 -0.297,2.076 -0.89,3.559 -0.593,1.186 -0.593,2.224 0,3.114 z m -146.366,0 h 0.889 v -1.335 h -0.889 z m -0.89,4.004 c -0.593,0 -0.89,0.148 -0.89,0.445 0.593,0 0.89,-0.148 0.89,-0.445 z m 139.693,32.032 c 0,-0.89 0.742,-3.263 2.225,-7.119 0.889,-2.965 1.186,-5.783 0.889,-8.452 2.966,-0.297 3.263,-2.521 0.89,-6.674 1.187,0 1.78,-0.296 1.78,-0.889 -0.89,-0.297 -1.187,-0.89 -0.89,-1.78 0.297,-0.593 0.741,-1.038 1.335,-1.335 -0.89,0 -1.335,-0.148 -1.335,-0.444 0.297,-0.594 1.186,-1.187 2.669,-1.78 l -0.445,-1.779 c -0.296,-0.89 -0.593,-1.483 -0.889,-1.78 -2.966,1.186 -4.449,4.597 -4.449,10.232 0,6.229 -0.742,9.936 -2.225,11.122 0.297,1.187 0.149,2.521 -0.445,4.004 -0.296,1.483 -0.296,2.521 0,3.115 0,-0.297 0.149,-0.297 0.445,0 -0.593,0.296 -0.889,1.038 -0.889,2.224 0,0.89 -0.297,1.631 -0.89,2.224 0.593,0.297 1.038,0.149 1.334,-0.445 0.297,-0.296 0.594,-0.444 0.89,-0.444 z M 198.271,241.429 c 0.296,0 0.889,-0.445 1.779,-1.334 -1.186,-0.297 -1.779,0.148 -1.779,1.334 z m 0.889,12.012 c 0,-0.296 0.149,-0.445 0.445,-0.445 z m 40.04,13.792 c 0.593,-5.339 0.445,-8.898 -0.445,-10.678 -0.593,5.339 -0.445,8.898 0.445,10.678 z m -47.603,-2.67 c -1.186,-0.296 -1.038,-0.889 0.445,-1.779 z m 48.938,18.24 c -3.263,-10.38 -4.004,-15.126 -2.225,-14.236 0.593,1.483 0.742,4.004 0.445,7.563 0,2.966 0.593,5.191 1.78,6.673 z m 94.76,10.233 c 0,-0.297 -0.149,-0.593 -0.445,-0.89 -0.593,-0.297 -0.742,-0.741 -0.445,-1.335 0.593,-0.296 1.186,-1.038 1.779,-2.224 0.297,-1.483 0.742,-2.521 1.335,-3.114 -0.89,-0.297 -1.186,-1.038 -0.89,-2.225 0.297,-1.483 0.149,-2.521 -0.445,-3.114 0.297,-0.296 0.742,-0.445 1.335,-0.445 0.89,0 1.335,-0.148 1.335,-0.445 l -1.335,-2.669 0.89,-0.445 c 0,0.593 0.148,0.89 0.445,0.89 l 0.889,-2.224 h 0.445 c 0,-2.966 -0.445,-4.894 -1.334,-5.784 -1.187,1.78 -2.076,4.746 -2.67,8.898 -0.593,4.152 -1.631,7.118 -3.114,8.897 v 6.229 z M 189.818,271.681 c 0.296,-0.296 0.296,-0.444 0,-0.444 z m 49.382,32.477 c 0.593,2.373 0.89,6.821 0.89,13.346 0.296,5.636 1.038,9.788 2.224,12.457 -0.593,-5.042 -1.038,-13.05 -1.335,-24.024 -0.296,-9.787 -0.889,-17.053 -1.779,-21.799 -0.297,2.669 -0.297,5.932 0,9.788 0.296,3.855 0.296,7.266 0,10.232 z m 4.004,-13.791 c 0,-3.263 -0.445,-4.449 -1.335,-3.56 0.593,0 0.89,0.594 0.89,1.78 -0.297,1.186 -0.148,1.78 0.445,1.78 z m 90.311,5.783 c -0.296,0.593 -0.741,0.741 -1.335,0.445 -0.593,-0.297 -1.038,-0.297 -1.334,0 -0.593,3.559 -1.631,8.008 -3.114,13.346 l -3.559,12.902 c 3.262,-2.966 4.448,-6.673 3.559,-11.122 1.186,-0.593 2.076,-1.928 2.669,-4.004 0.593,-2.373 1.335,-3.707 2.224,-4.004 0.297,-0.593 0.149,-1.186 -0.445,-1.78 -0.296,-0.296 -0.444,-0.593 -0.444,-0.889 l 1.779,-0.445 c -0.593,-4.449 -0.741,-6.673 -0.445,-6.673 -0.593,0.593 -0.445,1.334 0.445,2.224 z m -87.197,2.669 c -0.297,0 -0.445,-0.148 -0.445,-0.445 -0.296,-0.296 -0.593,-0.444 -0.89,-0.444 -0.593,0.296 -0.593,0.741 0,1.334 0.594,0.593 1.038,0.445 1.335,-0.445 z m -65.398,5.784 c 0.89,0.296 1.335,0 1.335,-0.89 0,-0.89 -0.297,-1.335 -0.89,-1.335 0,1.187 -0.148,1.928 -0.445,2.225 z m 141.473,20.464 c 0.297,0 0.89,0.445 1.78,1.335 0,-0.593 0.148,-1.038 0.444,-1.335 0.297,-0.296 0.445,-0.593 0.445,-0.889 -1.483,0 -2.372,0.296 -2.669,0.889 z m -2.669,4.894 c 2.966,2.966 3.559,4.449 1.779,4.449 l 3.114,-7.563 c -0.889,0.297 -1.779,0.297 -2.669,0 -0.593,2.076 -1.335,3.114 -2.224,3.114 z m -78.745,2.225 c 0.89,0 1.335,-0.297 1.335,-0.89 -0.89,0 -1.335,0.296 -1.335,0.89 z m 1.335,1.779 c -0.593,0 -0.89,0.148 -0.89,0.445 0.593,0 0.89,-0.148 0.89,-0.445 z m 74.74,12.012 c 0.89,-7.711 1.632,-11.419 2.225,-11.122 -1.187,7.711 -1.928,11.418 -2.225,11.122 z m -73.405,-3.114 c -0.593,-0.89 -0.89,-2.225 -0.89,-4.004 0,-1.78 -0.297,-2.966 -0.89,-3.559 -1.186,5.931 -0.593,8.452 1.78,7.563 z m -76.965,-2.67 c -0.593,-2.076 -0.742,-3.114 -0.445,-3.114 0,2.076 0.148,3.114 0.445,3.114 z m 75.63,5.784 1.335,0.445 c 0,-1.187 -0.445,-1.631 -1.335,-1.335 z m 70.292,5.783 c 0.296,0.297 0.296,0.89 0,1.78 l -1.78,-0.445 c -0.89,2.966 -1.038,4.449 -0.445,4.449 l -4.449,10.232 c 2.076,-1.186 4.004,-4.004 5.784,-8.453 1.779,-4.745 3.411,-7.711 4.894,-8.897 0,-1.483 -0.594,-2.225 -1.78,-2.225 -0.297,0 -0.741,0.297 -1.335,0.89 -0.296,0.593 -0.741,1.038 -1.334,1.335 z m -68.512,4.449 c -0.89,-4.449 -1.483,-6.821 -1.78,-7.118 0.89,4.449 1.483,6.822 1.78,7.118 z m -0.445,6.229 c 0.889,0.296 1.334,-0.445 1.334,-2.225 0,-1.483 -0.296,-2.373 -0.889,-2.669 -0.297,0.89 -0.297,1.779 0,2.669 0,1.186 -0.149,1.928 -0.445,2.225 z m 54.72,0 c 0,4.152 -0.741,5.19 -2.224,3.114 0.89,1.483 1.038,2.966 0.445,4.449 -0.593,1.779 -0.89,3.114 -0.89,4.004 2.966,-4.449 4.894,-8.453 5.784,-12.012 -0.594,-0.297 -1.187,-0.297 -1.78,0 z m -53.386,1.334 c -0.593,0 -0.889,0.149 -0.889,0.445 0.593,-0.593 0.889,-0.741 0.889,-0.445 z m -1.334,12.012 c 1.186,-2.966 0.445,-6.673 -2.225,-11.122 0.593,6.228 1.335,9.936 2.225,11.122 z m 61.394,-7.563 c 1.186,3.263 1.186,4.597 0,4.004 z m -60.505,1.78 1.335,0.444 c -0.593,-1.186 -1.038,-1.779 -1.335,-1.779 z m 56.501,11.567 c 0.593,-0.297 0.889,-1.039 0.889,-2.225 0,-0.89 0.445,-1.483 1.335,-1.779 0,-2.077 -0.148,-3.559 -0.445,-4.449 -3.855,0.593 -5.042,2.521 -3.559,5.783 0,-0.593 0.297,-0.89 0.89,-0.89 z m -52.052,1.779 c -0.593,-0.296 -0.889,-0.593 -0.889,-0.89 -0.297,-0.593 -0.594,-0.889 -0.89,-0.889 -0.297,0.593 -0.149,1.186 0.445,1.779 0.296,0.593 0.741,0.593 1.334,0 z m 45.378,3.114 c -0.296,-0.296 -0.444,-0.148 -0.444,0.445 -0.89,0.297 -1.483,0.742 -1.78,1.335 -0.593,0.89 -0.297,1.483 0.89,1.779 l 1.334,-3.559 c 3.559,-0.89 4.301,-2.372 2.225,-4.449 0,0.594 -0.297,1.335 -0.89,2.225 z m -3.114,3.114 c -0.593,0 -0.89,0.149 -0.89,0.445 0.594,0 0.89,-0.148 0.89,-0.445 z m 48.048,-115.669 c 0.296,0.296 0.444,0.593 0.444,0.89 0.594,-0.297 0.297,-0.742 -0.889,-1.335 z m -22.689,49.382 c 0,-0.297 0.444,-0.445 1.334,-0.445 0,0.297 -0.445,0.445 -1.334,0.445 z m -8.453,22.244 c 0,-0.297 0.445,-0.445 1.334,-0.445 0,0.297 -0.444,0.445 -1.334,0.445 z m -8.008,32.476 c 0,-1.186 0.445,-1.779 1.335,-1.779 0,0.593 -0.445,1.186 -1.335,1.779 z"
     fill="#fcf9f8"
     id="path134" />
</svg>
