<?xml version="1.0" encoding="UTF-8" standalone="no"?>
<!-- Generator: Adobe Illustrator 24.3.0, SVG Export Plug-In . SVG Version: 6.00 Build 0)  -->

<svg
   version="1.1"
   id="Vrstva_1"
   x="0px"
   y="0px"
   viewBox="0 0 344.39999 89.539997"
   xml:space="preserve"
   sodipodi:docname="pipetali_logo_horizontal_RGB.svg"
   width="344.39999"
   height="89.540001"
   inkscape:version="1.1 (c4e8f9e, 2021-05-24)"
   xmlns:inkscape="http://www.inkscape.org/namespaces/inkscape"
   xmlns:sodipodi="http://sodipodi.sourceforge.net/DTD/sodipodi-0.dtd"
   xmlns="http://www.w3.org/2000/svg"
   xmlns:svg="http://www.w3.org/2000/svg"><defs
   id="defs46" /><sodipodi:namedview
   id="namedview44"
   pagecolor="#ffffff"
   bordercolor="#666666"
   borderopacity="1.0"
   inkscape:pageshadow="2"
   inkscape:pageopacity="0.0"
   inkscape:pagecheckerboard="0"
   showgrid="false"
   fit-margin-top="0"
   fit-margin-left="0"
   fit-margin-right="0"
   fit-margin-bottom="0"
   inkscape:zoom="0.83994087"
   inkscape:cx="173.82176"
   inkscape:cy="45.24128"
   inkscape:window-width="1382"
   inkscape:window-height="847"
   inkscape:window-x="58"
   inkscape:window-y="25"
   inkscape:window-maximized="1"
   inkscape:current-layer="Vrstva_1" />
<style
   type="text/css"
   id="style9">
	.st0{fill:#1A1A18;}
	.st1{fill:#462482;}
	.st2{fill:#FFFFFF;}
</style>
<g
   id="g41"
   transform="translate(-248.74,-252.87)">
	<g
   id="g27">
		<path
   class="st0"
   d="m 386.11,282.96 h 8.79 l 0.77,3.35 h 0.28 c 2.65,-2.44 6.14,-4.19 9.7,-4.19 8.37,0 13.53,6.91 13.53,17.58 0,11.93 -7.04,18.77 -14.51,18.77 -3,0 -5.72,-1.25 -8.16,-3.56 l 0.35,5.37 v 10.05 h -10.74 v -47.37 z m 21.98,16.89 c 0,-6.07 -1.81,-8.93 -5.65,-8.93 -2.02,0 -3.7,0.91 -5.58,2.93 v 13.74 c 1.74,1.53 3.56,2.02 5.23,2.02 3.35,0 6,-2.72 6,-9.76 z"
   id="path11" />
		<path
   class="st0"
   d="m 421.63,272.5 c 0,-3.35 2.51,-5.51 6.07,-5.51 3.56,0 6.07,2.16 6.07,5.51 0,3.42 -2.51,5.58 -6.07,5.58 -3.56,0 -6.07,-2.16 -6.07,-5.58 z m 0.7,10.46 h 10.74 v 34.67 h -10.74 z"
   id="path13" />
		<path
   class="st0"
   d="m 437.81,282.96 h 8.79 l 0.77,3.35 h 0.28 c 2.65,-2.44 6.14,-4.19 9.7,-4.19 8.37,0 13.54,6.91 13.54,17.58 0,11.93 -7.05,18.77 -14.51,18.77 -3,0 -5.72,-1.25 -8.16,-3.56 l 0.35,5.37 v 10.05 h -10.74 v -47.37 z m 21.98,16.89 c 0,-6.07 -1.81,-8.93 -5.65,-8.93 -2.02,0 -3.7,0.91 -5.58,2.93 v 13.74 c 1.74,1.53 3.56,2.02 5.23,2.02 3.34,0 6,-2.72 6,-9.76 z"
   id="path15" />
		<path
   class="st0"
   d="m 472.14,300.27 c 0,-11.23 8.09,-18.14 16.4,-18.14 10.05,0 14.93,7.26 14.93,16.68 0,1.95 -0.21,3.77 -0.42,4.74 h -20.44 c 0.98,4.68 4.26,6.7 8.65,6.7 2.51,0 5.02,-0.77 7.46,-2.16 l 3.49,6.49 c -3.63,2.58 -8.37,3.91 -12.49,3.91 -9.9,-0.02 -17.58,-6.64 -17.58,-18.22 z m 22.12,-3.98 c 0,-3.42 -1.53,-6 -5.44,-6 -3.07,0 -5.65,1.95 -6.35,6 z"
   id="path17" />
		<path
   class="st0"
   d="m 508.14,304.8 v -13.39 h -4.67 v -8.09 l 5.3,-0.35 1.26,-10.6 h 8.93 v 10.6 h 8.16 v 8.44 h -8.16 v 13.25 c 0,3.91 1.81,5.37 4.39,5.37 1.12,0 2.3,-0.14 3.21,-0.49 l 1.67,7.53 c -1.81,0.7 -4.46,1.4 -7.88,1.4 -8.65,0 -12.21,-5.51 -12.21,-13.67 z"
   id="path19" />
		<path
   class="st0"
   d="m 528.08,307.94 c 0,-7.33 5.65,-11.3 19.32,-12.7 -0.28,-2.86 -1.74,-4.54 -5.3,-4.54 -2.79,0 -5.58,0.98 -9.07,2.93 l -3.77,-6.98 c 4.54,-2.79 9.49,-4.54 14.93,-4.54 8.93,0 13.95,4.95 13.95,15.84 v 19.67 h -8.79 l -0.77,-3.49 h -0.28 c -2.86,2.58 -6,4.33 -9.91,4.33 -6.33,0.01 -10.31,-4.73 -10.31,-10.52 z m 19.33,-0.56 v -5.51 c -6.91,0.91 -9,2.79 -9,5.23 0,2.02 1.33,3 3.7,3 2.16,0 3.62,-1.04 5.3,-2.72 z"
   id="path21" />
		<path
   class="st0"
   d="m 561.84,272.5 c 0,-3.35 2.51,-5.51 6.07,-5.51 3.56,0 6.07,2.16 6.07,5.51 0,3.42 -2.51,5.58 -6.07,5.58 -3.56,0 -6.07,-2.16 -6.07,-5.58 z m 0.7,10.46 h 10.74 v 34.67 h -10.74 z"
   id="path23" />
		<path
   class="st0"
   d="m 577.94,306.4 v -37.53 h 10.74 v 37.95 c 0,2.23 1.12,2.93 1.95,2.93 0.42,0 0.7,0 1.25,-0.14 l 1.26,7.95 c -1.19,0.49 -3,0.91 -5.37,0.91 -7.39,0 -9.83,-4.81 -9.83,-12.07 z"
   id="path25" />
	</g>
	<g
   id="g39">
		<path
   class="st1"
   d="m 276.03,252.87 h -0.78 -18.41 c -4.47,0 -8.1,3.63 -8.1,8.1 v 73.34 c 0,4.47 3.63,8.1 8.1,8.1 h 18.41 0.78 87.32 v -89.54 z"
   id="path29" />
		<g
   id="g37">
			<g
   id="g33">
				<path
   class="st2"
   d="m 322.08,330.85 -13.87,-13.23 0.01,-19.81 h 25.56 c 3.06,0 4.6,-1.6 4.6,-4.81 v -2.27 h -30.16 v -11.75 h 43.96 v 18.3 c 0,1.96 -0.29,3.7 -0.89,5.21 -0.59,1.51 -1.43,2.79 -2.53,3.84 -1.1,1.05 -2.39,1.85 -3.88,2.4 -1.49,0.56 -3.11,0.83 -4.86,0.83 h -17.94 z"
   id="path31" />
			</g>
			<rect
   x="286.42001"
   y="278.98001"
   class="st2"
   width="18.33"
   height="11.75"
   id="rect35" />
		</g>
	</g>
</g>
</svg>
