<svg xmlns:dc="http://purl.org/dc/elements/1.1/" xmlns:cc="http://creativecommons.org/ns#" xmlns:rdf="http://www.w3.org/1999/02/22-rdf-syntax-ns#" xmlns:svg="http://www.w3.org/2000/svg" xmlns="http://www.w3.org/2000/svg" width="200" id="svg4400" version="1.1" viewBox="32.27 213.57 435.47 72.87">
<defs id="defs4402"></defs>
<metadata id="metadata4405">
<rdf:rdf>
<cc:work rdf:about="">
<dc:format>image/svg+xml</dc:format>
<dc:type rdf:resource="http://purl.org/dc/dcmitype/StillImage"></dc:type>
<dc:title></dc:title>
</cc:work>
</rdf:rdf>
</metadata>
<path id="path4146" style="fill:#ffffff;fill-opacity:1;fill-rule:nonzero;stroke:none" d="m 500,500.00001 -499.999988992603,0 0,-500.0000039926027 L 500,6.0073973e-6 500,500.00001 Z"></path>
<path d="m 66.008113,241.69817 c 0,-4.60098 -1.034541,-8.28511 -3.100988,-11.0515 -2.067325,-2.76814 -5.13494,-4.15309 -9.202846,-4.15309 -1.334013,0 -2.56791,0.0501 -3.700811,0.1493 -1.133779,0.10012 -2.068203,0.21867 -2.800637,0.35041 l 0,26.90948 c 0.932667,0.59894 2.151634,1.1004 3.65163,1.49911 1.499997,0.39871 3.015801,0.59983 4.550926,0.59983 7.06702,0 10.602726,-4.76697 10.602726,-14.30354 m 15.204588,-0.40135 c 0,4.06967 -0.499706,7.77048 -1.500874,11.10331 -0.999412,3.33635 -2.466915,6.20286 -4.400751,8.60303 -1.934714,2.40105 -4.335762,4.26902 -7.201387,5.60303 -2.869139,1.33226 -6.169482,2.00234 -9.903665,2.00234 -2.068203,0 -4.001161,-0.20463 -5.802386,-0.60334 -1.800347,-0.39783 -3.533949,-0.96516 -5.200807,-1.69847 l 0,19.80468 -14.904238,0 0,-69.32037 c 1.332257,-0.39871 2.865626,-0.78249 4.600984,-1.15047 1.734481,-0.36534 3.550636,-0.68413 5.451099,-0.95111 1.902221,-0.26522 3.8343,-0.48302 5.801509,-0.64988 1.967208,-0.16598 3.851864,-0.24941 5.652211,-0.24941 4.334005,0 8.202556,0.64988 11.603016,1.94876 3.401338,1.30328 6.26872,3.137 8.603023,5.5038 2.333426,2.36592 4.117965,5.25086 5.351861,8.65132 1.233018,3.40134 1.850405,7.20315 1.850405,11.40278" style="fill:#232f36;fill-opacity:1;fill-rule:nonzero;stroke:none" id="path4158-3"></path>
<path d="m 132.34361,214.99059 c -3.00878,10.13727 -6.15016,19.63871 -9.42592,28.50784 -3.27663,8.87 -6.85449,17.47302 -10.73182,25.80731 -1.40251,3.00175 -2.80503,5.55385 -4.20666,7.65103 -1.40428,2.10158 -2.94116,3.83606 -4.60889,5.20345 -1.67037,1.3665 -3.555908,2.36767 -5.660118,3.00262 -2.10421,0.62881 -4.557073,0.94848 -7.361223,0.94848 -2.338695,0 -4.493842,-0.21516 -6.463685,-0.65076 -1.968965,-0.43384 -3.588399,-0.91686 -4.856545,-1.45082 l 2.599525,-11.90161 c 1.535125,0.53045 2.903389,0.90018 4.103034,1.10041 1.200524,0.20023 2.469549,0.29947 3.804441,0.29947 2.667148,0 4.717787,-0.71838 6.153673,-2.149 1.43413,-1.43588 2.653097,-3.42066 3.654265,-5.95344 -3.403973,-6.66831 -6.807067,-14.15336 -10.210162,-22.45691 -3.402217,-8.30355 -6.605078,-17.62057 -9.60507,-27.95807 l 15.803533,0 c 0.67008,2.60128 1.457841,5.41861 2.361528,8.45285 0.904564,3.03512 1.860066,6.10186 2.864744,9.20285 1.00381,3.09923 2.02517,6.11766 3.06235,9.05179 1.03805,2.935 2.0278,5.60127 2.96574,8.00144 0.86944,-2.40017 1.77312,-5.06644 2.71106,-8.00144 0.93794,-2.93413 1.85919,-5.95256 2.762,-9.05179 0.90368,-3.10099 1.77487,-6.16773 2.61182,-9.20285 0.83694,-3.03424 1.58957,-5.85157 2.25965,-8.45285 l 15.41273,0 z" style="fill:#232f36;fill-opacity:1;fill-rule:nonzero;stroke:none" id="path4162-6"></path>
<path d="m 155.17815,267.60736 c -3.41363,-6.66919 -6.87908,-14.47216 -10.39195,-23.40803 -3.51375,-8.93674 -6.84483,-18.67267 -9.98885,-29.20865 l 15.80441,0 c 0.66832,2.60128 1.45696,5.41861 2.36153,8.45285 0.90368,3.03512 1.84074,6.10186 2.81381,9.20197 0.97043,3.10011 1.94086,6.11854 2.91393,9.05267 0.9713,2.935 1.92593,5.60127 2.86386,8.00144 0.86856,-2.40017 1.8065,-5.06644 2.80942,-8.00144 1.00468,-2.93413 1.99268,-5.95256 2.96223,-9.05267 0.97043,-3.10011 1.90837,-6.16685 2.81206,-9.20197 0.9028,-3.03424 1.69144,-5.85157 2.36065,-8.45285 l 15.41272,0 c -3.14402,10.53598 -6.47246,20.27191 -9.98182,29.20865 -3.51024,8.93587 -6.97218,16.73884 -10.38317,23.40803 l -12.36883,0 z" style="fill:#232f36;fill-opacity:1;fill-rule:nonzero;stroke:none" id="path4166-7"></path>
<path d="m 225.48012,235.99572 c -0.0677,-1.26375 -0.28718,-2.4994 -0.6534,-3.69905 -0.36797,-1.20052 -0.93354,-2.26931 -1.69935,-3.20198 -0.76756,-0.93267 -1.73535,-1.70287 -2.89987,-2.30093 -1.16891,-0.60158 -2.61885,-0.90106 -4.35333,-0.90106 -1.66686,0 -3.10011,0.28543 -4.29976,0.85012 -1.20052,0.56733 -2.20169,1.31908 -3.00087,2.25175 -0.80093,0.93355 -1.41832,2.01727 -1.85128,3.25029 -0.43472,1.23653 -0.74999,2.48711 -0.94936,3.75086 l 19.70722,0 z m -35.01191,5.70227 c 0,-4.66685 0.71574,-8.75232 2.14987,-12.25202 1.43325,-3.50321 3.31703,-6.41977 5.65221,-8.75407 2.33254,-2.33431 5.01726,-4.1004 8.05238,-5.30093 3.03336,-1.20052 6.15104,-1.8021 9.35302,-1.8021 7.46749,0 13.36911,2.28425 17.70312,6.85361 4.33313,4.56674 6.50145,11.28774 6.50145,20.15511 0,0.86768 -0.0316,1.81879 -0.0992,2.85069 -0.0676,1.03454 -0.13612,1.94965 -0.19935,2.75146 l -33.80877,0 c 0.33285,3.06762 1.7661,5.50204 4.30152,7.3015 2.53365,1.80123 5.93412,2.70316 10.20226,2.70316 2.73476,0 5.41861,-0.25205 8.05414,-0.75263 2.63113,-0.50059 4.78102,-1.11446 6.45139,-1.85041 l 1.99707,12.1036 c -0.79743,0.40223 -1.86535,0.80181 -3.19672,1.19877 -1.33577,0.40398 -2.81908,0.75088 -4.45432,1.05386 -1.63525,0.29859 -3.38465,0.55064 -5.25087,0.75 -1.86709,0.19848 -3.73506,0.29859 -5.60127,0.29859 -4.73535,0 -8.85244,-0.70169 -12.35389,-2.10245 -3.50058,-1.39725 -6.40133,-3.31527 -8.70139,-5.75057 -2.30093,-2.43442 -4.00204,-5.31673 -5.10244,-8.65221 -1.10041,-3.33459 -1.65017,-6.93616 -1.65017,-10.80296" style="fill:#232f36;fill-opacity:1;fill-rule:nonzero;stroke:none" id="path4170-5"></path>
<path d="m 247.43136,241.29682 c 0,-3.80092 0.61651,-7.38405 1.84952,-10.75026 1.23478,-3.36972 3.01755,-6.30385 5.35362,-8.80502 2.33255,-2.49853 5.1648,-4.48418 8.50203,-5.95168 3.33284,-1.46575 7.13464,-2.20081 11.40366,-2.20081 2.80064,0 5.36679,0.25029 7.70109,0.75175 2.33431,0.49971 4.60011,1.21721 6.8018,2.15076 l -3.10011,11.90161 c -1.40163,-0.53308 -2.93676,-1.00117 -4.6001,-1.39988 -1.6695,-0.39871 -3.53747,-0.59983 -5.60216,-0.59983 -4.4025,0 -7.68792,1.36739 -9.85448,4.10128 -2.16832,2.7339 -3.25028,6.33547 -3.25028,10.80208 0,4.73623 1.01522,8.40279 3.05092,11.0032 2.03308,2.60128 5.58371,3.90455 10.65278,3.90455 1.80036,0 3.73419,-0.16861 5.80152,-0.50409 2.06556,-0.33109 3.96778,-0.86505 5.70139,-1.59836 l 2.10245,12.20547 c -1.73711,0.73244 -3.90192,1.363 -6.50408,1.89696 -2.59953,0.53483 -5.46779,0.80181 -8.60215,0.80181 -4.79946,0 -8.93674,-0.71838 -12.40395,-2.14988 -3.4672,-1.43413 -6.31702,-3.38377 -8.55209,-5.85332 -2.23507,-2.46692 -3.86767,-5.38348 -4.90045,-8.74969 -1.03455,-3.36972 -1.55094,-7.01959 -1.55094,-10.95665" style="fill:#232f36;fill-opacity:1;fill-rule:nonzero;stroke:none" id="path4174-3"></path>
<path d="m 314.80411,259.70418 c 0,2.99999 -0.95111,5.28512 -2.85069,6.8501 -1.89959,1.56587 -4.05035,2.35187 -6.45139,2.35187 -2.40193,0 -4.55093,-0.786 -6.45227,-2.35187 -1.90134,-1.56498 -2.85245,-3.85011 -2.85245,-6.8501 0,-3.00263 0.95111,-5.28599 2.85245,-6.85449 1.90134,-1.56498 4.05034,-2.34835 6.45227,-2.34835 2.40104,0 4.5518,0.78337 6.45139,2.34835 1.89958,1.5685 2.85069,3.85186 2.85069,6.85449" style="fill:#00a8f8;fill-opacity:1;fill-rule:nonzero;stroke:none" id="path4178"></path>
<path d="m 355.81452,241.19732 c 0,-4.60011 -0.91773,-8.21661 -2.75234,-10.85214 -1.83371,-2.63378 -4.45081,-3.9511 -7.84951,-3.9511 -3.40134,0 -6.03687,1.31732 -7.90221,3.9511 -1.86884,2.63553 -2.80239,6.25203 -2.80239,10.85214 0,4.60186 0.93355,8.25173 2.80239,10.95577 1.86534,2.69876 4.50087,4.05122 7.90221,4.05122 3.3987,0 6.0158,-1.35246 7.84951,-4.05122 1.83461,-2.70404 2.75234,-6.35391 2.75234,-10.95577 m 15.20459,0 c 0,4.13728 -0.59982,7.92152 -1.80034,11.3536 -1.20053,3.43559 -2.93589,6.36972 -5.20082,8.80414 -2.26844,2.43354 -4.98651,4.31732 -8.15337,5.64957 -3.16861,1.33577 -6.71924,2.00146 -10.65191,2.00146 -3.87031,0 -7.38845,-0.66569 -10.55442,-2.00146 -3.16774,-1.33225 -5.8867,-3.21603 -8.15162,-5.64957 -2.26932,-2.43442 -4.03717,-5.36855 -5.30268,-8.80414 -1.26815,-3.43208 -1.89959,-7.21632 -1.89959,-11.3536 0,-4.13202 0.64989,-7.90221 1.94877,-11.30355 1.30239,-3.40046 3.10274,-6.30033 5.40367,-8.70138 2.30006,-2.40105 5.03307,-4.26638 8.2008,-5.60127 3.16773,-1.3349 6.61913,-2.00234 10.35507,-2.00234 3.79917,0 7.28394,0.66744 10.45167,2.00234 3.16598,1.33489 5.88494,3.20022 8.15162,5.60127 2.26669,2.40105 4.03542,5.30092 5.30268,8.70138 1.26639,3.40134 1.90047,7.17153 1.90047,11.30355" style="fill:#00a8f8;fill-opacity:1;fill-rule:nonzero;stroke:none" id="path4182"></path>
<path d="m 412.78462,228.1939 c -1.33404,-0.33373 -2.90163,-0.68062 -4.70198,-1.0486 -1.79859,-0.36709 -3.73418,-0.55064 -5.79975,-0.55064 -0.93533,0 -2.05153,0.0834 -3.35129,0.24941 -1.30328,0.16511 -2.28512,0.34866 -2.95081,0.54801 l 0,40.21536 -14.90512,0 0,-49.81691 c 2.66715,-0.93179 5.81644,-1.81528 9.45226,-2.65047 3.63495,-0.83343 7.68529,-1.2497 12.15276,-1.2497 0.80185,0 1.76698,0.05 2.90163,0.1493 1.13466,0.0992 2.26672,0.23448 3.39962,0.40046 1.13466,0.16687 2.26756,0.3671 3.4013,0.59983 1.13466,0.23536 2.10246,0.51815 2.90339,0.84923 l -2.50201,12.30472 z" style="fill:#00a8f8;fill-opacity:1;fill-rule:nonzero;stroke:none" id="path4186"></path>
<path d="m 434.99307,239.59695 c 0,8.33692 3.36533,12.50406 10.10126,12.50406 1.53513,0 2.96571,-0.19935 4.30152,-0.6007 1.33489,-0.39959 2.46695,-0.86504 3.40137,-1.40076 l 0,-23.80497 c -0.73335,-0.13437 -1.60103,-0.25029 -2.60128,-0.35217 -0.99857,-0.0992 -2.16744,-0.1493 -3.50058,-0.1493 -3.93442,0 -6.86858,1.29977 -8.8015,3.90281 -1.93559,2.6004 -2.90079,5.89986 -2.90079,9.90103 m 32.70835,21.40656 c 0,8.60566 -2.185,14.98855 -6.5515,19.15569 -4.3691,4.16627 -11.12,6.25203 -20.25614,6.25203 -3.20191,0 -6.40129,-0.28454 -9.60236,-0.85099 -3.19939,-0.56557 -6.16952,-1.31557 -8.90429,-2.24912 l 2.60219,-12.50319 c 2.33431,0.93443 4.78447,1.66335 7.35238,2.20082 2.56531,0.53044 5.4845,0.7983 8.75147,0.7983 4.26899,0 7.28661,-0.93267 9.05267,-2.79976 1.76698,-1.86973 2.65131,-4.26638 2.65131,-7.20314 l 0,-1.89959 c -1.60096,0.73331 -3.25116,1.28396 -4.95224,1.65193 -1.70023,0.36534 -3.54975,0.54976 -5.54949,0.54976 -7.27073,0 -12.83948,-2.15339 -16.70631,-6.45402 -3.86683,-4.30063 -5.80066,-10.31818 -5.80066,-18.05528 0,-3.8668 0.59894,-7.38406 1.7995,-10.55443 1.20049,-3.16597 2.95081,-5.8823 5.25174,-8.14898 2.30002,-2.26932 5.11735,-4.01961 8.45289,-5.25263 3.33371,-1.23477 7.10296,-1.85128 11.30351,-1.85128 1.80034,0 3.65163,0.0843 5.55125,0.24942 1.89955,0.16773 3.78505,0.38553 5.65214,0.65075 1.86625,0.2661 3.64987,0.58578 5.35193,0.95111 1.69932,0.36798 3.21603,0.75088 4.55001,1.14959 l 0,44.21301 z" style="fill:#00a8f8;fill-opacity:1;fill-rule:nonzero;stroke:none" id="path4190"></path>
</svg>
