<svg xmlns="http://www.w3.org/2000/svg" id="Layer_1" x="0" y="0" version="1.1" viewBox="0 0 1190 450" xml:space="preserve">
  <path id="path873" fill="#00b4cd" fill-opacity="1" stroke-width="1" d="M493 199.8a72.6 72.6 0 00-14.3-18.2c-10-9.6-23-17.7-38.2-24.9a307.4 307.4 0 00-42.7-15.8 254.4 254.4 0 008.5-60.4c0-14.9-1.9-28.8-6.4-40.6A54.4 54.4 0 00376.3 11c-4-2.3-8.5-4.3-13-5.2-4.5-1-9-1.6-13.6-1.6-7.5 0-15.2 1.3-22.7 3.5-13.3 4.3-27 11.3-40.5 21a264.4 264.4 0 00-34 28.5c-1.3-1.4-2.9-2.7-4.2-3.8-16.2-15-32-26.8-47.3-35.3-7.7-4.2-15.5-7.8-23-10a83 83 0 00-22.6-3.5 54.8 54.8 0 00-26.6 6.7 50 50 0 00-14.2 12.4c-5.9 7.4-9.7 16-12.3 25.9-2.6 9.6-3.5 20-3.5 31.3 0 13.3 1.6 27.5 4.5 42.2 1 5.9 2.6 12 4 18.2l-6.5 1.9c-26.9 8.3-49.6 19-66.7 32a85.2 85.2 0 00-20.8 22.3A53.4 53.4 0 005 225.4c0 8.7 2.6 17.4 6.4 24.8a72.6 72.6 0 0014.2 18.2c10.1 9.6 23 17.7 38.2 24.9a307.3 307.3 0 0042.7 15.8 254.4 254.4 0 00-8.5 60.4c0 14.9 2 28.8 6.5 40.6A54.4 54.4 0 00128 439c3.9 2.3 8.4 4.3 13 5.2 4.5 1 9 1.6 13.6 1.6 7.4 0 15.2-1.3 22.6-3.5 13.4-4.3 27-11.3 40.6-21a264.4 264.4 0 0034-28.5c1.2 1.4 2.8 2.7 4.2 4 16.2 15 32 26.8 47.2 35.2 7.8 4.3 15.5 7.8 23 10a83 83 0 0022.7 3.5 54.8 54.8 0 0026.6-6.7 50 50 0 0014.2-12.3c5.8-7.5 9.6-16.1 12.3-26 2.6-9.7 3.5-20 3.5-31.2 0-13.3-1.6-27.5-4.6-42.3-1-5.9-2.6-12-4-18.1 2.3-.6 4.6-1.4 6.5-2 27-8.3 49.6-19 66.7-32a85.2 85.2 0 0020.8-22.2 53.4 53.4 0 008.3-27.8c.5-8.8-2.1-17.3-6.4-25zM318.3 44.7a87 87 0 0117.1-7.5 45.1 45.1 0 0119.7-1.6c2 .3 3.3 1 4.9 2 1.9 1.2 4 2.5 5.5 4.7 2.7 3.3 4.9 7.8 6.5 14.2a97 97 0 012.6 23.6c0 10.7-1.3 23.2-4 36.9l-3.5 16.5-10-2c-15.3-2.8-31.2-4.7-47.6-6.4-11.7-16.5-24-32-36.3-45.5 1.3-1.3 2.7-2.6 4-3.5a221.8 221.8 0 0141-31.4zM349 188.5c-2.6-4.8-5.6-10-8.5-15l-13.6 7.8 13.6-7.7-8.8-15c2.7.3 5.2.6 7.8 1.4l18.7 3.2c-2.2 7.2-4.8 14.2-7.7 21.3-.2 1.4-.8 2.7-1.5 4zm0 72.7c3.5 8.8 6.4 17.1 9.4 25.2-2.2.3-4.6 1-7.2 1.3-6.4 1.3-13 2.2-19.5 3.2 3-4.8 5.9-9.6 8.8-15 3-4.6 5.9-9.9 8.5-14.7zm-35.3-.6c-6.7 12-14.1 23.6-21.3 34.3-13.3 1-27 1.3-40.5 1.3-14 0-27.5-.6-40.6-1.3a467 467 0 01-21.3-34.3c-6.8-12-13.3-23.8-19.2-35.8a609.9 609.9 0 0140.5-70.1c13.3-1 27-1.3 40.6-1.3 13.9 0 27.5.6 40.5 1.3a467 467 0 0121.3 34.2c6.8 12 13.4 23.9 19.2 35.9-5.8 11.8-12 23.8-19.2 35.8zM252 347.8l-5.2-5.8c-4-4.9-8-9.7-12-15 5.9 0 11.3.3 17.2.3 5.8 0 11.7 0 17-.3a567.4 567.4 0 01-17 20.8zm-97.5-86.6l8.5 15 8.8 14.9c-2.6-.3-5.1-.6-7.8-1.4l-18.7-3.2c2.2-7.1 4.8-14.2 7.8-21.3.4-1.4.7-2.7 1.4-4zm8.4-87.5c-3 4.8-5.9 10-8.5 15-3.5-8.8-6.5-17.2-9.4-25.2 2.2-.3 4.5-1 7.2-1.3 6.4-1.4 13-2.2 19.4-3.3-2.9 4.7-5.8 9.6-8.7 14.8zm89-71.8c1.7 1.9 3.6 3.8 5.2 5.8 4 4.9 8 9.7 12 15-5.9 0-11.3-.3-17.1-.3-5.9 0-11.7 0-17.2.3 5.5-7.5 11.3-14.4 17.2-20.8zM132.8 117c-2.6-13.6-4-25.9-4-36.9a80 80 0 014.6-29.4c1.3-3.5 3-6.4 4.5-8.3a19.2 19.2 0 0110.4-6.7 39.8 39.8 0 0119.8 1.6c9 2.9 20 8.3 32 16.8 9.7 6.7 19.8 15.2 30.5 25.2-2.7 2.6-4.9 5.5-7.5 8.3a496 496 0 00-28.8 37.2 519.7 519.7 0 00-57.6 8.8c-1.5-6-2.9-11.5-3.9-16.6zM52.1 250.2a57.6 57.6 0 01-13.3-13.9 38.3 38.3 0 01-3-6.1c-.5-2-1-3.5-1-5.6 0-3.2.6-6.4 3-10 1.6-3.1 4.5-6.6 8.5-10.6 6.7-6.4 17-13.3 30.1-19.5a239 239 0 0138.2-13.9c2.6 8.4 5.8 16.9 9 25.5A425 425 0 00136 225a483.2 483.2 0 00-21.3 54.3l-6.2-1.9c-24.3-7.6-44-17.1-56.3-27zM185.2 405a87 87 0 01-17 7.5 45.1 45.1 0 01-19.8 1.6c-2-.3-3.2-1-4.9-2-1.9-1.2-3.9-2.5-5.5-4.7a35.7 35.7 0 01-6.4-14.2 97 97 0 01-2.7-23.6c0-10.7 1.3-23.2 4-36.8l3.5-16.6 10 2c15.3 2.8 31.2 4.7 47.6 6.4 11.7 16.5 24 32 36.3 45.5a28.4 28.4 0 01-4 3.5 211.1 211.1 0 01-41 31.4zm186-72.4c2.6 13.6 4 25.9 4 36.9a80 80 0 01-4.6 29.4c-1.3 3.5-3 6.4-4.5 8.3a19.2 19.2 0 01-10.4 6.8 39.8 39.8 0 01-19.8-1.7c-9-2.9-20-8.3-32-16.8a283.9 283.9 0 01-30.4-25.1c2.6-2.7 4.8-5.6 7.4-8.4a496 496 0 0028.8-37.1 519.6 519.6 0 0057.6-8.8c1.6 5.8 2.9 11.4 3.9 16.5zm94.5-97.6a44.7 44.7 0 01-8.5 10.7 116.6 116.6 0 01-30.1 19.5 239 239 0 01-38.2 13.9c-2.6-8.4-5.9-16.9-9-25.5a425 425 0 00-12.4-28.8 483.2 483.2 0 0021.4-54.3l6.1 1.9c24.6 7.5 44 17.1 56.7 26.8A57.6 57.6 0 01465 213c1.3 2.2 2.2 4.2 2.9 6.1.6 2 1 3.5 1 5.6-.3 3.2-1.3 6.4-3.2 10.2zm631.5 109.5l22.7-8c3.8 11.7 10.6 16.9 23.1 16.9 9.5 0 16.8-3.7 16.8-9.7 0-5.6-5.2-8.3-21.5-11.8-20.9-4.5-34.7-14.5-34.7-32.7 0-18.2 17.8-29.5 36.4-29.5 19.5 0 32.3 9 40 23l-18 12.4a23.3 23.3 0 00-21.8-14c-6.8 0-13.3 3.4-13.3 8.7 0 4.7 3.3 8.4 18.6 11.5 23.8 4.7 37.6 12.2 37.6 30.8 0 21-18.6 32.7-41.1 32.7-20.3.4-37.1-7.8-44.8-30.3zm-109.8-9.6v-81.7h-26.2v-21.5h51.3v97.8c0 17.6 7.5 21.3 15.5 21.3 10.6 0 15.3-7.3 17.1-17.2l22.1 4.5c-3.7 24.8-18.3 37-39 37-23.7.1-40.8-14.5-40.8-40.2zm-145.3-63.4h25.4V287a42.5 42.5 0 0135.3-17.2c18.3 0 30.8 12.2 32 35H910c-.4-11.6-6.5-14.6-13-14.6-16.3 0-29.5 21-29.5 52v31.2H842zm-124 80.4h31.6v-59h-26.3v-21.4h51.8V352h31.6v21.5h-88.7zm26.8-110c0-9 7-16.3 16.3-16.3a16 16 0 0116.3 16.3c0 9-7 16.3-16.3 16.3A16 16 0 01745 242zM591.6 382.7a27 27 0 018.2-20.3 23.7 23.7 0 01-5.2-15.7c0-9.7 5-17 12.6-21.5-4.5-5.5-7-12.4-7-21 0-21.3 16.7-34.5 37.6-34.5 7 0 13.2 1.4 18.7 4.5l19.3-10.3 10 16.5-14.4 7.2c2.7 4.8 4 10.3 4 16.3 0 21.5-16.8 34-37.6 34-5.3 0-10.3-.8-14.9-2.3a8.7 8.7 0 00-4.7 7.7c0 4.8 3.5 7.5 9.5 7.5h20.8c21.5 0 35.9 10.3 35.9 30 0 25.2-23.8 35.2-46.6 35.2-25.9.4-46.2-10.8-46.2-33.3zm67.7 0c0-8.5-7-10.5-16.6-10.5H629c-4.3 0-8-.3-11.7-.8a17.9 17.9 0 00-2.3 9.3c0 9.7 9.7 14.4 23 14.4 12 .3 21.4-3.1 21.4-12.4zm-7.5-78.5c0-8.5-6-14.3-14-14.3s-14 5.8-14 14.3c0 8.2 6 13.7 14 13.7 8.2 0 14-5.5 14-13.7zm462.1-174.4V90.3h-25.3V68.8h25.3V43.3l25.4-15.7v41.2h44.6v21.5h-45v40c0 14.2 6.3 20.6 16.8 20.6 7 0 13.6-3.2 20.8-12l8.5 20.3a40 40 0 01-29.5 13.2c-26.5 0-41.6-14.2-41.6-42.6zm-147.5-10c0-28.6 17.7-52.8 49-52.8 21.1 0 36 9 44.4 28.3l-21.5 9c-5.5-12.2-12.7-15.7-22.7-15.7-14 0-24.1 11.2-24.1 31.2s10 31.3 24.1 31.3c10 0 17.3-3.6 22.7-15.8l21.5 9c-8.2 19-23 28.4-44.3 28.4-31.4-.3-49.1-24.2-49.1-53zm-120.5 21.6c0-20.2 17.7-33.5 43.5-33.5h17.1v-4.5c0-11.2-8.5-16.3-17.8-16.3-7 0-14.4 3.5-17.7 14.3l-21.3-6a39.4 39.4 0 0139-28.3c24.4 0 42 10.3 42 42.8v61H911l-2.5-13a38 38 0 01-31.5 14.4c-17.6.1-31.1-10.6-31.1-30.9zm60.6-12.2V127H888c-11.8 0-19 4.5-19 14.4 0 5.2 3.7 10.8 11.5 10.8 12.4-.2 26-8.7 26-23zm-192.4-9.5c0-24 14-52.7 49.1-52.7 34.1 0 47.7 28.3 47.7 50.4v10.3H739a25 25 0 0025.8 23c11.6 0 19.8-6.4 25-14.5l20 10.6a50.2 50.2 0 01-46.6 25.4c-35 .2-49-28.2-49-52.5zm73.1-10.7c-2.5-11-9.2-21-24-21C749 88 741 98.3 739 109zM587.8 29h51.9C668 29 683 45.9 683 69.5c0 18.7-9.3 32.7-26.6 38l39 63.7h-29.2l-38.3-61.3h-13.8V171h-26.3zm51.9 56.5c9.5 0 16.5-4.5 16.5-16 0-11.3-7-15.9-16.5-15.9H614v32h25.6z"/>
</svg>
