<?xml version="1.0" encoding="UTF-8" standalone="no"?>
<svg
   id="Layer_1"
   x="0"
   y="0"
   version="1.1"
   viewBox="0 0 1180 441.60001"
   xml:space="preserve"
   sodipodi:docname="reactgirls.svg"
   width="1180"
   height="441.60001"
   inkscape:version="1.1 (c4e8f9e, 2021-05-24)"
   xmlns:inkscape="http://www.inkscape.org/namespaces/inkscape"
   xmlns:sodipodi="http://sodipodi.sourceforge.net/DTD/sodipodi-0.dtd"
   xmlns="http://www.w3.org/2000/svg"
   xmlns:svg="http://www.w3.org/2000/svg"><defs
   id="defs6" /><sodipodi:namedview
   id="namedview4"
   pagecolor="#ffffff"
   bordercolor="#666666"
   borderopacity="1.0"
   inkscape:pageshadow="2"
   inkscape:pageopacity="0.0"
   inkscape:pagecheckerboard="0"
   showgrid="false"
   fit-margin-top="0"
   fit-margin-left="0"
   fit-margin-right="0"
   fit-margin-bottom="0"
   inkscape:zoom="0.95462185"
   inkscape:cx="304.83275"
   inkscape:cy="221.02993"
   inkscape:window-width="1382"
   inkscape:window-height="847"
   inkscape:window-x="51"
   inkscape:window-y="25"
   inkscape:window-maximized="0"
   inkscape:current-layer="Layer_1" />
  <path
   id="path873"
   fill="#00b4cd"
   fill-opacity="1"
   stroke-width="1"
   d="m 488,195.6 a 72.6,72.6 0 0 0 -14.3,-18.2 c -10,-9.6 -23,-17.7 -38.2,-24.9 a 307.4,307.4 0 0 0 -42.7,-15.8 254.4,254.4 0 0 0 8.5,-60.4 c 0,-14.9 -1.9,-28.8 -6.4,-40.6 A 54.4,54.4 0 0 0 371.3,6.8 c -4,-2.3 -8.5,-4.3 -13,-5.2 -4.5,-1 -9,-1.6 -13.6,-1.6 -7.5,0 -15.2,1.3 -22.7,3.5 -13.3,4.3 -27,11.3 -40.5,21 a 264.4,264.4 0 0 0 -34,28.5 c -1.3,-1.4 -2.9,-2.7 -4.2,-3.8 C 227.1,34.2 211.3,22.4 196,13.9 188.3,9.7 180.5,6.1 173,3.9 A 83,83 0 0 0 150.4,0.4 54.8,54.8 0 0 0 123.8,7.1 50,50 0 0 0 109.6,19.5 c -5.9,7.4 -9.7,16 -12.3,25.9 -2.6,9.6 -3.5,20 -3.5,31.3 0,13.3 1.6,27.5 4.5,42.2 1,5.9 2.6,12 4,18.2 l -6.5,1.9 c -26.9,8.3 -49.6,19 -66.7,32 A 85.2,85.2 0 0 0 8.3,193.3 53.4,53.4 0 0 0 0,221.2 c 0,8.7 2.6,17.4 6.4,24.8 a 72.6,72.6 0 0 0 14.2,18.2 c 10.1,9.6 23,17.7 38.2,24.9 a 307.3,307.3 0 0 0 42.7,15.8 254.4,254.4 0 0 0 -8.5,60.4 c 0,14.9 2,28.8 6.5,40.6 a 54.4,54.4 0 0 0 23.5,28.9 c 3.9,2.3 8.4,4.3 13,5.2 4.5,1 9,1.6 13.6,1.6 7.4,0 15.2,-1.3 22.6,-3.5 13.4,-4.3 27,-11.3 40.6,-21 a 264.4,264.4 0 0 0 34,-28.5 c 1.2,1.4 2.8,2.7 4.2,4 16.2,15 32,26.8 47.2,35.2 7.8,4.3 15.5,7.8 23,10 a 83,83 0 0 0 22.7,3.5 54.8,54.8 0 0 0 26.6,-6.7 50,50 0 0 0 14.2,-12.3 c 5.8,-7.5 9.6,-16.1 12.3,-26 2.6,-9.7 3.5,-20 3.5,-31.2 0,-13.3 -1.6,-27.5 -4.6,-42.3 -1,-5.9 -2.6,-12 -4,-18.1 2.3,-0.6 4.6,-1.4 6.5,-2 27,-8.3 49.6,-19 66.7,-32 a 85.2,85.2 0 0 0 20.8,-22.2 53.4,53.4 0 0 0 8.3,-27.8 c 0.5,-8.8 -2.1,-17.3 -6.4,-25 z M 313.3,40.5 a 87,87 0 0 1 17.1,-7.5 45.1,45.1 0 0 1 19.7,-1.6 c 2,0.3 3.3,1 4.9,2 1.9,1.2 4,2.5 5.5,4.7 2.7,3.3 4.9,7.8 6.5,14.2 a 97,97 0 0 1 2.6,23.6 c 0,10.7 -1.3,23.2 -4,36.9 l -3.5,16.5 -10,-2 c -15.3,-2.8 -31.2,-4.7 -47.6,-6.4 -11.7,-16.5 -24,-32 -36.3,-45.5 1.3,-1.3 2.7,-2.6 4,-3.5 a 221.8,221.8 0 0 1 41,-31.4 z M 344,184.3 c -2.6,-4.8 -5.6,-10 -8.5,-15 l -13.6,7.8 13.6,-7.7 -8.8,-15 c 2.7,0.3 5.2,0.6 7.8,1.4 l 18.7,3.2 c -2.2,7.2 -4.8,14.2 -7.7,21.3 -0.2,1.4 -0.8,2.7 -1.5,4 z m 0,72.7 c 3.5,8.8 6.4,17.1 9.4,25.2 -2.2,0.3 -4.6,1 -7.2,1.3 -6.4,1.3 -13,2.2 -19.5,3.2 3,-4.8 5.9,-9.6 8.8,-15 3,-4.6 5.9,-9.9 8.5,-14.7 z m -35.3,-0.6 c -6.7,12 -14.1,23.6 -21.3,34.3 -13.3,1 -27,1.3 -40.5,1.3 -14,0 -27.5,-0.6 -40.6,-1.3 A 467,467 0 0 1 185,256.4 c -6.8,-12 -13.3,-23.8 -19.2,-35.8 a 609.9,609.9 0 0 1 40.5,-70.1 c 13.3,-1 27,-1.3 40.6,-1.3 13.9,0 27.5,0.6 40.5,1.3 a 467,467 0 0 1 21.3,34.2 c 6.8,12 13.4,23.9 19.2,35.9 -5.8,11.8 -12,23.8 -19.2,35.8 z m -61.7,87.2 -5.2,-5.8 c -4,-4.9 -8,-9.7 -12,-15 5.9,0 11.3,0.3 17.2,0.3 5.8,0 11.7,0 17,-0.3 a 567.4,567.4 0 0 1 -17,20.8 z m -97.5,-86.6 8.5,15 8.8,14.9 c -2.6,-0.3 -5.1,-0.6 -7.8,-1.4 l -18.7,-3.2 c 2.2,-7.1 4.8,-14.2 7.8,-21.3 0.4,-1.4 0.7,-2.7 1.4,-4 z m 8.4,-87.5 c -3,4.8 -5.9,10 -8.5,15 -3.5,-8.8 -6.5,-17.2 -9.4,-25.2 2.2,-0.3 4.5,-1 7.2,-1.3 6.4,-1.4 13,-2.2 19.4,-3.3 -2.9,4.7 -5.8,9.6 -8.7,14.8 z m 89,-71.8 c 1.7,1.9 3.6,3.8 5.2,5.8 4,4.9 8,9.7 12,15 -5.9,0 -11.3,-0.3 -17.1,-0.3 -5.9,0 -11.7,0 -17.2,0.3 5.5,-7.5 11.3,-14.4 17.2,-20.8 z m -119.1,15.1 c -2.6,-13.6 -4,-25.9 -4,-36.9 a 80,80 0 0 1 4.6,-29.4 c 1.3,-3.5 3,-6.4 4.5,-8.3 a 19.2,19.2 0 0 1 10.4,-6.7 39.8,39.8 0 0 1 19.8,1.6 c 9,2.9 20,8.3 32,16.8 9.7,6.7 19.8,15.2 30.5,25.2 -2.7,2.6 -4.9,5.5 -7.5,8.3 a 496,496 0 0 0 -28.8,37.2 519.7,519.7 0 0 0 -57.6,8.8 c -1.5,-6 -2.9,-11.5 -3.9,-16.6 z M 47.1,246 a 57.6,57.6 0 0 1 -13.3,-13.9 38.3,38.3 0 0 1 -3,-6.1 c -0.5,-2 -1,-3.5 -1,-5.6 0,-3.2 0.6,-6.4 3,-10 1.6,-3.1 4.5,-6.6 8.5,-10.6 6.7,-6.4 17,-13.3 30.1,-19.5 a 239,239 0 0 1 38.2,-13.9 c 2.6,8.4 5.8,16.9 9,25.5 a 425,425 0 0 0 12.4,28.9 483.2,483.2 0 0 0 -21.3,54.3 l -6.2,-1.9 c -24.3,-7.6 -44,-17.1 -56.3,-27 z m 133.1,154.8 a 87,87 0 0 1 -17,7.5 45.1,45.1 0 0 1 -19.8,1.6 c -2,-0.3 -3.2,-1 -4.9,-2 -1.9,-1.2 -3.9,-2.5 -5.5,-4.7 a 35.7,35.7 0 0 1 -6.4,-14.2 97,97 0 0 1 -2.7,-23.6 c 0,-10.7 1.3,-23.2 4,-36.8 l 3.5,-16.6 10,2 c 15.3,2.8 31.2,4.7 47.6,6.4 11.7,16.5 24,32 36.3,45.5 a 28.4,28.4 0 0 1 -4,3.5 211.1,211.1 0 0 1 -41,31.4 z m 186,-72.4 c 2.6,13.6 4,25.9 4,36.9 a 80,80 0 0 1 -4.6,29.4 c -1.3,3.5 -3,6.4 -4.5,8.3 a 19.2,19.2 0 0 1 -10.4,6.8 39.8,39.8 0 0 1 -19.8,-1.7 c -9,-2.9 -20,-8.3 -32,-16.8 a 283.9,283.9 0 0 1 -30.4,-25.1 c 2.6,-2.7 4.8,-5.6 7.4,-8.4 a 496,496 0 0 0 28.8,-37.1 519.6,519.6 0 0 0 57.6,-8.8 c 1.6,5.8 2.9,11.4 3.9,16.5 z m 94.5,-97.6 a 44.7,44.7 0 0 1 -8.5,10.7 116.6,116.6 0 0 1 -30.1,19.5 239,239 0 0 1 -38.2,13.9 c -2.6,-8.4 -5.9,-16.9 -9,-25.5 a 425,425 0 0 0 -12.4,-28.8 483.2,483.2 0 0 0 21.4,-54.3 l 6.1,1.9 c 24.6,7.5 44,17.1 56.7,26.8 a 57.6,57.6 0 0 1 13.3,13.8 c 1.3,2.2 2.2,4.2 2.9,6.1 0.6,2 1,3.5 1,5.6 -0.3,3.2 -1.3,6.4 -3.2,10.2 z m 631.5,109.5 22.7,-8 c 3.8,11.7 10.6,16.9 23.1,16.9 9.5,0 16.8,-3.7 16.8,-9.7 0,-5.6 -5.2,-8.3 -21.5,-11.8 -20.9,-4.5 -34.7,-14.5 -34.7,-32.7 0,-18.2 17.8,-29.5 36.4,-29.5 19.5,0 32.3,9 40,23 l -18,12.4 a 23.3,23.3 0 0 0 -21.8,-14 c -6.8,0 -13.3,3.4 -13.3,8.7 0,4.7 3.3,8.4 18.6,11.5 23.8,4.7 37.6,12.2 37.6,30.8 0,21 -18.6,32.7 -41.1,32.7 -20.3,0.4 -37.1,-7.8 -44.8,-30.3 z M 982.4,330.7 V 249 h -26.2 v -21.5 h 51.3 v 97.8 c 0,17.6 7.5,21.3 15.5,21.3 10.6,0 15.3,-7.3 17.1,-17.2 l 22.1,4.5 c -3.7,24.8 -18.3,37 -39,37 -23.7,0.1 -40.8,-14.5 -40.8,-40.2 z M 837.1,267.3 h 25.4 v 15.5 a 42.5,42.5 0 0 1 35.3,-17.2 c 18.3,0 30.8,12.2 32,35 H 905 C 904.6,289 898.5,286 892,286 c -16.3,0 -29.5,21 -29.5,52 v 31.2 H 837 Z m -124,80.4 h 31.6 v -59 h -26.3 v -21.4 h 51.8 v 80.5 h 31.6 v 21.5 h -88.7 z m 26.8,-110 c 0,-9 7,-16.3 16.3,-16.3 a 16,16 0 0 1 16.3,16.3 c 0,9 -7,16.3 -16.3,16.3 A 16,16 0 0 1 740,237.8 Z M 586.6,378.5 a 27,27 0 0 1 8.2,-20.3 23.7,23.7 0 0 1 -5.2,-15.7 c 0,-9.7 5,-17 12.6,-21.5 -4.5,-5.5 -7,-12.4 -7,-21 0,-21.3 16.7,-34.5 37.6,-34.5 7,0 13.2,1.4 18.7,4.5 l 19.3,-10.3 10,16.5 -14.4,7.2 c 2.7,4.8 4,10.3 4,16.3 0,21.5 -16.8,34 -37.6,34 -5.3,0 -10.3,-0.8 -14.9,-2.3 a 8.7,8.7 0 0 0 -4.7,7.7 c 0,4.8 3.5,7.5 9.5,7.5 h 20.8 c 21.5,0 35.9,10.3 35.9,30 0,25.2 -23.8,35.2 -46.6,35.2 -25.9,0.4 -46.2,-10.8 -46.2,-33.3 z m 67.7,0 c 0,-8.5 -7,-10.5 -16.6,-10.5 H 624 c -4.3,0 -8,-0.3 -11.7,-0.8 a 17.9,17.9 0 0 0 -2.3,9.3 c 0,9.7 9.7,14.4 23,14.4 12,0.3 21.4,-3.1 21.4,-12.4 z M 646.8,300 c 0,-8.5 -6,-14.3 -14,-14.3 -8,0 -14,5.8 -14,14.3 0,8.2 6,13.7 14,13.7 8.2,0 14,-5.5 14,-13.7 z M 1108.9,125.6 V 86.1 h -25.3 V 64.6 h 25.3 V 39.1 l 25.4,-15.7 v 41.2 h 44.6 v 21.5 h -45 v 40 c 0,14.2 6.3,20.6 16.8,20.6 7,0 13.6,-3.2 20.8,-12 l 8.5,20.3 a 40,40 0 0 1 -29.5,13.2 c -26.5,0 -41.6,-14.2 -41.6,-42.6 z m -147.5,-10 c 0,-28.6 17.7,-52.8 49,-52.8 21.1,0 36,9 44.4,28.3 l -21.5,9 c -5.5,-12.2 -12.7,-15.7 -22.7,-15.7 -14,0 -24.1,11.2 -24.1,31.2 0,20 10,31.3 24.1,31.3 10,0 17.3,-3.6 22.7,-15.8 l 21.5,9 c -8.2,19 -23,28.4 -44.3,28.4 -31.4,-0.3 -49.1,-24.2 -49.1,-53 z m -120.5,21.6 c 0,-20.2 17.7,-33.5 43.5,-33.5 h 17.1 v -4.5 c 0,-11.2 -8.5,-16.3 -17.8,-16.3 -7,0 -14.4,3.5 -17.7,14.3 l -21.3,-6 a 39.4,39.4 0 0 1 39,-28.3 c 24.4,0 42,10.3 42,42.8 v 61 H 906 l -2.5,-13 A 38,38 0 0 1 872,168.1 c -17.6,0.1 -31.1,-10.6 -31.1,-30.9 z M 901.5,125 v -2.2 H 883 c -11.8,0 -19,4.5 -19,14.4 0,5.2 3.7,10.8 11.5,10.8 12.4,-0.2 26,-8.7 26,-23 z m -192.4,-9.5 c 0,-24 14,-52.7 49.1,-52.7 34.1,0 47.7,28.3 47.7,50.4 v 10.3 H 734 a 25,25 0 0 0 25.8,23 c 11.6,0 19.8,-6.4 25,-14.5 l 20,10.6 A 50.2,50.2 0 0 1 758.2,168 c -35,0.2 -49,-28.2 -49,-52.5 z m 73.1,-10.7 c -2.5,-11 -9.2,-21 -24,-21 -14.2,0 -22.2,10.3 -24.2,21 z m -199.4,-80 h 51.9 c 28.3,0 43.3,16.9 43.3,40.5 0,18.7 -9.3,32.7 -26.6,38 l 39,63.7 h -29.2 l -38.3,-61.3 h -13.8 v 61.1 h -26.3 z m 51.9,56.5 c 9.5,0 16.5,-4.5 16.5,-16 0,-11.3 -7,-15.9 -16.5,-15.9 H 609 v 32 h 25.6 z" />
</svg>
