<?xml version="1.0" encoding="UTF-8" standalone="no"?>
<svg
   xmlns:dc="http://purl.org/dc/elements/1.1/"
   xmlns:cc="http://creativecommons.org/ns#"
   xmlns:rdf="http://www.w3.org/1999/02/22-rdf-syntax-ns#"
   xmlns:svg="http://www.w3.org/2000/svg"
   xmlns="http://www.w3.org/2000/svg"
   xmlns:sodipodi="http://sodipodi.sourceforge.net/DTD/sodipodi-0.dtd"
   xmlns:inkscape="http://www.inkscape.org/namespaces/inkscape"
   sodipodi:docname="remoteok.svg"
   inkscape:version="1.0 (4035a4f, 2020-05-01)"
   id="svg8"
   version="1.1"
   viewBox="0 0 272.25256 64.731056"
   height="64.731056mm"
   width="272.25256mm">
  <defs
     id="defs2" />
  <sodipodi:namedview
     inkscape:window-maximized="0"
     inkscape:window-y="23"
     inkscape:window-x="53"
     inkscape:window-height="755"
     inkscape:window-width="1227"
     fit-margin-bottom="0"
     fit-margin-right="0"
     fit-margin-left="0"
     fit-margin-top="0"
     showgrid="false"
     inkscape:document-rotation="0"
     inkscape:current-layer="layer1"
     inkscape:document-units="mm"
     inkscape:cy="297.00995"
     inkscape:cx="464.21157"
     inkscape:zoom="0.35"
     inkscape:pageshadow="2"
     inkscape:pageopacity="0.0"
     borderopacity="1.0"
     bordercolor="#666666"
     pagecolor="#ffffff"
     id="base" />
  <metadata
     id="metadata5">
    <rdf:RDF>
      <cc:Work
         rdf:about="">
        <dc:format>image/svg+xml</dc:format>
        <dc:type
           rdf:resource="http://purl.org/dc/dcmitype/StillImage" />
        <dc:title></dc:title>
      </cc:Work>
    </rdf:RDF>
  </metadata>
  <g
     transform="translate(29.084551,-52.951831)"
     id="layer1"
     inkscape:groupmode="layer"
     inkscape:label="Layer 1">
    <g
       style="fill:#000000"
       transform="translate(-3.0238095,29.482146)"
       id="g865">
      <path
         id="path879"
         d="M 160.98007,59.890325 V 31.579911 h 3.17499 3.175 V 59.890325 88.20074 h -3.175 -3.17499 z M -24.101165,76.739089 c -1.553257,-1.553258 -1.848662,-3.13676 -1.83516,-9.837306 0.01252,-6.214617 0.23241,-8.005161 1.620387,-13.194764 0.830591,-3.105557 1.827001,-4.401494 3.789918,-4.929195 1.423509,-0.382688 3.670856,-0.216953 3.994825,0.294603 0.407591,0.643604 0.260763,2.148276 -0.526992,5.400579 -0.825153,3.406698 -1.221774,5.382355 -1.459365,7.269403 -0.149653,1.188632 -0.148571,1.187569 0.647716,-0.63591 1.520447,-3.481792 3.211947,-6.017821 5.680115,-8.516083 1.693169,-1.713814 2.8246966,-2.616946 3.9158991,-3.125477 3.2311127,-1.5058 6.1343908,-1.096529 7.0859198,0.998889 0.63615355,1.40091 0.62978503,2.293792 -0.042627,5.975077 -0.3158755,1.729338 -0.4788165,3.392543 -0.3826034,3.905403 0.2037636,1.086149 1.01803991,1.553779 2.03338107,1.167747 0.56154107,-0.213498 0.79621593,-0.619483 1.27085193,-2.198561 1.67182,-5.562023 5.7818865,-9.577101 10.7996585,-10.550064 6.230985,-1.208209 10.79259,2.58503 10.291816,8.558241 -0.41624,4.964909 -4.057499,8.544017 -10.829068,10.644235 -1.273307,0.394919 -2.3151039,0.812482 -2.3151039,0.927914 0,0.34553 1.6547989,1.632794 2.6175229,2.036168 1.322141,0.553963 4.357769,0.486716 6.320681,-0.140018 1.979351,-0.631984 4.749414,-2.232334 6.435159,-3.717795 l 1.218155,-1.073422 0.186766,-2.71171 c 0.221949,-3.222545 0.70647,-6.025866 1.655792,-9.580024 0.829495,-3.105539 1.825572,-4.401357 3.789,-4.929195 1.423508,-0.382688 3.670855,-0.216953 3.994824,0.294603 0.41147,0.649726 0.258366,2.158777 -0.558352,5.503367 -0.844878,3.4599 -1.649958,7.716485 -1.489774,7.876666 0.05252,0.05252 0.305202,-0.472704 0.561515,-1.167175 1.275048,-3.454717 4.211634,-7.926852 6.545968,-9.968872 3.585258,-3.136296 7.89949,-3.666569 9.481937,-1.165447 0.8491,1.341998 0.605895,4.254725 -0.945754,11.326859 -0.07982,0.363802 0.429155,-0.469635 1.131041,-1.852083 0.701887,-1.382448 1.779588,-3.25384 2.394903,-4.158646 4.478337,-6.585365 11.395312,-9.030491 13.630618,-4.81838 0.65278,1.230085 0.464053,3.715911 -0.728398,9.593331 -1.371203,6.758476 -1.531408,7.973228 -1.209357,9.169256 0.528955,1.96437 2.403475,1.775317 4.808167,-0.484918 l 1.617795,-1.520613 0.07186,-3.030119 c 0.04101,-1.728877 0.255773,-3.71185 0.500089,-4.617619 1.050132,-3.893061 3.476625,-7.421583 6.38392,-9.283276 3.319198,-2.125472 7.83373,-2.546765 11.170337,-1.042413 2.851441,1.285607 5.300081,4.546094 6.165003,8.209022 0.171821,0.727604 0.358167,1.488033 0.414153,1.689838 0.126523,0.456221 1.704075,0.299813 5.580696,-0.553315 l 2.71198,-0.596823 v -1.791203 -1.791205 l -1.38906,-0.0016 c -2.10294,-0.0021 -3.306077,-0.423704 -3.769891,-1.32062 -0.529379,-1.023681 -0.501809,-2.568115 0.06615,-3.704987 0.569966,-1.140944 1.638541,-1.55194 4.088641,-1.572567 l 1.77395,-0.01492 0.17235,-0.992188 c 1.59851,-9.201802 4.7925,-16.708266 8.80496,-20.693227 1.65481,-1.643452 2.8024,-2.280187 4.87701,-2.705915 4.85442,-0.996175 7.74715,4.17177 6.42999,11.487221 -0.75198,4.176421 -2.54411,7.667357 -5.70963,11.121976 l -1.5865,1.73138 3.66415,0.09152 c 2.57337,0.06428 3.7922,0.197893 4.09423,0.448837 0.67641,0.561983 0.80364,1.908148 0.29944,3.168237 -0.89732,2.242629 -3.32192,2.951379 -10.10798,2.954742 l -4.03489,0.0021 -0.0541,1.785938 c -0.25783,8.520696 0.76833,12.441138 3.61744,13.820361 2.49616,1.208378 6.10751,0.31215 8.46323,-2.100334 l 0.96805,-0.991372 0.0811,-3.016152 c 0.13221,-4.919078 1.69276,-8.742518 4.80179,-11.76474 3.73901,-3.63462 9.17784,-4.821409 13.04113,-2.845651 4.90477,2.508382 5.35146,9.827055 0.87316,14.30536 -1.60287,1.602883 -4.97566,3.378682 -8.15419,4.293285 l -2.15929,0.621313 0.55593,0.751959 c 0.86276,1.166937 2.5891,1.874928 4.57179,1.874928 2.51921,0 4.09127,-0.867225 6.61871,-3.651141 1.59787,-1.76003 2.18313,-2.235838 2.75008,-2.235838 1.24338,0 1.72974,0.850733 1.71794,3.005095 -0.0127,2.321393 -0.63911,3.657745 -2.61729,5.583838 -2.60535,2.536732 -5.43666,3.581899 -9.70322,3.581899 -4.0471,0 -7.26831,-1.272402 -9.22223,-3.642849 l -0.77761,-0.943385 -0.8732,0.716132 c -3.43781,2.819474 -6.08108,3.870102 -9.73672,3.870102 -6.07042,0 -9.90373,-3.053003 -11.62294,-9.256981 -0.30133,-1.087446 -0.5479,-2.299962 -0.5479,-2.69448 0,-0.39452 -0.0933,-0.775006 -0.20746,-0.845526 -0.11411,-0.07052 -1.03685,0.107474 -2.05052,0.395542 -1.01367,0.288065 -2.951641,0.668364 -4.306545,0.845108 l -2.463483,0.321352 -0.582268,1.730185 c -1.266085,3.762234 -4.035028,6.999294 -7.317767,8.554991 -1.616868,0.766239 -1.915953,0.817518 -4.767791,0.817518 -2.85832,0 -3.146928,-0.0498 -4.7625,-0.82178 -1.040024,-0.496967 -2.260997,-1.376018 -3.08909,-2.224005 l -1.369271,-1.402226 -1.276562,1.060918 c -3.030458,2.518582 -5.528839,3.522644 -8.74268,3.513574 -2.471473,-0.007 -3.85183,-0.546079 -5.016711,-1.959282 -1.654916,-2.007679 -1.880738,-5.113988 -0.790073,-10.867198 1.001687,-5.283909 1.074659,-6.065895 0.602589,-6.457682 -0.326734,-0.271161 -0.499824,-0.267616 -0.906833,0.01857 -2.117672,1.488959 -4.938104,7.181516 -6.842601,13.81068 -1.368769,4.764365 -1.952244,5.460719 -4.5755,5.460719 -1.017635,0 -1.470631,-0.151849 -2.144488,-0.718864 -2.064623,-1.737265 -2.43591,-4.52546 -1.580557,-11.869274 0.829291,-7.120085 0.639755,-8.014117 -1.272789,-6.003618 -1.866265,1.961854 -3.893849,6.573282 -5.744995,13.066119 -1.37464,4.82151 -1.967156,5.525637 -4.649761,5.525637 -1.159698,0 -1.452669,-0.115741 -2.210028,-0.873101 -0.480205,-0.480205 -1.025551,-1.402939 -1.211881,-2.05052 -0.186328,-0.647581 -0.362879,-1.21307 -0.392335,-1.256644 -0.02946,-0.04357 -0.514003,0.235603 -1.076767,0.62039 -1.393351,0.952695 -3.892801,2.202682 -5.65223,2.826705 -1.894218,0.671832 -6.7487,0.930566 -9.052864,0.482502 C 6.4863531,76.507401 3.0842084,73.675883 1.7950129,69.784336 1.2390625,68.106156 1.1399099,68.01678 0.22263393,68.36698 c -0.42387836,0.161832 -1.70276833,0.294716 -2.84197683,0.295304 -4.8058359,0.0024 -7.0270764,-2.638187 -6.5297259,-7.762692 0.1868011,-1.92473 -0.00471,-2.86135 -0.5850599,-2.86135 -0.6482923,0 -2.7776723,2.637716 -3.9570443,4.901692 -1.4755,2.832433 -2.245183,4.833204 -3.531092,9.178975 -1.431698,4.838461 -1.991522,5.498498 -4.663655,5.498498 -1.161301,0 -1.452305,-0.115379 -2.215245,-0.878318 z M 85.955452,70.106337 c 1.032881,-0.787815 2.116773,-2.678856 2.399639,-4.18656 0.163168,-0.869762 0.08199,-1.049507 -0.931386,-2.062906 -1.701694,-1.701686 -2.483512,-3.630615 -2.599664,-6.413941 -0.107553,-2.577187 -0.198093,-2.668183 -1.929897,-1.939901 -2.66102,1.119055 -4.129881,4.707048 -3.867123,9.446241 0.145706,2.628119 1.010417,4.604726 2.42218,5.536763 1.169009,0.77176 3.223604,0.598643 4.506251,-0.379696 z M 11.846105,62.554219 c 3.197624,-1.529286 4.866079,-4.042693 4.141351,-6.238642 -0.231418,-0.701196 -0.563031,-1.075264 -1.182796,-1.334219 -2.710101,-1.132353 -5.7091264,2.273728 -6.1489353,6.983526 L 8.4958,63.677492 9.3565742,63.505338 c 0.4734269,-0.09469 1.5937148,-0.52269 2.4895308,-0.951119 z m 123.825005,0 c 3.19762,-1.529286 4.86606,-4.042693 4.14134,-6.238642 -0.23141,-0.701196 -0.56304,-1.075264 -1.1828,-1.334219 -2.7101,-1.132353 -5.70912,2.273728 -6.14894,6.983526 l -0.15991,1.712608 0.86077,-0.172154 c 0.47341,-0.09469 1.59371,-0.52269 2.48954,-0.951119 z M 114.68642,44.742931 c 1.81534,-2.147393 3.71359,-5.781868 4.3738,-8.374247 0.55581,-2.182445 0.45038,-5.890643 -0.18555,-6.526416 -0.8868,-0.886574 -2.10981,0.304012 -3.18264,3.098249 -1.6586,4.319836 -3.65448,13.720643 -2.91304,13.720643 0.15721,0 1.01558,-0.863203 1.90743,-1.918229 z m 74.60406,32.417353 c -6.03155,-0.439655 -10.40424,-4.121049 -11.76848,-9.907941 -0.806,-3.418813 -0.36962,-8.521617 0.95266,-11.140659 2.21684,-4.390863 5.81467,-6.687909 10.94811,-6.989897 3.00564,-0.176813 5.05391,0.199795 7.42834,1.365819 4.79912,2.356755 7.21865,7.129361 6.91293,13.636053 -0.36309,7.727539 -4.85381,12.457632 -12.35689,13.015588 -0.65485,0.0487 -1.60735,0.05816 -2.11667,0.02103 z m 3.54118,-5.156308 c 1.60256,-0.473488 3.63167,-2.606056 4.21503,-4.429897 1.02222,-3.195947 0.81783,-7.503559 -0.47731,-10.059362 -2.10264,-4.149365 -7.76129,-4.959085 -11.03826,-1.579518 -1.69354,1.746546 -2.19535,3.411479 -2.18887,7.262418 0.006,3.256714 0.43341,4.93586 1.70558,6.692029 1.51593,2.092677 4.81973,2.990098 7.78383,2.11433 z m 16.93244,4.579019 c -0.45392,-0.276796 -0.95994,-0.889431 -1.12448,-1.361408 -0.2045,-0.586671 -0.29914,-4.453056 -0.29914,-12.221902 0,-9.710232 0.0596,-11.489369 0.40963,-12.226983 0.49241,-1.037714 1.33625,-1.465709 2.88975,-1.465709 0.94014,0 1.31091,0.153072 1.97194,0.814102 l 0.8141,0.814104 v 5.13902 c 0,2.826464 0.0923,5.139023 0.20505,5.139023 0.11279,0 1.09506,-0.90357 2.18281,-2.007936 1.08778,-1.104363 3.84588,-3.783269 6.12913,-5.953124 3.9235,-3.728622 4.20923,-3.945189 5.20517,-3.945189 1.95241,0 3.34243,2.240335 2.43827,3.929806 -0.13407,0.250491 -2.4062,2.471195 -5.04918,4.934902 l -4.80544,4.479464 5.06008,4.871503 c 2.78304,2.679324 5.23248,5.204877 5.44316,5.612338 1.02725,1.98645 -1.32648,4.495096 -3.45736,3.684934 -0.38939,-0.148039 -3.52303,-3.030762 -6.96367,-6.406051 l -6.25573,-6.136889 -0.13343,5.545725 c -0.0734,3.050148 -0.22596,5.730618 -0.33904,5.956601 -0.61978,1.238642 -2.90986,1.664517 -4.32162,0.803669 z m 29.26805,-0.05586 c -0.8703,-0.346017 -2.06084,-1.491202 -2.5799,-2.481598 -0.23162,-0.441965 -0.41598,-1.438688 -0.41598,-2.248958 0,-3.008601 2.11095,-5.08073 5.15924,-5.064339 2.82506,0.01519 4.98039,2.165003 4.98039,4.967665 0,2.917153 -2.18115,5.139301 -5.01275,5.106985 -0.80825,-0.0092 -1.7672,-0.135112 -2.131,-0.279755 z m 4.5227,-1.165556 c 1.7384,-1.110432 2.36353,-3.76402 1.33745,-5.67728 -1.82888,-3.410114 -6.969,-2.780268 -7.96134,0.97554 -1.04024,3.937179 3.15687,6.916364 6.62389,4.70174 z m -4.46648,-0.704193 c -0.45765,-0.457642 -0.43109,-4.990089 0.0329,-5.624703 0.29199,-0.399314 0.61465,-0.462148 1.84798,-0.35987 0.93247,0.07733 1.69471,0.30535 2.0275,0.606515 0.7239,0.655119 0.71446,2.095759 -0.0172,2.608161 l -0.55036,0.385498 0.72488,1.095399 c 0.572,0.86433 0.6563,1.162907 0.39968,1.415441 -0.25533,0.251259 -0.46601,0.149453 -0.98031,-0.473707 -0.36029,-0.436562 -0.87879,-1.06164 -1.15218,-1.389062 -0.82132,-0.983549 -1.29077,-0.765961 -1.38256,0.640775 -0.0837,1.28265 -0.39941,1.64659 -0.95046,1.095553 z m 3.06586,-3.442891 c 0.81277,-0.812771 0.20524,-1.534583 -1.29164,-1.534583 -0.70602,0 -0.77211,0.07926 -0.77211,0.926042 0,0.871254 0.0516,0.926041 0.87312,0.926041 0.48022,0 1.016,-0.142875 1.19063,-0.3175 z"
         style="fill:#000000;fill-opacity:1;stroke-width:0.264583" />
      <path
         id="path877"
         d="M 160.98007,59.890325 V 31.579911 h 3.17499 3.175 V 59.890325 88.20074 h -3.175 -3.17499 z M -24.096672,76.743581 c -1.368764,-1.368763 -1.758926,-3.056437 -1.908254,-8.254298 -0.146865,-5.112046 0.263247,-9.091628 1.405022,-13.633885 1.23658,-4.919411 2.08567,-5.905328 5.382529,-6.249919 1.237528,-0.129346 1.731542,-0.06933 2.255594,0.274045 0.905098,0.593043 0.875086,1.363102 -0.234595,6.019821 -0.859242,3.605768 -1.585635,7.615012 -1.411272,7.789375 0.0442,0.0442 0.48812,-0.835245 0.986481,-1.954326 2.29448,-5.152294 5.749433,-9.366585 9.0204815,-11.003025 3.1558838,-1.578824 5.5712782,-1.538121 6.9642697,0.117358 1.02523919,1.218428 1.09643327,2.287492 0.4207563,6.318258 -0.3336423,1.990344 -0.5268754,3.936547 -0.4294056,4.324894 0.2203345,0.877885 0.95427008,1.292307 1.93963924,1.095233 0.68376004,-0.136753 0.82211066,-0.366763 1.49172876,-2.479998 1.8434049,-5.817576 6.0104944,-9.594045 11.4435961,-10.370878 4.995918,-0.714324 8.59481,1.604579 9.425885,6.073452 0.368003,1.978832 -0.01257,4.496977 -0.96292,6.371592 -1.439857,2.840162 -4.98571,5.310272 -9.739357,6.784626 -1.273307,0.394919 -2.3151039,0.80079 -2.3151039,0.901935 0,0.270105 1.3592859,1.491779 2.0627709,1.853935 1.121238,0.577221 3.533881,0.822738 5.21327,0.530516 2.044044,-0.355671 5.930826,-2.278493 7.856006,-3.886424 1.453189,-1.213721 1.506728,-1.304232 1.526521,-2.580751 0.05387,-3.474183 1.597568,-11.53307 2.58476,-13.493749 0.90029,-1.788078 1.942237,-2.440667 4.288393,-2.685889 1.258938,-0.131585 1.728763,-0.07115 2.28619,0.294093 0.64551,0.422952 0.690692,0.568695 0.565039,1.822629 -0.07511,0.749605 -0.554077,3.148854 -1.064358,5.331666 -1.007724,4.310695 -1.440558,7.130682 -0.913736,5.953125 2.31906,-5.183579 3.811334,-7.58463 6.199749,-9.975333 2.264886,-2.267056 4.441473,-3.361449 6.71328,-3.375451 3.987409,-0.02458 4.680246,2.030293 3.163364,9.382034 -0.435372,2.110052 -0.787665,3.89599 -0.782849,3.96875 0.0048,0.07276 0.612113,-1.058333 1.349613,-2.513541 1.726988,-3.407683 3.189869,-5.446533 5.373634,-7.489335 4.014735,-3.755575 8.334639,-4.51667 10.312664,-1.816921 0.847911,1.157275 0.685721,4.036544 -0.591317,10.49688 -1.373743,6.94967 -1.454441,7.499241 -1.242615,8.46364 0.536919,2.444622 2.852869,2.077211 5.686583,-0.902153 l 0.923396,-0.970875 0.04935,-2.832285 c 0.08993,-5.164095 1.534504,-8.963514 4.557183,-11.986217 2.592308,-2.592302 5.691664,-3.946921 9.014222,-3.939801 5.234516,0.01122 9.116244,3.343428 10.587248,9.088481 l 0.483579,1.888586 1.15742,-0.01291 c 0.636561,-0.0071 2.493777,-0.293346 4.127147,-0.636101 l 2.96974,-0.623183 v -1.811298 -1.811298 l -1.25677,-0.0063 c -1.7448,-0.0088 -3.296863,-0.40843 -3.693711,-0.951154 -0.882491,-1.20687 -0.710195,-3.724663 0.325781,-4.760636 0.57152,-0.57153 0.85698,-0.631897 2.98807,-0.631897 h 2.35616 l 0.58677,-2.944942 c 2.43361,-12.214586 7.43934,-20.483357 13.11323,-21.661248 2.80276,-0.581853 5.11617,0.779656 6.27555,3.693321 0.4813,1.209622 0.58103,1.974969 0.57026,4.376412 -0.0257,5.724816 -1.82118,10.012632 -6.17667,14.75052 l -1.64179,1.785937 h 3.9598 c 4.49646,0 4.64193,0.06109 4.64193,1.949146 0,3.339459 -2.59934,4.394086 -10.84186,4.398845 l -3.47765,0.0021 -0.1823,2.315104 c -0.21582,2.740459 0.22574,8.021484 0.81873,9.791951 0.9685,2.891692 2.85488,4.166655 5.89086,3.9815 2.1049,-0.128373 3.35751,-0.693883 5.11361,-2.308622 l 1.3191,-1.212916 0.0632,-3.042364 c 0.0539,-2.595772 0.17965,-3.377062 0.85667,-5.322475 1.99604,-5.735594 6.01852,-9.302109 11.35133,-10.064601 4.99592,-0.714324 8.5948,1.604579 9.42589,6.073452 0.36798,1.978832 -0.0124,4.496977 -0.96292,6.371592 -1.474,2.907498 -5.31331,5.509538 -10.24454,6.943063 l -2.02653,0.589119 0.41042,0.626359 c 0.22572,0.344495 0.94385,0.938977 1.59584,1.321069 0.98144,0.575157 1.50998,0.694246 3.07133,0.691999 2.65579,-0.0038 4.03302,-0.759068 6.67335,-3.659565 1.83028,-2.010619 2.16106,-2.263074 2.87377,-2.193303 1.71884,0.168267 2.20086,3.105763 0.96721,5.894591 -0.65802,1.48759 -2.88668,3.715233 -4.69656,4.69443 -2.72098,1.472112 -7.53586,1.970566 -10.82162,1.120288 -1.97107,-0.510072 -4.14671,-1.794274 -5.29312,-3.12434 -0.96908,-1.124334 -0.93233,-1.129279 -2.7661,0.372277 -2.98773,2.446435 -5.60967,3.297864 -9.52482,3.093005 -3.33504,-0.174503 -5.09214,-0.853845 -7.15986,-2.768206 -1.96644,-1.820555 -3.25811,-4.364518 -3.97161,-7.822061 -0.27689,-1.34171 -0.50498,-2.483816 -0.50691,-2.538013 -0.003,-0.0542 -0.1523,0.01648 -0.3342,0.157065 -0.54322,0.419835 -3.44688,1.129852 -6.042426,1.477525 l -2.431811,0.325745 -0.559647,1.727178 c -0.778881,2.403851 -2.139236,4.549336 -3.953378,6.235115 -2.714095,2.522048 -5.197713,3.421909 -8.866981,3.212695 -2.997914,-0.170931 -5.172524,-1.145349 -7.096759,-3.179939 l -1.329241,-1.405451 -1.693994,1.383181 c -2.841043,2.319768 -5.202185,3.244588 -8.308578,3.254359 -5.791068,0.0182 -7.498001,-3.640177 -5.864807,-12.569658 1.174406,-6.420966 1.166812,-7.267632 -0.06173,-6.877716 -0.646616,0.205227 -2.225622,2.223137 -3.422703,4.374068 -1.148953,2.064458 -2.780612,6.296503 -3.621352,9.392707 -1.293548,4.763778 -2.03967,5.688541 -4.589674,5.688541 -1.113481,0 -1.492835,-0.13504 -2.252118,-0.8017 -1.936959,-1.700673 -2.299597,-4.492241 -1.496298,-11.51846 0.598004,-5.230577 0.623017,-7.014797 0.100743,-7.186165 -0.595278,-0.195318 -2.165506,1.546955 -3.215658,3.567983 -1.511459,2.908815 -2.578878,5.712057 -3.799433,9.978016 -0.584033,2.041252 -1.245708,4.022653 -1.470393,4.403111 -0.61314,1.038241 -1.695717,1.557215 -3.248339,1.557215 -1.202428,0 -1.484112,-0.109413 -2.2478,-0.873101 -0.480205,-0.480205 -1.025551,-1.40294 -1.211881,-2.05052 -0.186328,-0.647581 -0.368472,-1.218663 -0.404763,-1.269069 -0.03629,-0.05041 -0.605006,0.279207 -1.263811,0.732475 -1.910776,1.314651 -4.842631,2.612096 -6.974218,3.086327 C 15.741615,77.843258 11.227573,77.645797 8.9036128,76.8266 5.5095565,75.630194 2.4685283,72.510301 1.6737544,69.409253 1.3713701,68.229412 1.2595228,68.081378 0.78671764,68.235204 0.489154,68.332018 -0.8853987,68.469376 -2.2678466,68.540451 c -2.3815859,0.122441 -2.5894611,0.08929 -3.9596614,-0.631468 -1.182915,-0.622239 -1.5848965,-1.0239 -2.2085749,-2.206815 -0.7316788,-1.387756 -0.7579334,-1.561148 -0.6505205,-4.296272 0.1215787,-3.095802 -0.073909,-3.662151 -1.0784896,-3.124515 -2.144852,1.14789 -5.166307,7.101406 -7.194806,14.17675 -0.458928,1.600729 -1.017566,3.221701 -1.241417,3.602159 -0.610579,1.037738 -1.693701,1.557215 -3.246832,1.557215 -1.202658,0 -1.484056,-0.109357 -2.248524,-0.873826 z m 110.10221,-6.690507 c 1.07614,-0.871001 2.162016,-2.757474 2.387679,-4.148135 0.134356,-0.82796 0.03043,-1.048128 -0.964538,-2.043075 -1.67603,-1.676045 -2.464647,-3.622482 -2.600696,-6.418934 -0.100382,-2.062951 -0.167666,-2.315104 -0.617934,-2.315104 -1.638935,0 -3.810423,1.981345 -4.600945,4.198035 -0.576501,1.616535 -0.811768,5.991814 -0.408358,7.593914 0.370178,1.470141 1.294633,2.905715 2.321269,3.604678 1.121621,0.763632 3.231726,0.541784 4.483523,-0.471379 z M 11.049963,62.947146 c 3.098678,-1.274085 4.746749,-2.915948 5.08658,-5.067429 0.343651,-2.175652 -1.15189,-3.544141 -3.244887,-2.969223 -2.132338,0.58573 -3.9551052,3.604943 -4.2443821,7.030352 -0.1655445,1.960224 -0.042582,2.011722 2.4026891,1.0063 z m 123.824987,0 c 3.0987,-1.274085 4.74676,-2.915948 5.08659,-5.067429 0.34364,-2.175652 -1.15189,-3.544141 -3.24488,-2.969223 -2.13235,0.58573 -3.95512,3.604943 -4.24439,7.030352 -0.16555,1.960224 -0.0426,2.011722 2.40268,1.0063 z M 114.02174,45.541155 c 2.39829,-2.667474 4.21523,-5.949423 5.01351,-9.055896 0.59274,-2.306627 0.54393,-5.733764 -0.0928,-6.520169 -0.43558,-0.537919 -0.58295,-0.57644 -1.1744,-0.306959 -0.84558,0.385273 -2.26028,3.263146 -3.18416,6.477457 -1.09495,3.809418 -2.39336,10.790155 -2.00699,10.790155 0.11001,0 0.7602,-0.623064 1.44489,-1.384588 z m 72.38804,31.144221 c -4.60436,-1.287764 -7.77166,-4.689491 -8.92458,-9.58515 -0.62582,-2.657488 -0.38325,-7.273102 0.50932,-9.691494 1.99514,-5.40573 6.46676,-8.376093 12.58885,-8.362412 6.589,0.01474 11.5425,3.997478 12.90097,10.372722 0.53465,2.509001 0.34735,6.553911 -0.41568,8.977619 -1.13573,3.607511 -3.90184,6.581012 -7.3687,7.921145 -1.98999,0.769234 -7.12729,0.972494 -9.29018,0.36757 z m 6.99198,-4.856647 c 1.42365,-0.646678 3.15799,-2.66465 3.74092,-4.352662 0.67376,-1.951099 0.66355,-6.636041 -0.0191,-8.716282 -1.24553,-3.796157 -4.79571,-5.660728 -8.83944,-4.642503 -1.71265,0.431249 -3.75523,2.480775 -4.44346,4.458596 -0.69557,1.998808 -0.70972,6.94091 -0.0254,8.902115 1.15096,3.299081 3.28067,4.845248 6.6658,4.839353 1.22576,-0.0021 2.21345,-0.167373 2.92066,-0.488617 z m 16.58247,4.87471 c -1.65238,-0.744172 -1.6733,-0.929757 -1.58795,-14.073181 l 0.0765,-11.779607 0.86408,-0.771829 c 0.70583,-0.630475 1.10186,-0.771829 2.16246,-0.771829 1.09707,0 1.4246,0.126217 2.11249,0.814102 l 0.8141,0.814104 v 5.13902 c 0,2.826464 0.0957,5.139023 0.21267,5.139023 0.11697,0 0.62299,-0.428852 1.12448,-0.953005 0.50149,-0.524153 3.25461,-3.203059 6.11806,-5.953125 4.98499,-4.787627 5.25119,-5.000119 6.26351,-5.000119 1.51149,0 2.68544,1.19162 2.68544,2.725864 0,1.063411 -0.10525,1.196925 -3.37343,4.279127 -1.8554,1.749806 -4.12854,3.901117 -5.05143,4.78069 l -1.67801,1.599224 5.09092,4.883067 c 2.80001,2.685688 5.24553,5.251262 5.43447,5.701273 0.58533,1.394235 -0.0624,2.770611 -1.61322,3.427587 -1.60827,0.68135 -2.01967,0.388877 -8.73117,-6.207132 l -6.35,-6.240743 -0.13229,5.617048 -0.13229,5.617051 -0.68723,0.686567 c -0.84773,0.846905 -2.40769,1.073791 -3.62215,0.526823 z m 28.7492,-0.410533 c -2.47293,-1.306735 -3.47136,-4.569952 -2.14667,-7.016099 1.86494,-3.4438 7.31795,-3.327725 9.02184,0.192046 1.68275,3.4761 -0.67646,7.3731 -4.44545,7.34311 -0.91855,-0.0073 -1.82954,-0.201919 -2.42972,-0.519057 z m 4.57735,-0.691242 c 2.35907,-1.19339 2.78119,-5.361331 0.71876,-7.096762 -3.31393,-2.788481 -8.21909,0.203498 -7.13158,4.350006 0.73904,2.817794 3.73536,4.101195 6.41282,2.746756 z m -4.15301,-0.948907 c -0.0798,-0.208127 -0.11102,-1.620523 -0.0693,-3.138652 l 0.0759,-2.760239 1.65417,0.02561 c 1.19769,0.01855 1.80007,0.157644 2.18282,0.504029 0.67945,0.614881 0.6781,1.834438 -0.003,2.515317 l -0.53144,0.531426 0.70596,1.06676 c 0.55705,0.841777 0.63735,1.134255 0.38071,1.386803 -0.25533,0.251259 -0.46601,0.149452 -0.98031,-0.473708 -0.36028,-0.436562 -0.87879,-1.06164 -1.15218,-1.389062 -0.79105,-0.947319 -1.33091,-0.772644 -1.33091,0.430625 0,1.09732 -0.65844,2.015808 -0.93271,1.301078 z m 3.13084,-3.680116 c 0.48308,-0.771673 0.027,-1.292733 -1.13149,-1.292733 -1.04608,0 -1.06664,0.01815 -1.06664,0.942015 0,0.922514 0.0198,0.940313 0.96538,0.859895 0.53097,-0.04517 1.0857,-0.274293 1.23275,-0.509177 z"
         style="fill:#000000;fill-opacity:1;stroke-width:0.264583" />
      <path
         id="path875"
         d="M 160.98007,59.890325 V 31.579911 h 3.17499 3.175 V 59.890325 88.20074 h -3.175 -3.17499 z M -23.65095,77.095914 c -1.869789,-1.173451 -2.595369,-4.777282 -2.341541,-11.630008 0.163481,-4.41352 0.72517,-8.291801 1.711529,-11.817511 0.648073,-2.316514 1.168228,-3.346114 2.034857,-4.027802 1.355844,-1.066509 4.581176,-1.389263 5.582076,-0.558591 0.560448,0.465132 0.456303,1.799095 -0.407644,5.221404 -0.760057,3.010791 -1.604205,7.357662 -1.596535,8.221265 0.0021,0.2356 0.591611,-0.793957 1.310042,-2.2879 3.055847,-6.354489 6.886943,-10.298678 11.1071868,-11.435071 2.4604291,-0.662525 4.7316706,0.355936 5.34283162,2.39581 0.25951656,0.866187 0.20963202,1.663546 -0.30170962,4.822615 -0.3369469,2.081668 -0.5328365,4.102772 -0.435311,4.491344 0.2235147,0.890553 1.03466099,1.335757 2.03384933,1.116299 C 1.0265571,61.467668 1.210932,61.244341 1.4407994,60.333383 3.0449257,53.976259 7.3687888,49.626615 12.936879,48.768756 c 6.470213,-0.996844 10.82418,3.244181 9.683696,9.432507 -0.857678,4.65383 -4.341135,7.816656 -10.768149,9.777015 -1.217713,0.371427 -2.2140229,0.764902 -2.2140229,0.874389 0,0.384286 1.4646959,1.596798 2.3812499,1.971257 1.478486,0.604041 3.329538,0.767559 4.96806,0.438872 2.090624,-0.41938 5.467982,-2.088697 7.524752,-3.719237 l 1.720871,-1.364247 0.174385,-2.480836 c 0.312242,-4.442007 1.625433,-10.769401 2.643796,-12.7387 0.231034,-0.44677 0.721479,-1.049403 1.089877,-1.339183 1.355844,-1.066509 4.581175,-1.389263 5.582075,-0.558591 0.560449,0.465132 0.456303,1.799095 -0.407643,5.221404 -0.775624,3.072444 -1.611667,7.400839 -1.587966,8.221265 0.0068,0.2356 0.224658,-0.107419 0.484111,-0.762262 3.133974,-7.909935 8.231473,-13.096874 12.871045,-13.096874 3.90992,0 4.55373,2.219848 2.906381,10.021373 -0.364913,1.728213 -0.660691,3.216494 -0.657277,3.307292 0.0034,0.0908 0.703024,-1.168048 1.554665,-2.797429 1.892617,-3.621021 2.962195,-5.104299 5.169852,-7.169465 4.014682,-3.755516 8.571389,-4.506981 10.397357,-1.714661 0.753216,1.151845 0.546603,4.191071 -0.704347,10.361215 -1.407901,6.944254 -1.534768,8.151341 -0.971312,9.240929 0.372745,0.720837 0.58047,0.843452 1.42883,0.843452 1.15353,0 1.795515,-0.382759 3.659028,-2.181592 l 1.358027,-1.310868 0.0085,-2.685539 c 0.0048,-1.512093 0.19603,-3.491616 0.437779,-4.530314 1.996626,-8.578162 9.854644,-13.465577 17.208791,-10.703263 3.084062,1.158412 5.822791,4.789146 6.56717,8.70614 0.302048,1.589386 0.3048,1.592932 1.234387,1.590381 0.512418,-0.0013 2.300869,-0.286985 3.974353,-0.634621 1.67349,-0.347636 3.13201,-0.577583 3.24115,-0.510995 0.10914,0.06659 0.19844,-0.762503 0.19844,-1.842426 v -1.963497 l -2.03013,-0.183965 c -2.540627,-0.230227 -2.908451,-0.429884 -3.270771,-1.775404 -0.38153,-1.416846 -0.08514,-3.070375 0.689107,-3.844615 0.557234,-0.557247 0.856554,-0.619003 3.000264,-0.619003 h 2.3813 l 0.171,-0.992188 c 2.28794,-13.274362 7.58098,-22.470433 13.5893,-23.609888 2.09221,-0.39678 3.49056,0.04383 4.77686,1.505146 1.74932,1.987341 2.38173,4.973446 1.86563,8.809431 -0.62653,4.657103 -2.54809,8.642643 -5.9636,12.36927 l -1.75808,1.918229 h 3.9578 c 4.21616,0 4.45106,0.06822 4.55533,1.322916 0.12544,1.50925 -0.0446,2.1449 -0.80529,3.011339 -1.27391,1.450893 -2.57966,1.752762 -8.37588,1.936372 l -5.07654,0.160814 -0.18409,1.719185 c -0.23609,2.204448 0.0665,7.083681 0.58054,9.362826 0.74301,3.293991 2.63533,4.976129 5.5979,4.976129 2.28206,0 3.82209,-0.632494 5.64155,-2.31699 l 1.57782,-1.460791 -0.16963,-1.499267 c -0.33118,-2.927434 0.73031,-7.308606 2.46383,-10.169079 2.86224,-4.722985 8.12649,-7.341994 13.07859,-6.506715 4.46805,0.753636 6.94502,4.603464 6.05811,9.415864 -0.83801,4.547081 -4.07133,7.592784 -10.07176,9.487349 -3.63519,1.147767 -3.42982,0.942723 -2.18797,2.184569 1.38081,1.380823 3.32827,1.874808 5.59583,1.419421 1.91569,-0.384726 3.00384,-1.133938 5.2052,-3.58385 0.99507,-1.107424 2.07251,-2.079575 2.39427,-2.160336 2.44049,-0.612521 2.92571,3.791802 0.76361,6.931088 -2.27621,3.30477 -6.1455,5.137903 -10.845,5.137903 -3.83768,0 -6.69962,-1.036277 -8.87796,-3.214615 -1.43275,-1.432745 -1.34665,-1.434418 -3.16058,0.06134 -2.54233,2.096378 -5.45219,3.144959 -8.74181,3.150137 -4.93559,0.0078 -8.53223,-2.169835 -10.50504,-6.360361 -0.82982,-1.76267 -1.65524,-4.678021 -1.65524,-5.846283 0,-0.962522 -0.15279,-1.010949 -1.5349,-0.486489 -0.98933,0.37542 -4.159324,0.995936 -7.163561,1.402241 -0.200237,0.02708 -0.637408,0.861499 -0.971445,1.854258 -0.854048,2.538076 -2.110528,4.503404 -3.956129,6.187884 -2.715736,2.478662 -5.214964,3.393588 -8.707067,3.187499 -3.081946,-0.18188 -4.903337,-0.956916 -6.935311,-2.951088 l -1.64537,-1.61473 -1.542601,1.275151 c -2.691738,2.225056 -5.526299,3.356226 -8.403642,3.35358 -2.986432,-0.0028 -4.635368,-0.860327 -5.7844,-3.008368 -0.884,-1.652526 -0.815155,-5.915837 0.18071,-11.192099 1.016185,-5.383992 0.664025,-6.545032 -1.340538,-4.419586 -2.098754,2.225339 -4.330991,6.961769 -6.019773,12.773061 -1.457272,5.014573 -1.91071,5.618315 -4.352277,5.794922 -1.420852,0.102775 -1.606682,0.04868 -2.486461,-0.723775 -1.430785,-1.256247 -1.918886,-2.946689 -1.876441,-6.49872 0.01913,-1.600729 0.227486,-4.334221 0.463021,-6.074425 0.557927,-4.122145 0.562025,-5.929386 0.01392,-6.139711 -0.730832,-0.280445 -2.208737,1.512167 -3.701751,4.490015 -1.264711,2.522485 -1.97345,4.513533 -4.129566,11.601124 -0.714733,2.349463 -1.585294,3.187041 -3.456326,3.325368 -1.079612,0.07982 -1.592766,-0.02106 -2.270197,-0.446233 -0.853509,-0.535697 -1.885151,-2.303327 -1.897036,-3.250409 -0.0078,-0.61977 -0.116155,-0.594561 -1.481045,0.344509 -1.856298,1.277165 -4.860178,2.600859 -6.866731,3.025902 C 14.699871,78.021278 10.375511,77.589563 7.3418277,76.104113 4.6968094,74.808975 2.056535,71.524276 1.5252517,68.86786 1.3787493,68.135355 1.2850947,68.064712 0.67090687,68.223425 -0.72528346,68.584213 -4.0286195,68.666562 -5.1366521,68.368199 -6.6131938,67.970607 -8.208528,66.504742 -8.7728472,65.027094 -9.12818,64.096666 -9.1949291,63.303826 -9.0888523,61.273601 c 0.073967,-1.415645 0.081217,-2.722729 0.016113,-2.90463 -0.229526,-0.641257 -1.0769047,-0.318055 -2.1129337,0.805905 -2.149975,2.332448 -4.385675,7.015041 -5.897316,12.351705 -1.049096,3.703711 -1.376471,4.479744 -2.225352,5.27514 -0.969587,0.908494 -3.130515,1.054886 -4.342617,0.294193 z M 85.477033,70.495195 c 1.191895,-0.726786 2.195697,-2.161302 2.741612,-3.918029 L 88.693308,65.0497 87.393357,63.671422 c -1.785038,-1.892609 -2.395485,-3.382938 -2.551271,-6.228492 -0.11266,-2.058024 -0.182854,-2.315104 -0.632037,-2.315104 -1.688438,0 -3.823361,1.969198 -4.622271,4.263464 -0.378777,1.087717 -0.496252,2.178367 -0.496252,4.607139 0,2.894702 0.06114,3.300893 0.677148,4.497916 0.372428,0.72372 1.074632,1.583745 1.560486,1.911167 1.123765,0.757354 2.985108,0.7967 4.147873,0.08768 z M 12.506378,62.293226 c 2.493206,-1.271936 4.020267,-3.639349 3.643376,-5.648346 -0.247306,-1.318246 -1.028264,-1.919329 -2.453257,-1.888201 -1.426638,0.03116 -2.293993,0.615392 -3.455656,2.327651 -1.0327404,1.522235 -1.3878906,2.64094 -1.5831187,4.986739 L 8.509262,63.854934 9.9464574,63.360468 c 0.7904556,-0.271957 1.9424196,-0.752216 2.5599206,-1.067242 z m 123.825002,0 c 2.49319,-1.271936 4.02026,-3.639349 3.64336,-5.648346 -0.2473,-1.318246 -1.02825,-1.919329 -2.45324,-1.888201 -1.42663,0.03116 -2.29399,0.615392 -3.45567,2.327651 -1.03272,1.522235 -1.38787,2.64094 -1.58311,4.986739 l -0.14846,1.783865 1.43719,-0.494466 c 0.79045,-0.271957 1.94242,-0.752216 2.55993,-1.067242 z M 116.41079,42.434727 c 2.08299,-3.221889 3.02969,-6.202365 3.02969,-9.538331 0,-3.590571 -1.15787,-4.546209 -2.65255,-2.1893 -1.40769,2.21966 -2.96143,7.304706 -3.82386,12.514481 -0.22887,1.382448 -0.4784,2.870729 -0.55454,3.307291 -0.13081,0.750073 -0.0553,0.706774 1.37326,-0.786849 0.83143,-0.869331 2.01404,-2.357612 2.628,-3.307292 z m 69.99695,34.234805 c -3.07835,-0.82782 -5.69701,-2.804747 -7.29295,-5.505782 -1.50582,-2.548501 -1.84843,-4.043426 -1.8561,-8.098425 -0.007,-3.952443 0.44968,-5.882428 1.95588,-8.25747 2.48636,-3.920591 7.26326,-6.096145 12.4533,-5.671656 6.36542,0.520621 10.52449,4.225605 11.79782,10.509704 0.7988,3.9423 0.14523,8.474514 -1.66833,11.569125 -1.58901,2.711461 -4.88905,5.030565 -7.97893,5.607233 -2.01531,0.376118 -5.72868,0.299587 -7.41069,-0.152729 z m 7.35293,-5.040992 c 1.59991,-0.797266 2.67692,-2.117375 3.38624,-4.150547 0.68421,-1.961205 0.67006,-6.903307 -0.0254,-8.902115 -0.68823,-1.977821 -2.73082,-4.027347 -4.44346,-4.458596 -2.79935,-0.704887 -4.93083,-0.247203 -6.83916,1.468564 -1.98308,1.782961 -2.48576,3.320835 -2.48807,7.611771 -0.003,3.727757 0.31705,4.907682 1.88185,6.959218 1.64627,2.15836 5.73442,2.863861 8.5281,1.471705 z m 16.16731,5.008991 c -1.52048,-0.780452 -1.55596,-1.08553 -1.57258,-13.514558 -0.0161,-12.011339 0.0296,-12.467447 1.33893,-13.384527 0.82208,-0.575815 2.84519,-0.554627 3.57613,0.03745 1.05685,0.856094 1.15544,1.429396 1.15544,6.719625 v 5.106654 l 3.24114,-3.176574 c 9.05605,-8.875625 9.32863,-9.11861 10.22938,-9.11861 1.71936,0 2.91848,1.125051 2.92777,2.746941 0.006,0.97223 -0.16727,1.191498 -3.23226,4.101041 -1.78099,1.69064 -4.05556,3.854725 -5.0546,4.809075 l -1.81647,1.735182 5.16954,4.97002 c 3.1378,3.016689 5.27804,5.281239 5.4456,5.761887 0.57039,1.636252 -0.81426,3.392519 -2.67467,3.392519 -1.24344,0 -2.67402,-1.209064 -9.20552,-7.78006 -2.54505,-2.560446 -4.71794,-4.655356 -4.82864,-4.655356 -0.11071,0 -0.20127,2.438902 -0.20127,5.419783 v 5.419785 l -0.72761,0.793639 c -0.94943,1.035605 -2.46919,1.283938 -3.77031,0.616082 z m 28.78764,-0.353769 c -3.65498,-1.93031 -3.48093,-7.55633 0.28269,-9.139067 4.19668,-1.764845 8.53236,2.403183 6.80365,6.540565 -1.14377,2.737379 -4.49593,3.966591 -7.08634,2.598502 z m 4.65315,-0.730364 c 1.30853,-0.766471 1.84613,-1.744268 1.95805,-3.561235 0.0859,-1.395265 0.006,-1.79414 -0.51895,-2.576838 -1.89053,-2.820868 -6.16757,-2.619581 -7.60902,0.358095 -0.92996,1.921028 -0.58177,3.875653 0.94406,5.299529 1.36432,1.273159 3.53226,1.472475 5.22586,0.480449 z m -4.16253,-0.760507 c -0.0958,-0.09575 -0.17409,-1.455915 -0.17409,-3.022584 0,-2.660798 0.0366,-2.860104 0.5553,-3.024735 0.79918,-0.253648 2.93672,0.116155 3.47959,0.60198 0.62082,0.555596 0.58632,1.796571 -0.0682,2.451057 l -0.53121,0.531202 0.68885,1.091173 c 0.5516,0.873829 0.61791,1.137478 0.33276,1.323657 -0.24741,0.161536 -0.51757,0.01341 -0.88524,-0.485402 -1.62264,-2.201328 -2.51354,-2.523005 -2.51354,-0.90756 0,0.976968 -0.51276,1.812697 -0.88424,1.441212 z m 2.95791,-3.49331 c 0.19463,-0.12337 0.31369,-0.5085 0.26458,-0.855845 -0.0759,-0.536702 -0.25815,-0.643755 -1.21377,-0.712896 l -1.12448,-0.08136 v 0.941255 c 0,0.88637 0.0501,0.94102 0.8599,0.937205 0.47294,-0.0021 1.01914,-0.104992 1.21377,-0.228359 z"
         style="fill:#000000;fill-opacity:1;stroke-width:0.264583" />
      <path
         id="path873"
         d="M 160.98007,59.890325 V 31.579911 h 3.17499 3.175 V 59.890325 88.20074 h -3.175 -3.17499 z M -23.616064,77.117128 c -1.578708,-0.992042 -2.150327,-2.944926 -2.377943,-8.124033 -0.190685,-4.338772 0.170664,-8.360201 1.15057,-12.804592 0.871111,-3.950948 1.523926,-5.650274 2.479513,-6.454346 1.346835,-1.133287 4.665139,-1.496642 5.742432,-0.628798 0.507997,0.409231 0.400899,1.646846 -0.441603,5.103064 -0.89704,3.679959 -1.614498,7.347428 -1.596027,8.158527 0.0071,0.312589 0.526309,-0.517139 1.159422,-1.852893 3.030165,-6.393103 7.025093,-10.592948 11.0833086,-11.651823 1.9379564,-0.505656 3.5377674,-0.218525 4.5782017,0.821682 1.17942249,1.179163 1.30727444,2.377313 0.6471311,6.064524 -0.6726475,3.757038 -0.6838712,4.708753 -0.064548,5.473584 0.40351335,0.498316 0.64072817,0.566994 1.44029633,0.416993 0.56851549,-0.106653 1.01060247,-0.363865 1.08867837,-0.633404 0.0723,-0.249605 0.2693987,-0.986607 0.4379992,-1.637779 0.9958625,-3.846284 4.1462932,-7.780326 7.5363464,-9.410876 3.1216283,-1.501442 6.6884923,-1.704512 9.4436173,-0.537644 1.111125,0.47059 2.656247,1.914107 3.223971,3.011963 0.680429,1.315802 0.994095,3.831487 0.703056,5.63867 -0.783923,4.867722 -4.563067,8.143409 -11.7217,10.160137 l -1.5198699,0.428178 0.4615365,0.642329 c 0.6506614,0.905536 2.8452734,1.924441 4.5721854,2.122754 2.74524,0.315251 6.38819,-1.057507 9.920184,-3.738186 l 1.860002,-1.411684 0.332936,-3.522303 c 0.352737,-3.731778 1.349134,-8.689919 2.207257,-10.983459 0.284065,-0.759232 0.865775,-1.674333 1.292686,-2.033556 1.346835,-1.133287 4.665138,-1.496642 5.742431,-0.628798 0.507998,0.409231 0.4009,1.646846 -0.441602,5.103064 -0.893845,3.666844 -1.61384,7.343364 -1.597734,8.158527 0.0066,0.333359 0.263787,-0.04163 0.625623,-0.912138 3.303854,-7.948416 8.138138,-12.776204 12.793392,-12.776204 3.893949,0 4.47389,2.195763 2.736133,10.359622 -0.411348,1.932442 -0.703501,3.469118 -0.649208,3.414836 0.05427,-0.05428 0.628438,-1.187124 1.2759,-2.517428 3.708294,-7.619073 9.256183,-12.170914 13.635037,-11.187051 3.226858,0.725027 3.462814,3.115535 1.309952,13.271788 -1.37541,6.48849 -1.287939,8.48012 0.380815,8.672379 1.316619,0.151688 2.046446,-0.207788 3.757295,-1.850625 l 1.668647,-1.602319 0.005,-2.550263 c 0.01085,-5.394425 1.407795,-9.119372 4.636029,-12.362214 3.746183,-3.76316 9.412711,-4.81807 13.842233,-2.576941 2.644616,1.338056 5.034491,4.803338 5.670206,8.221704 0.30607,1.645775 0.311838,1.653646 1.211447,1.653646 0.497152,0 2.113254,-0.249793 3.591319,-0.555096 1.47807,-0.305302 2.95529,-0.55831 3.28271,-0.562239 0.56637,-0.0068 0.59531,-0.108479 0.59531,-2.090737 v -2.083594 h -1.94868 c -1.54233,0 -2.08777,-0.109384 -2.615534,-0.524523 -1.214781,-0.955553 -1.242298,-3.605168 -0.0508,-4.890831 0.575674,-0.621146 0.794384,-0.670062 2.996134,-0.670062 h 2.37512 l 0.28866,-1.521354 c 2.68009,-14.125598 8.28103,-23.048205 14.5235,-23.136716 2.2937,-0.03252 3.61252,0.834046 4.76481,3.130841 1.7722,3.532373 0.98782,10.384763 -1.71953,15.021943 -1.01121,1.73202 -2.17821,3.252731 -4.0277,5.248515 l -1.16464,1.256771 h 3.85376 c 4.5013,0 4.68532,0.08351 4.68532,2.126358 0,1.070147 -0.14205,1.456592 -0.81865,2.227204 -1.2773,1.454769 -2.63257,1.731854 -8.47074,1.731854 h -4.96004 l -0.18931,1.515311 c -0.21881,1.751195 0.0387,7.524961 0.4222,9.464896 0.36692,1.856375 1.27794,3.507502 2.46565,4.468807 0.90932,0.735968 1.23198,0.830945 3.11335,0.916382 1.8428,0.08369 2.26767,0.01119 3.48227,-0.594225 0.76086,-0.379246 1.91518,-1.194221 2.56516,-1.811057 l 1.18176,-1.121518 0.0394,-2.781276 c 0.0448,-3.163639 0.54634,-5.392475 1.75233,-7.787206 0.95748,-1.901229 1.37494,-2.468586 3.1921,-4.338494 3.19698,-3.289779 8.71537,-4.527965 12.68581,-2.846382 1.11112,0.47059 2.65623,1.914107 3.22398,3.011963 0.68043,1.315802 0.99409,3.831487 0.70305,5.63867 -0.75279,4.674481 -4.24648,7.837463 -10.93737,9.902113 l -2.32307,0.716838 0.62645,0.812326 c 1.35694,1.759585 4.02,2.412984 6.68745,1.640822 1.41198,-0.408736 1.81658,-0.710274 4.12509,-3.074329 2.67478,-2.739149 3.248,-3.031307 4.15933,-2.11996 1.08215,1.082145 0.90289,4.229766 -0.34816,6.113401 -2.29653,3.457699 -5.65314,5.238109 -10.33947,5.48423 -4.17327,0.219178 -7.48921,-0.882499 -9.79397,-3.253909 -0.62635,-0.644594 -1.25016,-1.171988 -1.3861,-1.171988 -0.13595,0 -0.474,0.256212 -0.75121,0.569362 -0.7797,0.880756 -3.79648,2.740128 -5.26653,3.245988 -2.90462,0.999508 -7.20902,0.802264 -9.90941,-0.454089 -1.62219,-0.754734 -3.9892,-3.167858 -4.85418,-4.948761 -0.77975,-1.605486 -1.77287,-5.202123 -1.77287,-6.42063 0,-0.641133 -0.0823,-0.744778 -0.46302,-0.583078 -1.28505,0.545788 -4.165118,1.223333 -6.349994,1.493848 -1.794748,0.222213 -2.447396,0.403148 -2.447396,0.678503 0,0.74676 -1.426183,3.93859 -2.411756,5.397584 -4.369038,6.467723 -13.150268,7.422898 -18.170604,1.976498 l -1.043675,-1.132271 -1.520614,1.253702 c -0.836348,0.689536 -2.081345,1.55889 -2.766695,1.931897 -2.460466,1.339154 -6.188895,1.87651 -8.244575,1.188241 -3.741843,-1.25282 -4.671245,-4.66568 -3.301206,-12.122472 1.015815,-5.528947 1.124559,-6.839314 0.584782,-7.046449 -0.658098,-0.252536 -1.618932,0.513348 -2.766642,2.205334 -2.035175,3.00028 -3.602963,6.665282 -5.108548,11.942391 -1.289527,4.519755 -2.097474,5.428528 -4.663438,5.24542 -1.67891,-0.119806 -2.405205,-0.710062 -3.274427,-2.661113 -0.5206,-1.168532 -0.603864,-1.77833 -0.58351,-4.273446 0.01307,-1.600729 0.217168,-4.334222 0.453576,-6.074426 0.866134,-6.375627 0.495884,-7.64069 -1.568786,-5.360188 -1.848827,2.042091 -4.133146,7.332831 -5.685608,13.168494 -1.055042,3.96589 -1.841685,5.014489 -3.910943,5.213321 -2.160863,0.207632 -3.713292,-1.021361 -4.135935,-3.274243 -0.09233,-0.492159 -0.203004,-0.894834 -0.245944,-0.894834 -0.04294,0 -1.071467,0.597049 -2.285616,1.326775 C 17.59069,78.832602 8.9850304,78.51325 4.4606132,73.969095 3.234296,72.73743 1.43632,69.505045 1.43632,68.532048 c 0,-0.413057 -0.1281113,-0.470429 -0.72760417,-0.32584 -1.55574995,0.375224 -4.72726793,0.465259 -5.83582713,0.165672 -1.4870112,-0.401865 -3.0804907,-1.864747 -3.6469821,-3.348085 -0.3589867,-0.939993 -0.4224179,-1.710732 -0.3089037,-3.75349 0.078565,-1.413833 0.086379,-2.719433 0.017357,-2.901334 -0.2485999,-0.655245 -1.0891309,-0.307392 -2.2461699,0.929577 -2.139066,2.286833 -4.209674,6.68874 -5.889847,12.521236 -1.388414,4.819694 -1.92831,5.557977 -4.186444,5.724778 -1.055436,0.07796 -1.585539,-0.02373 -2.227971,-0.427434 z M 85.256238,70.629572 c 1.265132,-0.660948 2.243323,-1.953527 2.855912,-3.773802 l 0.598038,-1.777069 -1.426924,-1.541253 c -1.685555,-1.820609 -2.503197,-4.014843 -2.503197,-6.717702 0,-1.669671 -0.0095,-1.691902 -0.727604,-1.690565 -0.888153,0.0016 -2.474674,0.936918 -3.230377,1.904309 -1.400969,1.793422 -1.722702,3.041398 -1.72675,6.698048 -0.0034,3.179516 0.04826,3.545686 0.673338,4.7625 0.859843,1.673807 2.060813,2.508787 3.60844,2.508787 0.640557,0 1.486165,-0.167966 1.879124,-0.373253 z M 11.622778,62.67624 c 2.303428,-1.052066 3.373892,-1.945283 4.080428,-3.404791 1.033433,-2.13479 0.453049,-4.154958 -1.30461,-4.541006 -2.601656,-0.571418 -5.3266076,2.730579 -5.7836991,7.008473 -0.109736,1.027001 -0.1555697,1.911223 -0.1018514,1.964939 0.177964,0.177966 1.2348448,-0.171281 3.1097325,-1.027615 z m 123.824992,0 c 2.30344,-1.052066 3.37389,-1.945283 4.08043,-3.404791 1.03344,-2.13479 0.45305,-4.154958 -1.3046,-4.541006 -2.60165,-0.571418 -5.32662,2.730579 -5.78371,7.008473 -0.10973,1.027001 -0.15555,1.911223 -0.10184,1.964939 0.17796,0.177966 1.23483,-0.171281 3.10972,-1.027615 z M 115.52261,43.750743 c 2.47383,-3.237026 3.94412,-7.174062 4.00307,-10.719182 0.0403,-2.422335 -0.43183,-3.626178 -1.3789,-3.51609 -1.80872,0.210243 -4.44855,7.897756 -5.70558,16.615384 l -0.17151,1.189488 0.9693,-0.924904 c 0.53311,-0.508696 1.56075,-1.69881 2.28362,-2.644696 z m 71.38662,33.046999 c -1.47749,-0.288547 -4.0554,-1.545879 -5.31397,-2.591798 -4.49323,-3.734072 -5.84367,-12.372995 -2.87634,-18.400465 1.93863,-3.937902 5.72299,-6.296212 10.68515,-6.658667 3.96888,-0.289904 7.78163,0.941398 10.30507,3.327952 3.33748,3.156445 4.82872,8.718558 3.75639,14.010711 -1.38395,6.830117 -6.13508,10.663215 -13.10616,10.573775 -1.24272,-0.01595 -2.7953,-0.133622 -3.45014,-0.261508 z m 7.11729,-5.252249 c 2.43446,-1.241967 3.59834,-3.984876 3.59834,-8.480168 0,-3.942304 -0.47401,-5.406588 -2.35554,-7.276536 -1.48778,-1.478634 -2.72341,-1.98388 -4.85179,-1.98388 -2.88978,0 -4.91014,1.269453 -6.20435,3.898352 -0.86048,1.747888 -0.87582,1.841752 -0.87582,5.3565 0,3.364047 0.0441,3.671705 0.73996,5.157763 0.40698,0.869178 0.94276,1.807356 1.19062,2.084838 1.92379,2.153671 5.8746,2.714423 8.75858,1.243131 z m 16.51712,5.358688 c -0.82841,-0.161364 -1.84735,-1.277996 -2.03854,-2.23402 -0.2836,-1.417955 -0.18481,-22.237129 0.11055,-23.300611 0.51107,-1.840109 2.6113,-2.635806 4.44897,-1.685526 1.22078,0.631301 1.36128,1.334162 1.36128,6.810499 v 5.045964 l 5.83245,-5.653728 c 3.20783,-3.109547 6.15463,-5.861457 6.54843,-6.115354 2.34395,-1.511225 5.07865,1.217997 3.55886,3.551754 -0.25389,0.389879 -2.53391,2.648981 -5.06672,5.020225 l -4.6051,4.31135 5.33271,5.178311 c 5.29714,5.143778 5.3327,5.185865 5.3327,6.311064 0,1.576813 -1.08373,2.679549 -2.6334,2.679549 -1.00856,0 -1.29037,-0.188381 -3.92295,-2.622368 -1.56001,-1.442302 -4.44204,-4.24027 -6.40456,-6.217708 -1.96252,-1.977437 -3.65916,-3.59534 -3.77031,-3.59534 -0.11115,0 -0.20211,2.414288 -0.20211,5.365085 0,5.963002 -0.0766,6.268508 -1.74588,6.965987 -0.88993,0.37184 -1.08837,0.389009 -2.13638,0.184867 z m 28.35621,-0.506246 c -2.05345,-1.123431 -2.88033,-2.641449 -2.72946,-5.010816 0.082,-1.287394 0.26342,-1.851835 0.83709,-2.603934 1.47624,-1.935461 4.16671,-2.56095 6.38873,-1.485281 2.06767,1.000937 3.16891,3.45377 2.56476,5.712581 -0.38655,1.445305 -0.92897,2.220733 -2.13156,3.047244 -1.16184,0.798509 -3.76364,0.978069 -4.92956,0.340206 z m 4.10898,-0.698757 c 1.63127,-0.824084 2.37332,-2.01927 2.37332,-3.822578 0,-2.174795 -0.98949,-3.642253 -2.88375,-4.276708 -1.33371,-0.446702 -2.19369,-0.37051 -3.47684,0.308033 -1.33704,0.707046 -2.37066,2.384245 -2.37066,3.846729 0,1.214673 0.90003,3.052336 1.77606,3.626337 1.57827,1.034129 2.97297,1.130982 4.58187,0.318187 z m -0.91876,-2.064495 c -1.22307,-1.702419 -1.93593,-1.76734 -2.05052,-0.186746 -0.0593,0.8186 -0.20662,1.145958 -0.54438,1.210027 -0.41839,0.07936 -0.46302,-0.194617 -0.46302,-2.84199 v -2.929816 h 1.66092 c 1.99615,0 2.83699,0.469352 2.83699,1.583605 0,0.745326 -0.57946,1.591395 -1.08995,1.591395 -0.14211,0 0.10451,0.527468 0.54809,1.172152 0.92863,1.34974 0.93366,1.368253 0.42436,1.56369 -0.24699,0.09478 -0.71464,-0.316238 -1.32249,-1.162317 z m 0.24937,-3.028733 c 0,-0.744673 -0.0695,-0.79878 -1.12448,-0.87511 l -1.12448,-0.08136 v 0.956469 0.956468 l 1.12448,-0.08136 c 1.05495,-0.07633 1.12448,-0.130437 1.12448,-0.875109 z"
         style="fill:#000000;fill-opacity:1;stroke-width:0.264583" />
      <path
         id="path871"
         d="M 160.98007,59.890325 V 31.579911 h 3.17499 3.175 V 59.890325 88.20074 h -3.175 -3.17499 z M -23.586558,77.119353 c -3.123073,-1.904455 -3.327786,-14.464997 -0.396187,-24.308758 0.642945,-2.158892 1.234636,-3.002233 2.541452,-3.622358 1.195957,-0.567518 4.144489,-0.651391 4.766017,-0.135569 0.574614,0.47689 0.445476,1.608833 -0.757804,6.642358 -0.509416,2.13097 -1.004327,4.690814 -1.099804,5.688542 l -0.173593,1.814049 0.938075,-2.10199 c 2.308881,-5.173628 6.111882,-9.890212 9.1505556,-11.348767 4.0097286,-1.924661 7.2828651,-1.133245 7.76427707,1.877335 0.10472737,0.654926 -0.0348456,2.286865 -0.35649957,4.168346 -0.6365372,3.723341 -0.6554655,4.592682 -0.1167342,5.361829 0.42970452,0.613489 1.51933538,0.781018 2.21527949,0.340598 0.20801011,-0.131638 0.53862811,-0.873956 0.73470821,-1.649595 0.7035667,-2.783149 2.0716133,-5.18405 4.1147946,-7.221408 2.9114193,-2.903124 5.4233968,-3.930488 9.5161578,-3.891978 5.042476,0.04745 8.171386,4.052824 7.319499,9.369835 -0.74843,4.671287 -4.205116,7.806729 -10.875669,9.864941 l -2.306063,0.711539 0.45398,0.605313 c 1.299234,1.732336 4.373941,2.612837 7.137013,2.043819 1.958298,-0.403286 5.871025,-2.356339 7.757925,-3.872402 l 1.476378,-1.186219 0.328244,-3.38768 c 0.534908,-5.520547 1.863368,-11.223473 2.93044,-12.580037 0.795907,-1.01183 2.213454,-1.560195 4.107418,-1.588915 2.199061,-0.03335 2.616851,0.294108 2.433672,1.90746 -0.07499,0.660493 -0.559911,2.973416 -1.0776,5.139833 -0.989179,4.139509 -1.507154,7.770203 -0.92905,6.512101 2.772071,-6.032748 3.556495,-7.3192 6.016987,-9.86783 2.920476,-3.025092 5.730965,-4.214455 8.381548,-3.546967 1.909416,0.480846 2.378178,1.274421 2.348439,3.975785 -0.01931,1.76803 -0.65532,5.606618 -1.585489,9.571304 -0.06826,0.291042 0.413543,-0.586896 1.070689,-1.950971 3.877892,-8.049365 9.386305,-12.659788 13.910944,-11.643166 3.071972,0.690224 3.356478,2.795606 1.575409,11.657707 -1.638538,8.152757 -1.655419,9.691248 -0.112818,10.27775 0.989938,0.376367 2.572861,-0.414248 4.281222,-2.138318 l 1.389063,-1.401823 v -2.612943 c 0,-5.079846 1.499155,-9.120009 4.494265,-12.111917 2.053114,-2.050902 4.379912,-3.281588 7.032704,-3.719685 6.094651,-1.006512 10.84109,2.421028 12.522782,9.043029 l 0.494347,1.94659 1.02325,-0.08044 c 0.562795,-0.04424 1.856713,-0.261061 2.875359,-0.481819 1.018645,-0.220758 2.417635,-0.465818 3.108855,-0.544576 l 1.25677,-0.143198 V 56.417083 54.33408 h -1.94868 c -1.53752,0 -2.08839,-0.109871 -2.610673,-0.520705 -1.215495,-0.956101 -1.143979,-3.855752 0.124249,-5.037267 0.476514,-0.44395 0.934374,-0.527444 2.892454,-0.527444 2.19948,0 2.33307,-0.03246 2.44985,-0.595313 0.0679,-0.327422 0.3783,-1.845468 0.68969,-3.373437 2.49193,-12.228033 8.19137,-20.644846 13.99847,-20.672619 2.41001,-0.01154 3.72475,0.900755 4.79946,3.330297 0.76084,1.720006 1.00727,3.998899 0.73089,6.758989 -0.48419,4.835086 -2.56802,9.123809 -6.28965,12.944684 -0.73827,0.757946 -1.34231,1.429683 -1.34231,1.492742 0,0.06306 1.71791,0.114657 3.81757,0.114657 4.58697,0 4.77274,0.09303 4.58983,2.2987 -0.0844,1.017447 -0.2948,1.599392 -0.75642,2.092062 -1.27219,1.357752 -2.06391,1.521463 -7.91506,1.636713 -3.71369,0.07315 -5.48489,0.20338 -5.61835,0.413112 -0.29083,0.457052 -0.24286,6.352206 0.0721,8.864269 0.35025,2.793351 1.08005,4.740148 2.17164,5.793057 1.13454,1.09434 2.10855,1.442892 4.0549,1.451065 1.97387,0.0083 3.40537,-0.590704 5.43711,-2.27506 l 1.48773,-1.233368 -0.004,-2.707254 c -0.008,-4.965048 1.4849,-8.814058 4.6378,-11.957991 2.91143,-2.903124 5.42341,-3.930488 9.51617,-3.891978 5.04248,0.04745 8.17139,4.052824 7.31951,9.369835 -0.74882,4.673676 -4.20447,7.806472 -10.88472,9.867759 -1.27331,0.392898 -2.3151,0.755716 -2.3151,0.806262 0,0.05055 0.3684,0.511479 0.81864,1.024294 0.54729,0.623338 1.26482,1.064893 2.16469,1.332124 1.70701,0.506926 2.64771,0.503471 4.44312,-0.01632 1.25691,-0.363895 1.75845,-0.745382 4.00032,-3.042708 1.441,-1.476637 2.77997,-2.626651 3.05829,-2.626651 1.87113,0 2.39792,3.256851 0.98436,6.085956 -0.81773,1.636567 -3.22488,3.837699 -5.21571,4.769326 -5.55897,2.601359 -12.98511,1.223851 -15.90937,-2.951104 -0.39433,-0.562997 -0.40388,-0.559523 -1.78583,0.649374 -2.65713,2.324312 -5.92325,3.617277 -9.13762,3.617277 -4.83714,0 -8.38412,-2.075214 -10.41149,-6.091385 -0.87574,-1.734859 -1.84907,-5.111416 -1.84907,-6.414661 0,-0.637923 -0.0842,-0.7455 -0.46302,-0.5915 -1.38435,0.562796 -4.05815,1.189271 -6.257128,1.466059 l -2.492508,0.313733 -0.166158,0.885684 c -0.09139,0.48713 -0.659421,1.872766 -1.262274,3.079192 -3.204369,6.412367 -10.101659,9.078208 -15.976176,6.174872 -1.250104,-0.61784 -2.320925,-1.397154 -3.080332,-2.241804 l -1.164087,-1.294739 -1.833219,1.472354 c -3.032786,2.435796 -5.838984,3.428483 -8.97927,3.176409 -4.075456,-0.327138 -5.947331,-2.980464 -5.613188,-7.956589 0.07993,-1.190246 0.461195,-3.857238 0.847222,-5.92665 0.784225,-4.203861 0.794623,-5.444278 0.04683,-5.58606 -1.14763,-0.217585 -4.163695,4.312539 -5.888672,8.84475 -0.382429,1.004737 -1.138185,3.33565 -1.679522,5.179809 -1.125247,3.83347 -1.550273,4.612033 -2.8037,5.135752 -1.98974,0.831366 -3.913396,0.15812 -4.862195,-1.701678 -0.69528,-1.362861 -1.144711,-4.263792 -0.946374,-6.108522 0.08706,-0.809776 0.324387,-2.960598 0.527386,-4.779608 0.574434,-5.14728 0.60689,-5.722392 0.348948,-6.183309 -0.37175,-0.664282 -0.861097,-0.520952 -1.91502,0.560914 -1.702175,1.747305 -3.905271,6.814322 -5.722442,13.161361 -0.458031,1.599816 -1.005211,3.24219 -1.215951,3.64972 -0.822076,1.58972 -3.178556,2.246148 -4.888682,1.361808 -0.748126,-0.386871 -2.073926,-2.609615 -2.080795,-3.488515 -0.004,-0.508955 -0.259686,-0.409954 -2.218293,0.858856 -4.18334,2.710015 -9.013227,3.625468 -13.853247,2.625735 -2.55638,-0.528 -4.2885171,-1.40367 -6.0246256,-3.045608 C 3.2884932,72.778234 2.2304668,71.066552 1.6779877,69.195287 1.3698857,68.151736 1.2788506,68.063913 0.66036323,68.213606 c -0.37358901,0.09042 -1.52213993,0.233558 -2.55233743,0.318082 -2.6146733,0.214527 -4.498869,-0.357026 -5.7528961,-1.745086 -1.2582789,-1.392764 -1.6034808,-2.77528 -1.4051624,-5.627589 0.088077,-1.266753 0.089551,-2.487144 0.00328,-2.711979 -0.45788,-1.193215 -2.2950803,0.278553 -4.0635003,3.255243 -1.49358,2.51407 -2.762263,5.610574 -4.027379,9.829714 -0.589065,1.964531 -1.240594,3.904562 -1.447839,4.311179 -0.834395,1.637101 -3.354602,2.280208 -5.00108,1.276183 z M 84.576788,70.888808 c 1.595781,-0.349324 3.348011,-2.554333 3.867653,-4.867039 0.229552,-1.021681 0.197617,-1.098971 -0.899055,-2.175248 C 86.920017,63.232759 86.07552,62.002235 85.66875,61.11202 85.053435,59.765487 84.927731,59.12677 84.920746,57.311773 l -0.0085,-2.181674 -0.79375,2.19e-4 c -1.62224,5.29e-4 -3.342217,1.50622 -4.440555,3.887547 -0.512551,1.111197 -0.585549,1.71433 -0.585999,4.84121 0,3.1467 0.06699,3.697854 0.566631,4.630208 0.311944,0.582083 0.810075,1.278014 1.106964,1.546511 0.587904,0.531675 2.366751,1.22297 2.811304,1.092528 0.1524,-0.04471 0.602297,-0.152495 0.999834,-0.239514 z M 10.19674,63.320082 c 3.842726,-1.294522 6.056246,-3.518696 6.056246,-6.085403 0,-0.851104 -0.169076,-1.258303 -0.773398,-1.862622 -2.055717,-2.055719 -5.5056668,0.384035 -6.5824178,4.654992 -0.352679,1.39891 -0.6385057,3.832026 -0.4501594,3.832026 0.082365,0 0.869741,-0.242546 1.7497292,-0.538993 z m 123.82501,0 c 3.8427,-1.294522 6.05623,-3.518696 6.05623,-6.085403 0,-0.851104 -0.16907,-1.258303 -0.7734,-1.862622 -2.05571,-2.055719 -5.50566,0.384035 -6.58241,4.654992 -0.35269,1.39891 -0.63852,3.832026 -0.45016,3.832026 0.0824,0 0.86974,-0.242546 1.74974,-0.538993 z m -17.4671,-20.962378 c 2.26927,-3.51102 3.54692,-8.673154 2.83125,-11.439251 -0.28781,-1.112335 -0.44979,-1.33544 -1.01756,-1.401585 -0.80582,-0.09388 -1.29085,0.391472 -2.19602,2.197472 -1.32167,2.636967 -2.99971,9.112536 -3.7361,14.417653 l -0.16526,1.190625 1.63343,-1.695839 c 0.89837,-0.932711 2.09101,-2.403795 2.65026,-3.269075 z m 70.09,34.309455 c -6.34942,-1.685324 -9.83007,-7.04248 -9.43909,-14.527875 0.22436,-4.295243 1.41838,-7.177995 3.97433,-9.595315 2.56786,-2.428552 5.21563,-3.361002 9.43351,-3.322114 5.61226,0.05175 9.4216,2.28233 11.65894,6.82698 1.5585,3.165798 1.93053,8.230719 0.8699,11.843011 -1.36353,4.643866 -5.03658,8.06288 -9.58953,8.926332 -1.98784,0.376989 -5.18189,0.307163 -6.90806,-0.151019 z m 5.82083,-4.483605 c 2.2347,-0.386789 4.43608,-2.964068 5.04754,-5.909428 0.49146,-2.367338 0.18994,-6.477632 -0.60476,-8.244226 -0.81129,-1.803522 -2.65515,-3.496937 -4.31292,-3.961093 -1.86225,-0.521393 -4.39865,-0.216762 -5.8987,0.708459 -1.4587,0.899721 -2.79022,2.92712 -3.21101,4.889188 -0.40473,1.887182 -0.34486,5.41766 0.12287,7.245886 0.73999,2.89233 2.78305,4.973397 5.30088,5.399474 1.27513,0.21578 1.6456,0.202419 3.5561,-0.12826 z m 18.07816,4.720627 c -0.893,-0.17394 -1.8532,-1.305917 -2.03361,-2.397371 -0.288,-1.742337 -0.18902,-22.076348 0.11273,-23.16306 0.55992,-2.016223 3.19019,-2.708608 4.80677,-1.265314 l 0.86408,0.771445 0.13229,5.295744 0.13229,5.295743 5.68854,-5.548285 c 3.1287,-3.051559 6.04573,-5.781347 6.48229,-6.0662 1.19764,-0.781447 2.15371,-0.668057 3.20146,0.379693 0.96274,0.962737 1.14805,1.944653 0.55949,2.964582 -0.17674,0.306282 -2.45219,2.563474 -5.05653,5.015987 l -4.73517,4.459112 5.33048,5.214673 c 5.24094,5.127074 5.33048,5.233161 5.33048,6.315302 0,1.552495 -1.09752,2.647426 -2.65369,2.647426 -1.26288,0 -1.42161,-0.13597 -9.71558,-8.321969 l -4.56406,-4.504652 v 5.421124 c 0,4.902591 -0.0502,5.501817 -0.51541,6.26478 -0.34568,0.566899 -0.84442,0.935299 -1.52038,1.123005 -0.55327,0.153639 -1.06547,0.263793 -1.13823,0.244788 -0.0728,-0.019 -0.39103,-0.08496 -0.70726,-0.146553 z m 28.79151,-0.363614 c -2.03475,-0.814967 -3.21342,-2.555984 -3.21342,-4.746591 0,-2.881997 2.08632,-5.024484 4.89275,-5.024484 1.53374,0 2.71643,0.493424 3.71269,1.548952 3.0561,3.237939 0.75234,8.556455 -3.67681,8.488442 -0.60071,-0.0092 -1.37255,-0.129067 -1.71521,-0.266319 z m 3.435,-0.619848 c 1.68479,-0.705813 2.67306,-2.228238 2.67306,-4.117898 0,-4.619828 -6.1714,-6.223044 -8.25248,-2.143834 -1.89635,3.717161 1.7867,7.850613 5.57942,6.261732 z m -3.738,-4.104745 v -2.929816 h 1.71979 c 1.36702,0 1.82835,0.108548 2.24896,0.529167 0.87669,0.876689 0.57758,2.261555 -0.59058,2.734357 -0.22942,0.09286 -0.24699,0.204864 -0.0555,0.354354 0.45363,0.354232 1.17528,1.499349 1.17528,1.864953 0,0.69847 -0.72067,0.29715 -1.53111,-0.852623 -1.12136,-1.590873 -1.84719,-1.61622 -1.9594,-0.06843 -0.0593,0.8186 -0.20662,1.145958 -0.54438,1.210027 -0.41839,0.07936 -0.46302,-0.194617 -0.46302,-2.84199 z m 3.30729,-1.210024 c 0,-0.744673 -0.0695,-0.79878 -1.12448,-0.87511 l -1.12448,-0.08136 v 0.956469 0.956468 l 1.12448,-0.08136 c 1.05495,-0.07633 1.12448,-0.130437 1.12448,-0.875109 z"
         style="fill:#000000;fill-opacity:1;stroke-width:0.264583" />
      <path
         id="path869"
         d="M 160.98007,59.890325 V 31.579911 h 3.17499 3.175 V 59.890325 88.20074 h -3.175 -3.17499 z M -23.379252,77.218371 c -3.189303,-1.385636 -3.594848,-12.981063 -0.823502,-23.545753 1.028245,-3.919797 2.247844,-4.97749 5.580885,-4.840002 2.854015,0.117729 2.813714,-0.242855 0.89581,8.015001 -0.371771,1.600729 -0.744095,3.684323 -0.827386,4.630208 l -0.151437,1.719792 0.901332,-2.000054 c 2.795601,-6.203436 6.817016,-10.796709 10.5331736,-12.031016 1.9066324,-0.633283 4.4900081,-0.449305 5.3757881,0.382841 1.08035987,1.014945 1.26027124,2.604204 0.6764708,5.975588 -0.8517414,4.918715 -0.6212708,6.217433 1.10334684,6.217433 0.98088711,0 1.44894296,-0.516261 1.79908456,-1.984375 1.1740197,-4.922567 5.2495369,-9.395608 9.6445601,-10.585285 2.288283,-0.619408 5.924552,-0.460672 7.441122,0.324837 2.563501,1.327766 3.877279,3.666619 3.870394,6.89027 -0.01201,5.619229 -3.490817,9.29264 -10.94827,11.560672 l -2.3119079,0.703119 0.5762863,0.779468 c 0.8008116,1.083159 2.5833416,1.875269 4.5808366,2.035609 2.472677,0.198482 5.50409,-0.806283 8.521102,-2.824329 1.278538,-0.855202 2.530023,-1.781881 2.781075,-2.059292 0.337688,-0.373139 0.527164,-1.326702 0.728194,-3.664725 0.418989,-4.872897 1.669884,-10.530439 2.704203,-12.230549 0.782564,-1.286295 2.21288,-1.910003 4.380119,-1.910003 2.80167,0 2.8761,0.230042 1.671458,5.166013 -1.001901,4.105254 -1.664634,7.66627 -1.559272,8.378327 0.05609,0.379098 0.364165,-0.123473 0.937175,-1.528863 1.386994,-3.401798 3.155413,-6.13217 5.48141,-8.463091 2.545485,-2.550872 4.05729,-3.363508 6.523209,-3.506398 2.303717,-0.133491 3.207613,0.322863 3.821076,1.929177 0.552847,1.447609 0.433308,2.86734 -0.68924,8.186957 -0.42709,2.023906 -0.770731,3.750312 -0.76364,3.836458 0.0071,0.08615 0.541708,-0.959435 1.188005,-2.32351 3.387328,-7.149036 7.866565,-11.380025 12.313761,-11.631313 2.086822,-0.117917 3.195161,0.344046 3.846274,1.603142 0.654209,1.265089 0.330253,5.149564 -0.943848,11.317684 -1.428035,6.913382 -1.401577,8.417562 0.158486,9.010699 0.940038,0.357405 2.532512,-0.404997 4.230264,-2.025242 l 1.358953,-1.296916 0.124777,-3.439583 c 0.101891,-2.808242 0.254027,-3.819739 0.828913,-5.510696 1.152128,-3.38894 3.073188,-6.037109 5.59263,-7.709416 3.525838,-2.340321 8.355886,-2.800035 11.75086,-1.118417 2.700867,1.337818 4.873387,4.40782 5.813055,8.21446 l 0.466725,1.890736 1.16922,-0.08699 c 0.643096,-0.04785 2.235226,-0.315737 3.538111,-0.595312 1.30286,-0.279577 2.64232,-0.50832 2.97657,-0.50832 0.58322,0 0.60769,-0.08521 0.60769,-2.116667 v -2.116666 h -1.95506 c -1.47786,0 -2.09656,-0.114575 -2.534734,-0.469387 -1.207452,-0.977733 -1.140169,-3.934147 0.114089,-5.01301 0.609705,-0.524449 0.991495,-0.603019 2.930205,-0.603019 2.0954,0 2.23727,-0.03572 2.36397,-0.595313 0.0741,-0.327422 0.38304,-1.824355 0.68641,-3.326518 1.60862,-7.964524 4.73716,-14.691632 8.41698,-18.098518 2.18816,-2.025827 3.17066,-2.453608 5.63531,-2.453608 1.64642,0 2.1726,0.104831 2.77812,0.553495 1.06342,0.787945 1.88569,2.096783 2.37525,3.780835 0.60139,2.068745 0.36729,7.177944 -0.43762,9.550584 -1.16242,3.426421 -2.99829,6.40484 -5.38856,8.742151 -0.81561,0.797509 -1.48463,1.539314 -1.48675,1.648454 -0.003,0.109141 1.71405,0.198438 3.81371,0.198438 4.58459,0 4.77266,0.09392 4.59033,2.292564 -0.13681,1.649695 -0.63397,2.314022 -2.32248,3.103324 -1.05135,0.491453 -1.82515,0.572079 -6.61459,0.689192 l -5.42396,0.132628 0.0143,4.762499 c 0.0191,6.383636 0.57661,8.611184 2.60014,10.387882 1.20494,1.057947 3.27901,1.520307 5.04476,1.124596 1.62994,-0.365279 2.38194,-0.76695 4.18372,-2.234681 l 1.47894,-1.204725 -0.004,-2.581328 c -0.003,-1.464952 0.18235,-3.379157 0.42659,-4.4261 1.26524,-5.424101 5.17948,-9.878078 9.77402,-11.121762 2.28828,-0.619408 5.92455,-0.460672 7.44112,0.324837 2.56349,1.327766 3.87728,3.666619 3.8704,6.89027 -0.007,3.144732 -1.08357,5.623324 -3.35129,7.713638 -1.40144,1.291807 -5.23565,3.20248 -7.79862,3.886237 -0.94588,0.252346 -1.828,0.552823 -1.96024,0.667726 -0.43236,0.375624 1.76575,2.274504 3.02818,2.615946 1.53591,0.415417 3.85199,0.196414 5.20099,-0.491802 0.58918,-0.300577 1.98856,-1.534176 3.10973,-2.741329 2.34289,-2.522582 2.54175,-2.664635 3.42106,-2.443935 0.83942,0.21068 1.30054,1.340188 1.26114,3.089209 -0.0841,3.734336 -3.97462,7.543889 -8.73451,8.552795 -4.88846,1.036159 -9.58828,-0.146431 -12.36056,-3.110216 l -1.20065,-1.283584 -1.35634,1.186495 c -4.28754,3.750633 -10.08658,4.625959 -14.93499,2.254334 -3.0291,-1.481703 -5.18591,-4.81128 -6.0771,-9.381587 -0.25538,-1.309687 -0.48025,-2.412285 -0.49967,-2.450221 -0.0193,-0.03793 -0.55991,0.117967 -1.20108,0.346445 -1.35453,0.48269 -4.224147,1.072867 -6.36378,1.308801 l -1.49389,0.164727 -0.312473,1.241166 c -0.856509,3.402253 -3.727715,7.088975 -6.782938,8.709527 -4.479872,2.376217 -10.245962,1.479788 -13.457448,-2.092171 l -1.150223,-1.279308 -1.545194,1.320127 c -4.732284,4.042937 -11.429735,4.593482 -13.700336,1.126202 -1.456875,-2.224704 -1.521513,-4.922832 -0.27551,-11.503527 0.378777,-2.00057 0.651721,-4.084163 0.60653,-4.630208 -0.200527,-2.423379 -2.38453,-0.60058 -4.67516,3.901982 -1.671638,3.285826 -2.277587,4.853731 -3.477446,8.998111 -1.132522,3.911743 -1.532228,4.653851 -2.789544,5.179197 -2.928596,1.223645 -5.161663,-0.593675 -5.641334,-4.591044 -0.238099,-1.984227 -0.225965,-2.198558 0.507486,-8.963046 0.28629,-2.640409 0.447178,-4.991893 0.357526,-5.22552 -0.273608,-0.71301 -1.178226,-0.476549 -2.123035,0.55494 -1.847339,2.016826 -3.905141,6.960985 -6.188733,14.869301 -0.656066,2.272025 -1.54635,3.335208 -3.025124,3.612629 -2.225593,0.417523 -3.733017,-0.67732 -4.434946,-3.221109 l -0.30068,-1.089668 -1.786988,1.155997 c -2.287105,1.479705 -5.1321,2.602139 -7.642057,3.015124 C 13.725035,77.951097 9.3558175,77.264467 6.6623698,75.686002 4.3532638,74.332775 2.0115585,71.147478 1.5500326,68.731964 L 1.3941877,67.916312 0.02627077,68.28575 c -1.86435197,0.503515 -4.76315337,0.313266 -6.16328067,-0.404495 -2.4292745,-1.245346 -3.1658374,-3.02391 -2.8870222,-6.971228 0.1263042,-1.788144 0.090797,-2.607469 -0.1186047,-2.736887 -0.6736768,-0.416356 -1.6455282,0.201224 -2.8163312,1.789684 -2.159941,2.930451 -3.626638,6.249463 -5.362574,12.135053 -0.542468,1.839206 -1.196531,3.664852 -1.453473,4.056993 -0.869754,1.327415 -2.911239,1.798979 -4.604078,1.063501 z M 84.32427,70.986915 c 1.880129,-0.522115 3.433603,-2.357294 4.125991,-4.874212 0.285274,-1.037042 0.271331,-1.072523 -0.883311,-2.248958 -1.80123,-1.835192 -2.628159,-3.885491 -2.642685,-6.552403 l -0.01191,-2.182109 -0.80809,-7.93e-4 c -0.444447,-2.65e-4 -1.354455,0.345792 -2.022237,0.769286 -1.638035,1.038799 -2.778469,3.316867 -3.101208,6.194737 -0.579437,5.166854 1.017852,8.637216 4.211743,9.150638 0.07276,0.01169 0.582031,-0.103627 1.131703,-0.256276 z M 11.104941,63.038364 c 4.189854,-1.567627 6.472729,-5.568227 4.374647,-7.666307 -1.758767,-1.75877 -4.407172,-0.437443 -5.9693412,2.97819 -0.6191593,1.35377 -1.1891882,3.777956 -1.1932284,5.074491 -0.00185,0.564211 0.3937582,0.509397 2.7879226,-0.386374 z m 123.824989,0 c 4.18986,-1.567627 6.47274,-5.568227 4.37465,-7.666307 -1.75877,-1.75877 -4.40717,-0.437443 -5.96934,2.97819 -0.61916,1.35377 -1.18917,3.777956 -1.19322,5.074491 -0.003,0.564211 0.39375,0.509397 2.78791,-0.386374 z m -19.0687,-19.684496 c 2.43609,-3.407976 3.67474,-6.916763 3.68935,-10.45104 0.0106,-2.547972 -0.32557,-3.439584 -1.29657,-3.439584 -1.31416,0 -2.88456,3.125089 -4.22074,8.399089 -0.6055,2.390016 -1.73654,8.346164 -1.73654,9.144791 0,0.46573 2.31939,-1.911422 3.5645,-3.653256 z m 71.84175,33.557139 c -0.3638,-0.05785 -1.50146,-0.402434 -2.52812,-0.765752 -4.70535,-1.665152 -7.57277,-5.94589 -7.96843,-11.896033 -0.46905,-7.053746 2.87854,-12.61239 8.71112,-14.464701 1.91119,-0.606965 6.16384,-0.736582 8.19234,-0.249695 4.64299,1.114417 8.05963,4.657116 9.22155,9.56175 0.47943,2.023792 0.4196,6.37388 -0.11604,8.436794 -1.25447,4.83131 -4.96137,8.393218 -9.66269,9.284808 -1.37393,0.260559 -4.4844,0.309917 -5.84973,0.09283 z m 5.55509,-4.900879 c 3.10202,-1.173856 4.65891,-4.598667 4.44547,-9.779129 -0.10395,-2.522768 -0.20817,-3.011723 -0.97337,-4.566057 -1.33882,-2.719538 -3.18598,-3.831828 -6.38136,-3.84261 -3.51594,-0.01185 -5.68933,1.729526 -6.76145,5.417484 -0.61746,2.124008 -0.4269,7.137365 0.33658,8.854579 1.02555,2.306701 2.73444,3.782901 4.88611,4.220813 1.22454,0.249216 3.37256,0.101889 4.44802,-0.30508 z m 17.41799,4.883734 c -0.38891,-0.05577 -1.00533,-0.399608 -1.3698,-0.764082 -0.93697,-0.936969 -1.01798,-2.205831 -0.91868,-14.387371 0.0642,-7.873994 0.16867,-10.59716 0.42375,-11.043615 0.87522,-1.531813 3.48115,-1.792777 4.79505,-0.480187 0.68381,0.683157 0.68789,0.712718 0.81952,5.97042 l 0.13229,5.283864 6.12336,-5.923875 c 3.36785,-3.258132 6.38275,-6.006211 6.69983,-6.106839 2.1073,-0.668838 4.18666,1.897617 3.03728,3.748806 -0.25482,0.410419 -2.51952,2.651218 -5.03264,4.979551 -2.51314,2.328333 -4.57851,4.303495 -4.58972,4.389247 -0.0111,0.08575 2.36085,2.501132 5.27126,5.367514 5.07746,5.000633 5.29167,5.253222 5.29167,6.239877 0,1.470263 -1.20711,2.656486 -2.70325,2.656486 -1.18774,0 -1.25304,-0.05681 -10.32748,-8.985676 l -3.9026,-3.839998 v 5.230709 c 0,6.513668 -0.22805,7.245717 -2.38125,7.644166 -0.36381,0.06732 -0.97968,0.07677 -1.36859,0.02101 z m 28.1236,-0.644072 c -3.32439,-1.645529 -3.63263,-6.553131 -0.54012,-8.599659 2.48036,-1.641417 5.91481,-0.826265 7.22939,1.715865 2.26192,4.374089 -2.29195,9.060399 -6.68927,6.883794 z m 4.01129,-0.319588 c 2.00128,-0.856289 3.11687,-3.149015 2.55844,-5.258106 -1.01819,-3.84579 -6.16691,-4.555951 -8.11344,-1.119087 -2.09191,3.693532 1.6873,8.032077 5.555,6.377193 z m -3.7788,-4.133627 v -2.910417 h 1.71979 c 1.36702,0 1.82835,0.108548 2.24896,0.529167 0.73578,0.735782 0.66984,1.703025 -0.16066,2.356289 l -0.68982,0.542615 0.68982,0.819806 c 0.37941,0.450893 0.68982,0.989264 0.68982,1.196383 0,0.737827 -0.70495,0.358023 -1.54344,-0.831551 -0.64292,-0.912112 -0.99574,-1.18763 -1.44,-1.124479 -0.48694,0.06922 -0.60246,0.277595 -0.66979,1.208124 -0.0554,0.765627 -0.20315,1.124479 -0.46302,1.124479 -0.30935,0 -0.38166,-0.551328 -0.38166,-2.910416 z m 3.30729,-1.190625 c 0,-0.759222 -0.0547,-0.797259 -1.25677,-0.874393 l -1.25677,-0.08064 v 0.955035 0.955034 l 1.25677,-0.08064 c 1.2021,-0.07713 1.25677,-0.11517 1.25677,-0.874392 z"
         style="fill:#000000;fill-opacity:1;stroke-width:0.264583" />
      <path
         id="path867"
         d="M 160.98007,59.890325 V 31.579911 h 3.17499 3.175 V 59.890325 88.20074 h -3.175 -3.17499 z M -23.059217,77.361066 c -0.809395,-0.327435 -1.902198,-1.734738 -2.221418,-2.860728 -1.319723,-4.655065 -0.770284,-14.320585 1.200682,-21.121979 0.805312,-2.778961 1.185929,-3.372392 2.602976,-4.058372 1.27648,-0.617935 4.334341,-0.759034 4.868714,-0.224661 0.479772,0.479772 0.398561,1.211477 -0.589515,5.311526 -1.112282,4.615442 -1.5435,7.03191 -1.429081,8.008278 0.073,0.622919 0.237392,0.385824 1.01318,-1.461256 1.278749,-3.04459 3.696708,-6.687698 5.798457,-8.736465 2.2654047,-2.208297 4.3228813,-3.255954 6.6628986,-3.392722 3.8800748,-0.226777 4.9073407,1.804979 3.8105634,7.536634 -0.7507128,3.923165 -0.4182797,5.381088 1.22698934,5.381088 0.98127605,0 1.44919956,-0.516586 1.79744156,-1.984375 1.2145803,-5.119256 5.66874,-9.739182 10.3596571,-10.745205 1.888982,-0.405114 5.427421,-0.185274 6.591908,0.409549 1.27508,0.651314 2.582579,1.93032 3.263014,3.191906 0.480925,0.891678 0.571018,1.495809 0.572127,3.836458 0.0011,2.467753 -0.07858,2.948631 -0.713859,4.304308 -1.083824,2.312871 -3.167076,4.232052 -6.096945,5.61676 -1.346562,0.63641 -3.222201,1.363575 -4.168087,1.615921 -0.945885,0.252346 -1.81901,0.543835 -1.9402765,0.647753 -0.4138586,0.354642 1.6187735,2.041324 3.0214835,2.507231 2.910115,0.966584 6.793801,0.02765 10.736955,-2.595816 2.954862,-1.965928 3.011374,-2.060922 3.286969,-5.525169 0.383575,-4.821528 1.741369,-10.941137 2.778919,-12.524639 0.727067,-1.109644 2.466676,-1.75515 4.489053,-1.665726 2.72955,0.120695 2.704647,-0.128889 0.786638,7.883961 -0.365744,1.527968 -0.734153,3.611562 -0.818685,4.630208 l -0.153693,1.852083 0.899639,-2.116667 c 1.225714,-2.883855 1.646655,-3.665151 3.157897,-5.861277 2.784411,-4.046286 6.237803,-6.441222 9.288552,-6.441638 3.896079,-5.29e-4 4.489011,2.053662 2.857987,9.901174 -0.451327,2.171541 -0.816028,4.017009 -0.810419,4.101041 0.0056,0.08403 0.634259,-1.097373 1.397,-2.625341 2.414376,-4.836649 4.361709,-7.383068 7.188755,-9.40041 2.027476,-1.446781 3.459269,-1.976673 5.341091,-1.976673 1.748896,0 2.844932,0.527294 3.424132,1.647341 0.645133,1.247576 0.345149,4.820216 -0.939192,11.18495 -1.29151,6.400194 -1.35554,7.814455 -0.397139,8.772842 0.863203,0.863198 1.802024,0.717023 3.518005,-0.547754 2.566459,-1.891638 2.605908,-1.975032 2.763282,-5.843838 0.15531,-3.817244 0.590497,-5.57811 2.065946,-8.359121 3.792908,-7.14911 13.368284,-9.259598 18.553615,-4.089363 1.514157,1.50976 3.010667,4.433946 3.430243,6.702756 l 0.307472,1.662604 1.208405,-0.167479 c 0.664634,-0.09211 2.274385,-0.393797 3.57727,-0.670417 1.30286,-0.276616 2.64232,-0.502938 2.97657,-0.502938 0.58322,0 0.60769,-0.08521 0.60769,-2.116667 v -2.116666 h -1.99641 c -1.76684,0 -2.07106,-0.07467 -2.645837,-0.649433 -0.544935,-0.544952 -0.649419,-0.904383 -0.649419,-2.234202 0,-1.292834 0.117448,-1.721528 0.637593,-2.327132 0.593833,-0.691417 0.806663,-0.751435 3.101763,-0.874649 l 2.4642,-0.132292 0.31522,-1.888797 c 0.49829,-2.985613 1.88717,-7.928718 3.03763,-10.811202 2.20591,-5.526804 5.18096,-9.462986 8.32056,-11.008611 1.47704,-0.727143 1.88968,-0.815054 3.38035,-0.720137 2.15294,0.137091 3.27591,0.931801 4.31352,3.052627 1.37703,2.814524 1.17478,8.031292 -0.47749,12.315734 -0.97922,2.539196 -2.86478,5.398812 -4.83428,7.331556 -0.8105,0.795393 -1.47365,1.539534 -1.47365,1.653646 0,0.114112 1.71791,0.207476 3.81757,0.207476 4.38007,0 4.64973,0.112387 4.64812,1.937128 -0.003,1.550082 -0.80582,2.739845 -2.32119,3.433069 -1.11054,0.508029 -1.85378,0.587057 -6.67367,0.709604 l -5.42396,0.137907 -0.0782,3.571874 c -0.20272,9.25949 1.57684,12.803279 6.42821,12.801038 2.16128,-0.0011 3.42887,-0.54284 5.6224,-2.403361 l 1.38906,-1.178179 0.004,-2.691518 c 0.007,-5.058336 1.45116,-8.793313 4.62018,-11.951938 2.93405,-2.924397 5.72233,-4.003227 9.7717,-3.780816 2.41861,0.132842 3.75327,0.684792 5.08759,2.103985 1.54951,1.648039 1.81467,2.453484 1.81515,5.513289 0,2.466687 -0.0797,2.949215 -0.71475,4.304308 -1.08667,2.318901 -3.16756,4.233613 -6.09695,5.609984 -1.34657,0.632685 -3.2222,1.357405 -4.16808,1.610487 -0.94589,0.253084 -1.8183,0.546896 -1.93866,0.652914 -0.38581,0.339789 1.39404,2.060139 2.61305,2.525684 1.40549,0.536765 4.03101,0.416568 5.43137,-0.248656 1.03449,-0.491421 2.49864,-1.804577 4.21685,-3.781977 1.48902,-1.713651 2.14056,-1.937793 3.03445,-1.043911 0.57158,0.571595 0.66585,0.903687 0.66585,2.345732 0,2.160055 -0.83182,3.888382 -2.73997,5.693042 -2.21276,2.092729 -4.5317,3.078845 -7.97624,3.391826 -4.09873,0.372424 -8.00962,-0.891712 -10.28527,-3.324559 l -1.23447,-1.319741 -1.64817,1.332341 c -3.38148,2.733505 -7.05406,3.804811 -10.96111,3.197397 -1.12029,-0.17417 -2.66641,-0.604872 -3.43582,-0.95712 -3.08168,-1.410843 -5.43595,-4.952177 -6.33995,-9.53671 -0.25826,-1.309687 -0.47477,-2.401617 -0.48117,-2.426514 -0.006,-0.0249 -0.96507,0.230893 -2.1304,0.568417 -1.1653,0.337526 -2.831647,0.690322 -3.702999,0.783992 -3.337401,0.358781 -3.20421,0.296347 -3.573833,1.675262 -0.561419,2.09446 -2.077085,4.704824 -3.694483,6.36288 -4.612772,4.728747 -11.827827,4.927298 -16.306376,0.448738 l -1.475634,-1.47562 -1.048173,0.946954 c -5.243328,4.737044 -12.393613,5.103756 -14.530282,0.745201 -0.899742,-1.835385 -0.858784,-5.534522 0.117475,-10.611476 0.838703,-4.361701 0.840926,-5.709306 0.0095,-5.828074 -1.052248,-0.150331 -3.35481,3.033061 -5.146489,7.11523 -0.759645,1.730806 -1.86182,5.001151 -3.068003,9.103343 -0.25781,0.876729 -0.7806,1.904558 -1.167688,2.295647 -1.370952,1.385128 -4.184692,1.224745 -5.270714,-0.300429 -1.492388,-2.095865 -1.672699,-4.962694 -0.792178,-12.59514 0.29615,-2.567082 0.466722,-4.893442 0.379044,-5.169685 -0.248025,-0.781463 -1.163891,-0.595577 -2.134094,0.433139 -1.834021,1.944626 -3.890259,6.881436 -6.180593,14.838948 -0.659786,2.292355 -1.308711,3.167536 -2.645656,3.568094 -2.203921,0.66031 -4.180146,-0.60325 -4.801235,-3.069815 l -0.296174,-1.176213 -1.158637,0.797163 c -2.155566,1.483069 -5.4952,2.905083 -7.806542,3.324019 -3.924569,0.71134 -8.3216718,0.08763 -11.1763433,-1.585323 C 4.3640006,74.339162 2.000917,71.09455 1.5385973,68.671854 1.4171721,68.035555 1.2625073,67.837908 0.97295784,67.94902 -2.3101296,69.208857 -6.1681038,68.581911 -7.9161476,66.50448 c -1.0335048,-1.228252 -1.3077825,-2.63284 -1.0949066,-5.607058 0.1632955,-2.281496 0.1327599,-2.609617 -0.2567676,-2.759093 -1.1537922,-0.442751 -2.7135932,1.267534 -4.7347742,5.19158 -1.418958,2.754852 -2.276454,5.011049 -3.441636,9.05544 -0.491572,1.706274 -1.097246,3.41286 -1.345938,3.792413 -0.772822,1.179473 -2.853137,1.756098 -4.269047,1.183304 z m 108.927701,-7.0491 c 1.041903,-0.712716 2.131404,-2.500662 2.601595,-4.269375 0.293793,-1.105093 0.283025,-1.137584 -0.647409,-1.954516 -1.920214,-1.685983 -3.164073,-4.848405 -2.998179,-7.622802 l 0.08787,-1.469739 -0.79375,0.08983 c -3.15804,0.357423 -5.201549,3.766637 -5.25899,8.773707 -0.03196,2.784017 0.421401,4.42496 1.604274,5.8069 1.475132,1.723358 3.479377,1.96292 5.404591,0.645991 z M 11.076559,63.048982 c 2.86953,-1.073629 4.880324,-3.096067 5.110742,-5.140335 0.326932,-2.900535 -1.857875,-4.224314 -4.32825,-2.622494 -1.840735,1.193556 -3.0606577,3.704946 -3.4439728,7.089917 l -0.1766199,1.559703 0.7107502,-0.178385 c 0.3909113,-0.09811 1.3482215,-0.416896 2.1273505,-0.708406 z m 123.825011,0 c 2.86951,-1.073629 4.88032,-3.096067 5.11072,-5.140335 0.32694,-2.900535 -1.85785,-4.224314 -4.32824,-2.622494 -1.84074,1.193556 -3.06065,3.704946 -3.44398,7.089917 l -0.17661,1.559703 0.71075,-0.178385 c 0.3909,-0.09811 1.34821,-0.416896 2.12736,-0.708406 z m -19.1049,-19.529315 c 2.84287,-3.802573 4.50331,-9.654722 3.63077,-12.796538 -0.97483,-3.510073 -3.59839,-0.04402 -5.40147,7.136032 -0.63857,2.542839 -1.72924,8.24181 -1.72924,9.035652 0,0.526487 2.08936,-1.488365 3.49994,-3.375146 z m 71.05242,33.157152 c -4.61132,-1.117822 -8.0269,-4.589078 -9.22779,-9.378161 -0.52851,-2.107639 -0.45853,-6.894091 0.12956,-8.863541 1.4015,-4.69334 4.64508,-7.871713 9.05659,-8.874532 1.95881,-0.445272 5.90732,-0.372006 7.6904,0.142701 4.59931,1.327642 7.43937,4.267795 8.69019,8.996415 0.57052,2.156777 0.56986,6.641999 0,8.863541 -0.90419,3.516817 -3.25425,6.56523 -6.21967,8.067933 -2.71695,1.376775 -6.94812,1.814047 -10.11798,1.045644 z m 6.51505,-4.71946 c 1.39123,-0.5813 2.7333,-1.94252 3.50226,-3.552248 0.61037,-1.277784 0.7357,-1.940729 0.8354,-4.418777 0.26696,-6.636977 -2.23785,-10.185613 -7.18476,-10.17884 -4.29342,0.0059 -6.82374,2.584252 -7.2661,7.404036 -0.67241,7.326439 2.39155,11.712318 7.845,11.229665 0.77473,-0.06857 1.79541,-0.286293 2.2682,-0.483836 z m 17.17579,4.817017 c -0.46378,-0.121991 -1.08886,-0.534056 -1.38906,-0.915693 -0.53316,-0.677799 -0.54581,-0.972405 -0.54581,-12.706056 0,-13.347246 -0.0451,-12.998581 1.75872,-13.593894 1.22629,-0.404717 2.51081,-0.131953 3.29221,0.699096 0.61944,0.658823 0.6414,0.829188 0.76991,5.977193 l 0.13229,5.299041 5.96413,-5.810136 c 3.28028,-3.195577 6.23962,-5.957564 6.5763,-6.137754 1.77313,-0.948949 4.22518,1.187998 3.60505,3.141795 -0.0958,0.301813 -2.33897,2.591527 -4.98483,5.088255 -2.64586,2.496727 -4.84124,4.612348 -4.87862,4.701378 -0.0374,0.08903 2.31407,2.54395 5.22552,5.455377 4.90799,4.908012 5.29349,5.362411 5.29349,6.239708 0,1.656395 -1.6827,2.910067 -3.34571,2.492679 -0.41492,-0.104137 -3.32364,-2.711577 -7.14375,-6.403818 l -6.44387,-6.228159 v 5.193008 c 0,5.22088 -0.20992,6.636041 -1.06254,7.162987 -0.64149,0.396465 -1.99774,0.562182 -2.82343,0.344993 z m 28.88909,-0.273915 c -2.01795,-0.71546 -3.30729,-2.54925 -3.30729,-4.703886 0,-5.221592 7.02575,-6.892015 9.45906,-2.248959 0.53584,1.022461 0.53669,3.473035 0.003,4.497917 -1.15932,2.220237 -3.82058,3.281978 -6.15328,2.454928 z m 3.41016,-0.573503 c 4.63825,-1.937988 2.90182,-8.986882 -2.11143,-8.571144 -2.59683,0.215349 -4.24119,2.190892 -4.02214,4.832241 0.2557,3.083324 3.2842,4.929449 6.13357,3.738903 z m -3.80703,-4.130383 v -2.910417 h 1.71979 c 1.36702,0 1.82835,0.108548 2.24896,0.529167 0.71151,0.711507 0.66632,1.474382 -0.13473,2.275445 l -0.66389,0.663893 0.66389,0.87041 c 0.36515,0.478724 0.66389,1.007999 0.66389,1.176163 0,0.58602 -0.68297,0.300146 -1.14284,-0.478367 -0.69106,-1.169873 -1.20436,-1.597128 -1.91876,-1.597128 -0.58518,0 -0.64256,0.106352 -0.64256,1.190625 0,0.881944 -0.1029,1.190625 -0.39688,1.190625 -0.32872,0 -0.39687,-0.499769 -0.39687,-2.910416 z m 3.30729,-1.180722 c 0,-0.654537 -0.13941,-0.823828 -0.84503,-1.0262 -1.23518,-0.354242 -1.66851,-0.08869 -1.66851,1.022491 v 0.94884 l 1.25677,-0.08064 c 1.19835,-0.07689 1.25677,-0.117081 1.25677,-0.864489 z"
         style="fill:#000000;fill-opacity:1;stroke-width:0.264583" />
    </g>
  </g>
</svg>
