<svg width="115" height="31" xmlns="http://www.w3.org/2000/svg" xmlns:xlink="http://www.w3.org/1999/xlink"><defs><linearGradient x1="19.235%" y1="100%" x2="96.894%" y2="100%" id="a"><stop stop-color="#00EEE9" offset="0%"/><stop stop-color="#00EB86" offset="100%"/><stop stop-color="#00EB82" offset="100%"/></linearGradient><path id="b" d="M106.985 30.331h-3.211L98.805 6.45v23.925h-2.913V.361h4.67l4.924 23.968L110.242.361h4.669v30.014h-3.17V6.235z"/></defs><g fill="none" fill-rule="evenodd"><path d="M5.825 14.449c2.655 0 4.24-.858 4.24-4.117V7.46c0-2.703-.985-4.117-3.47-4.117H3.343V14.45h2.484zM6.682.299c4.711 0 6.681 2.4 6.681 6.86v2.443c0 3.301-1.156 5.36-3.726 6.175 2.741.814 3.769 3.044 3.769 6.26v4.672c0 1.33.043 2.573.6 3.603h-3.384c-.386-.858-.557-1.63-.557-3.645V21.95c0-3.386-1.585-4.459-4.368-4.459H3.341v12.82H0V.3h6.682z" fill="#000"/><path d="M30.379 3.294c-6.607 0-11.98 5.38-11.98 11.994 0 6.61 5.373 11.99 11.98 11.99 6.605 0 11.978-5.38 11.978-11.991 0-6.614-5.373-11.993-11.978-11.993zm0 27.129c-8.338 0-15.12-6.792-15.12-15.135C15.26 6.939 22.041.149 30.38.149c8.336 0 15.12 6.791 15.12 15.136 0 8.346-6.784 15.135-15.12 15.135v.003z" fill="url(#a)"/><path d="M53.746.062h.092c4.509.02 6.636 2.973 6.636 7.502v.815h-3.17v-.986c0-2.702-1.028-4.288-3.425-4.288-2.4 0-3.428 1.587-3.428 4.246 0 6.731 10.066 7.374 10.066 15.822 0 4.544-2.185 7.502-6.768 7.502s-6.724-2.958-6.724-7.502v-1.716h3.126v1.886c0 2.701 1.114 4.288 3.513 4.288s3.512-1.587 3.512-4.288c0-6.689-10.022-7.331-10.022-15.778 0-4.615 2.126-7.484 6.592-7.503zm15.932 0h.091c4.51.02 6.638 2.973 6.638 7.502v.815h-3.17v-.986c0-2.702-1.028-4.288-3.426-4.288-2.399 0-3.428 1.587-3.428 4.246 0 6.731 10.066 7.374 10.066 15.822 0 4.544-2.184 7.502-6.767 7.502s-6.725-2.958-6.725-7.502v-1.716h3.127v1.886c0 2.701 1.114 4.288 3.512 4.288 2.398 0 3.512-1.587 3.512-4.288 0-6.689-10.023-7.331-10.023-15.778 0-4.615 2.127-7.484 6.593-7.503zm16.198 30.656h.076c4.599-.017 6.686-3.058 6.686-7.59V.362h-3.126V23.3c0 2.702-1.07 4.33-3.469 4.33-2.441 0-3.511-1.63-3.511-4.33V.36h-3.3v22.77c0 4.532 2.087 7.572 6.644 7.589z" fill="#000"/><use fill="#000" xlink:href="#b"/></g></svg>