<?xml version="1.0" encoding="UTF-8" standalone="no"?>
<svg
   width="353.69495"
   height="109.446"
   viewBox="0 0 353.69496 109.446"
   version="1.1"
   id="svg859"
   sodipodi:docname="sda.svg"
   inkscape:version="1.1.2 (b8e25be8, 2022-02-05)"
   xmlns:inkscape="http://www.inkscape.org/namespaces/inkscape"
   xmlns:sodipodi="http://sodipodi.sourceforge.net/DTD/sodipodi-0.dtd"
   xmlns="http://www.w3.org/2000/svg"
   xmlns:svg="http://www.w3.org/2000/svg">
  <defs
     id="defs863" />
  <sodipodi:namedview
     id="namedview861"
     pagecolor="#ffffff"
     bordercolor="#666666"
     borderopacity="1.0"
     inkscape:pageshadow="2"
     inkscape:pageopacity="0.0"
     inkscape:pagecheckerboard="0"
     showgrid="false"
     fit-margin-top="0"
     fit-margin-left="0"
     fit-margin-right="0"
     fit-margin-bottom="0"
     inkscape:zoom="3.2571081"
     inkscape:cx="147.83053"
     inkscape:cy="61.404165"
     inkscape:window-width="1377"
     inkscape:window-height="847"
     inkscape:window-x="63"
     inkscape:window-y="25"
     inkscape:window-maximized="1"
     inkscape:current-layer="svg859" />
  <g
     id="Group_722"
     data-name="Group 722"
     transform="translate(-1400.9291,-445.912)">
    <path
       id="Path_678"
       data-name="Path 678"
       d="m 1412.3,482.394 36.482,-36.482 h -13.949 l -32.082,32.081 a 6.224,6.224 0 0 0 0,8.8 l 32.082,32.081 h 13.949 z" />
    <path
       id="Path_679"
       data-name="Path 679"
       d="m 1539.844,577.589 -36.482,36.482 h 13.948 l 32.082,-32.082 a 6.223,6.223 0 0 0 0,-8.8 l -32.082,-32.081 h -13.948 z"
       transform="translate(-63.175,-58.713)" />
    <g
       id="Group_675"
       data-name="Group 675"
       transform="translate(1526.406,447.234)">
      <g
         id="Group_671"
         data-name="Group 671">
        <g
           id="Group_670"
           data-name="Group 670">
          <path
             id="Path_680"
             data-name="Path 680"
             d="m 1736.512,476.35 c 2.81,0.62 6.459,1.787 6.386,5.691 a 4.848,4.848 0 0 1 -2.045,4.123 8.356,8.356 0 0 1 -5.071,1.5 c -3.613,0 -6.276,-1.6 -7.443,-4.268 l 3.394,-1.971 a 3.85,3.85 0 0 0 4.049,2.627 c 2.08,0 3.1,-0.693 3.1,-2.043 0,-1.168 -1.533,-1.861 -3.466,-2.335 -2.736,-0.694 -6.421,-1.788 -6.348,-5.62 a 4.912,4.912 0 0 1 1.9,-4.049 8.015,8.015 0 0 1 11.528,2.262 l -3.32,1.861 a 3.445,3.445 0 0 0 -3.43,-2.079 c -1.495,0 -2.663,0.656 -2.663,1.933 0,1.2 1.532,1.824 3.429,2.372"
             transform="translate(-1728.34,-461.145)" />
          <path
             id="Path_681"
             data-name="Path 681"
             d="m 1783.009,483.829 a 5.5,5.5 0 0 0 4.049,-1.642 6,6 0 0 0 0,-8.246 5.816,5.816 0 0 0 -8.1,0 6,6 0 0 0 0,8.246 5.505,5.505 0 0 0 4.05,1.642 m -6.823,1.058 a 9.78,9.78 0 1 1 6.823,2.772 9.277,9.277 0 0 1 -6.823,-2.772"
             transform="translate(-1756.117,-461.145)" />
          <path
             id="Path_682"
             data-name="Path 682"
             d="m 1840.378,453.181 c -2.882,-0.255 -4.306,0.949 -4.306,3.612 v 0.366 h 4.306 v 3.793 h -4.306 V 475.4 h -3.94 v -14.448 h -2.774 v -3.793 h 2.774 v -0.366 c 0,-5 2.846,-7.734 8.246,-7.406 z"
             transform="translate(-1790.645,-449.361)" />
          <path
             id="Path_683"
             data-name="Path 683"
             d="m 1875.267,465.28 h -4.525 v 8.757 c 0,2.335 1.534,2.3 4.525,2.152 v 3.539 c -6.02,0.729 -8.465,-0.912 -8.465,-5.691 v -8.757 h -3.356 v -3.794 h 3.356 v -3.94 l 3.939,-1.168 v 5.109 h 4.525 z"
             transform="translate(-1811.669,-453.689)" />
        </g>
        <path
           id="Path_684"
           data-name="Path 684"
           d="m 1924.378,469.708 h 4.158 l -5.727,18.242 h -3.868 l -3.794,-12.295 -3.83,12.295 h -3.867 l -5.729,-18.242 h 4.159 l 3.538,12.588 3.831,-12.588 h 3.759 l 3.792,12.592 z"
           transform="translate(-1835.276,-461.91)" />
        <path
           id="Path_685"
           data-name="Path 685"
           d="m 1986.358,483.9 a 5.607,5.607 0 0 0 4.122,-1.642 5.778,5.778 0 0 0 1.642,-4.2 5.639,5.639 0 0 0 -1.642,-4.16 5.9,5.9 0 0 0 -8.246,0 5.639,5.639 0 0 0 -1.641,4.16 5.778,5.778 0 0 0 1.641,4.2 5.612,5.612 0 0 0 4.124,1.642 m 5.764,-14.959 h 3.94 v 18.242 h -3.94 v -2.627 a 7.367,7.367 0 0 1 -6.384,3.1 8.547,8.547 0 0 1 -6.423,-2.772 10.074,10.074 0 0 1 0,-13.645 8.543,8.543 0 0 1 6.423,-2.774 7.423,7.423 0 0 1 6.384,3.066 z"
           transform="translate(-1881.491,-461.145)" />
        <path
           id="Path_686"
           data-name="Path 686"
           d="m 2045.145,472.244 c 0.986,-2.262 2.882,-3.392 5.619,-3.392 v 4.268 a 5.7,5.7 0 0 0 -3.94,1.1 4.582,4.582 0 0 0 -1.678,4.013 v 9.194 h -3.94 V 469.18 h 3.94 z"
           transform="translate(-1921.305,-461.382)" />
        <path
           id="Path_687"
           data-name="Path 687"
           d="m 2085.629,476.533 a 5.084,5.084 0 0 0 -5.217,-4.488 5.3,5.3 0 0 0 -5.51,4.488 z m -10.69,3.21 c 0.584,2.773 2.809,4.306 5.837,4.306 a 5.406,5.406 0 0 0 4.707,-2.262 l 3.248,1.9 a 8.976,8.976 0 0 1 -7.991,3.977 9.856,9.856 0 0 1 -7.187,-2.7 10.012,10.012 0 0 1 -0.037,-13.718 9.209,9.209 0 0 1 6.933,-2.772 8.548,8.548 0 0 1 6.566,2.81 9.748,9.748 0 0 1 2.591,6.822 10.783,10.783 0 0 1 -0.146,1.642 z"
           transform="translate(-1939.568,-461.147)" />
      </g>
      <g
         id="Group_673"
         data-name="Group 673"
         transform="translate(0.13,35.879)">
        <path
           id="Path_688"
           data-name="Path 688"
           d="m 1738.386,568.094 a 5.608,5.608 0 0 0 4.122,-1.641 5.779,5.779 0 0 0 1.642,-4.2 5.64,5.64 0 0 0 -1.642,-4.159 5.9,5.9 0 0 0 -8.246,0 5.64,5.64 0 0 0 -1.641,4.159 5.779,5.779 0 0 0 1.641,4.2 5.608,5.608 0 0 0 4.124,1.641 m 5.764,-22.254 h 3.94 v 25.539 h -3.94 v -2.628 a 7.367,7.367 0 0 1 -6.385,3.1 8.54,8.54 0 0 1 -6.422,-2.772 10.071,10.071 0 0 1 0,-13.645 8.541,8.541 0 0 1 6.422,-2.772 7.425,7.425 0 0 1 6.385,3.065 z"
           transform="translate(-1728.68,-544.745)" />
        <path
           id="Path_689"
           data-name="Path 689"
           d="m 1805.381,571.7 a 5.084,5.084 0 0 0 -5.217,-4.488 5.3,5.3 0 0 0 -5.51,4.488 z m -10.69,3.21 c 0.584,2.773 2.809,4.306 5.837,4.306 a 5.4,5.4 0 0 0 4.706,-2.262 l 3.249,1.9 a 8.98,8.98 0 0 1 -7.991,3.976 9.855,9.855 0 0 1 -7.188,-2.7 10.013,10.013 0 0 1 -0.036,-13.717 9.21,9.21 0 0 1 6.933,-2.773 8.548,8.548 0 0 1 6.566,2.811 9.748,9.748 0 0 1 2.591,6.822 10.744,10.744 0 0 1 -0.146,1.641 z"
           transform="translate(-1766.851,-555.724)" />
        <path
           id="Path_690"
           data-name="Path 690"
           d="m 1857.61,564.881 h 4.3 l -7.114,18.242 h -4.561 l -7.114,-18.242 h 4.3 l 5.108,13.864 z"
           transform="translate(-1799.267,-556.489)" />
        <g
           id="Group_672"
           data-name="Group 672"
           transform="translate(64.11,7.916)">
          <path
             id="Path_691"
             data-name="Path 691"
             d="m 1910.781,571.7 a 5.084,5.084 0 0 0 -5.217,-4.488 5.3,5.3 0 0 0 -5.51,4.488 z m -10.69,3.21 c 0.584,2.773 2.809,4.306 5.837,4.306 a 5.4,5.4 0 0 0 4.706,-2.262 l 3.249,1.9 a 8.979,8.979 0 0 1 -7.991,3.976 9.856,9.856 0 0 1 -7.188,-2.7 10.013,10.013 0 0 1 -0.036,-13.717 9.21,9.21 0 0 1 6.933,-2.773 8.548,8.548 0 0 1 6.566,2.811 9.749,9.749 0 0 1 2.591,6.822 10.741,10.741 0 0 1 -0.146,1.641 z"
             transform="translate(-1895.968,-563.64)" />
        </g>
        <rect
           id="Rectangle_497"
           data-name="Rectangle 497"
           width="3.9400001"
           height="26.634001"
           transform="translate(87.097)"
           x="0"
           y="0" />
        <path
           id="Path_692"
           data-name="Path 692"
           d="m 1987,579 a 5.505,5.505 0 0 0 4.049,-1.641 6,6 0 0 0 0,-8.247 5.818,5.818 0 0 0 -8.1,0 6,6 0 0 0 0,8.247 A 5.508,5.508 0 0 0 1987,579 m -6.823,1.058 a 9.782,9.782 0 1 1 6.823,2.772 9.279,9.279 0 0 1 -6.823,-2.772"
           transform="translate(-1882.066,-555.724)" />
        <path
           id="Path_693"
           data-name="Path 693"
           d="m 2048.583,579.074 a 5.609,5.609 0 0 0 4.122,-1.641 5.779,5.779 0 0 0 1.643,-4.2 5.637,5.637 0 0 0 -1.643,-4.159 5.9,5.9 0 0 0 -8.245,0 5.642,5.642 0 0 0 -1.642,4.159 5.785,5.785 0 0 0 1.642,4.2 5.612,5.612 0 0 0 4.123,1.641 m 7.042,-12.623 a 10.026,10.026 0 0 1 0,13.609 8.535,8.535 0 0 1 -6.421,2.772 7.424,7.424 0 0 1 -6.385,-3.064 v 9.888 h -3.94 v -25.539 h 3.94 v 2.626 a 7.366,7.366 0 0 1 6.385,-3.1 8.572,8.572 0 0 1 6.421,2.81"
           transform="translate(-1920,-555.725)" />
        <path
           id="Path_694"
           data-name="Path 694"
           d="m 2127.582,571.048 v 11.31 h -3.94 V 571.3 c 0,-2.517 -1.35,-3.976 -3.54,-3.976 -2.444,0 -3.976,1.606 -3.976,4.817 v 10.214 h -3.941 V 571.3 c 0,-2.517 -1.24,-3.976 -3.429,-3.976 -2.372,0 -4.05,1.642 -4.05,4.817 v 10.214 h -3.939 v -18.24 h 3.939 v 2.185 a 5.824,5.824 0 0 1 5.219,-2.665 5.576,5.576 0 0 1 5.18,2.882 6.1,6.1 0 0 1 5.582,-2.882 c 4.123,0 6.9,2.882 6.9,7.408"
           transform="translate(-1958.17,-555.724)" />
        <path
           id="Path_695"
           data-name="Path 695"
           d="m 2195.84,571.7 a 5.084,5.084 0 0 0 -5.217,-4.488 5.3,5.3 0 0 0 -5.509,4.488 z m -10.691,3.21 c 0.584,2.773 2.81,4.306 5.837,4.306 a 5.405,5.405 0 0 0 4.707,-2.262 l 3.248,1.9 a 8.979,8.979 0 0 1 -7.991,3.976 9.851,9.851 0 0 1 -7.187,-2.7 10.011,10.011 0 0 1 -0.037,-13.717 9.211,9.211 0 0 1 6.933,-2.773 8.545,8.545 0 0 1 6.566,2.811 9.748,9.748 0 0 1 2.591,6.822 10.578,10.578 0 0 1 -0.146,1.641 z"
           transform="translate(-2007.673,-555.724)" />
        <path
           id="Path_696"
           data-name="Path 696"
           d="m 2257.61,571.158 v 11.2 h -3.94 v -10.8 c 0,-2.737 -1.568,-4.233 -4.087,-4.233 -2.772,0 -4.633,1.716 -4.633,5.255 v 9.777 h -3.94 v -18.24 h 3.94 v 2.335 a 6.237,6.237 0 0 1 5.655,-2.81 c 4.2,0 7.005,2.846 7.005,7.516"
           transform="translate(-2044.668,-555.725)" />
        <path
           id="Path_697"
           data-name="Path 697"
           d="m 2304.817,560.455 h -4.524 v 8.756 c 0,2.335 1.533,2.3 4.524,2.153 v 3.536 c -6.02,0.729 -8.465,-0.911 -8.465,-5.691 v -8.756 H 2293 v -3.794 h 3.356 v -3.939 l 3.94,-1.167 v 5.108 h 4.524 z"
           transform="translate(-2076.732,-548.269)" />
      </g>
      <g
         id="Group_674"
         data-name="Group 674"
         transform="translate(0.13,73.465)">
        <path
           id="Path_698"
           data-name="Path 698"
           d="m 1738.386,674.292 a 5.613,5.613 0 0 0 4.122,-1.641 5.786,5.786 0 0 0 1.642,-4.2 5.637,5.637 0 0 0 -1.642,-4.159 5.9,5.9 0 0 0 -8.246,0 5.637,5.637 0 0 0 -1.641,4.159 5.786,5.786 0 0 0 1.641,4.2 5.613,5.613 0 0 0 4.124,1.641 m 5.764,-14.958 h 3.94 v 18.241 h -3.94 v -2.627 a 7.367,7.367 0 0 1 -6.385,3.1 8.546,8.546 0 0 1 -6.422,-2.77 10.072,10.072 0 0 1 0,-13.647 8.543,8.543 0 0 1 6.422,-2.775 7.425,7.425 0 0 1 6.385,3.066 z"
           transform="translate(-1728.68,-652.036)" />
        <path
           id="Path_699"
           data-name="Path 699"
           d="m 1793.3,675.279 a 9.358,9.358 0 0 1 -2.736,-6.823 9.24,9.24 0 0 1 2.736,-6.824 9.353,9.353 0 0 1 6.9,-2.773 8.984,8.984 0 0 1 8.135,4.707 l -3.392,1.971 a 5.077,5.077 0 0 0 -4.78,-2.809 5.5,5.5 0 0 0 -4.05,1.642 6.006,6.006 0 0 0 0,8.172 5.5,5.5 0 0 0 4.05,1.642 5.326,5.326 0 0 0 4.852,-2.81 l 3.393,1.935 a 9.182,9.182 0 0 1 -8.208,4.741 9.355,9.355 0 0 1 -6.9,-2.77"
           transform="translate(-1766.85,-652.037)" />
        <path
           id="Path_700"
           data-name="Path 700"
           d="m 1852.737,674.292 a 5.61,5.61 0 0 0 4.122,-1.641 5.787,5.787 0 0 0 1.642,-4.2 5.638,5.638 0 0 0 -1.642,-4.159 5.9,5.9 0 0 0 -8.246,0 5.637,5.637 0 0 0 -1.641,4.159 5.786,5.786 0 0 0 1.641,4.2 5.615,5.615 0 0 0 4.124,1.641 m 5.764,-14.958 h 3.94 v 18.241 h -3.94 v -2.627 a 7.366,7.366 0 0 1 -6.384,3.1 8.546,8.546 0 0 1 -6.422,-2.77 10.075,10.075 0 0 1 0,-13.647 8.543,8.543 0 0 1 6.422,-2.775 7.423,7.423 0 0 1 6.384,3.066 z"
           transform="translate(-1799.209,-652.036)" />
        <path
           id="Path_701"
           data-name="Path 701"
           d="m 1914.621,663.313 a 5.606,5.606 0 0 0 4.123,-1.641 5.781,5.781 0 0 0 1.642,-4.2 5.634,5.634 0 0 0 -1.642,-4.159 5.9,5.9 0 0 0 -8.246,0 5.635,5.635 0 0 0 -1.641,4.159 5.782,5.782 0 0 0 1.641,4.2 5.609,5.609 0 0 0 4.123,1.641 m 5.765,-22.255 h 3.94 V 666.6 h -3.94 v -2.63 a 7.366,7.366 0 0 1 -6.385,3.1 8.541,8.541 0 0 1 -6.421,-2.77 10.072,10.072 0 0 1 0,-13.647 8.538,8.538 0 0 1 6.42,-2.773 7.423,7.423 0 0 1 6.385,3.066 z"
           transform="translate(-1837.377,-641.058)" />
        <path
           id="Path_702"
           data-name="Path 702"
           d="m 1981.616,666.923 a 5.084,5.084 0 0 0 -5.217,-4.489 5.3,5.3 0 0 0 -5.509,4.489 z m -10.689,3.209 c 0.583,2.772 2.809,4.3 5.836,4.3 a 5.4,5.4 0 0 0 4.707,-2.26 l 3.248,1.9 a 8.973,8.973 0 0 1 -7.991,3.977 9.857,9.857 0 0 1 -7.187,-2.7 10.013,10.013 0 0 1 -0.037,-13.718 9.21,9.21 0 0 1 6.933,-2.773 8.548,8.548 0 0 1 6.566,2.811 9.749,9.749 0 0 1 2.591,6.823 10.914,10.914 0 0 1 -0.145,1.641 z"
           transform="translate(-1875.546,-652.036)" />
        <path
           id="Path_703"
           data-name="Path 703"
           d="m 2053.6,666.265 v 11.31 h -3.94 V 666.52 c 0,-2.516 -1.349,-3.976 -3.54,-3.976 -2.444,0 -3.976,1.605 -3.976,4.817 v 10.214 h -3.941 V 666.52 c 0,-2.516 -1.24,-3.976 -3.43,-3.976 -2.371,0 -4.049,1.642 -4.049,4.817 v 10.214 h -3.94 v -18.242 h 3.94 v 2.189 a 5.829,5.829 0 0 1 5.219,-2.665 5.576,5.576 0 0 1 5.181,2.885 6.1,6.1 0 0 1 5.583,-2.885 c 4.122,0 6.9,2.885 6.9,7.408"
           transform="translate(-1912.542,-652.036)" />
        <path
           id="Path_704"
           data-name="Path 704"
           d="m 2117.653,660.1 h 4.2 l -7,18.825 c -1.752,4.707 -4.707,6.97 -8.9,6.713 v -3.685 c 2.48,0.147 3.867,-1.058 4.852,-3.575 l 0.182,-0.364 -7.735,-17.913 h 4.305 l 5.436,13.244 z"
           transform="translate(-1959.697,-652.802)" />
      </g>
    </g>
  </g>
</svg>
