<?xml version="1.0" encoding="UTF-8" standalone="no"?>
<svg
   xmlns:dc="http://purl.org/dc/elements/1.1/"
   xmlns:cc="http://creativecommons.org/ns#"
   xmlns:rdf="http://www.w3.org/1999/02/22-rdf-syntax-ns#"
   xmlns:svg="http://www.w3.org/2000/svg"
   xmlns="http://www.w3.org/2000/svg"
   xmlns:sodipodi="http://sodipodi.sourceforge.net/DTD/sodipodi-0.dtd"
   xmlns:inkscape="http://www.inkscape.org/namespaces/inkscape"
   inkscape:version="1.0 (4035a4f, 2020-05-01)"
   height="87.988739"
   width="434.24637"
   sodipodi:docname="seznam_logo.svg"
   version="1.1"
   viewBox="0 0 434.24636 87.988741"
   id="Vrstva_1">
  <metadata
     id="metadata844">
    <rdf:RDF>
      <cc:Work
         rdf:about="">
        <dc:format>image/svg+xml</dc:format>
        <dc:type
           rdf:resource="http://purl.org/dc/dcmitype/StillImage" />
        <dc:title></dc:title>
      </cc:Work>
    </rdf:RDF>
  </metadata>
  <defs
     id="defs842" />
  <sodipodi:namedview
     inkscape:current-layer="Vrstva_1"
     inkscape:window-maximized="1"
     inkscape:window-y="23"
     inkscape:window-x="53"
     inkscape:cy="52.725593"
     inkscape:cx="226.19637"
     inkscape:zoom="0.8160114"
     fit-margin-bottom="0"
     fit-margin-right="0"
     fit-margin-left="0"
     fit-margin-top="0"
     showgrid="false"
     id="namedview840"
     inkscape:window-height="755"
     inkscape:window-width="1227"
     inkscape:pageshadow="2"
     inkscape:pageopacity="0"
     guidetolerance="10"
     gridtolerance="10"
     objecttolerance="10"
     borderopacity="1"
     bordercolor="#666666"
     pagecolor="#ffffff" />
  <style
     id="style833">.st0{fill:#d50911}.st0,.st1{fill-rule:evenodd;clip-rule:evenodd}</style>
  <path
     id="path835"
     d="m 42.646365,4.7755929 c -2.5,0.4 -4.9,0.9 -7.3,1.4 -1.6,0.3 -3.2,0.7 -4.8,1.1 -1.5,0.4 -3,0.7 -4.4,1.2 -1.4,0.4 -2.8,0.9 -4.1,1.4 -2.6,1.0000001 -5.1,2.5000001 -7.3,4.3000001 -1.3,1.1 -2.6,2.3 -3.6,3.8 -0.7,1 -1.3,2 -1.9,3.1 -0.6,1 -0.9,2.3 -0.9,3.5 0,3.5 2.2,6.5 4.8,8.7 0.8,0.7 1.7,1.4 2.6,2 2.7,1.9 5.6,3.5 8.6,5 3.1,1.5 6.2,2.9 9.3,4.2 3,1.3 6,2.3 9.1,3.4 0.9,0.3 1.8,0.6 2.6,0.9 2.8,0.9 5.6,1.8 8.4,2.8 1.7,0.6 3.5,1.2 5.2,2 1.8,0.8 3.6,1.6 5.2,2.8 1.1,0.8 2,1.7 2.6,2.8 0.7,1.1 1.1,2.4 1.1,3.6 0,1.2 -0.3,2.4 -1,3.5 -1.7,2.7 -4.7,4.5 -7.6,5.8 -4.3,1.8 -8.7,3.4 -13.2,4.7 -2.6,0.8 -5.1,1.5 -7.7,2.2 l -7.8,2.1 c -2.6,0.7 -5.2,1.3 -7.8,1.8 -1.5,0.3 -3,0.6 -4.5,1 l -2.7,0.6 c -1.9,0.4 -3.7,0.8 -5.6,1.2 -2.1,0.5 -4.3,0.9 -6.4,1.4 -0.6,0.1 -1.2,0.3 -1.9,0.4 -0.6,0.1 -2.59999995,0.6 -1.09999995,0.5 2.09999995,-0.1 7.89999995,-0.6 20.09999995,-2.3 4.4,-0.7 8.9,-1.4 13.3,-2.1 5.5,-0.9 11,-2 16.5,-3.3 1.6,-0.4 3.1,-0.8 4.7,-1.2 l 3,-0.9 c 4.3,-1.3 11.2,-3.7 12.8,-4.4 6.2,-2.7 10.1,-4.8 12.1,-9.7 0.7,-1.7 1,-3.7 0.8,-5.6 -0.2,-1.7 -0.8,-3.4 -1.7,-4.9 -0.9,-1.4 -2,-2.6 -3.2,-3.8 -2.3,-2.1 -4.8,-3.8 -7.5,-5.2 -0.8,-0.4 -1.5,-0.8 -2.3,-1.1 -1,-0.5 -2,-0.9 -3,-1.3 -1.4,-0.6 -2.8,-1.1 -4.3,-1.6 -3.7,-1.3 -7.5,-2.4 -11.3,-3.7 -2.1,-0.7 -4.2,-1.5 -6.3,-2.3 -0.9,-0.4 -1.7,-0.8 -2.6,-1.2 -1,-0.5 -2,-1 -2.9,-1.6 -1.2,-0.7 -3.1,-1.9 -2.6,-3.6 0.4,-1.2 1.7,-1.7 2.7,-2.1 1,-0.4 2,-0.7 3,-0.9 3.1,-0.8 6.3,-1.3 9.4,-2 0.9,-0.2 1.8,-0.4 2.8,-0.6 2.4,-0.6 5,-1 7.3,-1.9 2,-0.8 4.6,-2.1 5.3,-4.2 1.1,-3.2 -0.1,-6.7000001 -1.9,-9.4000001 -0.6,-1 -1.3,-1.9 -1.9,-2.9 -0.9,-1.3 -1.9,-2.5 -2.9,-3.70000001 -0.4,-0.6 -1,-0.5 -1.5,-0.4 -0.8,0.2 -2.4,2.10000001 -15.8,4.70000001"
     class="st0" />
  <path
     id="path837"
     d="m 245.34637,36.875593 0.2,-0.4 0.2,-0.4 0.2,-0.3 0.2,-0.3 0.1,-0.3 0.1,-0.2 0.1,-0.2 0.1,-0.1 0.3,-0.6 0.2,-0.3 0.2,-0.3 0.5,-0.8 0.3,-0.4 0.3,-0.5 0.1,-0.1 h 0.1 l 0.2,0.1 0.1,0.1 0.2,0.2 0.3,0.4 0.3,0.6 0.4,0.8 0.4,1 0.4,1.2 0.1,0.2 0.1,0.3 0.2,0.4 0.2,0.6 v 0.2 l 0.1,0.3 0.1,0.2 v 0.8 l -0.2,0.2 -0.1,0.1 -0.3,0.1 -0.3,0.1 -0.4,0.1 h -0.4 l -2.5,0.2 h -2.5 l -0.3,-0.1 -0.2,-0.1 -0.2,-0.1 -0.1,-0.1 -0.1,-0.2 v -0.4 l 0.1,-0.3 0.2,-0.3 0.2,-0.3 0.2,-0.3 0.2,-0.2 0.1,-0.2 0.1,-0.2 0.2,-0.2 m -16.3,12.2 0.4,0.1 c 1.4,0.4 2.1,1.3 1,2.6 -0.3,0.4 -0.6,0.8 -0.9,1.3 l -0.2,0.4 c -0.2,0.4 -0.4,0.7 -0.4,1.2 v 0.2 c 0.1,0.6 0.6,1.3 0.9,1.8 0.6,1.1 1.3,2.1 2.1,3.1 0.1,0.2 1.7,-2.5 1.9,-2.7 0.6,-0.8 1.3,-1.5 1.9,-2.3 0.8,-1 1.6,-1.9 2.7,-2.6 1.1,-0.6 2.3,-0.9 3.6,-1 1.2,-0.1 2.5,-0.2 3.7,-0.3 2.5,-0.1 5.1,-0.4 7.6,-0.7 1,-0.1 2.4,-0.3 3.3,0.1 0.9,0.5 1.5,1.3 2.2,2 0.8,0.8 1.6,1.7 2.3,2.6 0.9,1 1.7,2.1 2.7,3.1 0.6,0.6 1.3,1.1 2,1.7 l 0.4,0.2 c 1.3,0.6 2.1,-0.2 2.4,-1.5 0.4,-1.9 -0.7,-3.7 -1.5,-5.3 -0.5,-0.9 -0.9,-1.8 -1.3,-2.6 -0.3,-0.7 -0.7,-1.9 -0.1,-2.6 0.5,-0.5 1.5,-0.6 2.1,-0.7 0.8,-0.2 1.5,-0.4 2.3,-0.6 1.5,-0.3 3.1,-0.7 4.7,-0.9 0.9,-0.1 2.3,-0.8 3.1,0 1,1 0,2.9 -0.3,4 -0.6,1.8 -1.3,3.6 -1.5,5.5 -0.2,1.7 0.2,3.6 1.3,4.9 0.8,1 2.2,1.9 3.4,1.1 1,-0.6 1.7,-1.8 2.2,-2.9 0.8,-2 1.4,-4.1 2.1,-6.1 0.6,-1.8 1.2,-3.7 1.9,-5.5 0.5,-1.3 1.1,-2.6 1.6,-4 0.3,-0.9 0.8,-1.7 1.1,-2.5 0.3,-0.7 0.4,-1.6 1.1,-2.1 0.9,-0.5 1.9,1 2.3,1.6 0.8,1 1.5,2.1 2.2,3.1 0.8,1.1 1.5,2.7 2.8,3.3 2.2,1.1 4.2,-1.5 5.4,-2.9 0.9,-1 1.7,-2 2.6,-3 0.9,-1 1.9,-2.1 2.8,-3.1 0.6,-0.7 1.4,-2 2.4,-2 0.9,0 1.1,0.9 1.1,1.6 0.4,3.3 0.5,6.6 1,9.9 l 0.6,3.6 0.3,1.7 c 0.2,0.8 0.3,1.6 0.5,2.4 0.4,1.7 0.8,3.4 1.3,5 0.4,1.4 1,2.9 2.2,3.9 1.4,1.2 3.9,0.8 4.7,-0.8 0.2,-0.3 0.3,-0.8 0.3,-1.1 0.2,-0.8 0.1,-1.6 0,-2.5 -0.2,-2.9 -1,-5.7 -1.1,-8.6 0,-1.2 0.1,-2.4 0.2,-3.6 0.2,-2.8 0.6,-5.6 0.7,-8.4 0.2,-3.4 0.5,-7 -0.5,-10.3 -0.3,-1 -0.7,-1.9 -1.2,-2.7 -0.4,-0.8 -1,-1.5 -1.6,-2.1 -0.6,-0.7 -1.3,-1.3 -2.2,-1.7 -0.8,-0.4 -1.8,-0.7 -2.6,-0.8 -2.1,-0.1 -4.3,1.1 -5.9,2.3 -1.4,1 -2.7,2.2 -3.9,3.5 -2.1,2.3 -4.3,4.6 -6.1,7.1 -0.5,0.7 -1.2,2 -2.3,1.9 -1.3,-0.2 -2,-2.1 -2.4,-3.2 -0.4,-1 -0.8,-1.9 -1.3,-2.9 l -1.8,-3.6 c -0.5,-1 -0.9,-2.1 -1.7,-2.9 -0.8,-1 -1.9,-1.4 -3.1,-1.8 -0.8,-0.3 -2,-0.6 -2.9,-0.1 -1.1,0.7 -0.9,2.3 -1,3.4 -0.1,1 -0.2,1.9 -0.3,2.8 -0.2,2.3 -0.4,4.7 -0.9,6.9 -0.2,1 -0.6,2.3 -1.4,2.9 -0.7,0.5 -1.5,0.4 -2.3,0.5 h -1.9 c -1.5,0 -2.9,-0.1 -4.4,-0.1 -1.2,0 -2.5,0.1 -3.7,0.2 -1.1,0 -2.2,0.2 -3.3,0.2 -1.3,0.1 -2.8,0.3 -4,-0.3 -0.9,-0.4 -1.4,-1.4 -1.8,-2.3 -0.6,-1.3 -1.3,-2.5 -2.1,-3.7 -0.6,-1.1 -1.3,-2.2 -1.9,-3.2 -0.9,-1.5 -1.9,-3.1 -2.8,-4.6 -0.6,-1 -1.3,-2 -1.9,-3 -0.5,-0.8 -1.2,-1.9 -2.2,-2.2 -0.9,-0.3 -1.7,0.3 -1.9,1.1 -0.1,0.6 0,1.1 -0.1,1.7 -0.1,0.6 -0.4,1.2 -0.6,1.7 -0.5,1.1 -1.1,2.2 -1.8,3.2 -2.2,3.5 -3.9,7.3 -5.8,10.9 -0.4,0.7 -0.8,1.3 -1.1,2 -0.5,0.9 -0.8,1.7 -1.9,2 -1,0.3 -2.1,0.1 -3.1,0.4 -1.2,0.3 -1.6,1.4 -1.8,2.5 -0.2,1 -0.2,2 -0.4,3 -0.1,0.7 -0.3,1.5 -0.2,2.2 z m -135.500005,20.2 c -1,0 -2,0.2 -3,0.2 -1.2,-0.1 -1.9,-0.8 -2.4,-1.8 -0.5,-1.3 -0.8,-2.7 -1.1,-4 -0.3,-1.2 -0.5,-2.5 -0.4,-3.8 0.1,-0.7 0.2,-1.2 0.8,-1.7 0.9,-0.7 2.1,-0.3 3.1,-0.8 0.8,-0.5 1.1,-1.5 1.2,-2.4 0.1,-1.5 0,-3.1 -0.1,-4.6 -0.2,-3.9 0,-7.8 -0.5,-11.7 -0.1,-0.9 -0.4,-1.9 -1.4,-2.2 -1.9,-0.5 -2,-2.5 -2.1,-4.1 -0.1,-1 -0.1,-2.3 0.3,-3.3 0.6,-1.3 2.1,-2 3.4,-2.5 1.3,-0.4 2.6,-0.8 3.9,-1.1 1.3,-0.4 2.7,-0.6 4,-0.8 l 4.200005,-0.6 c 1.4,-0.2 2.7,-0.4 4.1,-0.5 1.3,-0.1 2.6,-0.3 3.9,-0.4 1.5,-0.1 3,-0.2 4.5,-0.2 1.4,-0.1 2.7,0 4.1,0 1.4,0 2.7,0.1 4,0.1 1.4,0 2.8,0.2 4.1,0.3 2,0.3 3.9,0.6 5.6,1.7 1.8,1.2 2.9,3.6 1.2,5.3 -1.8,1.8 -4.6,1.5 -6.9,1.5 -1.9,0 -3.8,0 -5.6,0.1 -1.8,0.1 -3.6,0.2 -5.4,0.4 -1.7,0.1 -3.4,0.2 -5,0.4 -1.7,0.1 -3.5,0.3 -5.2,0.5 -1.4,0.1 -2.8,0.3 -4.1,0.5 -1.1,0.2 -2.5,0.4 -3.400005,1.3 -0.6,0.6 -0.7,1.7 -0.4,2.5 0.5,1.6 2.900005,1.2 4.200005,1.1 2.9,-0.1 5.7,-0.6 8.6,-0.8 1.3,-0.1 2.6,-0.1 3.9,-0.2 1.6,-0.1 3.2,-0.1 4.8,-0.1 1.4,0.1 2.8,0.2 4.1,0.5 1.7,0.3 3.2,1 4.8,1.7 2,0.7 1.7,3.2 1.3,4.8 -0.2,0.8 -0.4,1.6 -1.2,2.1 -1.7,1.1 -4.2,0.8 -6.1,0.8 -1.9,0.1 -3.8,0.2 -5.7,0.4 -3,0.3 -5.9,0.6 -8.9,0.9 -1.8,0.2 -3.6,0.5 -5.4,0.7 -1.2,0.1 -2.8,0 -3.800005,0.9 l -0.2,0.2 -0.1,0.1 -0.1,0.2 -0.1,0.2 c -0.1,0.8 -0.9,3.3 -0.1,3.9 l 0.2,0.1 h 0.3 c 1.000005,0 2.000005,-0.1 3.000005,-0.1 1.5,-0.1 3,-0.1 4.5,-0.3 2.9,-0.2 5.8,-0.5 8.7,-0.7 1.9,-0.2 3.8,-0.3 5.8,-0.4 2.9,-0.3 5.7,-0.4 8.6,-0.5 1.7,-0.1 3.4,0 5,-0.8 1.9,-0.8 3.5,-2.3 5.3,-3.3 2.3,-1.2 4.7,-2.3 7.1,-3.4 2.9,-1.4 5.7,-3 8.7,-4.3 2.3,-1 4.6,-2 6.8,-3 1.1,-0.5 2.2,-0.9 3.3,-1.5 0.7,-0.4 2.6,-1.3 2.1,-2.5 -0.2,-0.6 -1,-0.7 -1.6,-0.7 -2.2,-0.3 -7.6,0.1 -11,0.7 -5.4,0.9 -6.2,1.7 -7.7,0.2 -1.1,-1.2 -0.9,-3 -0.7,-4.5 0.2,-1.6 0.9,-3.9 1.4,-4.5 1.6,-2.1 6.7,-2.3 9.1,-2.5 1.2,-0.1 2.5,-0.1 3.8,-0.1 1.8,0 3.5,0.1 5.3,0.1 l 4.5,0.3 c 1.7,0.2 3.6,0.2 5.3,0.8 0.5,0.2 1.1,0.4 1.6,0.6 1.7,0.8 3.3,1.9 4.5,3.4 0.7,0.9 1.2,1.9 1.4,3 0.1,0.5 0.2,1.1 0.1,1.6 -0.1,0.4 -0.2,1.2 -0.4,1.5 l -0.1,0.1 c -0.2,0.5 -0.7,1 -1.1,1.4 -2,1.8 -5,2.5 -7.5,3.5 -1.2,0.5 -2.4,1.1 -3.6,1.6 -3.4,1.5 -6.7,3.1 -10.2,4.5 -2.8,1.2 -5.7,2.4 -8.4,3.8 -0.7,0.4 -1.8,1 -2.3,1.7 -0.4,0.8 0.5,0.8 1.2,0.8 0.7,0 1.4,0 2.1,-0.1 l 6.3,-0.6 c 2.1,-0.2 4.3,-0.4 6.4,-0.7 2,-0.3 4,-0.5 6,-0.7 2.2,-0.2 4.3,-0.3 6.5,-0.3 2.2,0 4.4,0 6.5,0.4 l 0.3,0.1 h 0.6 c 0.9,0 1.9,-0.1 2.4,-1 0.8,-1.5 1.2,-3.3 1.8,-4.9 0.7,-2.1 1.4,-4.1 2.2,-6.1 0.1,-0.3 0.2,-0.6 0.3,-0.8 0.8,-2.3 1.7,-4.6 2.6,-6.9 0.4,-0.9 0.7,-1.8 1,-2.8 0.2,-0.7 0.3,-1.4 0.7,-2.1 0.6,-1.1 1.6,-1.8 2.7,-1 0.9,0.6 1.5,1.8 2.1,2.7 0.5,1 1,2 1.3,3.2 0.3,1.1 0,2.2 -0.4,3.2 -0.4,1.1 -0.8,2.2 -1.1,3.4 -0.6,2.5 1.8,4.4 3.6,5.5 1.7,1 3.6,1.7 5.4,2.5 1.3,0.6 2.7,1.2 4.1,1.4 0.9,0.2 1.9,0.3 2.7,-0.2 1.2,-0.9 1.6,-2.6 2,-4 0.5,-1.7 0.9,-3.4 1.2,-5.1 0.3,-1.4 0.5,-2.9 0.7,-4.3 0.1,-1.1 0.2,-2.3 0.3,-3.4 0.1,-1.5 0,-2.9 -0.1,-4.4 0,-1 0.2,-2.2 0.8,-2.9 0.9,-1 2.4,-0.5 3.1,0.5 l 0.3,0.3 c 0.4,0.7 0.8,1.6 1,2.4 0.4,1.5 0.7,3 0.8,4.6 0.1,1.3 0.2,2.5 0.3,3.8 0.2,4.4 -0.2,8.8 -0.7,13.2 -0.3,2.4 -0.8,4.6 -1.3,7 -0.3,1.3 -0.5,2.6 -1.1,3.8 -0.4,0.8 -0.9,1.5 -1.4,2.2 -0.3,0.3 -0.6,0.6 -0.9,0.8 -1.2,0.8 -2.8,0.7 -4.1,0.6 -1.9,-0.2 -3.7,-0.7 -5.5,-1.3 -1.1,-0.4 -2.2,-0.8 -3.3,-1.4 -1.1,-0.5 -2.2,-1.1 -3.3,-1.7 -1.1,-0.6 -2.1,-1.3 -3.1,-2 -1,-0.7 -1.9,-1.4 -2.7,-2.3 -0.7,-0.7 -1.3,-1.7 -1.9,-2.5 -0.7,-0.8 -1.3,-1.1 -1.7,0 -0.3,0.7 -0.4,1.5 -0.6,2.3 -0.3,1.4 -0.7,2.7 -1.1,4 -0.4,1.3 -2.1,4.9 -4,3.2 -0.6,-0.5 -1.1,-1.2 -2,-1.2 -0.9,0 -1.8,0.4 -2.7,0.6 -1,0.2 -1.9,0.3 -2.9,0.5 -1.8,0.4 -3.7,0.8 -5.5,1.2 -1.2,0.2 -2.4,0.4 -3.7,0.6 -1.2,0.2 -2.4,0.4 -3.5,0.5 -1.2,0.2 -2.4,0.4 -3.7,0.5 -1.9,0.2 -3.8,0.5 -5.7,0.7 -1.5,0.2 -3,0.4 -4.6,0.5 -1.3,0.1 -2.5,0.3 -3.8,0.4 -2.1,0.2 -4.2,0.4 -6.4,0.5 -3.2,0.1 -6.6,0.3 -9.7,-0.3 -0.7,-0.1 -1.8,-0.2 -2.3,-0.8 -0.4,-0.4 -0.1,-1 -0.4,-1.4 v -0.1 l -0.1,-0.1 -0.1,-0.1 -0.1,-0.1 h -0.3 l -0.1,0.1 -0.2,0.1 -0.7,-0.2 -0.3,0.2 -0.2,0.2 -0.1,0.2 -0.1,0.3 c -0.7,2.2 -3,3.1 -5.1,3.3 l -33.900005,4 m 316.900005,-17.2 c -4.5,0.3 -8.7,1.1 -13.2,0.6 -1.5,-0.1 -4,-0.3 -5.2,-1.1 -3.6,-2.4 9,-6.6 10.6,-7.2 4.4,-1.6 13.2,-4.1 13.2,-4.1 0,0 8.3,-2.1 8.6,-6.5 0.3,-5.4 -5.3,-7.9 -9.5,-9.2 -1.8,-0.4 -3.5,-0.7 -5.3,-0.9 -1.2,-0.1 -2.4,-0.2 -3.7,-0.2 -2.3,-0.1 -4.5,0.1 -6.8,0.4 -2.3,0.3 -7.3,0.4 -8.1,3.4 -0.4,1.5 -2.1,4.6 -0.6,6 1.5,1.4 4,0.8 5.8,0.7 2.6,-0.3 5.1,-0.7 7.6,-1 1.9,-0.2 4.3,-0.6 5.9,0.8 1.9,1.7 -3.1,3.3 -4.1,3.8 -3.8,1.6 -7.8,2.8 -11.6,4.4 -3.6,1.5 -7.2,2.9 -10.7,4.6 -1.6,0.8 -3.1,1.7 -4.6,2.6 l -0.7,-0.5 -4.4,0.5 -4.4,0.4 c -3,0.2 -5.9,0.3 -8.9,0.5 -1.5,0.1 -3.8,0.1 -5,-1 -2.6,-2.4 -1.1,-5.8 0.6,-8.1 1.8,-2.5 4.4,-4.4 7.1,-6 1.8,-1.1 3.8,-2 5.8,-2.6 1.4,-0.4 2.8,-0.8 4.2,-1 0.2,0.4 0.4,0.8 0.7,1.2 0.1,0.2 3.4,-1.2 3.7,-1.3 1,-0.5 2.4,-1.6 2.5,-2.9 0,-1.6 -1.3,-3.1 -2.5,-3.9 -1.4,-0.9 -2.9,-1.2 -4.5,-1.2 -1.7,0 -3.5,0.1 -5.2,0.3 -1.2,0.2 -2.4,0.4 -3.6,0.8 -1.9,0.6 -3.8,1.3 -5.6,2.3 -2.4,1.3 -4.6,3.1 -6.5,5 -0.9,0.9 -1.7,2 -2.3,3.1 -0.9,1.4 -1.5,3 -2,4.5 -1.3,4.3 -0.9,9.7 1,13.8 1.3,2.8 3.4,5.2 6.1,6.9 3.3,2.1 7.6,2.7 11.4,2 1.6,-0.3 3,-0.7 4.5,-1.3 1.6,-0.6 3.1,-1.1 4.6,-2 0.3,-0.2 3.4,-1.9 3.6,-1.7 0.5,0.6 0.8,1.4 1.3,2 0.5,0.6 1.1,1.1 1.8,1.6 1.3,1 2.8,1.4 4.3,1.5 3.9,0.5 8,0.7 11.9,0.8 3.2,0 6.4,-0.2 9.5,-0.5 2,-0.2 4.1,-0.5 6.1,-0.7 5.2,-0.6 9.5,-1.8 15.1,-4.2 2.6,-1.2 4.3,-2.8 5.3,-4 -0.6,-0.4 -1.3,-0.7 -1.9,-1 -4.1,-1.6 -8.7,-1.7 -13.1,-1.2 -2,0.3 -4,0.4 -6,0.6 -1.1,0.1 -1.9,0.1 -2.8,0.2 m -69.1,4.6 c 0,-0.8 0,-1.5 -0.3,-2.1 -0.6,-1.5 -2.2,-3.1 -3.8,-3.4 -1.5,-0.3 -3.2,0 -4.4,0.9 -0.6,0.5 -1.3,1.3 -1.7,2.1 -0.7,1.7 -0.7,4.1 0.4,5.6 1.8,2.5 5.7,2.5 7.8,0.5 1.1,-0.9 1.8,-2.1 2,-3.6"
     class="st1" />
</svg>
