<?xml version="1.0" encoding="UTF-8" standalone="no"?>
<svg
   viewBox="0 0 2048 458"
   version="1.1"
   id="svg828"
   sodipodi:docname="skoumal.svg"
   width="2048"
   height="458"
   inkscape:version="1.1.2 (b8e25be8, 2022-02-05)"
   xmlns:inkscape="http://www.inkscape.org/namespaces/inkscape"
   xmlns:sodipodi="http://sodipodi.sourceforge.net/DTD/sodipodi-0.dtd"
   xmlns="http://www.w3.org/2000/svg"
   xmlns:svg="http://www.w3.org/2000/svg">
  <defs
     id="defs832" />
  <sodipodi:namedview
     id="namedview830"
     pagecolor="#ffffff"
     bordercolor="#666666"
     borderopacity="1.0"
     inkscape:pageshadow="2"
     inkscape:pageopacity="0.0"
     inkscape:pagecheckerboard="0"
     showgrid="false"
     inkscape:zoom="0.5625"
     inkscape:cx="1026.6667"
     inkscape:cy="229.33333"
     inkscape:window-width="1377"
     inkscape:window-height="847"
     inkscape:window-x="63"
     inkscape:window-y="25"
     inkscape:window-maximized="1"
     inkscape:current-layer="svg828"
     fit-margin-top="0"
     fit-margin-left="0"
     fit-margin-right="0"
     fit-margin-bottom="0" />
  <path
     fill="#aaaaaa"
     d="m 1968.7,346.2 h 11.3 l 18,58 a 10,10 0 0 0 2,3.6 l 1.6,1.3 c 0.4,0.4 0.9,0.6 1.4,0.7 a 14.3,14.3 0 0 0 2.5,0.2 l 1.8,-0.4 21.3,-63.4 h 11.6 l -32.7,97.7 -10.5,14.1 h -6.5 l 13.2,-37.7 c -8,0 -13.6,-5.1 -16.8,-15.4 z m -50,10.2 v -7.9 l 13.8,-2.5 2.5,-20.7 h 7.9 V 346 h 21.7 v 10.4 h -21.7 v 37.4 c 0,5.7 0.6,9.7 2,11.8 a 9.2,9.2 0 0 0 6,4.3 c 7.6,2 11.7,3 12.4,3 v 7.4 H 1951 c -12.3,0 -18.5,-8.9 -18.5,-26.5 v -37.4 z m -20.6,-22.3 v -7.5 c 0,-2.3 1,-3.5 3.3,-3.5 h 7 c 2.2,0 3.2,1.2 3.2,3.5 v 7.5 c 0,2.2 -1,3.2 -3.2,3.2 h -7 c -2.2,0 -3.3,-1 -3.3,-3.2 z m 1.4,86.3 v -74.2 h 10.3 v 74.2 z m -66.8,-17.6 a 88,88 0 0 1 -1.8,-19.6 c 0,-7.8 0.6,-14.3 1.7,-19.5 1.2,-5.2 3,-9 5.3,-11.6 2.3,-2.6 4.8,-4.3 7.5,-5.2 2.7,-1 7,-1.4 13.2,-1.4 6,0 15.6,1.2 28.6,3.6 v 7.5 c -13,-0.5 -22.1,-0.8 -27.5,-0.8 -5.4,0 -8.8,0.2 -10.2,0.7 -1.4,0.5 -2.9,1.5 -4.4,3.2 -2.6,3.3 -3.9,10.7 -3.9,22.3 0,11.6 1,19.3 3.2,23 2,3.9 5.7,5.7 11,5.7 8.7,0 17.9,-0.3 27.5,-1 l 5.3,-0.5 v 7.8 a 130,130 0 0 1 -32.9,4 c -3.8,0 -7,-0.4 -9.7,-1.3 -2.6,-1 -5.1,-2.7 -7.5,-5.2 a 25.4,25.4 0 0 1 -5.4,-11.7 z m -26.4,-68.7 v -7.5 c 0,-2.3 1.1,-3.5 3.4,-3.5 h 7 c 2,0 3.2,1.2 3.2,3.5 v 7.5 c 0,2.2 -1.1,3.2 -3.3,3.2 h -7 c -2.2,0 -3.3,-1 -3.3,-3.2 z m 1.4,86.3 v -74.2 h 10.3 v 74.2 z M 1769.9,394 v -83 h 10.3 v 83 c 0,5.7 0.6,9.6 2,11.8 a 9.2,9.2 0 0 0 6,4.2 c 7.6,2 11.8,3 12.4,3 v 7.4 h -12.3 c -12.3,0 -18.4,-8.8 -18.4,-26.4 z M 1695,458 V 346 h 7.4 l 2.7,8.3 c 2.3,-1.7 6.4,-3.6 12.3,-5.8 a 45.7,45.7 0 0 1 15.6,-3.3 21,21 0 0 1 12,3.4 c 3.3,2.2 5.8,5.2 7.5,9 3,7.2 4.6,15.6 4.6,25.2 0,18.7 -4,30.5 -11.7,35.4 a 21.5,21.5 0 0 1 -11.6,3.2 78.6,78.6 0 0 1 -28.7,-5.6 V 458 Z m 37.6,-47 c 4.9,0 8.4,-2 10.7,-6 2.3,-4 3.4,-11.4 3.4,-22.2 0,-18.2 -4.7,-27.2 -14,-27.2 a 75,75 0 0 0 -27.6,6.4 v 45.4 c 9.3,2.5 18.5,3.7 27.5,3.7 z m -160.2,9.3 v -74.2 h 7.3 l 3,8.9 a 66,66 0 0 1 7.1,-4.1 53.2,53.2 0 0 1 7.2,-3.3 l 3.5,-1.3 c 2.3,-0.7 5.4,-1 9.5,-1 4.1,0 8,0.9 11.8,2.9 3.7,2 6.4,4.6 8,8 a 45.6,45.6 0 0 1 29.9,-11 22,22 0 0 1 16.3,6.7 23.6,23.6 0 0 1 6.6,17.2 v 51.2 h -10.3 v -51.2 c 0,-4 -1.2,-7.4 -3.6,-9.8 a 12,12 0 0 0 -9,-3.7 55,55 0 0 0 -14.5,1.6 47,47 0 0 0 -13,6.2 v 56.9 H 1622 v -51.2 c 0,-4 -1.2,-7.4 -3.5,-9.8 a 11.9,11.9 0 0 0 -9,-3.7 41.5,41.5 0 0 0 -17,3.2 c -1.7,0.7 -4.9,2.3 -9.6,4.6 v 56.9 z M 1546.2,334 v -7.5 c 0,-2.3 1.1,-3.5 3.4,-3.5 h 7 c 2,0 3.2,1.2 3.2,3.5 v 7.5 c 0,2.2 -1.1,3.2 -3.2,3.2 h -7 c -2.3,0 -3.4,-1 -3.4,-3.2 z m 1.4,86.3 v -74.2 h 10.3 v 74.2 z m -70.8,-50 v -6.5 c 0,-6 1.5,-10.6 4.5,-13.8 3,-3 8.4,-4.6 16.2,-4.6 8,0 19.6,0.7 35,2.2 v 8 h -36.4 c -4.3,0 -7,0.8 -7.9,2.3 -0.7,1.2 -1,3.2 -1,6 v 6.3 c 0,3.8 0.8,6 2.6,6.9 1.5,0.7 3.6,1.1 6.3,1.1 h 22 c 6,0 10.4,1.7 13.6,5 3,3.3 4.6,7.6 4.6,13 v 6.9 c 0,6.9 -1.6,11.6 -5,14.1 a 21.3,21.3 0 0 1 -13.1,3.8 c -8.7,0 -21.5,-0.9 -38.4,-2.7 v -7.7 h 39.1 a 4,4 0 0 0 2,-0.2 l 2.3,-1 c 1.9,-1 2.8,-3 2.8,-6.3 v -6.9 c 0,-2.6 -0.6,-4.5 -1.8,-5.8 -1.1,-1.2 -3.1,-1.8 -6,-1.8 h -22.1 c -6.8,0 -11.7,-1.3 -14.8,-4 -3,-2.6 -4.5,-7.4 -4.5,-14.4 z m -100.7,38.3 a 52.6,52.6 0 0 1 -3.6,-11.9 92.8,92.8 0 0 1 -0.1,-27.4 c 0.6,-4 1.7,-8 3.2,-12 3.5,-8.2 10.2,-12.4 20.3,-12.4 3.5,0 7.8,0.5 13.2,1.6 5.3,1 10,2.4 14.2,4 v -40 h 10.2 v 109.8 h -7.4 l -2.8,-8.3 a 57,57 0 0 1 -12.2,5.8 45,45 0 0 1 -15.6,3.3 21,21 0 0 1 -11.9,-3.3 20.6,20.6 0 0 1 -7.5,-9.2 z m 5.7,-25 c 0,18.1 4.7,27.2 14.1,27.2 7.7,0 16.9,-2.2 27.4,-6.4 V 359 c -9.3,-2.4 -18.4,-3.6 -27.4,-3.6 -4.8,0 -8.4,2 -10.7,6 -2.3,4 -3.4,11.4 -3.4,22.2 z m -81,-0.8 c 0,-8.2 0.5,-14.8 1.6,-19.8 1.2,-5 3.2,-8.7 6.1,-11.3 a 22,22 0 0 1 9.8,-5 87.8,87.8 0 0 1 26.9,-0.5 c 3,0.5 5.8,1.5 8.5,3.2 a 14,14 0 0 1 6,8 c 1.3,3.6 1.9,8.4 1.9,14.4 0,11.3 -6.4,17 -19.2,17 h -31.3 c 0,8.7 1,14.5 3,17.4 1.9,3 5.6,4.4 11.1,4.4 17,0 28.6,-0.4 35,-1.4 v 7.9 a 131,131 0 0 1 -35,3.9 c -9.4,0 -15.8,-2.7 -19.3,-8.1 -3.4,-5.4 -5.1,-15.4 -5.1,-30 z m 10.3,-4.2 h 31.3 c 5.9,0 8.8,-2.3 8.8,-6.8 0,-7.2 -1,-11.6 -3.1,-13.4 -2.1,-1.7 -7,-2.6 -14.8,-2.6 -9.6,0 -15.3,1 -17.2,3 a 16,16 0 0 0 -4.4,9.2 c -0.4,3.4 -0.6,6.9 -0.6,10.6 z m -64.4,-22.3 v -7.9 l 13.8,-2.5 2.5,-20.7 h 7.9 V 346 h 21.6 v 10.4 H 1271 v 37.4 c 0,5.7 0.6,9.7 2,11.8 a 9.1,9.1 0 0 0 6,4.3 c 7.6,2 11.7,3 12.4,3 v 7.4 H 1279 c -12.3,0 -18.5,-8.9 -18.5,-26.5 V 356.4 Z M 1182,349 c 10,-2.8 22.3,-4.2 36.6,-4.2 6.1,0 11.1,1.7 15,5.3 4,3.5 6,9 6,16.2 v 54 h -7.7 l -2.6,-8.9 -2.1,1 a 72,72 0 0 1 -29,8.8 c -5.3,0 -9.7,-1.6 -13.3,-4.9 a 17.5,17.5 0 0 1 -5.3,-13.5 v -8.6 c 0,-5.6 1.7,-10.2 5,-13.5 3.3,-3.4 7.9,-5 13.6,-5 h 31 a 229.9,229.9 0 0 0 0,-9.4 c 0,-7.7 -4,-11.5 -12,-11.5 -8,0 -19.7,0.6 -35.2,1.7 z m 8,53 c 0,6 2.7,8.9 8.2,8.9 3.4,0 7.6,-0.6 12.8,-1.8 5.2,-1.2 9.5,-2.4 13,-3.5 l 5.3,-1.8 v -20 l -31,2.2 c -2.9,0.3 -5,1.3 -6.3,3 a 9.6,9.6 0 0 0 -2,6 z m -74.3,0.8 a 87.8,87.8 0 0 1 -1.9,-19.6 c 0,-7.8 0.6,-14.3 1.8,-19.5 1.1,-5.2 2.9,-9 5.2,-11.6 2.4,-2.6 4.9,-4.3 7.6,-5.2 2.7,-1 7,-1.4 13.1,-1.4 6,0 15.6,1.2 28.7,3.6 v 7.5 a 736,736 0 0 0 -27.6,-0.8 c -5.4,0 -8.8,0.2 -10.2,0.7 -1.4,0.5 -2.8,1.5 -4.3,3.2 -2.6,3.3 -4,10.7 -4,22.3 0,11.6 1.1,19.3 3.2,23 2.1,3.9 5.8,5.7 11,5.7 8.8,0 18,-0.3 27.5,-1 l 5.4,-0.5 v 7.8 a 130,130 0 0 1 -32.9,4 c -3.8,0 -7,-0.4 -9.7,-1.3 a 19,19 0 0 1 -7.6,-5.2 25.4,25.4 0 0 1 -5.3,-11.7 z m -26.5,-68.7 v -7.5 c 0,-2.3 1.1,-3.5 3.3,-3.5 h 7 c 2.2,0 3.2,1.2 3.2,3.5 v 7.5 c 0,2.2 -1,3.2 -3.2,3.2 h -7 c -2.2,0 -3.3,-1 -3.3,-3.2 z m 1.4,86.3 v -74.2 h 10.3 v 74.2 z m -55.7,-64 v -7.9 l 13.8,-2.5 2.5,-20.7 h 7.8 V 346 h 21.7 v 10.4 H 1059 v 37.4 c 0,5.7 0.7,9.7 2,11.8 a 9.1,9.1 0 0 0 6,4.3 c 7.6,2 11.8,3 12.5,3 v 7.4 h -12.4 c -12.3,0 -18.4,-8.9 -18.4,-26.5 v -37.4 z m -62.3,14 v -6.5 c 0,-6 1.5,-10.6 4.4,-13.8 3,-3 8.5,-4.6 16.3,-4.6 8,0 19.6,0.7 35,2.2 v 8 H 992 c -4.3,0 -7,0.8 -7.9,2.3 -0.7,1.2 -1,3.2 -1,6 v 6.3 c 0,3.8 0.8,6 2.6,6.9 1.5,0.7 3.6,1.1 6.3,1.1 h 22 c 6,0 10.4,1.7 13.6,5 3,3.3 4.6,7.6 4.6,13 v 6.9 c 0,6.9 -1.6,11.6 -5,14.1 a 21.3,21.3 0 0 1 -13.1,3.8 c -8.7,0 -21.5,-0.9 -38.3,-2.7 v -7.7 h 39 a 4,4 0 0 0 2,-0.2 l 2.3,-1 c 1.9,-1 2.8,-3 2.8,-6.3 v -6.9 c 0,-2.6 -0.6,-4.5 -1.8,-5.8 -1.1,-1.2 -3.2,-1.8 -6,-1.8 H 992 c -6.8,0 -11.8,-1.3 -14.8,-4 -3,-2.6 -4.5,-7.4 -4.5,-14.4 z M 949.2,334 v -7.5 c 0,-2.3 1.2,-3.5 3.4,-3.5 h 7 c 2.1,0 3.2,1.2 3.2,3.5 v 7.5 c 0,2.2 -1,3.2 -3.2,3.2 h -7 c -2.2,0 -3.4,-1 -3.4,-3.2 z m 1.4,86.3 V 346.1 H 961 v 74.2 z m -73.1,0 V 310.8 h 10.3 v 44 c 0.3,0 1.3,-0.7 3,-1.7 a 43,43 0 0 1 6.4,-3.5 c 1.6,-1 2.7,-1.4 3.3,-1.6 l 3.3,-1.1 c 1.4,-0.6 2.7,-1 3.6,-1.2 3,-0.5 5.6,-0.8 7.8,-0.8 7.1,0 12.7,2.3 16.8,7 a 24.5,24.5 0 0 1 6.2,16.8 v 51.7 h -10.4 v -51.7 c 0,-4.5 -1.1,-7.9 -3.4,-10.1 a 12.2,12.2 0 0 0 -9,-3.4 44.8,44.8 0 0 0 -17.9,3.5 l -9.7,4.5 v 57.2 z M 802.7,458 V 346 h 7.4 l 2.7,8.3 c 2.3,-1.7 6.4,-3.6 12.3,-5.8 5.9,-2.2 11,-3.3 15.7,-3.3 a 21,21 0 0 1 11.8,3.4 c 3.4,2.2 6,5.2 7.6,9 3,7.2 4.6,15.6 4.6,25.2 0,18.7 -4,30.5 -11.7,35.4 a 21.4,21.4 0 0 1 -11.6,3.2 78.4,78.4 0 0 1 -28.7,-5.6 V 458 Z m 37.6,-47 c 4.9,0 8.4,-2 10.7,-6 2.3,-4 3.5,-11.4 3.5,-22.2 0,-18.2 -4.8,-27.2 -14.2,-27.2 -7.8,0 -17,2.1 -27.5,6.4 v 45.4 c 9.3,2.5 18.5,3.7 27.5,3.7 z m -82.6,10 c -12.4,0 -21,-2.8 -25.8,-8.3 -4.7,-5.5 -7.1,-15.3 -7.1,-29.6 0,-14.3 2.4,-24.1 7.1,-29.6 4.8,-5.4 13.4,-8.1 25.8,-8.1 12.4,0 20.9,2.7 25.5,8.3 4.7,5.5 7,15.5 7,29.8 0,14.4 -2.3,24.2 -7,29.5 -4.6,5.3 -13.1,8 -25.5,8 z m -19.3,-58.3 c -1,2 -1.7,4.8 -2.4,8.3 a 85.4,85.4 0 0 0 0.5,27.8 c 0.9,3.6 2.4,6.3 4.6,8 2.2,1.6 4.4,2.7 6.7,3.1 2.3,0.5 5.5,0.7 9.8,0.7 4.2,0 7.5,-0.2 10,-0.7 2.3,-0.4 4.5,-1.5 6.6,-3.2 2.1,-1.8 3.6,-4.4 4.4,-8 0.9,-3.6 1.3,-8.6 1.3,-14.9 0,-6.3 -0.4,-11.4 -1,-15.2 a 15,15 0 0 0 -4.2,-8.6 c -2,-2 -4.3,-3.1 -6.6,-3.6 a 74.6,74.6 0 0 0 -19,-0.3 c -2,0.3 -4,1 -6.1,2 -2,1 -3.6,2.5 -4.6,4.6 z m -83,7.5 V 364 c 0,-6 1.5,-10.6 4.4,-13.8 3,-3 8.5,-4.6 16.3,-4.6 8,0 19.6,0.7 35,2.2 v 8 h -36.4 c -4.3,0 -7,0.8 -7.9,2.3 -0.7,1.2 -1,3.2 -1,6 v 6.3 c 0,3.8 0.8,6 2.6,6.9 1.5,0.7 3.6,1.1 6.3,1.1 h 22 c 6,0 10.4,1.7 13.5,5 3.2,3.3 4.7,7.6 4.7,13 v 6.9 c 0,6.9 -1.7,11.6 -5,14.1 a 21.3,21.3 0 0 1 -13.1,3.8 c -8.7,0 -21.5,-0.9 -38.4,-2.7 v -7.7 h 39.1 a 4,4 0 0 0 2,-0.2 20,20 0 0 0 2.3,-1 c 1.9,-1 2.8,-3 2.8,-6.3 v -6.9 c 0,-2.6 -0.6,-4.5 -1.8,-5.8 -1.1,-1.2 -3.2,-1.8 -6,-1.8 h -22.1 c -6.8,0 -11.8,-1.3 -14.8,-4 -3,-2.6 -4.5,-7.4 -4.5,-14.4 z"
     id="path824" />
  <path
     d="M 473.7,186.2 C 422.1,136.4 364.5,79.5 357.6,70.6 l 0.5,0.7 -5,3.3 v 72.7 c 18,18 39.6,39 60.7,59.6 l -60.6,60.6 v 77.2 l 1.4,1.3 139.8,-139.8 z M 226,0 V 367.3 H 56.5 V 0 H 0 v 381.4 c 0,23.4 19,42.4 42.4,42.4 h 197.8 c 23.4,0 42.3,-19 42.3,-42.4 V 0 Z m 1731.8,20.7 v 156 c 0,5.4 1.2,9.3 3.8,11.8 2.5,2.4 6.7,3.6 12.5,3.6 h 71.8 l 2.1,35.1 a 878.3,878.3 0 0 1 -88.4,3.3 c -16.2,0 -28.2,-4 -36,-12 A 44.4,44.4 0 0 1 1911.8,186 V 20.7 Z m -129,154.1 h -71.7 l -15.2,54.8 h -47.2 L 1754.9,33 c 0.8,-3.7 2.8,-6.6 5.8,-8.8 a 17,17 0 0 1 10.3,-3.4 h 43.6 c 8.7,0 14,4 16,12.2 l 60.3,196.7 h -47 z m -10,-35.7 -17.5,-63.9 A 259,259 0 0 1 1797,55.6 h -8.1 a 524.9,524.9 0 0 1 -4.6,19.6 l -17.6,64 z M 1601.4,20.7 h 44.5 c 11.1,0 16.9,5.8 17.3,17.3 l 8.1,191.6 h -43.6 l -7,-172.8 h -5 L 1584.1,186 c -2,10 -8.3,14.9 -18.8,14.9 H 1535 c -10.5,0 -16.7,-5 -18.8,-14.9 L 1484.4,56.8 h -5 l -6.1,172.8 h -43.6 L 1437.2,38 c 0.6,-11.5 6.4,-17.3 17.3,-17.3 h 44.5 c 9.9,0 16,5 18.1,14.9 l 25.5,104.1 c 1.6,6.7 3.4,16.5 5.4,29.4 h 4 l 2.2,-12.4 3.2,-17 25.1,-104.1 c 2.5,-9.9 8.7,-14.9 18.8,-14.9 z m -208.3,0 v 125.7 c 0,31.9 -6,54.4 -18.3,67.5 -12.2,13.1 -33.3,19.7 -63.1,19.7 -31.5,0 -53.6,-6.6 -66.5,-19.7 -12.8,-13.1 -19.2,-35.6 -19.2,-67.5 V 20.7 h 46 v 125.7 c 0,19.2 2.7,32.3 8,39.3 5.4,7.1 15.2,10.6 29.6,10.6 14.1,0 23.8,-3.5 29.2,-10.6 5.3,-7 8,-20.1 8,-39.3 V 20.7 Z m -360,19.3 c 13,-15.5 36.2,-23.2 69.7,-23.2 33.5,0 56.8,7.7 70,23.2 13,15.4 19.6,43.8 19.6,85.2 0,41.4 -6.6,69.8 -19.7,85.2 -13,15.5 -36.4,23.2 -70,23.2 -33.4,0 -56.7,-7.7 -69.7,-23.2 -13,-15.4 -19.5,-43.8 -19.5,-85.2 0,-41.4 6.5,-69.8 19.5,-85.2 z m 102,28.9 c -5.8,-10 -16.6,-14.9 -32.3,-14.9 -15.7,0 -26.5,5 -32.2,14.9 -5.8,9.9 -8.7,28.6 -8.7,56.3 0,27.6 2.9,46.4 8.7,56.3 5.7,9.9 16.5,14.8 32.2,14.8 15.7,0 26.5,-5 32.2,-14.8 5.8,-9.9 8.7,-28.7 8.7,-56.3 0,-27.7 -3,-46.4 -8.7,-56.3 z m -231.8,68.7 h -17.8 a 121,121 0 0 1 2,20 v 72 h -46 V 20.7 h 46 v 59 c 0,9 -0.6,17.2 -2,25 h 17.8 l 53,-84 h 50 l -54,83.3 c -3.4,6 -8.4,11.6 -15,16.7 v 1.2 c 7.2,5 13,11.2 17.5,18.4 l 55.1,89.3 h -51.5 z m -160.7,13 -42.1,-14.8 a 66.3,66.3 0 0 1 -33.3,-23 66,66 0 0 1 -10,-38.2 c 0,-23 5.6,-38.4 16.8,-46.1 11.2,-7.8 31,-11.7 59.2,-11.7 26.6,0 49.5,2.7 68.7,8.2 l -3,31.5 c -17.6,-0.6 -39.4,-1 -65.4,-1 -12.1,0 -20.2,1.1 -24.2,3.2 -4,2.2 -6,7.5 -6,16 0,6.8 1.4,11.7 4.5,14.8 3,3 8.7,6 17.2,8.8 l 39.7,13.6 c 16.1,5.6 27.5,13.3 34.2,23.1 6.7,9.8 10,22.6 10,38.3 0,23.4 -5.7,39.3 -17,47.7 -11.3,8.4 -31.5,12.6 -60.5,12.6 a 338,338 0 0 1 -71.8,-7.9 l 2.7,-33.3 69,1.5 c 12.4,0 20.6,-1.3 24.8,-4 4,-2.5 6.2,-8 6.2,-16.3 0,-7 -1.5,-12 -4.3,-15 -2.8,-2.9 -8,-5.6 -15.4,-8 z"
     id="path826" />
</svg>
