<svg xmlns="http://www.w3.org/2000/svg" viewBox="0 0 2048 460">
  <path fill="#aaa" d="M1968.7 346.2h11.3l18 58a10 10 0 002 3.6l1.6 1.3c.4.4.9.6 1.4.7a14.3 14.3 0 002.5.2l1.8-.4 21.3-63.4h11.6l-32.7 97.7L1997 458h-6.5l13.2-37.7c-8 0-13.6-5.1-16.8-15.4zm-50 10.2v-7.9l13.8-2.5 2.5-20.7h7.9V346h21.7v10.4h-21.7v37.4c0 5.7.6 9.7 2 11.8a9.2 9.2 0 006 4.3c7.6 2 11.7 3 12.4 3v7.4H1951c-12.3 0-18.5-8.9-18.5-26.5v-37.4zm-20.6-22.3v-7.5c0-2.3 1-3.5 3.3-3.5h7c2.2 0 3.2 1.2 3.2 3.5v7.5c0 2.2-1 3.2-3.2 3.2h-7c-2.2 0-3.3-1-3.3-3.2zm1.4 86.3v-74.2h10.3v74.2zm-66.8-17.6a88 88 0 01-1.8-19.6c0-7.8.6-14.3 1.7-19.5 1.2-5.2 3-9 5.3-11.6 2.3-2.6 4.8-4.3 7.5-5.2 2.7-1 7-1.4 13.2-1.4 6 0 15.6 1.2 28.6 3.6v7.5c-13-.5-22.1-.8-27.5-.8-5.4 0-8.8.2-10.2.7-1.4.5-2.9 1.5-4.4 3.2-2.6 3.3-3.9 10.7-3.9 22.3 0 11.6 1 19.3 3.2 23 2 3.9 5.7 5.7 11 5.7 8.7 0 17.9-.3 27.5-1l5.3-.5v7.8a130 130 0 01-32.9 4c-3.8 0-7-.4-9.7-1.3-2.6-1-5.1-2.7-7.5-5.2a25.4 25.4 0 01-5.4-11.7zm-26.4-68.7v-7.5c0-2.3 1.1-3.5 3.4-3.5h7c2 0 3.2 1.2 3.2 3.5v7.5c0 2.2-1.1 3.2-3.3 3.2h-7c-2.2 0-3.3-1-3.3-3.2zm1.4 86.3v-74.2h10.3v74.2zm-37.8-26.4v-83h10.3v83c0 5.7.6 9.6 2 11.8a9.2 9.2 0 006 4.2c7.6 2 11.8 3 12.4 3v7.4h-12.3c-12.3 0-18.4-8.8-18.4-26.4zM1695 458v-112h7.4l2.7 8.3c2.3-1.7 6.4-3.6 12.3-5.8a45.7 45.7 0 0115.6-3.3 21 21 0 0112 3.4c3.3 2.2 5.8 5.2 7.5 9 3 7.2 4.6 15.6 4.6 25.2 0 18.7-4 30.5-11.7 35.4a21.5 21.5 0 01-11.6 3.2 78.6 78.6 0 01-28.7-5.6v42.2zm37.6-47c4.9 0 8.4-2 10.7-6 2.3-4 3.4-11.4 3.4-22.2 0-18.2-4.7-27.2-14-27.2a75 75 0 00-27.6 6.4v45.4c9.3 2.5 18.5 3.7 27.5 3.7zm-160.2 9.3v-74.2h7.3l3 8.9a66 66 0 017.1-4.1 53.2 53.2 0 017.2-3.3l3.5-1.3c2.3-.7 5.4-1 9.5-1s8 .9 11.8 2.9c3.7 2 6.4 4.6 8 8a45.6 45.6 0 0129.9-11 22 22 0 0116.3 6.7 23.6 23.6 0 016.6 17.2v51.2h-10.3v-51.2c0-4-1.2-7.4-3.6-9.8a12 12 0 00-9-3.7 55 55 0 00-14.5 1.6 47 47 0 00-13 6.2v56.9H1622v-51.2c0-4-1.2-7.4-3.5-9.8a11.9 11.9 0 00-9-3.7 41.5 41.5 0 00-17 3.2c-1.7.7-4.9 2.3-9.6 4.6v56.9zm-26.2-86.3v-7.5c0-2.3 1.1-3.5 3.4-3.5h7c2 0 3.2 1.2 3.2 3.5v7.5c0 2.2-1.1 3.2-3.2 3.2h-7c-2.3 0-3.4-1-3.4-3.2zm1.4 86.3v-74.2h10.3v74.2zm-70.8-50v-6.5c0-6 1.5-10.6 4.5-13.8 3-3 8.4-4.6 16.2-4.6 8 0 19.6.7 35 2.2v8h-36.4c-4.3 0-7 .8-7.9 2.3-.7 1.2-1 3.2-1 6v6.3c0 3.8.8 6 2.6 6.9 1.5.7 3.6 1.1 6.3 1.1h22c6 0 10.4 1.7 13.6 5 3 3.3 4.6 7.6 4.6 13v6.9c0 6.9-1.6 11.6-5 14.1a21.3 21.3 0 01-13.1 3.8c-8.7 0-21.5-.9-38.4-2.7v-7.7h39.1a4 4 0 002-.2l2.3-1c1.9-1 2.8-3 2.8-6.3v-6.9c0-2.6-.6-4.5-1.8-5.8-1.1-1.2-3.1-1.8-6-1.8h-22.1c-6.8 0-11.7-1.3-14.8-4-3-2.6-4.5-7.4-4.5-14.4zm-100.7 38.3a52.6 52.6 0 01-3.6-11.9 92.8 92.8 0 01-.1-27.4c.6-4 1.7-8 3.2-12 3.5-8.2 10.2-12.4 20.3-12.4 3.5 0 7.8.5 13.2 1.6 5.3 1 10 2.4 14.2 4v-40h10.2v109.8h-7.4l-2.8-8.3a57 57 0 01-12.2 5.8 45 45 0 01-15.6 3.3 21 21 0 01-11.9-3.3 20.6 20.6 0 01-7.5-9.2zm5.7-25c0 18.1 4.7 27.2 14.1 27.2 7.7 0 16.9-2.2 27.4-6.4V359c-9.3-2.4-18.4-3.6-27.4-3.6-4.8 0-8.4 2-10.7 6-2.3 4-3.4 11.4-3.4 22.2zm-81-.8c0-8.2.5-14.8 1.6-19.8 1.2-5 3.2-8.7 6.1-11.3a22 22 0 019.8-5 87.8 87.8 0 0126.9-.5c3 .5 5.8 1.5 8.5 3.2a14 14 0 016 8c1.3 3.6 1.9 8.4 1.9 14.4 0 11.3-6.4 17-19.2 17h-31.3c0 8.7 1 14.5 3 17.4 1.9 3 5.6 4.4 11.1 4.4 17 0 28.6-.4 35-1.4v7.9a131 131 0 01-35 3.9c-9.4 0-15.8-2.7-19.3-8.1-3.4-5.4-5.1-15.4-5.1-30zm10.3-4.2h31.3c5.9 0 8.8-2.3 8.8-6.8 0-7.2-1-11.6-3.1-13.4-2.1-1.7-7-2.6-14.8-2.6-9.6 0-15.3 1-17.2 3a16 16 0 00-4.4 9.2c-.4 3.4-.6 6.9-.6 10.6zm-64.4-22.3v-7.9l13.8-2.5 2.5-20.7h7.9V346h21.6v10.4H1271v37.4c0 5.7.6 9.7 2 11.8a9.1 9.1 0 006 4.3c7.6 2 11.7 3 12.4 3v7.4H1279c-12.3 0-18.5-8.9-18.5-26.5v-37.4zM1182 349c10-2.8 22.3-4.2 36.6-4.2 6.1 0 11.1 1.7 15 5.3 4 3.5 6 9 6 16.2v54h-7.7l-2.6-8.9-2.1 1a72 72 0 01-29 8.8c-5.3 0-9.7-1.6-13.3-4.9a17.5 17.5 0 01-5.3-13.5v-8.6c0-5.6 1.7-10.2 5-13.5 3.3-3.4 7.9-5 13.6-5h31a229.9 229.9 0 000-9.4c0-7.7-4-11.5-12-11.5s-19.7.6-35.2 1.7zm8 53c0 6 2.7 8.9 8.2 8.9 3.4 0 7.6-.6 12.8-1.8 5.2-1.2 9.5-2.4 13-3.5l5.3-1.8v-20l-31 2.2c-2.9.3-5 1.3-6.3 3a9.6 9.6 0 00-2 6zm-74.3.8a87.8 87.8 0 01-1.9-19.6c0-7.8.6-14.3 1.8-19.5 1.1-5.2 2.9-9 5.2-11.6 2.4-2.6 4.9-4.3 7.6-5.2 2.7-1 7-1.4 13.1-1.4 6 0 15.6 1.2 28.7 3.6v7.5a736 736 0 00-27.6-.8c-5.4 0-8.8.2-10.2.7-1.4.5-2.8 1.5-4.3 3.2-2.6 3.3-4 10.7-4 22.3 0 11.6 1.1 19.3 3.2 23 2.1 3.9 5.8 5.7 11 5.7 8.8 0 18-.3 27.5-1l5.4-.5v7.8a130 130 0 01-32.9 4c-3.8 0-7-.4-9.7-1.3a19 19 0 01-7.6-5.2 25.4 25.4 0 01-5.3-11.7zm-26.5-68.7v-7.5c0-2.3 1.1-3.5 3.3-3.5h7c2.2 0 3.2 1.2 3.2 3.5v7.5c0 2.2-1 3.2-3.2 3.2h-7c-2.2 0-3.3-1-3.3-3.2zm1.4 86.3v-74.2h10.3v74.2zm-55.7-64v-7.9l13.8-2.5 2.5-20.7h7.8V346h21.7v10.4h-21.7v37.4c0 5.7.7 9.7 2 11.8a9.1 9.1 0 006 4.3c7.6 2 11.8 3 12.5 3v7.4h-12.4c-12.3 0-18.4-8.9-18.4-26.5v-37.4zm-62.3 14v-6.5c0-6 1.5-10.6 4.4-13.8 3-3 8.5-4.6 16.3-4.6 8 0 19.6.7 35 2.2v8H992c-4.3 0-7 .8-7.9 2.3-.7 1.2-1 3.2-1 6v6.3c0 3.8.8 6 2.6 6.9 1.5.7 3.6 1.1 6.3 1.1h22c6 0 10.4 1.7 13.6 5 3 3.3 4.6 7.6 4.6 13v6.9c0 6.9-1.6 11.6-5 14.1a21.3 21.3 0 01-13.1 3.8c-8.7 0-21.5-.9-38.3-2.7v-7.7h39a4 4 0 002-.2l2.3-1c1.9-1 2.8-3 2.8-6.3v-6.9c0-2.6-.6-4.5-1.8-5.8-1.1-1.2-3.2-1.8-6-1.8H992c-6.8 0-11.8-1.3-14.8-4-3-2.6-4.5-7.4-4.5-14.4zM949.2 334v-7.5c0-2.3 1.2-3.5 3.4-3.5h7c2.1 0 3.2 1.2 3.2 3.5v7.5c0 2.2-1 3.2-3.2 3.2h-7c-2.2 0-3.4-1-3.4-3.2zm1.4 86.3v-74.2H961v74.2zm-73.1 0V310.8h10.3v44c.3 0 1.3-.7 3-1.7a43 43 0 016.4-3.5c1.6-1 2.7-1.4 3.3-1.6l3.3-1.1c1.4-.6 2.7-1 3.6-1.2 3-.5 5.6-.8 7.8-.8 7.1 0 12.7 2.3 16.8 7a24.5 24.5 0 016.2 16.8v51.7h-10.4v-51.7c0-4.5-1.1-7.9-3.4-10.1a12.2 12.2 0 00-9-3.4 44.8 44.8 0 00-17.9 3.5l-9.7 4.5v57.2zM802.7 458v-112h7.4l2.7 8.3c2.3-1.7 6.4-3.6 12.3-5.8 5.9-2.2 11-3.3 15.7-3.3a21 21 0 0111.8 3.4c3.4 2.2 6 5.2 7.6 9 3 7.2 4.6 15.6 4.6 25.2 0 18.7-4 30.5-11.7 35.4a21.4 21.4 0 01-11.6 3.2 78.4 78.4 0 01-28.7-5.6v42.2zm37.6-47c4.9 0 8.4-2 10.7-6 2.3-4 3.5-11.4 3.5-22.2 0-18.2-4.8-27.2-14.2-27.2-7.8 0-17 2.1-27.5 6.4v45.4c9.3 2.5 18.5 3.7 27.5 3.7zm-82.6 10c-12.4 0-21-2.8-25.8-8.3-4.7-5.5-7.1-15.3-7.1-29.6s2.4-24.1 7.1-29.6c4.8-5.4 13.4-8.1 25.8-8.1s20.9 2.7 25.5 8.3c4.7 5.5 7 15.5 7 29.8 0 14.4-2.3 24.2-7 29.5-4.6 5.3-13.1 8-25.5 8zm-19.3-58.3c-1 2-1.7 4.8-2.4 8.3a85.4 85.4 0 00.5 27.8c.9 3.6 2.4 6.3 4.6 8 2.2 1.6 4.4 2.7 6.7 3.1 2.3.5 5.5.7 9.8.7 4.2 0 7.5-.2 10-.7 2.3-.4 4.5-1.5 6.6-3.2 2.1-1.8 3.6-4.4 4.4-8 .9-3.6 1.3-8.6 1.3-14.9 0-6.3-.4-11.4-1-15.2a15 15 0 00-4.2-8.6c-2-2-4.3-3.1-6.6-3.6a74.6 74.6 0 00-19-.3c-2 .3-4 1-6.1 2-2 1-3.6 2.5-4.6 4.6zm-83 7.5V364c0-6 1.5-10.6 4.4-13.8 3-3 8.5-4.6 16.3-4.6 8 0 19.6.7 35 2.2v8h-36.4c-4.3 0-7 .8-7.9 2.3-.7 1.2-1 3.2-1 6v6.3c0 3.8.8 6 2.6 6.9 1.5.7 3.6 1.1 6.3 1.1h22c6 0 10.4 1.7 13.5 5 3.2 3.3 4.7 7.6 4.7 13v6.9c0 6.9-1.7 11.6-5 14.1a21.3 21.3 0 01-13.1 3.8c-8.7 0-21.5-.9-38.4-2.7v-7.7h39.1a4 4 0 002-.2 20 20 0 002.3-1c1.9-1 2.8-3 2.8-6.3v-6.9c0-2.6-.6-4.5-1.8-5.8-1.1-1.2-3.2-1.8-6-1.8h-22.1c-6.8 0-11.8-1.3-14.8-4-3-2.6-4.5-7.4-4.5-14.4z"/>
  <path d="M473.7 186.2C422.1 136.4 364.5 79.5 357.6 70.6l.5.7-5 3.3v72.7c18 18 39.6 39 60.7 59.6l-60.6 60.6v77.2l1.4 1.3 139.8-139.8zM226 0v367.3H56.5V0H0v381.4c0 23.4 19 42.4 42.4 42.4h197.8c23.4 0 42.3-19 42.3-42.4V0zm1731.8 20.7v156c0 5.4 1.2 9.3 3.8 11.8 2.5 2.4 6.7 3.6 12.5 3.6h71.8l2.1 35.1a878.3 878.3 0 01-88.4 3.3c-16.2 0-28.2-4-36-12a44.4 44.4 0 01-11.8-32.5V20.7zm-129 154.1h-71.7l-15.2 54.8h-47.2L1754.9 33c.8-3.7 2.8-6.6 5.8-8.8a17 17 0 0110.3-3.4h43.6c8.7 0 14 4 16 12.2l60.3 196.7h-47zm-10-35.7l-17.5-63.9a259 259 0 01-4.3-19.6h-8.1a524.9 524.9 0 01-4.6 19.6l-17.6 64zM1601.4 20.7h44.5c11.1 0 16.9 5.8 17.3 17.3l8.1 191.6h-43.6l-7-172.8h-5L1584.1 186c-2 10-8.3 14.9-18.8 14.9H1535c-10.5 0-16.7-5-18.8-14.9l-31.8-129.2h-5l-6.1 172.8h-43.6l7.5-191.6c.6-11.5 6.4-17.3 17.3-17.3h44.5c9.9 0 16 5 18.1 14.9l25.5 104.1c1.6 6.7 3.4 16.5 5.4 29.4h4l2.2-12.4 3.2-17 25.1-104.1c2.5-9.9 8.7-14.9 18.8-14.9zm-208.3 0v125.7c0 31.9-6 54.4-18.3 67.5-12.2 13.1-33.3 19.7-63.1 19.7-31.5 0-53.6-6.6-66.5-19.7-12.8-13.1-19.2-35.6-19.2-67.5V20.7h46v125.7c0 19.2 2.7 32.3 8 39.3 5.4 7.1 15.2 10.6 29.6 10.6 14.1 0 23.8-3.5 29.2-10.6 5.3-7 8-20.1 8-39.3V20.7zm-360 19.3c13-15.5 36.2-23.2 69.7-23.2s56.8 7.7 70 23.2c13 15.4 19.6 43.8 19.6 85.2 0 41.4-6.6 69.8-19.7 85.2-13 15.5-36.4 23.2-70 23.2-33.4 0-56.7-7.7-69.7-23.2-13-15.4-19.5-43.8-19.5-85.2 0-41.4 6.5-69.8 19.5-85.2zm102 28.9c-5.8-10-16.6-14.9-32.3-14.9-15.7 0-26.5 5-32.2 14.9-5.8 9.9-8.7 28.6-8.7 56.3 0 27.6 2.9 46.4 8.7 56.3 5.7 9.9 16.5 14.8 32.2 14.8 15.7 0 26.5-5 32.2-14.8 5.8-9.9 8.7-28.7 8.7-56.3 0-27.7-3-46.4-8.7-56.3zm-231.8 68.7h-17.8a121 121 0 012 20v72h-46V20.7h46v59c0 9-.6 17.2-2 25h17.8l53-84h50l-54 83.3c-3.4 6-8.4 11.6-15 16.7v1.2c7.2 5 13 11.2 17.5 18.4l55.1 89.3h-51.5zm-160.7 13l-42.1-14.8a66.3 66.3 0 01-33.3-23 66 66 0 01-10-38.2c0-23 5.6-38.4 16.8-46.1 11.2-7.8 31-11.7 59.2-11.7 26.6 0 49.5 2.7 68.7 8.2l-3 31.5c-17.6-.6-39.4-1-65.4-1-12.1 0-20.2 1.1-24.2 3.2-4 2.2-6 7.5-6 16 0 6.8 1.4 11.7 4.5 14.8 3 3 8.7 6 17.2 8.8l39.7 13.6c16.1 5.6 27.5 13.3 34.2 23.1 6.7 9.8 10 22.6 10 38.3 0 23.4-5.7 39.3-17 47.7-11.3 8.4-31.5 12.6-60.5 12.6a338 338 0 01-71.8-7.9l2.7-33.3 69 1.5c12.4 0 20.6-1.3 24.8-4 4-2.5 6.2-8 6.2-16.3 0-7-1.5-12-4.3-15-2.8-2.9-8-5.6-15.4-8z"/>
</svg>
