<?xml version="1.0" encoding="UTF-8"?>
<!-- Generator: Adobe Illustrator 25.0.0, SVG Export Plug-In . SVG Version: 6.00 Build 0)  -->
<svg id="Layer_1" width="705.01" height="238.48" version="1.1" viewBox="0 0 705.01 238.48" xml:space="preserve" xmlns="http://www.w3.org/2000/svg">
<style id="style1" type="text/css">
	.st0{fill:#352F8A;}
	.st1{fill:#2294FF;}
	.st2{fill:#7BE5FF;}
</style>
<path id="path1" class="st0" d="m174 161.73h-20.37-15.28v-126.29h35.65v90.64h72.5v35.65h-72.5z"/>
<path id="path2" class="st0" d="m293.72 71.77v89.44h-35.65v-89.58z"/>
<path id="path3" class="st0" d="m367.08 101.27c8.39-21.96 16.78-43.93 25.18-65.89h38.22c-15.18 42.1-30.35 84.19-45.53 126.29h-35.32c-15.17-42.1-30.35-84.19-45.52-126.29h38.06c8.3 21.96 16.61 43.93 24.91 65.89z"/>
<path id="path4" class="st0" d="m515.65 161.75-38.1-38.1-2.39 2.39v35.71h-35.65v-126.29h35.65v40.17l40.17-40.17h50.41l-62.98 62.98 63.3 63.3c-16.8 0.01-33.61 0.01-50.41 0.01z"/>
<path id="path5" class="st0" d="m669.36 124.91h-55v36.66h-35.65v-36.66-35.65-18.33-35.65h35.65 55l-0.01 35.64h35.65v18.33 35.65 36.66h-35.65c0.01-12.2 0.01-24.43 0.01-36.65zm-55-53.98v18.33h55v-18.33h-55z"/>
<rect id="rect5" class="st1" x="258.08" y="35.99" width="35.65" height="35.65"/>
<rect id="rect6" class="st2" x="222.08" width="35.65" height="35.65"/>
<path id="path6" class="st0" d="m57.73 70.93h69.05v-35.64h-96.86c-15.78 0-28.57 12.79-28.57 28.57 0 9.91 5.05 18.65 12.72 23.77l56.47 37.39c-0.01 0.02-0.01 0.04-0.01 0.06h-70.01v35.64h98.99v-0.03c15.18-0.68 27.28-13.19 27.28-28.54 0-8.75-4.02-16.68-10.22-21.92-0.59-0.5-1.2-0.97-1.83-1.42l-0.04-0.03c-0.45-0.32-0.92-0.63-1.39-0.93z"/>
<g id="g16">
	<path id="path7" class="st1" d="m0 238.15 17.23-37.7h3.93l17.23 37.7h-4.2l-15.84-35.38h1.62l-15.83 35.38zm6.78-10.06 1.19-3.23h21.92l1.19 3.23z"/>
	<path id="path8" class="st1" d="m84.34 238.15v-37.7h14.11c3.19 0 5.94 0.51 8.24 1.54 2.29 1.03 4.07 2.49 5.31 4.42s1.85 4.25 1.85 6.97c0 2.65-0.62 4.95-1.85 6.86-1.24 1.92-3.01 3.39-5.31 4.42-2.29 1.03-5.05 1.54-8.24 1.54h-11.9l1.78-1.83v13.78zm3.98-13.46-1.78-1.88h11.8c3.77 0 6.63-0.83 8.59-2.47 1.95-1.66 2.93-3.97 2.93-6.95 0-3.01-0.98-5.35-2.93-7-1.95-1.66-4.82-2.47-8.59-2.47h-11.8l1.78-1.88zm21.76 13.46-9.69-13.68h4.31l9.74 13.68z"/>
	<path id="path9" class="st1" d="m179.25 238.48c-2.83 0-5.45-0.48-7.86-1.43-2.4-0.95-4.49-2.28-6.24-4.01-1.76-1.73-3.13-3.75-4.12-6.08s-1.48-4.88-1.48-7.65c0-2.76 0.49-5.32 1.48-7.65s2.37-4.36 4.15-6.08c1.78-1.73 3.87-3.06 6.27-4.01s5.03-1.43 7.86-1.43c2.73 0 5.3 0.46 7.7 1.38s4.44 2.28 6.08 4.12l-2.53 2.53c-1.55-1.58-3.25-2.72-5.12-3.42-1.86-0.7-3.88-1.05-6.03-1.05-2.26 0-4.36 0.39-6.3 1.16-1.93 0.78-3.63 1.86-5.07 3.28s-2.55 3.07-3.37 4.96c-0.81 1.88-1.21 3.96-1.21 6.22s0.4 4.34 1.21 6.22 1.93 3.54 3.37 4.96 3.12 2.51 5.07 3.28c1.93 0.78 4.04 1.16 6.3 1.16 2.15 0 4.17-0.36 6.03-1.08s3.57-1.86 5.12-3.45l2.53 2.53c-1.66 1.83-3.68 3.21-6.08 4.15-2.41 0.92-4.99 1.39-7.76 1.39z"/>
	<path id="path10" class="st1" d="m244.36 238.15h-3.99v-37.7h3.99zm23.96-17.39h-24.39v-3.5h24.39zm-0.37-20.31h3.93v37.7h-3.93z"/>
	<path id="path11" class="st1" d="m322.01 238.15v-37.7h10.66v37.7z"/>
	<path id="path12" class="st1" d="m388.24 238.15v-29.24h-11.58v-8.46h33.77v8.46h-11.53v29.24z"/>
	<path id="path13" class="st1" d="m459.51 234.71h22.67v3.45h-26.66v-37.7h25.85v3.45h-21.86zm-0.43-17.4h19.92v3.39h-19.93v-3.39z"/>
	<path id="path14" class="st1" d="m546 238.48c-2.83 0-5.45-0.48-7.86-1.43-2.4-0.95-4.49-2.28-6.24-4.01-1.76-1.73-3.13-3.75-4.12-6.08s-1.49-4.88-1.49-7.65c0-2.76 0.5-5.32 1.49-7.65s2.37-4.36 4.15-6.08c1.78-1.73 3.87-3.06 6.27-4.01s5.03-1.43 7.86-1.43c2.73 0 5.3 0.46 7.7 1.38s4.44 2.28 6.08 4.12l-2.53 2.53c-1.55-1.58-3.25-2.72-5.12-3.42-1.86-0.7-3.88-1.05-6.03-1.05-2.26 0-4.36 0.39-6.3 1.16-1.93 0.78-3.63 1.86-5.07 3.28s-2.55 3.07-3.37 4.96c-0.81 1.88-1.21 3.96-1.21 6.22s0.41 4.34 1.21 6.22c0.81 1.88 1.92 3.54 3.37 4.96 1.44 1.42 3.12 2.51 5.07 3.28 1.93 0.78 4.04 1.16 6.3 1.16 2.15 0 4.17-0.36 6.03-1.08s3.57-1.86 5.12-3.45l2.53 2.53c-1.66 1.83-3.68 3.21-6.08 4.15-2.41 0.92-4.99 1.39-7.76 1.39z"/>
	<path id="path15" class="st1" d="m616.89 238.15v-34.25h-13.24v-3.45h30.48v3.45h-13.24v34.25z"/>
	<path id="path16" class="st1" d="m690.96 238.48c-2.8 0-5.48-0.46-8.05-1.38-2.56-0.92-4.55-2.09-5.95-3.53l1.57-3.07c1.33 1.3 3.11 2.37 5.36 3.26 2.24 0.88 4.61 1.32 7.08 1.32 2.37 0 4.3-0.3 5.78-0.89 1.49-0.59 2.58-1.39 3.28-2.39 0.7-1.01 1.05-2.11 1.05-3.34 0-1.48-0.42-2.65-1.27-3.55s-1.94-1.61-3.31-2.12c-1.37-0.52-2.87-0.98-4.53-1.38s-3.3-0.82-4.96-1.27-3.17-1.05-4.55-1.81c-1.39-0.76-2.49-1.75-3.34-2.99s-1.27-2.86-1.27-4.88c0-1.86 0.49-3.58 1.49-5.15 0.99-1.57 2.5-2.82 4.55-3.77s4.67-1.43 7.86-1.43c2.11 0 4.22 0.3 6.3 0.89s3.88 1.41 5.39 2.45l-1.35 3.18c-1.62-1.08-3.33-1.86-5.15-2.37-1.82-0.5-3.56-0.76-5.25-0.76-2.26 0-4.13 0.31-5.6 0.92-1.48 0.61-2.55 1.43-3.26 2.45-0.7 1.03-1.05 2.18-1.05 3.47 0 1.48 0.42 2.66 1.27 3.55 0.85 0.9 1.95 1.6 3.34 2.1s2.9 0.96 4.55 1.35c1.66 0.4 3.29 0.83 4.93 1.3s3.14 1.07 4.53 1.81 2.49 1.72 3.34 2.93c0.84 1.22 1.27 2.82 1.27 4.8 0 1.83-0.5 3.53-1.51 5.09-1.01 1.57-2.54 2.82-4.61 3.77-2.05 0.96-4.69 1.44-7.93 1.44z"/>
</g>
</svg>
