<?xml version="1.0" encoding="UTF-8" standalone="no"?>
<!-- Generator: Adobe Illustrator 25.0.0, SVG Export Plug-In . SVG Version: 6.00 Build 0)  -->

<svg
   version="1.1"
   id="Layer_1"
   x="0px"
   y="0px"
   viewBox="0 0 705.01001 238.48"
   xml:space="preserve"
   sodipodi:docname="slivka.svg"
   width="705.01001"
   height="238.48"
   inkscape:version="1.3.2 (091e20e, 2023-11-25)"
   xmlns:inkscape="http://www.inkscape.org/namespaces/inkscape"
   xmlns:sodipodi="http://sodipodi.sourceforge.net/DTD/sodipodi-0.dtd"
   xmlns="http://www.w3.org/2000/svg"
   xmlns:svg="http://www.w3.org/2000/svg"><defs
   id="defs16" /><sodipodi:namedview
   id="namedview16"
   pagecolor="#ffffff"
   bordercolor="#666666"
   borderopacity="1.0"
   inkscape:showpageshadow="2"
   inkscape:pageopacity="0.0"
   inkscape:pagecheckerboard="0"
   inkscape:deskcolor="#d1d1d1"
   inkscape:zoom="0.95744681"
   inkscape:cx="351.97778"
   inkscape:cy="119.58889"
   inkscape:window-width="1376"
   inkscape:window-height="847"
   inkscape:window-x="70"
   inkscape:window-y="25"
   inkscape:window-maximized="1"
   inkscape:current-layer="Layer_1" />
<style
   type="text/css"
   id="style1">
	.st0{fill:#352F8A;}
	.st1{fill:#2294FF;}
	.st2{fill:#7BE5FF;}
</style>
<path
   class="st0"
   d="m 174,161.73 c -6.79,0 -13.58,0 -20.37,0 -5.09,0 -10.18,0 -15.28,0 0,-42.1 0,-84.19 0,-126.29 11.88,0 23.76,0 35.65,0 0,30.21 0,60.43 0,90.64 30.21,0 42.29,0 72.5,0 0,11.88 0,23.76 0,35.65 -30.21,0 -42.29,0 -72.5,0 z"
   id="path1" />
<path
   class="st0"
   d="m 293.72,71.77 c 0,0 0,47.35 0,89.44 -11.88,0 -23.76,0 -35.65,0 0,-42.1 0,-89.58 0,-89.58 z"
   id="path2" />
<path
   class="st0"
   d="m 367.08,101.27 c 8.39,-21.96 16.78,-43.93 25.18,-65.89 12.74,0 25.48,0 38.22,0 -15.18,42.1 -30.35,84.19 -45.53,126.29 -11.77,0 -23.54,0 -35.32,0 -15.17,-42.1 -30.35,-84.19 -45.52,-126.29 12.69,0 25.38,0 38.06,0 8.3,21.96 16.61,43.93 24.91,65.89 z"
   id="path3" />
<path
   class="st0"
   d="m 515.65,161.75 c -12.7,-12.7 -25.4,-25.4 -38.1,-38.1 -0.8,0.8 -1.59,1.59 -2.39,2.39 0,11.9 0,23.81 0,35.71 -11.88,0 -23.76,0 -35.65,0 0,-42.1 0,-84.19 0,-126.29 11.88,0 23.76,0 35.65,0 0,13.39 0,26.78 0,40.17 13.39,-13.39 26.78,-26.78 40.17,-40.17 16.8,0 33.61,0 50.41,0 -20.99,20.99 -41.99,41.99 -62.98,62.98 21.1,21.1 42.2,42.2 63.3,63.3 -16.8,0.01 -33.61,0.01 -50.41,0.01 z"
   id="path4" />
<path
   class="st0"
   d="m 669.36,124.91 c -18.33,0 -36.66,0 -55,0 0,12.22 0,24.44 0,36.66 -11.88,0 -23.76,0 -35.65,0 0,-12.22 0,-24.44 0,-36.66 0,-11.88 0,-23.76 0,-35.65 0,-6.11 0,-12.22 0,-18.33 0,-11.88 0,-23.76 0,-35.65 11.88,0 23.76,0 35.65,0 18.33,0 55,0 55,0 l -0.01,35.64 H 705 v 18.33 c 0,0 0,23.76 0,35.65 0,12.22 0,24.44 0,36.66 -11.88,0 -23.76,0 -35.65,0 0.01,-12.2 0.01,-24.43 0.01,-36.65 z m -55,-53.98 c 0,6.11 0,12.22 0,18.33 18.33,0 36.66,0 55,0 0,-6.11 0,-12.22 0,-18.33 -18.33,0 -36.67,0 -55,0 z"
   id="path5" />
<rect
   x="258.07999"
   y="35.990002"
   class="st1"
   width="35.650002"
   height="35.650002"
   id="rect5" />
<rect
   x="222.08"
   class="st2"
   width="35.650002"
   height="35.650002"
   id="rect6"
   y="0" />
<path
   class="st0"
   d="m 57.73,70.93 h 69.05 V 35.29 H 29.92 c -15.78,0 -28.57,12.79 -28.57,28.57 0,9.91 5.05,18.65 12.72,23.77 l 56.47,37.39 c -0.01,0.02 -0.01,0.04 -0.01,0.06 H 0.52 v 35.64 h 98.99 v -0.03 c 15.18,-0.68 27.28,-13.19 27.28,-28.54 0,-8.75 -4.02,-16.68 -10.22,-21.92 -0.59,-0.5 -1.2,-0.97 -1.83,-1.42 v 0 l -0.04,-0.03 c -0.45,-0.32 -0.92,-0.63 -1.39,-0.93 z"
   id="path6" />
<g
   id="g16">
	<path
   class="st1"
   d="m 0,238.15 17.23,-37.7 h 3.93 l 17.23,37.7 h -4.2 L 18.35,202.77 h 1.62 L 4.14,238.15 Z m 6.78,-10.06 1.19,-3.23 h 21.92 l 1.19,3.23 z"
   id="path7" />
	<path
   class="st1"
   d="m 84.34,238.15 v -37.7 h 14.11 c 3.19,0 5.94,0.51 8.24,1.54 2.29,1.03 4.07,2.49 5.31,4.42 1.24,1.93 1.85,4.25 1.85,6.97 0,2.65 -0.62,4.95 -1.85,6.86 -1.24,1.92 -3.01,3.39 -5.31,4.42 -2.29,1.03 -5.05,1.54 -8.24,1.54 h -11.9 l 1.78,-1.83 v 13.78 z m 3.98,-13.46 -1.78,-1.88 h 11.8 c 3.77,0 6.63,-0.83 8.59,-2.47 1.95,-1.66 2.93,-3.97 2.93,-6.95 0,-3.01 -0.98,-5.35 -2.93,-7 -1.95,-1.66 -4.82,-2.47 -8.59,-2.47 h -11.8 l 1.78,-1.88 z m 21.76,13.46 -9.69,-13.68 h 4.31 l 9.74,13.68 z"
   id="path8" />
	<path
   class="st1"
   d="m 179.25,238.48 c -2.83,0 -5.45,-0.48 -7.86,-1.43 -2.4,-0.95 -4.49,-2.28 -6.24,-4.01 -1.76,-1.73 -3.13,-3.75 -4.12,-6.08 -0.99,-2.33 -1.48,-4.88 -1.48,-7.65 0,-2.76 0.49,-5.32 1.48,-7.65 0.99,-2.33 2.37,-4.36 4.15,-6.08 1.78,-1.73 3.87,-3.06 6.27,-4.01 2.4,-0.95 5.03,-1.43 7.86,-1.43 2.73,0 5.3,0.46 7.7,1.38 2.4,0.92 4.44,2.28 6.08,4.12 l -2.53,2.53 c -1.55,-1.58 -3.25,-2.72 -5.12,-3.42 -1.86,-0.7 -3.88,-1.05 -6.03,-1.05 -2.26,0 -4.36,0.39 -6.3,1.16 -1.93,0.78 -3.63,1.86 -5.07,3.28 -1.44,1.42 -2.55,3.07 -3.37,4.96 -0.81,1.88 -1.21,3.96 -1.21,6.22 0,2.26 0.4,4.34 1.21,6.22 0.81,1.88 1.93,3.54 3.37,4.96 1.44,1.42 3.12,2.51 5.07,3.28 1.93,0.78 4.04,1.16 6.3,1.16 2.15,0 4.17,-0.36 6.03,-1.08 1.86,-0.72 3.57,-1.86 5.12,-3.45 l 2.53,2.53 c -1.66,1.83 -3.68,3.21 -6.08,4.15 -2.41,0.92 -4.99,1.39 -7.76,1.39 z"
   id="path9" />
	<path
   class="st1"
   d="m 244.36,238.15 h -3.99 v -37.7 h 3.99 z m 23.96,-17.39 h -24.39 v -3.5 h 24.39 z m -0.37,-20.31 h 3.93 v 37.7 h -3.93 z"
   id="path10" />
	<path
   class="st1"
   d="m 322.01,238.15 v -37.7 h 10.66 v 37.7 z"
   id="path11" />
	<path
   class="st1"
   d="m 388.24,238.15 v -29.24 h -11.58 v -8.46 h 33.77 v 8.46 H 398.9 v 29.24 z"
   id="path12" />
	<path
   class="st1"
   d="m 459.51,234.71 h 22.67 v 3.45 h -26.66 v -37.7 h 25.85 v 3.45 h -21.86 z m -0.43,-17.4 H 479 v 3.39 h -19.93 v -3.39 z"
   id="path13" />
	<path
   class="st1"
   d="m 546,238.48 c -2.83,0 -5.45,-0.48 -7.86,-1.43 -2.4,-0.95 -4.49,-2.28 -6.24,-4.01 -1.76,-1.73 -3.13,-3.75 -4.12,-6.08 -0.99,-2.33 -1.49,-4.88 -1.49,-7.65 0,-2.76 0.5,-5.32 1.49,-7.65 0.99,-2.33 2.37,-4.36 4.15,-6.08 1.78,-1.73 3.87,-3.06 6.27,-4.01 2.4,-0.95 5.03,-1.43 7.86,-1.43 2.73,0 5.3,0.46 7.7,1.38 2.4,0.92 4.44,2.28 6.08,4.12 l -2.53,2.53 c -1.55,-1.58 -3.25,-2.72 -5.12,-3.42 -1.86,-0.7 -3.88,-1.05 -6.03,-1.05 -2.26,0 -4.36,0.39 -6.3,1.16 -1.93,0.78 -3.63,1.86 -5.07,3.28 -1.44,1.42 -2.55,3.07 -3.37,4.96 -0.81,1.88 -1.21,3.96 -1.21,6.22 0,2.26 0.41,4.34 1.21,6.22 0.81,1.88 1.92,3.54 3.37,4.96 1.44,1.42 3.12,2.51 5.07,3.28 1.93,0.78 4.04,1.16 6.3,1.16 2.15,0 4.17,-0.36 6.03,-1.08 1.86,-0.72 3.57,-1.86 5.12,-3.45 l 2.53,2.53 c -1.66,1.83 -3.68,3.21 -6.08,4.15 -2.41,0.92 -4.99,1.39 -7.76,1.39 z"
   id="path14" />
	<path
   class="st1"
   d="M 616.89,238.15 V 203.9 h -13.24 v -3.45 h 30.48 v 3.45 h -13.24 v 34.25 z"
   id="path15" />
	<path
   class="st1"
   d="m 690.96,238.48 c -2.8,0 -5.48,-0.46 -8.05,-1.38 -2.56,-0.92 -4.55,-2.09 -5.95,-3.53 l 1.57,-3.07 c 1.33,1.3 3.11,2.37 5.36,3.26 2.24,0.88 4.61,1.32 7.08,1.32 2.37,0 4.3,-0.3 5.78,-0.89 1.49,-0.59 2.58,-1.39 3.28,-2.39 0.7,-1.01 1.05,-2.11 1.05,-3.34 0,-1.48 -0.42,-2.65 -1.27,-3.55 -0.85,-0.9 -1.94,-1.61 -3.31,-2.12 -1.37,-0.52 -2.87,-0.98 -4.53,-1.38 -1.66,-0.4 -3.3,-0.82 -4.96,-1.27 -1.66,-0.45 -3.17,-1.05 -4.55,-1.81 -1.39,-0.76 -2.49,-1.75 -3.34,-2.99 -0.85,-1.24 -1.27,-2.86 -1.27,-4.88 0,-1.86 0.49,-3.58 1.49,-5.15 0.99,-1.57 2.5,-2.82 4.55,-3.77 2.05,-0.95 4.67,-1.43 7.86,-1.43 2.11,0 4.22,0.3 6.3,0.89 2.08,0.59 3.88,1.41 5.39,2.45 l -1.35,3.18 c -1.62,-1.08 -3.33,-1.86 -5.15,-2.37 -1.82,-0.5 -3.56,-0.76 -5.25,-0.76 -2.26,0 -4.13,0.31 -5.6,0.92 -1.48,0.61 -2.55,1.43 -3.26,2.45 -0.7,1.03 -1.05,2.18 -1.05,3.47 0,1.48 0.42,2.66 1.27,3.55 0.85,0.9 1.95,1.6 3.34,2.1 1.39,0.5 2.9,0.96 4.55,1.35 1.66,0.4 3.29,0.83 4.93,1.3 1.64,0.47 3.14,1.07 4.53,1.81 1.39,0.74 2.49,1.72 3.34,2.93 0.84,1.22 1.27,2.82 1.27,4.8 0,1.83 -0.5,3.53 -1.51,5.09 -1.01,1.57 -2.54,2.82 -4.61,3.77 -2.05,0.96 -4.69,1.44 -7.93,1.44 z"
   id="path16" />
</g>
</svg>
