<?xml version="1.0" encoding="UTF-8" standalone="no"?>
<svg
   xmlns:dc="http://purl.org/dc/elements/1.1/"
   xmlns:cc="http://creativecommons.org/ns#"
   xmlns:rdf="http://www.w3.org/1999/02/22-rdf-syntax-ns#"
   xmlns:svg="http://www.w3.org/2000/svg"
   xmlns="http://www.w3.org/2000/svg"
   xmlns:sodipodi="http://sodipodi.sourceforge.net/DTD/sodipodi-0.dtd"
   xmlns:inkscape="http://www.inkscape.org/namespaces/inkscape"
   inkscape:version="1.0 (4035a4f, 2020-05-01)"
   height="99.599998"
   width="417.5"
   sodipodi:docname="stackoverflow.svg"
   id="svg20"
   version="1.1"
   viewBox="0 0 417.5 99.599997">
  <metadata
     id="metadata26">
    <rdf:RDF>
      <cc:Work
         rdf:about="">
        <dc:format>image/svg+xml</dc:format>
        <dc:type
           rdf:resource="http://purl.org/dc/dcmitype/StillImage" />
      </cc:Work>
    </rdf:RDF>
  </metadata>
  <defs
     id="defs24" />
  <sodipodi:namedview
     inkscape:current-layer="svg20"
     inkscape:window-maximized="1"
     inkscape:window-y="23"
     inkscape:window-x="51"
     inkscape:cy="50.05"
     inkscape:cx="210.3"
     inkscape:zoom="2.2375"
     showgrid="false"
     id="namedview22"
     inkscape:window-height="755"
     inkscape:window-width="1229"
     inkscape:pageshadow="2"
     inkscape:pageopacity="0"
     guidetolerance="10"
     gridtolerance="10"
     objecttolerance="10"
     borderopacity="1"
     bordercolor="#666666"
     pagecolor="#ffffff" />
  <style
     id="style10">.st0{fill:#222426}.st1{fill:#bcbbbb}.st2{fill:#f48024}.st3{fill:#f58025}</style>
  <path
     id="path12"
     d="m 94.5,50.8 -4.8,-0.4 c -3.7,-0.3 -5.2,-1.8 -5.2,-4.3 0,-3 2.3,-4.9 6.6,-4.9 3.1,0 5.8,0.7 7.9,2.3 l 2.8,-2.8 c -2.6,-2.2 -6.4,-3.2 -10.7,-3.2 -6.3,0 -10.9,3.2 -10.9,8.7 0,4.9 3.1,7.5 8.8,7.9 l 4.9,0.4 c 3.4,0.3 4.9,1.7 4.9,4.3 0,3.5 -3,5.2 -7.9,5.2 -3.7,0 -6.9,-1 -9.2,-3.4 l -2.9,2.9 c 3.3,3.1 7.2,4.3 12.2,4.3 7.2,0 12,-3.3 12,-9 0.2,-5.6 -3.3,-7.6 -8.5,-8 z m 37.1,-13.3 c -4.8,0 -7.7,0.9 -10.4,4.3 l 2.8,2.8 c 1.7,-2.5 3.7,-3.4 7.5,-3.4 5.4,0 7.6,2.2 7.6,6.5 v 2.8 h -8.9 c -6.6,0 -10.2,3.4 -10.2,8.5 0,2.3 0.8,4.6 2.2,6 1.9,1.9 4.3,2.7 8.4,2.7 4,0 6.1,-0.8 8.5,-3.2 v 2.8 h 4.3 v -20 c 0,-6.4 -3.9,-9.8 -11.8,-9.8 z m 7.5,19.5 c 0,2.5 -0.5,4.2 -1.5,5.1 -1.9,1.8 -4.1,2 -6.6,2 -4.7,0 -6.8,-1.6 -6.8,-5.1 0,-3.4 2.2,-5.2 6.6,-5.2 h 8.3 z m 21.3,-15.7 c 2.8,0 4.6,0.8 6.8,3.3 l 2.9,-2.8 c -3,-3.3 -5.6,-4.3 -9.7,-4.3 -7.5,0 -13.1,5.1 -13.1,15.2 0,10.1 5.7,15.2 13.1,15.2 4.1,0 6.7,-1.1 9.8,-4.4 l -2.9,-2.8 c -2.2,2.5 -4,3.4 -6.8,3.4 -2.9,0 -5.3,-1.1 -6.9,-3.4 -1.4,-1.9 -1.9,-4.2 -1.9,-7.9 0,-3.7 0.5,-6 1.9,-7.9 1.5,-2.4 3.9,-3.6 6.8,-3.6 z m 37.1,-3.5 h -5.4 L 178.7,50.9 V 24.6 h -4.3 v 42.9 h 4.3 V 56.7 l 5.3,-5.3 9.9,16.1 h 5.4 L 187,48.4 Z m 20.4,-1.6 c -4.6,0 -7.6,1.8 -9.5,3.8 -2.8,2.9 -3.5,6.4 -3.5,12 0,5.6 0.7,9.1 3.5,12 1.9,2 5,3.8 9.5,3.8 4.6,0 7.7,-1.8 9.6,-3.8 2.8,-2.9 3.5,-6.4 3.5,-12 0,-5.6 -0.7,-9.1 -3.5,-12 -1.9,-2 -5.1,-3.8 -9.6,-3.8 z m 3.6,23.3 c -0.9,0.9 -2.1,1.4 -3.6,1.4 -1.5,0 -2.7,-0.5 -3.6,-1.4 -1.6,-1.6 -1.8,-4.3 -1.8,-7.5 0,-3.2 0.2,-5.9 1.8,-7.5 0.9,-0.9 2,-1.4 3.6,-1.4 1.5,0 2.7,0.5 3.6,1.4 1.6,1.6 1.8,4.3 1.8,7.5 0,3.2 -0.2,5.9 -1.8,7.5 z m 30,-22.9 -6.2,19.1 -6.3,-19.1 h -8.1 l 11.4,30.8 h 6 l 11.3,-30.8 z m 21.2,-0.4 c -8,0 -13.4,5.7 -13.4,15.7 0,12.5 7,15.8 14.3,15.8 5.6,0 8.6,-1.7 11.7,-4.9 l -4.7,-4.6 c -2,2 -3.6,2.9 -7,2.9 -4.3,0 -6.7,-2.9 -6.7,-6.9 h 19.3 v -3.4 c -0.1,-8.3 -4.9,-14.6 -13.5,-14.6 z m -5.9,12.9 c 0.1,-1.4 0.2,-2.2 0.7,-3.3 0.8,-1.8 2.5,-3.2 5.2,-3.2 2.6,0 4.3,1.4 5.2,3.2 0.5,1.1 0.7,2 0.7,3.3 z m 30.7,-9.6 v -3 H 290 v 30.8 h 7.7 V 48.8 c 0,-3.9 2.6,-5.7 5,-5.7 1.9,0 2.9,0.6 4.1,1.8 l 5.8,-5.8 c -2.1,-2.1 -4.3,-2.9 -7.3,-2.9 -3.4,0 -6.4,1.6 -7.8,3.3 z m 17.4,-6.1 v 34 h 7.7 V 43.1 h 5.7 v -5.9 h -5.7 v -3.4 c 0,-1.8 0.9,-2.8 2.7,-2.8 h 3 v -6.5 h -4.4 c -6.3,0.1 -9,4.5 -9,8.9 z m 45.1,2.8 c -4.6,0 -7.6,1.8 -9.5,3.8 -2.8,2.9 -3.5,6.4 -3.5,12 0,5.6 0.7,9.1 3.5,12 1.9,2 5,3.8 9.5,3.8 4.6,0 7.7,-1.8 9.6,-3.8 2.8,-2.9 3.5,-6.4 3.5,-12 0,-5.6 -0.7,-9.1 -3.5,-12 -1.9,-2 -5.1,-3.8 -9.6,-3.8 z m 3.6,23.3 c -0.9,0.9 -2.1,1.4 -3.6,1.4 -1.5,0 -2.7,-0.5 -3.6,-1.4 -1.6,-1.6 -1.8,-4.3 -1.8,-7.5 0,-3.2 0.2,-5.9 1.8,-7.5 0.9,-0.9 2,-1.4 3.6,-1.4 1.5,0 2.7,0.5 3.6,1.4 1.6,1.6 1.8,4.3 1.8,7.5 -0.1,3.2 -0.2,5.9 -1.8,7.5 z m 45.8,-22.9 -5,19.1 -6.3,-19.1 h -5.6 l -6.3,19.1 -5,-19.1 H 373 l 9.5,30.8 h 6.3 l 6.5,-19.3 6.5,19.4 h 6.3 l 9.4,-30.8 h -8.1 z M 339.6,58.1 V 24.6 h -7.7 v 34.1 c 0,4.4 2.7,8.8 9,8.8 h 4.4 V 61 h -3 c -1.9,-0.1 -2.7,-1 -2.7,-2.9 z m -224.3,-15.6 4,-4 h -8.2 v -9.7 h -4.3 v 30.8 c 0,4.4 2.5,7.9 7.6,7.9 h 3.1 v -3.7 h -2.3 c -2.8,0 -4,-1.6 -4,-4.3 v -17 z"
     class="st0" />
  <path
     id="path14"
     d="M 58.5,74.7 V 52.8 h 7.3 V 82 H 0 V 52.8 h 7.3 v 21.9 z"
     class="st1" />
  <path
     id="path16"
     d="m 15.4,50.8 35.8,7.5 1.5,-7.2 -35.8,-7.5 z M 20.1,33.6 53.3,49.1 56.4,42.5 23.2,27 Z M 29.3,17.3 57.4,40.7 62.1,35.1 34,11.7 Z M 47.4,0 41.5,4.4 63.3,33.8 69.2,29.4 Z M 14.6,67.4 H 51.2 V 60.1 H 14.6 Z"
     class="st2" />
  <path
     id="path18"
     d="m 97,80.3 v -2.9 c 0,-0.5 -0.4,-0.8 -0.8,-0.8 h -15 c -0.5,0 -0.8,0.4 -0.8,0.8 v 2.9 c 0,0.5 0.4,0.8 0.8,0.8 h 5 v 17.6 c 0,0.5 0.4,0.8 0.8,0.8 h 3.2 c 0.5,0 0.8,-0.4 0.8,-0.8 V 81.1 h 5 c 0.6,0 1,-0.4 1,-0.8 z m 10.4,-3.2 c -0.1,-0.3 -0.4,-0.5 -0.8,-0.5 H 104 c -0.3,0 -0.7,0.2 -0.8,0.5 l -7.8,21.3 c -0.1,0.3 -0.1,0.5 0.1,0.8 0.2,0.2 0.4,0.4 0.7,0.4 h 3.4 c 0.4,0 0.7,-0.2 0.8,-0.6 l 1.3,-3.7 h 7.2 l 1.3,3.7 c 0.1,0.3 0.4,0.6 0.8,0.6 h 3.4 c 0.3,0 0.5,-0.1 0.7,-0.4 0.2,-0.2 0.2,-0.5 0.1,-0.8 z m -4.2,13.7 2.1,-6.1 2.1,6.1 z m 28.7,4.1 h -9.4 V 77.4 c 0,-0.5 -0.4,-0.8 -0.8,-0.8 h -3.2 c -0.5,0 -0.8,0.4 -0.8,0.8 v 21.3 c 0,0.5 0.4,0.8 0.8,0.8 H 132 c 0.5,0 0.8,-0.4 0.8,-0.8 v -2.9 c -0.1,-0.5 -0.4,-0.9 -0.9,-0.9 z m 17.9,-18.3 h -13.6 c -0.5,0 -0.8,0.4 -0.8,0.8 v 21.3 c 0,0.5 0.4,0.8 0.8,0.8 h 13.6 c 0.5,0 0.8,-0.4 0.8,-0.8 v -2.9 c 0,-0.5 -0.4,-0.8 -0.8,-0.8 h -9.5 v -4.7 h 8 c 0.5,0 0.8,-0.4 0.8,-0.8 v -2.9 c 0,-0.5 -0.4,-0.8 -0.8,-0.8 h -8 v -4.7 h 9.5 c 0.5,0 0.8,-0.4 0.8,-0.8 v -2.9 c 0,-0.5 -0.3,-0.8 -0.8,-0.8 z m 20.7,0 h -3.2 c -0.5,0 -0.8,0.4 -0.8,0.8 V 89.6 L 158.2,77 c -0.2,-0.2 -0.4,-0.4 -0.7,-0.4 h -3 c -0.5,0 -0.8,0.4 -0.8,0.8 v 21.3 c 0,0.5 0.4,0.8 0.8,0.8 h 3.2 c 0.5,0 0.8,-0.4 0.8,-0.8 V 86.5 l 8.3,12.7 c 0.2,0.2 0.4,0.4 0.7,0.4 h 3 c 0.5,0 0.8,-0.4 0.8,-0.8 V 77.4 c 0,-0.5 -0.3,-0.8 -0.8,-0.8 z m 19.3,0 h -15 c -0.5,0 -0.8,0.4 -0.8,0.8 v 2.9 c 0,0.5 0.4,0.8 0.8,0.8 h 5 v 17.6 c 0,0.5 0.4,0.8 0.8,0.8 h 3.2 c 0.5,0 0.8,-0.4 0.8,-0.8 V 81.1 h 5 c 0.5,0 0.8,-0.4 0.8,-0.8 v -2.9 c 0.2,-0.5 -0.1,-0.8 -0.6,-0.8 z"
     class="st3" />
</svg>
