<?xml version="1.0" encoding="UTF-8"?>
<!-- Generator: Adobe Illustrator 16.0.0, SVG Export Plug-In . SVG Version: 6.00 Build 0)  -->
<!DOCTYPE svg PUBLIC "-//W3C//DTD SVG 1.1//EN" "http://www.w3.org/Graphics/SVG/1.1/DTD/svg11.dtd">
<svg version="1.1" id="image" xmlns="http://www.w3.org/2000/svg" xmlns:xlink="http://www.w3.org/1999/xlink" x="0px" y="0px" width="153px" height="30px" viewBox="0 0 153 30" enable-background="new 0 0 153 30" xml:space="preserve">
<g>
	<g>
		<path fill="#2C659D" d="M26.494,25.103c-1.396,0.533-2.76,0.685-3.006,0.356l-0.008,0.003c-3.424-2.943-7.924-4.763-12.279-4.763    c-4.265,0-7.274,1.792-9.239,4.681H1.954c-0.028,0.079-0.243,0.164-0.48,0.164C1.209,25.544,1,25.49,1,25.365    c0-0.009,0-0.017,0.002-0.023c0-0.004,0-0.008,0.002-0.012c2.336-5.067,6.65-8.32,12.876-8.32c5.278,0,10.954,2.423,15.037,6.25    l-0.007,0.003c0.038,0.028,0.064,0.063,0.078,0.103C29.126,23.747,28.046,24.507,26.494,25.103z"/>
		<path fill="#4E99E3" d="M23.643,18.696c-0.037-0.021-0.392-0.194-0.623-0.313c-0.429-0.214-1.035-0.466-1.797-0.75    c-0.096-0.036-0.19-0.071-0.285-0.104c-0.168-0.062-0.342-0.125-0.521-0.189c-1.087-0.386-2.348-0.711-3.777-0.906    c-0.242-0.035-0.527-0.065-0.839-0.091c-0.591-0.059-1.181-0.089-1.764-0.089c-0.294,0-0.584,0.01-0.87,0.021    c-0.292,0.012-0.572,0.028-0.833,0.056c-1.688,0.172-2.646,0.498-2.934,0.599c-0.176,0.062-0.369,0.03-0.393-0.125    c-0.042-0.287,0.067-0.921,0.119-1.312c0.228-1.712,0.336-3.627-0.215-5.619C8.359,7.879,6.969,6.01,6.584,5.42    C6.159,4.767,6.451,4.542,6.941,4.449c2.146-0.402,6.667,0.792,8.922,1.834c2.684,1.236,7.684,5.193,8.064,11.974    C23.953,18.688,23.852,18.815,23.643,18.696z"/>
	</g>
	<g>
		<path fill="#565555" d="M43.161,22.362c-1.773,0-3.422-0.203-4.951-0.612v-1.732c1.529,0.545,3.178,0.817,4.951,0.817    c2.506,0,3.758-0.921,3.758-2.751c0-1.562-0.923-2.346-2.768-2.346h-1.876c-3.05,0-4.573-1.324-4.573-3.972    c0-2.783,1.95-4.175,5.857-4.175c1.695,0,3.275,0.202,4.737,0.61v1.731c-1.462-0.542-3.042-0.816-4.737-0.816    c-2.648,0-3.974,0.884-3.974,2.649c0,1.563,0.896,2.344,2.689,2.344h1.876c3.102,0,4.651,1.325,4.651,3.974    C48.803,20.935,46.921,22.362,43.161,22.362L43.161,22.362z M51.665,9.832h1.182l0.407,1.732h2.892v1.527h-2.598v6.144    c0,0.999,0.432,1.498,1.294,1.498h1.304v1.526h-1.791c-1.792,0-2.689-0.959-2.689-2.882V9.832L51.665,9.832z M62.163,22.259    c-2.544,0-3.818-1.076-3.818-3.229c0-2.192,1.445-3.292,4.336-3.292c0.934,0,1.862,0.07,2.793,0.207v-1.01    c0-1.229-0.96-1.845-2.883-1.845c-1.102,0-2.227,0.171-3.383,0.51v-1.526c1.156-0.341,2.281-0.511,3.383-0.511    c3.177,0,4.769,1.107,4.769,3.322v7.374h-1.062l-0.653-1.06C64.58,21.907,63.418,22.259,62.163,22.259L62.163,22.259z     M65.474,17.473c-0.931-0.137-1.859-0.206-2.793-0.206c-1.635,0-2.452,0.578-2.452,1.732s0.645,1.733,1.935,1.733    c1.306,0,2.407-0.346,3.311-1.04V17.473L65.474,17.473z M70.728,22.259V11.563h1.276l0.335,1.364    c0.935-0.91,2.063-1.364,3.383-1.364v1.567c-1.278,0-2.316,0.453-3.108,1.356v7.772H70.728z M78.648,9.832h1.181l0.404,1.732    h2.896v1.527H80.53v6.144c0,0.999,0.431,1.498,1.292,1.498h1.307v1.526h-1.793c-1.793,0-2.688-0.959-2.688-2.882V9.832z     M95.786,11.563v10.695h-1.294l-0.327-1.363c-1.296,0.909-2.6,1.363-3.911,1.363c-2.457,0-3.688-1.328-3.688-3.982v-6.713h1.884    v6.745c0,1.587,0.788,2.384,2.364,2.384c1.081,0,2.108-0.453,3.087-1.355v-7.773H95.786z M99.152,12.001    c1.42-0.291,2.887-0.438,4.399-0.438c3.432,0,5.146,1.695,5.146,5.083c0,3.744-1.724,5.612-5.175,5.612    c-0.856,0-1.684-0.17-2.487-0.509v4.381h-1.883V12.001z M101.035,20.081c0.739,0.366,1.568,0.548,2.478,0.548    c2.221,0,3.333-1.335,3.333-4.003c0-2.329-1.106-3.495-3.312-3.495c-0.952,0-1.783,0.083-2.499,0.246V20.081z M115.226,7.693    v10.37c0,2.8-1.649,4.196-4.942,4.196v-1.526c2.039,0,3.057-0.891,3.057-2.67V7.693H115.226z M123.483,22.248    c-3.381,0-5.081-1.778-5.093-5.337c0-3.565,1.696-5.348,5.093-5.348c3.396,0,5.093,1.783,5.093,5.348    C128.576,20.47,126.879,22.248,123.483,22.248L123.483,22.248z M120.274,16.871c0,2.572,1.07,3.861,3.209,3.861    s3.208-1.289,3.208-3.861c0-2.521-1.069-3.781-3.208-3.781S120.274,14.351,120.274,16.871L120.274,16.871z M131.438,7.693h1.881    v4.381c0.812-0.341,1.675-0.511,2.6-0.511c3.381,0,5.072,1.711,5.072,5.136c0,3.706-1.777,5.56-5.329,5.56    c-1.531,0-2.942-0.146-4.224-0.438V7.693z M133.319,20.397c0.62,0.193,1.369,0.295,2.255,0.295c2.374,0,3.562-1.355,3.562-4.066    c0-2.289-1.077-3.433-3.229-3.433c-0.979,0-1.841,0.183-2.588,0.55V20.397z M147.559,22.259c-1.286,0-2.554-0.17-3.812-0.509    v-1.63c1.259,0.409,2.526,0.612,3.812,0.612c1.702,0,2.556-0.51,2.556-1.527c0-0.951-0.596-1.427-1.782-1.427h-1.528    c-2.308,0-3.466-1.052-3.466-3.159c0-2.038,1.485-3.056,4.453-3.056c1.278,0,2.545,0.169,3.799,0.511v1.629    c-1.254-0.409-2.521-0.613-3.799-0.613c-1.779,0-2.67,0.51-2.67,1.529c0,0.95,0.562,1.426,1.683,1.426h1.528    c2.445,0,3.668,1.052,3.668,3.16C152,21.24,150.519,22.259,147.559,22.259L147.559,22.259z"/>
	</g>
</g>
</svg>