<?xml version="1.0" encoding="UTF-8" standalone="no"?>
<!-- Created with Inkscape (http://www.inkscape.org/) -->

<svg
   version="1.1"
   id="svg912"
   xml:space="preserve"
   width="879.92346"
   height="430.97198"
   viewBox="0 0 879.92346 430.97198"
   sodipodi:docname="strv.svg"
   inkscape:version="1.1.2 (b8e25be8, 2022-02-05)"
   xmlns:inkscape="http://www.inkscape.org/namespaces/inkscape"
   xmlns:sodipodi="http://sodipodi.sourceforge.net/DTD/sodipodi-0.dtd"
   xmlns="http://www.w3.org/2000/svg"
   xmlns:svg="http://www.w3.org/2000/svg"><defs
     id="defs916"><clipPath
       clipPathUnits="userSpaceOnUse"
       id="clipPath928"><path
         d="m 384.1463,453.8139 c -12.3126,-10.6152 -28.2558,-15.9283 -47.8297,-15.9283 -19.5794,0 -35.5226,5.379 -47.8297,16.1358 -12.3125,10.7569 -18.4578,27.4428 -18.4578,50.0566 v 44.5624 h 42.7894 V 509.457 c 0,-11.5858 2.4486,-19.7207 7.3449,-24.4079 4.8907,-4.6917 10.2784,-7.0348 16.1532,-7.0348 5.8737,0 11.257,2.3431 16.1532,7.0348 4.8907,4.6872 7.3394,12.8221 7.3394,24.4079 v 25.5268 c 0,5.7929 -2.2386,11.5144 -6.7093,17.1712 -4.4762,5.6512 -10.008,11.4386 -16.5733,17.3721 -6.5763,5.929 -13.7826,11.9997 -21.608,18.2066 -7.8353,6.2068 -15.0361,12.9583 -21.608,20.2708 -6.5752,7.3026 -12.1015,15.1663 -16.5722,23.58 -4.4762,8.4127 -6.7093,17.5841 -6.7093,27.513 v 35.8192 c 0,11.5847 1.7405,21.5796 5.2436,29.9977 3.4933,8.4094 8.318,15.308 14.4743,20.6858 6.1453,5.379 13.2131,9.3076 21.1869,11.7868 7.9694,2.4847 16.4248,3.7276 25.3827,3.7276 8.9469,0 17.4133,-1.2429 25.3816,-3.7276 7.9749,-2.4792 15.0317,-6.3474 21.188,-11.5792 6.1508,-5.2429 10.9755,-12.0701 14.4731,-20.4794 3.4987,-8.4182 5.2448,-18.5536 5.2448,-30.4117 v -45.7481 h -42.7949 v 40.3746 c 0,11.5803 -2.4487,19.7163 -7.3394,24.408 -4.8962,4.6861 -10.2795,7.0292 -16.1532,7.0292 -5.8748,0 -11.2625,-2.3431 -16.1532,-7.0292 -4.8963,-4.6917 -7.3449,-12.8277 -7.3449,-24.408 v -22.5831 c 0,-8.0042 2.2386,-15.2464 6.7148,-21.7201 4.4707,-6.4846 9.997,-12.6212 16.5733,-18.413 6.5708,-5.7874 13.7716,-11.5803 21.608,-17.3732 7.8254,-5.7918 15.0317,-11.8625 21.6069,-18.2055 6.5664,-6.3485 12.0927,-13.3777 16.5733,-21.0998 4.4718,-7.722 6.7093,-16.5442 6.7093,-26.4776 V 504.078 c 0,-22.8971 -6.1563,-39.6489 -18.4578,-50.2641"
         clip-rule="evenodd"
         id="path926" /></clipPath><clipPath
       clipPathUnits="userSpaceOnUse"
       id="clipPath934"><path
         d="M 0,0 H 1200 V 1200 H 0 Z"
         id="path932" /></clipPath><clipPath
       clipPathUnits="userSpaceOnUse"
       id="clipPath944"><path
         d="M 526.378,714.6576 V 442.021 h -42.2594 v 272.6366 h -44.9214 v 41.7856 h 132.5751 v -41.7856 z"
         clip-rule="evenodd"
         id="path942" /></clipPath><clipPath
       clipPathUnits="userSpaceOnUse"
       id="clipPath950"><path
         d="M 0,0 H 1200 V 1200 H 0 Z"
         id="path948" /></clipPath><clipPath
       clipPathUnits="userSpaceOnUse"
       id="clipPath960"><path
         d="m 702.6607,684.8717 c 0,11.5803 -1.9231,19.7163 -5.7648,24.4079 -3.8418,4.6862 -9.8936,7.0292 -18.1445,7.0292 H 656.9729 V 612.4691 h 21.7785 c 8.2509,0 14.3027,2.3387 18.1445,7.0348 3.8417,4.6872 5.7648,12.8232 5.7648,24.4079 z m 8.5379,-242.8508 -37.571,130.3195 H 656.9729 V 442.0209 H 613.4183 V 756.443 h 75.5807 c 16.5029,0 30.1701,-5.1055 40.9906,-15.3068 10.8161,-10.2067 16.2269,-27.1704 16.2269,-50.8866 V 641.841 c 0,-15.9985 -2.8511,-29.0282 -8.5379,-39.0933 -5.7032,-10.0695 -13.3857,-17.1701 -23.0605,-21.3073 l 40.1363,-139.4195 z"
         clip-rule="evenodd"
         id="path958" /></clipPath><clipPath
       clipPathUnits="userSpaceOnUse"
       id="clipPath966"><path
         d="M 0,0 H 1200 V 1200 H 0 Z"
         id="path964" /></clipPath><clipPath
       clipPathUnits="userSpaceOnUse"
       id="clipPath976"><path
         d="m 891.4408,442.0207 h -62.1445 l -38.9421,314.4221 h 42.2594 l 27.5477,-256.5007 27.551,256.5007 h 42.2594 z"
         clip-rule="evenodd"
         id="path974" /></clipPath><clipPath
       clipPathUnits="userSpaceOnUse"
       id="clipPath982"><path
         d="M 0,0 H 1200 V 1200 H 0 Z"
         id="path980" /></clipPath></defs><sodipodi:namedview
     id="namedview914"
     pagecolor="#ffffff"
     bordercolor="#666666"
     borderopacity="1.0"
     inkscape:pageshadow="2"
     inkscape:pageopacity="0.0"
     inkscape:pagecheckerboard="0"
     showgrid="false"
     fit-margin-top="0"
     fit-margin-left="0"
     fit-margin-right="0"
     fit-margin-bottom="0"
     inkscape:zoom="0.29875"
     inkscape:cx="443.51464"
     inkscape:cy="214.22594"
     inkscape:window-width="1377"
     inkscape:window-height="847"
     inkscape:window-x="63"
     inkscape:window-y="25"
     inkscape:window-maximized="1"
     inkscape:current-layer="g918" /><g
     id="g918"
     inkscape:groupmode="layer"
     inkscape:label="Logo-White"
     transform="matrix(1.3333333,0,0,-1.3333333,-360.03879,1014.8194)"><g
       id="g920" /><g
       id="g922"><g
         id="g924"
         clip-path="url(#clipPath928)"><g
           id="g930"
           clip-path="url(#clipPath934)"><path
             d="m 265.0291,766.1146 h 142.575 v -333.229 h -142.575 z"
             style="fill:#ef0d33;fill-opacity:1;fill-rule:nonzero;stroke:none"
             id="path936" /></g></g></g><g
       id="g938"><g
         id="g940"
         clip-path="url(#clipPath944)"><g
           id="g946"
           clip-path="url(#clipPath950)"><path
             d="M 434.1972,761.4432 H 576.7723 V 437.021 H 434.1972 Z"
             style="fill:#ef0d33;fill-opacity:1;fill-rule:nonzero;stroke:none"
             id="path952" /></g></g></g><g
       id="g954"><g
         id="g956"
         clip-path="url(#clipPath960)"><g
           id="g962"
           clip-path="url(#clipPath966)"><path
             d="M 608.4183,761.443 H 759.7544 V 437.0209 H 608.4183 Z"
             style="fill:#ef0d33;fill-opacity:1;fill-rule:nonzero;stroke:none"
             id="path968" /></g></g></g><g
       id="g970"><g
         id="g972"
         clip-path="url(#clipPath976)"><g
           id="g978"
           clip-path="url(#clipPath982)"><path
             d="M 785.3542,761.4428 H 934.9717 V 437.0207 H 785.3542 Z"
             style="fill:#ef0d33;fill-opacity:1;fill-rule:nonzero;stroke:none"
             id="path984" /></g></g></g></g></svg>
