<?xml version="1.0" encoding="UTF-8" standalone="no"?>
<svg
   id="Vrstva_1"
   viewBox="0 0 709.44276 220.69001"
   version="1.1"
   sodipodi:docname="tdč-logo.svg"
   width="709.44275"
   height="220.69"
   inkscape:version="1.3 (0e150ed, 2023-07-21)"
   xmlns:inkscape="http://www.inkscape.org/namespaces/inkscape"
   xmlns:sodipodi="http://sodipodi.sourceforge.net/DTD/sodipodi-0.dtd"
   xmlns="http://www.w3.org/2000/svg"
   xmlns:svg="http://www.w3.org/2000/svg">
  <sodipodi:namedview
     id="namedview23"
     pagecolor="#ffffff"
     bordercolor="#666666"
     borderopacity="1.0"
     inkscape:showpageshadow="2"
     inkscape:pageopacity="0.0"
     inkscape:pagecheckerboard="0"
     inkscape:deskcolor="#d1d1d1"
     inkscape:zoom="0.95146809"
     inkscape:cx="355.2405"
     inkscape:cy="109.83027"
     inkscape:window-width="1376"
     inkscape:window-height="847"
     inkscape:window-x="67"
     inkscape:window-y="25"
     inkscape:window-maximized="1"
     inkscape:current-layer="Vrstva_1" />
  <defs
     id="defs1">
    <style
       id="style1">.cls-1{fill:#241cc0;stroke-width:0px;}</style>
  </defs>
  <path
     class="cls-1"
     d="m 377.12277,11.25 h -9.23 V 8.24 h 22.07 v 3.01 h -9.22 v 29.46 h -3.62 z"
     id="path1" />
  <path
     class="cls-1"
     d="m 402.16277,30.03 -10.07,-21.79 h 3.86 l 8.19,18.07 8.24,-18.07 h 3.53 l -10.12,21.79 v 10.68 h -3.62 V 30.03 Z m -0.56,-25.84 4.19,-4.19 h 2.54 v 1.36 l -4.24,4.19 h -2.5 V 4.19 Z"
     id="path2" />
  <path
     class="cls-1"
     d="m 420.61277,8.24 h 16.94 l 4.42,4.42 v 23.63 l -4.42,4.42 h -16.94 z m 15.2,29.46 2.54,-2.54 V 13.79 l -2.54,-2.54 h -11.58 V 37.7 Z"
     id="path3" />
  <path
     class="cls-1"
     d="m 449.51277,8.24 h 18.4 v 3.01 h -14.78 v 11.67 h 13.79 v 3.01 h -13.79 V 37.7 h 14.87 v 3.01 h -18.5 V 8.24 Z"
     id="path4" />
  <path
     class="cls-1"
     d="m 474.36277,8.24 h 4.19 l 14.21,27.63 V 8.24 h 3.25 v 32.47 h -4.19 l -14.21,-27.72 v 27.72 h -3.25 z"
     id="path5" />
  <path
     class="cls-1"
     d="m 515.55277,8.24 h 16.94 l 4.14,4.14 v 11.06 l -4.14,4.14 h -13.32 v 13.13 h -3.62 z m 15.11,16.43 2.35,-2.35 v -8.8 l -2.35,-2.35 h -11.48 v 13.51 h 11.48 z"
     id="path6" />
  <path
     class="cls-1"
     d="m 542.52277,8.24 h 17.23 l 4.14,4.14 v 9.79 l -3.91,3.91 4.28,14.64 h -3.67 l -4.05,-14.12 h -10.4 v 14.12 h -3.62 z m 15.2,15.34 2.54,-2.54 v -7.53 l -2.35,-2.35 h -11.77 v 12.42 z"
     id="path7" />
  <path
     class="cls-1"
     d="M 570.62277,36.29 V 12.66 l 4.42,-4.42 h 13.23 l 4.42,4.42 v 23.63 l -4.42,4.42 h -13.23 z m 15.91,1.41 2.54,-2.54 V 13.79 l -2.54,-2.54 h -9.74 l -2.54,2.54 v 21.37 l 2.54,2.54 z"
     id="path8" />
  <path
     class="cls-1"
     d="m 373.48277,67.65 h 36.73 l 9.04,9.05 v 44.95 l -9.04,9.04 h -36.73 z m 30.7,54.73 4.29,-4.29 V 80.26 l -4.29,-4.29 h -19.92 v 46.41 z"
     id="path9" />
  <path
     class="cls-1"
     d="m 431.77277,68.66 h 10.32 v 10.32 h -10.32 z m 0,62.04 V 85.38 h 10.32 v 45.32 z"
     id="path10" />
  <path
     class="cls-1"
     d="m 454.80277,139.65 v -5.76 h 9.87 v 3.47 l 2.19,2.1 h 14.8 l 3.47,-3.47 v -13.34 l -6.21,6.12 h -16.72 l -8.04,-8.04 V 93.5 l 8.04,-8.13 h 17.45 l 7.4,7.4 0.55,-7.4 h 7.86 v 53.08 l -8.13,8.13 h -25.58 l -6.94,-6.94 z m 23.85,-18 6.49,-6.49 V 99.17 l -6.67,-6.58 h -10.6 l -3.47,3.47 v 22.02 l 3.47,3.56 h 10.78 z"
     id="path11" />
  <path
     class="cls-1"
     d="m 508.15277,68.66 h 10.32 v 10.32 h -10.32 z m 0,62.04 V 85.38 h 10.32 v 45.32 z"
     id="path12" />
  <path
     class="cls-1"
     d="m 534.01277,122.56 v -29.6 h -6.94 v -7.58 h 6.94 V 72.59 h 10.23 v 12.79 h 15.35 v 7.58 h -15.35 v 26.5 l 3.47,3.38 h 11.88 v 7.86 h -17.54 l -8.04,-8.13 z"
     id="path13" />
  <path
     class="cls-1"
     d="m 566.63277,123.39 v -12.33 l 7.31,-7.31 h 23.12 v -8.22 l -3.11,-3.2 h -13.16 l -2.37,2.38 v 3.93 h -10.6 V 92.7 l 7.31,-7.31 h 24.12 l 8.13,8.13 v 37.19 h -7.86 l -0.55,-6.85 -6.85,6.85 h -18.27 l -7.22,-7.31 z m 24.94,0.18 5.48,-5.48 v -8.04 h -17.45 l -2.65,2.65 v 8.31 l 2.56,2.56 z m -9.78,-46.23 7.77,-7.77 h 6.49 v 3.93 l -7.86,7.77 h -6.4 z"
     id="path14" />
  <path
     class="cls-1"
     d="M 619.90277,130.69 V 67.65 h 10.32 v 63.04 z"
     id="path15" />
  <path
     class="cls-1"
     d="m 643.10277,85.38 h 7.86 l 0.55,7.49 7.4,-7.49 h 15.72 l 8.04,8.13 v 37.19 h -10.23 V 96.62 l -3.38,-3.38 h -8.86 l -6.85,6.85 v 30.61 h -10.23 V 85.38 Z"
     id="path16" />
  <path
     class="cls-1"
     d="m 695.18277,77.34 7.77,-7.77 h 6.49 v 3.93 l -7.86,7.77 h -6.4 z m 0,53.36 V 85.38 h 10.32 v 45.32 z"
     id="path17" />
  <path
     class="cls-1"
     d="m 372.57277,211.63 v -44.95 l 9.04,-9.04 h 27.87 l 8.68,8.68 v 11.33 h -10.69 v -7.77 l -3.93,-3.93 h -15.9 l -4.29,4.29 v 37.92 l 4.29,4.29 h 15.9 l 3.93,-3.93 v -8.13 h 10.69 v 11.6 l -8.68,8.68 h -27.87 z m 10.51,-66.61 v -3.66 h 5.48 l 6.21,6.21 h 0.91 l 6.3,-6.21 h 5.48 v 3.66 l -7.31,7.31 h -9.87 l -7.22,-7.31 z"
     id="path18" />
  <path
     class="cls-1"
     d="M 428.30277,212.55 V 183.5 l 8.04,-8.13 h 24.49 l 8.04,8.13 v 16.9 h -30.52 v 9.87 l 3.38,3.38 h 14.62 l 2.28,-2.28 v -4.29 h 10.23 v 6.58 l -6.94,7.03 h -25.58 l -8.04,-8.13 z m 30.52,-18.73 v -8.22 l -3.2,-3.2 h -13.98 l -3.29,3.2 v 8.22 z"
     id="path19" />
  <path
     class="cls-1"
     d="m 478.28277,213.83 v -6.3 h 10.05 v 4.02 l 2.01,2.1 h 14.98 l 2.56,-2.47 v -8.04 l -1.65,-1.55 h -21.84 l -5.85,-5.85 v -12.97 l 7.4,-7.4 h 24.85 l 6.85,6.85 v 6.21 h -10.14 v -4.02 l -2.1,-2.01 h -14.07 l -2.47,2.47 v 7.95 l 1.46,1.46 h 21.84 l 5.94,5.94 v 13.06 l -7.4,7.4 h -25.58 l -6.85,-6.85 z"
     id="path20" />
  <path
     class="cls-1"
     d="m 548.45277,199.03 -9.68,11.51 v 10.14 h -10.23 v -63.04 h 10.23 v 41.48 l 18.82,-23.76 h 11.79 l -13.98,16.9 15.44,28.41 h -11.24 l -11.15,-21.65 z"
     id="path21" />
  <path
     class="cls-1"
     d="M 575.95277,212.55 V 183.5 l 8.04,-8.13 h 24.94 l 8.13,8.13 v 29.05 l -8.13,8.13 h -24.94 z m 27.41,1.1 3.38,-3.56 v -24.21 l -3.38,-3.47 h -13.7 l -3.47,3.47 v 24.21 l 3.47,3.56 z"
     id="path22" />
  <path
     class="cls-1"
     d="m 313.27277,45.85 c -38.02,-34.09 -96.45,-31.34 -132.55,4.77 l -77.87,77.88 h 18.61 c 6.65,0 12.07,5.39 12.07,12.07 0,6.68 -5.39,12.07 -12.07,12.07 H 73.742769 c -3.34,0 -6.33,-1.36 -8.52,-3.55 -2.19,-2.19 -3.55,-5.18 -3.55,-8.52 V 92.85 c 0,-6.64 5.39,-12.07 12.07,-12.07 6.68,0 12.07,5.39 12.07,12.07 v 18.61 L 154.89277,42.38 c -39.32,-31.06 -97.540001,-26.89 -131.700001,12.55 -30.8199997,35.55 -30.9199997,89.07 -0.32,124.76 36.66,42.68 101.350001,44.52 140.410001,5.46 l 78.95,-78.95 h -18.61 c -6.65,0 -12.07,-5.39 -12.07,-12.07 0,-6.68 5.39,-12.07 12.07,-12.07 h 47.72 c 6.64,0 12.07,5.39 12.07,12.07 v 47.72 c 0,6.64 -5.39,12.07 -12.07,12.07 -3.34,0 -6.33,-1.36 -8.52,-3.55 -2.19,-2.19 -3.55,-5.18 -3.55,-8.52 v -18.61 l -69.04,69.04 c 37.53,29.63 92.28,27.16 126.92,-7.44 38.57,-38.57 37.28,-102.12 -3.86,-138.99 h -0.04 z"
     id="path23" />
</svg>
