<?xml version="1.0" encoding="UTF-8" standalone="no"?>
<!-- Creator: CorelDRAW -->

<svg
   xml:space="preserve"
   width="4.1015654in"
   height="0.4975962in"
   style="clip-rule:evenodd;fill-rule:evenodd;image-rendering:optimizeQuality;shape-rendering:geometricPrecision;text-rendering:geometricPrecision"
   viewBox="0 0 2.5135232 0.30493735"
   version="1.1"
   id="svg846"
   sodipodi:docname="twguild.svg"
   inkscape:version="1.1.2 (b8e25be8, 2022-02-05)"
   xmlns:inkscape="http://www.inkscape.org/namespaces/inkscape"
   xmlns:sodipodi="http://sodipodi.sourceforge.net/DTD/sodipodi-0.dtd"
   xmlns="http://www.w3.org/2000/svg"
   xmlns:svg="http://www.w3.org/2000/svg"><sodipodi:namedview
   id="namedview848"
   pagecolor="#ffffff"
   bordercolor="#666666"
   borderopacity="1.0"
   inkscape:pageshadow="2"
   inkscape:pageopacity="0.0"
   inkscape:pagecheckerboard="0"
   inkscape:document-units="in"
   showgrid="false"
   fit-margin-top="0"
   fit-margin-left="0"
   fit-margin-right="0"
   fit-margin-bottom="0"
   inkscape:zoom="2.925716"
   inkscape:cx="197.38758"
   inkscape:cy="23.925767"
   inkscape:window-width="1377"
   inkscape:window-height="847"
   inkscape:window-x="63"
   inkscape:window-y="25"
   inkscape:window-maximized="1"
   inkscape:current-layer="svg846" />
 <defs
   id="defs826">
  <style
   type="text/css"
   id="style824">
   <![CDATA[
    .fil0 {fill:#1F1A17;fill-rule:nonzero}
    .fil1 {fill:#29186F;fill-rule:nonzero}
   ]]>
  </style>
 </defs>
 <g
   id="Vrstva_x0020_1"
   inkscape:label="Vrstva 1"
   inkscape:groupmode="layer">
  <metadata
   id="CorelCorpID_0Corel-Layer" />
  <path
   id="guild.cz"
   class="fil0"
   d="m 0.787654,0.0483719 c 0.0125677,0 0.0252053,7.5276e-4 0.0379105,0.0022559 0.0127052,0.0015031 0.0245901,0.003689 0.035657,0.0065577 0.0110646,0.0028687 0.0204234,0.0062151 0.028074,0.0100416 V 0.1323912 H 0.8860165 C 0.8816445,0.1149041 0.8751546,0.1012435 0.8665486,0.091407 0.8579426,0.0815705 0.8480361,0.0746027 0.836834,0.0705059 0.8256319,0.0664067 0.8134744,0.064356 0.8003591,0.064356 c -0.0191277,0 -0.0352469,0.0045093 -0.0483622,0.0135255 -0.0131153,0.0090162 -0.0230194,0.022064 -0.0297146,0.0391409 -0.006695,0.017077 -0.0100416,0.0376378 -0.0100416,0.0616826 0,0.0226768 0.003006,0.0422147 0.009016,0.0586065 0.006012,0.0163942 0.0148911,0.0290994 0.0266408,0.038118 0.0117498,0.009016 0.025958,0.0135231 0.0426248,0.0135231 0.008744,0 0.017077,-0.001433 0.0250002,-0.004302 0.007923,-0.002869 0.0148911,-0.007105 0.0209011,-0.0127052 0.006012,-0.005602 0.0102467,-0.0125001 0.0127052,-0.0206984 l 4.1016e-4,-0.0491825 c 0,-0.005462 -0.001571,-0.009561 -0.004712,-0.012295 -0.003144,-0.002731 -0.007583,-0.004097 -0.0133204,-0.004097 h -0.005737 v -0.003689 h 0.10533 v 0.003689 h -0.005327 c -0.0120224,0 -0.0178973,0.005465 -0.0176246,0.0163918 V 0.256574 c -0.005737,0.007378 -0.0146184,0.0148235 -0.0266408,0.0223366 -0.0120224,0.007516 -0.0262283,0.0137306 -0.0426224,0.01865 -0.0163942,0.004917 -0.0342914,0.007376 -0.0536918,0.007376 C 0.75787176,0.30466397 0.73409956,0.2994046 0.71388136,0.2891577 0.69366066,0.278911 0.67795166,0.264225 0.66674716,0.2450997 0.65554506,0.2259744 0.64994526,0.2030225 0.64994526,0.1762466 c 0,-0.0267784 0.0056,-0.0496602 0.0168019,-0.0686504 0.0112045,-0.0189902 0.027051,-0.0336087 0.0475443,-0.0438529 0.0204909,-0.0102467 0.0449458,-0.0153712 0.0733625,-0.0153714 z" />
  <path
   id="path830"
   class="fil0"
   d="m 1.02987,0.0537015 v 0.154513 c 0,0.0251353 0.00581,0.0448083 0.01742,0.0590166 0.011612,0.0142083 0.027801,0.0213112 0.048567,0.0213112 0.021584,0 0.038321,-0.006693 0.050205,-0.0200808 C 1.157947,0.2550735 1.164027,0.2364935 1.1643,0.2127213 v -0.15902 h 0.027051 v 0.156561 c 0,0.0292345 -0.00895,0.0523238 -0.026846,0.0692633 C 1.14661,0.2964675 1.121267,0.304936 1.088479,0.304936 1.049133,0.304936 1.019693,0.296535 1.000158,0.2797307 0.9806201,0.2629264 0.9708536,0.239907 0.9708536,0.2106725 v -0.156971 z m -0.0581963,0 v 0.0213112 h -8.2031e-4 c -2.7264e-4,-0.0051921 -0.002186,-0.0094264 -0.005737,-0.0127052 -0.003554,-0.0032788 -0.007926,-0.004917 -0.0131153,-0.004917 0,0 -9.5784e-4,0 -0.002869,0 -0.001913,0 -0.002869,0 -0.002869,0 v -0.003689 z m 0.0823786,0 v 0.003689 c 0,0 -9.554e-4,0 -0.00287,0 -0.00191,0 -0.00287,0 -0.00287,0 -0.00519,0 -0.00956,0.0016382 -0.013115,0.004917 -0.00355,0.0032788 -0.00533,0.0075131 -0.00533,0.0127052 H 1.0290494 V 0.0537015 Z m 0.111068,0 V 0.0750127 H 1.1643 C 1.1640274,0.0698206 1.16211,0.0655863 1.15856,0.0623075 1.15501,0.0590287 1.15077,0.0573905 1.145855,0.0573905 c 0,0 -9.554e-4,0 -0.00287,0 -0.00191,0 -0.00287,0 -0.00287,0 v -0.003689 z m 0.050411,0 v 0.003689 c 0,0 -8.879e-4,0 -0.00266,0 -0.00178,0 -0.00266,0 -0.00266,0 -0.00519,0 -0.00963,0.0016382 -0.01332,0.004917 -0.00369,0.0032788 -0.00553,0.0075131 -0.00553,0.0127052 H 1.190541 V 0.0537015 Z" />
  <path
   id="path832"
   class="fil0"
   d="m 1.32578,0.0537015 v 0.245908 H 1.266763 V 0.0537015 Z M 1.267991,0.2737885 V 0.299609 H 1.238074 V 0.29551 c 0,0 8.179e-4,0 0.00246,0 0.00164,0 0.0026,0 0.00287,0 0.00629,0 0.01175,-0.002116 0.016394,-0.006353 0.00464,-0.004234 0.00697,-0.009356 0.00697,-0.0153688 z m 0.056971,0 h 8.18e-4 c 2.75e-4,0.006012 0.00266,0.0111345 0.00717,0.0153688 0.00451,0.004237 0.010042,0.006353 0.016599,0.006353 0,0 7.503e-4,0 0.00225,0 0.0015,0 0.00239,0 0.00266,0 v 0.004099 H 1.324952 Z m 0,-0.194267 V 0.053701 h 0.029507 l -4.102e-4,0.0040992 c 0,0 -6.827e-4,0 -0.00205,0 -0.00137,0 -0.00219,0 -0.00246,0 -0.00656,0 -0.01209,0.0020484 -0.016599,0.0061475 -0.00451,0.0040967 -0.0069,0.0092888 -0.00717,0.0155739 z m -0.056971,0 h -0.00123 c 0,-0.006285 -0.00232,-0.0114771 -0.00697,-0.0155739 C 1.255151,0.0598485 1.249544,0.0578001 1.242987,0.0578001 c 0,0 -8.203e-4,0 -0.00246,0 -0.00164,0 -0.00246,0 -0.00246,0 V 0.053701 h 0.029917 z" />
  <path
   id="path834"
   class="fil0"
   d="m 1.46882,0.0537015 v 0.245908 H 1.409801 v -0.245908 z m 0.095494,0.229514 0.00984,0.0163942 H 1.4679994 V 0.2832155 Z M 1.5913625,0.2241989 1.5753785,0.2996097 H 1.504477 L 1.517182,0.2832155 c 0.011747,0 0.022199,-0.002391 0.031353,-0.007173 C 1.557685,0.2712625 1.565542,0.2644303 1.5721,0.2555516 1.57866,0.2466706 1.583712,0.2362188 1.587266,0.2241988 Z m -0.180331,0.0495903 0.00164,0.0258205 h -0.030327 v -0.004099 c 0,0 8.179e-4,0 0.00246,0 0.00164,0 0.0026,0 0.00287,0 0.00601,0 0.011202,-0.002116 0.015574,-0.006353 0.00437,-0.004234 0.00656,-0.009356 0.00656,-0.0153688 z m 0.056968,-0.194267 V 0.0537017 h 0.028279 v 0.0040992 c -2.726e-4,0 -0.00116,0 -0.00266,0 -0.0015,0 -0.00225,0 -0.00225,0 -0.00601,0 -0.011204,0.0020484 -0.015576,0.0061475 -0.00437,0.0040967 -0.00669,0.0092888 -0.00697,0.0155739 z m -0.056968,0 h -0.00123 c 0,-0.006285 -0.00225,-0.0114771 -0.00676,-0.0155739 -0.00451,-0.0040992 -0.00977,-0.0061475 -0.015779,-0.0061475 -2.727e-4,0 -0.00116,0 -0.00266,0 -0.0015,0 -0.00225,0 -0.00225,0 V 0.0537017 h 0.028689 z" />
  <path
   id="path836"
   class="fil0"
   d="m 1.74547,0.0537015 c 0.029234,0 0.054372,0.0048495 0.075411,0.0145485 0.021039,0.0097014 0.03716,0.0237722 0.048362,0.0422147 0.011202,0.0184425 0.016804,0.0405065 0.016804,0.0661895 0,0.0256854 -0.0056,0.0476794 -0.016804,0.0659868 C 1.858041,0.260946 1.841919,0.2750192 1.820881,0.2848557 1.799842,0.2946927 1.774705,0.2996092 1.74547,0.2996092 H 1.6544829 L 1.6536626,0.283215 c 0.020766,0 0.0375,0 0.050208,0 0.012705,0 0.021994,0 0.027869,0 0.00587,0 0.00881,0 0.00881,0 0.025683,0 0.045971,-0.009426 0.060862,-0.028279 0.014891,-0.0188527 0.022337,-0.0449458 0.022337,-0.0782819 0,-0.0333336 -0.00745,-0.0594943 -0.022337,-0.0784845 -0.014891,-0.0189902 -0.035179,-0.0284841 -0.060862,-0.0284841 0,0 -0.00301,0 -0.00902,0 -0.00601,0 -0.015711,0 -0.029099,0 -0.013388,0 -0.031013,0 -0.052872,0 v -0.015984 z m -0.051231,0 v 0.245908 H 1.63522 V 0.0537015 Z M 1.63645,0.2733785 V 0.2996092 H 1.60694 v -0.004099 c 0,0 8.203e-4,0 0.00246,0 0.00164,0 0.0026,0 0.00287,0 0.00629,0 0.01168,-0.002186 0.016189,-0.006558 0.00451,-0.004372 0.00676,-0.009561 0.00676,-0.0155739 z M 1.6360403,0.0795215 H 1.63522 C 1.6349474,0.0732365 1.63256,0.0680444 1.62805,0.0639476 1.62354,0.0598485 1.61815,0.0578001 1.611861,0.0578001 c 0,0 -8.203e-4,0 -0.00246,0 -0.00164,0 -0.00246,0 -0.00246,0 V 0.053701 H 1.63604 Z" />
  <path
   id="path838"
   class="fil0"
   d="m 1.94547,0.303708 c -0.0082,0 -0.015164,-0.002869 -0.020903,-0.008608 -0.00574,-0.005737 -0.00861,-0.0127052 -0.00861,-0.0209011 0,-0.008471 0.00287,-0.0155739 0.00861,-0.0213112 0.00574,-0.00574 0.012705,-0.008608 0.020903,-0.008608 0.00847,0 0.015574,0.002869 0.021311,0.008608 0.00574,0.005737 0.00861,0.0128403 0.00861,0.0213112 0,0.008196 -0.00287,0.0151637 -0.00861,0.0209011 C 1.961041,0.30084 1.953938,0.303708 1.94547,0.303708 Z" />
  <path
   id="path840"
   class="fil0"
   d="M 2.25081,0.196737 2.25532,0.2586247 C 2.25013,0.2673687 2.24289,0.275224 2.233599,0.2821894 2.224309,0.2891574 2.212971,0.2946919 2.199583,0.2987887 2.186195,0.3028877 2.170621,0.3049367 2.152859,0.3049367 2.122259,0.30466407 2.095891,0.2994717 2.073759,0.2893628 2.051628,0.2792537 2.034618,0.2647052 2.022733,0.245715 2.010848,0.2267248 2.004906,0.2035679 2.004906,0.1762467 c 0,-0.0267784 0.00587,-0.0496602 0.017622,-0.0686504 C 2.034278,0.0886061 2.051217,0.0739876 2.073349,0.0637434 2.09548,0.0534967 2.121984,0.0483722 2.152859,0.0483722 c 0.01858,0 0.035862,0.0017781 0.051846,0.0053296 0.015984,0.0035515 0.029304,0.0080608 0.039961,0.0135255 l 4.101e-4,0.0651641 h -0.00328 C 2.2349661,0.1072537 2.2241711,0.0896314 2.2094181,0.0795223 2.1946621,0.0694132 2.1770401,0.0643562 2.1565461,0.0643562 c -0.019673,0 -0.036135,0.0046468 -0.049385,0.0139357 -0.013253,0.0092912 -0.023224,0.0222691 -0.02992,0.0389359 -0.0067,0.0166668 -0.010042,0.0362023 -0.010042,0.0586089 0,0.0226768 0.00335,0.0423498 0.010042,0.0590166 0.0067,0.0166668 0.016462,0.029647 0.029304,0.0389359 0.012843,0.009289 0.028279,0.0142083 0.046311,0.0147535 0.0194,0 0.035452,-0.003004 0.048157,-0.009016 0.012705,-0.00601 0.022817,-0.015709 0.03033,-0.0290994 0.00751,-0.013388 0.01291,-0.0312852 0.016189,-0.0536894 z" />
  <path
   id="path842"
   class="fil0"
   d="m 2.49836,0.0483719 c 0,0 0,5.4768e-4 0,0.0016406 0,0.0010929 0,0.0016382 0,0.0016382 L 2.355734,0.2996097 H 2.28524 v -0.003279 l 0.134838,-0.226645 h -0.1291 v -0.016394 h 0.165578 c 0.00519,0 0.010724,-2.0508e-4 0.016599,-6.1523e-4 0.00587,-4.1016e-4 0.011134,-0.0010254 0.015779,-0.0018433 0.00464,-8.2032e-4 0.00779,-0.0016406 0.00943,-0.0024613 z m -0.0041,0.235253 -0.00287,0.015984 H 2.312287 V 0.2836249 Z M 2.513523,0.2241981 2.495901,0.2996089 H 2.421718 l 0.013936,-0.015984 c 0.01284,0 0.024042,-0.002391 0.033606,-0.007173 C 2.47882,0.2716699 2.486952,0.2648397 2.493645,0.255961 2.500345,0.24708 2.5056,0.2364931 2.509426,0.224198 Z M 2.290977,0.0684551 h 0.041805 v 0.0012305 c -0.01175,0 -0.020971,0.0034839 -0.027666,0.0104517 C 2.298426,0.0871027 2.295074,0.096599 2.295074,0.1086214 v 0.003279 h -0.0041 z m 0,-0.0213112 c 0.00219,8.2031e-4 0.0058,0.0017082 0.01086,0.0026636 0.00505,9.5542e-4 0.010657,0.0017757 0.016804,0.0024585 0.00615,6.8279e-4 0.011817,0.0010254 0.017009,0.0010254 L 2.290977,0.0573906 Z" />
  <path
   id="TW"
   class="fil1"
   d="m 0.35698,0.0372976 h -1.8336e-4 l 0.0448831,0.111599 0.0708822,-0.147666 h 0.003689 l 1.5923e-4,7.0209e-4 0.0816065,0.150638 0.0326943,-0.115273 h -1.1098e-4 c 0.002181,-0.0081959 0.001498,-0.0144785 -0.002053,-0.0188551 -0.003554,-0.0043694 -0.008061,-0.0065528 -0.0135255,-0.0065528 h -0.003689 v -0.0041016 h 0.0893513 v 0.00410156 c 0,0 -5.4768e-4,0 -0.001641,0 -0.001095,0 -0.001643,0 -0.001643,0 -0.006283,0 -0.0131129,0.0019784 -0.0204909,0.0059376 -0.006577,0.0035394 -0.0114337,0.0090958 -0.0145364,0.0166523 l -0.0698906,0.22373 -0.001848,0.006418 -0.003549,0.0173544 -1.3511e-4,0.001023 c -9.5784e-4,0.006965 -0.001025,0.0138681 -2.0749e-4,0.0206984 h -0.004097 l -0.0946592,-0.178136 -0.0647757,0.132642 c 0,0 -8.8546e-4,0.002251 -0.002661,0.006763 -0.001776,0.004507 -0.003554,0.0101743 -0.00533,0.0170046 -0.001776,0.00683 -0.002799,0.0140732 -0.003074,0.0217262 h -0.003689 l -0.0828394,-0.219677 -5.308e-5,-4.83e-6 c -0.0102877,-0.0274177 -0.0140587,-0.0301826 -0.0253114,-0.0416019 -0.009286,-0.0094264 -0.0222691,-0.0142758 -0.0389359,-0.0145461 h -0.0401687 v 0.236892 c 2.7746e-4,0.007105 0.002939,0.0131853 0.007993,0.0182399 0.005059,0.005052 0.0111394,0.007581 0.0182399,0.007581 0,0 8.9028e-4,0 0.002668,0 0.001771,0 0.002661,0 0.002661,0 v 0.004099 h -0.0315627 -0.001228 -0.0815583 -0.0012281 -0.0315627 v -0.004099 c 0,0 8.9028e-4,0 0.0026684,0 0.0017757,0 0.0026612,0 0.0026612,0 0.0071078,0 0.0131877,-0.002528 0.0182399,-0.007581 0.0050546,-0.005055 0.0077182,-0.0111345 0.0079932,-0.0182399 v -0.236892 h -0.0401687 c -0.0166668,2.7022e-4 -0.0296446,0.0051197 -0.0389334,0.0145461 -0.00928882,0.0094288 -0.0139381,0.022339 -0.0139381,0.0387308 v 0.0028711 L -2.6e-7,0.08443104 V 0.02787294 0.02664247 0.01188897 0.00737726 -7.1936e-7 C 0.0027309,0.00109222 0.0068976,0.00218758 0.01249744,0.00328053 c 0.0056023,0.00109536 0.0118173,0.00204837 0.0186476,0.00286627 0.0060848,7.3104e-4 0.0117473,0.00115326 0.0169612,0.00123047 h 2.7746e-4 2.7504e-4 2.654e-4 2.7746e-4 2.6057e-4 2.7504e-4 2.6299e-4 0.325835 v 0.00451171 h -0.003689 c -0.00519,0 -0.009769,0.0021835 -0.0137282,0.0065528 C 0.354454,0.02281838 0.353979,0.02910098 0.35698,0.0372976 Z" />
 </g>
</svg>
