<?xml version="1.0" encoding="UTF-8"?>
<!-- Creator: CorelDRAW -->
<svg id="svg846" width="4.1016in" height=".4976in" clip-rule="evenodd" fill-rule="evenodd" image-rendering="optimizeQuality" shape-rendering="geometricPrecision" text-rendering="geometricPrecision" version="1.1" viewBox="0 0 2.5135 .30494" xml:space="preserve" xmlns="http://www.w3.org/2000/svg">
 <defs id="defs826">
  <style id="style824" type="text/css">
   <![CDATA[
    .fil0 {fill:#1F1A17;fill-rule:nonzero}
    .fil1 {fill:#29186F;fill-rule:nonzero}
   ]]>
  </style>
 </defs>
 <g id="Vrstva_x0020_1">
  
  <path id="guild.cz" class="fil0" d="m0.78765 0.048372c0.012568 0 0.025205 7.5276e-4 0.03791 0.0022559 0.012705 0.0015031 0.02459 0.003689 0.035657 0.0065577 0.011065 0.0028687 0.020423 0.0062151 0.028074 0.010042v0.065164h-0.003279c-0.004372-0.017487-0.010862-0.031148-0.019468-0.040984s-0.018512-0.016804-0.029715-0.020901c-0.011202-0.0040992-0.02336-0.0061499-0.036475-0.0061499-0.019128 0-0.035247 0.0045093-0.048362 0.013526s-0.023019 0.022064-0.029715 0.039141c-0.006695 0.017077-0.010042 0.037638-0.010042 0.061683 0 0.022677 0.003006 0.042215 0.009016 0.058606 0.006012 0.016394 0.014891 0.029099 0.026641 0.038118 0.01175 0.009016 0.025958 0.013523 0.042625 0.013523 0.008744 0 0.017077-0.001433 0.025-0.004302s0.014891-0.007105 0.020901-0.012705c0.006012-0.005602 0.010247-0.0125 0.012705-0.020698l4.1016e-4 -0.049182c0-0.005462-0.001571-0.009561-0.004712-0.012295-0.003144-0.002731-0.007583-0.004097-0.01332-0.004097h-0.005737v-0.003689h0.10533v0.003689h-0.005327c-0.012022 0-0.017897 0.005465-0.017625 0.016392v0.05451c-0.005737 0.007378-0.014618 0.014824-0.026641 0.022337-0.012022 0.007516-0.026228 0.013731-0.042622 0.01865-0.016394 0.004917-0.034291 0.007376-0.053692 0.007376-0.027321-2.7263e-4 -0.051093-0.005532-0.071312-0.015779-0.020221-0.010247-0.03593-0.024933-0.047134-0.044058-0.011202-0.019125-0.016802-0.042077-0.016802-0.068853 0-0.026778 0.0056-0.04966 0.016802-0.06865 0.011204-0.01899 0.027051-0.033609 0.047544-0.043853 0.020491-0.010247 0.044946-0.015371 0.073362-0.015371z"/>
  <path id="path830" class="fil0" d="m1.0299 0.053702v0.15451c0 0.025135 0.00581 0.044808 0.01742 0.059017 0.011612 0.014208 0.027801 0.021311 0.048567 0.021311 0.021584 0 0.038321-0.006693 0.050205-0.020081 0.011885-0.013388 0.017965-0.031968 0.018238-0.05574v-0.15902h0.027051v0.15656c0 0.029234-0.00895 0.052324-0.026846 0.069263-0.017895 0.016942-0.043238 0.02541-0.076026 0.02541-0.039346 0-0.068786-0.008401-0.088321-0.025205-0.019538-0.016804-0.029304-0.039824-0.029304-0.069058v-0.15697zm-0.058196 0v0.021311h-8.2031e-4c-2.7264e-4 -0.0051921-0.002186-0.0094264-0.005737-0.012705-0.003554-0.0032788-0.007926-0.004917-0.013115-0.004917h-0.005738v-0.003689zm0.082379 0v0.003689h-0.00574c-0.00519 0-0.00956 0.0016382-0.013115 0.004917-0.00355 0.0032788-0.00533 0.0075131-0.00533 0.012705h-8.179e-4v-0.021311zm0.11107 0v0.021311h-8.203e-4c-2.726e-4 -0.0051921-0.00219-0.0094264-0.00574-0.012705s-0.00779-0.004917-0.012705-0.004917h-0.00574v-0.003689zm0.050411 0v0.003689h-0.00532c-0.00519 0-0.00963 0.0016382-0.01332 0.004917s-0.00553 0.0075131-0.00553 0.012705h-8.203e-4v-0.021311z"/>
  <path id="path832" class="fil0" d="m1.3258 0.053702v0.24591h-0.059017v-0.24591zm-0.057789 0.22009v0.02582h-0.029917v-0.004099h0.00533c0.00629 0 0.01175-0.002116 0.016394-0.006353 0.00464-0.004234 0.00697-0.009356 0.00697-0.015369zm0.056971 0h8.18e-4c2.75e-4 0.006012 0.00266 0.011134 0.00717 0.015369 0.00451 0.004237 0.010042 0.006353 0.016599 0.006353h0.00491v0.004099h-0.029507zm0-0.19427v-0.02582h0.029507l-4.102e-4 0.0040992h-0.00451c-0.00656 0-0.01209 0.0020484-0.016599 0.0061475-0.00451 0.0040967-0.0069 0.0092888-0.00717 0.015574zm-0.056971 0h-0.00123c0-0.006285-0.00232-0.011477-0.00697-0.015574-0.00464-0.0040991-0.010247-0.0061475-0.016804-0.0061475h-0.00492v-0.0040991h0.029917z"/>
  <path id="path834" class="fil0" d="m1.4688 0.053702v0.24591h-0.059019v-0.24591zm0.095494 0.22951 0.00984 0.016394h-0.10615v-0.016394zm0.027048-0.059017-0.015984 0.075411h-0.070902l0.012705-0.016394c0.011747 0 0.022199-0.002391 0.031353-0.007173 0.00915-0.00478 0.017007-0.011612 0.023565-0.020491 0.00656-0.008881 0.011612-0.019333 0.015166-0.031353zm-0.18033 0.04959 0.00164 0.02582h-0.030327v-0.004099h0.00533c0.00601 0 0.011202-0.002116 0.015574-0.006353 0.00437-0.004234 0.00656-0.009356 0.00656-0.015369zm0.056968-0.19427v-0.02582h0.028279v0.0040992h-0.00491c-0.00601 0-0.011204 0.0020484-0.015576 0.0061475-0.00437 0.0040967-0.00669 0.0092888-0.00697 0.015574zm-0.056968 0h-0.00123c0-0.006285-0.00225-0.011477-0.00676-0.015574-0.00451-0.0040992-0.00977-0.0061475-0.015779-0.0061475h-0.00491v-0.0040991h0.028689z"/>
  <path id="path836" class="fil0" d="m1.7455 0.053702c0.029234 0 0.054372 0.0048495 0.075411 0.014548 0.021039 0.0097014 0.03716 0.023772 0.048362 0.042215s0.016804 0.040506 0.016804 0.06619c0 0.025685-0.0056 0.047679-0.016804 0.065987-0.011202 0.018305-0.027324 0.032378-0.048362 0.042215-0.021039 0.009837-0.046176 0.014754-0.075411 0.014754h-0.090987l-8.203e-4 -0.016394h0.086887c0.025683 0 0.045971-0.009426 0.060862-0.028279s0.022337-0.044946 0.022337-0.078282c0-0.033334-0.00745-0.059494-0.022337-0.078484-0.014891-0.01899-0.035179-0.028484-0.060862-0.028484h-0.090991v-0.015984zm-0.051231 0v0.24591h-0.059019v-0.24591zm-0.057789 0.21968v0.026231h-0.02951v-0.004099h0.00533c0.00629 0 0.01168-0.002186 0.016189-0.006558 0.00451-0.004372 0.00676-0.009561 0.00676-0.015574zm-4.097e-4 -0.19386h-8.203e-4c-2.726e-4 -0.006285-0.00266-0.011477-0.00717-0.015574-0.00451-0.0040991-0.0099-0.0061475-0.016189-0.0061475h-0.00492v-0.0040991h0.029099z"/>
  <path id="path838" class="fil0" d="m1.9455 0.30371c-0.0082 0-0.015164-0.002869-0.020903-0.008608-0.00574-0.005737-0.00861-0.012705-0.00861-0.020901 0-0.008471 0.00287-0.015574 0.00861-0.021311 0.00574-0.00574 0.012705-0.008608 0.020903-0.008608 0.00847 0 0.015574 0.002869 0.021311 0.008608 0.00574 0.005737 0.00861 0.01284 0.00861 0.021311 0 0.008196-0.00287 0.015164-0.00861 0.020901-0.00574 0.00574-0.012843 0.008608-0.021311 0.008608z"/>
  <path id="path840" class="fil0" d="m2.2508 0.19674 0.00451 0.061888c-0.00519 0.008744-0.01243 0.016599-0.021721 0.023565-0.00929 0.006968-0.020628 0.012502-0.034016 0.016599-0.013388 0.004099-0.028962 0.006148-0.046724 0.006148-0.0306-2.7263e-4 -0.056968-0.005465-0.0791-0.015574-0.022131-0.010109-0.039141-0.024658-0.051026-0.043648s-0.017827-0.042147-0.017827-0.069468c0-0.026778 0.00587-0.04966 0.017622-0.06865 0.01175-0.01899 0.028689-0.033609 0.050821-0.043853 0.022131-0.010247 0.048635-0.015371 0.07951-0.015371 0.01858 0 0.035862 0.0017781 0.051846 0.0053296s0.029304 0.0080608 0.039961 0.013526l4.101e-4 0.065164h-0.00328c-0.00683-0.025138-0.017625-0.04276-0.032378-0.052869-0.014756-0.010109-0.032378-0.015166-0.052872-0.015166-0.019673 0-0.036135 0.0046468-0.049385 0.013936-0.013253 0.0092912-0.023224 0.022269-0.02992 0.038936-0.0067 0.016667-0.010042 0.036202-0.010042 0.058609 0 0.022677 0.00335 0.04235 0.010042 0.059017 0.0067 0.016667 0.016462 0.029647 0.029304 0.038936 0.012843 0.009289 0.028279 0.014208 0.046311 0.014754 0.0194 0 0.035452-0.003004 0.048157-0.009016 0.012705-0.00601 0.022817-0.015709 0.03033-0.029099 0.00751-0.013388 0.01291-0.031285 0.016189-0.053689z"/>
  <path id="path842" class="fil0" d="m2.4984 0.048372v0.0032788l-0.14263 0.24796h-0.070494v-0.003279l0.13484-0.22664h-0.1291v-0.016394h0.16558c0.00519 0 0.010724-2.0508e-4 0.016599-6.1523e-4 0.00587-4.1016e-4 0.011134-0.0010254 0.015779-0.0018433 0.00464-8.2032e-4 0.00779-0.0016406 0.00943-0.0024613zm-0.0041 0.23525-0.00287 0.015984h-0.1791v-0.015984zm0.019263-0.059427-0.017622 0.075411h-0.074183l0.013936-0.015984c0.01284 0 0.024042-0.002391 0.033606-0.007173 0.00956-0.004782 0.017692-0.011612 0.024385-0.020491 0.0067-0.008881 0.011955-0.019468 0.015781-0.031763zm-0.22255-0.15574h0.041805v0.0012305c-0.01175 0-0.020971 0.0034839-0.027666 0.010452-0.00669 0.0069654-0.010042 0.016462-0.010042 0.028484v0.003279h-0.0041zm0-0.021311c0.00219 8.2031e-4 0.0058 0.0017082 0.01086 0.0026636 0.00505 9.5542e-4 0.010657 0.0017757 0.016804 0.0024585 0.00615 6.8279e-4 0.011817 0.0010254 0.017009 0.0010254l-0.044673 0.0040992z"/>
  <path id="TW" class="fil1" d="m0.35698 0.037298h-1.8336e-4l0.044883 0.1116 0.070882-0.14767h0.003689l1.5923e-4 7.0209e-4 0.081606 0.15064 0.032694-0.11527h-1.1098e-4c0.002181-0.0081959 0.001498-0.014478-0.002053-0.018855-0.003554-0.0043694-0.008061-0.0065528-0.013526-0.0065528h-0.003689v-0.0041016h0.089351v0.0041016h-0.003284c-0.006283 0-0.013113 0.0019784-0.020491 0.0059376-0.006577 0.0035394-0.011434 0.0090958-0.014536 0.016652l-0.069891 0.22373-0.001848 0.006418-0.003549 0.017354-1.3511e-4 0.001023c-9.5784e-4 0.006965-0.001025 0.013868-2.0749e-4 0.020698h-0.004097l-0.094659-0.17814-0.064776 0.13264s-8.8546e-4 0.002251-0.002661 0.006763c-0.001776 0.004507-0.003554 0.010174-0.00533 0.017005-0.001776 0.00683-0.002799 0.014073-0.003074 0.021726h-0.003689l-0.082839-0.21968-5.308e-5 -4.83e-6c-0.010288-0.027418-0.014059-0.030183-0.025311-0.041602-0.009286-0.0094264-0.022269-0.014276-0.038936-0.014546h-0.040169v0.23689c2.7746e-4 0.007105 0.002939 0.013185 0.007993 0.01824 0.005059 0.005052 0.011139 0.007581 0.01824 0.007581h0.005329v0.004099h-0.14714v-0.004099h0.0053296c0.0071078 0 0.013188-0.002528 0.01824-0.007581 0.0050546-0.005055 0.0077182-0.011134 0.0079932-0.01824v-0.23689h-0.040169c-0.016667 2.7022e-4 -0.029645 0.0051197-0.038933 0.014546-0.0092888 0.0094288-0.013938 0.022339-0.013938 0.038731v0.0028711l-0.0040928 4.0962e-4v-0.084432c0.0027312 0.0010929 0.0068979 0.0021883 0.012498 0.0032812 0.0056023 0.0010954 0.011817 0.0020484 0.018648 0.0028663 0.0060848 7.3104e-4 0.011747 0.0011533 0.016961 0.0012305h0.32773v0.0045117h-0.003689c-0.00519 0-0.009769 0.0021835-0.013728 0.0065528-0.003964 0.0043766-0.004439 0.010659-0.001438 0.018856z"/>
 </g>
</svg>
