<?xml version="1.0" encoding="UTF-8" standalone="no"?>
<svg
   viewBox="0 0 1348.57 1121.495"
   version="1.1"
   id="svg130"
   sodipodi:docname="Vertical - white.svg"
   width="1348.5699"
   height="1121.495"
   inkscape:version="1.3 (0e150ed, 2023-07-21)"
   xmlns:inkscape="http://www.inkscape.org/namespaces/inkscape"
   xmlns:sodipodi="http://sodipodi.sourceforge.net/DTD/sodipodi-0.dtd"
   xmlns="http://www.w3.org/2000/svg"
   xmlns:svg="http://www.w3.org/2000/svg"
   xmlns:rdf="http://www.w3.org/1999/02/22-rdf-syntax-ns#"
   xmlns:cc="http://creativecommons.org/ns#"
   xmlns:dc="http://purl.org/dc/elements/1.1/">
  <sodipodi:namedview
     id="namedview130"
     pagecolor="#ffffff"
     bordercolor="#666666"
     borderopacity="1.0"
     inkscape:showpageshadow="2"
     inkscape:pageopacity="0.0"
     inkscape:pagecheckerboard="0"
     inkscape:deskcolor="#d1d1d1"
     inkscape:zoom="0.15733333"
     inkscape:cx="661.01695"
     inkscape:cy="594.27966"
     inkscape:window-width="1376"
     inkscape:window-height="847"
     inkscape:window-x="67"
     inkscape:window-y="25"
     inkscape:window-maximized="1"
     inkscape:current-layer="svg130" />
  <defs
     id="defs1">
    <style
       id="style1">.cls-1{fill:none;clip-rule:evenodd;}.cls-2{clip-path:url(#clip-path);}.cls-3{fill:#fff;}.cls-10,.cls-11,.cls-12,.cls-13,.cls-14,.cls-15,.cls-16,.cls-17,.cls-18,.cls-19,.cls-20,.cls-21,.cls-22,.cls-23,.cls-24,.cls-25,.cls-26,.cls-27,.cls-28,.cls-29,.cls-3,.cls-30,.cls-31,.cls-32,.cls-33,.cls-34,.cls-35,.cls-36,.cls-37,.cls-38,.cls-39,.cls-4,.cls-40,.cls-41,.cls-42,.cls-43,.cls-44,.cls-45,.cls-46,.cls-47,.cls-48,.cls-49,.cls-5,.cls-50,.cls-51,.cls-52,.cls-53,.cls-54,.cls-55,.cls-56,.cls-57,.cls-58,.cls-59,.cls-6,.cls-60,.cls-61,.cls-62,.cls-63,.cls-64,.cls-65,.cls-66,.cls-67,.cls-68,.cls-69,.cls-7,.cls-70,.cls-71,.cls-72,.cls-73,.cls-74,.cls-75,.cls-76,.cls-77,.cls-78,.cls-79,.cls-8,.cls-80,.cls-81,.cls-82,.cls-83,.cls-84,.cls-85,.cls-86,.cls-87,.cls-88,.cls-89,.cls-9,.cls-90,.cls-91,.cls-92,.cls-93,.cls-94,.cls-95,.cls-96,.cls-97,.cls-98{fill-rule:evenodd;}.cls-4{fill:#38beef;}.cls-5{fill:#3bbeef;}.cls-6{fill:#3dbfef;}.cls-7{fill:#40bfef;}.cls-8{fill:#43bfee;}.cls-9{fill:#46c0ed;}.cls-10{fill:#48c0ed;}.cls-11{fill:#4bc0ec;}.cls-12{fill:#4dc1eb;}.cls-13{fill:#51c1eb;}.cls-14{fill:#54c2ea;}.cls-15{fill:#54c2e9;}.cls-16{fill:#54c2e8;}.cls-17{fill:#56c2e8;}.cls-18{fill:#56c2e7;}.cls-19{fill:#57c2e6;}.cls-20{fill:#59c2e6;}.cls-21{fill:#5bc3e5;}.cls-22{fill:#5bc2e5;}.cls-23{fill:#5dc3e5;}.cls-24{fill:#5dc3e4;}.cls-25{fill:#5fc3e4;}.cls-26{fill:#5fc3e3;}.cls-27{fill:#61c3e2;}.cls-28{fill:#63c4e1;}.cls-29{fill:#64c4e0;}.cls-30{fill:#66c5e0;}.cls-31{fill:#68c5e0;}.cls-32{fill:#68c5df;}.cls-33{fill:#68c5de;}.cls-34{fill:#68c5dd;}.cls-35{fill:#69c5dc;}.cls-36{fill:#69c5db;}.cls-37{fill:#69c4da;}.cls-38{fill:#6bc5da;}.cls-39{fill:#6cc5da;}.cls-40{fill:#6ec6da;}.cls-41{fill:#6fc6da;}.cls-42{fill:#71c6da;}.cls-43{fill:#72c7da;}.cls-44{fill:#74c7db;}.cls-45{fill:#75c8db;}.cls-46{fill:#77c8db;}.cls-47{fill:#78c9db;}.cls-48{fill:#7bc9db;}.cls-49{fill:#7dcadb;}.cls-50{fill:#7ecadc;}.cls-51{fill:#7fcbdc;}.cls-52{fill:#81ccdd;}.cls-53{fill:#82ccdd;}.cls-54{fill:#84cdde;}.cls-55{fill:#86cdde;}.cls-56{fill:#88cedf;}.cls-57{fill:#89cedf;}.cls-58{fill:#8ccfdf;}.cls-59{fill:#8dd0df;}.cls-60{fill:#8fd0e0;}.cls-61{fill:#92d1e1;}.cls-62{fill:#93d2e1;}.cls-63{fill:#96d3e2;}.cls-64{fill:#97d3e2;}.cls-65{fill:#9ad4e3;}.cls-66{fill:#9dd5e4;}.cls-67{fill:#9fd6e4;}.cls-68{fill:#a1d7e5;}.cls-69{fill:#a3d8e5;}.cls-70{fill:#a5d8e5;}.cls-71{fill:#a8d9e6;}.cls-72{fill:#aadae6;}.cls-73{fill:#addbe8;}.cls-74{fill:#b0dce8;}.cls-75{fill:#b1dde9;}.cls-76{fill:#b5dfea;}.cls-77{fill:#b7dfea;}.cls-78{fill:#bae1eb;}.cls-79{fill:#bde2ec;}.cls-80{fill:#c0e3ed;}.cls-81{fill:#c3e4ed;}.cls-82{fill:#c6e5ed;}.cls-83{fill:#cae7ef;}.cls-84{fill:#cce8ef;}.cls-85{fill:#d0e9f0;}.cls-86{fill:#d3ebf2;}.cls-87{fill:#d6ecf3;}.cls-88{fill:#daeef4;}.cls-89{fill:#ddeff5;}.cls-90{fill:#e1f1f6;}.cls-91{fill:#e4f3f7;}.cls-92{fill:#e7f4f8;}.cls-93{fill:#ebf6f9;}.cls-94{fill:#eef7fa;}.cls-95{fill:#f0f8fb;}.cls-96{fill:#f4fafc;}.cls-97{fill:#f8fbfd;}.cls-98{fill:#fbfdff;}</style>
    <clipPath
       id="clip-path">
      <path
         class="cls-1"
         d="m 960.71,902.58 c 15.95,17.26 32.47,34 49.33,50.31 l 1.12,1.1 -1.43,0.62 c -3.66,1.59 -7.32,3.14 -11,4.62 l -0.64,0.26 -0.49,-0.48 Q 977.94,939.87 959.05,920 c -1.66,15.11 -3.92,30.21 -6.88,45.36 -0.63,3.15 -1.27,6.3 -1.94,9.44 l -0.14,0.63 -0.61,0.16 q -9.71,2.54 -19.51,4.62 l -1.6,0.34 0.36,-1.6 q 2,-8.71 3.73,-17.49 a 547.47,547.47 0 0 0 8.3,-61.34 Q 928.28,886.2 916.38,871.78 c -12.07,26 -25.48,51.36 -39.66,76.25 q 10.41,18.24 21.32,36.17 l 0.84,1.38 -1.6,0.2 q -6,0.78 -12,1.38 l -0.65,0.07 -0.35,-0.57 q -7.66,-12.71 -15.1,-25.56 -8.1,13.86 -16.46,27.55 l -0.31,0.49 h -0.57 c -2.85,0.06 -5.71,0.11 -8.56,0.11 -1.46,0 -2.9,0 -4.34,-0.05 h -1.85 l 1,-1.58 q 12.09,-19.65 23.65,-39.61 c -12.6,-22.41 -24.54,-45.2 -35.43,-68.49 -17,19.92 -34.87,39.08 -53.28,57.69 q 6.15,23.43 13.08,46.64 l 0.46,1.56 -1.62,-0.23 c -4,-0.56 -8,-1.17 -12,-1.85 l -0.64,-0.11 -0.19,-0.64 q -5.07,-17.28 -9.77,-34.7 -13.61,13.45 -27.51,26.59 l -0.43,0.4 -0.56,-0.15 q -6.18,-1.68 -12.29,-3.53 l -1.72,-0.53 1.32,-1.24 q 18.92,-17.79 37.34,-36.13 c -7.14,-27.8 -13.37,-55.87 -18.11,-84.18 -21.05,15 -42.84,29.05 -65,42.36 -0.2,20.41 0.08,40.81 0.68,61.21 v 1.66 l -1.52,-0.67 c -3.73,-1.66 -7.44,-3.34 -11.13,-5.11 l -0.57,-0.28 v -0.64 c -0.42,-16.14 -0.65,-32.27 -0.58,-48.42 q -21.27,12.44 -43,24.15 l -0.54,0.31 -0.53,-0.35 c -3.48,-2.24 -6.93,-4.55 -10.35,-6.9 l -1.42,-1 1.51,-0.81 c 18.33,-9.9 36.52,-20.07 54.44,-30.68 0.38,-23.62 1.43,-47.24 3.47,-70.78 -22.45,8.14 -45.23,15.34 -68.21,21.88 C 592,855 586.86,875.07 582,895.25 l -0.39,1.62 -1.28,-1 c -3.17,-2.58 -6.32,-5.19 -9.41,-7.87 l -0.49,-0.41 0.16,-0.62 q 5.8,-24 12.34,-47.82 -24.18,6.55 -48.56,12.34 l -0.61,0.14 -0.41,-0.46 c -2.77,-3.07 -5.49,-6.2 -8.16,-9.35 l -1.11,-1.31 1.67,-0.39 c 20.53,-4.84 41,-10 61.32,-15.65 7.21,-24.94 15.22,-49.66 24.43,-73.93 -26.47,2.54 -53.06,3.79 -79.64,4.18 -10.53,17.65 -20.62,35.56 -30.43,53.63 l -0.81,1.49 -1,-1.4 q -3.53,-5.11 -6.9,-10.33 l -0.34,-0.52 0.3,-0.55 q 11.63,-21.25 23.88,-42.18 c -16,0.05 -31.93,-0.18 -47.89,-0.6 h -0.64 l -0.28,-0.57 q -2.67,-5.52 -5.17,-11.13 L 462,741 h 1.67 c 20.27,0.6 40.54,0.89 60.82,0.7 15.08,-24.94 31.09,-49.37 48.45,-72.8 -28.34,-3.86 -56.46,-9.41 -84.3,-16 -14.27,14 -28.21,28.31 -41.94,42.84 l -1.23,1.3 -0.53,-1.71 c -1.25,-4.06 -2.42,-8.14 -3.55,-12.23 l -0.15,-0.57 0.4,-0.44 q 15.82,-16.64 32.09,-32.83 -20.79,-5.22 -41.43,-11.09 l -0.65,-0.18 -0.1,-0.66 q -0.94,-5.94 -1.71,-11.91 l -0.21,-1.58 1.54,0.44 c 17.75,5.08 35.58,9.87 53.52,14.24 C 502.72,621 521.35,604 540.71,587.9 516.83,577.16 493.47,565.22 470.55,552.56 q -21.43,12.2 -42.46,25.09 l -1.57,1 v -1.84 c 0,-1.47 -0.05,-2.93 -0.05,-4.39 0,-2.83 0,-5.66 0.1,-8.49 v -0.58 l 0.5,-0.3 q 15,-9.1 30.23,-17.88 -14.07,-8 -28,-16.31 l -0.58,-0.35 0.07,-0.66 q 0.63,-6 1.45,-11.93 l 0.22,-1.58 1.36,0.82 q 19.18,11.5 38.69,22.44 c 22.77,-12.77 45.94,-24.85 69.64,-35.82 -20.09,-16.73 -39.38,-34.42 -58.1,-52.66 q -19.35,5.06 -38.54,10.64 l -1.82,0.52 0.51,-1.81 c 1.2,-4.19 2.48,-8.37 3.79,-12.52 l 0.18,-0.54 0.53,-0.15 q 12.26,-3.5 24.55,-6.79 -8.17,-8.14 -16.2,-16.41 l -0.47,-0.49 0.25,-0.62 c 1.45,-3.73 2.95,-7.45 4.51,-11.13 l 0.62,-1.46 1.1,1.14 q 12.29,12.71 24.87,25.13 c 23.36,-6 46.91,-11.27 70.64,-15.57 -19.09,-28.14 -36.59,-57.36 -53.15,-87 l -0.32,-0.58 0.38,-0.55 q 3.51,-4.92 7.18,-9.74 l 1,-1.29 0.79,1.42 c 18,32.58 37.19,64.64 58.31,95.33 q 21.93,-3.6 44.06,-5.86 c 0.56,-2.44 1.14,-4.87 1.73,-7.31 -24.56,-40.79 -45.82,-82.16 -61.18,-127.34 l -1.3,-3.85 0.47,-0.46 q 7.14,-6.85 14.61,-13.37 l 1.2,-1.05 0.49,1.52 q 1.71,5.39 3.56,10.74 6.21,18.12 13.64,35.48 c 21.41,6.22 43,12.83 63.88,20.4 -2,-23.8 -3.11,-47.67 -3.47,-71.55 q -20.28,-12.09 -41,-23.46 l -1.48,-0.82 1.4,-1 c 3.38,-2.33 6.81,-4.63 10.27,-6.86 l 0.53,-0.34 0.54,0.31 q 14.88,8.28 29.56,16.89 0,-17.17 0.28,-34.34 v -0.62 l 0.55,-0.29 c 3.67,-1.93 7.37,-3.82 11.1,-5.64 l 1.55,-0.76 v 1.71 c -0.35,15.92 -0.5,31.83 -0.35,47.73 22.21,13.42 44,27.56 65.09,42.73 4.4,-26.22 10.08,-52.23 16.57,-78 q -16,-16.49 -32.6,-32.43 l -1.24,-1.2 1.64,-0.55 c 3.95,-1.33 7.92,-2.57 11.91,-3.78 l 0.59,-0.18 0.44,0.43 q 11.67,11.34 23.09,22.93 4.11,-15.57 8.57,-31 l 0.17,-0.61 0.61,-0.13 c 4,-0.86 8.08,-1.67 12.15,-2.4 L 770,162 l -0.48,1.62 q -6.33,21.81 -12,43.79 c 20.19,21 39.64,42.82 57.78,65.65 11.07,-26.38 23.7,-52.11 37.26,-77.28 q -10.93,-19.4 -22.48,-38.43 l -0.93,-1.54 1.8,-0.05 c 4.12,-0.12 8.25,-0.23 12.37,-0.2 h 0.94 l 0.3,0.51 q 7.82,13 15.38,26.23 7,-12.59 14.27,-25 l 0.33,-0.56 h 0.65 q 6.06,0.45 12.09,1.1 l 1.62,0.17 -0.82,1.4 q -10.57,18 -20.6,36.23 c 12.25,22 23.84,44.39 34.38,67.26 16.57,-20.28 34.14,-39.75 52.3,-58.61 q -4.54,-17.42 -9.52,-34.71 l -0.5,-1.76 1.76,0.46 q 6.21,1.56 12.36,3.31 l 0.57,0.17 0.15,0.56 q 3,10.51 5.8,21.08 7.21,-7.32 14.53,-14.52 l 0.47,-0.47 0.61,0.22 c 3.83,1.33 7.64,2.73 11.43,4.17 l 1.53,0.59 -1.17,1.14 q -11.92,11.65 -23.56,23.59 c 6.38,25.31 12.08,50.88 16.53,76.55 21.37,-15.07 43.45,-29.13 65.92,-42.49 q 0.09,-14.72 -0.12,-29.43 v -1.86 l 1.61,0.94 c 3.72,2.16 7.41,4.4 11.06,6.68 l 0.49,0.3 v 0.57 q 0.08,7.56 0.07,15.13 6.09,-3.52 12.24,-7 l 0.56,-0.32 0.54,0.37 q 5,3.42 10,7 l 1.33,1 -1.43,0.8 q -11.7,6.58 -23.28,13.36 c -0.29,24.12 -1.26,48.25 -3.24,72.28 30.35,-10.54 61.26,-19.46 92.37,-27.43 l 0.61,-0.16 0.43,0.48 q 4.11,4.59 8.06,9.3 l 1.09,1.28 -1.63,0.42 c -34.47,8.69 -68.73,18.51 -102.24,30.41 q -2.21,22.13 -5.75,44.07 3.33,1.76 6.61,3.57 c 45.79,-13.18 91.21,-22.89 138.84,-26.14 l 1.37,-0.09 0.34,0.55 q 5.16,8.63 9.92,17.48 l 0.78,1.46 -1.65,0.08 c -3.14,0.17 -6.28,0.35 -9.42,0.57 -11.82,0.81 -23.48,2 -35,3.61 -12.87,21.42 -26.24,43.08 -40.55,63.57 23.52,4.17 46.86,9.33 70,15.16 q 18.4,-17.92 36.16,-36.52 l 1.15,-1.2 0.59,1.55 q 2.18,5.71 4.19,11.48 l 0.21,0.61 -0.45,0.47 q -13.36,13.88 -27.09,27.42 c 12.8,3.37 25.55,6.95 38.26,10.65 l 0.59,0.17 0.14,0.59 c 1,4.07 1.9,8.15 2.75,12.25 l 0.35,1.71 -1.68,-0.49 c -17,-5 -34.14,-9.82 -51.33,-14.25 -18.72,18 -38,35.39 -58.12,51.81 24.19,11 47.84,23.25 71.06,36.2 q 22.86,-12.76 45.25,-26.41 l 1.45,-0.88 0.14,1.69 q 0.51,6.15 0.87,12.33 V 550 l -0.54,0.32 q -16.83,10.14 -33.91,19.84 17.19,9.85 34.11,20.15 l 0.53,0.33 v 0.62 c -0.19,4.14 -0.41,8.28 -0.73,12.42 l -0.12,1.72 -1.47,-0.9 q -22.59,-13.83 -45.62,-26.9 c -25.54,14.05 -51.63,27.2 -78.37,38.81 22.61,17.52 44.19,36.39 65,56 17.19,-4.42 34.29,-9.2 51.31,-14.21 l 1.69,-0.5 -0.37,1.71 c -0.86,4.12 -1.81,8.2 -2.81,12.29 l -0.14,0.58 -0.58,0.17 q -18.93,5.52 -38,10.57 13.62,13.18 26.85,26.73 l 0.45,0.47 -0.21,0.62 q -2,5.73 -4.21,11.42 l -0.59,1.53 -1.14,-1.18 q -17.68,-18.19 -36,-35.76 c -24.41,6.13 -49,11.53 -73.87,15.8 15.31,21.25 29.57,43.27 43.09,65.68 15.3,0.11 30.6,-0.06 45.91,-0.41 h 1.79 l -0.85,1.59 q -3,5.6 -6.18,11.11 l -0.3,0.51 h -0.59 q -16,0.32 -32,0.31 7.67,13.08 15.06,26.32 l 0.32,0.57 -0.37,0.53 q -3.45,5 -7,9.91 l -1,1.32 -0.79,-1.44 q -10.44,-18.8 -21.42,-37.31 c -26.09,-0.32 -52.21,-1.45 -78.21,-3.8 9,24.54 16.89,49.51 24,74.67 q 19.2,5.28 38.54,10 l 1.79,0.44 -1.29,1.31 q -4.5,4.59 -9.12,9.06 l -0.42,0.39 -0.56,-0.13 q -12.48,-3.13 -24.91,-6.46 3.13,11.61 6.07,23.28 l 0.16,0.64 -0.5,0.42 q -4.65,3.93 -9.4,7.7 l -1.27,1 -0.4,-1.59 q -4.42,-17.81 -9.29,-35.5 c -23.21,-6.51 -46.26,-13.69 -69,-21.83 2.57,35.28 3,70.71 2.45,106.07 v 0.64 l -0.59,0.28 c -3.66,1.78 -7.37,3.48 -11.09,5.15 l -1.51,0.68 v -1.66 c 0.78,-38.7 0.31,-77.52 -2.75,-116.12 Q 988.3,828.08 968,819 q -2.57,2.74 -5.16,5.46 A 777.17,777.17 0 0 1 960.7,902.6 Z M 732.58,785.16 c -17.37,8.42 -35.16,16 -53.16,22.91 -2.11,22.35 -3,45.21 -3.55,67.73 21.24,-12.94 42.09,-26.59 62.22,-41.21 -2.43,-16.39 -4.31,-32.88 -5.51,-49.43 z M 783,757.38 q -18.4,11.55 -37.74,21.46 c 1,15.7 2.63,31.35 4.79,46.92 14.45,-10.94 28.49,-22.44 42,-34.6 q -5.09,-16.73 -9,-33.78 z m 28.15,-0.31 c -5,0.14 -10,0.15 -14.84,0.08 q 2.87,12.14 6.35,24.12 12.45,-11.88 24,-24.63 -7.75,0.52 -15.55,0.43 z m 56.59,-7.79 -1,0.28 c -4.36,1.27 -8.78,2.37 -13.22,3.31 22.88,46.82 54.31,89.65 88.48,128.85 1,-20.22 1.19,-40.53 0.76,-61.06 l -0.1,-4.21 2.93,-3 c 39.5,-40.56 72.85,-88.9 89.48,-143.44 12.71,-41.64 15.16,-86.09 3.55,-128.27 C 1019.15,471.16 960,420.92 887.21,413.22 819,406 756.22,439.09 735,506.66 c -16.28,51.85 2,116.49 58.89,131.73 24.74,6.63 50.32,1.33 72,-11.78 l 0.87,-0.52 1.1,1.71 -0.84,0.57 c -24,16.43 -53.43,23.9 -81.94,16.26 -27.25,-7.3 -47.82,-26.84 -59.08,-52.41 -12.29,-27.91 -12.35,-60.09 -3.3,-88.94 27,-86.13 111.63,-124.7 196.52,-103.68 25.61,6.35 53.08,20.93 75.27,35.15 38.85,-1.54 77.81,1.74 116.17,7.84 13.39,-18.86 25.92,-38.83 38,-58.62 a 750.67,750.67 0 0 0 -86.75,20.35 l -4,1.18 -3.66,-2.06 C 967.67,355 858.1,330.89 767.71,383.91 c -63,36.94 -96.34,107.35 -85,179.48 10.68,67.75 58.89,119.82 129.65,122.84 54.29,2.31 112,-32.07 112,-91 0,-25.62 -11.73,-49 -30,-66.53 l -0.73,-0.71 1.36,-1.51 0.78,0.67 c 22.1,18.92 36.91,45.37 36.91,74.94 0,28.21 -13.55,53.13 -35.34,70.63 -23.78,19.09 -54.84,27.47 -85.06,26.21 -90.21,-3.8 -149.33,-75.58 -151,-163 -0.5,-26.38 6.47,-56.68 14.46,-81.8 C 664.2,417 657.29,378.51 653.25,339.88 c -19,-7.06 -38.73,-13.26 -58.3,-19.1 a 765.46,765.46 0 0 0 40.87,75.84 l 2.19,3.6 -1,4.07 c -24.49,96.21 -19.35,208.18 55.29,281.82 52.08,51.36 128.54,65.3 195.35,35.61 62.3,-27.69 100.39,-88.4 85.1,-157 -6.16,-27.63 -21.25,-53.43 -44.39,-70.16 -21.14,-15.29 -47,-21.29 -72.46,-14.48 -24.75,6.63 -44.26,24 -56.5,46.21 l -0.49,0.89 -1.81,-0.93 0.44,-0.92 c 12.56,-26.25 34.28,-47.39 62.83,-55 27.21,-7.29 54.87,-0.64 77.37,15.85 24.65,18.07 40.72,45.8 47.33,75.37 19.56,87.57 -34,163.24 -117.34,187.76 z m 196.17,-183.79 a 601.22,601.22 0 0 0 51.72,-35.85 c -14.56,-6.15 -29.34,-11.81 -44.31,-16.85 q -7.59,8.34 -15.51,16.38 c 0.74,2.4 1.46,4.82 2.13,7.25 a 226.7,226.7 0 0 1 6,29.07 z m 120,-94.67 c -22.26,-5.44 -44.69,-10.23 -67.29,-14.05 -11.33,15.61 -23.26,30.82 -35.88,45.42 15.77,5.47 31.31,11.61 46.63,18.25 19.56,-15.7 38.34,-32.37 56.54,-49.62 z m -152.95,6.43 q 4,5.92 7.55,12.13 14.54,3.74 28.82,8.34 c 12.24,-13.89 23.81,-28.38 34.81,-43.27 -18.31,-2.74 -36.73,-4.81 -55.22,-6 q -7.53,14.61 -16,28.77 z m 1.63,-29.49 q -13.31,-0.51 -26.63,-0.3 a 188.76,188.76 0 0 1 16.61,18.35 q 5.19,-8.93 10,-18.05 z m 88.85,159.54 c 26.23,-11.08 51.81,-23.72 76.83,-37.27 -22.53,-12.36 -45.49,-24 -69,-34.47 a 624.62,624.62 0 0 1 -56,39.46 c 16.58,9.93 32.6,20.77 48.12,32.28 z M 1046.6,505.1 q 2.34,5.11 4.4,10.35 3.38,-3.5 6.69,-7.07 -5.54,-1.69 -11.09,-3.28 z m 19.26,80.64 a 249.8,249.8 0 0 1 -1.46,42.54 c 14.48,-4.49 28.78,-9.61 42.88,-15.19 -13.41,-9.69 -27.21,-18.86 -41.42,-27.35 z m 53.72,36.46 c -16.24,6.66 -32.74,12.71 -49.49,18 a 629.62,629.62 0 0 1 42,50.64 c 23.93,-3.91 47.68,-8.93 71.22,-14.67 -20.4,-18.94 -41.57,-37.11 -63.76,-53.94 z m -58.61,27.35 a 291.49,291.49 0 0 1 -14.54,48.83 c 17.06,-1 34.09,-2.89 51,-5.31 -11.5,-15 -23.62,-29.63 -36.47,-43.52 z m 87.5,118.54 c -13.22,-21.58 -27.16,-42.73 -42.13,-63.15 -18.66,2.86 -37.43,5 -56.27,6.29 8.45,17.19 16.06,34.8 23,52.65 25.06,2.46 50.24,3.73 75.4,4.21 z M 1038.33,717 a 354.77,354.77 0 0 1 -21.49,39.08 q 20.65,3.76 41.53,6.19 c -6.13,-15.33 -12.77,-30.46 -20,-45.27 z m 25.36,59 c -16.65,-1.81 -33.24,-4.16 -49.71,-7.19 3.29,19.13 5.7,38.43 7.43,57.77 21.7,7.95 43.75,15 66,21.37 -7,-24.26 -14.78,-48.32 -23.68,-72 z m -61.48,1.59 q -11.78,16.17 -25,31.19 15.15,6.71 30.62,12.68 -2.13,-22 -5.6,-43.87 z M 658.49,678.23 a 603.69,603.69 0 0 0 -26.86,56.9 c 15.68,-2 31.31,-4.43 46.8,-7.56 q 2.4,-11 5.25,-21.94 -2.79,-2.57 -5.48,-5.22 A 226.63,226.63 0 0 1 658.49,678.23 Z M 626.09,749 c -9.09,23.37 -17,47.19 -24.16,71.23 22,-6.42 43.82,-13.48 65.3,-21.46 2,-19.2 4.73,-38.33 8.37,-57.28 -16.4,3.14 -32.92,5.6 -49.51,7.51 z m 54.84,44.53 c 17.23,-6.78 34.22,-14.2 50.81,-22.43 -0.52,-11 -0.73,-21.94 -0.56,-32.9 q -6.43,-3.13 -12.61,-6.73 -14.46,4 -29.13,7.19 c -3.66,18.15 -6.42,36.47 -8.51,54.87 z m 86.78,-42 a 187.86,187.86 0 0 1 -23.56,-7.58 q 0,10.32 0.36,20.64 11.78,-6.22 23.2,-13.06 z M 587.79,670.77 c -17.17,22.71 -33,46.44 -47.91,70.69 25.7,-0.57 51.41,-2 77,-4.63 a 628,628 0 0 1 28.75,-62.17 c -19.32,-0.31 -38.62,-1.69 -57.81,-3.89 z m 115.91,51.08 q -4.58,-3.26 -9,-6.76 c -0.78,3.15 -1.54,6.3 -2.26,9.46 q 5.64,-1.27 11.24,-2.7 z m -57,-60.21 a 250.4,250.4 0 0 1 -20,-37.57 q -15.45,16.71 -29.54,34.61 c 16.46,1.68 33,2.73 49.54,3 z m -92.59,-67.86 c -18.77,15.35 -36.83,31.58 -54.35,48.32 27.14,6.21 54.56,11.36 82.19,14.84 10.74,-13.89 22,-27.38 33.87,-40.31 a 631.55,631.55 0 0 1 -61.71,-22.85 z m 53.11,-39.4 c -14.26,9.45 -28.08,19.55 -41.53,30.11 17.48,7.28 35.31,13.84 53.31,19.51 a 290.72,290.72 0 0 1 -11.82,-49.57 z m -9.59,-9.3 C 581.72,534.41 566.33,522.97 551.39,510.98 528.46,521.37 506,532.86 484,545 c 22.24,12.08 44.9,23.44 68.06,33.63 14.74,-11.8 29.91,-23.07 45.59,-33.58 z m 7.22,-10.87 a 356.58,356.58 0 0 1 -0.93,-44.58 c -13.18,4.69 -26.2,9.86 -39.06,15.39 13,10.22 26.28,20 40,29.19 z M 496.91,445.33 c 18.19,17.51 36.95,34.46 56.49,50.47 15.31,-6.76 30.86,-13 46.64,-18.63 -12.43,-14.93 -24.15,-30.43 -35.32,-46.31 -22.78,4 -45.39,8.89 -67.81,14.47 z m 108.93,18.36 c 1.41,-13.26 3.46,-26.45 6.07,-39.53 q -16.49,1.77 -32.86,4.33 12.86,18 26.79,35.2 z M 784.09,353.31 a 602.28,602.28 0 0 0 -48,-40.67 c -2.17,15.66 -3.82,31.39 -4.82,47.17 q 10,5.16 19.84,10.75 c 2.13,-1.36 4.28,-2.67 6.45,-3.95 a 229,229 0 0 1 26.53,-13.3 z m -59.93,-49.6 c -20.22,-14.82 -41.18,-28.65 -62.55,-41.77 0.51,22.91 1.68,45.82 3.83,68.63 18,6.91 35.79,14.49 53.17,22.91 1.2,-16.66 3.1,-33.25 5.55,-49.77 z M 667,345.16 c 2.09,18.4 4.87,36.72 8.53,54.88 q 16.08,3.49 31.92,8 4.7,-5.4 9.75,-10.44 -0.14,-15 0.61,-30 C 701.22,359.36 684.23,351.95 667,345.17 Z m 11.54,68.91 q 3,13 6.61,25.8 a 189.48,189.48 0 0 1 13.42,-20.8 q -10,-2.7 -20,-5 z M 809.6,287 c -17.49,-22.47 -36.31,-43.9 -55.89,-64.58 -6.11,25 -11.4,50.17 -15.44,75.55 a 626.36,626.36 0 0 1 52.6,43.86 c 5.3,-18.58 11.63,-36.86 18.73,-54.83 z m -79.34,98.7 c 2.88,-2.39 5.84,-4.71 8.85,-6.93 q -4.26,-2.36 -8.56,-4.63 -0.21,5.78 -0.29,11.56 z m 114.37,-49.07 c -8.09,-12.83 -16.73,-25.32 -25.77,-37.49 -5.89,15.46 -11.18,31.15 -15.69,47.07 a 250.53,250.53 0 0 1 41.46,-9.58 z m -20.16,-51.74 c 10.64,14 20.75,28.34 30.17,43.16 a 633.51,633.51 0 0 1 38,-53.71 c -10,-22.1 -21,-43.74 -32.6,-65 -13,24.61 -25.09,49.76 -35.61,75.54 z m 41.58,49.55 a 291.07,291.07 0 0 1 51,1.4 c -5.45,-16.21 -11.62,-32.17 -18.35,-47.9 -11.54,15 -22.49,30.48 -32.6,46.5 z m 41.78,-58.17 c 7.58,17.28 14.54,34.86 20.63,52.73 14.42,-12.61 29.46,-24.52 44.91,-35.84 -4.11,-24.85 -9.4,-49.49 -15.45,-73.93 -17.43,18.36 -34.25,37.3 -50.09,57 z m 29.26,62.51 a 355.67,355.67 0 0 1 43.3,10.64 c -1.12,-13.95 -2.74,-27.86 -4.76,-41.71 -13.22,9.88 -26.12,20.21 -38.54,31.07 z m 113.79,-81.26 c -21.62,13 -42.85,26.78 -63.37,41.5 2.56,16.55 4.58,33.18 5.92,49.87 17.64,-8.13 35.65,-15.45 53.88,-22.12 2.06,-23 3.15,-46.14 3.57,-69.25 z M 1005,358 c 12.44,4.8 24.64,10.2 36.6,16.1 q 2.57,-16.38 4.32,-32.86 Q 1025.18,349 1005,358 Z M 835.54,868.41 c 10.33,22.53 21.7,44.6 33.71,66.29 13.63,-24.25 26.47,-49 38,-74.28 C 895.86,846 885,831.24 874.86,816 c -12.22,18.12 -25.43,35.56 -39.32,52.44 z m -6,-13.36 c 13.29,-16.42 25.91,-33.4 37.55,-51 a 493.55,493.55 0 0 1 -25.17,-45 486.5,486.5 0 0 1 -35.09,36.14 632.44,632.44 0 0 0 22.71,59.86 z m -33.29,-50.24 c -14.16,12.53 -28.92,24.37 -44.1,35.64 4.37,27.55 10.23,54.87 17,81.93 17.68,-18.08 34.82,-36.7 51.09,-56.07 -8.95,-20.1 -17.08,-40.61 -24,-61.5 z"
         id="path1" />
    </clipPath>
  </defs>
  <title
     id="title1">Vertical - Color</title>
  <g
     id="Artwork"
     transform="translate(-146,-155.55501)">
    <path
       d="m 498.32,1159.64 q -17,0 -29.9,0.64 c -12.75,0.69 -20.51,4.58 -23.15,11.77 q -2.77,7.32 -2.76,26.93 c 0,12.8 0.76,21.89 2.31,27.11 q 3.45,12 21.92,13.31 c 7,0.53 15.65,0.75 26.05,0.75 q 20.49,0 29.06,-0.18 a 113.85,113.85 0 0 0 17.57,-1.67 23,23 0 0 0 9.41,-4.13 c 4.25,-3.31 6.7,-10 7.46,-20 0.26,-4 0.41,-9.37 0.41,-16.18 q 0,-18.7 -2.32,-25.79 a 14.13,14.13 0 0 0 -6.86,-8.51 c -3.41,-1.84 -8.17,-2.94 -14.3,-3.25 -8.23,-0.54 -19.89,-0.77 -34.9,-0.77 z m -3.63,-36.9 q 55.35,0 68.44,2.32 c 8.59,1.55 15.47,4.07 20.69,7.59 a 34.62,34.62 0 0 1 12,14.37 65.09,65.09 0 0 1 5.86,23.25 q 0.72,11.09 0.74,31 0,28.14 -3.52,41.67 -7.87,29.65 -45.85,32.79 -17.42,1.3 -55.4,1.32 -32.9,0 -51.2,-1 c -23.18,-1.36 -38,-9.37 -44.5,-24.15 a 71.51,71.51 0 0 1 -5.45,-24.05 q -0.67,-11.74 -0.68,-27.57 0,-27.73 1.89,-37.66 c 2.87,-15.55 10.18,-26.09 21.8,-31.7 a 73.69,73.69 0 0 1 25,-6.53 c 11.57,-1.08 28.32,-1.67 50.17,-1.67 z m 198.56,78.77 h 66.92 c 10.13,0 16.64,-1.41 19.63,-4.19 3.09,-3 4.64,-7.67 4.64,-14 0,-7.6 -1.17,-13 -3.43,-16.25 q -3,-4.1 -10.22,-5.46 a 79.32,79.32 0 0 0 -10.62,-0.41 h -66.92 z m 244.34,74 v -113.9 H 870.23 V 1124.3 H 1051 v 37.31 h -67.32 v 113.91 z m -156.54,0 -34.41,-37.22 h -53.39 v 37.22 H 647.41 V 1124.3 h 115.87 c 11.86,0 20,0.18 24.45,0.56 9.43,0.79 16.87,2.62 22.39,5.42 a 32,32 0 0 1 13.31,12.72 c 4.59,7.69 6.85,19.87 6.85,36.46 0,16.59 -1.69,28.74 -5.07,36.57 q -5.81,13.37 -18.84,18.37 a 40.79,40.79 0 0 1 -6.23,1.66 l 36.48,39.45 z m 571.28,0 41.62,-44.24 41.62,44.24 h 59 l -70.69,-76.08 70.69,-75.14 h -60.8 l -39.77,42.9 -39.87,-42.89 h -60.8 l 70.71,75.14 -70.71,76.08 z M 1141,1182.81 h 87 V 1216 h -87 v 25.17 h 114.14 v 34.34 H 1095.63 V 1124.3 h 159.54 v 34.32 H 1141 Z M 226.61,1275.52 146,1124.3 h 50.76 l 59.7,114.19 61,-114.19 h 51.32 L 285,1275.52 Z"
       id="path2" />
    <g
       class="cls-2"
       clip-path="url(#clip-path)"
       id="g130">
      <polygon
         class="cls-3"
         points="1353.73,867.21 548.49,1083 332.73,277.77 1137.98,61.98 "
         id="polygon2" />
      <path
         class="cls-4"
         d="m 847.78,571.12 a 4.88,4.88 0 1 0 -3.44,6 4.88,4.88 0 0 0 3.44,-6 z"
         id="path3" />
      <path
         class="cls-4"
         d="m 846.21,571.54 a 3.25,3.25 0 1 1 -4,-2.29 3.25,3.25 0 0 1 4,2.29 z m 4.71,-1.26 a 8.13,8.13 0 1 0 -5.75,10 8.13,8.13 0 0 0 5.75,-10 z"
         id="path4" />
      <path
         class="cls-4"
         d="m 849.35,570.7 a 6.5,6.5 0 1 1 -8,-4.6 6.51,6.51 0 0 1 8,4.6 z m 4.71,-1.26 a 11.37,11.37 0 1 0 -8,13.94 11.38,11.38 0 0 0 8,-13.94 z"
         id="path5" />
      <path
         class="cls-4"
         d="m 852.49,569.86 a 9.75,9.75 0 1 1 -12,-6.9 9.76,9.76 0 0 1 12,6.9 z m 4.71,-1.26 a 14.63,14.63 0 1 0 -10.34,17.92 14.64,14.64 0 0 0 10.34,-17.92 z"
         id="path6" />
      <path
         class="cls-5"
         d="m 855.63,569 a 13,13 0 1 1 -15.93,-9.2 13,13 0 0 1 15.93,9.2 z m 4.71,-1.26 a 17.88,17.88 0 1 0 -12.64,21.9 17.87,17.87 0 0 0 12.64,-21.9 z"
         id="path7" />
      <path
         class="cls-5"
         d="m 858.77,568.18 a 16.25,16.25 0 1 1 -19.9,-11.5 16.26,16.26 0 0 1 19.9,11.5 z m 4.71,-1.27 a 21.13,21.13 0 1 0 -14.94,25.9 21.13,21.13 0 0 0 14.94,-25.9 z"
         id="path8" />
      <path
         class="cls-6"
         d="M 861.91,567.33 A 19.5,19.5 0 1 1 838,553.54 a 19.52,19.52 0 0 1 23.89,13.79 z m 4.71,-1.26 a 24.38,24.38 0 1 0 -17.23,29.87 24.39,24.39 0 0 0 17.23,-29.87 z"
         id="path9" />
      <path
         class="cls-6"
         d="m 865.05,566.49 a 22.76,22.76 0 1 1 -27.87,-16.1 22.76,22.76 0 0 1 27.87,16.1 z m 4.71,-1.25 a 27.63,27.63 0 1 0 -19.53,33.85 27.62,27.62 0 0 0 19.53,-33.85 z"
         id="path10" />
      <path
         class="cls-6"
         d="m 868.18,565.66 a 26,26 0 1 1 -31.84,-18.4 26,26 0 0 1 31.84,18.4 z m 4.72,-1.27 a 30.88,30.88 0 1 0 -21.84,37.84 30.9,30.9 0 0 0 21.84,-37.84 z"
         id="path11" />
      <path
         class="cls-6"
         d="m 871.33,564.81 a 29.25,29.25 0 1 1 -35.83,-20.7 29.27,29.27 0 0 1 35.83,20.7 z m 4.71,-1.26 A 34.13,34.13 0 1 0 851.91,605.37 34.13,34.13 0 0 0 876,563.55 Z"
         id="path12" />
      <path
         class="cls-7"
         d="m 874.47,564 a 32.51,32.51 0 1 1 -39.82,-23 32.51,32.51 0 0 1 39.82,23 z m 4.71,-1.26 a 37.38,37.38 0 1 0 -26.43,45.8 37.4,37.4 0 0 0 26.43,-45.8 z"
         id="path13" />
      <path
         class="cls-8"
         d="m 877.6,563.13 a 35.75,35.75 0 1 1 -43.79,-25.3 35.76,35.76 0 0 1 43.79,25.3 z m 4.72,-1.27 a 40.63,40.63 0 1 0 -28.73,49.79 40.65,40.65 0 0 0 28.73,-49.79 z"
         id="path14" />
      <path
         class="cls-8"
         d="m 880.75,562.29 a 39,39 0 1 1 -47.75,-27.6 39,39 0 0 1 47.77,27.6 z m 4.7,-1.26 a 43.88,43.88 0 1 0 -31,53.76 43.87,43.87 0 0 0 31,-53.76 z"
         id="path15" />
      <path
         class="cls-9"
         d="m 883.89,561.44 a 42.26,42.26 0 1 1 -51.76,-29.89 42.27,42.27 0 0 1 51.76,29.89 z m 4.71,-1.25 a 47.13,47.13 0 1 0 -33.32,57.74 47.15,47.15 0 0 0 33.32,-57.74 z"
         id="path16" />
      <path
         class="cls-10"
         d="m 887,560.61 a 45.5,45.5 0 1 1 -55.73,-32.2 45.51,45.51 0 0 1 55.73,32.2 z m 4.72,-1.27 a 50.38,50.38 0 1 0 -35.62,61.73 50.39,50.39 0 0 0 35.62,-61.73 z"
         id="path17" />
      <path
         class="cls-11"
         d="m 890.17,559.76 a 48.76,48.76 0 1 1 -59.72,-34.49 48.77,48.77 0 0 1 59.72,34.49 z m 4.7,-1.26 A 53.63,53.63 0 1 0 857,624.22 53.65,53.65 0 0 0 894.91,558.5 Z"
         id="path18" />
      <path
         class="cls-12"
         d="m 893.31,558.92 a 52,52 0 1 1 -63.71,-36.79 52,52 0 0 1 63.71,36.79 z m 4.71,-1.26 A 56.88,56.88 0 1 0 857.8,627.35 56.9,56.9 0 0 0 898,557.66 Z"
         id="path19" />
      <path
         class="cls-13"
         d="M 896.44,558.08 A 55.25,55.25 0 1 1 828.76,519 a 55.25,55.25 0 0 1 67.68,39.1 z m 4.72,-1.27 a 60.14,60.14 0 1 0 -42.52,73.69 60.16,60.16 0 0 0 42.52,-73.69 z"
         id="path20" />
      <path
         class="cls-13"
         d="m 899.59,557.24 a 58.51,58.51 0 1 1 -71.67,-41.39 58.54,58.54 0 0 1 71.67,41.39 z m 4.7,-1.26 A 63.38,63.38 0 1 0 859.48,633.63 63.39,63.39 0 0 0 904.29,556 Z"
         id="path21" />
      <path
         class="cls-14"
         d="m 902.72,556.4 a 61.75,61.75 0 1 1 -75.64,-43.7 61.77,61.77 0 0 1 75.64,43.7 z m 4.72,-1.26 a 66.64,66.64 0 1 0 -47.11,81.64 66.66,66.66 0 0 0 47.11,-81.64 z"
         id="path22" />
      <path
         class="cls-15"
         d="m 905.86,555.56 a 65,65 0 1 1 -79.62,-46 65,65 0 0 1 79.62,46 z m 4.71,-1.27 a 69.88,69.88 0 1 0 -49.4,85.63 69.89,69.89 0 0 0 49.4,-85.63 z"
         id="path23" />
      <path
         class="cls-16"
         d="m 909,554.72 a 68.26,68.26 0 1 1 -83.61,-48.3 68.29,68.29 0 0 1 83.61,48.3 z m 4.7,-1.27 a 73.13,73.13 0 1 0 -51.7,89.61 73.14,73.14 0 0 0 51.7,-89.61 z"
         id="path24" />
      <path
         class="cls-16"
         d="m 912.14,553.87 a 71.51,71.51 0 1 1 -87.59,-50.6 71.53,71.53 0 0 1 87.59,50.6 z m 4.72,-1.26 a 76.39,76.39 0 1 0 -54,93.6 76.4,76.4 0 0 0 54,-93.6 z"
         id="path25" />
      <path
         class="cls-17"
         d="M 915.28,553 A 74.76,74.76 0 1 1 823.71,500.11 74.78,74.78 0 0 1 915.28,553 Z m 4.71,-1.26 a 79.63,79.63 0 1 0 -56.3,97.57 79.66,79.66 0 0 0 56.31,-97.54 z"
         id="path26" />
      <path
         class="cls-18"
         d="M 918.42,552.19 A 78,78 0 1 1 822.87,497 a 78,78 0 0 1 95.55,55.2 z m 4.71,-1.26 a 82.88,82.88 0 1 0 -58.6,101.56 82.88,82.88 0 0 0 58.6,-101.56 z"
         id="path27" />
      <path
         class="cls-19"
         d="M 921.56,551.35 A 81.26,81.26 0 1 1 822,493.86 a 81.28,81.28 0 0 1 99.53,57.49 z m 4.71,-1.26 a 86.14,86.14 0 1 0 -60.89,105.54 86.16,86.16 0 0 0 60.89,-105.54 z"
         id="path28" />
      <path
         class="cls-20"
         d="m 924.7,550.51 a 84.51,84.51 0 1 1 -103.51,-59.8 84.53,84.53 0 0 1 103.51,59.8 z m 4.71,-1.26 a 89.39,89.39 0 1 0 -63.19,109.52 89.4,89.4 0 0 0 63.19,-109.52 z"
         id="path29" />
      <path
         class="cls-21"
         d="m 927.84,549.67 a 87.76,87.76 0 1 1 -107.49,-62.1 87.78,87.78 0 0 1 107.49,62.1 z m 4.71,-1.27 A 92.64,92.64 0 1 0 867.06,661.91 92.65,92.65 0 0 0 932.55,548.4 Z"
         id="path30" />
      <path
         class="cls-22"
         d="M 931,548.82 A 91,91 0 1 1 819.53,484.43 91,91 0 0 1 931,548.82 Z m 4.71,-1.26 A 95.89,95.89 0 1 0 867.9,665.05 95.9,95.9 0 0 0 935.69,547.56 Z"
         id="path31" />
      <path
         class="cls-23"
         d="M 934.12,548 A 94.26,94.26 0 1 1 818.66,481.31 94.3,94.3 0 0 1 934.12,548 Z m 4.71,-1.25 a 99.13,99.13 0 1 0 -70.09,121.46 99.16,99.16 0 0 0 70.09,-121.46 z"
         id="path32" />
      <path
         class="cls-24"
         d="m 937.26,547.15 a 97.51,97.51 0 1 1 -119.44,-69 97.53,97.53 0 0 1 119.44,69 z m 4.71,-1.27 A 102.39,102.39 0 1 0 869.58,671.33 102.41,102.41 0 0 0 942,545.88 Z"
         id="path33" />
      <path
         class="cls-25"
         d="M 940.4,546.3 A 100.76,100.76 0 1 1 817,475 100.79,100.79 0 0 1 940.4,546.3 Z m 4.71,-1.26 A 105.64,105.64 0 1 0 870.42,674.47 105.66,105.66 0 0 0 945.11,545 Z"
         id="path34" />
      <path
         class="cls-26"
         d="m 943.54,545.46 a 104,104 0 1 1 -127.4,-73.59 104,104 0 0 1 127.4,73.59 z m 4.71,-1.26 a 108.89,108.89 0 1 0 -77,133.42 108.92,108.92 0 0 0 77,-133.42 z"
         id="path35" />
      <path
         class="cls-26"
         d="M 946.68,544.62 A 107.27,107.27 0 1 1 815.3,468.73 107.3,107.3 0 0 1 946.68,544.62 Z m 4.71,-1.26 a 112.14,112.14 0 1 0 -79.28,137.39 112.15,112.15 0 0 0 79.28,-137.39 z"
         id="path36" />
      <path
         class="cls-27"
         d="m 949.82,543.78 a 110.51,110.51 0 1 1 -135.36,-78.2 110.54,110.54 0 0 1 135.36,78.2 z m 4.71,-1.26 A 115.39,115.39 0 1 0 873,683.9 115.41,115.41 0 0 0 954.58,542.52 Z"
         id="path37" />
      <path
         class="cls-27"
         d="M 953,542.93 A 113.77,113.77 0 1 1 813.65,462.45 113.81,113.81 0 0 1 953,542.93 Z m 4.71,-1.25 A 118.64,118.64 0 1 0 873.79,687 118.67,118.67 0 0 0 957.67,541.65 Z"
         id="path38" />
      <path
         class="cls-28"
         d="M 956.1,542.1 A 117,117 0 1 1 812.77,459.3 117,117 0 0 1 956.1,542.1 Z m 4.71,-1.27 a 121.89,121.89 0 1 0 -86.18,149.35 121.92,121.92 0 0 0 86.18,-149.35 z"
         id="path39" />
      <path
         class="cls-29"
         d="M 959.24,541.25 A 120.26,120.26 0 1 1 811.93,456.16 120.3,120.3 0 0 1 959.24,541.25 Z M 964,540 A 125.14,125.14 0 1 0 875.52,693.33 125.17,125.17 0 0 0 964,540 Z"
         id="path40" />
      <path
         class="cls-29"
         d="M 962.37,540.41 A 123.51,123.51 0 1 1 811.09,453 123.54,123.54 0 0 1 962.37,540.39 Z m 4.72,-1.26 a 128.39,128.39 0 1 0 -90.77,157.31 128.41,128.41 0 0 0 90.77,-157.31 z"
         id="path41" />
      <path
         class="cls-30"
         d="m 965.52,539.57 a 126.77,126.77 0 1 1 -155.27,-89.69 126.81,126.81 0 0 1 155.27,89.69 z m 4.7,-1.26 a 131.64,131.64 0 1 0 -93.06,161.3 131.65,131.65 0 0 0 93.06,-161.3 z"
         id="path42" />
      <path
         class="cls-31"
         d="m 968.66,538.73 a 130,130 0 1 1 -159.25,-92 130.06,130.06 0 0 1 159.25,92 z m 4.71,-1.26 A 134.89,134.89 0 1 0 878,702.74 134.93,134.93 0 0 0 973.37,537.47 Z"
         id="path43" />
      <path
         class="cls-32"
         d="m 971.79,537.89 a 133.27,133.27 0 1 1 -163.22,-94.3 133.31,133.31 0 0 1 163.22,94.3 z m 4.72,-1.26 a 138.14,138.14 0 1 0 -97.67,169.26 138.17,138.17 0 0 0 97.67,-169.26 z"
         id="path44" />
      <path
         class="cls-32"
         d="m 974.94,537.05 a 136.52,136.52 0 1 1 -167.22,-96.59 136.55,136.55 0 0 1 167.22,96.59 z m 4.7,-1.27 A 141.39,141.39 0 1 0 879.68,709 a 141.42,141.42 0 0 0 100,-173.24 z"
         id="path45" />
      <path
         class="cls-32"
         d="m 978.08,536.21 a 139.77,139.77 0 1 1 -171.2,-98.9 139.83,139.83 0 0 1 171.2,98.9 z m 4.71,-1.27 A 144.65,144.65 0 1 0 880.52,712.17 144.68,144.68 0 0 0 982.79,534.94 Z"
         id="path46" />
      <path
         class="cls-32"
         d="M 981.21,535.36 A 143,143 0 1 1 806,434.17 143,143 0 0 1 981.21,535.36 Z m 4.72,-1.26 A 147.9,147.9 0 1 0 881.37,715.31 147.93,147.93 0 0 0 985.93,534.1 Z"
         id="path47" />
      <path
         class="cls-33"
         d="M 984.36,534.52 A 146.27,146.27 0 1 1 805.19,431 146.33,146.33 0 0 1 984.36,534.52 Z m 4.7,-1.26 A 151.14,151.14 0 1 0 882.21,718.45 151.17,151.17 0 0 0 989.06,533.26 Z"
         id="path48" />
      <path
         class="cls-33"
         d="M 987.49,533.68 A 149.52,149.52 0 1 1 804.36,427.89 149.56,149.56 0 0 1 987.49,533.68 Z m 4.72,-1.26 C 970.12,450 885.45,401.1 803.1,423.18 a 154.47,154.47 0 1 0 189.11,109.24 z"
         id="path49" />
      <path
         class="cls-34"
         d="M 990.63,532.84 A 152.77,152.77 0 1 1 803.52,424.75 152.82,152.82 0 0 1 990.63,532.84 Z m 4.71,-1.26 A 157.68,157.68 0 0 0 802.25,420 c -84.1,22.54 -134,109 -111.45,193.16 a 157.64264,157.64264 0 1 0 304.54,-81.61 z"
         id="path50" />
      <path
         class="cls-34"
         d="M 993.78,532 A 156.02226,156.02226 0 1 1 692.37,612.77 C 670.06,529.5 719.44,443.91 802.67,421.61 A 156.05,156.05 0 0 1 993.78,532 Z m 4.7,-1.26 C 975.48,444.87 887.24,393.89 801.41,416.9 715.58,439.91 664.65,528.16 687.66,614 710.67,699.84 798.9,750.88 884.74,727.87 970.58,704.86 1021.49,616.61 998.48,530.74 Z"
         id="path51" />
      <path
         class="cls-34"
         d="M 996.91,531.16 A 159.27,159.27 0 1 1 801.83,418.46 c 85,-22.77 172.3,27.69 195.08,112.7 z m 4.72,-1.27 C 978.15,442.29 888.13,390.29 800.57,413.75 713.01,437.21 661.05,527.26 684.52,614.87 707.99,702.48 798,754.48 885.57,731 973.14,707.52 1025.1,617.5 1001.63,529.89 Z"
         id="path52" />
      <path
         class="cls-35"
         d="M 1000.05,530.31 A 162.56,162.56 0 0 1 885.15,729.45 C 798.45,752.68 709.34,701.2 686.09,614.45 662.84,527.7 714.29,438.56 801,415.33 c 86.71,-23.23 175.82,28.25 199.06,115 z m 4.71,-1.26 c -23.94,-89.34 -115.73,-142.37 -205,-118.43 -89.27,23.94 -142.32,115.75 -118.38,205.1 23.94,89.35 115.74,142.37 205,118.43 89.26,-23.94 142.29,-115.75 118.35,-205.1 z"
         id="path53" />
      <path
         class="cls-36"
         d="M 1003.2,529.47 C 1026.9,618 974.43,708.88 886,732.58 797.57,756.28 706.66,703.77 683,615.3 659.34,526.83 711.77,435.88 800.2,412.18 c 88.43,-23.7 179.29,28.82 203,117.29 z m 4.7,-1.25 c -24.4,-91.09 -118,-145.14 -209,-120.75 -91,24.39 -145,118 -120.64,209.08 24.36,91.08 118,145.14 209,120.75 91,-24.39 145,-118 120.64,-209.08 z"
         id="path54" />
      <path
         class="cls-36"
         d="M 1006.33,528.64 C 1030.5,618.85 977,711.56 886.84,735.73 796.68,759.9 704,706.35 679.81,616.14 655.62,525.93 709.14,433.21 799.3,409 c 90.16,-24.21 182.86,29.38 207,119.6 z m 4.72,-1.27 c -24.87,-92.81 -120.24,-147.9 -213,-123 -92.76,24.9 -147.82,120.22 -122.95,213.03 24.87,92.81 120.23,147.9 213,123 92.77,-24.9 147.81,-120.24 122.95,-213.06 z"
         id="path55" />
      <path
         class="cls-36"
         d="m 1009.47,527.79 c 24.64,92 -29.89,186.45 -121.79,211.08 -91.9,24.63 -186.38,-30 -211,-121.9 -24.62,-91.9 29.9,-186.44 121.8,-211.07 91.9,-24.63 186.36,29.94 211,121.89 z m 4.71,-1.26 C 988.84,432 891.71,375.87 797.2,401.19 702.69,426.51 646.63,523.69 672,618.24 c 25.37,94.55 122.48,150.66 217,125.34 94.52,-25.32 150.57,-122.5 125.24,-217.05 z"
         id="path56" />
      <path
         class="cls-37"
         d="m 1012.61,527 c 25.1,93.68 -30.45,190 -124.09,215.06 -93.64,25.06 -189.89,-30.51 -215,-124.19 -25.11,-93.68 30.46,-190 124.1,-215.06 93.64,-25.06 189.88,30.51 215,124.19 z m 4.71,-1.26 C 991.52,429.46 892.59,372.31 796.32,398.1 700.05,423.89 643,522.8 668.82,619.08 c 25.82,96.28 124.72,153.43 221,127.64 96.28,-25.79 153.33,-124.75 127.53,-221 z"
         id="path57" />
      <path
         class="cls-38"
         d="m 1015.75,526.11 c 25.57,95.41 -31,193.48 -126.39,219 -95.39,25.52 -193.4,-31.08 -219,-126.49 -25.6,-95.41 31,-193.48 126.39,-219 95.39,-25.52 193.41,31.07 219,126.49 z m 4.71,-1.27 c -26.26,-98 -127,-156.18 -224.94,-129.93 -97.94,26.25 -156.1,127 -129.84,225 26.26,98 127,156.19 225,129.94 98,-26.25 156.09,-127 129.83,-225 z"
         id="path58" />
      <path
         class="cls-38"
         d="m 1018.89,525.27 c 26,97.15 -31.58,197 -128.68,223 -97.1,26 -196.93,-31.64 -223,-128.79 -26.07,-97.15 31.59,-197 128.69,-223 97.1,-26 196.92,31.65 222.95,128.8 z m 4.71,-1.26 C 996.87,424.26 894.38,365.01 794.68,391.77 694.98,418.53 635.82,521 662.54,620.77 689.26,720.54 791.76,779.72 891.46,753 991.16,726.28 1050.33,623.74 1023.6,524 Z"
         id="path59" />
      <path
         class="cls-38"
         d="m 1022,524.42 c 26.5,98.89 -32.15,200.52 -131,227 -98.85,26.48 -200.39,-32.2 -226.89,-131.08 -26.5,-98.88 32.15,-200.52 131,-227 98.85,-26.48 200.42,32.2 226.89,131.08 z m 4.71,-1.25 C 999.55,421.68 895.27,361.45 793.83,388.63 692.39,415.81 632.21,520.11 659.4,621.6 c 27.19,101.49 131.47,161.73 232.91,134.54 101.44,-27.19 161.62,-131.49 134.43,-233 z"
         id="path60" />
      <path
         class="cls-39"
         d="m 1025.17,523.59 c 27,100.62 -32.71,204 -133.28,231 -100.57,27 -203.96,-32.78 -230.89,-133.41 -26.93,-100.63 32.71,-204 133.27,-231 100.56,-27 204,32.78 230.92,133.4 z m 4.71,-1.27 C 1002.22,419.1 896.16,357.84 793,385.49 c -103.16,27.65 -164.39,133.73 -136.74,237 27.65,103.27 133.74,164.45 236.89,136.8 103.15,-27.65 164.39,-133.75 136.73,-237 z"
         id="path61" />
      <path
         class="cls-39"
         d="M 1028.31,522.75 C 1055.74,625.1 995.03,730.3 892.73,757.75 790.43,785.2 685.26,724.38 657.83,622 630.4,519.62 691.11,414.45 793.41,387 c 102.3,-27.45 207.48,33.33 234.9,135.69 z m 4.71,-1.27 c -28.12,-105 -136,-167.25 -240.87,-139.14 -104.87,28.11 -167.15,136 -139,241 28.15,105 135.94,167.2 240.85,139.09 104.91,-28.11 167.15,-136 139,-240.95 z"
         id="path62" />
      <path
         class="cls-39"
         d="M 1031.45,521.9 C 1059.34,626 997.61,733 893.57,760.86 c -104.04,27.86 -211,-33.9 -238.88,-138 -27.88,-104.1 33.84,-211.08 137.89,-239 104.05,-27.92 211,33.9 238.87,138 z m 4.71,-1.26 C 1007.57,414 898,350.62 791.31,379.2 684.62,407.78 621.4,517.44 650,624.13 c 28.6,106.69 138.21,170 244.85,141.44 106.64,-28.56 169.91,-138.24 141.33,-244.93 z"
         id="path63" />
      <path
         class="cls-39"
         d="M 1034.59,521.06 C 1063,626.88 1000.18,735.65 894.41,764 788.64,792.35 679.91,729.54 651.56,623.72 623.21,517.9 686,409.12 791.73,380.77 c 105.73,-28.35 214.5,34.47 242.86,140.29 z m 4.7,-1.26 C 1010.29,411.37 898.85,347.02 790.47,376.06 682.09,405.1 617.79,516.54 646.84,625 675.89,733.46 787.3,797.75 895.68,768.71 1004.06,739.67 1068.35,628.23 1039.29,519.8 Z"
         id="path64" />
      <path
         class="cls-39"
         d="m 1037.73,520.22 c 28.82,107.56 -35,218.11 -142.47,246.92 -107.47,28.81 -218,-35 -246.85,-142.59 -28.85,-107.59 35,-218.11 142.48,-246.92 107.48,-28.81 218,35 246.84,142.59 z m 4.71,-1.26 C 1012.92,408.8 899.73,343.41 789.63,372.96 679.53,402.51 614.19,515.65 643.71,625.81 c 29.52,110.16 142.7,175.55 252.81,146 C 1006.63,742.26 1072,629.12 1042.44,519 Z"
         id="path65" />
      <path
         class="cls-39"
         d="M 1040.87,519.38 C 1070.15,628.67 1005.33,741 896.1,770.28 786.87,799.56 674.56,734.68 645.28,625.39 616,516.1 680.81,403.76 790.05,374.49 c 109.24,-29.27 221.53,35.59 250.82,144.89 z m 4.71,-1.26 c -30,-111.9 -145,-178.31 -256.8,-148.34 -111.8,29.97 -178.2,145 -148.22,256.87 C 670.54,738.52 785.51,805 897.35,775 1009.19,745 1075.56,630 1045.58,518.13 Z"
         id="path66" />
      <path
         class="cls-40"
         d="m 1044,518.54 c 29.75,111 -36.1,225.14 -147.08,254.88 -110.98,29.74 -225,-36.16 -254.79,-147.19 -29.79,-111.03 36.1,-225.14 147.07,-254.88 110.97,-29.74 225.06,36.16 254.8,147.19 z m 4.7,-1.27 C 1018.27,403.65 901.52,336.2 787.94,366.63 674.36,397.06 607,513.86 637.42,627.49 c 30.42,113.63 147.2,181.08 260.78,150.64 113.58,-30.44 181,-147.23 150.51,-260.86 z"
         id="path67" />
      <path
         class="cls-40"
         d="M 1047.14,517.7 C 1077.36,630.46 1010.48,746.36 897.78,776.57 785.08,806.78 669.21,739.83 639,627.07 608.79,514.31 675.66,398.41 788.37,368.21 c 112.71,-30.2 228.58,36.72 258.78,149.49 z m 4.72,-1.27 C 1021,401.07 902.41,332.59 787.11,363.5 671.81,394.41 603.38,513 634.29,628.34 665.2,743.68 783.73,812.17 899,781.27 1014.27,750.37 1082.73,631.8 1051.82,516.43 Z"
         id="path68" />
      <path
         class="cls-40"
         d="M 1050.29,516.85 C 1081,631.36 1013.06,749 898.62,779.7 784.18,810.4 666.53,742.42 635.86,627.91 605.19,513.4 673.08,395.73 787.52,365.07 c 114.44,-30.66 232.09,37.29 262.77,151.78 z m 4.71,-1.26 C 1023.62,398.49 903.3,329 786.26,360.35 669.22,391.7 599.77,512.08 631.14,629.18 c 31.37,117.1 151.7,186.6 268.74,155.24 117.04,-31.36 186.49,-151.73 155.12,-268.83 z"
         id="path69" />
      <path
         class="cls-41"
         d="m 1053.43,516 c 31.14,116.24 -37.8,235.7 -154,266.84 C 783.23,813.98 663.86,745 632.72,628.76 c -31.14,-116.24 37.78,-235.7 154,-266.83 116.22,-31.13 235.6,37.85 266.75,154.08 z m 4.7,-1.26 C 1026.29,395.91 904.2,325.38 785.42,357.22 666.64,389.06 596.17,511.18 628,630 c 31.83,118.82 154,189.38 272.73,157.55 118.73,-31.83 189.25,-154 157.4,-272.8 z"
         id="path70" />
      <path
         class="cls-41"
         d="m 1056.56,515.17 c 31.62,118 -38.34,239.22 -156.26,270.81 C 782.38,817.57 661.19,747.57 629.57,629.6 597.95,511.63 667.93,390.38 785.84,358.78 903.75,327.18 1025,397.2 1056.56,515.17 Z m 4.72,-1.26 C 1029,393.34 905.09,321.78 784.58,354.07 664.07,386.36 592.58,510.29 624.87,630.86 657.16,751.43 781.06,823 901.57,790.7 c 120.51,-32.3 192,-156.22 159.71,-276.79 z"
         id="path71" />
      <path
         class="cls-42"
         d="m 1059.71,514.33 c 32.07,119.7 -38.92,242.73 -158.56,274.8 C 781.51,821.2 658.51,750.13 626.44,630.43 594.37,510.73 665.35,387.7 785,355.64 c 119.65,-32.06 242.64,39 274.71,158.69 z m 4.7,-1.26 C 1031.65,390.76 906,318.17 783.73,350.93 661.46,383.69 589,509.39 621.72,631.7 c 32.72,122.31 158.44,194.89 280.68,162.13 122.24,-32.76 194.79,-158.46 162,-280.76 z"
         id="path72" />
      <path
         class="cls-42"
         d="M 1062.85,513.49 C 1095.39,634.93 1023.37,759.74 901.99,792.27 780.61,824.8 655.83,752.72 623.3,631.27 590.77,509.82 662.78,385 784.16,352.5 c 121.38,-32.5 246.14,39.55 278.69,161 z m 4.7,-1.26 C 1034.32,388.23 906.88,314.57 782.89,347.79 658.9,381.01 585.35,508.5 618.59,632.54 651.83,756.58 779.27,830.21 903.25,797 c 123.98,-33.21 197.54,-160.72 164.3,-284.75 z"
         id="path73" />
      <path
         class="cls-43"
         d="M 1066,512.65 C 1099,635.82 1026,762.42 902.85,795.41 779.7,828.4 653.16,755.29 620.16,632.12 587.16,508.95 660.16,382.35 783.31,349.36 906.46,316.37 1033,389.48 1066,512.65 Z m 4.72,-1.27 C 1037,385.61 907.76,311 782.05,344.65 c -125.71,33.65 -200.3,163 -166.6,288.74 33.7,125.74 162.93,200.42 288.64,166.73 125.71,-33.69 200.3,-163 166.61,-288.74 z"
         id="path74" />
      <path
         class="cls-44"
         d="M 1069.13,511.8 C 1102.59,636.72 1028.52,765.09 903.67,798.55 778.82,832.01 650.49,757.87 617,633 583.51,508.13 657.61,379.71 782.45,346.26 c 124.84,-33.45 253.19,40.68 286.66,165.58 z m 4.7,-1.25 c -34.16,-127.51 -165.18,-203.2 -292.62,-169 -127.44,34.2 -203.07,165.17 -168.9,292.68 34.17,127.51 165.17,203.19 292.62,169 127.45,-34.19 203.07,-165.18 168.9,-292.68 z"
         id="path75" />
      <path
         class="cls-45"
         d="M 1072.27,511 C 1106.19,637.65 1031.09,767.81 904.51,801.73 777.93,835.65 647.81,760.48 613.88,633.85 579.95,507.22 655.05,377 781.63,343.08 c 126.58,-33.92 256.7,41.25 290.64,167.88 z m 4.7,-1.26 C 1042.35,380.49 909.55,303.74 780.37,338.41 651.19,373.08 574.54,505.82 609.17,635.06 643.8,764.3 776.59,841.06 905.77,806.41 1034.95,771.76 1111.6,639 1077,509.7 Z"
         id="path76" />
      <path
         class="cls-46"
         d="M 1075.4,510.13 C 1109.8,638.5 1033.67,770.45 905.35,804.83 777.03,839.21 645.13,763 610.74,634.65 576.35,506.3 652.48,374.32 780.74,339.94 909,305.56 1041,381.75 1075.4,510.13 Z m 4.72,-1.27 C 1045.02,377.86 910.44,300.14 779.53,335.22 648.62,370.3 570.94,504.93 606,635.91 c 35.06,130.98 169.7,208.72 300.62,173.63 130.92,-35.09 208.59,-169.7 173.5,-300.68 z"
         id="path77" />
      <path
         class="cls-47"
         d="M 1078.55,509.28 C 1113.41,639.39 1036.24,773.12 906.2,808 776.16,842.88 642.46,765.6 607.6,635.48 572.74,505.36 649.9,371.64 780,336.79 c 130.1,-34.85 263.73,42.38 298.6,172.49 z m 4.7,-1.26 C 1047.69,375.3 911.33,296.54 778.69,332.09 646.05,367.64 567.33,504 602.89,636.75 c 35.56,132.75 171.92,211.48 304.57,175.94 132.65,-35.54 211.35,-172 175.79,-304.67 z"
         id="path78" />
      <path
         class="cls-48"
         d="M 1081.68,508.44 C 1117,640.29 1038.82,775.8 907,811.11 775.18,846.42 639.79,768.18 604.46,636.33 569.13,504.48 647.33,369 779.11,333.66 c 131.78,-35.34 267.25,42.93 302.57,174.78 z m 4.71,-1.26 C 1050.39,372.73 912.23,292.93 777.84,328.94 643.45,364.95 563.73,503.14 599.75,637.59 635.77,772.04 773.92,851.84 908.3,815.82 1042.68,779.8 1122.42,641.63 1086.39,507.18 Z"
         id="path79" />
      <path
         class="cls-49"
         d="m 1084.82,507.6 c 35.8,133.58 -43.43,270.88 -176.94,306.66 C 774.37,850.04 637.11,770.75 601.32,637.17 565.53,503.59 644.75,366.29 778.26,330.51 911.77,294.73 1049,374 1084.82,507.6 Z m 4.71,-1.27 C 1053,370.15 913.12,289.32 777,325.8 640.88,362.28 560.12,502.24 596.61,638.43 633.1,774.62 773,855.44 909.14,819 1045.28,782.56 1126,642.52 1089.53,506.33 Z"
         id="path80" />
      <path
         class="cls-50"
         d="M 1088,506.76 C 1124.25,642.08 1044,781.15 908.75,817.39 773.5,853.63 634.44,773.33 598.18,638 561.92,502.67 642.18,363.6 777.42,327.36 912.66,291.12 1051.7,371.44 1088,506.76 Z m 4.7,-1.26 C 1055.7,367.58 914.04,285.72 776.19,322.66 638.34,359.6 556.52,501.36 593.47,639.28 630.42,777.2 772.13,859.05 910,822.11 1047.87,785.17 1129.65,643.41 1092.69,505.5 Z"
         id="path81" />
      <path
         class="cls-51"
         d="M 1091.1,505.92 C 1127.83,642.97 1046.54,783.83 909.56,820.54 772.58,857.25 631.76,775.9 595,638.85 558.24,501.8 639.55,360.94 776.54,324.23 c 136.99,-36.71 277.8,44.64 314.52,181.69 z m 4.71,-1.26 C 1058.39,365 914.91,282.11 775.32,319.52 c -139.59,37.41 -222.41,180.94 -185,320.59 37.41,139.65 180.92,222.54 320.5,185.14 139.58,-37.4 222.41,-180.94 185,-320.59 z"
         id="path82" />
      <path
         class="cls-52"
         d="m 1094.24,505.08 c 37.19,138.78 -45.12,281.43 -183.84,318.6 -138.72,37.17 -281.31,-45.2 -318.5,-184 -37.19,-138.8 45.1,-281.42 183.84,-318.59 138.74,-37.17 281.32,45.2 318.5,184 z m 4.71,-1.27 C 1061.07,362.43 915.79,278.51 774.48,316.38 633.17,354.25 549.31,499.57 587.19,641 625.07,782.43 770.34,866.26 911.67,828.39 1053,790.52 1136.83,645.2 1099,503.81 Z"
         id="path83" />
      <path
         class="cls-53"
         d="M 1097.38,504.24 C 1135.03,644.75 1051.69,789.18 911.25,826.82 770.81,864.46 626.41,781.06 588.76,640.53 551.11,500 634.44,355.58 774.9,318 c 140.46,-37.58 284.83,45.77 322.48,186.29 z m 4.71,-1.27 C 1063.74,359.85 916.68,274.9 773.64,313.23 630.6,351.56 545.7,498.67 584.05,641.8 622.4,784.93 769.45,869.86 912.51,831.53 1055.57,793.2 1140.44,646.1 1102.09,503 Z"
         id="path84" />
      <path
         class="cls-54"
         d="M 1100.52,503.39 C 1138.63,645.65 1054.27,791.86 912.09,829.96 769.91,868.06 623.74,783.64 585.62,641.37 547.5,499.1 631.87,352.91 774.06,314.81 c 142.19,-38.1 288.35,46.33 326.46,188.58 z m 4.71,-1.26 C 1066.42,357.27 917.58,271.3 772.79,310.13 628,348.96 542.1,497.78 580.91,642.64 619.72,787.5 768.56,873.47 913.35,834.64 1058.14,795.81 1144,647 1105.23,502.13 Z"
         id="path85" />
      <path
         class="cls-55"
         d="m 1103.66,502.55 c 38.58,144 -46.82,292 -190.73,330.55 -143.91,38.55 -291.87,-46.89 -330.45,-190.88 -38.58,-143.99 46.81,-292 190.74,-330.55 143.93,-38.55 291.86,46.89 330.44,190.88 z m 4.71,-1.26 C 1069.09,354.69 918.47,267.69 772,307 625.53,346.31 538.49,496.88 577.77,643.48 c 39.28,146.6 189.9,233.6 336.42,194.34 146.52,-39.26 233.46,-189.94 194.18,-336.53 z"
         id="path86" />
      <path
         class="cls-56"
         d="m 1106.8,501.71 c 39,145.73 -47.38,295.5 -193,334.54 C 768.18,875.29 618.39,788.79 579.34,643.06 540.29,497.33 626.72,347.55 772.34,308.53 917.96,269.51 1067.75,356 1106.8,501.71 Z m 4.71,-1.26 C 1071.77,352.12 919.37,264.09 771.11,303.82 622.85,343.55 534.89,496 574.63,644.32 614.37,792.64 766.78,880.69 915,841 1063.22,801.31 1151.22,648.82 1111.48,500.5 Z"
         id="path87" />
      <path
         class="cls-57"
         d="m 1109.94,500.87 c 39.51,147.46 -47.94,299 -195.33,338.51 -147.39,39.51 -298.89,-48 -338.4,-195.48 -39.51,-147.48 47.93,-299 195.32,-338.52 147.39,-39.52 298.9,48 338.41,195.49 z m 4.71,-1.26 C 1074.44,349.54 920.26,260.47 770.27,300.67 c -149.99,40.2 -239,194.43 -198.78,344.49 40.22,150.06 194.4,239.13 344.38,198.94 149.98,-40.19 239,-194.43 198.78,-344.49 z"
         id="path88" />
      <path
         class="cls-58"
         d="m 1113.08,500 c 40,149.2 -48.5,302.54 -197.63,342.5 C 766.32,882.46 613,793.94 573.06,644.74 533.12,495.54 621.57,342.2 770.69,302.24 919.81,262.28 1073.11,350.83 1113.08,500 Z m 4.71,-1.27 C 1077.12,347 921.15,256.87 769.43,297.53 617.71,338.19 527.68,494.21 568.36,646 609.04,797.79 765,887.9 916.72,847.24 1068.44,806.58 1158.46,650.56 1117.79,498.76 Z"
         id="path89" />
      <path
         class="cls-59"
         d="M 1116.22,499.19 C 1156.66,650.12 1067.15,805.24 916.29,845.67 765.43,886.1 610.36,796.51 569.92,645.58 529.48,494.65 619,339.52 769.85,299.1 c 150.85,-40.42 305.93,49.16 346.37,200.09 z m 4.71,-1.27 C 1079.8,344.39 922.05,253.26 768.59,294.39 615.13,335.52 524.08,493.31 565.21,646.85 606.34,800.39 764.1,891.5 917.56,850.38 1071.02,809.26 1162.07,651.46 1120.93,497.92 Z"
         id="path90" />
      <path
         class="cls-60"
         d="M 1119.36,498.34 C 1160.27,651.01 1069.73,807.92 917.14,848.81 764.55,889.7 607.69,799.09 566.79,646.42 525.89,493.75 616.42,336.85 769,296 c 152.58,-40.85 309.44,49.72 350.35,202.38 z m 4.71,-1.26 C 1082.46,341.82 922.94,249.66 767.74,291.25 612.54,332.84 520.47,492.42 562.07,647.69 c 41.6,155.27 201.14,247.42 356.33,205.83 155.19,-41.59 247.27,-201.17 205.67,-356.44 z"
         id="path91" />
      <path
         class="cls-61"
         d="M 1122.5,497.5 C 1163.87,651.9 1072.3,810.6 918,852 763.7,893.4 605,801.67 563.64,647.27 c -41.36,-154.4 50.2,-313.1 204.53,-354.45 154.33,-41.35 313,50.29 354.33,204.68 z m 4.71,-1.26 c -42.07,-157 -203.39,-250.19 -360.31,-208.13 -156.92,42.06 -250,203.41 -208,360.42 42,157.01 203.37,250.18 360.3,208.13 156.93,-42.05 250,-203.42 208,-360.42 z"
         id="path92" />
      <path
         class="cls-62"
         d="m 1125.64,496.66 c 41.84,156.14 -50.76,316.61 -206.82,358.43 -156.06,41.82 -316.48,-50.85 -358.32,-207 -41.84,-156.15 50.77,-316.62 206.82,-358.43 156.05,-41.81 316.49,50.84 358.32,207 z m 4.71,-1.26 C 1087.82,336.66 924.72,242.45 766.06,285 607.4,327.55 513.26,490.66 555.79,649.4 c 42.53,158.74 205.63,253 364.29,210.44 158.66,-42.56 252.8,-205.68 210.27,-364.41 z"
         id="path93" />
      <path
         class="cls-63"
         d="m 1128.78,495.82 c 42.29,157.87 -51.33,320.13 -209.12,362.41 -157.79,42.28 -320,-51.41 -362.29,-209.29 -42.29,-157.88 51.32,-320.12 209.11,-362.4 157.79,-42.28 320,51.41 362.3,209.28 z m 4.7,-1.26 C 1090.48,334.08 925.61,238.84 765.22,281.82 604.83,324.8 509.66,489.74 552.65,650.21 595.64,810.68 760.53,905.92 920.92,862.94 1081.31,819.96 1176.48,655 1133.48,494.56 Z"
         id="path94" />
      <path
         class="cls-64"
         d="M 1131.92,495 C 1174.68,654.59 1080,818.63 920.5,861.37 761,904.11 597,809.39 554.22,649.79 c -42.78,-159.6 51.9,-323.64 211.42,-366.4 159.52,-42.76 323.51,52 366.28,211.59 z m 4.71,-1.26 C 1093.16,331.53 926.5,235.26 764.37,278.74 602.24,322.22 506.05,488.85 549.52,651.05 c 43.47,162.2 210.12,258.48 372.24,215 162.12,-43.48 258.33,-210.17 214.87,-372.37 z"
         id="path95" />
      <path
         class="cls-65"
         d="M 1135.06,494.14 C 1178.28,655.48 1082.6,821.3 921.34,864.51 760.08,907.72 594.32,812 551.09,650.63 507.86,489.26 603.54,323.47 764.8,280.26 c 161.26,-43.21 327,52.54 370.26,213.88 z m 4.71,-1.27 C 1095.84,328.94 927.4,231.63 763.54,275.54 599.68,319.45 502.45,488 546.38,651.89 c 43.93,163.89 212.37,261.25 376.23,217.34 163.86,-43.91 261.08,-212.41 217.16,-376.36 z"
         id="path96" />
      <path
         class="cls-66"
         d="m 1138.2,493.29 c 43.69,163.08 -53,330.69 -216,374.37 C 759.2,911.34 591.64,814.55 548,651.47 504.36,488.39 601,320.8 764,277.11 c 163,-43.69 330.54,53.11 374.24,216.18 z m 4.7,-1.25 C 1098.52,326.36 928.29,228 762.7,272.4 597.11,316.8 498.85,487.06 543.24,652.74 587.63,818.42 757.86,916.74 923.45,872.37 1089.04,828 1187.3,657.71 1142.9,492 Z"
         id="path97" />
      <path
         class="cls-67"
         d="M 1141.33,492.45 C 1185.5,657.26 1087.75,826.66 923.03,870.79 758.31,914.92 589,817.12 544.8,652.32 500.6,487.52 598.39,318.12 763.12,274 c 164.73,-44.12 334.05,53.68 378.21,218.48 z m 4.72,-1.26 C 1101.19,323.78 929.18,224.42 761.85,269.26 594.52,314.1 495.24,486.16 540.1,653.57 584.96,820.98 757,920.35 924.29,875.51 1091.58,830.67 1190.9,658.61 1146.05,491.19 Z"
         id="path98" />
      <path
         class="cls-68"
         d="M 1144.48,491.62 C 1189.1,658.16 1090.33,829.33 923.87,873.94 757.41,918.55 586.29,819.7 541.67,653.16 497.05,486.62 595.82,315.44 762.27,270.83 c 166.45,-44.61 337.58,54.24 382.21,220.79 z m 4.7,-1.27 C 1103.86,321.21 930.08,220.82 761,266.12 591.92,311.42 491.64,485.27 537,654.42 582.36,823.57 756.07,924 925.14,878.65 c 169.07,-45.35 269.37,-219.16 224,-388.3 z"
         id="path99" />
      <path
         class="cls-69"
         d="m 1147.62,490.77 c 45.09,168.28 -54.71,341.24 -222.91,386.31 -168.2,45.07 -341.09,-54.8 -386.18,-223.08 -45.09,-168.28 54.7,-341.22 222.9,-386.3 168.2,-45.08 341.1,54.81 386.19,223.08 z m 4.7,-1.26 C 1106.54,318.63 931,217.21 760.17,263 589.34,308.79 488,484.37 533.82,655.26 579.64,826.15 755.18,927.56 926,881.79 c 170.82,-45.77 272.14,-221.4 226.35,-392.28 z"
         id="path100" />
      <path
         class="cls-70"
         d="m 1150.75,489.93 c 45.56,170 -55.27,344.76 -225.2,390.29 C 755.62,925.75 580.94,824.85 535.38,654.84 489.82,484.83 590.66,310.09 760.59,264.55 c 169.93,-45.54 344.61,55.36 390.16,225.38 z m 4.72,-1.26 C 1109.21,316.05 931.85,213.6 759.32,259.83 586.79,306.06 484.43,483.49 530.68,656.1 c 46.25,172.61 223.6,275.07 396.13,228.83 172.53,-46.24 274.91,-223.65 228.66,-396.26 z"
         id="path101" />
      <path
         class="cls-71"
         d="m 1153.9,489.09 c 46,171.75 -55.84,348.27 -227.51,394.28 -171.67,46.01 -348.12,-55.94 -394.14,-227.69 -46.02,-171.75 55.83,-348.27 227.5,-394.27 171.67,-46 348.13,55.93 394.15,227.68 z m 4.7,-1.27 C 1111.89,313.48 932.75,210 758.48,256.7 584.21,303.4 480.82,482.59 527.54,656.94 574.26,831.29 753.39,934.78 927.66,888.07 1101.93,841.36 1205.32,662.18 1158.6,487.82 Z"
         id="path102" />
      <path
         class="cls-72"
         d="M 1157,488.25 C 1203.51,661.73 1100.63,840 927.23,886.5 753.83,933 575.59,830 529.11,656.5 482.63,483 585.51,304.72 758.9,258.25 c 173.39,-46.47 351.65,56.49 398.14,230 z m 4.7,-1.26 C 1114.52,310.9 933.6,206.39 757.61,253.55 581.62,300.71 477.22,481.7 524.4,657.79 571.58,833.88 752.5,938.38 928.5,891.22 1104.5,844.06 1208.92,663.07 1161.74,487 Z"
         id="path103" />
      <path
         class="cls-73"
         d="m 1160.17,487.41 c 46.95,175.22 -57,355.31 -232.09,402.24 C 752.99,936.58 572.92,832.58 526,657.36 479.08,482.14 583,302.06 758.1,255.13 c 175.1,-46.93 355.16,57.06 402.1,232.28 z m 4.72,-1.26 C 1117.24,308.33 934.53,202.78 756.8,250.41 579.07,298.04 473.61,480.8 521.26,658.62 568.91,836.44 751.61,942 929.34,894.35 1107.07,846.7 1212.53,664 1164.89,486.15 Z"
         id="path104" />
      <path
         class="cls-74"
         d="m 1163.32,486.57 c 47.4,176.94 -57.54,358.82 -234.4,406.21 C 752.06,940.17 570.24,835.15 522.83,658.2 475.42,481.25 580.36,299.38 757.23,252 934.1,204.62 1115.9,309.63 1163.32,486.59 Z m 4.7,-1.27 C 1119.91,305.75 935.43,199.18 755.96,247.3 576.49,295.42 470,479.91 518.12,659.46 c 48.12,179.55 232.6,286.13 412.06,238 179.46,-48.13 286,-232.64 237.84,-412.2 z"
         id="path105" />
      <path
         class="cls-75"
         d="m 1166.45,485.73 c 47.88,178.68 -58.09,362.33 -236.69,410.2 C 751.16,943.8 567.57,837.73 519.69,659 471.81,480.27 577.78,296.67 756.38,248.8 c 178.6,-47.87 362.2,58.2 410.07,236.89 z m 4.71,-1.27 C 1122.59,303.17 936.32,195.57 755.16,244.13 574,292.69 466.41,479 515,660.31 563.59,841.62 749.82,949.2 931,900.64 1112.18,852.08 1219.71,665.75 1171.13,484.46 Z"
         id="path106" />
      <path
         class="cls-76"
         d="m 1169.59,484.88 c 48.34,180.42 -58.65,365.86 -239,414.19 C 750.24,947.4 564.89,840.3 516.55,659.89 468.21,479.48 575.21,294 755.54,245.7 c 180.33,-48.3 365.71,58.76 414.05,239.18 z m 4.71,-1.26 c -49,-183 -237.09,-291.65 -420,-242.63 -182.91,49.02 -291.5,237.13 -242.46,420.16 49.04,183.03 237.09,291.65 420,242.63 182.91,-49.02 291.48,-237.14 242.44,-420.16 z"
         id="path107" />
      <path
         class="cls-77"
         d="m 1172.74,484 c 48.8,182.16 -59.23,369.37 -241.3,418.17 -182.07,48.8 -369.23,-59.32 -418,-241.48 -48.77,-182.16 59.19,-369.34 241.26,-418.13 182.07,-48.79 369.22,59.33 418,241.48 z m 4.7,-1.26 C 1127.94,297.98 938.11,188.32 753.44,237.81 568.77,287.3 459.2,477.23 508.7,662 558.2,846.77 748,956.41 932.71,906.92 1117.42,857.43 1227,667.54 1177.44,482.78 Z"
         id="path108" />
      <path
         class="cls-78"
         d="m 1175.87,483.2 c 49.27,183.89 -59.78,372.89 -243.59,422.15 -183.81,49.26 -372.73,-59.89 -422,-243.78 -49.27,-183.89 59.79,-372.89 243.58,-422.15 183.79,-49.26 372.75,59.88 422,243.78 z m 4.71,-1.26 c -50,-186.5 -241.59,-297.18 -428,-247.23 -186.41,49.95 -297,241.63 -247,428.12 50,186.49 241.56,297.17 427.97,247.23 186.41,-49.94 297,-241.63 247,-428.12 z"
         id="path109" />
      <path
         class="cls-79"
         d="M 1179,482.36 C 1228.74,667.99 1118.65,858.77 933.12,908.49 747.59,958.21 556.87,848 507.13,662.41 457.39,476.82 567.48,286 753,236.27 c 185.52,-49.73 376.27,60.46 426,246.09 z m 4.71,-1.26 C 1133.28,292.87 939.88,181.1 751.71,231.57 563.54,282.04 452,475.44 502.42,663.67 c 50.42,188.23 243.83,300 432,249.54 188.17,-50.46 299.77,-243.88 249.33,-432.11 z"
         id="path110" />
      <path
         class="cls-80"
         d="m 1182.15,481.52 c 50.21,187.36 -60.91,379.93 -248.18,430.11 -187.27,50.18 -379.78,-61 -430,-248.38 -50.22,-187.38 60.92,-379.93 248.19,-430.11 187.27,-50.18 379.77,61 430,248.38 z m 4.71,-1.27 C 1135.97,290.25 940.78,177.55 750.91,228.43 561.04,279.31 448.38,474.55 499.29,664.51 550.2,854.47 745.36,967.22 935.23,916.34 1125.1,865.46 1237.76,670.22 1186.86,480.25 Z"
         id="path111" />
      <path
         class="cls-81"
         d="m 1185.29,480.68 c 50.67,189.09 -61.47,383.44 -250.48,434.09 -189.01,50.65 -383.3,-61.58 -434,-250.68 -50.7,-189.1 61.52,-383.44 250.52,-434.09 189,-50.65 383.29,61.59 434,250.69 z m 4.71,-1.27 C 1138.63,287.72 941.67,173.94 750.07,225.28 558.47,276.62 444.78,473.65 496.14,665.36 547.5,857.07 744.47,970.84 936.08,919.49 1127.69,868.14 1241.36,671.11 1190,479.41 Z"
         id="path112" />
      <path
         class="cls-82"
         d="m 1188.43,479.83 c 51.13,190.83 -62,387 -252.78,438.08 -190.78,51.08 -386.8,-62.15 -437.94,-253 -51.14,-190.85 62.05,-387 252.78,-438.07 190.73,-51.07 386.81,62.14 437.94,253 z m 4.71,-1.26 C 1141.31,285.14 942.57,170.34 749.23,222.14 555.89,273.94 441.17,472.76 493,666.2 544.83,859.64 743.58,974.44 936.91,922.62 1130.24,870.8 1245,672 1193.14,478.57 Z"
         id="path113" />
      <path
         class="cls-83"
         d="M 1191.57,479 C 1243.16,671.57 1128.97,869.48 936.5,921.07 744.03,972.66 546.17,858.34 494.57,665.78 442.97,473.22 557.18,275.29 749.65,223.71 942.12,172.13 1140,286.43 1191.57,479 Z m 4.71,-1.26 C 1144,282.57 943.46,166.72 748.38,219 553.3,271.28 437.57,471.87 489.87,667 c 52.3,195.13 252.82,311 447.88,258.73 195.06,-52.27 310.82,-252.87 258.53,-448 z"
         id="path114" />
      <path
         class="cls-84"
         d="m 1194.71,478.16 c 52.06,194.29 -63.17,394 -257.38,446 -194.21,52 -393.84,-63.24 -445.89,-257.54 -52.05,-194.3 63.17,-394 257.37,-446 194.2,-52 393.84,63.28 445.9,257.59 z m 4.71,-1.27 C 1146.66,279.98 944.35,163.12 747.54,215.89 550.73,268.66 434,471 486.72,667.88 c 52.72,196.88 255.07,313.77 451.88,261 196.81,-52.77 313.58,-255.12 260.82,-452 z"
         id="path115" />
      <path
         class="cls-85"
         d="m 1197.85,477.31 c 52.52,196 -63.73,397.52 -259.67,450 C 742.24,979.79 540.82,863.5 488.29,667.46 435.76,471.42 552,269.94 748,217.43 c 196,-52.51 397.36,63.85 449.89,259.88 z m 4.71,-1.26 C 1149.33,277.41 945.25,159.51 746.71,212.72 c -198.54,53.21 -316.35,257.37 -263.13,456 53.22,198.63 257.32,316.54 455.86,263.33 198.54,-53.21 316.34,-257.36 263.12,-456 z"
         id="path116" />
      <path
         class="cls-86"
         d="m 1201,476.47 c 53,197.77 -64.3,401 -262,454 -197.7,53 -400.85,-64.4 -453.85,-262.17 -53,-197.77 64.3,-401 262,-454 197.7,-53 400.85,64.4 453.85,262.17 z m 4.71,-1.26 C 1152,274.83 946.14,155.91 745.86,209.58 c -200.28,53.67 -319.1,259.61 -265.41,460 53.69,200.39 259.55,319.28 459.83,265.61 200.28,-53.67 319.11,-259.61 265.42,-460 z"
         id="path117" />
      <path
         class="cls-87"
         d="m 1204.13,475.63 c 53.46,199.5 -64.86,404.55 -264.27,458 C 740.45,987.08 535.47,868.65 482,669.14 c -53.47,-199.51 64.85,-404.55 264.27,-458 199.42,-53.45 404.39,65 457.84,264.48 z m 4.71,-1.27 C 1154.69,272.26 947,152.3 745,206.43 543,260.56 423.15,468.3 477.3,670.4 c 54.15,202.1 261.81,322.07 463.83,267.93 202.02,-54.14 321.86,-261.85 267.71,-464 z"
         id="path118" />
      <path
         class="cls-88"
         d="m 1207.27,474.78 c 53.92,201.24 -65.43,408.08 -266.57,462 C 739.56,990.7 532.79,871.22 478.87,670 424.95,468.78 544.3,261.91 745.44,208 c 201.14,-53.91 407.91,65.54 461.83,266.77 z m 4.71,-1.25 C 1157.36,269.68 947.92,148.7 744.18,203.3 c -203.74,54.6 -324.63,264.1 -270,468 54.63,203.9 264.04,324.77 467.82,270.17 203.78,-54.6 324.63,-264.1 270,-467.94 z"
         id="path119" />
      <path
         class="cls-89"
         d="m 1210.41,473.94 c 54.39,203 -66,411.59 -268.86,466 -202.86,54.41 -411.43,-66.14 -465.82,-269.11 -54.39,-202.97 66,-411.6 268.87,-466 202.87,-54.4 411.4,66.17 465.81,269.11 z m 4.71,-1.25 C 1160,267.11 948.81,145.09 743.33,200.15 537.85,255.21 415.94,466.51 471,672.08 c 55.06,205.57 266.3,327.6 471.77,272.54 205.47,-55.06 327.4,-266.36 272.32,-471.93 z"
         id="path120" />
      <path
         class="cls-90"
         d="m 1213.55,473.11 c 54.85,204.7 -66.56,415.1 -271.16,469.94 -204.6,54.84 -414.95,-66.68 -469.79,-271.38 -54.84,-204.7 66.55,-415.11 271.16,-469.95 204.61,-54.84 414.94,66.67 469.79,271.39 z m 4.7,-1.27 C 1162.71,264.53 949.7,141.48 742.49,197 535.28,252.52 412.34,465.61 467.88,672.93 c 55.54,207.32 268.56,330.35 475.77,274.82 207.21,-55.53 330.15,-268.6 274.6,-475.91 z"
         id="path121" />
      <path
         class="cls-91"
         d="M 1216.69,472.26 C 1272.01,678.71 1149.57,890.89 943.22,946.18 736.87,1001.47 524.77,879 469.45,672.5 414.13,466 536.57,253.88 742.91,198.58 c 206.34,-55.3 418.46,67.24 473.78,273.68 z M 1221.4,471 C 1165.4,262 950.6,137.88 741.65,193.87 532.7,249.86 408.73,464.72 464.75,673.77 520.77,882.82 735.55,1006.89 944.49,950.9 1153.43,894.91 1277.41,680.05 1221.4,471 Z"
         id="path122" />
      <path
         class="cls-92"
         d="M 1219.83,471.42 C 1275.6,679.6 1152.14,893.56 944.07,949.33 736,1005.1 522.07,881.53 466.31,673.33 410.55,465.13 534,251.2 742.07,195.44 c 208.07,-55.76 422,67.81 477.76,276 z m 4.71,-1.26 c -56.48,-210.79 -273,-335.89 -483.73,-279.43 -210.73,56.46 -335.68,273.1 -279.2,483.88 56.48,210.78 273,335.88 483.72,279.43 210.72,-56.45 335.67,-273.1 279.21,-483.88 z"
         id="path123" />
      <path
         class="cls-93"
         d="M 1223,470.58 C 1279.24,680.49 1154.75,896.24 944.94,952.47 735.13,1008.7 519.42,884.11 463.18,674.19 406.94,464.27 531.42,248.53 741.23,192.3 951.04,136.07 1166.72,260.66 1223,470.58 Z m 4.7,-1.27 C 1170.74,256.8 952.38,130.67 740,187.59 527.62,244.51 401.52,462.94 458.47,675.45 c 56.95,212.51 275.29,338.65 487.7,281.73 212.41,-56.92 338.45,-275.34 281.5,-487.87 z"
         id="path124" />
      <path
         class="cls-94"
         d="M 1226.1,469.73 C 1282.81,681.39 1157.3,898.92 945.75,955.61 734.2,1012.3 516.74,886.68 460,675 403.26,463.32 528.82,245.82 740.36,189.13 c 211.54,-56.69 429,68.93 485.71,280.57 z m 4.72,-1.25 C 1173.41,254.22 953.28,127.06 739.13,184.48 524.98,241.9 397.92,462 455.33,676.3 c 57.41,214.3 277.54,341.41 491.69,284 214.15,-57.41 341.2,-277.59 283.8,-491.84 z"
         id="path125" />
      <path
         class="cls-95"
         d="M 1229.25,468.9 C 1286.42,682.28 1159.88,901.59 946.6,958.75 733.32,1015.91 514.07,889.26 456.9,675.87 399.73,462.48 526.27,243.17 739.55,186 c 213.28,-57.17 432.52,69.49 489.7,282.88 z m 4.71,-1.26 c -57.88,-216 -279.79,-344.18 -495.67,-286.33 -215.88,57.85 -344,279.84 -286.1,495.82 57.9,215.98 279.81,344.19 495.67,286.33 215.86,-57.86 344,-279.84 286.1,-495.82 z"
         id="path126" />
      <path
         class="cls-96"
         d="m 1232.39,468.06 c 57.63,215.11 -69.94,436.21 -285,493.83 -215.06,57.62 -436,-70.06 -493.68,-285.18 -57.68,-215.12 69.94,-436.21 285,-493.84 215.06,-57.63 436,70.06 493.68,285.19 z m 4.7,-1.27 C 1178.76,249.07 955.09,119.85 737.44,178.17 519.79,236.49 390.71,460.25 449.05,678 c 58.34,217.75 282,347 499.64,288.64 217.64,-58.36 346.74,-282.1 288.4,-499.82 z"
         id="path127" />
      <path
         class="cls-97"
         d="M 1235.52,467.21 C 1293.63,684.07 1165,907 948.28,965 731.56,1023 508.72,894.41 450.61,677.55 392.5,460.69 521.12,237.82 737.86,179.74 c 216.74,-58.08 439.56,70.62 497.66,287.47 z m 4.72,-1.26 C 1181.44,246.5 956,116.24 736.6,175 517.2,233.76 387.11,459.36 445.91,678.82 504.71,898.28 730.19,1028.53 949.54,969.74 1168.89,910.95 1299,685.41 1240.24,466 Z"
         id="path128" />
      <path
         class="cls-98"
         d="M 1238.67,466.37 C 1297.23,684.96 1167.6,909.62 949.12,968.17 730.64,1026.72 506,897 447.48,678.4 388.96,459.8 518.54,235.14 737,176.59 c 218.46,-58.55 443.07,71.2 501.65,289.78 z m 4.7,-1.26 C 1184.11,243.92 956.84,112.63 735.76,171.88 c -221.08,59.25 -352.26,286.59 -293,507.78 59.26,221.19 286.54,352.47 507.62,293.23 221.08,-59.24 352.26,-286.59 293,-507.78 z"
         id="path129" />
      <path
         class="cls-3"
         d="m 1241.81,465.53 c 59,220.33 -71.63,446.77 -291.85,505.78 C 729.74,1030.32 503.37,899.56 444.34,679.24 385.31,458.92 516,232.47 736.18,173.46 c 220.18,-59.01 446.59,71.75 505.63,292.07 z m 3.13,-0.84 C 1185.45,242.69 957.29,110.83 735.34,170.31 513.39,229.79 381.7,458 441.2,680.08 c 59.5,222.08 287.65,353.86 509.6,294.38 221.95,-59.48 353.65,-287.71 294.14,-509.77 z"
         id="path130" />
    </g>
  </g>
  <metadata
     id="metadata130">
    <rdf:RDF>
      <cc:Work
         rdf:about="">
        <dc:title>Vertical - Color</dc:title>
      </cc:Work>
    </rdf:RDF>
  </metadata>
</svg>
