<svg width="700" height="350" xmlns="http://www.w3.org/2000/svg"><g fill="none" fill-rule="evenodd"><path fill="#FFF" d="M0 350h700V0H0z"/><g fill="#000"><path d="M269.808 162.784c.832 0 1.363.37 1.594 1.109l8.94 28.481c.138.324.369.485.692.485h.278c.415 0 .646-.161.692-.485l9.355-26.263c.463-1.248 1.005-2.114 1.629-2.599.624-.485 1.559-.728 2.807-.728h8.246c1.247 0 2.183.243 2.807.728.623.485 1.166 1.351 1.628 2.599l9.286 26.263c.046.324.277.485.693.485h.277c.324 0 .555-.161.693-.485l9.009-28.481c.139-.739.67-1.109 1.594-1.109h7.831c.6 0 .981.15 1.143.451.162.3.173.704.035 1.212l-10.534 32.085c-.554 1.756-1.213 2.911-1.975 3.465-.762.554-1.882.832-3.361.832h-8.731c-1.202 0-2.125-.312-2.772-.936-.647-.624-1.27-1.744-1.871-3.361l-9.147-25.293c-.093-.278-.301-.416-.624-.416h-.416c-.37 0-.577.138-.623.416l-9.078 25.293c-.601 1.617-1.225 2.737-1.872 3.361-.646.624-1.57.936-2.772.936h-8.731c-1.478 0-2.599-.278-3.361-.832-.762-.554-1.421-1.709-1.975-3.465l-10.395-32.085c-.138-.508-.138-.912 0-1.212.139-.301.532-.451 1.179-.451h7.83m93.288 0c1.016 0 1.524.532 1.524 1.594v20.027c0 1.479.093 2.703.277 3.673.185.97.532 1.744 1.04 2.321.508.578 1.224.994 2.148 1.248.924.254 2.148.381 3.673.381h17.809c1.525 0 2.772-.127 3.742-.381.971-.254 1.745-.67 2.322-1.248.577-.577.981-1.351 1.213-2.321.231-.97.346-2.194.346-3.673v-20.027c0-1.062.508-1.594 1.525-1.594h6.791c1.016 0 1.524.532 1.524 1.594v22.453c0 2.494-.277 4.631-.831 6.41-.555 1.778-1.467 3.233-2.737 4.365-1.271 1.132-2.969 1.952-5.094 2.46-2.125.509-4.735.763-7.831.763h-19.334c-3.141 0-5.763-.254-7.865-.763-2.102-.508-3.788-1.328-5.059-2.46-1.27-1.132-2.183-2.587-2.737-4.365-.554-1.779-.831-3.916-.831-6.41v-22.453c0-1.062.531-1.594 1.593-1.594h6.792m71.181-13.929c1.016 0 1.524.509 1.524 1.525v48.924c0 1.016-.508 1.525-1.524 1.525h-6.791c-1.016 0-1.525-.509-1.525-1.525V150.38c0-1.016.509-1.525 1.525-1.525h6.791m25.237 13.929v-9.147c0-1.017.508-1.525 1.525-1.525h6.86c1.017 0 1.525.508 1.525 1.525v9.147h12.127c.831 0 1.247.416 1.247 1.248v5.682c0 .832-.416 1.247-1.247 1.247h-12.127v16.077c0 1.941.392 3.361 1.178 4.262.785.901 2.333 1.352 4.643 1.352h6.721c.832 0 1.248.415 1.248 1.247v5.682c0 .832-.416 1.248-1.248 1.248h-8.384c-2.772 0-5.059-.254-6.861-.763-1.802-.508-3.246-1.316-4.331-2.425-1.086-1.109-1.836-2.541-2.252-4.296-.416-1.756-.624-3.858-.624-6.307v-16.077h-6.583c-.832 0-1.248-.415-1.248-1.247v-5.682c0-.832.416-1.248 1.248-1.248h6.583m75.27 0c.832 0 1.247.416 1.247 1.248v5.821c0 .831-.415 1.247-1.247 1.247h-18.433c-1.479 0-2.703.127-3.673.381-.97.254-1.744.67-2.321 1.248-.578.577-.982 1.362-1.213 2.356-.231.993-.347 2.206-.347 3.638v20.581c0 1.016-.508 1.525-1.524 1.525h-6.791c-1.063 0-1.594-.509-1.594-1.525v-22.452c0-2.495.277-4.632.832-6.41.554-1.779 1.466-3.234 2.737-4.366 1.27-1.132 2.957-1.964 5.059-2.495 2.101-.531 4.723-.797 7.865-.797h19.403m47.829 0c3.094 0 5.705.266 7.83.797s3.823 1.363 5.093 2.495c1.271 1.132 2.183 2.587 2.738 4.366.554 1.778.831 3.915.831 6.41v18.433c0 1.109-.081 2.021-.243 2.737-.161.716-.438 1.282-.831 1.698-.393.416-.912.704-1.559.866-.647.162-1.478.243-2.495.243h-32.985c-2.033 0-3.731-.197-5.094-.589-1.363-.393-2.46-.982-3.291-1.767-.832-.786-1.421-1.802-1.768-3.049-.346-1.248-.52-2.726-.52-4.436v-3.326c0-1.432.174-2.714.52-3.846a6.503 6.503 0 011.768-2.876c.831-.785 1.928-1.374 3.291-1.767 1.363-.392 3.061-.589 5.094-.589h28.203v-1.317c0-1.108-.115-2.055-.346-2.841-.231-.785-.624-1.42-1.178-1.906-.555-.485-1.317-.843-2.287-1.074-.97-.231-2.217-.346-3.742-.346h-28.967c-.831 0-1.246-.416-1.246-1.247v-5.821c0-.832.415-1.248 1.246-1.248h29.938zm4.573 30.422c.739 0 1.259-.173 1.559-.52.3-.346.45-.958.45-1.836v-6.098h-25.362c-1.432 0-2.437.288-3.015.866-.577.577-.866 1.42-.866 2.529v1.455c0 1.248.289 2.16.866 2.738.578.577 1.583.866 3.015.866h23.353zm-370.561-63.948a77.725 77.725 0 013.947 24.499c0 34.499-22.763 64.883-55.79 74.59l-3.709 1.09-3.71-1.09c-33.026-9.707-55.789-40.091-55.789-74.59a77.753 77.753 0 013.946-24.499l2.991-9.011 38.251 13.155h-28.756a64.506 64.506 0 00-3.277 20.355c0 29.334 19.558 54.096 46.344 61.969 26.786-7.873 46.344-32.635 46.344-61.969a64.506 64.506 0 00-3.277-20.355h-30.571l40.065-13.155 2.991 9.011"/><path d="M161.073 229.437l-3.71-1.09c-33.026-9.707-55.789-40.091-55.789-74.59a77.753 77.753 0 013.946-24.499l2.991-9.011 38.251 13.155h-28.756a64.506 64.506 0 00-3.277 20.355c0 29.334 19.558 54.096 46.344 61.969v13.711"/><path d="M152.91 223.074h16.326v-56.236l-8.063-16.326-8.263 16.326v56.236"/><path d="M151.91 224.07h9.16v-73.36l-9.16 16.35v57.01"/></g></g></svg>