<?xml version="1.0" encoding="UTF-8" standalone="no"?>
<svg
   width="497.53101"
   height="109.19"
   version="1.1"
   id="svg23"
   sodipodi:docname="wultra.svg"
   inkscape:version="1.2.1 (9c6d41e, 2022-07-14)"
   xmlns:inkscape="http://www.inkscape.org/namespaces/inkscape"
   xmlns:sodipodi="http://sodipodi.sourceforge.net/DTD/sodipodi-0.dtd"
   xmlns="http://www.w3.org/2000/svg"
   xmlns:svg="http://www.w3.org/2000/svg">
  <defs
     id="defs27" />
  <sodipodi:namedview
     id="namedview25"
     pagecolor="#ffffff"
     bordercolor="#666666"
     borderopacity="1.0"
     inkscape:showpageshadow="2"
     inkscape:pageopacity="0.0"
     inkscape:pagecheckerboard="0"
     inkscape:deskcolor="#d1d1d1"
     showgrid="false"
     inkscape:zoom="0.67428571"
     inkscape:cx="249.89407"
     inkscape:cy="57.097458"
     inkscape:window-width="703"
     inkscape:window-height="480"
     inkscape:window-x="63"
     inkscape:window-y="25"
     inkscape:window-maximized="0"
     inkscape:current-layer="svg23" />
  <g
     fill="#000000"
     id="g19"
     style="fill-rule:evenodd"
     transform="translate(-101.57399,-120.247)">
    <path
       d="m 269.808,162.784 c 0.832,0 1.363,0.37 1.594,1.109 l 8.94,28.481 c 0.138,0.324 0.369,0.485 0.692,0.485 h 0.278 c 0.415,0 0.646,-0.161 0.692,-0.485 l 9.355,-26.263 c 0.463,-1.248 1.005,-2.114 1.629,-2.599 0.624,-0.485 1.559,-0.728 2.807,-0.728 h 8.246 c 1.247,0 2.183,0.243 2.807,0.728 0.623,0.485 1.166,1.351 1.628,2.599 l 9.286,26.263 c 0.046,0.324 0.277,0.485 0.693,0.485 h 0.277 c 0.324,0 0.555,-0.161 0.693,-0.485 l 9.009,-28.481 c 0.139,-0.739 0.67,-1.109 1.594,-1.109 h 7.831 c 0.6,0 0.981,0.15 1.143,0.451 0.162,0.3 0.173,0.704 0.035,1.212 l -10.534,32.085 c -0.554,1.756 -1.213,2.911 -1.975,3.465 -0.762,0.554 -1.882,0.832 -3.361,0.832 h -8.731 c -1.202,0 -2.125,-0.312 -2.772,-0.936 -0.647,-0.624 -1.27,-1.744 -1.871,-3.361 l -9.147,-25.293 c -0.093,-0.278 -0.301,-0.416 -0.624,-0.416 h -0.416 c -0.37,0 -0.577,0.138 -0.623,0.416 l -9.078,25.293 c -0.601,1.617 -1.225,2.737 -1.872,3.361 -0.646,0.624 -1.57,0.936 -2.772,0.936 h -8.731 c -1.478,0 -2.599,-0.278 -3.361,-0.832 -0.762,-0.554 -1.421,-1.709 -1.975,-3.465 l -10.395,-32.085 c -0.138,-0.508 -0.138,-0.912 0,-1.212 0.139,-0.301 0.532,-0.451 1.179,-0.451 h 7.83 m 93.288,0 c 1.016,0 1.524,0.532 1.524,1.594 v 20.027 c 0,1.479 0.093,2.703 0.277,3.673 0.185,0.97 0.532,1.744 1.04,2.321 0.508,0.578 1.224,0.994 2.148,1.248 0.924,0.254 2.148,0.381 3.673,0.381 h 17.809 c 1.525,0 2.772,-0.127 3.742,-0.381 0.971,-0.254 1.745,-0.67 2.322,-1.248 0.577,-0.577 0.981,-1.351 1.213,-2.321 0.231,-0.97 0.346,-2.194 0.346,-3.673 v -20.027 c 0,-1.062 0.508,-1.594 1.525,-1.594 h 6.791 c 1.016,0 1.524,0.532 1.524,1.594 v 22.453 c 0,2.494 -0.277,4.631 -0.831,6.41 -0.555,1.778 -1.467,3.233 -2.737,4.365 -1.271,1.132 -2.969,1.952 -5.094,2.46 -2.125,0.509 -4.735,0.763 -7.831,0.763 h -19.334 c -3.141,0 -5.763,-0.254 -7.865,-0.763 -2.102,-0.508 -3.788,-1.328 -5.059,-2.46 -1.27,-1.132 -2.183,-2.587 -2.737,-4.365 -0.554,-1.779 -0.831,-3.916 -0.831,-6.41 v -22.453 c 0,-1.062 0.531,-1.594 1.593,-1.594 h 6.792 m 71.181,-13.929 c 1.016,0 1.524,0.509 1.524,1.525 v 48.924 c 0,1.016 -0.508,1.525 -1.524,1.525 h -6.791 c -1.016,0 -1.525,-0.509 -1.525,-1.525 V 150.38 c 0,-1.016 0.509,-1.525 1.525,-1.525 h 6.791 m 25.237,13.929 v -9.147 c 0,-1.017 0.508,-1.525 1.525,-1.525 h 6.86 c 1.017,0 1.525,0.508 1.525,1.525 v 9.147 h 12.127 c 0.831,0 1.247,0.416 1.247,1.248 v 5.682 c 0,0.832 -0.416,1.247 -1.247,1.247 h -12.127 v 16.077 c 0,1.941 0.392,3.361 1.178,4.262 0.785,0.901 2.333,1.352 4.643,1.352 h 6.721 c 0.832,0 1.248,0.415 1.248,1.247 v 5.682 c 0,0.832 -0.416,1.248 -1.248,1.248 h -8.384 c -2.772,0 -5.059,-0.254 -6.861,-0.763 -1.802,-0.508 -3.246,-1.316 -4.331,-2.425 -1.086,-1.109 -1.836,-2.541 -2.252,-4.296 -0.416,-1.756 -0.624,-3.858 -0.624,-6.307 v -16.077 h -6.583 c -0.832,0 -1.248,-0.415 -1.248,-1.247 v -5.682 c 0,-0.832 0.416,-1.248 1.248,-1.248 h 6.583 m 75.27,0 c 0.832,0 1.247,0.416 1.247,1.248 v 5.821 c 0,0.831 -0.415,1.247 -1.247,1.247 h -18.433 c -1.479,0 -2.703,0.127 -3.673,0.381 -0.97,0.254 -1.744,0.67 -2.321,1.248 -0.578,0.577 -0.982,1.362 -1.213,2.356 -0.231,0.993 -0.347,2.206 -0.347,3.638 v 20.581 c 0,1.016 -0.508,1.525 -1.524,1.525 h -6.791 c -1.063,0 -1.594,-0.509 -1.594,-1.525 v -22.452 c 0,-2.495 0.277,-4.632 0.832,-6.41 0.554,-1.779 1.466,-3.234 2.737,-4.366 1.27,-1.132 2.957,-1.964 5.059,-2.495 2.101,-0.531 4.723,-0.797 7.865,-0.797 h 19.403 m 47.829,0 c 3.094,0 5.705,0.266 7.83,0.797 2.125,0.531 3.823,1.363 5.093,2.495 1.271,1.132 2.183,2.587 2.738,4.366 0.554,1.778 0.831,3.915 0.831,6.41 v 18.433 c 0,1.109 -0.081,2.021 -0.243,2.737 -0.161,0.716 -0.438,1.282 -0.831,1.698 -0.393,0.416 -0.912,0.704 -1.559,0.866 -0.647,0.162 -1.478,0.243 -2.495,0.243 h -32.985 c -2.033,0 -3.731,-0.197 -5.094,-0.589 -1.363,-0.393 -2.46,-0.982 -3.291,-1.767 -0.832,-0.786 -1.421,-1.802 -1.768,-3.049 -0.346,-1.248 -0.52,-2.726 -0.52,-4.436 v -3.326 c 0,-1.432 0.174,-2.714 0.52,-3.846 a 6.503,6.503 0 0 1 1.768,-2.876 c 0.831,-0.785 1.928,-1.374 3.291,-1.767 1.363,-0.392 3.061,-0.589 5.094,-0.589 h 28.203 v -1.317 c 0,-1.108 -0.115,-2.055 -0.346,-2.841 -0.231,-0.785 -0.624,-1.42 -1.178,-1.906 -0.555,-0.485 -1.317,-0.843 -2.287,-1.074 -0.97,-0.231 -2.217,-0.346 -3.742,-0.346 h -28.967 c -0.831,0 -1.246,-0.416 -1.246,-1.247 v -5.821 c 0,-0.832 0.415,-1.248 1.246,-1.248 z m 4.573,30.422 c 0.739,0 1.259,-0.173 1.559,-0.52 0.3,-0.346 0.45,-0.958 0.45,-1.836 v -6.098 h -25.362 c -1.432,0 -2.437,0.288 -3.015,0.866 -0.577,0.577 -0.866,1.42 -0.866,2.529 v 1.455 c 0,1.248 0.289,2.16 0.866,2.738 0.578,0.577 1.583,0.866 3.015,0.866 z M 216.625,129.258 a 77.725,77.725 0 0 1 3.947,24.499 c 0,34.499 -22.763,64.883 -55.79,74.59 l -3.709,1.09 -3.71,-1.09 c -33.026,-9.707 -55.789,-40.091 -55.789,-74.59 a 77.753,77.753 0 0 1 3.946,-24.499 l 2.991,-9.011 38.251,13.155 h -28.756 a 64.506,64.506 0 0 0 -3.277,20.355 c 0,29.334 19.558,54.096 46.344,61.969 26.786,-7.873 46.344,-32.635 46.344,-61.969 a 64.506,64.506 0 0 0 -3.277,-20.355 h -30.571 l 40.065,-13.155 2.991,9.011"
       id="path11" />
    <path
       d="m 161.073,229.437 -3.71,-1.09 c -33.026,-9.707 -55.789,-40.091 -55.789,-74.59 a 77.753,77.753 0 0 1 3.946,-24.499 l 2.991,-9.011 38.251,13.155 h -28.756 a 64.506,64.506 0 0 0 -3.277,20.355 c 0,29.334 19.558,54.096 46.344,61.969 v 13.711"
       id="path13" />
    <path
       d="m 152.91,223.074 h 16.326 v -56.236 l -8.063,-16.326 -8.263,16.326 v 56.236"
       id="path15" />
    <path
       d="m 151.91,224.07 h 9.16 v -73.36 l -9.16,16.35 v 57.01"
       id="path17" />
  </g>
</svg>
