<?xml version="1.0" encoding="UTF-8" standalone="no"?>
<svg
   xmlns:dc="http://purl.org/dc/elements/1.1/"
   xmlns:cc="http://creativecommons.org/ns#"
   xmlns:rdf="http://www.w3.org/1999/02/22-rdf-syntax-ns#"
   xmlns:svg="http://www.w3.org/2000/svg"
   xmlns="http://www.w3.org/2000/svg"
   xmlns:sodipodi="http://sodipodi.sourceforge.net/DTD/sodipodi-0.dtd"
   xmlns:inkscape="http://www.inkscape.org/namespaces/inkscape"
   version="1.2"
   viewBox="0 0 899.44 296.25858"
   width="899.44"
   height="296.25858"
   id="svg842"
   sodipodi:docname="yablko-yt(1).svg"
   inkscape:version="1.0.2 (e86c8708, 2021-01-15)">
  <metadata
     id="metadata848">
    <rdf:RDF>
      <cc:Work
         rdf:about="">
        <dc:format>image/svg+xml</dc:format>
        <dc:type
           rdf:resource="http://purl.org/dc/dcmitype/StillImage" />
        <dc:title>yablko-yt</dc:title>
      </cc:Work>
    </rdf:RDF>
  </metadata>
  <defs
     id="defs846" />
  <sodipodi:namedview
     pagecolor="#ffffff"
     bordercolor="#666666"
     borderopacity="1"
     objecttolerance="10"
     gridtolerance="10"
     guidetolerance="10"
     inkscape:pageopacity="0"
     inkscape:pageshadow="2"
     inkscape:window-width="1382"
     inkscape:window-height="847"
     id="namedview844"
     showgrid="false"
     fit-margin-top="0"
     fit-margin-left="0"
     fit-margin-right="0"
     fit-margin-bottom="0"
     inkscape:zoom="0.278125"
     inkscape:cx="443.86"
     inkscape:cy="140.46"
     inkscape:window-x="58"
     inkscape:window-y="25"
     inkscape:window-maximized="1"
     inkscape:current-layer="svg842" />
  <title
     id="title833">yablko-yt</title>
  <style
     id="style835">
		tspan { white-space:pre }
	</style>
  <g
     id="Folder 1"
     transform="translate(-836.14,-579.54)">
    <path
       id="yablko "
       fill="#2f2f2f"
       aria-label="yablko"
       d="m 943.74,811.62 1.51,-3.01 -38.66,-138.44 66.7,-2.28 11.26,77.17 1.07,-0.04 30.44,-78.59 64.55,-2.21 -76.9,152.89 q -11.35,22.47 -21.19,34.12 -9.83,11.64 -22.82,17.74 -12.99,6.1 -31.81,6.75 -17.49,0.59 -31.08,-3.25 l 8.59,-47.96 q 7.37,2.98 14.37,2.74 16.67,-0.57 23.97,-15.63 z m 190.45,-61.17 0.65,-4.6 -3.5,0.12 q -10.49,0.36 -18.49,2.51 -7.74,2.15 -10.84,6.03 -3.1,3.88 -2.97,7.64 0.33,9.68 12.71,9.26 8.6,-0.29 14.86,-6.16 6.27,-5.87 7.58,-14.8 z m 55.79,-22.11 -7.37,52.23 q -1.5,11.09 -1.14,21.85 l -51.64,1.76 0.1,-12.92 -0.54,0.01 q -14.22,17.19 -39.24,18.04 -11.3,0.39 -21.39,-3.58 -9.84,-4.24 -15.78,-12.38 -5.93,-8.15 -6.34,-19.98 -0.91,-26.63 20.66,-41.64 21.57,-15.01 68.1,-16.6 l 0.17,-2.97 q -0.17,-5.11 -5.12,-7.9 -4.67,-2.8 -12.2,-2.55 -8.07,0.28 -16.29,4.06 -8.23,3.51 -14.76,9.39 l -27.39,-29.22 q 8.85,-8.92 21.82,-15.56 12.97,-6.64 24.19,-9.17 11.5,-2.55 19.03,-2.81 31.47,-1.07 48.59,11.54 17.12,12.34 17.93,36.01 0.34,9.95 -1.39,22.39 z m 103.28,-74.62 q 9.95,-0.34 20.02,2.55 10.32,2.61 18.65,9.86 8.58,6.98 14.1,18.64 5.78,11.65 6.32,27.52 0.6,17.49 -4.77,33.83 -5.36,16.34 -15.71,28.81 -10.34,12.47 -24.63,19.96 -14.29,7.22 -30.7,7.78 -13.18,0.45 -24.65,-4.27 -11.47,-4.73 -17.41,-12.87 l -0.53,0.02 -2.18,15.15 -54.33,1.86 28.82,-204.57 60.25,-2.06 -10.37,74.68 0.54,-0.02 q 6.22,-6.94 16.3,-11.6 10.06,-4.92 20.28,-5.27 z m 0.73,68.65 q -0.3,-8.88 -6.41,-14.33 -5.85,-5.72 -15.8,-5.38 -5.65,0.19 -12,3.64 -6.35,3.18 -10.66,11.14 -4.03,7.94 -3.72,17.09 0.3,8.87 6.15,14.6 6.11,5.45 15.8,5.11 5.91,-0.2 12.27,-3.38 6.61,-3.45 10.66,-11.13 4.03,-7.95 3.71,-17.36 z m 132.56,-131.91 -28.82,204.57 -61.6,2.1 28.83,-204.56 z m 69.35,201.21 -26.31,-60.76 -0.81,0.02 -8.38,61.96 -60.25,2.06 28.82,-204.57 60.52,-2.07 -17.02,116.64 0.81,-0.02 37.96,-55.43 73.43,-2.51 -55.8,69.23 37.51,73.04 z m 128.45,-0.08 q -15.87,0.54 -30.26,-3 -14.14,-3.83 -24.9,-11.54 -10.77,-7.71 -17.09,-19.34 -6.33,-11.91 -6.84,-26.7 -0.6,-17.75 4.77,-33.82 5.38,-16.07 16.27,-28.3 11.15,-12.49 27.33,-19.78 16.18,-7.28 36.35,-7.97 16.41,-0.56 30.81,3.25 14.39,3.55 25.16,11.26 11.03,7.7 17.37,19.6 6.32,11.64 6.82,26.43 0.61,17.75 -4.76,33.82 -5.38,16.07 -16.53,28.57 -10.89,12.22 -27.61,19.53 -16.45,7.29 -36.89,7.99 z m 27.38,-81.45 q -0.31,-8.88 -6.15,-14.33 -5.85,-5.73 -15.8,-5.39 -8.61,0.3 -15.15,5.91 -6.55,5.34 -8.99,12.69 -2.17,7.35 -1.97,13.26 0.3,8.88 6.16,14.6 5.84,5.46 15.52,5.13 5.92,-0.2 12.27,-3.38 6.62,-3.46 10.39,-11.13 4.04,-7.95 3.72,-17.36 z" />
    <path
       id="l "
       fill="#2f2f2f"
       aria-label="l"
       d="m 1441.02,589.84 -28.82,204.56 -61.6,2.11 28.83,-204.57 z" />
    <path
       id="path839"
       fill="#ecca35"
       aria-label="yablko"
       d="m 885.13,784.08 1.61,-2.96 -33.91,-139.68 h 66.74 l 8.62,77.51 h 1.07 l 33.11,-77.51 h 64.59 l -82.09,150.17 q -12.11,22.07 -22.34,33.37 -10.22,11.31 -23.41,16.96 -13.19,5.65 -32.03,5.65 -17.49,0 -30.95,-4.3 l 10.23,-47.64 q 7.27,3.23 14.26,3.23 16.69,0 24.5,-14.8 z m 208.57,-54.64 0.81,-4.57 h -3.5 q -10.5,0 -18.57,1.88 -7.8,1.89 -11.03,5.65 -3.23,3.77 -3.23,7.54 0,9.69 12.38,9.69 8.61,0 15.07,-5.65 6.46,-5.66 8.07,-14.54 z m 56.52,-20.18 -9.15,51.94 q -1.88,11.03 -1.88,21.8 h -51.68 l 0.54,-12.92 h -0.54 q -14.8,16.69 -39.83,16.69 -11.3,0 -21.26,-4.31 -9.69,-4.57 -15.34,-12.92 -5.65,-8.34 -5.65,-20.18 0,-26.65 22.07,-40.91 22.06,-14.26 68.62,-14.26 l 0.27,-2.96 q 0,-5.12 -4.84,-8.08 -4.58,-2.96 -12.11,-2.96 -8.08,0 -16.42,3.5 -8.34,3.23 -15.07,8.88 l -26.37,-30.14 q 9.15,-8.61 22.33,-14.8 13.19,-6.19 24.49,-8.35 11.58,-2.15 19.11,-2.15 31.49,0 48.18,13.19 16.68,12.92 16.68,36.6 0,9.96 -2.15,22.34 z m 121.92,-71.05 q 9.95,0 19.91,3.23 10.23,2.96 18.3,10.49 8.35,7.27 13.46,19.11 5.38,11.84 5.38,27.72 0,17.5 -5.92,33.64 -5.92,16.15 -16.69,28.26 -10.76,12.11 -25.29,19.11 -14.54,6.73 -30.95,6.73 -13.19,0 -24.49,-5.11 -11.31,-5.12 -16.96,-13.46 h -0.54 l -2.69,15.07 h -54.36 l 35.79,-203.46 h 60.29 l -12.92,74.28 h 0.54 q 6.45,-6.73 16.68,-11.04 10.23,-4.57 20.46,-4.57 z m -1.62,68.63 q 0,-8.89 -5.92,-14.54 -5.65,-5.92 -15.61,-5.92 -5.65,0 -12.11,3.23 -6.46,2.96 -11.03,10.77 -4.31,7.8 -4.31,16.95 0,8.88 5.65,14.8 5.92,5.66 15.61,5.66 5.92,0 12.38,-2.96 6.73,-3.23 11.04,-10.77 4.3,-7.8 4.3,-17.22 z m 153.14,-127.3 -35.8,203.46 h -61.63 l 35.8,-203.46 z m 78.58,203.46 -24.22,-61.63 h -0.81 L 1466.72,783 h -60.29 l 35.8,-203.46 h 60.55 l -20.99,115.99 h 0.81 l 39.83,-54.09 h 73.47 l -58.13,67.28 34.99,74.28 z m 144.53,4.31 q -15.88,0 -30.15,-4.04 -13.99,-4.31 -24.49,-12.38 -10.49,-8.07 -16.41,-19.92 -5.93,-12.11 -5.93,-26.91 0,-17.76 5.93,-33.64 5.92,-15.88 17.22,-27.72 11.57,-12.11 27.99,-18.84 16.42,-6.73 36.6,-6.73 16.42,0 30.68,4.31 14.27,4.03 24.76,12.11 10.77,8.07 16.69,20.18 5.92,11.84 5.92,26.65 0,17.76 -5.92,33.64 -5.92,15.88 -17.5,27.99 -11.3,11.84 -28.25,18.57 -16.69,6.73 -37.14,6.73 z m 30.14,-80.47 q 0,-8.89 -5.65,-14.54 -5.65,-5.92 -15.61,-5.92 -8.61,0 -15.34,5.38 -6.73,5.12 -9.42,12.38 -2.42,7.27 -2.42,13.19 0,8.88 5.65,14.8 5.65,5.66 15.34,5.66 5.92,0 12.38,-2.96 6.73,-3.23 10.76,-10.77 4.31,-7.8 4.31,-17.22 z" />
  </g>
</svg>
