<?xml version="1.0" encoding="utf-8"?>
<!-- Generator: Adobe Illustrator 23.0.3, SVG Export Plug-In . SVG Version: 6.00 Build 0)  -->
<svg version="1.0" id="Layer_3" xmlns="http://www.w3.org/2000/svg" xmlns:xlink="http://www.w3.org/1999/xlink" x="0px" y="0px"
	 viewBox="0 0 1920 1080" style="enable-background:new 0 0 1920 1080;" xml:space="preserve">
<style type="text/css">
	.st0{fill:#1428C8;}
</style>
<g>
	<path class="st0" d="M489.01,539.08c6.59,0,12,1.06,16.48,2.77c0.66,0.26,0.66,1.06,0.4,1.58l-2.24,5.01
		c-0.26,0.53-0.92,0.66-1.58,0.4c-5.54-1.85-8.57-1.98-12.66-1.98c-11.47,0-19.91,7.52-19.91,23.08c0,16.88,10.29,23.08,19.91,23.08
		c5.27,0,7.78-0.53,13.32-2.37c0.66-0.26,1.32-0.13,1.58,0.4l2.24,5.01c0.26,0.66,0.26,1.32-0.4,1.58
		c-4.75,2.24-10.42,3.3-17.14,3.3c-18.86,0-29.01-12.79-29.01-30.99C460,551.87,469.89,539.08,489.01,539.08z"/>
	<path class="st0" d="M564.6,593.28c6.99,0,11.21-0.92,16.75-3.43c0.66-0.26,1.19,0,1.45,0.53l1.98,4.88
		c0.26,0.53,0.26,1.06-0.4,1.32c-6.33,3.03-11.34,4.35-19.39,4.35c-18.33,0-27.69-10.95-27.69-30.59c0-20.7,11.08-31.25,26.11-31.25
		c15.3,0,24,9.36,24,29.01v3.3c0,0.92-0.4,1.58-1.45,1.58h-39.3C547.06,585.76,553.78,593.28,564.6,593.28z M563.54,546.33
		c-7.38,0-15.69,5.14-16.88,19.52h31.52C578.18,550.55,570.8,546.33,563.54,546.33z"/>
	<path class="st0" d="M618.45,590.37c0.26-0.66,0.92-0.79,1.71-0.53c6.86,2.37,13.45,3.43,18.99,3.43c9.36,0,15.69-3.03,15.69-7.78
		c0-6.07-7.25-8.97-15.16-11.87c-9.89-3.69-20.84-7.52-20.84-18.86c0-12.13,13.19-15.69,25.72-15.69c7.25,0,14.24,1.06,18.2,2.37
		c0.66,0.26,0.92,0.92,0.66,1.58l-1.58,5.14c-0.26,0.79-0.79,0.92-1.45,0.79c-3.69-1.06-10.81-2.37-17.41-2.37
		c-7.78,0-14.9,1.85-14.9,7.91c0,5.41,7.12,8.31,15.03,11.47c9.89,3.96,20.97,8.18,20.97,18.33c0,12.79-12.27,16.62-24.66,16.62
		c-8.97,0-17.93-1.85-22.16-3.82c-0.79-0.4-0.79-0.92-0.66-1.45L618.45,590.37z"/>
	<path class="st0" d="M734.15,540.79c0.79-0.66,1.06-0.79,2.11-0.79h8.7c0.79,0,1.58,1.19,0.66,1.98l-28.88,25.32l31.38,30.73
		c0.79,0.79,0.4,1.98-0.79,1.98h-9.1c-0.92,0-1.45-0.26-2.24-1.06l-29.93-30.2v30.07c0,0.79-0.4,1.19-1.19,1.19h-6.72
		c-0.79,0-1.19-0.4-1.19-1.19v-92.84c0-0.79,0.4-1.19,1.19-1.19h6.72c0.79,0,1.19,0.39,1.19,1.19v60.27L734.15,540.79z"/>
	<path class="st0" d="M799.61,600.92c-19.12,0-25.32-12.92-25.32-30.99c0-18.07,6.2-30.86,25.32-30.86
		c19.12,0,25.19,12.79,25.19,30.86C824.8,588,818.73,600.92,799.61,600.92z M799.61,545.93c-10.28,0-15.82,8.18-15.82,24
		c0,15.96,5.54,24.13,15.82,24.13c10.29,0,15.69-8.04,15.69-24.13C815.3,553.98,809.9,545.93,799.61,545.93z"/>
	<path class="st0" d="M869.88,593.28c0-4.88,2.77-7.78,7.65-7.78c4.88,0,7.65,2.9,7.65,7.78c0,4.88-2.77,7.65-7.65,7.65
		C872.65,600.92,869.88,598.15,869.88,593.28z"/>
	<path class="st0" d="M970.6,505.98c0-0.79,0.4-1.19,1.18-1.19h6.73c0.79,0,1.19,0.39,1.19,1.19v92.84c0,0.79-0.4,1.19-1.19,1.19
		h-4.49c-0.66,0-0.92-0.26-1.06-0.92l-1.06-4.35c-6.33,4.35-12.13,6.2-17.8,6.2c-16.09,0-23.87-11.47-23.87-30.86
		c0-19.12,8.18-30.99,25.32-30.99c5.54,0,10.55,1.98,15.04,5.28V505.98z M956.76,593.01c4.62,0,9.89-1.58,13.85-4.09v-37.85
		c-4.09-2.64-9.23-4.48-13.85-4.48c-10.29,0-17.01,8.04-17.01,23.6C939.74,586.95,946.47,593.01,956.76,593.01z"/>
	<path class="st0" d="M1370.22,559.91c0-7.78-3.96-12.27-11.87-12.27h-19.25c-0.66,0-1.19-0.4-1.19-1.05v-5.41
		c0-0.79,0.53-1.19,1.19-1.19h20.57c12.39,0,19.65,7.25,19.65,19.65v39.16c0,0.79-0.4,1.19-1.19,1.19h-4.49
		c-0.66,0-0.92-0.26-1.06-0.92l-1.06-4.22c-9.62,4.22-15.03,6.07-23.21,6.07c-10.29,0-15.96-6.73-15.96-16.75
		c0-14.51,8.97-18.99,24.66-18.99h13.19V559.91z M1355.84,572.31c-9.23,0-14.11,3.3-14.11,11.21c0,5.67,2.64,10.02,8.44,10.02
		s12.66-1.98,20.05-4.48v-16.75H1355.84z"/>
	<path class="st0" d="M1404.75,512.44c-0.79,0-1.19-0.4-1.19-1.06v-5.41c0-0.79,0.4-1.19,1.19-1.19h30.33
		c0.79,0,1.19,0.39,1.19,1.19v74.11c0,7.78,3.95,12.26,11.87,12.26h10.68c0.79,0,1.19,0.4,1.19,1.06v5.41c0,0.79-0.4,1.19-1.19,1.19
		h-12c-12.4,0-19.65-7.25-19.65-19.65v-67.91H1404.75z"/>
	<path class="st0" d="M1137.49,540h-4.35c-0.79,0-1.06,0.26-1.19,0.92l-1.06,4.35c-5.41-4.09-11.08-6.2-16.88-6.2
		c-17.14,0-24.66,11.87-24.66,30.99c0,19.39,7.26,30.86,23.34,30.86c5.41,0,11.87-1.98,16.88-5.67v5.23v6.76
		c0,7.78-4.09,12.27-12,12.27h-19.24c-0.79,0-1.19,0.4-1.19,1.06v5.41c0,0.79,0.4,1.19,1.19,1.19h20.69
		c12.4,0,19.65-7.25,19.65-19.65v-7.03v-52.42v-6.88C1138.68,540.4,1138.28,540,1137.49,540z M1115.2,593.01
		c-10.28,0-16.35-6.07-16.35-22.81c0-15.56,6.07-23.6,16.35-23.6c4.62,0,10.42,1.84,14.38,4.48v37.85
		C1125.75,591.43,1119.82,593.01,1115.2,593.01z"/>
	<path class="st0" d="M1010.9,547.65c-0.79,0-1.19-0.4-1.19-1.19v-5.28c0-0.79,0.4-1.19,1.19-1.19h32.04c0.79,0,1.19,0.4,1.19,1.19
		v50.11c0,0.79,0.26,1.06,0.92,1.06h19.91c0.79,0,1.19,0.4,1.19,1.19v5.27c0,0.79-0.4,1.19-1.19,1.19h-54.07
		c-0.79,0-1.19-0.4-1.19-1.19v-5.27c0-0.79,0.4-1.19,1.19-1.19h23.21c0.66,0,0.92-0.26,0.92-1.06v-43.65H1010.9z"/>
	<path class="st0" d="M1030.29,474.44c0-4.88,2.77-7.78,7.65-7.78c4.88,0,7.65,2.9,7.65,7.78c0,4.88-2.77,7.65-7.65,7.65
		C1033.06,482.09,1030.29,479.32,1030.29,474.44z"/>
	<path class="st0" d="M1170.99,547.65c-0.79,0-1.19-0.4-1.19-1.19v-5.28c0-0.79,0.4-1.19,1.19-1.19h32.04c0.79,0,1.19,0.4,1.19,1.19
		v50.11c0,0.79,0.26,1.06,0.92,1.06h19.91c0.79,0,1.19,0.4,1.19,1.19v5.27c0,0.79-0.4,1.19-1.19,1.19h-54.07
		c-0.79,0-1.19-0.4-1.19-1.19v-5.27c0-0.79,0.4-1.19,1.19-1.19h23.21c0.66,0,0.92-0.26,0.92-1.06v-43.65H1170.99z"/>
	<path class="st0" d="M1190.37,474.44c0-4.88,2.77-7.78,7.65-7.78c4.88,0,7.65,2.9,7.65,7.78c0,4.88-2.77,7.65-7.65,7.65
		C1193.14,482.09,1190.37,479.32,1190.37,474.44z"/>
	<path class="st0" d="M1273.72,547.65h27.03c0.79,0,1.19-0.4,1.19-1.05v-5.41c0-0.79-0.4-1.19-1.19-1.19h-27.03v-18.06v-2.73
		c0-0.79-0.4-1.19-1.19-1.19h-6.73c-0.79,0-1.18,0.39-1.18,1.19v1.54V540h-17.93c-0.79,0-1.19,0.4-1.19,1.19v5.41
		c0,0.66,0.4,1.05,1.19,1.05h17.93v9.93v22.77c0,12.4,7.26,19.65,19.65,19.65h16.48c0.79,0,1.19-0.4,1.19-1.19v-5.41
		c0-0.66-0.4-1.06-1.19-1.06h-15.03c-7.91,0-12-4.48-12-12.26v-20.31V547.65z"/>
	<path class="st0" d="M494.88,454.17l-27.75-25c-0.8-0.67-0.27-2,0.8-2h8.72c0.54,0,0.86,0.11,1.2,0.4l29.09,26.6l-29.09,26.6
		c-0.34,0.29-0.67,0.4-1.2,0.4h-8.72c-1.07,0-1.61-1.34-0.8-2L494.88,454.17z"/>
</g>
</svg>
