<?xml version="1.0" encoding="UTF-8" standalone="no"?>
<svg
   xmlns:dc="http://purl.org/dc/elements/1.1/"
   xmlns:cc="http://creativecommons.org/ns#"
   xmlns:rdf="http://www.w3.org/1999/02/22-rdf-syntax-ns#"
   xmlns:svg="http://www.w3.org/2000/svg"
   xmlns="http://www.w3.org/2000/svg"
   xmlns:sodipodi="http://sodipodi.sourceforge.net/DTD/sodipodi-0.dtd"
   xmlns:inkscape="http://www.inkscape.org/namespaces/inkscape"
   width="249.375pt"
   height="50.851562pt"
   viewBox="0 0 249.375 50.851563"
   version="1.2"
   id="svg883"
   sodipodi:docname="creatiweb.svg"
   inkscape:version="1.0.2 (e86c8708, 2021-01-15)">
  <metadata
     id="metadata889">
    <rdf:RDF>
      <cc:Work
         rdf:about="">
        <dc:format>image/svg+xml</dc:format>
        <dc:type
           rdf:resource="http://purl.org/dc/dcmitype/StillImage" />
        <dc:title></dc:title>
      </cc:Work>
    </rdf:RDF>
  </metadata>
  <defs
     id="defs887" />
  <sodipodi:namedview
     pagecolor="#ffffff"
     bordercolor="#666666"
     borderopacity="1"
     objecttolerance="10"
     gridtolerance="10"
     guidetolerance="10"
     inkscape:pageopacity="0"
     inkscape:pageshadow="2"
     inkscape:window-width="1382"
     inkscape:window-height="847"
     id="namedview885"
     showgrid="false"
     fit-margin-top="0"
     fit-margin-left="0"
     fit-margin-right="0"
     fit-margin-bottom="0"
     inkscape:zoom="1.6534446"
     inkscape:cx="175.50983"
     inkscape:cy="78.10669"
     inkscape:window-x="58"
     inkscape:window-y="25"
     inkscape:window-maximized="1"
     inkscape:current-layer="svg883" />
  <g
     id="surface12562"
     transform="translate(-44.3125,-36.574219)">
    <path
       style="fill:#595c61;fill-opacity:1;fill-rule:nonzero;stroke:none"
       d="m 123.92969,72.253906 c -1.77735,1.777344 -4.21875,2.703125 -6.55469,2.703125 -5.10547,0 -9.36328,-3.699219 -9.36328,-9.292969 0,-5.625 4.07031,-9.292968 9.36328,-9.292968 2.33594,0 4.85156,0.964844 6.66406,2.742187 l -0.73828,0.703125 c -1.55469,-1.628906 -3.8125,-2.371094 -5.96094,-2.371094 -4.40625,0 -8.21875,2.851563 -8.21875,8.21875 0,5.257813 3.77735,8.21875 8.25391,8.21875 2.07422,0 4.25781,-0.777343 5.81641,-2.367187 z m 0,0"
       id="path862" />
    <path
       style="fill:#595c61;fill-opacity:1;fill-rule:nonzero;stroke:none"
       d="m 131.8125,56.519531 v 2 l -0.10938,2.515625 c 0.88672,-2.773437 3.55469,-4.664062 6.58985,-4.664062 1.10937,0 2.40625,0.261718 3.55469,0.890625 l -0.48438,0.925781 c -1,-0.554688 -2.10937,-0.777344 -3.07031,-0.777344 -3.66406,0.03516 -6.40625,3.144532 -6.40625,6.476563 v 10.921875 h -1.14844 V 56.519531 Z m 0,0"
       id="path864" />
    <path
       style="fill:#595c61;fill-opacity:1;fill-rule:nonzero;stroke:none"
       d="m 161.79687,71.367188 c -1.73828,2.40625 -4.96093,3.589843 -7.92187,3.589843 -4.84766,0 -9.10938,-3.367187 -9.10938,-9.253906 0,-5.59375 3.92579,-9.40625 9.07032,-9.40625 4.92578,0 9.8125,2.851563 9.10937,9.921875 h -17.0664 c 0.40625,5.21875 4.07031,7.664062 7.99609,7.664062 2.58984,0 5.625,-1.148437 7.07031,-3.144531 z m 0.14844,-6.183594 c 0.14844,-5.074219 -3.07422,-7.8125 -8.10937,-7.8125 -4.29297,0 -7.625,2.816406 -7.95703,7.8125 z m 0,0"
       id="path866" />
    <path
       style="fill:#595c61;fill-opacity:1;fill-rule:nonzero;stroke:none"
       d="m 185.63672,74.808594 v -2.332032 l 0.21875,-2.628906 c -1.25781,3.554688 -4.96094,5.222656 -8.14453,5.183594 -5.03516,0 -9.25391,-3.554688 -9.25391,-9.367188 0,-5.738281 4.14844,-9.367187 9.17969,-9.367187 3.37109,0 7.22265,1.777344 8.21875,5.40625 l -0.21875,-2.960937 v -2.222657 h 1.10937 v 18.289063 z m -16.07031,-9.144532 c 0,5.21875 3.74218,8.292969 8.18359,8.292969 5.55469,0 7.92187,-3.996093 7.92187,-8.476562 0,-4.296875 -2.70312,-8.109375 -8.07031,-8.109375 -4.4414,0 -8.03515,3.109375 -8.03515,8.292968"
       id="path868" />
    <path
       style="fill:#595c61;fill-opacity:1;fill-rule:nonzero;stroke:none"
       d="m 198.25781,50.894531 v 5.625 h 6.51563 v 0.964844 h -6.51563 v 11.882813 c 0,2.664062 0.40625,4.664062 3.625,4.664062 0.92578,0 2.33203,-0.441406 3.29688,-0.925781 l 0.48047,0.925781 c -1.10938,0.59375 -2.58985,1.035156 -3.70313,1.035156 -3.84766,-0.03516 -4.8125,-2.109375 -4.8125,-5.699218 V 57.484375 h -3.99609 v -0.964844 h 3.99609 v -5.515625 z m 0,0"
       id="path870" />
    <path
       style="fill:#595c61;fill-opacity:1;fill-rule:nonzero;stroke:none"
       d="m 212.35937,50.339844 c 0,1.332031 -1.96484,1.332031 -1.96484,0 0,-1.261719 1.96484,-1.261719 1.96484,0 m -1.59375,24.46875 h 1.11329 V 56.519531 h -1.11329 z m 0,0"
       id="path872" />
    <path
       style="fill:#595c61;fill-opacity:1;fill-rule:nonzero;stroke:none"
       d="m 239.34375,74.808594 h -1.99609 l -2.96485,-7.996094 -2.21875,-7.109375 -2.29687,7.144531 -2.96094,7.960938 h -2 l -6.51563,-18.289063 h 2 l 5.51563,16.179688 5.58984,-16.179688 h 1.29688 l 5.55078,16.179688 5.48047,-16.179688 h 2 z m 0,0"
       id="path874" />
    <path
       style="fill:#595c61;fill-opacity:1;fill-rule:nonzero;stroke:none"
       d="m 250.30078,65.664062 c 0,-5.480468 4.14453,-9.4375 9.29297,-9.4375 5.14453,0 9.73437,3.144532 9.03125,10.289063 h -16.47266 c 0.36719,4.296875 3.66407,6.8125 7.44141,6.8125 2.40234,0 5.21875,-0.960937 6.58984,-2.777344 l 1.29297,1.039063 c -1.77734,2.332031 -4.96094,3.515625 -7.88281,3.515625 -5.14844,0 -9.29297,-3.628907 -9.29297,-9.441407 m 16.69531,-0.738281 c -0.0391,-4.519531 -3,-7.035156 -7.40234,-7.035156 -3.77734,0 -7.03516,2.554687 -7.44141,7.035156 z m 0,0"
       id="path876" />
    <path
       style="fill:#595c61;fill-opacity:1;fill-rule:nonzero;stroke:none"
       d="m 276.91406,48.894531 v 11.625 c 1.48047,-2.964843 4.44141,-4.296875 7.58985,-4.296875 5.10937,0 9.18359,3.40625 9.18359,9.441406 0,6.074219 -4.03906,9.441407 -9.14844,9.441407 -3.10547,0 -6.10547,-1.554688 -7.625,-4.332031 v 4.035156 h -1.77734 V 48.894531 Z m 0.0391,16.734375 c 0,4.550782 3.1836,7.699219 7.47657,7.699219 4.10937,0 7.47656,-2.589844 7.47656,-7.664063 0,-5.144531 -3.36719,-7.699218 -7.47656,-7.699218 -4.21875,0 -7.47657,3.109375 -7.47657,7.664062"
       id="path878" />
    <path
       style="fill:#d9022b;fill-opacity:1;fill-rule:nonzero;stroke:none"
       d="M 44.3125,87.425781 H 95.164062 V 36.574219 H 44.3125 Z M 61,46.203125 c 2.496094,-2.5625 5.503906,-3.652344 9.09375,-3.652344 6.273438,0 11.941406,5.414063 11.941406,12.199219 0,2.085938 -0.367187,3.910156 -1.15625,5.570312 h -2.414062 l -1.046875,4.378907 c -0.730469,0.609375 -1.5,1.097656 -2.296875,1.480469 l 0.01172,0.01172 c -0.363281,0.175782 -0.738281,0.320313 -1.113281,0.449219 -0.0039,0 -0.0039,0 -0.0078,0 -0.125,0.04297 -0.246094,0.08984 -0.371094,0.125 V 60.14844 c 1.949219,-1.160157 3.078125,-3.097657 3.078125,-5.207032 0,-3.777344 -3.230469,-6.339844 -6.914062,-6.339844 -3.84375,0 -7.042969,2.628907 -7.042969,6.375 0,2.101563 1.03125,3.9375 3.078125,5.199219 v 6.558594 c -0.417969,-0.136719 -0.8125,-0.304687 -1.203125,-0.484375 -0.05469,-0.02344 -0.109375,-0.05078 -0.164063,-0.07813 -0.09375,-0.04297 -0.1875,-0.08203 -0.277344,-0.125 l 0.0078,-0.01172 c -0.761719,-0.378906 -1.472656,-0.824218 -2.125,-1.335937 l -1.03125,-4.378907 h -2.4375 c -0.753906,-1.613281 -1.164063,-3.40625 -1.164063,-5.28125 0,-3.296874 1.152344,-6.402343 3.554688,-8.835937 m 17.640625,35.246094 h -5.3125 L 69.773438,68.050781 h -0.06641 L 66.152344,81.449219 H 60.679688 L 54.5625,60.746094 h 6.148438 l 3.167968,13.457031 h 0.06641 l 1.828126,-7.050781 c 0.355468,0.121094 0.496093,0.164062 0.496093,0.164062 l -0.01172,-2.035156 1.175782,-4.535156 h 4.644531 l 1.136719,4.488281 -0.01172,2.082031 c 0,0 0.140625,-0.04297 0.5,-0.164062 l 1.800781,7.105468 h 0.0625 l 3.234375,-13.511718 h 6.117188 z m 0,0"
       id="path880" />
  </g>
</svg>
