<?xml version="1.0" encoding="UTF-8" standalone="no"?>
<svg
   xmlns:dc="http://purl.org/dc/elements/1.1/"
   xmlns:cc="http://creativecommons.org/ns#"
   xmlns:rdf="http://www.w3.org/1999/02/22-rdf-syntax-ns#"
   xmlns:svg="http://www.w3.org/2000/svg"
   xmlns="http://www.w3.org/2000/svg"
   xmlns:sodipodi="http://sodipodi.sourceforge.net/DTD/sodipodi-0.dtd"
   xmlns:inkscape="http://www.inkscape.org/namespaces/inkscape"
   inkscape:version="1.0 (4035a4f, 2020-05-01)"
   height="20.652559"
   width="180"
   sodipodi:docname="czechcrunch.svg"
   id="svg151"
   version="1.1"
   viewBox="0 0 180 20.652559">
  <metadata
     id="metadata157">
    <rdf:RDF>
      <cc:Work
         rdf:about="">
        <dc:format>image/svg+xml</dc:format>
        <dc:type
           rdf:resource="http://purl.org/dc/dcmitype/StillImage" />
        <dc:title></dc:title>
      </cc:Work>
    </rdf:RDF>
  </metadata>
  <defs
     id="defs155" />
  <sodipodi:namedview
     inkscape:current-layer="svg151"
     inkscape:window-maximized="1"
     inkscape:window-y="23"
     inkscape:window-x="51"
     inkscape:cy="7.6508823"
     inkscape:cx="90.466055"
     inkscape:zoom="5.9666667"
     fit-margin-bottom="0"
     fit-margin-right="0"
     fit-margin-left="0"
     fit-margin-top="0"
     showgrid="false"
     id="namedview153"
     inkscape:window-height="755"
     inkscape:window-width="1229"
     inkscape:pageshadow="2"
     inkscape:pageopacity="0"
     guidetolerance="10"
     gridtolerance="10"
     objecttolerance="10"
     borderopacity="1"
     bordercolor="#666666"
     pagecolor="#ffffff" />
  <path
     id="path133"
     fill="#010101"
     d="m 15.49,14.002447 a 8.73,8.73 0 0 1 -1,2.93 7.18,7.18 0 0 1 -1.7,2.07 6.39,6.39 0 0 1 -2.29,1.23 9.33,9.33 0 0 1 -2.73,0.41 8.22,8.22 0 0 1 -3.19,-0.59 7.69,7.69 0 0 1 -2.5,-1.7 5.93,5.93 0 0 1 -1.23,-1.7 8.62,8.62 0 0 1 -0.62,-2 14.26,14.26 0 0 1 -0.23,-2.09 c 0,-0.75 0,-1.49 0,-2.24 C 0,9.5724467 0,8.8124467 0,8.0924467 a 11.52,11.52 0 0 1 0.23,-2.09 8.23,8.23 0 0 1 0.62,-2 5.61,5.61 0 0 1 1.23,-1.71 7.69,7.69 0 0 1 2.5,-1.70000004 8.22,8.22 0 0 1 3.19,-0.59 8.55,8.55 0 0 1 2.73,0.41 6.39,6.39 0 0 1 2.29,1.23000004 7.24,7.24 0 0 1 1.72,2.08 8.73,8.73 0 0 1 1,2.93 H 10.4 a 3.74,3.74 0 0 0 -0.8,-1.52 2.28,2.28 0 0 0 -1.8,-0.67 2.78,2.78 0 0 0 -1.18,0.23 2.15,2.15 0 0 0 -0.8,0.62 3.4,3.4 0 0 0 -0.31,0.51 2.44,2.44 0 0 0 -0.23,0.82 8.72,8.72 0 0 0 -0.15,1.41 c 0,0.59 -0.05,1.34 -0.05,2.2900003 0,0.95 0,1.7 0.05,2.29 a 13.1,13.1 0 0 0 0.15,1.41 4.88,4.88 0 0 0 0.23,0.82 c 0.1,0.18 0.21,0.36 0.31,0.51 a 2,2 0 0 0 0.8,0.62 2.78,2.78 0 0 0 1.18,0.23 2.28,2.28 0 0 0 1.8,-0.67 3.74,3.74 0 0 0 0.8,-1.52 h 5.1 z" />
  <path
     d="m 15.49,19.922447 v -3.79 L 23.41,4.3724467 H 15.83 V 0.00244666 H 29.51 V 3.7924467 L 21.56,15.552447 h 7.95 v 4.37 z"
     style="fill:#010101"
     id="polygon135" />
  <path
     d="M 30.25,19.892447 V 0.00244666 H 44.26 V 4.3724467 h -8.94 v 3.33 h 7.64 v 4.3700003 h -7.64 v 3.48 h 8.94 v 4.37 H 30.25 Z"
     style="fill:#010101"
     id="polygon137" />
  <path
     id="path139"
     fill="#010101"
     d="m 61.23,14.002447 a 8.73,8.73 0 0 1 -1,2.93 7.18,7.18 0 0 1 -1.7,2.07 6.39,6.39 0 0 1 -2.29,1.23 9.33,9.33 0 0 1 -2.73,0.41 8.22,8.22 0 0 1 -3.19,-0.59 7.69,7.69 0 0 1 -2.5,-1.7 5.93,5.93 0 0 1 -1.24,-1.72 8.62,8.62 0 0 1 -0.62,-2 14.26,14.26 0 0 1 -0.21,-2.13 c 0,-0.75 0,-1.49 0,-2.24 0,-0.7500003 0,-1.5200003 0,-2.2400003 a 11.52,11.52 0 0 1 0.25,-2.02 8.23,8.23 0 0 1 0.62,-2 5.61,5.61 0 0 1 1.24,-1.72 7.69,7.69 0 0 1 2.5,-1.70000004 8.22,8.22 0 0 1 3.15,-0.58 8.55,8.55 0 0 1 2.73,0.41 6.39,6.39 0 0 1 2.29,1.23000004 7.24,7.24 0 0 1 1.72,2.08 8.73,8.73 0 0 1 1,2.93 h -5.1 a 3.74,3.74 0 0 0 -0.8,-1.52 2.28,2.28 0 0 0 -1.8,-0.67 2.78,2.78 0 0 0 -1.18,0.23 2.15,2.15 0 0 0 -0.8,0.62 3.4,3.4 0 0 0 -0.31,0.51 2.44,2.44 0 0 0 -0.23,0.82 8.72,8.72 0 0 0 -0.15,1.41 c 0,0.59 -0.05,1.34 -0.05,2.2900003 0,0.95 0,1.7 0.05,2.29 a 13.1,13.1 0 0 0 0.12,1.42 4.88,4.88 0 0 0 0.23,0.82 c 0.1,0.18 0.21,0.36 0.31,0.51 a 2,2 0 0 0 0.8,0.62 2.78,2.78 0 0 0 1.18,0.23 2.28,2.28 0 0 0 1.8,-0.67 3.74,3.74 0 0 0 0.8,-1.52 h 5.1 z" />
  <path
     d="m 72.4,19.922447 v -7.89 h -5.37 v 7.89 H 61.97 V 0.00244666 h 5.06 V 7.6624467 H 72.4 V 0.00244666 h 5.06 V 19.922447 Z"
     style="fill:#010101"
     id="polygon141" />
  <path
     id="path143"
     fill="#010101"
     d="m 95.16,14.002447 a 8.73,8.73 0 0 1 -1,2.93 7.18,7.18 0 0 1 -1.7,2.07 6.39,6.39 0 0 1 -2.29,1.23 9.33,9.33 0 0 1 -2.73,0.41 8.22,8.22 0 0 1 -3.19,-0.59 7.69,7.69 0 0 1 -2.5,-1.7 5.93,5.93 0 0 1 -1.24,-1.72 8.62,8.62 0 0 1 -0.62,-2 14.26,14.26 0 0 1 -0.21,-2.13 c 0,-0.75 0,-1.49 0,-2.24 0,-0.7500003 0,-1.5200003 0,-2.2400003 a 11.52,11.52 0 0 1 0.22,-2.02 8.23,8.23 0 0 1 0.62,-2 5.61,5.61 0 0 1 1.24,-1.72 7.69,7.69 0 0 1 2.5,-1.70000004 8.22,8.22 0 0 1 3.18,-0.58 8.55,8.55 0 0 1 2.73,0.41 6.39,6.39 0 0 1 2.29,1.23000004 7.24,7.24 0 0 1 1.72,2.08 8.73,8.73 0 0 1 1,2.93 h -5.1 a 3.74,3.74 0 0 0 -0.8,-1.52 2.28,2.28 0 0 0 -1.8,-0.67 2.78,2.78 0 0 0 -1.18,0.23 2.15,2.15 0 0 0 -0.8,0.62 3.4,3.4 0 0 0 -0.31,0.51 2.44,2.44 0 0 0 -0.23,0.82 8.72,8.72 0 0 0 -0.15,1.41 c 0,0.59 -0.05,1.34 -0.05,2.2900003 0,0.95 0,1.7 0.05,2.29 a 13.1,13.1 0 0 0 0.15,1.41 4.88,4.88 0 0 0 0.23,0.82 c 0.1,0.18 0.21,0.36 0.31,0.51 a 2,2 0 0 0 0.8,0.62 2.78,2.78 0 0 0 1.18,0.23 2.28,2.28 0 0 0 1.8,-0.67 3.74,3.74 0 0 0 0.8,-1.52 h 5.1 z m 11.1,5.87 -3.62,-7.39 h -1.71 v 7.39 h -5 V 0.00244666 H 104 a 7.42,7.42 0 0 1 3,0.55 6.71,6.71 0 0 1 2.21,1.45000004 6.08,6.08 0 0 1 1.34,2 6.27,6.27 0 0 1 0.45,2.39 5.38,5.38 0 0 1 -0.31,1.85 6.94,6.94 0 0 1 -0.78,1.5 6.4,6.4 0 0 1 -1.06,1.1300003 7.79,7.79 0 0 1 -1.19,0.75 l 4.45,8.29 h -5.87 z M 106,6.3624467 a 2,2 0 0 0 -0.57,-1.4 2.15,2.15 0 0 0 -1.6,-0.63 H 101 v 4 h 2.84 a 2,2 0 0 0 1.6,-0.63 1.86,1.86 0 0 0 0.56,-1.34 z m 22.35,6.9300003 a 7.07,7.07 0 0 1 -4.77,6.84 9,9 0 0 1 -3,0.52 8.66,8.66 0 0 1 -3,-0.52 7.14,7.14 0 0 1 -2.45,-1.47 7,7 0 0 1 -2.27,-5.37 V 0.00244666 h 5 V 13.172447 a 3.14,3.14 0 0 0 0.7,2.22 2.54,2.54 0 0 0 2,0.77 2.7,2.7 0 0 0 2,-0.77 3.07,3.07 0 0 0 0.72,-2.22 V 0.00244666 h 5 V 13.302447 Z" />
  <path
     d="M 141.81,19.922447 135.45,9.9024467 V 19.922447 h -4.88 V 0.00244666 h 4.26 L 141.19,10.022447 V 0.00244666 h 4.88 V 19.922447 Z"
     style="fill:#010101"
     id="polygon145" />
  <path
     id="path147"
     fill="#010101"
     d="m 163.77,14.002447 a 8.73,8.73 0 0 1 -1,2.93 7.18,7.18 0 0 1 -1.7,2.07 6.39,6.39 0 0 1 -2.29,1.23 9.33,9.33 0 0 1 -2.73,0.41 8.22,8.22 0 0 1 -3.19,-0.59 7.69,7.69 0 0 1 -2.5,-1.7 5.93,5.93 0 0 1 -1.24,-1.72 8.62,8.62 0 0 1 -0.62,-2 14.26,14.26 0 0 1 -0.21,-2.13 c 0,-0.75 0,-1.49 0,-2.24 0,-0.7500003 0,-1.5200003 0,-2.2400003 a 11.52,11.52 0 0 1 0.22,-2.02 8.23,8.23 0 0 1 0.62,-2 5.61,5.61 0 0 1 1.24,-1.72 7.69,7.69 0 0 1 2.5,-1.70000004 8.22,8.22 0 0 1 3.18,-0.58 8.55,8.55 0 0 1 2.73,0.41 6.39,6.39 0 0 1 2.29,1.23000004 7.24,7.24 0 0 1 1.72,2.08 8.73,8.73 0 0 1 1,2.93 h -5.1 a 3.74,3.74 0 0 0 -0.8,-1.52 2.28,2.28 0 0 0 -1.8,-0.67 2.78,2.78 0 0 0 -1.18,0.23 2.15,2.15 0 0 0 -0.8,0.62 3.4,3.4 0 0 0 -0.31,0.51 2.44,2.44 0 0 0 -0.23,0.82 8.72,8.72 0 0 0 -0.15,1.41 c 0,0.59 -0.05,1.34 -0.05,2.2900003 0,0.95 0,1.7 0.05,2.29 a 13.1,13.1 0 0 0 0.15,1.41 4.88,4.88 0 0 0 0.23,0.82 c 0.1,0.18 0.21,0.36 0.31,0.51 a 2,2 0 0 0 0.8,0.62 2.78,2.78 0 0 0 1.18,0.23 2.28,2.28 0 0 0 1.8,-0.67 3.74,3.74 0 0 0 0.8,-1.52 h 5.1 z" />
  <path
     d="m 174.94,19.922447 v -7.89 h -5.37 v 7.89 h -5.06 V 0.00244666 h 5.06 V 7.6624467 h 5.37 V 0.00244666 H 180 V 19.922447 Z"
     style="fill:#010101"
     id="polygon149" />
</svg>
