<svg class="sc-clGIgy fAglPS" viewBox="0 0 946.74 253.45"><defs><style>.face{fill-rule:evenodd;}.mask{fill:#00a4ff;}</style></defs><title>ssmain-engeto</title><g id="Layer_2" data-name="Layer 2"><g id="Layer_1-2" data-name="Layer 1"><path d="M373.06,100.4H384v70.2h48.85V154.16H400.55v-19h32.28V118.69H400.55V100.4h32.28V84H373.06Zm157,0h10.81v36.16L471.76,84V170.6h16.45V120.32L557.3,170.6V84H530.05Zm104,40.75h10.8v12a27.21,27.21,0,0,1-10.8,2.21,28.54,28.54,0,0,1-20.18-8.28,28.51,28.51,0,0,1-6.08-9,28.71,28.71,0,0,1,0-22.09,28.53,28.53,0,0,1,6.08-9,28.82,28.82,0,0,1,9.09-6.14A27.28,27.28,0,0,1,634,98.56a28,28,0,0,1,14.73,4.17l8.71-14A44.48,44.48,0,0,0,634,82.12a42.93,42.93,0,0,0-17.48,3.56,45.55,45.55,0,0,0-23.88,23.88,44.74,44.74,0,0,0,0,35,46.21,46.21,0,0,0,9.65,14.23,45.1,45.1,0,0,0,14.23,9.58A43.89,43.89,0,0,0,634,171.83a44.62,44.62,0,0,0,7.68-.61,42,42,0,0,0,6.68-1.77,52.1,52.1,0,0,0,6.33-2.82c2.09-1.11,4.27-2.36,6.56-3.76V124.58H634Zm64.68,29.45h48.84V154.16H715.29v-19h32.27V118.69H715.29V100.4h32.27V84H698.72Zm77.7-69.95h24.79V170.6h16.44V100.65h24.43V84.08H776.42Zm166.76,8.91a45.85,45.85,0,0,0-9.63-14.24,45.13,45.13,0,0,0-14.23-9.57,44.08,44.08,0,0,0-17.5-3.51,42.77,42.77,0,0,0-17.36,3.56,45.55,45.55,0,0,0-23.88,23.88A42.76,42.76,0,0,0,857,127a43.31,43.31,0,0,0,3.56,17.51,45.45,45.45,0,0,0,23.88,23.85A42.61,42.61,0,0,0,901.82,172a43.1,43.1,0,0,0,17.5-3.56,45.32,45.32,0,0,0,23.86-23.85,44.74,44.74,0,0,0,0-35M928,138.08a28.28,28.28,0,0,1-15.1,15.1,28.71,28.71,0,0,1-22.09,0,28.46,28.46,0,0,1-15.1-15.1,28.83,28.83,0,0,1,0-22.09,28.64,28.64,0,0,1,15.1-15.1,28.71,28.71,0,0,1,22.09,0A28.46,28.46,0,0,1,928,116a28.71,28.71,0,0,1,0,22.09"></path><path class="face" d="M246.87,19.41v20a144.31,144.31,0,0,1,57.6,115.23V162c0,4.81-9.6,15.35-36,24.73-28.59,10.14-66.93,15.72-108,15.72s-79.38-5.58-108-15.72c-26.44-9.38-36-19.92-36-24.73v-7.31A144.31,144.31,0,0,1,74.06,39.42v-20A160.33,160.33,0,0,0,0,154.65V162c0,16.61,20.06,31.55,52.05,41.95a82.29,82.29,0,0,0,75.5,49.54h65.83a82.29,82.29,0,0,0,75.5-49.54c32-10.4,52.05-25.34,52.05-41.95v-7.31A160.33,160.33,0,0,0,246.87,19.41M193.38,237H127.55a65.76,65.76,0,0,1-53.09-27c24.86,5.61,54.36,8.86,86,8.86s61.14-3.25,86-8.86a65.76,65.76,0,0,1-53.09,27"></path><path class="mask" d="M276.49,117.72V116.6c0-21.22-17.83-38.42-39.83-38.42H84.27c-22,0-39.83,17.2-39.83,38.42v1.12s-.64,13,22.69,32c26.51,21.6,59.93,32.39,93.35,32.39s66.84-10.79,93.34-32.39c23.34-19,22.67-32,22.67-32M113.56,139.89A16.46,16.46,0,1,1,130,123.43a16.46,16.46,0,0,1-16.46,16.46m93.81,0a16.46,16.46,0,1,1,16.46-16.46,16.46,16.46,0,0,1-16.46,16.46M230.41,0H214V16.46H107V0H90.52V32.92H230.41Z"></path></g></g></svg>
