<svg width="200" xmlns="http://www.w3.org/2000/svg" viewBox="0 0 131 34">
	<title>Lupa.cz</title>
	<g>
		<path fill="#e4202a" d="M9.6,33.7h13.3v-7.9H9.6V33.7z M8.5,0.4H0v33.3h8.5v-7.9h0V0.4z"></path>
		<path fill="#e4202a" d="M33.6,22.5V0.4h-8.5v22.1c0,4.7,1,7.7,3,9.3 c1.8,1.4,5.3,2.1,10.6,2.2v-7.6c-3.3,0-4.2-0.5-4.4-0.6C34.1,25.6,33.6,25.1,33.6,22.5z M44.8,22.2c0,2.9-0.6,3.4-0.7,3.5 c-0.1,0.1-1,0.6-4.4,0.6V34c5.3,0,8.8-0.8,10.6-2.4c2-1.7,2.9-4.8,2.9-9.5V0.4h-8.5V22.2z"></path>
		<path fill="#e4202a" d="M81.9,3c-1.7-1.7-4.8-2.6-9.3-2.6h-5.7 V8h4.8c3.1,0,3.6,0.5,3.6,0.5c0,0,0.5,0.6,0.5,3.9c0,2.7-0.5,3.2-0.6,3.3c-0.1,0.1-0.9,0.6-4.2,0.6h-4.3v7.6h4.5l1.3,0 c4.6,0,7.6-0.8,9.3-2.4c1.7-1.6,2.5-4.6,2.5-9.1C84.5,7.7,83.7,4.7,81.9,3z M57.4,33.7h8.5v-9.9h0V0.4h-8.5V33.7z"></path>
		<path fill="#e4202a" d="M108,11.8h-3.8 v-3h2.8l-2.5-7.5l-0.3-0.9H93.5l-0.3,0.9L83,32l-0.6,1.8h9l0.3-0.9l0.4-1.2l0,0l4-12.3h0l2.9-8.8l3.4,10.4h-5.7l-2.3,7h10.2l1.7,5 l0.3,0.9h8.9l-0.6-1.8L108,11.8z"></path>
		<path fill="#322f31" d="M125.8,8.9l5-6.1l0.1-0.2V0.1h-9.3V3h4.8l-4.9,6l-0.1,0.2v2.5h9.6V8.9H125.8z"></path>
		<path fill="#322f31" d="M117.2,7.5l0,0.4 c0,0.6-0.1,0.8-0.2,0.8c0,0-0.3,0.2-1.6,0.2c-1.3,0-1.6-0.2-1.6-0.2c0-0.1-0.2-0.6-0.2-3.2c0-1.9,0.2-2.2,0.2-2.3 c0,0,0.3-0.2,1.7-0.2c1.1,0,1.4,0.2,1.4,0.2c0,0,0.1,0.1,0.1,0.8v0.9h3.3l0-0.6l0-0.2c0-1.5-0.3-2.6-1-3.1 C118.7,0.3,117.6,0,116,0c-2.2,0-3.7,0.3-4.4,1c-0.8,0.7-1.2,1.9-1.2,3.9c0,4.1,0.5,5.3,0.8,5.8c0.6,0.9,2,1.3,4.3,1.3 c2,0,3.2-0.2,3.9-0.8c0.7-0.6,1-1.6,1-3.3v-1h-3.3L117.2,7.5z"></path>
	</g>
</svg>
