<svg xmlns="http://www.w3.org/2000/svg" viewBox="0 0 346.117 126.027"><defs><clipPath id="a" clipPathUnits="userSpaceOnUse"><path d="M0 94.521h259.588V0H0z"/></clipPath></defs><g clip-path="url(#a)" transform="matrix(1.33333 0 0 -1.33333 0 126.027)"><path d="M216.466 45.377c1.31 0 2.88.285 4.711.858v-5.568c-1.865-.834-4.155-1.251-6.869-1.251-2.993 0-5.172.756-6.538 2.269-1.363 1.512-2.047 3.782-2.047 6.807v13.221h-3.582v3.164l4.122 2.502 2.158 5.79h4.784v-5.838h7.677v-5.618h-7.677V48.492c0-1.064.298-1.849.894-2.355.596-.507 1.387-.76 2.367-.76m-18.43-5.471h-7.48v16.018c0 1.978-.352 3.463-1.057 4.453-.702.989-1.823 1.483-3.359 1.483-2.095 0-3.608-.699-4.539-2.097-.932-1.398-1.397-3.716-1.397-6.954V39.906h-7.484v27.425h5.718l1.005-3.508h.418c.834 1.324 1.982 2.326 3.447 3.005 1.461.678 3.127 1.018 4.991 1.018 3.188 0 5.607-.863 7.26-2.588 1.65-1.726 2.477-4.215 2.477-7.47zm-57.66 27.425h8.193l5.173-15.43c.442-1.341.744-2.927.91-4.758h.147a20.78 20.78 0 001.053 4.758l5.077 15.43h8.022l-11.6-30.933c-1.065-2.861-2.583-5.003-4.554-6.426-1.97-1.423-4.27-2.134-6.904-2.134-1.29 0-2.559.14-3.8.416v5.937c.897-.212 1.88-.318 2.943-.318 1.325 0 2.482.403 3.47 1.213.988.809 1.761 2.032 2.318 3.668l.442 1.35zm-20.949-27.425v35.863h7.604V46.187h14.547v-6.281z" fill="#565759"/><path d="M49.873 81.997a36.698 36.698 0 005.243 2.306 29.727 29.727 0 006.123 1.465 21.36 21.36 0 006.616-.165 16.73 16.73 0 003.195-1.007 13.693 13.693 0 002.85-1.742c.862-.69 1.628-1.551 2.258-2.453l.266-.386.13-.193.099-.181.384-.704c.119-.26.235-.52.352-.777.118-.26.2-.54.3-.806.369-1.082.607-2.225.727-3.402.107-1.167.086-2.366-.014-3.565-.097-1.187-.317-2.384-.603-3.568-.272-1.17-1.646-5.075-2.14-6.435l.546-2.33 3.325.652c.377.916.906 2.825 1.208 3.787a31.925 31.925 0 011.01 4.039c.249 1.389.409 2.798.43 4.21.03 1.43-.058 2.863-.306 4.26a18.12 18.12 0 01-1.236 4.068c-.155.319-.287.647-.46.95-.173.305-.345.609-.52.912-.195.303-.406.6-.611.898l-.156.219-.15.178-.3.36c-.912 1.069-1.908 1.964-3.022 2.68a15.636 15.636 0 01-3.52 1.662 18.995 18.995 0 01-3.695.726c-2.472.21-4.871-.026-7.111-.508-4.48-.991-8.282-2.841-11.43-4.72-.18-.111-.35-.222-.523-.331.132-.092.264-.19.393-.29.115.062.227.127.343.19" fill="#515152"/><path d="M32.015 27.025a3.775 3.775 0 003.333 4.128 3.698 3.698 0 004.088-3.314 3.77 3.77 0 00-3.333-4.124 3.696 3.696 0 00-4.088 3.31m13.79-1.5c.17.725.248 1.465.274 2.205a11.459 11.459 0 01-.23 2.208 18.12 18.12 0 014.216 3.491c-.478 1.168-1.075 2.286-1.827 3.293-1.941-.199-3.773-.713-5.412-1.509-.533.513-1.15.94-1.788 1.314-.64.376-1.33.66-2.035.898a17.533 17.533 0 01-.907 5.33c-1.256.186-2.53.178-3.79.057a16.07 16.07 0 01-1.451-5.39c-.71-.24-1.406-.524-2.051-.902-.646-.379-1.27-.8-1.813-1.317-1.557.863-3.268 1.478-5.116 1.85-.8-.987-1.45-2.089-1.985-3.24a15.77 15.77 0 013.972-3.892c-.172-.726-.244-1.465-.27-2.209.008-.737.07-1.477.226-2.205a18.005 18.005 0 01-4.215-3.492c.476-1.168 1.076-2.287 1.829-3.294 1.94.2 3.769.716 5.414 1.512.532-.514 1.145-.939 1.785-1.313.639-.377 1.33-.663 2.033-.9.023-1.745.319-3.572.909-5.329 1.259-.185 2.529-.178 3.792-.06a16.165 16.165 0 011.448 5.394c.708.234 1.407.523 2.054.898.643.378 1.269.804 1.813 1.32 1.556-.866 3.266-1.48 5.112-1.853.799.987 1.45 2.091 1.985 3.244a15.72 15.72 0 01-3.972 3.891" fill="#ee991f" fill-rule="evenodd"/><path d="M22.998 28.655a45.28 45.28 0 00-3.098 1.532 35.322 35.322 0 00-4.944 3.237c-1.584 1.244-3.098 2.687-4.353 4.35-.324.405-.594.85-.883 1.278-.259.444-.527.89-.742 1.354-.444.924-.805 1.892-1.004 2.883a10.238 10.238 0 00-.16 2.976c.03.273.045.594.105.796.054.231.075.446.149.688.074.24.135.481.212.72l.269.703c.803 1.86 2.164 3.521 3.839 4.94.604.51 1.247.987 1.923 1.44h-.002l1.181 3.316-2.794.604a26.148 26.148 0 01-2.943-2.605c-1.816-1.88-3.271-4.13-4.035-6.604l-.246-.936c-.068-.314-.115-.634-.171-.947-.057-.31-.072-.669-.104-.996-.04-.358-.02-.608-.022-.898.009-1.29.214-2.52.573-3.703.364-1.179.898-2.273 1.509-3.28.3-.509.65-.98.987-1.447.363-.45.712-.906 1.103-1.314 1.518-1.7 3.248-3.053 4.974-4.229 2.915-1.95 5.883-3.329 8.68-4.402-.005.1-.012.2-.013.3.001.083.006.161.01.244M81.503 21.78c-.565 2.783-1.495 5.257-2.486 7.435a3.452 3.452 0 00-.217-.233c.383-.949.74-1.95 1.055-3 .41-1.355.736-2.8.938-4.3.208-1.498.241-3.069.087-4.637a15.915 15.915 0 00-.455-2.333c-.633-2.288-1.605-4.427-3.686-5.778-1.41-.915-3.095-1.706-4.774-1.992-2.065-.355-4.233-.163-6.287.152-2.113.328-4.277.944-6.468 1.728-1.12.424-2.259.871-3.38 1.402a51.704 51.704 0 00-3.449 1.734c-.57.326-1.16.643-1.726.997l-.876.521-.866.55c-.59.364-3.434 2.082-3.72 2.29l-3.443-.45-.598-2.6c.345-.245 1.38-1.077 1.733-1.307.693-.465 1.368-.938 2.071-1.367 1.353-.883 2.755-1.659 4.146-2.387 1.372-.7 2.736-1.35 4.115-1.91 1.343-.556 2.706-1.009 4.041-1.428 2.604-.768 5.183-1.266 7.695-1.404a24.243 24.243 0 013.58.04c1.145.098 2.263.278 3.34.574 1.056.28 2.072.651 3.026 1.134a13.398 13.398 0 012.588 1.71c.19.17.388.325.565.505.18.18.355.357.528.537.174.195.342.396.51.593l.121.15.1.136.193.271a12.17 12.17 0 011.397 2.527c.352.873.604 1.761.78 2.643.16.883.242 1.758.271 2.615a22.277 22.277 0 01-.449 4.882" fill="#515152"/><path d="M70.124 39.242a4.829 4.829 0 10.475 6.812 4.83 4.83 0 00-.475-6.812m11.938 2.072c1.734.346 3.37.854 5.057 1.53-.012 1.002-.072 2.01-.239 2.998-1.763.52-3.524.843-5.303.966-.149.646-.415 1.26-.649 1.88-.272.601-.557 1.204-.898 1.773a28.474 28.474 0 013.187 4.21c-.599.802-1.236 1.575-1.955 2.276-1.707-.59-3.375-1.418-4.85-2.33-.516.417-1.077.782-1.634 1.138-.583.317-1.153.662-1.773.9.204 1.737.243 3.51.107 5.278-.95.335-1.942.518-2.925.712-1.044-1.556-1.892-3.09-2.555-4.757-.66.032-1.325.03-1.985-.045-.666-.019-1.315-.19-1.972-.287a29.25 29.25 0 01-3.01 4.335c-.946-.35-1.896-.692-2.782-1.174.037-1.817.303-3.632.722-5.335-.57-.339-1.056-.8-1.589-1.196-.464-.473-.987-.889-1.402-1.41-1.56.711-3.275 1.332-4.987 1.74a19.117 19.117 0 01-1.578-2.574 25.483 25.483 0 013.714-3.887c-.186-.636-.447-1.255-.556-1.912a12.692 12.692 0 01-.319-1.96c-1.738-.34-3.37-.853-5.058-1.527.01-1.002.07-2.009.24-3a24.352 24.352 0 015.3-.963c.151-.648.413-1.26.648-1.88.274-.602.558-1.208.9-1.772a28.74 28.74 0 01-3.19-4.21c.604-.804 1.238-1.579 1.956-2.282a25.064 25.064 0 014.853 2.333c.516-.419 1.075-.783 1.631-1.136.582-.317 1.153-.664 1.773-.9a27.45 27.45 0 01-.105-5.28c.95-.336 1.94-.519 2.924-.715 1.041 1.56 1.891 3.094 2.553 4.76a12.808 12.808 0 011.988.045c.663.018 1.311.191 1.97.29a29.344 29.344 0 013.012-4.339c.943.351 1.894.694 2.781 1.174a24.344 24.344 0 01-.724 5.338c.57.337 1.056.797 1.588 1.193.468.473.99.891 1.403 1.41 1.561-.709 3.275-1.33 4.987-1.742a19.626 19.626 0 011.58 2.576 25.404 25.404 0 01-3.714 3.888c.186.638.445 1.257.558 1.911.16.646.256 1.3.32 1.96" fill="#7fc52c" fill-rule="evenodd"/><path d="M35.287 62.94a5.845 5.845 0 00-7.047 4.323 5.847 5.847 0 107.047-4.322m15.608-.866c.18.59.399 1.166.539 1.764.117.606.29 1.198.359 1.81a34.31 34.31 0 014.633 1.069c.029.872.063 1.753.025 2.625a30.548 30.548 0 01-4.62 1.434l-.34 1.819-.52 1.772a33.993 33.993 0 013.587 3.092c-.315.818-.78 1.567-1.178 2.347a30.008 30.008 0 01-4.764-.885c-.34.514-.764.967-1.141 1.45-.397.472-.853.887-1.278 1.33a33.788 33.788 0 011.736 4.422c-.652.583-1.412 1.023-2.124 1.525a30.027 30.027 0 01-3.8-3.007c-.541.293-1.121.505-1.68.759-.57.225-1.165.388-1.746.583a33.603 33.603 0 01-.504 4.728c-.85.21-1.73.249-2.592.363a29.873 29.873 0 01-1.971-4.441c-.616.018-1.224-.082-1.835-.117-.612-.048-1.208-.206-1.811-.305-.785 1.404-1.65 2.67-2.636 3.958-.843-.22-1.65-.551-2.454-.887-.048-1.617.078-3.28.307-4.853-.553-.27-1.063-.614-1.571-.957-.524-.322-.987-.725-1.463-1.113a31.145 31.145 0 01-4.173 2.277 17.664 17.664 0 01-1.754-1.934 28.407 28.407 0 012.526-4.157c-.366-.496-.655-1.037-.946-1.58-.32-.527-.538-1.102-.784-1.667-1.58.15-3.145.169-4.744.08-.29-.825-.488-1.677-.66-2.535a28.3 28.3 0 014.155-2.512c-.093-.608-.097-1.224-.102-1.841-.034-.618.03-1.231.085-1.843a31.585 31.585 0 01-4.231-2.148c.145-.863.323-1.714.592-2.547a27.812 27.812 0 014.833-.29c.229-.57.448-1.147.759-1.68.283-.55.566-1.094.924-1.596-.982-1.2-1.951-2.533-2.754-3.885.554-.676 1.08-1.38 1.713-1.981 1.553.56 2.998 1.2 4.405 2.003.475-.39.932-.806 1.455-1.131.503-.35 1.007-.705 1.556-.981-.316-1.524-.556-3.15-.644-4.727.8-.347 1.59-.716 2.429-.96a28.157 28.157 0 012.977 3.829c.6-.131 1.195-.281 1.807-.331.61-.074 1.219-.153 1.834-.14a32.583 32.583 0 011.624-4.49c.867.084 1.746.102 2.594.286.414 1.62.714 3.158.854 4.78.582.186 1.185.313 1.753.552.563.244 1.149.43 1.688.725a34.565 34.565 0 013.515-3.23c.73.473 1.472.94 2.166 1.469a30.77 30.77 0 01-1.455 4.635c.428.438.883.853 1.29 1.313.384.478.805.928 1.154 1.435a34.489 34.489 0 014.599-1.221c.426.758.87 1.515 1.235 2.307-1.09 1.265-2.211 2.402-3.433 3.43" fill="#e23937" fill-rule="evenodd"/><path d="M256.82 20.378c0-1.412-.511-2.513-1.536-3.304-1.025-.79-2.414-1.185-4.17-1.185-1.902 0-3.367.246-4.39.736v1.8a11.668 11.668 0 012.15-.66c.775-.16 1.546-.24 2.304-.24 1.245 0 2.182.237 2.81.707.63.473.944 1.129.944 1.97 0 .558-.11 1.012-.336 1.366-.22.356-.595.684-1.117.983-.524.3-1.32.64-2.388 1.019-1.493.536-2.56 1.168-3.2 1.9-.64.732-.957 1.686-.957 2.864 0 1.236.46 2.22 1.39 2.952.932.733 2.159 1.098 3.688 1.098 1.596 0 3.063-.293 4.403-.878l-.583-1.625c-1.324.557-2.611.834-3.864.834-.986 0-1.758-.211-2.313-.636-.558-.425-.834-1.013-.834-1.766 0-.556.1-1.012.307-1.368.204-.354.549-.68 1.036-.975.488-.298 1.23-.624 2.233-.984 1.684-.6 2.84-1.242 3.473-1.93.633-.69.95-1.58.95-2.678m-12.701-4.27h-8.945v16.044h8.945v-1.656h-7.078v-5.17h6.649V23.68h-6.65v-5.904h7.079zm-12.51 13.75c-1.214.572-2.428.857-3.644.857-1.763 0-3.155-.586-4.174-1.76-1.021-1.176-1.533-2.783-1.533-4.824 0-2.1.495-3.722 1.477-4.867.984-1.145 2.387-1.717 4.21-1.717 1.117 0 2.396.2 3.828.603v-1.634c-1.112-.417-2.483-.627-4.114-.627-2.364 0-4.187.718-5.47 2.15-1.286 1.436-1.927 3.473-1.927 6.114 0 1.654.308 3.103.928 4.346.616 1.243 1.51 2.202 2.677 2.875s2.54 1.01 4.122 1.01c1.68 0 3.152-.308 4.41-.922zm-16.696 2.294h1.864V16.108h-1.864zm-4.45 0h2.009l-5.783-16.044h-1.844l-5.751 16.044h1.977l3.686-10.38a29.622 29.622 0 001.01-3.48 29.11 29.11 0 001.03 3.545zm-21.226-7.77h2.556c1.316 0 2.282.263 2.897.786.614.523.922 1.308.922 2.354 0 1.06-.313 1.826-.938 2.294-.625.468-1.628.702-3.013.702h-2.424zm0-1.601v-6.673h-1.865v16.044h4.4c1.968 0 3.42-.375 4.36-1.128.94-.755 1.414-1.89 1.414-3.403 0-2.121-1.078-3.555-3.228-4.302l4.356-7.211h-2.206l-3.885 6.673zm-5.085-6.673h-8.944v16.044h8.944v-1.656h-7.08v-5.17h6.65V23.68h-6.65v-5.904h7.08zm-11.971 4.27c0-1.412-.511-2.513-1.536-3.304-1.025-.79-2.414-1.185-4.171-1.185-1.902 0-3.363.246-4.388.736v1.8a11.716 11.716 0 012.15-.66 11.37 11.37 0 012.307-.24c1.242 0 2.179.237 2.808.707.628.473.944 1.129.944 1.97 0 .558-.113 1.012-.333 1.366-.226.356-.598.684-1.122.983-.524.3-1.32.64-2.385 1.019-1.493.536-2.56 1.168-3.2 1.9-.64.732-.96 1.686-.96 2.864 0 1.236.464 2.22 1.393 2.952.928.733 2.157 1.098 3.689 1.098 1.592 0 3.059-.293 4.399-.878l-.581-1.625c-1.324.557-2.613.834-3.862.834-.99 0-1.762-.211-2.317-.636-.557-.425-.834-1.013-.834-1.766 0-.556.1-1.012.307-1.368.205-.354.55-.68 1.036-.975.487-.298 1.232-.624 2.232-.984 1.685-.6 2.842-1.242 3.477-1.93.633-.69.947-1.58.947-2.678" fill="#828383"/></g></svg>