<svg width="200" xmlns="http://www.w3.org/2000/svg" viewBox="20.27 266.98 600.05 108.88">
<g>
<g>
<path id="Fill-1" d="M236.7,308.9v64.8l23.5,0l0-77.4L236.7,308.9"></path>
<path id="Fill-2" d="M260.7,276.3c-0.9-2.5-2.8-5-5.1-6.6c-5.4-3.2-13-2.3-17.2,2.1c-3.1,2.9-4.6,7.8-3.8,12.5
			c0.6,4.4,4.2,7.9,7.2,9.3c5,2,12.4,1.6,16.9-4C261.3,286.4,262.2,280.8,260.7,276.3L260.7,276.3"></path>
<path id="Fill-3" d="M119.5,308.9c-1.2-4.8-5.3-9-10-10.1c-10.8-2.7-20.7,1.5-26.3,11l-0.5,0.9l-0.4-1c-2.8-7.1-7.3-11-13.3-11.6
			c-10-1.6-17.7,2.3-25.1,12.3l-0.9,1.3V297c-1.4,0.7-22.7,11.6-22.7,11.6v65.1H43l0-48.8c0-3.8,3.8-7.2,7.6-7
			c3.5,0.1,7.1,3.5,7.1,7c0,0,0,47.8,0,48.7h23.7c0-0.9,0-48.7,0-48.7c0-3.9,4.1-7.2,8-7c3.5,0.2,6.9,3.5,6.9,7v48.7h23.9l0-56.4
			C120.2,315,120.2,311.6,119.5,308.9"></path>
<path id="Fill-4" d="M186,364.6c-2-0.2-2.6-4.5-2.6-4.5c0,0-4.3-25.7-4.3-25.7c0,0-1-5-1-5c-1.1-5.3-2.1-10.9-4.2-16
			c-6.7-15.4-25.7-18-39.8-13.8c-2.3,0.7-4.4,1.8-4.4,1.8v9.6c5.8-2.5,11.4-2.7,16-0.5c5.9,2.9,7.6,10.2,7.9,13.2
			c0,0.1,0.5,3.4,0.5,3.4c-6.9,1-15.4,2.7-21.7,7.2c-7,5-10.7,13-9.9,21.3c0.3,8.9,7.1,15.9,13.7,18.4c8.8,3.1,20.9,2.6,28.1-5.7
			c0,0,0.9-1,0.9-1l2,2c5.2,5.5,11,5.3,17.6,5.1l3.5-0.1l0-9.4C188.4,364.9,186.1,364.6,186,364.6L186,364.6z M155.8,338.4l4.3,20.8
			C149.1,372,130.8,349.6,155.8,338.4L155.8,338.4z"></path>
<path id="Fill-5" d="M231,296.4c-10.4,0-16,12-16.1,12.2l-1,2.3v-1.5l0-13.1l-23.1,12.6l0,65l23.2,0v-41.6l0.1-1.6
			c0.2-3.4,0.4-7,2-10c3.5-6.7,11.5-6.6,17.1-5.8l4.1-17.5C237.3,297.5,234.7,296.4,231,296.4"></path>
<path id="Fill-6" d="M561.9,297.5c0,0-2.6-1.1-6.3-1.1c-10.4,0-16,12-16.1,12.2l-1,2.3v-1.5l0-13.1l-23.1,12.6l0,65l23.2,0v-41.6
			l0.1-1.6c0.2-3.4,0.4-7,2-10c3.5-6.7,11.5-6.6,17.1-5.8L561.9,297.5"></path>
<path id="Fill-7" d="M513.2,275.5c-0.9-2.5-2.8-5-5.1-6.6c-5.4-3.2-13-2.3-17.2,2.1c-3.1,2.9-4.6,7.8-3.8,12.5
			c0.6,4.4,4.2,7.9,7.2,9.3c5,2,12.4,1.6,16.9-4C513.8,285.6,514.6,280.1,513.2,275.5L513.2,275.5"></path>
<path id="Fill-8" d="M593.9,364c-9.2-0.7-13.5-17.6-13.5-17.6l39.9-12.9c0,0-0.8-17.4-10.4-26.9c-8.8-8.7-22.2-11.2-34.5-6.2
			c-7.3,2.8-14.1,10.4-17.2,19.4c-6.1,17-2.5,36,9.1,47.3c10.7,10.2,27.3,10,39.2,6.4c0,0,6-2.6,6-2.6l0-10.8
			C612.5,360.1,605.3,364.8,593.9,364L593.9,364z M579.8,335.4c-0.6-7.3,0.3-15.1,2-18.7c1.8-3.6,3.8-5.1,6.3-5.4
			c10.6-1.3,11.7,18.1,11.7,18.1L579.8,335.4C579.8,335.5,579.8,335.4,579.8,335.4L579.8,335.4z"></path>
<path id="Fill-9" d="M489.1,308.9v64.8l23.5,0l0-77.4L489.1,308.9"></path>
<path id="Fill-10" d="M317.6,306.5c-8.8-8.7-22.2-11.2-34.5-6.2c-7.3,2.8-14.1,10.4-17.2,19.4c-6.1,17-2.5,36,9.1,47.3
			c10.7,10.2,27.3,10,39.2,6.4c0,0,6-2.6,6-2.6l0-10.8c0,0-7.3,4.7-18.6,3.8c-9.2-0.7-13.5-17.6-13.5-17.6l39.9-12.9
			C328,333.4,327.2,316,317.6,306.5L317.6,306.5z M287.5,335.5C287.5,335.5,287.5,335.4,287.5,335.5c-0.6-7.4,0.3-15.2,2-18.8
			c1.8-3.6,3.8-5.1,6.3-5.4c10.6-1.3,11.7,18.1,11.7,18.1L287.5,335.5L287.5,335.5z"></path>
<path id="Fill-11" d="M377.7,361.4c-6.2-3.2-11.3-7.9-12-21.4c-0.8-15.7,2.4-26.8,10.8-30c6.4-2.4,15.1,2.9,15.1,2.9l0.1-12.7
			c0,0-12-5.8-25.5-1.5c-12.2,3.9-20,13.4-22.8,28.9c-2,11.3-0.4,23.8,5.2,33.6c6.4,10.6,18.7,16.1,32.6,14.3
			c3.8-0.5,11.7-2.9,11.7-2.9l-0.1-11.8C392.8,360.7,384.1,364.7,377.7,361.4"></path>
<path id="Fill-12" d="M484.3,363.8c-2-0.2-2.6-4.5-2.6-4.5c0,0-4.3-25.7-4.3-25.7c0,0-1-5-1-5c-1.1-5.3-2.1-10.9-4.2-16
			c-6.7-15.4-25.7-18-39.8-13.8c-2.3,0.7-4.4,1.8-4.4,1.8v9.6c5.8-2.5,11.4-2.7,16-0.5c5.9,2.9,7.6,10.2,7.9,13.2
			c0,0.1,0.5,3.4,0.5,3.4c-6.9,1-15.4,2.7-21.7,7.2c-7,5-10.7,13-9.9,21.3c0.3,8.9,7.1,15.9,13.7,18.4c8.8,3.1,20.9,2.6,28.1-5.7
			c0,0,0.9-1,0.9-1l2,2c5.2,5.5,11,5.3,17.6,5.1l3.5-0.1l0-9.4C486.7,364.2,484.4,363.8,484.3,363.8L484.3,363.8z M454.1,337.7
			l4.3,20.8C447.4,371.3,429.1,348.9,454.1,337.7L454.1,337.7z"></path>
<path id="Fill-13" d="M395.2,373.5h23.1V273l-23.1,12.4V373.5"></path>
</g>
</g>
</svg>
