<?xml version="1.0" encoding="UTF-8" standalone="no"?>
<svg
   xmlns:dc="http://purl.org/dc/elements/1.1/"
   xmlns:cc="http://creativecommons.org/ns#"
   xmlns:rdf="http://www.w3.org/1999/02/22-rdf-syntax-ns#"
   xmlns:svg="http://www.w3.org/2000/svg"
   xmlns="http://www.w3.org/2000/svg"
   xmlns:sodipodi="http://sodipodi.sourceforge.net/DTD/sodipodi-0.dtd"
   xmlns:inkscape="http://www.inkscape.org/namespaces/inkscape"
   inkscape:version="1.0 (4035a4f, 2020-05-01)"
   height="34.133533"
   sodipodi:docname="root.svg"
   id="svg125"
   version="1.1"
   viewBox="0 0 533.2 34.133533"
   width="200">
  <metadata
     id="metadata131">
    <rdf:RDF>
      <cc:Work
         rdf:about="">
        <dc:format>image/svg+xml</dc:format>
        <dc:type
           rdf:resource="http://purl.org/dc/dcmitype/StillImage" />
        <dc:title></dc:title>
      </cc:Work>
    </rdf:RDF>
  </metadata>
  <defs
     id="defs129" />
  <sodipodi:namedview
     fit-margin-bottom="0"
     fit-margin-right="0"
     fit-margin-left="0"
     fit-margin-top="0"
     inkscape:current-layer="svg125"
     inkscape:window-maximized="1"
     inkscape:window-y="23"
     inkscape:window-x="51"
     inkscape:cy="34.834871"
     inkscape:cx="100"
     inkscape:zoom="5.37"
     showgrid="false"
     id="namedview127"
     inkscape:window-height="755"
     inkscape:window-width="1229"
     inkscape:pageshadow="2"
     inkscape:pageopacity="0"
     guidetolerance="10"
     gridtolerance="10"
     objecttolerance="10"
     borderopacity="1"
     bordercolor="#666666"
     pagecolor="#ffffff" />
  <g
     transform="translate(0,-28.433234)"
     id="g121"
     fill="currentColor">
    <path
       id="path119"
       d="M 44.6,83.3 29.1,52.2 H 16.2 V 83.4 H 0 V 0.6 H 36.3 C 50.5,0.6 62,12.2 62,26.4 62,36.6 56,45.9 46.7,50 l -0.5,0.2 16.5,33.2 H 44.6 Z M 16.2,36 h 20.1 c 5.3,0 9.6,-4.3 9.6,-9.6 0,-5.3 -4.3,-9.6 -9.6,-9.6 H 16.2 Z m 93,46.8 C 86.4,82.8 67.8,64.2 67.8,41.4 67.8,18.6 86.4,0.1 109.2,0.1 c 22.8,0 41.4,18.6 41.4,41.4 0,22.8 -18.6,41.3 -41.4,41.3 z m 0,-66.5 C 95.3,16.3 84,27.6 84,41.5 c 0,13.9 11.3,25.2 25.2,25.2 13.9,0 25.2,-11.3 25.2,-25.2 0,-13.9 -11.3,-25.2 -25.2,-25.2 z m 88.5,66.5 c -22.8,0 -41.4,-18.6 -41.4,-41.4 0,-22.8 18.6,-41.4 41.4,-41.4 22.8,0 41.4,18.6 41.4,41.4 0,22.8 -18.6,41.4 -41.4,41.4 z m 0,-66.5 c -13.9,0 -25.2,11.3 -25.2,25.2 0,13.9 11.3,25.2 25.2,25.2 13.9,0 25.2,-11.3 25.2,-25.2 0,-13.9 -11.3,-25.2 -25.2,-25.2 z m 64.4,66.6 V 16.3 H 239 V 0.2 h 62.3 v 16.1 h -23 v 66.6 z m 120.3,-24 c -4.9,4.9 -11.8,7.8 -19.3,7.4 -12.6,-0.8 -22.8,-11.2 -23.4,-23.7 -0.7,-14.3 10.8,-26.2 25,-26.2 6.9,0 13.2,2.8 17.7,7.4 L 394,12.3 c -8.2,-8.2 -19.8,-13 -32.6,-12 -20.3,1.6 -36.6,18.2 -37.9,38.4 -1.5,24 17.5,44 41.2,44 11.4,0 21.8,-4.7 29.2,-12.2 z m 79.2,23.8 V 66.2 H 426.8 L 461.4,2.4 C 462,1.4 461.2,0.1 460,0.1 H 399.7 V 16 H 435 l -35,64.4 c -0.6,1 0.2,2.3 1.4,2.3 z M 301.3,66.5 h 16.4 v 16.4 h -16.4 z" />
  </g>
  <path
     id="path123"
     d="m 473.2,46.166766 h 60 v 16.4 h -60 z"
     fill="#f04c23" />
</svg>
