<?xml version="1.0" encoding="UTF-8"?>
<svg width="118px" height="49px" viewBox="0 0 118 49" version="1.1" xmlns="http://www.w3.org/2000/svg" xmlns:xlink="http://www.w3.org/1999/xlink">
    <!-- Generator: Sketch 54 (76480) - https://sketchapp.com -->
    <title>Isotype V2</title>
    <desc>Created with Sketch.</desc>
    <g id="Current" stroke="none" stroke-width="1" fill="none" fill-rule="evenodd">
        <g id="04-/-15---Branding" transform="translate(-194.000000, -467.000000)">
            <g id="Isotype-/-V1" transform="translate(194.000000, 467.000000)">
                <g id="Isotype">
                    <path d="M17.9433837,25.1619653 C17.2338643,29.7978934 16.5407976,34.4369345 15.8086558,39.0692306 C15.3577511,41.9218699 14.8909079,44.7745092 14.3166085,47.6032814 C14.2235483,48.0624639 13.5808677,48.6581042 13.1124821,48.7416391 C11.8934455,48.9595562 10.6307066,48.9268687 9.38544864,48.9963946 C8.63119867,49.0384215 8.20137387,48.7146589 8.03376277,47.9394964 C7.29442298,44.5213102 6.48773027,41.1176518 5.77564015,37.6937582 C4.33654971,30.7717755 2.94013327,23.8404535 1.53240564,16.9117257 C1.02494503,14.41398 0.536507757,11.9126024 0.0357310196,9.41381904 C-0.102573849,8.7242669 0.160153987,8.16961586 0.832140841,8.13173978 C2.74424421,8.02589431 4.66560219,7.95844376 6.5782197,8.02900741 C7.42450154,8.06065728 7.58080147,8.92973165 7.68003135,9.65300906 C8.28415113,14.0305496 8.82811601,18.4169106 9.49290484,22.784593 C9.95357831,25.8063775 10.5777497,28.8027384 11.3026935,31.8157024 C11.5685062,30.0386399 11.8332906,28.2626151 12.0996174,26.4855526 C12.6734027,22.6517673 13.2842063,18.8226516 13.8045206,14.9810835 C14.0235461,13.3664211 14.0477109,11.7247786 14.1664783,10.0955884 C14.2554253,8.88044086 14.6230386,8.37456175 15.7922032,8.28843259 C17.1634265,8.18777562 18.5485318,8.2329156 19.9254108,8.27182938 C20.8395597,8.2977719 21.1902062,8.99406909 21.3279969,9.76975039 C21.8621931,12.7806391 22.4138701,15.7899712 22.8642607,18.81435 C23.4802058,22.9469931 24.007718,27.0931264 24.5789326,31.2325146 C24.6097812,31.4535449 24.6946151,31.6667924 24.9192962,31.8940488 C25.1758543,30.572537 25.5002795,29.2603644 25.6766311,27.9289943 C26.3059439,23.1758061 26.8874414,18.4169106 27.4807641,13.6595716 C27.6319226,12.444424 27.7234403,11.220456 27.9044192,10.0099781 C28.1085345,8.63865659 28.7177958,8.12810783 30.0766797,8.12343818 C31.390833,8.11876852 32.7060146,8.1524938 34.0206821,8.15612575 C35.3559153,8.15923885 35.7019346,8.5810642 35.4361219,9.87767126 C34.945628,12.2737223 34.4314835,14.6651036 33.988291,17.069975 C32.4412302,25.4618609 30.9157635,33.8573786 29.3923533,42.2534152 C29.0771828,43.9900074 28.8016013,45.7333447 28.5105955,47.4735688 C28.380517,48.2544386 27.9234425,48.6814524 27.1470843,48.7276301 C25.936274,48.8002692 24.7249496,48.8796533 23.513111,48.9009261 C22.1825051,48.9242744 21.7187468,48.4718369 21.5244001,47.1145243 C21.0282507,43.6511981 20.534672,40.1878719 20.0246407,36.7276589 C19.4935294,33.127875 18.9449372,29.5312043 18.3999441,25.9340147 C18.3603549,25.6745895 18.2827191,25.4213905 18.2225642,25.1650784 C18.129504,25.1640407 18.036958,25.163003 17.9433837,25.1619653 Z M55.6004576,25.4528329 C55.1588075,28.0922247 54.7258978,30.733173 54.2724224,33.3699706 C53.8163762,36.0181829 53.317656,38.6586124 52.8801191,41.3094189 C52.5649485,43.2203448 52.306848,45.1411288 52.0482333,47.0608752 C51.8965607,48.1904124 51.463651,48.6137943 50.3351038,48.59771 C49.1212087,48.5800691 47.8990872,48.6143132 46.6995881,48.4711105 C46.2625653,48.4192255 45.6070311,47.9916928 45.5144851,47.6181205 C44.9741192,45.4571087 44.5730865,43.2608151 44.1242383,41.0764551 C43.713951,39.0804377 43.2877253,37.0870146 42.8944047,35.0873653 C42.1468386,31.2857487 41.4527436,27.4732362 40.6707298,23.6783646 C40.0126248,20.4843218 39.2501485,17.3120706 38.5550252,14.1252917 C38.2434536,12.6984532 37.9452498,11.2664262 37.7113141,9.82505984 C37.5323918,8.72042741 37.8953778,8.22025566 38.9714822,8.23322692 C40.6198295,8.25449978 42.2784596,8.33907239 43.9041845,8.58500746 C44.3016182,8.64519411 44.7998242,9.39700829 44.8949409,9.89925544 C45.4065147,12.6045412 45.7715573,15.3373261 46.2522824,18.0488381 C46.9587169,22.0330901 47.7222215,26.0069651 48.4584764,29.9860285 C48.5325132,30.3855433 48.5890691,30.7881712 48.8425424,31.2302317 C48.9011548,30.9085445 48.9649088,30.5878949 49.0158091,30.2646512 C50.0944842,23.4843146 51.1813857,16.7055345 52.2369243,9.92104716 C52.3901394,8.93782571 52.5479817,8.25553748 53.8420834,8.44024821 C55.06112,8.61458193 56.3228306,8.48538819 57.5655178,8.4885013 C58.1711801,8.49005785 58.4359645,8.77023704 58.5331378,9.40271564 C59.5161821,15.7892448 60.5095092,22.1747362 61.5537367,28.5514072 C61.7650501,29.8428258 62.2051578,31.0968871 62.7537499,32.3514673 C62.9511814,31.295088 63.1943718,30.2449348 63.3378181,29.1812916 C64.216491,22.6769834 65.0694567,16.1695621 65.9368185,9.66421622 C66.1229388,8.27214069 66.4915804,7.98417874 67.8504643,8.03606378 C69.1306841,8.08431686 70.4129605,8.08431686 71.6931802,8.1351642 C72.8093879,8.17926648 73.1281575,8.47345463 72.9564333,9.56615351 C72.3970441,13.1223539 71.7168309,16.6593569 71.1774933,20.2181515 C70.2396938,26.4095929 68.9440496,32.5221691 67.5085582,38.6139912 C66.8797595,41.2839952 66.6411965,44.0473923 66.2201121,46.7677247 C65.9861764,48.2817301 65.4992815,48.6781318 64.0087766,48.6760564 C63.1059389,48.6750187 62.2020729,48.7248283 61.3002634,48.7798265 C60.0056476,48.8581729 59.2940716,48.2900317 59.124404,47.0712522 C58.412828,41.9527933 57.7038227,36.8338156 56.9583132,31.7205453 C56.6503406,29.6067489 56.2534211,27.5064426 55.8966048,25.3999101 C55.7978891,25.417551 55.6991733,25.4351919 55.6004576,25.4528329 Z" id="Combined-Shape" fill="#000000"/>
                    <path d="M84.1667419,26.0429594 C85.4466184,26.0429594 86.6342467,26.1927097 87.7675805,26.0115432 C90.0258138,25.6507809 91.9862177,24.7318581 92.4516752,22.1976209 C92.6282644,21.2347155 92.6119233,20.2084542 92.5091326,19.2293171 C92.2814116,17.0579366 90.553473,14.3807558 87.5873013,14.460867 C86.8308669,14.4812875 86.0744325,14.5425491 85.3185253,14.5362658 C84.6812227,14.5315534 84.5183389,14.8321014 84.4967265,15.4185364 C84.4113312,17.748045 84.2621528,20.0749355 84.1746489,22.4039204 C84.1303698,23.5909278 84.1667419,24.7810768 84.1667419,26.0429594 M84.0428659,31.8444776 C84.0428659,35.192917 84.0212535,38.4120266 84.0507729,41.6306126 C84.0681682,43.551711 84.1809745,45.4717622 84.2236722,47.3933842 C84.2479202,48.4662462 83.975393,48.6730693 82.8742143,48.691919 C81.5975007,48.7139103 80.3223684,48.8264849 79.0456548,48.8421929 C77.3909875,48.8631371 76.977716,48.42174 77.0009098,46.7655845 C77.0172509,45.6351262 77.0594215,44.5051915 77.0668013,43.3752569 C77.1042277,37.8454885 77.1458711,32.31572 77.1611579,26.785428 C77.177499,20.913747 77.1727548,15.0415425 77.157468,9.16933786 C77.1558866,8.37922135 77.5317317,7.99175533 78.2681351,8.00013297 C82.0292218,8.04254479 85.8082309,7.90064845 89.5466509,8.22004612 C96.2670565,8.79496191 100.370252,14.9656201 99.6617864,20.4299381 C99.1668095,24.2422896 97.743026,27.4216053 94.6777535,29.7971909 C94.1395518,30.2145023 94.104234,30.5527497 94.3203581,31.1685065 C96.197475,36.5129195 98.0366385,41.8709462 99.8726392,47.2294965 C100.236887,48.2934573 99.8141275,48.9118321 98.677631,48.9463899 C97.0588087,48.9956085 95.4378779,48.9809477 93.8180013,48.9997974 C92.9276754,49.010793 92.4537837,48.5741083 92.1802022,47.7352968 C90.5740311,42.8071479 88.9067127,37.8988959 87.3268981,32.9623694 C87.0264329,32.0230261 86.5683552,31.6894912 85.6263704,31.8334819 C85.1962307,31.8989323 84.7481685,31.8444776 84.0428659,31.8444776" id="Fill-35" fill="#000000"/>
                    <path d="M106.585001,0.645746535 C107.327852,0.315993792 108.104938,0.0533597711 108.908216,0.0178022193 C109.653336,-0.0152960206 110.424441,-0.0114021101 111.168117,0.109616532 C111.810121,0.214137289 112.879748,0.604040704 113.444105,0.891575258 C115.003433,1.68613796 115.285456,2.0591336 115.814753,2.87419057 C116.398084,3.77235178 116.811271,4.81335804 116.916141,4.98981367 C117.318089,6.03901762 117.300559,6.9626942 117.271274,7.98310372 C117.238896,9.1104933 116.854787,10.1810113 116.355393,11.1906613 C115.61512,12.6872551 114.530953,13.9280805 113.081857,14.7382188 C111.823113,15.4419919 110.406499,15.6208044 108.929148,15.4650479 C107.247937,15.2877725 105.751201,14.7401657 104.412336,13.7676103 C103.776313,13.3056696 103.473666,12.5541448 103.051095,11.9041692 C102.330414,10.7960442 101.935684,9.64129479 101.80122,8.33540015 C101.698928,7.34132577 101.804829,6.39879447 102.081594,5.34723367 C102.823826,3.1750464 104.388,1.62086372 106.585001,0.645746535 Z" id="Fill-29" fill="#F03E3E"/>
                </g>
            </g>
        </g>
    </g>
</svg>