<svg xmlns="http://www.w3.org/2000/svg" viewBox="0 0 5000 5000">
  <path fill="#ffeb3b" d="M0 0h5000v5000H0z"/>
  <path d="M1449 1494q-182 0-277 93-101 96-101 317v85H878v189h193v691q0 40-16 55a89 89 0 0 1-49 19l-74 7v171h596v-180l-189-9v-754h333v-189h-333v-106q0-94 36-140t130-46 203 56l65-180q-141-78-324-79m-853 9q-139 0-211 77-72 76-72 213l18 381q0 112-26 166-25 54-118 65v167q90 11 116 67 26 57 26 151l-25 430q0 133 75 209 76 77 213 77 83 0 178-20l-23-172q-45 12-101 12t-78-41-21-128l25-396q0-124-32-183-31-60-117-89 81-34 115-101t34-183l-21-367q1-87 22-122t91-35q27 0 90 11l22-166q-90-23-180-23m3808 0q-90 0-180 23l22 166q63-11 90-11 70 0 91 35 22 35 22 122l-21 367q0 116 34 183t115 101q-85 29-117 89-32 59-32 183l25 396q0 88-21 128-22 41-78 41t-101-12l-23 172q95 20 178 20 137 0 213-77 75-76 75-209l-25-430q0-94 26-151 26-56 116-67v-167q-93-11-118-65-26-54-26-166l18-381q0-136-72-213t-211-77m-2658 486v174l115 13 277 382-259 325q-38 47-90 54l-70 6v178h468v-180l-105-7 186-231 137 180q18 19 13 37-5 16-35 19l-70 4v178h536v-178l-115-13-295-392 248-313q42-53 90-56l67-4v-176h-456v180l92 7-173 225-129-171q-15-20-8-38 8-18 35-21l66-4v-178Zm1166 0v176l65 4q29 3 42 14 12 11 23 42l315 896h344l291-898q16-49 61-54l69-4v-176h-475v180l117 7-225 740h-4l-232-740 138-7v-180z"/>
</svg>
