<svg xmlns="http://www.w3.org/2000/svg" viewBox="0 0 5000 1530">
  <path fill="#35383c" stroke="#f9f9f9" stroke-width="50.5" d="M231 222a750 750 0 0 0 1038 1082l244 226V752A750 750 0 0 0 231 222" paint-order="stroke fill markers"/>
  <circle cx="754.9" cy="745.9" r="512.8" fill="#fff"/>
  <circle cx="754.9" cy="745.9" r="254.8" fill="#e33e11"/>
  <path fill="#fff" d="M2691 1077h146V541h-146zm146-738h-146v118h146zm120 738h146V765c0-104 71-121 101-121 92 0 89 69 89 133v300h146V778c0-66 16-134 99-134s89 58 89 129v304h148V718c0-138-83-191-197-191-65 1-125 35-160 89-29-60-92-95-158-89-65 0-126 32-162 87h-1v-73h-140zm965 0h147V639h102v-98h-102v-30c0-46 17-62 56-62l54 3V342l-80-3c-120 0-180 68-180 162v39h-84v99h87zm813-536h-146v280c0 108-34 152-113 152-68 0-94-44-94-131V541h-148v330c0 133 41 221 196 221 66 1 128-34 163-90h3v75h139zm117 536h148V339h-148ZM2194 348h164l273 729h-166l-55-162h-273l-56 162h-163zm-14 447h188l-93-267h-1z"/>
</svg>
