<svg xmlns="http://www.w3.org/2000/svg" width="5000" height="2866" viewBox="0 0 5000 2866">
  <path fill="#1c3997" d="M0 0v2443h423v423h4577V0Z"/>
  <path fill="#fff" d="M2740 997h-54v357q1 27-3 54-2 28-12 51-9 23-32 36-21 13-60 14v138q134 1 197-66 64-62 65-206V943h-101zm525 378v-50h53v-84q-38-1-59-15-21-13-33-36-10-23-12-50l-3-54V943h107v-87h-107V701h-101v54h-54v355q-1 138 66 206 48 49 143 59m-686-432h-146v27c-57-21-75-27-128-27a200 200 0 0 0-149 66q-28 29-42 68a259 259 0 0 0 0 170q14 41 45 69 30 29 65 44 38 16 84 15c53 0 89-12 125-39v39h92v-53h54zm-146 259q-7 19-24 33-14 14-33 24-19 9-41 9-23 0-42-9-19-8-33-24-15-14-21-33-9-19-9-41 0-21 9-42 8-19 21-33 14-14 33-24 19-9 42-9 22 0 41 9 19 8 33 24 14 14 24 33 9 19 9 42 0 22-9 41m1398 582h-53v381h155v-435h-102zm-611 211-110-265h-87v54h-53l170 381h155l196-435h-161Zm528-1052-108 209-110-209h-83v54h-57l167 301-185 346h164l373-701zm554 787v-86h-107v-155h-101v53h-54v355q-1 138 66 206 50 49 146 62v-50h53v-87a95 95 0 0 1-92-51q-10-22-12-50l-3-54v-143Z"/>
  <path fill="#f9596d" d="M2740 755h-54v101h155V701h-101zm1091 734v53h-53v102h155v-155z"/>
</svg>
