<svg xmlns="http://www.w3.org/2000/svg" width="5000" height="1820" viewBox="0 0 5000 1820">
  <path fill="#1d1d1d" d="M333 0A333 333 0 0 0 0 333v865c0 184 149 333 333 333h303a671 671 0 0 1 172 29l16 4 4 1h1l1 1 5 1 19 7 69 25 214 77 370 136 14 5V333c0-184-149-333-333-333Zm2453 94q-99 29-209 36v7q27 17 36 25 9 9 15 33t7 69v432q0 52-10 70-10 17-48 36v6h266v-6q-36-20-47-36-9-18-10-70zm-543 3q-57 39-147 72l35 67-138 372q-29 78-53 116t-75 78v6h209v-6q-42-21-60-39a65 65 0 0 1-17-47q0-28 30-115l8-22h223l35 97q15 43 16 61 0 19-15 33-14 14-52 32v6h320v-6q-27-15-43-30-15-13-21-25l-15-34-1-1zm-96 177 95 259h-189zm914 58q-105 31-205 36v7q38 22 47 43 10 21 10 84v195q0 51-10 69-9 18-47 36v7h265v-7q-36-19-46-36-10-18-10-69V469q36-59 89-59 38 0 52 29 15 30 15 117l-1 140q-2 53-12 69-10 18-48 37v6h266v-6q-37-19-47-37-10-16-10-69V468q36-59 83-59 30 0 51 23t21 66l-1 198q-2 50-12 67-9 18-49 38v7h267v-7q-37-19-48-36-9-18-10-69V474q0-40-14-69-15-29-37-44-22-13-46-21-22-6-45-7-100 0-166 103-11-55-52-78-42-24-85-24-100 0-165 102zm972 3q-87 0-146 35-60 36-86 84l104 61 5-1q9-63 35-109 27-46 70-46 29-1 44 21 13 21 13 48l-2 76q-149 37-228 85-78 48-78 119 0 49 36 80t96 31 105-30 67-70h1q-3 39 18 71 21 30 74 30v1h1q47-1 77-31 31-27 45-66l-9-4q-16 38-43 38-23 0-23-31l4-227q1-30-5-57-7-27-25-52-18-26-56-41-39-15-94-15m37 190-4 166q-40 48-87 48l1-1q-27 0-44-18a79 79 0 0 1-16-54q0-96 150-141m-1838 505q-152 0-251 96-98 95-98 267 0 89 28 157 28 69 77 110t110 60q62 21 132 20 113 0 227-31l20-196h-7q-53 82-115 140-62 57-118 58-67 0-121-85-53-85-53-247 0-159 52-239 51-81 118-81h2q102 0 235 195h7l-20-192q-132-32-225-32m1037 221q-104 32-206 36v7q38 20 48 42 10 21 10 77v203q0 51-10 69-10 17-47 36l-1 6h284v-7q-49-18-62-36t-13-69v-241q17-35 47-35 42-1 104 78h7l20-154q-22-11-46-11-53 0-88 30-35 29-47 65h-2zm1382 0q-102 32-205 36v7q36 20 47 42 11 21 11 77v203q0 51-10 69-10 17-48 36l-1 6h285v-7q-50-18-62-36-13-18-13-69v-241q17-35 47-35 42-1 104 78h7l19-154q-21-11-46-11-52 0-87 30-34 29-48 65h-2zm-939 2q-108 0-175 67-68 67-68 175 0 110 70 175 69 66 174 66 55 0 96-18 40-19 63-49 22-30 33-55 12-26 18-53l-7-3q-41 79-137 79-71 0-122-45-51-44-52-135v-13h315v-12q-1-25-10-53-11-28-33-57-22-30-65-49-43-20-100-20m498 0q-107 0-176 67-67 67-67 175 0 110 69 175 70 66 175 66 54 0 95-18 42-19 64-49t33-55 17-53l-7-3q-40 79-136 79-71 0-122-45-51-44-52-135v-13h315v-12q-1-25-10-53-10-28-33-57-23-30-65-49-43-20-100-20m210 308zm-1616-307q-87 0-146 35-60 35-86 83l104 62 5-1q9-63 35-110 26-46 70-46 30 0 43 21 15 21 13 49l-2 75q-148 38-227 86t-79 119q0 49 37 79 36 31 96 31 58 0 105-30 45-30 66-70h1q-2 41 19 71 21 31 74 31h1q47-1 77-30 32-27 44-67l-8-4q-16 38-43 38-24 1-23-31l4-227q1-30-5-56-7-26-25-53-18-26-56-40-39-15-94-15m892 23zq23 0 41 15 19 15 28 39a228 228 0 0 1 17 87l-176 2q6-68 28-105 23-38 61-38zm498 0q24 0 42 15t28 39a228 228 0 0 1 17 87l-176 2q5-68 28-105 22-38 61-38zm-1354 166-4 167q-39 47-86 47h-1q-26 0-42-19a78 78 0 0 1-16-53q0-97 149-142m2051 138q-32 0-56 23a75 75 0 0 0-24 55q0 29 23 53 24 23 57 23 32 0 55-23 24-23 24-53 0-32-24-55a75 75 0 0 0-55-23"/>
  <path fill="#ffcb3b" d="M474 240a234 234 0 1 1 0 468 234 234 0 0 1 0-468"/>
  <path fill="#4dd7be" d="M1146 781a344 344 0 0 0-343 323l-1 21v156l480 177V781Z"/>
  <path fill="#8f66ff" d="M802 240h271c115 0 209 93 209 208v260H802Z"/>
  <path fill="#fd7e40" d="M448 1281h260l1-10v-146c0-190-154-344-344-344H240v292c0 115 93 208 208 208"/>
</svg>
