<?xml version="1.0" encoding="UTF-8"?>
<svg id="svg16" width="122.71" height="44.86" fill="none" version="1.1" viewBox="0 0 122.71 44.86" xmlns="http://www.w3.org/2000/svg">
 <g id="g16" transform="translate(-.6991 -.65271)" clip-path="url(#clip0_340_1628)">
  <path id="path1" d="m30.026 0.65271h-21.095c-4.5456 0-8.2321 3.6854-8.2321 8.2298v21.346c0 4.5444 3.6864 8.2298 8.2321 8.2298h7.4757c0.7949 0 1.9783 0.2058 2.9815 0.4192 0.4991 0.1055 0.9442 0.2109 1.2683 0.2906 0.1621 0.0386 0.2907 0.072 0.3807 0.0952 0.0438 0.0103 0.0798 0.0206 0.1029 0.0257 0.0103 0.0026 0.018 0.0052 0.0232 0.0052 0.0077 0 0.018 0.0051 0.0309 0.0102 0.0283 0.0103 0.0694 0.0258 0.1234 0.0438 0.1081 0.0385 0.2676 0.0977 0.4708 0.1697 0.4065 0.1466 0.9879 0.3575 1.6927 0.6147 1.4098 0.5118 3.3109 1.201 5.2788 1.9134 3.9334 1.4274 8.1215 2.9499 9.1479 3.3356l0.3473 0.1312v-36.63c0-4.5444-3.6864-8.2298-8.2321-8.2298z" fill="#1d1d1d"/>
  <path id="path2" d="m61.995 18.261c0.1543 0.4038 0.283 0.6558 0.3781 0.841 0.0952 0.1852 0.2727 0.3909 0.5223 0.6224 0.2495 0.2315 0.6045 0.4732 1.0547 0.7252v0.1595h-7.9079v-0.1595c0.6277-0.2983 1.0676-0.5658 1.3042-0.7972 0.2367-0.2315 0.355-0.4938 0.355-0.7973s-0.1312-0.7972-0.3936-1.5225l-0.8643-2.3764h-5.4898l-0.2006 0.5427c-0.4965 1.4196-0.7461 2.3635-0.7461 2.8393s0.1441 0.8307 0.4271 1.1419 0.7717 0.6352 1.4715 0.9695v0.1595h-5.1579v-0.1595c0.8412-0.6583 1.4586-1.3039 1.8496-1.9262 0.391-0.6224 0.8284-1.5791 1.3146-2.8702l3.3905-9.1685-0.8643-1.6511c1.5049-0.55294 2.714-1.1419 3.6401-1.7746l5.9039 15.166zm-5.9528-4.4389-2.3359-6.4013-2.323 6.4013h4.6614z" fill="#1d1d1d"/>
  <path id="path3" d="m64.333 20.453c0.6148-0.3111 1.0084-0.6095 1.1731-0.9001 0.1646-0.288 0.2495-0.8538 0.2495-1.7077v-10.668c0-0.7484-0.0617-1.3271-0.1647-1.718-0.1054-0.39091-0.2366-0.65838-0.3807-0.79726-0.144-0.13888-0.4399-0.3472-0.8772-0.63524v-0.15945c1.8136-0.12859 3.5346-0.42692 5.1579-0.90014v14.878c0 0.8539 0.0823 1.4197 0.2495 1.7077 0.1672 0.2881 0.5583 0.589 1.1602 0.9001v0.1595h-6.5805z" fill="#1d1d1d"/>
  <path id="path4" d="m91.342 17.824c0 0.8538 0.0823 1.4196 0.2495 1.7076 0.1672 0.2881 0.5582 0.589 1.1731 0.9002v0.1594h-6.5805v-0.1594c0.6508-0.3344 1.0547-0.6455 1.2091-0.9336 0.1543-0.288 0.2495-0.841 0.2829-1.6588 0.0129-0.6352 0.0232-2.2606 0.0232-4.889 0-0.7253-0.1775-1.2679-0.5197-1.6383-0.3447-0.3703-0.7589-0.5529-1.2451-0.5529-0.7717 0-1.4586 0.4835-2.0631 1.4428v5.64c0 0.8538 0.0823 1.4196 0.2495 1.7076 0.1672 0.2881 0.5582 0.5864 1.1731 0.9002v0.1594h-6.5805v-0.1594c0.6148-0.3112 1.0213-0.6095 1.1962-0.9002 0.1775-0.288 0.2727-0.8538 0.283-1.7076 0.0128-0.4398 0.0231-1.592 0.0231-3.472 0-1.4299-0.1183-2.3892-0.3576-2.8701-0.2366-0.4835-0.6637-0.7253-1.2785-0.7253-0.8772 0-1.6104 0.4835-2.2046 1.4634v5.6142c0 0.8539 0.0823 1.4197 0.2495 1.7077 0.1646 0.2881 0.5454 0.5864 1.1396 0.9002v0.1594h-6.5548v-0.1594c0.6149-0.3112 1.0085-0.6096 1.1731-0.9002 0.1646-0.288 0.2495-0.8538 0.2495-1.7077v-4.8092c0-1.0365-0.0823-1.7309-0.2495-2.0781s-0.5582-0.7021-1.1731-1.0596v-0.15946c1.6464-0.09258 3.3443-0.39091 5.0756-0.90013v2.5718c1.065-1.682 2.4182-2.5256 4.0543-2.5256 0.7229 0 1.4226 0.19546 2.0992 0.58895 0.6765 0.39348 1.1139 1.0364 1.3042 1.9263 1.0779-1.682 2.4414-2.5256 4.0775-2.5256 0.3679 0 0.746 0.05658 1.1268 0.17231 0.3807 0.11574 0.7589 0.28805 1.1267 0.51951 0.3679 0.23146 0.6766 0.58893 0.9133 1.0724 0.2366 0.4835 0.355 1.0596 0.355 1.718v5.4677h-0.0052z" fill="#1d1d1d"/>
  <path id="path5" d="m103.43 20.91c-0.864 0-1.472-0.2547-1.814-0.7613-0.342-0.5067-0.496-1.0956-0.463-1.754h-0.023c-0.355 0.6584-0.9 1.2319-1.6489 1.7308-0.746 0.4964-1.613 0.7382-2.5957 0.7382s-1.7776-0.2546-2.3693-0.7613c-0.5942-0.5066-0.8901-1.165-0.8901-1.9623 0-1.165 0.6509-2.1449 1.9423-2.9396s3.1642-1.4993 5.6077-2.1089l0.049-1.8671c0.013-0.4501-0.095-0.8538-0.319-1.201-0.226-0.34724-0.581-0.51955-1.0673-0.51955-0.7229 0-1.3043 0.38063-1.7313 1.1418-0.4271 0.7613-0.7126 1.6589-0.8644 2.7004l-0.1183 0.0232-2.5726-1.5122c0.4374-0.7973 1.1397-1.4865 2.1095-2.0652 0.9724-0.57866 2.1815-0.86413 3.6174-0.86413 0.913 0 1.685 0.12859 2.312 0.37034 0.628 0.24175 1.091 0.57866 1.387 1.003 0.296 0.4269 0.496 0.8539 0.607 1.2911 0.105 0.4397 0.154 0.9001 0.144 1.3965l-0.118 5.6065c0 0.5195 0.19 0.7741 0.581 0.7613 0.437 0 0.795-0.3112 1.065-0.9336l0.201 0.0926c-0.214 0.6455-0.582 1.201-1.104 1.6511-0.52 0.4501-1.103 0.751-1.898 0.751h-0.024v-0.0052zm-4.484-2.0189c0.7718 0 1.482-0.3909 2.135-1.1753l0.095-4.1072c-2.4538 0.7381-3.686 1.9031-3.686 3.4925 0 0.5658 0.1312 1.003 0.4013 1.3168 0.2752 0.3112 0.6277 0.4629 1.0676 0.4629l-0.0129 0.0128z" fill="#1d1d1d"/>
  <path id="path6" d="m55.836 26.797c-1.1036 0-2.0451 0.679-2.9095 1.9958-0.8644 1.3142-1.2914 3.2868-1.2914 5.9177 0 2.631 0.4399 4.6936 1.3171 6.0901 0.8773 1.3965 1.8728 2.0857 2.9764 2.0857 0.9261 0 1.8985-0.4732 2.9147-1.4299 1.0213-0.9567 1.968-2.0986 2.8452-3.4359h0.1646l-0.4862 4.8195c-1.8856 0.5195-3.7584 0.7844-5.6209 0.7844-1.1602 0-2.2407-0.162-3.2465-0.4938-1.0085-0.3343-1.9088-0.8306-2.714-1.4993-0.8078-0.6687-1.4458-1.5688-1.9089-2.7004-0.463-1.1291-0.6894-2.4201-0.6894-3.8758 0-2.8367 0.8078-5.0407 2.431-6.607 1.6233-1.5688 3.6865-2.3532 6.1895-2.3532 1.541 0 3.3906 0.2649 5.5592 0.7844l0.4862 4.7399h-0.1646c-2.1944-3.2173-4.1237-4.8222-5.7959-4.8222h-0.054z" fill="#1d1d1d"/>
  <path id="path7" d="m73.08 43.589c-0.8644 0-1.4715-0.2546-1.8136-0.7613-0.3422-0.5066-0.4965-1.0956-0.4631-1.7539h-0.0257c-0.355 0.6583-0.9004 1.2319-1.6464 1.7308-0.746 0.4963-1.613 0.7381-2.5957 0.7381s-1.7776-0.2546-2.3693-0.7613c-0.5942-0.5066-0.8901-1.165-0.8901-1.9623 0-1.165 0.6509-2.1449 1.9449-2.9395 1.2914-0.7947 3.1642-1.4994 5.608-2.1089l0.0489-1.8672c0.0129-0.45-0.0952-0.8538-0.319-1.201-0.2263-0.3472-0.5814-0.5195-1.0676-0.5195-0.7228 0-1.3042 0.3806-1.7313 1.1419-0.427 0.7612-0.7126 1.6588-0.8643 2.7004l-0.1184 0.0231-2.5725-1.5122c0.4399-0.7973 1.1396-1.4865 2.1121-2.0652 0.9724-0.5786 2.1814-0.8641 3.6169-0.8641 0.9133 0 1.685 0.1286 2.3127 0.3703 0.6277 0.2418 1.0908 0.5787 1.3866 1.003 0.2958 0.427 0.4965 0.8539 0.6071 1.2911 0.1055 0.4398 0.1544 0.9001 0.1415 1.3965l-0.1183 5.6066c0 0.5195 0.1903 0.7741 0.5814 0.7612 0.4373 0 0.7949-0.3112 1.065-0.9336l0.2006 0.0926c-0.2135 0.6456-0.5814 1.2011-1.1036 1.6511-0.5196 0.4501-1.1036 0.751-1.8985 0.751h-0.0231v-0.0051zm-4.4839-2.0189c0.7718 0 1.4818-0.3909 2.1352-1.1753l0.0952-4.1072c-2.4542 0.7381-3.6864 1.9031-3.6864 3.4951 0 0.5658 0.1312 1.003 0.4013 1.3142 0.2752 0.3112 0.5865 0.4732 1.0264 0.4732h0.0309z" fill="#1d1d1d"/>
  <path id="path8" d="m76.341 43.149c0.6148-0.3112 1.0084-0.6095 1.1731-0.9001 0.1646-0.2881 0.2495-0.8539 0.2495-1.7077v-5.0048c0-0.9104-0.0823-1.5456-0.2624-1.9031-0.1775-0.3575-0.5685-0.7021-1.1731-1.0365v-0.1594c1.685-0.0926 3.3778-0.3909 5.0756-0.9001l-0.0489 2.3635h0.0489c0.2135-0.589 0.6046-1.1188 1.1731-1.6023s1.2914-0.7252 2.1558-0.7252c0.4013 0 0.782 0.0926 1.1396 0.2649l-0.4862 3.7934h-0.1647c-1.0213-1.2911-1.8728-1.9366-2.5751-1.9263-0.4965 0-0.89 0.288-1.1602 0.8641v5.9512c0 0.8539 0.1055 1.4197 0.319 1.7077s0.7229 0.5889 1.5281 0.9001v0.1595h-7.0178l0.0231-0.1389z" fill="#1d1d1d"/>
  <path id="path9" d="m97.552 39.194c-0.0952 0.45-0.2366 0.8898-0.427 1.3039-0.1904 0.414-0.4631 0.877-0.8284 1.3733-0.3653 0.4938-0.8901 0.8873-1.5641 1.1882-0.6765 0.3009-1.4586 0.4501-2.3487 0.4501-1.7313 0-3.1642-0.5427-4.3167-1.6151-1.1499-1.0725-1.7184-2.5153-1.7184-4.3233 0-1.8079 0.5582-3.2173 1.6721-4.3258 1.1139-1.1084 2.5623-1.6588 4.3373-1.6588 0.9261 0 1.7416 0.1595 2.4542 0.4835 0.71 0.3241 1.2451 0.7253 1.6104 1.2114 0.3653 0.486 0.6405 0.9567 0.8078 1.4196 0.1646 0.4629 0.2495 0.9001 0.2495 1.3039v0.2881h-7.7639v0.324c0 1.4994 0.4271 2.6155 1.2683 3.3459 0.8412 0.7253 1.8496 1.0956 3.0124 1.0956 1.577 0.0129 2.7011-0.6352 3.3777-1.9366l0.1775 0.0798zm-5.5978-7.0031c-0.6277 0-1.1242 0.2983-1.5023 0.9207-0.3782 0.6224-0.6071 1.4865-0.6895 2.595l4.3373-0.0463c-0.0129-0.3472-0.0489-0.6918-0.1055-1.0365-0.0591-0.3472-0.1646-0.7149-0.319-1.1084-0.1543-0.3909-0.3807-0.715-0.6765-0.9567-0.2959-0.2418-0.6406-0.3704-1.0316-0.3704h-0.0155z" fill="#1d1d1d"/>
  <path id="path10" d="m109.84 39.194c-0.095 0.45-0.236 0.8898-0.427 1.3039-0.188 0.414-0.463 0.877-0.828 1.3733-0.365 0.4938-0.89 0.8873-1.564 1.1882-0.677 0.3009-1.459 0.4501-2.349 0.4501-1.731 0-3.164-0.5427-4.317-1.6151-1.1521-1.0725-1.718-2.5153-1.718-4.3233 0-1.8079 0.5582-3.2173 1.672-4.3258 1.114-1.1084 2.562-1.6588 4.337-1.6588 0.926 0 1.742 0.1595 2.455 0.4835 0.71 0.3241 1.245 0.7253 1.613 1.2114 0.365 0.486 0.64 0.9567 0.807 1.4196 0.165 0.4629 0.25 0.9001 0.25 1.3039v0.2881h-7.764v0.324c0 1.4994 0.427 2.6155 1.268 3.3459 0.841 0.7253 1.85 1.0956 3.013 1.0956 1.577 0.0129 2.701-0.6352 3.377-1.9366l0.178 0.0798zm-5.598-7.0031c-0.627 0-1.124 0.2983-1.502 0.9207s-0.604 1.4865-0.687 2.595l4.338-0.0463c-0.013-0.3472-0.049-0.6944-0.106-1.0365-0.059-0.3472-0.165-0.7149-0.319-1.1084-0.154-0.3909-0.381-0.715-0.677-0.9567-0.295-0.2418-0.64-0.3704-1.031-0.3704h-0.016z" fill="#1d1d1d"/>
  <path id="path11" d="m110.48 43.149c0.614-0.3112 1.008-0.6095 1.173-0.9001 0.164-0.2881 0.249-0.8539 0.249-1.7077v-5.0048c0-0.9104-0.082-1.5456-0.262-1.9031-0.178-0.3575-0.569-0.7021-1.173-1.0365v-0.1594c1.685-0.0926 3.377-0.3909 5.075-0.9001l-0.049 2.3635h0.049c0.214-0.589 0.605-1.1188 1.173-1.6023 0.566-0.4835 1.292-0.7252 2.156-0.7252 0.402 0 0.782 0.0926 1.14 0.2649l-0.486 3.7934h-0.165c-1.021-1.2911-1.873-1.9366-2.573-1.9263-0.496 0-0.89 0.288-1.16 0.8641v5.9512c0 0.8539 0.106 1.4197 0.319 1.7077 0.214 0.288 0.723 0.5889 1.528 0.9001v0.1595h-7.018z" fill="#1d1d1d"/>
  <path id="path12" d="m121.45 43.484c-0.533 0-0.996-0.1826-1.387-0.5658s-0.581-0.8178-0.581-1.3168c0-0.4989 0.201-0.9695 0.594-1.3476 0.394-0.3781 0.854-0.5658 1.387-0.5658 0.532 0 0.972 0.1826 1.363 0.5658s0.582 0.8307 0.582 1.3476c0 0.517-0.188 0.9465-0.582 1.3168-0.393 0.3703-0.838 0.5658-1.361 0.5658h-0.018z" fill="#1d1d1d"/>
  <path id="path13" d="m12.404 6.5673c3.1977 0 5.7882 2.5898 5.7882 5.7865 0 3.1968-2.5905 5.7866-5.7882 5.7866-3.1976 0-5.7881-2.5898-5.7881-5.7866 0-3.1967 2.5905-5.7865 5.7881-5.7865z" fill="#ffcb3b"/>
  <path id="path14" d="m28.996 19.941c-4.5148 0-8.2063 3.526-8.4713 7.9727l-0.018 0.5143v3.8578l11.834 4.372v-16.717z" fill="#4dd7be"/>
  <path id="path15" d="m20.507 6.5671h6.6886c2.8426 0 5.145 2.3018 5.145 5.1437v6.4295h-11.834z" fill="#8f66ff"/>
  <path id="path16" d="m11.761 32.286h6.4235c0-0.0849 0.0078-0.1698 0.0078-0.2572v-3.6006c0-4.6884-3.7997-8.487-8.4894-8.487h-3.087v7.2011c0 2.8419 2.3024 5.1437 5.1451 5.1437z" fill="#fd7e40"/>
 </g>
 <defs id="defs16">
  <clipPath id="clip0_340_1628">
   <rect id="rect16" width="124" height="46" fill="#fff"/>
  </clipPath>
 </defs>
</svg>
