<svg xmlns="http://www.w3.org/2000/svg" viewBox="0 0 5000 1870">
  <defs>
    <linearGradient id="a" x1="18.8" x2="64.4" y1="24.3" y2="58.4" gradientTransform="matrix(31 0 0 31 -467 -461)" gradientUnits="userSpaceOnUse">
      <stop offset="0" stop-color="#ffcb3b"/>
      <stop offset="0" stop-color="#feba3c"/>
      <stop offset=".1" stop-color="#fda03d"/>
      <stop offset=".1" stop-color="#fd8d3f"/>
      <stop offset=".2" stop-color="#fd813f"/>
      <stop offset=".3" stop-color="#fd7e40"/>
      <stop offset=".7" stop-color="#8f66ff"/>
      <stop offset=".9" stop-color="#4dd7be"/>
    </linearGradient>
  </defs>
  <path fill="#1d1d1f" d="M1216 22H363A332 332 0 0 0 31 355v863c0 184 148 332 332 332h303a695 695 0 0 1 171 29l16 4 4 1h2l5 2 19 7 69 25 213 77 370 135 15 5V355a334 334 0 0 0-334-333"/>
  <path fill="url(#a)" fill-rule="evenodd" d="m1613 1867-84-30-575-203-68-24-22-8-3-1-15-3-49-11c-40-8-83-15-109-15H390a375 375 0 0 1-380-370V372C10 169 181 3 390 3h842c210 0 381 166 381 369zm-731-323 607 214 62 22V372c0-170-143-309-319-309H390A314 314 0 0 0 72 372v829c0 171 142 310 318 310h299c66 0 193 33 193 33" clip-rule="evenodd"/>
  <path fill="#fff" d="M2812 116q-99 28-208 36v6l35 26q10 8 16 33 6 23 6 69v432q0 51-10 68-11 18-48 37v6h266v-6q-36-19-47-37-10-17-10-68zm-542 4q-55 38-146 72l35 66-137 370q-30 80-53 117-24 38-75 78v6h208v-6q-42-21-60-40a64 64 0 0 1-17-46q0-28 30-114l8-22h222l35 96q16 43 16 61-1 19-15 32-15 14-53 33v6h319v-6q-28-16-42-29-15-15-21-25c-4-9-10-18-16-35zm-98 176 95 258h-188Zm914 58q-104 31-204 36v6q36 22 47 43 11 23 11 84v195q0 51-11 68-11 18-47 37v6h265v-6q-37-19-46-37-11-17-11-68V491q37-60 90-59 38 0 52 29 14 30 14 116l-1 141q0 51-11 68-11 18-49 37v4h266v-6q-37-19-48-37-10-17-10-68V488q36-58 83-58 30 0 50 23 21 23 21 66l-1 198q-1 50-12 67-9 17-48 38v6h266v-6q-37-19-48-37-10-17-10-68l4-220q-1-41-15-69-15-30-37-44a178 178 0 0 0-92-28q-99 0-165 102-12-56-53-78-42-24-85-24-101 0-165 102zm971 2q-87 0-146 35-60 35-85 83l104 62 5-1q8-62 35-110 26-45 70-45 28 0 42 21 13 21 13 48l-2 76q-149 37-227 86-79 48-79 118 1 48 36 79 37 31 96 31 60 0 105-30 45-29 67-70h1q-1 39 18 71 21 31 73 31c32 0 56-12 80-31q32-27 45-66l-8-5q-16 38-43 38-25 0-24-31l5-227q0-30-6-56-7-26-25-52-18-27-56-41t-94-14m35 189-4 166q-40 49-87 48-25 1-41-20-17-18-17-53 0-96 149-141m-1834 506q-152 0-251 95-98 95-98 267 0 88 28 157 29 69 77 109 50 40 111 61 60 19 131 19 112 0 226-32l20-194h-6q-54 82-116 139-61 59-117 58-67 0-121-84-53-85-53-246 0-159 52-239 52-82 118-82v1h3q101 0 234 195h6l-20-191q-131-33-224-33m1034 220q-102 31-205 36v6q38 20 48 42 11 23 11 77v203q-1 51-11 68-11 18-48 37l-1 5h284v-6q-49-19-61-37-12-17-13-68v-241q17-35 47-35 42 0 104 78h6l20-153q-21-9-46-10-53 0-87 29-35 28-48 64h-2zm1380 0q-103 31-205 36v6q38 20 48 42 10 23 10 77v203q0 51-10 68-10 18-48 37l-1 5h284v-6q-48-19-61-37-13-17-13-68v-241q16-35 47-35 42 0 104 78h6l20-153q-21-9-46-10-53 0-87 29-35 28-48 64h-2zm-1841 1q-88 0-147 35-60 35-85 83l104 62 5-1q9-62 35-110 26-45 70-45 28 0 43 21 12 21 12 48l-2 76q-149 37-227 86-79 48-79 118 1 48 37 79t95 31 105-30 67-70h1q-2 39 19 71 19 31 72 31l3-1q48-1 77-30 32-26 45-66l-8-5q-16 38-43 38-24 0-24-31l5-227q0-30-6-56-7-26-25-52-17-26-56-41-38-14-93-14m904 1q-108 0-176 67-66 67-67 175 0 109 69 175 70 65 175 65 54 0 95-18 41-19 63-48a298 298 0 0 0 51-108l-8-2q-41 77-136 77-71 0-122-44-50-44-51-135v-14h314v-11q-1-26-10-53-10-28-33-58-22-28-65-48-42-21-99-20m496 0q-108 0-176 67-66 67-67 175 0 109 69 175 70 65 175 65 54 0 95-18 41-19 63-48a299 299 0 0 0 51-108l-8-2q-41 77-136 77-71 0-122-44-50-44-51-135v-14h314v-11q0-26-10-53-10-28-33-58-22-28-65-48-43-21-99-20m-513 24q25 0 44 15 18 15 27 39 10 23 13 45 4 21 4 41l-176 2q5-68 28-105t60-37m497 0q24 0 44 15 18 15 27 39 9 23 13 45 4 21 4 41l-176 2q5-68 28-105 22-37 60-37m-1350 165-4 166q-39 49-87 48-25-1-41-20-18-18-17-53 0-96 149-141m2046 138q-33 1-56 23a74 74 0 0 0-24 54q0 30 24 53 23 24 56 23 33 0 55-23 25-21 24-53 0-31-24-54a74 74 0 0 0-55-23"/>
  <path fill="#ffcb3b" d="M504 261a234 234 0 1 1-1 469 234 234 0 0 1 1-469"/>
  <path fill="#4dd7be" d="M1174 802a342 342 0 0 0-342 322l-1 21v156l478 177V802Z"/>
  <path fill="#8f66ff" d="M831 261h271c114 0 207 94 207 208v260H831Z"/>
  <path fill="#fd7e40" d="M478 1301h260v-156c0-189-154-343-343-343H270v291c0 114 93 208 208 208"/>
</svg>
