<svg xmlns="http://www.w3.org/2000/svg" xmlns:xlink="http://www.w3.org/1999/xlink" width="4980" height="746" viewBox="0 0 4980 746">
  <defs>
    <linearGradient id="a" x1="105.6" x2="302.7" y1="120.8" y2="277.5" gradientUnits="userSpaceOnUse">
      <stop offset="0" stop-color="#64519d"/>
      <stop offset="1" stop-color="#d30b6c"/>
    </linearGradient>
    <linearGradient xlink:href="#a" id="c" x1="148.3" x2="345.5" y1="67" y2="223.8" gradientTransform="matrix(4 0 0 4 -341 -337)"/>
    <linearGradient xlink:href="#a" id="b" x1="105.6" x2="302.7" y1="120.8" y2="277.5" gradientTransform="matrix(4 0 0 4 0 4)" gradientUnits="userSpaceOnUse"/>
  </defs>
  <path fill="#330229" d="m1915 44-109 33v85h-73v105h73v175q1 87 46 120 46 35 158 21v-98h-52q-21-1-32-11t-11-32V267h95V162h-95zm-469 107q-84 0-145 64-60 65-60 158t60 158q61 64 145 64 88 0 137-61v49h109V162h-109v50q-49-61-137-61m789 0q-84 0-144 64-60 65-61 158 1 93 61 158 60 64 144 64 89 0 137-61v49h109V162h-109v50q-48-61-137-61m1341 0q-84 0-144 64-60 65-61 158 0 93 61 158 60 64 144 64 89 0 137-61v49h109V162h-109v50q-48-61-137-61m760 0q-84 0-126 60-37-60-114-60-79 0-117 56v-45h-109v421h109V347q0-47 21-71 22-24 58-24 34 0 52 21 19 21 19 59v251h108V347q0-47 21-71t58-24q33 0 52 21 18 21 18 59v251h109V324q-1-79-43-126-44-47-116-47m398 0q-84 0-144 64-61 65-61 158t61 158q60 64 144 64 89 0 137-61v49h109V162h-109v50q-48-61-137-61m-1992 0q-96 0-159 64-63 63-64 158 1 95 64 158 63 64 159 64a216 216 0 0 0 112-30 211 211 0 0 0 78-79l-94-54a93 93 0 0 1-39 41 115 115 0 0 1-58 14q-49 1-81-32t-32-82q0-50 32-83t81-33a111 111 0 0 1 57 16 95 95 0 0 1 39 41l93-55a196 196 0 0 0-76-79 218 218 0 0 0-112-29m425 0q-94 0-159 64-63 63-63 158t63 158 159 64a216 216 0 0 0 112-30 211 211 0 0 0 78-79l-94-54a93 93 0 0 1-38 41 115 115 0 0 1-59 14q-48 1-81-32-32-33-32-82 0-50 32-83 33-33 81-33a111 111 0 0 1 58 16 95 95 0 0 1 38 41l94-55a196 196 0 0 0-77-79 218 218 0 0 0-112-29M1466 254a114 114 0 0 1 117 119q0 52-33 85-33 34-84 34t-83-34-33-85 33-86q32-33 83-33m789 0a114 114 0 0 1 117 119q0 52-33 85-33 34-84 34-50 0-83-34-33-33-33-85t33-86 83-33m1341 0a114 114 0 0 1 117 119q0 52-33 85-33 34-84 34-50 0-83-34-33-33-33-85t33-86 83-33m1158 0a114 114 0 0 1 117 119q0 52-33 85-33 34-84 34-50 0-83-34-33-33-33-85t33-86 83-33"/>
  <path fill="url(#b)" d="M631 636Q523 742 369 742T107 636 0 373t107-263Q215 4 369 4t262 106q107 107 107 263T631 636M222 525q59 59 147 59t148-59 59-152-59-152-148-59-147 59-60 152 60 152"/>
  <path fill="url(#c)" d="M724 18h162v710H724z"/>
</svg>
