<svg xmlns="http://www.w3.org/2000/svg" width="5000" height="1470" viewBox="0 0 5000 1470">
  <path fill="#04151f" d="M1614 744c0-211 161-354 375-354 178 0 268 105 309 199l-178 83c-17-53-70-99-131-99-99 0-166 76-166 171s67 171 166 171c61 0 114-46 131-99l178 82a322 322 0 0 1-309 199c-214 0-375-143-375-353m1217-1c0-92-53-161-163-161h-99v323h98c103 0 164-76 164-162m-469 342V402h305c214 0 374 123 374 341s-160 342-373 342zm1210 0-251-346v346h-207V402h213l237 323V402h206v683zm376 0 215-503h-320V402h557v143l-227 540zm589 0 216-503h-320V402h557v143l-227 540zM632 3A625 625 0 0 0 10 630c0 347 622 837 622 837s621-490 621-837C1253 284 975 3 632 3"/>
  <path fill="#ffe115" d="M632 227a381 381 0 0 0-379 383c0 211 169 382 379 382 209 0 379-171 379-382 0-212-170-383-379-383m0 210c94 0 171 77 171 173 0 95-77 172-171 172-95 0-171-77-171-172 0-96 76-173 171-173"/>
</svg>
