<svg xmlns="http://www.w3.org/2000/svg" width="5000" height="1040" viewBox="0 0 5000 1040">
  <path fill="#00f" fill-rule="evenodd" d="M2105 819q-45 2-46 45 1 45 46 46 44-1 45-46 0-43-45-45m2885 40v38q0 6-8 6h-70c-63 0-104-41-104-104V484h-105q-7 1-6-8v-37q-1-9 6-8h159a8 8 0 0 1 8 8v354q0 57 56 58h57q6 2 7 8m-597-43q-1-53 67-53h73v77a178 178 0 0 1-82 20c-39 0-58-18-58-44m85-174q57 0 56 58v17h-72q-130 1-131 102c0 52 38 88 108 88a169 169 0 0 0 102-32l5 21q2 7 9 7h32a7 7 0 0 0 8-7V694c0-64-41-106-105-106h-124a7 7 0 0 0-8 8v38a7 7 0 0 0 8 8zm-412 0v152q0 57 56 57h72q6 0 7 8v38a6 6 0 0 1-7 6h-85c-63 0-104-40-104-104V642h-94q-7 0-6-7v-38q1-7 6-7h94V486q0-8 7-7h47q7 0 7 7v104h128q6 0 7 7v38q0 7-7 7zm-518 255q0 6 8 6h264q8 1 8-6v-38q0-7-8-6h-94V597q1-7-6-7h-164a8 8 0 0 0-8 7v38q0 6 8 7h111v211h-111q-8-1-8 6zm-270-39a170 170 0 0 0 71-20V656a137 137 0 0 0-68-19q-78 1-78 111c-2 80 26 110 75 110m-11-272q46-1 88 34l7-21a9 9 0 0 1 9-8h32q7 0 7 8v334c0 64-42 104-106 104h-125a7 7 0 0 1-7-7v-37q0-7 7-6h112q57-1 56-59v-48a156 156 0 0 1-87 27c-87 0-122-60-122-160 0-97 37-161 129-161m-507 311q0 6 8 6h264q8 1 8-6v-38q0-7-8-6h-94V597q1-7-6-7h-164a8 8 0 0 0-8 7v38q-1 6 8 7h110v211h-110q-8-1-8 6zm-263-39a165 165 0 0 0 70-20V656a137 137 0 0 0-68-19q-78 1-78 111c-1 80 26 110 76 110m-12-272a134 134 0 0 1 81 27V441q0-8 6-8h47q7 0 7 8v456q0 7-7 6h-32q-7 0-9-7l-7-21a154 154 0 0 1-94 32c-87 0-122-60-122-160 1-97 39-161 130-161m-690 161q1 114-79 113-79 1-78-113-1-114 78-113 80-1 79 113m63 0c0-95-40-161-142-161-101 0-142 66-142 161 0 96 41 162 142 162 102 0 142-66 142-162m-370 156h-67l-6-2-2-2-159-152v150q1 7-7 6h-46q-8 0-8-6V441a7 7 0 0 1 8-8h46q8 0 7 8v292l155-139q2-4 7-3h61c6 0 8 6 4 10l-158 140 169 155c4 1 2 7-4 7m-676-60-10 34a16 16 0 0 0 4 13c31 13 64 20 120 20 97 0 142-35 142-94 0-62-65-78-121-92-42-11-80-21-80-48 0-25 17-39 72-39a278 278 0 0 1 97 18q9 3 11-3l10-35a7 7 0 0 0-5-10 273 273 0 0 0-112-21c-92 0-134 35-134 93 0 62 64 79 120 93 43 11 81 20 81 48 0 23-17 38-80 38a267 267 0 0 1-104-18q-7-4-11 3M548 633c-47 0-77 28-81 91h153c1-56-20-91-72-91m135 109v18q0 8-6 8H467q9 88 91 88a220 220 0 0 0 94-19 7 7 0 0 1 11 4l10 34q3 6-5 10a241 241 0 0 1-112 24c-94 0-154-60-154-162 0-95 47-161 147-161 101 0 134 61 134 156M281 609a269 269 0 0 0-115-23c-92 0-155 60-156 162 0 101 63 162 155 162 43 0 77-5 115-24q8-3 5-10l-11-34a8 8 0 0 0-11-4 241 241 0 0 1-94 18q-93-1-95-109 2-106 95-108a216 216 0 0 1 94 18 8 8 0 0 0 11-4l11-33q3-8-4-11m3359-372q1-45 46-46 45 1 46 46-1 44-46 45-45-1-46-45m-741-46q-44 1-45 46 0 44 45 45 45-1 46-45 0-45-46-46M117 276c5 0 6 0 12-5l131-133L129 8l-6-5H59a6 6 0 0 0-5 10l128 128L57 266a6 6 0 0 0 5 10z"/>
</svg>
