<svg xmlns="http://www.w3.org/2000/svg" width="5000" height="1150" viewBox="0 0 5000 1150">
  <path d="m3028 163-64 323c-35-35-100-59-172-59a291 291 0 0 0-195 68 316 316 0 0 0-103 185 288 288 0 0 0-6 61c0 138 103 247 239 247a239 239 0 0 0 150-51l-7 34h135l158-808zm-862 264a313 313 0 0 0-205 69 307 307 0 0 0-108 184 319 319 0 0 0-5 59c0 143 103 248 250 248 159 0 286-104 314-257a303 303 0 0 0 6-59c0-140-104-244-252-244m-588 0a322 322 0 0 0-207 68 306 306 0 0 0-108 185 301 301 0 0 0-6 63c0 142 103 245 252 245 116 0 209-51 267-138l-117-63a169 169 0 0 1-134 75c-80 0-130-55-130-130l4-38a188 188 0 0 1 57-100 150 150 0 0 1 104-43c61 0 107 31 124 80l127-52a239 239 0 0 0-233-152m1890 0a304 304 0 0 0-301 260 370 370 0 0 0-6 55c0 133 96 245 234 245 105 0 203-48 257-135l-111-64a167 167 0 0 1-136 75c-70 0-103-42-107-107h382a291 291 0 0 0 17-96c0-128-91-233-229-233m599 0a291 291 0 0 0-195 68 316 316 0 0 0-102 185 288 288 0 0 0-7 61c0 138 103 247 239 247a239 239 0 0 0 150-51l-6 34h135l103-528h-135l-9 43a281 281 0 0 0-173-59m690 0a321 321 0 0 0-208 68 305 305 0 0 0-107 185 291 291 0 0 0-6 62c0 143 103 245 252 245 115 0 209-51 267-138l-118-63a169 169 0 0 1-133 75c-80 0-130-54-130-129l5-38a187 187 0 0 1 57-100 150 150 0 0 1 104-42c60 0 106 31 124 79l126-52a239 239 0 0 0-233-152M3474 550a96 96 0 0 1 90 96h-245a146 146 0 0 1 142-96zm-1325 2c81 0 132 53 132 129l-3 37c-17 81-86 143-165 143-80 0-131-53-131-129l4-38a175 175 0 0 1 58-101 153 153 0 0 1 105-41m642 0c81 0 131 53 131 129l-3 37c-17 81-85 143-165 143-79 0-130-53-130-129l3-38a178 178 0 0 1 58-101 154 154 0 0 1 106-41m1275 0c81 0 132 53 132 129l-4 37c-16 81-85 143-164 143-80 0-131-53-131-129l3-38a177 177 0 0 1 59-101 153 153 0 0 1 105-41"/>
  <path fill="#005096" d="m792 1-92 43h-1l-16 33-155-1L377 6h-83l-37 80v153l-48 48-42-4v75L10 431v121l40 86 34 3 40 87 91 8 82 81 34 34 300 298h150l476-810h-151L907 154v-38ZM329 55h59l87 42-103 47-27-58h-20v85l-16 16 1-90zm453 5 76 76v191l49 23V222l177 150-412 552-125-126H349L241 688l-85-7-16-36h171l86-86-116 54-198-20-24-53v-52l47 5 16 38 17 40 82-82-65 6-18-43-48-5 198-92 11 1 43 93 146 13 64-140-64-6-42 90v-95l-175-18 91-91 166-77 133 1-39 84h35l55-118Zm22 62-116 55h66v106l50 23z"/>
</svg>
