<svg xmlns="http://www.w3.org/2000/svg" width="5000" height="1240" viewBox="0 0 5000 1240">
  <path fill="#fff829" d="M0 0h5000v1223H0Z"/>
  <path fill="#db3f02" d="M578 0Q320 0 161 119 0 237 0 474v293q1 241 157 358a693 693 0 0 0 421 115q204 0 342-70 125 70 315 70 120 0 214-28 11 11 28 11h328c24 0 45-20 46-46v-152q33 58 87 103 138 112 353 112 183 0 300-64 135 64 337 64a986 986 0 0 0 191-17h302c24 0 45-20 46-46v-170q18-30 27-61l149 248q19 30 54 30h396c24-1 45-21 47-47V374c-1-23-20-45-47-46h-424q-32 0-50 29l-152 248V47c0-24-20-45-46-47h-302q-19 2-32 15-75-15-159-15-237 0-383 110a347 347 0 0 0-137 208 698 698 0 0 0-260 9h-54a396 396 0 0 0-268 107v-60c-1-24-21-45-47-47h-302q-17 1-30 13a698 698 0 0 0-307-24q-21-71-68-126Q913 0 577 0m3216 0c-24 1-45 20-47 47v168c1 24 20 45 47 47h291c24-1 45-21 47-47V47c-1-24-21-45-47-47zm421 0c-23 1-45 20-46 47v1130c0 23 20 45 46 46h309c23 0 45-20 46-46V47c0-24-20-45-46-47Zm430 0c-24 1-45 20-47 47v1130c1 23 20 45 47 46h309c23 0 44-20 46-46V47c0-24-20-45-46-47ZM576 336q96 0 129 93 10 30 23 40t41 10h41a374 374 0 0 0-74 238v49l-10 6q-12 10-21 39-31 93-129 93-128 0-128-139V476q0-140 128-140m2351 0q54 0 88 29 27 25 58 29v70l-38-6q-110-13-151-31-40-16-40-43-1-48 83-48m-634 215q69 0 69 104v7h-138v-7q0-104 69-104m-1058 35q43 0 61 26 17 25 17 91v145q0 65-17 91-18 26-61 26t-60-24q-18-25-17-93V703q-1-66 17-91 17-27 60-26m1550 180 61 9q129 17 175 35 47 16 47 46 0 48-129 48-78 0-123-34-18-15-34-23 3-8 3-17zm-561 111h148q0 31 7 61-22 6-41 25-28 28-46 28-68 0-68-106z"/>
  <path fill="#b33402" d="M1141 316a530 530 0 0 0-266 100q-38 28-65 64h310q17 0 26-11 12-12 12-27 0-67-17-126M769 761q-21 0-33 5v68a362 362 0 0 0 185 337 473 473 0 0 0 151-120 369 369 0 0 0 86-229v-28q-2-11-12-20a32 32 0 0 0-26-12zm678-421a50 50 0 0 0-16 34v803q1 21 18 35 87-25 152-75 134-105 134-303V717q0-197-139-302a491 491 0 0 0-149-75m702-13a481 481 0 0 0-207 102 379 379 0 0 0-140 305v83q0 119 50 208V769q3-36 29-57 28-22 74-22h223a45 45 0 0 0 32-14q15-13 14-33V374q1-20-14-33a45 45 0 0 0-32-14zm260-9q-9 37-8 78 0 298 384 370-5-195-126-323a418 418 0 0 0-250-125m1 518q-16 0-28 12a33 33 0 0 0-10 26v3h366a48 48 0 0 0 44-29q-24-12-45-12zm-11 99q-11 0-20 3a332 332 0 0 0 141 195q33 24 72 43 22-12 43-27 127-91 127-176 0-38-38-38zm688-920a50 50 0 0 0-14 32v347l14 1h345q14 0 24-11 12-12 12-27 0-126-152-241-96-74-229-101m-14 449v713c1 23 19 44 45 47q134-27 231-93a393 393 0 0 0 119-124V901l27 45q16-49 16-103 0-177-110-264-100-81-328-115m712-136c-24 0-45 20-46 46v803c0 24 20 45 46 47h274a40 40 0 0 0 29-13q12-12 12-25 0-16-7-26l-279-429 236-336q9-13 9-28t-12-27a38 38 0 0 0-29-13z" style="mix-blend-mode:multiply"/>
</svg>
