<svg xmlns="http://www.w3.org/2000/svg" viewBox="0 0 5000 1240">
  <path fill="#fff829" d="M0 0h5000v1223H0Z"/>
  <path fill="#db3f02" d="M578 1Q320 0 161 120 0 238 0 474v293q0 241 157 358 157 116 421 116 204-1 343-70 124 69 314 70 120-1 214-28a47 47 0 0 0 29 11h327c24-1 45-21 47-47v-152a362 362 0 0 0 86 104q138 111 354 112 182 0 300-65 134 65 336 65a986 986 0 0 0 192-17h301c24-1 45-21 47-47v-170a284 284 0 0 0 27-60l149 247a60 60 0 0 0 53 30h397c23-1 45-21 46-47V374c0-23-20-45-46-46h-424a55 55 0 0 0-50 29l-152 248V47c0-23-20-45-47-46h-301a49 49 0 0 0-33 14 843 843 0 0 0-159-14q-236-1-382 110a347 347 0 0 0-137 207 699 699 0 0 0-260 10h-54a396 396 0 0 0-269 107v-61a49 49 0 0 0-47-46h-301q-18 1-31 13-94-30-212-30-49 0-94 5-22-70-69-126Q914 0 578 1m3216 0c-24 0-45 20-47 46v169c1 23 20 45 47 46h291c24 0 45-20 47-46V47a49 49 0 0 0-47-46zm421 0c-23 0-45 20-46 46v1130c0 24 20 45 46 47h309c23-1 45-21 46-47V47c0-23-20-45-46-46Zm430 0c-23 0-45 20-46 46v1130c0 24 20 45 46 47h309c23-1 45-21 46-47V47c0-23-20-45-46-46ZM576 337q96 0 129 93 10 29 23 39 13 11 41 11h41a374 374 0 0 0-74 237v50l-10 5q-12 10-21 40-31 93-129 93-128 0-128-140V476q0-139 128-139m2351 0q54-1 88 29a104 104 0 0 0 58 28v70l-38-5q-110-14-151-31-40-18-40-43-1-48 83-48m-634 215q69 0 69 103v7h-138v-7q0-103 69-103m-1058 34q43 0 61 26 17 26 17 91v145q0 65-17 91-18 27-61 26c-43-1-49-8-60-24q-18-25-17-93V703q-1-65 17-91 17-26 60-26m1550 180 61 10q129 17 175 34 47 16 47 47 0 48-129 48-78 0-123-35-18-14-34-22 3-9 3-17zm-561 111h148a304 304 0 0 0 7 61q-22 6-41 25-28 28-46 28-68 0-68-105z"/>
  <path fill="#b33402" d="M1141 316q-158 18-266 100a346 346 0 0 0-65 64h310q17 0 26-11 12-12 12-27 0-68-17-126M769 762a88 88 0 0 0-33 5v67q0 198 134 303a390 390 0 0 0 51 34 473 473 0 0 0 151-120 369 369 0 0 0 86-229v-28a33 33 0 0 0-12-20 32 32 0 0 0-26-12zm678-421a50 50 0 0 0-16 33v803q2 22 18 36 87-26 152-76 134-105 134-303V717q0-196-139-301a491 491 0 0 0-149-75m702-13a482 482 0 0 0-207 102 379 379 0 0 0-140 304v83q0 119 50 208V769a78 78 0 0 1 29-57q28-22 74-22h223a45 45 0 0 0 32-14q14-14 14-33V374q0-19-14-32a45 45 0 0 0-32-14zm260-10q-8 37-8 79 0 297 384 369-5-194-126-323a418 418 0 0 0-250-125m1 518q-16 0-28 12a34 34 0 0 0-10 26v3h366a48 48 0 0 0 44-29 105 105 0 0 0-45-12zm-11 100q-11 0-20 2a332 332 0 0 0 141 196q33 23 72 42 22-12 43-27 127-91 127-175 0-39-38-38zm688-921a50 50 0 0 0-14 32v347l14 1h345q13 0 24-10 12-12 12-28 0-125-152-241-96-74-229-101m-14 449v713c1 23 19 44 45 47q134-27 231-93a393 393 0 0 0 119-124V901l27 45q15-49 16-103 0-178-110-264-101-81-328-115m712-136c-24 0-45 20-46 46v803c0 24 20 45 46 47h274a40 40 0 0 0 29-13q12-12 12-25 0-16-7-26l-279-429 236-336q9-12 9-27 0-16-12-28a38 38 0 0 0-29-12z" style="mix-blend-mode:multiply"/>
</svg>
