<svg xmlns="http://www.w3.org/2000/svg" width="5010" height="1020" viewBox="0 0 5010 1020">
  <path fill="#595c61" d="M4665 247h-35v520h35v-81c31 56 91 87 153 87 103 0 184-68 184-189 0-122-82-190-184-190-63 0-123 27-153 86zm-1314 10c-10 0-20 6-20 19 0 27 40 27 40 0 0-13-10-19-20-19m-263 30-22 2v111h-81v19h81v239c0 72 19 113 96 114 22 0 52-9 74-21l-9-18c-20 9-48 18-66 18-65 0-73-40-73-93V419h131v-19h-131zm1230 107c-103 0-186 80-186 189 0 117 83 190 186 190 59 0 123-24 158-71l-26-20c-27 36-84 55-132 55-76 0-142-50-149-136h330c14-144-78-207-181-207m-2121 2c-103 0-182 76-182 188 0 118 85 186 183 186 59 0 124-24 159-72l-17-13c-29 40-90 63-142 63-79 0-153-49-161-153h343c14-142-84-199-183-199m477 0c-101 0-184 72-184 188s85 187 186 187c64 1 138-32 163-104l-4 53v47h22V400h-22v45l4 59c-20-73-97-108-165-108m-1208 1c-107 0-188 74-188 186 0 113 85 187 188 187 46 0 95-19 131-54l-15-15c-31 32-75 47-116 47-90 0-166-59-166-165 0-107 76-164 165-164 43 0 88 15 119 47l15-14c-36-36-87-55-133-55m419 0c-61 0-114 38-132 94l2-51v-40h-21v367h23V548c0-67 55-129 128-130q30-1 62 16l9-19q-36-19-71-18m1607 3 130 367h40l60-160 46-143 44 143 60 160h40l130-367h-40l-110 325-111-325h-26l-113 325-110-325zm-153 0v367h22V400zm-1142 17c101 0 166 55 163 157h-323c7-100 74-157 160-157m477 0c107 0 161 77 161 163 0 90-47 170-158 170-89 0-165-62-165-166s73-167 162-167m1644 11c88 0 148 50 149 141h-298c8-90 73-141 149-141m498 1c83 0 150 51 150 154 0 102-67 154-150 154-86 0-150-63-150-154 0-92 66-154 150-154"/>
  <path fill="#d9022b" d="M0 1020h1020V0H0Z"/>
  <path fill="#fff" d="M517 120q-107-2-182 73c-48 49-72 111-72 177q1 58 24 106h49l20 88q20 15 43 27l5 3 4 1 24 10V473q-62-39-62-104c0-75 64-128 141-128 74 0 139 52 139 127 0 43-23 82-62 105v133l8-3q11-4 22-9 24-12 46-30l21-88h48q24-49 24-111c0-137-114-245-240-245m175 365-65 271h-1l-36-143-11 4 1-42-23-90h-93l-24 91v41l-10-4-36 142h-2l-63-270H206l122 415h110l71-269h2l71 269h107l125-415z"/>
</svg>
