<?xml version="1.0" encoding="UTF-8"?>
<svg id="svg837" width="175.11pt" height="49.375pt" version="1.2" viewBox="0 0 175.11 49.375" xmlns="http://www.w3.org/2000/svg">
 <g id="surface16805" transform="translate(-333.27 -273.12)">
  <path id="path824" d="m333.27 299.02v-0.4961c0-13.074 8.7422-22.508 20.688-22.508 9.1719 0 16.93 4.8711 17.855 14.43h-5.2969c-1.1055-6.7227-4.9844-10.176-12.496-10.176-9.1133 0-15.207 7.0938-15.207 18.195v0.49219c0 11.227 5.6641 18.008 15.145 18.008 7.2031 0 12.191-3.6367 13.297-10.793h4.9883c-1.5391 10.18-8.5586 15.172-18.41 15.172-12.742 0-20.562-8.7578-20.562-22.324"/>
  <path id="path826" d="m378.15 288.54h5.1094v5.7969c2.0312-3.6367 4.8008-6.168 10.59-6.3516v4.8086c-6.4648 0.30859-10.59 2.3438-10.59 10.301v17.699h-5.1094z"/>
  <path id="path828" d="m420.45 301.55c-0.49609-6.6602-3.9414-9.3125-9.2383-9.3125-5.2344 0-8.7422 3.5781-9.6055 9.3125zm-24.32 3.4531v-0.49219c0-9.7461 6.2148-16.527 15.082-16.527 7.4492 0 14.469 4.5 14.469 16.035v1.6641h-24.258c0.24609 7.3398 3.7539 11.41 10.344 11.41 4.9883 0 7.8789-1.8516 8.5586-5.6094h5.1094c-1.1055 6.4727-6.4648 9.8633-13.73 9.8633-9.1094 0-15.574-6.4141-15.574-16.344"/>
  <path id="path830" d="m454.98 304.88v-0.49609c0-8.2617-3.9375-12.148-10.219-12.148-6.4062 0-10.223 4.5039-10.223 12.336v0.49219c0 8.1406 4.3711 12.027 9.793 12.027 5.9688 0 10.648-3.9453 10.648-12.211m-25.734 0.4336v-0.4961c0-9.8672 6.1562-16.836 15.023-16.836 5.3555 0 8.6797 2.5898 10.527 5.7344v-20.602h5.1094v47.676h-5.1094v-5.5508c-1.8476 3.1484-6.3398 6.1055-11.02 6.1055-8.4375 0-14.531-5.9805-14.531-16.031"/>
  <path id="path832" d="m500.5 317.6c0-2.2227 1.7852-3.9492 3.9414-3.9492s3.9414 1.7266 3.9414 3.9492c0 2.2188-1.7852 3.9453-3.9414 3.9453s-3.9414-1.7266-3.9414-3.9453"/>
  <path id="path834" d="m492.45 305.6v-0.4375c0-7.5195-4.1602-18.832-10.609-18.832-6.5195 0-10.613 11.312-10.613 18.77v0.5c0 7.3945 4.0352 12.242 10.613 12.242 6.5117 0 10.609-4.9102 10.609-12.242m-26.559 0v-0.5c0-9.7578 6.7656-24.074 15.949-24.074 9.1797 0 15.941 14.254 15.941 24.012v0.5c0 9.8203-6.6602 16.953-15.906 16.953-9.2422 0-15.984-7.3828-15.984-16.891" fill="#f37f1e"/>
 </g>
</svg>
