<svg xmlns="http://www.w3.org/2000/svg" viewBox="0 0 5000 1410">
  <path fill="white" d="M3466 3v586a328 328 0 0 0-299-163c-253 0-428 198-428 478v15c0 285 174 455 414 455 133 0 260-84 313-173v158h145V3ZM598 85C259 85 10 354 10 725v15c0 385 222 634 585 634 280 0 480-141 523-431H976c-31 204-173 307-378 307-269 0-430-193-430-512v-14c0-316 173-518 432-518 214 0 324 99 355 290h151C1080 224 859 85 598 85m1629 341c-253 0-429 193-429 470v14c0 282 184 465 443 465 206 0 359-97 390-281h-145q-31 160-244 160c-187 0-287-116-294-325h690v-47c0-328-200-456-411-456m-494 0c-165 5-244 77-301 180V442h-146v917h146V856c0-227 117-285 301-293zm1448 121c178 0 290 110 290 345v14c0 235-133 348-303 348-154 0-278-111-278-343v-14c0-222 108-350 291-350m-954 0c150 0 248 75 262 265h-536c25-164 125-265 274-265m2651 609c-61 0-112 49-112 112s51 112 112 112 112-49 112-112-51-112-112-112"/>
  <path fill="#f37f1e" d="M4537 927v-13c0-214-118-535-302-535-185 0-302 321-302 534v14c0 210 115 348 302 348 185 0 302-140 302-348m-755 0v-14c0-278 192-685 453-685s453 405 453 683v14c0 279-189 482-452 482s-454-210-454-480"/>
</svg>
