<svg xmlns="http://www.w3.org/2000/svg" xml:space="preserve" width="5000" height="3400" viewBox="0 0 5000 3400">
  <defs>
    <linearGradient id="a" x1="76.3" x2="175.5" y1="115.4" y2="115.4" gradientTransform="matrix(20 0 0 -20 10 3397)" gradientUnits="userSpaceOnUse">
      <stop offset="0" stop-color="#ff3e89"/>
      <stop offset="1" stop-color="#00c2cb"/>
    </linearGradient>
  </defs>
  <path fill="#37404e" d="M4285 2470v513h90v-513zm218 8q-22 0-39 17a55 55 0 0 0 0 78q17 17 39 17 24 0 40-17 17-16 17-39t-17-39a54 54 0 0 0-40-17m-4237 3q-111 0-184 74-72 74-72 182a250 250 0 0 0 256 256q67 0 124-31 56-31 88-85l-84-48q-18 32-52 51-33 18-76 18-71 0-116-45-44-45-44-116 0-72 44-116 44-45 116-45 42 0 76 18 34 19 52 52l84-49q-32-53-89-84-55-32-123-32m642 10v492h91v-41q41 51 114 51 71 0 121-54 50-53 50-131 1-78-50-132-50-54-121-54-73 0-114 51v-182Zm1104 0v492h97v-318l138 228h11l139-229v319h96v-492h-100l-140 233-142-233zm-496 131a179 179 0 0 0-186 186 180 180 0 0 0 193 185q100 0 153-75l-73-42q-27 35-79 35-81 0-99-66h265q3-20 4-37 0-79-51-133-50-53-127-53m2518 0q-78 0-132 54t-54 132 54 131 132 54 132-54 55-131-55-132-132-54m-1301 0q-70 0-120 54-51 54-51 132t51 131 120 54q74 0 115-51v41h91v-351h-91v41q-41-51-115-51m445 0q-74 0-125 53-51 52-51 127t51 128 125 52q72 0 112-53v38q0 41-25 64a96 96 0 0 1-67 22q-66 0-92-49l-78 44q24 42 67 64t100 22q76 0 130-43t54-124v-335h-89v43q-40-53-112-53m479 0q-72 0-105 49v-39h-91v351h91v-189q0-44 21-66 21-21 56-22 31 1 51 19 18 18 19 54v204h91v-215q0-69-38-107-38-39-95-39m1128 0q-70 0-121 54-50 54-50 132t50 131 121 54q74 0 114-51v41h91v-351h-91v41q-40-51-114-51m-2830 3q-36 0-65 17a95 95 0 0 0-42 50v-60h-91v351h91v-168q0-50 32-72 33-22 75-17zm-1456 7 145 340q-13 36-34 52a91 91 0 0 1-58 16v84q66 3 112-31 45-33 73-109l128-352h-97l-78 236-91-236zm3959 0v351h91v-351Zm-2942 71q31 0 55 18t32 54h-179q7-34 31-53t61-19m1676 3q42 0 70 27t28 69-28 69a97 97 0 0 1-70 27q-44 0-71-27a93 93 0 0 1-28-69q0-42 28-69 27-27 71-27m-2096 2a95 95 0 0 1 98 100q0 43-28 71a95 95 0 0 1-70 28q-42 0-70-28a97 97 0 0 1-27-71q0-44 27-72 28-27 70-28m1654 0a95 95 0 0 1 98 100q0 43-28 71a95 95 0 0 1-70 28q-42 0-70-28a97 97 0 0 1-27-71q0-44 27-72 28-27 70-28m2052 0a95 95 0 0 1 97 100q0 43-28 71a95 95 0 0 1-69 28q-43 0-70-28a97 97 0 0 1-28-71q1-44 28-72 27-27 70-28m-768 3q41 0 68 27 28 27 28 70a94 94 0 0 1-96 97q-41 0-68-28a95 95 0 0 1-27-69q0-43 27-70t68-27M869 3249a74 74 0 0 0-76 74q0 32 22 53 21 21 54 21a74 74 0 1 0 0-148m1539 0q-33 0-55 21a71 71 0 0 0-22 53q0 33 22 53 21 21 54 21 32 0 55-25l-16-16q-9 9-19 13-9 5-21 5-20 0-35-15a49 49 0 0 1-14-37q0-21 14-35 15-15 37-14 12 0 21 4t20 13l15-17a72 72 0 0 0-56-24m489 0q-33 0-55 21a71 71 0 0 0-22 53q0 33 22 53 21 21 54 21 32 0 55-25l-16-16q-9 9-18 13-10 5-22 5-20 0-35-15a50 50 0 0 1-14-37q0-21 14-35 15-15 37-14 12 0 21 4t20 13l15-17a72 72 0 0 0-56-24m188 0a74 74 0 0 0-76 74q0 32 22 53 21 21 54 21a74 74 0 0 0 75-74q0-32-22-53a74 74 0 0 0-53-21m703 0q-33 0-55 21a71 71 0 0 0-22 53q0 33 22 53 21 21 54 21 32 0 55-25l-16-16q-9 9-19 13-9 5-21 5-20 0-35-15a50 50 0 0 1-15-37q0-21 15-35 15-15 37-14 12 0 21 4 10 4 19 13l16-17a72 72 0 0 0-56-24m-2010 0q-21 0-36 11-14 11-14 30 0 20 12 30l15 8 24 7q16 4 22 8 7 5 7 13 0 9-7 14t-19 5q-22 0-45-19l-15 18q26 23 60 23 22 0 37-11 14-12 14-31t-11-28-34-15-28-10-7-13 7-14 17-4 21 4 18 9l13-18q-11-8-24-13-13-4-27-4m-1247 3 50 144h24l30-99h1l31 99h24l50-144h-26l-37 103-31-103h-22l-32 103-36-103Zm1456 0v22h44v122h24v-122h43v-22zm1912 0v22h43v122h24v-122h44v-22zm-2883 0v144h24v-112l49 99h14l50-99v112h24v-144h-37l-44 90-43-90zm242 0v144h103v-23h-79v-39h69v-21h-69v-38h77v-23zm175 0v144h24v-105l81 105h26v-144h-24v107l-83-107zm208 0v51h16v-51zm525 0v144h103v-23h-79v-39h68v-21h-68v-38h76v-23zm366 0v144h24v-59h72v59h24v-144h-24v62h-72v-62zm700 0v144h89v-23h-65v-121zm156 0v144h90v-23h-65v-121zm157 0v144h103v-23h-78v-39h68v-21h-68v-38h76v-23zm532 0v144h24v-144zm85 0 58 144h27l58-144h-27l-44 107-45-107zm204 0v144h103v-23h-79v-39h69v-21h-69v-38h77v-23zm-3497 19q21 0 36 15 14 16 14 37 0 22-14 37a48 48 0 0 1-36 15q-22 0-36-15a51 51 0 0 1-15-37 51 51 0 0 1 51-52m2216 0q21 0 36 15 14 16 14 37a51 51 0 0 1-50 52q-22 0-36-15a51 51 0 0 1-15-37 51 51 0 0 1 51-52"/>
  <path fill="url(#a)" fill-rule="evenodd" d="M2102 437q0-47 12-95c30-119 122-246 359-328 7-2 21-11 21-11l21 11c236 82 326 208 359 328q12 45 12 89 41-24 89-38c118-33 274-17 463 147 5 5 22 13 22 13l-1 23c48 246-17 387-104 475q-33 33-71 56 41 22 77 57c87 86 152 229 104 475v24l-21 12c-189 164-343 179-463 147q-42-11-77-30l-6-1q-1 47-12 93c-30 119-122 246-359 328-7 2-22 15-22 15l-20-15c-237-82-326-208-359-328q-12-45-13-89-40 24-88 38c-118 33-274 17-463-147-5-5-25-10-25-10l4-26c-48-246 17-387 104-475q23-22 47-40 6-12 15-21-36-21-68-52c-88-86-152-229-104-475 1-7-2-27-2-27l23-9c188-164 343-179 463-147q45 12 83 33m470 1047-16 3v354a62 62 0 0 1-124 0v-356h-4c-39 112-114 156-114 156q-20 12-42 9l-13 17c-17 48-31 116-13 187 22 86 94 172 260 234 166-62 238-148 260-234 18-72 3-142-14-191l-15-19q-27 8-52-7s-73-43-113-153m-714-292c-42 12-88 34-126 72-64 62-103 167-73 342 136 112 246 132 332 108 11-4 54-25 65-34 40-33 64-77 61-121-1-27-12-53-33-69q-39-28-113-6l-79 46a62 62 0 0 1-62-108l79-46q56-53 51-100c-3-27-20-49-43-64q-26-17-59-20m1416 61c-12-12-56-40-67-44-65-27-99-22-137 3q-16 10-26 24c-7 12-14 30-17 46-5 31 16 61 51 94l80 46a62 62 0 0 1-62 108l-80-46q-73-21-111 5-15 13-24 29-9 18-11 41-1 34 15 67c32 31 76 62 130 77 86 24 196 5 332-108 30-174-9-279-73-342m-959-34c-117-106-214-116-267-110a704 704 0 0 0 229 396c31-43 71-132 38-286m616-36q12-38 20-78c-52-6-150 4-267 110-33 154 7 243 38 286a768 768 0 0 0 93-98 689 689 0 0 0 116-220m-239-241a655 655 0 0 1-194 82h-4l-18-3q-106-32-173-78-31 37-48 84a655 655 0 0 1 168 127l3 4q5 8 6 16 26 109 20 189a259 259 0 0 0 96-1 655 655 0 0 1 25-208l3-4q5-8 11-14 82-76 154-111-17-47-49-83m-551-314c-33-39-86-85-156-105-86-24-196-5-332 108-30 174 9 280 73 342 53 52 121 74 171 83l19-2q5-30 33-46s74-41 189-20l3-10-311-179a62 62 0 0 1 62-108l311 180 6-9c-77-90-78-176-78-176q-1-26 16-45zm959 417c50-10 116-32 168-83 64-62 102-167 73-342-136-112-246-132-333-107-71 20-124 68-158 107l-7 18q19 20 18 48s0 84-76 174l6 7 305-176a62 62 0 0 1 62 108l-304 175 4 10c117-22 192 20 192 20q25 13 31 39zm-375-324a704 704 0 0 0-458 0c22 48 79 128 229 176 150-48 207-128 229-176m37-290q-2-29-9-59c-22-86-94-172-259-233-166 61-238 147-260 233a276 276 0 0 0-7 97c5 41 33 74 67 91q37 20 76 5 44-19 62-94v-92a62 62 0 0 1 124 0v92q18 76 62 94c24 11 52 7 76-5a121 121 0 0 0 67-115z"/>
</svg>
