<?xml version="1.0" encoding="UTF-8"?>
<svg id="svg2" width="335.68" height="228.8" version="1.1" viewBox="0 0 335.68 228.8" xml:space="preserve" xmlns="http://www.w3.org/2000/svg" xmlns:cc="http://creativecommons.org/ns#" xmlns:dc="http://purl.org/dc/elements/1.1/" xmlns:rdf="http://www.w3.org/1999/02/22-rdf-syntax-ns#"><metadata id="metadata8"><rdf:RDF><cc:Work rdf:about=""><dc:format>image/svg+xml</dc:format><dc:type rdf:resource="http://purl.org/dc/dcmitype/StillImage"/></cc:Work></rdf:RDF></metadata><defs id="defs6"><linearGradient id="linearGradient44" x1="76.265" x2="175.49" y1="115.39" y2="115.39" gradientTransform="scale(10)" gradientUnits="userSpaceOnUse"><stop id="stop40" stop-color="#ff3e89" offset="0"/><stop id="stop42" stop-color="#00c2cb" offset="1"/></linearGradient></defs><g id="g10" transform="matrix(1.3333 0 0 -1.3333 0 228.8)"><g id="g12" transform="scale(.1)"><path id="path14" d="m129.42 204.2c-37.453 0-68.391 12.449-92.801 37.332-24.41 24.891-36.621 55.59-36.621 92.09 0 36.738 12.211 67.488 36.621 92.258 24.41 24.769 55.348 37.152 92.801 37.152 22.508 0 43.308-5.269 62.387-15.82 19.082-10.551 33.961-24.832 44.621-42.84l-42.309-24.531c-6.16 11.14-14.93 19.851-26.312 26.129-11.368 6.281-24.168 9.422-38.387 9.422-24.184 0-43.684-7.582-58.492-22.75-14.809-15.172-22.219-34.852-22.219-59.02 0-23.941 7.4102-43.5 22.219-58.672 14.809-15.168 34.308-22.75 58.492-22.75 14.219 0 27.078 3.141 38.566 9.422 11.5 6.277 20.211 14.867 26.133 25.777l42.309-24.527c-10.66-18.019-25.481-32.301-44.442-42.851-18.957-10.54-39.816-15.821-62.566-15.821" fill="#37404e"/><path id="path16" d="m383.27 386.95h49.058l-64.808-178.06c-9.239-25.379-21.5-43.832-36.77-55.34-15.262-11.5-34.262-16.66-56.988-15.481v42.668c12.328-0.238 22.109 2.371 29.34 7.821 7.218 5.453 12.968 14.222 17.238 26.312l-72.891 172.08h50.129l46.363-119.49 39.329 119.49" fill="#37404e"/><path id="path18" d="m557.48 391.93c23.942 0 44.379-9.071 61.329-27.2 16.953-18.14 25.421-40.359 25.421-66.671 0-26.309-8.468-48.528-25.421-66.661-16.95-18.128-37.387-27.199-61.329-27.199-24.89 0-44.082 8.653-57.601 25.961v-20.98h-45.859v248.87h45.859v-92.082c13.519 17.301 32.711 25.961 57.601 25.961zm-43.73-129.95c9.238-9.371 20.98-14.05 35.199-14.05 14.223 0 26.012 4.679 35.371 14.05 9.371 9.36 14.051 21.391 14.051 36.079 0 14.703-4.68 26.73-14.051 36.089-9.359 9.364-21.148 14.043-35.371 14.043-14.219 0-25.961-4.679-35.199-14.043-9.238-9.359-13.871-21.386-13.871-36.089 0-14.688 4.633-26.719 13.871-36.079" fill="#37404e"/><path id="path20" d="m715.34 279.22c6.16-22.278 22.871-33.418 50.129-33.418 17.543 0 30.812 5.929 39.82 17.777l36.981-21.34c-17.54-25.359-43.379-38.039-77.508-38.039-29.391 0-52.981 8.891-70.75 26.672-17.782 17.77-26.672 40.168-26.672 67.188 0 26.793 8.769 49.132 26.308 67.019 17.543 17.902 40.063 26.852 67.551 26.852 26.082 0 47.59-9.008 64.531-27.032 16.95-18.007 25.43-40.289 25.43-66.839 0-5.918-0.601-12.2-1.781-18.84zm-0.711 35.551h90.66c-2.609 12.089-8 21.101-16.18 27.019-8.168 5.93-17.48 8.891-27.91 8.891-12.32 0-22.508-3.141-30.57-9.418-8.059-6.282-13.391-15.114-16-26.492" fill="#37404e"/><path id="path22" d="m929.02 356.37c4.261 11.379 11.32 19.91 21.152 25.598 9.84 5.691 20.797 8.531 32.887 8.531v-51.191c-13.989 1.652-26.489-1.188-37.508-8.539-11.02-7.348-16.531-19.551-16.531-36.622v-84.968h-45.872v177.77h45.872v-30.578" fill="#37404e"/><path id="path24" d="m1255.4 458.05v-248.87h-48.71v161.41l-70.18-115.46-5.73-0.199-69.86 115.05v-160.8h-49.06v248.87h50.48l71.37-117.51 71 117.51h50.69" fill="#37404e"/><path id="path26" d="m1434.6 386.95h45.87v-177.77h-45.87v20.98c-13.75-17.308-33.06-25.961-57.95-25.961-23.7 0-44.03 9.071-60.98 27.199-16.94 18.133-25.42 40.352-25.42 66.661 0 26.312 8.48 48.531 25.42 66.671 16.95 18.129 37.28 27.2 60.98 27.2 24.89 0 44.2-8.66 57.95-25.961zm-84.62-124.97c9.25-9.371 20.98-14.05 35.2-14.05s26.01 4.679 35.38 14.05c9.36 9.36 14.04 21.391 14.04 36.079 0 14.703-4.68 26.73-14.04 36.089-9.37 9.364-21.16 14.043-35.38 14.043s-25.95-4.679-35.2-14.043c-9.24-9.359-13.86-21.386-13.86-36.089 0-14.688 4.62-26.719 13.86-36.079" fill="#37404e"/><path id="path28" d="m1658.2 386.95h44.8v-169.24c0-27.492-9.07-48.473-27.2-62.93-18.13-14.461-40-21.691-65.59-21.691-19.2 0-36.09 3.68-50.67 11.031-14.57 7.34-25.77 18.129-33.6 32.348l39.11 22.402c9.01-16.59 24.53-24.891 46.58-24.891 14.46 0 25.83 3.79 34.13 11.379 8.3 7.582 12.44 18.371 12.44 32.352v19.199c-13.51-18.012-32.47-27.019-56.88-27.019-25.13 0-46.16 8.828-63.11 26.488s-25.42 39.172-25.42 64.531c0 25.121 8.53 46.57 25.6 64.352 17.06 17.777 38.04 26.668 62.93 26.668 24.41 0 43.37-9.008 56.88-27.032zm-85.5-121.06c9.36-9.129 21.27-13.692 35.73-13.692s26.37 4.563 35.73 13.692c9.36 9.121 14.04 20.8 14.04 35.019 0 13.981-4.68 25.539-14.04 34.66-9.36 9.129-21.27 13.692-35.73 13.692s-26.37-4.563-35.73-13.692c-9.37-9.121-14.05-20.679-14.05-34.66 0-14.219 4.68-25.898 14.05-35.019" fill="#37404e"/><path id="path30" d="m1843.5 391.93c19.43 0 35.49-6.52 48.17-19.559 12.68-13.043 19.02-31.051 19.02-54.043v-109.15h-45.86v103.46c0 11.847-3.2 20.918-9.6 27.199s-14.93 9.422-25.6 9.422c-11.85 0-21.33-3.672-28.44-11.024-7.11-7.347-10.67-18.367-10.67-33.066v-95.992h-45.86v177.77h45.86v-19.91c11.14 16.59 28.8 24.891 52.98 24.891" fill="#37404e"/><path id="path32" d="m2101.2 231.4c-18.25-18.128-40.53-27.199-66.84-27.199s-48.53 9.071-66.66 27.199c-18.13 18.133-27.2 40.352-27.2 66.661 0 26.312 9.07 48.531 27.2 66.671 18.13 18.129 40.35 27.2 66.66 27.2s48.59-9.071 66.84-27.2c18.25-18.14 27.38-40.359 27.38-66.671 0-26.309-9.13-48.528-27.38-66.661zm-101.15 31.473c9.13-9.25 20.56-13.871 34.31-13.871s25.24 4.621 34.49 13.871c9.24 9.238 13.86 20.969 13.86 35.188 0 14.222-4.62 25.961-13.86 35.203-9.25 9.25-20.74 13.867-34.49 13.867s-25.18-4.617-34.31-13.867c-9.12-9.242-13.69-20.981-13.69-35.203 0-14.219 4.57-25.95 13.69-35.188" fill="#37404e"/><path id="path34" d="m2161 209.18v259.54h45.87v-259.54h-45.87" fill="#37404e"/><path id="path36" d="m2271.5 408.28c-7.58 0-14.16 2.778-19.73 8.348s-8.35 12.152-8.35 19.742c0 7.578 2.78 14.219 8.35 19.91 5.57 5.688 12.15 8.528 19.73 8.528 7.83 0 14.52-2.84 20.09-8.528 5.57-5.691 8.36-12.332 8.36-19.91 0-7.59-2.79-14.172-8.36-19.742s-12.26-8.348-20.09-8.348zm-22.75-199.1v177.77h45.86v-177.77h-45.86" fill="#37404e"/><path id="path38" d="m2471.7 386.95h45.87v-177.77h-45.87v20.98c-13.75-17.308-33.06-25.961-57.95-25.961-23.7 0-44.03 9.071-60.98 27.199-16.94 18.133-25.42 40.352-25.42 66.661 0 26.312 8.48 48.531 25.42 66.671 16.95 18.129 37.28 27.2 60.98 27.2 24.89 0 44.2-8.66 57.95-25.961zm-84.62-124.97c9.25-9.371 20.98-14.05 35.2-14.05s26.02 4.679 35.38 14.05c9.36 9.36 14.04 21.391 14.04 36.079 0 14.703-4.68 26.73-14.04 36.089-9.36 9.364-21.16 14.043-35.38 14.043s-25.95-4.679-35.2-14.043c-9.24-9.359-13.86-21.386-13.86-36.089 0-14.688 4.62-26.719 13.86-36.079" fill="#37404e"/><path id="path46" d="m1057.7 1496.4c0.02 15.59 1.74 31.8 5.9 48.19 15.23 59.96 61.85 124.46 181.56 165.64 3.28 1.13 10.48 5.76 10.48 5.76l10.49-5.76c119.7-41.18 164.99-105.3 181.55-165.64 4.18-15.2 6.11-30.31 6.45-44.93 13.51 7.77 28.41 14.39 44.69 18.98 59.53 16.79 138.71 8.67 234.23-74.41 2.62-2.28 11.25-6.45 11.25-6.45l-0.77-11.71c24.19-124.26-8.7-195.54-52.67-240.05-11.08-11.22-23.2-20.45-35.69-28.05 13.49-7.81 26.67-17.41 38.78-29.21 44.31-43.16 76.86-115.79 52.68-240.05-0.67-3.41-0.2-12.211-0.2-12.211l-10.29-5.949c-95.52-83.078-173.69-90.238-234.23-74.41-13.99 3.66-26.97 8.91-38.93 15.172-1.07 0.097-2.14 0.25-3.21 0.457-0.11-15.2-1.85-30.989-5.9-46.938-15.22-59.949-61.85-124.46-181.55-165.64-3.29-1.128-10.77-7.449-10.77-7.449l-10.2 7.449c-119.71 41.18-165 105.3-181.56 165.64-4.17 15.199-6.11 30.32-6.44 44.93-13.51-7.77-28.42-14.391-44.69-18.981-59.54-16.789-138.71-8.672-234.23 74.41-2.617 2.282-12.481 5.02-12.481 5.02l1.992 13.141c-24.179 124.26 8.7 195.54 52.68 240.05 7.512 7.61 15.5 14.3 23.77 20.19 1.73 3.89 4.269 7.47 7.558 10.45-11.957 7.32-23.617 16.09-34.429 26.62-44.297 43.16-76.86 115.79-52.668 240.05 0.66 3.41-0.821 13.56-0.821 13.56l11.301 4.6c95.52 83.08 173.7 90.24 234.23 74.41 15.26-3.99 29.31-9.86 42.14-16.88zm237.67-529.24c-2.77-0.551-5.56-1.039-8.37-1.461v-179.15c0-17.301-14.05-31.352-31.36-31.352-17.3 0-31.35 14.051-31.35 31.352v179.93c-0.62 0.109-1.23 0.218-1.85 0.332-20.01-56.922-57.5-79.063-57.5-79.063-6.57-4.211-14.29-5.711-21.66-4.578-1.92-2.633-4.03-5.422-6.33-8.332-8.44-24.379-15.43-58.899-6.37-94.57 11.12-43.789 47.51-87.188 131.25-118.23 83.75 31.043 120.14 74.442 131.26 118.23 9.27 36.511 1.73 71.832-6.98 96.293-2.73 3.41-5.23 6.679-7.48 9.757-8.7-2.757-18.38-1.64-26.37 3.481 0 0-36.74 21.699-56.89 77.359zm-361.15 147.82c-21.063-6.46-44.371-17.53-63.84-36.5-32.371-31.53-51.75-84.739-36.762-172.78 68.75-57.008 124.53-66.828 168.01-54.558 5.5 1.55 27.08 12.308 32.54 16.761 20.5 16.719 32.59 38.969 31.17 61.52-0.86 13.551-6.13 26.629-17.01 34.609-12.83 9.399-31.85 10.852-56.761 3.371l-40.269-23.242c-14.981-8.648-34.18-3.508-42.828 11.481-8.653 14.98-3.512 34.179 11.476 42.832l40.262 23.248c18.922 17.83 27.191 35.03 25.461 50.85-1.473 13.4-10.16 24.51-21.473 32.03-8.707 5.79-19.136 9.53-29.976 10.38zm715.97-31.14c-6.11 5.96-28.35 20.22-34.01 22.55-32.83 13.47-50.28 10.71-69.09-1.79-5.03-3.35-10.02-6.99-13.14-12.05-3.61-5.87-7.1-15.07-8.54-23.18-2.82-15.86 8.01-31.01 25.67-47.65l40.26-23.248c14.99-8.653 20.13-27.852 11.48-42.832-8.66-14.989-27.85-20.129-42.84-11.481l-40.26 23.242c-24.5 7.348-43.31 6.079-56.13-2.921-5.04-4.219-9.22-9.02-12.35-14.532-3.13-6.25-4.84-13.316-5.29-20.527-0.72-11.449 1.72-23.449 7.43-33.973 16.36-15.679 38.29-31.258 65.56-38.949 43.48-12.269 99.26-2.449 168.01 54.563 14.99 88.039-4.39 141.25-36.76 172.78zm-484.82 17.39c-59.32 53.33-108.44 58.32-134.95 55.54 16.28-79.59 54.7-146.39 115.56-200.23 15.66 21.563 35.93 66.612 19.39 144.69zm311.31 18.28c4.03 12.74 7.41 25.84 10.15 39.31-26.5 2.78-75.65-2.18-135-55.54-16.53-78.04 3.72-123.08 19.37-144.65 10.48 9.289 20.3 18.957 29.47 29.019 6.69 6.508 12.49 13.509 17.52 20.699 18.73 23.91 34.08 49.77 46.03 77.59 4.55 10.58 9.03 21.77 12.46 33.57zm-120.86 121.92c-22.93-15.22-51.99-29.21-88.82-40.24-2.92-0.87-5.95-1.31-8.99-1.31h-2.37c-3.04 0-6.07 0.44-8.99 1.31-36.03 10.79-64.62 24.42-87.3 39.25-10.56-12.33-18.84-26.65-24.21-42.31 24.64-12.24 51.32-30.42 79.3-56.83 2.22-2.09 4.11-4.49 5.64-7.12l1.18-2.05c1.52-2.64 2.65-5.48 3.35-8.45 8.69-36.61 11.18-68.2 9.67-95.28 7.7-1.42 15.63-2.16 23.73-2.16 8.56 0 16.92 0.82 25.02 2.41-1.72 27.45 0.68 59.64 9.56 97.08 0.7 2.97 1.83 5.81 3.35 8.45l1.19 2.05c1.52 2.63 3.42 5.03 5.63 7.12 27.37 25.83 53.48 43.78 77.69 56.02-5.53 15.6-13.96 29.84-24.63 42.06zm-278.56 158.68c-16.89 19.51-43.3 42.82-78.722 52.81-43.476 12.27-99.258 2.45-168.01-54.56-14.992-88.04 4.391-141.25 36.75-172.78 26.989-26.29 61.352-37.41 86.879-42.1 3.352 0.51 6.563 0.94 9.59 1.3 1.57 9.62 7.57 18.17 16.531 22.81 0 0 37.15 20.96 95.43 10.59 0.53 1.55 1.08 3.09 1.65 4.62l-157.41 90.88c-14.988 8.66-20.129 27.85-11.476 42.84 8.648 14.98 27.847 20.13 42.828 11.47l157.12-90.71c1.15 1.41 2.32 2.81 3.5 4.19-39.32 45.8-39.76 89.37-39.76 89.37-0.38 8.39 2.61 16.35 7.96 22.34-0.94 2.2-1.9 4.51-2.86 6.93zm484.74-210.93c25.34 4.87 58.74 16.08 85.1 41.76 32.36 31.53 51.75 84.74 36.75 172.78-68.75 57.01-124.52 66.83-168.01 54.56-36.26-10.22-63.07-34.41-79.9-54.19-1.29-3.32-2.59-6.46-3.86-9.4 6.26-6.12 9.83-14.74 9.41-23.85 0 0-0.43-42.7-38.59-87.99 1.07-1.22 2.13-2.46 3.17-3.72l153.91 88.86c14.99 8.66 34.18 3.51 42.84-11.47 8.65-14.99 3.51-34.18-11.48-42.84l-153.52-88.63c0.65-1.71 1.28-3.42 1.89-5.15 59.29 11.14 97.21-10.26 97.21-10.26 7.85-4.06 13.42-11.12 15.74-19.26 2.93-0.33 6.05-0.73 9.34-1.2zm-189.59 163.65c-77.07 25.7-154.13 25.83-231.19 0.04 10.85-24.34 39.72-64.43 115.61-89.14 75.84 24.7 104.73 64.76 115.58 89.1zm18.65 146.71c-0.34 9.65-1.61 19.59-4.16 29.62-11.12 43.79-47.51 87.18-131.26 118.22-83.74-31.04-120.13-74.43-131.25-118.22-2.55-10.03-3.83-19.97-4.16-29.62 0.35-2.33 0.44-4.74 0.24-7.19-0.13-1.56-0.19-3.11-0.19-4.65 0.11-2.57 0.27-5.11 0.5-7.62 2.77-20.75 16.73-37.43 33.73-45.87 12.16-6.03 26.13-8.01 38.47-2.57 14.56 6.41 25.32 22.16 31.31 47.47v46.49c0 17.31 14.05 31.36 31.35 31.36 17.31 0 31.36-14.05 31.36-31.36v-46.49c5.99-25.31 16.75-41.06 31.31-47.47 12.34-5.44 26.31-3.46 38.47 2.57 17 8.44 30.96 25.12 33.73 45.87 0.22 2.51 0.39 5.05 0.5 7.62 0 1.54-0.06 3.09-0.19 4.65-0.2 2.45-0.11 4.86 0.24 7.19" fill="url(#linearGradient44)" fill-rule="evenodd"/><path id="path48" d="m294.63 21.129 16.16 52.102h10.981l16.16-52.102 18.23 52.102h13.149l-25.27-72.402h-12.117l-15.231 49.613h-0.832l-15.218-49.613h-12.121l-25.282 72.402h13.16l18.231-52.102" fill="#37404e"/><path id="path50" d="m452.23 56.141c-4.941 5.1094-11 7.668-18.179 7.668-7.18 0-13.242-2.5586-18.18-7.668-4.941-5.1093-7.402-11.312-7.402-18.59 0-7.2891 2.461-13.48 7.402-18.59 4.938-5.1093 11-7.6718 18.18-7.6718 7.179 0 13.238 2.5625 18.179 7.6718 4.942 5.1094 7.411 11.301 7.411 18.59 0 7.2773-2.469 13.48-7.411 18.59zm8.961-45.32c-7.32-7.1406-16.371-10.719-27.14-10.719-10.77 0-19.821 3.5781-27.141 10.719-7.32 7.1485-10.98 16.059-10.98 26.73 0 10.668 3.66 19.578 10.98 26.719 7.32 7.1524 16.371 10.719 27.141 10.719 10.769 0 19.82-3.5664 27.14-10.719 7.321-7.1406 10.981-16.051 10.981-26.719 0-10.672-3.66-19.582-10.981-26.73" fill="#37404e"/><path id="path52" d="m520.54 0.82812h-12.219v72.402h19.059l21.859-45.469 21.852 45.469h18.961v-72.402h-12.231v56.551l-25.269-50.23h-6.84l-25.172 50.23v-56.551" fill="#37404e"/><path id="path54" d="m681.72 73.23v-11.492h-38.641v-19.168h34.703v-10.871h-34.703v-19.371h39.883v-11.5h-52.102v72.402h50.86" fill="#37404e"/><path id="path56" d="m773.6 73.23h12.218v-72.402h-13.261l-41.02 52.832v-52.832h-12.219v72.402h12.219l42.063-54.07v54.07" fill="#37404e"/><path id="path58" d="m824.56 47.75v25.48h8.082v-25.48h-8.082" fill="#37404e"/><path id="path60" d="m893.29 63.699c-3.559 0-6.48-0.7187-8.758-2.1679-2.281-1.4532-3.422-3.6407-3.422-6.5821 0-2.9297 1.141-5.1797 3.422-6.7304 2.278-1.5586 7.129-3.2305 14.559-5.0274 7.422-1.793 13.012-4.3125 16.781-7.5625 3.758-3.2383 5.641-8.0273 5.641-14.34 0-6.3203-2.383-11.449-7.153-15.391-4.757-3.9297-11.007-5.8984-18.738-5.8984-11.332 0-21.383 3.8984-30.152 11.699l7.672 9.2227c7.32-6.3516 14.91-9.5313 22.789-9.5313 3.929 0 7.058 0.8477 9.371 2.5391 2.308 1.6914 3.469 3.9414 3.469 6.7305 0 2.8007-1.09 4.9804-3.258 6.5312-2.184 1.5469-5.922 2.9688-11.242 4.25-5.321 1.2695-9.36 2.4492-12.122 3.5195-2.757 1.0704-5.207 2.4688-7.347 4.1875-4.289 3.25-6.43 8.2227-6.43 14.922s2.438 11.859 7.309 15.488c4.871 3.6211 10.89 5.4297 18.07 5.4297 4.629 0 9.219-0.7578 13.781-2.2695 4.559-1.5196 8.489-3.6602 11.809-6.4297l-6.531-9.2188c-2.137 1.9414-5.039 3.5313-8.7 4.7695-3.66 1.2383-7.269 1.8594-10.82 1.8594" fill="#37404e"/><path id="path62" d="m1033.8 62.051v-61.223h-12.23v61.223h-21.961v11.18h56.151v-11.18h-21.96" fill="#37404e"/><path id="path64" d="m1140.6 73.23v-11.492h-38.64v-19.168h34.7v-10.871h-34.7v-19.371h39.88v-11.5h-52.1v72.402h50.86" fill="#37404e"/><path id="path66" d="m1211.2 11.91c4.22 0 7.84 0.7109 10.88 2.1289 3.04 1.4101 6.21 3.6718 9.53 6.7812l7.87-8.082c-7.66-8.4883-16.97-12.738-27.91-12.738-10.95 0-20.03 3.5195-27.25 10.57-7.21 7.0391-10.82 15.949-10.82 26.719 0 10.77 3.68 19.75 11.03 26.93 7.36 7.1796 16.64 10.77 27.86 10.77 11.23 0 20.6-4.1367 28.13-12.43l-7.77-8.4883c-3.45 3.3086-6.72 5.6289-9.79 6.9414-3.07 1.3086-6.68 1.9688-10.82 1.9688-7.32 0-13.47-2.3711-18.44-7.1016s-7.46-10.77-7.46-18.117c0-7.3633 2.47-13.5 7.41-18.441 4.93-4.9414 10.79-7.4101 17.55-7.4101" fill="#37404e"/><path id="path68" d="m1275.1 0.82812v72.402h12.23v-31.379h35.94v31.379h12.22v-72.402h-12.22v29.621h-35.94v-29.621h-12.23" fill="#37404e"/><path id="path70" d="m1458.5 11.91c4.21 0 7.83 0.7109 10.87 2.1289 3.04 1.4101 6.22 3.6718 9.53 6.7812l7.87-8.082c-7.66-8.4883-16.97-12.738-27.91-12.738-10.95 0-20.03 3.5195-27.24 10.57-7.22 7.0391-10.83 15.949-10.83 26.719 0 10.77 3.68 19.75 11.03 26.93 7.36 7.1796 16.65 10.77 27.87 10.77s20.59-4.1367 28.12-12.43l-7.77-8.4883c-3.45 3.3086-6.71 5.6289-9.79 6.9414-3.07 1.3086-6.68 1.9688-10.82 1.9688-7.32 0-13.47-2.3711-18.44-7.1016s-7.46-10.77-7.46-18.117c0-7.3633 2.47-13.5 7.41-18.441s10.79-7.4101 17.56-7.4101" fill="#37404e"/><path id="path72" d="m1572.5 56.141c-4.94 5.1094-11 7.668-18.18 7.668s-13.24-2.5586-18.18-7.668c-4.94-5.1093-7.41-11.312-7.41-18.59 0-7.2891 2.47-13.48 7.41-18.59 4.94-5.1093 11-7.6718 18.18-7.6718s13.24 2.5625 18.18 7.6718c4.94 5.1094 7.4 11.301 7.4 18.59 0 7.2773-2.46 13.48-7.4 18.59zm8.96-45.32c-7.32-7.1406-16.37-10.719-27.14-10.719s-19.82 3.5781-27.14 10.719c-7.32 7.1485-10.98 16.059-10.98 26.73 0 10.668 3.66 19.578 10.98 26.719 7.32 7.1524 16.37 10.719 27.14 10.719s19.82-3.5664 27.14-10.719c7.32-7.1406 10.98-16.051 10.98-26.719 0-10.672-3.66-19.582-10.98-26.73" fill="#37404e"/><path id="path74" d="m1628.6 0.82812v72.402h12.22v-60.801h33.04v-11.602h-45.26" fill="#37404e"/><path id="path76" d="m1707.9 0.82812v72.402h12.23v-60.801h33.04v-11.602h-45.27" fill="#37404e"/><path id="path78" d="m1838.1 73.23v-11.492h-38.64v-19.168h34.7v-10.871h-34.7v-19.371h39.88v-11.5h-52.1v72.402h50.86" fill="#37404e"/><path id="path80" d="m1908.8 11.91c4.21 0 7.84 0.7109 10.88 2.1289 3.04 1.4101 6.21 3.6718 9.53 6.7812l7.87-8.082c-7.67-8.4883-16.97-12.738-27.92-12.738-10.94 0-20.02 3.5195-27.24 10.57-7.22 7.0391-10.82 15.949-10.82 26.719 0 10.77 3.67 19.75 11.03 26.93 7.35 7.1796 16.64 10.77 27.86 10.77s20.6-4.1367 28.12-12.43l-7.76-8.4883c-3.46 3.3086-6.72 5.6289-9.79 6.9414-3.08 1.3086-6.68 1.9688-10.83 1.9688-7.32 0-13.46-2.3711-18.43-7.1016-4.98-4.7305-7.46-10.77-7.46-18.117 0-7.3633 2.47-13.5 7.4-18.441 4.94-4.9414 10.79-7.4101 17.56-7.4101" fill="#37404e"/><path id="path82" d="m2e3 62.051v-61.223h-12.23v61.223h-21.96v11.18h56.15v-11.18h-21.96" fill="#37404e"/><path id="path84" d="m2056 73.23h12.22v-72.402h-12.22v72.402" fill="#37404e"/><path id="path86" d="m2142 0.82812h-13.67l-29.11 72.402h13.67l22.27-54.07 22.27 54.07h13.68l-29.11-72.402" fill="#37404e"/><path id="path88" d="m2253.1 73.23v-11.492h-38.64v-19.168h34.7v-10.871h-34.7v-19.371h39.88v-11.5h-52.1v72.402h50.86" fill="#37404e"/></g></g></svg>