<svg xmlns="http://www.w3.org/2000/svg" width="5000" height="580" viewBox="0 0 5000 580">
  <path d="M225 4a227 227 0 0 0-88 17 213 213 0 0 0-69 47 155 155 0 0 0-34 47 228 228 0 0 0-18 55 319 319 0 0 0-6 58v124a395 395 0 0 0 6 58 238 238 0 0 0 18 55 164 164 0 0 0 34 47 213 213 0 0 0 69 47 227 227 0 0 0 88 16 258 258 0 0 0 75-11 177 177 0 0 0 64-34 199 199 0 0 0 47-57 242 242 0 0 0 27-80H298a103 103 0 0 1-22 42 63 63 0 0 1-50 18 77 77 0 0 1-33-6 55 55 0 0 1-22-17l-9-15-6-22-4-39-1-64 1-63 4-39a68 68 0 0 1 6-23l9-14a59 59 0 0 1 22-17 77 77 0 0 1 33-6 63 63 0 0 1 50 18 103 103 0 0 1 22 42h141a242 242 0 0 0-28-81 200 200 0 0 0-47-57 177 177 0 0 0-64-34 237 237 0 0 0-75-12m213 389zv-1zM448 4v121h210L439 451v104h387V435H607l219-326V4Zm399 0v551h388V435H987v-97h212V217H987v-92h248V4Zm643 0a227 227 0 0 0-87 16 213 213 0 0 0-69 47 155 155 0 0 0-34 48 228 228 0 0 0-17 55 319 319 0 0 0-7 56v124a395 395 0 0 0 6 59 238 238 0 0 0 17 55 164 164 0 0 0 34 48 213 213 0 0 0 69 47 227 227 0 0 0 88 16 258 258 0 0 0 76-11 177 177 0 0 0 63-34 199 199 0 0 0 47-57 242 242 0 0 0 28-80h-141a103 103 0 0 1-22 42 63 63 0 0 1-50 18 77 77 0 0 1-33-6 55 55 0 0 1-22-17l-9-14-6-23-3-39q-3-24-2-64l2-63 4-39a68 68 0 0 1 6-23l9-14a59 59 0 0 1 22-17 77 77 0 0 1 33-6 63 63 0 0 1 49 18 103 103 0 0 1 22 42h142a242 242 0 0 0-28-81 200 200 0 0 0-48-57 177 177 0 0 0-63-34 237 237 0 0 0-76-12m235 0v551h139V337h149v218h140V4h-140v212h-149V4Zm704 0a227 227 0 0 0-88 16 213 213 0 0 0-69 47 155 155 0 0 0-34 48 228 228 0 0 0-17 55 319 319 0 0 0-7 56v124a395 395 0 0 0 6 59 238 238 0 0 0 17 55 164 164 0 0 0 35 48 213 213 0 0 0 69 47 227 227 0 0 0 88 16 258 258 0 0 0 76-11 177 177 0 0 0 63-34 199 199 0 0 0 47-57 242 242 0 0 0 28-80h-141a103 103 0 0 1-22 42 63 63 0 0 1-50 18 77 77 0 0 1-32-6 55 55 0 0 1-23-17l-8-15-6-22-5-39-1-64 1-63 5-39a68 68 0 0 1 6-23l8-14a59 59 0 0 1 23-17 77 77 0 0 1 32-6 63 63 0 0 1 50 18 103 103 0 0 1 22 42h141a242 242 0 0 0-27-81 200 200 0 0 0-48-57 177 177 0 0 0-63-34 237 237 0 0 0-76-12m214 389v-1zm21-389v550h138V350h48l100 204-1 1h163l-123-229 33-21a177 177 0 0 0 29-31 192 192 0 0 0 21-42 149 149 0 0 0 9-51 173 173 0 0 0-12-66 168 168 0 0 0-37-55 186 186 0 0 0-62-40 205 205 0 0 0-83-16zm468 0v368a194 194 0 0 0 63 149 198 198 0 0 0 68 40 240 240 0 0 0 83 15 249 249 0 0 0 83-15 196 196 0 0 0 132-189h-2V4h-138v365a85 85 0 0 1-20 61 75 75 0 0 1-55 21 70 70 0 0 1-56-21 87 87 0 0 1-19-61V4Zm490 0v551h135V278l176 277h118V4h-135v278L3740 4Zm705 0a227 227 0 0 0-88 16 213 213 0 0 0-69 47 155 155 0 0 0-34 48 228 228 0 0 0-17 55 319 319 0 0 0-6 56v124a395 395 0 0 0 5 59 238 238 0 0 0 18 55 164 164 0 0 0 34 48 213 213 0 0 0 69 47 227 227 0 0 0 88 16 258 258 0 0 0 76-11 177 177 0 0 0 63-34 199 199 0 0 0 47-57 242 242 0 0 0 28-80h-141a103 103 0 0 1-22 42 63 63 0 0 1-50 18 77 77 0 0 1-32-6 55 55 0 0 1-22-17l-9-15-6-22-4-39q-2-25-2-64l2-63 4-39a68 68 0 0 1 6-23l9-14a59 59 0 0 1 22-17 77 77 0 0 1 32-6 63 63 0 0 1 50 18 103 103 0 0 1 22 42h141a242 242 0 0 0-27-81 200 200 0 0 0-48-57 177 177 0 0 0-63-34 237 237 0 0 0-76-12m214 389v-1zm20-389v551h140V337h149v218h140V4h-140v212h-149V4ZM2804 124h79a59 59 0 0 1 44 18 55 55 0 0 1 16 38 51 51 0 0 1-16 37 55 55 0 0 1-44 18h-79z"/>
</svg>
