<svg xmlns="http://www.w3.org/2000/svg" width="5000" height="1460" viewBox="0 0 5000 1460">
  <path fill="#eb008b" d="M395 4A346 346 0 0 0 68 425q11 44 32 85l2 3 2 5 11 19a342 342 0 0 0 378 145v-31a313 313 0 0 1-350-126 651 651 0 0 0 340-341l9-22 16 18q42 47 98 78 50 30 107 39c22 121-30 244-132 313l4 4 18 17a339 339 0 0 0 141-331l-6-29A344 344 0 0 0 395 4m-3 33q44-1 87 9c5 104-62 234-176 339q-78 71-175 114A313 313 0 0 1 392 37m117 18c96 34 169 112 197 210q-45-9-86-33v1q-68-39-115-104l-3-5 1-6q6-31 6-63m264 227c6 35 2 80 5 103 2 23 21 43 37 60 39 42 93 65 149 64h10c9-59-10-119-50-164l1 2c-38-43-92-67-149-65Zm35 33a165 165 0 0 1 138 164c-41-3-80-22-108-53q-21-19-30-46c-4-17 1-43 0-65m2811 16c-38 0-69 31-69 70q0 28 20 49 21 22 49 21c39 0 70-31 71-70q-1-30-21-49a68 68 0 0 0-50-21m298 65q-27 0-56 33-17 19-28 43-7 26-7 53l1 289q0 85 45 132t135 47q43 2 78-22 28-23 28-59v-43h-5q-41 20-86 17-76 0-76-86V611h95q29 1 53-18 17-16 18-39v-49h-167V396Zm-357 119v326q0 74 37 112 37 39 107 39 31 2 55-17 18-25 17-56l-1-25h-22q-31 3-57-14a62 62 0 0 1-17-49V606q0-90-85-91zM84 538a197 197 0 0 0-6 304c48-36 77-92 80-151 1-25 0-54-11-72-11-17-45-50-63-81m-5 48c12 18 35 31 42 50q8 26 7 53-4 65-48 111-41-50-40-113 3-57 38-101Z"/>
  <path fill="#2b388f" d="M3078 344h-46v563q0 80 82 80h39V714q0-58 26-86 25-26 61-28 39-1 69 27 26 27 26 83v196q-1 34 22 60 26 22 60 21h40V704q0-101-52-156-52-54-146-54-32 1-60 19-27 18-44 45V421q1-32-22-56a88 88 0 0 0-55-21m1726 150c-46 3-91 20-127 49-37 29-58 72-57 118-2 33 12 65 37 86q36 31 114 42 41 3 80 20 19 10 20 33 0 52-88 52-42 0-83-13-35-9-62-32h-4v54q0 38 45 66 50 30 110 29 96-1 149-42c35-30 54-74 52-120l-1-1q0-111-153-137-41-4-78-19-18-9-19-28 0-54 97-54 41 1 80 13 33 9 57 32h5v-45q-3-45-39-71-40-32-115-32zm-2493 1c-64-3-127 24-170 71q-66 72-66 190c-2 66 24 129 72 175 44 43 103 68 165 67q174 0 174-109v-37h-4q-49 45-148 45-49 1-91-27-37-27-44-72h78q123 2 175-25 52-25 52-91l-1-1c2-51-19-100-57-135-37-34-85-52-135-51m2043 1q-87 0-131 36c-27 19-42 50-43 82v38h4q23-26 55-38 46-18 97-17 55 0 79 19t24 69v7h-41q-126 0-183 40c-36 25-58 67-57 111 0 43 20 84 54 110 40 29 90 44 139 42h24c49 2 96-15 132-48 34-33 52-78 51-124l-1-111q1-53-16-103a156 156 0 0 0-109-102q-38-11-78-11m-1537 4a249 249 0 0 0-260 255c-2 65 25 127 72 171 47 46 109 70 174 70q57 1 104-29c24-15 39-42 39-71v-56h-4q-34 46-127 45c-37 2-72-13-97-40q-38-47-36-107c-1-34 14-67 39-90q39-37 92-38 43 0 84 14 30 11 47 36h4v-56q-1-47-37-74-42-32-94-30m-1355 0a249 249 0 0 0-260 256 244 244 0 0 0 247 240c36 1 73-9 103-29 25-15 39-42 39-71v-56h-4q-34 45-127 45c-37 2-73-13-97-40q-38-47-36-107c-1-34 14-67 39-90 24-24 58-38 92-38q43-1 83 14 31 10 48 36h4v-56q-1-45-37-74-42-31-94-30m494 5-8 1h-219q-33-3-59 17a58 58 0 0 0-20 46v36h237q-18 30-41 54l-122 133q-73 78-73 132-1 28 21 46 28 20 61 17h235q25 0 42-17 18-16 20-39l1-45h-234q19-33 45-61l120-130q61-68 61-128 0-24-18-43a77 77 0 0 0-49-19M493 531l-1 94v757l213-178 124 252 154-83-121-237 241-51-500-454-18-17-4-4-18-15zm28 63 16 15 18 17 4 3 19 18 466 423-225 47 125 245-103 56-126-258-194 162V674Zm1788 1q32 0 58 18 26 21 24 54c0 17-11 32-28 36q-29 11-111 11h-54l1-16q2-42 30-73 29-31 71-30zm2089 182h43v47-1q0 75-77 75-34 2-61-15a51 51 0 0 1-22-45q-1-30 26-46 25-15 91-15"/>
</svg>
