<svg xmlns="http://www.w3.org/2000/svg" width="4986" height="3750" viewBox="0 0 4986 3750">
  <path fill="#c72437" d="M838 0v67L540 328 310 110V15h-92v309h92v-78l214 184v59H310v-78h-92v345h92V642h528v82h94V404h-94v86H617v-52l221-181v69h94V0Zm398 0v3750h3750V0ZM838 846v124H310v-92h-92v357h92v-112h528v81h94V846Zm-726 27L1 905l87 244 69-22Zm106 452v350h92v-160l417-4v11l-509 391v246h92v-118l528 7v84h94v-359h-94v170l-421 7v-12l519-388-4-133-622-9v-83zm482 925v126l138 8v260H619v-298h-96v298H310v-222l134-7v-126H218v620h92v-111h528v78h94v-626zm-129 749c-182 0-353 96-353 406v345h92v-112h528v81h94v-313c0-295-159-407-361-407m15 165c154 0 252 53 252 234v86H310v-44c0-189 63-276 276-276"/>
  <path fill="#fff" d="M3538 617v344h492v1827h-349l-991-1011v490l848 865h836V617h-344zm-1689 1v2514h835v-343h-492V962h349l991 1011v-491l-848-864h-492z"/>
</svg>
