<svg xmlns="http://www.w3.org/2000/svg" xml:space="preserve" fill-rule="evenodd" clip-rule="evenodd" image-rendering="optimizeQuality" shape-rendering="geometricPrecision" text-rendering="geometricPrecision" width="5000" height="1520" viewBox="0 0 5000 1520">
  <path fill="#084a86" fill-rule="nonzero" d="M1913 206q-35-36-35-85 0-50 35-86 35-35 86-35 49 0 85 35 35 36 35 86 0 49-35 85-36 35-85 35-50 1-86-35m-141 90h310q62 1 62 124v527c0 72 49 108 132 108v16h-504v-16q124 0 124-108V420q0-108-124-108zm-574 0q36 0 50 44l3 2q81-54 155-54 176 0 282 105 105 106 105 292 0 185-105 290a382 382 0 0 1-282 105q-75 0-149-50v389c0 70 40 83 119 83v15H900v-15c79 0 119-13 119-83V416q0-105-119-105v-15zm357 389q0-255-18-297-35-84-131-85-78 0-152 56 3 25 3 52 2 299 0 600 73 54 149 53 97 0 131-85 18-48 18-294M335 487v460q0 108 119 108v16H0v-16q96-10 96-107V420q0-82-70-102v-22h249q36 1 50 46l4 3q80-56 154-56 387 0 387 285v374q0 98 98 107v16H513v-16q119 0 119-108V589q0-285-149-285-77 0-152 57 3 26 3 54zM2679 0v1517h-51V0Z"/>
  <path fill="#3f3f3f" fill-rule="nonzero" d="M3055 676V213h160q54 0 82 7 40 9 68 33 37 31 55 79t18 110q0 53-12 93-12 41-32 68-19 27-42 42t-55 23q-33 8-75 8zm62-54h98q47 0 72-9 26-9 42-24 21-21 33-59 13-36 13-89 0-73-24-112t-58-52q-24-10-79-10h-97zm378-344v-65h57v65zm0 398V340h57v336zm114 28 55 7q3 27 19 38 21 15 58 16 39 0 61-16 21-16 29-44 4-18 4-73-37 44-93 44-69 0-107-50t-38-119q0-48 17-89 18-40 51-63 33-21 77-22 60 0 98 49v-42h52v290q0 78-15 111-16 33-51 52-34 18-85 19-60 0-97-27-36-27-35-81m46-202q0 66 26 96 27 31 66 31t66-30 26-95q0-62-27-92a85 85 0 0 0-130-1q-27 31-27 91m304-224v-65h57v65zm0 398V340h57v336Zm-906 627V840h61v230l230-230h83l-194 188 202 275h-80l-165-233-76 73v160zm385-167q1-93 52-138 43-37 106-37 69 0 113 45 43 45 43 125 0 65-19 101-19 37-57 58-36 21-80 20-70 0-114-45t-44-129m58 0q0 65 29 96 27 32 71 32 42 0 70-32 28-33 28-98 0-63-28-94a90 90 0 0 0-70-32q-44-1-71 32-29 32-29 96m523 125q-33 27-61 38-30 11-63 11-55 0-85-27a89 89 0 0 1-30-68 92 92 0 0 1 41-78q17-12 41-18 17-4 50-9 69-8 102-19v-15q0-34-16-49-22-19-65-19-41 0-59 14-20 14-29 50l-55-8q7-36 25-58 17-21 50-33 34-12 76-12 43 0 70 10t40 25 18 39q3 15 3 52v76q0 79 3 100t14 40h-59q-9-18-11-42m-5-126q-32 13-93 22-35 5-50 11t-22 18-8 27q0 23 17 38 18 15 50 15 33 0 59-15 26-13 38-39 9-18 9-56zm124 168V840h57v463zm125-398v-65h57v65zm0 398V968h57v335zm343-123 56 8q-9 57-47 90-38 32-93 32-68 0-110-44-42-45-42-129 0-54 18-95 18-40 55-61 36-20 80-20 54 0 89 27 34 28 45 79l-55 8q-9-33-28-51a73 73 0 0 0-49-17q-43 0-70 31t-27 97q0 68 26 98 26 31 68 31 33 0 56-21 22-19 28-63m313 15 59 7q-13 52-51 80-37 28-96 28-74 0-116-45-43-45-43-127 0-84 43-131 44-46 113-46 67 0 109 45 43 46 43 129v15h-250q3 55 31 85 28 29 70 29 32 0 53-17 23-16 35-52m-186-91h187q-4-43-22-64a87 87 0 0 0-70-33q-39 0-66 26-26 27-29 71"/>
</svg>
