<svg xmlns="http://www.w3.org/2000/svg" viewBox="0 0 5000 1340" width="5000" height="1340"><path fill="#f7931e" d="m4377 2-57 7 36 848q8 18 17 21 10 5 16-1 8-6 13-18 4-13 4-27-3-34-4-94l-4-134-3-158-4-165-6-153zM374 93v258c-25-7-45-9-73-9-177 0-291 112-291 284q2 270 314 272c69 0 133-7 219-23V93Zm269 1v173h169V94Zm3173 56-12 2q-14 3-25 14-13 10-17 21-6 7-3 16 2 9 9 16 6 9 15 13 10 5 17 5 10 0 17-7 7-5 12-15 4-9 6-20l1-20q0-18-9-22-6-3-11-3m459 146q-50 1-95 17-44 16-81 43a362 362 0 0 0-113 141q1-12-2-35l-7-50-13-84q-28-15-43-14-14 2-21 14-6 10-6 30 0 19 4 41l16 74 7 71 6 88 6 93 7 84 4 61 3 24 64-13q-22-107-10-200 14-91 50-160 37-69 94-112 56-45 120-55zm469 32q-22 0-51 8-29 9-56 24-26 16-44 38a74 74 0 0 0-19 50q-5 51 18 86 22 37 58 64 37 28 81 49l84 43q39 21 67 43 27 22 32 53 0 15-8 23-7 9-18 12t-24 3h-24q-52 0-97-13a560 560 0 0 1-241-146q-18-1-28 2-11 6-20 22 33 43 86 82a658 658 0 0 0 218 101 474 474 0 0 0 159 11q23-3 38-12 16-9 25-26 10-18 10-47 1-47-26-77-25-29-63-51t-83-39q-45-18-83-39-39-22-64-51-25-30-25-78-6-17 5-31 10-15 31-26 20-10 48-16 26-4 56-4 28 0 55 8 26 8 45 22l26-38q-35-24-80-37t-88-13m-1182 3q-48 4-85 29-37 24-63 67-26 44-41 99-16 56-21 119-4 63 0 127l2 30q0 22 6 44 5 22 15 40 9 17 27 17 31 0 61-16 27-16 52-41 25-26 44-57a603 603 0 0 0 63-126l21-50 4 45 5 68 5 80 4 80 3 68 1 44q0 55-10 107-10 51-35 93-24 41-64 66-41 27-99 26-23 1-41-8-18-8-33-18l-31-19q-16-7-36-7-4 22 7 41 13 20 34 34a161 161 0 0 0 103 25q72-1 123-36 49-37 79-94t42-124q12-66 12-127 0-53-4-105l-10-104-9-105q-4-52-4-105l4-55 3-62q1-29-4-49-7-21-22-19-61-25-108-22m280 8-14 2a68 68 0 0 0-30 16q-6 6-6 13l1 486q0 7 5 13 7 6 14 9l17 7 13 2zm-1014 1c-172 0-280 111-281 288 0 172 105 278 274 278 171 0 279-110 279-287 0-173-103-279-272-279m-1155 2c-84 0-165 12-266 38v511h169V490c34-10 55-13 78-13 61 0 83 25 83 90v324h169V560c0-84-10-124-46-160q-57-57-187-58m-536 0q-114-1-223 50l-1 130c66-34 137-51 199-51 43 0 58 11 58 41v38c-207 18-292 73-292 191 0 110 64 159 206 159 70 0 165-6 241-18V538c0-69-4-102-18-128q-39-67-170-68m1208 1c-247 0-387 109-387 301 0 155 95 253 243 253 43 0 76-7 109-23v3c0 107-46 152-157 152q-93 0-181-45v156c58 24 115 34 181 34q196 0 274-123c35-57 48-125 48-270v-46l-2-69-2-92-2-71v-18h15l23 4 58-122c-81-16-148-24-220-24M643 354v334c0 147-8 203-32 251-23 48-60 78-134 114l157 74c74-38 111-72 138-126 30-56 40-120 40-256V354zm2923 53q26-1 57 11 0 18-6 56a1113 1113 0 0 1-84 267q-20 41-44 66a69 69 0 0 1-52 26q-15-1-22-10-9-9-12-23-4-14-4-28l-1-25q-1-68 11-137 13-68 39-119 27-50 70-72 21-12 48-12m-740 68c64 0 102 55 102 147 0 93-39 147-104 147s-104-53-104-147c0-93 39-147 106-147m-2510 3q30 0 58 8l-1 273c-24 2-40 4-58 4-87 0-134-50-134-140 0-93 50-145 135-145m1974 2h18l-2 13 2 56v77l2 65v58q-31 11-64 12c-74 0-116-49-116-133q0-90 62-124c26-17 65-26 98-24M1178 661l1 113c-34 5-57 7-82 7q-69 1-67-48c0-44 36-60 148-72"/></svg>