<svg xmlns="http://www.w3.org/2000/svg" width="5000" height="1530" viewBox="0 0 5000 1530">
  <path fill="#343e57" d="M612 0v106h67v1175h-67v106h174V0ZM0 143v1387h174v-106h-68V249h68V143Zm2138 33 84 100h116l84-100h-91l-50 50-49-50zm786 0 84 100h116l84-100h-91l-50 50-49-50zm-1036 3-62 96h91l99-96zM586 194l-114 18v140a190 190 0 0 0-95-25q-55 0-99 26a193 193 0 0 0-70 69 187 187 0 0 0-25 97 190 190 0 0 0 93 166q44 26 97 26 56 0 100-33v28h113zm838 0-115 18v494h115V538l143 168h145l-177-205 165-169h-127l-149 153zm-378 131q-57 0-103 26a192 192 0 0 0-73 70 184 184 0 0 0-26 98q0 55 26 98 27 44 73 70t103 26 103-26 73-70q27-43 27-98 0-54-27-98a192 192 0 0 0-73-70 205 205 0 0 0-103-26m853 0q-43 0-87 11-42 10-88 30l41 84q37-15 64-22t49-7q35 0 53 14 18 13 18 41v19q-40-11-84-11-73 0-114 30-40 29-40 82 0 34 17 60 18 26 48 41 31 15 70 15 31 0 55-6 26-7 48-23v23h113V467q0-68-43-104-43-38-120-38m775 1q-55 0-99 26a191 191 0 0 0-71 69 192 192 0 0 0-25 98q0 55 27 98 27 44 72 70 47 26 104 26 47 0 83-14 38-13 73-43l-75-67a97 97 0 0 1-33 21 121 121 0 0 1-82 0 99 99 0 0 1-32-21q-12-13-20-31h266v-28q0-59-25-105a182 182 0 0 0-163-99m395 1q-51 0-87 14-35 15-55 42a109 109 0 0 0-19 65q0 46 29 75 29 28 85 37l74 11q20 3 29 10 9 6 9 17 0 13-17 22-16 7-44 7t-57-9-64-31l-55 77q33 24 79 37 45 12 98 12 48 0 86-17t60-45q22-28 22-65 0-43-31-72-29-29-84-36l-75-12a91 91 0 0 1-33-9q-10-8-10-19 0-12 13-19 13-8 35-8 28 0 55 9 28 8 58 25l55-73a269 269 0 0 0-75-34q-40-11-81-11m-948 5v96h172l-173 198v80h327v-96h-180l175-198v-80zm551 87q18 0 34 8a76 76 0 0 1 26 20q12 13 18 31h-156q6-18 16-31 11-14 27-21t35-7m-2279 5q23 0 43 8a96 96 0 0 1 36 21v131q-16 14-36 22-19 7-43 7-28 0-50-12t-36-34a95 95 0 0 1-12-48 91 91 0 0 1 48-82q22-13 50-13m653 0q26 0 46 13a96 96 0 0 1 45 82q0 27-12 48a93 93 0 0 1-32 34 87 87 0 0 1-47 13 89 89 0 0 1-79-47 98 98 0 0 1-12-48 96 96 0 0 1 45-82 89 89 0 0 1 46-13m836 133a279 279 0 0 1 67 9v48q-14 9-33 13-17 5-38 5-27 0-43-10a31 31 0 0 1-15-28q0-17 16-27 16-9 46-9m2997 192-114 25v96h-76v95h76v164q0 59 33 89 35 30 102 30 16 0 40-4 24-3 40-8v-92l-26 6q-12 2-26 2-27 0-39-10-10-11-10-35V966h104v-95h-104ZM1073 862a124 124 0 0 0-98 46v-37H861v373h114v-237a96 96 0 0 1 37-35q23-12 50-12l29 2q14 3 25 9V871q-13-8-43-9m1211 0a124 124 0 0 0-98 46v-38h-114v374h114v-237a96 96 0 0 1 37-35q23-13 50-13 15 0 29 3t25 9V871q-12-8-43-9m-936 1q-58 0-104 27a192 192 0 0 0-72 69 184 184 0 0 0-27 99q0 54 27 98 27 43 72 69 46 26 104 26 57 0 103-26 45-26 72-69 27-44 27-98 0-55-27-99a192 192 0 0 0-72-69 205 205 0 0 0-103-27m1200 0q-43 0-86 11-42 10-88 30l41 84q36-15 63-22 28-7 50-7 35 0 53 14 18 13 18 41v19q-41-11-85-11-72 0-113 30-41 29-41 82 0 34 17 60 18 27 48 41 31 15 71 15 30 0 55-6 25-7 48-23v23h113v-239q0-67-43-104-43-38-121-38m446 0q-53 0-93 31v-24h-114v374h114V988q11-13 26-19 15-7 34-7 28 0 44 18 17 18 17 49v215h114v-230l-1-12v-12q11-14 27-21 15-7 34-7 28 0 44 18 17 18 17 49v215h114v-230q0-45-19-79a134 134 0 0 0-51-52 145 145 0 0 0-74-20q-37 0-68 14-31 13-54 38a129 129 0 0 0-47-38q-28-14-64-14m637 0q-57 0-103 27a192 192 0 0 0-72 69 184 184 0 0 0-27 99q0 54 27 98 27 43 72 69 46 26 103 26 58 0 104-26 45-26 72-69 27-44 27-98 0-55-27-99a192 192 0 0 0-72-69 205 205 0 0 0-104-27m852 0q-43 0-86 11-42 10-88 30l41 84q37-15 63-22 28-7 50-7 35 0 53 14 18 13 18 41v19q-41-11-85-11-72 0-113 30-40 29-40 82 0 34 16 60 18 27 48 41 31 15 71 15 30 0 55-6 26-7 48-23v23h113v-239q0-67-43-104-43-38-121-38m-4070 3q-56 0-101 32v-27H199v517h115v-164a190 190 0 0 0 95 25q54 0 98-26a188 188 0 0 0 96-166q0-53-25-96a189 189 0 0 0-69-69 183 183 0 0 0-96-26m1375 0q-55 0-99 25a189 189 0 0 0-70 68 185 185 0 0 0-25 96 189 189 0 0 0 94 165q43 25 96 25 52 0 96-29v21q0 32-20 48-21 17-61 17-30 0-59-7-30-7-60-22l-38 89q33 16 73 24 41 9 86 9 94 0 143-41 51-40 51-116V871h-113v19q-21-12-45-18t-49-6m2060 5 159 373h112l159-374h-121l-93 229-92-228zm-2044 91q23 0 42 8 19 7 34 20v132q-15 13-34 20t-43 7q-27 0-50-12a96 96 0 0 1-34-34 95 95 0 0 1-13-48q0-26 13-47a100 100 0 0 1 85-46m-456 0q25 0 45 13a96 96 0 0 1 46 82q0 27-12 48a93 93 0 0 1-33 34 87 87 0 0 1-46 13 89 89 0 0 1-80-47 98 98 0 0 1-12-47 96 96 0 0 1 45-83 89 89 0 0 1 47-13m2283 0q26 0 46 13a96 96 0 0 1 46 82q0 27-12 48a93 93 0 0 1-33 34 87 87 0 0 1-47 13 89 89 0 0 1-79-47 98 98 0 0 1-12-47 96 96 0 0 1 45-83 89 89 0 0 1 46-13m-3238 1q27 0 49 13a87 87 0 0 1 36 34 88 88 0 0 1 13 47q0 27-13 49a96 96 0 0 1-35 34q-22 12-50 12-23 0-44-8-20-7-35-21V993a99 99 0 0 1 35-22q20-8 44-8m2138 133a279 279 0 0 1 68 8v48q-15 9-33 14-18 4-38 4-28 0-43-10a31 31 0 0 1-16-28q0-17 16-26 17-10 46-10m1935 0a279 279 0 0 1 68 8v48q-15 9-33 14-18 4-38 4-28 0-43-10a31 31 0 0 1-16-28q0-17 16-26 17-10 46-10"/>
</svg>
