<svg xmlns="http://www.w3.org/2000/svg" xml:space="preserve" fill-rule="evenodd" stroke-linejoin="round" stroke-miterlimit="2" clip-rule="evenodd" viewBox="0 0 5000 1910">
  <path fill="#939598" d="m2665 698-30 1q-12 2-19 5-8 2-10 6l-3 9v646q0 5 3 9 2 3 10 6 7 3 19 4a288 288 0 0 0 79-4l10-6q3-4 2-9v-291q27-33 51-50t47-17q20 0 33 7 14 6 23 20 9 12 13 31 5 18 5 50v250q0 5 3 9l10 6q7 3 19 4a299 299 0 0 0 79-4l9-6q3-4 3-9v-269q1-48-8-82-9-35-27-60-19-25-50-40t-75-15q-36 0-69 15-33 16-66 47V719q1-4-2-9-3-4-10-6l-19-5zm-239 1-30 2-19 4q-7 3-10 7l-2 9v237q-30-29-60-44t-67-15q-46 0-82 18-36 17-60 50t-37 80a411 411 0 0 0-2 198q9 44 31 77 23 33 57 52t85 19q45 1 82-20 37-20 71-56v48q0 6 3 9 2 4 8 6l16 4a269 269 0 0 0 67-4q6-1 8-6 3-3 3-9V721q0-6-3-9-3-4-10-7l-19-4zm1925 200q-41 0-74 10-33 11-56 29a126 126 0 0 0-48 103q0 31 9 53t24 38q16 15 34 26a365 365 0 0 0 78 35l34 14q15 9 24 19t9 25q0 13-5 23-4 10-15 16-9 7-22 10t-30 3q-26 0-47-6a271 271 0 0 1-63-27q-11-7-16-7l-7 2-6 7-2 14a209 209 0 0 0 1 55q4 12 9 17l17 11a218 218 0 0 0 70 20 283 283 0 0 0 122-5q36-10 61-29 26-19 39-48 15-29 14-66 0-30-9-51-9-23-25-38-15-16-34-27a347 347 0 0 0-79-33l-35-15q-15-9-24-19-9-9-9-25 0-10 3-18 5-9 12-15 8-7 20-10 13-4 30-4 23 0 41 5a303 303 0 0 1 56 23q9 5 14 5l7-2q3-1 4-7 2-4 3-13a244 244 0 0 0-2-53q0-6-3-9l-6-7-16-9q-11-6-26-10a262 262 0 0 0-76-10m-2579 0q-52 0-93 17-42 17-71 50t-44 80-15 105q-1 62 14 107 15 46 44 76 30 30 73 44 45 15 103 15a407 407 0 0 0 165-35l5-7q3-3 3-9l2-31v-21l-3-12q-2-4-5-6-3-3-7-2-8 0-20 5a436 436 0 0 1-72 20q-24 5-57 5-31 0-55-8-22-9-37-25-15-15-21-39-6-23-7-50h267q18 0 28-11t10-34v-19q0-47-12-86t-37-68q-24-28-64-45-39-16-94-16m3015 0q-52 0-93 17-42 17-71 50t-44 80-15 105q0 62 14 107 15 46 44 76 30 30 74 44 44 15 102 15a408 408 0 0 0 165-35l6-7 2-9 2-13a290 290 0 0 0-3-51q-2-4-5-6-3-3-7-2-8 0-20 5a425 425 0 0 1-72 20q-24 5-57 5-32 0-54-8-23-9-38-25-13-15-21-39-6-23-7-50h267q18 0 28-11t10-34v-19q0-47-12-86t-37-68q-25-28-64-45-39-16-94-16m-1439 0q-61 0-106 18a200 200 0 0 0-120 131q-15 46-15 103t14 103q14 45 42 76 28 30 72 47 44 16 102 16 60 0 105-18 46-18 75-52 30-33 45-79t15-102q0-59-14-104-13-45-42-76-28-31-71-47t-102-16m377 8a301 301 0 0 0-49 5l-10 6-3 9v268q0 50 8 84 9 33 27 59 20 26 50 40 31 15 76 15 40 0 78-19 38-21 74-59v50l2 9 9 6 16 4a223 223 0 0 0 67-4q7-3 9-6 3-4 3-9V927l-3-9-10-6-19-4a297 297 0 0 0-79 4l-10 6-2 9v291q-27 33-51 50a81 81 0 0 1-48 18q-18 0-32-8-15-6-23-20-9-12-14-31-4-18-4-52V927l-3-9-10-6-19-4zm-1956 79q47 0 69 30 23 30 21 82h-185q1-23 7-44 7-20 18-35a84 84 0 0 1 70-33m3015 0q47 0 69 30 23 30 21 82h-185q1-23 7-44 7-20 18-35a84 84 0 0 1 70-33m-1441 11q31 0 51 11 21 12 33 32t17 47a311 311 0 0 1-1 122q-6 27-19 46-13 20-34 29-21 11-49 11-30 0-51-11t-33-32-17-47a301 301 0 0 1 1-122q7-27 20-47 13-19 34-29t48-10m-1080 7q27 0 51 17 24 18 51 51v146a376 376 0 0 1-55 55 92 92 0 0 1-50 16q-25 0-42-13-17-12-26-32-10-20-15-47a329 329 0 0 1 1-104q5-25 15-45 11-20 28-32 18-12 42-12m-173 605q-13 0-22 3-10 4-16 11t-9 19-3 28v15h-22l-2 1-2 2-1 4v5l1 9 4 3h22v135l1 2 2 1 5 2 18-2 2-1 1-2v-135h69v90l2 23q3 10 8 16 6 7 14 10a58 58 0 0 0 29 2l13-3 4-3 2-4 1-8-1-8-1-2h-2l-3 1-4 1-6 2-7 1q-11 0-17-8-4-9-4-24v-86h39q3 0 4-3l2-9v-5l-2-4-1-2-3-1h-39v-36l-1-2-2-2-4-1h-14l-4 1-3 2v38h-70v-16l2-17q0-7 4-11 2-4 7-7l10-2 15 3 4 1 3 1h1l2-2v-18l-2-2-4-3-8-2zm1641 1h-7l-4 1-3 2v233l3 1 4 1 18-1 2-1 1-2v-229l-1-2-2-2-4-1zm-581 1-12 1-2 2v91q-11-11-23-17-10-6-24-6-17 0-29 6t-21 18q-7 11-12 27a139 139 0 0 0-1 68q3 15 11 26 7 11 19 18 12 6 29 6 15 0 29-7 12-8 25-21v23l3 2 4 1 15-1 3-4v-228l-1-2-2-2-4-1zm1670 32-7 1-4 1-3 2v38h-21l-3 1-2 2-1 4 1 14 4 3h22v90l2 23 8 16q6 6 14 9a58 58 0 0 0 29 3l13-3 4-3 2-4v-16l-1-2h-2l-3 1-4 1-5 2-7 1q-12 0-17-8-5-9-5-25v-85h40l4-3 1-9v-5l-1-4-2-2-2-1h-40v-36l-1-2-2-2-4-1zm-3061 39q-14 0-25 4-10 4-17 10t-11 14l-3 18q0 10 3 17t9 13l12 9 15 6 26 12q6 3 9 8t3 11l-2 11-7 7-10 5-13 2q-9 0-17-3l-21-10-6-2h-2l-2 2v4l-1 5 1 9 3 5 6 3 10 5a89 89 0 0 0 29 4q14 0 24-3 12-4 19-10 9-6 13-15a49 49 0 0 0 1-38l-9-13-13-8-14-7-14-5-13-7-9-8q-3-4-3-11l2-9 5-7q3-3 9-4l13-2 14 2 18 8 5 2 2-1 1-2 1-3-1-13v-2l-3-3-14-6zm2302 0a58 58 0 0 0-28 7l-13 9-14 13v-24l-2-1-4-1-16 1-2 1v220l2 2 5 1 18-1 2-2 1-2v-77l22 17a49 49 0 0 0 24 6q17 0 29-6t21-17q8-12 13-28a140 140 0 0 0 1-67q-4-15-11-27a54 54 0 0 0-48-24m-1512 0a96 96 0 0 0-33 6l-21 11-3 4-1 7 1 5 1 3 2 2 2 1 6-2 25-11a65 65 0 0 1 35-1l11 7q5 5 6 12l2 15v12h-21q-18 0-32 3-15 4-25 10-9 6-15 16-5 10-5 22t4 20q4 9 10 15 8 6 17 9 10 3 22 3 14 0 26-6 13-5 23-17v16l1 3 4 1 7 1 7-1 4-1 1-3v-104q0-14-3-25-3-10-11-18-7-8-18-11-12-4-29-4m180 0-10 1-9 5-11 9-12 15v-24l-2-2-4-1h-13l-4 1-2 2v158l3 1 4 2 18-2 2-1 1-2v-101l20-27 9-5q5-2 8-2l7 1 10 3h6l1-3v-22l-2-1-3-2zm1512 0q-13 0-25 7t-25 21v-20l-1-2-2-2-4-1-16 1-2 2-1 2v154l1 2 2 2 5 1 18-1 2-2 1-2v-108q11-14 21-22 10-7 20-7 7 0 13 3t10 9l5 13q3 9 2 18v94l1 2 2 2 5 1 17-1 3-2v-110l22-22q10-7 20-7 7 0 13 3t10 9l5 13 2 18v94l1 2 2 2 4 1 18-1 3-2v-100l-2-24q-3-12-9-21-6-8-16-14a54 54 0 0 0-50 2l-13 9-15 15-7-13q-4-5-10-9l-13-7zm455 0q-13 0-26 7-12 7-26 21v-22l-2-2-4-1-17 1-2 2v158l3 2 4 1 18-1 2-2 1-2v-108q12-14 22-22 11-7 21-7 9 0 15 3t10 9 6 13l2 22v90l1 2 2 2 4 1 18-1 2-2 1-2v-94q0-16-3-28t-9-21-17-14-26-5m-2780 0q-20 0-34 7-15 6-25 17-9 12-15 28-4 16-4 34 0 20 4 35 5 15 14 26t24 17 33 5 34-6 24-18q11-12 15-27 5-16 5-35t-4-35q-5-15-15-26-9-10-23-16-13-6-33-6m927 0q-18 0-31 6-14 6-23 17-11 11-15 27-5 15-5 36 0 20 5 36t15 26 24 16q13 5 33 5a123 123 0 0 0 37-5l18-7 1-2 1-3 1-3-1-12-2-2h-2l-6 1a123 123 0 0 1-45 10q-14 0-23-4-10-3-16-11t-8-17q-3-11-3-24h101q5 0 8-2 3-3 3-10v-5q0-15-4-28-3-14-12-23-8-10-21-16-12-6-30-6m436 0q-17 0-30 6t-24 17-14 27q-6 15-5 36 0 20 5 36t14 26q11 10 24 16 15 5 33 5a123 123 0 0 0 38-5l18-7 1-2 1-3v-3l-1-12-1-2h-2l-6 1a124 124 0 0 1-45 10q-14 0-23-4-10-3-16-11t-9-17l-2-24h101q4 0 8-2 3-3 3-10v-5q0-15-4-28-3-14-12-23-8-10-21-16-12-6-31-6m327 0q-16 0-30 6-13 6-24 17-9 11-14 27-6 15-6 36 0 20 5 36 6 16 15 26 11 10 24 16 15 5 33 5a123 123 0 0 0 38-5l17-7 2-2 1-3v-12l-1-3-3-2-6 1a123 123 0 0 1-45 10q-13 0-24-4-9-3-15-11t-9-17l-2-24h101q4 0 8-2 3-3 3-10v-5q0-15-4-28-4-14-12-23-8-10-21-16-12-6-31-6m259 0q-20 0-35 7a68 68 0 0 0-39 45q-5 16-5 34 0 20 5 35t14 26 24 17q13 5 33 5 19 0 34-6t24-18q11-12 15-27 5-16 5-35t-5-35q-4-15-14-26-9-10-23-16-15-6-33-6m643 0q-17 0-30 6t-24 17-14 27-5 36 4 36 15 26q11 10 24 16 15 5 33 5a122 122 0 0 0 38-5l17-7 2-2 1-3v-12l-1-3-1-2h-2l-6 1-25 9-20 1q-14 0-23-4-10-3-16-11t-9-17l-2-24h101q4 0 8-2 3-3 3-10v-5q0-15-4-28-3-14-12-23-7-10-21-16-12-6-31-6m-2263 3h-7l-4 1-2 1-1 3v2l2 5 44 146 2 3 3 2 6 1 23-1 3-2 2-3 29-112 1-1v1l32 112 2 3 3 2 6 1 23-1 3-2 1-3 46-146 1-5v-2l-1-3-2-1-4-1h-6l-12 1-2 1-1 3-37 127v1-1l-37-127-1-3-2-1-5-1-17 1-3 1-1 3-34 127v1-1l-37-127-2-3-2-1-4-1zm1137 0h-7l-4 1-2 1-1 3v1l1 2 1 4 52 146 5 5 6 1 22-1 4-2 2-3 52-146 1-2v-8l-2-1-4-1h-14l-5 1-2 2-1 2-43 127-1 2v-2l-44-127-1-2-3-2-4-1zm-541 19q21 0 31 13 10 12 10 35h-84l3-18q3-9 9-15 5-7 13-11 7-3 18-4m437 0q21 0 31 13 10 12 10 35h-84l3-18q3-9 8-15 5-7 14-11 7-3 18-4m327 0q20 0 31 13 10 12 10 35h-84l3-18q3-9 8-15 6-7 13-11 9-3 19-4m902 0q21 0 31 13 10 12 10 35h-84l3-18q3-9 8-15 6-7 13-11 9-3 19-4m-2592 2q13-1 23 5 9 4 14 13 6 9 8 19a115 115 0 0 1-1 48q-2 11-8 20-6 7-15 12-9 4-22 4-14 0-23-4-9-5-14-14-6-8-8-19a114 114 0 0 1 1-48q2-11 8-19 6-9 15-13t22-4m1949 0q13-1 22 5 10 4 15 13l8 19a114 114 0 0 1-1 48q-3 11-8 20-6 7-15 12-10 4-22 4-14 0-23-4-9-5-14-14-6-8-8-19a114 114 0 0 1 0-48q3-11 9-19 6-9 15-13t22-4m192 0a32 32 0 0 1 30 19q5 8 6 20a141 141 0 0 1 0 44l-7 19q-6 9-13 14t-18 5-22-8-22-21v-61l12-15 12-9 11-5zm-965 1q12 0 22 7 12 7 23 22v61a136 136 0 0 1-25 23 39 39 0 0 1-21 7q-11 0-18-5t-12-14-6-20a142 142 0 0 1 0-44q2-10 7-19 4-8 12-13t18-5m-533 67h24v32q-11 12-20 17-9 6-20 6-15 0-22-7t-7-19l2-12q3-6 9-10 5-3 14-5 8-3 20-2"/>
  <path fill="url(#a)" fill-rule="nonzero" d="M22 84c-40 121 72 407 245 694 205 336 489 662 623 610 191-71 375-413 460-701 73-241 79-455-18-513C1194 88 883 30 603 11Q497 3 400 3C201 3 42 27 22 84m256 125c13-53 189-68 379-54 189 12 398 51 487 109 63 40 48 182-10 333-63 171-182 356-297 392-70 25-193-87-320-265 66-78 121-199 87-224-42-33-166-49-257-46-41-79-87-170-69-245"/>
  <defs>
    <linearGradient id="a" x2="1" gradientTransform="matrix(1539 -918 946 1586 -34 1155)" gradientUnits="userSpaceOnUse">
      <stop offset="0" stop-color="#00a650"/>
      <stop offset=".1" stop-color="#4eb848"/>
      <stop offset="1" stop-color="#a6ce38"/>
    </linearGradient>
  </defs>
</svg>
