<svg xmlns="http://www.w3.org/2000/svg" width="5000" height="1460" viewBox="0 0 5000 1460">
  <path d="M3786 5q-47 0-81 32l-319 298 150 160 130-121v233c0 228 185 414 413 414h65V785h-65c-98 0-177-80-177-178V373l130 122 150-160-313-298q-35-31-83-32M419 225A407 407 0 0 0 10 635c0 231 162 416 409 416 180 0 334-120 388-285H550c-28 35-64 65-131 65-93 0-156-58-171-139h574c24-266-147-467-403-467m908 0c-103 0-176 65-203 105v-78H888v772h236V588c0-84 52-140 136-140s134 56 134 144v432h237V561c0-216-120-336-304-336m1695 0a407 407 0 0 0-409 410c0 231 162 416 409 416 180 0 334-120 389-285h-258c-28 35-64 65-131 65-93 0-156-58-171-139h574c24-266-147-467-403-467m1559 0a407 407 0 0 0-408 410c0 231 183 416 408 416 226 0 409-185 409-416s-183-410-409-410m-2472 25a405 405 0 0 0-410 396 409 409 0 0 0 561 375 186 186 0 0 1 13 53c-7 89-78 154-164 154-85 0-156-65-163-154h-245c7 223 189 381 408 381 220 0 402-158 409-381q-4-115-63-202l-4-7 4-7q60-95 61-212 0-85-36-160h93V250ZM419 443c87 0 132 58 156 105H257c24-55 82-105 162-105m2603 0c87 0 132 58 156 105h-318c24-55 82-105 162-105m1559 27c91 0 164 73 164 165 0 93-73 169-164 169-90 0-163-73-163-169s73-165 163-165m-2473 25c90 0 163 73 163 151q0 32-12 59c-23 58-81 100-150 101h-1c-91 0-164-73-164-160 0-78 73-151 164-151"/>
</svg>
