<svg xmlns="http://www.w3.org/2000/svg" xml:space="preserve" viewBox="0 0 5000 1200">
  <path fill="#fff" d="M2340 4c-333 0-629 84-825 217q-66 44-115 95a469 469 0 0 0-117 193 345 345 0 0 0-12 91 340 340 0 0 0 27 135q28 66 79 125 52 59 124 110 37 26 77 48 41 24 86 44a606 606 0 0 1-123-114 439 439 0 0 1-74-151 391 391 0 0 1 3-201q13-53 40-104a630 630 0 0 1 103-146c86-92 201-174 338-235q49-20 102-38l41-16q-28 14-53 29-11 5-21 12-36 23-68 50-31 27-60 59-44 52-77 113l-15 27a590 590 0 0 0-56 253 604 604 0 0 0 46 230l11 25 13 27q14 24 30 49a598 598 0 0 0 487 265h-2 11c221 0 427-37 597-102a1178 1178 0 0 0 228-115q32-22 61-46t54-49 45-52q20-27 36-55 7-12 12-26l14-31q9-26 15-52l1-7 1-4q5-27 5-56v-1l-2-35q-3-34-14-68c-45-144-183-270-378-359l10 7 11 8 10 7 10 8 9 8 9 8 10 9 8 8 9 9 8 8 8 9 8 9 8 9 7 10 7 9 7 10 6 9 6 10 6 10 6 10 5 11 5 10 5 11 4 10 4 11 4 11 3 11 3 11 3 12 2 11 2 12 2 11q13 107-27 212-17 42-42 83l-10 18-35 49q-18 24-40 47-42 46-95 88v1q-53 42-113 78-61 38-130 68-45 19-94 35l-48 19 39-22q45-24 85-56l17-13 1-1a600 600 0 0 0 205-511q-6-60-24-116-8-27-19-54l-25-52-29-48v-1l-34-45a599 599 0 0 0-80-81 598 598 0 0 0-93-64h-1a593 593 0 0 0-279-75h2zm1098 29 541 541-590 591h420l381-380 380 380h420l-590-591 541-541h-420l-331 331-332-331ZM10 33v1131h1076V932H339V707h566V475H339V265h726V33Z"/>
  <path fill="#004170" d="m2160 574-10-1-11-1-10-1-10-2-10-2-10-3-9-3-9-4-9-4-9-4-9-5-8-5-8-6-8-6-7-7-7-6-7-7-6-8-7-8-5-8-5-8-5-8-5-9-4-9-4-10-3-9-3-10-2-10-2-10-1-10-1-10v-11a204 204 0 1 1 204 205"/>
</svg>
