<svg xmlns="http://www.w3.org/2000/svg" width="5000" height="1210" viewBox="0 0 5000 1210">
  <path fill="#1a1919" d="M1811 432h-178v144h209v35c0 38-30 58-56 58h-149v248h-48c-42 0-67-22-67-68V425c0-72 28-90 96-90h259v36c0 28-20 61-66 61m339 284h-41c-86 0-110 20-110 57q2 56 78 57 73-1 73-70zm-62 207h-23c-108 0-182-61-182-145 0-82 59-144 226-144h40v-6c0-65-30-84-98-84-82 0-128 31-145 53h-4v-37c0-51 46-112 166-112 101 0 193 47 193 206v105c0 97-71 164-173 164m339-541v275c44-58 88-117 140-167 28-26 55-30 92-30h66v4c-33 27-140 149-187 209q53 69 113 134c42 42 61 50 89 60-12 36-31 56-78 56-25 0-55-12-75-32-59-60-110-128-160-196v224l-37 1q-79 1-79-81V306h37c56 0 79 32 79 76m380 7c15-18 35-32 53-32h26v105h158v47c0 24-21 54-67 54h-91v181c0 60 26 83 72 83q55 0 82-16h4v41c0 47-33 77-99 77-115 0-171-64-171-171V481c0-46 8-63 33-92m495 540c-112 0-201-75-201-209V459h21q96 0 94 82v168c0 84 40 118 92 118 46 0 79-32 79-110V459h20c66 0 94 28 94 82v172q0 215-199 216m533-360c-17-7-36-13-66-13-51 0-79 28-79 97v264h-32c-51 0-83-25-83-73V633c0-92 48-179 169-179 71 0 96 40 96 74v41zm228-19c-66 0-99 55-99 131 0 91 33 145 109 145 67 0 99-54 99-129 0-92-34-147-109-147m10-102c138 0 218 111 218 233 0 138-80 248-228 248-138 0-218-110-218-232 0-138 80-249 228-249m415 481c-88 0-136-51-136-144V472h32c51 0 81 28 81 86v216c0 46 20 60 70 60h21v25c0 50-20 70-68 70m-80-499a67 67 0 0 1 0-135c36 0 66 30 66 67s-30 68-66 68m356 115c-58 0-96 56-96 130 0 95 50 158 115 158 64 0 92-48 92-131 0-115-50-157-111-157m5 384c-120 0-213-106-213-232 0-150 73-248 207-248 46 0 96 33 114 72V306h35c54 0 78 32 78 78v323c0 133-63 222-221 222M630 3C288 3 10 223 10 495v220c0 272 278 492 620 492s620-220 620-492V495C1250 223 972 3 630 3M429 732h-62v238h-57c-45 0-86-35-86-85V509c0-116 54-262 217-298 164-36 210 44 210 44s-103-1-184 62c-45 35-98 114-100 204v110c102 20 183-14 207-24l4-1s-7 126-149 126m634 44c0 120-89 203-216 203h-29c-135 0-228-76-228-180 0-101 74-179 283-179h50v-7c0-80-38-137-123-137-102 0-160 39-181 65h-5v-45c0-64 57-140 207-140 127 0 242 92 242 289zm-328 18c0 44 36 70 98 70q91 0 91-87v-55h-51c-108 0-138 25-138 72"/>
</svg>
