<svg xmlns="http://www.w3.org/2000/svg" width="5000" height="1760" viewBox="0 0 5000 1760">
  <path fill="#fffffe" d="M2067 477q0-74-50-120-51-46-135-46h-318v472h115V650h193l72 134h131l-85-160q77-48 77-147m-185 75h-203V409h203c40 0 64 26 64 69 1 46-24 74-64 74m1442 77-311-318h-114v472h114V466l311 318h115V311h-115ZM1014 784h115V605h294v-98h-294v-98h341v-98h-456Zm2506-473v98h182v374h115V409h181v-98Zm-1002-12h-88q-272 1-273 248 2 247 273 248h88q272-1 273-248-1-247-273-248m-20 399h-47q-175-1-175-151t175-151h47q175 1 174 151-1 151-174 151"/>
  <path fill="#0a8eff" d="M515 1Q358 1 284 78q-74 78-74 216v388q0 63-26 88-25 23-94 23H10v174h81q69 0 94 23 26 23 26 88v388q-1 138 74 216 74 78 231 77h36v-165h-46q-73 0-104-30-31-28-31-111v-377q0-105-47-147-49-43-126-43v-13q77 0 126-43 47-41 47-147V306q0-83 31-111 32-29 104-30h45V1Zm3933 0v164h45q72 1 104 30 31 29 31 111v377q0 106 49 147 47 43 126 43v13q-79 0-126 43-49 42-49 147v377q0 82-31 111-31 30-104 30h-45v165h36q158 0 231-77 74-78 74-216v-388q0-65 26-88 25-23 95-23h80V793h-80q-70 0-95-23-26-25-26-88V294q1-138-74-216-73-77-231-77ZM3175 897q-124 0-177 34-51 34-51 109c0 42 18 75 44 96q19 16 50 27c41 14 79 21 134 26h1c49 5 79 9 109 14 44 8 66 20 66 48q0 30-26 39-26 10-108 10h-13c-127-3-147-23-147-81h-120c1 124 51 172 237 174h68c163 0 228-50 228-142-2-62-21-96-63-118-23-10-40-17-75-22-35-6-60-8-107-13-106-10-161-24-161-62 0-36 20-47 135-47h13c95 0 128 23 128 81h120q0-173-217-173zM817 909v472h456v-97H932v-96h288v-96H932v-85h341v-98zm579 0v472h114v-319l311 319h115V909h-115v318l-311-318Zm680 0v472h279c186 0 273-88 273-236q-1-237-273-236zm648 0v472h114V909Zm785 0v97h182v375h115v-375h182v-97zm558 0v472h114V909Zm-1877 97h144q99 0 137 32 37 32 37 107 1 73-37 106-38 34-137 33h-144z" class="group-hover:fill-blue-dark transition-colors"/>
</svg>
