<svg xmlns="http://www.w3.org/2000/svg" data-name="Vrstva 1" viewBox="0 0 5000 810">
  <path fill="#009c48" d="M118 543c-20 9-44 5-58-15-10-24-5-48 14-58q81-49 169-48a340 340 0 0 1 348 343c0 24-19 44-44 44-24 0-43-20-43-44 0-43-10-92-29-130a254 254 0 0 0-227-126q-72-1-130 34"/>
  <path fill="#3b2578" d="M504 45c0-24 19-44 43-44 20 0 39 20 39 44 0 58-10 116-39 169a345 345 0 0 1-299 179c-63 0-121-19-169-48-24-10-29-34-19-58 14-20 38-25 58-15 38 19 82 34 130 34 97 0 179-53 222-131q35-65 34-130"/>
  <path fill="#e54200" d="M740 625c20 14 29 39 15 63-10 19-39 24-58 14a348 348 0 0 1-125-474c28-48 72-91 125-120 19-15 44-5 58 14 10 19 5 48-15 58q-59 35-96 92c-48 82-44 184 0 261 24 39 58 73 96 92"/>
  <path fill="#efefef" d="M1185 301q-28-42-63-63c-29-14-53-19-87-19-53 0-97 14-130 53-34 34-49 82-49 135q0 44 15 73a170 170 0 0 0 96 101q31 15 68 15a156 156 0 0 0 164-155h-150v-34h194v5q-1 102-58 160c-39 38-87 58-155 58q-96 1-154-63c-39-39-63-97-63-160q-1-49 19-87 15-43 44-72 30-35 67-49 36-20 87-19 67 2 111 24 43 23 73 68zm135 319V190h38v391h150v39zm299-179h150l-73-188Zm-111 179 188-445 179 445h-39l-58-145h-173l-54 145zm415 0V175l304 353V190h34v440l-299-358v348zm787-353c-19-14-43-29-63-38a194 194 0 0 0-207 38q-50 52-49 140c0 25 5 54 10 73q16 35 39 63 27 23 62 38 31 15 68 15 36 0 72-15c25-9 44-19 68-38v48l-68 29q-37 9-67 10-50 0-92-15-43-20-72-48-28-29-49-73-14-43-14-87-1-48 19-91 15-44 44-73 36-29 72-44 42-20 92-19 36 0 72 15c24 4 44 19 63 34zm87 353V190h207v39h-168v130h168v39h-168v183h168v39zm671 15-150-344-34 329h-38l58-445 164 377 169-377 53 445h-39l-34-329zm304-15V190h212v39h-173v130h173v39h-173v183h173v39zm343-34h58q64-1 91-9 28-9 49-25 23-27 38-62 15-37 15-87 0-44-15-83-15-42-38-62c-15-15-34-20-53-25-20-9-54-9-102-9h-43zm-39 34V190h68q88 2 125 9c24 5 48 15 63 30q36 28 58 72c10 34 19 68 19 106 0 34-9 68-19 102q-23 45-53 68c-20 14-44 29-68 33q-30 9-111 10zm415 0V190h39v430zm198-179h150l-73-188Zm-111 179 188-445 179 445h-39l-58-145h-173l-53 145z"/>
</svg>
