<svg xmlns="http://www.w3.org/2000/svg" xml:space="preserve" width="5000" height="820" viewBox="0 0 5000 820">
  <defs>
    <linearGradient id="b" x1="42.8" x2="42.8" y1="113.8" y2="28.9" gradientTransform="matrix(9 0 0 9 10 3)" gradientUnits="userSpaceOnUse">
      <stop offset="0" stop-color="#fff100"/>
      <stop offset="1" stop-color="#f05a28"/>
    </linearGradient>
    <linearGradient id="a" x1="432.5" x2="432.5" y1="105.7" y2="21.7" gradientTransform="matrix(9 0 0 9 10 3)" gradientUnits="userSpaceOnUse">
      <stop offset="0" stop-color="#fff100"/>
      <stop offset="1" stop-color="#f05a28"/>
    </linearGradient>
  </defs>
  <path fill="#0a0a0a" d="M1168 168a265 265 0 0 0-263 264c0 144 110 263 257 263 139 0 251-111 257-253v-36h-288v62h213c-15 88-88 157-182 157-105 0-187-84-187-193 0-107 87-194 193-194 50 0 100 25 141 60l42-51c-54-51-118-79-183-79m1074 32c-70 0-125 46-125 123v368h69V402h112v-61h-112v-20c0-30 25-55 56-55h56l28-66zm-377 135a181 181 0 0 0-72 346c74 32 147 11 193-34v44h59V341h-60v44q-48-48-120-50m624 0a181 181 0 0 0-72 346c74 32 147 11 193-34v44h59V341h-60v44q-48-48-120-50m786 0a181 181 0 0 0-72 346c74 32 147 11 193-34v44h59V341h-60v44q-48-48-120-50m-377 0c-35 0-69 13-94 36v-30h-58v350h70V483a79 79 0 0 1 158 0v208h69V483c0-82-64-148-145-148m-1422 6v350h70V486c0-43 35-78 78-78h39l28-67h-75q-53 0-83 29v-29zm390 64a110 110 0 1 1 1 221 110 110 0 0 1-1-221m624 0a110 110 0 1 1 1 221 110 110 0 0 1-1-221m786 0a110 110 0 1 1 1 221 110 110 0 0 1-1-221"/>
  <path fill="url(#a)" d="M3670 169v522h264v-71h-193V169Zm699 29v493h59v-45q48 48 122 50a182 182 0 0 0 0-364c-43 1-83 17-112 43V198Zm-241 135a182 182 0 1 0 0 364c47 0 90-20 121-51v45h60V339h-60v44q-48-48-121-50m743 0c-67 0-117 39-117 98 0 62 57 86 92 100 49 19 71 32 71 56 0 21-16 42-51 42-29 0-67-15-87-27l-28 58c30 19 73 36 117 36 72 0 122-49 122-107s-49-96-106-116c-34-13-62-22-62-46 0-22 24-35 51-35 28 0 54 14 68 23l31-51c-29-18-62-31-101-31m-742 70a111 111 0 1 1 1 222 111 111 0 0 1-1-222m420 1c60 0 111 49 111 111a111 111 0 0 1-222 0c0-62 50-111 111-111"/>
  <path fill="url(#b)" d="M759 362a286 286 0 0 0-69-163l-21-23c12-46-14-85-14-85-44-3-72 14-82 21l-5-2a276 276 0 0 0-73-20l-4-1c-19-61-74-86-74-86-61 38-73 93-73 93l-1 3-10 3-14 5-14 5a292 292 0 0 0-53 30l-2-1c-84-32-160 6-160 6-7 91 34 148 42 158a382 382 0 0 0-20 89C33 433 10 512 10 512c65 75 142 80 142 80a346 346 0 0 0 50 68c-24 68 3 125 3 125 73 2 121-32 131-40a317 317 0 0 0 107 17h8l4-1v1c34 49 95 55 95 55 43-45 45-90 45-99v-4a264 264 0 0 0 70-73l4-5c48 2 82-31 82-31-8-50-37-75-42-80h-2l-1-1 1-9 1-17v-8l-1-3v-5l-1-9v-4l-1-4a220 220 0 0 0-28-78 211 211 0 0 0-150-98l-29-2h-7l-4 1h-4l-14 2a163 163 0 0 0-121 99q-9 24-10 47v24l4 23a121 121 0 0 0 115 87h6l2-1h7l4-1 4-1 7-2a95 95 0 0 0 27-14q5-5 1-12-4-5-10-2l-3 1-20 7-6 1h-13l-1-1h-3a87 87 0 0 1-48-22 87 87 0 0 1-28-65v-8l2-8a107 107 0 0 1 94-88h18a129 129 0 0 1 55 17 134 134 0 0 1 68 104v21l-5 32a160 160 0 0 1-28 60 174 174 0 0 1-132 70h-23a224 224 0 0 1-90-26 230 230 0 0 1-121-187v-23a230 230 0 0 1 6-46 320 320 0 0 1 21-66 237 237 0 0 1 82-97l18-11 9-4 5-2 5-2 19-7 5-2 5-1 10-3 5-1 5-1 5-1h3l3-1 5-1h6l5-1h4l2-1h14l5-1a370 370 0 0 1 58 5 267 267 0 0 1 126 60l3 2 3 3 6 5 6 6 5 5a296 296 0 0 1 48 67l1 3 2 3 2 5 3 5 2 5a290 290 0 0 1 15 46 6 6 0 0 0 13-2z"/>
</svg>
