<svg xmlns="http://www.w3.org/2000/svg" xml:space="preserve" viewBox="0 0 5000 1070">
  <path fill="#c3c3c4" d="M1604 390c-60 0-91 35-91 97v201c0 62 31 97 91 97 59 0 90-35 90-97V565h-85v55h28v72q-1 39-32 37-30 2-31-37V483c0-28 12-38 31-38 20 0 32 10 32 38v41h57v-37c0-62-31-97-90-97m1356 0c-60 0-92 35-92 97v201c0 62 32 97 92 97s92-35 92-97V487c0-62-32-97-92-97m756 0c-59 0-90 35-90 97v201c0 62 31 97 90 97 60 0 91-35 91-97v-52h-58v56q-1 39-31 37-30 2-32-37V483c0-28 13-38 32-38s31 10 31 38v41h58v-37c0-62-31-97-91-97m-1761 4v387h166v-56h-105V612h83v-55h-83V449h105v-55zm203 0v387h166v-56h-105V612h83v-55h-83V449h105v-55zm525 0v387h60V621h79v-55h-79V449h100v-55zm769 0-62 387h56l10-71h75l10 71h62l-62-387zm438 0-62 387h56l10-71h75l10 71h61l-61-387Zm404 0v387h165v-56h-104V612h83v-55h-83V449h104v-55zm-2561 0v387h61V623h21c28 0 40 13 40 49v61c0 32 2 38 5 48h62q-8-21-7-47v-60c0-40-9-70-40-82q40-19 40-79v-30c0-60-27-89-90-89zm628 0v387h55V501l75 280h63V394h-55v231l-62-231zm713 0 63 188-68 199h57l50-153 50 153h64l-68-199 64-188h-57l-47 143-45-143zm995 0v387h96q90-1 90-96V490q0-94-90-96zm427 0v387h53V507l46 274h57l42-278v278h57V394h-84l-41 274-45-274zm280 0 77 258v129h60V652l77-258h-58l-46 176-47-176zm-1816 51c19 0 31 10 31 38v209q-1 39-31 38-30 1-32-38V483c0-28 13-38 32-38m-1166 4h29q32-1 31 40v38c0 31-14 41-36 41h-24zm2335 0h34c20 0 31 10 31 38v201q0 39-31 37h-34zm-636 14 30 195h-59zm438 0 29 195h-58z"/>
  <path fill="#3cb878" d="M845 4C662 1 582 144 558 200l-1-1q-48-6-99-6v516h1q26 0 47 13l4 2c18-19 133-141 230-222 45-38 87-68 111-72l56-56q-30-37-69-67l-1-1q-35-26-75-46A634 634 0 0 1 883 6zM666 416c25-1 45 5 45 5 0 152-138 102-138 102-2-89 52-107 93-107m-23 26c-14 0-26 14-26 30 0 17 12 31 26 31s26-14 26-31c0-16-12-30-26-30m364 48c-43-2-85 14-121 34q-8 16-13 32c-14 52-39 103-73 145v-5q-1-94-45-170L531 750l-73 72v216c112 0 211-54 273-136 82-7 188-41 311-136q28-21 49-42c22-95-10-177-10-178-36 59-110 79-110 79-1-61 36-135 36-135m74 56"/>
  <path fill="#007335" d="M72 4 34 6c3 4 91 110 120 247l1 7A479 479 0 0 0 10 374l56 56c24 5 66 34 111 72 97 81 212 204 230 223l-3 2 7-5h1q21-13 46-13V193q-50 0-99 7C334 144 255 1 72 4m179 412c40 0 94 18 93 107 0 0-138 50-138-102 0 0 20-6 45-5m29 26c-15 0-26 14-26 30 0 17 11 31 26 31 14 0 25-14 25-31 0-16-11-30-25-30m-118 84q-44 76-45 170c0 189 153 342 341 342V822v1-1 1-1l-72-72zm233 207-13 13z"/>
  <path fill="#f6f3cf" d="M510 725q15 8 25 21l-4 4 4-4q-10-13-25-21"/>
  <path fill="#3c3c3b" d="M883 6c-4 4-94 114-121 254q41 20 75 46l1 1c25-57 43-164 45-301M34 6c1 137 20 244 45 301a479 479 0 0 1 76-47l-1-7A637 637 0 0 0 34 6m424 703q-26 0-47 13a104 104 0 0 0-29 24l4 4 72 72v1-1 1-1l73-72 4-4a101 101 0 0 0-29-24h-1q-21-13-46-13M327 954c-62 0-113 50-113 113h226c0-63-51-113-113-113m260 0c-62 0-112 50-112 113h225c0-63-51-113-113-113"/>
  <path fill="#f6f3cf" d="M1123 307s-179 92-237 217c36-20 78-36 121-34 0 0-37 74-36 135 0 0 74-20 110-79 0 0 32 82 10 178 234-222 32-417 32-417M851 430c-24 4-66 34-111 72-97 81-212 203-230 222q15 9 25 22l82-82z"/>
  <path fill="#d5d2b1" d="M407 725c-18-19-133-142-230-223-45-38-87-67-111-72l316 316q10-13 25-21"/>
</svg>
