<svg xmlns="http://www.w3.org/2000/svg" fill="none" width="5000" height="1010" viewBox="0 0 5000 1010">
  <path fill="#121212" d="M3218 0a101 101 0 1 0 0 203c56-2 100-43 100-101 0-57-44-102-100-102M23 27q-14-1-13 9-1 10 13 9h67c15 0 16 14 16 61v874h172V420c0-42 47-134 155-134 66 0 129 28 129 138l1 556h172V524c0-194-152-258-263-258s-161 45-191 91h-2V36c0-4-1-9-12-9zm3631 49q-18 1-17 15 0 13 17 14 16-1 17-14 0-14-17-15m834 5-16 21h18l23-21zm-619 1v105h20l1-7c5 6 9 8 20 8 21 0 32-18 32-40 0-20-10-37-30-37-13 0-19 6-22 10V82h-20zm177 0v19h21V82Zm564 0v19h20V82Zm118 0v105h20V82Zm-1074 1q6 2 7 8 1 4-7 4-8-1-7-6t7-6m-215 5v17h51l-54 66v16h79l3-17h-55l52-65V88Zm1498 4v20h-13v16h11v40q-1 20 19 20l14-1v-14h-4q-8 0-7-8v-37h14v-16h-14V92Zm-1120 19c-23 0-37 16-37 39q1 36 36 38 36-2 37-38c0-23-14-39-36-39m987 0c-23 0-38 16-38 39q1 36 36 38 37-2 37-38c0-23-14-39-35-39m-1229 0q-18 2-22 11l-1-8h-20v102l23-2v-34q4 7 18 8c18 0 32-14 32-40 0-23-13-37-30-37m159 0c-23 0-30 11-30 23 0 11 4 19 29 24q15 3 14 9 0 7-10 7-13 0-14-9l-19-1c1 13 10 24 33 24q32-2 32-23c0-10-5-18-29-24q-16-3-15-9-1-5 9-5 13 1 12 7h18c0-10-7-23-30-23m516 0c-13 0-18 7-21 11q-2-6-2-10h-20v19h3v57h20v-41q0-21 13-19 12 1 11 14v45h21v-47q-1-29-25-29m230 0c-23 0-31 11-32 24h20c2-4 3-8 12-8 10 0 11 4 11 10v4h-10q-35-1-36 24c0 12 9 23 26 23q20-1 21-8l2 7h20l-1-19h-3v-31q0-27-30-26m199 0c-23 0-30 11-30 23 0 11 4 19 28 24q17 3 15 9 0 7-10 7-13 0-15-9l-20-1c2 13 10 24 33 24q33-2 32-23c0-10-5-18-29-24q-15-3-14-9-1-5 8-5 13 1 12 7h20c0-10-7-23-30-23m205 0c-23 0-30 11-30 23 0 11 4 19 28 24q17 3 15 9 0 7-10 7-13 0-15-9l-20-1c2 13 10 24 33 24q33-2 32-23c0-10-5-18-29-24q-15-3-14-9-1-5 8-5 13 1 12 7h20c0-10-7-23-30-23m-1262 1v49q1 28 25 27 12 1 20-10v9h20v-75h-20v39q-1 21-13 20-13-1-12-14v-45zm339 0v49q1 28 24 27 14 1 20-10v9h20v-75h-20v39q0 21-13 20-11-1-11-14v-45zm85 0v79q1 11-8 10h-2v16h6c20 0 25-10 25-31v-74zm74 0c-25 0-36 18-36 41 0 18 10 37 34 37 23 0 32-16 35-25h-20q-2 8-13 8c-10 0-15-10-15-19l49 1v-5c0-19-8-38-34-38m206 0c-24 0-36 18-36 41 0 18 10 37 35 37 23 0 31-16 34-25h-20q-1 8-13 8c-10 0-14-10-14-19l49 1v-5c0-19-9-38-35-38m50 0v16h35l-38 43h2v15h60l3-16h-39l36-42v-16zm149 0 25 75h21l26-75h-20l-16 56-14-56zm85 0v75h20v-75zm-793 15q15 0 16 23 0 22-16 23-16-1-16-23 1-23 16-23m303 0q14 2 14 15h-29q0-14 15-15m206 0q15 2 15 15h-29q0-14 14-15m476 0q16 0 16 23 0 22-16 23-15-1-16-23 1-23 16-23m-1234 1q16-1 14 23 1 22-16 23-14-1-14-23-1-23 16-23m338 0q17 1 16 22 0 22-16 23-16-1-16-22 0-23 16-23m578 26h8v3c0 10-1 19-14 19q-12-1-11-11-1-11 17-11M2586 263c-155-1-277 100-330 248q-19 52-23 102v59c9 131 89 250 240 305q27 10 56 16s10 3 12-4c3-8-5-9-5-9-20-4-35-10-58-17q-42-16-64-42v-2c-43-50-33-123-12-197a1927 1927 0 0 1 121-322s43-86 71-137zm-545 3c-71 0-132 38-162 98h-3v-69c0-4-1-9-14-9h-238q-14-1-13 9-1 10 13 9h67c15 0 16 14 16 61v615h172V427c0-74 70-141 132-141 16 0 32 10 32 28 0 30-43 34-43 87 0 54 43 88 90 88 53 0 96-39 96-98 0-82-77-125-145-125m1858 0c-110 0-162 45-192 92h-4v-64q2-8-15-9h-238q-14-1-13 9-1 9 13 8h68c14 0 15 15 15 62v614h172V419c0-42 48-134 155-134 66 0 129 27 129 138v557h175V524c0-194-155-258-265-258m-2669 3a366 366 0 0 0-364 366c0 207 176 359 364 359 185 2 298-118 331-231 0 0 4-10-6-13-5-2-8 11-8 11-46 153-202 199-281 199-119 0-172-115-181-210-7-59-6-95-3-157 0-10 7-10 12-10h411c33 0 49-15 49-65 0-148-185-249-324-249m3429 0a366 366 0 0 0-364 366c0 207 176 359 364 359 183 0 296-119 329-233h1c1-1 4-9-5-11-6-2-9 11-9 11-45 153-202 199-280 199-119 0-172-115-181-210-7-59-6-95-3-157 0-10 7-10 11-10h412c33 0 49-15 49-65 0-148-185-249-324-249m-1998 4q-5 0-6 5c-2 7 4 8 4 8 20 5 34 10 57 18 75 27 96 77 95 136 0 33-9 69-17 105-26 94-62 193-102 281l-20 42s-43 86-72 136h9c155 2 276-99 330-247q12-35 18-71v-1l4-30v-7q2-13 2-24v-18c-6-135-86-261-241-317q-28-9-56-16zm-1433 12c66 0 99 46 112 119 9 48 12 101 12 146 0 10-9 13-13 13h-244c-4 0-11 0-11-10l3-80c10-106 50-188 141-188m3429 0c66 0 99 46 112 119 9 48 12 101 12 146 0 10-9 13-13 13h-244c-6 0-12 0-12-10l3-80c10-106 50-188 142-188m-1602 1q-14-1-13 9-1 10 13 9h67c14 0 16 14 16 61v615h172V294q2-8-13-8z"/>
</svg>
