<svg xmlns="http://www.w3.org/2000/svg" width="5000" height="520" viewBox="0 0 5000 520">
  <path fill="#363636" d="M1225 3a265 265 0 0 1-70 7l-33-1v11q21 0 29 12 7 10 7 34v302q0 23-8 30-9 8-28 8v11l30-1a786 786 0 0 1 80 0l29 1v-11q-20 0-28-8-8-7-8-30zm174 0a265 265 0 0 1-70 7l-33-1v11q21 0 28 12 8 10 8 34v302q0 23-8 30-9 8-28 8v11l30-1a786 786 0 0 1 106 1v-11q-19 0-26-8-7-7-7-30v-91q10 1 16 4 8 3 14 14l55 93q6 8 1 14-3 4-14 4v11l28-1a668 668 0 0 1 89 1v-11q-11-3-17-9l-14-18-91-143 44-46a125 125 0 0 1 30-23q15-9 30-13v-10l-36 2h-20l-62-2v10q18 2 29 8 12 7 11 19 0 12-17 29l-40 40a52 52 0 0 1-17 12q-8 4-20 4zm1856 0a265 265 0 0 1-70 7l-33-1v11q21 0 28 12 8 10 8 34v302q0 23-8 30-9 8-28 8v11l30-1a786 786 0 0 1 106 1v-11q-19 0-26-8-7-7-7-30v-91q10 1 16 4 8 3 14 14l55 93q6 8 1 14-3 4-14 4v11l28-1a668 668 0 0 1 89 1v-11q-11-3-17-9l-14-18-91-143 44-46a125 125 0 0 1 30-23q15-9 30-13v-10l-36 2h-20l-62-2v10q18 2 29 8 12 7 11 19 0 12-17 29l-40 40a52 52 0 0 1-17 12q-7 4-19 4zm693 6q-19 0-31 10-12 11-12 28 0 18 12 29 12 10 31 10 19-1 31-10 13-11 13-29 0-17-13-28a46 46 0 0 0-31-10M421 43v10q18 1 26 4 10 4 12 13a93 93 0 0 1 3 29v262q0 19-3 29a18 18 0 0 1-12 13q-8 3-26 4v10a1741 1741 0 0 1 154 0v-10l-25-4a19 19 0 0 1-12-13q-3-10-3-29V234h151v127q0 19-4 29a18 18 0 0 1-11 13q-9 3-26 4v10a1694 1694 0 0 1 154 0v-10l-26-4a19 19 0 0 1-12-13q-3-10-3-29V99q0-20 3-29a19 19 0 0 1 12-13q9-3 26-4V43a1948 1948 0 0 1-154 0v10q18 1 26 4 9 4 11 13a93 93 0 0 1 4 29v125H535V99q0-20 3-29a19 19 0 0 1 12-13q9-3 26-4V43l-121 1zm1715 0v10q17 1 26 4 8 4 11 13a93 93 0 0 1 4 29v244q0 24-4 37-2 13-11 19a59 59 0 0 1-26 8v10a649 649 0 0 1 77-1l26 1v-10q-23-3-33-8a30 30 0 0 1-14-20q-3-15-3-40V76l140 343h8l128-335v277q0 19-4 29a19 19 0 0 1-12 13l-27 4v10a1805 1805 0 0 1 156 0v-10l-26-4a19 19 0 0 1-12-13q-3-10-3-29V99l2-29a19 19 0 0 1 13-13q9-3 26-4V43l-78 1h-34l-103 273-109-274-71 1zm1666 14q-15 7-32 10l-35 4v73h-47v11h47v179a218 218 0 0 0 4 44 64 64 0 0 0 15 29q10 9 22 13 12 5 30 5 30 0 47-17a106 106 0 0 0 25-43l-10-4a82 82 0 0 1-18 31 33 33 0 0 1-22 9 25 25 0 0 1-20-8q-6-9-6-27V155h67v-11h-67zm830 74q-20 0-38 14-10 8-17 17a123 123 0 0 0-79-26 124 124 0 0 0-72 21q-29 20-29 63 0 44 29 64 22 16 52 19a149 149 0 0 0-38 26 50 50 0 0 0-17 37q0 17 10 26 9 10 25 14 17 4 36 4h35q35 0 47 12 12 11 12 27a47 47 0 0 1-12 33 72 72 0 0 1-32 19 145 145 0 0 1-44 7q-35 0-56-13-21-12-21-35 0-11 5-21a39 39 0 0 1 16-16l-4-8a99 99 0 0 0-43 20q-15 14-15 30 0 17 15 29 14 11 40 17t56 6q52 0 85-14a110 110 0 0 0 49-35 77 77 0 0 0 17-48q0-36-28-51a134 134 0 0 0-68-16h-60q-23 0-23-17 0-12 10-20l17-11h6q44 0 72-21 30-20 29-63 0-31-14-51l11-14q9-8 23-14a60 60 0 0 0-6 27q2 13 9 19t16 6 19-7 8-24q0-15-9-23a32 32 0 0 0-24-9m-3666 5q-36 0-65 15a102 102 0 0 0-45 46q-16 31-16 84 0 51 16 83a102 102 0 0 0 45 46 144 144 0 0 0 65 15q37 0 65-15a102 102 0 0 0 45-46q17-32 17-83 0-52-17-84a102 102 0 0 0-45-46q-28-15-65-15m1798 0q-26 0-45 6a108 108 0 0 0-55 32q-7 9-7 24t9 26 27 11q15 0 27-9 11-9 11-26a38 38 0 0 0-30-38 39 39 0 0 1 21-12l23-3q15 0 24 6 11 5 15 16 6 10 5 28v38q0 12-10 20l-27 14-35 13-36 15a80 80 0 0 0-27 24 60 60 0 0 0-10 37 66 66 0 0 0 16 45q15 18 51 18 24 0 44-10a89 89 0 0 0 35-34q1 17 10 31 11 13 41 13a82 82 0 0 0 55-19l-6-10-10 7-11 4q-7 0-10-6t-3-19V233q0-26-4-44t-16-30a67 67 0 0 0-31-17 147 147 0 0 0-41-6zm323 0q-17 0-32 9-15 8-25 20-10 13-17 28v-55a262 262 0 0 1-69 7l-33-1v11q21 0 28 12 8 10 8 34v167q0 23-9 30-7 8-27 8v11l30-1a806 806 0 0 1 89 0l35 1v-11q-25 0-38-8-14-10-14-36V232a93 93 0 0 1 27-64q13-13 30-15 8-1 13 2l-15 15a38 38 0 0 0-6 22q0 15 10 23 10 9 26 9 17 0 27-12a42 42 0 0 0 10-29 49 49 0 0 0-5-22 43 43 0 0 0-16-18 49 49 0 0 0-27-7m493 0a117 117 0 0 0-110 67q-16 33-16 81 0 46 15 78 16 30 43 47a125 125 0 0 0 113 4 104 104 0 0 0 35-30q13-18 19-37l-10-4a82 82 0 0 1-34 37 87 87 0 0 1-38 9q-18 0-35-11t-27-35a149 149 0 0 1-11-61v-15l1-13h154q0-60-26-89a96 96 0 0 0-73-28zm665 0a108 108 0 0 0-50 13q-24 12-37 42v-53a262 262 0 0 1-70 7l-33-1v11q21 0 28 12 9 10 8 34v167q1 23-8 30-9 8-28 8v11l31-1a755 755 0 0 1 103 1v-11q-17 0-24-8-7-7-7-30V230q0-30 17-52a53 53 0 0 1 43-21q15 1 22 7 9 6 11 18 3 11 3 26v160q0 23-7 30-7 8-24 8v11l28-1a668 668 0 0 1 76 0l29 1v-11q-19 0-28-8-7-7-7-30V226q0-27-5-43a55 55 0 0 0-35-41 89 89 0 0 0-36-6zm-260 2a262 262 0 0 1-70 7l-32-1v11q20 0 28 12 7 11 7 35v166q0 22-8 30-7 8-27 8v11l30-1a755 755 0 0 1 79 0l29 1v-11q-19 0-28-8-8-7-8-30zm810 0a262 262 0 0 1-70 7l-33-1v11q21 0 28 12 8 10 8 34v134q0 26 4 43 3 16 12 26 9 9 23 15a103 103 0 0 0 84-7 86 86 0 0 0 36-41v53q15-4 33-6a428 428 0 0 1 70 0v-11q-21 0-28-11-8-12-8-36V138a262 262 0 0 1-70 7l-33-1v11q21 0 28 12 9 10 8 34v130q0 30-17 52a50 50 0 0 1-41 20q-15 1-22-6-7-6-10-18-2-11-2-25zm-2697 4-54 2a2919 2919 0 0 1-155-2l1 40 1 62h12q1-35 12-54a64 64 0 0 1 28-29q16-9 39-9h39l-140 268 54-2a2918 2918 0 0 1 156 1l-2-101h-11a123 123 0 0 1-14 54 72 72 0 0 1-29 29 83 83 0 0 1-38 8h-38zm-516 2v11q6 0 15 5t19 24l107 248-13 33q-7 22-19 32t-28 10h-4l-5-1q11-4 17-12a29 29 0 0 0 5-18q0-15-9-23-10-8-25-8-18 0-28 9a30 30 0 0 0-10 24q0 14 7 22 9 9 20 13t23 4 25-3a49 49 0 0 0 20-10q13-11 22-38l21-53 78-215a92 92 0 0 1 16-32q10-9 19-11v-11a435 435 0 0 1-63 1l-25-1v11q26 1 35 19 9 16-4 54l-44 119-64-157q-7-18-4-24 3-7 12-9l22-2v-11l-34 2a641 641 0 0 1-104-2zm2916 2q16 0 25 16a123 123 0 0 1 10 58q-1 43-10 59t-25 16-25-16a134 134 0 0 1-9-59 130 130 0 0 1 9-58q10-16 25-16m-3532 1q25 0 41 32 15 31 15 102t-15 102-41 31-40-31-16-102q0-71 16-102 16-32 40-32zm2611 0q15 0 24 14 9 13 14 35a205 205 0 0 1 3 48h-94q3-51 18-73 15-24 35-24zm-788 110v107q-9 15-21 21-11 6-22 6-16 0-27-10-10-11-10-33a61 61 0 0 1 10-37q9-13 23-21l27-16a52 52 0 0 0 20-17z"/>
  <path fill="#e71862" d="m59 136-15 58h328l15-58zM25 268l-15 58h328l15-58zM146 45 51 417h58l95-372Zm142 0-95 372h58l95-372Z"/>
</svg>
