<svg xmlns="http://www.w3.org/2000/svg" width="5000" height="450" viewBox="0 0 5000 450">
  <path fill="#3f4552" d="m3137 10 6 13-112 56-10-11 39-58zM705 365c25 17 50 31 78 31 35 0 58-17 58-46 0-69-139-53-139-165 0-66 50-94 103-94q53 1 86 21v74h-25l-29-62c-42-10-71 4-71 43 0 70 141 54 141 164 0 66-48 100-109 100-46 0-78-20-101-52zm1699 0c26 17 51 31 78 31 35 0 58-17 58-46 0-69-139-53-139-165 0-66 51-94 103-94 37 0 63 8 87 21v74h-26l-28-62c-42-10-71 4-71 43 0 70 141 54 141 164 0 66-48 100-109 100-47 0-78-20-101-52zM259 244H125v142l41 15v25H10v-25l41-15V72L10 57V32h156v25l-41 15v131h134V72l-42-15V32h156v25l-40 15v314l40 15v25H217v-25l42-15zm4470-112-25-11V96h134v25l-30 11 41 78 20 41h2l18-41 37-75-37-15V96h101v24l-27 15-80 150v105l40 11v25h-149v-25l40-11v-97zm-282 2-29-13V96h87l106 164 26 43 2-1-1-50-2-116-41-16V96h105v24l-28 16-2 289-33 4-131-203-25-43-3 1 1 51 2 151 41 16v24h-104v-24l27-16zm-152-2-32-11V96h133v25l-31 11v258l31 11v25h-133v-25l32-11zm-70 3-95 292h-47l-94-295-27-11V96h132v25l-32 11 48 151 16 55h2l15-55 45-148-37-15V96h99v24zm-400 296c-72 0-142-60-142-170s70-170 142-170 142 60 142 170-70 170-142 170m0-309c-37 0-68 47-68 139s31 139 68 139 68-47 68-139-31-139-68-139m-468-52-43-13V32h106l147 214 26 43 2-1-1-50-2-166-50-16V32h130v24l-35 16-2 353-37 4-173-253-25-43-3 1 1 51 2 201 51 16v24h-137v-24l41-16zm-413 331 32-11V132l-32-11V96h236v96h-26l-25-63h-84v114l85-9v49l-85-9v119h90l27-68h26v101h-244zm-277-269-32-11V96h133v25l-32 11v126l2 1 29-38 69-86-27-15V96h107v24l-32 15-75 86 104 169 24 11v25h-131v-25l25-11-70-115-25 29v86l32 11v25h-133v-25l32-11zm-447 117c33 0 54-21 54-63q-1-58-48-57h-22v120zm-16 140 36 12v25h-138v-25l32-11V132l-32-11V96h145c55 0 98 25 98 85 0 44-28 73-72 84v2c79 14 69 142 144 168l-5 13c-152-1-140-167-194-167h-14zM2149 2l76 29 72-29 12 11-59 63h-54l-59-63zm-120 8 6 13-112 56-10-11 39-58zm-154 313-19 64 38 15v24h-97v-24l23-15 93-292h58l93 295 24 11v25h-130v-25l32-11-21-67zm85-32-24-74-14-49h-2l-13 49-23 74zm-322 102c52 0 85-51 85-136 0-86-33-128-85-128h-25v264zm-126 33v-25l32-11V132l-32-11V96h141c85 0 144 54 144 160s-59 170-144 170zm-168 5c-72 0-142-60-142-170s70-170 142-170 142 60 142 170-70 170-142 170m0-309c-37 0-68 47-68 139s31 139 68 139 68-47 68-139-31-139-68-139m-307 267 43 12v25H935v-25l32-11V132l-32-11V96h144c58 0 102 28 102 95 0 54-37 97-125 97l-4-16c42-10 56-36 56-80 0-45-17-63-49-63h-22zm-505 42c-71 0-142-60-142-170S461 91 532 91c72 0 142 60 142 170s-70 170-142 170m0-309c-37 0-68 47-68 139s31 139 68 139c38 0 68-47 68-139s-30-139-68-139"/>
</svg>
