<svg xmlns="http://www.w3.org/2000/svg" xml:space="preserve" width="6000" height="5200" viewBox="0 0 6000 5200">
  <path fill="#b4985a" d="M3505 5q-42-1-73 7c-51 3-113 30-179 59-64 27-129 56-190 66-7-17-27-33-49-33-23 0-42 16-49 33-62-11-127-39-191-66a2424 2424 0 0 0-133-50l-2-1-8-1-30-7c-123-32-268 34-398 185q-80 94-137 170c-78 102-140 182-238 254a732 732 0 0 1-523 135c-41-82-15-162-12-173q7-18 5-36c-8-46-66-77-146-77q-29 0-59 5c-106 19-181 81-172 141q5 27 30 46l21 18q17 18 44 36-55-31-122-52a872 872 0 0 0-459-14v1l-2 1v2l-1 4 1 1 1 3h1l1 1c27 18 95 73 86 112v1q-55 22-96 48a831 831 0 0 0-394 530c-48 202-17 430 88 659 79 170 147 270 227 386l54 79c61 91 103 214 111 323a372 372 0 0 0-120 229 390 390 0 0 0 125 333q41 32 86 47c-36 9-76 37-102 109q-36 101-102 101c-34 0-61-20-61-20q-5-3-9 0-3 4-2 9l117 271c-13 17-186 246-49 507 48 91 112 166 181 212a188 188 0 0 0-153 215l2 3v1l3 1 1 1h2l3-2h1l1-1c1-1 39-54 196-50q45 2 88 9c58 7 130 16 266 10 123-6 231-38 313-91a641 641 0 0 0 252-335 483 483 0 0 0 226 187c-4 17-13 67-20 124-12 98 19 135 21 137h1l1 1 3 1h3l1-1 1-1 2-2c23-53 69-98 123-132l2 5c69 62 107 109 155 169 36 46 77 98 143 170 128 141 240 178 321 178q36-1 63-8c82-16 141-48 184-86 14-3 99-23 169-32 6 17 26 34 49 34s44-17 49-34c74 9 172 30 187 34 41 34 98 62 173 76q27 8 63 8c81 0 193-36 321-178 65-71 107-123 143-169 48-60 86-108 154-170l2-2c57 34 108 82 132 137l2 2 1 1 1 1h3l3-1 1-1h1c2-2 33-39 21-137-7-57-16-107-20-124a470 470 0 0 0 217-173c16 52 78 210 248 320 81 53 190 84 313 90 135 6 207-3 265-10 31-4 57-7 88-8 157-4 196 48 196 49l1 1 1 1 6 1 3-2h1l1-3v-1c1-1 32-163-152-215 69-46 133-120 181-212 134-257-31-483-49-506l117-270a7 7 0 0 0-11-9s-27 20-61 20q-66 0-102-101c-27-74-68-102-105-110q46-15 88-47c77-59 145-207 125-334a372 372 0 0 0-119-229c8-108 50-230 111-321l54-79c79-116 148-216 227-386 105-229 136-457 88-659a831 831 0 0 0-490-578v-1c-9-39 59-94 86-112l1-1 1-1 1-2 1-1-1-4v-2l-2-1v-1h-1a871 871 0 0 0-507 31l3-3 17-15q27-20 32-47c9-60-66-122-171-141q-30-5-60-5c-80 0-138 31-145 77q-2 14 1 27v1l3 8c7 25 24 100-12 173-157 16-347-5-523-135-98-72-160-152-238-254q-57-76-137-170C3700 50 3588 8 3505 5m-968 14c48 1 85 14 108 26 118 62 169 265 108 436-50 139-184 240-273 240h-3c-44-1-72-16-90-37l-14-21-1-1q-13-29-15-54c-11-108 64-261 166-285q29-6 48 11c14 13 27 43 13 110v1c-16 33-38 59-51 67a7 7 0 1 0 8 12c31-17 84-100 80-174q-3-33-20-58-1-3-3-5-21-27-61-44c-116-46-237 69-391 213q-79 76-167 152a842 842 0 0 1-957 92l-3-2c133 56 500 171 818-65 100-73 165-158 241-256q57-77 136-170c130-150 242-188 323-188m957 0c80 0 193 38 322 188q80 94 137 169c75 99 141 184 240 257 319 236 685 121 818 65l-3 3a842 842 0 0 1-956-93q-89-76-168-152c-130-122-237-223-337-223q-27 0-53 10a139 139 0 0 0-64 49q-18 25-20 58c-5 74 49 157 80 174q6 3 10-2 3-7-3-10a172 172 0 0 1-51-68c-14-67 0-97 14-110q18-17 47-11c103 24 177 177 166 285q-1 25-15 54l-1 1-14 21c-18 21-45 36-89 37-89 3-226-100-277-240-60-171-10-374 109-436 22-12 59-26 108-26m-140 29c-117 84-143 291-90 438 51 144 193 250 287 250a188 188 0 0 0 40-5q-46 30-108 31c-106 2-219-62-281-160-57-92-91-252-30-388q54-119 182-166m-676 0 18 7q113 49 163 159c60 136 26 296-31 388a341 341 0 0 1-276 160h-4q-62-1-109-31 18 5 37 5c95 2 239-104 291-250 52-147 27-353-89-438m572 40c-46 38-75 82-92 120a453 453 0 0 0 32 402q42 66 107 109l-41-16c-63-25-129-51-191-61v-4c0-19-22-34-51-34s-52 15-52 34l1 4c-64 10-127 36-189 61l-41 16q65-43 108-109c59-95 94-261 31-402-16-37-43-80-87-116 59 25 120 49 178 60 2 17 24 30 51 30s48-13 51-30c60-10 124-37 185-64m-236 31c21 0 36 19 36 29 0 9-15 19-36 19-22 0-37-10-37-19 0-10 16-29 37-29m0 83c-33 0-60 22-60 50 0 27 27 50 60 50s60-23 60-50c0-28-27-50-60-50m0 14c25 0 45 16 45 36 0 19-20 35-45 35s-45-16-45-35c0-20 20-36 45-36m-523 32q21 1 40 9 18 7 31 16c-104-19-250 119-369 233l-54 51c-339 314-641 323-834 275q-81-20-146-51c77 25 170 42 271 42 177 0 377-52 558-204q89-76 168-152c131-123 238-224 335-219m1049 0c96-5 203 96 334 219q79 76 168 152a857 857 0 0 0 558 204c102 0 195-18 272-43q-65 32-146 53c-193 47-495 38-834-276l-54-51c-119-114-265-252-369-233a151 151 0 0 1 71-25m-1001 38q26-1 48 12 16 23 19 53 1 16-2 31-5-45-23-59-24-23-61-14c-110 25-189 187-177 301q5 52 33 83c40 53 100 83 172 84h4l32-2v2c65-7 131-34 196-61 61-25 125-51 188-60 9 14 27 27 46 27s37-13 45-27c62 9 128 35 192 61 77 30 150 59 216 60v-1l11 1h5c72-1 132-31 172-83q27-32 33-84c12-114-68-276-177-301q-38-9-62 14c-10 10-21 28-23 59q-2-16-1-31 2-30 18-53c95-57 255 96 385 219l53 50c253 235 486 302 669 302l13-1-485 508q-77-143-202-172-179-39-435 156l-14 10-21 16c-33 25-72 54-108 30q-10-8-13-20 17 20 44 15c51-12 95-107 89-167q-2-17-8-29l-1-1v-1q-4-8-12-15a118 118 0 0 0-112-40h-1l-5 1q-47 8-104 27c-53 16-114 35-168 35s-123-19-183-36c-53-14-98-26-129-27h-4a120 120 0 0 0-106 57v1l-1 1q-6 12-8 29c-6 60 38 155 89 166q27 5 44-14-3 12-12 20c-37 24-75-5-109-31l-21-15-14-10q-256-196-434-156-123 27-200 167l-483-506 44 2c184 0 417-68 669-302l54-50c109-104 240-229 336-231m475 43c-33 0-60 29-60 64 0 36 27 65 60 65s60-29 60-65c0-35-27-64-60-64m0 14c25 0 45 23 45 50 0 28-20 50-45 50s-46-22-46-50c0-27 21-50 46-50m1836 143q-28 14-33 38v14c2 16 5 63-12 97q-40-24-53-55l-4-11q-2-10-1-19c6-33 46-58 103-64m-3670 0c57 6 98 31 103 64 5 29-19 60-58 85-16-35-13-80-12-96l1-5v-10q-5-24-34-38m1834 3c-33 0-60 22-60 50s27 50 60 50 60-22 60-50-27-50-60-50m-1892 0c42 0 73 15 77 37v10c-5 26-45 53-95 62q-17 3-34 3c-42 0-73-15-77-37-4-28 39-61 95-72zm3786 0q18 0 35 3c55 11 99 44 94 72-3 22-35 37-77 37l-34-3c-50-9-90-37-94-63l-1-3 1-6c3-22 35-37 76-37m-1894 14c25 0 45 16 45 36s-20 36-45 36-46-16-46-36 21-36 46-36m2029 28c35 24 56 54 51 82-6 39-59 65-130 65a317 317 0 0 1-146-35c12-24 15-52 15-75q30 33 91 45l36 3c50 0 87-20 92-49q2-18-9-36m-4056 2q-11 16-8 34c4 29 41 49 91 49l37-3c39-7 72-24 90-45 1 22 4 50 16 74a300 300 0 0 1-146 36c-71 0-125-26-131-65-4-27 16-57 51-80m3773 85c30 32 81 58 144 70q30 5 60 5l22-1c-56 22-142 50-244 62 23-50 23-101 18-136m-3490 1c-5 33-5 83 19 135-102-12-188-40-245-62a291 291 0 0 0 82-4c63-12 114-38 144-69m1744 0c21 0 36 10 36 19 0 10-15 30-36 30s-37-20-37-30c0-9 15-19 37-19M640 642c75 0 164 10 251 37q87 27 153 71c-56-26-115-35-170-40a734 734 0 0 0-241 28l-5 1c-44-50-117-74-158-84 34-6 95-14 170-13m4720 0c75-1 137 7 170 13-41 10-114 34-158 84l-5-1h-3c-79-21-163-33-238-28-50 4-103 12-155 33l27-17 9-6q47-24 102-41c87-27 176-37 251-37M471 671c38 10 101 31 141 73l-12 4-62 22c1-36-38-76-67-99m5058 0c-28 23-68 63-66 99l-75-26c40-42 103-63 141-73M808 724q33-2 65 1c103 8 218 34 303 159q27 41 45 89 12 40 15 85l-308 322v1h-4c-74-11-165-66-190-162-28-105 8-187 102-231h3c54-16 104-11 142 16 31 21 52 56 54 93 5 66-44 124-80 136-26 4-63 3-97-26q-5-4-11 1-3 6 1 10 47 39 108 29h3l4-1c55-12 107-54 131-105 26-56 27-123 3-184q-35-86-113-119a318 318 0 0 0-381 112q-27 47-17 81c-50-31-65-77-71-111-1-8-9-118 91-158 65-20 136-35 202-38m4384 0c67 3 137 18 202 38 100 40 92 150 91 158-6 34-20 80-71 111q11-34-17-81a318 318 0 0 0-381-112q-78 33-113 119c-24 61-23 128 3 184 24 51 76 93 131 105l4 1h4q61 10 107-29 5-4 1-10-5-5-11-1c-34 29-70 30-97 26-36-12-85-70-80-136 3-37 23-72 55-93 38-27 88-32 141-16h3c94 44 130 126 103 231a234 234 0 0 1-194 162l-1-1-308-322q3-45 15-85 18-48 45-89c85-125 200-151 303-159q32-3 65-1m-4122 26a833 833 0 0 0 350 116l-170 177q-3-36-13-69v-2l-2-3a300 300 0 0 0-46-93q-47-73-119-126m4381 31q67 26 115 55a817 817 0 0 1 400 596c24 288-99 449-158 526a493 493 0 0 1-259 169q-69 13-147 2c-38-6-73-21-97-33l10-20 29-64c21-46 47-103 60-135l6-17 8 1 36 1h6c34 0 219-8 303-184 226-473-215-735-263-762 1-18-1-87-49-135m-4902 0c-48 48-50 117-49 136-48 26-489 288-263 761 84 176 269 184 304 184h5l9 1 27-2 8-1 6 17 60 135 29 64 10 20c-24 13-59 28-97 33q-78 11-146-2a493 493 0 0 1-259-169c-60-77-183-238-159-526q1-2-1-4 6-35 14-71a817 817 0 0 1 502-576m4328 13a458 458 0 0 0-112 174l-1 4-1 2q-9 33-13 69l-167-175a750 750 0 0 0 294-74m263 35c113 1 207 67 244 129q30 50 11 80c-8-37-43-153-199-171-144-17-239 60-269 144-22 62-9 125 31 176q-24-23-38-52c-25-53-26-116-3-173 20-52 58-91 105-110q61-25 118-23m-4280 0q57-2 119 23 72 30 105 110c22 57 21 120-4 173q-13 29-38 52c41-51 53-114 31-176-30-84-124-161-269-144a214 214 0 0 0-198 171q-20-30 10-80c37-62 131-128 244-129m2456 5-6 9q18 12 31 29c14-12 23-20 38-26l-2-7q-17 4-30 10c-6-5-20-12-31-15m-348 30c-41 0-74 34-74 77q0 62 68 63c45-1 74-36 74-77 0-39-19-64-68-63m103 2v5l8 3q8 2 8 14l-2 60-1 34q-2 10-8 11l-9 3 1 5 72 2 1-5-19-5q-6-2-6-10l1-34v-4l48 2v-14h-48l1-54 35 2q13 0 17 15l6-1 1-27zm-295 4-105 6v5l8 2q9 3 9 11l3 62 1 35q1 10-8 12l-7 3 1 5 107-5 4-29-7-2c-7 15-16 19-29 20l-28 2-2-42-1-8 48-2v-13l-49 3-2-50h35q13-1 18 14l6-1zm507 3-1 5 12 5q4 2 4 9l-4 65-3 32q0 11-8 12l-9 2v5l64 4 1-5-10-4q-5-3-5-9l1-39 19 1c7 20 16 39 26 49 13 13 26 14 41 15l5 1 1-7q-13-8-23-27-10-18-16-33 25-14 26-35c2-28-21-40-48-42zm-318 4q35 1 36 56 1 56-37 57c-20 0-35-19-35-57q0-55 36-56m-2111 2c109 4 181 68 205 137 19 54 10 109-23 154q16-33 14-74c-3-41-26-80-61-105-42-28-97-35-154-17h-4c-3 1-300 76-377 364-57 211 32 418 69 492a445 445 0 0 1-175-350c-2-102 31-197 80-232a7 7 0 0 0-9-12c-52 38-88 138-86 244 2 119 47 229 127 312a423 423 0 0 1-166-318c-7-140 53-278 146-335a7 7 0 0 0-7-13c-98 60-161 204-154 349 7 141 76 263 193 344a398 398 0 0 1-235-320 477 477 0 0 1 227-470 7 7 0 1 0-8-13 492 492 0 0 0-233 485 414 414 0 0 0 266 342c-68-11-180-48-239-172-214-448 188-702 252-739q21 91 103 125h6q6 0 8-7c0-2 14-148 187-169q25-3 48-2m4292 0q23 0 49 2c171 21 186 163 187 169q1 6 7 6 3 3 7 1 82-34 102-125c65 37 466 291 252 739a310 310 0 0 1-238 172 414 414 0 0 0 266-342c25-194-69-389-234-485a7 7 0 1 0-7 13 477 477 0 0 1 226 470 398 398 0 0 1-235 320 439 439 0 0 0 193-344c7-145-56-289-153-349q-6-3-11 3-3 6 3 10c93 57 153 195 146 335-6 128-65 240-166 318 80-83 125-193 127-312 2-106-34-206-86-244a7 7 0 1 0-8 12c48 35 81 130 79 232-2 140-66 265-175 350 38-74 126-281 69-492-77-288-374-363-377-364h-4c-57-18-112-11-154 17a141 141 0 0 0-47 179c-33-45-42-100-23-154 25-69 96-133 205-137m-2545 1h-14c-23 1-46 24-45 48 3 42 69 37 71 62 0 11-13 16-20 17q-33 3-41-30h-8l-2 34c14 8 33 9 48 8 27-2 56-16 54-47-3-40-73-35-75-61-1-13 10-18 21-19q29-1 36 24l8-1-3-29q-10-6-30-6m1245 3q-25 12-54 18l1 8c19 0 43-2 59-5zm-395 1v5l8 4q7 2 7 12l-5 62-4 34q-1 10-10 11l-7 1v6l107 9 8-28-6-3q-14 19-32 16l-28-1 3-42 1-9 48 5 1-13-48-4 4-50 35 5q12 1 16 17l5-1 3-27zm-2031 3v203l-113-85zm15 0 475 497-468 338-3-2h-4v-231c158-2 284-149 289-155q3-5 0-10c-5-6-131-153-289-156zm3131 0v282c-159 2-284 149-290 155q-3 5 0 10c6 6 131 153 290 156v232l-2 1q-3-4-7-3l-466-336zm14 0 114 119-114 84zm-1250 1h7q32 3 32 31 0 27-30 26h-13zm-831 0-51 5 1 5 7 1q11 1 12 13l6 65c3 33-11 41-26 42-15 2-36-1-39-32l-7-74q-1-6 5-7l12-5-1-5-65 6v5l10 2q5 1 7 11l6 69c4 45 40 45 66 42 24-2 55-15 51-58l-7-65q0-10 5-11l9-4zm1103 9-4 36 5 1h5q6-18 13-20l44 4-79 99 4 15 101 11 9-37-9-4c-5 11-12 23-22 22l-45-2 82-103-2-11zm348 3-6 8c10 8 21 21 28 31 14-9 24-17 40-22l-2-7-30 7c-5-5-19-13-30-17m-1681 11-16 1c-42 5-71 42-65 85q7 62 75 54c44-5 69-43 64-84q-4-53-58-56m1549 6-20 4-66 110-8 8-4 2v5l44 6v-6l-8-5q-8-3-7-11 0-3 3-7l13-23 42 6 5 27 1 8q0 6-8 8l-11 2v5l62 8 2-5-4-3-5-11zm-1563 8q32 1 38 52 7 56-30 60c-20 3-37-14-42-52q-6-54 30-60zm-113 3-62 10v5l9 2q7 0 9 9l7 42-57 10-6-42q-2-10 4-13l8-4-1-5-61 10 1 5 7 1q8 0 10 8l11 64 5 34q0 9-6 12l-8 4 2 6 61-10v-6l-7-1q-9-2-10-9l-7-35-1-8 57-9 1 8 5 36q1 6-5 10l-8 4 1 6 62-10v-6l-11-1q-6-1-7-10l-6-34-10-63q-1-7 4-10l10-5zm1816 14c-35 1-64 25-69 59-8 46 16 72 63 79q25 3 44-5l-3-14q-17 7-35 4c-28-4-41-32-37-61 6-37 26-52 50-48q28 5 33 30l6 1 4-29a99 99 0 0 0-56-16m-164 5zl3 21 6 26-33-4 14-24zm1433 63c89 38 251 132 305 332 65 241-64 475-82 506l-30-2-8-1q2-33-29-52a63 63 0 0 0-80 9l-22 23q-62-19-101-46l-67-179c-13-32-48-50-78-38-31 11-46 47-33 80l25 68c-26-16-72-47-98-78q-3-4-8-3t-6 4c-2 3-41 80-9 191-27 13-42 43-32 69l1 3-4-2q-21-8-44 1c-31 11-47 43-37 71l33 86a380 380 0 0 0 107 141q-143-28-250-195c-45-70-86-204-100-253l483-348 11-1c81-10 179-69 207-174 23-88 4-162-54-212m-4453 0c-59 49-78 123-55 212a248 248 0 0 0 218 174l484 349c-14 48-56 182-101 252a410 410 0 0 1-249 194q14-9 24-20c56-53 82-117 83-120l32-86c11-28-6-60-37-71q-22-9-44-1l-4 2 1-3c10-26-4-56-32-69 32-111-7-187-9-191q-2-3-5-3l-1-1q-5-1-8 3c-25 31-72 62-98 78l26-68c12-33-3-69-33-80-31-12-66 6-78 38l-68 179q-38 27-101 47l-22-24a63 63 0 0 0-80-9q-30 19-29 52l-7 1-31 2c-17-31-147-265-82-506a513 513 0 0 1 306-332m522 6 124 92v61q-31 1-61 9l-128-93zm3408 0 65 69-128 93q-29-8-61-9v-61zm-3483 80 120 87q-48 16-87 41l-93-67zm3559 0 59 61-92 67q-39-25-88-41zm-3629 72 89 65q-42 30-70 56l-79-57zm3698 0 61 64-80 57q-26-27-70-56zm-1546 3q27 0 49 11c-54-1-136 53-166 132-27 69-18 163 31 214q-42-24-65-69c-28-58-24-131 13-196 27-48 71-81 117-90h2zm-612 2c54 1 107 36 138 92 37 64 42 138 13 196q-23 45-65 69c49-52 58-145 32-214-31-79-111-133-166-133h-1q22-10 49-10m-1253 16a138 138 0 1 1-1 276 138 138 0 0 1 1-276m3125 0a138 138 0 1 1-1 276 138 138 0 0 1 1-276m-1782 0 39 11c62 17 131 36 187 36s118-19 172-36l29-9q-33 24-56 65c-39 69-44 147-13 210q17 35 45 57c-57-17-120-35-176-35-59 1-134 21-201 40q30-24 48-60c31-63 26-142-13-211q-24-42-61-68m-1414 2a153 153 0 0 0 23 280 464 464 0 0 1-239-142c20-22 107-111 216-138m3266 0a484 484 0 0 1 216 138 464 464 0 0 1-239 142 153 153 0 0 0 23-280m-1281 5q23 1 35 13l9 12q6 10 7 25c6 58-37 141-78 150q-18 4-30-10-13-19 2-53h1q14-22 24-28a7 7 0 1 0-7-13c-18 9-50 52-47 93q0 20 17 39l2 3 2 1q10 9 28 17 16 5 32 5 47 0 104-45l5-3q238-186 411-158 104 18 177 115c-275-162-448-1-563 107q-37 35-67 57a154 154 0 0 1-117 30h-5q-20-4-35-12c-66-31-93-135-60-222 28-71 104-124 153-123m-710 2c50-1 125 52 153 123 33 87 6 190-60 222-36 17-93 28-157-18q-29-21-66-58c-116-108-289-269-564-107q74-96 177-114 173-29 411 157l5 4q57 45 104 45a93 93 0 0 0 60-22l2-1 3-3q17-20 16-39c3-41-29-84-47-93a7 7 0 1 0-6 13q10 5 23 27l1 1q16 34 2 53-12 13-30 10c-41-9-84-92-78-151q1-13 7-24l9-12q12-12 35-13m-1118 3c94 34 167 108 184 128a493 493 0 0 1-205 135 153 153 0 0 0 21-263m2952 0a152 152 0 0 0 21 263 493 493 0 0 1-205-135c18-20 90-94 184-128m-648 12q23 2 44 6 62 14 110 57-50-37-110-46-181-31-423 160l-5 4q-51 39-90 41c22-8 43-24 61-38l21-15 14-10q219-167 378-159m-1662 2q160-9 378 158l35 26c18 14 39 30 61 38q-39-2-90-42l-5-3q-242-191-422-161-61 11-111 46a248 248 0 0 1 154-62m-1086 27 79 57-23 25q-4 5 0 10c5 6 128 149 284 155v102l-397-288zm3840 1 58 60-398 288v-102c157-6 279-149 285-155q3-5 0-10l-24-25zm-3481 6q-14 0-26 4a79 79 0 0 0-49 98 74 74 0 0 0 96 47c40-14 62-58 49-98a74 74 0 0 0-70-51m3125 0q-13 0-26 4a79 79 0 0 0-49 98 74 74 0 0 0 96 47c40-14 63-58 50-98a74 74 0 0 0-71-51m-3125 16c25 0 48 16 56 40a63 63 0 0 1-61 81c-25 0-48-16-56-40a63 63 0 0 1 61-81m3125 0c26 0 48 16 56 40a63 63 0 0 1-60 81c-26 0-49-16-56-40a63 63 0 0 1 60-81m-731 41c69 2 147 26 235 84l1 1 4 2c79 164 24 327-45 377l-2 3-1 1v4c1 5 96 509-56 647-68 46-128 100-144 182q-16 80-5 179v1a1245 1245 0 0 1-29 850c-26-48-75-97-134-116-115-36-174-1-229 42q-51-46-120-55a282 282 0 0 0-302 178 274 274 0 0 0-300-178q-70 9-121 55c-66-51-126-74-228-42-61 20-111 70-136 120a1240 1240 0 0 1-31-857q11-98-5-177c-18-89-86-145-161-194-127-101-89-432-66-572l11-56v-2l1-5v-1l-1-3v-1l-2-3c-71-51-124-210-40-376v-4c283-184 458-20 574 88q38 37 68 59c37 26 73 35 102 35l11-1 4 1c29-3 70-15 117-28 68-19 145-41 206-41h1c58 0 125 21 185 39a590 590 0 0 0 128 28c30 0 65-8 102-35q30-22 68-58c80-75 188-176 340-171m-2821 8 408 295v118l-475-343zm3976 0 68 70-476 343v-118zm-894 91 447 322c-66 25-325 118-495 47 67-59 115-212 48-369m-2189 1c-71 159-24 309 43 368-167 69-420-19-490-46zm3148 167c19-1 38 12 46 32l127 340 14-6-13-34 87-92c16-17 41-20 61-8 17 11 32 27 16 66l-61 135-29 64q-42 99-137 137c-224 90-324-150-328-160l-32-87c-8-19 5-43 28-51q18-7 34-1t22 21l22 60 14-5-36-96c-8-20 5-44 28-52 22-9 46 0 55 18l30 81 14-5-29-78-1-1v-2l-12-30q-2-8-2-15h1v-1q3-24 29-35 19-7 34-1 16 7 21 21h1l36 97 14-6-92-242c-9-25 2-53 25-61q7-3 13-3m-4106 0q7 0 13 3c23 8 34 36 25 61l-91 242a7 7 0 0 0 13 6l37-97c7-20 32-29 55-20q26 11 30 35v1q1 8-2 15l-11 30-1 2v1l-30 78 14 5 31-81q6-13 20-19 17-6 34 1c23 8 36 32 29 52l-37 96 14 5 23-60q5-14 21-21 17-6 34 1c23 8 36 32 29 51l-33 87s-26 63-79 115q-107 101-249 45-94-38-137-137l-29-64c-21-46-47-102-60-135-17-39-2-55 15-66 20-12 45-9 61 8l87 92-13 35a7 7 0 1 0 14 5l128-339c7-21 26-34 45-33m3984 83c37 36 90 68 105 77l8 22-4-1q-20-9-44 0-25 10-34 31c-22-44-29-100-31-129m-3862 0c-2 29-8 85-30 130q-11-22-35-32-25-9-48 2l9-23c14-9 68-41 104-77m4899 5-4 28-1-1h-1zm-5936 0 6 27h-1l-1 1zm4886 8c3 36 12 94 39 138q0 9 2 16-17-8-39-4c-19-65-11-119-2-150m-3835 1c8 31 15 84-3 149q-18-4-35 3l-4 1q3-7 3-16c26-44 36-101 39-137m4875 58q-26 137-92 279c-78 169-146 269-225 384l-54 79a722 722 0 0 0-113 318q-37-30-78-52v-3c-4-54-1-108 12-180q31-27 61-61a7 7 0 0 0-11-10 935 935 0 0 1-242 190q-52-10-106-15h-1q-15-2-28-2a834 834 0 0 0-365 59q9-17 17-36 18-50 20-100 69 13 134 13c424 0 653-417 671-451 110-33 200-92 261-173q33-39 75-109-136 335-341 526a7 7 0 0 0 10 11q248-231 395-667m-5915 0q147 436 394 667a7 7 0 0 0 10-1q5-6 0-10a1449 1449 0 0 1-341-526c27 47 55 83 75 109 61 81 152 140 261 173 18 33 253 452 679 452q63 0 132-13a319 319 0 0 0 38 138q-80-32-170-49a844 844 0 0 0-229-10l-1 1q-53 5-105 15v-1c-47-26-145-82-244-191q-4-4-10-1-4 6-1 11 31 34 61 61 18 102 13 185-41 21-79 51a722 722 0 0 0-113-319l-54-79c-79-115-147-215-225-384q-65-142-91-279m1397 13c35 18 156 89 196 237l-78 48q-3 2-3 6 0 5 3 6l109 75-72 106a365 365 0 0 0-221 88c28-88 20-155 20-158q-1-5-6-7-5 0-8 3a468 468 0 0 1-331 214c-258 30-518-169-572-213q59 7 123-2c40-6 77-22 102-35q46 78 129 112 56 21 101 21 64-2 109-29c78-9 192-52 291-207 50-76 93-220 105-263zm3120 0 3 2c13 43 56 187 105 263q121 188 288 207v-2c31 18 68 31 112 31a270 270 0 0 0 230-133c25 13 62 29 102 35q64 9 123 2c-54 44-314 243-572 213a468 468 0 0 1-331-214 7 7 0 0 0-13 3c-1 2-15 62 13 149a366 366 0 0 0-215-79l-72-105 109-75a7 7 0 0 0 0-12l-77-48a392 392 0 0 1 195-237m-1789 2c-30 0-146 114-146 146 0 30 114 147 146 147 36 0 147-123 147-147 0-28-117-146-147-146m345 0c-30 0-146 114-146 146 0 30 114 147 146 147 36 0 148-123 148-147 0-28-120-146-148-146m1394 11a398 398 0 0 0-159 216l-271-169q57 14 117 14c122 0 246-37 313-61m-3014 4c69 24 187 57 301 57q67 1 127-17l-275 172a396 396 0 0 0-153-212m2553 41 376 233-106 73q-3 2-3 5-1 3 1 6l70 102q-48 1-93 14l-37-56q-1-4-5-6l-5-7a7 7 0 0 0-10-2l-105 72zm-2099 1-8 49-74 384-105-72a7 7 0 0 0-10 2l-46 67q-45-12-94-12l71-102a7 7 0 0 0-2-11l-106-73zm3239 2q34 21 81 35l-49 53zm-4377 0-33 88-49-53q47-14 82-35m3252 153 56 292a7 7 0 0 0 11 5l108-74 2 1c-30 96-120 151-206 204l-25 15c68-106 67-300 54-443m-2143 80c-7 126 2 267 58 350l-4-2c-85-52-173-106-204-199l98 68 7 1q4-1 5-6zm2698 134q17 23 36 44c4 43 18 152 129 255q-21 41-32 71c-7-84-46-163-110-223-26-67-26-121-23-147m-3239 2c1 29-2 89-29 157v1a352 352 0 0 0-97 209q-13-30-36-71a391 391 0 0 0 128-254q18-19 34-42m376 14q17 54 53 92-40-27-87-42zm3757 2c-87 135-343 457-755 377 12-34 63-163 135-201a448 448 0 0 0 112 14c199 0 390-118 482-185-298 292-505 266-563 251a7 7 0 0 0-4 14q38 10 78 10c151 0 335-100 515-280m-5024 2c180 179 363 278 513 278q41 0 79-10a7 7 0 0 0-4-14c-59 15-266 41-563-251 91 67 282 185 481 185a480 480 0 0 0 113-14c71 38 127 168 141 201-410 80-669-239-760-375m3762 6 29 41q-40 14-74 35 29-33 45-76m-2923 37c-7 49-29 137-118 221-22-37-50-74-82-95q111-34 200-126m3344 0q89 92 201 126c-33 22-60 59-81 97a376 376 0 0 1-120-223m-3059 1c138 0 257 79 303 202q48 128-3 301c-16 55-21 105-25 150-9 87-15 149-93 178q-26 10-49 10c-51 0-90-36-140-82q-48-48-119-96a518 518 0 0 1-174-170q-15-26-26-53c-30-80-26-167 12-246a343 343 0 0 1 303-194l1 1v-1zm2780 0h4l1 1 1-1q61 1 118 23a328 328 0 0 1 202 417q-10 25-25 51-56 96-176 172-70 48-118 96c-50 46-89 82-141 82q-22 0-48-10c-78-29-84-91-93-178-5-45-10-95-26-150a472 472 0 0 1-2-301 318 318 0 0 1 303-202m-2520 101a1297 1297 0 0 0 142 91l1 2h2c73 48 136 100 153 183q14 73 5 164l-231-109q24-132-15-235-21-54-57-96m2253 8q-32 39-50 88-39 104-15 237l-227 107q-9-92 5-164c15-73 65-122 126-165l5-1 8-8 64-40q44-26 84-54m-2501 26q-47 1-100 21a266 266 0 0 0-175 264v1q0 4 3 7c1 1 85 93 215 93q50 0 107-20a267 267 0 0 0 175-264q0-4-3-7l-1-2c-1-1-87-96-221-93m2756 1c-134-4-220 91-222 92l-1 2q-3 3-2 7c0 2-16 191 175 264q57 20 107 20c130 0 213-92 214-93q5-3 3-7l1-1c0-2 15-191-175-264q-54-20-100-20m-2740 14c75 3 132 37 164 62-36-14-92-30-154-30a296 296 0 0 0-136 34 408 408 0 0 0-150 172c4-55 29-166 165-218q60-23 111-20m2723 0q52-3 112 20a245 245 0 0 1 165 218 408 408 0 0 0-189-191l-27-7q-33-8-71-8c-61 0-118 16-154 30 33-25 90-59 164-62m-2713 47c84 0 161 32 182 42-10 24-48 105-117 162 24-34 32-78 18-120-13-40-45-70-84-84zm2703 0h2c-40 14-71 44-85 84-14 42-6 86 18 120a456 456 0 0 1-117-162c22-10 98-42 182-42m-2752 7c54 0 102 33 118 82 22 64-16 135-84 158q-21 7-43 7c-54 0-102-33-118-82-18-52 3-107 47-139a236 236 0 0 1 61-25zm2802 0 19 1a240 240 0 0 1 61 25c43 32 64 88 47 139-16 49-64 82-118 82q-23 0-44-7c-68-23-105-94-84-158 17-49 64-82 119-82m2 53c-31 0-57 19-67 47-12 36 9 76 47 89q12 4 24 4c31 0 58-18 67-46 12-37-9-77-47-90q-12-4-24-4m-2806 0q-13 1-25 4a72 72 0 0 0-46 90c9 28 36 46 66 46q13 0 25-4c38-12 59-53 46-89-9-28-36-47-66-47m-131 12q-25 50-8 105c14 43 49 75 93 87h-5c-84 0-160-33-182-43 9-21 43-93 102-149m3068 0c59 56 93 128 102 149-22 10-98 43-182 43h-5c43-12 79-44 93-87q17-56-8-105m-366 3c26 51 85 148 185 186q45 18 101 18c60 0 116-16 152-29-48 36-147 88-273 40a245 245 0 0 1-165-215m235 0q10 0 20 3c30 11 47 42 37 71-7 22-28 37-53 37q-10 0-19-4c-30-10-47-42-38-70 8-22 29-37 53-37m-2806 0c24 0 45 15 52 37 10 28-7 60-37 70q-10 4-20 4c-24 0-45-15-52-37-10-29 7-60 37-71q10-3 20-3m234 1c-5 55-33 163-164 214-127 48-225-4-273-40 36 13 91 29 152 29q54 0 101-18c99-38 158-134 184-185m-1225 62c62 55 119 89 155 110a617 617 0 0 0-144 52q3-73-11-162m4782 1c-10 61-13 110-10 159l-29-13q-52-24-114-38c37-21 92-55 153-108m-376 99c-67 29-92 95-98 114-56 9-576 106-525 644 21 217 226 285 234 288q27 11 60 19h2l-25 28q-3 2-2 6c1 4 20 75 79 102q54 24 128-13 16-9 32-15c-15 33-47 80-110 116q-48 26-63 30h-1c-1 0-88 16-158 1q-71-15-138-72c-92-78-151-141-181-234-21-65-63-199-29-377 35-26 67-65 90-107 29-51 47-111 27-135q35-24 73-61 47-47 116-93 122-76 179-174a736 736 0 0 1 310-67m-4034 2q78 0 137 12 98 20 184 56 58 94 177 171 69 47 116 93 39 37 73 61c-20 24-1 84 27 135 22 39 51 76 83 101v2c36 179-5 312-28 383-28 91-88 171-192 256q-62 36-140 53a346 346 0 0 1-131-1l-13-3h-2q-15-5-63-30c-64-37-96-86-110-119l33 16q74 37 128 13c60-27 78-98 79-102q1-4-2-6l-24-26q33-8 61-20c10-3 213-72 233-287 51-539-469-636-524-644-6-19-33-86-102-114m4100 0c92 5 188 23 265 58 43 20 88 44 127 78v2h2c56 49 101 117 118 223 19 121-46 263-120 319-96 75-219 73-297 38a241 241 0 0 1-140-231c10-111 75-178 181-187l3 1c57 3 104 27 132 65 23 33 30 74 20 111-19 66-87 104-127 102-27-4-62-19-85-59q-3-6-10-3-5 4-3 10a132 132 0 0 0 96 67h2l4 1c57 8 123-14 163-55 46-45 71-110 69-177-2-62-25-118-67-156a328 328 0 0 0-409-26q-44 36-45 73c-39-48-36-98-30-134 2-8 34-120 151-120m-4159 2c115 5 146 113 148 120 6 35 8 86-30 134q-1-37-45-73a328 328 0 0 0-409 26c-42 38-66 93-67 155-2 68 23 132 69 178 40 40 106 62 163 55l4-1h2l2-1q62-12 93-66a7 7 0 0 0-12-7c-23 40-58 54-86 59-39 2-107-37-126-103-10-36-3-78 20-110q44-59 132-65l3-1c106 9 170 75 181 187 10 105-65 198-140 231a295 295 0 0 1-178 17q-62-13-120-55a373 373 0 0 1-119-319c17-107 63-176 120-225v-1a460 460 0 0 1 127-77 749 749 0 0 1 268-58m1020 8 232 109a1260 1260 0 0 0 38 871q-6 14-8 26-5 33-2 62a1406 1406 0 0 1-241-516c7-40 5-86-3-127-12-60-38-120-70-125q11-41 15-92c4-44 9-94 25-147q9-31 14-61m2122 2q6 29 14 59c16 53 21 103 25 147q5 51 14 92c-32 5-57 65-69 125-8 44-11 94-1 137-46 186-127 359-235 502q3-27-3-58-3-14-10-31a1253 1253 0 0 0 37-866zm850 115q-14 96 54 158 4 3 7 2 6 1 9-4c3-6 67-139 241-97 138 32 199 134 198 220 0 60-29 111-79 143q28-27 42-68c11-41 3-87-22-123q-48-65-143-72l-1 1q-2-2-4-1c-4 0-421 29-598 279a411 411 0 0 0-30 413 440 440 0 0 1-69-399c43-138 151-251 261-273q7-2 6-9-2-7-9-6c-115 24-227 140-272 284a453 453 0 0 0 66 404 411 411 0 0 1-116-396 493 493 0 0 1 386-375 7 7 0 1 0-2-15 508 508 0 0 0-398 387 427 427 0 0 0 138 426 320 320 0 0 1-172-252c-49-511 432-614 507-627m-3828 2c75 13 555 116 507 627a320 320 0 0 1-172 252 427 427 0 0 0 138-426 508 508 0 0 0-398-387q-7-1-9 6 0 7 6 8a493 493 0 0 1 386 376c34 149-8 289-115 395a453 453 0 0 0 66-404c-45-143-157-259-273-283q-7-1-8 6t5 8c111 23 218 135 262 274 43 138 17 280-70 399 39-88 83-253-30-413-176-250-593-280-597-280l-4 1h-1c-62 4-113 29-143 71a145 145 0 0 0 19 192c-49-33-78-83-79-143-1-86 60-188 198-221 174-41 239 92 241 98q4 5 9 3 4 1 7-1 67-62 55-158m4101 8c71-2 149 20 216 81 39 36 62 87 63 145 2 63-22 124-65 166q-24 24-58 38c59-35 94-92 95-160 1-93-63-201-209-236a220 220 0 0 0-253 96q-9-36 38-74c39-31 103-55 173-56m-4375 1c71 1 135 26 174 56q46 39 37 75c-19-33-95-133-252-96-146 35-210 143-209 235 0 69 35 126 94 161q-34-14-58-38c-43-42-66-103-64-166 1-58 23-110 62-145 67-61 145-83 216-82m4307 175q-85 51-98 173c-7 69 21 132 61 179q-65 17-103-10c-36-25-39-73-39-73a7 7 0 0 0-14-3l-205 383-1 5q0 3 7 25l-34 35q-2 4-1 7-1 2 5 16l-7-2q-31-6-57-17c-14-21-153-244-3-457 121-171 356-236 489-261m-4239 2c133 24 369 90 489 261 150 212 11 436-3 457q-25 10-56 17l-8 2 6-18q1-4-1-7l-34-35q7-22 7-25l-1-5-205-383q-2-5-8-4-5 2-5 7s-4 48-40 73q-37 27-103 11c40-47 67-110 61-178q-13-123-99-173m1003 13q11 3 15 11 5 15-20 38-28 27-76 44-48 18-86 18-34-2-40-16-3-11 6-22a132 132 0 0 0 118 7c46-17 69-45 83-80m2240 0c13 35 37 63 83 80q28 11 53 11 36-1 65-18c4 7 9 15 6 22-7 19-61 23-126-2q-48-18-76-44-25-23-20-38 5-8 15-11m-30 23q4 17 25 37 30 28 80 47 51 19 89 19 26 0 41-9l-2 10c-71 62-234-7-263-20q12-55 30-84m-2180 0q18 28 29 84c-28 13-192 82-262 20l-2-10a84 84 0 0 0 41 8q40 0 88-18 50-19 81-47 22-20 25-37m32 99q5 26 5 52c-28 13-155 65-243 17q-12-21-19-40 34 17 75 16c74 0 156-34 182-45m2116 0c25 11 108 45 182 45q41 1 75-16l-20 40c-87 48-214-4-242-17q0-26 5-52m-2111 69q-1 34-10 63c-6 2-130 40-191-1l-28-40q36 13 74 13c66 0 129-24 155-35m2106 0c26 11 89 35 154 35q39 0 75-13-13 21-29 40c-60 41-184 3-190 1l-4-11 2-5-3-1q-5-22-5-46m-2103 73c50 192 138 372 257 520 12 39 35 72 60 92q12 10 26 17c72 81 133 125 212 170q-15 26-33 47a1354 1354 0 0 1-569-785q34-21 47-61m2102 7q15 37 48 56c-97 336-303 620-566 782q-17-21-32-46c77-46 137-89 208-168q17-8 30-19c26-21 50-56 62-97 114-143 200-318 250-508m17 0c20 6 62 16 105 16q27 0 53-7l-14 12q-7 0-9 6v1c-29 20-60 29-89 18q-31-13-46-46m-2139 1a84 84 0 0 1-45 45c-37 14-77-4-112-37q26 7 53 7c43 0 84-10 104-15m2996 4c5 19 16 45 42 63q45 32 123 11 35 35 76 54 52 23 121 24v2l-22 46-156 326c-8-22-25-55-60-76q-54-31-137-3-80 27-128-3c-40-24-51-70-53-81zm-3858 0 194 363c-2 11-13 57-53 81q-48 30-128 3-83-29-137 3c-35 21-52 54-59 76l-179-372q69-1 121-24 42-19 77-56 77 21 122-11c26-18 37-44 42-63m738 46q26 14 53 15 16 0 30-6c99 340 307 627 573 791q-31 34-65 58a1279 1279 0 0 1-591-858m2386 1q-13 51-22 100c-82 259-270 570-546 766q-42-27-80-69c265-163 472-449 570-788q14 5 26 5 27 0 52-14m-2390 71a1141 1141 0 0 1 12 399c-39 5-86 17-130 42q54-69 78-145c18-59 50-161 40-296m2388 15c-6 130 25 227 42 280s43 96 79 138c-47-25-94-35-131-38l-8-79q-11-140 13-283zm-3558 14h9l24 4q20 6 27 10l179 371q-19-7-51-9c-42 0-100 20-133 114q-37 104-117 104a127 127 0 0 1-61-15l-163-377q20 11 50 12c35 0 84-19 116-111q37-102 120-103m4731 0q82 1 119 103c33 92 81 111 116 111q30-1 50-12l-163 377a141 141 0 0 1-61 15q-80 0-116-104c-34-94-91-114-134-114q-31 2-51 9l179-371c7-4 31-14 61-14m-3532 54c72 230 215 491 553 712-60 40-117 60-132 64-42-34-85-102-94-149l-4-5-6-1c-1 1-87 30-94 142q-1 33 2 47c-32-2-132-17-190-89q-63-77-39-210c12-65 74-186 75-187a7 7 0 0 0-6-11c-1 0-28-3-67 1l7-78q10-118-5-236m2329 20a1136 1136 0 0 0 5 291c-32-1-54 2-54 2q-8 2-6 11c1 1 63 122 75 187q24 133-39 210c-58 72-157 86-189 89q3-15 1-47c-5-112-93-141-94-142q-7-1-10 6c-9 47-52 115-94 149-14-4-63-21-118-55 252-181 431-457 523-701m-1406 25c112 4 208 77 240 186h-49c-7-49-33-95-72-126-41-33-91-48-141-41-84 12-142 89-131 173a124 124 0 0 0 140 106 7 7 0 1 0-2-15c-42 6-81-13-104-45q-4-33 17-60 23-28 57-33c38-5 75 11 98 41h-82c-12 0-22 10-22 22v28c0 12 10 22 22 22h103c-3 64-51 117-115 126a167 167 0 0 1-189-143 210 210 0 0 1 181-239q25-3 49-2m500 0q24-1 49 2a210 210 0 0 1 180 239q-5 43-30 76h-1a168 168 0 0 1-158 67c-64-9-112-62-114-126h68c12 0 22-10 22-22v-28c0-12-10-22-22-22h-48c23-30 60-46 99-41q33 5 55 34 17 23 17 51l-1 11c-23 30-61 48-102 42q-6 0-8 7-1 6 6 8a124 124 0 0 0 140-106c12-84-47-161-131-173a195 195 0 0 0-213 167h-50a266 266 0 0 1 242-186m322 1q33 1 73 15c72 22 132 97 143 153 14 74-21 141-61 174q-13 11-30 18c-39 18-92 22-135-5-59-37-77-90-52-150a87 87 0 0 1 137-36c30 29 33 76 21 96a71 71 0 0 1-54 29 7 7 0 0 0 0 15q40-2 66-35l1-1 1-2c21-31 27-75 16-109-13-39-42-72-81-90q-55-25-108-6-25 10-47 26a230 230 0 0 0-30-39 207 207 0 0 1 140-53m-1148 1c63-3 105 22 143 52a228 228 0 0 0-30 39q-21-16-47-26-52-19-108 6c-38 18-68 51-81 90-11 34-5 78 16 109l2 2v1q26 33 66 35 7 0 8-7 0-6-7-8c-28-1-45-16-55-29-11-20-9-67 22-96 16-15 41-22 64-19q44 8 71 54l2 2q36 93-53 149c-55 34-125 19-164-13-41-33-76-100-61-174a230 230 0 0 1 212-167m323 30q61-1 112 39 42 34 60 85c-37-58-106-90-176-81-68 10-121 67-127 132l-4-17a139 139 0 0 1 135-158m507 1 15 1a139 139 0 0 1 113 179c-5-68-57-128-126-138-70-9-139 24-176 81 26-75 98-126 174-123m-804 41q18 1 35 7 24 10 45 24l-9 18c-52-35-117-38-164-6q-28 20-42 51v-1a139 139 0 0 1 135-93m1100 0q31-1 61 12 50 25 71 76-14-29-41-47c-47-31-110-28-163 8l-9-18q21-14 46-24 17-6 35-7m-777 15c63 1 120 39 146 97h-98c-25-40-71-62-118-56q-32 5-56 27a136 136 0 0 1 126-68m454 0q14-1 27 1c41 6 75 31 95 66a95 95 0 0 0-52-26c-48-6-94 16-119 56h-97c25-58 83-96 146-97m333 20q40-3 73 19 30 20 41 53-7-12-17-21a102 102 0 0 0-161 41q-1-33-12-64 36-26 76-28m-1121 1q40 2 77 27-11 31-13 64h-1l-1-3q-30-53-82-61c-28-5-56 4-76 23q-10 9-16 19 11-30 39-50 32-21 73-19m-1179 47 26 27c-5 15-24 68-69 88q-48 22-115-13c-104-53-169-18-201 11 8-18 23-39 46-53q49-29 126-2 86 29 140-4c24-15 38-36 47-54m3466 0c9 18 23 39 47 54q54 33 140 4 77-27 126 2c24 14 38 35 47 53-33-29-98-64-202-11q-67 35-115 13c-45-20-64-73-69-88zm-2005 44h523q7 1 7 7v28q-1 7-7 7h-523q-6 0-7-7v-28q1-6 7-7m-1432 17 27 30c-4 14-23 67-69 87q-48 22-115-12c-112-58-193-46-229-35 25-27 85-70 192-16q74 39 128 14c33-16 54-45 66-68m3408 0c12 23 33 52 66 68q54 24 128-14c107-54 167-11 192 16-36-11-117-23-229 35q-67 34-115 12c-46-20-65-73-69-87zm-1858 40h322q1 35 17 65c-20 28-45 57-66 82q-62 72-71 99-3 3-1 8l1 2q4 25 71 100c20 25 44 53 64 80q-12 29-12 62h-329q0-33-12-62l65-80c46-54 72-85 72-104 0-18-26-50-72-105q-34-39-67-82 16-30 18-65m-326 19q8 21 20 40c8 45 16 130-24 209q-74-60-136-136 37-1 72-21 59-38 68-92m973 0q9 54 68 92 34 20 71 21-62 76-136 135c-41-83-33-166-27-202q15-21 24-46m653 4c56-1 179 11 259 123a286 286 0 0 1 62 152c-3 47-18 106-19 106a7 7 0 0 0 14 5c1-1 55-131 148-137q-23 15-55 69v1a387 387 0 0 0-30 71c-13 36-27 77-68 149a460 460 0 0 1-231 196c-32 8-98 24-192 16q-5 0-8 7 0 7 7 8l50 2h5c128 95 141 175 138 211a415 415 0 0 0-247-174l-10-3-60-13c-88-19-164-36-274-80q-38-16-72-36c131 61 251 89 378 89h5q7-1 8-8-1-6-8-7c-126 1-244-26-373-85q36 8 61 12h4q23 4 47 4 76 0 152-38c14 5 91 27 189 27 124 0 281-36 389-189q2-3 1-6l-4-5-37-14c11-152-83-229-87-233a7 7 0 0 0-12 7q21 148-60 244c-101 120-293 146-352 151q27-22 50-51c20-25 31-54 37-71 26-2 138-13 205-95q68-84 42-223c-11-56-56-151-72-181zm-2259 1c-16 31-61 125-71 181q-27 139 41 223c67 82 179 93 206 95 5 17 16 46 36 71q23 29 50 51c-59-5-250-31-351-151q-82-96-61-244a7 7 0 0 0-12-7c-4 4-98 81-87 233l-37 14a7 7 0 0 0-3 11 455 455 0 0 0 389 189c98 0 175-22 189-27a342 342 0 0 0 199 34h5q25-4 60-12a852 852 0 0 1-368 85h-5q-6 1-8 7 1 7 8 8h5c128 0 247-28 378-89q-34 20-71 36c-111 44-187 61-275 80l-60 13c-94 22-208 89-257 177-3-35 10-115 138-211h5l50-2q7-1 7-8-2-7-8-7c-94 8-160-8-192-16-3-2-58-22-97-51q-88-64-134-145c-41-72-55-113-68-149q-8-25-20-52c-24-50-48-76-65-89 93 6 147 136 148 137a7 7 0 0 0 14-5s-16-59-19-105v-2c2-29 14-88 68-159 86-114 232-116 273-114m-1064 10q19 0 34 4c-41 8-106 37-137 150q-21 78-72 102c-42 19-89 3-102-2l-7-40a143 143 0 0 0 34 4c41 0 97-20 131-114q36-104 119-104m4354 0q83 0 119 104c34 94 90 114 131 114h6l28-4-7 40c-13 5-59 21-102 2q-51-24-72-102c-31-113-96-142-137-150q15-3 34-4m-149 2c48 1 76 16 76 16 1 0 88 45 131 203q21 76 68 105-163 113-312 79c-73-17-132-59-176-102 95-90 102-239 102-278l2-4q65-21 109-19m-4057 0q44-2 107 18c0 30 4 192 106 286-44 42-103 83-176 100q-149 36-313-79 49-29 70-106c43-158 130-203 131-203 0-1 27-15 75-16m-101 15c-30 23-87 80-119 200q-21 78-72 102c-43 20-90 3-102-2l-7-41q13 4 33 4 25 1 51-11 59-26 81-111c31-117 101-138 135-141m4260 0c34 3 104 24 135 141q23 85 81 111 26 12 52 11 18 0 32-4l-7 41c-12 5-59 22-102 2q-51-24-72-102a359 359 0 0 0-119-200m-2310 27q32 42 63 79c31 36 62 74 68 91h-1c-47 103-175 105-237 99h-2l-25-4c29-73 29-148 22-201l10-1c43-6 79-30 102-63m374 1a148 148 0 0 0 111 63c-7 53-7 128 22 201-34 6-206 29-265-92 1-14 35-55 68-94q32-38 64-78m-635 4q10 12 24 23 49 36 110 37c7 53 8 130-24 203a185 185 0 0 0-167 160v4l-30 13c-99 38-178-17-204-39 44-14 188-71 259-203 37-71 38-147 32-198m892 4c-4 45-4 120 36 194a473 473 0 0 0 258 203 202 202 0 0 1-233 26l-1-4a185 185 0 0 0-167-160c-32-73-31-150-24-203a181 181 0 0 0 131-56m-2356 0c18 33 50 75 107 107 39 21 60 30 73 33-11 18-38 60-80 102-77-69-96-184-100-242m3806 5c-5 59-25 167-97 235-41-43-68-84-79-102q17-3 72-33c53-30 85-68 104-100m649 25c31 43 164 250 42 483a534 534 0 0 1-190 216c-69 28-165 49-166 49q-6 2-6 8 2 7 8 7c3 0 245-18 314 128-27-17-81-38-185-35q-46 2-90 8c-60 8-128 17-262 10-84-4-206-22-306-88a593 593 0 0 1-245-323l6-10c27-48 42-83 54-111v1a727 727 0 0 0 550 418 7 7 0 0 0 7-8c0-2-1-29-7-65a450 450 0 0 0 272-291 7 7 0 0 0-12-8 508 508 0 0 1-336 103c-176-15-322-138-427-265 36-65 67-70 68-70v-1l3-1 1-1 2-2v-5l-2-3v-1h-1s-65-50-136-1c-21-29-43-64-57-87a313 313 0 0 0 189 59q44-1 71-4c15 26 113 187 279 226q36 9 74 9 125 0 257-94 25 10 48 9c36 0 65-13 66-14q4-2 5-5l8-52 18-6q3-1 4-6l9-51 21-10 3-3zm-5099 1 48 112 3 3 22 10 8 51q1 4 4 6l18 6 9 52q1 3 4 5c2 1 30 14 66 14q23 1 47-8 132 94 258 94 38 0 74-8c163-39 261-196 279-226a398 398 0 0 0 130 1q74-16 132-48l-54 72c-68-40-128 6-128 6l-1 1c-4 4-1 11 4 12v1c1 0 29 5 63 61-140 170-424 414-771 173q-4-3-9 0-4 3-3 8c1 2 45 198 271 291-5 36-6 62-6 65a7 7 0 0 0 8 8 727 727 0 0 0 549-418l8-17c11 29 27 66 57 120-9 33-68 222-250 340a629 629 0 0 1-306 88c-134 6-202-2-263-10q-42-6-89-8c-104-3-158 18-185 35 69-146 311-129 314-129q6 1 8-6 0-7-6-8a805 805 0 0 1-169-52c-41-25-120-86-187-213-123-235 13-443 43-484m1877 8q15 4 32 6 44 54 93 100-63-42-125-106m1355 0c-42 45-81 77-124 106q48-46 92-100 17-1 32-6m-2123 71q-23 52-27 84-10-11-22-19zm2907 32 27 39-13 13q-3-22-14-52m-3028 23c27 0 60 11 92 50q3 27 8 52c-26-40-70-91-131-97q13-5 31-5m3138 0q16 2 28 6c-61 5-105 56-130 97l7-53c29-36 59-48 84-50zm-284 17c26 28 74 96 68 202l-14-4c4-93-36-149-52-171zm-2573 0-1 27c-17 22-57 78-53 171l-14 4c-6-106 43-174 68-202m-1 52q2 76 36 136-36-2-74 7c-3-69 20-116 38-143m2576 0c17 27 40 74 37 143q-37-9-73-7 33-60 36-136m-1394 5-17 20q-31 37-61 76-22-38-60-59c43-1 95-9 138-37m215 4c42 25 93 32 134 33q-38 21-59 58zm749 6c20 9 73 41 76 125q2 33 0 43l-1 1-2 9c-5 15-15 46-35 71q-32 39-69 63-98 50-194 35l-4-1c-35-6-86-14-145-45q24-52 22-110l23 10q39 15 74 14c91 0 153-62 155-64 42-34 87-101 100-151m-1717 0c14 50 58 117 101 151 2 3 64 64 154 64a204 204 0 0 0 97-24q-2 58 22 110c-58 31-110 39-145 45l-4 1q-96 15-194-35-37-24-69-63c-20-25-31-57-35-72 0 0-5-16-3-52 5-84 56-116 76-125m-703 13 9 18q12 25 20 51l3 8-14 29a713 713 0 0 1-529 409c3-38 17-180 73-242 192-21 345-161 438-273m3118 9c108 129 255 251 433 267 53 63 67 200 70 237a714 714 0 0 1-535-421l8-23 20-51zm-1870 2 17 1c68 10 118 69 117 137h-99c-12 0-22 9-22 21v28c0 12 10 22 22 22h74a108 108 0 0 1-97 37 84 84 0 0 1-71-95c22-36 63-57 108-51a7 7 0 1 0 2-15c-68-9-130 38-140 106a154 154 0 0 0 159 175c40 0 80-13 112-37 40-28 66-71 73-120h50a269 269 0 0 1-297 183 215 215 0 0 1-184-244 171 171 0 0 1 176-148m627 0 19 1 2-1a171 171 0 0 1 156 148 215 215 0 0 1-185 244 269 269 0 0 1-297-183h50c7 49 33 92 73 120a191 191 0 0 0 140 35c84-12 143-89 131-173-9-68-72-115-140-106a7 7 0 1 0 2 15c44-6 85 15 107 50v1q5 34-16 62a85 85 0 0 1-56 33 109 109 0 0 1-98-37h43c12 0 22-10 22-22v-28c0-12-10-21-22-21h-65a136 136 0 0 1 134-138m947 111c47-3 108 20 131 29-142 193-368 186-484 166 177-1 310-50 364-137q3-6-3-10-6-3-10 3c-19 31-97 125-334 129 85-15 216-52 296-147l21-30zm-2521 0 19 3 21 30c80 95 211 132 296 147-237-4-314-98-334-129q-4-6-10-3-6 4-2 10c53 87 187 136 364 137-117 20-343 27-484-166 22-9 83-32 130-29m982 42h523q6 1 7 6v28q0 6-7 7h-523q-6 0-7-7v-28q1-5 7-6m2597 17c-17 51-78 187-253 260l-6-32a403 403 0 0 0 210-198q25-13 49-30m-4651 2 49 29c20 39 71 138 210 199l-6 32a443 443 0 0 1-253-260m2719 15 2 6c10 76-43 146-119 156-46 6-92-5-129-31q-38-29-56-70a184 184 0 0 0 175 69c68-10 120-64 127-130m-774 5a148 148 0 0 0 153 127c64 0 123-33 155-86q-16 52-60 85c-37 26-83 37-130 31-76-10-129-80-118-156zm202 17h102a166 166 0 0 1-176 93c-43-6-79-32-98-67q23 21 54 26a121 121 0 0 0 118-52m264 0h104a124 124 0 0 0 119 52q32-5 55-27c-20 36-56 62-99 68-77 11-149-27-179-93m2168 2c-24 45-76 122-190 173-10-42-25-86-47-118q111 6 237-55m-4507 2c85 41 166 55 241 51-25 32-40 78-50 121a388 388 0 0 1-191-172m2261 18c36 95 121 160 220 175-20 19-39 48-53 70l-7 10c-66 98-76 241-27 355 15 33 38 71 72 105-38-8-107-22-163-28-5-15-25-25-49-25-25 0-45 10-50 25-53 6-114 19-148 26q43-48 63-96c49-114 39-256-27-354-13-20-49-63-77-85 110-8 206-76 246-178m-468 76 8 10a230 230 0 0 0 191 93l3 2c24 14 69 67 85 90 62 93 72 233 25 340-25 58-74 126-170 168 104-83 126-265 77-396-50-134-187-232-279-232h-2q-33 1-58 13c24-29 62-62 120-88m934 1q73 36 108 77a144 144 0 0 0-55-10c-91 0-229 98-279 231-49 131-27 314 77 396a316 316 0 0 1-170-167 375 375 0 0 1 25-340l7-11c15-24 36-56 57-73l2-3a298 298 0 0 0 69-1c61-9 115-40 153-90zm106 54q23 12 50 23c112 46 188 62 277 81l54 13q-27 20-79 66c-118 103-316 276-417 247q-39-12-55-66l-1-2v-3l2 3c18 25 61 30 97 12 88-44 156-184 135-277l-2-6h1l-5-12-1-4-6-11-2-3q-14-26-48-61m-1155 5a250 250 0 0 0-61 100c-21 92 47 232 135 277 36 18 79 13 98-13l1-2v2l-1 3q-16 54-55 65c-102 30-299-143-417-246q-58-52-85-71l8-2 61-14c88-19 164-35 276-81q21-8 40-18m1102 23h2q59 1 85 39l10 19 5 15c19 85-46 219-128 260-29 15-64 11-78-8-10-12-23-50 56-132l1-3q2-4 0-7-3-6-9-3c-28 15-79 83-77 151 1 33 15 79 80 109q34 15 70 15c120 0 247-125 361-238q62-63 117-110 28 10 57 27c-68 62-106 110-154 170-37 45-78 97-143 168-151 168-278 184-356 169l-2-1-12-2q-28-8-46-17c-114-56-163-243-104-400 48-128 178-221 265-221m-1049 7c87-2 219 93 267 222 59 157 10 344-104 400q-18 9-46 17l-12 2-2 1c-78 14-205-2-356-169-65-71-106-123-143-169-48-60-86-108-155-171l-1-1q28-15 57-28l2 4q55 45 117 110c114 112 241 238 362 238q35 0 70-15c64-30 78-76 79-110 2-67-48-136-76-150q-6-3-10 3-2 3 0 6l1 4c79 82 66 119 57 132-15 19-50 22-79 8-81-42-147-175-127-261l4-13 3-8q24-50 92-52m-686 17c24 6 61 14 111 16-96 76-124 142-130 185q-6-28 0-80c6-55 15-103 19-121m2431 0c4 18 13 66 20 121q5 52-1 80c-6-43-33-109-130-185 50-2 88-10 111-16m-1222 13c-27 0-51 23-51 41s22 32 51 32c28 0 50-14 50-32s-24-41-50-41m0 14c20 0 35 18 35 27 0 8-15 17-35 17-21 0-36-9-36-17 0-9 15-27 36-27m2406 29c137 32 158 122 158 170-51-106-187-130-266-135 32-9 73-21 108-35m-4812 2c27 14 69 26 104 35-80 5-212 31-263 135 1-48 22-138 159-170m3386 11 25 8q-52 45-112 106c-132 131-283 280-414 219q-12-5-21-11l2 1q14 4 29 4c112 0 291-157 402-254 41-36 74-64 89-73m-1960 4 3 3c13 6 48 36 91 74 111 97 290 253 403 253q15 0 28-4h2q-9 6-21 11c-131 61-282-88-414-220-41-40-80-79-116-109zm980 30c-33 0-60 21-60 47s27 47 60 47c32 0 59-21 59-47s-27-47-59-47m0 15c24 0 44 15 44 32 0 18-20 33-44 33-25 0-45-15-45-33 0-17 20-32 45-32m0 104c-33 0-60 27-60 60s27 60 60 60c32 0 59-27 59-60s-27-60-59-60m0 15c24 0 44 20 44 45s-20 45-44 45c-25 0-45-20-45-45s20-45 45-45m0 133c-33 0-59 21-59 47s26 47 59 47c32 0 58-21 58-47s-26-47-58-47m0 15c24 0 44 14 44 32 0 17-20 32-44 32-25 0-45-15-45-32 0-18 20-32 45-32m0 109c20 0 35 9 35 17 0 9-15 27-35 27-21 0-36-18-36-27 0-8 15-17 36-17"/>
  <path fill="#012030" d="M2886 2900v-641l86 2c148 0 229 56 229 178 0 121-61 175-206 176l40 100c46 104 127 242 206 316a440 440 0 0 0 335 107l10-93c-74-18-132-63-198-140-59-69-116-171-147-231a276 276 0 0 0 169-252c0-198-158-269-348-269h-482c-4 15-6 48-6 71l24 8 51 20c32 18 49 54 49 92v565c0 189-39 241-190 334l59 105c155-70 319-170 319-448"/>
</svg>
