<svg xmlns="http://www.w3.org/2000/svg" width="5000" height="1610" viewBox="0 0 5000 1610">
  <path fill="#344079" d="M704 260c-41 0-75 33-75 75 0 41 34 75 75 75s74-34 74-75c0-42-33-75-74-75M484 382c-31 0-46 27-46 47q1 23 17 36 34 27 70 46 4 3 4 6 0 6-5 7c-90 53-156 114-252 274q-6 12-6 24c0 22 15 47 45 47q26 0 39-22c117-207 239-271 313-271 62 0 122 55 169 157 8 17 25 27 43 27 27 0 45-26 45-47 0-30-60-126-103-164l-2-5q1-7 10-9c10-4 38-18 61-34 11-9 21-21 21-41 0-27-22-46-47-46-14 0-26 9-43 19-24 15-60 34-114 34-63 0-119-25-153-48-28-19-45-37-66-37m3216 102-21 365 2 1q45 23 96 23c80 0 134-63 134-157 0-63-35-103-91-103q-40 0-67 26l10-155zm836 1-23 383h63l6-113 40 58 37 53 1 2h84l-6-7c-14-17-33-42-46-62l-52-74 129-106h-95l-88 77 13-211zm-1651 30 59 78h68l70-78h-57l-45 34-40-34zm541 1-46 77h51l84-77zm-2172 5-22 347h70l10-148h142l-10 148h69l22-347h-69l-10 142h-142l11-142zm1188 38-3 60h-34l-4 50h34l-8 131q-2 35 16 54 20 20 59 20 35 0 59-16l2-2 2-54-7 4a91 91 0 0 1-42 16q-13 0-18-6-7-8-7-28l7-119h70l4-50h-71l3-60zm790 54c-28 0-57 12-78 33-1-10-2-14-5-24l-1-3h-63l1 6c5 16 7 34 7 69l-10 169v5h63l8-123c3-49 32-75 58-75q13 1 24 10 10 11 9 28l-9 160h65l9-168q2-39-22-64a77 77 0 0 0-56-23m1150 0c-28 0-57 12-78 33-1-10-2-14-5-24l-1-3h-63l1 6c5 16 7 34 7 69l-10 169v5h63l8-123c3-49 32-75 58-75q13 1 24 10 10 11 9 28l-9 160h65l9-168q2-39-21-64a77 77 0 0 0-57-23m-2374 0q-41-1-71 30l-4-21-1-3h-63l1 6c3 12 7 39 6 61l-18 305h65l8-135q19 16 51 15c71 0 118-62 118-155 0-62-37-103-92-103m253 0c-79 0-128 53-128 140 0 74 45 122 113 122 80 0 128-53 128-141 0-76-42-121-113-121m711 0c-80 0-131 57-131 144 0 72 42 116 110 116q40 0 75-19l2-1v-62l-6 4c-24 15-41 21-61 21q-52-1-53-61c0-50 26-83 66-83 18 0 29 4 49 14l5 2 12-58-3-1c-17-8-35-16-65-16m-245 1c-74 0-130 63-130 147 0 70 41 114 107 114 29 0 52-7 80-23l2-1 2-59-7 5q-37 24-70 24-43-1-48-47h2l11 1c82 0 134-35 134-89 0-45-32-72-83-72m1371 0c-96 0-153 57-153 153 0 67 34 106 89 106q47-1 77-33l3 24 1 4h60l-1-6q-6-30-5-62l10-173-3-1c-32-10-51-12-78-12m810 0c-95 0-152 57-152 153 0 67 33 106 89 106q45-1 77-33l3 24 1 4h59l-1-5q-5-31-4-63l10-173-3-1c-32-10-51-12-79-12m-3315 5v5a730 730 0 0 1-4 166c0 53 27 84 74 84q39 0 67-28l-1 20q-4 75-66 73c-20 0-30-1-54-7l-5-1-3 52 4 1c24 6 34 7 56 7 88 0 125-36 130-129l14-243h-63l-6 114q-5 81-57 82-30 2-29-37l2-29c3-37 8-91 4-126l-1-4zm1788 0-14 249h64l13-249zm-660 47c14 0 25 10 25 24 0 20-27 34-67 34h-12c7-31 32-58 54-58m-463 4q50 2 51 65c0 49-24 82-59 82q-49-1-50-64c0-52 22-83 58-83m-264 2q38 1 39 57c0 48-27 85-63 85q-23 0-38-17l2-43c3-50 27-82 60-82m1814 0q39 0 38 54c0 56-26 90-69 90-15 0-20-1-33-9h1c2-37 4-68 8-80 7-36 33-55 55-55m276 1q13-1 31 4l-4 55c-3 45-31 81-64 81q-36-1-36-47c0-56 29-93 73-93m811 0q13-1 30 4l-3 55c-3 45-31 81-65 81q-35-1-36-47c0-56 30-93 74-93"/>
  <path fill="#93b83f" d="M674 3 30 422a44 44 0 0 0-20 37 44 44 0 0 0 34 43q19 3 33-6l587-381 6-2q5 1 5 2l431 330a44 44 0 0 0 70-35q0-20-17-35zM543 863c-24 0-44 20-44 44 0 25 20 44 44 44h532c24 0 44-19 44-44 0-24-20-44-44-44z"/>
  <path fill="#868686" d="M10 1161v23h4980v-23zm551 185 35 35h23l34-35h-24l-21 22h-1l-21-22zm2197 0 35 35h23l34-35h-24l-21 22h-1l-21-22zm-1336 44c-44 0-73 24-73 57 0 30 23 47 60 60q44 14 42 41c0 21-17 36-47 36q-31-1-52-14l-8 23c12 7 36 13 58 13 53 0 79-28 79-60 0-31-19-48-57-62-32-11-46-20-46-40 0-14 12-31 43-31 21 0 36 6 43 10l8-23q-15-9-50-10m1553 0c-44 0-73 24-73 57 0 30 23 47 60 60q45 14 43 41c0 21-18 36-48 36q-31-1-52-14l-8 23c12 7 36 13 58 13 54 0 80-28 80-60 0-31-20-48-58-62-32-11-45-20-45-40 0-14 11-31 42-31 21 0 36 6 43 10l8-23q-14-9-50-10m198 0c-60 0-105 44-105 110 0 64 42 107 102 107 58 0 105-39 105-111 0-62-40-106-102-106m-2558 0c-70 0-119 45-119 110 0 69 49 106 112 106q44-1 60-10l-6-21q-20 8-48 9c-55 0-87-33-87-85 0-55 36-86 89-86q28 1 46 9l7-23c-8-3-26-9-54-9m2197 0c-70 0-119 45-119 110 0 69 49 106 112 106q43-1 60-10l-6-21q-19 8-48 9c-55 0-87-33-87-85 0-55 36-86 89-86q28 1 46 9l7-23c-8-3-26-9-54-9m-814 2q-36 0-56 4v207h29v-84q11 3 23 2 45 0 70-23 17-17 17-45t-20-44q-19-17-63-17m1375 0q-32 0-53 4v207l45 2q55 0 79-19 18-16 19-42c0-32-25-48-47-53v-1q37-13 38-46-1-24-18-37c-15-10-33-15-63-15m-2661 2v209h126v-22h-97v-187zm165 0v209h128v-22h-98v-76h88v-22h-88v-67h93v-22zm651 0v209h29v-80l22-23 75 103h34l-88-120 82-89h-36l-70 78-18 23h-1v-101zm189 0v123c0 65 35 90 81 90 49 0 86-27 86-91v-122h-30v124c0 46-21 67-55 67-30 0-52-20-52-67v-124zm410 0v209h30v-209zm-1078 0v209h28v-89l-2-87h1q17 35 42 70l72 106h30v-209h-28v87c0 33 1 58 3 87q-16-33-41-68l-73-106zm1165 0v209h28v-89l-2-87h1q17 35 42 70l72 106h30v-209h-28v87c0 33 1 58 3 87q-16-33-41-68l-73-106zm205 0 72 120v89h29v-89l76-120h-33l-33 57-22 44h-1l-23-44-32-57zm753 18c49 0 72 44 72 85 0 48-26 88-72 88s-73-41-73-85c0-46 24-88 73-88m203 1c30 0 50 10 50 34 0 20-18 35-49 35h-27v-67zm-1377 0c33 0 54 14 54 42s-22 44-57 44q-15 0-24-2v-81q8-3 27-3m1351 90h24c32 0 59 12 59 40 0 31-28 41-58 41l-25-1z"/>
</svg>
