<?xml version="1.0" encoding="UTF-8"?>
<svg id="svg21" width="240" height="70" version="1.1" viewBox="0 0 240 70" xmlns="http://www.w3.org/2000/svg">
 <path id="path1" d="m114 8h3.733c1.954 0.00585 3.536 1.5865 3.542 3.5381v2.1846h-7.275zm0 8.1151h3.733c1.951 0.0117 3.53 1.5889 3.542 3.5381v24.175h-7.275zm34.219 27.713h-7.184v-17.722c0-1.6625-0.505-2.8756-1.515-3.6393-0.967-0.75-2.158-1.1534-3.381-1.1456-1.21-0.0135-2.388 0.3912-3.334 1.1456-0.977 0.7602-1.465 1.9733-1.461 3.6393v17.722h-7.291v-16.262c0-4.721 1.232-7.8772 3.696-9.4686 2.437-1.588 5.259-2.4883 8.166-2.6056 1.577 0.0024 3.15 0.1812 4.688 0.5329 1.535 0.351 2.964 1.0655 4.165 2.0834 1.067-0.9184 2.332-1.5785 3.696-1.9289 1.447-0.3835 2.931-0.6104 4.427-0.6767 2.983-0.0197 5.909 0.8102 8.437 2.3924 2.571 1.5985 3.856 4.8258 3.856 9.6817v16.252h-3.648c-0.951 0.0412-1.876-0.3183-2.549-0.9909-0.674-0.6727-1.034-1.5968-0.992-2.5471v-14.184c0-1.6625-0.503-2.8756-1.51-3.6393-1.997-1.527-4.771-1.527-6.768 0-1.009 0.7602-1.514 1.9733-1.514 3.6393v17.722zm26.576 6.6338c-0.012 1.9492-1.591 3.5265-3.542 3.5381h-3.541v-25.912c0-4.8595 1.422-8.1737 4.267-9.9427 2.772-1.7518 5.988-2.6761 9.269-2.6644 1.798 0.0121 3.58 0.3478 5.259 0.9912 1.633 0.5665 3.089 1.5535 4.218 2.8614 2.087 2.7068 3.129 6.1756 3.126 10.406 0 4.3693-1.042 7.9074-3.126 10.614-1.872 2.5302-4.851 4.0025-8 3.9537-1.579 0.0342-3.146-0.2844-4.586-0.9325-1.413-0.7138-2.576-1.8399-3.334-3.229zm11.877-20.397c0-2.7069-0.521-4.7885-1.563-6.2449-1.02-1.4464-2.71-2.2707-4.48-2.1846-1.736-0.0713-3.388 0.7537-4.373 2.1846-0.978 1.3179-1.465 3.3995-1.461 6.2449 0 2.6393 0.521 4.6161 1.562 5.9305 1.021 1.4464 2.711 2.2707 4.48 2.1846 1.703 0.0474 3.311-0.7763 4.267-2.1846 1.045-1.46 1.568-3.4368 1.568-5.9305zm29.307 5.2005h5.21c-0.606 2.6755-2.162 5.0413-4.378 6.6605-2.134 1.5985-4.841 2.396-8.123 2.3924-3.957 0-7.047-1.2824-9.269-3.8471-2.226-2.4866-3.337-6.0601-3.334-10.721 0-4.4368 1.067-7.9056 3.2-10.406 2.223-2.5682 5.312-3.8524 9.27-3.8524 4.17 0 7.401 1.2433 9.69 3.7299 2.219 2.5683 3.33 6.1419 3.334 10.721v1.1456c0.015 0.2481-0.021 0.4967-0.107 0.73h-17.995c0.07 2.1314 0.592 3.7299 1.563 4.7956 0.971 1.0656 2.256 1.6677 4.064 1.6677 1.053 0.0305 2.096-0.2216 3.019-0.7299 0.218-0.0757 0.415-0.2017 0.576-0.3677l0.57-0.5701c0.186-0.3395 0.456-0.6257 0.784-0.8313 0.568-0.3794 1.244-0.5611 1.926-0.5168zm-12.502-8.1152h10.624c-0.138-1.8756-0.624-3.2609-1.456-4.1668-0.832-0.9058-2.186-1.4546-3.856-1.4546-1.391-0.0464-2.74 0.4794-3.733 1.4546-0.987 0.9751-1.509 2.3605-1.579 4.1668zm20.875 16.678v-13.428c-0.071-2.3311 0.335-4.6521 1.195-6.8204 0.712-1.7215 1.839-3.2407 3.28-4.4226 1.376-1.0686 2.954-1.848 4.64-2.2912 1.78-0.4927 3.619-0.7437 5.466-0.7459h1.067v7.3904h-2.395c-2.016 0-3.509 0.4867-4.48 1.46-0.97 0.9733-1.456 2.499-1.456 4.5771v14.28z" fill="#2a3343"/>
 <path id="path2" d="m103.92 34.317c-1.314-17.387-15.839-30.848-33.358-30.913h-1.146c1.0487 1.318 1.9467 2.7481 2.6776 4.2638 15.406 0.80114 27.525 13.394 27.667 28.746s-11.744 28.164-27.132 29.247c-0.7015 0.048-1.4138 0.0747-2.1153 0.0747-14.14 0.0323-26.254-10.061-28.71-23.92 0.6418-1.8038 0.9679-3.7039 0.9639-5.6175 0.0326-9.3546-7.5608-16.964-16.96-16.997-9.3994-0.0324-17.045 7.5247-17.078 16.879v1.1033h5.8426v-1.066c0.0473-6.123 5.0647-11.053 11.217-11.022s11.119 5.0121 11.103 11.135c-0.0156 6.1232-5.0075 11.079-11.16 11.079h-0.1821l-1.1406-0.0373v5.8627h1.3066c5.0134 0.011 9.7735-2.1909 12.997-6.012 4.509 13.656 17.324 22.884 31.768 22.875 0.8033 0 1.6065-0.032 2.4205-0.0906 8.8581-0.6278 17.102-4.7334 22.918-11.413 5.8153-6.6794 8.7253-15.385 8.0893-24.201z" fill="#13cdf0"/>
 <path id="path3" d="m73.539 11.597c0.5103 1.9129 0.7696 3.8836 0.7712 5.8627v0.096c10.131 1.981 16.977 11.45 15.645 21.64-1.332 10.19-10.384 17.6-20.688 16.936-10.303-0.6648-18.318-9.1764-18.317-19.452v-0.3517c-2e-4 -9.6295-5.4964-18.423-14.175-22.68-8.679-4.2565-19.034-3.2372-26.707 2.6289l-0.0267-0.0373c-11.016 8.3243-13.314 23.89-5.1707 35.017 8.1435 11.126 23.735 13.723 35.074 5.8413-1.0925-1.6321-1.991-3.3849-2.6776-5.2231-5.9523 4.4604-13.932 5.1718-20.587 1.8352-6.654-3.3366-10.828-10.143-10.769-17.558h0.04284c0.0488-10.764 8.8565-19.452 19.673-19.403 10.816 0.0486 19.545 8.8143 19.496 19.579v0.3517c-0.0017 13.575 10.768 24.729 24.398 25.268s25.254-9.7312 26.333-23.264c1.0793-13.533-8.7718-25.499-22.316-27.107z" fill="#0ca8de"/>
 <path id="path4" d="m39.024 12.343c2.5729-6.1264 9.232-9.4898 15.72-7.9397 6.4874 1.5501 10.886 7.5558 10.384 14.177-0.5022 6.6212-5.7572 11.902-12.405 12.465 0.1908 0.8242 0.3002 1.665 0.3267 2.5103 0.0482 0.4904 0.0911 0.986 0.1125 1.487 8.5852-0.7793 15.347-7.6201 15.989-16.176 0.642-8.556-5.0235-16.32-13.397-18.36-8.3736-2.0399-17.002 2.2424-20.403 10.126 1.264 0.4824 2.4917 1.0541 3.6738 1.7109z" fill="#0ca8de"/>
 <path id="path5" d="m44.24 16.106 0.166 0.0266c0.695-4.1188 4.6071-6.9018 8.7478-6.223 4.1407 0.67879 6.9492 4.5636 6.28 8.6866-0.6691 4.1231-4.5637 6.9303-8.7085 6.2772h-0.0643c0.357 0.764 0.6765 1.5474 0.9586 2.3504 5.1229 0.1433 9.5055-3.6356 10.093-8.7026 0.5873-5.0669-2.8156-9.7397-7.8367-10.761-5.0212-1.0214-9.9935 1.9476-11.451 6.8376 0.6355 0.4796 1.2406 0.9824 1.8154 1.5083zm29.513 6.1292c-1.8838 8.869-8.9183 15.754-17.86 17.482 1.5173 7.2068 8.1237 12.21 15.508 11.744 7.3838-0.4659 13.302-6.2592 13.893-13.599 0.5907-7.3398-4.3259-13.997-11.541-15.627z" fill="#13cdf0"/>
 <path id="path6" d="m239.65 57.364v1.1932h-4.171v-1.1932zm-3.053-1.8295h1.487v7.2237c0 0.2884 0.043 0.5054 0.129 0.6513 0.086 0.1425 0.197 0.2403 0.333 0.2933 0.139 0.0497 0.29 0.0746 0.453 0.0746 0.119 0 0.223-0.0083 0.313-0.0249 0.089-0.0166 0.159-0.0298 0.209-0.0398l0.268 1.228c-0.086 0.0332-0.209 0.0663-0.368 0.0995-0.159 0.0364-0.358 0.0563-0.596 0.0596-0.391 0.0066-0.756-0.063-1.094-0.2088s-0.612-0.3712-0.82-0.6761c-0.209-0.3049-0.314-0.6878-0.314-1.1485z" fill="#2a3343"/>
 <path id="path7" d="m232.6 65v-7.6364h1.486v7.6364zm0.751-8.8146c-0.259 0-0.481-0.0862-0.667-0.2585-0.182-0.1757-0.273-0.3845-0.273-0.6265 0-0.2452 0.091-0.454 0.273-0.6264 0.186-0.1756 0.408-0.2635 0.667-0.2635 0.258 0 0.479 0.0879 0.661 0.2635 0.185 0.1724 0.278 0.3812 0.278 0.6264 0 0.242-0.093 0.4508-0.278 0.6265-0.182 0.1723-0.403 0.2585-0.661 0.2585z" fill="#2a3343"/>
 <path id="path8" d="m226.18 62.41-0.01-1.8147h0.259l3.042-3.2315h1.78l-3.47 3.679h-0.234zm-1.367 2.5902v-10.182h1.486v10.182zm4.822 0-2.734-3.6293 1.024-1.0391 3.535 4.6684z" fill="#2a3343"/>
 <path id="path9" d="m223.02 59.228-1.347 0.2386c-0.056-0.1724-0.146-0.3364-0.268-0.4922-0.12-0.1558-0.282-0.2834-0.488-0.3828-0.205-0.0994-0.462-0.1492-0.77-0.1492-0.421 0-0.772 0.0945-1.054 0.2834-0.282 0.1856-0.423 0.4259-0.423 0.7209 0 0.2552 0.095 0.4607 0.284 0.6165s0.493 0.2834 0.914 0.3828l1.213 0.2784c0.703 0.1624 1.227 0.4127 1.571 0.7507 0.345 0.3381 0.518 0.7772 0.518 1.3175 0 0.4574-0.133 0.865-0.398 1.223-0.262 0.3546-0.628 0.6331-1.099 0.8352-0.467 0.2022-1.009 0.3033-1.626 0.3033-0.855 0-1.552-0.1823-2.093-0.5469-0.54-0.3679-0.871-0.8899-0.994-1.566l1.437-0.2188c0.089 0.3745 0.273 0.6579 0.552 0.8502 0.278 0.1889 0.641 0.2833 1.088 0.2833 0.488 0 0.877-0.101 1.169-0.3032 0.291-0.2055 0.437-0.4558 0.437-0.7507 0-0.2387-0.089-0.4392-0.268-0.6016-0.176-0.1624-0.446-0.285-0.811-0.3679l-1.292-0.2834c-0.713-0.1624-1.24-0.4209-1.581-0.7755-0.338-0.3547-0.507-0.8038-0.507-1.3473 0-0.4508 0.126-0.8452 0.378-1.1833 0.251-0.3381 0.599-0.6015 1.044-0.7905 0.444-0.1922 0.952-0.2883 1.526-0.2883 0.825 0 1.475 0.179 1.949 0.5369 0.474 0.3547 0.787 0.8303 0.939 1.4269z" fill="#2a3343"/>
 <path id="path10" d="m212.38 65.154c-0.752 0-1.4-0.1608-1.943-0.4822-0.541-0.3249-0.958-0.7806-1.253-1.3672-0.292-0.59-0.438-1.281-0.438-2.0732 0-0.7822 0.146-1.4716 0.438-2.0682 0.295-0.5966 0.706-1.0622 1.233-1.397 0.53-0.3347 1.15-0.5021 1.859-0.5021 0.431 0 0.849 0.0712 1.253 0.2138 0.404 0.1425 0.767 0.3662 1.089 0.6711 0.321 0.3049 0.575 0.701 0.76 1.1882 0.186 0.4839 0.279 1.0722 0.279 1.765v0.5269h-6.071v-1.1136h4.614c0-0.3911-0.08-0.7374-0.239-1.0391-0.159-0.3049-0.382-0.5452-0.671-0.7208-0.285-0.1757-0.62-0.2635-1.004-0.2635-0.418 0-0.782 0.1027-1.094 0.3082-0.308 0.2022-0.547 0.4673-0.716 0.7955-0.165 0.3248-0.248 0.6778-0.248 1.0589v0.87c0 0.5105 0.089 0.9446 0.268 1.3026 0.182 0.3579 0.436 0.6314 0.761 0.8203 0.325 0.1856 0.704 0.2784 1.138 0.2784 0.282 0 0.539-0.0398 0.771-0.1193 0.232-0.0829 0.432-0.2055 0.601-0.3679 0.17-0.1624 0.299-0.3629 0.388-0.6016l1.407 0.2536c-0.112 0.4143-0.315 0.7772-0.606 1.0888-0.289 0.3082-0.652 0.5485-1.089 0.7208-0.434 0.1691-0.93 0.2536-1.487 0.2536z" fill="#2a3343"/>
 <path id="path11" d="m207.08 54.818v10.182h-1.486v-10.182z" fill="#2a3343"/>
 <path id="path12" d="m199.85 65.169c-0.484 0-0.922-0.0895-1.313-0.2685-0.391-0.1822-0.701-0.4457-0.93-0.7904-0.225-0.3447-0.338-0.7673-0.338-1.2678 0-0.4309 0.083-0.7855 0.249-1.0639s0.389-0.4988 0.671-0.6612 0.597-0.2851 0.945-0.3679c0.348-0.0829 0.702-0.1459 1.064-0.189 0.457-0.053 0.828-0.0961 1.113-0.1292 0.285-0.0365 0.492-0.0945 0.622-0.174 0.129-0.0796 0.194-0.2088 0.194-0.3878v-0.0348c0-0.4342-0.123-0.7706-0.368-1.0092-0.242-0.2387-0.604-0.358-1.084-0.358-0.501 0-0.895 0.111-1.183 0.3331-0.285 0.2188-0.483 0.4624-0.592 0.7308l-1.397-0.3182c0.166-0.464 0.408-0.8385 0.726-1.1235 0.321-0.2884 0.691-0.4972 1.108-0.6265 0.418-0.1325 0.857-0.1988 1.318-0.1988 0.305 0 0.628 0.0364 0.969 0.1094 0.345 0.0696 0.667 0.1988 0.965 0.3877 0.301 0.189 0.548 0.4591 0.741 0.8104 0.192 0.348 0.288 0.8004 0.288 1.3573v5.071h-1.452v-1.0441h-0.059c-0.096 0.1923-0.241 0.3812-0.433 0.5668s-0.439 0.3397-0.741 0.4624c-0.301 0.1226-0.663 0.1839-1.083 0.1839zm0.323-1.1932c0.411 0 0.762-0.0812 1.054-0.2436 0.295-0.1624 0.518-0.3745 0.671-0.6363 0.156-0.2652 0.233-0.5486 0.233-0.8502v-0.9844c-0.053 0.0531-0.155 0.1028-0.308 0.1492-0.149 0.0431-0.32 0.0812-0.512 0.1143-0.192 0.0299-0.379 0.058-0.562 0.0846-0.182 0.0232-0.334 0.043-0.457 0.0596-0.288 0.0365-0.552 0.0978-0.79 0.184-0.236 0.0861-0.425 0.2104-0.567 0.3728-0.139 0.1591-0.209 0.3712-0.209 0.6364 0 0.3679 0.136 0.6463 0.408 0.8352 0.271 0.1856 0.618 0.2784 1.039 0.2784z" fill="#2a3343"/>
 <path id="path13" d="m194.29 57.493c-0.053-0.4706-0.272-0.8352-0.656-1.0938-0.385-0.2618-0.869-0.3927-1.452-0.3927-0.418 0-0.779 0.0663-1.084 0.1989-0.305 0.1292-0.542 0.3082-0.711 0.5369-0.165 0.2254-0.248 0.4822-0.248 0.7706 0 0.2419 0.056 0.4507 0.169 0.6264 0.116 0.1757 0.267 0.3232 0.452 0.4425 0.189 0.116 0.391 0.2138 0.607 0.2933 0.215 0.0762 0.422 0.1392 0.621 0.1889l0.995 0.2585c0.324 0.0796 0.657 0.1873 0.999 0.3232 0.341 0.1359 0.658 0.3149 0.949 0.5369 0.292 0.2221 0.527 0.4972 0.706 0.8253 0.183 0.3281 0.274 0.7209 0.274 1.1783 0 0.5767-0.149 1.0888-0.448 1.5362-0.295 0.4474-0.724 0.8004-1.287 1.059-0.56 0.2585-1.238 0.3877-2.034 0.3877-0.762 0-1.422-0.1209-1.978-0.3629-0.557-0.2419-0.993-0.585-1.308-1.0291-0.315-0.4475-0.489-0.9778-0.522-1.5909h1.541c0.03 0.3679 0.149 0.6745 0.358 0.9197 0.212 0.242 0.482 0.4226 0.811 0.5419 0.331 0.116 0.694 0.174 1.088 0.174 0.435 0 0.821-0.0679 1.159-0.2038 0.341-0.1392 0.61-0.3314 0.805-0.5767 0.196-0.2486 0.293-0.5386 0.293-0.87 0-0.3016-0.086-0.5486-0.258-0.7408-0.169-0.1922-0.399-0.3513-0.691-0.4773-0.288-0.1259-0.615-0.237-0.979-0.3331l-1.204-0.3281c-0.815-0.2221-1.461-0.5485-1.939-0.9794-0.474-0.4309-0.71-1.0009-0.71-1.7102 0-0.5867 0.159-1.0987 0.477-1.5362s0.749-0.7773 1.292-1.0192c0.544-0.2453 1.157-0.3679 1.84-0.3679 0.689 0 1.297 0.121 1.824 0.3629 0.531 0.242 0.948 0.5751 1.253 0.9993 0.305 0.4209 0.464 0.9048 0.478 1.4517z" fill="#2a3343"/>
 <path id="path14" d="m179.16 65.169c-0.484 0-0.921-0.0895-1.313-0.2685-0.391-0.1822-0.701-0.4457-0.929-0.7904-0.226-0.3447-0.338-0.7673-0.338-1.2678 0-0.4309 0.083-0.7855 0.248-1.0639 0.166-0.2784 0.39-0.4988 0.671-0.6612 0.282-0.1624 0.597-0.2851 0.945-0.3679 0.348-0.0829 0.703-0.1459 1.064-0.189 0.457-0.053 0.829-0.0961 1.114-0.1292 0.285-0.0365 0.492-0.0945 0.621-0.174 0.129-0.0796 0.194-0.2088 0.194-0.3878v-0.0348c0-0.4342-0.123-0.7706-0.368-1.0092-0.242-0.2387-0.603-0.358-1.084-0.358-0.5 0-0.895 0.111-1.183 0.3331-0.285 0.2188-0.482 0.4624-0.592 0.7308l-1.397-0.3182c0.166-0.464 0.408-0.8385 0.726-1.1235 0.322-0.2884 0.691-0.4972 1.109-0.6265 0.418-0.1325 0.857-0.1988 1.317-0.1988 0.305 0 0.628 0.0364 0.97 0.1094 0.345 0.0696 0.666 0.1988 0.964 0.3877 0.302 0.189 0.549 0.4591 0.741 0.8104 0.192 0.348 0.288 0.8004 0.288 1.3573v5.071h-1.451v-1.0441h-0.06c-0.096 0.1923-0.24 0.3812-0.432 0.5668-0.193 0.1856-0.44 0.3397-0.741 0.4624-0.302 0.1226-0.663 0.1839-1.084 0.1839zm0.323-1.1932c0.411 0 0.762-0.0812 1.054-0.2436 0.295-0.1624 0.519-0.3745 0.671-0.6363 0.156-0.2652 0.234-0.5486 0.234-0.8502v-0.9844c-0.053 0.0531-0.156 0.1028-0.308 0.1492-0.149 0.0431-0.32 0.0812-0.512 0.1143-0.193 0.0299-0.38 0.058-0.562 0.0846-0.182 0.0232-0.335 0.043-0.458 0.0596-0.288 0.0365-0.551 0.0978-0.79 0.184-0.235 0.0861-0.424 0.2104-0.567 0.3728-0.139 0.1591-0.209 0.3712-0.209 0.6364 0 0.3679 0.136 0.6463 0.408 0.8352 0.272 0.1856 0.618 0.2784 1.039 0.2784z" fill="#2a3343"/>
 <path id="path15" d="m170.06 60.466v4.5341h-1.487v-7.6364h1.427v1.2429h0.095c0.175-0.4043 0.451-0.7292 0.825-0.9744 0.378-0.2453 0.853-0.3679 1.427-0.3679 0.52 0 0.976 0.1094 1.367 0.3281 0.391 0.2154 0.694 0.5369 0.91 0.9645 0.215 0.4276 0.323 0.9562 0.323 1.5859v4.8573h-1.486v-4.6783c0-0.5535-0.145-0.986-0.433-1.2976-0.288-0.3148-0.684-0.4723-1.188-0.4723-0.345 0-0.652 0.0746-0.92 0.2237-0.265 0.1492-0.476 0.3679-0.631 0.6563-0.153 0.285-0.229 0.6297-0.229 1.0341z" fill="#2a3343"/>
 <path id="path16" d="m161.38 65v-7.6364h1.487v7.6364zm0.139-8.6556 1.164-2.2919h1.566l-1.542 2.2919z" fill="#2a3343"/>
 <path id="path17" d="m154.5 60.466v4.5341h-1.486v-7.6364h1.427v1.2429h0.094c0.176-0.4043 0.451-0.7292 0.825-0.9744 0.378-0.2453 0.854-0.3679 1.427-0.3679 0.521 0 0.976 0.1094 1.367 0.3281 0.392 0.2154 0.695 0.5369 0.91 0.9645 0.216 0.4276 0.323 0.9562 0.323 1.5859v4.8573h-1.486v-4.6783c0-0.5535-0.144-0.986-0.433-1.2976-0.288-0.3148-0.684-0.4723-1.188-0.4723-0.345 0-0.651 0.0746-0.92 0.2237-0.265 0.1492-0.475 0.3679-0.631 0.6563-0.152 0.285-0.229 0.6297-0.229 1.0341z" fill="#2a3343"/>
 <path id="path18" d="m148.09 65.154c-0.752 0-1.4-0.1607-1.944-0.4822-0.54-0.3248-0.957-0.7805-1.252-1.3672-0.292-0.59-0.438-1.281-0.438-2.0731 0-0.7822 0.146-1.4716 0.438-2.0682 0.295-0.5966 0.705-1.0623 1.232-1.397 0.531-0.3348 1.151-0.5022 1.86-0.5022 0.431 0 0.848 0.0713 1.253 0.2138 0.404 0.1425 0.767 0.3662 1.088 0.6712 0.322 0.3049 0.576 0.701 0.761 1.1882 0.186 0.4839 0.279 1.0722 0.279 1.7649v0.527h-6.071v-1.1137h4.614c0-0.3911-0.08-0.7374-0.239-1.039-0.159-0.3049-0.383-0.5452-0.671-0.7209-0.285-0.1757-0.62-0.2635-1.004-0.2635-0.418 0-0.782 0.1028-1.094 0.3082-0.308 0.2022-0.547 0.4674-0.716 0.7955-0.166 0.3248-0.248 0.6778-0.248 1.059v0.87c0 0.5104 0.089 0.9446 0.268 1.3025 0.182 0.358 0.436 0.6314 0.761 0.8203 0.324 0.1857 0.704 0.2785 1.138 0.2785 0.282 0 0.539-0.0398 0.771-0.1194 0.232-0.0828 0.432-0.2055 0.601-0.3679s0.299-0.3629 0.388-0.6015l1.407 0.2535c-0.113 0.4143-0.315 0.7773-0.606 1.0888-0.289 0.3082-0.652 0.5485-1.089 0.7209-0.434 0.169-0.93 0.2535-1.487 0.2535zm-1.183-10.888 1.024 1.3323 1.019-1.3323h1.348v0.0745l-1.75 2.108h-1.238l-1.745-2.108v-0.0745z" fill="#2a3343"/>
 <path id="path19" d="m132.43 65v-7.6364h1.427v1.2429h0.094c0.159-0.4209 0.42-0.749 0.781-0.9844 0.361-0.2386 0.794-0.3579 1.297-0.3579 0.511 0 0.938 0.1193 1.283 0.3579 0.348 0.2387 0.605 0.5668 0.771 0.9844h0.079c0.183-0.4077 0.473-0.7325 0.87-0.9744 0.398-0.2453 0.872-0.3679 1.422-0.3679 0.693 0 1.258 0.2171 1.695 0.6513 0.441 0.4341 0.662 1.0887 0.662 1.9637v5.1208h-1.487v-4.9816c0-0.517-0.141-0.8915-0.422-1.1235-0.282-0.232-0.619-0.348-1.01-0.348-0.484 0-0.86 0.1491-1.128 0.4474-0.269 0.295-0.403 0.6745-0.403 1.1385v4.8672h-1.481v-5.076c0-0.4143-0.13-0.7474-0.388-0.9993-0.259-0.2519-0.595-0.3778-1.009-0.3778-0.282 0-0.542 0.0745-0.781 0.2237-0.235 0.1458-0.426 0.3496-0.572 0.6115-0.142 0.2618-0.213 0.5651-0.213 0.9098v4.7081z" fill="#2a3343"/>
 <path id="path20" d="m123.8 65.154c-0.752 0-1.4-0.1608-1.944-0.4822-0.54-0.3249-0.957-0.7806-1.252-1.3672-0.292-0.59-0.438-1.281-0.438-2.0732 0-0.7822 0.146-1.4716 0.438-2.0682 0.295-0.5966 0.706-1.0622 1.233-1.397 0.53-0.3347 1.15-0.5021 1.859-0.5021 0.431 0 0.848 0.0712 1.253 0.2138 0.404 0.1425 0.767 0.3662 1.089 0.6711 0.321 0.3049 0.575 0.701 0.76 1.1882 0.186 0.4839 0.279 1.0722 0.279 1.765v0.5269h-6.071v-1.1136h4.614c0-0.3911-0.08-0.7374-0.239-1.0391-0.159-0.3049-0.383-0.5452-0.671-0.7208-0.285-0.1757-0.62-0.2635-1.004-0.2635-0.418 0-0.782 0.1027-1.094 0.3082-0.308 0.2022-0.547 0.4673-0.716 0.7955-0.165 0.3248-0.248 0.6778-0.248 1.0589v0.87c0 0.5105 0.089 0.9446 0.268 1.3026 0.182 0.3579 0.436 0.6314 0.761 0.8203 0.325 0.1856 0.704 0.2784 1.138 0.2784 0.282 0 0.539-0.0398 0.771-0.1193 0.232-0.0829 0.432-0.2055 0.601-0.3679s0.299-0.3629 0.388-0.6016l1.407 0.2536c-0.113 0.4143-0.315 0.7772-0.606 1.0888-0.289 0.3082-0.652 0.5485-1.089 0.7208-0.434 0.1691-0.93 0.2536-1.487 0.2536z" fill="#2a3343"/>
 <path id="path21" d="m118.72 59.228-1.348 0.2386c-0.056-0.1724-0.146-0.3364-0.268-0.4922-0.119-0.1558-0.282-0.2834-0.487-0.3828-0.206-0.0994-0.463-0.1492-0.771-0.1492-0.421 0-0.772 0.0945-1.054 0.2834-0.282 0.1856-0.423 0.4259-0.423 0.7209 0 0.2552 0.095 0.4607 0.284 0.6165s0.494 0.2834 0.915 0.3828l1.213 0.2784c0.702 0.1624 1.226 0.4127 1.571 0.7507 0.344 0.3381 0.517 0.7772 0.517 1.3175 0 0.4574-0.133 0.865-0.398 1.223-0.262 0.3546-0.628 0.6331-1.099 0.8352-0.467 0.2022-1.009 0.3033-1.625 0.3033-0.856 0-1.553-0.1823-2.093-0.5469-0.541-0.3679-0.872-0.8899-0.995-1.566l1.437-0.2188c0.09 0.3745 0.273 0.6579 0.552 0.8502 0.278 0.1889 0.641 0.2833 1.089 0.2833 0.487 0 0.876-0.101 1.168-0.3032 0.292-0.2055 0.437-0.4558 0.437-0.7507 0-0.2387-0.089-0.4392-0.268-0.6016-0.176-0.1624-0.446-0.285-0.81-0.3679l-1.293-0.2834c-0.713-0.1624-1.24-0.4209-1.581-0.7755-0.338-0.3547-0.507-0.8038-0.507-1.3473 0-0.4508 0.126-0.8452 0.378-1.1833s0.6-0.6015 1.044-0.7905c0.444-0.1922 0.953-0.2883 1.526-0.2883 0.825 0 1.475 0.179 1.949 0.5369 0.474 0.3547 0.787 0.8303 0.94 1.4269z" fill="#2a3343"/>
</svg>
