<svg xmlns="http://www.w3.org/2000/svg" width="6000" height="1750" viewBox="0 0 6000 1750">
  <path fill="#2a3343" d="M2850.6 202.3v142.6h181.3v-54.5a88.5 88.5 0 0 0-88.3-88.1zm1675.6 186.4a430 430 0 0 0-231 66.3Q4189 521.1 4189 702.8v645.6h88.3a88.7 88.7 0 0 0 88.2-88.2l.2-257a195 195 0 0 0 83.1 80.5c35.9 16.1 75 24 114.3 23.2a243 243 0 0 0 199.3-98.5q78-101.1 78-264.4 0-158.2-78-259.3a245 245 0 0 0-105-71.3 373 373 0 0 0-131.1-24.7m-1129.6.2a402 402 0 0 0-203.5 65q-92 59.4-92 235.9V1095h181.6V653.4q-.1-62.2 36.4-90.7a131 131 0 0 1 83.1-28.5 136 136 0 0 1 84.2 28.5q37.8 28.5 37.8 90.7V1095h178.6V653.4q0-62.2 37.7-90.7a139 139 0 0 1 168.6 0q37.7 28.5 37.7 90.7v353.4a84.4 84.4 0 0 0 88.2 88.2h90.9V690q0-181.5-96-241.2c-63-39.4-136-60.1-210.3-59.6a520 520 0 0 0-110.3 16.9c-34 8.7-65.5 25.1-92.1 48a245 245 0 0 0-103.8-51.9 528 528 0 0 0-116.8-13.3m1810 0q-148 0-231 96-79.7 93.4-79.7 259.3 0 174.2 83 267.1 83.1 96 231 95.9 122.6 0 202.4-59.6a283 283 0 0 0 109-166h-129.8a77 77 0 0 0-48 13 56 56 0 0 0-19.5 20.6l-14.2 14.2q-6.1 6.3-14.3 9.2c-23 12.6-49 19-75.3 18.2-45 0-77-15-101.2-41.6q-36.3-39.8-39-119.5h448.4q3.2-8.8 2.7-18.2V749q-.2-171-83.2-267-85.5-93-241.4-93m-2356 15.6V1095h181.3V492.6a88.7 88.7 0 0 0-88.3-88.1zm3112.9 0a513 513 0 0 0-136.2 18.7 322 322 0 0 0-115.6 57 282 282 0 0 0-81.8 110.3 426 426 0 0 0-29.7 169.9V1095h182.3V739q0-77.6 36.3-114t111.6-36.4h59.7v-184Zm-751.1 134.9c41.6 0 75.3 13.7 96 36.2q31.3 33.8 36.4 103.8H5080q2.6-67.4 39.4-103.8a127 127 0 0 1 93-36.2m-701.7 2.6a129 129 0 0 1 111.7 54.5q39 54.3 39 155.5 0 93.3-39.2 147.8a124 124 0 0 1-106.2 54.4 129 129 0 0 1-111.7-54.4q-39-49-39-147.8 0-106.3 36.5-155.5a126 126 0 0 1 109-54.5m-447 807.7-29.1 57.1h29.6l38.4-57zM3637 1355v1.9l43.5 52.6h30.8l43.6-52.6v-1.9h-33.6l-25.4 33.2-25.5-33.2zm2187.3 3.6q-9.6 0-16.6 6.6a21 21 0 0 0-6.8 15.6 21 21 0 0 0 6.8 15.7 24 24 0 0 0 16.6 6.4 23 23 0 0 0 16.5-6.4q6.9-6.6 6.9-15.7t-7-15.6q-6.8-6.6-16.4-6.6m-1025 6.8q-25.4 0-45.8 9.1a78 78 0 0 0-32.1 25.4q-12 16.4-12 38.3 0 26.5 17.8 42.6a117 117 0 0 0 48.3 24.4l30 8.2q13.6 3.5 24.3 8.3 10.9 4.6 17.3 11.8t6.4 18.5a34 34 0 0 1-7.3 21.7 48 48 0 0 1-20 14.4q-12.6 5-29 5-14.6 0-27-4.3-12.3-4.5-20.3-13.5a39 39 0 0 1-8.9-23h-38.4a74 74 0 0 0 13 39.7 76 76 0 0 0 32.6 25.7q20.8 9 49.3 9 29.8 0 50.7-9.6a74 74 0 0 0 32-26.4 67 67 0 0 0 11.2-38.3 59 59 0 0 0-24.4-50 100 100 0 0 0-23.6-13.3q-12.9-5-25-8l-24.7-6.5q-7.5-1.8-15.5-4.7t-15.1-7.3a38 38 0 0 1-11.3-11 28 28 0 0 1-4.2-15.6q0-10.8 6.2-19.2a42 42 0 0 1 17.7-13.4q11.4-5 27-5a63 63 0 0 1 36.2 9.8q14.4 9.6 16.3 27.2h37a63 63 0 0 0-12-36.1 77 77 0 0 0-31.2-24.9 108 108 0 0 0-45.4-9m333.4 3.4v253.7h37v-253.7zm478.8 0v253.7h37V1555l18.5-18.4 64.7 86h45.5l-82.2-108.7 77-81.7h-44.4l-75.8 80.6h-3.2v-144zm293.7 17.9v45.5h-27.9v29.8h27.9v112.3q0 17.2 7.8 28.6t20.4 16.9a65 65 0 0 0 27.3 5.2 73 73 0 0 0 24-4l-6.7-30.6-5.2 1q-3.3.6-7.8.6-6 0-11.2-1.8a17 17 0 0 1-8.4-7.3q-3.2-5.4-3.2-16.3V1462h39v-29.8h-39v-45.5zm-3009.1 43q-21.5 0-38 7.2a62 62 0 0 0-26 19.8 48 48 0 0 0-9.5 29.4q0 20.3 12.7 33.6 12.7 13.2 39.4 19.3l32.2 7a44 44 0 0 1 20.2 9.3q6.6 6 6.6 15 0 11-10.9 18.6t-29 7.6a47 47 0 0 1-27.2-7 34 34 0 0 1-13.7-21.3l-35.9 5.5a58 58 0 0 0 24.9 39 91 91 0 0 0 52 13.7q23.2 0 40.6-7.6a65 65 0 0 0 27.4-20.8q9.9-13.4 9.9-30.5a44 44 0 0 0-12.9-32.8 81 81 0 0 0-39.1-18.7l-30.2-7a57 57 0 0 1-22.9-9.5q-7-5.9-7-15.3 0-11.1 10.5-18a46 46 0 0 1 26.3-7q11.4 0 19.2 3.6a33 33 0 0 1 12.1 9.6q4.6 5.9 6.7 12.2l33.6-5.9a62 62 0 0 0-23.5-35.6q-17.7-13.4-48.5-13.4m196 0q-26.5 0-46.3 12.6a85 85 0 0 0-30.8 34.8q-11 22.3-10.9 51.5 0 29.6 11 51.7a82 82 0 0 0 31.1 34q20.3 12 48.5 12 20.8 0 37-6.3a74 74 0 0 0 27.2-18 64 64 0 0 0 15-27l-35-6.4a40 40 0 0 1-24.7 24.2 59 59 0 0 1-19.2 3 56 56 0 0 1-28.3-7 48 48 0 0 1-19-20.4 70 70 0 0 1-6.6-29.9h135.2v-13.1q0-26-7-44-6.8-18.2-18.9-29.6t-27.1-16.7a93 93 0 0 0-31.2-5.4m307.3 0q-18.9 0-32.3 9-13.5 8.8-19.5 24.5h-2.3v-31h-35.6v190.3h37v-117.3q0-12.8 5.4-22.7a41 41 0 0 1 14.2-15.2 36 36 0 0 1 19.4-5.6q15.6 0 25.2 9.4a33 33 0 0 1 9.7 25v126.4h36.9v-121.3q0-17.3 10-28.3 10-11.2 28.1-11.2 14.7 0 25.2 8.7t10.5 28v124.1h37V1495q0-32.6-16.5-48.9a57 57 0 0 0-42.2-16.3q-20.5 0-35.4 9.2a54 54 0 0 0-21.7 24.3h-2a52 52 0 0 0-19.2-24.5q-12.8-9-32-9m297.9 0a85 85 0 0 0-46.3 12.6 85 85 0 0 0-30.7 34.8q-11 22.3-11 51.5 0 29.7 11 51.7a82 82 0 0 0 31.2 34q20.2 12 48.4 12 20.8 0 37-6.3a74 74 0 0 0 27.2-18 64 64 0 0 0 15-27l-35-6.4a40 40 0 0 1-24.6 24.2 59 59 0 0 1-19.2 3 56 56 0 0 1-28.4-7 48 48 0 0 1-19-20.4 70 70 0 0 1-6.6-29.9h135.2v-13.1q0-26-7-44-6.8-18.2-18.9-29.6t-27.1-16.7a93 93 0 0 0-31.2-5.4m219.3 0q-21.5 0-35.6 9.2a55 55 0 0 0-20.5 24.3h-2.4v-31h-35.5v190.3h37v-113q0-15 5.7-25.7a40 40 0 0 1 15.7-16.4 46 46 0 0 1 23-5.5q18.8 0 29.6 11.7a46 46 0 0 1 10.7 32.4v116.5h37v-121a87 87 0 0 0-8-39.5 55 55 0 0 0-22.6-24q-14.7-8.3-34.1-8.3m387.7 0q-21.5 0-35.6 9.2a54 54 0 0 0-20.5 24.3h-2.4v-31h-35.6v190.3h37.1v-113a54 54 0 0 1 5.7-25.7 40 40 0 0 1 15.7-16.4 46 46 0 0 1 23-5.5 38 38 0 0 1 29.5 11.7 46 46 0 0 1 10.8 32.4v116.5h37v-121q0-23.6-8-39.5a55 55 0 0 0-22.6-24 69 69 0 0 0-34.1-8.3m189.8 0q-17.2 0-32.8 5a67 67 0 0 0-45.7 43.6l34.8 8a45 45 0 0 1 14.7-18.3 47 47 0 0 1 29.5-8.3q18 0 27 9 9.2 9 9.2 25v1q0 6.7-4.9 9.6-4.8 3-15.5 4.4l-27.7 3.2q-13.5 1.5-26.5 4.7-13 3-23.6 9.2-10.4 6-16.7 16.5-6 10.4-6.1 26.4 0 18.7 8.4 31.6a55 55 0 0 0 23.1 19.7 78 78 0 0 0 32.7 6.7q15.8 0 27-4.6 11.4-4.5 18.5-11.5a53 53 0 0 0 10.8-14.1h1.5v26h36.1v-126.3q0-20.9-7.1-33.8a53 53 0 0 0-18.5-20.2q-11.1-7.2-24-9.7a116 116 0 0 0-24.2-2.8m515.5 0q-17.2 0-32.8 5a67 67 0 0 0-45.7 43.6l34.8 8a44 44 0 0 1 44.2-26.6q18 0 27 9 9.2 9 9.2 25v1q0 6.7-4.8 9.6-4.9 3-15.5 4.4l-27.8 3.2q-13.5 1.5-26.5 4.7-13 3-23.5 9.2-10.5 6-16.7 16.5a51 51 0 0 0-6.2 26.4q0 18.7 8.4 31.6a55 55 0 0 0 23.2 19.7 78 78 0 0 0 32.7 6.7q15.7 0 27-4.6a57 57 0 0 0 29.2-25.6h1.5v26h36.1v-126.3q0-20.9-7.1-33.8a54 54 0 0 0-18.5-20.2 71 71 0 0 0-24-9.7q-12.9-2.7-24.2-2.8m289.6 0q-26.5 0-46.3 12.6a85 85 0 0 0-30.8 34.8q-10.9 22.3-10.9 51.5 0 29.6 11 51.7a82 82 0 0 0 31.2 34q20.3 12 48.4 12 20.8 0 37-6.3a73 73 0 0 0 27.1-18 64 64 0 0 0 15.2-27l-35.1-6.4a39 39 0 0 1-24.6 24.2 59 59 0 0 1-19.3 3 56 56 0 0 1-28.3-7 48 48 0 0 1-19-20.4 70 70 0 0 1-6.6-29.9h135.2v-13.1q0-26-7-44-6.8-18.2-18.9-29.6t-27-16.7a93 93 0 0 0-31.3-5.4m195.7 0a95 95 0 0 0-38 7.2 61 61 0 0 0-26 19.8 48 48 0 0 0-9.4 29.4q0 20.3 12.6 33.6 12.7 13.2 39.4 19.3l32.2 7q13.5 3.2 20.2 9.3 6.7 6 6.7 15 0 11-11 18.6-10.8 7.6-29 7.6a47 47 0 0 1-27.1-7 34 34 0 0 1-13.8-21.3l-35.8 5.5a58 58 0 0 0 24.7 39 92 92 0 0 0 52.2 13.7q23.2 0 40.5-7.6 17.7-7.6 27.4-20.8 10-13.4 10-30.5a44 44 0 0 0-13-32.8q-12.8-12.7-39.2-18.7l-30.2-7a57 57 0 0 1-22.7-9.5q-7.2-5.9-7.1-15.3 0-11.1 10.6-18a46 46 0 0 1 26.2-7 44 44 0 0 1 19.2 3.6 33 33 0 0 1 12.1 9.6q4.6 5.9 6.7 12.2l33.6-5.9a62 62 0 0 0-23.4-35.6q-17.7-13.4-48.6-13.4m-1463.9 2.5v190.3h37v-190.3zm1774.6 0v190.3h37v-190.3zm-2713.3 28.2q14.5 0 25 6.5a45 45 0 0 1 16.8 18q6 11.2 5.9 25.9h-98.8a57 57 0 0 1 6-23 52 52 0 0 1 17.8-19.8 48 48 0 0 1 27.3-7.6m605.2 0q14.4 0 25 6.5a45 45 0 0 1 16.8 18q6 11.2 6 25.9h-98.9q.7-12.3 6-23a52 52 0 0 1 17.9-19.8 48 48 0 0 1 27.2-7.6m1602 0q14.2 0 25 6.5a45 45 0 0 1 16.7 18q6 11.2 5.9 25.9h-98.8a57 57 0 0 1 6-23 52 52 0 0 1 17.9-19.8 48 48 0 0 1 27.2-7.6m-768.6 69v24.5a42 42 0 0 1-22.5 37q-10.9 6-26.3 6.1a45 45 0 0 1-26-7 24 24 0 0 1-10-20.8q0-9.8 5.1-15.8a34 34 0 0 1 14.2-9.3q9-3.2 19.6-4.6l11.5-1.5 14-2q7.1-1.4 12.7-3 5.7-1.6 7.7-3.6m515.5 0v24.5a41 41 0 0 1-5.8 21.2 43 43 0 0 1-16.7 15.8q-10.9 6-26.3 6.1a45 45 0 0 1-25.9-7 24 24 0 0 1-10.1-20.8q0-9.8 5.2-15.8t14-9.3 19.8-4.6l11.3-1.5 14-2q7.2-1.4 12.8-3t7.7-3.6"/>
  <path fill="#13cdf0" d="M1739.7 87.8a564 564 0 0 1 66.7 106.2c383.9 20 685.8 333.7 689.4 716.2 3.5 382.6-292.6 701.8-676 728.8a776 776 0 0 1-52.7 1.9c-352.4.8-654.2-250.7-715.4-596 16-45 24.1-92.4 24-140 .8-233.1-188.4-422.7-422.6-423.5S228.4 668.8 227.6 901.9v27.5h145.6v-26.6a277.4 277.4 0 0 1 279.5-274.6c153.3.8 277 125 276.6 277.5a277.4 277.4 0 0 1-278 276h-4.6l-28.4-1V1327h32.5c125 .2 243.6-54.6 323.9-149.8a832 832 0 0 0 851.8 567.7 835 835 0 0 0 571-284.4 828 828 0 0 0 190.2-394.3 821 821 0 0 0-13.6-358.3c-94.4-358.4-421-618.6-805.8-620Zm-433.9 103.5a246 246 0 0 0-238.6 175.4q23.7 17.8 45.2 37.5l4.1.7a189.6 189.6 0 0 1 218-155A189 189 0 0 1 1491 466.3a189.6 189.6 0 0 1-217 156.4h-1.6q13.3 28.5 23.9 58.6a246 246 0 0 0 251.5-216.9 245 245 0 0 0-242-273m542 365.6a564 564 0 0 1-445 435.6 370.5 370.5 0 0 0 386.3 292.7 370 370 0 0 0 346.2-338.9A369 369 0 0 0 1847.8 557"/>
  <path fill="#0ca8de" d="M1282.2 3.1A440 440 0 0 0 890.9 268q47.3 18 91.5 42.6a339 339 0 0 1 391.7-197.9A337.4 337.4 0 0 1 1633 466a338 338 0 0 1-309.1 310.6c7 30 10 78.3 11 99.6A438.4 438.4 0 0 0 1733 473c21-278.3-212.5-476.7-451-470M671 278.5c-215.7 0-361 81.3-452.6 163.5-223.8 202.5-290 560.8-87.1 838s591.4 341.9 873.9 145.5a631 631 0 0 1-66.7-130.1c-244.3 183-590.7 97.5-726.2-164.9-22.3-43.2-123-264.7 25.1-490.2a488 488 0 0 1 411-220.2A487.6 487.6 0 0 1 1134.2 908v8.8c0 338.2 268.3 616.1 608 629.5 339.5 13.5 629.1-242.4 656-579.6 27-337.2-218.5-635.4-556-675.4v.5a568 568 0 0 1 19.3 146v2.5a486 486 0 0 1 389.8 539.1c-33.2 254-258.8 438.6-515.5 422-256.7-16.5-456.4-228.6-456.4-481s-137-471.4-353.2-577.5c-81-39.8-168-61-255.2-64.4"/>
</svg>
