<svg xmlns="http://www.w3.org/2000/svg" width="5000" height="1860" viewBox="0 0 5000 1860">
  <path fill="#11a7c9" d="M356 5C251 5 170 83 170 188s81 182 186 182c104 0 185-78 185-182C541 82 460 5 356 5m2704 0c-105 0-185 78-185 183s80 182 185 182 186-78 186-182c0-106-81-183-186-183M356 110c45 0 77 33 77 78s-32 77-77 77-78-32-78-77 33-78 78-78m2704 0c45 0 77 33 77 78s-32 77-77 77-77-32-77-77 32-78 77-78M1094 476c-222 0-355 112-391 284-6 31-10 68-10 123v458h146V913c0-65 2-105 12-139 29-99 104-158 243-158s213 59 242 158c9 34 13 74 13 139v428h145V883c0-56-3-92-10-123-35-171-169-284-390-284m1293 8v428c0 65-3 106-13 139-29 99-103 159-242 159s-213-59-242-158c-9-34-13-74-13-139V485h-145v458c0 56 3 92 10 123 35 171 168 283 390 283 221 0 355-112 390-284 7-30 10-68 10-123V484Zm2181 0c-88 0-141 14-185 36a234 234 0 0 0-124 217c0 92 42 166 121 206 41 21 96 33 192 33h81c72 0 111 8 137 21 37 19 50 51 50 93q1 56-39 86c-25 17-68 29-143 29h-388v135h389c123 0 198-26 250-69 54-45 81-109 81-181 0-95-42-176-129-218-44-21-99-32-202-32h-87c-60 0-91-7-113-20q-50-27-50-90 0-57 38-84c25-18 59-26 112-26h396V484Zm-4140 1L10 677l55 123 225-102v643h144V485Zm2705 0-418 192 55 123 224-102v643h146V485Zm177 0v136h286v389c0 63 7 108 22 148 44 118 150 192 321 192q92 1 175-21l-33-136c-45 12-92 17-129 17q-154 0-194-104-19-48-18-130V621h335V485ZM122 1613q-43 0-70 29a99 99 0 0 0-27 71v42q0 44 27 72t71 28a94 94 0 0 0 98-100v-42q0-43-28-71a95 95 0 0 0-71-29m1083 0q-37 0-63 19a56 56 0 0 0-24 47q0 29 21 45 22 17 64 29 24 7 33 16 10 8 10 21 0 14-10 21-11 8-30 8-23 0-35-9-13-10-13-31h-46v1q-2 36 28 55 28 20 66 20 39 0 63-17 24-18 24-48 0-29-20-47-20-17-59-28-27-9-38-16-11-8-11-20 0-13 10-21 10-9 30-9 20 1 30 10 11 11 11 27h46v-1q1-30-24-51a94 94 0 0 0-63-21m242 0q-43 0-70 29a99 99 0 0 0-27 71v42q0 44 27 72t70 28a94 94 0 0 0 99-100v-42q0-43-28-71a95 95 0 0 0-71-29m751 0q-41 0-67 28a98 98 0 0 0-26 70v47q0 42 27 70 26 27 68 27 43 0 67-22 23-22 23-60l-1-1h-45q0 23-11 35-10 12-33 12-21 0-35-17-13-17-13-44v-47q0-27 13-44 12-17 33-17 24 0 35 12t11 36h46v-1q0-39-24-61a97 97 0 0 0-68-23m1221 0q-44 0-71 29a99 99 0 0 0-27 71v42q0 44 27 72 28 28 71 28a94 94 0 0 0 98-100v-42q0-43-27-71a95 95 0 0 0-71-29m916 0q-43 0-70 29a99 99 0 0 0-27 71v42q0 44 27 72t70 28a94 94 0 0 0 98-100v-42q0-43-27-71a95 95 0 0 0-71-29m496 0q-38 0-63 19a56 56 0 0 0-24 47q0 29 21 45 21 17 63 29 25 7 34 16 9 7 10 21 0 14-11 21-9 8-29 8-23 0-36-9-12-10-12-31h-46l-1 1q0 36 28 55 28 20 67 20t63-17 24-48q0-29-20-47-20-17-59-28-27-9-38-16-11-8-11-20 0-14 10-21 11-9 29-9 19 0 31 10 11 11 11 27h45l1-1q0-30-24-51a94 94 0 0 0-63-21m-4545 4v235h47v-86h46q41 1 64-20 24-21 23-54 0-34-23-55a92 92 0 0 0-64-20zm243 0v235h161v-36H576v-68h97v-36h-97v-59h114v-36zm218 0v235h47v-161h1l95 161h47v-235h-47v160h-1l-95-160zm861 0v156q0 39 26 61 26 21 68 21t68-21 26-61v-156h-47v156q0 23-12 34-13 12-35 12t-34-12-13-34v-156zm258 0v235h47v-94h45q17 0 27 10 9 9 9 27v16l2 23q2 12 8 18h49v-4q-6-4-9-16l-3-20v-17q0-22-9-36t-30-20q18-9 28-22 10-12 10-31 0-33-23-51a97 97 0 0 0-63-18zm485 0v235h161v-36h-114v-68h98v-36h-98v-59h114v-36zm331 0v235h47v-235zm875 0 80 235h48l80-235h-49l-52 173-2 12h-1l-3-13-51-172zm298 0-81 235h47l16-51h83l16 51h47l-80-235zm161 0v36h66v199h47v-199h67v-36zm482 0v235h47v-94h45q18 0 27 10 10 9 10 27v16l2 23q2 12 8 18h49v-4q-7-4-9-16l-3-20v-17q0-22-9-36t-30-20q19-9 28-22 9-12 9-31 0-33-22-51a97 97 0 0 0-63-18zm-1693 0v235h47v-161h1l94 161h47v-235h-47v160h-1l-94-160zm261 0v235h48v-161h1l94 161h47v-235h-47v160h-1l-94-160zm-2944 33q24 0 38 18 14 16 14 45v42q0 28-14 46-13 18-37 17-24 1-38-17-13-18-13-46v-42q0-29 13-45 13-18 37-18m1325 0q24 0 38 18 14 17 14 45v42q0 28-14 46t-38 17-37-17-13-46v-42q0-29 13-45 13-18 37-18m1972 0q24 0 38 18 13 17 13 45v42q0 28-13 46-14 17-38 17-24 1-37-17-14-18-14-46v-42q0-29 14-45 13-18 37-18m916 0q24 0 38 18 13 17 13 45v42q0 28-13 46-14 17-38 17-24 1-37-17-14-18-14-46v-42q0-29 14-45 13-18 37-18m-4002 3h46q21 0 30 11 10 12 10 28t-10 27-30 11h-46zm1580 0h41q19 0 29 10t10 25-10 25-30 8h-40zm2632 0h42q19 0 29 10 9 10 9 25 0 17-9 25-11 9-30 8h-41zm-667 19h1l29 92h-59z"/>
</svg>
