<svg xmlns="http://www.w3.org/2000/svg" xml:space="preserve" width="5000" height="1160" viewBox="0 0 5000 1160">
  <path fill="#00386b" d="M294 54A284 284 0 0 0 10 338v253c0 157 127 284 284 284h244c157 0 284-127 284-284V338c0-157-127-284-284-284zm3535 166v467h108V537l105 150h130l-145-176 142-176h-127l-105 141V220Zm-1474 28v87h-47v91h47v129q0 71 35 102 34 30 96 30h49v-93h-34q-20 0-29-8t-9-29V426h71v-91h-71v-87Zm-252 82q-51 0-92 22t-63 63-22 96 22 96 63 63q41 21 92 22 44 0 81-17 36-17 59-46 23-30 30-67h-114q-5 19-21 31t-40 12q-28 0-47-17-17-18-20-58h245l3-29q0-50-22-89-21-39-61-60-41-22-93-22m1212 0q-52 0-94 22t-66 63-23 96q0 56 23 96 24 40 66 63 42 21 94 22 52 0 94-22 41-23 65-63 24-41 24-96t-24-96-65-63-94-22m1188 0q-52 0-92 22t-63 63-23 96 23 96 63 63 92 22q68 0 114-38 46-37 58-103h-114q-4 23-21 35-16 13-40 13-28 0-46-23-19-22-19-65 0-44 19-65 18-23 46-23 25 0 40 13 16 12 21 35h114q-12-66-58-103-46-38-114-38m-2762 1q-41 0-71 18t-45 50v-64h-108v352h108V500q0-38 19-59t52-21 50 20q18 20 19 55v192h108V482q0-70-36-111-36-40-96-40m2042 0q-37 0-69 19-32 18-52 51v-66h-108v352h108V527q0-44 23-62 24-19 67-19h31zm928 4v89h149l-151 178v85h281v-90h-163l157-177v-85Zm-2150 0 90 352h121l64-236 64 236h121l90-352h-100l-47 254-68-254h-115l-66 254-46-254zm-458 81q29 0 48 17 14 12 17 34h-133q5-21 19-34 19-18 49-17m1212 8q31 0 52 22 21 23 21 65 0 43-21 64a68 68 0 0 1-52 22q-31 0-52-22-21-21-21-64 0-42 21-65 21-22 52-22m-267 476-69 41v21l69-38zm970 0-69 41v21l69-38zm-1210 9v21l45 27 45-27v-21l-45 28zm1768 5v107q-7-21-25-34t-44-13q-24 0-42 11-19 11-29 31-11 21-11 49t11 48a76 76 0 0 0 71 43q26 0 44-13t25-35v46h29V914Zm156 11v229h55V925Zm79 0v44h61v185h56V969h62v-44zm-2251 0v137q0 48 23 71 24 23 62 23 39 0 62-23t23-71V925h-29v137q0 34-15 50a52 52 0 0 1-40 16q-27 0-41-16-15-16-15-50V925Zm718 48q-21 0-39 12t-25 33q-7-22-24-33-16-12-39-12-22 0-39 11-16 12-23 32v-40h-29v178h29v-94q0-30 14-46 15-15 38-15 22 0 35 14t13 40v101h29v-94q0-30 15-46 13-15 37-15 23 0 35 14 13 14 13 40v101h29v-104q0-38-19-57a66 66 0 0 0-50-20m491 0q-23 0-40 12-18 12-24 33v-42h-30v178h30v-94q-1-31 14-46 15-16 39-16 23 0 37 14 13 15 13 41v101h30v-104q0-37-19-57a66 66 0 0 0-50-20m428 0q-24 0-40 10-17 11-26 29v-36h-30v178h30v-94q0-29 16-42 15-13 41-13h9zm-1342 1q-25 0-46 11-19 11-31 31-11 21-11 49t11 48 31 32q21 11 46 11 33 0 56-18 22-18 28-49h-32q-3 20-17 30-15 12-36 11-15 0-28-7t-21-22q-8-13-8-36 0-22 8-36 7-15 21-22 13-7 28-7 21 0 36 10 14 12 17 30h32q-6-30-28-48a87 87 0 0 0-56-18m616 0q-25 0-45 11-19 11-31 31-11 21-11 49 0 29 11 48 12 21 31 32 20 11 45 11 23 0 41-8a75 75 0 0 0 43-56h-31q-4 18-18 29-15 11-36 11-24 0-40-15-17-15-17-46h142l1-16q0-22-10-41-11-18-29-29-19-11-46-11m485 0q-24 0-42 11-19 11-29 31-11 22-11 49 0 29 11 48a76 76 0 0 0 71 43q26 0 44-13t25-35v46h29V976h-29v45q-7-21-25-34t-44-13m350 0q-25 0-46 11-20 11-31 32-12 20-12 48t12 48q11 21 31 32 21 11 46 11 26 0 46-11 21-11 32-32 11-19 11-48 0-28-11-48-11-21-32-32-20-11-46-11m-1326 2v178h29V976Zm491 22q16 0 29 6 12 6 20 20 7 14 7 33h-114q2-29 18-44t40-15m835 2q17 0 30 7 14 7 21 22 9 14 9 36 0 21-9 36-7 15-21 22-13 7-30 7-15 0-29-7-13-7-22-22-8-15-8-36 0-22 8-36 9-15 22-22 14-7 29-7m209 0q17 0 32 8 13 8 21 23t8 34-8 34-21 23-32 8q-27 0-43-17a67 67 0 0 1-17-48q0-30 17-48 16-17 43-17m-551 0q18 0 32 8t21 23 8 34-8 34-21 23-32 8q-27 0-43-17a67 67 0 0 1-17-48q0-30 17-48 16-17 43-17"/>
  <path fill="#ef6534" d="M416 4s-90 0-126 42c24 29 48 70 66 95 31-7 60-7 60-7s29 0 60 7c19-25 43-66 67-95C506 4 416 4 416 4m712 175q-29 0-46 16a53 53 0 0 0-18 40q0 24 18 41 17 16 46 16 30 0 47-16 18-17 18-41 0-25-18-40a67 67 0 0 0-47-16m-712 9s-22 0-49 5l-77 427 126 160 127-160-78-427c-27-5-49-5-49-5m861 60v87h-48v91h48v129q0 71 34 102 34 30 97 30h48v-93h-34q-20 0-29-8-8-8-8-29V426h71v-91h-71v-87Zm-203 87v352h108V335Zm3179 249q-22 0-37 15a52 52 0 0 0-16 39q0 23 16 39 16 15 37 15 23 0 38-15 15-16 15-39 0-24-15-39a52 52 0 0 0-38-15"/>
</svg>
