<svg xmlns="http://www.w3.org/2000/svg" fill="none" width="5000" height="1360" viewBox="0 0 5000 1360">
  <path fill="#6279f0" fill-rule="evenodd" d="M385 3H10l782 1354 187-323zm702 844 174-301L947 3H599ZM1574 3l-206 357L1162 3ZM381 997l208 360H173Zm1610 192q34-35 34-94V422h-143v650q0 35-31 35h-98v117h147q57 0 91-35M1881 185a95 95 0 0 0-28 71 95 95 0 0 0 101 99 98 98 0 0 0 101-99q0-44-30-71a98 98 0 0 0-71-28q-43 0-73 28m273 364q-36 67-36 154 0 88 37 158 36 71 102 110t151 39q72 0 123-23 53-24 80-52 29-29 54-66l-114-71q-50 87-143 87-60 1-99-38-39-37-44-94h409v-54q0-88-34-154t-96-102-143-37q-82 0-146 38-65 37-101 105m334 14q36 32 41 89h-263q6-57 41-89 33-32 93-32 55 0 88 32m210-141h141V245h143v177h154v118h-154v302q0 34 32 34h109v118h-159q-57 0-91-35-34-36-34-94V540h-141zm766 450-140-450h-154l194 572h211l194-572h-154l-140 450zm326-169q0-87 35-154 36-67 101-105t146-38 143 37q63 36 97 102t34 154v54h-410q5 57 44 94 41 39 99 38 95 0 143-87l115 71q-27 38-55 66-27 28-79 52-51 23-124 23-85 0-151-39t-102-110-36-158m411-51q-6-57-41-89t-89-32q-58 0-93 32-34 32-41 89zm238-103q-39 68-39 159t39 160q38 68 105 105t151 37 151-37 105-105q39-69 39-160 0-92-39-159-37-69-105-106-67-37-151-37t-151 37-105 106m146 288q-42-46-42-129 0-82 42-128 42-47 110-47t110 47q42 46 42 128 0 83-42 129t-110 46-110-46" clip-rule="evenodd"/>
</svg>
