<svg xmlns="http://www.w3.org/2000/svg" width="5000" height="1230" viewBox="0 0 5000 1230">
  <path fill="#424242" d="M957 4.4A86.7 86.7 0 0 0 870.3 91a87 87 0 0 0 66.3 84.3V204H549.3a18 18 0 0 0-18 17.9v7.5h-.3V273c-118 10-211.2 100.4-226.2 220.4h-219A75.7 75.7 0 0 0 10 569 75.7 75.7 0 0 0 83.3 645v396.9a95.6 95.6 0 0 0 95.9 95.9h744.5a95.6 95.6 0 0 0 95.9-96V644.4a76 76 0 0 0 65.8-75.2 75.7 75.7 0 0 0-75.9-75.8H798.2C783.5 372.7 691.3 282 572.7 272.8v-30.5h386.7a18 18 0 0 0 18-17.9V204h-.4v-28.6a87 87 0 0 0 66.7-84.4A86.7 86.7 0 0 0 957 4.4M4561.5 493q-4.4 0-10.2.6c-24.6 2.8-37.5 14.8-56.6 52.6-8.2 16.4-19.4 32.4-24.9 35.8-5.7 3.6-27.6 7.3-51.7 8.8-70.9 4.3-102 17-89.9 37 7.8 12.8 34.4 23.2 66.3 25.8 52.5 4.2 63.3 13.3 54.5 46-11.3 41.8-31.5 179.9-29.5 202.4 4.1 48.8 35.2 94.6 71 105.1 23.2 6.7 43.5 5 66.3-5.8 37.2-17.5 75.9-49.4 100-82.4l22.7-31.2 9.2 34.5c10.4 39.1 21.6 60.5 35 66.8 34.3 16.3 46.7 8.8 79.1-48.2 40-70 49-77.1 64.6-50.5 4.8 8.2 13.1 16 18.4 17.4 26.3 6.9 73.7-21 95.4-56.1 22.2-36-.5-40.2-37.1-7-37 33.4-47.2 29.1-55.5-23.4-7.2-45.6-12.1-59.5-22.1-62.7-22-7-40.9 16.8-44.7 56.4-3.8 38.9-36 99.8-47 88.8-2.5-2.5-9.7-22.2-16-43.7-14.2-49.4-27.3-75-48.7-95.5-27.6-26.6-52.9-31.5-63.2-12.2-3.3 6.2-2.1 15 4.4 33.5 8.6 24.5 8.6 25.5.7 34.3-4.4 5-20.3 27.1-35.3 49.3-45.2 66.7-78.9 95.2-87.1 73.7-2.8-7.2 0-21.9 29.8-158 20.9-95.3 24.2-106.1 34-110.2a262 262 0 0 1 42.8-6.2c58-5 78.4-19.8 70.6-50.9-3.6-14.3-35-28.5-62.9-28.5-32.5 0-40.6-8.3-45.3-46.3-3.2-25.5-5.9-32.5-16-41.1-7.4-6.4-12.4-8.9-21.1-9m-2518 9.6a21 21 0 0 0-7 1c-15.2 4.8-39.2 29-49.9 50-23.5 46.5-48.3 138-73.2 270.2-12 64-15 73.5-21.4 71.5-8.5-2.8-19.7 8.1-38 37.3-24.3 38.5-37.4 52.8-48.3 52.8-17.8 0-20-12-19.2-100.3 1-106.8-4.8-133.8-32.6-150.8-33.3-20.3-75-5.3-113.4 40.8-30.2 36.2-50.6 73.6-57.3 105-7.6 35.8-20 39.7-47.5 15-21.1-19.1-53.3-72.1-53.3-87.8 0-8.3 6.4-17.3 23.1-32.2 42-37.7 69.4-65.6 69.4-71 0-10.3-21.4-26.8-34.9-26.8-10.1 0-19.9 6.2-41.5 26.4-15.5 14.5-31.3 26.4-35.2 26.4-12.1 0-17-17.4-20.5-72.2-3.7-58.2-7.9-73.5-25.3-91.7-28.6-30-53-5.4-64.6 65.6-11.5 69.9-25.9 272.4-23.3 328.3 2.7 58.6 9.6 78.1 33.8 94.5 42 28.6 82.3 10.6 76-34-1.1-8.5-2.4-44.5-2.7-80.1-.6-69.9 3.8-86.5 16.3-62.3 18.8 36.3 81.7 81.6 122.1 87.8a78 78 0 0 1 29.7 11c15.5 12 55.5 19.8 69.3 13.5 20.2-9.2 37.2-6.2 57.2 10.2 31.2 25.6 57.3 30.7 89 17.5a144 144 0 0 0 56.7-52c8.8-16.6 12-12.2 6.4 8.8-2.5 9.4-6.7 35.3-9.4 57.8-11.5 95.3 20.8 168 83.6 188.1 24.5 7.8 50.6 5.6 65.8-5.6 14.9-11 38.6-50.4 46.7-77.7 7.5-25 8.4-88 1.8-116.6-2.6-11.4-2.8-21-.5-23.3 4-4 20.3-7 41-7.6a67 67 0 0 0 27.8-11.5l16.4-11 26.7 13.2c22 11 32.1 13.4 57 13.4 27 0 33-1.6 53.3-14.9 12.6-8.1 38-28.9 56.4-46l33.6-31.2-2.2 19.4c-2 17.3-.7 21 11.2 32.9 15 15 26 16.5 47.2 6.5 16.5-7.9 21.4-17.7 30.5-61.9 11.8-57.3 42.4-126.3 51.8-116.8 5.1 5-6 98.6-16.8 140.7-8.5 33.2-3.8 49.9 17.7 63 17.4 10.6 47.2 11 56.5.6 7.6-8.4 21.5-60 29.4-109 5.4-33.2 21.3-70.8 35.4-83.5 8.4-7.5 8.8-7.5 11.7 0 1.7 4.3.4 27.9-2.7 52.3-3.2 24.5-6.7 61.3-7.8 81.9-1.7 33-.8 38.7 7.3 49.1 5.1 6.5 18.1 15.2 29 19.3 33.1 12.7 49.2 1 88-63.8l17-28.3 9.8 31.7q16.6 54.6 45.3 66.6c11.8 4.9 15.6 4.1 36.5-7 13-7 41.9-31.3 65.4-54.9l42.1-42.2 5.2 22q10.5 44 51.1 63c29 13.4 70.4 14.4 94.2 2 21.8-11.2 58.6-42.5 92.3-78.3l27.5-29.3V910c0 39-6.4 55.1-37 92.7-34.5 42.4-53 73.4-66.5 111.5-8.4 23.6-11.2 38.2-9.3 48.3 15.7 82.7 132.2 71.1 165.2-16.4 11-29 29.8-114 37.5-168.8 3.4-24 9.3-48.6 13.1-54.5 6.4-9.7 49.2-33.8 52.3-29.4.7 1 7 16.7 14.3 34.8 11.1 28 15.6 34.3 30.6 42.8 30.7 17.3 68.3 10.3 68.3-12.7a189 189 0 0 0-9.2-35.5c-10-29.6-9.2-49.3 3.4-89.2 8.7-27.2 30.2-70.8 37.1-75.1 16.9-10.5 21.5 39.7 12.1 132.1-5.9 58.6-1.3 75.6 23.8 87.5 29.1 13.8 50.6 6.5 75.1-25.7l15.2-19.8 8.7 14.8c18.1 30.7 51.1 46.9 95.6 46.9 24.2 0 30.3-2 53.3-16.9a209 209 0 0 0 32.1-24.3c3.4-4 17.2-17 30.8-28.8l24.7-21.4.3 33.6c.7 89.4 18.8 124.3 68 130.8 16.2 2.2 21.9 1 32-7l12.3-9.7-3-71.3c-2.9-67.9-.4-112.8 6.2-112.5 1.7 0 9.8 10 18 22.3 24 35.2 71 68 109 76.3 28.4 6.1 71.5-15.2 81-40 5.3-14.2-2-31.3-16.2-37.8-10.2-4.6-14.6-3.6-37.2 8.9-14 7.8-29.7 14.2-34.8 14.2-14.5 0-49-35.7-67.3-69.6-20.3-37.6-18.9-43.7 17.3-73.7 48.3-40.1 58.7-51.5 58.7-64.3 0-14.2-14.1-25.7-31.7-25.7-11.4 0-24.2 9-58 40.7-14.8 13.9-26.8 15.6-31.5 4.4-1.7-4.2-4.6-31.5-6.3-60.5-2.3-38.7-5.5-58.3-12.2-73.4-16.6-37.2-44.5-44.2-62-15.7-12.8 20.6-21.5 72.2-29.4 175l-7 90.1-51.6 50.7c-30.6 30.1-59 54-70 58.9-17.5 7.8-19.2 7.9-30 .9-14.4-9.6-20.4-25.6-18.8-50.6l1.3-20 26.6-9c38.9-13.4 58-26.8 79.5-56 26.5-36 30.6-53 18.9-77.1-17-35.2-63.7-50.9-102.7-34.6-40.6 17-93.6 92.5-103.7 147.9-4.9 26.4-25.5 71.3-33.9 73.8-3.8 1.1-5.2-9.4-5.3-37.8-.1-78-23.7-140.8-59.3-157.7-13.6-6.5-15.9-6.4-31.5 1a218 218 0 0 0-42.9 33.5c-14.3 14-27.6 24.6-29.4 23.4-1.8-1-5.8-17.4-8.8-36.1-7-43.5-10.4-52-24.2-61-10.2-6.8-12-6.8-21.8-.5-18.3 12-30 51.4-30.3 102-.2 24.1 1.2 48.3 3 53.6 2.7 8.2.5 11.1-14.5 18.7-27.3 14-34.5 12.2-40-9.6-12.8-49.8-28.2-77.4-49.9-89-14.4-7.9-16-8-26.5-1-12.4 8-18.7 30.4-14.5 51.1 2.3 11.6-2.5 17.5-55.7 69.3-62.3 60.9-85.1 76-102.4 68.1-15.1-6.8-24.6-28.4-23-52.4l1.3-20.5 28.1-9.6c37-12.8 60.6-30 80.9-59 23.8-34 28.3-51.6 18.4-72.6-17-35.5-68.5-52.4-106-34.6-40.6 19.2-93.8 93.3-100.9 140.2-2.5 17-7 23.5-32.1 47.3-33.4 31.5-68.8 56.2-80.5 56.2-12 0-14.1-16.4-10.7-81.4 6-114.8 8.5-129 30.9-170.5 28.8-53.4 42.4-95.4 45.2-140.5 2.4-36.9 2.1-38.2-8.5-45.2-20.8-13.6-48.6 4.8-69.4 45.9-22.2 44-52.7 151.4-66.5 234.3-4.5 26.8-7.3 34.1-13 34.1-9.6 0-14 6.1-23.6 31.9-8.5 23.1-22.2 42.4-26.9 37.7-1.6-1.6-3.7-18.4-4.7-37.4q-6.3-129-71.3-129c-17.5 0-22 2.1-36.6 17.6a115 115 0 0 1-19 17.6c-1.3 0-6.5-8.1-11.6-18.2-25.2-49.2-55.8-51.2-95.5-6.1-9.7 11-19.3 19.8-21.4 19.7-2.1 0-7.8-6.4-12.7-14-11.4-18.3-28.2-27.6-42.9-23.9-14 3.5-14.8 6.3-20.8 64.5l-4.8 46.2-56 55.3c-74.4 73.5-96.1 83-115.6 51-8.3-13.5-11.2-39.3-6-53 1.5-3.8 14.1-10 28-14 14-3.8 35-14.4 47-23.3 24.4-18.4 52.6-57.5 56.6-78.5 5.9-31.5-24.4-66.4-61.3-70.6-35.2-4-48.7 1.4-82.1 33-49.3 46.5-69 89.2-72.4 156.8-2.8 55-14.5 73.2-47.2 73.2-10.8 0-18.5-5-36-23.1-44-45.7-63.2-102.8-57.1-170 2-23.5 7.2-38.3 26-75.4 34.4-67.7 52.6-137 44.6-169a25 25 0 0 0-22.6-18.8zm3 20.6c5.4 0 .7 55.2-7.6 89.2-6 25-36.5 102.1-36.9 93.5-.3-8 13-87.3 19.7-117.8 8-35.8 19-64.9 24.8-64.9m879.7 0c10.6 0-.7 81.9-17.6 128a439 439 0 0 1-17.1 42.1c-4.3 7.4-4.8 7-5-3.1-.3-35.6 30.9-167 39.7-167m331.5 119q-12-.2-22.6 6.7c-17.7 12.5-10.2 43 14.8 59.4 22.7 15 45 9.8 54.4-12.8 10.9-26.2-18.4-53.3-46.6-53.4zM551 667.4h.1a165 165 0 1 1-.1 0M3133.8 748q12.2-.5 12.3 26.7a73 73 0 0 1-26.1 53.6q-23.6 20-35.3 5.5c-7.9-9.5 5-45 24.5-67.8q15.2-17.6 24.6-18m-852.3 0q5.5.3 8.1 6.8c8.6 22.3-2 55.4-23.5 73.5q-23.4 20-35.3 5.5c-5.8-7-3.6-17.3 9.7-44.2 12.7-25.6 30.2-42.2 41-41.6m1542.4 0q8.4-.3 11.2 14.5a71 71 0 0 1-22.4 64.1c-14.7 13-23.8 15.7-36 10.7-13.2-5.3.5-45.2 25.1-73.3q13.7-15.6 22.1-16m-3316 1a10.7 10.7 0 0 0-10.4 10.7v145.8a10.7 10.7 0 0 0 16 9.3l126.3-73a10.7 10.7 0 0 0 0-18.4l-126.3-73a11 11 0 0 0-5.5-1.4zm1206.7 56c7 0 6.8 10-.8 60-6.2 41-14 61.6-29.2 76.7-8.5 8.5-22 11.3-27.6 5.6-7.7-7.6-2.3-44.7 10.5-71.9 16.9-36 39.9-70.4 47.1-70.4m2636.2 105.7c-14.9 0-38.3 21.2-38.3 34.6 0 13.3 9 30.7 17.1 32.9 16.7 4.4 24.3 2 38.4-12 25.6-25.7 16.4-55.5-17.2-55.5m-2365.2 27c1.4 0 3 2.1 6.3 6.3 16.4 21.4 32.4 64 37 99.2a173 173 0 0 1-2.2 72.1c-4 19.3-10.9 40.1-15.4 46.2-16.6 22.4-37.3 11.8-49.5-25.3-9.8-29.7 3.3-163 19-192.1 2.2-4.3 3.4-6.4 4.8-6.4zm1254 98.4-3.3 24.2c-4.9 36.7-18.6 77.3-31.3 92.3-18 21.3-27.1 24.6-33 11.8-3.8-8.4-3.2-15.7 2.5-33 8.5-25.6 35.3-68.3 53-84.3z" paint-order="fill markers stroke"/>
</svg>
