<svg xmlns="http://www.w3.org/2000/svg" fill="none" width="5000" height="5000" viewBox="0 0 5000 5000">
  <path fill="#4e4c82" fill-opacity=".5" d="M788 2500c0-1169 874-2134 2004-2277q-144-18-292-18a2295 2295 0 1 0 292 4572A2296 2296 0 0 1 788 2500"/>
  <path fill="#4e4c82" d="M2500 10c-665 0-1290 259-1761 729A2474 2474 0 0 0 10 2500c0 665 259 1290 729 1761a2474 2474 0 0 0 1761 729c665 0 1290-259 1761-729a2474 2474 0 0 0 729-1761c0-665-259-1290-729-1761A2474 2474 0 0 0 2500 10m0 389c1158 0 2101 943 2101 2101s-943 2101-2101 2101A2103 2103 0 0 1 399 2500c0-1158 943-2101 2101-2101m-807 1177c-108 0-195 87-195 195v1468a195 195 0 1 0 389 0v-436q56 73 139 122l739 440a488 488 0 0 0 737-416v-879c0-175-92-333-245-420a484 484 0 0 0-492 5l-739 439q-83 50-139 123v-446c0-108-87-195-194-195m1318 399c24-1 44 8 53 13 18 11 49 35 49 82v879c0 48-31 72-49 82-15 9-55 26-100-1l-740-439a92 92 0 0 1-46-81c0-20 6-57 46-82l740-439q26-15 47-14"/>
</svg>
