<svg xmlns="http://www.w3.org/2000/svg" xmlns:xlink="http://www.w3.org/1999/xlink" viewBox="0 0 5000 1170">
  <title>Combined Shape</title>
  <defs>
    <linearGradient id="a" x1="0" y1=".5" y2=".5">
      <stop offset="0" stop-color="#18c872"/>
      <stop offset="1" stop-color="#006dff"/>
    </linearGradient>
    <linearGradient xlink:href="#a" id="b" x1="14.5" x2="117.7" y1="119.7" y2="119.7" gradientTransform="matrix(48 0 0 11 -691 -771)" gradientUnits="userSpaceOnUse"/>
  </defs>
  <path fill="url(#b)" fill-rule="evenodd" d="M2951 249c103 0 171 71 171 177v141c0 106-68 177-171 177l-167 1v34q0 34 33 34h130c101 0 170 71 170 177v11c-3 101-71 169-171 169h-289v-141h273q30 0 32-30v-23q0-33-33-33h-135c-102 0-169-72-169-178V426c0-106 69-177 171-177zM4990 1v666c0 107-69 179-171 179h-155c-103 0-172-72-172-179V431c0-107 69-179 172-179h167V0zm-523 248v144h-118q-35 0-35 34v419h-171V429c0-108 74-180 185-180zm-946 224v136h-163q-33 0-33 36v22q2 31 32 31h164v148h-176c-101 0-169-71-173-177v-10c0-112 70-186 172-186zm352-224c102 0 171 73 171 180v417h-327c-100 0-167-68-171-172v-10c0-108 69-180 171-180h168v-57q0-34-33-34h-262V249Zm-1467 0c101 0 169 73 169 180v182h-342v57q0 35 32 35h257v143h-277c-101 0-168-72-168-180V429c0-107 67-180 168-180zM2027 1v845h-326c-103 0-172-72-172-179V431c0-107 69-179 172-179h167V0zm-744 248c102 0 171 72 171 180v417h-159V427q1-34-32-34h-115q-33 0-33 34v419H956V429c0-108 69-180 172-180zm-741 0v419q0 35 33 35h115q33 0 33-35V249h159v417c0 108-69 180-172 180H554c-102 0-170-72-170-180V249ZM182 1v668q0 34 36 34h116v143H197C85 846 10 774 10 667V1zm1686 394h-148q-32 0-32 34v240q0 34 32 34h148zm2963 0h-147q-33 0-33 34v240q0 34 33 34h121q26-3 26-34zm-946 222h-155q-33 0-33 34v22q2 30 32 30h156zm-954-227h-114q-33 0-33 34v179h147q33 0 33-33V424q0-34-33-34m-545 3h-121q-32 0-32 34v52h186v-52q0-34-33-34m1135-144v149h-324V249Z"/>
</svg>
