<svg xmlns="http://www.w3.org/2000/svg" width="5000" height="1300" viewBox="0 0 5000 1300">
  <path fill="#e4202a" d="M10 19v1266h323V19Zm954 0v840c0 179 38 293 114 354q102 78 403 83v-289c-125 0-159-19-167-22-8-8-27-27-27-126V19Zm745 0v829h4c0 110-23 129-27 133-3 4-38 23-167 23v292q302 0 403-91c76-65 110-182 110-361V19Zm483 0v1266h323V19Zm361 0v289h183c118 0 137 19 137 19s19 23 19 148c0 103-19 122-23 126-4 3-34 22-160 22h-163v289h220c175 0 289-30 354-91q96-90 95-346c7-179-23-293-92-357q-96-98-353-99zm1011 0-11 34-388 1167-23 69h343l11-35 15-45 152-468 111-334 129 395h-217l-87 266h387l65 190 11 34h339l-23-68-262-772h-145V338h107l-95-285-12-34ZM375 985v300h506V985Z"/>
  <path fill="#322f31" d="M4420 4q-127-1-168 38c-30 26-45 72-45 148 0 156 19 201 30 220q33 51 164 50c76 0 121-8 148-31 27-22 38-60 38-125v-38h-125l3 23v15c0 23-3 30-7 30 0 0-12 8-61 8s-61-8-61-8c0-3-7-22-7-121 0-72 7-84 7-88 0 0 12-7 65-7 42 0 53 7 53 7 0 1 4 6 4 31v34h125v-30c0-57-11-99-38-118q-34-39-125-38m213 4v110h182l-186 228-4 7v95h365V342h-198l190-232 4-7V8Z"/>
</svg>
