<?xml version="1.0" encoding="UTF-8"?>
<svg id="svg854" width="335.53" height="116.88" version="1.1" viewBox="0 0 335.53 116.88" xmlns="http://www.w3.org/2000/svg" xmlns:cc="http://creativecommons.org/ns#" xmlns:dc="http://purl.org/dc/elements/1.1/" xmlns:rdf="http://www.w3.org/1999/02/22-rdf-syntax-ns#">
 <metadata id="metadata858">
  <rdf:RDF>
   <cc:Work rdf:about="">
    <dc:format>image/svg+xml</dc:format>
    <dc:type rdf:resource="http://purl.org/dc/dcmitype/StillImage"/>
    <dc:title/>
   </cc:Work>
  </rdf:RDF>
 </metadata>
 <path id="path838" d="m281.73 60.931c1.7467 0 3.84-0.38 6.2813-1.144v7.424c-2.4867 1.112-5.54 1.668-9.1586 1.668-3.9907 0-6.896-1.008-8.7173-3.0253-1.8173-2.016-2.7293-5.0427-2.7293-9.076v-17.628h-4.776v-4.2187l5.496-3.336 2.8773-7.72h6.3786v7.784h10.236v7.4906h-10.236v17.628c0 1.4187 0.39733 2.4653 1.192 3.14 0.79466 0.676 1.8493 1.0133 3.156 1.0133m-24.573 7.2946h-9.9733v-21.357c0-2.6373-0.46933-4.6173-1.4093-5.9373-0.936-1.3187-2.4307-1.9773-4.4786-1.9773-2.7933 0-4.8107 0.932-6.052 2.796-1.2427 1.864-1.8627 4.9547-1.8627 9.272v17.204h-9.9786v-36.567h7.624l1.34 4.6773h0.55733c1.112-1.7653 2.6427-3.1013 4.596-4.0067 1.948-0.904 4.1693-1.3573 6.6546-1.3573 4.2506 0 7.476 1.1507 9.68 3.4507 2.2 2.3013 3.3027 5.62 3.3027 9.96zm-76.88-36.567h10.924l6.8973 20.573c0.58933 1.788 0.992 3.9027 1.2133 6.344h0.196a27.707 27.707 0 0 1 1.404-6.344l6.7693-20.573h10.696l-15.467 41.244c-1.42 3.8147-3.444 6.6706-6.072 8.568-2.6267 1.8973-5.6933 2.8453-9.2053 2.8453-1.72 0-3.412-0.18667-5.0666-0.55466v-7.916c1.196 0.28267 2.5067 0.424 3.924 0.424 1.7667 0 3.3093-0.53733 4.6266-1.6173 1.3173-1.0787 2.348-2.7093 3.0907-4.8907l0.58934-1.8zm-27.932 36.567v-47.817h10.139v39.443h19.396v8.3746z" fill="#565759" stroke-width="1.3333"/>
 <path id="path840" d="m59.602 12.104a48.931 48.931 0 0 1 6.9906-3.0747 39.636 39.636 0 0 1 8.164-1.9533 28.48 28.48 0 0 1 8.8213 0.22 22.307 22.307 0 0 1 4.26 1.3427 18.257 18.257 0 0 1 3.8 2.3227c1.1493 0.92 2.1707 2.068 3.0107 3.2707l0.35466 0.51466 0.17333 0.25733 0.132 0.24133 0.512 0.93866c0.15867 0.34667 0.31334 0.69333 0.46934 1.036 0.15733 0.34667 0.26666 0.72 0.39999 1.0747 0.492 1.4427 0.80934 2.9667 0.96934 4.536 0.14266 1.556 0.11466 3.1547-0.0187 4.7533-0.12933 1.5827-0.42267 3.1787-0.804 4.7573-0.36267 1.56-2.1947 6.7666-2.8533 8.58l0.728 3.1067 4.4333-0.86933c0.50267-1.2213 1.208-3.7667 1.6107-5.0493a42.567 42.567 0 0 0 1.3467-5.3853c0.332-1.852 0.54533-3.7307 0.57333-5.6133 0.04-1.9067-0.0773-3.8173-0.408-5.68a24.16 24.16 0 0 0-1.648-5.424c-0.20667-0.42533-0.38267-0.86266-0.61333-1.2667-0.23067-0.40666-0.46-0.812-0.69334-1.216-0.25999-0.404-0.54133-0.8-0.81466-1.1973l-0.208-0.292-0.2-0.23733-0.4-0.48c-1.216-1.4253-2.544-2.6187-4.0293-3.5733a20.848 20.848 0 0 0-4.6933-2.216 25.327 25.327 0 0 0-4.9267-0.968c-3.296-0.28-6.4947 0.034667-9.4813 0.67733-5.9733 1.3213-11.043 3.788-15.24 6.2933-0.24 0.148-0.46666 0.296-0.69733 0.44133 0.176 0.12267 0.352 0.25333 0.524 0.38667 0.15333-0.08267 0.30267-0.16933 0.45733-0.25333" fill="#515152" stroke-width="1.3333"/>
 <path id="path842" d="m35.791 85.4a5.0333 5.0333 0 0 1 4.444-5.504 4.9307 4.9307 0 0 1 5.4507 4.4187 5.0267 5.0267 0 0 1-4.444 5.4987 4.928 4.928 0 0 1-5.4507-4.4133m18.387 2c0.22667-0.96666 0.33066-1.9533 0.36533-2.94a15.279 15.279 0 0 0-0.30667-2.944 24.16 24.16 0 0 0 5.6213-4.6547c-0.63733-1.5573-1.4333-3.048-2.436-4.3907-2.588 0.26533-5.0307 0.95066-7.216 2.012-0.71066-0.684-1.5333-1.2533-2.384-1.752-0.85333-0.50133-1.7733-0.88-2.7133-1.1973a23.377 23.377 0 0 0-1.2093-7.1066c-1.6747-0.248-3.3733-0.23733-5.0533-0.076a21.427 21.427 0 0 0-1.9347 7.1866c-0.94666 0.32-1.8747 0.69866-2.7347 1.2027-0.86133 0.50533-1.6933 1.0667-2.4173 1.756-2.076-1.1507-4.3573-1.9707-6.8213-2.4667-1.0667 1.316-1.9333 2.7853-2.6467 4.32a21.027 21.027 0 0 0 5.296 5.1893c-0.22933 0.968-0.32533 1.9533-0.36 2.9453 0.01067 0.98266 0.09333 1.9693 0.30133 2.94a24.007 24.007 0 0 0-5.62 4.656c0.63466 1.5573 1.4347 3.0493 2.4387 4.392 2.5867-0.26667 5.0253-0.95467 7.2186-2.016 0.70933 0.68533 1.5267 1.252 2.38 1.7507 0.852 0.50266 1.7733 0.88399 2.7107 1.2 0.03067 2.3267 0.42533 4.7627 1.212 7.1053 1.6787 0.24667 3.372 0.23733 5.056 0.08a21.553 21.553 0 0 0 1.9307-7.192c0.944-0.312 1.876-0.69733 2.7387-1.1973 0.85733-0.504 1.692-1.072 2.4173-1.76 2.0747 1.1547 4.3547 1.9733 6.816 2.4707 1.0653-1.316 1.9333-2.788 2.6467-4.3253a20.96 20.96 0 0 0-5.296-5.188" fill="#ee991f" fill-rule="evenodd" stroke-width="1.3333"/>
 <path id="path844" d="m23.768 83.226a60.373 60.373 0 0 1-4.1307-2.0427 47.096 47.096 0 0 1-6.592-4.316c-2.112-1.6587-4.1307-3.5827-5.804-5.8-0.432-0.54-0.792-1.1333-1.1773-1.704-0.34533-0.592-0.70266-1.1867-0.98933-1.8053-0.592-1.232-1.0733-2.5227-1.3387-3.844a13.651 13.651 0 0 1-0.21333-3.968c0.04-0.364 0.06-0.792 0.14-1.0613 0.072-0.308 0.1-0.59466 0.19867-0.91733 0.09867-0.32 0.18-0.64133 0.28267-0.96l0.35867-0.93733c1.0707-2.48 2.8853-4.6947 5.1187-6.5866 0.80533-0.68 1.6627-1.316 2.564-1.92h-0.0027l1.5747-4.4213-3.7253-0.80533a34.864 34.864 0 0 0-3.924 3.4733c-2.4213 2.5067-4.3613 5.5067-5.38 8.8053l-0.328 1.248c-0.090667 0.41867-0.15333 0.84533-0.228 1.2627-0.076 0.41333-0.096 0.892-0.13867 1.328-0.053333 0.47733-0.026667 0.81066-0.029333 1.1973 0.012 1.72 0.28533 3.36 0.764 4.9373 0.48533 1.572 1.1973 3.0307 2.012 4.3733 0.4 0.67866 0.86666 1.3067 1.316 1.9293 0.484 0.6 0.94933 1.208 1.4707 1.752 2.024 2.2667 4.3307 4.0707 6.632 5.6387 3.8867 2.6 7.844 4.4387 11.573 5.8693-0.0067-0.13333-0.016-0.26667-0.01733-0.4 0.0013-0.11067 8e-3 -0.21467 0.01333-0.32533m78.006 9.1666c-0.75333-3.7107-1.9933-7.0093-3.3147-9.9133a4.6027 4.6027 0 0 1-0.28934 0.31067c0.51067 1.2653 0.98667 2.6 1.4067 4 0.54666 1.8067 0.98133 3.7333 1.2507 5.7333 0.27733 1.9973 0.32133 4.092 0.116 6.1827a21.22 21.22 0 0 1-0.60666 3.1107c-0.844 3.0507-2.14 5.9026-4.9147 7.704-1.88 1.22-4.1267 2.2747-6.3653 2.656-2.7533 0.47334-5.644 0.21734-8.3826-0.20266-2.8173-0.43734-5.7027-1.2587-8.624-2.304-1.4933-0.56533-3.012-1.1613-4.5067-1.8693a68.938 68.938 0 0 1-4.5987-2.312c-0.76-0.43467-1.5467-0.85733-2.3013-1.3293l-1.168-0.69467-1.1547-0.73333c-0.78666-0.48533-4.5787-2.776-4.96-3.0533l-4.5907 0.6-0.79733 3.4666c0.46 0.32667 1.84 1.436 2.3107 1.7427 0.924 0.61999 1.824 1.2507 2.7613 1.8227 1.804 1.1773 3.6733 2.212 5.528 3.1827 1.8293 0.93333 3.648 1.8 5.4867 2.5467 1.7907 0.74133 3.608 1.3453 5.388 1.904 3.472 1.024 6.9106 1.688 10.26 1.872a32.324 32.324 0 0 0 4.7733-0.0533c1.5267-0.13067 3.0173-0.37067 4.4533-0.76534 1.408-0.37333 2.7627-0.86799 4.0347-1.512a17.864 17.864 0 0 0 3.4507-2.28c0.25333-0.22666 0.51733-0.43333 0.75333-0.67333 0.24-0.24 0.47334-0.476 0.704-0.716 0.232-0.26 0.456-0.528 0.68-0.79066l0.16133-0.2 0.13334-0.18133 0.25733-0.36134a16.227 16.227 0 0 0 1.8627-3.3693c0.46933-1.164 0.80533-2.348 1.04-3.524 0.21333-1.1773 0.32266-2.344 0.36133-3.4867a29.703 29.703 0 0 0-0.59867-6.5093" fill="#515152" stroke-width="1.3333"/>
 <path id="path846" d="m86.603 69.11a6.4387 6.4387 0 1 1 0.63333-9.0826 6.44 6.44 0 0 1-0.63333 9.0826m15.917-2.7627c2.312-0.46133 4.4933-1.1387 6.7426-2.04-0.016-1.336-0.096-2.68-0.31867-3.9973-2.3507-0.69333-4.6986-1.124-7.0706-1.288-0.19866-0.86133-0.55333-1.68-0.86533-2.5067-0.36267-0.80133-0.74266-1.6053-1.1973-2.364a37.965 37.965 0 0 0 4.2493-5.6133c-0.79866-1.0693-1.648-2.1-2.6067-3.0347-2.276 0.78666-4.5 1.8907-6.4667 3.1067-0.688-0.556-1.436-1.0427-2.1787-1.5173-0.77733-0.42267-1.5373-0.88266-2.364-1.2 0.272-2.316 0.324-4.68 0.14267-7.0373-1.2667-0.44666-2.5893-0.69066-3.9-0.94933-1.392 2.0747-2.5227 4.12-3.4067 6.3427-0.88-0.04267-1.7667-0.04-2.6467 0.06-0.888 0.02533-1.7533 0.25333-2.6293 0.38267a39 39 0 0 0-4.0133-5.78c-1.2613 0.46666-2.528 0.92266-3.7093 1.5653 0.04933 2.4227 0.404 4.8427 0.96266 7.1133-0.76 0.452-1.408 1.0667-2.1187 1.5947-0.61866 0.63066-1.316 1.1853-1.8693 1.88-2.08-0.948-4.3667-1.776-6.6493-2.32a25.489 25.489 0 0 0-2.104 3.432 33.977 33.977 0 0 0 4.952 5.1827c-0.248 0.848-0.596 1.6733-0.74133 2.5493a16.923 16.923 0 0 0-0.42533 2.6133c-2.3173 0.45333-4.4933 1.1373-6.744 2.036 0.01333 1.336 0.09333 2.6787 0.32 4a32.469 32.469 0 0 0 7.0666 1.284c0.20133 0.864 0.55066 1.68 0.864 2.5067 0.36533 0.80266 0.744 1.6107 1.2 2.3627a38.32 38.32 0 0 0-4.2533 5.6133c0.80533 1.072 1.6507 2.1053 2.608 3.0427a33.419 33.419 0 0 0 6.4706-3.1107c0.688 0.55866 1.4333 1.044 2.1747 1.5147 0.776 0.42266 1.5373 0.88533 2.364 1.2a36.6 36.6 0 0 0-0.14 7.04c1.2667 0.448 2.5867 0.692 3.8987 0.95333 1.388-2.08 2.5213-4.1253 3.404-6.3467a17.077 17.077 0 0 0 2.6507-0.06c0.884-0.024 1.748-0.25467 2.6267-0.38667a39.125 39.125 0 0 0 4.016 5.7853c1.2573-0.468 2.5253-0.92533 3.708-1.5653a32.459 32.459 0 0 0-0.96533-7.1173c0.76-0.44933 1.408-1.0627 2.1173-1.5907 0.624-0.63066 1.32-1.188 1.8707-1.88 2.0813 0.94533 4.3667 1.7733 6.6493 2.3227a26.168 26.168 0 0 0 2.1067-3.4347 33.872 33.872 0 0 0-4.952-5.184c0.248-0.85066 0.59333-1.676 0.744-2.548 0.21333-0.86133 0.34133-1.7333 0.42667-2.6133" fill="#7fc52c" fill-rule="evenodd" stroke-width="1.3333"/>
 <path id="path848" d="m40.154 37.513a7.7933 7.7933 0 0 1-9.396-5.764 7.796 7.796 0 1 1 9.396 5.7627m20.811 1.1547c0.24-0.78666 0.532-1.5547 0.71866-2.352 0.156-0.808 0.38667-1.5973 0.47867-2.4133a45.747 45.747 0 0 0 6.1773-1.4253c0.03867-1.1627 0.084-2.3373 0.03333-3.5a40.731 40.731 0 0 0-6.16-1.912l-0.45333-2.4253-0.69333-2.3627a45.324 45.324 0 0 0 4.7827-4.1227c-0.42-1.0907-1.04-2.0893-1.5707-3.1293a40.011 40.011 0 0 0-6.352 1.18c-0.45333-0.68533-1.0187-1.2893-1.5213-1.9333-0.52933-0.62933-1.1373-1.1827-1.704-1.7733a45.051 45.051 0 0 0 2.3147-5.896c-0.86933-0.77733-1.8827-1.364-2.832-2.0333a40.036 40.036 0 0 0-5.0667 4.0093c-0.72133-0.39067-1.4947-0.67333-2.24-1.012-0.76-0.3-1.5533-0.51733-2.328-0.77733a44.804 44.804 0 0 0-0.672-6.304c-1.1333-0.28-2.3067-0.332-3.456-0.484a39.831 39.831 0 0 0-2.628 5.9213c-0.82133-0.024-1.632 0.10933-2.4467 0.156-0.816 0.064-1.6107 0.27467-2.4147 0.40667-1.0467-1.872-2.2-3.56-3.5147-5.2773-1.124 0.29333-2.2 0.73466-3.272 1.1827-0.064 2.156 0.104 4.3733 0.40933 6.4707-0.73733 0.36-1.4173 0.81866-2.0947 1.276-0.69866 0.42933-1.316 0.96666-1.9507 1.484a41.527 41.527 0 0 0-5.564-3.036 23.552 23.552 0 0 0-2.3387 2.5787 37.876 37.876 0 0 0 3.368 5.5427c-0.488 0.66133-0.87333 1.3827-1.2613 2.1067-0.42667 0.70266-0.71733 1.4693-1.0453 2.2227-2.1067-0.2-4.1933-0.22533-6.3253-0.10667-0.38667 1.1-0.65066 2.236-0.88 3.38a37.733 37.733 0 0 0 5.54 3.3493c-0.124 0.81066-0.12933 1.632-0.136 2.4547-0.04533 0.824 0.04 1.6413 0.11333 2.4573a42.113 42.113 0 0 0-5.6413 2.864c0.19333 1.1507 0.43067 2.2853 0.78933 3.396a37.083 37.083 0 0 0 6.444 0.38666c0.30533 0.76 0.59733 1.5293 1.012 2.24 0.37733 0.73333 0.75466 1.4587 1.232 2.128-1.3093 1.6-2.6013 3.3773-3.672 5.18 0.73866 0.90133 1.44 1.84 2.284 2.6413 2.0707-0.74666 3.9973-1.6 5.8733-2.6707 0.63333 0.52 1.2427 1.0747 1.94 1.508 0.67066 0.46667 1.3427 0.94 2.0747 1.308-0.42133 2.032-0.74133 4.2-0.85866 6.3027 1.0667 0.46266 2.12 0.95466 3.2387 1.28a37.543 37.543 0 0 0 3.9693-5.1053c0.8 0.17467 1.5933 0.37467 2.4093 0.44133 0.81333 0.09867 1.6253 0.204 2.4453 0.18667a43.444 43.444 0 0 0 2.1653 5.9867c1.156-0.112 2.328-0.136 3.4587-0.38133 0.552-2.16 0.952-4.2107 1.1387-6.3733 0.776-0.248 1.58-0.41733 2.3373-0.736 0.75066-0.32533 1.532-0.57333 2.2507-0.96666a46.087 46.087 0 0 0 4.6867 4.3067c0.97333-0.63066 1.9627-1.2533 2.888-1.9587a41.027 41.027 0 0 0-1.94-6.18c0.57067-0.584 1.1773-1.1373 1.72-1.7507 0.512-0.63733 1.0733-1.2373 1.5387-1.9133a45.985 45.985 0 0 0 6.132 1.628c0.568-1.0107 1.16-2.02 1.6467-3.076-1.4533-1.6867-2.948-3.2027-4.5773-4.5733" fill="#e23937" fill-rule="evenodd" stroke-width="1.3333"/>
 <path id="path850" d="m335.53 94.262c0 1.8827-0.68133 3.3507-2.048 4.4053-1.3667 1.0533-3.2187 1.58-5.56 1.58-2.536 0-4.4893-0.328-5.8533-0.98133v-2.4a15.557 15.557 0 0 0 2.8667 0.88c1.0333 0.21334 2.0613 0.32 3.072 0.32 1.66 0 2.9093-0.316 3.7467-0.94266 0.84-0.63067 1.2587-1.5053 1.2587-2.6267 0-0.744-0.14666-1.3493-0.448-1.8213-0.29333-0.47467-0.79333-0.912-1.4893-1.3107-0.69867-0.4-1.76-0.85333-3.184-1.3587-1.9907-0.71466-3.4133-1.5573-4.2666-2.5333-0.85333-0.976-1.276-2.248-1.276-3.8187 0-1.648 0.61333-2.96 1.8533-3.936 1.2427-0.97733 2.8787-1.464 4.9173-1.464 2.128 0 4.084 0.39067 5.8706 1.1707l-0.77733 2.1667c-1.7653-0.74266-3.4813-1.112-5.152-1.112-1.3147 0-2.344 0.28133-3.084 0.848-0.744 0.56666-1.112 1.3507-1.112 2.3547 0 0.74133 0.13334 1.3493 0.40934 1.824 0.272 0.472 0.73199 0.90666 1.3813 1.3 0.65066 0.39733 1.64 0.832 2.9773 1.312 2.2453 0.8 3.7867 1.656 4.6307 2.5733 0.84399 0.92 1.2667 2.1067 1.2667 3.5707m-16.935 5.6933h-11.927v-21.392h11.927v2.208h-9.4373v6.8933h8.8653v2.1947h-8.8666v7.872h9.4386zm-16.68-18.333c-1.6187-0.76266-3.2373-1.1427-4.8587-1.1427-2.3507 0-4.2066 0.78133-5.5653 2.3467-1.3613 1.568-2.044 3.7107-2.044 6.432 0 2.8 0.66 4.9627 1.9693 6.4893 1.312 1.5267 3.1827 2.2893 5.6133 2.2893 1.4893 0 3.1947-0.26667 5.104-0.804v2.1787c-1.4827 0.556-3.3106 0.836-5.4853 0.836-3.152 0-5.5826-0.95733-7.2933-2.8667-1.7147-1.9147-2.5693-4.6307-2.5693-8.152 0-2.2053 0.41067-4.1373 1.2373-5.7947 0.82133-1.6573 2.0133-2.936 3.5693-3.8333 1.556-0.89733 3.3867-1.3467 5.496-1.3467 2.24 0 4.2027 0.41067 5.88 1.2293zm-22.261-3.0587h2.4853v21.392h-2.4853zm-5.9333 0h2.6787l-7.7106 21.392h-2.4587l-7.668-21.392h2.636l4.9146 13.84a39.496 39.496 0 0 1 1.3467 4.64 38.813 38.813 0 0 1 1.3733-4.7267zm-28.301 10.36h3.408c1.7547 0 3.0427-0.35067 3.8627-1.048 0.81866-0.69733 1.2293-1.744 1.2293-3.1387 0-1.4133-0.41733-2.4347-1.2507-3.0587-0.83333-0.624-2.1707-0.936-4.0173-0.936h-3.232zm0 2.1347v8.8973h-2.4867v-21.392h5.8666c2.624 0 4.56 0.5 5.8133 1.504 1.2533 1.0067 1.8853 2.52 1.8853 4.5373 0 2.828-1.4373 4.74-4.304 5.736l5.808 9.6146h-2.9413l-5.18-8.8973zm-6.78 8.8973h-11.925v-21.392h11.925v2.208h-9.44v6.8933h8.8666v2.1947h-8.8666v7.872h9.44zm-15.961-5.6933c0 1.8827-0.68133 3.3507-2.048 4.4053-1.3667 1.0533-3.2187 1.58-5.5613 1.58-2.536 0-4.484-0.328-5.8506-0.98133v-2.4a15.621 15.621 0 0 0 2.8667 0.88 15.16 15.16 0 0 0 3.076 0.32c1.656 0 2.9053-0.316 3.744-0.94266 0.83733-0.63067 1.2587-1.5053 1.2587-2.6267 0-0.744-0.15066-1.3493-0.444-1.8213-0.30133-0.47467-0.79733-0.912-1.496-1.3107-0.69867-0.4-1.76-0.85333-3.18-1.3587-1.9907-0.71466-3.4133-1.5573-4.2667-2.5333-0.85333-0.976-1.28-2.248-1.28-3.8187 0-1.648 0.61867-2.96 1.8573-3.936 1.2373-0.97733 2.876-1.464 4.9187-1.464 2.1227 0 4.0786 0.39067 5.8653 1.1707l-0.77466 2.1667c-1.7653-0.74266-3.484-1.112-5.1493-1.112-1.32 0-2.3493 0.28133-3.0893 0.848-0.74266 0.56666-1.112 1.3507-1.112 2.3547 0 0.74133 0.13333 1.3493 0.40933 1.824 0.27333 0.472 0.73333 0.90666 1.3813 1.3 0.64933 0.39733 1.6427 0.832 2.976 1.312 2.2467 0.8 3.7893 1.656 4.636 2.5733 0.844 0.92 1.2627 2.1067 1.2627 3.5707" fill="#828383" stroke-width="1.3333"/>
</svg>
