<svg xmlns="http://www.w3.org/2000/svg" viewBox="0 0 5000 1740">
  <path fill="#a9a8a6" d="M4191 907q39 0 94-17v110q-56 25-136 25-89 0-130-45-40-45-40-135V584h-71v-63l82-49 42-115h95v116h152v111h-152v261q0 32 18 47 17 15 46 15m-364 108h-148V698q0-58-21-88-21-29-67-29-62 0-89 41-28 42-28 138v255h-148V473h113l20 69h8q25-39 68-60 44-20 99-20 94 0 144 52 49 51 49 147zM2686 473h162l102 305q14 40 18 94h3a411 411 0 0 1 21-94l100-305h159l-229 612q-31 85-90 127t-137 42q-39 0-75-8v-118q26 7 58 7 39 0 69-24 28-24 45-73l9-27zm-415 542V306h151v585h287v124z"/>
  <path fill="#a9a8a6" d="M1221 69q-54 0-104 11c-89 20-164 57-227 94l-10 6 8 6 7-4a726 726 0 0 1 103-45 588 588 0 0 1 122-29 423 423 0 0 1 130 3 331 331 0 0 1 64 20 271 271 0 0 1 56 34q25 22 45 49l5 7 3 4 2 4 7 14 7 15 6 16a304 304 0 0 1 14 138q-3 35-12 71c-5 23-32 100-42 127l11 46 66-13c7-18 17-56 23-75a632 632 0 0 0 20-80 516 516 0 0 0 3-167 359 359 0 0 0-25-81q-4-10-9-19l-10-18-12-17-3-5-3-3-6-7q-27-32-60-53a309 309 0 0 0-70-33 376 376 0 0 0-73-15zM159 628a517 517 0 0 0-58 52q-56 56-80 130l-5 19-3 19q-2 10-3 19v18a257 257 0 0 0 41 138l20 29 22 26q46 49 98 84 88 56 172 87v-11l-62-30a699 699 0 0 1-97-64q-49-37-87-87l-17-25-15-27q-13-27-20-57a203 203 0 0 1-3-59l2-15 3-14 5-14 5-14q25-56 76-98 18-15 38-28l23-66zm1312 599-4 4a683 683 0 0 1 39 145q7 45 2 92l-9 46c-12 45-32 87-73 114-28 18-61 34-94 40-41 7-84 3-125-3a704 704 0 0 1-195-62l-68-35-34-19-17-11-17-11-74-45-68 9-12 51c7 5 27 22 34 26q21 15 41 27a985 985 0 0 0 244 114q77 23 152 27a480 480 0 0 0 71 0 367 367 0 0 0 126-34 265 265 0 0 0 51-34l11-10 11-11 10-11 2-3 2-3 4-5a241 241 0 0 0 28-50 293 293 0 0 0 20-104 441 441 0 0 0-8-97q-19-82-50-147"/>
  <path fill="#ee991f" fill-rule="evenodd" d="M541 1270a75 75 0 0 1 66-82 73 73 0 0 1 81 66 75 75 0 0 1-66 82 73 73 0 0 1-81-66m273 30q4-22 6-44a227 227 0 0 0-5-43 359 359 0 0 0 83-70q-13-35-36-65-57 6-107 30a187 187 0 0 0-75-44 347 347 0 0 0-18-105q-37-6-75-1a318 318 0 0 0-29 106 218 218 0 0 0-77 44q-45-26-101-36-24 29-39 64a312 312 0 0 0 78 77q-4 21-5 44 0 22 5 43a356 356 0 0 0-84 69q14 35 36 65 58-5 108-29 15 15 35 26 19 11 40 17 1 53 18 106 38 4 75 1a320 320 0 0 0 29-107 216 216 0 0 0 76-44q47 27 101 37 24-29 40-64a311 311 0 0 0-79-77"/>
  <path fill="#7fc52c" fill-rule="evenodd" d="M1295 1028a96 96 0 1 1 10-134 96 96 0 0 1-10 134m237-41q50-10 100-30-1-30-5-59-53-16-105-19-5-19-13-38l-18-35a563 563 0 0 0 63-83q-17-24-38-45-52 19-96 46-15-12-33-22-16-11-35-18 6-53 3-105-29-9-58-14-31 46-51 94l-39 1-39 6a579 579 0 0 0-60-86q-28 10-55 23 2 54 14 106-16 11-31 24t-28 28q-48-23-98-35a378 378 0 0 0-32 51 504 504 0 0 0 74 77q-7 19-11 38l-7 39q-50 9-100 30 1 30 5 59a482 482 0 0 0 105 19q5 19 13 37l18 36a569 569 0 0 0-63 83q17 24 38 45a496 496 0 0 0 96-46q16 12 33 22 16 11 35 18a543 543 0 0 0-2 105q28 8 57 14 31-45 51-94l39-1 39-6a581 581 0 0 0 60 86q28-10 55-23a482 482 0 0 0-14-106q15-11 31-24 15-12 28-28 48 22 98 35a388 388 0 0 0 32-51 503 503 0 0 0-74-77q7-19 11-38z"/>
  <path fill="#e23937" fill-rule="evenodd" d="M606 559a116 116 0 0 1-139-85 116 116 0 1 1 139 85m309 18 11-35 7-36a679 679 0 0 0 91-21q2-27 1-52a605 605 0 0 0-92-29l-6-36-11-35a673 673 0 0 0 71-61q-10-24-23-46a594 594 0 0 0-94 17l-23-29-25-26a669 669 0 0 0 34-87q-20-17-42-31a594 594 0 0 0-75 60l-33-15-35-12a665 665 0 0 0-10-93q-25-5-51-7a591 591 0 0 0-39 88q-18 0-36 2l-36 6q-24-41-52-78-25 6-49 17-1 49 6 96-16 8-31 19-15 9-29 22a616 616 0 0 0-82-45l-35 38a562 562 0 0 0 50 83q-10 14-19 31-9 16-15 33-48-5-94-2-9 25-13 50a560 560 0 0 0 82 50q-2 18-2 37-1 18 1 36a625 625 0 0 0-83 43q4 25 11 50a550 550 0 0 0 96 6l15 33q8 17 18 32-29 36-54 76 16 21 34 40 46-16 87-40 13 13 29 22l31 20q-10 46-13 93 23 11 48 19a557 557 0 0 0 59-75q17 4 36 6l36 3a645 645 0 0 0 32 89q26-2 51-6 13-47 17-95l35-10q17-7 33-15a684 684 0 0 0 70 64l43-29a609 609 0 0 0-29-92l26-26 22-28a683 683 0 0 0 91 24q14-22 25-46-33-37-68-67"/>
  <path fill="#a9a8a6" d="M4990 1402q0 41-30 65-31 24-83 24-57 0-87-15v-36a231 231 0 0 0 43 13q22 5 45 5 38 0 56-14 19-14 19-39 0-16-7-27-7-10-22-19t-47-20q-45-17-64-38a83 83 0 0 1-19-57q0-36 28-58t73-22q47 0 87 17l-12 33q-39-17-76-17-30 0-46 13-16 12-16 35 0 17 6 27t20 19 44 19q51 18 69 39 19 20 19 53m-251 84h-177v-317h177v32h-140v103h131v32h-131v117h140zm-248-272q-36-17-72-17-52 0-83 35-30 35-30 95 0 63 29 97t84 34q33 0 75-12v32q-33 12-81 13-70 0-108-43-38-42-38-121 0-49 18-86t53-57 81-20q51 0 88 18zm-330-45h37v317h-37zm-88 0h39l-114 317h-37l-113-317h39l73 205a586 586 0 0 1 20 69 576 576 0 0 1 20-70zm-420 153h50q39 0 57-15 19-15 19-47 0-31-19-45-18-14-59-14h-48zm0 32v132h-37v-317h87q58 0 86 22t28 67q0 64-64 85l86 143h-43l-77-132zm-101 132h-177v-317h177v32h-140v103h131v32h-131v117h140zm-237-84q0 41-30 65-31 24-83 24-56 0-87-15v-36a232 232 0 0 0 43 13 225 225 0 0 0 45 5q38 0 56-14 18-13 19-39 0-16-7-27-6-10-22-19-15-9-47-20-45-17-64-38a83 83 0 0 1-19-57q1-36 28-58t73-22 87 17l-11 33q-40-17-77-17-29 0-46 13-16 12-16 35 0 17 6 27t20 19 44 19q51 18 69 39 19 20 19 53"/>
</svg>
