<svg xmlns="http://www.w3.org/2000/svg" viewBox="0 0 5000 910"><path fill="#343434" d="M4003 3c-32-1-65 11-87 34-25 24-38 64-31 103 5 37 35 66 59 77 42 17 103 14 141-33 21-26 28-72 16-110-7-21-23-42-42-55q-26-15-56-16m-2095 7c-33-1-66 10-87 33-26 24-39 65-32 104 5 36 35 66 60 77 41 17 103 13 140-33 22-27 29-73 17-110-8-21-24-42-43-55q-26-15-55-16m1406 43-192 103v731h192zM1617 247l-192 104v540h193V545l1-13c1-28 3-58 16-83 29-56 96-55 142-48l34-145s-21-9-52-9c-86 0-133 100-134 102l-8 19zm384 0-195 104v538h195zm2095 0-195 104v538h195zm215 0-191 104v540h192V545l1-13c2-28 3-58 17-83 29-56 95-55 142-48l34-144s-22-10-53-10c-86 0-133 100-133 102l-9 19zm-4112 5L10 349v540h189V484c0-32 31-60 63-58 29 1 59 29 59 58v404h196V484c0-32 34-60 67-58 29 2 57 29 57 58v404h198V420c0-18 0-46-5-69-10-40-44-75-83-84-90-22-172 13-219 92l-4 7-3-8q-35-89-111-97c-83-13-146 20-208 103l-7 10zm3325 0q-49 2-93 15c-19 6-37 15-37 15v80c48-21 95-23 133-4 49 24 63 84 66 109l4 29c-58 8-128 22-180 59-58 42-89 108-83 177 3 74 59 132 114 153 73 26 174 21 233-47l8-9 16 17c44 45 92 44 147 42l29-1v-78c-2 1-19-2-20-2-16-2-21-38-21-38l-36-213-8-41c-9-44-18-91-35-133-42-96-141-132-237-130m-562 1q-38 1-81 13-153 49-189 240c-17 94-3 198 43 279 53 88 155 134 271 119 31-4 97-24 97-24l-1-98c0-1-72 32-125 5-52-27-94-66-100-178-7-130 20-222 90-249 53-20 125 24 125 24l1-105s-56-27-131-26m-654 6q-59-3-116 21c-61 23-118 86-143 161a376 376 0 0 0 75 392c89 85 227 83 326 53l49-21v-90s-60 39-154 32c-76-6-112-146-112-146l331-107s-6-144-86-223c-46-45-106-70-170-72m-1260 0q-49 2-93 15c-19 6-37 15-37 15v80q74-32 133-5c49 24 63 85 66 110l4 28c-57 9-128 23-180 60-58 41-89 108-82 177 2 74 58 132 113 152 73 26 174 22 233-47l8-8 17 16c43 46 91 44 146 43l29-1v-78l-19-3c-17-1-22-37-22-37l-36-213-8-42c-9-44-17-90-35-133-42-95-141-131-237-129m3686 1q-59-3-116 21c-61 23-117 86-143 161a376 376 0 0 0 75 392c89 85 227 83 326 53l50-21v-90s-60 39-155 32c-76-5-112-146-112-146l331-107s-6-144-86-223c-46-45-106-70-170-72M2305 371c80-1 89 150 89 150l-166 51c-5-62 3-126 17-156 15-30 31-42 52-45zm2426 0c81-1 89 150 89 150l-166 50c-5-61 3-125 17-155 15-30 31-42 52-45zM3611 590l36 173c-92 106-244-80-36-173m-2476 6 36 173c-92 106-244-80-36-173"/></svg>