<svg xmlns="http://www.w3.org/2000/svg" width="5000" height="1060" viewBox="0 0 5000 1060">
  <path d="m220 1048-86-796H10v-78h197l77 796h31l76-796h198v78H467l-88 796zm-210 4V293h84l4 759zm489 0 4-759h86v759zm185 0 95-878h181l8 78H846l-38 473h91l-21 79h-79l-25 248zm279 0-69-755h77l80 755zm442 0-80-336h-29v-79h22a86 86 0 0 0 55-13 58 58 0 0 0 17-46c0-34 2-232 0-265a61 61 0 0 0-18-47 82 82 0 0 0-54-14h-25v-78h25a176 176 0 0 1 120 33 145 145 0 0 1 39 109c2 52 2 216 0 258q-4 98-70 127l89 351zm-257 0V174h87v878zm391-800v-78h354v78zm134 800V292h87v760zm295 0V174h87v878zm454 0-116-800h-119v-78h183l117 799h119v79zm104-122-8-756h87v757zm-339 122V294h78l9 758zm779 0V638h111l140-464h94l-256 723v155zm0-467V174h92l-9 411zm269 467-83-283 51-130 122 413zm290 6a154 154 0 0 1-106-41 170 170 0 0 1-34-114V324a170 170 0 0 1 34-114 152 152 0 0 1 106-42v76a55 55 0 0 0-41 23 99 99 0 0 0-12 53v586a102 102 0 0 0 12 55 58 58 0 0 0 41 22zm61 0v-76a55 55 0 0 0 39-22 102 102 0 0 0 13-54V320a99 99 0 0 0-13-54 54 54 0 0 0-39-22v-76a148 148 0 0 1 104 43 172 172 0 0 1 34 112v579a171 171 0 0 1-34 113 148 148 0 0 1-104 43zm266-6V174h87v878zm146 0v-79h145v79zm180 0 95-878h180l7 78h-122l-38 473h91l-21 79h-79l-25 248zm279 0-70-755h77l81 755zm-122-921 91-129h69l-96 128Zm564 921-80-335h-29v-80h22a86 86 0 0 0 55-13 58 58 0 0 0 17-46c0-34 2-232 0-265a63 63 0 0 0-17-47 82 82 0 0 0-54-14h-25v-78h25a177 177 0 0 1 119 33 146 146 0 0 1 39 109c2 52 2 216 0 258q-4 99-70 127l89 351Zm-257 0V174h87v878Zm129-921L4687 2h61l49 80 49-80h61l-81 128Z"/>
</svg>
