<svg xmlns="http://www.w3.org/2000/svg" width="5000" height="640" viewBox="0 0 5000 640">
  <path d="M4533 6q-111 0-207 12c-74 10-156 27-197 80-34 45-37 120-17 172 36 88 162 92 240 95l421 13c35 1 76 8 80 49q4 56-70 72c-65 14-134 16-200 16-162 0-304-17-469-43l-13 115c108 22 275 47 457 47h2c70 0 140 0 210-10 61-8 124-22 172-63 48-42 53-112 45-170-18-116-156-123-248-127l-418-12c-35-2-75-8-79-48-5-41 32-60 66-67 67-14 134-15 201-15 146 0 281 16 423 42l15-114v-1c-107-20-255-43-414-43M3223 7c-42 0-81 23-102 59l-234 419-198-475h-147l259 620h151l271-489 270 489h151l259-620h-146l-199 475-233-419c-21-36-60-59-102-59m-949 3h-825v620h832l21-125h-711V383h655V257h-655V135h683zM10 10v620h142V200l315 391c44 55 119 56 163 0l315-391v430h142V10H926L548 480 171 10Z"/>
</svg>
