<svg xmlns="http://www.w3.org/2000/svg" xml:space="preserve" fill-rule="evenodd" stroke-linejoin="round" stroke-miterlimit="2" clip-rule="evenodd" width="5000" height="800" viewBox="0 0 5000 800">
  <path fill="#fd8f82" fill-rule="nonzero" d="M3499 5v772h169V5Zm936 0v772h166v-54q54 69 147 69 52 0 96-20a241 241 0 0 0 127-135q19-46 19-99a259 259 0 0 0-66-179 223 223 0 0 0-172-74q-89 0-149 62V5ZM2031 21a91 91 0 0 0-67 28q-13 14-21 30a95 95 0 0 0 21 104q14 13 30 21a95 95 0 0 0 104-21q14-13 21-30a95 95 0 0 0-21-104q-13-13-30-21-17-7-37-7m-425 136v143h-56v141h56v337h169V441h95V301h-95V157Zm890 125q-63 0-116 19t-91 52-60 80q-22 47-22 105 0 57 21 104a257 257 0 0 0 151 133 339 339 0 0 0 320-54q39-34 59-81 22-46 21-99v-6h-177v5q1 23-8 42a114 114 0 0 1-59 58q-20 10-42 9-22 1-42-9a114 114 0 0 1-58-58q-9-19-9-42 0-24 9-43a114 114 0 0 1 58-59q20-8 42-8h3zm-1295 2a317 317 0 0 0-206 73q-39 33-59 80-22 46-21 99v6h177v-4q0-22 8-43a114 114 0 0 1 59-58q20-9 42-9t42 9a114 114 0 0 1 58 58q9 21 9 43 0 23-9 43a114 114 0 0 1-58 58q-20 9-42 9h-3v147q63 0 116-18 52-19 91-52 39-34 60-81 22-47 22-104t-21-104a257 257 0 0 0-151-134q-52-18-114-18m2801 2a229 229 0 0 0-172 74 266 266 0 0 0 3 360 238 238 0 0 0 172 72q93 0 146-69v54h170V300h-171v48q-58-62-148-62m-800 4q-48 0-83 15-35 13-69 55v-60h-169v478h169V523q0-49 22-73 23-26 66-26 14 1 29 4 14 6 25 17 13 12 19 34 5 22 5 57v242h168V474q0-39-7-68-8-30-29-54-24-30-61-46-35-16-85-16m-2544 1q-106 0-162 90-56-89-163-89-86-1-154 66v-58H10v479h167V544q1-38 6-62 7-24 18-37 10-14 25-19 12-6 29-5 19 0 33 5 12 3 22 19 9 13 14 37 4 22 4 59v236h170V541q-1-117 81-117 16 1 28 4 13 4 23 18 9 13 14 36 5 22 5 59v236h169V467q0-47-12-81t-34-54-51-31-63-10m1289 9v477h168V300Zm2101 130q23-1 42 8a114 114 0 0 1 59 59q9 19 8 42 0 22-8 42a114 114 0 0 1-59 58q-20 9-42 9-23 0-43-9-20-8-35-23-12-14-22-35-9-20-9-43 0-22 9-43 7-18 22-33 15-14 35-24 20-9 43-8m657 1q24-1 43 9a114 114 0 0 1 59 58q8 20 8 42 1 23-10 41a114 114 0 0 1-57 58q-20 9-42 9t-42-9a114 114 0 0 1-58-57q-9-19-9-42 0-22 9-42a114 114 0 0 1 57-58q19-10 42-9"/>
</svg>
