<svg xmlns="http://www.w3.org/2000/svg" width="5000" height="990" viewBox="0 0 5000 990">
  <path fill="#480074" d="M418 5a71 71 0 1 0 0 142 71 71 0 0 0 71-76 492 492 0 0 1 91-14c70-6 163-3 260 33a480 480 0 0 1 252 218 71 71 0 0 0-22 70q-27 6-64-2c-35-10-59-29-74-47a71 71 0 1 0-97-13c-12 26-20 60-14 101 7 49 31 83 53 104a71 71 0 1 0 19-32c-16-17-32-42-37-77q-5-45 8-74a71 71 0 0 0 34 5c18 25 49 54 99 67q53 13 92 1a71 71 0 0 0 122-50 71 71 0 0 0-88-70 419 419 0 0 0-52-76A516 516 0 0 0 852 57a637 637 0 0 0-374-20 71 71 0 0 0-60-32m0 35a36 36 0 1 1 0 71 36 36 0 0 1 0-71M249 58a71 71 0 0 0-69 78A308 308 0 0 0 50 406a71 71 0 0 0 37 135 283 283 0 0 0 272 153 71 71 0 1 0-6-35h-12c-92 3-175-49-220-130a71 71 0 0 0-36-131c-2-95 41-178 108-227a71 71 0 0 0 129-44c-1-39-34-70-73-69m1 36a36 36 0 1 1 2 71 36 36 0 0 1-2-71m471 35a71 71 0 0 0-38 132l-8 18c-15 24-41 52-86 73q-56 22-96 19a71 71 0 1 0-1 55 151 151 0 0 1 43 51 71 71 0 0 0 19 131q9 43 51 85 37 34 74 43a71 71 0 0 0 107 41 151 151 0 0 1-28 179l-1 1 12 14 12 14 3-3 9-8a186 186 0 0 0 19-226q7-14 7-31a71 71 0 0 0-140-20q-24-9-48-31-31-29-39-59a71 71 0 0 0-21-139 195 195 0 0 0-46-62 265 265 0 0 0 136-57l-1 31q2 50 19 85 6 16 14 29a71 71 0 1 0 31-22l-10-16a215 215 0 0 1-18-80c0-47 17-82 35-105a71 71 0 0 0-10-142m-187 18c-31 0-58 20-68 48l-34 3c-131 21-222 132-204 248q2 13 6 25a71 71 0 0 0 50 121 71 71 0 1 0-19-140l-2-11c-14-94 59-190 174-207l27-3a71 71 0 1 0 70-84m187 18a36 36 0 1 1 0 71 36 36 0 0 1 0-71m-187 18a36 36 0 1 1 0 71 36 36 0 0 1 0-71m356 53a36 36 0 0 1 23 63v-1a36 36 0 0 1-36 7 36 36 0 0 1 13-69m707 50c-63 0-93 35-93 88v323h70V377q0-22 25-23 18 0 25 17l118 258c16 46 42 75 98 75 62 0 93-35 93-88V293h-71v320q-1 21-24 22-19-1-26-16l-118-258c-16-47-41-75-97-75m1786 0c-60 0-90 35-90 88v323h71V377q1-22 21-23 16 1 22 17l98 258c15 46 42 75 95 75 59 0 89-35 89-88V377q2-22 21-23 15 1 22 17l120 326h76l-125-336c-16-47-41-75-95-75-60 0-89 35-89 88v239q-2 21-21 22-17 0-23-16l-98-258c-15-47-40-75-94-75m-1190 0c-42 0-70 14-85 52l-141 359h77l128-325q6-14 21-14 14 0 19 14l123 325h78l-136-359c-15-38-42-52-84-52m253 7v275q1 128 131 129h84q130-1 131-129V293h-69v270q1 62-66 63h-72q-69-1-67-63V293Zm608 0c-117 0-182 66-182 202s64 202 182 202h156v-71h-156c-78 0-112-39-112-131 0-93 34-131 112-131h156v-71zm1055 0c-95 0-135 45-135 110q0 67 56 91-57 24-58 93c0 63 39 110 135 110h204v-71h-204q-61-2-61-50 1-50 61-50h200v-64h-198q-60 1-61-48-2-48 61-50h201v-71Zm438 0v404h71V293Zm137 0v71h117v333h71V364h118v-71Zm-3545 32a36 36 0 1 1 0 71 36 36 0 0 1 0-71m-712 36a36 36 0 0 1 33 48 36 36 0 1 1-33-48M80 434a36 36 0 0 1 25 62 36 36 0 0 1-32 8 36 36 0 0 1 7-70m1059 34a71 71 0 0 0-35 133q-10 31-42 61-26 22-52 30a71 71 0 1 0 4 37q35-8 72-39 42-39 54-80a71 71 0 0 0-1-142m-855 18a36 36 0 1 1 0 71 36 36 0 0 1 0-71m659 17a36 36 0 1 1 0 72 36 36 0 0 1 0-72m196 0a36 36 0 1 1 0 72 36 36 0 0 1 0-72m-570 0a36 36 0 1 1-21 8q5-4 11-6zm179 0a36 36 0 1 1 0 72 36 36 0 0 1 0-72m3644 113v81h68v-81ZM423 630a36 36 0 1 1 2 71 36 36 0 0 1-2-71m521 51a36 36 0 1 1 0 72 36 36 0 0 1 0-72m-196 1a36 36 0 1 1 0 71 36 36 0 0 1 0-71"/>
</svg>
