<svg xmlns="http://www.w3.org/2000/svg" viewBox="0 0 5000 980">
  <path fill="#e6f0fb" d="M4902 591c-6-43-38-74-79-74-47 0-76 29-86 74zm-165 54c0 50 32 86 87 86 70 0 70-47 108-47 23 0 39 20 39 37 0 56-91 83-147 83-131 0-180-89-180-170 0-109 66-182 177-182 107 0 169 76 169 153 0 32-10 40-41 40zm-244-112h-136c-17 0-38-9-38-37 0-26 21-36 38-36h223c25 0 38 17 38 41q-1 16-14 31l-174 190h154c18 0 38 10 38 37s-20 36-38 36h-238c-28 0-42-18-42-36q0-21 12-34zm-384 202c56 0 80-51 80-108 0-61-25-106-80-106-54 0-79 45-79 106 0 57 23 108 79 108m0-283c113 0 173 77 173 175 0 94-45 177-173 177-127 0-173-83-173-177 0-98 60-175 173-175m-551 46c0-28 13-46 42-46 30 0 43 18 43 46v13h1c26-35 60-59 114-59 56 0 118 28 118 123v182c0 25-11 47-47 47-37 0-47-22-47-47V593c0-37-19-64-59-64-33 0-71 27-71 73v155c0 25-11 47-47 47-37 0-47-22-47-47zM621 635c-10 9-29 13-40 14l-34 6q-60 6-61 46c0 21 20 39 52 39 52 0 83-34 83-69zm94 67c0 39 10 48 10 63 0 22-20 36-43 36-40 0-54-25-55-54-37 40-79 54-129 54-53 0-106-36-106-96 0-77 59-99 131-108l58-6c22-3 40-8 40-35s-27-38-59-38c-69 0-71 51-109 51-23 0-40-17-40-36 0-37 53-85 150-85 90 0 152 29 152 97zM10 495c0-28 13-47 43-47 29 0 42 19 42 47v12h1c27-35 61-59 114-59 57 0 119 28 119 124v182c0 25-11 47-47 47-37 0-47-22-47-47V590c0-38-19-65-60-65-32 0-71 27-71 74v155c0 25-10 47-47 47s-47-22-47-47Z"/>
  <path fill="#ed1a5a" d="M3109 36c22-23 33-29 50-31 26-1 48 19 48 45 0 18-7 31-27 52l-42 47c-20 20-33 28-50 29-26 2-48-18-48-43 0-18 6-30 27-52zm97 420q20 0 19-21c0-72-46-120-111-115-67 4-112 57-112 131q-1 21 19 18zm-185 120q-20 1-19 18c0 85 45 129 119 128 45 0 69-6 102-47 20-26 33-35 54-37 31-2 57 21 57 50 0 37-25 67-54 91-42 37-95 49-162 54q-128 9-194-73c-38-46-54-111-54-211 0-218 79-324 251-336q155-11 212 109c15 31 24 88 24 146 0 80-4 84-83 90zm-722-200c0-56 1-64 12-80q16-26 49-29c29-2 39 5 57 34q3 6 7 6l8-5c39-31 79-46 134-49 66-5 120 10 154 44 32 31 43 66 43 140v317c0 56-2 64-12 80a67 67 0 0 1-53 29q-38 2-56-26c-8-13-9-22-9-74V485c0-50-2-68-13-87q-20-37-77-34c-36 3-69 21-89 47-19 25-25 51-25 108v259c0 56-1 64-12 80a67 67 0 0 1-53 29q-39 2-55-26c-9-13-10-22-10-74zm-137 421c0 57-1 64-11 80a68 68 0 0 1-53 29q-39 2-56-26c-8-13-9-21-9-74V197c0-55 1-64 12-80q18-26 53-28 37-2 55 25c8 14 9 21 9 74zm-584-300c-11 25-15 65-15 138 0 80 4 117 20 142q28 49 93 44 70-6 98-66c10-24 15-66 15-134 0-83-5-122-20-146q-30-48-93-44-71 6-98 66m292-112c38 46 52 108 52 228s-17 188-62 240c-42 49-106 78-184 83-86 6-154-17-195-69-38-44-52-108-52-223 0-124 18-194 63-246 41-46 107-76 184-81 86-7 154 17 194 68m-627 483c-22 80-43 102-98 106-53 4-73-13-94-83L928 487c-9-30-13-45-13-58 0-33 28-60 62-62 36-3 55 17 72 77l89 321q4 10 7 9 4 1 6-10l88-332c16-64 35-87 73-89 34-3 61 21 61 54q1 18-12 60z"/>
</svg>
