<?xml version="1.0" encoding="UTF-8"?>
<svg id="svg2" width="506" height="98.504" version="1.1" viewBox="0 0 506 98.504" xmlns="http://www.w3.org/2000/svg">
 <path id="path1" d="m497.01 59.558c-0.527-4.367-3.792-7.562-8.022-7.562-4.764 0-7.636 2.927-8.68 7.562zm-16.702 5.487c0 5.011 3.272 8.664 8.807 8.664 7.174 0 7.174-4.697 11.018-4.697 2.283 0 3.912 1.957 3.912 3.713 0 5.734-9.193 8.418-14.93 8.418-13.294 0-18.32-9-18.32-17.288 0-11.076 6.718-18.51 17.99-18.51 10.956 0 17.212 7.76 17.212 15.583 0 3.25-0.975 4.117-4.17 4.117zm-24.852-11.42h-13.759c-1.76 0-3.854-0.967-3.854-3.714 0-2.74 2.093-3.715 3.854-3.715h22.627c2.542 0 3.905 1.685 3.905 4.17 0 1.043-0.589 2.218-1.5 3.191l-17.604 19.308 15.643-2e-3c1.765 0 3.847 0.984 3.847 3.712 0 2.743-2.082 3.716-3.847 3.716h-24.243c-2.809 0-4.237-1.833-4.237-3.716 0-1.363 0.386-2.543 1.23-3.453zm-38.959 20.475c5.677 0 8.086-5.087 8.086-10.893 0-6.199-2.543-10.822-8.086-10.822-5.538 0-8.086 4.623-8.086 10.822 0 5.806 2.417 10.893 8.086 10.893m0-28.757c11.469 0 17.605 7.823 17.605 17.864 0 9.516-4.632 17.935-17.605 17.935-12.965 0-17.6-8.419-17.6-17.935 0-10.04 6.122-17.864 17.6-17.864m-56 4.76c0-2.868 1.3-4.76 4.3-4.76 2.996 0 4.3 1.892 4.3 4.76v1.238h0.138c2.669-3.515 6.13-5.998 11.536-5.998 5.734 0 12 2.876 12 12.527v18.505c0 2.553-1.054 4.769-4.771 4.769s-4.755-2.216-4.755-4.769v-16.626c0-3.835-1.887-6.58-5.995-6.58-3.327 0-7.238 2.745-7.238 7.497v15.71c0 2.553-1.047 4.769-4.755 4.769-3.72 0-4.76-2.216-4.76-4.769zm-298.39 13.844c-1.051 0.968-3.01 1.324-4.117 1.504l-3.463 0.523c-3.99 0.596-6.148 1.839-6.148 4.713 0 2.158 2.029 3.925 5.3 3.925 5.22 0 8.428-3.408 8.428-6.926zm9.549 6.871c0 3.986 0.975 4.9 0.975 6.405 0 2.158-2.024 3.664-4.314 3.664-4.117 0-5.489-2.613-5.618-5.556-3.732 4.121-8.05 5.556-13.084 5.556-5.418 0-10.785-3.727-10.785-9.745 0-7.906 6.014-10.126 13.336-10.99l5.824-0.64c2.29-0.268 4.117-0.786 4.117-3.533 0-2.742-2.81-3.925-6.011-3.925-7.068 0-7.264 5.233-11.053 5.233-2.419 0-4.057-1.712-4.057-3.665 0-3.798 5.367-8.638 15.17-8.638 9.146 0 15.5 2.943 15.5 9.81zm-71.662-21.054c0-2.877 1.3-4.778 4.323-4.778 3 0 4.315 1.901 4.315 4.778v1.254h0.123c2.685-3.548 6.155-6.032 11.577-6.032 5.757 0 12.025 2.893 12.025 12.564v18.561c0 2.546-1.046 4.775-4.77 4.775-3.73 0-4.774-2.229-4.774-4.775v-16.674c0-3.86-1.906-6.598-6.011-6.598-3.339 0-7.264 2.738-7.264 7.508v15.764c0 2.546-1.042 4.775-4.768 4.775-3.73 0-4.776-2.229-4.776-4.775z" fill="#2e4761"/>
 <path id="path2" d="m314.91 3.1378c2.158-2.31 3.354-3.001 5.036-3.126 2.634-0.19 4.912 1.932 4.912 4.57 0 1.816-0.72 3.066-2.754 5.252l-4.316 4.752c-2.037 2.075-3.359 2.89-5.036 3.001-2.639 0.196-4.907-1.915-4.907-4.447 0-1.8 0.591-3.04 2.751-5.243zm9.826 42.68c1.437-0.107 1.915-0.618 1.915-2.189 0-7.33-4.672-12.161-11.26-11.685-6.83 0.49-11.384 5.866-11.384 13.314 0 1.56 0.478 2.008 1.913 1.904zm-18.816 12.155c-1.434 0.109-1.913 0.626-1.913 1.82 0 8.65 4.538 13.147 12.104 13.073 4.521-0.041 7.028-0.64 10.332-4.799 2.084-2.622 3.348-3.606 5.508-3.756 3.112-0.23 5.753 2.107 5.753 5.103 0 3.731-2.47 6.723-5.423 9.23-4.345 3.703-9.7 4.933-16.53 5.422-8.632 0.624-15.219-1.79-19.654-7.36-3.833-4.647-5.51-11.261-5.51-21.475 0-22.115 8.02-32.895 25.524-34.156 10.422-0.753 17.732 3.06 21.565 11.073 1.442 3.145 2.398 8.955 2.398 14.842 0 8.174-0.358 8.562-8.389 9.14zm-73.336-20.323c0-5.65 0.118-6.501 1.197-8.141 1.08-1.759 2.759-2.724 5.037-2.886 2.878-0.206 3.953 0.444 5.748 3.442 0.12 0.34 0.478 0.569 0.725 0.543 0.238-0.018 0.354-0.145 0.837-0.418 3.953-3.177 8.033-4.664 13.543-5.064 6.711-0.48 12.22 1.049 15.696 4.528 3.23 3.128 4.314 6.656 4.314 14.223v32.204c0 5.658-0.123 6.501-1.202 8.137-1.2 1.772-3.112 2.747-5.394 2.906-2.514 0.183-4.55-0.75-5.63-2.599-0.84-1.375-0.955-2.209-0.955-7.497v-28.236c0-5.161-0.242-6.95-1.321-8.916-1.317-2.428-4.073-3.666-7.786-3.408-3.717 0.27-7.072 2.07-9.112 4.744-1.92 2.539-2.516 5.221-2.516 10.992v26.313c0 5.644-0.12 6.499-1.2 8.132-1.196 1.775-3.111 2.75-5.39 2.911-2.517 0.185-4.553-0.753-5.632-2.599-0.84-1.375-0.959-2.213-0.959-7.5zm-13.882 42.81c0 5.764-0.118 6.487-1.192 8.134-1.2 1.768-3.124 2.743-5.395 2.911-2.52 0.18-4.556-0.753-5.637-2.599-0.836-1.39-0.957-2.21-0.957-7.506v-61.875c0-5.649 0.12-6.499 1.197-8.135 1.2-1.765 3.115-2.744 5.397-2.915 2.514-0.18 4.55 0.755 5.633 2.601 0.836 1.386 0.954 2.09 0.954 7.502zm-59.406-30.462c-1.083 2.489-1.557 6.596-1.557 13.939 0 8.16 0.473 11.981 2.038 14.509 1.917 3.22 5.154 4.796 9.463 4.486 4.678-0.332 8.15-2.747 9.948-6.727 1.08-2.48 1.555-6.719 1.555-13.69 0-8.402-0.476-12.336-2.03-14.753-1.918-3.216-5.278-4.794-9.473-4.48-4.667 0.328-8.149 2.75-9.944 6.716m29.716-11.383c3.835 4.651 5.272 10.92 5.272 23.173 0 12.134-1.795 19.11-6.349 24.365-4.193 4.993-10.78 7.865-18.695 8.43-8.74 0.636-15.574-1.758-19.77-6.986-3.837-4.537-5.274-11.032-5.274-22.692 0-12.617 1.795-19.714 6.356-24.975 4.19-4.743 10.902-7.749 18.688-8.303 8.747-0.633 15.701 1.76 19.772 6.988m-63.699 49.032c-2.28 8.1-4.433 10.41-9.948 10.807-5.392 0.388-7.428-1.386-9.588-8.442l-12.461-41.037c-0.96-3.057-1.317-4.598-1.317-5.913 0-3.368 2.757-6.094 6.234-6.34 3.708-0.263 5.628 1.759 7.31 7.886l9.105 32.631c0.24 0.585 0.478 0.934 0.716 0.915 0.24-0.022 0.363-0.275 0.598-1.012l8.87-33.795c1.677-6.49 3.595-8.791 7.43-9.069 3.477-0.251 6.233 2.198 6.233 5.566 0 1.324-0.365 3.144-1.201 6.092z" fill="#ed1a5a"/>
</svg>
