<svg xmlns="http://www.w3.org/2000/svg" viewBox="0 0 5000 5000">
  <path fill="#699fb0" d="M781 0h3438c433 0 781 348 781 781v3438c0 433-348 781-781 781H781A780 780 0 0 1 0 4219V781C0 348 348 0 781 0"/>
  <path fill="#fcf9f8" d="M3179 3396q0 4 4 4-152 435-339 670-12 3-87 52-208 52-308-200-66-83-156-556-43-769-40-861l-13-699q-38 104-113 343-69 235-113 352 0 9 18 9-48 147-61 239 5 0-22 30 5-4 5 35-235 942-244 1012l-30 91q9 5 9 27 0 26 13 30-13 21-39 191 43 48 26 96-192 52-231-257 0-26 66-378l395-1442q5 0 9-13 0-13 8-13 13-66 261-834 39 17 52-5 4 18 44 26 39 13 39 40 8 0 8-13 0-9 13-9-12 25 13 22-4-13 35 603 0 5-17 22 0 9 8 18 14 8 9 21-9 105 0 391-9 83 0 87l-17 31q39 74 8 186 18 18 13 66-3 47 5 56 5 14-9 17-13 5-13 9 0 8 13 5 9-4 9 0 9 251 26 351 0 13-22 13 31 66 22 166 0 3 9 4l4 4q-13 35 9 109 21 74 13 108 130 318 104 296 113 0 130-104 48-44 109-174 61-135 108-183 18-26 0-26 87-186 248-712 9-83 52-257 44-160 52-256 0 14 18-22-9-95 30-178 13 18 13-100l31-278q-18 9-18 118l-43 247q74-921-61-1181-121-66-178-61-31-57-117-39l-70 21q-48 22-56 22 99-152 243-152 222 135 313 261 4 7 13 0 4-5 8 0 14 34 18 34 60 105 104 387 0 61 13 83 5 904-352 2002zm169-2276q-9-5 5-14zm96 47 9-8-9-13q-9-9-9-13zm13 70q-18-44-13-44-8 9-5 26 4 18 18 18m4 9q-9 0-8 4 8 0 8-4m-95 325q-44 66 0 79 12-339 0-400 4 57 0 161zm100-239q-9-8 0-34 3-23-13-26-9 52 13 60m-35-13q-9 0-9-21 5-22-9-22-8 9 0 30 9 22 18 13m-13 61q9-17 13-35h-18q14 5 5 18-5 17 0 17m48 5q0-40-5-27 0 35 5 27m-57 299q22-4 9-65 12-96 0-234l-5 152q-8 95-4 147m61-282h17v-13h-17zm-4 182q25-121-5-178-4 109 5 178m-1308-73q13-5 22-35-9-1-22 35m43 30q5-4 5-13 4-13-9-9 0 22 4 22m-43-17q-13 12-13 8 13-12 13-8m-26 65q9-22 4-31-17 52-13 61zm1338 21q-5-3-5-13-12-4-13 18 5 17 13 17 0-4 9-4l9-5q-9 0-9-8 0-5-4-5m-1360 48q0-35 4-30 0 30-4 30m-22 44q14 0 18-18 8-12-9-13 4 9-4 13-5 9-5 18m61-22q0-4-4-4-5 0-5 4zm135 39q21-22 0-22-14 18 0 22m1125 13q0-9 9-9 0-21-13-26 8 39 4 35M1632 3287q65-212 226-786 139-500 235-782 0-9-9-9-282 865-452 1577m660-1472q-4-4-4-39-4-40-9-48 1 87 13 87m-173-53q-5 0 17-13-18-12-17 13m1199 531q-27 42-39 126-14 90-26 126-5 30-131 486-4 9 5 13 3 9 4 18h-17l-153 369q0 34 9 43-21 9-22 31 70-52 61-126 22 8 22 4-13-83 4-65-4 4 22 4 0-44-4-56 35 0 21 4-17-30-13-30 9 0 18-5l13-4q0-26-5-35 35-39 57-130 22-105 43-139 1 30 61-226 0-39-4-26 13-4 13-39t22-26q0-126 21-157 13-147 52-204-12-30 0-91 18-69 14-104l26-53q-5-30 4-117 13-92 4-135-8 101-48 279-30 160-34 265m-1091-500q13-18 0-17-12 17 0 17m1208 204q4-4 0-30-5-18 9-26v13q13 5 13-9 0-13-13-4-4-5 0-26 4-18-5-27l13-17q9-9 9-13-4-9-13-4t-9 0q18-9 27-39-17 4-14-13 18-1 18-13-5 3-26-5 9-52-35 287-26 61-22 96 13-5 39 4-4 9-21-26v-31q4 0 8 5 5 4 13 4 9-26 9-35-21 0-22-4 31-21 26-48-8 0-8 5zm-1151 4q53-90 0-182v91q5 52 0 91m-191-160q8 4 13-5 0-12-9-8zm56 26 22-5v-8h-18zm-26 26q4-5 4-18 4-16-8-13 17 31 4 31m-65 69q-13-17 4-13zm4 13q-8 0-8 5 8 0 8-5m-21 53q-26-18 4-18zm238 399q0-12 14-13-5 9-9 35t-9 35q22 48 4 78 31 122 5 221 22 0 22 5-4 13 0 48 4 30-5 47 9 31 9 113t4 118q-9 43 9 130 9 87 4 126 13 18 13 87 4 64 22 87-34-300-61-1065l13-47q-21-62-17-200 4-148-13-213 9 95 0 221-9 135-5 187m-186-382h13v-13h-13zm-13 0q0-9-5-9-8 0-8 9 4-5 8 0zm-74 78q13-8 21-35 13-25 1-30zm78-9q0-4 4-4 0-14-8-9 0 13 4 13m-104 105q13-9 21-39 9-31-4-35l-9 39q-8 26-8 35m1386 60q21 0 17 14 18-5 26-31-26 0-26-13l22-65h-18q-8 65-21 95m34-21q9-5 18-35 5-26-9-30 0 13-9 34-7 18 0 31m-1429 0h9v-13h-9zm-9 39q-8 0-8 4 8 0 8-4m1364 313q1-13 22-70 13-43 9-82 44-4 9-66 17 1 17-8-14-4-9-18 5-8 13-13-13 0-13-4 5-9 26-17l-4-18q-4-12-9-17-43 17-43 100 0 92-22 108 5 18-4 40-5 21 0 30 0-4 4 0-9 4-9 22 1 13-8 21 9 5 13-4 5-4 8-4m-1390-252q4 0 18-13-18-5-18 13m9 117q0-4 4-4zm391 135q9-78-4-105-9 79 4 105m-465-26q-18-4 4-18zm478 178q-48-153-22-139 8 21 5 74-1 43 17 65m925 100q0-5-4-9-9-4-4-13 8-4 17-22 4-21 13-30-13-4-9-22 5-22-4-30 4-5 13-5 13 0 13-4l-13-26 9-4q0 8 4 8l9-21h4q0-44-13-57-17 26-26 87t-30 87v61zm-1420-209q5-4 0-4zm482 317q9 35 9 131 4 82 21 121-8-73-13-234-4-144-17-213-4 39 0 95 5 57 0 100m39-134q0-48-13-35 9 0 9 17-5 18 4 18m882 56q-4 9-13 4-9-3-13 0-9 53-31 131l-34 126q48-43 34-109 18-9 27-39 8-34 21-39 5-9-4-17-4-4-4-9l17-4q-9-66-4-66-9 9 4 22m-852 26q-3 0-4-4-4-5-9-5-7 5 0 13 10 9 13-4m-638 57q12 5 13-9 0-13-9-13 0 17-4 22m1381 199q5 0 18 14 0-9 4-14 4-3 4-8-21 0-26 8m-26 48q43 44 18 44l30-74q-13 5-26 0-9 30-22 30m-769 22q13 0 13-9-13 0-13 9m13 17q-9 0-8 5 8 0 8-5m730 118q13-114 22-109-18 113-22 109m-717-31q-8-12-8-39 0-26-9-35-18 87 17 74m-751-26q-9-30-5-30 0 30 5 30m738 57 13 4q0-18-13-13zm687 56q5 5 0 18l-18-5q-13 44-4 44l-43 100q30-18 56-83 26-69 48-87 0-21-18-22-3 0-13 9-3 9-13 13zm-669 44q-13-66-18-70 13 66 18 70m-5 60q13 4 13-21 0-22-8-26-4 12 0 26 0 17-5 21m535 0q0 61-22 31 13 22 4 43-8 27-8 39 43-64 56-117-8-4-17 0zm-522 13q-8 0-8 5 8-8 8-5m-13 118q18-43-21-109 8 91 21 109m600-74q17 48 0 39zm-591 17 13 5q-9-18-13-18zm552 113q9-5 8-21 1-13 13-18 0-30-4-43-56 8-35 56 0-9 9-9zm-509 18q-8-4-8-9-4-9-9-9-4 9 4 18 5 8 13 0m444 30q-5-4-5 4-12 5-17 13-9 14 9 18zq52-13 21-43 0 8-8 21zm-31 30q-9 0-9 5 9 0 9-5m469-1129q5 5 5 9 9-5-9-14zm-221 482q0-4 13-4 0 4-13 4m-83 217q0-4 13-4 0 4-13 4m-78 317q0-17 13-17 0 9-13 17"/>
</svg>
