<svg xmlns="http://www.w3.org/2000/svg" width="5000" height="3780" viewBox="0 0 5000 3780">
  <path fill="#d34822" d="M10 5v138l715 293L10 727v138l860-360V366Zm3572 29q-156 0-277 113a377 377 0 0 0-120 288q0 184 124 293 123 108 297 108 113 0 215-48 103-48 167-148l-132-58a289 289 0 0 1-247 126q-107 0-176-65t-83-171h638q-4-217-129-328a408 408 0 0 0-277-110m-1883 0a391 391 0 0 0-399 401 387 387 0 0 0 399 401q165 0 282-111t117-290-118-290a396 396 0 0 0-281-111m1007 9q-157 0-270 131V55h-276v133h127v899h-138v133h435v-133h-148V720a367 367 0 0 0 526 10q114-106 114-291 0-176-105-286a350 350 0 0 0-265-110m1956 0q-118 0-262 104V55h-282v133h133v494h-133v132h413V682h-131V276q125-97 224-97 38 0 63 26 26 26 26 113v496h277V682h-128V312q0-98-15-148t-63-86-122-35M3586 155q97 0 165 64 68 66 83 145h-479q14-93 78-151 63-58 153-58m-903 20q92 0 165 68 72 69 72 190 0 125-69 196-69 72-176 72-76 0-133-39-56-39-82-96t-26-120q0-122 75-197 75-74 174-74m-984 3q101 0 171 73 70 72 70 183t-69 184-172 72q-102 0-172-71-69-72-70-185 0-108 68-182 69-74 174-74"/>
  <path fill="#45a798" d="M1671 1435q-150 0-263 111a390 390 0 0 0-113 291q0 165 103 278 102 113 265 113 90 0 165-40t111-85v69q0 75-8 107t-35 67q-27 36-82 60-54 25-119 25-116 0-215-77l-97 108q132 102 299 102 112 0 202-40 90-39 135-97 45-57 57-113 12-54 12-169v-566h136v-132h-285v108a366 366 0 0 0-268-120m1948 0a391 391 0 0 0-399 401 387 387 0 0 0 399 401q165 0 282-111 118-111 118-290t-118-290a396 396 0 0 0-282-111m-941 0q-156-1-277 113a377 377 0 0 0-120 288q0 184 123 293 124 108 298 108 112 0 215-48 102-48 167-148l-132-58a289 289 0 0 1-247 126q-107 0-176-65-69-66-84-171h639q-4-218-129-328a408 408 0 0 0-277-110m4 121q98 0 165 64 68 65 83 145h-479q14-93 78-151 63-58 153-58m-986 18q97 0 171 71 75 72 74 188 1 116-74 189-73 73-175 73-105 0-172-73-67-72-67-188 1-119 73-189 74-71 170-71m1923 5q101 0 171 72 71 73 71 184t-70 184-172 72q-100 0-171-72-70-71-70-184 0-108 68-182t173-74"/>
  <path fill="#a68018" d="M1300 2671v133h134v826h-134v132h400v-132h-117v-959zm1353 0v133h135v826h-135v132h281v-114q33 48 108 87 76 40 167 40 162 0 266-116 104-115 104-285 0-177-106-284a355 355 0 0 0-264-108q-162 0-275 128v-439zm-509 311q-234 0-328 177l143 38q49-90 162-90 65 1 105 25 41 26 52 57t11 89v75q-100-63-206-64-115 0-196 70-81 69-81 176 0 105 76 172 77 68 180 68 134 0 242-106v93h260v-132h-128v-352q0-93-10-135-11-42-41-79-31-36-93-59-63-24-148-23m1812 9q-118 0-192 64-72 64-73 159 1 94 67 153 68 60 224 86 106 18 142 38t36 63q0 45-43 70-44 25-116 25-69 0-119-34-51-35-58-88v-25h-133v260h133v-43q77 56 198 56 130 0 211-63 81-62 81-168a214 214 0 0 0-131-202q-56-23-167-40-116-19-150-34-35-16-35-60 0-42 38-67 38-26 97-26 115 0 176 93v47h132v-252h-132v32q-78-44-186-44m-773 126q96 0 168 67 72 66 72 186 0 124-72 198-72 73-172 73-95 0-168-69-72-69-72-188 0-129 74-198t170-69m-1089 287q98 0 195 76v88q-97 91-205 91-63 0-99-36t-37-89q0-57 42-94 42-36 104-36"/>
</svg>
