<svg xmlns="http://www.w3.org/2000/svg" width="5000" height="630" viewBox="0 0 5000 630">
  <path fill="#f80000" d="M2233 3a89 89 0 0 0-74 38l-374 586h140l308-488 167 270h-317l70 109h321l66 109h141L2305 40a87 87 0 0 0-72-37m2687 3a69 69 0 0 0-69 69 69 69 0 1 0 139 0c0-38-31-69-70-69M3420 9v559q0 23 17 41 18 18 44 18h542l70-109h-554V9Zm955 0a309 309 0 1 0 0 618h367l70-109h-429c-91 0-169-61-192-146h508l70-109h-578a200 200 0 0 1 192-145h349l71-109ZM319 9a309 309 0 1 0 0 618h360a309 309 0 0 0 309-309A309 309 0 0 0 679 9Zm732 0v618h119V118h393c56 0 100 45 100 100s-44 100-100 100h-335l355 309h173l-239-200h54a209 209 0 1 0 0-418zm1878 0a309 309 0 1 0 0 618h367l70-109h-429a200 200 0 1 1 0-400h349l70-109Zm1991 12a54 54 0 1 1 0 109 54 54 0 0 1-54-55c0-30 24-54 54-54m-26 13v78h15V82h11l16 30h17l-17-32 3-2q10-8 9-13l1-7c0-5-1-17-15-22-5-2-9-2-20-2zm15 13h5l14 1q6 4 6 10 1 4-2 7-5 5-13 4h-10zM327 118h344a200 200 0 0 1 0 400H327a200 200 0 1 1 0-400"/>
</svg>
