<svg xmlns="http://www.w3.org/2000/svg" xml:space="preserve" viewBox="0 0 5002 1300">
  <path fill="#efefef" d="M2598 205c-51 0-88 31-88 80 0 50 37 81 88 81 52 0 88-31 88-81 0-49-36-80-88-80m2036 0c-52 0-88 31-88 80 0 50 36 81 88 81s88-31 88-81c0-49-36-80-88-80m146 27v545c0 106 35 175 142 175q52-1 78-13l-18-115q-10 3-18 2c-12 0-29-10-29-43V232Zm-986 51-19 154-77 5v118h68v194c0 118 52 198 177 198 50 0 89-10 115-20l-24-109q-22 7-47 7c-38 0-64-21-64-78V560h119V437h-119V283Zm496 142c-79 0-151 25-217 65l54 102c51-29 92-43 132-43 52 0 73 25 77 66-198 20-280 78-280 185 0 84 57 152 149 152 57 0 103-25 144-63h4l11 51h128V655c0-159-73-230-202-230m-2012 0c-52 0-102 25-141 60h-4l-11-48h-127v688h155V979l-5-78q54 50 119 51c108 0 211-99 211-272 0-155-75-255-197-255m751 0c-52 0-103 25-141 60h-4l-11-48h-128v688h156V979l-5-78q53 50 119 51c108 0 210-99 210-272 0-155-75-255-196-255m453 0c-121 0-239 100-239 263 0 168 112 264 256 265 60 0 128-20 181-57l-51-94q-53 31-108 31c-64 0-111-29-126-97h297c3-14 6-41 6-69 0-137-71-242-216-242m-962 12v503h156V437Zm2036 0v503h156V437ZM3486 543c56 0 79 38 79 87h-172c11-58 48-87 93-87m-1254 9q82-1 82 130c0 102-39 142-88 142-24 0-50-7-76-30V595c28-29 52-43 82-43m750 0q83-1 82 130c0 102-38 142-87 142-24 0-51-7-76-30V595q39-43 81-43m1354 159v80c-24 25-45 40-77 40q-52 1-53-44c0-35 30-62 130-76"/>
  <path fill="#462482" d="M396 0H118C53 0 0 53 0 118v1064c0 65 53 118 118 118h1546V0Z"/>
  <path fill="#fff" d="M547 379v171h266V379Zm317 0v171h437v33q0 69-66 69H864l-1 288 202 192V823h260q39 0 71-12t56-35 37-56 13-75V379Z"/>
</svg>
