<svg xmlns="http://www.w3.org/2000/svg" xml:space="preserve" viewBox="0 0 2960 894">
  <path fill="#fff" d="M1211 0h44v152c0 149 1 153 2 157 3 19 27 16 41 16h25l-5-9c-3-6-18-30-25-53-15-38-5-114-2-131 5-25 18-76 57-104q31-24 81-27l28-1q50 0 90 26c42 30 57 80 63 128 7 75-1 97-9 120a529 529 0 0 1-83 129v5l3 4 6 5 27 9 94 21 12 5c30 13 52 37 57 70l1 73-11 4c-54 19-168 43-258 43-94 0-209-25-258-43l-11-4a681 681 0 0 1 4-88c14-41 54-56 65-60 12-4 93-20 109-25 4-2 15-6 19-10l3-5v-3l-26-35h-42l-48-2q-52-11-52-58zM0 890h36v-69h42c34 0 60-23 60-58v-4c0-35-24-58-60-58H0zm36-101v-55h38q27 1 29 26v2q-2 26-29 27zm130 101h36v-71h50q15 1 15 15v56h35v-62q0-23-22-25v-5c15-7 28-20 28-43v-3c0-31-24-51-59-51h-83zm36-103v-53h43q26 1 27 25v2q-1 25-27 26zm122 103h37l10-41h68l10 41h37l-50-189h-62zm56-74 23-92h5l23 92zm130 74h36v-78h70v78h36V701h-36v78h-70v-78h-36zm164 0h37l10-41h68l10 41h37l-50-189h-62zm56-74 22-92h5l23 92zm1853 46c-26 0-42-17-42-42v-48c0-26 16-43 42-43s43 17 43 43v48c0 25-16 42-43 42m0 32c48 0 78-27 78-76v-45c0-49-30-76-78-76s-77 27-77 76v45c0 49 30 76 77 76m186-32c-27 0-42-17-42-42v-48c0-26 15-43 42-43 26 0 42 17 42 43v48c0 25-16 42-42 42m0 32c47 0 78-27 78-76v-45c0-49-31-76-78-76s-78 27-78 76v45c0 49 30 76 78 76m-724 0c44 0 72-24 72-58 0-35-27-49-67-58l-6-1q-34-6-34-26 0-21 32-22c32-1 35 8 35 30v8h35v-8c0-41-29-62-70-62s-67 21-67 55c0 35 23 48 62 57l7 1c24 6 38 11 38 27q0 24-37 26-38-1-39-34v-8h-35v8c0 41 30 65 74 65m175 0c47 0 73-27 73-71v-4h-35v5c0 22-12 38-38 38-25 0-40-17-40-43v-47c0-26 15-43 40-43 26 0 38 16 38 39v2h35v-1c0-45-26-72-73-72s-76 27-76 76v45c0 49 29 76 76 76m103-4h35v-78h71v78h35V701h-35v78h-71v-78h-35zm557 0h80v-32h-44V701h-36z"/>
  <path fill="#0151f3" d="M998 894c47 0 73-27 73-71v-4h-35v5c0 22-12 38-38 38-25 0-40-17-40-43v-47c0-26 15-43 40-43 26 0 38 16 38 39v2h35v-1c0-45-26-72-73-72s-76 27-76 76v45c0 49 29 76 76 76m183 0c47 0 78-27 78-76v-45c0-49-31-76-78-76s-78 27-78 76v45c0 49 30 76 78 76m0-32c-27 0-43-17-43-42v-48c0-26 16-43 43-43 26 0 42 17 42 43v48c0 25-16 42-42 42m101 28h78q77 0 78-76v-36q-1-77-78-77h-78v31h25v127h-25zm61-32V734h18q42 1 41 43v38q1 42-41 43zm126 32h36V701h-36zm75 0h35V725h5l37 165h68V701h-35v165h-5l-37-165h-68zm252 4c30 0 38-13 42-22h5v18h33v-96h-80v30h45v3c0 21-12 36-38 36s-41-18-41-44v-47c0-26 15-43 41-43 25 0 38 16 38 36v2h35v-1c0-42-27-69-73-69-47 0-76 27-76 76v45c0 49 30 76 69 76"/>
  <path fill="#000" d="M1333 166c-1 5-2 43 0 51 3 14 15 30 34 36 7 2 152 1 158 1 23-4 37-23 40-38v-50c-5-19-24-37-38-37h-157c-30 7-37 35-37 37"/>
  <path fill="#fff" d="M1429 165q4 0 12 6h21l9-6c17-6 58-4 71 0q6 2 9 8c3 6 1 34-5 47q-4 7-11 11c-8 3-44 6-58-1-8-4-11-10-12-10a101 101 0 0 1-7-34h-14q-2 24-9 37-6 7-17 10c-4 1-40 2-50-2q-7-3-12-11c-5-11-8-39-4-47q4-6 8-8c8-3 47-7 69 0m-64 14c-4 3 2 30 4 35 5 9 43 9 50 3 8-6 13-27 10-36-2-8-59-7-64-2m108 2c0 3 1 21 5 29q1 7 8 8c4 2 19 3 33 1q12 2 15-10c3-9 6-27 3-30s-49-7-64 2"/>
</svg>
