<svg xmlns="http://www.w3.org/2000/svg" width="5000" height="1040" viewBox="0 0 5000 1040">
  <path fill="#000c5e" d="M3981 222c-30 0-42 15-54 43l-149 352h55l44-106h207l44 106h55l-148-352c-11-27-26-43-54-43m281 0c-22 0-48 10-48 46v349h50V298c0-9 6-12 8-12q6 0 11 10l185 295c15 24 30 31 51 31 28 0 47-16 47-49V226h-50v322c0 3 0 9-7 9q-8-1-11-9l-186-298c-10-15-22-28-50-28m-2121 0c-144 0-196 50-196 200s52 200 196 200 195-50 195-200-51-200-195-200m-920 4c-34 0-53 12-53 53v338h52V468h180c79 0 100-45 100-122 0-74-21-120-100-120zm392 0c-36 0-57 17-57 59v332h52V295c0-21 10-26 28-26h139c53 0 60 27 60 76 0 47-4 82-52 82h-95q-23 1-24 19v9c0 10 8 18 15 25l150 137h69l-160-145v-3h63c67 0 89-49 89-124 0-73-23-119-95-119zm939 0c-134 0-166 86-166 195s32 196 163 196h160v-42h-143c-96 0-126-48-126-154s31-152 129-152h134v-43zm262 0c-34 0-55 14-55 55v281c0 39 21 55 55 55h244v-42h-221c-22 0-26-7-26-27V439h239v-43h-239V295c0-20 4-26 26-26h219v-43zm375 0c-62 0-89 36-89 92 0 54 20 81 67 96l155 52c39 13 43 33 43 54 0 34-11 55-41 55h-218v42h233c60 0 81-44 81-97 0-61-29-81-81-98l-148-49c-35-12-37-33-37-54 0-36 15-50 44-50h203v-43zm342 0c-62 0-89 36-89 92 0 54 20 81 67 96l155 52c39 13 43 33 43 54 0 34-11 55-41 55h-219v42h234c60 0 81-44 81-97 0-61-29-81-81-98l-148-49c-35-12-37-33-37-54 0-36 15-50 44-50h203v-43zm1163 0c-34 0-55 14-55 55v281c0 42 21 55 55 55h150c120 0 146-96 146-197s-28-194-154-194zm-2553 38c111 0 140 40 140 158s-29 157-140 157c-112 0-141-39-141-157s29-158 141-158m-896 5h137c54 0 64 26 64 77 0 52-9 80-64 80h-162V294c0-18 3-25 25-25m3472 0h104c97 0 115 67 115 151s-15 155-113 155h-106c-22 0-26-6-26-27V295c0-19 5-26 26-26m-736 1c6 0 10 11 14 19l73 180h-176l75-180c4-8 7-19 14-19"/>
  <path fill="#0fe1e8" d="M383 230c-64 0-115 51-115 114v130h129V359h195v-15c0-63-52-114-115-114z"/>
  <path fill="#2efdd1" d="M511 230c-63 0-115 51-115 114v15h130v211h5c68 0 124 5 124-63V344a114 114 0 0 0-117-114z"/>
  <path fill="#0fe1e8" d="M383 585c-64 0-115 51-115 114v208H54v11c0 65 53 118 118 118h110c64 0 115-51 115-115V585Z"/>
  <path fill="#0082fa" d="M626 4v14c0 64 51 115 115 115h43v322H679c-63 0-114 52-114 115v14h233c64 0 115-51 115-114V119A115 115 0 0 0 795 4Z"/>
  <path fill="#00a3f8" d="M126 455c-59 0-108 46-114 103l-2 21v157c0 64 52 116 116 116h13V584h530c64 0 115-51 115-114v-15z"/>
  <path fill="#00c5fa" d="M125 585c-64 0-115 51-115 115v221c0 64 51 115 115 115h28c64 0 115-51 115-115v-14H139V585Z"/>
  <path fill="#005efa" d="M126 133h658v-14C784 55 733 4 669 4H11v14c0 64 52 115 115 115"/>
</svg>
