<svg xmlns="http://www.w3.org/2000/svg" viewBox="0 0 5000 890">
  <path fill="#fe5000" d="M528 884H314c-44 0-85-24-107-63L26 507c-21-38-21-86 0-124L207 69c22-39 63-63 107-63h360c44 0 85 24 107 63l180 314c22 38 22 86 0 124l-46 75c-22 38-63 62-107 62H594l117-199-109-189H386L277 445z"/>
  <path fill="#fff" d="M2747 250c-73 0-124 43-124 108 0 72 56 93 112 108 47 13 88 28 88 75 0 60-43 72-82 72-47 0-88-21-106-33l-20 38c16 12 68 35 125 35 82 0 131-41 131-114s-55-94-109-111c-50-15-90-29-90-75 0-49 42-63 75-63 37 0 71 17 101 43l26-31c-27-27-74-52-127-52m1684 0c-75 0-161 51-161 203 0 135 62 200 161 200 50 0 95-14 126-35V439h-131v40h86v116c-14 10-47 20-77 20-82 0-119-61-119-166 0-99 43-159 115-159q59 2 95 50l32-27c-39-50-88-63-127-63m509 0c-27 0-51 20-51 51 0 28 21 50 51 50 27 0 50-20 50-50 0-31-23-51-50-51m-1558 0c-78 0-162 52-162 203 0 133 59 200 157 200s159-66 159-200c0-150-71-203-154-203m1558 9c22 0 39 17 39 42 0 24-17 41-39 41-25 0-40-18-40-41 0-25 18-42 40-42m-3735 6v388h99V524h30c93 0 158-45 158-136 0-81-55-123-146-123zm345 0v255c0 93 51 133 150 133 90 0 152-47 152-124V265h-98v252c0 36-22 54-51 54-32 0-54-13-54-57V265Zm374 0v388h99V524h25q20 1 27 22l47 107h105l-52-123q-9-22-25-30c36-22 58-59 58-112 0-81-55-123-144-123zm360 0v388h259v-87h-158v-67h132v-88h-132v-59h154v-87zm633 0v39h113v349h46V304h115v-39zm691 0v388h47V510h82-1c24 0 36 16 46 37l50 106h50l-56-122c-9-19-15-29-27-35 43-19 70-58 70-116 0-76-50-115-133-115zm454 0-137 388h46l41-120h153l43 120h48l-140-388Zm583 0v388h215v-39h-170V475h143v-40h-143V304h166v-39zm275 9v55h10v-23h8l15 23h11l-16-24q14-1 15-15 0-17-21-16zm10 8h11c5 0 12 0 12 7q-1 10-13 9h-10zm-1549 8c87 0 109 95 109 164 0 80-26 160-109 160-94 0-115-86-115-163 0-80 31-161 115-161m274 13h52c67 0 114 7 114 84 0 63-44 86-107 86h-59zm433 3 66 190h-131Zm-2784 38h28c37 0 58 11 58 50 0 41-25 52-63 52h-23zm719 0h27c36 0 57 11 57 50 0 41-24 52-62 52h-22z"/>
</svg>
