<svg xmlns="http://www.w3.org/2000/svg" width="5000" height="2130" viewBox="0 0 5000 2130">
  <path d="M2061 41c-304 16-262 946-262 946s-13 103-56 162-116 101-134 83l112-497h-166s-89 497-186 516c-97 18-69-84-69-188 0-153 20-321-91-335S981 904 981 904s14-111-97-167c-111-55-388 83-388 83 26-117-21-264-153-263-116 7-198 88-277 152l111 111s111-124 166-55c56 69-214 1357-214 1357h167l158-663s361 28 430-56c70-83 125-305 125-305s153-167 139-111c-14 55-28 430 41 444 70 14 209 0 209 0l-169 539-192 16-28 139h319l224-698s101-14 158-45 101-86 143-127c9 69 11 124 97 168 110 57 263 16 329-34 159 104 291-21 291-21s153 139 236 0c229 153 353-6 353-6s11 75 204 88 284-174 284-174c38 48 57 150 150 160s186-50 256-124c53 99 106 107 173 131s197-48 252-85c69 125 274 116 335 23 1 6 16 20 97 47 32-23 41-62 80-114-35-14-105-49-105-49a970 970 0 0 0-149-329l70-152-139-42c-85 185-157 350-215 459-57 110-270 114-312 19 279-209 310-530 69-499-222 28-202 419-202 419s-82 80-193 94 35-495 35-495h-152s-92 362-202 481c-99 107-142 43-169 31-28-14 312-1209 312-1209l-194 1-203 706c-111-2-236-18-347 81-149 140-92 454-264 398-56 13 94-423 94-423-10-71-230-103-339-36-217 134-197 399-238 495-96 45-123 15-161-82 160-187 409-1127 90-1141zm15 224h2c66 6-132 646-132 646-21-7 34-633 127-646zm1760 143c-150 5-118 201-10 213 151 15 159-218 10-213m377 456q15 2 19 16c5 18-119 182-119 182 1-62 28-153 60-179q24-20 40-19m-1029 53q16 1 30 10l-63 280c-14 42-202 76-223-20-19-91 34-162 72-210 32-39 88-56 139-58zm-663 10q16 0 33 6l-71 254c-34 49-127 70-136-1-12-92 69-257 174-259m-1736 0q28 1 48 16c68 59 8 263-62 310-84 56-257 17-257 17l69-265c8 0 123-79 202-78m3894 132c0 1 83 179 69 206-38 69-170-1-162-24z"/>
  <path fill="#fa023c" d="M2006 5c-303 16-262 946-262 946s-12 103-56 162c-43 59-116 102-134 83l113-497h-167s-89 497-186 516c-97 18-69-83-69-187 0-154 21-322-90-335-111-14-230 175-230 175s14-111-97-166c-110-56-388 83-388 83 26-117-21-265-153-264-116 7-198 88-277 153l111 111s111-125 166-56c56 70-213 1358-213 1358h166l158-664s361 28 430-55c70-84 125-306 125-306s153-166 139-111c-14 56-28 430 42 444 69 14 208 0 208 0l-168 540-193 15-28 139h320l224-697s100-15 157-46 102-86 143-127c9 70 12 124 97 168 110 58 263 16 329-34 160 104 291-21 291-21s153 139 236 0c229 153 354-6 354-6s10 75 203 88 285-174 285-174c37 48 57 150 149 160 93 10 186-50 257-123 52 99 106 106 173 130s196-47 251-85c70 126 275 116 335 23 1 6 16 20 97 48 33-24 42-63 80-115-34-14-104-49-104-49a970 970 0 0 0-149-329l69-152-139-42c-85 186-157 350-215 459-57 110-270 114-312 19 279-208 310-529 70-499-223 29-203 420-203 420s-82 79-193 93 35-494 35-494h-152s-92 362-202 480c-99 107-142 43-169 31-28-13 313-1209 313-1209l-195 2-203 706c-111-3-236-19-347 80-149 140-92 454-264 398-55 14 94-423 94-423-10-71-230-103-339-36-217 134-197 399-238 496-96 44-123 15-161-83C2090 959 2339 19 2020 5zm14 225h2c66 5-132 645-132 645-21-7 35-632 128-645zm1760 142c-150 5-118 202-10 213 151 16 160-218 10-213m377 457q15 1 20 15c5 18-120 182-120 182 1-61 28-153 60-179q24-20 40-18m-1029 53q16-1 30 10l-63 279c-14 42-202 76-223-20-19-91 34-161 73-210 31-39 87-56 138-57q29-2 45-2m-663 9q17 0 33 6l-70 254c-35 49-128 70-137-1-11-92 69-256 174-259m-1736 1q28 0 48 16c69 58 8 263-62 309-84 57-256 17-256 17l68-265c8 0 123-79 202-77m3894 131c0 1 84 179 69 206-38 70-169-1-162-24z"/>
</svg>
