<svg xmlns="http://www.w3.org/2000/svg" width="5000" height="1060" viewBox="0 0 5000 1060"><path fill="#fff" d="M2108 227a288 288 0 0 0-199 81q-41 40-65 100-25 61-25 141 0 66 19 123a261 261 0 0 0 158 165q60 24 141 24a606 606 0 0 0 212-38l-23-138q-28 12-74 21-44 9-92 9-72 0-116-31-44-32-50-84h387l4-64q0-152-75-230-74-79-202-79m673 0q-73 0-130 25a292 292 0 0 0-159 169q-21 59-21 123 0 68 18 125a261 261 0 0 0 153 167q60 25 142 25a489 489 0 0 0 173-31l-24-139q-30 12-65 18-36 6-66 6-87 0-122-45t-35-126q0-77 37-123 37-48 113-47 35 0 64 6 28 7 52 16l36-136a428 428 0 0 0-166-33m-2525 2a770 770 0 0 0-131 11 931 931 0 0 0-115 24v793h171V830a317 317 0 0 0 126 26q63 1 113-23 49-22 82-64 33-41 51-98a440 440 0 0 0-4-257q-22-58-62-99-39-40-98-63-58-23-133-23m295 14a3196 3196 0 0 0 226 577q-16 43-42 68-25 24-70 24a264 264 0 0 1-90-16l-30 137a328 328 0 0 0 129 24q48 0 85-11 36-11 64-35 29-23 53-59t48-88q66-142 123-295 56-152 108-326H978a5912 5912 0 0 1-118 397 3010 3010 0 0 1-69-195 4659 4659 0 0 1-60-202Zm632 0q54 181 114 334 60 154 119 268h141q59-114 119-268 60-153 114-334h-176a2701 2701 0 0 1-59 202 4066 4066 0 0 1-66 195q-17-41-33-91a6475 6475 0 0 1-93-306Zm927 125q30 0 50 10a104 104 0 0 1 52 63q7 21 8 42h-226q4-21 11-43 7-21 21-37 15-16 35-25 20-10 49-10m-1855 7q71 0 105 47 36 48 36 127 0 163-121 163a202 202 0 0 1-94-24V380a368 368 0 0 1 74-5"/><path fill="#00a8f8" d="M3589 227q-64 0-118 23a277 277 0 0 0-156 164q-22 59-22 129t22 130 60 100 94 65 120 23q68 0 122-23a268 268 0 0 0 153-165q21-60 21-130 0-71-22-129t-61-100-93-64-120-23m1160 2q-72 0-129 22-58 21-97 60t-60 93-21 121q0 132 67 206 66 74 191 74a302 302 0 0 0 120-25v21q0 50-31 83-30 32-103 32a497 497 0 0 1-184-34l-30 143a684 684 0 0 0 212 35q156 0 231-71 75-72 75-220V264a703 703 0 0 0-113-24 1227 1227 0 0 0-128-11m-502 2q-77-1-139 14-63 14-108 30v570h170V385l34-6a309 309 0 0 1 104 3l54 12 29-141q-13-5-33-9a700 700 0 0 0-111-13m503 136a411 411 0 0 1 70 5v273a185 185 0 0 1-88 23q-116 0-116-143 0-69 33-114 33-44 101-44m-1161 7q59 0 90 45 32 45 32 124t-32 125-90 47-90-47-32-125 32-124 90-45m-454 275q-41 0-74 27-32 27-32 79 0 51 32 78 33 27 74 27 42 0 74-27 33-27 33-78 0-52-33-79t-74-27"/></svg>
