<svg xmlns="http://www.w3.org/2000/svg" viewBox="0 0 5000 1250">
  <path fill="#e9e8e8" d="M2773 3q-14 0-27 10-11 11-10 27v401q-35-61-96-95-64-38-137-37-81-1-150 43-69 45-106 119-40 81-39 170-1 90 39 172 37 74 106 119a273 273 0 0 0 289 3q59-37 93-97v87q0 16 11 27c15 14 39 14 54 0q11-11 11-27V40q0-16-11-27-11-10-27-10m2055 155q-16 0-27 11-12 11-11 27v137h-94a37 37 0 0 0-28 12 34 34 0 0 0 2 48q11 10 26 10h93v420q-3 54 25 99 20 28 52 37 27 7 54 7 26 0 49-12 18-9 20-29 0-12-8-22-8-9-20-9l-18 3-19 3q-24 1-40-17a87 87 0 0 1-18-64V403h88q15 0 26-9 10-10 10-25 0-14-11-24-9-12-25-12h-87V196q0-16-11-27-12-11-28-11M305 310q-81-1-150 43T49 472a390 390 0 0 0 0 340q37 73 106 119a274 274 0 0 0 289 3q59-37 93-97v373q0 16 11 27c15 14 39 14 54 0q11-11 11-27V361q0-15-11-28a38 38 0 0 0-64 28v81q-35-61-96-96-64-37-137-36m4013 4q-70 0-129 35-60 33-97 89v-72a38 38 0 0 0-75 4v560a37 37 0 0 0 75-2V566q0-51 30-91c42-57 109-91 180-91 47-4 93 14 125 50q43 59 41 132v362q-1 16 10 27c15 14 38 14 53 0q12-11 11-27V562c4-65-16-128-54-180q-54-68-170-68m-2565 0a276 276 0 0 0-246 159q-39 81-38 170-1 89 38 170 36 73 104 119a266 266 0 0 0 377-90v86a37 37 0 1 0 74-2V367q0-16-10-27l-1-1a37 37 0 0 0-53 1q-10 11-10 27v77q-34-60-93-94c-44-25-94-37-142-36m1828 0q-78 1-144 40-71 44-109 117-43 84-40 178-2 90 41 171 42 73 115 115 80 42 171 41 67 0 128-32 59-29 101-79 11-11 12-26 0-14-10-22-10-10-22-10-15 0-27 11-31 40-76 63-50 26-108 25-71 1-134-34-58-35-88-93-31-63-31-134h474q15 0 26-10 11-11 11-26 1-86-42-159-40-65-107-101-67-35-141-35M840 324q-15 0-27 10-11 12-10 28v356q0 124 67 191c51 46 118 70 187 66 69 4 137-20 188-66q68-66 68-191V362q1-16-10-28a38 38 0 0 0-54 0q-10 12-10 28v356c3 51-14 101-48 139-36 33-85 50-134 47-49 4-97-14-133-47-34-38-51-88-47-139V362q0-16-10-28-13-10-27-10m1671 55a218 218 0 0 1 200 129q30 63 30 133 0 72-30 136-27 59-82 95-54 34-118 33-63 1-117-34-55-36-82-95-30-64-30-135 0-70 30-133 27-59 82-95 55-34 117-34m-2198 0q64 0 118 35 54 36 82 94 30 63 29 133 1 71-29 135-28 59-82 94-54 34-118 34t-118-34q-53-36-81-94c-40-85-40-183 0-268q28-58 81-94 54-35 118-35m1454 4q63 1 116 34 53 37 81 94 29 62 29 132t-29 134q-28 58-81 95a216 216 0 0 1-313-95q-29-64-28-134-1-71 29-134 28-56 80-92 54-34 116-34m1814 3q50 0 97 21 47 23 78 64 32 43 38 97v10h-428c9-56 37-106 80-142v-1q59-48 135-49"/>
  <path fill="#f04025" d="M3021 2a36 36 0 0 0-35 39 36 36 0 0 0 39 39h214v214a39 39 0 0 0 78 0V41a36 36 0 0 0-39-38h-253zm23 322q-14 0-27 10-12 11-11 27v567q-1 16 11 27c16 14 39 14 55 0q12-11 11-27V361q1-16-11-27-13-10-28-10"/>
</svg>
