<?xml version="1.0" encoding="UTF-8"?>
<!-- Created with Inkscape (http://www.inkscape.org/) -->
<svg id="svg2" width="1156.6" height="289.2" version="1.1" viewBox="0 0 1156.6 289.2" xmlns="http://www.w3.org/2000/svg">
 <g id="g8" transform="matrix(1.3333 0 0 -1.3333 .00039333 289.2)">
  <g id="g10" transform="scale(.1)">
   <path id="path12" d="m733.27 657.36c61.761 40.313 111.15 97.063 142.58 163.82 35.055 73.468 52.727 153.96 51.586 235.35 1.047 80.39-16.625 159.87-51.586 232.24-31.863 66.44-81.16 123.04-142.63 163.74-60.852 39.88-132.31 60.66-205.06 59.7-72.75 1-144.16-19.77-205.06-59.66-61.425-40.64-110.62-97.25-142.39-163.74-68.785-147.93-68.785-318.64 0-466.57 31.715-66.488 80.914-123.14 142.39-163.84 60.903-39.828 132.31-60.57 205.06-59.66 72.652-0.949 143.96 19.453 205.1 58.621m298.2 935.1c12.37-12.76 19.15-30 18.72-47.76v-1479.6c0.53-17.477-6.25-34.348-18.72-46.57-26.6-24.648-67.634-24.648-94.24 0-12.417 12.223-19.105 29.094-18.535 46.57v650.85c-39.261-69.398-95.527-127.63-163.5-169.23-71.504-46.09-154.95-70.258-240.02-69.45-92.758-1.011-183.8 25.079-261.95 75.04-79.243 51.109-143.25 122.71-185.23 207.2-90.66 187.01-90.66 405.25 0 592.3 41.988 84.45 105.99 155.95 185.23 207.06 77.476 49.68 167.8 75.71 259.85 74.8 84.02 0.62 166.65-21.49 239.16-63.95 69.594-39.22 127.2-96.59 166.7-165.99v141.1c-1.098 36.2 27.375 66.53 63.625 67.64 18.441 0.57 36.301-6.65 49.151-19.88l-0.24-0.09" fill="#161717"/>
   <path id="path14" d="m2251.8 1590.9c12.22-12.71 18.81-29.81 18.29-47.43v-621.62c0-144.02-39.55-254.54-118.6-331.73-89.52-80.973-207.74-122.62-328.25-115.69-119.55-6.879-236.77 34.82-325.09 115.69-78.29 77.238-117.41 187.76-117.41 331.73v621.62c-0.52 17.62 6.07 34.72 18.3 47.43 25.89 25.03 67.01 25.03 92.95 0 12.23-12.71 18.82-29.81 18.29-47.43v-621.62c-6.25-88.219 23.31-175.21 82.06-241.36 62.39-58.129 145.97-88.039 231.09-82.679 86.03-5.309 170.48 24.55 234.05 82.679 59.33 65.821 89.33 152.94 83.12 241.36v621.62c-0.58 17.67 6.11 34.77 18.43 47.43 25.89 24.93 66.87 24.93 92.77 0" fill="#161717"/>
   <path id="path16" d="m3262.8 654.87c60.86 40.988 109.34 97.879 140.29 164.37 34.54 73.371 51.88 153.56 50.73 234.62 0.95 79.3-16.43 157.73-50.73 229.23-31.19 66.06-79.67 122.43-140.29 163.17-59.7 39.69-130.06 60.42-201.76 59.47-71.55 0.95-141.77-19.35-201.76-58.42-60.56-39.84-109-95.49-140.14-160.97-34.73-72.46-52.11-151.99-50.73-232.38-1.24-80.909 15.76-161.12 49.68-234.57 30.23-66.602 78.33-123.53 139.04-164.37 123.57-79.329 282.05-79.379 405.67-0.149m293.42 926.32c12.28-12.84 18.92-30.04 18.44-47.76v-972.51c0.96-35.723-27.22-65.481-62.95-66.391-35.73-1-65.49 27.18-66.44 62.899-0.05 1.16-0.05 2.351 0 3.492v144.87c-38.88-67.82-94.67-124.42-161.88-164.35-70.41-44.191-151.94-67.363-235.1-66.832-92.28-1.238-182.85 25.129-260.08 75.672-77.96 51.629-140.58 123.33-181.23 207.49-44.85 92.179-67.4 193.64-65.82 296.14-1.72 102.32 21.26 203.48 66.87 295 41.18 83.35 104.18 153.95 182.28 204.39 149.88 93.81 339.18 97.97 493.03 10.75 68.5-38.31 124.62-95.29 161.88-164.37v133.89c-0.53 17.73 6.02 34.92 18.25 47.77 25.17 25.6 66.34 25.93 91.9 0.81 0.28-0.29 0.57-0.52 0.81-0.81l0.04-0.15" fill="#161717"/>
   <path id="path18" d="m4562.2 655.11c61.85 40.653 111.24 97.59 142.57 164.55 35.11 73.801 52.74 154.72 51.59 236.4 1.1 80.67-16.58 160.44-51.59 233.14-31.81 66.68-81.05 123.52-142.57 164.45-125 79.96-285.07 79.96-410.07 0-61.53-40.88-110.73-97.72-142.39-164.45-35.11-72.65-52.74-152.47-51.59-233.14-1.34-81.451 16.34-161.98 51.59-235.35 31.62-66.77 80.86-123.66 142.39-164.59 60.8-39.941 132.21-60.851 205.06-59.902 72.64-0.949 143.91 19.531 204.96 58.84zm298.19 1495.1c12.52-12.32 19.26-29.28 18.78-46.81v-1541.8c0.48-17.476-6.26-34.476-18.78-46.797-26.55-24.699-67.68-24.699-94.19 0-12.47 12.321-19.2 29.321-18.58 46.797v152.62c-39.16-69.648-95.48-128.1-163.55-169.95-71.41-46.289-154.9-70.551-239.97-69.738-92.76-1.102-183.8 24.976-261.95 74.949-79.34 51.437-143.29 123.37-185.23 208.16-46.24 92.617-69.6 195.03-68.02 298.53-1.39 102.7 21.92 204.3 68.02 296.15 41.89 84.78 105.89 156.67 185.23 208.11 77.43 49.91 167.75 76.04 259.89 75.14 84.02 0.62 166.71-21.59 239.12-64.25 69.64-39.45 127.3-97.1 166.75-166.75v698.81c-0.63 17.53 6.11 34.49 18.52 46.81 26.57 24.74 67.69 24.74 94.25 0h-0.29" fill="#161717"/>
   <path id="path20" d="m5334.4 509.72c-27.75-24.41-69.3-24.41-97.06 0-12.75 11.992-19.68 28.801-19.15 46.242v989.08c-0.48 17.48 6.45 34.34 19.15 46.33 27.76 24.36 69.31 24.36 97.06 0 12.76-11.99 19.68-28.85 19.11-46.33v-989.08c0.57-17.441-6.35-34.301-19.11-46.242" fill="#f04025"/>
   <path id="path22" d="m5760.2 2101c3.15 34.3-22.07 64.63-56.36 67.78-3.77 0.34-7.6 0.34-11.42 0h-440.5c-34.25 3.16-64.57-22.06-67.77-56.36-0.33-3.77-0.33-7.59 0-11.42-3.16-34.29 22.07-64.62 56.36-67.77 3.82-0.34 7.64-0.34 11.41 0h372.58v-372.58c0-37.44 30.38-67.78 67.77-67.78 37.45 0 67.79 30.34 67.79 67.78l0.14 440.35" fill="#f04025"/>
   <path id="path24" d="m5985.2 1414.6c-74.94-63.05-124.28-151.42-138.46-248.38h743.99v17.24c-6.02 61.43-28.61 120.09-65.34 169.67-35.59 47.57-82.4 85.5-136.38 110.29-52.92 24.79-110.67 37.68-169.18 37.78-85.88-0.57-168.8-31.14-234.53-86.46zm721.31-346.97c-12.27-11.89-28.76-18.48-45.81-18.39h-824.71c-1.34-80.63 16.95-160.34 53.44-232.28 34.59-67.551 87.56-123.8 152.85-162.41 71.32-40.883 152.43-61.383 234.54-59.411 65.14-1.113 129.54 13.797 187.61 43.27 52.12 26.23 97.59 63.867 132.98 110.19 12.57 11.622 28.76 18.543 45.81 19.551 14.95-0.148 29.14-6.41 39.32-17.301 10.99-9.976 17.33-24.066 17.58-38.929-0.77-17.481-8.66-33.91-21.84-45.379-48.39-57.738-108.18-104.89-175.63-138.51-69.12-35.73-145.87-54.223-223.73-54.07-103.37-2.102-205.54 22.449-296.67 71.297-84.41 46.39-153.95 115.75-200.62 200-49.48 91.281-74.37 193.88-72.18 297.68-2.48 107.66 21.89 214.22 70.79 310.14 42.85 83.92 108.24 154.28 188.72 203.24 75.62 45.95 162.46 70.22 250.87 70.17 85.6 0.43 169.99-20.35 245.56-60.52 77-41.03 141.44-102.31 186.24-177.21 49.73-83.64 75.42-179.41 74.28-276.71 0.13-16.86-6.97-33-19.45-44.32l0.05-0.1" fill="#161717"/>
   <path id="path26" d="m7800.4 1508.3c66.82-90.47 100.3-201.28 94.62-313.63v-638.05c0.48-17.617-6.64-34.578-19.63-46.52-25.85-24.699-66.44-24.699-92.28 0-12.33 12.231-19.02 29.141-18.39 46.52v631.56c3.72 82.25-21.26 163.21-70.79 228.99-54.94 62-135.81 94.57-218.43 87.89-123.67-0.62-239.69-59.8-312.87-159.49-33.82-45.47-52.06-100.69-52.11-157.39v-631.56c0.95-36.008-27.46-65.957-63.43-66.91-35.97-1.008-65.97 27.41-66.97 63.383v975.8c-1.67 36.01 26.13 66.54 62.15 68.26 36.01 1.67 66.53-26.18 68.25-62.14 0.1-2.01 0.1-4.07 0-6.12v-119.41c42.13 65.05 100.07 118.46 168.33 155.19 68.3 39.93 145.87 61.23 224.92 61.9 134.75 0 233.67-39.4 296.63-118.27" fill="#161717"/>
   <path id="path28" d="m8459.6 1471.4v-724.74c-4.78-39.789 6.49-79.859 31.14-111.4 17.24-19.91 42.7-30.711 68.98-29.18 11.31 0.391 22.53 2.149 33.42 5.41 10.13 3 20.64 4.821 31.15 5.301 13.37 0.039 25.98-5.934 34.54-16.203 9.35-10.359 14.52-23.828 14.32-37.828-1.43-22.352-15.23-41.992-35.72-50.832-25.94-14.18-55.18-21.289-84.74-20.528-31.43-0.48-62.81 3.149-93.34 10.848-36.58 10.891-68.39 33.77-90.37 64.859-33.34 51.25-48.62 112.15-43.61 173.05v731.24h-162.45c-16.91-0.38-33.34 5.88-45.75 17.34-23.94 22.21-25.33 59.52-3.11 83.45 0.96 1.05 2 2.1 3.11 3.11 12.46 11.46 28.84 17.62 45.75 17.23h162.74v240.17c-0.43 17.53 6.5 34.44 19.15 46.57 27.23 24.51 68.55 24.51 95.82 0 12.66-12.13 19.58-29.04 19.11-46.57v-240.17h152.32c16.62-0.14 32.43-7.16 43.56-19.48 11.95-11.27 18.87-26.89 19.15-43.28 0.63-16-5.91-31.42-17.76-42.17-12.27-10.94-28.28-16.77-44.71-16.2h-152.7" fill="#161717"/>
  </g>
 </g>
</svg>
