<svg xmlns="http://www.w3.org/2000/svg" xml:space="preserve" width="5000" height="1870" viewBox="0 0 5000 1870">
  <path fill="#00b4cd" d="M2070 829a306 306 0 0 0-61-77q-64-61-161-105a1297 1297 0 0 0-180-67 1074 1074 0 0 0 36-255q1-95-27-171a230 230 0 0 0-100-122q-26-15-55-22-28-6-57-7-48 1-96 15-85 27-171 89a1116 1116 0 0 0-143 120l-18-16Q934 116 837 62q-48-28-97-42a350 350 0 0 0-95-15 231 231 0 0 0-113 28 211 211 0 0 0-59 52q-37 48-52 110-16 60-15 132 1 85 19 178 7 38 17 77l-28 8a911 911 0 0 0-281 135 360 360 0 0 0-88 94 225 225 0 0 0-35 118q2 56 27 104a306 306 0 0 0 60 77q65 61 161 105a1297 1297 0 0 0 180 67 1074 1074 0 0 0-36 255q0 95 28 171a230 230 0 0 0 99 122q26 15 55 22t57 7q49-1 96-15 85-27 171-89a1116 1116 0 0 0 144-120l17 17q103 95 200 149 49 28 97 42a350 350 0 0 0 95 15 231 231 0 0 0 113-29 211 211 0 0 0 60-52q35-47 51-109 16-61 15-132-1-84-19-179-7-36-17-76l27-8q173-53 282-135a360 360 0 0 0 88-94 225 225 0 0 0 35-117q2-57-27-106zm-738-655a367 367 0 0 1 72-32 190 190 0 0 1 84-6q11 2 20 8 13 7 23 20 18 20 28 60a409 409 0 0 1 11 99q0 69-17 156l-15 70-42-9q-97-16-201-27-74-105-153-192 8-8 17-14a936 936 0 0 1 173-133zm130 607-36-63-57 33 57-33-37-63q16 1 33 6l79 13a1043 1043 0 0 1-39 107m0 307q22 55 39 106l-30 6-82 13q19-29 37-63 20-31 36-62m-149-3q-43 77-90 145a2297 2297 0 0 1-342 0 1971 1971 0 0 1-90-145q-43-75-81-151a2574 2574 0 0 1 171-296 2301 2301 0 0 1 342 0 1971 1971 0 0 1 90 145q44 76 81 151-37 76-81 151m-261 368-22-24-50-64 72 2q38 0 72-2zm-411-365 36 63 37 63-33-6-79-13q14-45 33-90 2-9 6-17m35-370q-19 32-35 64-22-56-40-107l30-5q41-8 82-14zm376-303 22 25 51 63-73-1-72 1q35-47 72-88zm-503 64q-17-86-17-156a338 338 0 0 1 20-124q9-22 19-35a81 81 0 0 1 44-28 168 168 0 0 1 83 7q59 18 135 71 62 42 129 106l-32 35a2093 2093 0 0 0-121 157 2193 2193 0 0 0-243 37zm-340 562a243 243 0 0 1-56-58l-13-26q-3-11-4-24-1-19 12-42 11-19 36-45 44-42 127-82a1009 1009 0 0 1 162-59q17 54 38 108a1794 1794 0 0 0 52 122 2039 2039 0 0 0-90 229l-26-8a751 751 0 0 1-238-114Zm562 654a367 367 0 0 1-72 31 190 190 0 0 1-84 7q-11-2-20-8-13-7-24-20a151 151 0 0 1-27-60 409 409 0 0 1-11-100q-1-68 17-155l15-70 42 8q96 17 201 27 74 106 153 192l-17 15a891 891 0 0 1-173 133zm784-306q17 86 17 156a338 338 0 0 1-19 124q-9 23-19 35a81 81 0 0 1-44 29 168 168 0 0 1-83-8q-58-18-136-70a1198 1198 0 0 1-128-106l31-36a2093 2093 0 0 0 122-156 2193 2193 0 0 0 243-38q10 38 16 70m399-412a189 189 0 0 1-36 45 492 492 0 0 1-127 83 1009 1009 0 0 1-161 58q-17-53-38-107a1794 1794 0 0 0-52-122 2039 2039 0 0 0 90-229l26 8q158 50 239 113a243 243 0 0 1 56 58l13 26q3 12 4 24-2 19-14 43zm2665 462 96-33c16 49 45 71 98 71 40 0 71-16 71-41 0-24-22-35-91-50-88-19-147-61-147-138s76-124 154-124c82 0 136 38 169 97l-76 52a98 98 0 0 0-92-59c-29 0-56 14-56 37 0 20 14 35 78 48 101 20 159 52 159 130 0 89-79 138-173 138-86 2-157-33-190-128m-463-40v-345h-111v-91h217v413c0 74 32 90 65 90 45 0 65-31 73-73l93 19c-16 105-77 156-165 156-100 1-172-61-172-169m-613-268h107v66a179 179 0 0 1 149-73c77 0 130 52 135 148h-105c-1-49-27-62-54-62-69 0-125 89-125 220v131h-108zm-523 340h133v-249h-111v-91h219v340h133v91h-374zm113-465c0-38 29-68 68-68a68 68 0 0 1 69 68c0 38-29 69-69 69a68 68 0 0 1-68-68zm-647 595a114 114 0 0 1 34-86 100 100 0 0 1-22-66c0-41 21-72 53-91q-29-34-29-89c0-90 70-145 159-145q43 0 79 19l81-44 42 70-61 30q18 31 17 69c0 91-71 143-158 143q-35 0-63-9a37 37 0 0 0-20 32q1 32 40 32h88c91 0 151 43 151 127 0 106-100 148-196 148-110 2-195-45-195-140m285 0c0-36-29-45-70-45h-58q-26 0-49-3a76 76 0 0 0-10 39c0 41 41 61 97 61 51 1 91-13 91-52zm-31-332c0-36-26-60-59-60-34 0-59 24-59 60 0 35 25 58 59 58s59-23 59-58m1950-736V367h-107v-91h107V168l107-66v174h188v91h-190v168c0 60 27 87 71 87 30 0 58-13 88-50l36 85a169 169 0 0 1-124 56c-112 0-176-60-176-180m-623-42c0-121 75-223 207-223q134-1 188 120l-91 38c-23-52-54-67-96-67-59 0-102 48-102 132s43 132 102 132c42 0 73-15 96-67l91 38q-52 121-187 120c-133-1-208-102-208-223zm-508 91c0-85 75-141 183-141h73v-19c0-47-36-69-75-69-30 0-61 15-75 60l-90-25a166 166 0 0 1 165-119c102 0 177 43 177 180v258h-83l-11-55a160 160 0 0 1-133 61c-74 0-131-45-131-131m256-51v-10h-78c-50 0-81 19-81 61 0 22 16 46 49 46 52-1 110-37 110-97m-812-40c0-102 59-223 207-223 144 0 201 120 201 213v43h-303a106 106 0 0 0 109 97c49 0 83-27 105-61l85 45a212 212 0 0 1-197 107c-148 1-207-119-207-221zm308-46c-10-46-39-88-101-88-60 0-94 43-102 88zm-841-337h219c119 0 182 71 182 171 0 79-39 138-112 160l165 269h-124l-161-259h-58v258h-111zm219 238c40 0 69-19 69-67s-29-67-69-67h-109v135z"/>
</svg>
