<svg xmlns="http://www.w3.org/2000/svg" viewBox="0 0 1323 265">
  <path fill="#5b5656" d="m133 0-4 2-46 46V27q0-4-5-4H61q-3 0-4 4v47L4 126q-3 4 0 8l9 9q4 3 8 0l4-5v118q1 8 8 8h105s4-259-5-264" paint-order="stroke markers fill"/>
  <path fill="#5abf71" d="M133 0v264h99q7 0 8-8V138l5 5q4 3 8 0l8-9q5-3 0-8L137 2z" paint-order="stroke markers fill"/>
  <path fill="#fff" d="M84 227V111a5 5 0 0 1 5-5h57a36 36 0 0 1 16 6l12 11a44 44 0 0 1 2 49l-10 11q-4 3-1 7l22 38a3 3 0 0 1-3 5h-21a9 9 0 0 1-8-5l-19-32a9 9 0 0 0-8-4h-9a5 5 0 0 0-6 5v30a5 5 0 0 1-5 6H89a5 5 0 0 1-5-6m35-61h16l10-1 5-5 2-7v-10l-4-8q-2-2-7-3l-7-1h-15a5 5 0 0 0-6 6v24a5 5 0 0 0 6 5" style="font-variation-settings:&quot;wght&quot;800"/>
  <path fill="#fff" d="M480 118q0 40-31 51l41 59h-45l-36-52h-26v52h-37V64h63q38 0 54 13 17 12 17 41m-70 26q19 0 26-6 6-6 6-20 0-13-7-18t-24-5h-28v49zm226-80v32h-82v34h74v31h-74v35h85v32H517V64Zm111 132q27 0 44-22l24 24q-28 32-66 32t-63-24-24-61 24-61q26-24 62-24 40 0 68 31l-23 26q-18-22-43-22-21 0-36 14-15 13-15 36t14 37 34 14M913 95v133h-36V95h-47V64h130v31zm195 50q0-22-14-38-14-15-35-15-20 0-35 15-14 16-14 38t14 37 35 16 35-16 14-37m12 60q-25 25-61 25t-61-25-25-60q0-36 25-61 25-24 61-24t61 24 25 61-25 60m190-87q0 40-31 51l41 59h-45l-36-52h-26v52h-37V64h63q38 0 54 13 17 12 17 41m-70 26q19 0 26-6 6-6 6-20 0-13-7-18t-24-5h-28v49z" font-family="Montserrat" font-size="31.8" font-weight="700"/>
</svg>
