<svg xmlns="http://www.w3.org/2000/svg" fill="none" width="5000" height="1180" viewBox="0 0 5000 1180">
  <path fill="#e00" d="M1043 679c102 0 250-21 250-142l-3-27-61-264c-14-58-26-84-128-135C1022 71 850 4 800 4c-48 0-62 61-118 61-54 0-95-46-146-46-48 0-80 34-105 102l-77 221q-2 8-2 16c0 75 296 321 691 321zm265-92c14 66 14 73 14 82 0 114-128 177-296 177-381 0-714-223-714-370q0-31 12-60c-137 7-314 32-314 188 0 256 607 572 1088 572 368 0 461-167 461-298 0-104-89-221-251-291"/>
  <path fill="#000" d="M1308 587c14 66 14 73 14 82 0 114-128 177-296 177-381 0-714-223-714-370q0-31 12-60l30-73-2 15c0 75 296 321 691 321 102 0 250-21 250-142q0-14-3-28zM4725 755c0 97 58 144 164 144q49-1 97-14V773q-31 10-63 10c-43 0-60-14-60-55V556h127V440h-127V294l-138 30v116h-92v116h92zm-432 3c0-30 30-45 76-45q41 0 82 11v58q-41 22-87 21c-44 0-71-17-71-45m43 143q71 1 125-35v27h137V603c0-111-75-171-199-171q-102 0-212 50l50 101q79-34 137-35 86 0 86 67v22q-50-13-102-12c-117 0-187 48-187 136 0 79 63 140 164 140zm-753-8h147V659h247v234h147V294h-147v230h-246V294h-147Zm-560-227c0-65 51-114 119-114q54-1 95 35v158a133 133 0 0 1-95 36c-67 0-119-49-119-114zm216 227h137V264l-138 30v170q-53-30-116-30a231 231 0 0 0-235 232 230 230 0 0 0 231 233q67-1 121-39zm-628-348c43 0 80 28 95 72h-189c13-45 48-72 94-72m-234 122c0 132 108 235 247 235 76 0 131-21 189-69l-92-81q-33 33-90 34a117 117 0 0 1-112-72h323v-34c0-144-97-247-229-247a233 233 0 0 0-236 234zm-239-247c49 0 77 30 77 67s-28 68-77 68h-145V420Zm-293 473h148V675h112l113 218h165l-132-240a181 181 0 0 0 113-168c0-108-85-191-212-191h-307z"/>
</svg>
