<svg xmlns="http://www.w3.org/2000/svg" viewBox="0 0 35000 6000">
  <path fill="#fff" d="M12970 0a2721 2721 0 0 0-2716 2716 2721 2721 0 0 0 2716 2716 2721 2721 0 0 0 2716-2716A2721 2721 0 0 0 12970 0m0 1071c906 0 1645 739 1645 1645s-739 1645-1645 1645-1646-739-1646-1645 740-1645 1646-1645M19766 4363h1076v1076h-1076zM30283 5425V4343h-2283l2270-4186c39-65-13-150-92-150h-3956v1043h2316l-2296 4225c-40 65 13 150 91 150zM25087 3864a1661 1661 0 0 1-1266 486 1654 1654 0 0 1-1535-1555 1643 1643 0 0 1 1640-1719c452 0 866 184 1161 485l761-754a2706 2706 0 0 0-2139-787 2721 2721 0 0 0-2486 2519 2711 2711 0 0 0 2703 2886c748 0 1430-308 1915-800zM17195 5439V1069h-1516V13h4087v1056h-1508v4370zM7164 7a2716 2716 0 0 0-2716 2709 2716 2716 0 0 0 5432 7A2721 2721 0 0 0 7164 7m0 1067c906 0 1645 739 1645 1645s-739 1646-1645 1646-1646-740-1646-1646 740-1645 1646-1645M2926 5465 1909 3425h-846v2046H0V39h2381c932 0 1686 761 1686 1693 0 669-393 1279-1003 1548l-33 13 1082 2178H2926ZM1063 2362h1318a630 630 0 0 0 0-1260H1063Z"/>
  <path fill="#f04c23" d="M31044 4894h3936v1076h-3936z"/>
</svg>
