<svg xmlns="http://www.w3.org/2000/svg" viewBox="0 0 5000 1330">
  <defs>
    <linearGradient id="a" x1="21.1" x2="44.6" y1="30.4" y2="30.4" gradientTransform="matrix(43 0 0 43 10 -2)" gradientUnits="userSpaceOnUse">
      <stop offset="0%" stop-color="#00eee9"/>
      <stop offset="100%" stop-color="#00eb86"/>
      <stop offset="100%" stop-color="#00eb82"/>
    </linearGradient>
  </defs>
  <path fill="white" d="M2339 1c-193 1-285 125-285 325 0 366 434 394 434 684 0 117-48 185-152 185s-153-68-153-185v-82h-135v74c0 197 93 325 291 325 199 0 294-128 294-325 0-366-437-394-437-685 0-116 45-184 149-184s148 68 148 185v43h138v-35c0-196-92-324-288-325zm691 0c-194 1-286 125-286 325 0 366 434 394 434 684 0 117-48 185-152 185s-152-68-152-185v-82h-136v74c0 197 93 325 292 325 198 0 293-128 293-325 0-366-436-394-436-685 0-116 44-184 148-184s149 68 149 185v43h137v-35c0-196-92-324-287-325zM300 11H10v1301h145V756h102c121 0 189 46 189 193v205c0 87 8 121 24 158h147c-24-45-26-99-26-156V953c0-139-45-236-163-271 111-36 161-125 161-268V308c0-193-85-297-289-297m3144 3v986c0 197 90 329 288 329h3c199 0 290-132 290-329V14h-136v994c0 117-46 187-150 187-106 0-152-70-152-187V14Zm722 0v1300h126V277l215 1035h140l206-1044v1046h137V14h-202l-206 1038L4368 14ZM155 143h141c108 0 150 61 150 178v125c0 141-69 178-184 178H155Z"/>
  <path fill="url(#a)" d="M1327 141a520 520 0 1 0 1 1040 520 520 0 0 0-1-1040m0 1175a656 656 0 1 1 2-1312 656 656 0 0 1-2 1312"/>
</svg>
