<svg xmlns="http://www.w3.org/2000/svg" width="5000" height="1520" viewBox="0 0 5000 1520">
  <path d="M524 3 80 447a86 86 0 0 0 0 122l444 443h193L212 508 717 3Zm1954 19c-75-4-114 33-114 102v5h-38v53h38v200h55V182h59v-53h-59v-5q0-54 59-49zm128 37-54 16v54h-46v53h46v121c0 66 34 89 117 79v-49c-41 2-63 2-63-30V182h63v-53h-63zm-440 59a135 135 0 0 0-99 232 128 128 0 0 0 95 38 135 135 0 0 0 4-270m1571 5a127 127 0 0 0-96 38 138 138 0 0 0 0 190 136 136 0 0 0 100 37 124 124 0 0 0 110-55l-45-26a75 75 0 0 1-65 31c-42 0-73-21-81-59h201l2-23a135 135 0 0 0-36-94 118 118 0 0 0-90-39m-506 0a118 118 0 0 0-88 38 139 139 0 0 0 0 189 118 118 0 0 0 88 38 102 102 0 0 0 89-43v37h54V130h-54v35a103 103 0 0 0-89-42m-1333 0a111 111 0 0 0-72 21 68 68 0 0 0-26 56c-1 53 50 68 88 78 27 6 48 16 48 32q0 28-43 28a53 53 0 0 1-56-36l-47 27c16 37 53 59 103 59a116 116 0 0 0 70-20 67 67 0 0 0 28-57c1-54-49-70-88-79-26-8-47-16-47-33s16-27 36-27a48 48 0 0 1 48 29l46-25a111 111 0 0 0-88-53m1681 2q-57 0-78 47v-43h-54v253h54V255a63 63 0 0 1 23-56 79 79 0 0 1 55-15zm-871 5 79 252h54l53-170 52 170h54l79-252h-58l-49 174-52-174h-52l-53 174-49-174zm1028 42a70 70 0 0 1 72 62h-148a73 73 0 0 1 76-62m-502 3a82 82 0 0 1 63 23 78 78 0 0 1 23 58 80 80 0 0 1-23 58 78 78 0 0 1-57 22 78 78 0 0 1-57-22 80 80 0 0 1-23-58 78 78 0 0 1 23-58 82 82 0 0 1 51-23m-1078 1a80 80 0 0 1 62 23 83 83 0 0 1 0 114 76 76 0 0 1-56 22 76 76 0 0 1-56-22 83 83 0 0 1 0-114 80 80 0 0 1 50-23M597 508l504 504-504 505h193l444-444a86 86 0 0 0 0-122L790 508Zm2399 10v368h54V518Zm-991 15v137a103 103 0 0 0-88-43 118 118 0 0 0-89 39 139 139 0 0 0 0 188 118 118 0 0 0 89 38 102 102 0 0 0 88-42v36h55V533Zm2877 30-54 16v55h-46v52h46v121c0 66 34 89 117 79v-49c-41 2-63 3-63-30V686h63v-52h-63zm-1636 59a135 135 0 0 0-99 232 128 128 0 0 0 95 39 135 135 0 0 0 4-271m-435 5a127 127 0 0 0-96 39 138 138 0 0 0 0 189 136 136 0 0 0 100 37 124 124 0 0 0 110-55l-45-26a75 75 0 0 1-65 32c-42 0-72-22-80-60h200l2-23a135 135 0 0 0-35-94 118 118 0 0 0-91-39m1078 0a81 81 0 0 0-72 37v-30h-54v252h54V745c0-44 23-67 56-67q47 1 48 55v153h54V745c0-45 21-67 55-67 30 0 49 20 49 55v153h54V730h1c0-63-39-103-96-103a84 84 0 0 0-77 40 77 77 0 0 0-72-40m-311 0a102 102 0 0 0-88 43v-36h-55v353h55V850a103 103 0 0 0 88 42 118 118 0 0 0 89-38 139 139 0 0 0 0-188 119 119 0 0 0-89-39m-1326 0a127 127 0 0 0-96 39 138 138 0 0 0 1 189 136 136 0 0 0 99 38 124 124 0 0 0 111-55l-45-27a75 75 0 0 1-65 32c-42 0-73-22-81-60h201l2-23a135 135 0 0 0-36-94 118 118 0 0 0-91-39m2068 0a127 127 0 0 0-96 39 138 138 0 0 0 1 189 136 136 0 0 0 99 38 124 124 0 0 0 111-55l-45-27a75 75 0 0 1-65 32c-42 0-73-22-81-60h201l2-23a135 135 0 0 0-36-94 118 118 0 0 0-91-39m307 0a86 86 0 0 0-67 39v-32h-55v252h55V751c0-49 26-73 64-73q54 1 56 59v149h55V731c0-64-39-104-97-104zm-2230 7 98 252h64l98-252h-60l-70 191-70-191zm413 43a70 70 0 0 1 72 62h-148a73 73 0 0 1 76-62m-558 0a70 70 0 0 1 72 62h-149a73 73 0 0 1 77-62m2068 0a70 70 0 0 1 72 62h-148a73 73 0 0 1 76-62m-2400 2a82 82 0 0 1 63 23 78 78 0 0 1 22 58 80 80 0 0 1-22 58 78 78 0 0 1-57 23 78 78 0 0 1-57-23 80 80 0 0 1-23-58 78 78 0 0 1 23-58 82 82 0 0 1 51-23m1644 0a82 82 0 0 1 62 23 78 78 0 0 1 23 58 80 80 0 0 1-23 58 78 78 0 0 1-57 23 78 78 0 0 1-57-23 80 80 0 0 1-22-58 78 78 0 0 1 22-58 82 82 0 0 1 52-23m-328 1a80 80 0 0 1 62 23 83 83 0 0 1 0 114 76 76 0 0 1-56 23 76 76 0 0 1-56-23 83 83 0 0 1 0-114 80 80 0 0 1 50-23m-298 357v137a103 103 0 0 0-88-42 118 118 0 0 0-89 38 139 139 0 0 0 0 189 118 118 0 0 0 89 38 102 102 0 0 0 88-43v36h55v-353zm560 95a81 81 0 0 0-72 36v-30h-55v252h55v-141c0-44 23-67 56-67 30 0 47 21 47 55v153h55v-141c0-44 21-67 55-67 30 0 49 21 49 55v153h54v-156c0-63-38-102-95-102a84 84 0 0 0-77 39 77 77 0 0 0-72-39m-1581 0a118 118 0 0 0-89 38 139 139 0 0 0 0 189 118 118 0 0 0 89 38 102 102 0 0 0 88-43v36h55v-252h-55v36a103 103 0 0 0-88-42m606 0a118 118 0 0 0-89 38 139 139 0 0 0 0 189 118 118 0 0 0 89 38 102 102 0 0 0 88-43v36h54v-252h-54v36a103 103 0 0 0-88-42m664 0a127 127 0 0 0-96 38 138 138 0 0 0 0 190 136 136 0 0 0 100 37 124 124 0 0 0 110-55l-45-26a75 75 0 0 1-65 31c-42 0-72-21-80-60h200l2-22a135 135 0 0 0-36-95 118 118 0 0 0-90-38m-934 0a129 129 0 0 0-95 38 128 128 0 0 0-38 94 129 129 0 0 0 38 95 129 129 0 0 0 95 38 127 127 0 0 0 114-66l-47-26a74 74 0 0 1-67 39 76 76 0 0 1-56-23 83 83 0 0 1 0-113 76 76 0 0 1 56-23 70 70 0 0 1 66 39l47-27a124 124 0 0 0-113-65m1524 6 107 248-3 5q-18 52-67 49v51q87 6 123-92l97-261h-58l-65 183-75-183zm-591 43a70 70 0 0 1 72 62h-148a73 73 0 0 1 76-62m-1266 3a82 82 0 0 1 63 23 78 78 0 0 1 22 57 80 80 0 0 1-22 58 78 78 0 0 1-57 23 78 78 0 0 1-57-23 80 80 0 0 1-23-58 78 78 0 0 1 23-57 82 82 0 0 1 51-23m605 0a82 82 0 0 1 63 23 78 78 0 0 1 23 57 80 80 0 0 1-23 58 78 78 0 0 1-57 23 78 78 0 0 1-57-23 80 80 0 0 1-23-58 78 78 0 0 1 23-57 82 82 0 0 1 51-23m328 0a82 82 0 0 1 63 23 78 78 0 0 1 22 57 80 80 0 0 1-22 58 78 78 0 0 1-57 23 78 78 0 0 1-57-23 80 80 0 0 1-23-58 78 78 0 0 1 23-57 82 82 0 0 1 51-23"/>
</svg>
