<svg xmlns="http://www.w3.org/2000/svg" viewBox="0 0 5000 790">
  <path fill="#ff9200" fill-rule="evenodd" d="M238 637c146 0 235-72 235-184 0-96-55-147-182-174l-68-14q-114-24-112-91v-1c0-53 49-90 126-90 73 0 122 34 131 92v6h93v-8C454 70 366 0 238 0 108 0 15 72 15 177v1q-1 136 179 172l67 14c82 18 115 45 115 95 0 58-52 95-134 95-83 0-139-35-148-92l-1-6H0v7c8 108 100 174 238 174m501-1c109 0 178-65 193-137l1-4h-88l-1 3c-12 34-48 62-103 62-73 0-120-50-121-135h318v-31c0-135-77-225-203-225s-208 94-208 234v1c0 141 80 232 212 232m-4-392c60 0 104 38 112 116H621c8-75 54-116 114-116m442 392c65 0 114-33 141-85h2v76h92V10h-92v244h-2c-27-53-78-85-142-85-113 0-187 89-187 232v1c0 143 74 234 188 234m24-80c-73 0-117-58-117-154v-1c0-94 45-153 117-153 70 0 119 60 119 153v1c0 93-49 154-119 154m309 71h92V10h-92zm319 8c60 0 112-31 138-79h2v71h92V317c0-90-69-148-179-148-111 0-178 59-184 136l-1 5h87l1-4c8-36 41-61 94-61 57 0 90 30 90 80v33l-123 8c-106 6-167 54-167 132v1c0 81 61 136 150 136m-57-138v-1q2-58 87-66l110-7v35c0 59-50 103-115 103-49 0-82-25-82-64m384 130h92V465l38-38 153 200h107l-192-256 185-194h-109l-180 192h-2V10h-92zm607 9c129 0 213-89 213-234v-1c0-144-85-232-213-232s-213 89-213 232v1c0 144 84 234 213 234m1-78c-72 0-119-57-119-156v-1c0-98 47-155 118-155 72 0 119 57 119 155v1c0 99-46 156-118 156m391 69h99l161-450h-96l-113 359h-2l-113-359h-98zm363-519a53 53 0 1 0 0-106c-30 0-54 24-54 53s24 53 54 53m-47 519h93V177h-93zm241 6c31 0 55-25 55-56 0-32-24-56-55-56-32 0-57 24-57 56 0 31 25 56 57 56m313 3c128 0 213-89 213-234v-1c0-144-86-232-214-232s-213 89-213 232v1c0 144 85 234 214 234m0-78c-72 0-119-57-119-156v-1c0-98 47-155 118-155 72 0 119 57 119 155v1c0 99-46 156-118 156m284 69h92V359c0-67 37-106 96-106 18 0 35 2 42 5v-86q-11-2-32-3c-51 0-89 33-104 85h-2v-77h-92zm465 158c127 0 206-68 206-171V177h-93v77h-2c-26-51-76-85-139-85-114 0-189 88-189 229s74 229 187 229c64 0 116-31 141-80h2v62c0 62-40 102-114 102-57 0-96-20-109-49l-1-3h-92l1 4c13 69 86 122 202 122m-4-233c-73 0-119-58-119-152v-1c0-92 46-151 119-151 70 0 117 59 117 151v1c0 92-47 152-117 152" aria-label="Sedlakovi.org" font-family="SF Pro Display" font-size="36" font-weight="500" style="-inkscape-font-specification:&quot;SF Pro Display Medium&quot;"/>
</svg>
