<svg xmlns="http://www.w3.org/2000/svg" aria-label="Logo Seznam Zprávy" class="e_Z atm-icon__logo" width="4982" height="738" viewBox="0 0 4982 738">
  <path fill="#382c2c" d="m3897 26-118 134 21 23 156-79zM166 100C68 100 4 148 4 246c0 82 41 117 111 135l48 13c51 13 67 34 67 72 0 50-29 71-74 71-46 0-73-25-80-86H2v89c30 18 71 38 150 38 113 0 177-53 177-150 0-84-50-129-126-147l-46-10c-45-11-59-33-59-66 0-37 18-61 60-61 52 0 69 33 74 84h73v-96c-22-12-66-32-139-32m2475 8-5 120h56c13-51 26-74 71-74h73l-217 378v37h335l7-129h-53c-14 60-30 82-81 82h-81l215-377v-37Zm-982 112a307 307 0 0 0-147 38v70h80c4-36 14-60 47-60s46 21 46 71v30l-35-1c-104 0-160 33-160 111 0 70 47 98 105 98 53 0 82-25 92-50 6 28 31 46 70 46 32 0 59-9 73-18v-30c-33-1-41-9-41-58 0-61 3-116 3-135 0-78-56-112-133-112m2203 0a307 307 0 0 0-147 38v70h80c4-36 14-60 48-60 32 0 45 21 45 71v30l-35-1c-104 0-160 33-160 111 0 70 47 98 105 98 53 0 82-25 92-50 6 28 31 46 70 46 32 0 59-9 73-18v-30c-33-1-41-9-41-58 0-61 3-116 3-135 0-78-56-112-133-112m-3317 0c-99 0-164 65-164 178 0 114 60 179 165 179 62 0 106-18 143-55l-16-28a194 194 0 0 1-89 22c-62 0-85-30-88-100h199v-31c0-102-41-165-150-165m640 0-112 27v31c32 1 38 8 38 56v156c0 38-7 47-40 47v32h186v-32c-32 0-39-9-39-46V317a102 102 0 0 1 61-21c27 0 43 13 43 54v142c0 37-7 45-39 45v32h184v-32c-31 0-38-8-38-46V324c0-71-43-103-97-103-52 0-88 27-117 60a142 142 0 0 0-20-61zm782 0-112 27v31c32 1 38 8 38 56v157c0 38-7 46-39 46v32h182v-32c-32 0-36-8-36-45V316c16-9 32-20 57-20 24 0 39 13 39 54v142c0 37-3 45-35 45v32h178v-32c-31 0-35-8-35-45V316c14-10 31-20 55-20 25 0 40 13 40 54v142c0 37-4 46-36 46v31h181v-31c-31-1-38-9-38-47V324c0-71-43-103-97-103-48 0-86 23-114 60a92 92 0 0 0-88-60c-48 0-82 22-110 58a141 141 0 0 0-20-59zm1140 0-112 27v31c32 1 38 8 38 56v286c0 38-7 47-39 47v31h186v-31c-33 0-40-9-40-47v-71c17 20 44 28 71 28 90 0 158-51 158-180 0-121-53-176-134-176a112 112 0 0 0-99 56 135 135 0 0 0-19-57zm414 0-111 27v31c31 1 37 8 37 56v157c0 38-6 46-39 46v32h198v-32c-43 0-51-8-51-46V391c0-49 12-64 62-64a120 120 0 0 1 40 6l19-108a79 79 0 0 0-25-5c-37 0-83 28-97 87a204 204 0 0 0-22-87zm-2771 9v104h42c8-50 18-60 63-60h53L741 527v42h283l12-102h-41c-19 56-31 59-85 59h-49l172-258v-39zm3277 0v32c22 4 29 9 41 40l105 271h83l98-271c12-31 22-39 45-40 21 1 31 11 42 42l51 139c23 64 31 90 40 124l41-3c-23 48-74 64-134 74l37 68c82-11 125-63 154-141l97-263c11-31 19-36 46-40v-32h-143v32c30 2 41 4 41 18l-3 15-44 144c-6 20-12 43-12 48h-4l-11-50-45-142-4-15c0-11 10-16 40-17v-33h-330v32q38 0 38 24l-3 16-39 125-14 51h-4a274 274 0 0 0-12-51l-43-126-4-16q-2-22 37-23v-32ZM547 264c31 0 42 24 42 103h-92c5-79 19-103 50-103m2649 28c36 0 59 25 59 116s-26 113-64 113q-29 2-51-21V314a76 76 0 0 1 56-22M1660 407h23l-2 84a65 65 0 0 1-45 20c-22 0-36-11-36-46q2-58 60-58m2203 0h23l-2 84a65 65 0 0 1-45 20c-22 0-36-11-36-46q2-58 60-58"/>
  <path fill="#f0c8c8" d="M4982 738h-72V0h72Z"/>
</svg>
