<svg xmlns="http://www.w3.org/2000/svg" viewBox="0 0 5000 1114">
  <path fill="#aaa" d="M4797 842h28l43 141 5 9 4 3 4 2h6l4-1 52-154h28l-79 238-26 34h-16l32-92q-29 0-41-37zm-121 25v-19l33-6 6-51h19v51h53v25h-53v91q0 21 5 28a22 22 0 0 0 15 11l30 7v18h-30q-45 0-45-64v-91zm-51-54v-19q0-8 9-8h17q7 0 7 8v19q0 7-7 7h-17q-9 0-9-7m4 209V842h25v180Zm-163-42a214 214 0 0 1-4-48q1-29 4-47 5-19 13-29 9-9 18-12 10-4 32-4t70 9v18h-92q-5 2-10 8-10 12-10 54t8 56 27 14l67-3 12-1v19a316 316 0 0 1-80 10q-14 0-23-3-10-4-18-13a62 62 0 0 1-14-28m-64-167v-19q0-8 9-8h17q7 0 7 8v19q0 7-8 7h-17q-8 0-8-7m4 209V842h25v180Zm-92-64V756h25v202q0 21 5 29a22 22 0 0 0 14 10l30 7v18h-29q-45 0-45-64m-182 156V842h18l6 20q9-6 30-14a111 111 0 0 1 38-8 51 51 0 0 1 29 8q12 7 18 22 12 26 12 61 0 68-29 86a52 52 0 0 1-28 8 191 191 0 0 1-70-14v103zm91-114q18 0 26-15 9-15 8-54 0-66-34-66a182 182 0 0 0-67 15v111q34 9 67 9zm-389 22V842h17l8 21 17-10 17-8 9-3 23-2q15 0 29 7 13 7 19 19a111 111 0 0 1 73-26 53 53 0 0 1 39 16 57 57 0 0 1 16 42v124h-25V898q0-15-8-24a29 29 0 0 0-22-9 134 134 0 0 0-35 4 114 114 0 0 0-32 15v138h-25V898q0-15-8-24a29 29 0 0 0-22-9 101 101 0 0 0-42 8l-23 11v138zm-64-210v-18q-1-9 8-8h17q8 0 8 8v18q0 9-8 8h-17q-8 1-8-8m3 210V842h25v180Zm-172-121v-16q0-22 11-34 11-11 39-11 30 0 85 5v20h-88q-16 0-19 5-3 4-3 15v15q0 15 7 17 5 3 15 3h53q22 0 34 12 11 12 11 32v16q0 26-12 35a52 52 0 0 1-32 9q-32 0-94-7v-18h95l5-1 6-2q6-4 7-16v-16q0-10-5-15-3-3-14-4h-54q-25 0-36-10-11-9-11-35zm-245 93-9-29a226 226 0 0 1 0-67q3-14 8-29 13-30 49-30 13 0 32 4 20 4 35 9v-97h25v267h-18l-7-20-30 14a109 109 0 0 1-38 8 51 51 0 0 1-29-8 50 50 0 0 1-18-22m14-61q0 66 34 66 28 0 67-15V873q-34-9-67-9-17 0-26 15-8 15-8 54m-197-2q0-30 4-48t15-28a53 53 0 0 1 24-12 213 213 0 0 1 65-1q11 2 21 8a34 34 0 0 1 14 19q5 14 5 35 0 42-47 42h-76q0 31 7 42 8 11 27 11 63 0 86-4v19a319 319 0 0 1-86 10q-33 0-47-20-12-19-12-73zm25-10h76q22 0 22-17 0-26-8-32-7-6-36-7-35 0-42 8a39 39 0 0 0-10 22zm-156-54v-20l33-6 6-50h19v51h53v25h-52v91q0 21 4 28a22 22 0 0 0 15 11l30 7v18h-30q-45 0-45-64v-91zm-158-18q37-10 89-10 22 0 37 12 14 13 14 40v131h-18l-7-21-5 2a175 175 0 0 1-70 21q-20 0-33-12a43 43 0 0 1-13-32v-21q0-21 13-33 12-12 33-12h75v-23q0-28-29-28t-86 4zm20 129q-1 21 20 21 12 0 31-4l31-9 13-4v-49l-75 6q-11 1-15 7a23 23 0 0 0-5 15zm-181 2a213 213 0 0 1-5-48q0-29 5-47 4-19 12-29 9-9 19-12 9-4 32-4 22 0 70 9v18l-68-2q-20 0-24 2-6 2-11 8-10 12-10 54t8 56 27 14l67-3 13-1v19a316 316 0 0 1-80 10q-14 0-24-3a46 46 0 0 1-18-13 62 62 0 0 1-13-28m-64-167v-19q0-8 8-8h17q7 0 7 8v19q0 7-7 7h-17q-8 0-8-7m3 209V842h25v180Zm-135-155v-19l33-6 6-51h19v51h53v25h-53v91q0 21 5 28a22 22 0 0 0 15 11l30 7v18h-30q-45 0-45-64v-91zm-152 34v-16q0-22 11-34 11-11 39-11 30 0 85 6v19h-88q-15 0-19 6-2 4-2 14v16q-1 13 6 16 6 3 15 3h54q21 0 33 12 11 12 11 32v17q0 25-12 34a52 52 0 0 1-32 9q-31 0-93-6v-19h95l4-1 6-2q7-4 7-15v-17q-1-10-4-14-4-5-15-5h-54q-25 0-36-9-11-10-11-35zm-57-89v-18q0-9 8-8h17q9 0 8 8v18q1 9-8 8h-17q-8 1-8-8m4 210V842h25v180zm-178 0V756h25v107l7-4 16-9 8-4 8-2 8-3 19-2q27 0 41 17a60 60 0 0 1 15 41v125h-25V897q0-17-8-25a30 30 0 0 0-22-8 109 109 0 0 0-44 8l-23 11v139Zm-182 92V842h18l6 20q9-6 30-14 22-8 39-8a51 51 0 0 1 28 8q13 7 19 22 11 26 11 61 0 68-29 86a52 52 0 0 1-28 8 191 191 0 0 1-70-14v103zm91-114q18 0 26-15 9-15 9-54 0-66-35-66-28 0-67 15v111q34 9 67 9zm-201 24q-45 0-62-20-18-21-18-72 0-52 18-72 17-20 62-20 46 0 62 20 18 21 17 73 1 53-17 71-16 20-62 20m-46-142q-4 8-6 20a208 208 0 0 0 1 68q3 13 11 19t16 8l24 2 25-2q7-2 16-8 7-6 10-19t3-37l-2-37a36 36 0 0 0-10-20q-8-8-16-9a181 181 0 0 0-46-1q-8 1-15 5-8 3-11 11m-202 18v-15q0-22 10-33 12-11 40-11 29 0 85 5v19h-88q-16 0-20 6l-2 15v15q0 13 6 17l16 2h53q22 0 33 12t11 32v17q0 25-12 34a52 52 0 0 1-32 9q-31 0-93-6v-19h100l6-3q6-3 6-15v-17q0-9-4-14-5-4-15-4h-53q-26-1-36-10-12-9-11-35z"/>
  <path fill="white" d="M1162 453a7859 7859 0 0 1-282-281l1 2-12 8v176c43 44 96 95 147 145L869 651v187l3 4 340-340zM560 0v893H147V0H10v928c0 56 46 103 103 103h481c57 0 103-47 103-103V0Zm4211 50v380q0 19 9 29 9 8 30 8h175l5 86a2136 2136 0 0 1-215 8q-59 0-87-30a108 108 0 0 1-29-79V50Zm-314 375h-174l-37 133h-115l146-478q3-13 14-21a41 41 0 0 1 25-8h106q32 0 39 29l147 479h-114zm-24-87-43-155-10-48h-20l-11 48-43 156zM3904 50h108q41 1 42 43l20 465h-106l-17-420h-12l-77 314q-7 37-46 37h-73q-39 0-46-37l-77-314h-13l-14 420h-106l18-465q1-42 42-43h108q36 1 44 37l62 253q6 24 13 71h10l5-30 8-41 61-253q9-36 46-37zm-506 0v306q0 117-45 164-45 48-153 48-115 0-162-48-47-47-47-164V50h112v306q0 71 20 96 19 25 71 25t71-25q20-26 20-96V50Zm-876 47q47-56 170-56 122 0 170 56 47 57 47 208 0 150-47 207-48 56-171 56-122 0-169-56-48-57-48-207 0-151 48-208zm248 71q-21-37-78-37-58 1-79 37t-21 137q0 100 21 136 21 37 79 36 57 0 78-36t21-136q0-102-21-137zm-563 167h-44l5 48v175h-112V50h112v144q1 33-5 61h44l128-205h122l-131 203q-13 22-37 41v3q27 18 43 44l134 217h-126zm-391 31-103-36a161 161 0 0 1-81-56 160 160 0 0 1-24-92q0-84 41-113 41-28 144-28 97 0 167 20l-7 77q-65-3-159-3-45 0-59 8-15 7-15 39 0 24 11 36 10 11 42 21l96 33q59 21 84 56 24 36 24 94 0 84-41 116-42 30-147 30a822 822 0 0 1-175-19l6-81 168 4q45 0 61-10 14-9 15-40 0-25-11-36-10-11-37-20"/>
</svg>
