<svg xmlns="http://www.w3.org/2000/svg" xml:space="preserve" viewBox="0 0 5000 2450">
  <path fill="#ef0d33" d="M510 5Q409 5 319 34q-91 28-160 88-70 61-109 157-40 95-40 226v270q0 112 51 208 50 95 125 178 74 83 163 153 88 70 163 137 74 68 125 131 51 64 50 130v192q0 132-55 185t-122 53-122-53-55-185v-295H10v336q0 256 139 378t361 122q222-1 361-121t139-379v-299q1-112-50-200-51-87-125-159-75-71-163-137-89-66-163-131-75-66-125-139-51-74-51-164V546q0-131 55-185 56-53 122-53 67 0 122 53 55 54 55 185v304h323V505q0-134-39-230-40-95-109-154-70-60-160-87Q612 5 510 5m777 36v315h339v2057h318V356h343V41Zm1314 0v2372h329v-983h126l283 983h329l-303-1052q110-47 174-160 64-115 64-295V540q1-268-122-384a433 433 0 0 0-309-115Zm1335 0 294 2372h469L4990 41h-319l-208 1935L4255 41ZM2930 344h164q94-1 137 53 44 52 44 184v309q0 131-44 184-43 53-137 53h-164z"/>
</svg>
