<svg xmlns="http://www.w3.org/2000/svg" width="5000" height="4270" viewBox="0 0 5000 4270">
  <desc>
    An enterprise Linux vendor based in Nürnberg, Germany
  </desc>
  <path fill="#0c322c" d="M514 3013q-143 0-251 49T98 3197q-57 85-57 187 0 97 45 165 45 69 144 114 100 46 266 77 168 31 235 72t67 107q0 82-75 128-73 45-205 45-137-1-230-52-53-28-95-78a94 94 0 0 0-137-3 94 94 0 0 0-5 128q157 176 470 176 144 0 252-44 110-43 170-124 60-80 60-187 1-99-44-166-44-67-140-112l-1-1q-97-45-259-75a730 730 0 0 1-242-74q-68-43-68-117 0-79 70-129 70-51 197-51 128 0 205 50 42 26 76 71a94 94 0 1 0 145-120q-63-70-143-111-118-60-285-60m2708 0q-143 0-252 49-108 49-164 135-57 85-57 187 0 97 45 165 45 69 144 114 99 46 266 77t234 72 67 107q0 82-74 128-75 45-205 45-138-1-231-52-53-28-95-78a94 94 0 0 0-136-3h-1a94 94 0 0 0-4 128q156 176 470 176 143 0 252-44 109-43 169-124 61-80 61-187 0-99-44-166t-141-112v-1q-97-45-259-75a729 729 0 0 1-242-74q-68-43-68-117 0-79 70-129 69-51 196-51 129 0 206 50 42 26 76 71a94 94 0 1 0 144-120q-62-70-142-111-119-60-285-60m-1749 22c-55 0-99 44-99 99v648q0 240 126 361 127 123 371 123t370-123 127-361v-648c0-55-44-99-99-99h-2c-55 0-99 44-99 99v625q0 173-73 254-72 81-225 81t-225-81q-73-83-73-254v-625c0-55-44-99-99-99m2879 1a250 250 0 0 0-249 250v717c0 138 112 249 249 249h551c48 0 87-39 87-86 0-48-39-86-86-86h-552c-42 0-77-35-77-77v-278h532c110 0 111-165 0-165h-532v-274c0-42 35-76 77-76h551c113 0 113-175 0-174z"/>
  <path fill="#31ba78" d="M3812 4c-30-1-58 23-58 56 0 107 5 258 5 397-74-77-200-125-296-169q-165-76-338-129c-232-72-472-116-712-140-273-27-551-14-820 41-441 93-878 307-1208 618-203 190-363 463-373 738-17 392 93 601 294 818 321 345 1010 392 1290-16a666 666 0 0 0 62-637 609 609 0 0 0-523-358c-173-5-357 82-423 242a349 349 0 0 0 70 368c36 37 85 67 138 55 31-7 57-30 62-62 6-46-34-77-60-112-45-65-36-162 21-218 48-46 119-60 186-60 62 1 125 12 179 43 75 45 126 126 143 212 52 257-157 465-440 482-142 8-290-30-403-121-286-228-357-698-29-950 311-238 702-176 933-53 185 98 323 261 428 440q77 136 138 280c40 92 77 184 157 252 53 44 118 43 187 43h394c54 0 41-36 18-60-53-53-128-65-197-85-159-43-143-254-99-254 142 0 146 5 271 3 180-2 234-13 375 39l-2-3c75 28 148 102 195 169q37 52 57 104c8 24 18 56 42 69l4 2c44 16 157 13 157 13h209c17 0 174 0 170-18-19-83-116-98-189-142-69-40-133-86-162-165-15-41-6-135 20-169q30-38 78-48c33-7 68-1 101 3q63 7 124 16 119 16 240 13 201-5 392-68c88-30 175-69 249-125 85-63 63-57-23-48q-156 16-311 6c-96-6-191-17-278-62-69-35-128-71-182-126-8-8-13-32 2-48 14-15 44-6 54 2 95 79 236 145 382 152q118 6 236 2c40-2 99-2 139-2 21 0 77 5 87-16q4-10 3-21c-12-318-36-675-369-826-249-114-619-289-776-361q-11-5-21-6m728 476a299 299 0 0 1 299 299 299 299 0 0 1-299 299 299 299 0 0 1-299-299 299 299 0 0 1 299-299m0 82a221 221 0 0 0-221 221 221 221 0 0 0 221 221 221 221 0 0 0 221-221 221 221 0 0 0-221-221m114 178a81 81 0 0 1 82 81 81 81 0 0 1-82 81 81 81 0 0 1-81-81 81 81 0 0 1 81-81"/>
</svg>
