<svg xmlns="http://www.w3.org/2000/svg" width="5000" height="1560" viewBox="0 0 5000 1560"><path fill="#241cc0" d="m2852 19-29 29v9h18l29-29v-9Zm-261 57v20h64v204h25V96h63V76Zm167 0 69 150v74h25v-74l70-150h-24l-57 124-56-124zm197 0v224h117l30-31V106l-30-30zm199 0v224h128v-21h-103v-81h95v-21h-95V96h102V76Zm172 0v224h22V108l98 192h29V76h-22v190l-98-190zm284 0v224h25v-91h92l28-28v-77l-28-28zm186 0v224h25v-98h72l28 98h25l-30-101 27-27v-68l-28-28zm224 0-30 30v163l30 31h92l30-31V106l-30-30zm-199 20h81l16 16v52l-17 18h-80zm-186 0h79l16 16v61l-16 16h-79zm-655 0h80l17 18v147l-17 18h-80zm1052 0h68l17 18v147l-17 18h-68l-17-18V114ZM213 398a655 655 0 0 0-127 639 659 659 0 0 0 1108 244l530-530h-129a83 83 0 0 1 0-166h330c46 0 83 37 83 83v329a83 83 0 0 1-135 61 83 83 0 0 1-32-61V869l-476 477a661 661 0 0 0 1069-510c5-359-279-658-641-666-178-4-359 63-494 198L762 905h129a83 83 0 0 1 0 167H561c-46 0-83-38-83-83V659a83 83 0 0 1 137-60q28 23 30 60v129l476-477a660 660 0 0 0-908 87m2417 87v435h253l62-62V548l-62-63Zm1700 0v435h71V485zm-1298 7v72h71v-72zm527 0v72h71v-72zm561 7-53 53v27h44l54-53v-27zm783 0-54 53v27h44l55-53v-27Zm-1166 21v88h-48v52h48v204l55 56h122v-54h-82l-24-23V660h106v-52h-106v-89zm-1033 23h137l30 29v261l-30 30h-137Zm537 65-55 56v188l56 55h115l43-42v92l-24 24h-102l-16-15v-24h-68v40l48 48h177l56-56V608h-54l-4 51-51-51zm-209 0v312h71V608Zm527 0v312h71V608Zm931 0v312h70V709l48-47h61l23 23v235h71V664l-56-56h-108l-51 51-4-51zm359 0v312h71V608Zm-828 0-51 50v41h73v-27l17-16h90l22 22v56h-160l-50 51v85l50 50h126l47-47 4 47h54V664l-56-56zm-740 50h73l46 45v110l-45 45h-74l-24-25V681zm771 120h120v55l-38 38h-83l-18-17v-58zM2696 994v25l49 51h68l51-51v-25h-38l-43 43h-7l-43-43Zm1074 112h-71v435h71v-70l67-79 77 149h77l-106-196 96-116h-81l-130 164zm-1084 0-63 63v310l63 62h192l59-60v-80h-73v56l-27 27h-110l-29-29v-262l29-29h110l27 27v54h74v-79l-60-60zm377 123-55 56v200l55 56h177l47-48v-46h-70v30l-16 16h-101l-23-24v-68h211v-116l-56-56zm342 0-51 51v89l40 40h151l12 11v56l-18 17h-103l-14-15v-27h-70v43l48 47h176l51-51v-90l-41-41h-150l-11-10v-55l17-17h98l14 14v28h70v-43l-47-47zm677 0-56 56v200l56 56h172l56-56v-200l-56-56zm-982 48h96l22 22v57h-141v-57zm1021 0h94l24 24v167l-23 25h-95l-24-25v-167z"/></svg>