<svg xmlns="http://www.w3.org/2000/svg" width="5000" height="830" viewBox="0 0 5000 830">
  <path fill="#1f1545" d="M1919 7c-112 0-227 39-305 115a408 408 0 0 0-115 294c0 107 36 218 115 294 78 76 193 113 305 113 111 0 226-37 305-113 78-76 114-187 114-294s-36-218-114-294A444 444 0 0 0 1919 7M422 29l310 777h136l321-777h-185L808 548 614 29Zm2361 3v775h166V495h88l164 312h205l-194-321c76-22 165-89 165-222 0-171-145-232-223-232h-262zm990 0v775h166V439l319 368h235l-371-409 356-366h-235l-304 327V32ZM1919 164c64 0 129 23 174 70 46 48 68 115 68 182s-22 134-68 182c-45 47-110 70-174 70-65 0-130-23-175-70-45-48-67-115-67-182s22-134 67-182c45-47 110-70 175-70m1030 9h138c50 0 118 24 118 91 0 66-68 90-118 90h-138z"/>
  <path fill="#939598" d="m55 29 296 777h109L171 29Zm4716 5-371 366 391 410h154l-401-410 381-366Z"/>
</svg>
