<svg xmlns="http://www.w3.org/2000/svg" xmlns:xlink="http://www.w3.org/1999/xlink" viewBox="0 0 4980 4150">
  <defs>
    <radialGradient xlink:href="#a" id="b" cx="697.11499"
       cy="416.8425"
       fx="697.11499"
       fy="416.8425"
       r="416.64499"
       gradientTransform="matrix(3.6928005,0,0,3.6945953,0,3.6155074)" gradientUnits="userSpaceOnUse"/>
    <linearGradient id="a">
      <stop offset="0" stop-color="#38beef"/>
      <stop offset=".125" stop-color="#4dc1eb"/>
      <stop offset=".250" stop-color="#5fc3e3"/>
      <stop offset=".375" stop-color="#5fc3e3"/>
      <stop offset=".500" stop-color="#6ec6da"/>
      <stop offset=".625" stop-color="#81ccdd"/>
      <stop offset=".75" stop-color="#a1d7e5"/>
      <stop offset=".875" stop-color="#cce8ef"/>
      <stop offset="1" stop-color="#fff"/>
    </linearGradient>
  </defs>
  <path fill="white" d="M1301 3712q-63 0-110 2-71 4-86 44-10 27-10 99t8 100q13 45 81 50 39 3 97 2h107a420 420 0 0 0 65-6 85 85 0 0 0 35-16q23-18 27-74l2-59q0-69-9-96a52 52 0 0 0-25-31q-19-10-53-12-46-3-129-3zm-13-136q204 0 252 8 48 9 77 28a128 128 0 0 1 44 53 240 240 0 0 1 22 86q2 41 2 115 0 104-13 154-29 109-169 121-64 5-204 5-122 0-189-4-129-8-165-89a264 264 0 0 1-20-89q-2-43-2-102 0-102 7-139 15-86 80-117a272 272 0 0 1 92-24q64-6 186-6m733 291h247q56 0 72-16 18-17 18-51 0-43-13-60-11-16-38-21l-39-1h-247zm902 273v-421h-249v-137h668v137h-249v421zm-578 0-127-137h-197v137h-169v-558h427q66 0 91 2 52 4 82 20a118 118 0 0 1 50 47q25 42 25 134t-19 135q-21 50-69 68l-23 6 134 146zm2110 0 153-163 154 163h218l-261-281 261-277h-225l-146 158-148-158h-224l261 277-261 281zm-781-342h322v122h-322v93h422v127h-589v-558h589v126h-422zM298 4140 0 3582h187l221 421 225-421h190l-310 558z"/>
  <path fill="url(#b)" d="M3009 2763q87 96 182 186l4 4-5 2-41 17-2 1-2-2q-73-70-143-144a2026 2026 0 0 1-32 203l-1 2-2 1-72 17-6 1 1-6q8-32 14-65a2022 2022 0 0 0 31-226q-46-52-90-105-67 144-147 282l79 133 3 5-6 1-44 5-2 1-2-3-55-94-61 102-1 2h-57l4-6 87-146q-70-124-131-253-95 110-197 213 23 86 49 172l1 6-5-1-45-7h-2l-1-3q-19-63-36-128-50 50-102 98l-1 2-2-1-46-13-6-2 5-4q70-66 138-134-41-153-67-310-117 82-240 156-1 113 2 226v6l-5-2-41-19-2-1v-3q-3-89-3-178l-158 89-2 1-2-1-38-26-6-4 6-3q102-54 201-113 1-130 13-261-125 44-252 81-31 110-58 222l-1 6-5-4-35-29-2-1 1-3q21-88 45-176-89 24-179 45l-2 1-2-2-30-34-4-5 6-2q114-27 227-57 39-139 90-273-147 13-294 15-58 98-112 198l-3 5-4-5-26-38-1-2 1-2 88-156q-89 1-176-2h-3l-1-2-19-41-2-6h6q112 4 225 3 82-138 179-269-157-22-312-59-78 78-155 158l-4 5-2-6-13-46-1-2 2-1q58-62 118-122-77-19-153-40l-2-1-1-3-6-44-1-5 6 1q98 29 198 53 99-98 207-187-133-60-260-131-79 45-156 93l-6 4v-57l2-1 112-66-104-60-2-1v-3l6-44v-6l5 3q71 43 143 83 126-71 258-132-112-93-215-195l-142 40-7 2 2-7 14-46v-2l2-1 91-25-60-61-1-1v-3l17-41 2-5 4 4 92 93q131-33 261-58-105-155-196-321l-1-2 1-2 27-36 3-5 3 5q100 182 216 353 81-14 162-22l7-27c-91-151-170-304-226-470l-5-15 2-1q26-26 54-50l4-4 2 6 13 40q23 67 50 131 120 34 236 75-10-132-13-264-74-45-151-87l-5-3 5-3 38-26 2-1 2 1 109 62 1-126v-3l2-1 41-21 6-2v6q-2 89-2 176 124 75 241 158 25-145 61-288-59-61-121-120l-4-4 6-2 44-14 2-1 2 2 85 84 32-114v-2l2-1 45-9 6-1-1 6q-24 81-45 162 113 116 214 242 61-145 137-285-40-72-83-142l-3-6h6l46-1h4l1 2q29 48 56 97l53-92 1-2h3l44 4h6l-3 6q-39 66-76 133 69 122 127 249 92-112 193-217-16-64-35-128l-2-6 7 1 46 13h2v2l22 78 53-54 2-1 2 1 42 15 6 2-4 4-87 87q35 141 61 283 119-83 243-157V209l6 3 41 25 1 1v2l1 56 45-26 2-1 2 1 37 26 5 4-6 3-85 49q-2 134-12 267 168-58 341-101l2-1 1 2 30 34 4 5-6 2q-192 47-377 112-8 82-22 163l25 13c169-49 337-85 513-97h5l1 2 37 64 2 6h-6a2197 2197 0 0 0-164 16q-71 120-149 234 130 24 258 56 68-66 134-135l4-4 2 6 15 42 1 2-1 2-100 101 141 40h2l1 3 10 45 1 6-6-2q-94-27-190-52-103 99-214 191 133 62 262 134 84-47 167-98l5-3 1 6 3 46v2l-2 1q-62 38-125 73l126 75 2 1v2l-3 46v7l-6-4q-83-51-168-99-141 78-290 143 126 98 240 207 96-25 190-52l6-2-1 6-11 45v3h-2q-70 21-141 39 51 49 100 99l1 2v2l-16 42-2 6-4-5q-66-67-133-132-136 35-273 59 84 117 159 242 84 1 170-1h6l-3 6-23 41-1 1h-2l-118 2 55 97 2 2-2 2-26 36-3 5-3-5-79-138q-145-1-289-14 49 137 88 276l143 37 6 2-4 4-34 34-2 1h-2l-92-24 23 86v2l-2 2-34 28-5 4-1-6-35-131q-128-36-255-81 14 196 9 392v2l-2 1-41 19-5 3v-6q6-215-10-429-78-29-153-63l-19 20a2870 2870 0 0 1-7 289m-843-434q-96 46-196 85-11 124-13 250 118-72 229-152-13-92-20-183m186-102q-68 42-139 79 6 87 18 173 80-60 155-127-19-62-34-125zm104-1h-55q11 45 24 89 46-44 89-91zm209-29-3 1-49 12c84 173 200 331 326 476q6-112 3-226v-15l11-11c146-150 269-328 330-530 47-154 56-318 13-474a646 646 0 0 0-559-474c-252-27-484 95-562 345-60 191 7 430 218 486 91 25 185 5 265-43l4-2 4 6-3 2c-89 61-198 89-303 60a333 333 0 0 1-218-193 471 471 0 0 1-12-329c99-318 412-460 725-382 95 23 196 77 278 129q217-6 429 29 74-105 141-216a2772 2772 0 0 0-321 75l-14 4-14-7c-320-179-724-268-1058-72a647 647 0 0 0-314 662c39 251 217 443 479 454 200 9 413-118 413-336 0-95-43-181-110-246l-3-2 5-6 3 3c81 69 136 167 136 276 0 104-50 197-130 261a472 472 0 0 1-315 97c-333-14-551-279-557-602-2-97 24-209 53-302q-62-206-83-422-106-38-215-71a2827 2827 0 0 0 151 281l8 13-4 15c-90 355-71 769 204 1041a646 646 0 0 0 722 131c230-102 370-326 314-580a434 434 0 0 0-164-259c-78-56-173-78-267-53-92 24-164 88-209 170l-2 4-7-4 2-3c46-97 127-175 232-203 101-27 203-3 286 58 91 67 150 169 175 279 72 323-126 602-434 693zm725-679a2220 2220 0 0 0 191-132q-81-35-164-62l-57 60 8 27a837 837 0 0 1 22 107zm443-349q-123-31-249-52-63 86-132 167 87 31 172 68 108-88 209-183m-565 23q15 22 28 45 54 14 106 31 68-77 129-160-102-15-204-22-28 54-59 106zm6-109-98-1a697 697 0 0 1 61 68zm328 590q145-62 284-138-124-69-255-127a2307 2307 0 0 1-207 145q92 56 178 120zm-276-378 16 38 25-26zm71 298a922 922 0 0 1-6 157q81-25 159-56-75-54-153-101m198 135q-90 37-183 66a2325 2325 0 0 1 156 187q132-22 263-54-114-106-236-199zm-216 101a1076 1076 0 0 1-54 180q95-6 188-20-63-83-134-160m323 437q-73-119-156-233-104 17-207 23 47 96 84 195 140 14 279 15m-407-188a1310 1310 0 0 1-79 144q76 14 153 23-33-86-74-167zm94 218q-93-10-184-27 18 107 28 213 120 45 243 79-37-134-87-266zm-227 5q-44 60-93 116 56 24 114 46-8-81-21-162m-1269-367a2229 2229 0 0 0-100 211q87-12 173-28 9-41 20-81l-21-20a837 837 0 0 1-72-82m-120 262q-50 129-89 263 121-36 241-79 10-107 31-212-91 18-183 28m202 164q96-37 188-83-3-60-2-121l-47-25q-53 15-107 27-21 100-32 202m321-155a694 694 0 0 1-87-28l1 76q44-23 86-48m-665-298q-94 126-176 261 141-2 284-17a2319 2319 0 0 1 106-230q-107-2-213-14zm428 189-33-25-8 35zm-210-223a925 925 0 0 1-74-139q-57 62-109 128 92 9 183 11zm-342-250q-103 85-201 178 151 35 304 55 59-77 125-149a2332 2332 0 0 1-228-84m196-146q-79 53-153 111 96 41 197 72a1074 1074 0 0 1-44-183zm-35-34q-88-60-171-126-127 58-249 125 123 68 251 125 82-66 169-124zm26-40a1317 1317 0 0 1-3-165q-74 26-144 57 72 57 147 108m-398-329q100 98 208 187 85-37 173-69-69-82-131-171-126 23-250 53m402 68q8-73 23-146l-122 16q48 67 99 130m658-407a2224 2224 0 0 0-177-151q-12 87-18 175l74 39 23-14a846 846 0 0 1 98-49m-221-184q-112-81-231-154 3 127 14 254 100 38 197 84 6-92 20-184m-211 154q12 101 31 202 60 13 118 30l36-39q0-55 3-111-92-45-188-82m43 254q11 48 24 95a700 700 0 0 1 50-77zm484-469q-98-124-207-239-34 140-57 279a2313 2313 0 0 1 194 162q30-102 70-202m-293 364 32-25-31-17zm422-181q-45-70-95-138-34 86-58 173a925 925 0 0 1 153-35m-75-191q60 78 112 159a2339 2339 0 0 1 140-198q-55-123-120-240-73 137-132 279zm154 183a1075 1075 0 0 1 188 5q-30-90-67-177-64 84-121 172zm154-215q42 96 76 195 81-70 166-133-22-136-57-273-96 102-185 211zm108 231a1313 1313 0 0 1 160 39q-6-77-17-154-74 55-143 115m421-300q-121 72-234 153 13 92 21 184 99-45 199-81 11-128 14-256m-170 371q69 27 135 59 10-60 16-121-76 29-151 62m-626 1885q57 124 125 245 76-134 140-275-63-79-119-164-68 101-146 194zm-22-50q74-90 139-188a1823 1823 0 0 1-93-166 1797 1797 0 0 1-130 133 2335 2335 0 0 0 84 221m-123-185q-79 69-163 132 26 152 63 302 98-100 189-207-50-111-89-227" clip-rule="evenodd"/>
</svg>
