<svg xmlns="http://www.w3.org/2000/svg" viewBox="0 0 5000 1070">
  <path fill="#0385d1" d="M1273 2q-66 0-118 19-51 18-81 45-28 27-48 64a256 256 0 0 0-32 131v38H889v150h105v589h188l-1-589h160q43 0 71 9l33-144q-52-15-129-15h-134l-1-52q0-19 3-34t12-31q11-17 32-24 23-9 57-9 56 0 85 13 30 13 42 55l155-71q-41-81-111-112-69-32-183-32m3185 6-181 6q12 113 12 180v844h179V540q23-37 56-66 34-30 72-30 25 0 40 3 17 3 36 16 21 12 33 36 11 25 19 70 9 46 9 111v230q0 93 47 158l165-59q-32-46-32-130V625q0-171-75-249t-217-78q-89 0-170 62 18-75 18-163 0-106-11-189M2041 125v176h-11q-48 0-75 9l13 149q28-9 60-9h10l-7 267v31q0 112 29 171 36 74 106 99 72 25 188 25 108 0 161-31 37-21 67-55 31-34 43-56 13-23 19-38l-152-73-4 12-15 38a80 80 0 0 1-33 35q-36 20-87 20l-48-3q-47-7-68-39-22-33-22-104v-29l3-119 4-152 313 1 2-149-314-3 2-168zM237 267 55 319q18 33 34 109 20 102 29 239t11 246l3 125q19 9 49 9h4q98 0 157-36 60-36 82-84 5 63 17 111h25q117 0 188-54 72-56 92-149 31-142 31-402v-64l-2-71H596q10 112 10 293 0 291-84 291h-4a8879 8879 0 0 0 2-454H366v272q0 68-28 127-26 59-71 59 7-19 13-76 7-57 7-106v-22l-1-101-5-92a793 793 0 0 0-44-222m2811 25q-150 1-233 103-82 104-82 266 0 175 86 280 87 105 241 105 65 0 109-7a258 258 0 0 0 134-57q23-19 54-53l-130-114q-42 44-75 62t-88 18q-50 0-92-42-42-44-51-104 118-24 439-28v-31q0-194-73-296-72-102-239-102m814 3q-360 0-360 358 0 117 28 198 29 81 96 134 48 35 105 47 59 12 131 12 120 0 194-41 74-39 112-122l-166-98q-30 51-64 79-33 28-83 28h-9l-30-1q-13-3-38-16-25-12-42-36-16-23-30-70-13-49-13-114 0-86 40-145t116-59q113 0 132 75l161-74q-28-67-94-111t-186-44m-813 146q51 0 84 34 34 34 37 103-150 0-249 18 5-66 39-111 35-44 89-44"/>
</svg>
