<svg xmlns="http://www.w3.org/2000/svg" width="5000" height="1100" viewBox="0 0 5000 1100">
  <path fill-rule="evenodd" d="M79 4 49 94a778 778 0 0 0 519 992l38 10 37-10a778 778 0 0 0 519-992l-30-90-401 131h306a646 646 0 0 1-350 794V470l-80-164-1 2v1l-92 163v452a646 646 0 0 1-339-789h287zm3193 286q-15 0-15 15v490q0 15 15 15h68q15 0 15-15V305q0-15-15-15zm336 32q-15 1-15 16v91h-66q-12 0-13 13v57q1 12 13 12h66v161q0 37 6 63 6 27 23 43 16 16 43 24 27 9 69 8h84q12 0 12-12v-57q0-13-12-13h-68q-34 0-46-13-12-14-12-43V511h121q13 0 13-12v-57q0-13-13-13h-121v-91q0-15-15-16zM1616 429q-10 0-12 5-3 5 0 12l104 321q8 27 20 35 10 8 33 8h88q18 0 27-9 10-10 19-34l91-253q0-4 6-4h4q6 0 7 4l91 253q9 24 19 34 10 9 28 9h87q22 0 34-8 11-8 19-35l106-321v-12q-3-5-12-5h-78q-15 0-16 11l-90 285q-3 6-7 5h-3q-6 0-7-5l-93-262q-7-20-16-26-10-8-28-8h-83q-18 0-28 8-9 6-16 26l-94 262q-1 6-7 5h-3q-4 0-7-5l-89-285q-4-11-16-11zm944 0q-16 1-16 16v225q0 37 8 64 9 27 27 44 19 16 51 24 31 9 79 8h193q46 1 79-8 31-7 51-24 19-17 27-44t8-64V445q0-16-15-16h-68q-15 0-15 16v201q0 23-4 36-3 15-12 24-8 8-23 12t-37 4h-179q-23 0-36-4-15-4-22-12-7-9-10-24-3-13-3-36V445q0-16-15-16zm1592 0q-47 0-79 8-32 9-50 25a95 95 0 0 0-28 44q-8 27-8 64v225q0 15 16 15h68q15 0 15-15V589q0-22 4-37 3-15 12-23 8-9 23-13 15-3 37-3h184q13 0 13-13v-58q0-13-13-13zm373 0q-12 0-12 13v58q0 13 12 13h290q23 0 38 3 14 3 23 11 8 7 11 19 4 12 4 28v13h-282q-31 0-51 6-21 6-33 18-13 12-18 29t-5 38v34q0 26 5 44t18 31q12 11 33 17 20 6 51 6h330l25-2q9-3 15-9t9-17l2-27V570q0-37-8-64-9-27-28-44-18-16-51-25-31-8-78-8zm112 220h254v61q0 13-5 19-4 5-15 5h-234q-21 0-30-9t-9-27v-15q0-16 9-25t30-9"/>
</svg>
