<svg xmlns="http://www.w3.org/2000/svg" viewBox="0 0 5000 1650">
  <path fill="#333" d="m3627 53-268 10v-1l-341 11v1l-80 3-81 576q-9-35-24-66a291 291 0 0 0-181-157q-56-17-111-14-57 2-112 29-57 25-91 64h-3l58-413-334 11-83 588q-8-123-98-190-95-69-269-64a602 602 0 0 0-271 84l26-51-358 12-168 435h-6l-63-427-369 13 214 766-8 17q-40 83-133 86-38 1-80-15l-47 266a564 564 0 0 0 348-20q72-33 126-98 55-64 118-189l346-688 116 124a293 293 0 0 1 172-75q42-1 68 14 27 16 28 44l-1 17q-258 8-377 91a254 254 0 0 0-115 231q3 66 36 111t87 68q56 22 118 20 139-4 218-100h3l-1 72 264-9 301-11 12-84h3q32 45 96 72 64 26 136 23a403 403 0 0 0 307-153q29-36 51-77l-28 200 341-12 1-1h13v1l333-12 47-343h4l146 336 390-13-208-404 161-200q-27 44-43 94-30 89-27 188 3 81 38 147 35 65 95 107 59 43 138 64a611 611 0 0 0 371-27 434 434 0 0 0 245-267q29-88 26-187-2-81-38-146-35-66-96-109-60-42-139-62a586 586 0 0 0-372 26q-73 33-127 85l77-97-406 14-210 307h-5zm777 566q55-2 88 30 32 30 34 79 1 53-21 96-21 42-57 62-36 17-68 18-54 3-86-28-33-32-34-81-1-33 11-73 13-41 49-71t84-32m-1982 68q55-3 88 29 33 30 35 80 1 51-21 96-21 43-59 61-35 18-67 19-54 2-88-28-33-31-34-81-2-50 21-95 23-44 59-61 35-20 66-20m-758 239-4 25q-8 49-42 82t-82 34q-69 3-70-51-1-21 16-42 18-22 60-34 45-11 102-14z"/>
  <path fill="#ecca35" d="m281 1137 9-16-188-773h370l48 429h6l183-429h358l-455 831q-67 122-124 185-56 62-129 94-73 31-178 31-96 0-171-24l57-264q40 18 79 18 92 0 135-82m1155-302 5-25h-20q-58 0-103 10-43 10-61 31t-18 42q0 54 69 54 48 0 83-32 36-31 45-80m313-112-51 288q-10 61-10 120h-286l3-71h-3q-82 92-221 92-62 0-117-24-54-25-85-71-32-46-32-112 0-147 123-226 122-79 379-79l2-17q0-28-27-44-25-17-67-17-45 0-91 19-46 18-83 50l-146-167q50-48 123-82t136-46q64-12 106-12 174 0 267 73 92 71 92 202 0 56-12 124m675-393q55 0 110 18 57 16 102 58 46 40 74 105 30 66 30 154 0 97-33 186-33 90-92 157-60 67-140 105-81 38-172 38-73 0-135-29-63-28-94-74h-3l-15 83h-301L1953 5h334l-72 411h3q36-37 93-61 56-25 113-25m-9 380q0-50-33-81-31-33-86-33-31 0-67 18-36 17-61 60-24 43-24 94 0 49 31 82 33 31 87 31 32 0 68-16 37-18 61-60 24-43 24-95M3263 5l-198 1126h-341L2922 5Zm435 1126-134-341h-5l-58 341h-333L3366 5h335l-116 642h4l221-299h407l-322 372 194 411zm800 24q-88 0-167-22-77-24-135-69-58-44-91-110-33-67-33-149 0-98 33-186t95-154q64-67 155-104t203-37q91 0 170 24 79 22 137 67 59 44 92 111 33 66 33 148 0 98-33 186t-97 155q-62 66-156 103-92 37-206 37m167-445q0-50-31-81-31-33-87-33-47 0-84 30-38 29-53 69-13 40-13 73 0 49 31 82 32 31 85 31 33 0 69-16 37-18 59-60 24-43 24-95" aria-label="yablko"/>
</svg>
