<svg xmlns="http://www.w3.org/2000/svg" xml:space="preserve" width="5000" height="1100" viewBox="0 0 5000 1100">
  <path fill="#979897" d="M1013 5c-23 6-44 24-44 49v150H759c-29 1-59-3-86 8-56 21-100 77-99 139v199c0 79 72 151 151 147l297-1c28 1 48-27 45-53V59c2-26-17-48-41-54zm2294 0c-20 8-39 25-39 49v588c-3 26 17 54 44 55 24 3 49-15 52-40 4-29 2-58 2-88l49-49 158 158c11 11 25 20 41 19 28 1 51-28 48-55-2-14-12-26-21-36q-79-78-156-158l160-158c19-18 23-49 5-69a48 48 0 0 0-71-3l-213 210-1-375c1-22-18-37-35-48zm-369 74c-55 2-109-2-164 2-35 8-42 62-14 82 13 10 31 9 46 9q41 0 83-1c42-3 79-41 79-83-6-12-20-8-30-9m24 124-170 1c-27-2-51 23-50 49-1 26 23 50 50 49l194 1c23-2 45 15 50 37 4 20 1 41 1 61h-245c-77-2-149 67-148 144-5 80 68 155 148 152l297-1c28 2 49-26 47-53V346c-1-67-55-127-120-140q-27-4-54-3m1965 1h-380c-27-2-51 22-51 49s24 50 51 49l273 1-296 297c-12 12-26 24-28 43-3 28 22 56 51 53h394c23 2 40-16 49-35v-24q-8-18-22-30c-12-9-28-8-41-9h-264l308-306q12-12 19-29v-19c-6-16-17-33-35-38q-14-2-28-2m-4469 0H59c-24-1-42 19-49 40v18c7 23 28 42 53 40l271 1L39 599l-29 33v26c8 20 25 40 48 38h395c29 3 55-25 51-54-3-25-26-45-51-44H177l292-289c14-15 33-29 35-51 4-27-19-53-46-54m787 0c-25 1-46 24-44 49v390c-1 14 2 30 14 40 18 19 52 19 70-1 12-12 13-29 13-44l1-335h146c26-2 50 21 51 47 0 22 15 44 37 49 28 9 60-14 62-43 4-80-70-156-150-152h-200m579 0q-18 0-37 3c-63 17-114 78-113 144v165c0 30-2 62 11 90 24 52 79 94 139 91h194c77 2 148-65 149-142V346c-1-77-72-145-148-142zm2451 0c-74 2-149-2-223 2-64 14-119 73-118 140l-1 199c0 30 6 61 25 85 26 38 70 68 118 66l199 1c83 4 159-75 151-157-6-35-52-53-79-30-15 10-19 29-21 46-2 24-26 44-51 42h-195c-27 1-51-26-49-53V356c-2-28 22-54 49-53h195c25-2 49 18 51 42 2 17 6 35 21 46 27 22 73 4 79-30 8-82-68-162-151-157m-2260 98q24 0 41 17c12 12 13 30 13 46v185c0 26-24 49-50 48h-195c-28 2-53-25-51-53V355c-2-23 15-46 38-51 66-3 132 0 198-2zm-1280 0h24l210 1v295H720c-27 0-49-27-47-53V355c-1-23 15-46 37-51zm2303 198v98h-246c-26 1-50-22-50-48-1-27 23-51 50-50zm768 98-30 3c-20 5-18 30-18 46 0 17-3 40 17 47q31 5 62 1c20-7 18-31 19-48-1-16 1-41-20-46z"/>
  <path fill="#50893f" d="m2480 79-5 1c-23 3-42 23-42 46l-1 61c14-12 30-23 49-22 19-2 35 9 49 21v-59c0-26-24-49-50-48m0 125h-5c-25 3-45 28-43 54v540c3 28-20 55-49 54l-128 1V745q1-17-4-33c-13-13-28 5-38 14q-70 70-140 141a47 47 0 0 0-1 67l129 129q16 17 35 32h10q8-12 9-25V950h128c78 1 148-70 147-147V253c1-26-24-50-50-49"/>
</svg>
